G04*
G04 #@! TF.GenerationSoftware,Altium Limited,Altium Designer,21.7.2 (23)*
G04*
G04 Layer_Color=32896*
%FSTAX44Y44*%
%MOMM*%
G71*
G04*
G04 #@! TF.SameCoordinates,382B67D8-D4E2-4276-A31F-CACD3676A529*
G04*
G04*
G04 #@! TF.FilePolarity,Positive*
G04*
G01*
G75*
%ADD10C,0.2000*%
%ADD61C,0.1500*%
%ADD62C,0.5000*%
D10*
X-002405Y-00077D02*
G03*
X-002405Y-00077I-0004J0D01*
G01*
X-0012Y00035D02*
Y00049D01*
Y00035D02*
X-00106D01*
X-0012D02*
X-00086Y00069D01*
X-001265Y-001485D02*
X-001195D01*
X-001265D02*
Y-001265D01*
X-001195D01*
Y-001485D02*
Y-001265D01*
X00104Y001555D02*
Y001625D01*
X00126D01*
Y001555D02*
Y001625D01*
X00104Y001555D02*
X00126D01*
X001485Y-001225D02*
Y-001155D01*
X001265Y-001225D02*
X001485D01*
X001265D02*
Y-001155D01*
X001485D01*
X-0014875Y001145D02*
X-0012675D01*
Y001215D01*
X-0014875D02*
X-0012675D01*
X-0014875Y001145D02*
Y001215D01*
X-00308661Y00286849D02*
X-00308866Y00289196D01*
X-00306724Y00291749D01*
X-00304377Y00291954D01*
X-003031Y00290883D01*
X-00302895Y00288536D01*
X-00305037Y00285983D01*
X-00304832Y00283636D01*
X-00303555Y00282565D01*
X-00301208Y0028277D01*
X-00299066Y00285323D01*
X-00299272Y0028767D01*
X-00304421Y00278941D02*
X-00312079Y00285367D01*
X-00315292Y00281538D01*
X-00315086Y00279191D01*
X-00312534Y00277049D01*
X-00310187Y00277254D01*
X-00306974Y00281083D01*
X-00279735Y00321321D02*
X-00279941Y00323668D01*
X-00277799Y00326221D01*
X-00275452Y00326426D01*
X-00270346Y00322142D01*
X-00270141Y00319795D01*
X-00272283Y00317242D01*
X-0027463Y00317037D01*
X-00277183Y00319179D01*
X-00275041Y00321731D01*
X-00275496Y00313413D02*
X-00283154Y00319839D01*
X-0027978Y00308308D01*
X-00287438Y00314734D01*
X-0028958Y00312181D02*
X-00281922Y00305755D01*
X-00285134Y00301926D01*
X-00287482Y00301721D01*
X-00292587Y00306005D01*
X-00292792Y00308352D01*
X-0028958Y00312181D01*
X-00324937Y00270044D02*
X-00317279Y00263618D01*
X-00320492Y00259789D01*
X-00322839Y00259584D01*
X-00327945Y00263867D01*
X-0032815Y00266215D01*
X-00324937Y00270044D01*
X-00323705Y0025596D02*
X-0032881Y00260244D01*
X-00333505Y00259833D01*
X-00333094Y00255138D01*
X-00327989Y00250855D01*
X-00331818Y00254067D01*
X-00327534Y00259173D01*
X-00337789Y00254728D02*
X-00342072Y00249622D01*
X-00339931Y00252175D01*
X-00332273Y00245749D01*
X-00336557Y00240644D02*
X-00341662Y00244928D01*
X-00346356Y00244517D01*
X-00345946Y00239823D01*
X-0034084Y00235539D01*
X-00344669Y00238752D01*
X-00340386Y00243857D01*
X-00353862Y00235572D02*
X-00348757Y00231288D01*
X-00348346Y00226593D01*
X-00353041Y00226182D01*
X-00358146Y00230466D01*
X-00360288Y00227914D02*
X-0035263Y00221488D01*
X-00355843Y00217659D01*
X-0035819Y00217453D01*
X-00363296Y00221737D01*
X-00363501Y00224085D01*
X-00360288Y00227914D01*
X-00366714Y00220256D02*
X-00359056Y0021383D01*
X-00362269Y00210001D01*
X-00364616Y00209795D01*
X-00369721Y00214079D01*
X-00369927Y00216427D01*
X-00366714Y00220256D01*
X00228893Y00353782D02*
X00231168Y00354392D01*
X00234054Y00352726D01*
X00234664Y0035045D01*
X00233831Y00349007D01*
X00231555Y00348397D01*
X00228669Y00350063D01*
X00226393Y00349454D01*
X0022556Y00348011D01*
X0022617Y00345735D01*
X00229056Y00344068D01*
X00231332Y00344678D01*
X00221841Y00348234D02*
X0022684Y00356891D01*
X00222511Y0035939D01*
X00220235Y00358781D01*
X00218569Y00355895D01*
X00219179Y00353619D01*
X00223508Y0035112D01*
X00267864Y00331282D02*
X0027014Y00331892D01*
X00273025Y00330226D01*
X00273635Y0032795D01*
X00270303Y00322178D01*
X00268027Y00321568D01*
X00265141Y00323235D01*
X00264531Y00325511D01*
X00266197Y00328396D01*
X00269083Y0032673D01*
X00260812Y00325734D02*
X00265811Y00334391D01*
X00255041Y00329066D01*
X00260039Y00337724D01*
X00257153Y0033939D02*
X00252155Y00330732D01*
X00247826Y00333231D01*
X00247216Y00335507D01*
X00250549Y00341279D01*
X00252825Y00341889D01*
X00257153Y0033939D01*
X00209516Y00366893D02*
X00204518Y00358235D01*
X00200189Y00360734D01*
X0019958Y0036301D01*
X00202912Y00368782D01*
X00205188Y00369392D01*
X00209516Y00366893D01*
X00195861Y00363234D02*
X00199193Y00369005D01*
X00197973Y00373557D01*
X00193421Y00372338D01*
X00190089Y00366566D01*
X00192588Y00370895D01*
X0019836Y00367562D01*
X00192201Y0037689D02*
X0018643Y00380222D01*
X00189316Y00378556D01*
X00184317Y00369898D01*
X00178546Y00373231D02*
X00181878Y00379002D01*
X00180658Y00383554D01*
X00176106Y00382334D01*
X00172774Y00376563D01*
X00175273Y00380891D01*
X00181045Y00377559D01*
X00170545Y00389393D02*
X00167213Y00383621D01*
X00162661Y00382402D01*
X00161441Y00386954D01*
X00164774Y00392725D01*
X00161888Y00394391D02*
X00156889Y00385734D01*
X00152561Y00388233D01*
X00151951Y00390509D01*
X00155283Y00396281D01*
X00157559Y0039689D01*
X00161888Y00394391D01*
X0015323Y0039939D02*
X00148232Y00390732D01*
X00143903Y00393231D01*
X00143293Y00395507D01*
X00146626Y00401279D01*
X00148902Y00401889D01*
X0015323Y0039939D01*
X00388154Y-00163981D02*
X0038915Y-00166117D01*
X0038801Y-00169248D01*
X00385875Y-00170244D01*
X00384309Y-00169674D01*
X00383313Y-00167539D01*
X00384453Y-00164407D01*
X00383457Y-00162272D01*
X00381892Y-00161702D01*
X00379756Y-00162698D01*
X00378616Y-00165829D01*
X00379612Y-00167964D01*
X00381466Y-00158001D02*
X0039086Y-0016142D01*
X00392569Y-00156723D01*
X00391573Y-00154587D01*
X00388442Y-00153448D01*
X00386306Y-00154444D01*
X00384597Y-00159141D01*
X00372763Y-00206268D02*
X00373759Y-00208403D01*
X0037262Y-00211534D01*
X00370484Y-0021253D01*
X00364221Y-00210251D01*
X00363226Y-00208115D01*
X00364365Y-00204984D01*
X00366501Y-00203988D01*
X00369632Y-00205128D01*
X00368492Y-00208259D01*
X00366075Y-00200287D02*
X00375469Y-00203706D01*
X00368354Y-00194024D01*
X00377748Y-00197444D01*
X00378888Y-00194312D02*
X00369494Y-00190893D01*
X00371203Y-00186196D01*
X00373339Y-001852D01*
X00379602Y-0018748D01*
X00380597Y-00189615D01*
X00378888Y-00194312D01*
X00397701Y-00142623D02*
X00388307Y-00139204D01*
X00390017Y-00134507D01*
X00392152Y-00133511D01*
X00398415Y-00135791D01*
X00399411Y-00137926D01*
X00397701Y-00142623D01*
X00391726Y-0012981D02*
X00397989Y-00132089D01*
X0040226Y-00130098D01*
X00400268Y-00125827D01*
X00394006Y-00123547D01*
X00398703Y-00125257D01*
X00396423Y-00131519D01*
X00404539Y-00123835D02*
X00406819Y-00117573D01*
X00405679Y-00120704D01*
X00396285Y-00117285D01*
X00398564Y-00111022D02*
X00404827Y-00113302D01*
X00409098Y-0011131D01*
X00407107Y-00107039D01*
X00400844Y-0010476D01*
X00405541Y-00106469D01*
X00403261Y-00112732D01*
X00413092Y-00100337D02*
X00406829Y-00098057D01*
X00404838Y-00093786D01*
X00409109Y-00091795D01*
X00415372Y-00094074D01*
X00416511Y-00090943D02*
X00407117Y-00087524D01*
X00408827Y-00082827D01*
X00410962Y-00081831D01*
X00417225Y-0008411D01*
X00418221Y-00086246D01*
X00416511Y-00090943D01*
X0041993Y-00081549D02*
X00410536Y-0007813D01*
X00412246Y-00073433D01*
X00414381Y-00072437D01*
X00420644Y-00074717D01*
X0042164Y-00076852D01*
X0041993Y-00081549D01*
X-00094088Y-00410732D02*
X-00096018Y-00412084D01*
X-00099299Y-00411505D01*
X-00100651Y-00409575D01*
X-00100362Y-00407934D01*
X-00098432Y-00406583D01*
X-0009515Y-00407161D01*
X-0009322Y-0040581D01*
X-0009293Y-00404169D01*
X-00094282Y-00402239D01*
X-00097564Y-0040166D01*
X-00099494Y-00403012D01*
X-0008936Y-00403107D02*
X-00091096Y-00412952D01*
X-00086173Y-0041382D01*
X-00084243Y-00412468D01*
X-00083664Y-00409187D01*
X-00085016Y-00407257D01*
X-00089938Y-00406389D01*
X-00138404Y-00402918D02*
X-00140334Y-0040427D01*
X-00143616Y-00403691D01*
X-00144968Y-00401761D01*
X-0014381Y-00395198D01*
X-0014188Y-00393846D01*
X-00138598Y-00394425D01*
X-00137247Y-00396355D01*
X-00137826Y-00399636D01*
X-00141107Y-00399058D01*
X-00133676Y-00395293D02*
X-00135412Y-00405138D01*
X-00127113Y-0039645D01*
X-00128849Y-00406295D01*
X-00125567Y-00406874D02*
X-00123831Y-00397029D01*
X-00118909Y-00397897D01*
X-00117557Y-00399827D01*
X-00118715Y-0040639D01*
X-00120645Y-00407742D01*
X-00125567Y-00406874D01*
X-00071396Y-00416425D02*
X-0006966Y-0040658D01*
X-00064738Y-00407448D01*
X-00063386Y-00409379D01*
X-00064544Y-00415942D01*
X-00066474Y-00417293D01*
X-00071396Y-00416425D01*
X-00059816Y-00408316D02*
X-00060973Y-0041488D01*
X-0005827Y-0041874D01*
X-00054409Y-00416037D01*
X-00053252Y-00409474D01*
X-0005412Y-00414396D01*
X-00060683Y-00413239D01*
X-00051707Y-00419897D02*
X-00045143Y-00421054D01*
X-00048425Y-00420476D01*
X-00046689Y-00410631D01*
X-00040126Y-00411788D02*
X-00041283Y-00418351D01*
X-0003858Y-00422212D01*
X-0003472Y-00419509D01*
X-00033562Y-00412946D01*
X-0003443Y-00417868D01*
X-00040994Y-00416711D01*
X-0002708Y-0042424D02*
X-00025923Y-00417676D01*
X-00022062Y-00414973D01*
X-00019359Y-00418834D01*
X-00020517Y-00425397D01*
X-00017235Y-00425975D02*
X-00015499Y-00416131D01*
X-00010577Y-00416999D01*
X-00009225Y-00418929D01*
X-00010382Y-00425492D01*
X-00012313Y-00426843D01*
X-00017235Y-00425975D01*
X-0000739Y-00427711D02*
X-00005654Y-00417867D01*
X-00000732Y-00418735D01*
X0000062Y-00420665D01*
X-00000538Y-00427228D01*
X-00002468Y-00428579D01*
X-0000739Y-00427711D01*
X-00420831Y-00021335D02*
X-00422497Y-00023002D01*
Y-00026334D01*
X-00420831Y-00028D01*
X-00419165D01*
X-00417498Y-00026334D01*
Y-00023002D01*
X-00415832Y-00021335D01*
X-00414166D01*
X-004125Y-00023002D01*
Y-00026334D01*
X-00414166Y-00028D01*
X-004125Y-00018003D02*
X-00422497D01*
Y-00013005D01*
X-00420831Y-00011339D01*
X-00417498D01*
X-00415832Y-00013005D01*
Y-00018003D01*
X-00420831Y-00066336D02*
X-00422497Y-00068002D01*
Y-00071334D01*
X-00420831Y-00073D01*
X-00414166D01*
X-004125Y-00071334D01*
Y-00068002D01*
X-00414166Y-00066336D01*
X-00417498D01*
Y-00069668D01*
X-004125Y-00063003D02*
X-00422497D01*
X-004125Y-00056339D01*
X-00422497D01*
Y-00053006D02*
X-004125D01*
Y-00048008D01*
X-00414166Y-00046342D01*
X-00420831D01*
X-00422497Y-00048008D01*
Y-00053006D01*
Y00002D02*
X-004125D01*
Y00006998D01*
X-00414166Y00008665D01*
X-00420831D01*
X-00422497Y00006998D01*
Y00002D01*
X-004125Y00011997D02*
X-00419165D01*
X-00422497Y00015329D01*
X-00419165Y00018661D01*
X-004125D01*
X-00417498D01*
Y00011997D01*
X-00422497Y00021994D02*
Y00028658D01*
Y00025326D01*
X-004125D01*
Y0003199D02*
X-00419165D01*
X-00422497Y00035323D01*
X-00419165Y00038655D01*
X-004125D01*
X-00417498D01*
Y0003199D01*
X-00422497Y00047D02*
X-00415832D01*
X-004125Y00050332D01*
X-00415832Y00053664D01*
X-00422497D01*
Y00056997D02*
X-004125D01*
Y00061995D01*
X-00414166Y00063661D01*
X-00420831D01*
X-00422497Y00061995D01*
Y00056997D01*
Y00066994D02*
X-004125D01*
Y00071992D01*
X-00414166Y00073658D01*
X-00420831D01*
X-00422497Y00071992D01*
Y00066994D01*
X-00094088Y00410732D02*
X-00096018Y00412084D01*
X-000993Y00411505D01*
X-00100651Y00409575D01*
X-00100362Y00407934D01*
X-00098432Y00406583D01*
X-0009515Y00407161D01*
X-0009322Y0040581D01*
X-00092931Y00404169D01*
X-00094282Y00402239D01*
X-00097564Y0040166D01*
X-00099494Y00403012D01*
X-0008936Y00403107D02*
X-00091096Y00412952D01*
X-00086173Y0041382D01*
X-00084243Y00412468D01*
X-00083664Y00409187D01*
X-00085016Y00407257D01*
X-00089938Y00406389D01*
X-00138404Y00402918D02*
X-00140334Y0040427D01*
X-00143616Y00403691D01*
X-00144967Y00401761D01*
X-0014381Y00395198D01*
X-0014188Y00393846D01*
X-00138598Y00394425D01*
X-00137247Y00396355D01*
X-00137825Y00399637D01*
X-00141107Y00399058D01*
X-00133676Y00395293D02*
X-00135412Y00405138D01*
X-00127113Y0039645D01*
X-00128849Y00406295D01*
X-00125567Y00406874D02*
X-00123831Y00397029D01*
X-00118909Y00397897D01*
X-00117557Y00399827D01*
X-00118714Y0040639D01*
X-00120645Y00407742D01*
X-00125567Y00406874D01*
X-00071396Y00416426D02*
X-0006966Y00406581D01*
X-00064738Y00407449D01*
X-00063386Y00409379D01*
X-00064544Y00415942D01*
X-00066474Y00417293D01*
X-00071396Y00416426D01*
X-00059815Y00408316D02*
X-00060973Y0041488D01*
X-0005827Y0041874D01*
X-00054409Y00416037D01*
X-00053252Y00409474D01*
X-0005412Y00414396D01*
X-00060683Y00413239D01*
X-00051706Y00419897D02*
X-00045143Y00421055D01*
X-00048425Y00420476D01*
X-00046689Y00410631D01*
X-00040126Y00411788D02*
X-00041283Y00418352D01*
X-0003858Y00422212D01*
X-0003472Y00419509D01*
X-00033562Y00412946D01*
X-0003443Y00417868D01*
X-00040993Y00416711D01*
X-0002708Y0042424D02*
X-00025923Y00417676D01*
X-00022062Y00414973D01*
X-00019359Y00418834D01*
X-00020517Y00425397D01*
X-00017235Y00425975D02*
X-00015499Y0041613D01*
X-00010577Y00416998D01*
X-00009225Y00418929D01*
X-00010382Y00425492D01*
X-00012313Y00426843D01*
X-00017235Y00425975D01*
X-0000739Y00427711D02*
X-00005654Y00417866D01*
X-00000732Y00418734D01*
X0000062Y00420664D01*
X-00000538Y00427228D01*
X-00002468Y00428579D01*
X-0000739Y00427711D01*
X00388154Y00163981D02*
X0038915Y00166117D01*
X0038801Y00169248D01*
X00385875Y00170244D01*
X00384309Y00169674D01*
X00383313Y00167539D01*
X00384453Y00164407D01*
X00383457Y00162272D01*
X00381892Y00161702D01*
X00379756Y00162698D01*
X00378616Y00165829D01*
X00379612Y00167964D01*
X00381466Y00158001D02*
X0039086Y0016142D01*
X00392569Y00156723D01*
X00391573Y00154587D01*
X00388442Y00153448D01*
X00386306Y00154443D01*
X00384597Y0015914D01*
X00372763Y00206268D02*
X00373759Y00208403D01*
X00372619Y00211534D01*
X00370484Y0021253D01*
X00364221Y00210251D01*
X00363226Y00208115D01*
X00364365Y00204984D01*
X00366501Y00203988D01*
X00369632Y00205128D01*
X00368492Y00208259D01*
X00366075Y00200287D02*
X00375469Y00203706D01*
X00368354Y00194024D01*
X00377748Y00197443D01*
X00378888Y00194312D02*
X00369494Y00190893D01*
X00371203Y00186196D01*
X00373339Y001852D01*
X00379602Y0018748D01*
X00380597Y00189615D01*
X00378888Y00194312D01*
X00397701Y00142623D02*
X00388307Y00139204D01*
X00390017Y00134507D01*
X00392152Y00133511D01*
X00398415Y00135791D01*
X00399411Y00137926D01*
X00397701Y00142623D01*
X00391726Y0012981D02*
X00397989Y00132089D01*
X0040226Y00130098D01*
X00400268Y00125827D01*
X00394006Y00123547D01*
X00398703Y00125257D01*
X00396423Y00131519D01*
X00404539Y00123835D02*
X00406819Y00117573D01*
X00405679Y00120704D01*
X00396285Y00117285D01*
X00398565Y00111022D02*
X00404827Y00113302D01*
X00409098Y0011131D01*
X00407107Y00107039D01*
X00400844Y0010476D01*
X00405541Y00106469D01*
X00403261Y00112732D01*
X00413092Y00100337D02*
X00406829Y00098057D01*
X00404838Y00093786D01*
X00409109Y00091795D01*
X00415372Y00094074D01*
X00416511Y00090943D02*
X00407117Y00087524D01*
X00408827Y00082827D01*
X00410962Y00081831D01*
X00417225Y0008411D01*
X00418221Y00086246D01*
X00416511Y00090943D01*
X0041993Y00081549D02*
X00410536Y0007813D01*
X00412246Y00073433D01*
X00414381Y00072437D01*
X00420644Y00074717D01*
X0042164Y00076852D01*
X0041993Y00081549D01*
X00228892Y-00353782D02*
X00231168Y-00354392D01*
X00234054Y-00352726D01*
X00234664Y-0035045D01*
X00233831Y-00349007D01*
X00231555Y-00348397D01*
X00228669Y-00350063D01*
X00226393Y-00349454D01*
X0022556Y-00348011D01*
X0022617Y-00345735D01*
X00229056Y-00344068D01*
X00231332Y-00344678D01*
X00221841Y-00348234D02*
X0022684Y-00356891D01*
X00222511Y-0035939D01*
X00220235Y-00358781D01*
X00218569Y-00355895D01*
X00219179Y-00353619D01*
X00223507Y-0035112D01*
X00267864Y-00331282D02*
X00270139Y-00331892D01*
X00273025Y-00330226D01*
X00273635Y-0032795D01*
X00270303Y-00322178D01*
X00268027Y-00321569D01*
X00265141Y-00323235D01*
X00264531Y-00325511D01*
X00266197Y-00328396D01*
X00269083Y-0032673D01*
X00260812Y-00325734D02*
X00265811Y-00334391D01*
X00255041Y-00329066D01*
X00260039Y-00337724D01*
X00257153Y-0033939D02*
X00252155Y-00330732D01*
X00247826Y-00333232D01*
X00247216Y-00335508D01*
X00250548Y-00341279D01*
X00252824Y-00341889D01*
X00257153Y-0033939D01*
X00209516Y-00366893D02*
X00204518Y-00358236D01*
X00200189Y-00360735D01*
X00199579Y-00363011D01*
X00202911Y-00368782D01*
X00205187Y-00369392D01*
X00209516Y-00366893D01*
X0019586Y-00363234D02*
X00199193Y-00369006D01*
X00197973Y-00373558D01*
X00193421Y-00372338D01*
X00190089Y-00366566D01*
X00192588Y-00370895D01*
X0019836Y-00367563D01*
X00192201Y-0037689D02*
X0018643Y-00380222D01*
X00189315Y-00378556D01*
X00184317Y-00369898D01*
X00178545Y-00373231D02*
X00181878Y-00379002D01*
X00180658Y-00383554D01*
X00176106Y-00382335D01*
X00172774Y-00376563D01*
X00175273Y-00380892D01*
X00181045Y-00377559D01*
X00170545Y-00389393D02*
X00167213Y-00383621D01*
X00162661Y-00382402D01*
X00161441Y-00386954D01*
X00164774Y-00392725D01*
X00161888Y-00394391D02*
X00156889Y-00385734D01*
X00152561Y-00388233D01*
X00151951Y-00390509D01*
X00155283Y-00396281D01*
X00157559Y-0039689D01*
X00161888Y-00394391D01*
X0015323Y-0039939D02*
X00148232Y-00390732D01*
X00143903Y-00393232D01*
X00143293Y-00395507D01*
X00146625Y-00401279D01*
X00148901Y-00401889D01*
X0015323Y-0039939D01*
X-00308661Y-00286849D02*
X-00308866Y-00289196D01*
X-00306724Y-00291749D01*
X-00304377Y-00291954D01*
X-00303101Y-00290883D01*
X-00302895Y-00288536D01*
X-00305037Y-00285983D01*
X-00304832Y-00283636D01*
X-00303556Y-00282565D01*
X-00301208Y-0028277D01*
X-00299066Y-00285323D01*
X-00299272Y-0028767D01*
X-00304421Y-00278941D02*
X-00312079Y-00285367D01*
X-00315292Y-00281538D01*
X-00315087Y-00279191D01*
X-00312534Y-00277049D01*
X-00310187Y-00277254D01*
X-00306974Y-00281083D01*
X-00279735Y-00321321D02*
X-00279941Y-00323668D01*
X-00277799Y-00326221D01*
X-00275452Y-00326426D01*
X-00270346Y-00322142D01*
X-00270141Y-00319795D01*
X-00272283Y-00317242D01*
X-0027463Y-00317037D01*
X-00277183Y-00319179D01*
X-00275041Y-00321731D01*
X-00275496Y-00313413D02*
X-00283154Y-00319839D01*
X-0027978Y-00308308D01*
X-00287438Y-00314734D01*
X-0028958Y-00312181D02*
X-00281922Y-00305755D01*
X-00285134Y-00301926D01*
X-00287482Y-00301721D01*
X-00292587Y-00306005D01*
X-00292792Y-00308352D01*
X-0028958Y-00312181D01*
X-00324937Y-00270044D02*
X-00317279Y-00263618D01*
X-00320492Y-00259789D01*
X-00322839Y-00259583D01*
X-00327944Y-00263867D01*
X-0032815Y-00266215D01*
X-00324937Y-00270044D01*
X-00323705Y-0025596D02*
X-0032881Y-00260244D01*
X-00333505Y-00259833D01*
X-00333094Y-00255138D01*
X-00327989Y-00250854D01*
X-00331818Y-00254067D01*
X-00327534Y-00259173D01*
X-00337789Y-00254728D02*
X-00342072Y-00249622D01*
X-0033993Y-00252175D01*
X-00332272Y-00245749D01*
X-00336556Y-00240644D02*
X-00341662Y-00244928D01*
X-00346356Y-00244517D01*
X-00345946Y-00239822D01*
X-0034084Y-00235539D01*
X-00344669Y-00238751D01*
X-00340385Y-00243857D01*
X-00353862Y-00235571D02*
X-00348757Y-00231288D01*
X-00348346Y-00226593D01*
X-00353041Y-00226182D01*
X-00358146Y-00230466D01*
X-00360288Y-00227914D02*
X-0035263Y-00221488D01*
X-00355843Y-00217659D01*
X-0035819Y-00217453D01*
X-00363296Y-00221737D01*
X-00363501Y-00224085D01*
X-00360288Y-00227914D01*
X-00366714Y-00220256D02*
X-00359056Y-0021383D01*
X-00362269Y-00210001D01*
X-00364616Y-00209795D01*
X-00369721Y-00214079D01*
X-00369927Y-00216427D01*
X-00366714Y-00220256D01*
X-00042279Y00148662D02*
X-00042889Y00150938D01*
X-00041223Y00153823D01*
X-00038947Y00154433D01*
X-00037504Y001536D01*
X-00036894Y00151324D01*
X-0003856Y00148438D01*
X-0003795Y00146162D01*
X-00036507Y00145329D01*
X-00034231Y00145939D01*
X-00032565Y00148825D01*
X-00033175Y00151101D01*
X-00047887Y0014228D02*
X-00046221Y00145166D01*
X-00043945Y00145776D01*
X-00038173Y00142444D01*
X-00037564Y00140168D01*
X-0003923Y00137282D01*
X-00041506Y00136672D01*
X-00047277Y00140004D01*
X-00047887Y0014228D01*
X-00050386Y00137951D02*
X-00041729Y00132953D01*
X-00045061Y00127181D01*
X-00055385Y00129294D02*
X-00046727Y00124296D01*
X-00049226Y00119967D01*
X-00051502Y00119357D01*
X-00057274Y00122689D01*
X-00057884Y00124965D01*
X-00055385Y00129294D01*
X-00063715Y00114865D02*
X-00060383Y00120637D01*
X-00051726Y00115638D01*
X-00055058Y00109866D01*
X-00056054Y00118137D02*
X-0005772Y00115251D01*
X-00056724Y00106981D02*
X-00065381Y00111979D01*
X-00067881Y0010765D01*
X-00067271Y00105374D01*
X-00064385Y00103708D01*
X-00062109Y00104318D01*
X-0005961Y00108647D01*
X-00061276Y00105761D02*
X-00060056Y00101209D01*
X-00075378Y00094664D02*
X-00077044Y00091778D01*
X-00076211Y00093221D01*
X-00067554Y00088223D01*
X-00066721Y00089666D01*
X-00068387Y0008678D01*
X-00079544Y0008745D02*
X-00082876Y00081678D01*
X-0008121Y00084564D01*
X-00072552Y00079565D01*
X-00011997Y001225D02*
Y00119168D01*
Y00120834D01*
X-00002D01*
Y001225D01*
Y00119168D01*
X-00011997Y00114169D02*
X-00002D01*
Y00107505D01*
X-00011997Y00099174D02*
Y00102506D01*
X-00010331Y00104173D01*
X-00003666D01*
X-00002Y00102506D01*
Y00099174D01*
X-00003666Y00097508D01*
X-00010331D01*
X-00011997Y00099174D01*
X-00002Y00094176D02*
X-00011997D01*
Y00089177D01*
X-00010331Y00087511D01*
X-00006998D01*
X-00005332Y00089177D01*
Y00094176D01*
Y00090844D02*
X-00002Y00087511D01*
X-00011997Y00084179D02*
X-00002D01*
Y00079181D01*
X-00003666Y00077515D01*
X-00010331D01*
X-00011997Y00079181D01*
Y00084179D01*
X-00002Y00074182D02*
X-00008665D01*
X-00011997Y0007085D01*
X-00008665Y00067518D01*
X-00002D01*
X-00006998D01*
Y00074182D01*
X-00010331Y00057521D02*
X-00011997Y00059187D01*
Y00062519D01*
X-00010331Y00064186D01*
X-00008665D01*
X-00006998Y00062519D01*
Y00059187D01*
X-00005332Y00057521D01*
X-00003666D01*
X-00002Y00059187D01*
Y00062519D01*
X-00003666Y00064186D01*
X-00011997Y00054189D02*
X-00002D01*
X-00006998D01*
Y00047524D01*
X-00011997D01*
X-00002D01*
X-00011997Y00034195D02*
X-00002D01*
X-00006998D01*
Y00027531D01*
X-00011997D01*
X-00002D01*
Y00024198D02*
X-00008665D01*
X-00011997Y00020866D01*
X-00008665Y00017534D01*
X-00002D01*
X-00006998D01*
Y00024198D01*
X-00003666Y00007537D02*
X-00010331D01*
X-00011997Y00009203D01*
Y00012535D01*
X-00010331Y00014202D01*
X-00003666D01*
X-00002Y00012535D01*
Y00009203D01*
X-00005332Y00010869D02*
X-00002Y00007537D01*
Y00009203D02*
X-00003666Y00007537D01*
X-00008665Y00004205D02*
X-00003666D01*
X-00002Y00002539D01*
Y-0000246D01*
X-00008665D01*
X-00011997Y-00005792D02*
X-00002D01*
Y-0001079D01*
X-00003666Y-00012457D01*
X-00010331D01*
X-00011997Y-0001079D01*
Y-00005792D01*
X-00002Y-00015789D02*
X-00008665D01*
X-00011997Y-00019121D01*
X-00008665Y-00022453D01*
X-00002D01*
X-00006998D01*
Y-00015789D01*
X-00011997Y-00035782D02*
X-00003666D01*
X-00002Y-00037448D01*
Y-00040781D01*
X-00003666Y-00042447D01*
X-00011997D01*
X-00002Y-00045779D02*
X-00011997D01*
Y-00050778D01*
X-00010331Y-00052444D01*
X-00006998D01*
X-00005332Y-00050778D01*
Y-00045779D01*
X-00002Y-00055776D02*
X-00011997D01*
Y-00060774D01*
X-00010331Y-0006244D01*
X-00006998D01*
X-00005332Y-00060774D01*
Y-00055776D01*
X-00011997Y-00072437D02*
Y-00065773D01*
X-00002D01*
Y-00072437D01*
X-00006998Y-00065773D02*
Y-00069105D01*
X-00002Y-00075769D02*
X-00011997D01*
Y-00080768D01*
X-00010331Y-00082434D01*
X-00006998D01*
X-00005332Y-00080768D01*
Y-00075769D01*
Y-00079102D02*
X-00002Y-00082434D01*
Y-00095763D02*
X-00011997D01*
Y-00100761D01*
X-00010331Y-00102428D01*
X-00006998D01*
X-00005332Y-00100761D01*
Y-00095763D01*
X-00010331Y-00112424D02*
X-00011997Y-00110758D01*
Y-00107426D01*
X-00010331Y-0010576D01*
X-00003666D01*
X-00002Y-00107426D01*
Y-00110758D01*
X-00003666Y-00112424D01*
X-00011997Y-00115757D02*
X-00002D01*
Y-00120755D01*
X-00003666Y-00122421D01*
X-00005332D01*
X-00006998Y-00120755D01*
Y-00115757D01*
Y-00120755D01*
X-00008665Y-00122421D01*
X-00010331D01*
X-00011997Y-00120755D01*
Y-00115757D01*
X-00358334Y-00170002D02*
X-00355002D01*
X-00356668D01*
Y-00178332D01*
X-00355002Y-00179998D01*
X-00353335D01*
X-00351669Y-00178332D01*
X-00361666D02*
X-00363332Y-00179998D01*
X-00366665D01*
X-00368331Y-00178332D01*
Y-00171668D01*
X-00366665Y-00170002D01*
X-00363332D01*
X-00361666Y-00171668D01*
Y-00173334D01*
X-00363332Y-00175D01*
X-00368331D01*
X-00168334Y-00360002D02*
X-00165002D01*
X-00166668D01*
Y-00368332D01*
X-00165002Y-00369998D01*
X-00163335D01*
X-00161669Y-00368332D01*
X-00171666Y-00361668D02*
X-00173332Y-00360002D01*
X-00176665D01*
X-00178331Y-00361668D01*
Y-00363334D01*
X-00176665Y-00365D01*
X-00178331Y-00366666D01*
Y-00368332D01*
X-00176665Y-00369998D01*
X-00173332D01*
X-00171666Y-00368332D01*
Y-00366666D01*
X-00173332Y-00365D01*
X-00171666Y-00363334D01*
Y-00361668D01*
X-00173332Y-00365D02*
X-00176665D01*
X00111666Y-00385002D02*
X00114998D01*
X00113332D01*
Y-00393332D01*
X00114998Y-00394998D01*
X00116664D01*
X00118331Y-00393332D01*
X00108334Y-00385002D02*
X00101669D01*
Y-00386668D01*
X00108334Y-00393332D01*
Y-00394998D01*
X00341666Y-00220002D02*
X00344998D01*
X00343332D01*
Y-00228332D01*
X00344998Y-00229998D01*
X00346665D01*
X00348331Y-00228332D01*
X00331669Y-00220002D02*
X00335002Y-00221668D01*
X00338334Y-00225D01*
Y-00228332D01*
X00336668Y-00229998D01*
X00333335D01*
X00331669Y-00228332D01*
Y-00226666D01*
X00333335Y-00225D01*
X00338334D01*
X00406666Y00049998D02*
X00409998D01*
X00408332D01*
Y00041668D01*
X00409998Y00040002D01*
X00411665D01*
X00413331Y00041668D01*
X00396669Y00049998D02*
X00403334D01*
Y00045D01*
X00400002Y00046666D01*
X00398335D01*
X00396669Y00045D01*
Y00041668D01*
X00398335Y00040002D01*
X00401668D01*
X00403334Y00041668D01*
X00286666Y00294998D02*
X00289998D01*
X00288332D01*
Y00286668D01*
X00289998Y00285002D01*
X00291665D01*
X00293331Y00286668D01*
X00278335Y00285002D02*
Y00294998D01*
X00283334Y0029D01*
X00276669D01*
X00031666Y00414998D02*
X00034998D01*
X00033332D01*
Y00406668D01*
X00034998Y00405002D01*
X00036665D01*
X00038331Y00406668D01*
X00028334Y00413332D02*
X00026668Y00414998D01*
X00023335D01*
X00021669Y00413332D01*
Y00411666D01*
X00023335Y0041D01*
X00025002D01*
X00023335D01*
X00021669Y00408334D01*
Y00406668D01*
X00023335Y00405002D01*
X00026668D01*
X00028334Y00406668D01*
X-00238334Y00329998D02*
X-00235002D01*
X-00236668D01*
Y00321668D01*
X-00235002Y00320002D01*
X-00233335D01*
X-00231669Y00321668D01*
X-00248331Y00320002D02*
X-00241666D01*
X-00248331Y00326666D01*
Y00328332D01*
X-00246665Y00329998D01*
X-00243332D01*
X-00241666Y00328332D01*
X-0039Y00094998D02*
X-00386668D01*
X-00388334D01*
Y00086668D01*
X-00386668Y00085002D01*
X-00385002D01*
X-00383335Y00086668D01*
X-00393332Y00085002D02*
X-00396665D01*
X-00394998D01*
Y00094998D01*
X-00393332Y00093332D01*
X-00144673Y-00178998D02*
Y-00172334D01*
X-00148005Y-00169002D01*
X-00151337Y-00172334D01*
Y-00178998D01*
Y-00174D01*
X-00144673D01*
X-00154669Y-00169002D02*
Y-00178998D01*
Y-00174D01*
X-00161334D01*
Y-00169002D01*
Y-00178998D01*
X-00164666Y-00169002D02*
Y-00178998D01*
X-00171331D01*
X-00174663Y-00169002D02*
Y-00178998D01*
X-00179661D01*
X-00181327Y-00177332D01*
Y-00175666D01*
X-00179661Y-00174D01*
X-00174663D01*
X-00179661D01*
X-00181327Y-00172334D01*
Y-00170668D01*
X-00179661Y-00169002D01*
X-00174663D01*
X-00148671Y-00095002D02*
X-00155336D01*
X-00152003D01*
Y-00104998D01*
X-00163666Y-00095002D02*
X-00160334D01*
X-00158668Y-00096668D01*
Y-00103332D01*
X-00160334Y-00104998D01*
X-00163666D01*
X-00165332Y-00103332D01*
Y-00096668D01*
X-00163666Y-00095002D01*
X-00175329Y-00096668D02*
X-00173663Y-00095002D01*
X-00170331D01*
X-00168664Y-00096668D01*
Y-00103332D01*
X-00170331Y-00104998D01*
X-00173663D01*
X-00175329Y-00103332D01*
Y-001D01*
X-00171997D01*
X00207327Y-00165998D02*
Y-00159334D01*
X00203995Y-00156002D01*
X00200663Y-00159334D01*
Y-00165998D01*
Y-00161D01*
X00207327D01*
X00197331Y-00156002D02*
Y-00165998D01*
Y-00161D01*
X00190666D01*
Y-00156002D01*
Y-00165998D01*
X00187334Y-00156002D02*
Y-00165998D01*
X00180669D01*
X00177337Y-00156002D02*
Y-00165998D01*
X00172339D01*
X00170673Y-00164332D01*
Y-00162666D01*
X00172339Y-00161D01*
X00177337D01*
X00172339D01*
X00170673Y-00159334D01*
Y-00157668D01*
X00172339Y-00156002D01*
X00177337D01*
X00107329Y-00157002D02*
X00100665D01*
X00103997D01*
Y-00166998D01*
X00092334Y-00157002D02*
X00095666D01*
X00097332Y-00158668D01*
Y-00165332D01*
X00095666Y-00166998D01*
X00092334D01*
X00090668Y-00165332D01*
Y-00158668D01*
X00092334Y-00157002D01*
X00080671Y-00158668D02*
X00082337Y-00157002D01*
X00085669D01*
X00087336Y-00158668D01*
Y-00165332D01*
X00085669Y-00166998D01*
X00082337D01*
X00080671Y-00165332D01*
Y-00162D01*
X00084003D01*
X00082267Y00197786D02*
X00082346Y0020445D01*
X00079053Y00207822D01*
X00075682Y00204529D01*
X00075603Y00197865D01*
X00075662Y00202863D01*
X00082326Y00202784D01*
X00072389Y002079D02*
X00072271Y00197904D01*
X0007233Y00202902D01*
X00065666Y0020298D01*
X00065725Y00207978D01*
X00065607Y00197982D01*
X00062393Y00208018D02*
X00062275Y00198022D01*
X00055611Y001981D01*
X00052397Y00208135D02*
X00052279Y00198139D01*
X00047281Y00198198D01*
X00045635Y00199884D01*
X00045654Y0020155D01*
X0004734Y00203196D01*
X00052338Y00203137D01*
X0004734Y00203196D01*
X00045693Y00204882D01*
X00045713Y00206548D01*
X00047399Y00208194D01*
X00052397Y00208135D01*
X0017701Y00206841D02*
X00170346Y0020692D01*
X00173678Y0020688D01*
X0017356Y00196884D01*
X00162016Y00207018D02*
X00165348Y00206978D01*
X00166994Y00205293D01*
X00166916Y00198629D01*
X0016523Y00196982D01*
X00161898Y00197022D01*
X00160252Y00198707D01*
X0016033Y00205371D01*
X00162016Y00207018D01*
X00150334Y00205489D02*
X0015202Y00207135D01*
X00155352Y00207096D01*
X00156998Y0020541D01*
X0015692Y00198746D01*
X00155234Y001971D01*
X00151902Y00197139D01*
X00150256Y00198825D01*
X00150295Y00202157D01*
X00153627Y00202118D01*
X-00170673Y00150002D02*
Y00156666D01*
X-00174005Y00159998D01*
X-00177337Y00156666D01*
Y00150002D01*
Y00155D01*
X-00170673D01*
X-00180669Y00159998D02*
Y00150002D01*
Y00155D01*
X-00187334D01*
Y00159998D01*
Y00150002D01*
X-00190666Y00159998D02*
Y00150002D01*
X-00197331D01*
X-00200663Y00159998D02*
Y00150002D01*
X-00205661D01*
X-00207327Y00151668D01*
Y00153334D01*
X-00205661Y00155D01*
X-00200663D01*
X-00205661D01*
X-00207327Y00156666D01*
Y00158332D01*
X-00205661Y00159998D01*
X-00200663D01*
X-00080671Y00158998D02*
X-00087336D01*
X-00084003D01*
Y00149002D01*
X-00095666Y00158998D02*
X-00092334D01*
X-00090668Y00157332D01*
Y00150668D01*
X-00092334Y00149002D01*
X-00095666D01*
X-00097332Y00150668D01*
Y00157332D01*
X-00095666Y00158998D01*
X-00107329Y00157332D02*
X-00105663Y00158998D01*
X-00102331D01*
X-00100665Y00157332D01*
Y00150668D01*
X-00102331Y00149002D01*
X-00105663D01*
X-00107329Y00150668D01*
Y00154D01*
X-00103997D01*
X-00086793Y-00110461D02*
Y-00118791D01*
X-00088459Y-00120457D01*
X-00091791D01*
X-00093457Y-00118791D01*
Y-00110461D01*
X-00101788Y-00120457D02*
Y-00110461D01*
X-00096789Y-00115459D01*
X-00103454D01*
X00117343Y-00096669D02*
Y-00105D01*
X00115677Y-00106666D01*
X00112345D01*
X00110679Y-00105D01*
Y-00096669D01*
X00107346Y-00098335D02*
X0010568Y-00096669D01*
X00102348D01*
X00100682Y-00098335D01*
Y-00100001D01*
X00102348Y-00101667D01*
X00104014D01*
X00102348D01*
X00100682Y-00103334D01*
Y-00105D01*
X00102348Y-00106666D01*
X0010568D01*
X00107346Y-00105D01*
X00152331Y00140998D02*
Y00132668D01*
X00150665Y00131002D01*
X00147332D01*
X00145666Y00132668D01*
Y00140998D01*
X00135669Y00131002D02*
X00142334D01*
X00135669Y00137666D01*
Y00139332D01*
X00137336Y00140998D01*
X00140668D01*
X00142334Y00139332D01*
X-00116334Y-00182668D02*
X-00114668Y-00181002D01*
X-00111335D01*
X-00109669Y-00182668D01*
Y-00189332D01*
X-00111335Y-00190998D01*
X-00114668D01*
X-00116334Y-00189332D01*
X-00119666D02*
X-00121332Y-00190998D01*
X-00124664D01*
X-00126331Y-00189332D01*
Y-00182668D01*
X-00124664Y-00181002D01*
X-00121332D01*
X-00119666Y-00182668D01*
Y-00184334D01*
X-00121332Y-00186D01*
X-00126331D01*
X-00190334Y-00117668D02*
X-00188668Y-00116002D01*
X-00185336D01*
X-00183669Y-00117668D01*
Y-00124332D01*
X-00185336Y-00125998D01*
X-00188668D01*
X-00190334Y-00124332D01*
X-00193666Y-00117668D02*
X-00195332Y-00116002D01*
X-00198664D01*
X-00200331Y-00117668D01*
Y-00119334D01*
X-00198664Y-00121D01*
X-00200331Y-00122666D01*
Y-00124332D01*
X-00198664Y-00125998D01*
X-00195332D01*
X-00193666Y-00124332D01*
Y-00122666D01*
X-00195332Y-00121D01*
X-00193666Y-00119334D01*
Y-00117668D01*
X-00195332Y-00121D02*
X-00198664D01*
X00192666Y-00112668D02*
X00194332Y-00111002D01*
X00197665D01*
X00199331Y-00112668D01*
Y-00119332D01*
X00197665Y-00120998D01*
X00194332D01*
X00192666Y-00119332D01*
X00189334Y-00111002D02*
X00182669D01*
Y-00112668D01*
X00189334Y-00119332D01*
Y-00120998D01*
X00161666Y-00184668D02*
X00163332Y-00183002D01*
X00166665D01*
X00168331Y-00184668D01*
Y-00191332D01*
X00166665Y-00192998D01*
X00163332D01*
X00161666Y-00191332D01*
X00151669Y-00183002D02*
X00155002Y-00184668D01*
X00158334Y-00188D01*
Y-00191332D01*
X00156668Y-00192998D01*
X00153336D01*
X00151669Y-00191332D01*
Y-00189666D01*
X00153336Y-00188D01*
X00158334D01*
X00116666Y00104332D02*
X00118332Y00105998D01*
X00121664D01*
X00123331Y00104332D01*
Y00097668D01*
X00121664Y00096002D01*
X00118332D01*
X00116666Y00097668D01*
X00106669Y00105998D02*
X00113334D01*
Y00101D01*
X00110002Y00102666D01*
X00108336D01*
X00106669Y00101D01*
Y00097668D01*
X00108336Y00096002D01*
X00111668D01*
X00113334Y00097668D01*
X00092666Y00230332D02*
X00094332Y00231998D01*
X00097664D01*
X00099331Y00230332D01*
Y00223668D01*
X00097664Y00222002D01*
X00094332D01*
X00092666Y00223668D01*
X00084335Y00222002D02*
Y00231998D01*
X00089334Y00227D01*
X00082669D01*
X-00316334Y-00028668D02*
X-00314668Y-00027002D01*
X-00311336D01*
X-00309669Y-00028668D01*
Y-00035332D01*
X-00311336Y-00036998D01*
X-00314668D01*
X-00316334Y-00035332D01*
X-00319666Y-00028668D02*
X-00321332Y-00027002D01*
X-00324664D01*
X-00326331Y-00028668D01*
Y-00030334D01*
X-00324664Y-00032D01*
X-00322998D01*
X-00324664D01*
X-00326331Y-00033666D01*
Y-00035332D01*
X-00324664Y-00036998D01*
X-00321332D01*
X-00319666Y-00035332D01*
X-00191334Y00117332D02*
X-00189668Y00118998D01*
X-00186336D01*
X-00184669Y00117332D01*
Y00110668D01*
X-00186336Y00109002D01*
X-00189668D01*
X-00191334Y00110668D01*
X-00201331Y00109002D02*
X-00194666D01*
X-00201331Y00115666D01*
Y00117332D01*
X-00199664Y00118998D01*
X-00196332D01*
X-00194666Y00117332D01*
X-00137Y00206332D02*
X-00135334Y00207998D01*
X-00132002D01*
X-00130336Y00206332D01*
Y00199668D01*
X-00132002Y00198002D01*
X-00135334D01*
X-00137Y00199668D01*
X-00140332Y00198002D02*
X-00143665D01*
X-00141998D01*
Y00207998D01*
X-00140332Y00206332D01*
X-00243337Y00002998D02*
Y-00003666D01*
X-00246669Y-00006998D01*
X-00250002Y-00003666D01*
Y00002998D01*
X-00253334D02*
Y-00006998D01*
X-00258332D01*
X-00259998Y-00005332D01*
Y00001332D01*
X-00258332Y00002998D01*
X-00253334D01*
X-00263331Y-00006998D02*
X-00266663D01*
X-00264997D01*
Y00002998D01*
X-00263331Y00001332D01*
X-00107336Y00100998D02*
Y00092668D01*
X-00109002Y00091002D01*
X-00112334D01*
X-00114Y00092668D01*
Y00100998D01*
X-00117332Y00091002D02*
X-00120665D01*
X-00118998D01*
Y00100998D01*
X-00117332Y00099332D01*
D61*
X-001005Y-00128D02*
G03*
X-001005Y-00128I-000005J0D01*
G01*
X00125Y00137D02*
G03*
X00125Y00137I-000005J0D01*
G01*
X001285Y-00097D02*
G03*
X001285Y-00097I-000005J0D01*
G01*
X-0012775Y00096D02*
G03*
X-0012775Y00096I-000005J0D01*
G01*
X-00280378Y-000215D02*
Y-00031497D01*
X-00285376Y-00026498D02*
X-00275379D01*
X00180503Y00041168D02*
Y00043834D01*
Y00042501D01*
X00187167D01*
X001885Y00043834D01*
Y00045167D01*
X00187167Y000465D01*
X00180503Y00038503D02*
X001885D01*
Y00033171D01*
X00181835Y00025174D02*
X00180503Y00026507D01*
Y00029172D01*
X00181835Y00030505D01*
X00187167D01*
X001885Y00029172D01*
Y00026507D01*
X00187167Y00025174D01*
X00180503Y00017176D02*
Y00019842D01*
Y00018509D01*
X00187167D01*
X001885Y00019842D01*
Y00021175D01*
X00187167Y00022508D01*
X00180503Y0001451D02*
X001885D01*
Y00009179D01*
X00181835Y00001181D02*
X00180503Y00002514D01*
Y0000518D01*
X00181835Y00006513D01*
X00187167D01*
X001885Y0000518D01*
Y00002514D01*
X00187167Y00001181D01*
X00180503Y-00006816D02*
Y-0000415D01*
Y-00005483D01*
X00187167D01*
X001885Y-0000415D01*
Y-00002817D01*
X00187167Y-00001485D01*
X00180503Y-00009482D02*
X001885D01*
Y-00014813D01*
X00181835Y-00022811D02*
X00180503Y-00021478D01*
Y-00018812D01*
X00181835Y-00017479D01*
X00187167D01*
X001885Y-00018812D01*
Y-00021478D01*
X00187167Y-00022811D01*
X00180503Y-00030808D02*
Y-00028142D01*
Y-00029476D01*
X00187167D01*
X001885Y-00028142D01*
Y-0002681D01*
X00187167Y-00025477D01*
X00180503Y-00033474D02*
X001885D01*
Y-00038806D01*
X00181835Y-00046803D02*
X00180503Y-0004547D01*
Y-00042804D01*
X00181835Y-00041472D01*
X00187167D01*
X001885Y-00042804D01*
Y-0004547D01*
X00187167Y-00046803D01*
D62*
X-002105Y00054D02*
G03*
X-002105Y00054I-000025J0D01*
G01*
X-00298Y00152D02*
G03*
X-00325791Y0006368I00317033J-0014829D01*
G01*
X-00297967Y0015171D02*
X-00296564Y0013067D01*
X-00316825Y00138513D02*
X-00298Y00152D01*
M02*
