M48
;Layer_Color=9474304
;FILE_FORMAT=4:4
METRIC,LZ
;TYPE=PLATED
T1F00S00C0.2000
T2F00S00C0.4000
T3F00S00C0.8500
T4F00S00C1.0000
%
T01
X-00088919Y-00147255
X00147255Y-00088919
X-00147255Y00088919
X00088919Y00147255
T02
X-00181675Y-0033967
X-00173015Y-0034467
X00036535Y-00336772
X00046383Y-00335036
X00071003Y-00330694
X00079165Y-0037698
X00089013Y-00375244
X00054545Y-00381321
X00044696Y-00383058
X00157Y-00342
X00280464Y-00264709
X00286892Y-00257049
X00302962Y-00237898
X0030939Y-00230237
X00266958Y-00207687
X00273386Y-00200026
X00258531Y-00200616
X00264959Y-00192956
X00256533Y-00185885
X00304Y-00108
X00361Y-00117
X0033285Y-00052718
X00338Y-000225
X00338Y-000125
X00327Y-000125
X00327Y-000225
X00316
Y-000125
X00316Y000125
X00316Y000225
X00327
X00327Y000125
X00338
X00338Y000225
X00385Y000225
X00385Y000125
Y-000125
X00385Y-000225
X00307Y00054
X0025Y-00045
X00233Y-00091
X00250105Y-00193545
X00242462Y-00219767
X00236034Y-00227428
X00250888Y-00226838
X0024446Y-00234498
X00227607Y-00220357
X00234035Y-00212696
X00228Y-00253
X0019Y-00291
X00077031Y-00307292
X00067183Y-00309029
X00069093Y-00319862
X00078941Y-00318125
X00080851Y-00328958
X00044473Y-00324203
X00034625Y-00325939
X00032715Y-00315106
X00042563Y-0031337
X00042Y-00224
X-00044
X-00061Y-00313
X-00138515Y-00284914
X-00042Y-00106
X00105Y-00051
X0012Y00028
X-00227761Y0003201
X-0026Y-00005
X-00236Y-00045
X-00247Y-00098
X-00301218Y-00096332
X-00304638Y-00086935
X-00314975Y-00090698
X-00311555Y-00100095
X-00321891Y-00103857
X-00325312Y-0009446
X-00313341Y-00127349
X-00309921Y-00136746
X-00299584Y-00132984
X-00303004Y-00123587
X-00292668Y-00119824
X-00289247Y-00129221
X-00286Y-00172
X-0025Y-002
X-00258Y-00275
X-00188486Y-00281467
X-00179825Y-00286467
X-00174325Y-0027694
X-00182986Y-0027194
X-00177486Y-00262414
X-00168825Y-00267414
X-00147175Y-00279914
X-00152675Y-0028944
X-00144015Y-0029444
X-00149515Y-00303967
X-00158175Y-00298967
X-00203325Y-0032717
X-00211986Y-0032217
X-00354086Y-00152821
X-00357506Y-00143424
X-00366057Y-00119932
X-00369477Y-00110535
X-00320592Y-00039364
X-00317875Y00044675
X-00361944Y00006318
X-00369477Y00110535
X-00366057Y00119932
X-00357506Y00143424
X-00354086Y00152821
X-00309921Y00136746
X-00313341Y00127349
X-00303004Y00123587
X-00299584Y00132984
X-00289247Y00129221
X-00292668Y00119825
X-00301218Y00096332
X-00304638Y00086935
X-00314975Y00090698
X-00311555Y00100094
X-00321891Y00103857
X-00325312Y0009446
X-00276Y00086
X-00229Y00114
X-00242Y00267
X-00182986Y0027194
X-00174325Y0027694
X-00179825Y00286467
X-00188486Y00281467
X-00177486Y00262414
X-00168825Y00267414
X-00147175Y00279914
X-00152675Y0028944
X-00144015Y0029444
X-00149515Y00303967
X-00158175Y00298967
X-00173015Y0034467
X-00181675Y0033967
X-00203325Y0032717
X-00211986Y0032217
X-00138514Y00284914
X-00078383Y00314375
X-00017271Y00329547
X-00002Y00291
X00032715Y00315106
X00042563Y0031337
X00044473Y00324203
X00034625Y00325939
X00036535Y00336772
X00046383Y00335036
X00071003Y00330694
X00080851Y00328958
X00078941Y00318125
X00069093Y00319862
X00067183Y00309029
X00077031Y00307292
X00111018Y00322421
X00089013Y00375244
X00079165Y0037698
X00054544Y00381321
X00044696Y00383058
X-00046066Y00375182
X-00047Y00181
X00250105Y00193545
X00242462Y00219767
X00236034Y00227428
X00250888Y00226838
X0024446Y00234498
X00227607Y00220357
X00234035Y00212696
X00189181Y00302753
X00280464Y00264709
X00286892Y00257049
X00302962Y00237898
X0030939Y00230237
X00266958Y00207687
X00273386Y00200026
X00258531Y00200616
X00264959Y00192955
X00256533Y00185885
T03
X00255Y00061
Y00096
T04
X00233712Y-00024564
M30
