G04*
G04 #@! TF.GenerationSoftware,Altium Limited,Altium Designer,21.7.2 (23)*
G04*
G04 Layer_Color=32896*
%FSLAX44Y44*%
%MOMM*%
G71*
G04*
G04 #@! TF.SameCoordinates,2A747545-166F-4027-A645-87B35D0606EC*
G04*
G04*
G04 #@! TF.FilePolarity,Positive*
G04*
G01*
G75*
%ADD10C,0.2000*%
%ADD78C,0.5000*%
%ADD118C,0.1500*%
D10*
X295000Y78500D02*
G03*
X295000Y78500I-40000J0D01*
G01*
X237000Y-41000D02*
X245000Y-46000D01*
X234211Y-50065D02*
X237000Y-41000D01*
X253000Y-84000D01*
X104000Y162500D02*
X126000Y162500D01*
X104000Y162500D02*
X104000Y155500D01*
X126000D01*
X126000Y162500D02*
X126000Y155500D01*
X-148750Y114500D02*
Y121500D01*
X-126750D01*
Y114500D02*
Y121500D01*
X-148750Y114500D02*
X-126750D01*
X-126500Y-148500D02*
X-119500D01*
X-126500D02*
Y-126500D01*
X-119500D01*
Y-148500D02*
Y-126500D01*
X148500Y-115500D02*
X148500Y-122500D01*
X126500Y-122500D02*
X148500Y-122500D01*
X126500Y-115500D02*
X126500Y-122500D01*
X126500Y-115500D02*
X148500Y-115500D01*
X303178Y-145568D02*
X305534D01*
X307891Y-147925D01*
Y-150281D01*
X306712Y-151459D01*
X304356Y-151459D01*
X302000Y-149103D01*
X299644Y-149103D01*
X298466Y-150281D01*
Y-152637D01*
X300822Y-154993D01*
X303178D01*
X298466Y-138500D02*
X300822Y-140856D01*
Y-143212D01*
X296109Y-147925D01*
X293753D01*
X291397Y-145568D01*
Y-143212D01*
X296109Y-138500D01*
X298466Y-138500D01*
X294931Y-134965D02*
X287862Y-142034D01*
X283150Y-137322D01*
X287862Y-127896D02*
X280794Y-134965D01*
X277259Y-131431D01*
X277259Y-129075D01*
X281972Y-124362D01*
X284328Y-124362D01*
X287862Y-127896D01*
X276081Y-116115D02*
X280794Y-120828D01*
X273725Y-127896D01*
X269012Y-123184D01*
X277259Y-124362D02*
X274903Y-122006D01*
X266656Y-120828D02*
X273725Y-113759D01*
X270190Y-110225D01*
X267834D01*
X265478Y-112581D01*
X265478Y-114937D01*
X269012Y-118471D01*
X266656Y-116115D02*
X261943D01*
X259587Y-99621D02*
X257231Y-97265D01*
X258409Y-98443D01*
X251340Y-105512D01*
X252519Y-106690D01*
X250162Y-104334D01*
X253697Y-93731D02*
X248984Y-89018D01*
X251340Y-91374D01*
X244272Y-98443D01*
X244002Y308997D02*
X247334D01*
X249000Y307331D01*
Y300666D01*
X247334Y299000D01*
X244002D01*
X242335Y300666D01*
Y307331D01*
X244002Y308997D01*
X239003D02*
Y300666D01*
X237337Y299000D01*
X234005D01*
X232339Y300666D01*
Y308997D01*
X229007D02*
X222342D01*
X225674D01*
Y299000D01*
X223000Y-234003D02*
X219668D01*
X221334D01*
Y-244000D01*
X223000D01*
X219668D01*
X209671Y-234003D02*
X213003D01*
X214669Y-235669D01*
Y-242334D01*
X213003Y-244000D01*
X209671D01*
X208005Y-242334D01*
Y-235669D01*
X209671Y-234003D01*
X244000Y-300003D02*
X240668D01*
X242334D01*
Y-310000D01*
X244000D01*
X240668D01*
X235669D02*
Y-300003D01*
X229005Y-310000D01*
Y-300003D01*
X354000Y-175003D02*
Y-181668D01*
X350668Y-185000D01*
X347336Y-181668D01*
Y-175003D01*
X344003D02*
Y-185000D01*
X339005D01*
X337339Y-183334D01*
Y-176669D01*
X339005Y-175003D01*
X344003D01*
X334006D02*
Y-185000D01*
X329008D01*
X327342Y-183334D01*
Y-176669D01*
X329008Y-175003D01*
X334006D01*
X277335Y-170003D02*
X284000D01*
Y-175002D01*
X280668Y-173335D01*
X279002D01*
X277335Y-175002D01*
Y-178334D01*
X279002Y-180000D01*
X282334D01*
X284000Y-178334D01*
X274003Y-170003D02*
Y-176668D01*
X270671Y-180000D01*
X267339Y-176668D01*
Y-170003D01*
X109000Y-311003D02*
X105668D01*
X107334D01*
Y-321000D01*
X109000D01*
X105668D01*
X95671Y-311003D02*
X99003D01*
X100669Y-312669D01*
Y-319334D01*
X99003Y-321000D01*
X95671D01*
X94005Y-319334D01*
Y-312669D01*
X95671Y-311003D01*
X157002Y-354003D02*
X160334D01*
X162000Y-355669D01*
Y-362334D01*
X160334Y-364000D01*
X157002D01*
X155336Y-362334D01*
Y-355669D01*
X157002Y-354003D01*
X152003D02*
Y-362334D01*
X150337Y-364000D01*
X147005D01*
X145339Y-362334D01*
Y-354003D01*
X142006D02*
X135342D01*
X138674D01*
Y-364000D01*
X-4000Y-382003D02*
Y-388668D01*
X-7332Y-392000D01*
X-10664Y-388668D01*
Y-382003D01*
X-13997D02*
Y-392000D01*
X-18995D01*
X-20661Y-390334D01*
Y-383669D01*
X-18995Y-382003D01*
X-13997D01*
X-23994D02*
Y-392000D01*
X-28992D01*
X-30658Y-390334D01*
Y-383669D01*
X-28992Y-382003D01*
X-23994D01*
X9336Y-322003D02*
X16000D01*
Y-327002D01*
X12668Y-325336D01*
X11002D01*
X9336Y-327002D01*
Y-330334D01*
X11002Y-332000D01*
X14334D01*
X16000Y-330334D01*
X6003Y-322003D02*
Y-328668D01*
X2671Y-332000D01*
X-661Y-328668D01*
Y-322003D01*
X-199000Y-259003D02*
X-202332D01*
X-200666D01*
Y-269000D01*
X-199000D01*
X-202332D01*
X-212329Y-259003D02*
X-208997D01*
X-207331Y-260669D01*
Y-267334D01*
X-208997Y-269000D01*
X-212329D01*
X-213995Y-267334D01*
Y-260669D01*
X-212329Y-259003D01*
X-250707Y-283776D02*
X-254039D01*
X-252373D01*
Y-293773D01*
X-250707D01*
X-254039D01*
X-259037D02*
Y-283776D01*
X-265702Y-293773D01*
Y-283776D01*
X-102000Y-362003D02*
Y-368668D01*
X-105332Y-372000D01*
X-108665Y-368668D01*
Y-362003D01*
X-111997D02*
Y-372000D01*
X-116995D01*
X-118661Y-370334D01*
Y-363669D01*
X-116995Y-362003D01*
X-111997D01*
X-121994D02*
Y-372000D01*
X-126992D01*
X-128658Y-370334D01*
Y-363669D01*
X-126992Y-362003D01*
X-121994D01*
X-122664Y-301003D02*
X-116000D01*
Y-306002D01*
X-119332Y-304335D01*
X-120998D01*
X-122664Y-306002D01*
Y-309334D01*
X-120998Y-311000D01*
X-117666D01*
X-116000Y-309334D01*
X-125997Y-301003D02*
Y-307668D01*
X-129329Y-311000D01*
X-132661Y-307668D01*
Y-301003D01*
X-197000Y265997D02*
X-200332D01*
X-198666D01*
Y256000D01*
X-197000D01*
X-200332D01*
X-210329Y265997D02*
X-206997D01*
X-205331Y264331D01*
Y257666D01*
X-206997Y256000D01*
X-210329D01*
X-211995Y257666D01*
Y264331D01*
X-210329Y265997D01*
X-249998Y288997D02*
X-246666D01*
X-245000Y287331D01*
Y280666D01*
X-246666Y279000D01*
X-249998D01*
X-251665Y280666D01*
Y287331D01*
X-249998Y288997D01*
X-254997D02*
Y280666D01*
X-256663Y279000D01*
X-259995D01*
X-261661Y280666D01*
Y288997D01*
X-264994D02*
X-271658D01*
X-268326D01*
Y279000D01*
X-100000Y372997D02*
Y366332D01*
X-103332Y363000D01*
X-106664Y366332D01*
Y372997D01*
X-109997D02*
Y363000D01*
X-114995D01*
X-116661Y364666D01*
Y371331D01*
X-114995Y372997D01*
X-109997D01*
X-119993D02*
Y363000D01*
X-124992D01*
X-126658Y364666D01*
Y371331D01*
X-124992Y372997D01*
X-119993D01*
X-124664Y307997D02*
X-118000D01*
Y302998D01*
X-121332Y304664D01*
X-122998D01*
X-124664Y302998D01*
Y299666D01*
X-122998Y298000D01*
X-119666D01*
X-118000Y299666D01*
X-127997Y307997D02*
Y301332D01*
X-131329Y298000D01*
X-134661Y301332D01*
Y307997D01*
X-284000Y156997D02*
X-287332D01*
X-285666D01*
Y147000D01*
X-284000D01*
X-287332D01*
X-297329Y156997D02*
X-293997D01*
X-292331Y155331D01*
Y148666D01*
X-293997Y147000D01*
X-297329D01*
X-298995Y148666D01*
Y155331D01*
X-297329Y156997D01*
X-320000Y209997D02*
X-323332D01*
X-321666D01*
Y200000D01*
X-320000D01*
X-323332D01*
X-328331D02*
Y209997D01*
X-334995Y200000D01*
Y209997D01*
X-364000Y57997D02*
Y51332D01*
X-367332Y48000D01*
X-370664Y51332D01*
Y57997D01*
X-373997D02*
Y48000D01*
X-378995D01*
X-380661Y49666D01*
Y56331D01*
X-378995Y57997D01*
X-373997D01*
X-383994D02*
Y48000D01*
X-388992D01*
X-390658Y49666D01*
Y56331D01*
X-388992Y57997D01*
X-383994D01*
X-319664Y74997D02*
X-313000D01*
Y69998D01*
X-316332Y71665D01*
X-317998D01*
X-319664Y69998D01*
Y66666D01*
X-317998Y65000D01*
X-314666D01*
X-313000Y66666D01*
X-322997Y74997D02*
Y68332D01*
X-326329Y65000D01*
X-329661Y68332D01*
Y74997D01*
X-285000Y-146003D02*
X-288332D01*
X-286666D01*
Y-156000D01*
X-285000D01*
X-288332D01*
X-298329Y-146003D02*
X-294997D01*
X-293331Y-147669D01*
Y-154334D01*
X-294997Y-156000D01*
X-298329D01*
X-299995Y-154334D01*
Y-147669D01*
X-298329Y-146003D01*
X-315998Y-199003D02*
X-312666D01*
X-311000Y-200669D01*
Y-207334D01*
X-312666Y-209000D01*
X-315998D01*
X-317665Y-207334D01*
Y-200669D01*
X-315998Y-199003D01*
X-320997D02*
Y-207334D01*
X-322663Y-209000D01*
X-325995D01*
X-327661Y-207334D01*
Y-199003D01*
X-330993D02*
X-337658D01*
X-334326D01*
Y-209000D01*
X-366000Y-45003D02*
Y-51668D01*
X-369332Y-55000D01*
X-372664Y-51668D01*
Y-45003D01*
X-375997D02*
Y-55000D01*
X-380995D01*
X-382661Y-53334D01*
Y-46669D01*
X-380995Y-45003D01*
X-375997D01*
X-385994D02*
Y-55000D01*
X-390992D01*
X-392658Y-53334D01*
Y-46669D01*
X-390992Y-45003D01*
X-385994D01*
X-320664Y-64003D02*
X-314000D01*
Y-69002D01*
X-317332Y-67336D01*
X-318998D01*
X-320664Y-69002D01*
Y-72334D01*
X-318998Y-74000D01*
X-315666D01*
X-314000Y-72334D01*
X-323997Y-64003D02*
Y-70668D01*
X-327329Y-74000D01*
X-330661Y-70668D01*
Y-64003D01*
X110000Y312997D02*
X106668D01*
X108334D01*
Y303000D01*
X110000D01*
X106668D01*
X96671Y312997D02*
X100003D01*
X101669Y311331D01*
Y304666D01*
X100003Y303000D01*
X96671D01*
X95005Y304666D01*
Y311331D01*
X96671Y312997D01*
X152000Y366997D02*
X148668D01*
X150334D01*
Y357000D01*
X152000D01*
X148668D01*
X143669D02*
Y366997D01*
X137005Y357000D01*
Y366997D01*
X-3000Y392997D02*
Y386332D01*
X-6332Y383000D01*
X-9664Y386332D01*
Y392997D01*
X-12997D02*
Y383000D01*
X-17995D01*
X-19661Y384666D01*
Y391331D01*
X-17995Y392997D01*
X-12997D01*
X-22994D02*
Y383000D01*
X-27992D01*
X-29658Y384666D01*
Y391331D01*
X-27992Y392997D01*
X-22994D01*
X10336Y331997D02*
X17000D01*
Y326998D01*
X13668Y328665D01*
X12002D01*
X10336Y326998D01*
Y323666D01*
X12002Y322000D01*
X15334D01*
X17000Y323666D01*
X7003Y331997D02*
Y325332D01*
X3671Y322000D01*
X339Y325332D01*
Y331997D01*
X332250Y46247D02*
X328918D01*
X330584D01*
Y36250D01*
X332250D01*
X328918D01*
X318921Y46247D02*
X322253D01*
X323919Y44581D01*
Y37916D01*
X322253Y36250D01*
X318921D01*
X317255Y37916D01*
Y44581D01*
X318921Y46247D01*
X383002Y80997D02*
X386334D01*
X388000Y79331D01*
Y72666D01*
X386334Y71000D01*
X383002D01*
X381335Y72666D01*
Y79331D01*
X383002Y80997D01*
X378003D02*
Y72666D01*
X376337Y71000D01*
X373005D01*
X371339Y72666D01*
Y80997D01*
X368007D02*
X361342D01*
X364674D01*
Y71000D01*
X388000Y-70003D02*
Y-76668D01*
X384668Y-80000D01*
X381335Y-76668D01*
Y-70003D01*
X378003D02*
Y-80000D01*
X373005D01*
X371339Y-78334D01*
Y-71669D01*
X373005Y-70003D01*
X378003D01*
X368007D02*
Y-80000D01*
X363008D01*
X361342Y-78334D01*
Y-71669D01*
X363008Y-70003D01*
X368007D01*
X322085Y-34753D02*
X328750D01*
Y-39752D01*
X325418Y-38085D01*
X323752D01*
X322085Y-39752D01*
Y-43084D01*
X323752Y-44750D01*
X327084D01*
X328750Y-43084D01*
X318753Y-34753D02*
Y-41418D01*
X315421Y-44750D01*
X312089Y-41418D01*
Y-34753D01*
X232035Y253085D02*
X228703D01*
X230369D01*
Y243089D01*
X232035D01*
X228703D01*
X218706Y253085D02*
X222038D01*
X223704Y251419D01*
Y244755D01*
X222038Y243089D01*
X218706D01*
X217040Y244755D01*
Y251419D01*
X218706Y253085D01*
X350000Y184997D02*
Y178332D01*
X346668Y175000D01*
X343335Y178332D01*
Y184997D01*
X340003D02*
Y175000D01*
X335005D01*
X333339Y176666D01*
Y183331D01*
X335005Y184997D01*
X340003D01*
X330006D02*
Y175000D01*
X325008D01*
X323342Y176666D01*
Y183331D01*
X325008Y184997D01*
X330006D01*
X283335Y182997D02*
X290000D01*
Y177998D01*
X286668Y179664D01*
X285002D01*
X283335Y177998D01*
Y174666D01*
X285002Y173000D01*
X288334D01*
X290000Y174666D01*
X280003Y182997D02*
Y176332D01*
X276671Y173000D01*
X273339Y176332D01*
Y182997D01*
X-11997Y122500D02*
Y119168D01*
Y120834D01*
X-2000D01*
Y122500D01*
Y119168D01*
X-11997Y114169D02*
X-2000D01*
Y107505D01*
X-11997Y99174D02*
Y102506D01*
X-10331Y104173D01*
X-3666D01*
X-2000Y102506D01*
Y99174D01*
X-3666Y97508D01*
X-10331D01*
X-11997Y99174D01*
X-2000Y94176D02*
X-11997D01*
Y89177D01*
X-10331Y87511D01*
X-6998D01*
X-5332Y89177D01*
Y94176D01*
Y90843D02*
X-2000Y87511D01*
X-11997Y84179D02*
X-2000D01*
Y79181D01*
X-3666Y77515D01*
X-10331D01*
X-11997Y79181D01*
Y84179D01*
X-2000Y74182D02*
X-8665D01*
X-11997Y70850D01*
X-8665Y67518D01*
X-2000D01*
X-6998D01*
Y74182D01*
X-10331Y57521D02*
X-11997Y59187D01*
Y62519D01*
X-10331Y64185D01*
X-8665D01*
X-6998Y62519D01*
Y59187D01*
X-5332Y57521D01*
X-3666D01*
X-2000Y59187D01*
Y62519D01*
X-3666Y64185D01*
X-11997Y54189D02*
X-2000D01*
X-6998D01*
Y47524D01*
X-11997D01*
X-2000D01*
X-11997Y34195D02*
X-2000D01*
X-6998D01*
Y27531D01*
X-11997D01*
X-2000D01*
Y24198D02*
X-8665D01*
X-11997Y20866D01*
X-8665Y17534D01*
X-2000D01*
X-6998D01*
Y24198D01*
X-3666Y7537D02*
X-10331D01*
X-11997Y9203D01*
Y12535D01*
X-10331Y14202D01*
X-3666D01*
X-2000Y12535D01*
Y9203D01*
X-5332Y10869D02*
X-2000Y7537D01*
Y9203D02*
X-3666Y7537D01*
X-8665Y4205D02*
X-3666D01*
X-2000Y2539D01*
Y-2460D01*
X-8665D01*
X-11997Y-5792D02*
X-2000D01*
Y-10790D01*
X-3666Y-12457D01*
X-10331D01*
X-11997Y-10790D01*
Y-5792D01*
X-2000Y-15789D02*
X-8665D01*
X-11997Y-19121D01*
X-8665Y-22453D01*
X-2000D01*
X-6998D01*
Y-15789D01*
X-11997Y-35782D02*
X-3666D01*
X-2000Y-37448D01*
Y-40781D01*
X-3666Y-42447D01*
X-11997D01*
X-2000Y-45779D02*
X-11997D01*
Y-50778D01*
X-10331Y-52444D01*
X-6998D01*
X-5332Y-50778D01*
Y-45779D01*
X-2000Y-55776D02*
X-11997D01*
Y-60774D01*
X-10331Y-62440D01*
X-6998D01*
X-5332Y-60774D01*
Y-55776D01*
X-11997Y-72437D02*
Y-65773D01*
X-2000D01*
Y-72437D01*
X-6998Y-65773D02*
Y-69105D01*
X-2000Y-75770D02*
X-11997D01*
Y-80768D01*
X-10331Y-82434D01*
X-6998D01*
X-5332Y-80768D01*
Y-75770D01*
Y-79102D02*
X-2000Y-82434D01*
Y-95763D02*
X-11997D01*
Y-100761D01*
X-10331Y-102428D01*
X-6998D01*
X-5332Y-100761D01*
Y-95763D01*
X-10331Y-112424D02*
X-11997Y-110758D01*
Y-107426D01*
X-10331Y-105760D01*
X-3666D01*
X-2000Y-107426D01*
Y-110758D01*
X-3666Y-112424D01*
X-11997Y-115757D02*
X-2000D01*
Y-120755D01*
X-3666Y-122421D01*
X-5332D01*
X-6998Y-120755D01*
Y-115757D01*
Y-120755D01*
X-8665Y-122421D01*
X-10331D01*
X-11997Y-120755D01*
Y-115757D01*
X150831Y143748D02*
Y135418D01*
X149164Y133752D01*
X145832D01*
X144166Y135418D01*
Y143748D01*
X135836Y133752D02*
Y143748D01*
X140834Y138750D01*
X134169D01*
X84327Y198002D02*
Y204666D01*
X80995Y207998D01*
X77663Y204666D01*
Y198002D01*
Y203000D01*
X84327D01*
X74331Y207998D02*
Y198002D01*
Y203000D01*
X67666D01*
Y207998D01*
Y198002D01*
X64334Y207998D02*
Y198002D01*
X57669D01*
X54337Y207998D02*
Y198002D01*
X49339D01*
X47673Y199668D01*
Y201334D01*
X49339Y203000D01*
X54337D01*
X49339D01*
X47673Y204666D01*
Y206332D01*
X49339Y207998D01*
X54337D01*
X172329D02*
X165665D01*
X168997D01*
Y198002D01*
X157334Y207998D02*
X160666D01*
X162332Y206332D01*
Y199668D01*
X160666Y198002D01*
X157334D01*
X155668Y199668D01*
Y206332D01*
X157334Y207998D01*
X145671Y206332D02*
X147337Y207998D01*
X150669D01*
X152336Y206332D01*
Y199668D01*
X150669Y198002D01*
X147337D01*
X145671Y199668D01*
Y203000D01*
X149003D01*
X-168673Y149002D02*
Y155666D01*
X-172005Y158998D01*
X-175337Y155666D01*
Y149002D01*
Y154000D01*
X-168673D01*
X-178669Y158998D02*
Y149002D01*
Y154000D01*
X-185334D01*
Y158998D01*
Y149002D01*
X-188666Y158998D02*
Y149002D01*
X-195331D01*
X-198663Y158998D02*
Y149002D01*
X-203661D01*
X-205327Y150668D01*
Y152334D01*
X-203661Y154000D01*
X-198663D01*
X-203661D01*
X-205327Y155666D01*
Y157332D01*
X-203661Y158998D01*
X-198663D01*
X-80671D02*
X-87336D01*
X-84003D01*
Y149002D01*
X-95666Y158998D02*
X-92334D01*
X-90668Y157332D01*
Y150668D01*
X-92334Y149002D01*
X-95666D01*
X-97332Y150668D01*
Y157332D01*
X-95666Y158998D01*
X-107329Y157332D02*
X-105663Y158998D01*
X-102331D01*
X-100665Y157332D01*
Y150668D01*
X-102331Y149002D01*
X-105663D01*
X-107329Y150668D01*
Y154000D01*
X-103997D01*
X-143173Y-178748D02*
Y-172084D01*
X-146505Y-168752D01*
X-149837Y-172084D01*
Y-178748D01*
Y-173750D01*
X-143173D01*
X-153169Y-168752D02*
Y-178748D01*
Y-173750D01*
X-159834D01*
Y-168752D01*
Y-178748D01*
X-163166Y-168752D02*
Y-178748D01*
X-169831D01*
X-173163Y-168752D02*
Y-178748D01*
X-178161D01*
X-179827Y-177082D01*
Y-175416D01*
X-178161Y-173750D01*
X-173163D01*
X-178161D01*
X-179827Y-172084D01*
Y-170418D01*
X-178161Y-168752D01*
X-173163D01*
X-149171Y-95752D02*
X-155836D01*
X-152503D01*
Y-105748D01*
X-164166Y-95752D02*
X-160834D01*
X-159168Y-97418D01*
Y-104082D01*
X-160834Y-105748D01*
X-164166D01*
X-165832Y-104082D01*
Y-97418D01*
X-164166Y-95752D01*
X-175829Y-97418D02*
X-174163Y-95752D01*
X-170831D01*
X-169165Y-97418D01*
Y-104082D01*
X-170831Y-105748D01*
X-174163D01*
X-175829Y-104082D01*
Y-100750D01*
X-172497D01*
X204077Y-166748D02*
Y-160084D01*
X200745Y-156752D01*
X197413Y-160084D01*
Y-166748D01*
Y-161750D01*
X204077D01*
X194081Y-156752D02*
Y-166748D01*
Y-161750D01*
X187416D01*
Y-156752D01*
Y-166748D01*
X184084Y-156752D02*
Y-166748D01*
X177419D01*
X174087Y-156752D02*
Y-166748D01*
X169089D01*
X167423Y-165082D01*
Y-163416D01*
X169089Y-161750D01*
X174087D01*
X169089D01*
X167423Y-160084D01*
Y-158418D01*
X169089Y-156752D01*
X174087D01*
X108079Y-156002D02*
X101414D01*
X104747D01*
Y-165998D01*
X93084Y-156002D02*
X96416D01*
X98082Y-157668D01*
Y-164332D01*
X96416Y-165998D01*
X93084D01*
X91418Y-164332D01*
Y-157668D01*
X93084Y-156002D01*
X81421Y-157668D02*
X83087Y-156002D01*
X86419D01*
X88085Y-157668D01*
Y-164332D01*
X86419Y-165998D01*
X83087D01*
X81421Y-164332D01*
Y-161000D01*
X84753D01*
X-102419Y99998D02*
Y91668D01*
X-104086Y90002D01*
X-107418D01*
X-109084Y91668D01*
Y99998D01*
X-112416Y98332D02*
X-114082Y99998D01*
X-117415D01*
X-119081Y98332D01*
Y96666D01*
X-117415Y95000D01*
X-115748D01*
X-117415D01*
X-119081Y93334D01*
Y91668D01*
X-117415Y90002D01*
X-114082D01*
X-112416Y91668D01*
X-86669Y-106002D02*
Y-114332D01*
X-88336Y-115998D01*
X-91668D01*
X-93334Y-114332D01*
Y-106002D01*
X-103331Y-115998D02*
X-96666D01*
X-103331Y-109334D01*
Y-107668D01*
X-101664Y-106002D01*
X-98332D01*
X-96666Y-107668D01*
X114916Y106582D02*
X116582Y108248D01*
X119915D01*
X121581Y106582D01*
Y99918D01*
X119915Y98252D01*
X116582D01*
X114916Y99918D01*
X111584D02*
X109918Y98252D01*
X106586D01*
X104919Y99918D01*
Y106582D01*
X106586Y108248D01*
X109918D01*
X111584Y106582D01*
Y104916D01*
X109918Y103250D01*
X104919D01*
X116666Y257332D02*
X118332Y258998D01*
X121664D01*
X123331Y257332D01*
Y250668D01*
X121664Y249002D01*
X118332D01*
X116666Y250668D01*
X113334Y257332D02*
X111668Y258998D01*
X108336D01*
X106669Y257332D01*
Y255666D01*
X108336Y254000D01*
X106669Y252334D01*
Y250668D01*
X108336Y249002D01*
X111668D01*
X113334Y250668D01*
Y252334D01*
X111668Y254000D01*
X113334Y255666D01*
Y257332D01*
X111668Y254000D02*
X108336D01*
X-190084Y115832D02*
X-188418Y117498D01*
X-185086D01*
X-183419Y115832D01*
Y109168D01*
X-185086Y107502D01*
X-188418D01*
X-190084Y109168D01*
X-193416Y117498D02*
X-200081D01*
Y115832D01*
X-193416Y109168D01*
Y107502D01*
X-136334Y205332D02*
X-134668Y206998D01*
X-131335D01*
X-129669Y205332D01*
Y198668D01*
X-131335Y197002D01*
X-134668D01*
X-136334Y198668D01*
X-146331Y206998D02*
X-142998Y205332D01*
X-139666Y202000D01*
Y198668D01*
X-141332Y197002D01*
X-144664D01*
X-146331Y198668D01*
Y200334D01*
X-144664Y202000D01*
X-139666D01*
X-117334Y-181668D02*
X-115668Y-180002D01*
X-112336D01*
X-110669Y-181668D01*
Y-188332D01*
X-112336Y-189998D01*
X-115668D01*
X-117334Y-188332D01*
X-127331Y-180002D02*
X-120666D01*
Y-185000D01*
X-123998Y-183334D01*
X-125665D01*
X-127331Y-185000D01*
Y-188332D01*
X-125665Y-189998D01*
X-122332D01*
X-120666Y-188332D01*
X-217334Y-132918D02*
X-215668Y-131252D01*
X-212335D01*
X-210669Y-132918D01*
Y-139582D01*
X-212335Y-141248D01*
X-215668D01*
X-217334Y-139582D01*
X-225665Y-141248D02*
Y-131252D01*
X-220666Y-136250D01*
X-227331D01*
X189666Y-110168D02*
X191332Y-108502D01*
X194664D01*
X196331Y-110168D01*
Y-116832D01*
X194664Y-118498D01*
X191332D01*
X189666Y-116832D01*
X186334Y-110168D02*
X184668Y-108502D01*
X181336D01*
X179669Y-110168D01*
Y-111834D01*
X181336Y-113500D01*
X183002D01*
X181336D01*
X179669Y-115166D01*
Y-116832D01*
X181336Y-118498D01*
X184668D01*
X186334Y-116832D01*
X139166Y-206668D02*
X140832Y-205002D01*
X144164D01*
X145831Y-206668D01*
Y-213332D01*
X144164Y-214998D01*
X140832D01*
X139166Y-213332D01*
X129169Y-214998D02*
X135834D01*
X129169Y-208334D01*
Y-206668D01*
X130836Y-205002D01*
X134168D01*
X135834Y-206668D01*
X201000Y83332D02*
X202666Y84998D01*
X205998D01*
X207665Y83332D01*
Y76668D01*
X205998Y75002D01*
X202666D01*
X201000Y76668D01*
X197668Y75002D02*
X194335D01*
X196002D01*
Y84998D01*
X197668Y83332D01*
X174663Y-29002D02*
Y-35666D01*
X171331Y-38998D01*
X167998Y-35666D01*
Y-29002D01*
X164666D02*
Y-38998D01*
X159668D01*
X158002Y-37332D01*
Y-30668D01*
X159668Y-29002D01*
X164666D01*
X154669Y-38998D02*
X151337D01*
X153003D01*
Y-29002D01*
X154669Y-30668D01*
X114664Y-89002D02*
Y-97332D01*
X112998Y-98998D01*
X109666D01*
X108000Y-97332D01*
Y-89002D01*
X104668Y-98998D02*
X101335D01*
X103002D01*
Y-89002D01*
X104668Y-90668D01*
D78*
X317033Y-148290D02*
G03*
X344824Y-59969I-317033J148290D01*
G01*
X200500Y-57000D02*
G03*
X200500Y-57000I-2500J0D01*
G01*
X317033Y-148290D02*
X335859Y-134803D01*
X315597Y-126960D02*
X317000Y-148000D01*
D118*
X125000Y137000D02*
G03*
X125000Y137000I-500J0D01*
G01*
X-127750Y96000D02*
G03*
X-127750Y96000I-500J0D01*
G01*
X-100500Y-128000D02*
G03*
X-100500Y-128000I-500J0D01*
G01*
X128500Y-97000D02*
G03*
X128500Y-97000I-500J0D01*
G01*
X-99497Y41168D02*
Y43834D01*
Y42501D01*
X-92833D01*
X-91500Y43834D01*
Y45167D01*
X-92833Y46500D01*
X-99497Y38503D02*
X-91500D01*
Y33171D01*
X-98165Y25174D02*
X-99497Y26507D01*
Y29172D01*
X-98165Y30505D01*
X-92833D01*
X-91500Y29172D01*
Y26507D01*
X-92833Y25174D01*
X-99497Y17176D02*
Y19842D01*
Y18509D01*
X-92833D01*
X-91500Y19842D01*
Y21175D01*
X-92833Y22508D01*
X-99497Y14510D02*
X-91500D01*
Y9179D01*
X-98165Y1181D02*
X-99497Y2514D01*
Y5180D01*
X-98165Y6513D01*
X-92833D01*
X-91500Y5180D01*
Y2514D01*
X-92833Y1181D01*
X-99497Y-6816D02*
Y-4150D01*
Y-5483D01*
X-92833D01*
X-91500Y-4150D01*
Y-2817D01*
X-92833Y-1485D01*
X-99497Y-9482D02*
X-91500D01*
Y-14813D01*
X-98165Y-22811D02*
X-99497Y-21478D01*
Y-18812D01*
X-98165Y-17479D01*
X-92833D01*
X-91500Y-18812D01*
Y-21478D01*
X-92833Y-22811D01*
X-99497Y-30808D02*
Y-28142D01*
Y-29476D01*
X-92833D01*
X-91500Y-28142D01*
Y-26810D01*
X-92833Y-25477D01*
X-99497Y-33474D02*
X-91500D01*
Y-38806D01*
X-98165Y-46803D02*
X-99497Y-45470D01*
Y-42804D01*
X-98165Y-41472D01*
X-92833D01*
X-91500Y-42804D01*
Y-45470D01*
X-92833Y-46803D01*
X254878Y23000D02*
Y32997D01*
X259876Y27998D02*
X249879D01*
M02*
