G04*
G04 #@! TF.GenerationSoftware,Altium Limited,Altium Designer,21.7.2 (23)*
G04*
G04 Layer_Color=16711935*
%FSTAX44Y44*%
%MOMM*%
G71*
G04*
G04 #@! TF.SameCoordinates,382B67D8-D4E2-4276-A31F-CACD3676A529*
G04*
G04*
G04 #@! TF.FilePolarity,Negative*
G04*
G01*
G75*
G04:AMPARAMS|DCode=11|XSize=2.2mm|YSize=18.9mm|CornerRadius=1.1mm|HoleSize=0mm|Usage=FLASHONLY|Rotation=320.000|XOffset=0mm|YOffset=0mm|HoleType=Round|Shape=RoundedRectangle|*
%AMROUNDEDRECTD11*
21,1,2.2000,16.7000,0,0,320.0*
21,1,0.0000,18.9000,0,0,320.0*
1,1,2.2000,-5.3673,-6.3965*
1,1,2.2000,-5.3673,-6.3965*
1,1,2.2000,5.3673,6.3965*
1,1,2.2000,5.3673,6.3965*
%
%ADD11ROUNDEDRECTD11*%
G04:AMPARAMS|DCode=12|XSize=2.2mm|YSize=18.9mm|CornerRadius=1.1mm|HoleSize=0mm|Usage=FLASHONLY|Rotation=240.000|XOffset=0mm|YOffset=0mm|HoleType=Round|Shape=RoundedRectangle|*
%AMROUNDEDRECTD12*
21,1,2.2000,16.7000,0,0,240.0*
21,1,0.0000,18.9000,0,0,240.0*
1,1,2.2000,-7.2313,4.1750*
1,1,2.2000,-7.2313,4.1750*
1,1,2.2000,7.2313,-4.1750*
1,1,2.2000,7.2313,-4.1750*
%
%ADD12ROUNDEDRECTD12*%
G04:AMPARAMS|DCode=13|XSize=2.2mm|YSize=18.9mm|CornerRadius=1.1mm|HoleSize=0mm|Usage=FLASHONLY|Rotation=160.000|XOffset=0mm|YOffset=0mm|HoleType=Round|Shape=RoundedRectangle|*
%AMROUNDEDRECTD13*
21,1,2.2000,16.7000,0,0,160.0*
21,1,0.0000,18.9000,0,0,160.0*
1,1,2.2000,2.8559,7.8464*
1,1,2.2000,2.8559,7.8464*
1,1,2.2000,-2.8559,-7.8464*
1,1,2.2000,-2.8559,-7.8464*
%
%ADD13ROUNDEDRECTD13*%
G04:AMPARAMS|DCode=14|XSize=2.2mm|YSize=18.9mm|CornerRadius=1.1mm|HoleSize=0mm|Usage=FLASHONLY|Rotation=80.000|XOffset=0mm|YOffset=0mm|HoleType=Round|Shape=RoundedRectangle|*
%AMROUNDEDRECTD14*
21,1,2.2000,16.7000,0,0,80.0*
21,1,0.0000,18.9000,0,0,80.0*
1,1,2.2000,8.2232,-1.4500*
1,1,2.2000,8.2232,-1.4500*
1,1,2.2000,-8.2232,1.4500*
1,1,2.2000,-8.2232,1.4500*
%
%ADD14ROUNDEDRECTD14*%
G04:AMPARAMS|DCode=15|XSize=2.2mm|YSize=18.9mm|CornerRadius=1.1mm|HoleSize=0mm|Usage=FLASHONLY|Rotation=0.000|XOffset=0mm|YOffset=0mm|HoleType=Round|Shape=RoundedRectangle|*
%AMROUNDEDRECTD15*
21,1,2.2000,16.7000,0,0,0.0*
21,1,0.0000,18.9000,0,0,0.0*
1,1,2.2000,0.0000,-8.3500*
1,1,2.2000,0.0000,-8.3500*
1,1,2.2000,0.0000,8.3500*
1,1,2.2000,0.0000,8.3500*
%
%ADD15ROUNDEDRECTD15*%
G04:AMPARAMS|DCode=16|XSize=2.2mm|YSize=18.9mm|CornerRadius=1.1mm|HoleSize=0mm|Usage=FLASHONLY|Rotation=280.000|XOffset=0mm|YOffset=0mm|HoleType=Round|Shape=RoundedRectangle|*
%AMROUNDEDRECTD16*
21,1,2.2000,16.7000,0,0,280.0*
21,1,0.0000,18.9000,0,0,280.0*
1,1,2.2000,-8.2232,-1.4500*
1,1,2.2000,-8.2232,-1.4500*
1,1,2.2000,8.2232,1.4500*
1,1,2.2000,8.2232,1.4500*
%
%ADD16ROUNDEDRECTD16*%
G04:AMPARAMS|DCode=17|XSize=2.2mm|YSize=18.9mm|CornerRadius=1.1mm|HoleSize=0mm|Usage=FLASHONLY|Rotation=200.000|XOffset=0mm|YOffset=0mm|HoleType=Round|Shape=RoundedRectangle|*
%AMROUNDEDRECTD17*
21,1,2.2000,16.7000,0,0,200.0*
21,1,0.0000,18.9000,0,0,200.0*
1,1,2.2000,-2.8559,7.8464*
1,1,2.2000,-2.8559,7.8464*
1,1,2.2000,2.8559,-7.8464*
1,1,2.2000,2.8559,-7.8464*
%
%ADD17ROUNDEDRECTD17*%
G04:AMPARAMS|DCode=18|XSize=2.2mm|YSize=18.9mm|CornerRadius=1.1mm|HoleSize=0mm|Usage=FLASHONLY|Rotation=120.000|XOffset=0mm|YOffset=0mm|HoleType=Round|Shape=RoundedRectangle|*
%AMROUNDEDRECTD18*
21,1,2.2000,16.7000,0,0,120.0*
21,1,0.0000,18.9000,0,0,120.0*
1,1,2.2000,7.2313,4.1750*
1,1,2.2000,7.2313,4.1750*
1,1,2.2000,-7.2313,-4.1750*
1,1,2.2000,-7.2313,-4.1750*
%
%ADD18ROUNDEDRECTD18*%
G04:AMPARAMS|DCode=19|XSize=2.2mm|YSize=18.9mm|CornerRadius=1.1mm|HoleSize=0mm|Usage=FLASHONLY|Rotation=40.000|XOffset=0mm|YOffset=0mm|HoleType=Round|Shape=RoundedRectangle|*
%AMROUNDEDRECTD19*
21,1,2.2000,16.7000,0,0,40.0*
21,1,0.0000,18.9000,0,0,40.0*
1,1,2.2000,5.3673,-6.3965*
1,1,2.2000,5.3673,-6.3965*
1,1,2.2000,-5.3673,6.3965*
1,1,2.2000,-5.3673,6.3965*
%
%ADD19ROUNDEDRECTD19*%
%ADD20C,1.5532*%
%ADD21R,1.5532X1.5532*%
%ADD22C,3.4032*%
%ADD63R,1.2500X0.3500*%
%ADD64R,0.3500X1.2500*%
G04:AMPARAMS|DCode=65|XSize=0.35mm|YSize=1.25mm|CornerRadius=0mm|HoleSize=0mm|Usage=FLASHONLY|Rotation=179.326|XOffset=0mm|YOffset=0mm|HoleType=Round|Shape=Rectangle|*
%AMROTATEDRECTD65*
4,1,4,0.1824,0.6229,0.1676,-0.6270,-0.1824,-0.6229,-0.1676,0.6270,0.1824,0.6229,0.0*
%
%ADD65ROTATEDRECTD65*%

G04:AMPARAMS|DCode=66|XSize=2.2mm|YSize=2.7mm|CornerRadius=0mm|HoleSize=0mm|Usage=FLASHONLY|Rotation=320.000|XOffset=0mm|YOffset=0mm|HoleType=Round|Shape=Rectangle|*
%AMROTATEDRECTD66*
4,1,4,-1.7104,-0.3271,0.0251,1.7412,1.7104,0.3271,-0.0251,-1.7412,-1.7104,-0.3271,0.0*
%
%ADD66ROTATEDRECTD66*%

%ADD67C,2.7000*%
G04:AMPARAMS|DCode=68|XSize=2.2mm|YSize=2.7mm|CornerRadius=0mm|HoleSize=0mm|Usage=FLASHONLY|Rotation=240.000|XOffset=0mm|YOffset=0mm|HoleType=Round|Shape=Rectangle|*
%AMROTATEDRECTD68*
4,1,4,-0.6191,1.6276,1.7191,0.2776,0.6191,-1.6276,-1.7191,-0.2776,-0.6191,1.6276,0.0*
%
%ADD68ROTATEDRECTD68*%

G04:AMPARAMS|DCode=69|XSize=2.2mm|YSize=2.7mm|CornerRadius=0mm|HoleSize=0mm|Usage=FLASHONLY|Rotation=160.000|XOffset=0mm|YOffset=0mm|HoleType=Round|Shape=Rectangle|*
%AMROTATEDRECTD69*
4,1,4,1.4954,0.8924,0.5719,-1.6448,-1.4954,-0.8924,-0.5719,1.6448,1.4954,0.8924,0.0*
%
%ADD69ROTATEDRECTD69*%

G04:AMPARAMS|DCode=70|XSize=2.2mm|YSize=2.7mm|CornerRadius=0mm|HoleSize=0mm|Usage=FLASHONLY|Rotation=80.000|XOffset=0mm|YOffset=0mm|HoleType=Round|Shape=Rectangle|*
%AMROTATEDRECTD70*
4,1,4,1.1385,-1.3177,-1.5205,-0.8489,-1.1385,1.3177,1.5205,0.8489,1.1385,-1.3177,0.0*
%
%ADD70ROTATEDRECTD70*%

%ADD71R,2.2000X2.7000*%
G04:AMPARAMS|DCode=72|XSize=2.2mm|YSize=2.7mm|CornerRadius=0mm|HoleSize=0mm|Usage=FLASHONLY|Rotation=280.000|XOffset=0mm|YOffset=0mm|HoleType=Round|Shape=Rectangle|*
%AMROTATEDRECTD72*
4,1,4,-1.5205,0.8489,1.1385,1.3177,1.5205,-0.8489,-1.1385,-1.3177,-1.5205,0.8489,0.0*
%
%ADD72ROTATEDRECTD72*%

G04:AMPARAMS|DCode=73|XSize=2.2mm|YSize=2.7mm|CornerRadius=0mm|HoleSize=0mm|Usage=FLASHONLY|Rotation=200.000|XOffset=0mm|YOffset=0mm|HoleType=Round|Shape=Rectangle|*
%AMROTATEDRECTD73*
4,1,4,0.5719,1.6448,1.4954,-0.8924,-0.5719,-1.6448,-1.4954,0.8924,0.5719,1.6448,0.0*
%
%ADD73ROTATEDRECTD73*%

G04:AMPARAMS|DCode=74|XSize=2.2mm|YSize=2.7mm|CornerRadius=0mm|HoleSize=0mm|Usage=FLASHONLY|Rotation=120.000|XOffset=0mm|YOffset=0mm|HoleType=Round|Shape=Rectangle|*
%AMROTATEDRECTD74*
4,1,4,1.7191,-0.2776,-0.6191,-1.6276,-1.7191,0.2776,0.6191,1.6276,1.7191,-0.2776,0.0*
%
%ADD74ROTATEDRECTD74*%

G04:AMPARAMS|DCode=75|XSize=2.2mm|YSize=2.7mm|CornerRadius=0mm|HoleSize=0mm|Usage=FLASHONLY|Rotation=40.000|XOffset=0mm|YOffset=0mm|HoleType=Round|Shape=Rectangle|*
%AMROTATEDRECTD75*
4,1,4,0.0251,-1.7412,-1.7104,0.3271,-0.0251,1.7412,1.7104,-0.3271,0.0251,-1.7412,0.0*
%
%ADD75ROTATEDRECTD75*%

G04:AMPARAMS|DCode=76|XSize=0.7032mm|YSize=0.7032mm|CornerRadius=0.3516mm|HoleSize=0mm|Usage=FLASHONLY|Rotation=0.000|XOffset=0mm|YOffset=0mm|HoleType=Round|Shape=RoundedRectangle|*
%AMROUNDEDRECTD76*
21,1,0.7032,0.0000,0,0,0.0*
21,1,0.0000,0.7032,0,0,0.0*
1,1,0.7032,0.0000,0.0000*
1,1,0.7032,0.0000,0.0000*
1,1,0.7032,0.0000,0.0000*
1,1,0.7032,0.0000,0.0000*
%
%ADD76ROUNDEDRECTD76*%
%ADD77R,3.5032X3.5032*%
G04:AMPARAMS|DCode=78|XSize=0.7032mm|YSize=0.7032mm|CornerRadius=0.3516mm|HoleSize=0mm|Usage=FLASHONLY|Rotation=90.000|XOffset=0mm|YOffset=0mm|HoleType=Round|Shape=RoundedRectangle|*
%AMROUNDEDRECTD78*
21,1,0.7032,0.0000,0,0,90.0*
21,1,0.0000,0.7032,0,0,90.0*
1,1,0.7032,0.0000,0.0000*
1,1,0.7032,0.0000,0.0000*
1,1,0.7032,0.0000,0.0000*
1,1,0.7032,0.0000,0.0000*
%
%ADD78ROUNDEDRECTD78*%
%ADD79R,1.5032X1.2032*%
%ADD80R,1.1032X0.7032*%
%ADD81R,1.2032X1.5032*%
G04:AMPARAMS|DCode=82|XSize=0.7032mm|YSize=0.7032mm|CornerRadius=0.3516mm|HoleSize=0mm|Usage=FLASHONLY|Rotation=269.326|XOffset=0mm|YOffset=0mm|HoleType=Round|Shape=RoundedRectangle|*
%AMROUNDEDRECTD82*
21,1,0.7032,0.0000,0,0,269.3*
21,1,0.0000,0.7032,0,0,269.3*
1,1,0.7032,0.0000,0.0000*
1,1,0.7032,0.0000,0.0000*
1,1,0.7032,0.0000,0.0000*
1,1,0.7032,0.0000,0.0000*
%
%ADD82ROUNDEDRECTD82*%
%ADD83R,0.7032X1.1032*%
G04:AMPARAMS|DCode=84|XSize=5.2032mm|YSize=1.2032mm|CornerRadius=0mm|HoleSize=0mm|Usage=FLASHONLY|Rotation=130.000|XOffset=0mm|YOffset=0mm|HoleType=Round|Shape=Rectangle|*
%AMROTATEDRECTD84*
4,1,4,2.1331,-1.6062,1.2114,-2.3796,-2.1331,1.6062,-1.2114,2.3796,2.1331,-1.6062,0.0*
%
%ADD84ROTATEDRECTD84*%

G04:AMPARAMS|DCode=85|XSize=5.2032mm|YSize=1.2032mm|CornerRadius=0mm|HoleSize=0mm|Usage=FLASHONLY|Rotation=170.000|XOffset=0mm|YOffset=0mm|HoleType=Round|Shape=Rectangle|*
%AMROTATEDRECTD85*
4,1,4,2.6665,0.1407,2.4576,-1.0442,-2.6665,-0.1407,-2.4576,1.0442,2.6665,0.1407,0.0*
%
%ADD85ROTATEDRECTD85*%

G04:AMPARAMS|DCode=86|XSize=5.2032mm|YSize=1.2032mm|CornerRadius=0mm|HoleSize=0mm|Usage=FLASHONLY|Rotation=210.000|XOffset=0mm|YOffset=0mm|HoleType=Round|Shape=Rectangle|*
%AMROTATEDRECTD86*
4,1,4,1.9523,1.8218,2.5538,0.7798,-1.9523,-1.8218,-2.5538,-0.7798,1.9523,1.8218,0.0*
%
%ADD86ROTATEDRECTD86*%

G04:AMPARAMS|DCode=87|XSize=5.2032mm|YSize=1.2032mm|CornerRadius=0mm|HoleSize=0mm|Usage=FLASHONLY|Rotation=250.000|XOffset=0mm|YOffset=0mm|HoleType=Round|Shape=Rectangle|*
%AMROTATEDRECTD87*
4,1,4,0.3245,2.6505,1.4551,2.2389,-0.3245,-2.6505,-1.4551,-2.2389,0.3245,2.6505,0.0*
%
%ADD87ROTATEDRECTD87*%

G04:AMPARAMS|DCode=88|XSize=5.2032mm|YSize=1.2032mm|CornerRadius=0mm|HoleSize=0mm|Usage=FLASHONLY|Rotation=290.000|XOffset=0mm|YOffset=0mm|HoleType=Round|Shape=Rectangle|*
%AMROTATEDRECTD88*
4,1,4,-1.4551,2.2389,-0.3245,2.6505,1.4551,-2.2389,0.3245,-2.6505,-1.4551,2.2389,0.0*
%
%ADD88ROTATEDRECTD88*%

G04:AMPARAMS|DCode=89|XSize=5.2032mm|YSize=1.2032mm|CornerRadius=0mm|HoleSize=0mm|Usage=FLASHONLY|Rotation=330.000|XOffset=0mm|YOffset=0mm|HoleType=Round|Shape=Rectangle|*
%AMROTATEDRECTD89*
4,1,4,-2.5538,0.7798,-1.9523,1.8218,2.5538,-0.7798,1.9523,-1.8218,-2.5538,0.7798,0.0*
%
%ADD89ROTATEDRECTD89*%

G04:AMPARAMS|DCode=90|XSize=5.2032mm|YSize=1.2032mm|CornerRadius=0mm|HoleSize=0mm|Usage=FLASHONLY|Rotation=10.000|XOffset=0mm|YOffset=0mm|HoleType=Round|Shape=Rectangle|*
%AMROTATEDRECTD90*
4,1,4,-2.4576,-1.0442,-2.6665,0.1407,2.4576,1.0442,2.6665,-0.1407,-2.4576,-1.0442,0.0*
%
%ADD90ROTATEDRECTD90*%

G04:AMPARAMS|DCode=91|XSize=5.2032mm|YSize=1.2032mm|CornerRadius=0mm|HoleSize=0mm|Usage=FLASHONLY|Rotation=50.000|XOffset=0mm|YOffset=0mm|HoleType=Round|Shape=Rectangle|*
%AMROTATEDRECTD91*
4,1,4,-1.2114,-2.3796,-2.1331,-1.6062,1.2114,2.3796,2.1331,1.6062,-1.2114,-2.3796,0.0*
%
%ADD91ROTATEDRECTD91*%

%ADD92R,1.2032X5.2032*%
%ADD93C,0.7000*%
%ADD94C,1.8032*%
G36*
X-00156617Y-00152491D02*
X-00156487Y-00152516D01*
X-0015636Y-00152559D01*
X-00156241Y-00152618D01*
X-00156167Y-00152668D01*
X-0015613Y-00152692D01*
X-0015603Y-0015278D01*
Y-0015278D01*
X-0015603D01*
X-00155942Y-0015288D01*
X-00155918Y-00152917D01*
X-00155868Y-00152991D01*
X-00155809Y-0015311D01*
X-00155766Y-00153237D01*
X-0015574Y-00153367D01*
X-00155732Y-001535D01*
Y-001535D01*
D01*
X-00155732Y-00155716D01*
X-0015566Y-00156801D01*
X-00155659Y-00156934D01*
D01*
Y-00156934D01*
X-00155676Y-00157066D01*
X-00155691Y-00157121D01*
X-00155711Y-00157195D01*
X-00155711Y-00157195D01*
X-00156429Y-00159319D01*
X-00156429Y-0015932D01*
X-0015648Y-00159443D01*
X-00156547Y-00159558D01*
X-00156609Y-00159639D01*
X-00156628Y-00159664D01*
X-00156628Y-00159664D01*
X-00158104Y-00161352D01*
X-00158105Y-00161352D01*
X-00158199Y-00161446D01*
X-00158304Y-00161527D01*
X-00158353Y-00161555D01*
X-00158419Y-00161594D01*
X-0015842Y-00161594D01*
X-0016043Y-00162588D01*
X-0016043D01*
X-0016043Y-00162588D01*
X-00160553Y-00162639D01*
X-00160634Y-00162661D01*
X-00160681Y-00162674D01*
X-00160813Y-00162691D01*
X-00160814D01*
X-00161932Y-00162766D01*
X-00161944Y-00162766D01*
X-00161955Y-00162767D01*
X-00161977Y-00162767D01*
X-00162Y-00162768D01*
X-00162033Y-00162766D01*
X-00162066Y-00162766D01*
X-00162077Y-00162765D01*
X-00162088Y-00162764D01*
X-00163232Y-00162665D01*
X-00163232D01*
X-00163364Y-00162645D01*
X-00163491Y-00162607D01*
X-00163613Y-00162554D01*
X-0016565Y-00161495D01*
X-00165651Y-00161495D01*
X-00165765Y-00161426D01*
X-00165868Y-00161343D01*
X-00165961Y-00161246D01*
X-00167437Y-00159488D01*
X-00167516Y-00159381D01*
X-00167545Y-00159328D01*
X-0016758Y-00159264D01*
X-00167629Y-0015914D01*
X-00167629Y-0015914D01*
X-0016832Y-00156951D01*
X-0016832Y-00156951D01*
X-00168344Y-00156853D01*
X-00168352Y-00156821D01*
X-00168367Y-00156689D01*
Y-00156689D01*
D01*
X-00168364Y-00156556D01*
X-00168268Y-00155456D01*
Y-001535D01*
X-0016826Y-00153367D01*
X-00168234Y-00153237D01*
X-00168191Y-0015311D01*
X-00168132Y-00152991D01*
X-00168058Y-0015288D01*
X-0016797Y-0015278D01*
X-0016787Y-00152692D01*
X-00167759Y-00152618D01*
X-0016764Y-00152559D01*
X-00167514Y-00152516D01*
X-00167383Y-00152491D01*
X-0016725Y-00152482D01*
X-0015675D01*
X-0015675D01*
D01*
X-00156617Y-00152491D01*
D02*
G37*
G36*
X-00161934Y-00142048D02*
X-00161879Y-00142048D01*
X-00161867Y-00142049D01*
X-00161856Y-00142049D01*
X-00160712Y-00142149D01*
X-00160712D01*
X-00160598Y-00142166D01*
X-0016058Y-00142169D01*
X-00160543Y-0014218D01*
X-00160452Y-00142206D01*
X-00160331Y-0014226D01*
X-00158294Y-00143319D01*
X-00158293Y-00143319D01*
X-0015818Y-00143388D01*
X-00158076Y-00143471D01*
X-00157983Y-00143567D01*
X-00156507Y-00145326D01*
X-00156428Y-00145433D01*
X-00156399Y-00145486D01*
X-00156364Y-0014555D01*
X-00156315Y-00145674D01*
X-00156315Y-00145674D01*
X-00155624Y-00147863D01*
X-00155624Y-00147863D01*
X-001556Y-00147961D01*
X-00155592Y-00147993D01*
X-00155577Y-00148125D01*
Y-00148125D01*
D01*
X-0015558Y-00148258D01*
X-00155676Y-00149358D01*
X-00155676Y-00151314D01*
Y-00151314D01*
D01*
X-00155684Y-00151447D01*
X-0015571Y-00151577D01*
X-00155753Y-00151703D01*
X-00155812Y-00151823D01*
X-00155886Y-00151934D01*
X-00155974Y-00152034D01*
X-00156074Y-00152122D01*
X-00156185Y-00152196D01*
X-00156304Y-00152254D01*
X-00156431Y-00152297D01*
X-00156561Y-00152323D01*
X-00156694Y-00152332D01*
X-00156694D01*
D01*
X-00167194Y-00152332D01*
X-00167194D01*
D01*
X-00167327Y-00152323D01*
X-00167458Y-00152297D01*
X-00167584Y-00152254D01*
X-00167703Y-00152196D01*
X-00167777Y-00152146D01*
X-00167814Y-00152121D01*
X-00167914Y-00152034D01*
Y-00152034D01*
X-00167914D01*
X-00168002Y-00151934D01*
X-00168026Y-00151897D01*
X-00168076Y-00151823D01*
X-00168135Y-00151703D01*
X-00168178Y-00151577D01*
X-00168204Y-00151447D01*
X-00168212Y-00151314D01*
Y-00151314D01*
D01*
X-00168212Y-00149098D01*
X-00168285Y-00148013D01*
X-00168285Y-00147879D01*
D01*
Y-00147879D01*
X-00168267Y-00147747D01*
X-00168253Y-00147693D01*
X-00168233Y-00147619D01*
X-00168233Y-00147619D01*
X-00167515Y-00145494D01*
X-00167515Y-00145494D01*
X-00167464Y-00145371D01*
X-00167397Y-00145256D01*
X-00167335Y-00145175D01*
X-00167316Y-0014515D01*
X-00167316Y-0014515D01*
X-0016584Y-00143462D01*
X-00165839Y-00143462D01*
X-00165745Y-00143368D01*
X-0016564Y-00143287D01*
X-00165591Y-00143258D01*
X-00165525Y-0014322D01*
X-00165525Y-0014322D01*
X-00163514Y-00142226D01*
X-00163514D01*
X-00163514Y-00142226D01*
X-00163391Y-00142175D01*
X-0016331Y-00142153D01*
X-00163263Y-0014214D01*
X-00163131Y-00142122D01*
X-00163131D01*
X-00162012Y-00142048D01*
X-00162Y-00142048D01*
X-00161989Y-00142047D01*
X-00161934Y-00142048D01*
D02*
G37*
G36*
X-00156806Y-00122668D02*
X-00156806D01*
D01*
X-00156673Y-00122677D01*
X-00156542Y-00122703D01*
X-001565Y-00122717D01*
X-00156416Y-00122746D01*
X-00156297Y-00122804D01*
X-00156186Y-00122879D01*
X-00156086Y-00122966D01*
Y-00122966D01*
X-00156086D01*
X-00155998Y-00123066D01*
X-00155924Y-00123177D01*
X-00155865Y-00123297D01*
X-00155837Y-0012338D01*
X-00155822Y-00123423D01*
X-00155796Y-00123553D01*
X-00155788Y-00123686D01*
Y-00123686D01*
D01*
X-00155788Y-00125902D01*
X-00155716Y-00126987D01*
X-00155715Y-00127121D01*
D01*
Y-00127121D01*
X-00155733Y-00127253D01*
X-00155747Y-00127307D01*
X-00155767Y-00127381D01*
X-00155767Y-00127381D01*
X-00156485Y-00129506D01*
X-00156485Y-00129506D01*
X-00156536Y-00129629D01*
X-00156603Y-00129744D01*
X-00156665Y-00129825D01*
X-00156684Y-0012985D01*
X-00156684Y-0012985D01*
X-0015816Y-00131538D01*
X-00158161Y-00131538D01*
X-00158255Y-00131632D01*
X-0015836Y-00131713D01*
X-00158409Y-00131742D01*
X-00158475Y-0013178D01*
X-00158476Y-0013178D01*
X-00160486Y-00132774D01*
X-00160486D01*
X-00160486Y-00132774D01*
X-00160609Y-00132825D01*
X-0016069Y-00132847D01*
X-00160737Y-0013286D01*
X-00160869Y-00132878D01*
X-0016087D01*
X-00161988Y-00132952D01*
X-00162Y-00132952D01*
X-00162011Y-00132953D01*
X-00162033Y-00132953D01*
X-00162056Y-00132954D01*
X-00162089Y-00132952D01*
X-00162122Y-00132952D01*
X-00162133Y-00132951D01*
X-00162144Y-00132951D01*
X-00163288Y-00132851D01*
X-00163288D01*
X-0016342Y-00132831D01*
X-00163547Y-00132794D01*
X-00163669Y-0013274D01*
X-00165706Y-00131681D01*
X-00165707Y-00131681D01*
X-00165821Y-00131612D01*
X-00165924Y-00131529D01*
X-00166017Y-00131433D01*
X-00167493Y-00129674D01*
X-00167572Y-00129567D01*
X-00167601Y-00129514D01*
X-00167636Y-0012945D01*
X-00167685Y-00129326D01*
X-00167685Y-00129326D01*
X-00168376Y-00127137D01*
X-00168376Y-00127137D01*
X-001684Y-00127039D01*
X-00168408Y-00127007D01*
X-00168423Y-00126875D01*
Y-00126875D01*
D01*
X-0016842Y-00126742D01*
X-00168324Y-00125642D01*
X-00168324Y-00123686D01*
Y-00123686D01*
D01*
X-00168316Y-00123553D01*
X-0016829Y-00123423D01*
X-00168247Y-00123297D01*
X-00168188Y-00123177D01*
X-00168114Y-00123066D01*
X-00168026Y-00122966D01*
X-00167926Y-00122878D01*
X-00167815Y-00122804D01*
X-00167696Y-00122746D01*
X-0016757Y-00122703D01*
X-00167439Y-00122677D01*
X-00167306Y-00122668D01*
X-00167306D01*
D01*
X-00156806Y-00122668D01*
D02*
G37*
G36*
X-0016199Y-00112234D02*
X-00161935Y-00112234D01*
X-00161923Y-00112235D01*
X-00161912Y-00112236D01*
X-00160768Y-00112335D01*
X-00160768D01*
X-00160654Y-00112353D01*
X-00160636Y-00112355D01*
X-00160599Y-00112366D01*
X-00160508Y-00112393D01*
X-00160387Y-00112446D01*
X-0015835Y-00113505D01*
X-00158349Y-00113505D01*
X-00158236Y-00113574D01*
X-00158132Y-00113658D01*
X-00158039Y-00113754D01*
X-00156563Y-00115512D01*
X-00156484Y-00115619D01*
X-00156455Y-00115672D01*
X-0015642Y-00115736D01*
X-00156371Y-0011586D01*
X-00156371Y-0011586D01*
X-0015568Y-00118049D01*
X-0015568Y-00118049D01*
X-00155656Y-00118147D01*
X-00155648Y-00118179D01*
X-00155633Y-00118311D01*
Y-00118311D01*
D01*
X-00155636Y-00118444D01*
X-00155732Y-00119544D01*
Y-001215D01*
X-0015574Y-00121633D01*
X-00155766Y-00121763D01*
X-00155809Y-0012189D01*
X-00155868Y-00122009D01*
X-00155942Y-0012212D01*
X-0015603Y-0012222D01*
X-0015613Y-00122308D01*
X-00156241Y-00122382D01*
X-0015636Y-00122441D01*
X-00156487Y-00122484D01*
X-00156617Y-00122509D01*
X-0015675Y-00122518D01*
X-0016725D01*
X-00167383Y-00122509D01*
X-00167514Y-00122484D01*
X-0016764Y-00122441D01*
X-00167759Y-00122382D01*
X-0016787Y-00122308D01*
X-0016797Y-0012222D01*
X-00168058Y-0012212D01*
X-00168132Y-00122009D01*
X-00168191Y-0012189D01*
X-00168234Y-00121763D01*
X-0016826Y-00121633D01*
X-00168268Y-001215D01*
X-00168268Y-00119284D01*
X-00168341Y-00118199D01*
X-00168341Y-00118066D01*
D01*
Y-00118066D01*
X-00168323Y-00117934D01*
X-00168309Y-00117879D01*
X-00168289Y-00117805D01*
X-00168289Y-00117805D01*
X-00167571Y-00115681D01*
X-00167571Y-0011568D01*
X-0016752Y-00115557D01*
X-00167453Y-00115442D01*
X-00167391Y-00115361D01*
X-00167372Y-00115336D01*
X-00167372Y-00115336D01*
X-00165896Y-00113648D01*
X-00165895Y-00113648D01*
X-00165801Y-00113554D01*
X-00165696Y-00113473D01*
X-00165647Y-00113445D01*
X-00165581Y-00113406D01*
X-00165581Y-00113406D01*
X-0016357Y-00112412D01*
X-0016357D01*
X-0016357Y-00112412D01*
X-00163447Y-00112361D01*
X-00163366Y-00112339D01*
X-00163319Y-00112326D01*
X-00163187Y-00112309D01*
X-00163187D01*
X-00162068Y-00112234D01*
X-00162056Y-00112234D01*
X-00162045Y-00112233D01*
X-0016199Y-00112234D01*
D02*
G37*
G36*
X00118444Y-00155136D02*
X00119544Y-00155232D01*
X001215D01*
X00121633Y-0015524D01*
X00121763Y-00155267D01*
X0012189Y-00155309D01*
X00122009Y-00155368D01*
X0012212Y-00155442D01*
X0012222Y-0015553D01*
X00122308Y-0015563D01*
X00122382Y-00155741D01*
X00122441Y-0015586D01*
X00122484Y-00155986D01*
X00122509Y-00156117D01*
X00122518Y-0015625D01*
Y-0016675D01*
X00122509Y-00166883D01*
X00122484Y-00167013D01*
X00122441Y-0016714D01*
X00122382Y-00167259D01*
X00122308Y-0016737D01*
X0012222Y-0016747D01*
X0012212Y-00167558D01*
X00122009Y-00167632D01*
X0012189Y-00167691D01*
X00121763Y-00167733D01*
X00121633Y-00167759D01*
X001215Y-00167768D01*
X00119284Y-00167768D01*
X00118199Y-00167841D01*
X00118066Y-00167841D01*
D01*
X00118066D01*
X00117934Y-00167824D01*
X00117879Y-00167809D01*
X00117805Y-00167789D01*
X00117805Y-00167789D01*
X00115681Y-00167071D01*
X0011568Y-00167071D01*
X00115557Y-0016702D01*
X00115442Y-00166953D01*
X00115361Y-00166891D01*
X00115336Y-00166872D01*
X00115336Y-00166872D01*
X00113648Y-00165396D01*
X00113648Y-00165395D01*
X00113554Y-00165301D01*
X00113473Y-00165196D01*
X00113445Y-00165147D01*
X00113406Y-00165081D01*
X00113406Y-00165081D01*
X00112412Y-0016307D01*
Y-0016307D01*
X00112412Y-0016307D01*
X00112361Y-00162947D01*
X00112339Y-00162866D01*
X00112326Y-00162819D01*
X00112309Y-00162687D01*
Y-00162687D01*
X00112234Y-00161568D01*
X00112234Y-00161556D01*
X00112233Y-00161545D01*
X00112234Y-0016149D01*
X00112234Y-00161434D01*
X00112235Y-00161423D01*
X00112236Y-00161412D01*
X00112335Y-00160268D01*
Y-00160268D01*
X00112353Y-00160154D01*
X00112355Y-00160136D01*
X00112366Y-00160099D01*
X00112393Y-00160009D01*
X00112446Y-00159887D01*
X00113505Y-0015785D01*
X00113505Y-00157849D01*
X00113574Y-00157736D01*
X00113658Y-00157632D01*
X00113754Y-00157539D01*
X00115512Y-00156063D01*
X00115619Y-00155984D01*
X00115672Y-00155955D01*
X00115736Y-0015592D01*
X0011586Y-00155871D01*
X0011586Y-00155871D01*
X00118049Y-0015518D01*
X00118049Y-0015518D01*
X00118147Y-00155156D01*
X00118179Y-00155148D01*
X00118311Y-00155133D01*
X00118311D01*
D01*
X00118444Y-00155136D01*
D02*
G37*
G36*
X00127253Y-00155233D02*
X00127307Y-00155247D01*
X00127381Y-00155267D01*
X00127381Y-00155267D01*
X00129506Y-00155985D01*
X00129506Y-00155985D01*
X00129629Y-00156036D01*
X00129744Y-00156103D01*
X00129825Y-00156165D01*
X0012985Y-00156184D01*
X0012985Y-00156184D01*
X00131538Y-00157661D01*
X00131538Y-00157661D01*
X00131632Y-00157755D01*
X00131713Y-0015786D01*
X00131742Y-00157909D01*
X0013178Y-00157975D01*
X0013178Y-00157976D01*
X00132774Y-00159986D01*
Y-00159986D01*
X00132774Y-00159986D01*
X00132825Y-00160109D01*
X00132847Y-0016019D01*
X0013286Y-00160237D01*
X00132878Y-00160369D01*
Y-00160369D01*
X00132952Y-00161488D01*
X00132952Y-001615D01*
X00132953Y-00161511D01*
X00132953Y-00161533D01*
X00132954Y-00161556D01*
X00132952Y-00161589D01*
X00132952Y-00161622D01*
X00132951Y-00161633D01*
X00132951Y-00161644D01*
X00132851Y-00162788D01*
Y-00162788D01*
X00132831Y-0016292D01*
X00132794Y-00163048D01*
X0013274Y-00163169D01*
X00131681Y-00165206D01*
X00131681Y-00165207D01*
X00131612Y-00165321D01*
X00131529Y-00165424D01*
X00131433Y-00165517D01*
X00129674Y-00166994D01*
X00129567Y-00167072D01*
X00129514Y-00167101D01*
X0012945Y-00167136D01*
X00129326Y-00167185D01*
X00129326Y-00167185D01*
X00127137Y-00167876D01*
X00127137Y-00167876D01*
X00127039Y-001679D01*
X00127007Y-00167908D01*
X00126875Y-00167923D01*
X00126875D01*
D01*
X00126742Y-0016792D01*
X00125642Y-00167824D01*
X00123686Y-00167824D01*
D01*
X00123686D01*
X00123553Y-00167815D01*
X00123423Y-00167789D01*
X00123297Y-00167747D01*
X00123177Y-00167688D01*
X00123066Y-00167614D01*
X00122966Y-00167526D01*
X00122878Y-00167426D01*
X00122804Y-00167315D01*
X00122746Y-00167196D01*
X00122703Y-00167069D01*
X00122677Y-00166939D01*
X00122668Y-00166806D01*
Y-00166806D01*
D01*
X00122668Y-00156306D01*
Y-00156306D01*
D01*
X00122677Y-00156173D01*
X00122703Y-00156042D01*
X00122717Y-00156D01*
X00122746Y-00155916D01*
X00122804Y-00155797D01*
X00122879Y-00155686D01*
X00122966Y-00155586D01*
X00122966D01*
Y-00155586D01*
X00123066Y-00155498D01*
X00123177Y-00155424D01*
X00123297Y-00155365D01*
X0012338Y-00155337D01*
X00123423Y-00155323D01*
X00123553Y-00155296D01*
X00123686Y-00155288D01*
D01*
X00123686D01*
X00125902Y-00155288D01*
X00126987Y-00155216D01*
X00127121Y-00155215D01*
D01*
X00127121D01*
X00127253Y-00155233D01*
D02*
G37*
G36*
X00148258Y-0015508D02*
X00149358Y-00155176D01*
X00151314Y-00155176D01*
D01*
X00151314D01*
X00151447Y-00155184D01*
X00151577Y-00155211D01*
X00151703Y-00155253D01*
X00151823Y-00155312D01*
X00151934Y-00155386D01*
X00152034Y-00155474D01*
X00152122Y-00155574D01*
X00152196Y-00155685D01*
X00152254Y-00155804D01*
X00152297Y-00155931D01*
X00152323Y-00156061D01*
X00152332Y-00156194D01*
Y-00156194D01*
D01*
X00152332Y-00166694D01*
Y-00166694D01*
D01*
X00152323Y-00166827D01*
X00152297Y-00166958D01*
X00152254Y-00167084D01*
X00152196Y-00167203D01*
X00152146Y-00167277D01*
X00152121Y-00167314D01*
X00152034Y-00167414D01*
X00152034D01*
Y-00167414D01*
X00151934Y-00167502D01*
X00151897Y-00167526D01*
X00151823Y-00167576D01*
X00151703Y-00167635D01*
X00151577Y-00167677D01*
X00151447Y-00167703D01*
X00151314Y-00167712D01*
D01*
X00151314D01*
X00149098Y-00167712D01*
X00148013Y-00167785D01*
X00147879Y-00167785D01*
D01*
X00147879D01*
X00147747Y-00167768D01*
X00147693Y-00167753D01*
X00147619Y-00167733D01*
X00147619Y-00167733D01*
X00145494Y-00167015D01*
X00145494Y-00167015D01*
X00145371Y-00166964D01*
X00145256Y-00166897D01*
X00145175Y-00166835D01*
X0014515Y-00166816D01*
X0014515Y-00166816D01*
X00143462Y-0016534D01*
X00143462Y-00165339D01*
X00143368Y-00165245D01*
X00143287Y-0016514D01*
X00143258Y-00165091D01*
X0014322Y-00165025D01*
X0014322Y-00165025D01*
X00142226Y-00163014D01*
Y-00163014D01*
X00142226Y-00163014D01*
X00142175Y-00162891D01*
X00142153Y-0016281D01*
X0014214Y-00162763D01*
X00142122Y-00162631D01*
Y-00162631D01*
X00142048Y-00161512D01*
X00142048Y-001615D01*
X00142047Y-00161489D01*
X00142048Y-00161434D01*
X00142048Y-00161378D01*
X00142049Y-00161367D01*
X00142049Y-00161356D01*
X00142149Y-00160212D01*
Y-00160212D01*
X00142166Y-00160098D01*
X00142169Y-0016008D01*
X0014218Y-00160043D01*
X00142206Y-00159952D01*
X0014226Y-00159831D01*
X00143319Y-00157794D01*
X00143319Y-00157793D01*
X00143388Y-0015768D01*
X00143471Y-00157576D01*
X00143567Y-00157483D01*
X00145326Y-00156006D01*
X00145433Y-00155928D01*
X00145486Y-00155899D01*
X0014555Y-00155864D01*
X00145674Y-00155815D01*
X00145674Y-00155815D01*
X00147863Y-00155124D01*
X00147863Y-00155124D01*
X00147961Y-001551D01*
X00147993Y-00155092D01*
X00148125Y-00155077D01*
X00148125D01*
D01*
X00148258Y-0015508D01*
D02*
G37*
G36*
X00157066Y-00155177D02*
X00157121Y-00155191D01*
X00157195Y-00155211D01*
X00157195Y-00155211D01*
X00159319Y-00155929D01*
X0015932Y-00155929D01*
X00159443Y-0015598D01*
X00159558Y-00156047D01*
X00159639Y-00156109D01*
X00159664Y-00156128D01*
X00159664Y-00156128D01*
X00161352Y-00157605D01*
X00161352Y-00157605D01*
X00161446Y-00157699D01*
X00161527Y-00157804D01*
X00161555Y-00157853D01*
X00161594Y-00157919D01*
X00161594Y-0015792D01*
X00162588Y-0015993D01*
Y-0015993D01*
X00162588Y-0015993D01*
X00162639Y-00160053D01*
X00162661Y-00160134D01*
X00162674Y-00160181D01*
X00162691Y-00160313D01*
Y-00160313D01*
X00162766Y-00161432D01*
X00162766Y-00161444D01*
X00162767Y-00161455D01*
X00162767Y-00161477D01*
X00162768Y-001615D01*
X00162766Y-00161533D01*
X00162766Y-00161566D01*
X00162764Y-00161577D01*
X00162764Y-00161588D01*
X00162665Y-00162732D01*
Y-00162732D01*
X00162645Y-00162864D01*
X00162607Y-00162992D01*
X00162554Y-00163113D01*
X00161495Y-0016515D01*
X00161495Y-00165151D01*
X00161426Y-00165265D01*
X00161343Y-00165368D01*
X00161246Y-00165461D01*
X00159488Y-00166938D01*
X00159381Y-00167016D01*
X00159328Y-00167045D01*
X00159264Y-0016708D01*
X0015914Y-00167129D01*
X0015914Y-00167129D01*
X00156951Y-0016782D01*
X00156951Y-0016782D01*
X00156853Y-00167844D01*
X00156821Y-00167852D01*
X00156689Y-00167867D01*
X00156689D01*
D01*
X00156556Y-00167864D01*
X00155456Y-00167768D01*
X001535D01*
X00153367Y-00167759D01*
X00153237Y-00167733D01*
X0015311Y-00167691D01*
X00152991Y-00167632D01*
X0015288Y-00167558D01*
X0015278Y-0016747D01*
X00152692Y-0016737D01*
X00152618Y-00167259D01*
X00152559Y-0016714D01*
X00152516Y-00167013D01*
X00152491Y-00166883D01*
X00152482Y-0016675D01*
Y-0015625D01*
Y-0015625D01*
D01*
X00152491Y-00156117D01*
X00152516Y-00155986D01*
X00152559Y-0015586D01*
X00152618Y-00155741D01*
X00152668Y-00155667D01*
X00152692Y-0015563D01*
X0015278Y-0015553D01*
X0015278D01*
Y-0015553D01*
X0015288Y-00155442D01*
X00152917Y-00155418D01*
X00152991Y-00155368D01*
X0015311Y-00155309D01*
X00153237Y-00155267D01*
X00153367Y-0015524D01*
X001535Y-00155232D01*
D01*
X001535D01*
X00155716Y-00155232D01*
X00156801Y-0015516D01*
X00156934Y-00155159D01*
D01*
X00156934D01*
X00157066Y-00155177D01*
D02*
G37*
G36*
X-00156806Y00160364D02*
X-00155706Y00160268D01*
X-0015375D01*
X-00153617Y00160259D01*
X-00153486Y00160233D01*
X-0015336Y00160191D01*
X-00153241Y00160132D01*
X-0015313Y00160058D01*
X-0015303Y0015997D01*
X-00152942Y0015987D01*
X-00152868Y00159759D01*
X-00152809Y0015964D01*
X-00152767Y00159514D01*
X-00152741Y00159383D01*
X-00152732Y0015925D01*
Y0014875D01*
X-00152741Y00148617D01*
X-00152767Y00148486D01*
X-00152809Y0014836D01*
X-00152868Y00148241D01*
X-00152942Y0014813D01*
X-0015303Y0014803D01*
X-0015313Y00147942D01*
X-00153241Y00147868D01*
X-0015336Y00147809D01*
X-00153486Y00147767D01*
X-00153617Y0014774D01*
X-0015375Y00147732D01*
X-00155966D01*
X-00157051Y00147659D01*
X-00157184Y00147659D01*
D01*
X-00157184D01*
X-00157316Y00147676D01*
X-00157371Y00147691D01*
X-00157445Y00147711D01*
X-00157445Y00147711D01*
X-0015957Y00148429D01*
X-0015957Y00148429D01*
X-00159693Y0014848D01*
X-00159808Y00148547D01*
X-00159889Y00148609D01*
X-00159914Y00148628D01*
X-00159914Y00148628D01*
X-00161602Y00150104D01*
X-00161602Y00150105D01*
X-00161696Y00150198D01*
X-00161777Y00150304D01*
X-00161805Y00150353D01*
X-00161844Y00150419D01*
X-00161844Y0015042D01*
X-00162838Y0015243D01*
Y0015243D01*
X-00162838Y0015243D01*
X-00162889Y00152553D01*
X-00162911Y00152634D01*
X-00162924Y00152681D01*
X-00162941Y00152813D01*
Y00152813D01*
X-00163016Y00153932D01*
X-00163016Y00153944D01*
X-00163017Y00153955D01*
X-00163017Y00153977D01*
X-00163018Y00154D01*
X-00163016Y00154033D01*
X-00163016Y00154066D01*
X-00163015Y00154077D01*
X-00163014Y00154088D01*
X-00162915Y00155232D01*
Y00155232D01*
X-00162895Y00155364D01*
X-00162857Y00155492D01*
X-00162804Y00155613D01*
X-00161745Y0015765D01*
X-00161745Y00157651D01*
X-00161676Y00157765D01*
X-00161593Y00157868D01*
X-00161496Y00157961D01*
X-00159738Y00159438D01*
X-00159631Y00159516D01*
X-00159578Y00159545D01*
X-00159514Y0015958D01*
X-0015939Y00159629D01*
X-0015939Y00159629D01*
X-00157201Y0016032D01*
X-001572Y0016032D01*
X-00157103Y00160344D01*
X-00157071Y00160352D01*
X-00156939Y00160367D01*
X-00156939D01*
D01*
X-00156806Y00160364D01*
D02*
G37*
G36*
X-00147997Y00160267D02*
X-00147943Y00160253D01*
X-00147869Y00160233D01*
X-00147868Y00160233D01*
X-00145744Y00159515D01*
X-00145744Y00159515D01*
X-00145621Y00159464D01*
X-00145506Y00159397D01*
X-00145425Y00159335D01*
X-001454Y00159316D01*
X-001454Y00159316D01*
X-00143712Y00157839D01*
X-00143712Y00157839D01*
X-00143618Y00157745D01*
X-00143537Y0015764D01*
X-00143509Y00157591D01*
X-0014347Y00157525D01*
X-0014347Y00157524D01*
X-00142476Y00155514D01*
Y00155514D01*
X-00142476Y00155514D01*
X-00142424Y00155391D01*
X-00142403Y0015531D01*
X-0014239Y00155263D01*
X-00142372Y00155131D01*
Y00155131D01*
X-00142298Y00154012D01*
Y00154008D01*
X-00142297Y00154005D01*
X-00142297Y00153997D01*
X-00142297Y00153989D01*
X-00142298Y00153935D01*
X-00142298Y00153878D01*
X-00142298Y00153875D01*
X-00142298Y00153872D01*
X-00142299Y00153863D01*
X-00142299Y00153856D01*
X-00142399Y00152712D01*
Y00152712D01*
X-00142419Y0015258D01*
X-00142456Y00152452D01*
X-0014251Y00152331D01*
X-00143569Y00150294D01*
X-00143569Y00150293D01*
X-00143638Y0015018D01*
X-00143721Y00150076D01*
X-00143818Y00149983D01*
X-00145576Y00148506D01*
X-00145683Y00148428D01*
X-00145736Y00148399D01*
X-001458Y00148364D01*
X-00145924Y00148315D01*
X-00145924Y00148315D01*
X-00148113Y00147624D01*
X-00148113Y00147624D01*
X-00148211Y001476D01*
X-00148243Y00147592D01*
X-00148375Y00147577D01*
X-00148375D01*
D01*
X-00148508Y0014758D01*
X-00149608Y00147676D01*
X-00151564Y00147676D01*
D01*
X-00151564D01*
X-00151697Y00147684D01*
X-00151827Y00147711D01*
X-00151953Y00147753D01*
X-00152012Y00147782D01*
X-00152073Y00147812D01*
X-00152184Y00147886D01*
X-00152284Y00147974D01*
Y00147974D01*
X-00152284D01*
X-00152372Y00148074D01*
X-00152446Y00148185D01*
X-00152475Y00148245D01*
X-00152505Y00148304D01*
X-00152547Y0014843D01*
X-00152573Y00148561D01*
X-00152582Y00148694D01*
D01*
Y00148694D01*
X-00152582Y00159194D01*
Y00159194D01*
Y00159194D01*
X-00152573Y00159327D01*
X-00152547Y00159458D01*
X-00152518Y00159543D01*
X-00152505Y00159584D01*
X-00152446Y00159703D01*
D01*
X-00152445Y00159703D01*
X-00152408Y00159759D01*
X-00152372Y00159814D01*
X-00152284Y00159914D01*
X-00152284D01*
Y00159914D01*
X-00152184Y00160002D01*
X-00152129Y00160039D01*
X-00152073Y00160076D01*
X-00152073Y00160076D01*
D01*
X-00151953Y00160135D01*
X-00151913Y00160149D01*
X-00151827Y00160177D01*
X-00151697Y00160203D01*
X-00151564Y00160212D01*
X-00151564D01*
X-00151564D01*
X-00149348Y00160212D01*
X-00148263Y00160285D01*
X-0014813Y00160285D01*
D01*
X-0014813D01*
X-00147997Y00160267D01*
D02*
G37*
G36*
X-00126992Y0016042D02*
X-00125892Y00160324D01*
X-00123936Y00160324D01*
D01*
X-00123936D01*
X-00123803Y00160315D01*
X-00123673Y00160289D01*
X-00123547Y00160247D01*
X-00123427Y00160188D01*
X-00123316Y00160114D01*
X-00123216Y00160026D01*
X-00123128Y00159926D01*
X-00123054Y00159815D01*
X-00122996Y00159696D01*
X-00122953Y0015957D01*
X-00122927Y00159439D01*
X-00122918Y00159306D01*
Y00159306D01*
D01*
X-00122918Y00148806D01*
Y00148806D01*
D01*
X-00122927Y00148673D01*
X-00122953Y00148542D01*
X-00122996Y00148416D01*
X-00123055Y00148297D01*
X-00123104Y00148223D01*
X-00123128Y00148186D01*
X-00123216Y00148086D01*
X-00123216D01*
Y00148086D01*
X-00123316Y00147998D01*
X-00123353Y00147974D01*
X-00123427Y00147924D01*
X-00123547Y00147865D01*
X-00123673Y00147823D01*
X-00123803Y00147796D01*
X-00123936Y00147788D01*
D01*
X-00123936D01*
X-00126152Y00147788D01*
X-00127237Y00147716D01*
X-00127371Y00147715D01*
D01*
X-00127371D01*
X-00127503Y00147732D01*
X-00127557Y00147747D01*
X-00127631Y00147767D01*
X-00127632Y00147767D01*
X-00129756Y00148485D01*
X-00129756Y00148485D01*
X-00129879Y00148536D01*
X-00129994Y00148603D01*
X-00130075Y00148665D01*
X-001301Y00148684D01*
X-001301Y00148684D01*
X-00131788Y00150161D01*
X-00131788Y00150161D01*
X-00131882Y00150255D01*
X-00131964Y0015036D01*
X-00131992Y00150409D01*
X-0013203Y00150475D01*
X-0013203Y00150476D01*
X-00133024Y00152486D01*
Y00152486D01*
X-00133024Y00152486D01*
X-00133076Y00152609D01*
X-00133097Y0015269D01*
X-0013311Y00152737D01*
X-00133128Y00152869D01*
Y00152869D01*
X-00133202Y00153988D01*
X-00133202Y00154D01*
X-00133203Y00154011D01*
X-00133202Y00154066D01*
X-00133202Y00154122D01*
X-00133201Y00154133D01*
X-00133201Y00154144D01*
X-00133101Y00155288D01*
Y00155288D01*
X-00133084Y00155402D01*
X-00133081Y0015542D01*
X-0013307Y00155457D01*
X-00133044Y00155548D01*
X-0013299Y00155669D01*
X-00131931Y00157706D01*
X-00131931Y00157707D01*
X-00131862Y00157821D01*
X-00131779Y00157924D01*
X-00131683Y00158017D01*
X-00129924Y00159494D01*
X-00129817Y00159572D01*
X-00129764Y00159601D01*
X-001297Y00159636D01*
X-00129576Y00159685D01*
X-00129576Y00159685D01*
X-00127387Y00160376D01*
X-00127387Y00160376D01*
X-00127289Y001604D01*
X-00127257Y00160408D01*
X-00127125Y00160423D01*
X-00127125D01*
D01*
X-00126992Y0016042D01*
D02*
G37*
G36*
X-00118184Y00160324D02*
X-00118129Y00160309D01*
X-00118055Y00160289D01*
X-00118055Y00160289D01*
X-00115931Y00159571D01*
X-0011593Y00159571D01*
X-00115807Y0015952D01*
X-00115692Y00159453D01*
X-00115611Y00159391D01*
X-00115586Y00159372D01*
X-00115586Y00159372D01*
X-00113898Y00157895D01*
X-00113898Y00157895D01*
X-00113804Y00157801D01*
X-00113723Y00157696D01*
X-00113695Y00157647D01*
X-00113656Y00157581D01*
X-00113656Y0015758D01*
X-00112662Y0015557D01*
Y0015557D01*
X-00112662Y0015557D01*
X-00112611Y00155447D01*
X-00112589Y00155366D01*
X-00112576Y00155319D01*
X-00112559Y00155187D01*
Y00155187D01*
X-00112484Y00154068D01*
X-00112484Y00154056D01*
X-00112483Y00154045D01*
X-00112483Y00154023D01*
X-00112482Y00154D01*
X-00112484Y00153967D01*
X-00112484Y00153934D01*
X-00112485Y00153923D01*
X-00112486Y00153912D01*
X-00112585Y00152768D01*
Y00152768D01*
X-00112605Y00152636D01*
X-00112642Y00152508D01*
X-00112696Y00152387D01*
X-00113755Y0015035D01*
X-00113755Y00150349D01*
X-00113824Y00150235D01*
X-00113907Y00150132D01*
X-00114004Y00150039D01*
X-00115762Y00148562D01*
X-00115869Y00148484D01*
X-00115922Y00148455D01*
X-00115986Y0014842D01*
X-0011611Y00148371D01*
X-0011611Y00148371D01*
X-00118299Y0014768D01*
X-001183Y0014768D01*
X-00118397Y00147656D01*
X-00118429Y00147648D01*
X-00118561Y00147633D01*
X-00118561D01*
D01*
X-00118694Y00147636D01*
X-00119794Y00147732D01*
X-0012175D01*
X-00121883Y0014774D01*
X-00122014Y00147767D01*
X-0012214Y00147809D01*
X-00122259Y00147868D01*
X-0012237Y00147942D01*
X-0012247Y0014803D01*
X-00122558Y0014813D01*
X-00122632Y00148241D01*
X-00122691Y0014836D01*
X-00122733Y00148486D01*
X-0012276Y00148617D01*
X-00122768Y0014875D01*
Y0015925D01*
Y0015925D01*
D01*
X-0012276Y00159383D01*
X-00122733Y00159514D01*
X-00122691Y0015964D01*
X-00122632Y00159759D01*
X-00122582Y00159833D01*
X-00122558Y0015987D01*
X-0012247Y0015997D01*
X-0012247D01*
Y0015997D01*
X-0012237Y00160058D01*
X-00122333Y00160082D01*
X-00122259Y00160132D01*
X-0012214Y00160191D01*
X-00122014Y00160233D01*
X-00121883Y00160259D01*
X-0012175Y00160268D01*
D01*
X-0012175D01*
X-00119534Y00160268D01*
X-00118449Y0016034D01*
X-00118316Y00160341D01*
D01*
X-00118316D01*
X-00118184Y00160324D01*
D02*
G37*
G36*
X0009602Y00208411D02*
X00097118Y00208302D01*
X00099074Y00208279D01*
D01*
X00099074D01*
X00099207Y00208269D01*
X00099337Y00208242D01*
X00099462Y00208197D01*
X00099581Y00208137D01*
X00099691Y00208062D01*
X0009979Y00207973D01*
X00099877Y00207872D01*
X0009995Y0020776D01*
X00100007Y0020764D01*
X00100048Y00207513D01*
X00100073Y00207382D01*
X0010008Y00207256D01*
X0010008Y00207249D01*
D01*
Y00207249D01*
X00099956Y0019675D01*
X00099946Y00196617D01*
X00099919Y00196487D01*
X00099874Y00196361D01*
X00099814Y00196243D01*
X00099739Y00196133D01*
X0009965Y00196034D01*
X00099549Y00195947D01*
X00099437Y00195874D01*
X00099317Y00195817D01*
X0009919Y00195776D01*
X00099059Y00195751D01*
X00098926Y00195744D01*
X00098926Y00195744D01*
X00096711Y0019577D01*
X00095625Y00195711D01*
X00095625D01*
D01*
X00095491Y00195712D01*
X00095359Y00195731D01*
X00095324Y00195741D01*
X00095231Y00195767D01*
X00095231Y00195767D01*
X00093115Y0019651D01*
X00092993Y00196562D01*
X00092878Y0019663D01*
X00092832Y00196666D01*
X00092773Y00196712D01*
X00092773Y00196712D01*
X00091103Y00198209D01*
X00091103Y00198209D01*
D01*
X00091101Y00198211D01*
X0009101Y00198304D01*
X0009095Y00198384D01*
X0009093Y00198411D01*
X00090901Y00198461D01*
X00090864Y00198527D01*
X00090864Y00198527D01*
X00089894Y00200548D01*
X00089894Y00200549D01*
X00089873Y00200601D01*
X00089844Y00200672D01*
X00089811Y00200801D01*
X00089795Y00200933D01*
Y00200933D01*
D01*
X00089734Y00202053D01*
X00089734Y00202065D01*
X00089733Y00202076D01*
X00089735Y00202131D01*
X00089735Y00202186D01*
X00089737Y00202198D01*
X00089737Y00202209D01*
X0008985Y00203351D01*
X00089872Y00203483D01*
X00089911Y0020361D01*
X00089966Y00203732D01*
X00091049Y00205756D01*
X00091119Y00205869D01*
X00091204Y00205972D01*
X00091301Y00206063D01*
X00091301Y00206063D01*
X00093076Y00207519D01*
X00093076Y00207519D01*
X00093185Y00207597D01*
X00093302Y0020766D01*
X00093427Y00207707D01*
X00093427Y00207707D01*
X00095624Y00208372D01*
X00095624Y00208372D01*
X00095754Y00208403D01*
X00095886Y00208416D01*
X0009602Y00208411D01*
D02*
G37*
G36*
X00104694Y0020823D02*
X00104826Y00208211D01*
X00104862Y00208201D01*
X00104954Y00208175D01*
X00104955Y00208175D01*
X0010707Y00207432D01*
X00107193Y00207379D01*
X00107307Y00207312D01*
X00107353Y00207276D01*
X00107412Y00207229D01*
X00107412Y00207229D01*
X00109083Y00205733D01*
X00109083Y00205733D01*
D01*
X00109085Y00205731D01*
X00109176Y00205638D01*
X00109236Y00205558D01*
X00109256Y00205531D01*
X00109284Y0020548D01*
X00109321Y00205415D01*
X00109321Y00205415D01*
X00110291Y00203393D01*
X00110292Y00203393D01*
X00110313Y0020334D01*
X00110341Y0020327D01*
X00110374Y00203141D01*
X0011039Y00203008D01*
Y00203008D01*
D01*
X00110452Y00201889D01*
X00110451Y00201877D01*
X00110453Y00201866D01*
X00110452Y00201849D01*
X00110453Y00201833D01*
Y00201833D01*
X00110451Y00201794D01*
X0011045Y00201755D01*
X00110449Y00201744D01*
X00110448Y00201733D01*
X00110335Y0020059D01*
X00110314Y00200459D01*
X00110275Y00200331D01*
X0011022Y0020021D01*
X00109137Y00198186D01*
X00109066Y00198072D01*
X00108982Y00197969D01*
X00108885Y00197878D01*
X00108884Y00197878D01*
X00107109Y00196423D01*
X00107109Y00196422D01*
X00107001Y00196345D01*
X00106883Y00196282D01*
X00106759Y00196235D01*
X00106759Y00196235D01*
X00104562Y00195569D01*
X00104561Y00195569D01*
X00104432Y00195539D01*
X00104299Y00195526D01*
X00104166Y00195531D01*
X00103067Y00195639D01*
X00101112Y00195662D01*
X00101112D01*
X00101112D01*
X00100979Y00195672D01*
X00100849Y001957D01*
X00100723Y00195744D01*
X00100604Y00195805D01*
X00100494Y0019588D01*
X00100401Y00195964D01*
X00100395Y00195969D01*
D01*
X00100395Y00195969D01*
X00100309Y0019607D01*
X00100236Y00196182D01*
X00100178Y00196302D01*
X00100137Y00196428D01*
X00100113Y00196559D01*
X00100106Y00196685D01*
X00100106Y00196692D01*
D01*
Y00196692D01*
X00100229Y00207192D01*
D01*
Y00207192D01*
X00100239Y00207325D01*
X00100267Y00207455D01*
X00100283Y00207499D01*
X00100311Y0020758D01*
X00100372Y00207699D01*
X00100447Y00207809D01*
X00100536Y00207908D01*
X00100637Y00207995D01*
X00100676Y0020802D01*
X00100749Y00208067D01*
X00100869Y00208125D01*
X00100995Y00208166D01*
X00101126Y00208191D01*
X00101259Y00208198D01*
X0010126Y00208198D01*
X00103475Y00208172D01*
X00104561Y00208231D01*
X00104561D01*
D01*
X00104694Y0020823D01*
D02*
G37*
G36*
X00125834Y00208469D02*
X00126933Y00208361D01*
X00128888Y00208338D01*
D01*
X00128888D01*
X00129021Y00208327D01*
X00129151Y002083D01*
X00129277Y00208256D01*
X00129396Y00208195D01*
X00129471Y00208144D01*
X00129506Y0020812D01*
X00129605Y00208031D01*
D01*
X00129605Y00208031D01*
X00129691Y0020793D01*
X00129764Y00207818D01*
X00129822Y00207698D01*
X00129853Y00207603D01*
X00129863Y00207572D01*
X00129867Y00207551D01*
X00129887Y00207441D01*
X00129894Y00207314D01*
X00129895Y00207308D01*
D01*
Y00207308D01*
X00129771Y00196808D01*
X00129761Y00196675D01*
X00129733Y00196545D01*
X00129689Y0019642D01*
X00129628Y00196301D01*
X00129553Y00196191D01*
X00129464Y00196092D01*
X00129363Y00196005D01*
X00129251Y00195933D01*
X00129131Y00195875D01*
X00129005Y00195834D01*
X00128874Y00195809D01*
X00128741Y00195802D01*
X0012874Y00195802D01*
X00126525Y00195828D01*
X00125439Y00195769D01*
X00125439D01*
D01*
X00125306Y0019577D01*
X00125174Y00195789D01*
X00125138Y00195799D01*
X00125046Y00195825D01*
X00125045Y00195825D01*
X0012293Y00196568D01*
X00122807Y00196621D01*
X00122692Y00196688D01*
X00122647Y00196724D01*
X00122588Y0019677D01*
X00122588Y00196771D01*
X00120917Y00198267D01*
X00120917Y00198267D01*
D01*
X00120915Y00198269D01*
X00120824Y00198362D01*
X00120764Y00198442D01*
X00120744Y00198469D01*
X00120716Y00198519D01*
X00120679Y00198585D01*
X00120679Y00198585D01*
X00119709Y00200607D01*
X00119708Y00200607D01*
X00119687Y0020066D01*
X00119659Y0020073D01*
X00119626Y00200859D01*
X0011961Y00200992D01*
Y00200992D01*
D01*
X00119548Y00202111D01*
X00119549Y00202123D01*
X00119547Y00202134D01*
X00119548Y0020215D01*
X00119547Y00202167D01*
X00119549Y00202206D01*
X0011955Y00202245D01*
X00119551Y00202256D01*
X00119552Y00202267D01*
X00119665Y0020341D01*
X00119686Y00203541D01*
X00119725Y00203669D01*
X0011978Y0020379D01*
X00120863Y00205814D01*
X00120934Y00205928D01*
X00121018Y00206031D01*
X00121115Y00206122D01*
X00121116Y00206122D01*
X00122891Y00207577D01*
X00122891Y00207578D01*
X00122999Y00207655D01*
X00123117Y00207718D01*
X00123241Y00207765D01*
X00123241Y00207765D01*
X00125438Y0020843D01*
X00125439Y00208431D01*
X00125568Y00208461D01*
X00125701Y00208474D01*
X00125834Y00208469D01*
D02*
G37*
G36*
X00134509Y00208288D02*
X00134641Y00208269D01*
X00134676Y00208259D01*
X00134769Y00208233D01*
X00134769Y00208233D01*
X00136885Y0020749D01*
X00137007Y00207438D01*
X00137122Y0020737D01*
X00137168Y00207334D01*
X00137227Y00207288D01*
X00137227Y00207288D01*
X00138897Y00205791D01*
X00138897Y00205791D01*
D01*
X00138899Y00205789D01*
X0013899Y00205696D01*
X0013905Y00205616D01*
X0013907Y00205589D01*
X00139099Y00205539D01*
X00139136Y00205473D01*
X00139136Y00205473D01*
X00140106Y00203451D01*
X00140106Y00203451D01*
X00140127Y00203399D01*
X00140156Y00203328D01*
X00140189Y00203199D01*
X00140205Y00203067D01*
Y00203067D01*
D01*
X00140266Y00201947D01*
X00140266Y00201935D01*
X00140267Y00201924D01*
X00140266Y00201878D01*
X00140266Y0020183D01*
X00140265Y00201822D01*
X00140265Y00201814D01*
X00140263Y00201802D01*
X00140263Y00201791D01*
X0014015Y00200648D01*
X00140128Y00200517D01*
X00140089Y0020039D01*
X00140034Y00200268D01*
X00138951Y00198244D01*
X00138881Y00198131D01*
X00138796Y00198028D01*
X00138699Y00197937D01*
X00138699Y00197937D01*
X00136924Y00196481D01*
X00136924Y00196481D01*
X00136815Y00196403D01*
X00136698Y0019634D01*
X00136573Y00196294D01*
X00136573Y00196294D01*
X00134376Y00195628D01*
X00134376Y00195628D01*
X00134246Y00195597D01*
X00134114Y00195585D01*
X0013398Y00195589D01*
X00132881Y00195697D01*
X00130926Y00195721D01*
D01*
X00130926D01*
X00130793Y00195731D01*
X00130663Y00195758D01*
X00130538Y00195803D01*
X00130419Y00195863D01*
X00130309Y00195938D01*
X0013022Y00196018D01*
X0013021Y00196027D01*
D01*
X0013021Y00196027D01*
X00130123Y00196128D01*
X0013005Y0019624D01*
X00129993Y0019636D01*
X00129952Y00196487D01*
X00129927Y00196618D01*
X0012992Y00196744D01*
X0012992Y00196751D01*
D01*
Y00196751D01*
X00130044Y0020725D01*
D01*
Y0020725D01*
X00130054Y00207383D01*
X00130081Y00207513D01*
X00130097Y00207557D01*
X00130126Y00207639D01*
X00130186Y00207757D01*
X00130261Y00207867D01*
X0013035Y00207966D01*
X00130451Y00208053D01*
X0013049Y00208078D01*
X00130563Y00208126D01*
X00130683Y00208183D01*
X0013081Y00208224D01*
X00130941Y00208249D01*
X00131074Y00208256D01*
X00131074Y00208256D01*
X00133289Y0020823D01*
X00134375Y0020829D01*
X00134375D01*
D01*
X00134509Y00208288D01*
D02*
G37*
D11*
X-00275776Y00231404D02*
D03*
D12*
X0018Y00311769D02*
D03*
D13*
X00338289Y-00123127D02*
D03*
D14*
X-00062513Y-00354531D02*
D03*
D15*
X-0036Y0D02*
D03*
D16*
X-00062513Y00354531D02*
D03*
D17*
X00338289Y00123127D02*
D03*
D18*
X0018Y-00311769D02*
D03*
D19*
X-00275776Y-00231404D02*
D03*
D20*
X-002805Y-000945D02*
D03*
D21*
Y-000595D02*
D03*
D22*
X0Y003D02*
D03*
X003Y0D02*
D03*
X0Y-003D02*
D03*
D63*
X-00162Y-00122744D02*
D03*
X-00162Y-00152256D02*
D03*
D64*
X-00152504Y00154001D02*
D03*
X00152258Y-00161502D02*
D03*
X-00122996Y00154D02*
D03*
X00122744Y-00161498D02*
D03*
D65*
X00129757Y00202004D02*
D03*
X00100244Y00201997D02*
D03*
D66*
X-00282837Y00263437D02*
D03*
X-00308549Y00232795D02*
D03*
X-0033426Y00202153D02*
D03*
X-00257126Y00294079D02*
D03*
D67*
X-00316975Y00239866D02*
D03*
X-00291264Y00270508D02*
D03*
X-00342687Y00209224D02*
D03*
X-00264786Y00300507D02*
D03*
X0018118Y00353812D02*
D03*
X00215821Y00333812D02*
D03*
X00146538Y00373812D02*
D03*
X00249962Y00312946D02*
D03*
X00379898Y-00116988D02*
D03*
X00366218Y-00154576D02*
D03*
X00393579Y-000794D02*
D03*
X00351597Y-00191822D02*
D03*
X-00049242Y-00394442D02*
D03*
X-00088635Y-00387496D02*
D03*
X-0000985Y-00401388D02*
D03*
X-00127853Y-00379565D02*
D03*
X-00397Y0002D02*
D03*
Y-0002D02*
D03*
Y0006D02*
D03*
X-00396Y-0006D02*
D03*
X-00049242Y00394442D02*
D03*
X-00088635Y00387496D02*
D03*
X-0000985Y00401387D02*
D03*
X-00127853Y00379565D02*
D03*
X00379898Y00116988D02*
D03*
X00366218Y00154576D02*
D03*
X00393579Y000794D02*
D03*
X00351597Y00191821D02*
D03*
X0018118Y-00353812D02*
D03*
X00215821Y-00333812D02*
D03*
X00146538Y-00373812D02*
D03*
X00249962Y-00312946D02*
D03*
X-00316975Y-00239866D02*
D03*
X-00291264Y-00270508D02*
D03*
X-00342687Y-00209224D02*
D03*
X-00264786Y-00300507D02*
D03*
D68*
X0021032Y00324286D02*
D03*
X00175679Y00344286D02*
D03*
X00141039Y00364286D02*
D03*
X00244962Y00304286D02*
D03*
D69*
X00355881Y-00150814D02*
D03*
X00369562Y-00113226D02*
D03*
X00383243Y-00075638D02*
D03*
X003422Y-00188401D02*
D03*
D70*
X-00086724Y-00376663D02*
D03*
X-00047332Y-00383609D02*
D03*
X-0000794Y-00390555D02*
D03*
X-00126117Y-00369717D02*
D03*
D71*
X-00386Y-0002D02*
D03*
Y0002D02*
D03*
Y0006D02*
D03*
Y-0006D02*
D03*
D72*
X-00086724Y00376663D02*
D03*
X-00047332Y00383609D02*
D03*
X-0000794Y00390555D02*
D03*
X-00126117Y00369717D02*
D03*
D73*
X00355881Y00150814D02*
D03*
X00369562Y00113226D02*
D03*
X00383243Y00075638D02*
D03*
X003422Y00188401D02*
D03*
D74*
X0021032Y-00324286D02*
D03*
X00175679Y-00344286D02*
D03*
X00141038Y-00364286D02*
D03*
X00244962Y-00304286D02*
D03*
D75*
X-00282837Y-00263437D02*
D03*
X-00308549Y-00232795D02*
D03*
X-0033426Y-00202153D02*
D03*
X-00257126Y-00294079D02*
D03*
D76*
X-00162Y-00117D02*
D03*
Y-00128D02*
D03*
Y-00147D02*
D03*
Y-00158D02*
D03*
D77*
X-00214Y-000235D02*
D03*
X-00214Y000235D02*
D03*
D78*
X-0014725Y00154D02*
D03*
X-0015825D02*
D03*
X00147Y-001615D02*
D03*
X00158D02*
D03*
X-0012825Y00154D02*
D03*
X-0011725D02*
D03*
X00128Y-001615D02*
D03*
X00117D02*
D03*
D79*
X-0013775Y001855D02*
D03*
Y001705D02*
D03*
X001375Y-00194D02*
D03*
Y-00179D02*
D03*
X00168Y-001065D02*
D03*
Y-001215D02*
D03*
X00115Y002345D02*
D03*
Y002195D02*
D03*
X-0016875Y00106D02*
D03*
X-0016875Y00121D02*
D03*
D80*
X-00111Y-00128D02*
D03*
Y-001375D02*
D03*
Y-00147D02*
D03*
X-00135Y-00128D02*
D03*
Y-001375D02*
D03*
Y-00147D02*
D03*
D81*
X0010575Y0011975D02*
D03*
X0012075D02*
D03*
X-001995Y-001375D02*
D03*
X-001845Y-001375D02*
D03*
X-001105Y-00168D02*
D03*
X-001255D02*
D03*
D82*
X001245Y00202065D02*
D03*
X00135499Y00201935D02*
D03*
X001055Y00201935D02*
D03*
X00094501Y00202065D02*
D03*
D83*
X001245Y00147D02*
D03*
X00115D02*
D03*
X001055D02*
D03*
X001245Y00171D02*
D03*
X00115D02*
D03*
X001055D02*
D03*
X00128Y-00107D02*
D03*
X001375D02*
D03*
X00147D02*
D03*
X00128Y-00131D02*
D03*
X001375D02*
D03*
X00147D02*
D03*
X-0014725Y0013D02*
D03*
X-0013775D02*
D03*
X-0012825D02*
D03*
X-0014725Y00106D02*
D03*
X-0013775D02*
D03*
X-0012825D02*
D03*
D84*
X-0034089Y-0028604D02*
D03*
X-003294Y-002764D02*
D03*
D85*
X-0007727Y-0043824D02*
D03*
X-0007467Y-0042347D02*
D03*
D86*
X002225Y-0038538D02*
D03*
X00215Y-0037239D02*
D03*
D87*
X0041816Y-001522D02*
D03*
X0040407Y-0014707D02*
D03*
D88*
X0041816Y001522D02*
D03*
X0040407Y0014707D02*
D03*
D89*
X002225Y0038538D02*
D03*
X00215Y0037239D02*
D03*
D90*
X-0007727Y0043824D02*
D03*
X-0007467Y0042347D02*
D03*
D91*
X-0034089Y0028604D02*
D03*
X-003294Y002764D02*
D03*
D92*
X-00445Y0D02*
D03*
X-0043D02*
D03*
D93*
X-0033762Y00212152D02*
D03*
X-0034469Y00203725D02*
D03*
X-00329193Y00205081D02*
D03*
X-00336264Y00196654D02*
D03*
X-00311908Y00242794D02*
D03*
X-00318979Y00234367D02*
D03*
X-00303482Y00235723D02*
D03*
X-00310552Y00227296D02*
D03*
X-00259719Y00303434D02*
D03*
X-0026679Y00295008D02*
D03*
X-00251292Y00296364D02*
D03*
X-00258363Y00287937D02*
D03*
X-00286196Y00273435D02*
D03*
X-00293267Y00265009D02*
D03*
X-0027777Y00266365D02*
D03*
X-00284841Y00257938D02*
D03*
X00150302Y0036933D02*
D03*
X00140775Y0037483D02*
D03*
X00144802Y00359804D02*
D03*
X00135275Y00365304D02*
D03*
X00184943Y0034933D02*
D03*
X00175416Y0035483D02*
D03*
X00179443Y00339804D02*
D03*
X00169916Y00345304D02*
D03*
X00253725Y00308464D02*
D03*
X00244198Y00313964D02*
D03*
X00248225Y00298938D02*
D03*
X00238699Y00304438D02*
D03*
X00219584Y0032933D02*
D03*
X00210057Y0033483D02*
D03*
X00214084Y00319804D02*
D03*
X00204557Y00325304D02*
D03*
X00389819Y-00083885D02*
D03*
X00393581Y-00073548D02*
D03*
X00379482Y-00080122D02*
D03*
X00383244Y-00069786D02*
D03*
X00376138Y-00121472D02*
D03*
X003799Y-00111136D02*
D03*
X00365801Y-0011771D02*
D03*
X00369563Y-00107374D02*
D03*
X00347837Y-00196306D02*
D03*
X00351599Y-00185969D02*
D03*
X003375Y-00192544D02*
D03*
X00341262Y-00182207D02*
D03*
X00362457Y-0015906D02*
D03*
X00366219Y-00148723D02*
D03*
X00352121Y-00155298D02*
D03*
X00355883Y-00144961D02*
D03*
X-00014919Y-00398463D02*
D03*
X-00004086Y-00400373D02*
D03*
X-00013009Y-0038763D02*
D03*
X-00002176Y-0038954D02*
D03*
X-00054311Y-00391517D02*
D03*
X-00043478Y-00393427D02*
D03*
X-00052401Y-00380684D02*
D03*
X-00041568Y-00382594D02*
D03*
X-00132922Y-0037664D02*
D03*
X-00122089Y-0037855D02*
D03*
X-00131012Y-00365807D02*
D03*
X-00120179Y-00367718D02*
D03*
X-00093704Y-00384571D02*
D03*
X-00082871Y-00386481D02*
D03*
X-00091793Y-00373738D02*
D03*
X-00080961Y-00375648D02*
D03*
X-00395Y000545D02*
D03*
Y000655D02*
D03*
X-00384Y000545D02*
D03*
Y000655D02*
D03*
X-00395Y000145D02*
D03*
Y000255D02*
D03*
X-00384Y000145D02*
D03*
Y000255D02*
D03*
X-00394Y-000655D02*
D03*
Y-000545D02*
D03*
X-00383Y-000655D02*
D03*
X-00383Y-000545D02*
D03*
X-00395Y-000255D02*
D03*
Y-000145D02*
D03*
X-00384Y-000255D02*
D03*
Y-000145D02*
D03*
X-00014919Y00398463D02*
D03*
X-00004086Y00400373D02*
D03*
X-00013009Y0038763D02*
D03*
X-00002176Y0038954D02*
D03*
X-00054311Y00391517D02*
D03*
X-00043478Y00393427D02*
D03*
X-00052401Y00380684D02*
D03*
X-00041568Y00382594D02*
D03*
X-00132922Y0037664D02*
D03*
X-00122089Y0037855D02*
D03*
X-00131012Y00365807D02*
D03*
X-00120179Y00367718D02*
D03*
X-00093703Y00384571D02*
D03*
X-00082871Y00386481D02*
D03*
X-00091793Y00373738D02*
D03*
X-00080961Y00375648D02*
D03*
X00389819Y00083885D02*
D03*
X00393581Y00073548D02*
D03*
X00379482Y00080122D02*
D03*
X00383244Y00069786D02*
D03*
X00376138Y00121472D02*
D03*
X003799Y00111136D02*
D03*
X00365801Y0011771D02*
D03*
X00369563Y00107374D02*
D03*
X00347837Y00196306D02*
D03*
X00351599Y00185969D02*
D03*
X003375Y00192544D02*
D03*
X00341262Y00182207D02*
D03*
X00362457Y0015906D02*
D03*
X00366219Y00148723D02*
D03*
X00352121Y00155298D02*
D03*
X00355883Y00144961D02*
D03*
X00150302Y-0036933D02*
D03*
X00140775Y-0037483D02*
D03*
X00144802Y-00359804D02*
D03*
X00135275Y-00365304D02*
D03*
X00184943Y-0034933D02*
D03*
X00175416Y-0035483D02*
D03*
X00179443Y-00339804D02*
D03*
X00169916Y-00345304D02*
D03*
X00253725Y-00308464D02*
D03*
X00244198Y-00313964D02*
D03*
X00248225Y-00298938D02*
D03*
X00238698Y-00304438D02*
D03*
X00219584Y-0032933D02*
D03*
X00210057Y-0033483D02*
D03*
X00214084Y-00319804D02*
D03*
X00204557Y-00325304D02*
D03*
X-0033762Y-00212152D02*
D03*
X-0034469Y-00203725D02*
D03*
X-00329193Y-00205081D02*
D03*
X-00336264Y-00196655D02*
D03*
X-00311908Y-00242793D02*
D03*
X-00318979Y-00234367D02*
D03*
X-00303482Y-00235723D02*
D03*
X-00310552Y-00227296D02*
D03*
X-00259719Y-00303434D02*
D03*
X-0026679Y-00295008D02*
D03*
X-00251292Y-00296364D02*
D03*
X-00258363Y-00287937D02*
D03*
X-00286196Y-00273435D02*
D03*
X-00293267Y-00265009D02*
D03*
X-0027777Y-00266364D02*
D03*
X-00284841Y-00257938D02*
D03*
D94*
X-00128Y00023D02*
D03*
M02*
