G04*
G04 #@! TF.GenerationSoftware,Altium Limited,Altium Designer,21.7.2 (23)*
G04*
G04 Layer_Physical_Order=1*
G04 Layer_Color=255*
%FSTAX44Y44*%
%MOMM*%
G71*
G04*
G04 #@! TF.SameCoordinates,382B67D8-D4E2-4276-A31F-CACD3676A529*
G04*
G04*
G04 #@! TF.FilePolarity,Positive*
G04*
G01*
G75*
%ADD10C,0.2000*%
G04:AMPARAMS|DCode=11|XSize=2.2mm|YSize=18.9mm|CornerRadius=1.1mm|HoleSize=0mm|Usage=FLASHONLY|Rotation=320.000|XOffset=0mm|YOffset=0mm|HoleType=Round|Shape=RoundedRectangle|*
%AMROUNDEDRECTD11*
21,1,2.2000,16.7000,0,0,320.0*
21,1,0.0000,18.9000,0,0,320.0*
1,1,2.2000,-5.3673,-6.3965*
1,1,2.2000,-5.3673,-6.3965*
1,1,2.2000,5.3673,6.3965*
1,1,2.2000,5.3673,6.3965*
%
%ADD11ROUNDEDRECTD11*%
G04:AMPARAMS|DCode=12|XSize=2.2mm|YSize=18.9mm|CornerRadius=1.1mm|HoleSize=0mm|Usage=FLASHONLY|Rotation=240.000|XOffset=0mm|YOffset=0mm|HoleType=Round|Shape=RoundedRectangle|*
%AMROUNDEDRECTD12*
21,1,2.2000,16.7000,0,0,240.0*
21,1,0.0000,18.9000,0,0,240.0*
1,1,2.2000,-7.2313,4.1750*
1,1,2.2000,-7.2313,4.1750*
1,1,2.2000,7.2313,-4.1750*
1,1,2.2000,7.2313,-4.1750*
%
%ADD12ROUNDEDRECTD12*%
G04:AMPARAMS|DCode=13|XSize=2.2mm|YSize=18.9mm|CornerRadius=1.1mm|HoleSize=0mm|Usage=FLASHONLY|Rotation=160.000|XOffset=0mm|YOffset=0mm|HoleType=Round|Shape=RoundedRectangle|*
%AMROUNDEDRECTD13*
21,1,2.2000,16.7000,0,0,160.0*
21,1,0.0000,18.9000,0,0,160.0*
1,1,2.2000,2.8559,7.8464*
1,1,2.2000,2.8559,7.8464*
1,1,2.2000,-2.8559,-7.8464*
1,1,2.2000,-2.8559,-7.8464*
%
%ADD13ROUNDEDRECTD13*%
G04:AMPARAMS|DCode=14|XSize=2.2mm|YSize=18.9mm|CornerRadius=1.1mm|HoleSize=0mm|Usage=FLASHONLY|Rotation=80.000|XOffset=0mm|YOffset=0mm|HoleType=Round|Shape=RoundedRectangle|*
%AMROUNDEDRECTD14*
21,1,2.2000,16.7000,0,0,80.0*
21,1,0.0000,18.9000,0,0,80.0*
1,1,2.2000,8.2232,-1.4500*
1,1,2.2000,8.2232,-1.4500*
1,1,2.2000,-8.2232,1.4500*
1,1,2.2000,-8.2232,1.4500*
%
%ADD14ROUNDEDRECTD14*%
G04:AMPARAMS|DCode=15|XSize=2.2mm|YSize=18.9mm|CornerRadius=1.1mm|HoleSize=0mm|Usage=FLASHONLY|Rotation=0.000|XOffset=0mm|YOffset=0mm|HoleType=Round|Shape=RoundedRectangle|*
%AMROUNDEDRECTD15*
21,1,2.2000,16.7000,0,0,0.0*
21,1,0.0000,18.9000,0,0,0.0*
1,1,2.2000,0.0000,-8.3500*
1,1,2.2000,0.0000,-8.3500*
1,1,2.2000,0.0000,8.3500*
1,1,2.2000,0.0000,8.3500*
%
%ADD15ROUNDEDRECTD15*%
G04:AMPARAMS|DCode=16|XSize=2.2mm|YSize=18.9mm|CornerRadius=1.1mm|HoleSize=0mm|Usage=FLASHONLY|Rotation=280.000|XOffset=0mm|YOffset=0mm|HoleType=Round|Shape=RoundedRectangle|*
%AMROUNDEDRECTD16*
21,1,2.2000,16.7000,0,0,280.0*
21,1,0.0000,18.9000,0,0,280.0*
1,1,2.2000,-8.2232,-1.4500*
1,1,2.2000,-8.2232,-1.4500*
1,1,2.2000,8.2232,1.4500*
1,1,2.2000,8.2232,1.4500*
%
%ADD16ROUNDEDRECTD16*%
G04:AMPARAMS|DCode=17|XSize=2.2mm|YSize=18.9mm|CornerRadius=1.1mm|HoleSize=0mm|Usage=FLASHONLY|Rotation=200.000|XOffset=0mm|YOffset=0mm|HoleType=Round|Shape=RoundedRectangle|*
%AMROUNDEDRECTD17*
21,1,2.2000,16.7000,0,0,200.0*
21,1,0.0000,18.9000,0,0,200.0*
1,1,2.2000,-2.8559,7.8464*
1,1,2.2000,-2.8559,7.8464*
1,1,2.2000,2.8559,-7.8464*
1,1,2.2000,2.8559,-7.8464*
%
%ADD17ROUNDEDRECTD17*%
G04:AMPARAMS|DCode=18|XSize=2.2mm|YSize=18.9mm|CornerRadius=1.1mm|HoleSize=0mm|Usage=FLASHONLY|Rotation=120.000|XOffset=0mm|YOffset=0mm|HoleType=Round|Shape=RoundedRectangle|*
%AMROUNDEDRECTD18*
21,1,2.2000,16.7000,0,0,120.0*
21,1,0.0000,18.9000,0,0,120.0*
1,1,2.2000,7.2313,4.1750*
1,1,2.2000,7.2313,4.1750*
1,1,2.2000,-7.2313,-4.1750*
1,1,2.2000,-7.2313,-4.1750*
%
%ADD18ROUNDEDRECTD18*%
G04:AMPARAMS|DCode=19|XSize=2.2mm|YSize=18.9mm|CornerRadius=1.1mm|HoleSize=0mm|Usage=FLASHONLY|Rotation=40.000|XOffset=0mm|YOffset=0mm|HoleType=Round|Shape=RoundedRectangle|*
%AMROUNDEDRECTD19*
21,1,2.2000,16.7000,0,0,40.0*
21,1,0.0000,18.9000,0,0,40.0*
1,1,2.2000,5.3673,-6.3965*
1,1,2.2000,5.3673,-6.3965*
1,1,2.2000,-5.3673,6.3965*
1,1,2.2000,-5.3673,6.3965*
%
%ADD19ROUNDEDRECTD19*%
G04:AMPARAMS|DCode=23|XSize=2mm|YSize=2.5mm|CornerRadius=0mm|HoleSize=0mm|Usage=FLASHONLY|Rotation=320.000|XOffset=0mm|YOffset=0mm|HoleType=Round|Shape=Rectangle|*
%AMROTATEDRECTD23*
4,1,4,-1.5695,-0.3148,0.0374,1.6003,1.5695,0.3148,-0.0374,-1.6003,-1.5695,-0.3148,0.0*
%
%ADD23ROTATEDRECTD23*%

%ADD24C,2.5000*%
G04:AMPARAMS|DCode=25|XSize=2mm|YSize=2.5mm|CornerRadius=0mm|HoleSize=0mm|Usage=FLASHONLY|Rotation=240.000|XOffset=0mm|YOffset=0mm|HoleType=Round|Shape=Rectangle|*
%AMROTATEDRECTD25*
4,1,4,-0.5825,1.4910,1.5825,0.2410,0.5825,-1.4910,-1.5825,-0.2410,-0.5825,1.4910,0.0*
%
%ADD25ROTATEDRECTD25*%

G04:AMPARAMS|DCode=26|XSize=2mm|YSize=2.5mm|CornerRadius=0mm|HoleSize=0mm|Usage=FLASHONLY|Rotation=160.000|XOffset=0mm|YOffset=0mm|HoleType=Round|Shape=Rectangle|*
%AMROTATEDRECTD26*
4,1,4,1.3672,0.8326,0.5122,-1.5166,-1.3672,-0.8326,-0.5122,1.5166,1.3672,0.8326,0.0*
%
%ADD26ROTATEDRECTD26*%

G04:AMPARAMS|DCode=27|XSize=2mm|YSize=2.5mm|CornerRadius=0mm|HoleSize=0mm|Usage=FLASHONLY|Rotation=80.000|XOffset=0mm|YOffset=0mm|HoleType=Round|Shape=Rectangle|*
%AMROTATEDRECTD27*
4,1,4,1.0574,-1.2019,-1.4047,-0.7678,-1.0574,1.2019,1.4047,0.7678,1.0574,-1.2019,0.0*
%
%ADD27ROTATEDRECTD27*%

%ADD28R,2.0000X2.5000*%
G04:AMPARAMS|DCode=29|XSize=2mm|YSize=2.5mm|CornerRadius=0mm|HoleSize=0mm|Usage=FLASHONLY|Rotation=280.000|XOffset=0mm|YOffset=0mm|HoleType=Round|Shape=Rectangle|*
%AMROTATEDRECTD29*
4,1,4,-1.4047,0.7678,1.0574,1.2019,1.4047,-0.7678,-1.0574,-1.2019,-1.4047,0.7678,0.0*
%
%ADD29ROTATEDRECTD29*%

G04:AMPARAMS|DCode=30|XSize=2mm|YSize=2.5mm|CornerRadius=0mm|HoleSize=0mm|Usage=FLASHONLY|Rotation=200.000|XOffset=0mm|YOffset=0mm|HoleType=Round|Shape=Rectangle|*
%AMROTATEDRECTD30*
4,1,4,0.5122,1.5166,1.3672,-0.8326,-0.5122,-1.5166,-1.3672,0.8326,0.5122,1.5166,0.0*
%
%ADD30ROTATEDRECTD30*%

G04:AMPARAMS|DCode=31|XSize=2mm|YSize=2.5mm|CornerRadius=0mm|HoleSize=0mm|Usage=FLASHONLY|Rotation=120.000|XOffset=0mm|YOffset=0mm|HoleType=Round|Shape=Rectangle|*
%AMROTATEDRECTD31*
4,1,4,1.5825,-0.2410,-0.5825,-1.4910,-1.5825,0.2410,0.5825,1.4910,1.5825,-0.2410,0.0*
%
%ADD31ROTATEDRECTD31*%

G04:AMPARAMS|DCode=32|XSize=2mm|YSize=2.5mm|CornerRadius=0mm|HoleSize=0mm|Usage=FLASHONLY|Rotation=40.000|XOffset=0mm|YOffset=0mm|HoleType=Round|Shape=Rectangle|*
%AMROTATEDRECTD32*
4,1,4,0.0374,-1.6003,-1.5695,0.3148,-0.0374,1.6003,1.5695,-0.3148,0.0374,-1.6003,0.0*
%
%ADD32ROTATEDRECTD32*%

%ADD33C,1.0000*%
%ADD34C,0.6000*%
%ADD35C,1.3500*%
%ADD36R,1.3500X1.3500*%
%ADD37C,3.2000*%
%ADD38C,0.5000*%
%ADD39C,0.8000*%
%ADD40C,1.6000*%
G36*
X00021198Y00458506D02*
X00042351Y00457038D01*
X00063413Y00454594D01*
X0008434Y0045118D01*
X00105087Y00446804D01*
X0012561Y00441474D01*
X00145865Y00435201D01*
X00165808Y00428D01*
X00185398Y00419886D01*
X00204592Y00410876D01*
X00223349Y00400989D01*
X0024163Y00390246D01*
X00259395Y0037867D01*
X00276607Y00366286D01*
X00293228Y00353121D01*
X00309223Y00339202D01*
X00324559Y00324559D01*
X00339202Y00309223D01*
X00353121Y00293228D01*
X00366286Y00276607D01*
X0037867Y00259395D01*
X00390246Y0024163D01*
X00400989Y00223349D01*
X00410876Y00204592D01*
X00419886Y00185398D01*
X00428Y00165808D01*
X00435201Y00145865D01*
X00441474Y0012561D01*
X00446804Y00105087D01*
X0045118Y0008434D01*
X00454594Y00063413D01*
X00457038Y00042351D01*
X00458506Y00021198D01*
X00458996Y0D01*
X00458506Y-00021198D01*
X00457038Y-00042351D01*
X00454594Y-00063413D01*
X0045118Y-0008434D01*
X00446804Y-00105087D01*
X00441474Y-0012561D01*
X00435201Y-00145865D01*
X00428Y-00165808D01*
X00419886Y-00185398D01*
X00410876Y-00204592D01*
X00400989Y-00223349D01*
X00390246Y-0024163D01*
X0037867Y-00259395D01*
X00366286Y-00276607D01*
X00353121Y-00293228D01*
X00339202Y-00309223D01*
X00324559Y-00324559D01*
X00309223Y-00339202D01*
X00293228Y-00353121D01*
X00276607Y-00366286D01*
X00259395Y-0037867D01*
X0024163Y-00390246D01*
X00223349Y-00400989D01*
X00204592Y-00410876D01*
X00185398Y-00419886D01*
X00165808Y-00428D01*
X00145865Y-00435201D01*
X0012561Y-00441474D01*
X00105087Y-00446804D01*
X0008434Y-0045118D01*
X00063413Y-00454594D01*
X00042351Y-00457038D01*
X00021198Y-00458506D01*
X0Y-00458996D01*
X-00021198Y-00458506D01*
X-00042351Y-00457038D01*
X-00063413Y-00454594D01*
X-0008434Y-0045118D01*
X-00105087Y-00446804D01*
X-0012561Y-00441474D01*
X-00145865Y-00435201D01*
X-00165808Y-00428D01*
X-00185398Y-00419886D01*
X-00204592Y-00410876D01*
X-00223349Y-00400989D01*
X-0024163Y-00390246D01*
X-00259395Y-0037867D01*
X-00276607Y-00366286D01*
X-00293228Y-00353121D01*
X-00309223Y-00339202D01*
X-00324559Y-00324559D01*
X-00339202Y-00309223D01*
X-00353121Y-00293228D01*
X-00366286Y-00276607D01*
X-0037867Y-00259395D01*
X-00390246Y-0024163D01*
X-00400989Y-00223349D01*
X-00410876Y-00204592D01*
X-00419886Y-00185398D01*
X-00428Y-00165808D01*
X-00435201Y-00145865D01*
X-00441474Y-0012561D01*
X-00446804Y-00105087D01*
X-0045118Y-0008434D01*
X-00454594Y-00063413D01*
X-00457038Y-00042351D01*
X-00458506Y-00021198D01*
X-00458996Y0D01*
X-00458506Y00021198D01*
X-00457038Y00042351D01*
X-00454594Y00063413D01*
X-0045118Y0008434D01*
X-00446804Y00105087D01*
X-00441474Y0012561D01*
X-00435201Y00145865D01*
X-00428Y00165808D01*
X-00419886Y00185398D01*
X-00410876Y00204592D01*
X-00400989Y00223349D01*
X-00390246Y0024163D01*
X-0037867Y00259395D01*
X-00366286Y00276607D01*
X-00353121Y00293228D01*
X-00339202Y00309223D01*
X-00324559Y00324559D01*
X-00309223Y00339202D01*
X-00293228Y00353121D01*
X-00276607Y00366286D01*
X-00259395Y0037867D01*
X-0024163Y00390246D01*
X-00223349Y00400989D01*
X-00204592Y00410876D01*
X-00185398Y00419886D01*
X-00165808Y00428D01*
X-00145865Y00435201D01*
X-0012561Y00441474D01*
X-00105087Y00446804D01*
X-0008434Y0045118D01*
X-00063413Y00454594D01*
X-00042351Y00457038D01*
X-00021198Y00458506D01*
X0Y00458996D01*
X00021198Y00458506D01*
D02*
G37*
%LPC*%
G36*
X-00128736Y00396088D02*
X-00126231Y00381882D01*
X-00111951Y003844D01*
X-00112298Y00386369D01*
X-00112764Y00386287D01*
X-00113064Y0038706D01*
X-0011481Y00389801D01*
X-00117058Y00392149D01*
X-0011972Y00394013D01*
X-00122695Y00395322D01*
X-00125869Y00396026D01*
X-00128736Y00396088D01*
D02*
G37*
G36*
X-00132675Y00395393D02*
X-00135348Y00394354D01*
X-00138089Y00392608D01*
X-00140437Y0039036D01*
X-00142301Y00387698D01*
X-0014361Y00384723D01*
X-00144314Y0038155D01*
X-00144332Y00380721D01*
X-00144797Y00380639D01*
X-0014445Y00378669D01*
X-0013017Y00381187D01*
X-00132675Y00395393D01*
D02*
G37*
G36*
X-00011115Y00417919D02*
X-00014316Y00417355D01*
X-00017345Y00416177D01*
X-00020086Y0041443D01*
X-00022434Y00412183D01*
X-00024298Y0040952D01*
X-00025607Y00406545D01*
X-00026311Y00403372D01*
X-00026351Y00401524D01*
X-0002662Y00401477D01*
X-00022292Y00376928D01*
X-00029185Y00375713D01*
X-00033514Y00400261D01*
X-00033783Y00400214D01*
X-00034453Y00401936D01*
X-000362Y00404678D01*
X-00038447Y00407025D01*
X-00041109Y0040889D01*
X-00044084Y00410199D01*
X-00047258Y00410902D01*
X-00050507Y00410973D01*
X-00053708Y00410409D01*
X-00056737Y00409231D01*
X-00059478Y00407484D01*
X-00061826Y00405237D01*
X-0006369Y00402574D01*
X-00064999Y00399599D01*
X-00065703Y00396426D01*
X-00065743Y00394578D01*
X-00066012Y00394531D01*
X-00065774Y00393177D01*
Y00393177D01*
X-00065209Y00389976D01*
X-00065209Y00389975D01*
X-00061684Y00369982D01*
X-00068577Y00368767D01*
X-00072906Y00393315D01*
X-00073176Y00393268D01*
X-00073845Y00394991D01*
X-00075592Y00397732D01*
X-00077839Y0040008D01*
X-00080502Y00401944D01*
X-00083477Y00403253D01*
X-0008665Y00403956D01*
X-00089899Y00404027D01*
X-000931Y00403463D01*
X-00096129Y00402285D01*
X-00098871Y00400538D01*
X-00101218Y00398291D01*
X-00103083Y00395629D01*
X-00104392Y00392654D01*
X-00105095Y0038948D01*
X-00105135Y00387632D01*
X-00105405Y00387585D01*
X-00105166Y00386231D01*
Y00386231D01*
X-00104602Y0038303D01*
X-00104602Y0038303D01*
X-00101076Y00363036D01*
X-0010797Y00361821D01*
X-0010952Y00370612D01*
X-00125769Y00367747D01*
X-00142019Y00364882D01*
X-00140469Y0035609D01*
X-00147362Y00354875D01*
X-00150208Y00354079D01*
X-00152843Y00352743D01*
X-00155168Y00350919D01*
X-00157092Y00348676D01*
X-00158541Y00346102D01*
X-0015946Y00343293D01*
X-00159814Y0034036D01*
X-00159588Y00337414D01*
X-00158792Y00334568D01*
X-00157457Y00331933D01*
X-00155633Y00329608D01*
X-0015339Y00327684D01*
X-00150815Y00326235D01*
X-00148007Y00325316D01*
X-00145074Y00324962D01*
X-00142128Y00325188D01*
X00022335Y00354187D01*
X00025181Y00354983D01*
X00027817Y00356318D01*
X00030141Y00358143D01*
X00032065Y00360385D01*
X00033514Y0036296D01*
X00034433Y00365768D01*
X00034787Y00368702D01*
X00034562Y00371648D01*
X00033766Y00374493D01*
X0003243Y00377129D01*
X00030606Y00379453D01*
X00028363Y00381377D01*
X00025789Y00382826D01*
X0002298Y00383746D01*
X00020047Y00384099D01*
X00017101Y00383874D01*
X00010207Y00382658D01*
X00007511Y00397949D01*
X00008327Y00398922D01*
X00030057D01*
X00037476Y00391503D01*
Y00379766D01*
X00037383Y00379059D01*
Y00216221D01*
X-00059748Y00119089D01*
X-00060922Y00119575D01*
Y00226D01*
X-00061232Y00227561D01*
X-00062116Y00228884D01*
X-00063439Y00229768D01*
X-00065Y00230078D01*
X-0012847D01*
X-00134183Y00239974D01*
X-00134623Y00240475D01*
X-00134993Y0024103D01*
X-00135273Y00241217D01*
X-00135494Y00241469D01*
X-00136093Y00241764D01*
X-00136647Y00242135D01*
X-00136977Y002422D01*
X-00137278Y00242349D01*
X-00137944Y00242393D01*
X-00138598Y00242523D01*
X-00138928Y00242457D01*
X-00139263Y00242479D01*
X-00139895Y00242265D01*
X-00140549Y00242135D01*
X-00140829Y00241948D01*
X-00141147Y0024184D01*
X-00141455Y0024157D01*
X-00145931Y00239045D01*
X-001598Y00230078D01*
X-00215D01*
X-00216561Y00229768D01*
X-00217884Y00228884D01*
X-00218768Y00227561D01*
X-00219078Y00226D01*
Y00174586D01*
X-00220172Y00173273D01*
X-00230022Y00159887D01*
X-00239045Y00145931D01*
X-0024157Y00141455D01*
X-0024184Y00141147D01*
X-00241948Y00140829D01*
X-00242135Y00140549D01*
X-00242265Y00139895D01*
X-00242479Y00139263D01*
X-00242457Y00138928D01*
X-00242523Y00138598D01*
X-00242393Y00137944D01*
X-00242349Y00137278D01*
X-002422Y00136977D01*
X-00242135Y00136647D01*
X-00241764Y00136093D01*
X-00241469Y00135494D01*
X-00241217Y00135273D01*
X-0024103Y00134993D01*
X-00240475Y00134623D01*
X-00239974Y00134183D01*
X-00219078Y00122119D01*
Y00076D01*
X-00218768Y00074439D01*
X-00217884Y00073116D01*
X-00216561Y00072232D01*
X-00215Y00071922D01*
X-00108575D01*
X-00108089Y00070748D01*
X-00134419Y00044419D01*
X-00135862Y00042539D01*
X-00136768Y00040349D01*
X-00137078Y00038D01*
Y00032078D01*
X-0024924D01*
X-00351002Y00133839D01*
Y00183845D01*
X-0034512Y00189727D01*
X-00336496Y0018249D01*
X-00340995Y00177127D01*
X-00342663Y00174689D01*
X-00343824Y00171971D01*
X-00344432Y0016908D01*
X-00344464Y00166125D01*
X-00343919Y00163221D01*
X-00342818Y00160479D01*
X-00341204Y00158005D01*
X-00339137Y00155893D01*
X-00336698Y00154224D01*
X-00333981Y00153064D01*
X-0033109Y00152456D01*
X-00328135Y00152424D01*
X-00325231Y00152968D01*
X-00322489Y00154069D01*
X-00320014Y00155684D01*
X-00317903Y0015775D01*
X-00210557Y0028568D01*
X-00208889Y00288118D01*
X-00207728Y00290836D01*
X-0020712Y00293727D01*
X-00207088Y00296682D01*
X-00207633Y00299586D01*
X-00208734Y00302328D01*
X-00210348Y00304802D01*
X-00212415Y00306915D01*
X-00214853Y00308583D01*
X-00217571Y00309743D01*
X-00220462Y00310351D01*
X-00223417Y00310383D01*
X-00226321Y00309839D01*
X-00229063Y00308738D01*
X-00231537Y00307123D01*
X-0023365Y00305057D01*
X-00238149Y00299694D01*
X-00244988Y00305433D01*
X-00255594Y00292793D01*
X-002662Y00280153D01*
X-00259361Y00274415D01*
X-0026386Y00269053D01*
X-00279413Y00282102D01*
X-00279413Y00282103D01*
X-00281903Y00284192D01*
X-00281903Y00284192D01*
X-00282956Y00285076D01*
X-00283132Y00284866D01*
X-00284752Y00285755D01*
X-00287852Y00286733D01*
X-00291083Y00287086D01*
X-00294321Y00286803D01*
X-00297441Y00285894D01*
X-00300324Y00284393D01*
X-00302859Y00282358D01*
X-00304948Y00279869D01*
X-00306511Y00277019D01*
X-00307489Y00273919D01*
X-00307843Y00270688D01*
X-00307559Y00267451D01*
X-0030665Y0026433D01*
X-00305149Y00261447D01*
X-00303992Y00260006D01*
X-00304168Y00259796D01*
X-00285072Y00243773D01*
X-00289572Y00238411D01*
X-00308668Y00254434D01*
X-00308843Y00254224D01*
X-00310464Y00255113D01*
X-00313564Y00256091D01*
X-00316794Y00256445D01*
X-00320032Y00256161D01*
X-00323153Y00255252D01*
X-00326036Y00253751D01*
X-00328571Y00251717D01*
X-0033066Y00249227D01*
X-00332223Y00246377D01*
X-003332Y00243277D01*
X-00333554Y00240047D01*
X-00333271Y00236809D01*
X-00332361Y00233688D01*
X-00330861Y00230805D01*
X-00329704Y00229364D01*
X-00329879Y00229154D01*
X-00328826Y00228271D01*
X-00328826Y00228271D01*
X-00326337Y00226182D01*
X-00326336Y00226181D01*
X-00310784Y00213131D01*
X-00315284Y00207769D01*
X-00330836Y00220819D01*
X-00330836Y00220819D01*
X-00333326Y00222908D01*
X-00333326Y00222908D01*
X-00334379Y00223792D01*
X-00334555Y00223583D01*
X-00336175Y00224472D01*
X-00339275Y00225449D01*
X-00342506Y00225803D01*
X-00345744Y0022552D01*
X-00348864Y0022461D01*
X-00351747Y00223109D01*
X-00354282Y00221075D01*
X-00356371Y00218585D01*
X-00357935Y00215736D01*
X-00358912Y00212636D01*
X-00359266Y00209405D01*
X-00358983Y00206167D01*
X-00358073Y00203047D01*
X-00357868Y00202654D01*
X-00366498Y00194024D01*
X-00367941Y00192144D01*
X-00368848Y00189955D01*
X-00369157Y00187605D01*
Y00136078D01*
X-00399609D01*
X-00401959Y00135768D01*
X-00404148Y00134861D01*
X-00406028Y00133419D01*
X-00431419Y00108028D01*
X-00432861Y00106148D01*
X-00433768Y00103959D01*
X-00434078Y00101609D01*
Y00068D01*
X-00433768Y00065651D01*
X-00432861Y00063461D01*
X-00431419Y00061581D01*
X-00423419Y00053581D01*
X-00421539Y00052139D01*
X-0041935Y00051232D01*
X-00417Y00050922D01*
X-00417Y00050922D01*
X-00410779D01*
X-00409816Y00049482D01*
X-00407518Y00047184D01*
X-00404816Y00045378D01*
X-00401813Y00044134D01*
X-004Y00043773D01*
Y000435D01*
X-00375073D01*
Y000365D01*
X-004D01*
Y00036226D01*
X-00401813Y00035866D01*
X-00404816Y00034622D01*
X-00407518Y00032816D01*
X-00409816Y00030518D01*
X-00411622Y00027816D01*
X-00412866Y00024813D01*
X-004135Y00021625D01*
Y00018375D01*
X-00412866Y00015187D01*
X-00411622Y00012184D01*
X-00409816Y00009482D01*
X-00407518Y00007184D01*
X-00404816Y00005378D01*
X-00401813Y00004134D01*
X-004Y00003774D01*
Y000035D01*
X-00375073D01*
Y-000035D01*
X-00395375D01*
X-00395375Y-000035D01*
X-00398625D01*
X-00398625Y-000035D01*
X-004D01*
Y-00003774D01*
X-00401813Y-00004134D01*
X-00404816Y-00005378D01*
X-00407518Y-00007184D01*
X-00409816Y-00009482D01*
X-00411622Y-00012184D01*
X-00412866Y-00015187D01*
X-004135Y-00018375D01*
Y-00021625D01*
X-00412866Y-00024813D01*
X-00411622Y-00027816D01*
X-00409816Y-00030518D01*
X-00407518Y-00032816D01*
X-00404816Y-00034622D01*
X-00401813Y-00035866D01*
X-004Y-00036226D01*
Y-000365D01*
X-00375073D01*
Y-000435D01*
X-00384D01*
Y-0006D01*
Y-000765D01*
X-00375073D01*
Y-000835D01*
X-00374783Y-0008644D01*
X-00373925Y-00089268D01*
X-00372532Y-00091874D01*
X-00370658Y-00094158D01*
X-00368374Y-00096032D01*
X-00365768Y-00097425D01*
X-0036294Y-00098283D01*
X-0036Y-00098573D01*
X-0035706Y-00098283D01*
X-00354232Y-00097425D01*
X-00351626Y-00096032D01*
X-00349342Y-00094158D01*
X-00347468Y-00091874D01*
X-00346075Y-00089268D01*
X-00345217Y-0008644D01*
X-00344927Y-000835D01*
Y000835D01*
X-00345217Y0008644D01*
X-00346075Y00089268D01*
X-00347468Y00091874D01*
X-00349342Y00094158D01*
X-00351626Y00096032D01*
X-00354232Y00097425D01*
X-0035706Y00098283D01*
X-0036Y00098573D01*
X-0036294Y00098283D01*
X-00365768Y00097425D01*
X-00368374Y00096032D01*
X-00370658Y00094158D01*
X-00372532Y00091874D01*
X-00373925Y00089268D01*
X-00374783Y0008644D01*
X-00375073Y000835D01*
Y000765D01*
X-004D01*
Y00076227D01*
X-00401813Y00075866D01*
X-00404816Y00074622D01*
X-00407518Y00072816D01*
X-00409816Y00070518D01*
X-00410779Y00069078D01*
X-0041324D01*
X-00415922Y0007176D01*
Y00097849D01*
X-00395849Y00117922D01*
X-0036076D01*
X-00265838Y00023D01*
X-00326419Y-00037581D01*
X-00327861Y-00039461D01*
X-00328768Y-00041651D01*
X-00329078Y-00044D01*
Y-0010824D01*
X-00368419Y-00147581D01*
X-00369861Y-00149461D01*
X-00370768Y-0015165D01*
X-00371078Y-00154D01*
Y-00185684D01*
X-00370768Y-00188034D01*
X-00369861Y-00190223D01*
X-00368419Y-00192103D01*
X-00357868Y-00202654D01*
X-00358073Y-00203046D01*
X-00358983Y-00206167D01*
X-00359266Y-00209405D01*
X-00358912Y-00212636D01*
X-00357935Y-00215735D01*
X-00356371Y-00218585D01*
X-00354282Y-00221075D01*
X-00351747Y-00223109D01*
X-00348864Y-0022461D01*
X-00345744Y-0022552D01*
X-00342506Y-00225803D01*
X-00339275Y-00225449D01*
X-00336175Y-00224471D01*
X-00334555Y-00223582D01*
X-00334379Y-00223792D01*
X-00315284Y-00207769D01*
X-00310784Y-00213131D01*
X-00326337Y-00226181D01*
X-00328826Y-00228271D01*
X-00328826Y-00228271D01*
X-0032988Y-00229154D01*
X-00329704Y-00229364D01*
X-00330861Y-00230805D01*
X-00332361Y-00233688D01*
X-00333271Y-00236809D01*
X-00333554Y-00240047D01*
X-003332Y-00243277D01*
X-00332223Y-00246377D01*
X-0033066Y-00249227D01*
X-00328571Y-00251717D01*
X-00326036Y-00253751D01*
X-00323153Y-00255252D01*
X-00320032Y-00256161D01*
X-00316795Y-00256445D01*
X-00313564Y-00256091D01*
X-00310464Y-00255113D01*
X-00308843Y-00254224D01*
X-00308668Y-00254434D01*
X-00289572Y-00238411D01*
X-00285072Y-00243773D01*
X-00304168Y-00259796D01*
X-00303992Y-00260006D01*
X-00305149Y-00261447D01*
X-0030665Y-0026433D01*
X-0030756Y-00267451D01*
X-00307843Y-00270688D01*
X-00307489Y-00273919D01*
X-00306511Y-00277019D01*
X-00304948Y-00279869D01*
X-00302859Y-00282358D01*
X-00300324Y-00284393D01*
X-00297441Y-00285894D01*
X-00294321Y-00286803D01*
X-00291083Y-00287086D01*
X-00287852Y-00286733D01*
X-00284752Y-00285755D01*
X-00283132Y-00284866D01*
X-00282956Y-00285076D01*
X-0026386Y-00269053D01*
X-00259361Y-00274415D01*
X-002662Y-00280153D01*
X-00255594Y-00292793D01*
X-00244988Y-00305433D01*
X-00238149Y-00299694D01*
X-0023365Y-00305057D01*
X-00231537Y-00307123D01*
X-00229063Y-00308738D01*
X-00226321Y-00309839D01*
X-00223417Y-00310383D01*
X-00220462Y-00310351D01*
X-00217571Y-00309743D01*
X-00214853Y-00308583D01*
X-00212415Y-00306915D01*
X-00210348Y-00304802D01*
X-00208734Y-00302328D01*
X-00207633Y-00299586D01*
X-00207088Y-00296682D01*
X-0020712Y-00293727D01*
X-00207728Y-00290836D01*
X-00208889Y-00288118D01*
X-00210557Y-0028568D01*
X-00317903Y-0015775D01*
X-00320014Y-00155684D01*
X-00322489Y-00154069D01*
X-00325231Y-00152968D01*
X-00328135Y-00152424D01*
X-0033109Y-00152456D01*
X-00333981Y-00153064D01*
X-00336698Y-00154224D01*
X-00339137Y-00155893D01*
X-00341204Y-00158005D01*
X-00342818Y-00160479D01*
X-00343919Y-00163221D01*
X-00344464Y-00166125D01*
X-00344432Y-0016908D01*
X-00343824Y-00171971D01*
X-00342663Y-00174689D01*
X-00340995Y-00177127D01*
X-00336496Y-0018249D01*
X-0034512Y-00189727D01*
X-00352922Y-00181924D01*
Y-0015776D01*
X-00313581Y-00118419D01*
X-00312139Y-00116539D01*
X-00311232Y-00114349D01*
X-00310922Y-00112D01*
Y-0004776D01*
X-0024924Y00013922D01*
X-00137078D01*
Y-00027D01*
X-00136768Y-0002935D01*
X-00135862Y-00031539D01*
X-00134419Y-00033419D01*
X-00097089Y-00070748D01*
X-00097575Y-00071922D01*
X-00215D01*
X-00216561Y-00072232D01*
X-00217884Y-00073116D01*
X-00218768Y-00074439D01*
X-00219078Y-00076D01*
Y-00122119D01*
X-00239974Y-00134183D01*
X-00240475Y-00134623D01*
X-0024103Y-00134993D01*
X-00241217Y-00135273D01*
X-00241469Y-00135494D01*
X-00241764Y-00136093D01*
X-00242135Y-00136647D01*
X-002422Y-00136977D01*
X-00242349Y-00137278D01*
X-00242393Y-00137944D01*
X-00242523Y-00138598D01*
X-00242457Y-00138928D01*
X-00242479Y-00139263D01*
X-00242265Y-00139895D01*
X-00242135Y-00140549D01*
X-00241948Y-00140829D01*
X-0024184Y-00141147D01*
X-0024157Y-00141455D01*
X-00239045Y-00145931D01*
X-00230022Y-00159887D01*
X-00220172Y-00173273D01*
X-00219078Y-00174586D01*
Y-00226D01*
X-00218768Y-00227561D01*
X-00217884Y-00228884D01*
X-00216561Y-00229768D01*
X-00215Y-00230078D01*
X-001598D01*
X-00145931Y-00239045D01*
X-00141455Y-0024157D01*
X-00141147Y-0024184D01*
X-00140829Y-00241948D01*
X-00140549Y-00242135D01*
X-00139895Y-00242265D01*
X-00139263Y-00242479D01*
X-00138928Y-00242457D01*
X-00138598Y-00242523D01*
X-00137944Y-00242393D01*
X-00137278Y-00242349D01*
X-00136977Y-002422D01*
X-00136647Y-00242135D01*
X-00136092Y-00241764D01*
X-00135494Y-00241469D01*
X-00135273Y-00241217D01*
X-00134993Y-0024103D01*
X-00134623Y-00240475D01*
X-00134183Y-00239974D01*
X-0012847Y-00230078D01*
X-00065D01*
X-00063439Y-00229768D01*
X-00062116Y-00228884D01*
X-00061232Y-00227561D01*
X-00060922Y-00226D01*
Y-00108575D01*
X-00059748Y-00108089D01*
X00036922Y-0020476D01*
Y-0037324D01*
X00034697Y-00375465D01*
X00033656Y-00374711D01*
X00033766Y-00374493D01*
X00034562Y-00371648D01*
X00034787Y-00368702D01*
X00034433Y-00365768D01*
X00033514Y-0036296D01*
X00032065Y-00360385D01*
X00030141Y-00358143D01*
X00027817Y-00356318D01*
X00025181Y-00354983D01*
X00022335Y-00354187D01*
X-00142128Y-00325188D01*
X-00145074Y-00324962D01*
X-00148007Y-00325316D01*
X-00150815Y-00326235D01*
X-0015339Y-00327684D01*
X-00155633Y-00329608D01*
X-00157457Y-00331933D01*
X-00158792Y-00334568D01*
X-00159588Y-00337414D01*
X-00159814Y-0034036D01*
X-0015946Y-00343293D01*
X-00158541Y-00346102D01*
X-00157092Y-00348676D01*
X-00155168Y-00350919D01*
X-00152843Y-00352743D01*
X-00150208Y-00354079D01*
X-00147362Y-00354875D01*
X-00140469Y-0035609D01*
X-00142019Y-00364882D01*
X-00125769Y-00367747D01*
X-0010952Y-00370612D01*
X-0010797Y-00361821D01*
X-00101076Y-00363036D01*
X-00104602Y-0038303D01*
X-00104602Y-0038303D01*
X-00105166Y-00386231D01*
Y-00386231D01*
X-00105405Y-00387585D01*
X-00105135Y-00387632D01*
X-00105095Y-0038948D01*
X-00104392Y-00392654D01*
X-00103083Y-00395629D01*
X-00101218Y-00398291D01*
X-00098871Y-00400538D01*
X-00096129Y-00402285D01*
X-000931Y-00403463D01*
X-00089899Y-00404027D01*
X-0008665Y-00403956D01*
X-00083477Y-00403253D01*
X-00080502Y-00401944D01*
X-00077839Y-0040008D01*
X-00075592Y-00397732D01*
X-00073845Y-00394991D01*
X-00073176Y-00393268D01*
X-00072906Y-00393315D01*
X-00068577Y-00368767D01*
X-00061684Y-00369982D01*
X-00065209Y-00389976D01*
X-00065209Y-00389976D01*
X-00065774Y-00393177D01*
Y-00393177D01*
X-00066013Y-00394531D01*
X-00065743Y-00394578D01*
X-00065703Y-00396426D01*
X-00064999Y-00399599D01*
X-0006369Y-00402574D01*
X-00061826Y-00405237D01*
X-00059478Y-00407484D01*
X-00056737Y-00409231D01*
X-00053708Y-00410409D01*
X-00050507Y-00410973D01*
X-00047258Y-00410902D01*
X-00044084Y-00410199D01*
X-00041109Y-0040889D01*
X-00038447Y-00407025D01*
X-000362Y-00404678D01*
X-00034453Y-00401936D01*
X-00033783Y-00400214D01*
X-00033514Y-00400261D01*
X-00029185Y-00375713D01*
X-00022292Y-00376928D01*
X-00025817Y-00396922D01*
X-0002662Y-00401477D01*
X-00026351Y-00401524D01*
X-00026311Y-00403372D01*
X-00025607Y-00406545D01*
X-00024298Y-0040952D01*
X-00022434Y-00412183D01*
X-00020086Y-0041443D01*
X-00017345Y-00416177D01*
X-00014316Y-00417355D01*
X-00011115Y-00417919D01*
X-00007865Y-00417848D01*
X-00004692Y-00417145D01*
X-00001717Y-00415836D01*
X00000945Y-00413971D01*
X00003193Y-00411624D01*
X00004939Y-00408882D01*
X00005609Y-0040716D01*
X00005878Y-00407207D01*
X00006103Y-00405933D01*
X00026144D01*
X00028494Y-00405624D01*
X00030683Y-00404717D01*
X00032563Y-00403275D01*
X00046Y-00389838D01*
X00055581Y-00399419D01*
X00057461Y-00400862D01*
X00059651Y-00401768D01*
X00062Y-00402078D01*
X00116472D01*
X00118821Y-00401768D01*
X0012101Y-00400862D01*
X0012289Y-00399419D01*
X00135879Y-0038643D01*
X00137783Y-00387892D01*
X00140698Y-00389329D01*
X00143838Y-00390171D01*
X00147081Y-00390383D01*
X00150303Y-00389959D01*
X00153381Y-00388914D01*
X00156196Y-00387289D01*
X00158639Y-00385146D01*
X00160618Y-00382567D01*
X00162056Y-00379652D01*
X00162897Y-00376513D01*
X00163109Y-0037327D01*
X00162685Y-00370047D01*
X00162091Y-00368297D01*
X00162328Y-0036816D01*
X00149864Y-00346572D01*
X00155926Y-00343072D01*
X0016839Y-0036466D01*
X00168627Y-00364524D01*
X00169846Y-00365913D01*
X00172424Y-00367892D01*
X00175339Y-00369329D01*
X00178479Y-00370171D01*
X00181722Y-00370383D01*
X00184944Y-00369959D01*
X00188022Y-00368914D01*
X00190837Y-00367289D01*
X00193281Y-00365146D01*
X00195259Y-00362567D01*
X00196697Y-00359652D01*
X00197538Y-00356513D01*
X0019775Y-0035327D01*
X00197326Y-00350047D01*
X00196732Y-00348297D01*
X00196969Y-0034816D01*
X00196282Y-0034697D01*
X00196282Y-00346969D01*
X00194656Y-00344155D01*
X00194656Y-00344155D01*
X00184505Y-00326572D01*
X00190567Y-00323072D01*
X00203031Y-0034466D01*
X00203268Y-00344523D01*
X00204487Y-00345913D01*
X00207065Y-00347892D01*
X0020998Y-00349329D01*
X0021312Y-00350171D01*
X00216363Y-00350383D01*
X00219585Y-00349959D01*
X00222663Y-00348914D01*
X00225478Y-00347289D01*
X00227922Y-00345146D01*
X002299Y-00342567D01*
X00231338Y-00339652D01*
X00232179Y-00336513D01*
X00232391Y-0033327D01*
X00231967Y-00330047D01*
X00231373Y-00328297D01*
X0023161Y-0032816D01*
X00230923Y-0032697D01*
X00230923Y-00326969D01*
X00229297Y-00324155D01*
X00229297Y-00324155D01*
X00219146Y-00306572D01*
X00225208Y-00303072D01*
X00229672Y-00310804D01*
X00243962Y-00302554D01*
X00258251Y-00294304D01*
X00253787Y-00286572D01*
X00259849Y-00283072D01*
X00262251Y-00281351D01*
X00264271Y-00279195D01*
X00265831Y-00276686D01*
X00266872Y-0027392D01*
X00267353Y-00271005D01*
X00267257Y-00268052D01*
X00266586Y-00265174D01*
X00265366Y-00262483D01*
X00263645Y-00260081D01*
X00261489Y-00258061D01*
X00258979Y-00256501D01*
X00256214Y-0025546D01*
X00253299Y-00254979D01*
X00250346Y-00255075D01*
X00247468Y-00255746D01*
X00244777Y-00256966D01*
X00100151Y-00340466D01*
X00097749Y-00342187D01*
X00095729Y-00344343D01*
X00094169Y-00346853D01*
X00093128Y-00349618D01*
X00092647Y-00352533D01*
X00092743Y-00355486D01*
X00093414Y-00358364D01*
X00094634Y-00361055D01*
X00096355Y-00363457D01*
X00098511Y-00365477D01*
X0010102Y-00367037D01*
X00103786Y-00368078D01*
X00106701Y-00368559D01*
X00109654Y-00368463D01*
X00112532Y-00367792D01*
X00115223Y-00366572D01*
X00121285Y-00363072D01*
X00125779Y-00370855D01*
X00112711Y-00383922D01*
X0006576D01*
X00055078Y-0037324D01*
Y-00201D01*
X00054768Y-0019865D01*
X00053861Y-00196461D01*
X00052419Y-00194581D01*
X-00060922Y-00081241D01*
Y-00076D01*
X-00061232Y-00074439D01*
X-00062116Y-00073116D01*
X-00063439Y-00072232D01*
X-00065Y-00071922D01*
X-00070241D01*
X-00118922Y-0002324D01*
Y00013922D01*
X00004D01*
X00006349Y00014232D01*
X00008539Y00015139D01*
X00010419Y00016581D01*
X0005076Y00056922D01*
X0027324D01*
X00343581Y-00013419D01*
X00343581Y-00013419D01*
X00345461Y-00014862D01*
X0034765Y-00015768D01*
X0035Y-00016078D01*
X0037124D01*
X00384503Y-00029341D01*
Y-00057431D01*
X00383463Y-00058159D01*
X00378618Y-00056396D01*
X00381012Y-00049818D01*
X00381745Y-00046956D01*
X00381906Y-00044005D01*
X00381489Y-0004108D01*
X00380508Y-00038293D01*
X00379003Y-0003575D01*
X00377031Y-0003355D01*
X00374667Y-00031777D01*
X00372003Y-00030499D01*
X00369141Y-00029766D01*
X00366191Y-00029605D01*
X00363265Y-00030022D01*
X00360478Y-00031003D01*
X00357935Y-00032508D01*
X00355735Y-0003448D01*
X00353962Y-00036844D01*
X00352684Y-00039508D01*
X00295567Y-00196436D01*
X00294834Y-00199299D01*
X00294672Y-00202249D01*
X0029509Y-00205174D01*
X0029607Y-00207962D01*
X00297575Y-00210504D01*
X00299548Y-00212704D01*
X00301911Y-00214477D01*
X00304576Y-00215755D01*
X00307438Y-00216489D01*
X00310388Y-0021665D01*
X00313313Y-00216232D01*
X00316101Y-00215252D01*
X00318643Y-00213747D01*
X00320843Y-00211774D01*
X00322616Y-00209411D01*
X00323894Y-00206747D01*
X00326288Y-00200169D01*
X00334678Y-00203222D01*
X00340321Y-00187717D01*
X00345964Y-00172212D01*
X00337575Y-00169159D01*
X00339969Y-00162581D01*
X00363393Y-00171107D01*
X00363487Y-0017085D01*
X00365314Y-00171131D01*
X00368561Y-00170989D01*
X00371718Y-00170217D01*
X00374664Y-00168843D01*
X00377285Y-00166921D01*
X00379481Y-00164525D01*
X00381167Y-00161746D01*
X00382278Y-00158692D01*
X00382773Y-0015548D01*
X00382631Y-00152233D01*
X00381858Y-00149075D01*
X00380485Y-0014613D01*
X00378563Y-00143509D01*
X00376167Y-00141313D01*
X00374586Y-00140354D01*
X0037468Y-00140097D01*
X00370334Y-00138515D01*
X00370334Y-00138515D01*
X00351256Y-00131571D01*
X0035365Y-00124993D01*
X00377074Y-00133519D01*
X00377168Y-00133262D01*
X00378995Y-00133543D01*
X00382242Y-00133401D01*
X00385399Y-00132629D01*
X00388344Y-00131255D01*
X00390966Y-00129333D01*
X00393161Y-00126937D01*
X00394847Y-00124159D01*
X00395959Y-00121104D01*
X00396454Y-00117892D01*
X00396312Y-00114645D01*
X00395539Y-00111488D01*
X00394166Y-00108542D01*
X00392244Y-00105921D01*
X00389847Y-00103725D01*
X00388267Y-00102766D01*
X00388361Y-00102509D01*
X00387069Y-00102039D01*
X00387069Y-00102039D01*
X00384015Y-00100927D01*
X00384015Y-00100927D01*
X00364937Y-00093984D01*
X00367331Y-00087406D01*
X00390755Y-00095931D01*
X00390849Y-00095674D01*
X00392675Y-00095955D01*
X00395923Y-00095814D01*
X0039908Y-00095041D01*
X00402025Y-00093668D01*
X00404646Y-00091746D01*
X00406842Y-00089349D01*
X00408528Y-00086571D01*
X0040964Y-00083517D01*
X00410134Y-00080304D01*
X00409993Y-00077057D01*
X0040922Y-000739D01*
X00407846Y-00070954D01*
X00405925Y-00068333D01*
X00403528Y-00066137D01*
X00402659Y-0006561D01*
Y-00025581D01*
X00402349Y-00023231D01*
X00401442Y-00021042D01*
X004Y-00019162D01*
X00387838Y-00007D01*
X00413419Y00018581D01*
X00414861Y00020461D01*
X00415768Y0002265D01*
X00416078Y00025D01*
Y0006598D01*
X00415768Y00068329D01*
X00414861Y00070518D01*
X00413419Y00072399D01*
X0040975Y00076067D01*
X00409992Y00077057D01*
X00410134Y00080304D01*
X0040964Y00083517D01*
X00408528Y00086571D01*
X00406842Y00089349D01*
X00404646Y00091746D01*
X00402025Y00093668D01*
X0039908Y00095041D01*
X00395922Y00095814D01*
X00392675Y00095956D01*
X00390849Y00095674D01*
X00390755Y00095931D01*
X00389463Y00095461D01*
X00389463Y00095461D01*
X00386409Y00094349D01*
X00386409Y00094349D01*
X00367331Y00087406D01*
X00364937Y00093984D01*
X00384014Y00100927D01*
X00384015Y00100927D01*
X00387069Y00102039D01*
X0038707Y00102039D01*
X00388361Y00102509D01*
X00388267Y00102766D01*
X00389847Y00103725D01*
X00392244Y00105921D01*
X00394166Y00108542D01*
X00395539Y00111488D01*
X00396312Y00114645D01*
X00396454Y00117892D01*
X00395959Y00121104D01*
X00394847Y00124158D01*
X00393161Y00126937D01*
X00390966Y00129333D01*
X00388344Y00131255D01*
X00385399Y00132629D01*
X00382242Y00133401D01*
X00378995Y00133543D01*
X00377168Y00133262D01*
X00377074Y00133519D01*
X0035365Y00124993D01*
X00351256Y00131571D01*
X00370334Y00138515D01*
X0037468Y00140097D01*
X00374586Y00140354D01*
X00376167Y00141313D01*
X00378563Y00143509D01*
X00380485Y0014613D01*
X00381858Y00149075D01*
X00382631Y00152233D01*
X00382773Y0015548D01*
X00382278Y00158692D01*
X00381167Y00161746D01*
X00379481Y00164525D01*
X00377285Y00166921D01*
X00374664Y00168843D01*
X00371718Y00170217D01*
X00368561Y00170989D01*
X00365314Y00171131D01*
X00363487Y0017085D01*
X00363393Y00171107D01*
X00339969Y00162581D01*
X00337575Y00169159D01*
X00345964Y00172212D01*
X00340321Y00187717D01*
X00334678Y00203222D01*
X00326288Y00200169D01*
X00323894Y00206747D01*
X00322616Y00209411D01*
X00320843Y00211774D01*
X00318643Y00213747D01*
X00316101Y00215252D01*
X00313313Y00216232D01*
X00310388Y0021665D01*
X00307438Y00216489D01*
X00304576Y00215755D01*
X00301911Y00214477D01*
X00299548Y00212704D01*
X00297575Y00210504D01*
X0029607Y00207962D01*
X0029509Y00205174D01*
X00294672Y00202249D01*
X00294834Y00199299D01*
X00295567Y00196436D01*
X00352684Y00039508D01*
X00353962Y00036844D01*
X00355735Y0003448D01*
X00357935Y00032508D01*
X00360478Y00031003D01*
X00363265Y00030022D01*
X00366191Y00029605D01*
X00369141Y00029766D01*
X00372003Y00030499D01*
X00374667Y00031777D01*
X00377031Y0003355D01*
X00379003Y0003575D01*
X00380508Y00038293D01*
X00381489Y0004108D01*
X00381906Y00044005D01*
X00381745Y00046956D01*
X00381012Y00049818D01*
X00378618Y00056396D01*
X00397041Y00063101D01*
X00397922Y0006222D01*
Y0002876D01*
X0037124Y00002078D01*
X0035376D01*
X00283419Y00072419D01*
X00281539Y00073861D01*
X00279349Y00074768D01*
X00277Y00075078D01*
X00219835D01*
X00219078Y00076D01*
Y00122119D01*
X00239974Y00134183D01*
X00240475Y00134623D01*
X0024103Y00134993D01*
X00241217Y00135273D01*
X00241469Y00135494D01*
X00241764Y00136093D01*
X00242135Y00136647D01*
X002422Y00136977D01*
X00242349Y00137278D01*
X00242393Y00137944D01*
X00242523Y00138598D01*
X00242457Y00138928D01*
X00242479Y00139263D01*
X00242265Y00139895D01*
X00242135Y00140549D01*
X00241948Y00140829D01*
X0024184Y00141147D01*
X0024157Y00141455D01*
X00239045Y00145931D01*
X00230022Y00159887D01*
X00220172Y00173273D01*
X00219078Y00174586D01*
Y00226D01*
X00218768Y00227561D01*
X00217884Y00228884D01*
X00216561Y00229768D01*
X00215Y00230078D01*
X001598D01*
X00145931Y00239045D01*
X00141455Y0024157D01*
X00141147Y0024184D01*
X00140829Y00241948D01*
X00140549Y00242135D01*
X00139895Y00242265D01*
X00139263Y00242479D01*
X00138928Y00242457D01*
X00138598Y00242523D01*
X00137944Y00242393D01*
X00137278Y00242349D01*
X00136977Y002422D01*
X00136647Y00242135D01*
X00136092Y00241764D01*
X00135494Y00241469D01*
X00135273Y00241217D01*
X00134993Y0024103D01*
X00134623Y00240475D01*
X00134183Y00239974D01*
X0012847Y00230078D01*
X00065D01*
X00063439Y00229768D01*
X00062116Y00228884D01*
X00061232Y00227561D01*
X00060922Y00226D01*
Y00076D01*
X00060165Y00075078D01*
X00047D01*
X00047Y00075078D01*
X00044651Y00074768D01*
X00042461Y00073861D01*
X00040581Y00072419D01*
X00040581Y00072419D01*
X0000024Y00032078D01*
X-00118922D01*
Y0003424D01*
X-00081241Y00071922D01*
X-00065D01*
X-00063439Y00072232D01*
X-00062116Y00073116D01*
X-00061232Y00074439D01*
X-00060922Y00076D01*
Y00092241D01*
X0005288Y00206042D01*
X00054322Y00207922D01*
X00055229Y00210112D01*
X00055539Y00212461D01*
Y00378445D01*
X00055632Y00379152D01*
Y00391503D01*
X00061775Y00397647D01*
X00094839D01*
X00124261Y00368226D01*
X00121285Y00363072D01*
X00115223Y00366572D01*
X00112532Y00367792D01*
X00109654Y00368463D01*
X00106701Y00368559D01*
X00103786Y00368078D01*
X0010102Y00367037D01*
X00098511Y00365477D01*
X00096355Y00363457D01*
X00094634Y00361055D01*
X00093414Y00358364D01*
X00092743Y00355486D01*
X00092647Y00352533D01*
X00093128Y00349618D01*
X00094169Y00346853D01*
X00095729Y00344343D01*
X00097749Y00342187D01*
X00100151Y00340466D01*
X00244777Y00256966D01*
X00247468Y00255746D01*
X00250346Y00255075D01*
X00253299Y00254979D01*
X00256214Y0025546D01*
X00258979Y00256501D01*
X00261489Y00258061D01*
X00263645Y00260081D01*
X00265366Y00262483D01*
X00266586Y00265174D01*
X00267257Y00268052D01*
X00267353Y00271005D01*
X00266872Y0027392D01*
X00265831Y00276686D01*
X00264271Y00279195D01*
X00262251Y00281351D01*
X00259849Y00283072D01*
X00253787Y00286572D01*
X00258251Y00294304D01*
X00243962Y00302554D01*
X00229672Y00310804D01*
X00225208Y00303072D01*
X00219146Y00306572D01*
X00229297Y00324154D01*
X00229298Y00324155D01*
X00230923Y00326969D01*
X00230923Y0032697D01*
X0023161Y0032816D01*
X00231373Y00328297D01*
X00231967Y00330047D01*
X00232392Y0033327D01*
X00232179Y00336513D01*
X00231338Y00339652D01*
X002299Y00342567D01*
X00227922Y00345146D01*
X00225478Y00347289D01*
X00222663Y00348914D01*
X00219585Y00349959D01*
X00216363Y00350383D01*
X0021312Y0035017D01*
X0020998Y00349329D01*
X00207065Y00347892D01*
X00204487Y00345913D01*
X00203268Y00344523D01*
X00203031Y0034466D01*
X00190567Y00323072D01*
X00184505Y00326572D01*
X00196969Y0034816D01*
X00196732Y00348297D01*
X00197326Y00350047D01*
X0019775Y0035327D01*
X00197538Y00356513D01*
X00196697Y00359652D01*
X00195259Y00362567D01*
X00193281Y00365146D01*
X00190837Y00367289D01*
X00188022Y00368914D01*
X00184944Y00369959D01*
X00181722Y00370383D01*
X00178479Y00370171D01*
X00175339Y00369329D01*
X00172424Y00367892D01*
X00169846Y00365913D01*
X00168627Y00364524D01*
X0016839Y0036466D01*
X00167703Y0036347D01*
X00167703Y0036347D01*
X00166077Y00360655D01*
X00166077Y00360655D01*
X00155926Y00343072D01*
X00149864Y00346572D01*
X00160015Y00364155D01*
X0016164Y00366969D01*
X0016164Y00366969D01*
X00162328Y0036816D01*
X00162091Y00368297D01*
X00162685Y00370047D01*
X00163109Y0037327D01*
X00162897Y00376513D01*
X00162056Y00379652D01*
X00160618Y00382567D01*
X0015864Y00385146D01*
X00156196Y00387289D01*
X00153381Y00388914D01*
X00150303Y00389959D01*
X00147081Y00390383D01*
X00143838Y0039017D01*
X00140698Y00389329D01*
X00137783Y00387892D01*
X00135205Y00385913D01*
X00134621Y00385247D01*
X00132973Y00385189D01*
X00105018Y00413144D01*
X00103138Y00414586D01*
X00100949Y00415493D01*
X000986Y00415802D01*
X00058015D01*
X00055666Y00415493D01*
X00053477Y00414586D01*
X00051596Y00413144D01*
X00051596Y00413144D01*
X00046554Y00408101D01*
X00040236Y00414419D01*
X00038356Y00415861D01*
X00036167Y00416768D01*
X00033817Y00417078D01*
X00000821D01*
X-00001528Y00416768D01*
X-00002717Y00416276D01*
X-00004692Y00417145D01*
X-00007865Y00417848D01*
X-00011115Y00417919D01*
D02*
G37*
G36*
X-00111257Y00380461D02*
X-00127506Y00377595D01*
X-00143755Y0037473D01*
X-00142713Y00368821D01*
X-00126464Y00371687D01*
X-00110215Y00374552D01*
X-00111257Y00380461D01*
D02*
G37*
G36*
X00250504Y00329517D02*
X00247261Y00329305D01*
X00244121Y00328463D01*
X00241206Y00327026D01*
X00238628Y00325047D01*
X00238081Y00324424D01*
X00237672Y0032466D01*
X00236672Y00322928D01*
X0024923Y00315678D01*
X00256442Y00328171D01*
X00253727Y00329093D01*
X00250504Y00329517D01*
D02*
G37*
G36*
X00259906Y00326171D02*
X00252694Y00313678D01*
X00265251Y00306428D01*
X00266251Y0030816D01*
X00265842Y00308396D01*
X00266108Y00309181D01*
X00266532Y00312404D01*
X0026632Y00315647D01*
X00265479Y00318786D01*
X00264041Y00321701D01*
X00262063Y0032428D01*
X00259906Y00326171D01*
D02*
G37*
G36*
X-00264606Y00317085D02*
X-00267843Y00316802D01*
X-00270964Y00315893D01*
X-00273847Y00314392D01*
X-00276083Y00312597D01*
X-00265033Y00303324D01*
X-00255712Y00314432D01*
X-00257244Y00315717D01*
X-00257548Y00315355D01*
X-00258275Y00315754D01*
X-00261375Y00316732D01*
X-00264606Y00317085D01*
D02*
G37*
G36*
X00234672Y00319464D02*
X00231672Y00314268D01*
X00245962Y00306018D01*
X00260251Y00297768D01*
X00263251Y00302964D01*
X00248962Y00311214D01*
X00234672Y00319464D01*
D02*
G37*
G36*
X-00278654Y00309533D02*
X-00280034Y00307018D01*
X-00281011Y00303918D01*
X-00281365Y00300687D01*
X-00281082Y0029745D01*
X-00280172Y00294329D01*
X-00278672Y00291446D01*
X-00278153Y002908D01*
X-00278456Y00290438D01*
X-00276924Y00289153D01*
X-00267604Y0030026D01*
X-00278654Y00309533D01*
D02*
G37*
G36*
X-00252648Y00311861D02*
X-00263254Y00299221D01*
X-0027386Y00286581D01*
X-00269264Y00282724D01*
X-00258658Y00295364D01*
X-00248052Y00308004D01*
X-00252648Y00311861D01*
D02*
G37*
G36*
X0000197Y0032D02*
X-0000197D01*
X-00005834Y00319231D01*
X-00009474Y00317724D01*
X-00012749Y00315535D01*
X-00015535Y00312749D01*
X-00017724Y00309473D01*
X-00019231Y00305834D01*
X-0002Y0030197D01*
Y0029803D01*
X-00019231Y00294166D01*
X-00017724Y00290527D01*
X-00015535Y00287251D01*
X-00012749Y00284465D01*
X-00009474Y00282276D01*
X-00005834Y00280769D01*
X-0000197Y0028D01*
X0000197D01*
X00005834Y00280769D01*
X00009474Y00282276D01*
X00012749Y00284465D01*
X00015535Y00287251D01*
X00017724Y00290527D01*
X00019231Y00294166D01*
X0002Y0029803D01*
Y0030197D01*
X00019231Y00305834D01*
X00017724Y00309473D01*
X00015535Y00312749D01*
X00012749Y00315535D01*
X00009474Y00317724D01*
X00005834Y00319231D01*
X0000197Y0032D01*
D02*
G37*
G36*
X00349712Y00208695D02*
X00347833Y00208011D01*
X00352793Y00194385D01*
X00366348Y00199319D01*
X0036486Y00201771D01*
X00362664Y00204167D01*
X00360043Y00206089D01*
X00357097Y00207462D01*
X0035394Y00208235D01*
X00350693Y00208377D01*
X00349874Y00208251D01*
X00349712Y00208695D01*
D02*
G37*
G36*
X00367716Y0019556D02*
X0035416Y00190626D01*
X0035912Y00177001D01*
X00360999Y00177685D01*
X00360838Y00178129D01*
X00361546Y00178559D01*
X00363942Y00180754D01*
X00365864Y00183375D01*
X00367238Y00186321D01*
X0036801Y00189478D01*
X00368152Y00192725D01*
X00367716Y0019556D01*
D02*
G37*
G36*
X00344074Y00206642D02*
X00338436Y0020459D01*
X0034408Y00189085D01*
X00349723Y0017358D01*
X00355361Y00175633D01*
X00349718Y00191138D01*
X00344074Y00206642D01*
D02*
G37*
G36*
X0030197Y0002D02*
X0029803D01*
X00294166Y00019231D01*
X00290527Y00017724D01*
X00287251Y00015535D01*
X00284465Y00012749D01*
X00282276Y00009474D01*
X00280769Y00005834D01*
X0028Y0000197D01*
Y-0000197D01*
X00280769Y-00005834D01*
X00282276Y-00009474D01*
X00284465Y-00012749D01*
X00287251Y-00015535D01*
X00290527Y-00017724D01*
X00294166Y-00019231D01*
X0029803Y-0002D01*
X0030197D01*
X00305834Y-00019231D01*
X00309473Y-00017724D01*
X00312749Y-00015535D01*
X00315535Y-00012749D01*
X00317724Y-00009474D01*
X00319231Y-00005834D01*
X0032Y-0000197D01*
Y0000197D01*
X00319231Y00005834D01*
X00317724Y00009474D01*
X00315535Y00012749D01*
X00312749Y00015535D01*
X00309473Y00017724D01*
X00305834Y00019231D01*
X0030197Y0002D01*
D02*
G37*
G36*
X-00398Y-000435D02*
X-004D01*
Y-00043972D01*
X-00400813Y-00044134D01*
X-00403816Y-00045378D01*
X-00406518Y-00047184D01*
X-00408816Y-00049482D01*
X-00410622Y-00052184D01*
X-00411866Y-00055187D01*
X-00412425Y-00058D01*
X-00398D01*
Y-000435D01*
D02*
G37*
G36*
X-0026975Y-0004875D02*
X-0029125D01*
Y-0007025D01*
X-0026975D01*
Y-0004875D01*
D02*
G37*
G36*
X-00388Y-000435D02*
X-00394D01*
Y-0006D01*
Y-000765D01*
X-00388D01*
Y-0006D01*
Y-000435D01*
D02*
G37*
G36*
X-00398Y-00062D02*
X-00412425D01*
X-00411866Y-00064813D01*
X-00410622Y-00067816D01*
X-00408816Y-00070518D01*
X-00406518Y-00072816D01*
X-00403816Y-00074622D01*
X-00400813Y-00075866D01*
X-004Y-00076028D01*
Y-000765D01*
X-00398D01*
Y-00062D01*
D02*
G37*
G36*
X-002785Y-00083907D02*
Y-000925D01*
X-00269907D01*
X-00270483Y-00090351D01*
X-00271898Y-00087899D01*
X-00273899Y-00085898D01*
X-00276351Y-00084483D01*
X-002785Y-00083907D01*
D02*
G37*
G36*
X-002825D02*
X-00284649Y-00084483D01*
X-00287101Y-00085898D01*
X-00289102Y-00087899D01*
X-00290517Y-00090351D01*
X-00291093Y-000925D01*
X-002825D01*
Y-00083907D01*
D02*
G37*
G36*
X-00269907Y-000965D02*
X-002785D01*
Y-00105093D01*
X-00276351Y-00104517D01*
X-00273899Y-00103102D01*
X-00271898Y-00101101D01*
X-00270483Y-00098649D01*
X-00269907Y-000965D01*
D02*
G37*
G36*
X-002825D02*
X-00291093D01*
X-00290517Y-00098649D01*
X-00289102Y-00101101D01*
X-00287101Y-00103102D01*
X-00284649Y-00104517D01*
X-002825Y-00105093D01*
Y-000965D01*
D02*
G37*
G36*
X0035912Y-00177001D02*
X0035416Y-00190626D01*
X00367716Y-0019556D01*
X00368152Y-00192725D01*
X0036801Y-00189478D01*
X00367238Y-00186321D01*
X00365864Y-00183375D01*
X00363942Y-00180754D01*
X00361546Y-00178559D01*
X00360838Y-00178129D01*
X00360999Y-00177685D01*
X0035912Y-00177001D01*
D02*
G37*
G36*
X00349723Y-0017358D02*
X0034408Y-00189085D01*
X00338436Y-0020459D01*
X00344074Y-00206642D01*
X00349718Y-00191138D01*
X00355361Y-00175633D01*
X00349723Y-0017358D01*
D02*
G37*
G36*
X00352792Y-00194385D02*
X00347833Y-00208011D01*
X00349712Y-00208694D01*
X00349874Y-00208251D01*
X00350693Y-00208377D01*
X0035394Y-00208235D01*
X00357098Y-00207463D01*
X00360043Y-00206089D01*
X00362664Y-00204167D01*
X0036486Y-00201771D01*
X00366348Y-00199319D01*
X00352792Y-00194385D01*
D02*
G37*
G36*
X00215Y-00071922D02*
X00065D01*
X00063439Y-00072232D01*
X00062116Y-00073116D01*
X00061232Y-00074439D01*
X00060922Y-00076D01*
Y-00226D01*
X00061232Y-00227561D01*
X00062116Y-00228884D01*
X00063439Y-00229768D01*
X00065Y-00230078D01*
X0012847D01*
X00134183Y-00239974D01*
X00134623Y-00240475D01*
X00134993Y-0024103D01*
X00135273Y-00241217D01*
X00135494Y-00241469D01*
X00136093Y-00241764D01*
X00136647Y-00242135D01*
X00136977Y-002422D01*
X00137278Y-00242349D01*
X00137944Y-00242393D01*
X00138598Y-00242523D01*
X00138928Y-00242457D01*
X00139263Y-00242479D01*
X00139895Y-00242265D01*
X00140549Y-00242135D01*
X00140829Y-00241948D01*
X00141147Y-0024184D01*
X00141455Y-0024157D01*
X00145931Y-00239045D01*
X001598Y-00230078D01*
X00215D01*
X00216561Y-00229768D01*
X00217884Y-00228884D01*
X00218768Y-00227561D01*
X00219078Y-00226D01*
Y-00174586D01*
X00220172Y-00173273D01*
X00230022Y-00159887D01*
X00239045Y-00145931D01*
X0024157Y-00141455D01*
X0024184Y-00141147D01*
X00241948Y-00140829D01*
X00242135Y-00140549D01*
X00242265Y-00139895D01*
X00242479Y-00139263D01*
X00242457Y-00138928D01*
X00242523Y-00138598D01*
X00242393Y-00137944D01*
X00242349Y-00137278D01*
X002422Y-00136977D01*
X00242135Y-00136647D01*
X00241764Y-00136092D01*
X00241469Y-00135494D01*
X00241217Y-00135273D01*
X0024103Y-00134993D01*
X00240475Y-00134623D01*
X00239974Y-00134183D01*
X00219078Y-00122119D01*
Y-00076D01*
X00218768Y-00074439D01*
X00217884Y-00073116D01*
X00216561Y-00072232D01*
X00215Y-00071922D01*
D02*
G37*
G36*
X-00276924Y-00289152D02*
X-00278457Y-00290438D01*
X-00278153Y-002908D01*
X-00278672Y-00291446D01*
X-00280173Y-00294329D01*
X-00281082Y-0029745D01*
X-00281365Y-00300687D01*
X-00281011Y-00303918D01*
X-00280034Y-00307018D01*
X-00278655Y-00309533D01*
X-00267604Y-0030026D01*
X-00276924Y-00289152D01*
D02*
G37*
G36*
X-00269264Y-00282725D02*
X-0027386Y-00286581D01*
X-00263254Y-00299221D01*
X-00252648Y-00311861D01*
X-00248052Y-00308004D01*
X-00258658Y-00295364D01*
X-00269264Y-00282725D01*
D02*
G37*
G36*
X-00265033Y-00303324D02*
X-00276084Y-00312597D01*
X-00273847Y-00314392D01*
X-00270964Y-00315893D01*
X-00267843Y-00316802D01*
X-00264606Y-00317085D01*
X-00261375Y-00316732D01*
X-00258275Y-00315754D01*
X-00257548Y-00315356D01*
X-00257245Y-00315718D01*
X-00255713Y-00314432D01*
X-00265033Y-00303324D01*
D02*
G37*
G36*
X00260251Y-00297768D02*
X00245962Y-00306018D01*
X00231672Y-00314268D01*
X00234672Y-00319464D01*
X00248962Y-00311214D01*
X00263251Y-00302964D01*
X00260251Y-00297768D01*
D02*
G37*
G36*
X0000197Y-0028D02*
X-0000197D01*
X-00005834Y-00280769D01*
X-00009474Y-00282276D01*
X-00012749Y-00284465D01*
X-00015535Y-00287251D01*
X-00017724Y-00290527D01*
X-00019231Y-00294166D01*
X-0002Y-0029803D01*
Y-0030197D01*
X-00019231Y-00305834D01*
X-00017724Y-00309473D01*
X-00015535Y-00312749D01*
X-00012749Y-00315535D01*
X-00009474Y-00317724D01*
X-00005834Y-00319231D01*
X-0000197Y-0032D01*
X0000197D01*
X00005834Y-00319231D01*
X00009474Y-00317724D01*
X00012749Y-00315535D01*
X00015535Y-00312749D01*
X00017724Y-00309473D01*
X00019231Y-00305834D01*
X0002Y-0030197D01*
Y-0029803D01*
X00019231Y-00294166D01*
X00017724Y-00290527D01*
X00015535Y-00287251D01*
X00012749Y-00284465D01*
X00009474Y-00282276D01*
X00005834Y-00280769D01*
X0000197Y-0028D01*
D02*
G37*
G36*
X00265251Y-00306428D02*
X00252694Y-00313678D01*
X00259906Y-00326171D01*
X00262063Y-0032428D01*
X00264041Y-00321701D01*
X00265479Y-00318786D01*
X0026632Y-00315647D01*
X00266532Y-00312404D01*
X00266108Y-00309181D01*
X00265842Y-00308396D01*
X00266251Y-0030816D01*
X00265251Y-00306428D01*
D02*
G37*
G36*
X0024923Y-00315678D02*
X00236672Y-00322928D01*
X00237672Y-0032466D01*
X00238081Y-00324424D01*
X00238628Y-00325047D01*
X00241206Y-00327026D01*
X00244121Y-00328463D01*
X00247261Y-00329305D01*
X00250504Y-00329517D01*
X00253726Y-00329093D01*
X00256442Y-00328171D01*
X0024923Y-00315678D01*
D02*
G37*
G36*
X-00142713Y-00368821D02*
X-00143755Y-0037473D01*
X-00127506Y-00377595D01*
X-00111257Y-00380461D01*
X-00110215Y-00374552D01*
X-00126464Y-00371687D01*
X-00142713Y-00368821D01*
D02*
G37*
G36*
X-00126231Y-00381882D02*
X-00128736Y-00396088D01*
X-00125869Y-00396026D01*
X-00122695Y-00395322D01*
X-0011972Y-00394013D01*
X-00117058Y-00392149D01*
X-0011481Y-00389801D01*
X-00113064Y-0038706D01*
X-00112764Y-00386287D01*
X-00112298Y-00386369D01*
X-00111951Y-003844D01*
X-00126231Y-00381882D01*
D02*
G37*
G36*
X-0014445Y-00378669D02*
X-00144797Y-00380639D01*
X-00144332Y-00380721D01*
X-00144314Y-0038155D01*
X-0014361Y-00384723D01*
X-00142301Y-00387698D01*
X-00140437Y-0039036D01*
X-00138089Y-00392608D01*
X-00135348Y-00394354D01*
X-00132675Y-00395394D01*
X-0013017Y-00381187D01*
X-0014445Y-00378669D01*
D02*
G37*
%LPD*%
G36*
X001437Y00234479D02*
X00153638Y00228148D01*
X0016329Y0022139D01*
X00172638Y00214217D01*
X00181664Y00206643D01*
X00190351Y00198683D01*
X00198683Y00190351D01*
X00206643Y00181664D01*
X00214217Y00172638D01*
X0022139Y0016329D01*
X00228148Y00153638D01*
X00234479Y001437D01*
X00237425Y00138598D01*
X00146492Y00086098D01*
X00143716Y00090729D01*
X00137718Y00099707D01*
X00131145Y00108273D01*
X00124026Y00116391D01*
X00116391Y00124026D01*
X00108273Y00131145D01*
X00099707Y00137718D01*
X00090729Y00143716D01*
X00086098Y00146492D01*
Y00146492D01*
X00138598Y00237425D01*
X001437Y00234479D01*
D02*
G37*
G36*
X-00086098Y00146492D02*
X-00090729Y00143716D01*
X-00099707Y00137718D01*
X-00108273Y00131145D01*
X-00116391Y00124026D01*
X-00124026Y00116391D01*
X-00131145Y00108273D01*
X-00137718Y00099707D01*
X-00143716Y00090729D01*
X-00146492Y00086098D01*
X-00237425Y00138598D01*
X-00234479Y001437D01*
X-00228148Y00153638D01*
X-0022139Y0016329D01*
X-00214217Y00172638D01*
X-00206643Y00181664D01*
X-00198683Y00190351D01*
X-00190351Y00198683D01*
X-00181664Y00206643D01*
X-00172638Y00214217D01*
X-0016329Y0022139D01*
X-00153638Y00228148D01*
X-001437Y00234479D01*
X-00138598Y00237425D01*
X-00138598D01*
X-00086098Y00146492D01*
D02*
G37*
G36*
X-00143716Y-00090729D02*
X-00137718Y-00099707D01*
X-00131145Y-00108273D01*
X-00124026Y-00116391D01*
X-00116391Y-00124026D01*
X-00108273Y-00131145D01*
X-00099707Y-00137718D01*
X-00090729Y-00143716D01*
X-00086098Y-00146492D01*
X-00086098D01*
X-00138598Y-00237425D01*
X-001437Y-00234479D01*
X-00153638Y-00228148D01*
X-0016329Y-0022139D01*
X-00172638Y-00214217D01*
X-00181664Y-00206643D01*
X-00190351Y-00198683D01*
X-00198683Y-00190351D01*
X-00206643Y-00181664D01*
X-00214217Y-00172638D01*
X-0022139Y-0016329D01*
X-00228148Y-00153638D01*
X-00234479Y-001437D01*
X-00237425Y-00138598D01*
X-00237425Y-00138598D01*
X-00146492Y-00086098D01*
X-00143716Y-00090729D01*
D02*
G37*
G36*
X00237425Y-00138598D02*
X00234479Y-001437D01*
X00228148Y-00153638D01*
X0022139Y-0016329D01*
X00214217Y-00172638D01*
X00206643Y-00181664D01*
X00198683Y-00190351D01*
X00190351Y-00198683D01*
X00181664Y-00206643D01*
X00172638Y-00214217D01*
X0016329Y-0022139D01*
X00153638Y-00228148D01*
X001437Y-00234479D01*
X00138598Y-00237425D01*
Y-00237425D01*
X00086098Y-00146492D01*
X00090729Y-00143716D01*
X00099707Y-00137718D01*
X00108273Y-00131145D01*
X00116391Y-00124026D01*
X00124026Y-00116391D01*
X00131145Y-00108273D01*
X00137718Y-00099707D01*
X00143716Y-00090729D01*
X00146492Y-00086098D01*
X00146492Y-00086098D01*
X00237425Y-00138598D01*
D02*
G37*
D10*
X-00138598Y00237425D02*
G03*
X-00237425Y00138598I00135J-00233827D01*
G01*
X-00086098Y00146492D02*
G03*
X-00146492Y00086098I000825J-00142894D01*
G01*
X00237425Y00138598D02*
G03*
X00138598Y00237425I-00233827J-00135D01*
G01*
X00146492Y00086098D02*
G03*
X00086098Y00146492I-00142894J-000825D01*
G01*
X00138598Y-00237425D02*
G03*
X00237425Y-00138598I-00135J00233827D01*
G01*
X00086098Y-00146492D02*
G03*
X00146492Y-00086098I-000825J00142894D01*
G01*
X-00237425Y-00138598D02*
G03*
X-00138598Y-00237425I00233827J00135D01*
G01*
X-00146492Y-00086098D02*
G03*
X-00086098Y-00146492I00142894J000825D01*
G01*
X-00237425Y00138598D02*
X-00146492Y00086098D01*
X-00138598Y00237425D02*
X-00086098Y00146492D01*
X00146492Y00086098D02*
X00237425Y00138598D01*
X00086098Y00146492D02*
X00087134Y00148286D01*
X00138598Y00237425D01*
X00138598Y00237425D02*
X00138598Y00237425D01*
X00086098Y-00146492D02*
X00138598Y-00237425D01*
X00146492Y-00086098D02*
X00148286Y-00087134D01*
X00237425Y-00138598D02*
X00237425Y-00138598D01*
X00148286Y-00087134D02*
X00237425Y-00138598D01*
X00237425Y-00138598D01*
X-00237425Y-00138598D02*
X-00146492Y-00086098D01*
X-00138598Y-00237425D02*
X-00138598Y-00237425D01*
X-00138598Y-00237425D02*
X-00138598Y-00237425D01*
X-00138598Y-00237425D02*
X-00087134Y-00148286D01*
X-00086098Y-00146492D01*
D11*
X-00275776Y00231404D02*
D03*
D12*
X0018Y00311769D02*
D03*
D13*
X00338289Y-00123127D02*
D03*
D14*
X-00062513Y-00354531D02*
D03*
D15*
X-0036Y0D02*
D03*
D16*
X-00062513Y00354531D02*
D03*
D17*
X00338289Y00123127D02*
D03*
D18*
X0018Y-00311769D02*
D03*
D19*
X-00275776Y-00231404D02*
D03*
D23*
X-00282837Y00263437D02*
D03*
X-00308549Y00232795D02*
D03*
X-0033426Y00202153D02*
D03*
X-00257126Y00294079D02*
D03*
D24*
X-00342687Y00209224D02*
D03*
X-00316975Y00239866D02*
D03*
X-00291264Y00270508D02*
D03*
X-00264786Y00300507D02*
D03*
X00146538Y00373812D02*
D03*
X0018118Y00353812D02*
D03*
X00215821Y00333812D02*
D03*
X00249962Y00312946D02*
D03*
X00393579Y-000794D02*
D03*
X00379898Y-00116988D02*
D03*
X00366218Y-00154576D02*
D03*
X00351597Y-00191822D02*
D03*
X-0000985Y-00401388D02*
D03*
X-00049242Y-00394442D02*
D03*
X-00088635Y-00387496D02*
D03*
X-00127853Y-00379565D02*
D03*
X-00397Y0006D02*
D03*
Y0002D02*
D03*
Y-0002D02*
D03*
X-00396Y-0006D02*
D03*
X-0000985Y00401387D02*
D03*
X-00049242Y00394442D02*
D03*
X-00088635Y00387496D02*
D03*
X-00127853Y00379565D02*
D03*
X00393579Y000794D02*
D03*
X00379898Y00116988D02*
D03*
X00366218Y00154576D02*
D03*
X00351597Y00191821D02*
D03*
X00146538Y-00373812D02*
D03*
X0018118Y-00353812D02*
D03*
X00215821Y-00333812D02*
D03*
X00249962Y-00312946D02*
D03*
X-00342687Y-00209224D02*
D03*
X-00316975Y-00239866D02*
D03*
X-00291264Y-00270508D02*
D03*
X-00264786Y-00300507D02*
D03*
D25*
X0021032Y00324286D02*
D03*
X00175679Y00344286D02*
D03*
X00141039Y00364286D02*
D03*
X00244962Y00304286D02*
D03*
D26*
X00355881Y-00150814D02*
D03*
X00369562Y-00113226D02*
D03*
X00383243Y-00075638D02*
D03*
X003422Y-00188401D02*
D03*
D27*
X-00086724Y-00376663D02*
D03*
X-00047332Y-00383609D02*
D03*
X-0000794Y-00390555D02*
D03*
X-00126117Y-00369717D02*
D03*
D28*
X-00386Y-0002D02*
D03*
Y0002D02*
D03*
Y0006D02*
D03*
Y-0006D02*
D03*
D29*
X-00086724Y00376663D02*
D03*
X-00047332Y00383609D02*
D03*
X-0000794Y00390555D02*
D03*
X-00126117Y00369717D02*
D03*
D30*
X00355881Y00150814D02*
D03*
X00369562Y00113226D02*
D03*
X00383243Y00075638D02*
D03*
X003422Y00188401D02*
D03*
D31*
X0021032Y-00324286D02*
D03*
X00175679Y-00344286D02*
D03*
X00141038Y-00364286D02*
D03*
X00244962Y-00304286D02*
D03*
D32*
X-00282837Y-00263437D02*
D03*
X-00308549Y-00232795D02*
D03*
X-0033426Y-00202153D02*
D03*
X-00257126Y-00294079D02*
D03*
D33*
X-00004086Y00403092D02*
X00000821Y00408D01*
X00033817D01*
X00046554Y00395263D01*
X00058015Y00406725D02*
X000986D01*
X00046554Y00395263D02*
X00058015Y00406725D01*
X000986D02*
X00137648Y00367676D01*
X-0000985Y00401388D02*
X-00004086D01*
Y00400373D02*
Y00403092D01*
X00137648Y00367676D02*
X00141039Y00364286D01*
X00141039D01*
X00046554Y00379152D02*
Y00395263D01*
X00046461Y00379059D02*
X00046554Y00379152D01*
X00046461Y00212461D02*
Y00379059D01*
X-00128Y00038D02*
X00046461Y00212461D01*
X-00362Y-00185684D02*
X-00345288Y-00202396D01*
X-00362Y-00185684D02*
Y-00154D01*
X-0032Y-00112D01*
X-00345288Y-00202396D02*
X-00342991D01*
X-00425Y00101609D02*
X-00399609Y00127D01*
X-00425Y00068D02*
Y00101609D01*
Y00068D02*
X-00417Y0006D01*
X-00397D01*
X00397341Y00075638D02*
X00407Y0006598D01*
Y00025D02*
Y0006598D01*
X00383243Y00075638D02*
X00397341D01*
X00375Y-00007D02*
X00393581Y-00025581D01*
Y-00073548D02*
Y-00025581D01*
X-00128Y00023D02*
Y00038D01*
X00135784Y-00373687D02*
Y-00371598D01*
X-00360079Y00187605D02*
X-00340389Y00207296D01*
X-00360079Y00130079D02*
Y00187605D01*
Y00127D02*
Y00130079D01*
X-00253Y00023D01*
X-00128D01*
X-0032Y-00044D02*
X-00253Y00023D01*
X-00399609Y00127D02*
X-00360079D01*
X00046Y-00377D02*
Y-00201D01*
X-00128Y-00027D02*
Y00023D01*
Y-00027D02*
X00046Y-00201D01*
X00004Y00023D02*
X00047Y00066D01*
X-00128Y00023D02*
X00004D01*
X00026144Y-00396856D02*
X00046Y-00377D01*
X-0032Y-00112D02*
Y-00044D01*
X00047Y00066D02*
X00277D01*
X0035Y-00007D01*
X00116472Y-00393D02*
X00135784Y-00373687D01*
X00046Y-00377D02*
X00062Y-00393D01*
X00116472D01*
X-00003002Y-00396856D02*
X00026144D01*
X-00003565Y-00397419D02*
X-00003002Y-00396856D01*
X00135784Y-00371598D02*
X00136168Y-00371214D01*
X00138257D01*
X00139275Y-00372232D01*
X-00342991Y-00202396D02*
X-00342392Y-00201797D01*
X00375Y-00007D02*
X00407Y00025D01*
X0035Y-00007D02*
X00375D01*
D34*
X-00147255Y00088919D02*
D03*
X00088919Y00147255D02*
D03*
X00147255Y-00088919D02*
D03*
X-00088919Y-00147255D02*
D03*
D35*
X-002805Y-000945D02*
D03*
D36*
Y-000595D02*
D03*
D37*
X0Y003D02*
D03*
X003Y0D02*
D03*
X0Y-003D02*
D03*
D38*
X-0033762Y00212152D02*
D03*
X-0034469Y00203725D02*
D03*
X-00329193Y00205081D02*
D03*
X-00336264Y00196654D02*
D03*
X-00311908Y00242794D02*
D03*
X-00318979Y00234367D02*
D03*
X-00303482Y00235723D02*
D03*
X-00310552Y00227296D02*
D03*
X-00259719Y00303434D02*
D03*
X-0026679Y00295008D02*
D03*
X-00251292Y00296364D02*
D03*
X-00258363Y00287937D02*
D03*
X-00286196Y00273435D02*
D03*
X-00293267Y00265009D02*
D03*
X-0027777Y00266365D02*
D03*
X-00284841Y00257938D02*
D03*
X00150302Y0036933D02*
D03*
X00140775Y0037483D02*
D03*
X00144802Y00359804D02*
D03*
X00135275Y00365304D02*
D03*
X00184943Y0034933D02*
D03*
X00175416Y0035483D02*
D03*
X00179443Y00339804D02*
D03*
X00169916Y00345304D02*
D03*
X00253725Y00308464D02*
D03*
X00244198Y00313964D02*
D03*
X00248225Y00298938D02*
D03*
X00238699Y00304438D02*
D03*
X00219584Y0032933D02*
D03*
X00210057Y0033483D02*
D03*
X00214084Y00319804D02*
D03*
X00204557Y00325304D02*
D03*
X00389819Y-00083885D02*
D03*
X00393581Y-00073548D02*
D03*
X00379482Y-00080122D02*
D03*
X00383244Y-00069786D02*
D03*
X00376138Y-00121472D02*
D03*
X003799Y-00111136D02*
D03*
X00365801Y-0011771D02*
D03*
X00369563Y-00107374D02*
D03*
X00347837Y-00196306D02*
D03*
X00351599Y-00185969D02*
D03*
X003375Y-00192544D02*
D03*
X00341262Y-00182207D02*
D03*
X00362457Y-0015906D02*
D03*
X00366219Y-00148723D02*
D03*
X00352121Y-00155298D02*
D03*
X00355883Y-00144961D02*
D03*
X-00014919Y-00398463D02*
D03*
X-00004086Y-00400373D02*
D03*
X-00013009Y-0038763D02*
D03*
X-00002176Y-0038954D02*
D03*
X-00054311Y-00391517D02*
D03*
X-00043478Y-00393427D02*
D03*
X-00052401Y-00380684D02*
D03*
X-00041568Y-00382594D02*
D03*
X-00132922Y-0037664D02*
D03*
X-00122089Y-0037855D02*
D03*
X-00131012Y-00365807D02*
D03*
X-00120179Y-00367718D02*
D03*
X-00093704Y-00384571D02*
D03*
X-00082871Y-00386481D02*
D03*
X-00091793Y-00373738D02*
D03*
X-00080961Y-00375648D02*
D03*
X-00395Y000545D02*
D03*
Y000655D02*
D03*
X-00384Y000545D02*
D03*
Y000655D02*
D03*
X-00395Y000145D02*
D03*
Y000255D02*
D03*
X-00384Y000145D02*
D03*
Y000255D02*
D03*
X-00394Y-000655D02*
D03*
Y-000545D02*
D03*
X-00383Y-000655D02*
D03*
X-00383Y-000545D02*
D03*
X-00395Y-000255D02*
D03*
Y-000145D02*
D03*
X-00384Y-000255D02*
D03*
Y-000145D02*
D03*
X-00014919Y00398463D02*
D03*
X-00004086Y00400373D02*
D03*
X-00013009Y0038763D02*
D03*
X-00002176Y0038954D02*
D03*
X-00054311Y00391517D02*
D03*
X-00043478Y00393427D02*
D03*
X-00052401Y00380684D02*
D03*
X-00041568Y00382594D02*
D03*
X-00132922Y0037664D02*
D03*
X-00122089Y0037855D02*
D03*
X-00131012Y00365807D02*
D03*
X-00120179Y00367718D02*
D03*
X-00093703Y00384571D02*
D03*
X-00082871Y00386481D02*
D03*
X-00091793Y00373738D02*
D03*
X-00080961Y00375648D02*
D03*
X00389819Y00083885D02*
D03*
X00393581Y00073548D02*
D03*
X00379482Y00080122D02*
D03*
X00383244Y00069786D02*
D03*
X00376138Y00121472D02*
D03*
X003799Y00111136D02*
D03*
X00365801Y0011771D02*
D03*
X00369563Y00107374D02*
D03*
X00347837Y00196306D02*
D03*
X00351599Y00185969D02*
D03*
X003375Y00192544D02*
D03*
X00341262Y00182207D02*
D03*
X00362457Y0015906D02*
D03*
X00366219Y00148723D02*
D03*
X00352121Y00155298D02*
D03*
X00355883Y00144961D02*
D03*
X00150302Y-0036933D02*
D03*
X00140775Y-0037483D02*
D03*
X00144802Y-00359804D02*
D03*
X00135275Y-00365304D02*
D03*
X00184943Y-0034933D02*
D03*
X00175416Y-0035483D02*
D03*
X00179443Y-00339804D02*
D03*
X00169916Y-00345304D02*
D03*
X00253725Y-00308464D02*
D03*
X00244198Y-00313964D02*
D03*
X00248225Y-00298938D02*
D03*
X00238698Y-00304438D02*
D03*
X00219584Y-0032933D02*
D03*
X00210057Y-0033483D02*
D03*
X00214084Y-00319804D02*
D03*
X00204557Y-00325304D02*
D03*
X-0033762Y-00212152D02*
D03*
X-0034469Y-00203725D02*
D03*
X-00329193Y-00205081D02*
D03*
X-00336264Y-00196655D02*
D03*
X-00311908Y-00242793D02*
D03*
X-00318979Y-00234367D02*
D03*
X-00303482Y-00235723D02*
D03*
X-00310552Y-00227296D02*
D03*
X-00259719Y-00303434D02*
D03*
X-0026679Y-00295008D02*
D03*
X-00251292Y-00296364D02*
D03*
X-00258363Y-00287937D02*
D03*
X-00286196Y-00273435D02*
D03*
X-00293267Y-00265009D02*
D03*
X-0027777Y-00266364D02*
D03*
X-00284841Y-00257938D02*
D03*
D39*
X00074495Y00422482D02*
D03*
X00043999Y00164207D02*
D03*
X-00032Y-00327106D02*
D03*
X-0027Y00101D02*
D03*
X-00018Y00269D02*
D03*
X00222Y-00041D02*
D03*
X-00251Y-00208D02*
D03*
X-00174Y-00306D02*
D03*
X00408767Y-00008984D02*
D03*
D40*
X-00128Y00023D02*
D03*
M02*
