G04*
G04 #@! TF.GenerationSoftware,Altium Limited,Altium Designer,21.7.2 (23)*
G04*
G04 Layer_Color=32896*
%FSLAX44Y44*%
%MOMM*%
G71*
G04*
G04 #@! TF.SameCoordinates,2762603F-DC23-44BD-9304-8284379E2FE7*
G04*
G04*
G04 #@! TF.FilePolarity,Positive*
G04*
G01*
G75*
%ADD10C,0.2000*%
%ADD79C,0.5000*%
%ADD119C,0.1500*%
D10*
X295000Y78500D02*
G03*
X295000Y78500I-40000J0D01*
G01*
X104000Y162500D02*
X126000Y162500D01*
X104000Y162500D02*
X104000Y155500D01*
X126000D01*
X126000Y162500D02*
X126000Y155500D01*
X-148750Y114500D02*
Y121500D01*
X-126750D01*
Y114500D02*
Y121500D01*
X-148750Y114500D02*
X-126750D01*
X-126500Y-148500D02*
X-119500D01*
X-126500D02*
Y-126500D01*
X-119500D01*
Y-148500D02*
Y-126500D01*
X148500Y-115500D02*
X148500Y-122500D01*
X126500Y-122500D02*
X148500Y-122500D01*
X126500Y-115500D02*
X126500Y-122500D01*
X126500Y-115500D02*
X148500Y-115500D01*
X235002Y303997D02*
X238334D01*
X240000Y302331D01*
Y295666D01*
X238334Y294000D01*
X235002D01*
X233335Y295666D01*
Y302331D01*
X235002Y303997D01*
X230003D02*
Y295666D01*
X228337Y294000D01*
X225005D01*
X223339Y295666D01*
Y303997D01*
X220006D02*
X213342D01*
X216674D01*
Y294000D01*
X223000Y-234003D02*
X219668D01*
X221334D01*
Y-244000D01*
X223000D01*
X219668D01*
X209671Y-234003D02*
X213003D01*
X214669Y-235669D01*
Y-242334D01*
X213003Y-244000D01*
X209671D01*
X208005Y-242334D01*
Y-235669D01*
X209671Y-234003D01*
X238000Y-275003D02*
X234668D01*
X236334D01*
Y-285000D01*
X238000D01*
X234668D01*
X229669D02*
Y-275003D01*
X223005Y-285000D01*
Y-275003D01*
X344000Y-178003D02*
Y-184668D01*
X340668Y-188000D01*
X337336Y-184668D01*
Y-178003D01*
X334003D02*
Y-188000D01*
X329005D01*
X327339Y-186334D01*
Y-179669D01*
X329005Y-178003D01*
X334003D01*
X324006D02*
Y-188000D01*
X319008D01*
X317342Y-186334D01*
Y-179669D01*
X319008Y-178003D01*
X324006D01*
X277335Y-170003D02*
X284000D01*
Y-175002D01*
X280668Y-173335D01*
X279002D01*
X277335Y-175002D01*
Y-178334D01*
X279002Y-180000D01*
X282334D01*
X284000Y-178334D01*
X274003Y-170003D02*
Y-176668D01*
X270671Y-180000D01*
X267339Y-176668D01*
Y-170003D01*
X109000Y-311003D02*
X105668D01*
X107334D01*
Y-321000D01*
X109000D01*
X105668D01*
X95671Y-311003D02*
X99003D01*
X100669Y-312669D01*
Y-319334D01*
X99003Y-321000D01*
X95671D01*
X94005Y-319334D01*
Y-312669D01*
X95671Y-311003D01*
X142002Y-341003D02*
X145334D01*
X147000Y-342669D01*
Y-349334D01*
X145334Y-351000D01*
X142002D01*
X140336Y-349334D01*
Y-342669D01*
X142002Y-341003D01*
X137003D02*
Y-349334D01*
X135337Y-351000D01*
X132005D01*
X130339Y-349334D01*
Y-341003D01*
X127007D02*
X120342D01*
X123674D01*
Y-351000D01*
X5000Y-363003D02*
Y-369668D01*
X1668Y-373000D01*
X-1664Y-369668D01*
Y-363003D01*
X-4997D02*
Y-373000D01*
X-9995D01*
X-11661Y-371334D01*
Y-364669D01*
X-9995Y-363003D01*
X-4997D01*
X-14993D02*
Y-373000D01*
X-19992D01*
X-21658Y-371334D01*
Y-364669D01*
X-19992Y-363003D01*
X-14993D01*
X9336Y-322003D02*
X16000D01*
Y-327002D01*
X12668Y-325336D01*
X11002D01*
X9336Y-327002D01*
Y-330334D01*
X11002Y-332000D01*
X14334D01*
X16000Y-330334D01*
X6003Y-322003D02*
Y-328668D01*
X2671Y-332000D01*
X-661Y-328668D01*
Y-322003D01*
X-199000Y-259003D02*
X-202332D01*
X-200666D01*
Y-269000D01*
X-199000D01*
X-202332D01*
X-212329Y-259003D02*
X-208997D01*
X-207331Y-260669D01*
Y-267334D01*
X-208997Y-269000D01*
X-212329D01*
X-213995Y-267334D01*
Y-260669D01*
X-212329Y-259003D01*
X-232000Y-278003D02*
X-235332D01*
X-233666D01*
Y-288000D01*
X-232000D01*
X-235332D01*
X-240331D02*
Y-278003D01*
X-246995Y-288000D01*
Y-278003D01*
X-106000Y-342003D02*
Y-348668D01*
X-109332Y-352000D01*
X-112664Y-348668D01*
Y-342003D01*
X-115997D02*
Y-352000D01*
X-120995D01*
X-122661Y-350334D01*
Y-343669D01*
X-120995Y-342003D01*
X-115997D01*
X-125994D02*
Y-352000D01*
X-130992D01*
X-132658Y-350334D01*
Y-343669D01*
X-130992Y-342003D01*
X-125994D01*
X-122664Y-301003D02*
X-116000D01*
Y-306002D01*
X-119332Y-304335D01*
X-120998D01*
X-122664Y-306002D01*
Y-309334D01*
X-120998Y-311000D01*
X-117666D01*
X-116000Y-309334D01*
X-125997Y-301003D02*
Y-307668D01*
X-129329Y-311000D01*
X-132661Y-307668D01*
Y-301003D01*
X-197000Y265997D02*
X-200332D01*
X-198666D01*
Y256000D01*
X-197000D01*
X-200332D01*
X-210329Y265997D02*
X-206997D01*
X-205331Y264331D01*
Y257666D01*
X-206997Y256000D01*
X-210329D01*
X-211995Y257666D01*
Y264331D01*
X-210329Y265997D01*
X-236998Y285997D02*
X-233666D01*
X-232000Y284331D01*
Y277666D01*
X-233666Y276000D01*
X-236998D01*
X-238664Y277666D01*
Y284331D01*
X-236998Y285997D01*
X-241997D02*
Y277666D01*
X-243663Y276000D01*
X-246995D01*
X-248661Y277666D01*
Y285997D01*
X-251994D02*
X-258658D01*
X-255326D01*
Y276000D01*
X-104000Y348997D02*
Y342332D01*
X-107332Y339000D01*
X-110665Y342332D01*
Y348997D01*
X-113997D02*
Y339000D01*
X-118995D01*
X-120661Y340666D01*
Y347331D01*
X-118995Y348997D01*
X-113997D01*
X-123994D02*
Y339000D01*
X-128992D01*
X-130658Y340666D01*
Y347331D01*
X-128992Y348997D01*
X-123994D01*
X-124664Y307997D02*
X-118000D01*
Y302998D01*
X-121332Y304664D01*
X-122998D01*
X-124664Y302998D01*
Y299666D01*
X-122998Y298000D01*
X-119666D01*
X-118000Y299666D01*
X-127997Y307997D02*
Y301332D01*
X-131329Y298000D01*
X-134661Y301332D01*
Y307997D01*
X-284000Y156997D02*
X-287332D01*
X-285666D01*
Y147000D01*
X-284000D01*
X-287332D01*
X-297329Y156997D02*
X-293997D01*
X-292331Y155331D01*
Y148666D01*
X-293997Y147000D01*
X-297329D01*
X-298995Y148666D01*
Y155331D01*
X-297329Y156997D01*
X-306000Y187997D02*
X-309332D01*
X-307666D01*
Y178000D01*
X-306000D01*
X-309332D01*
X-314331D02*
Y187997D01*
X-320995Y178000D01*
Y187997D01*
X-360000Y61997D02*
Y55332D01*
X-363332Y52000D01*
X-366665Y55332D01*
Y61997D01*
X-369997D02*
Y52000D01*
X-374995D01*
X-376661Y53666D01*
Y60331D01*
X-374995Y61997D01*
X-369997D01*
X-379994D02*
Y52000D01*
X-384992D01*
X-386658Y53666D01*
Y60331D01*
X-384992Y61997D01*
X-379994D01*
X-319664Y74997D02*
X-313000D01*
Y69998D01*
X-316332Y71665D01*
X-317998D01*
X-319664Y69998D01*
Y66666D01*
X-317998Y65000D01*
X-314666D01*
X-313000Y66666D01*
X-322997Y74997D02*
Y68332D01*
X-326329Y65000D01*
X-329661Y68332D01*
Y74997D01*
X-285000Y-146003D02*
X-288332D01*
X-286666D01*
Y-156000D01*
X-285000D01*
X-288332D01*
X-298329Y-146003D02*
X-294997D01*
X-293331Y-147669D01*
Y-154334D01*
X-294997Y-156000D01*
X-298329D01*
X-299995Y-154334D01*
Y-147669D01*
X-298329Y-146003D01*
X-303998Y-180003D02*
X-300666D01*
X-299000Y-181669D01*
Y-188334D01*
X-300666Y-190000D01*
X-303998D01*
X-305665Y-188334D01*
Y-181669D01*
X-303998Y-180003D01*
X-308997D02*
Y-188334D01*
X-310663Y-190000D01*
X-313995D01*
X-315661Y-188334D01*
Y-180003D01*
X-318993D02*
X-325658D01*
X-322326D01*
Y-190000D01*
X-347000Y-56003D02*
Y-62668D01*
X-350332Y-66000D01*
X-353665Y-62668D01*
Y-56003D01*
X-356997D02*
Y-66000D01*
X-361995D01*
X-363661Y-64334D01*
Y-57669D01*
X-361995Y-56003D01*
X-356997D01*
X-366994D02*
Y-66000D01*
X-371992D01*
X-373658Y-64334D01*
Y-57669D01*
X-371992Y-56003D01*
X-366994D01*
X-320664Y-64003D02*
X-314000D01*
Y-69002D01*
X-317332Y-67336D01*
X-318998D01*
X-320664Y-69002D01*
Y-72334D01*
X-318998Y-74000D01*
X-315666D01*
X-314000Y-72334D01*
X-323997Y-64003D02*
Y-70668D01*
X-327329Y-74000D01*
X-330661Y-70668D01*
Y-64003D01*
X110000Y312997D02*
X106668D01*
X108334D01*
Y303000D01*
X110000D01*
X106668D01*
X96671Y312997D02*
X100003D01*
X101669Y311331D01*
Y304666D01*
X100003Y303000D01*
X96671D01*
X95005Y304666D01*
Y311331D01*
X96671Y312997D01*
X137000Y348997D02*
X133668D01*
X135334D01*
Y339000D01*
X137000D01*
X133668D01*
X128669D02*
Y348997D01*
X122005Y339000D01*
Y348997D01*
X3000Y369997D02*
Y363332D01*
X-332Y360000D01*
X-3665Y363332D01*
Y369997D01*
X-6997D02*
Y360000D01*
X-11995D01*
X-13661Y361666D01*
Y368331D01*
X-11995Y369997D01*
X-6997D01*
X-16994D02*
Y360000D01*
X-21992D01*
X-23658Y361666D01*
Y368331D01*
X-21992Y369997D01*
X-16994D01*
X10336Y331997D02*
X17000D01*
Y326998D01*
X13668Y328665D01*
X12002D01*
X10336Y326998D01*
Y323666D01*
X12002Y322000D01*
X15334D01*
X17000Y323666D01*
X7003Y331997D02*
Y325332D01*
X3671Y322000D01*
X339Y325332D01*
Y331997D01*
X332250Y46247D02*
X328918D01*
X330584D01*
Y36250D01*
X332250D01*
X328918D01*
X318921Y46247D02*
X322253D01*
X323919Y44581D01*
Y37916D01*
X322253Y36250D01*
X318921D01*
X317255Y37916D01*
Y44581D01*
X318921Y46247D01*
X363002Y65997D02*
X366334D01*
X368000Y64331D01*
Y57666D01*
X366334Y56000D01*
X363002D01*
X361335Y57666D01*
Y64331D01*
X363002Y65997D01*
X358003D02*
Y57666D01*
X356337Y56000D01*
X353005D01*
X351339Y57666D01*
Y65997D01*
X348006D02*
X341342D01*
X344674D01*
Y56000D01*
X368000Y-54003D02*
Y-60668D01*
X364668Y-64000D01*
X361335Y-60668D01*
Y-54003D01*
X358003D02*
Y-64000D01*
X353005D01*
X351339Y-62334D01*
Y-55669D01*
X353005Y-54003D01*
X358003D01*
X348006D02*
Y-64000D01*
X343008D01*
X341342Y-62334D01*
Y-55669D01*
X343008Y-54003D01*
X348006D01*
X322085Y-34753D02*
X328750D01*
Y-39752D01*
X325418Y-38085D01*
X323752D01*
X322085Y-39752D01*
Y-43084D01*
X323752Y-44750D01*
X327084D01*
X328750Y-43084D01*
X318753Y-34753D02*
Y-41418D01*
X315421Y-44750D01*
X312089Y-41418D01*
Y-34753D01*
X232035Y253085D02*
X228703D01*
X230369D01*
Y243089D01*
X232035D01*
X228703D01*
X218706Y253085D02*
X222038D01*
X223704Y251419D01*
Y244755D01*
X222038Y243089D01*
X218706D01*
X217040Y244755D01*
Y251419D01*
X218706Y253085D01*
X342000Y188997D02*
Y182332D01*
X338668Y179000D01*
X335336Y182332D01*
Y188997D01*
X332003D02*
Y179000D01*
X327005D01*
X325339Y180666D01*
Y187331D01*
X327005Y188997D01*
X332003D01*
X322006D02*
Y179000D01*
X317008D01*
X315342Y180666D01*
Y187331D01*
X317008Y188997D01*
X322006D01*
X283335Y182997D02*
X290000D01*
Y177998D01*
X286668Y179664D01*
X285002D01*
X283335Y177998D01*
Y174666D01*
X285002Y173000D01*
X288334D01*
X290000Y174666D01*
X280003Y182997D02*
Y176332D01*
X276671Y173000D01*
X273339Y176332D01*
Y182997D01*
X-68497Y144625D02*
Y141293D01*
Y142959D01*
X-58500D01*
Y144625D01*
Y141293D01*
X-68497Y136294D02*
X-58500D01*
Y129630D01*
X-68497Y121299D02*
Y124632D01*
X-66831Y126298D01*
X-60166D01*
X-58500Y124632D01*
Y121299D01*
X-60166Y119633D01*
X-66831D01*
X-68497Y121299D01*
X-58500Y116301D02*
X-68497D01*
Y111302D01*
X-66831Y109636D01*
X-63498D01*
X-61832Y111302D01*
Y116301D01*
Y112969D02*
X-58500Y109636D01*
X-68497Y106304D02*
X-58500D01*
Y101306D01*
X-60166Y99640D01*
X-66831D01*
X-68497Y101306D01*
Y106304D01*
X-58500Y96307D02*
X-65164D01*
X-68497Y92975D01*
X-65164Y89643D01*
X-58500D01*
X-63498D01*
Y96307D01*
X-66831Y79646D02*
X-68497Y81312D01*
Y84644D01*
X-66831Y86311D01*
X-65164D01*
X-63498Y84644D01*
Y81312D01*
X-61832Y79646D01*
X-60166D01*
X-58500Y81312D01*
Y84644D01*
X-60166Y86311D01*
X-68497Y76314D02*
X-58500D01*
X-63498D01*
Y69649D01*
X-68497D01*
X-58500D01*
X-68497Y56320D02*
X-58500D01*
X-63498D01*
Y49656D01*
X-68497D01*
X-58500D01*
Y46323D02*
X-65164D01*
X-68497Y42991D01*
X-65164Y39659D01*
X-58500D01*
X-63498D01*
Y46323D01*
X-60166Y29662D02*
X-66831D01*
X-68497Y31328D01*
Y34661D01*
X-66831Y36327D01*
X-60166D01*
X-58500Y34661D01*
Y31328D01*
X-61832Y32994D02*
X-58500Y29662D01*
Y31328D02*
X-60166Y29662D01*
X-65164Y26330D02*
X-60166D01*
X-58500Y24664D01*
Y19665D01*
X-65164D01*
X-68497Y16333D02*
X-58500D01*
Y11335D01*
X-60166Y9669D01*
X-66831D01*
X-68497Y11335D01*
Y16333D01*
X-58500Y6336D02*
X-65164D01*
X-68497Y3004D01*
X-65164Y-328D01*
X-58500D01*
X-63498D01*
Y6336D01*
X-68497Y-13657D02*
X-60166D01*
X-58500Y-15323D01*
Y-18656D01*
X-60166Y-20322D01*
X-68497D01*
X-58500Y-23654D02*
X-68497D01*
Y-28652D01*
X-66831Y-30319D01*
X-63498D01*
X-61832Y-28652D01*
Y-23654D01*
X-58500Y-33651D02*
X-68497D01*
Y-38649D01*
X-66831Y-40315D01*
X-63498D01*
X-61832Y-38649D01*
Y-33651D01*
X-68497Y-50312D02*
Y-43647D01*
X-58500D01*
Y-50312D01*
X-63498Y-43647D02*
Y-46980D01*
X-58500Y-53644D02*
X-68497D01*
Y-58643D01*
X-66831Y-60309D01*
X-63498D01*
X-61832Y-58643D01*
Y-53644D01*
Y-56977D02*
X-58500Y-60309D01*
Y-73638D02*
X-68497D01*
Y-78636D01*
X-66831Y-80302D01*
X-63498D01*
X-61832Y-78636D01*
Y-73638D01*
X-66831Y-90299D02*
X-68497Y-88633D01*
Y-85301D01*
X-66831Y-83635D01*
X-60166D01*
X-58500Y-85301D01*
Y-88633D01*
X-60166Y-90299D01*
X-68497Y-93631D02*
X-58500D01*
Y-98630D01*
X-60166Y-100296D01*
X-61832D01*
X-63498Y-98630D01*
Y-93631D01*
Y-98630D01*
X-65164Y-100296D01*
X-66831D01*
X-68497Y-98630D01*
Y-93631D01*
X150831Y143748D02*
Y135418D01*
X149164Y133752D01*
X145832D01*
X144166Y135418D01*
Y143748D01*
X135836Y133752D02*
Y143748D01*
X140834Y138750D01*
X134169D01*
X84327Y198002D02*
Y204666D01*
X80995Y207998D01*
X77663Y204666D01*
Y198002D01*
Y203000D01*
X84327D01*
X74331Y207998D02*
Y198002D01*
Y203000D01*
X67666D01*
Y207998D01*
Y198002D01*
X64334Y207998D02*
Y198002D01*
X57669D01*
X54337Y207998D02*
Y198002D01*
X49339D01*
X47673Y199668D01*
Y201334D01*
X49339Y203000D01*
X54337D01*
X49339D01*
X47673Y204666D01*
Y206332D01*
X49339Y207998D01*
X54337D01*
X172329D02*
X165665D01*
X168997D01*
Y198002D01*
X157334Y207998D02*
X160666D01*
X162332Y206332D01*
Y199668D01*
X160666Y198002D01*
X157334D01*
X155668Y199668D01*
Y206332D01*
X157334Y207998D01*
X145671Y206332D02*
X147337Y207998D01*
X150669D01*
X152336Y206332D01*
Y199668D01*
X150669Y198002D01*
X147337D01*
X145671Y199668D01*
Y203000D01*
X149003D01*
X-168673Y149002D02*
Y155666D01*
X-172005Y158998D01*
X-175337Y155666D01*
Y149002D01*
Y154000D01*
X-168673D01*
X-178669Y158998D02*
Y149002D01*
Y154000D01*
X-185334D01*
Y158998D01*
Y149002D01*
X-188666Y158998D02*
Y149002D01*
X-195331D01*
X-198663Y158998D02*
Y149002D01*
X-203661D01*
X-205327Y150668D01*
Y152334D01*
X-203661Y154000D01*
X-198663D01*
X-203661D01*
X-205327Y155666D01*
Y157332D01*
X-203661Y158998D01*
X-198663D01*
X-80671D02*
X-87336D01*
X-84003D01*
Y149002D01*
X-95666Y158998D02*
X-92334D01*
X-90668Y157332D01*
Y150668D01*
X-92334Y149002D01*
X-95666D01*
X-97332Y150668D01*
Y157332D01*
X-95666Y158998D01*
X-107329Y157332D02*
X-105663Y158998D01*
X-102331D01*
X-100665Y157332D01*
Y150668D01*
X-102331Y149002D01*
X-105663D01*
X-107329Y150668D01*
Y154000D01*
X-103997D01*
X-143173Y-178748D02*
Y-172084D01*
X-146505Y-168752D01*
X-149837Y-172084D01*
Y-178748D01*
Y-173750D01*
X-143173D01*
X-153169Y-168752D02*
Y-178748D01*
Y-173750D01*
X-159834D01*
Y-168752D01*
Y-178748D01*
X-163166Y-168752D02*
Y-178748D01*
X-169831D01*
X-173163Y-168752D02*
Y-178748D01*
X-178161D01*
X-179827Y-177082D01*
Y-175416D01*
X-178161Y-173750D01*
X-173163D01*
X-178161D01*
X-179827Y-172084D01*
Y-170418D01*
X-178161Y-168752D01*
X-173163D01*
X-149171Y-95752D02*
X-155836D01*
X-152503D01*
Y-105748D01*
X-164166Y-95752D02*
X-160834D01*
X-159168Y-97418D01*
Y-104082D01*
X-160834Y-105748D01*
X-164166D01*
X-165832Y-104082D01*
Y-97418D01*
X-164166Y-95752D01*
X-175829Y-97418D02*
X-174163Y-95752D01*
X-170831D01*
X-169165Y-97418D01*
Y-104082D01*
X-170831Y-105748D01*
X-174163D01*
X-175829Y-104082D01*
Y-100750D01*
X-172497D01*
X204077Y-166748D02*
Y-160084D01*
X200745Y-156752D01*
X197413Y-160084D01*
Y-166748D01*
Y-161750D01*
X204077D01*
X194081Y-156752D02*
Y-166748D01*
Y-161750D01*
X187416D01*
Y-156752D01*
Y-166748D01*
X184084Y-156752D02*
Y-166748D01*
X177419D01*
X174087Y-156752D02*
Y-166748D01*
X169089D01*
X167423Y-165082D01*
Y-163416D01*
X169089Y-161750D01*
X174087D01*
X169089D01*
X167423Y-160084D01*
Y-158418D01*
X169089Y-156752D01*
X174087D01*
X108079Y-156002D02*
X101414D01*
X104747D01*
Y-165998D01*
X93084Y-156002D02*
X96416D01*
X98082Y-157668D01*
Y-164332D01*
X96416Y-165998D01*
X93084D01*
X91418Y-164332D01*
Y-157668D01*
X93084Y-156002D01*
X81421Y-157668D02*
X83087Y-156002D01*
X86419D01*
X88085Y-157668D01*
Y-164332D01*
X86419Y-165998D01*
X83087D01*
X81421Y-164332D01*
Y-161000D01*
X84753D01*
X-102419Y99998D02*
Y91668D01*
X-104086Y90002D01*
X-107418D01*
X-109084Y91668D01*
Y99998D01*
X-112416Y98332D02*
X-114082Y99998D01*
X-117415D01*
X-119081Y98332D01*
Y96666D01*
X-117415Y95000D01*
X-115748D01*
X-117415D01*
X-119081Y93334D01*
Y91668D01*
X-117415Y90002D01*
X-114082D01*
X-112416Y91668D01*
X-86669Y-106002D02*
Y-114332D01*
X-88336Y-115998D01*
X-91668D01*
X-93334Y-114332D01*
Y-106002D01*
X-103331Y-115998D02*
X-96666D01*
X-103331Y-109334D01*
Y-107668D01*
X-101664Y-106002D01*
X-98332D01*
X-96666Y-107668D01*
X114916Y106582D02*
X116582Y108248D01*
X119915D01*
X121581Y106582D01*
Y99918D01*
X119915Y98252D01*
X116582D01*
X114916Y99918D01*
X111584D02*
X109918Y98252D01*
X106586D01*
X104919Y99918D01*
Y106582D01*
X106586Y108248D01*
X109918D01*
X111584Y106582D01*
Y104916D01*
X109918Y103250D01*
X104919D01*
X116666Y257332D02*
X118332Y258998D01*
X121664D01*
X123331Y257332D01*
Y250668D01*
X121664Y249002D01*
X118332D01*
X116666Y250668D01*
X113334Y257332D02*
X111668Y258998D01*
X108336D01*
X106669Y257332D01*
Y255666D01*
X108336Y254000D01*
X106669Y252334D01*
Y250668D01*
X108336Y249002D01*
X111668D01*
X113334Y250668D01*
Y252334D01*
X111668Y254000D01*
X113334Y255666D01*
Y257332D01*
X111668Y254000D02*
X108336D01*
X-190084Y115832D02*
X-188418Y117498D01*
X-185086D01*
X-183419Y115832D01*
Y109168D01*
X-185086Y107502D01*
X-188418D01*
X-190084Y109168D01*
X-193416Y117498D02*
X-200081D01*
Y115832D01*
X-193416Y109168D01*
Y107502D01*
X-136334Y205332D02*
X-134668Y206998D01*
X-131335D01*
X-129669Y205332D01*
Y198668D01*
X-131335Y197002D01*
X-134668D01*
X-136334Y198668D01*
X-146331Y206998D02*
X-142998Y205332D01*
X-139666Y202000D01*
Y198668D01*
X-141332Y197002D01*
X-144664D01*
X-146331Y198668D01*
Y200334D01*
X-144664Y202000D01*
X-139666D01*
X-117334Y-181668D02*
X-115668Y-180002D01*
X-112336D01*
X-110669Y-181668D01*
Y-188332D01*
X-112336Y-189998D01*
X-115668D01*
X-117334Y-188332D01*
X-127331Y-180002D02*
X-120666D01*
Y-185000D01*
X-123998Y-183334D01*
X-125665D01*
X-127331Y-185000D01*
Y-188332D01*
X-125665Y-189998D01*
X-122332D01*
X-120666Y-188332D01*
X-217334Y-132918D02*
X-215668Y-131252D01*
X-212335D01*
X-210669Y-132918D01*
Y-139582D01*
X-212335Y-141248D01*
X-215668D01*
X-217334Y-139582D01*
X-225665Y-141248D02*
Y-131252D01*
X-220666Y-136250D01*
X-227331D01*
X189666Y-110168D02*
X191332Y-108502D01*
X194664D01*
X196331Y-110168D01*
Y-116832D01*
X194664Y-118498D01*
X191332D01*
X189666Y-116832D01*
X186334Y-110168D02*
X184668Y-108502D01*
X181336D01*
X179669Y-110168D01*
Y-111834D01*
X181336Y-113500D01*
X183002D01*
X181336D01*
X179669Y-115166D01*
Y-116832D01*
X181336Y-118498D01*
X184668D01*
X186334Y-116832D01*
X139166Y-206668D02*
X140832Y-205002D01*
X144164D01*
X145831Y-206668D01*
Y-213332D01*
X144164Y-214998D01*
X140832D01*
X139166Y-213332D01*
X129169Y-214998D02*
X135834D01*
X129169Y-208334D01*
Y-206668D01*
X130836Y-205002D01*
X134168D01*
X135834Y-206668D01*
X201000Y83332D02*
X202666Y84998D01*
X205998D01*
X207665Y83332D01*
Y76668D01*
X205998Y75002D01*
X202666D01*
X201000Y76668D01*
X197668Y75002D02*
X194335D01*
X196002D01*
Y84998D01*
X197668Y83332D01*
X174663Y-29002D02*
Y-35666D01*
X171331Y-38998D01*
X167998Y-35666D01*
Y-29002D01*
X164666D02*
Y-38998D01*
X159668D01*
X158002Y-37332D01*
Y-30668D01*
X159668Y-29002D01*
X164666D01*
X154669Y-38998D02*
X151337D01*
X153003D01*
Y-29002D01*
X154669Y-30668D01*
X114664Y-89002D02*
Y-97332D01*
X112998Y-98998D01*
X109666D01*
X108000Y-97332D01*
Y-89002D01*
X104668Y-98998D02*
X101335D01*
X103002D01*
Y-89002D01*
X104668Y-90668D01*
D79*
X331000Y-163000D02*
G03*
X358791Y-74680I-317033J148290D01*
G01*
X200500Y-57000D02*
G03*
X200500Y-57000I-2500J0D01*
G01*
X331000Y-163000D02*
X349825Y-149513D01*
X329564Y-141670D02*
X330967Y-162710D01*
D119*
X125000Y137000D02*
G03*
X125000Y137000I-500J0D01*
G01*
X-127750Y96000D02*
G03*
X-127750Y96000I-500J0D01*
G01*
X-100500Y-128000D02*
G03*
X-100500Y-128000I-500J0D01*
G01*
X128500Y-97000D02*
G03*
X128500Y-97000I-500J0D01*
G01*
X254878Y23000D02*
Y32997D01*
X259876Y27998D02*
X249879D01*
X-214497Y43168D02*
Y45834D01*
Y44501D01*
X-207833D01*
X-206500Y45834D01*
Y47167D01*
X-207833Y48500D01*
X-214497Y40503D02*
X-206500D01*
Y35171D01*
X-213165Y27174D02*
X-214497Y28507D01*
Y31172D01*
X-213165Y32505D01*
X-207833D01*
X-206500Y31172D01*
Y28507D01*
X-207833Y27174D01*
X-214497Y19176D02*
Y21842D01*
Y20509D01*
X-207833D01*
X-206500Y21842D01*
Y23175D01*
X-207833Y24508D01*
X-214497Y16510D02*
X-206500D01*
Y11179D01*
X-213165Y3181D02*
X-214497Y4514D01*
Y7180D01*
X-213165Y8513D01*
X-207833D01*
X-206500Y7180D01*
Y4514D01*
X-207833Y3181D01*
X-214497Y-4816D02*
Y-2150D01*
Y-3483D01*
X-207833D01*
X-206500Y-2150D01*
Y-817D01*
X-207833Y516D01*
X-214497Y-7482D02*
X-206500D01*
Y-12814D01*
X-213165Y-20811D02*
X-214497Y-19478D01*
Y-16812D01*
X-213165Y-15479D01*
X-207833D01*
X-206500Y-16812D01*
Y-19478D01*
X-207833Y-20811D01*
X-214497Y-28808D02*
Y-26142D01*
Y-27476D01*
X-207833D01*
X-206500Y-26142D01*
Y-24810D01*
X-207833Y-23477D01*
X-214497Y-31474D02*
X-206500D01*
Y-36806D01*
X-213165Y-44803D02*
X-214497Y-43470D01*
Y-40805D01*
X-213165Y-39472D01*
X-207833D01*
X-206500Y-40805D01*
Y-43470D01*
X-207833Y-44803D01*
M02*
