G04*
G04 #@! TF.GenerationSoftware,Altium Limited,Altium Designer,21.7.2 (23)*
G04*
G04 Layer_Color=32896*
%FSLAX25Y25*%
%MOIN*%
G70*
G04*
G04 #@! TF.SameCoordinates,E7E08F9A-FE39-4F42-AE66-928A3885C1E4*
G04*
G04*
G04 #@! TF.FilePolarity,Positive*
G04*
G01*
G75*
%ADD49C,0.01000*%
%ADD51C,0.00787*%
%ADD55C,0.01968*%
%ADD56C,0.00591*%
D49*
X32677Y-18032D02*
G03*
X32677Y-18032I-394J0D01*
G01*
X27165Y14882D02*
X37402Y14882D01*
X37402Y-14882D01*
X27165Y-14882D02*
X27165Y14882D01*
X27165Y-14882D02*
X37402Y-14882D01*
X-40640Y-73803D02*
Y-71804D01*
Y-72803D01*
X-46638D01*
Y-73803D01*
Y-71804D01*
X-40640Y-68805D02*
X-46638D01*
Y-64806D01*
X-40640Y-59808D02*
Y-61807D01*
X-41639Y-62807D01*
X-45638D01*
X-46638Y-61807D01*
Y-59808D01*
X-45638Y-58808D01*
X-41639D01*
X-40640Y-59808D01*
X-46638Y-56809D02*
X-40640D01*
Y-53810D01*
X-41639Y-52810D01*
X-43639D01*
X-44638Y-53810D01*
Y-56809D01*
Y-54809D02*
X-46638Y-52810D01*
X-40640Y-50811D02*
X-46638D01*
Y-47812D01*
X-45638Y-46812D01*
X-41639D01*
X-40640Y-47812D01*
Y-50811D01*
X-46638Y-44813D02*
X-42639D01*
X-40640Y-42813D01*
X-42639Y-40814D01*
X-46638D01*
X-43639D01*
Y-44813D01*
X-41639Y-34816D02*
X-40640Y-35815D01*
Y-37815D01*
X-41639Y-38814D01*
X-42639D01*
X-43639Y-37815D01*
Y-35815D01*
X-44638Y-34816D01*
X-45638D01*
X-46638Y-35815D01*
Y-37815D01*
X-45638Y-38814D01*
X-40640Y-32816D02*
X-46638D01*
X-43639D01*
Y-28818D01*
X-40640D01*
X-46638D01*
X-40640Y-20820D02*
X-46638D01*
X-43639D01*
Y-16822D01*
X-40640D01*
X-46638D01*
Y-14822D02*
X-42639D01*
X-40640Y-12823D01*
X-42639Y-10824D01*
X-46638D01*
X-43639D01*
Y-14822D01*
X-45638Y-4826D02*
X-41639D01*
X-40640Y-5825D01*
Y-7824D01*
X-41639Y-8824D01*
X-45638D01*
X-46638Y-7824D01*
Y-5825D01*
X-44638Y-6825D02*
X-46638Y-4826D01*
Y-5825D02*
X-45638Y-4826D01*
X-42639Y-2826D02*
X-45638D01*
X-46638Y-1826D01*
Y1173D01*
X-42639D01*
X-40640Y3172D02*
X-46638D01*
Y6171D01*
X-45638Y7171D01*
X-41639D01*
X-40640Y6171D01*
Y3172D01*
X-46638Y9170D02*
X-42639D01*
X-40640Y11169D01*
X-42639Y13169D01*
X-46638D01*
X-43639D01*
Y9170D01*
X-40640Y21166D02*
X-45638D01*
X-46638Y22166D01*
Y24165D01*
X-45638Y25165D01*
X-40640D01*
X-46638Y27164D02*
X-40640D01*
Y30163D01*
X-41639Y31163D01*
X-43639D01*
X-44638Y30163D01*
Y27164D01*
X-46638Y33162D02*
X-40640D01*
Y36161D01*
X-41639Y37161D01*
X-43639D01*
X-44638Y36161D01*
Y33162D01*
X-40640Y43159D02*
Y39160D01*
X-46638D01*
Y43159D01*
X-43639Y39160D02*
Y41160D01*
X-46638Y45158D02*
X-40640D01*
Y48157D01*
X-41639Y49157D01*
X-43639D01*
X-44638Y48157D01*
Y45158D01*
Y47158D02*
X-46638Y49157D01*
Y57155D02*
X-40640D01*
Y60154D01*
X-41639Y61153D01*
X-43639D01*
X-44638Y60154D01*
Y57155D01*
X-41639Y67151D02*
X-40640Y66152D01*
Y64152D01*
X-41639Y63152D01*
X-45638D01*
X-46638Y64152D01*
Y66152D01*
X-45638Y67151D01*
X-40640Y69151D02*
X-46638D01*
Y72150D01*
X-45638Y73149D01*
X-44638D01*
X-43639Y72150D01*
Y69151D01*
Y72150D01*
X-42639Y73149D01*
X-41639D01*
X-40640Y72150D01*
Y69151D01*
D51*
X-84646Y-30906D02*
G03*
X-84646Y-30906I-15748J0D01*
G01*
X23425Y2559D02*
X23425Y3347D01*
X18898Y3347D02*
X18898Y2559D01*
X43701Y22046D02*
X41077D01*
X42389D01*
Y18110D01*
X39765Y22046D02*
X37141D01*
X38453D01*
Y18110D01*
X35829D02*
Y22046D01*
X33861D01*
X33206Y21390D01*
Y20078D01*
X33861Y19422D01*
X35829D01*
X29270Y18110D02*
X31894D01*
X29270Y20734D01*
Y21390D01*
X29926Y22046D01*
X31238D01*
X31894Y21390D01*
X25334Y18110D02*
X27958D01*
X25334Y20734D01*
Y21390D01*
X25990Y22046D01*
X27302D01*
X27958Y21390D01*
X24022D02*
X23366Y22046D01*
X22054D01*
X21398Y21390D01*
Y20734D01*
X22054Y20078D01*
X22710D01*
X22054D01*
X21398Y19422D01*
Y18766D01*
X22054Y18110D01*
X23366D01*
X24022Y18766D01*
X21654Y-8269D02*
Y-10893D01*
X20342Y-12205D01*
X19030Y-10893D01*
Y-8269D01*
X15094Y-8925D02*
X15750Y-8269D01*
X17062D01*
X17718Y-8925D01*
Y-11549D01*
X17062Y-12205D01*
X15750D01*
X15094Y-11549D01*
X11158Y-8925D02*
X11814Y-8269D01*
X13126D01*
X13782Y-8925D01*
Y-11549D01*
X13126Y-12205D01*
X11814D01*
X11158Y-11549D01*
X14961Y1967D02*
Y-1969D01*
X12993D01*
X12337Y-1313D01*
Y1311D01*
X12993Y1967D01*
X14961D01*
X11025Y-1969D02*
Y655D01*
X9713Y1967D01*
X8401Y655D01*
Y-1969D01*
Y-1D01*
X11025D01*
X7089Y1967D02*
X4465D01*
X5777D01*
Y-1969D01*
X3153D02*
Y655D01*
X1842Y1967D01*
X530Y655D01*
Y-1969D01*
Y-1D01*
X3153D01*
X19423Y14303D02*
X20079Y14959D01*
X21391D01*
X22047Y14303D01*
Y11680D01*
X21391Y11024D01*
X20079D01*
X19423Y11680D01*
Y12991D01*
X20735D01*
X18112Y11024D02*
Y14959D01*
X15488Y11024D01*
Y14959D01*
X14176D02*
Y11024D01*
X12208D01*
X11552Y11680D01*
Y14303D01*
X12208Y14959D01*
X14176D01*
X-79134Y-30184D02*
X-78478Y-29528D01*
X-77166D01*
X-76510Y-30184D01*
Y-32808D01*
X-77166Y-33464D01*
X-78478D01*
X-79134Y-32808D01*
X-80446Y-33464D02*
X-81758D01*
X-81102D01*
Y-29528D01*
X-80446Y-30184D01*
X-64306Y15747D02*
Y13124D01*
X-65618Y11812D01*
X-66930Y13124D01*
Y15747D01*
X-68242D02*
Y11812D01*
X-70210D01*
X-70865Y12468D01*
Y15091D01*
X-70210Y15747D01*
X-68242D01*
X-72177Y11812D02*
X-73489D01*
X-72833D01*
Y15747D01*
X-72177Y15091D01*
X14829Y4331D02*
Y8267D01*
X12861D01*
X12205Y7611D01*
Y6299D01*
X12861Y5643D01*
X14829D01*
X13517D02*
X12205Y4331D01*
X10893D02*
X9581D01*
X10237D01*
Y8267D01*
X10893Y7611D01*
D55*
X-130315Y64173D02*
G03*
X-141256Y29401I124816J-58382D01*
G01*
X-81693Y22835D02*
G03*
X-81693Y22835I-984J0D01*
G01*
X-130302Y64059D02*
X-129750Y55776D01*
X-137726Y58863D02*
X-130315Y64173D01*
D56*
X84448Y-16995D02*
Y-18045D01*
Y-17520D01*
X81824D01*
X81299Y-18045D01*
Y-18570D01*
X81824Y-19094D01*
X84448Y-15946D02*
X81299D01*
Y-13847D01*
X83923Y-10698D02*
X84448Y-11223D01*
Y-12273D01*
X83923Y-12797D01*
X81824D01*
X81299Y-12273D01*
Y-11223D01*
X81824Y-10698D01*
X84448Y-7550D02*
Y-8599D01*
Y-8074D01*
X81824D01*
X81299Y-8599D01*
Y-9124D01*
X81824Y-9649D01*
X84448Y-6500D02*
X81299D01*
Y-4401D01*
X83923Y-1252D02*
X84448Y-1777D01*
Y-2827D01*
X83923Y-3352D01*
X81824D01*
X81299Y-2827D01*
Y-1777D01*
X81824Y-1252D01*
X84448Y1896D02*
Y847D01*
Y1371D01*
X81824D01*
X81299Y847D01*
Y322D01*
X81824Y-203D01*
X84448Y2946D02*
X81299D01*
Y5045D01*
X83923Y8193D02*
X84448Y7668D01*
Y6619D01*
X83923Y6094D01*
X81824D01*
X81299Y6619D01*
Y7668D01*
X81824Y8193D01*
X84448Y11342D02*
Y10292D01*
Y10817D01*
X81824D01*
X81299Y10292D01*
Y9768D01*
X81824Y9243D01*
X84448Y12391D02*
X81299D01*
Y14491D01*
X83923Y17639D02*
X84448Y17114D01*
Y16065D01*
X83923Y15540D01*
X81824D01*
X81299Y16065D01*
Y17114D01*
X81824Y17639D01*
X-100346Y-9055D02*
Y-12991D01*
X-102313Y-11023D02*
X-98378D01*
M02*
