G04*
G04 #@! TF.GenerationSoftware,Altium Limited,Altium Designer,21.7.2 (23)*
G04*
G04 Layer_Color=8388736*
%FSLAX25Y25*%
%MOIN*%
G70*
G04*
G04 #@! TF.SameCoordinates,E7E08F9A-FE39-4F42-AE66-928A3885C1E4*
G04*
G04*
G04 #@! TF.FilePolarity,Negative*
G04*
G01*
G75*
%ADD10C,0.00500*%
%ADD11R,0.09461X0.40958*%
G04:AMPARAMS|DCode=12|XSize=94.61mil|YSize=409.58mil|CornerRadius=0mil|HoleSize=0mil|Usage=FLASHONLY|Rotation=320.000|XOffset=0mil|YOffset=0mil|HoleType=Round|Shape=Rectangle|*
%AMROTATEDRECTD12*
4,1,4,-0.16787,-0.12647,0.09539,0.18729,0.16787,0.12647,-0.09539,-0.18729,-0.16787,-0.12647,0.0*
%
%ADD12ROTATEDRECTD12*%

G04:AMPARAMS|DCode=13|XSize=94.61mil|YSize=409.58mil|CornerRadius=0mil|HoleSize=0mil|Usage=FLASHONLY|Rotation=280.000|XOffset=0mil|YOffset=0mil|HoleType=Round|Shape=Rectangle|*
%AMROTATEDRECTD13*
4,1,4,-0.20989,0.01103,0.19346,0.08215,0.20989,-0.01103,-0.19346,-0.08215,-0.20989,0.01103,0.0*
%
%ADD13ROTATEDRECTD13*%

G04:AMPARAMS|DCode=14|XSize=94.61mil|YSize=409.58mil|CornerRadius=0mil|HoleSize=0mil|Usage=FLASHONLY|Rotation=240.000|XOffset=0mil|YOffset=0mil|HoleType=Round|Shape=Rectangle|*
%AMROTATEDRECTD14*
4,1,4,-0.15370,0.14336,0.20100,-0.06143,0.15370,-0.14336,-0.20100,0.06143,-0.15370,0.14336,0.0*
%
%ADD14ROTATEDRECTD14*%

G04:AMPARAMS|DCode=15|XSize=94.61mil|YSize=409.58mil|CornerRadius=0mil|HoleSize=0mil|Usage=FLASHONLY|Rotation=200.000|XOffset=0mil|YOffset=0mil|HoleType=Round|Shape=Rectangle|*
%AMROTATEDRECTD15*
4,1,4,-0.02559,0.20862,0.11450,-0.17626,0.02559,-0.20862,-0.11450,0.17626,-0.02559,0.20862,0.0*
%
%ADD15ROTATEDRECTD15*%

G04:AMPARAMS|DCode=16|XSize=94.61mil|YSize=409.58mil|CornerRadius=0mil|HoleSize=0mil|Usage=FLASHONLY|Rotation=160.000|XOffset=0mil|YOffset=0mil|HoleType=Round|Shape=Rectangle|*
%AMROTATEDRECTD16*
4,1,4,0.11450,0.17626,-0.02559,-0.20862,-0.11450,-0.17626,0.02559,0.20862,0.11450,0.17626,0.0*
%
%ADD16ROTATEDRECTD16*%

G04:AMPARAMS|DCode=17|XSize=94.61mil|YSize=409.58mil|CornerRadius=0mil|HoleSize=0mil|Usage=FLASHONLY|Rotation=120.000|XOffset=0mil|YOffset=0mil|HoleType=Round|Shape=Rectangle|*
%AMROTATEDRECTD17*
4,1,4,0.20100,0.06143,-0.15370,-0.14336,-0.20100,-0.06143,0.15370,0.14336,0.20100,0.06143,0.0*
%
%ADD17ROTATEDRECTD17*%

G04:AMPARAMS|DCode=18|XSize=94.61mil|YSize=409.58mil|CornerRadius=0mil|HoleSize=0mil|Usage=FLASHONLY|Rotation=80.000|XOffset=0mil|YOffset=0mil|HoleType=Round|Shape=Rectangle|*
%AMROTATEDRECTD18*
4,1,4,0.19346,-0.08215,-0.20989,-0.01103,-0.19346,0.08215,0.20989,0.01103,0.19346,-0.08215,0.0*
%
%ADD18ROTATEDRECTD18*%

G04:AMPARAMS|DCode=19|XSize=94.61mil|YSize=409.58mil|CornerRadius=0mil|HoleSize=0mil|Usage=FLASHONLY|Rotation=40.000|XOffset=0mil|YOffset=0mil|HoleType=Round|Shape=Rectangle|*
%AMROTATEDRECTD19*
4,1,4,0.09539,-0.18729,-0.16787,0.12647,-0.09539,0.18729,0.16787,-0.12647,0.09539,-0.18729,0.0*
%
%ADD19ROTATEDRECTD19*%

%ADD20C,0.10642*%
%ADD21R,0.06115X0.06115*%
%ADD22C,0.06115*%
%ADD23C,0.32296*%
%ADD24C,0.06902*%
%ADD25C,0.03556*%
%ADD26C,0.05800*%
%ADD27C,0.02375*%
G36*
X-56258Y-32480D02*
X-55165Y-34304D01*
X-52803Y-37838D01*
X-50215Y-41211D01*
X-47412Y-44407D01*
X-44407Y-47412D01*
X-41211Y-50215D01*
X-37838Y-52803D01*
X-34304Y-55165D01*
X-32480Y-56258D01*
X-53150Y-92058D01*
X-55158Y-90898D01*
X-59071Y-88406D01*
X-62871Y-85745D01*
X-66551Y-82921D01*
X-70105Y-79939D01*
X-73525Y-76805D01*
X-76805Y-73525D01*
X-79939Y-70105D01*
X-82921Y-66551D01*
X-85745Y-62871D01*
X-88406Y-59071D01*
X-90898Y-55158D01*
X-92058Y-53150D01*
X-56258Y-32480D01*
X-56258Y-32480D01*
D02*
G37*
G36*
X-32480Y56258D02*
X-32480D01*
X-34304Y55165D01*
X-37838Y52803D01*
X-41211Y50215D01*
X-44407Y47412D01*
X-47412Y44407D01*
X-50215Y41211D01*
X-52803Y37838D01*
X-55165Y34304D01*
X-56258Y32480D01*
X-92058Y53150D01*
X-90898Y55158D01*
X-88406Y59071D01*
X-85745Y62871D01*
X-82921Y66551D01*
X-79939Y70105D01*
X-76805Y73525D01*
X-73525Y76805D01*
X-70105Y79939D01*
X-66551Y82921D01*
X-62871Y85745D01*
X-59071Y88406D01*
X-55158Y90898D01*
X-53150Y92058D01*
X-32480Y56258D01*
D02*
G37*
G36*
X92058Y-53150D02*
X92058D01*
X90898Y-55158D01*
X88406Y-59071D01*
X85745Y-62871D01*
X82921Y-66551D01*
X79939Y-70105D01*
X76805Y-73525D01*
X73525Y-76805D01*
X70105Y-79939D01*
X66551Y-82921D01*
X62871Y-85745D01*
X59071Y-88406D01*
X55158Y-90898D01*
X53150Y-92058D01*
X32480Y-56258D01*
Y-56258D01*
X34304Y-55165D01*
X37838Y-52803D01*
X41211Y-50215D01*
X44407Y-47412D01*
X47412Y-44407D01*
X50215Y-41211D01*
X52803Y-37838D01*
X55165Y-34304D01*
X56258Y-32480D01*
X92058Y-53150D01*
D02*
G37*
G36*
X55158Y90898D02*
X59071Y88406D01*
X62871Y85745D01*
X66551Y82921D01*
X70105Y79939D01*
X73525Y76805D01*
X76805Y73525D01*
X79939Y70105D01*
X82921Y66551D01*
X85745Y62871D01*
X88406Y59071D01*
X90898Y55158D01*
X92058Y53150D01*
X56258Y32480D01*
X56257Y32480D01*
X55165Y34304D01*
X52803Y37838D01*
X50215Y41211D01*
X47412Y44407D01*
X44407Y47412D01*
X41211Y50215D01*
X37838Y52803D01*
X34304Y55165D01*
X32480Y56257D01*
X53150Y92058D01*
X55158Y90898D01*
D02*
G37*
D10*
X32480Y-56258D02*
G03*
X56258Y-32480I-32480J56258D01*
G01*
X53150Y-92058D02*
G03*
X92058Y-53150I-53150J92058D01*
G01*
X56258Y32480D02*
G03*
X32480Y56258I-56258J-32480D01*
G01*
X92058Y53150D02*
G03*
X53150Y92058I-92058J-53150D01*
G01*
X32480Y-56258D02*
X53150Y-92058D01*
X56258Y-32480D02*
X92058Y-53150D01*
X56258Y32480D02*
X92058Y53150D01*
X32480Y56258D02*
X53150Y92058D01*
D11*
X-141732Y-0D02*
D03*
D12*
X-108573Y91104D02*
D03*
D13*
X-24612Y139579D02*
D03*
D14*
X70866Y122744D02*
D03*
D15*
X133185Y48475D02*
D03*
D16*
X133185Y-48475D02*
D03*
D17*
X70866Y-122744D02*
D03*
D18*
X-24611Y-139579D02*
D03*
D19*
X-108573Y-91104D02*
D03*
D20*
X15748Y57087D02*
D03*
X-59055Y0D02*
D03*
X15748Y-57087D02*
D03*
D21*
X-100394Y-24016D02*
D03*
D22*
Y-37795D02*
D03*
D23*
X-15748Y57087D02*
D03*
Y-57087D02*
D03*
X59055Y0D02*
D03*
D24*
X32283Y10000D02*
D03*
Y0D02*
D03*
X32283Y-10000D02*
D03*
D25*
X-122047Y-71260D02*
D03*
X-126378Y-74016D02*
D03*
X-94882Y-111024D02*
D03*
X-90945Y-107874D02*
D03*
X-47638Y-132677D02*
D03*
X-48425Y-137402D02*
D03*
X-1575Y-146063D02*
D03*
X-787Y-141339D02*
D03*
X48819Y-132677D02*
D03*
X51181Y-136614D02*
D03*
X92520Y-112992D02*
D03*
X90158Y-109055D02*
D03*
X122835Y-69685D02*
D03*
X127559Y-71260D02*
D03*
X143701Y-27165D02*
D03*
X138976Y-25591D02*
D03*
X143701Y27165D02*
D03*
X139370Y25591D02*
D03*
X122441Y70079D02*
D03*
X127165Y72047D02*
D03*
X92913Y113386D02*
D03*
X90551Y109449D02*
D03*
X48819Y132677D02*
D03*
X51181Y137008D02*
D03*
X-1181Y146850D02*
D03*
X-394Y142520D02*
D03*
X-47638Y133465D02*
D03*
X-48819Y138189D02*
D03*
X-95669Y111024D02*
D03*
X-92126Y108268D02*
D03*
X-122835Y71653D02*
D03*
X-126378Y74410D02*
D03*
X-138976Y24016D02*
D03*
X-144488D02*
D03*
X-139764Y-24016D02*
D03*
X-144488D02*
D03*
D26*
X139764Y-59055D02*
D03*
X68898Y-135039D02*
D03*
Y135039D02*
D03*
X9392Y-134317D02*
D03*
X92902Y-99625D02*
D03*
X-121260Y-90945D02*
D03*
X-34252Y-147638D02*
D03*
X-18504Y-150787D02*
D03*
X82677Y-127165D02*
D03*
X135039Y-17323D02*
D03*
X145276Y-44094D02*
D03*
X139370Y59842D02*
D03*
X145276Y44882D02*
D03*
X82677Y127165D02*
D03*
X-121053Y91220D02*
D03*
X-110855Y103374D02*
D03*
X-18472Y150445D02*
D03*
X-34097Y147690D02*
D03*
X-122776Y62558D02*
D03*
X-151367Y-7933D02*
D03*
Y7933D02*
D03*
X-83071Y10827D02*
D03*
X-81890Y29921D02*
D03*
X112008Y70079D02*
D03*
X41437Y127461D02*
D03*
X-47638Y124803D02*
D03*
D27*
X-54031Y88591D02*
D03*
X55078Y88143D02*
D03*
X87913Y-54747D02*
D03*
X-88591Y-54031D02*
D03*
M02*
