G04*
G04 #@! TF.GenerationSoftware,Altium Limited,Altium Designer,21.7.2 (23)*
G04*
G04 Layer_Color=32896*
%FSLAX44Y44*%
%MOMM*%
G71*
G04*
G04 #@! TF.SameCoordinates,9BB895A2-42D1-4055-8D82-49C525802847*
G04*
G04*
G04 #@! TF.FilePolarity,Positive*
G04*
G01*
G75*
%ADD10C,0.2000*%
%ADD79C,0.5000*%
%ADD119C,0.1500*%
D10*
X295000Y78500D02*
G03*
X295000Y78500I-40000J0D01*
G01*
X104000Y162500D02*
X126000Y162500D01*
X104000Y162500D02*
X104000Y155500D01*
X126000D01*
X126000Y162500D02*
X126000Y155500D01*
X-148750Y114500D02*
Y121500D01*
X-126750D01*
Y114500D02*
Y121500D01*
X-148750Y114500D02*
X-126750D01*
X-126500Y-148500D02*
X-119500D01*
X-126500D02*
Y-126500D01*
X-119500D01*
Y-148500D02*
Y-126500D01*
X148500Y-115500D02*
X148500Y-122500D01*
X126500Y-122500D02*
X148500Y-122500D01*
X126500Y-115500D02*
X126500Y-122500D01*
X126500Y-115500D02*
X148500Y-115500D01*
X235002Y303997D02*
X238334D01*
X240000Y302331D01*
Y295666D01*
X238334Y294000D01*
X235002D01*
X233335Y295666D01*
Y302331D01*
X235002Y303997D01*
X230003D02*
Y295666D01*
X228337Y294000D01*
X225005D01*
X223339Y295666D01*
Y303997D01*
X220006D02*
X213342D01*
X216674D01*
Y294000D01*
X223000Y-234003D02*
X219668D01*
X221334D01*
Y-244000D01*
X223000D01*
X219668D01*
X209671Y-234003D02*
X213003D01*
X214669Y-235669D01*
Y-242334D01*
X213003Y-244000D01*
X209671D01*
X208005Y-242334D01*
Y-235669D01*
X209671Y-234003D01*
X238000Y-275003D02*
X234668D01*
X236334D01*
Y-285000D01*
X238000D01*
X234668D01*
X229669D02*
Y-275003D01*
X223005Y-285000D01*
Y-275003D01*
X344000Y-178003D02*
Y-184668D01*
X340668Y-188000D01*
X337336Y-184668D01*
Y-178003D01*
X334003D02*
Y-188000D01*
X329005D01*
X327339Y-186334D01*
Y-179669D01*
X329005Y-178003D01*
X334003D01*
X324006D02*
Y-188000D01*
X319008D01*
X317342Y-186334D01*
Y-179669D01*
X319008Y-178003D01*
X324006D01*
X277335Y-170003D02*
X284000D01*
Y-175002D01*
X280668Y-173335D01*
X279002D01*
X277335Y-175002D01*
Y-178334D01*
X279002Y-180000D01*
X282334D01*
X284000Y-178334D01*
X274003Y-170003D02*
Y-176668D01*
X270671Y-180000D01*
X267339Y-176668D01*
Y-170003D01*
X109000Y-311003D02*
X105668D01*
X107334D01*
Y-321000D01*
X109000D01*
X105668D01*
X95671Y-311003D02*
X99003D01*
X100669Y-312669D01*
Y-319334D01*
X99003Y-321000D01*
X95671D01*
X94005Y-319334D01*
Y-312669D01*
X95671Y-311003D01*
X142002Y-341003D02*
X145334D01*
X147000Y-342669D01*
Y-349334D01*
X145334Y-351000D01*
X142002D01*
X140336Y-349334D01*
Y-342669D01*
X142002Y-341003D01*
X137003D02*
Y-349334D01*
X135337Y-351000D01*
X132005D01*
X130339Y-349334D01*
Y-341003D01*
X127007D02*
X120342D01*
X123674D01*
Y-351000D01*
X5000Y-363003D02*
Y-369668D01*
X1668Y-373000D01*
X-1664Y-369668D01*
Y-363003D01*
X-4997D02*
Y-373000D01*
X-9995D01*
X-11661Y-371334D01*
Y-364669D01*
X-9995Y-363003D01*
X-4997D01*
X-14993D02*
Y-373000D01*
X-19992D01*
X-21658Y-371334D01*
Y-364669D01*
X-19992Y-363003D01*
X-14993D01*
X9336Y-322003D02*
X16000D01*
Y-327002D01*
X12668Y-325336D01*
X11002D01*
X9336Y-327002D01*
Y-330334D01*
X11002Y-332000D01*
X14334D01*
X16000Y-330334D01*
X6003Y-322003D02*
Y-328668D01*
X2671Y-332000D01*
X-661Y-328668D01*
Y-322003D01*
X-199000Y-259003D02*
X-202332D01*
X-200666D01*
Y-269000D01*
X-199000D01*
X-202332D01*
X-212329Y-259003D02*
X-208997D01*
X-207331Y-260669D01*
Y-267334D01*
X-208997Y-269000D01*
X-212329D01*
X-213995Y-267334D01*
Y-260669D01*
X-212329Y-259003D01*
X-232000Y-278003D02*
X-235332D01*
X-233666D01*
Y-288000D01*
X-232000D01*
X-235332D01*
X-240331D02*
Y-278003D01*
X-246995Y-288000D01*
Y-278003D01*
X-106000Y-342003D02*
Y-348668D01*
X-109332Y-352000D01*
X-112664Y-348668D01*
Y-342003D01*
X-115997D02*
Y-352000D01*
X-120995D01*
X-122661Y-350334D01*
Y-343669D01*
X-120995Y-342003D01*
X-115997D01*
X-125994D02*
Y-352000D01*
X-130992D01*
X-132658Y-350334D01*
Y-343669D01*
X-130992Y-342003D01*
X-125994D01*
X-122664Y-301003D02*
X-116000D01*
Y-306002D01*
X-119332Y-304335D01*
X-120998D01*
X-122664Y-306002D01*
Y-309334D01*
X-120998Y-311000D01*
X-117666D01*
X-116000Y-309334D01*
X-125997Y-301003D02*
Y-307668D01*
X-129329Y-311000D01*
X-132661Y-307668D01*
Y-301003D01*
X-197000Y265997D02*
X-200332D01*
X-198666D01*
Y256000D01*
X-197000D01*
X-200332D01*
X-210329Y265997D02*
X-206997D01*
X-205331Y264331D01*
Y257666D01*
X-206997Y256000D01*
X-210329D01*
X-211995Y257666D01*
Y264331D01*
X-210329Y265997D01*
X-236998Y285997D02*
X-233666D01*
X-232000Y284331D01*
Y277666D01*
X-233666Y276000D01*
X-236998D01*
X-238664Y277666D01*
Y284331D01*
X-236998Y285997D01*
X-241997D02*
Y277666D01*
X-243663Y276000D01*
X-246995D01*
X-248661Y277666D01*
Y285997D01*
X-251994D02*
X-258658D01*
X-255326D01*
Y276000D01*
X-104000Y348997D02*
Y342332D01*
X-107332Y339000D01*
X-110665Y342332D01*
Y348997D01*
X-113997D02*
Y339000D01*
X-118995D01*
X-120661Y340666D01*
Y347331D01*
X-118995Y348997D01*
X-113997D01*
X-123994D02*
Y339000D01*
X-128992D01*
X-130658Y340666D01*
Y347331D01*
X-128992Y348997D01*
X-123994D01*
X-124664Y307997D02*
X-118000D01*
Y302998D01*
X-121332Y304664D01*
X-122998D01*
X-124664Y302998D01*
Y299666D01*
X-122998Y298000D01*
X-119666D01*
X-118000Y299666D01*
X-127997Y307997D02*
Y301332D01*
X-131329Y298000D01*
X-134661Y301332D01*
Y307997D01*
X-284000Y156997D02*
X-287332D01*
X-285666D01*
Y147000D01*
X-284000D01*
X-287332D01*
X-297329Y156997D02*
X-293997D01*
X-292331Y155331D01*
Y148666D01*
X-293997Y147000D01*
X-297329D01*
X-298995Y148666D01*
Y155331D01*
X-297329Y156997D01*
X-306000Y187997D02*
X-309332D01*
X-307666D01*
Y178000D01*
X-306000D01*
X-309332D01*
X-314331D02*
Y187997D01*
X-320995Y178000D01*
Y187997D01*
X-360000Y61997D02*
Y55332D01*
X-363332Y52000D01*
X-366665Y55332D01*
Y61997D01*
X-369997D02*
Y52000D01*
X-374995D01*
X-376661Y53666D01*
Y60331D01*
X-374995Y61997D01*
X-369997D01*
X-379994D02*
Y52000D01*
X-384992D01*
X-386658Y53666D01*
Y60331D01*
X-384992Y61997D01*
X-379994D01*
X-319664Y74997D02*
X-313000D01*
Y69998D01*
X-316332Y71665D01*
X-317998D01*
X-319664Y69998D01*
Y66666D01*
X-317998Y65000D01*
X-314666D01*
X-313000Y66666D01*
X-322997Y74997D02*
Y68332D01*
X-326329Y65000D01*
X-329661Y68332D01*
Y74997D01*
X-285000Y-146003D02*
X-288332D01*
X-286666D01*
Y-156000D01*
X-285000D01*
X-288332D01*
X-298329Y-146003D02*
X-294997D01*
X-293331Y-147669D01*
Y-154334D01*
X-294997Y-156000D01*
X-298329D01*
X-299995Y-154334D01*
Y-147669D01*
X-298329Y-146003D01*
X-303998Y-180003D02*
X-300666D01*
X-299000Y-181669D01*
Y-188334D01*
X-300666Y-190000D01*
X-303998D01*
X-305665Y-188334D01*
Y-181669D01*
X-303998Y-180003D01*
X-308997D02*
Y-188334D01*
X-310663Y-190000D01*
X-313995D01*
X-315661Y-188334D01*
Y-180003D01*
X-318993D02*
X-325658D01*
X-322326D01*
Y-190000D01*
X-347000Y-56003D02*
Y-62668D01*
X-350332Y-66000D01*
X-353665Y-62668D01*
Y-56003D01*
X-356997D02*
Y-66000D01*
X-361995D01*
X-363661Y-64334D01*
Y-57669D01*
X-361995Y-56003D01*
X-356997D01*
X-366994D02*
Y-66000D01*
X-371992D01*
X-373658Y-64334D01*
Y-57669D01*
X-371992Y-56003D01*
X-366994D01*
X-320664Y-64003D02*
X-314000D01*
Y-69002D01*
X-317332Y-67336D01*
X-318998D01*
X-320664Y-69002D01*
Y-72334D01*
X-318998Y-74000D01*
X-315666D01*
X-314000Y-72334D01*
X-323997Y-64003D02*
Y-70668D01*
X-327329Y-74000D01*
X-330661Y-70668D01*
Y-64003D01*
X110000Y312997D02*
X106668D01*
X108334D01*
Y303000D01*
X110000D01*
X106668D01*
X96671Y312997D02*
X100003D01*
X101669Y311331D01*
Y304666D01*
X100003Y303000D01*
X96671D01*
X95005Y304666D01*
Y311331D01*
X96671Y312997D01*
X137000Y348997D02*
X133668D01*
X135334D01*
Y339000D01*
X137000D01*
X133668D01*
X128669D02*
Y348997D01*
X122005Y339000D01*
Y348997D01*
X3000Y369997D02*
Y363332D01*
X-332Y360000D01*
X-3665Y363332D01*
Y369997D01*
X-6997D02*
Y360000D01*
X-11995D01*
X-13661Y361666D01*
Y368331D01*
X-11995Y369997D01*
X-6997D01*
X-16994D02*
Y360000D01*
X-21992D01*
X-23658Y361666D01*
Y368331D01*
X-21992Y369997D01*
X-16994D01*
X10336Y331997D02*
X17000D01*
Y326998D01*
X13668Y328665D01*
X12002D01*
X10336Y326998D01*
Y323666D01*
X12002Y322000D01*
X15334D01*
X17000Y323666D01*
X7003Y331997D02*
Y325332D01*
X3671Y322000D01*
X339Y325332D01*
Y331997D01*
X332250Y46247D02*
X328918D01*
X330584D01*
Y36250D01*
X332250D01*
X328918D01*
X318921Y46247D02*
X322253D01*
X323919Y44581D01*
Y37916D01*
X322253Y36250D01*
X318921D01*
X317255Y37916D01*
Y44581D01*
X318921Y46247D01*
X363002Y65997D02*
X366334D01*
X368000Y64331D01*
Y57666D01*
X366334Y56000D01*
X363002D01*
X361335Y57666D01*
Y64331D01*
X363002Y65997D01*
X358003D02*
Y57666D01*
X356337Y56000D01*
X353005D01*
X351339Y57666D01*
Y65997D01*
X348006D02*
X341342D01*
X344674D01*
Y56000D01*
X368000Y-54003D02*
Y-60668D01*
X364668Y-64000D01*
X361335Y-60668D01*
Y-54003D01*
X358003D02*
Y-64000D01*
X353005D01*
X351339Y-62334D01*
Y-55669D01*
X353005Y-54003D01*
X358003D01*
X348006D02*
Y-64000D01*
X343008D01*
X341342Y-62334D01*
Y-55669D01*
X343008Y-54003D01*
X348006D01*
X322085Y-34753D02*
X328750D01*
Y-39752D01*
X325418Y-38085D01*
X323752D01*
X322085Y-39752D01*
Y-43084D01*
X323752Y-44750D01*
X327084D01*
X328750Y-43084D01*
X318753Y-34753D02*
Y-41418D01*
X315421Y-44750D01*
X312089Y-41418D01*
Y-34753D01*
X232035Y253085D02*
X228703D01*
X230369D01*
Y243089D01*
X232035D01*
X228703D01*
X218706Y253085D02*
X222038D01*
X223704Y251419D01*
Y244755D01*
X222038Y243089D01*
X218706D01*
X217040Y244755D01*
Y251419D01*
X218706Y253085D01*
X342000Y188997D02*
Y182332D01*
X338668Y179000D01*
X335336Y182332D01*
Y188997D01*
X332003D02*
Y179000D01*
X327005D01*
X325339Y180666D01*
Y187331D01*
X327005Y188997D01*
X332003D01*
X322006D02*
Y179000D01*
X317008D01*
X315342Y180666D01*
Y187331D01*
X317008Y188997D01*
X322006D01*
X283335Y182997D02*
X290000D01*
Y177998D01*
X286668Y179664D01*
X285002D01*
X283335Y177998D01*
Y174666D01*
X285002Y173000D01*
X288334D01*
X290000Y174666D01*
X280003Y182997D02*
Y176332D01*
X276671Y173000D01*
X273339Y176332D01*
Y182997D01*
X-11997Y122500D02*
Y119168D01*
Y120834D01*
X-2000D01*
Y122500D01*
Y119168D01*
X-11997Y114169D02*
X-2000D01*
Y107505D01*
X-11997Y99174D02*
Y102506D01*
X-10331Y104173D01*
X-3666D01*
X-2000Y102506D01*
Y99174D01*
X-3666Y97508D01*
X-10331D01*
X-11997Y99174D01*
X-2000Y94176D02*
X-11997D01*
Y89177D01*
X-10331Y87511D01*
X-6998D01*
X-5332Y89177D01*
Y94176D01*
Y90843D02*
X-2000Y87511D01*
X-11997Y84179D02*
X-2000D01*
Y79181D01*
X-3666Y77515D01*
X-10331D01*
X-11997Y79181D01*
Y84179D01*
X-2000Y74182D02*
X-8665D01*
X-11997Y70850D01*
X-8665Y67518D01*
X-2000D01*
X-6998D01*
Y74182D01*
X-10331Y57521D02*
X-11997Y59187D01*
Y62519D01*
X-10331Y64185D01*
X-8665D01*
X-6998Y62519D01*
Y59187D01*
X-5332Y57521D01*
X-3666D01*
X-2000Y59187D01*
Y62519D01*
X-3666Y64185D01*
X-11997Y54189D02*
X-2000D01*
X-6998D01*
Y47524D01*
X-11997D01*
X-2000D01*
X-11997Y34195D02*
X-2000D01*
X-6998D01*
Y27531D01*
X-11997D01*
X-2000D01*
Y24198D02*
X-8665D01*
X-11997Y20866D01*
X-8665Y17534D01*
X-2000D01*
X-6998D01*
Y24198D01*
X-3666Y7537D02*
X-10331D01*
X-11997Y9203D01*
Y12535D01*
X-10331Y14202D01*
X-3666D01*
X-2000Y12535D01*
Y9203D01*
X-5332Y10869D02*
X-2000Y7537D01*
Y9203D02*
X-3666Y7537D01*
X-8665Y4205D02*
X-3666D01*
X-2000Y2539D01*
Y-2460D01*
X-8665D01*
X-11997Y-5792D02*
X-2000D01*
Y-10790D01*
X-3666Y-12457D01*
X-10331D01*
X-11997Y-10790D01*
Y-5792D01*
X-2000Y-15789D02*
X-8665D01*
X-11997Y-19121D01*
X-8665Y-22453D01*
X-2000D01*
X-6998D01*
Y-15789D01*
X-11997Y-35782D02*
X-3666D01*
X-2000Y-37448D01*
Y-40781D01*
X-3666Y-42447D01*
X-11997D01*
X-2000Y-45779D02*
X-11997D01*
Y-50778D01*
X-10331Y-52444D01*
X-6998D01*
X-5332Y-50778D01*
Y-45779D01*
X-2000Y-55776D02*
X-11997D01*
Y-60774D01*
X-10331Y-62440D01*
X-6998D01*
X-5332Y-60774D01*
Y-55776D01*
X-11997Y-72437D02*
Y-65773D01*
X-2000D01*
Y-72437D01*
X-6998Y-65773D02*
Y-69105D01*
X-2000Y-75770D02*
X-11997D01*
Y-80768D01*
X-10331Y-82434D01*
X-6998D01*
X-5332Y-80768D01*
Y-75770D01*
Y-79102D02*
X-2000Y-82434D01*
Y-95763D02*
X-11997D01*
Y-100761D01*
X-10331Y-102428D01*
X-6998D01*
X-5332Y-100761D01*
Y-95763D01*
X-10331Y-112424D02*
X-11997Y-110758D01*
Y-107426D01*
X-10331Y-105760D01*
X-3666D01*
X-2000Y-107426D01*
Y-110758D01*
X-3666Y-112424D01*
X-11997Y-115757D02*
X-2000D01*
Y-120755D01*
X-3666Y-122421D01*
X-5332D01*
X-6998Y-120755D01*
Y-115757D01*
Y-120755D01*
X-8665Y-122421D01*
X-10331D01*
X-11997Y-120755D01*
Y-115757D01*
X150831Y143748D02*
Y135418D01*
X149164Y133752D01*
X145832D01*
X144166Y135418D01*
Y143748D01*
X135836Y133752D02*
Y143748D01*
X140834Y138750D01*
X134169D01*
X84327Y198002D02*
Y204666D01*
X80995Y207998D01*
X77663Y204666D01*
Y198002D01*
Y203000D01*
X84327D01*
X74331Y207998D02*
Y198002D01*
Y203000D01*
X67666D01*
Y207998D01*
Y198002D01*
X64334Y207998D02*
Y198002D01*
X57669D01*
X54337Y207998D02*
Y198002D01*
X49339D01*
X47673Y199668D01*
Y201334D01*
X49339Y203000D01*
X54337D01*
X49339D01*
X47673Y204666D01*
Y206332D01*
X49339Y207998D01*
X54337D01*
X172329D02*
X165665D01*
X168997D01*
Y198002D01*
X157334Y207998D02*
X160666D01*
X162332Y206332D01*
Y199668D01*
X160666Y198002D01*
X157334D01*
X155668Y199668D01*
Y206332D01*
X157334Y207998D01*
X145671Y206332D02*
X147337Y207998D01*
X150669D01*
X152336Y206332D01*
Y199668D01*
X150669Y198002D01*
X147337D01*
X145671Y199668D01*
Y203000D01*
X149003D01*
X-168673Y149002D02*
Y155666D01*
X-172005Y158998D01*
X-175337Y155666D01*
Y149002D01*
Y154000D01*
X-168673D01*
X-178669Y158998D02*
Y149002D01*
Y154000D01*
X-185334D01*
Y158998D01*
Y149002D01*
X-188666Y158998D02*
Y149002D01*
X-195331D01*
X-198663Y158998D02*
Y149002D01*
X-203661D01*
X-205327Y150668D01*
Y152334D01*
X-203661Y154000D01*
X-198663D01*
X-203661D01*
X-205327Y155666D01*
Y157332D01*
X-203661Y158998D01*
X-198663D01*
X-80671D02*
X-87336D01*
X-84003D01*
Y149002D01*
X-95666Y158998D02*
X-92334D01*
X-90668Y157332D01*
Y150668D01*
X-92334Y149002D01*
X-95666D01*
X-97332Y150668D01*
Y157332D01*
X-95666Y158998D01*
X-107329Y157332D02*
X-105663Y158998D01*
X-102331D01*
X-100665Y157332D01*
Y150668D01*
X-102331Y149002D01*
X-105663D01*
X-107329Y150668D01*
Y154000D01*
X-103997D01*
X-143173Y-178748D02*
Y-172084D01*
X-146505Y-168752D01*
X-149837Y-172084D01*
Y-178748D01*
Y-173750D01*
X-143173D01*
X-153169Y-168752D02*
Y-178748D01*
Y-173750D01*
X-159834D01*
Y-168752D01*
Y-178748D01*
X-163166Y-168752D02*
Y-178748D01*
X-169831D01*
X-173163Y-168752D02*
Y-178748D01*
X-178161D01*
X-179827Y-177082D01*
Y-175416D01*
X-178161Y-173750D01*
X-173163D01*
X-178161D01*
X-179827Y-172084D01*
Y-170418D01*
X-178161Y-168752D01*
X-173163D01*
X-149171Y-95752D02*
X-155836D01*
X-152503D01*
Y-105748D01*
X-164166Y-95752D02*
X-160834D01*
X-159168Y-97418D01*
Y-104082D01*
X-160834Y-105748D01*
X-164166D01*
X-165832Y-104082D01*
Y-97418D01*
X-164166Y-95752D01*
X-175829Y-97418D02*
X-174163Y-95752D01*
X-170831D01*
X-169165Y-97418D01*
Y-104082D01*
X-170831Y-105748D01*
X-174163D01*
X-175829Y-104082D01*
Y-100750D01*
X-172497D01*
X204077Y-166748D02*
Y-160084D01*
X200745Y-156752D01*
X197413Y-160084D01*
Y-166748D01*
Y-161750D01*
X204077D01*
X194081Y-156752D02*
Y-166748D01*
Y-161750D01*
X187416D01*
Y-156752D01*
Y-166748D01*
X184084Y-156752D02*
Y-166748D01*
X177419D01*
X174087Y-156752D02*
Y-166748D01*
X169089D01*
X167423Y-165082D01*
Y-163416D01*
X169089Y-161750D01*
X174087D01*
X169089D01*
X167423Y-160084D01*
Y-158418D01*
X169089Y-156752D01*
X174087D01*
X108079Y-156002D02*
X101414D01*
X104747D01*
Y-165998D01*
X93084Y-156002D02*
X96416D01*
X98082Y-157668D01*
Y-164332D01*
X96416Y-165998D01*
X93084D01*
X91418Y-164332D01*
Y-157668D01*
X93084Y-156002D01*
X81421Y-157668D02*
X83087Y-156002D01*
X86419D01*
X88085Y-157668D01*
Y-164332D01*
X86419Y-165998D01*
X83087D01*
X81421Y-164332D01*
Y-161000D01*
X84753D01*
X-102419Y99998D02*
Y91668D01*
X-104086Y90002D01*
X-107418D01*
X-109084Y91668D01*
Y99998D01*
X-112416Y98332D02*
X-114082Y99998D01*
X-117415D01*
X-119081Y98332D01*
Y96666D01*
X-117415Y95000D01*
X-115748D01*
X-117415D01*
X-119081Y93334D01*
Y91668D01*
X-117415Y90002D01*
X-114082D01*
X-112416Y91668D01*
X-86669Y-106002D02*
Y-114332D01*
X-88336Y-115998D01*
X-91668D01*
X-93334Y-114332D01*
Y-106002D01*
X-103331Y-115998D02*
X-96666D01*
X-103331Y-109334D01*
Y-107668D01*
X-101664Y-106002D01*
X-98332D01*
X-96666Y-107668D01*
X114916Y106582D02*
X116582Y108248D01*
X119915D01*
X121581Y106582D01*
Y99918D01*
X119915Y98252D01*
X116582D01*
X114916Y99918D01*
X111584D02*
X109918Y98252D01*
X106586D01*
X104919Y99918D01*
Y106582D01*
X106586Y108248D01*
X109918D01*
X111584Y106582D01*
Y104916D01*
X109918Y103250D01*
X104919D01*
X116666Y257332D02*
X118332Y258998D01*
X121664D01*
X123331Y257332D01*
Y250668D01*
X121664Y249002D01*
X118332D01*
X116666Y250668D01*
X113334Y257332D02*
X111668Y258998D01*
X108336D01*
X106669Y257332D01*
Y255666D01*
X108336Y254000D01*
X106669Y252334D01*
Y250668D01*
X108336Y249002D01*
X111668D01*
X113334Y250668D01*
Y252334D01*
X111668Y254000D01*
X113334Y255666D01*
Y257332D01*
X111668Y254000D02*
X108336D01*
X-190084Y115832D02*
X-188418Y117498D01*
X-185086D01*
X-183419Y115832D01*
Y109168D01*
X-185086Y107502D01*
X-188418D01*
X-190084Y109168D01*
X-193416Y117498D02*
X-200081D01*
Y115832D01*
X-193416Y109168D01*
Y107502D01*
X-136334Y205332D02*
X-134668Y206998D01*
X-131335D01*
X-129669Y205332D01*
Y198668D01*
X-131335Y197002D01*
X-134668D01*
X-136334Y198668D01*
X-146331Y206998D02*
X-142998Y205332D01*
X-139666Y202000D01*
Y198668D01*
X-141332Y197002D01*
X-144664D01*
X-146331Y198668D01*
Y200334D01*
X-144664Y202000D01*
X-139666D01*
X-117334Y-181668D02*
X-115668Y-180002D01*
X-112336D01*
X-110669Y-181668D01*
Y-188332D01*
X-112336Y-189998D01*
X-115668D01*
X-117334Y-188332D01*
X-127331Y-180002D02*
X-120666D01*
Y-185000D01*
X-123998Y-183334D01*
X-125665D01*
X-127331Y-185000D01*
Y-188332D01*
X-125665Y-189998D01*
X-122332D01*
X-120666Y-188332D01*
X-217334Y-132918D02*
X-215668Y-131252D01*
X-212335D01*
X-210669Y-132918D01*
Y-139582D01*
X-212335Y-141248D01*
X-215668D01*
X-217334Y-139582D01*
X-225665Y-141248D02*
Y-131252D01*
X-220666Y-136250D01*
X-227331D01*
X189666Y-110168D02*
X191332Y-108502D01*
X194664D01*
X196331Y-110168D01*
Y-116832D01*
X194664Y-118498D01*
X191332D01*
X189666Y-116832D01*
X186334Y-110168D02*
X184668Y-108502D01*
X181336D01*
X179669Y-110168D01*
Y-111834D01*
X181336Y-113500D01*
X183002D01*
X181336D01*
X179669Y-115166D01*
Y-116832D01*
X181336Y-118498D01*
X184668D01*
X186334Y-116832D01*
X139166Y-206668D02*
X140832Y-205002D01*
X144164D01*
X145831Y-206668D01*
Y-213332D01*
X144164Y-214998D01*
X140832D01*
X139166Y-213332D01*
X129169Y-214998D02*
X135834D01*
X129169Y-208334D01*
Y-206668D01*
X130836Y-205002D01*
X134168D01*
X135834Y-206668D01*
X201000Y83332D02*
X202666Y84998D01*
X205998D01*
X207665Y83332D01*
Y76668D01*
X205998Y75002D01*
X202666D01*
X201000Y76668D01*
X197668Y75002D02*
X194335D01*
X196002D01*
Y84998D01*
X197668Y83332D01*
X174663Y-29002D02*
Y-35666D01*
X171331Y-38998D01*
X167998Y-35666D01*
Y-29002D01*
X164666D02*
Y-38998D01*
X159668D01*
X158002Y-37332D01*
Y-30668D01*
X159668Y-29002D01*
X164666D01*
X154669Y-38998D02*
X151337D01*
X153003D01*
Y-29002D01*
X154669Y-30668D01*
X114664Y-89002D02*
Y-97332D01*
X112998Y-98998D01*
X109666D01*
X108000Y-97332D01*
Y-89002D01*
X104668Y-98998D02*
X101335D01*
X103002D01*
Y-89002D01*
X104668Y-90668D01*
D79*
X331000Y-163000D02*
G03*
X358791Y-74680I-317033J148290D01*
G01*
X200500Y-57000D02*
G03*
X200500Y-57000I-2500J0D01*
G01*
X331000Y-163000D02*
X349825Y-149513D01*
X329564Y-141670D02*
X330967Y-162710D01*
D119*
X125000Y137000D02*
G03*
X125000Y137000I-500J0D01*
G01*
X-127750Y96000D02*
G03*
X-127750Y96000I-500J0D01*
G01*
X-100500Y-128000D02*
G03*
X-100500Y-128000I-500J0D01*
G01*
X128500Y-97000D02*
G03*
X128500Y-97000I-500J0D01*
G01*
X-99497Y41168D02*
Y43834D01*
Y42501D01*
X-92833D01*
X-91500Y43834D01*
Y45167D01*
X-92833Y46500D01*
X-99497Y38503D02*
X-91500D01*
Y33171D01*
X-98165Y25174D02*
X-99497Y26507D01*
Y29172D01*
X-98165Y30505D01*
X-92833D01*
X-91500Y29172D01*
Y26507D01*
X-92833Y25174D01*
X-99497Y17176D02*
Y19842D01*
Y18509D01*
X-92833D01*
X-91500Y19842D01*
Y21175D01*
X-92833Y22508D01*
X-99497Y14510D02*
X-91500D01*
Y9179D01*
X-98165Y1181D02*
X-99497Y2514D01*
Y5180D01*
X-98165Y6513D01*
X-92833D01*
X-91500Y5180D01*
Y2514D01*
X-92833Y1181D01*
X-99497Y-6816D02*
Y-4150D01*
Y-5483D01*
X-92833D01*
X-91500Y-4150D01*
Y-2817D01*
X-92833Y-1485D01*
X-99497Y-9482D02*
X-91500D01*
Y-14813D01*
X-98165Y-22811D02*
X-99497Y-21478D01*
Y-18812D01*
X-98165Y-17479D01*
X-92833D01*
X-91500Y-18812D01*
Y-21478D01*
X-92833Y-22811D01*
X-99497Y-30808D02*
Y-28142D01*
Y-29476D01*
X-92833D01*
X-91500Y-28142D01*
Y-26810D01*
X-92833Y-25477D01*
X-99497Y-33474D02*
X-91500D01*
Y-38806D01*
X-98165Y-46803D02*
X-99497Y-45470D01*
Y-42804D01*
X-98165Y-41472D01*
X-92833D01*
X-91500Y-42804D01*
Y-45470D01*
X-92833Y-46803D01*
X254878Y23000D02*
Y32997D01*
X259876Y27998D02*
X249879D01*
M02*
