G04*
G04 #@! TF.GenerationSoftware,Altium Limited,Altium Designer,21.7.2 (23)*
G04*
G04 Layer_Physical_Order=2*
G04 Layer_Color=16711680*
%FSLAX25Y25*%
%MOIN*%
G70*
G04*
G04 #@! TF.SameCoordinates,4EB03F82-40D2-4175-A11E-0564D1C33967*
G04*
G04*
G04 #@! TF.FilePolarity,Positive*
G04*
G01*
G75*
%ADD10C,0.00787*%
%ADD24C,0.00984*%
G04:AMPARAMS|DCode=26|XSize=78.74mil|YSize=118.11mil|CornerRadius=0mil|HoleSize=0mil|Usage=FLASHONLY|Rotation=230.000|XOffset=0mil|YOffset=0mil|HoleType=Round|Shape=Rectangle|*
%AMROTATEDRECTD26*
4,1,4,-0.01993,0.06812,0.07055,-0.00780,0.01993,-0.06812,-0.07055,0.00780,-0.01993,0.06812,0.0*
%
%ADD26ROTATEDRECTD26*%

%ADD27C,0.07874*%
G04:AMPARAMS|DCode=28|XSize=70.87mil|YSize=78.74mil|CornerRadius=0mil|HoleSize=0mil|Usage=FLASHONLY|Rotation=140.000|XOffset=0mil|YOffset=0mil|HoleType=Round|Shape=Rectangle|*
%AMROTATEDRECTD28*
4,1,4,0.05245,0.00738,0.00184,-0.05294,-0.05245,-0.00738,-0.00184,0.05294,0.05245,0.00738,0.0*
%
%ADD28ROTATEDRECTD28*%

G04:AMPARAMS|DCode=29|XSize=78.74mil|YSize=118.11mil|CornerRadius=0mil|HoleSize=0mil|Usage=FLASHONLY|Rotation=10.000|XOffset=0mil|YOffset=0mil|HoleType=Round|Shape=Rectangle|*
%AMROTATEDRECTD29*
4,1,4,-0.02852,-0.06500,-0.04903,0.05132,0.02852,0.06500,0.04903,-0.05132,-0.02852,-0.06500,0.0*
%
%ADD29ROTATEDRECTD29*%

G04:AMPARAMS|DCode=30|XSize=70.87mil|YSize=78.74mil|CornerRadius=0mil|HoleSize=0mil|Usage=FLASHONLY|Rotation=100.000|XOffset=0mil|YOffset=0mil|HoleType=Round|Shape=Rectangle|*
%AMROTATEDRECTD30*
4,1,4,0.04493,-0.02806,-0.03262,-0.04173,-0.04493,0.02806,0.03262,0.04173,0.04493,-0.02806,0.0*
%
%ADD30ROTATEDRECTD30*%

G04:AMPARAMS|DCode=31|XSize=78.74mil|YSize=118.11mil|CornerRadius=0mil|HoleSize=0mil|Usage=FLASHONLY|Rotation=150.000|XOffset=0mil|YOffset=0mil|HoleType=Round|Shape=Rectangle|*
%AMROTATEDRECTD31*
4,1,4,0.06362,0.03146,0.00457,-0.07083,-0.06362,-0.03146,-0.00457,0.07083,0.06362,0.03146,0.0*
%
%ADD31ROTATEDRECTD31*%

G04:AMPARAMS|DCode=32|XSize=70.87mil|YSize=78.74mil|CornerRadius=0mil|HoleSize=0mil|Usage=FLASHONLY|Rotation=60.000|XOffset=0mil|YOffset=0mil|HoleType=Round|Shape=Rectangle|*
%AMROTATEDRECTD32*
4,1,4,0.01638,-0.05037,-0.05181,-0.01100,-0.01638,0.05037,0.05181,0.01100,0.01638,-0.05037,0.0*
%
%ADD32ROTATEDRECTD32*%

G04:AMPARAMS|DCode=33|XSize=78.74mil|YSize=118.11mil|CornerRadius=0mil|HoleSize=0mil|Usage=FLASHONLY|Rotation=210.000|XOffset=0mil|YOffset=0mil|HoleType=Round|Shape=Rectangle|*
%AMROTATEDRECTD33*
4,1,4,0.00457,0.07083,0.06362,-0.03146,-0.00457,-0.07083,-0.06362,0.03146,0.00457,0.07083,0.0*
%
%ADD33ROTATEDRECTD33*%

G04:AMPARAMS|DCode=34|XSize=70.87mil|YSize=78.74mil|CornerRadius=0mil|HoleSize=0mil|Usage=FLASHONLY|Rotation=300.000|XOffset=0mil|YOffset=0mil|HoleType=Round|Shape=Rectangle|*
%AMROTATEDRECTD34*
4,1,4,-0.05181,0.01100,0.01638,0.05037,0.05181,-0.01100,-0.01638,-0.05037,-0.05181,0.01100,0.0*
%
%ADD34ROTATEDRECTD34*%

G04:AMPARAMS|DCode=35|XSize=78.74mil|YSize=118.11mil|CornerRadius=0mil|HoleSize=0mil|Usage=FLASHONLY|Rotation=70.000|XOffset=0mil|YOffset=0mil|HoleType=Round|Shape=Rectangle|*
%AMROTATEDRECTD35*
4,1,4,0.04203,-0.05719,-0.06896,-0.01680,-0.04203,0.05719,0.06896,0.01680,0.04203,-0.05719,0.0*
%
%ADD35ROTATEDRECTD35*%

G04:AMPARAMS|DCode=36|XSize=70.87mil|YSize=78.74mil|CornerRadius=0mil|HoleSize=0mil|Usage=FLASHONLY|Rotation=340.000|XOffset=0mil|YOffset=0mil|HoleType=Round|Shape=Rectangle|*
%AMROTATEDRECTD36*
4,1,4,-0.04676,-0.02488,-0.01983,0.04912,0.04676,0.02488,0.01983,-0.04912,-0.04676,-0.02488,0.0*
%
%ADD36ROTATEDRECTD36*%

G04:AMPARAMS|DCode=37|XSize=78.74mil|YSize=118.11mil|CornerRadius=0mil|HoleSize=0mil|Usage=FLASHONLY|Rotation=290.000|XOffset=0mil|YOffset=0mil|HoleType=Round|Shape=Rectangle|*
%AMROTATEDRECTD37*
4,1,4,-0.06896,0.01680,0.04203,0.05719,0.06896,-0.01680,-0.04203,-0.05719,-0.06896,0.01680,0.0*
%
%ADD37ROTATEDRECTD37*%

G04:AMPARAMS|DCode=38|XSize=70.87mil|YSize=78.74mil|CornerRadius=0mil|HoleSize=0mil|Usage=FLASHONLY|Rotation=20.000|XOffset=0mil|YOffset=0mil|HoleType=Round|Shape=Rectangle|*
%AMROTATEDRECTD38*
4,1,4,-0.01983,-0.04912,-0.04676,0.02488,0.01983,0.04912,0.04676,-0.02488,-0.01983,-0.04912,0.0*
%
%ADD38ROTATEDRECTD38*%

G04:AMPARAMS|DCode=39|XSize=78.74mil|YSize=118.11mil|CornerRadius=0mil|HoleSize=0mil|Usage=FLASHONLY|Rotation=350.000|XOffset=0mil|YOffset=0mil|HoleType=Round|Shape=Rectangle|*
%AMROTATEDRECTD39*
4,1,4,-0.04903,-0.05132,-0.02852,0.06500,0.04903,0.05132,0.02852,-0.06500,-0.04903,-0.05132,0.0*
%
%ADD39ROTATEDRECTD39*%

G04:AMPARAMS|DCode=40|XSize=70.87mil|YSize=78.74mil|CornerRadius=0mil|HoleSize=0mil|Usage=FLASHONLY|Rotation=260.000|XOffset=0mil|YOffset=0mil|HoleType=Round|Shape=Rectangle|*
%AMROTATEDRECTD40*
4,1,4,-0.03262,0.04173,0.04493,0.02806,0.03262,-0.04173,-0.04493,-0.02806,-0.03262,0.04173,0.0*
%
%ADD40ROTATEDRECTD40*%

%ADD41R,0.11811X0.07874*%
%ADD42R,0.07087X0.07874*%
G04:AMPARAMS|DCode=43|XSize=78.74mil|YSize=118.11mil|CornerRadius=0mil|HoleSize=0mil|Usage=FLASHONLY|Rotation=130.000|XOffset=0mil|YOffset=0mil|HoleType=Round|Shape=Rectangle|*
%AMROTATEDRECTD43*
4,1,4,0.07055,0.00780,-0.01993,-0.06812,-0.07055,-0.00780,0.01993,0.06812,0.07055,0.00780,0.0*
%
%ADD43ROTATEDRECTD43*%

G04:AMPARAMS|DCode=44|XSize=70.87mil|YSize=78.74mil|CornerRadius=0mil|HoleSize=0mil|Usage=FLASHONLY|Rotation=220.000|XOffset=0mil|YOffset=0mil|HoleType=Round|Shape=Rectangle|*
%AMROTATEDRECTD44*
4,1,4,0.00184,0.05294,0.05245,-0.00738,-0.00184,-0.05294,-0.05245,0.00738,0.00184,0.05294,0.0*
%
%ADD44ROTATEDRECTD44*%

%ADD45C,0.03937*%
G04:AMPARAMS|DCode=46|XSize=86.61mil|YSize=401.58mil|CornerRadius=43.31mil|HoleSize=0mil|Usage=FLASHONLY|Rotation=140.000|XOffset=0mil|YOffset=0mil|HoleType=Round|Shape=RoundedRectangle|*
%AMROUNDEDRECTD46*
21,1,0.08661,0.31496,0,0,140.0*
21,1,0.00000,0.40158,0,0,140.0*
1,1,0.08661,0.10123,0.12064*
1,1,0.08661,0.10123,0.12064*
1,1,0.08661,-0.10123,-0.12064*
1,1,0.08661,-0.10123,-0.12064*
%
%ADD46ROUNDEDRECTD46*%
G04:AMPARAMS|DCode=47|XSize=86.61mil|YSize=401.58mil|CornerRadius=43.31mil|HoleSize=0mil|Usage=FLASHONLY|Rotation=100.000|XOffset=0mil|YOffset=0mil|HoleType=Round|Shape=RoundedRectangle|*
%AMROUNDEDRECTD47*
21,1,0.08661,0.31496,0,0,100.0*
21,1,0.00000,0.40158,0,0,100.0*
1,1,0.08661,0.15509,0.02735*
1,1,0.08661,0.15509,0.02735*
1,1,0.08661,-0.15509,-0.02735*
1,1,0.08661,-0.15509,-0.02735*
%
%ADD47ROUNDEDRECTD47*%
G04:AMPARAMS|DCode=48|XSize=86.61mil|YSize=401.58mil|CornerRadius=43.31mil|HoleSize=0mil|Usage=FLASHONLY|Rotation=60.000|XOffset=0mil|YOffset=0mil|HoleType=Round|Shape=RoundedRectangle|*
%AMROUNDEDRECTD48*
21,1,0.08661,0.31496,0,0,60.0*
21,1,0.00000,0.40158,0,0,60.0*
1,1,0.08661,0.13638,-0.07874*
1,1,0.08661,0.13638,-0.07874*
1,1,0.08661,-0.13638,0.07874*
1,1,0.08661,-0.13638,0.07874*
%
%ADD48ROUNDEDRECTD48*%
G04:AMPARAMS|DCode=49|XSize=86.61mil|YSize=401.58mil|CornerRadius=43.31mil|HoleSize=0mil|Usage=FLASHONLY|Rotation=300.000|XOffset=0mil|YOffset=0mil|HoleType=Round|Shape=RoundedRectangle|*
%AMROUNDEDRECTD49*
21,1,0.08661,0.31496,0,0,300.0*
21,1,0.00000,0.40158,0,0,300.0*
1,1,0.08661,-0.13638,-0.07874*
1,1,0.08661,-0.13638,-0.07874*
1,1,0.08661,0.13638,0.07874*
1,1,0.08661,0.13638,0.07874*
%
%ADD49ROUNDEDRECTD49*%
G04:AMPARAMS|DCode=50|XSize=86.61mil|YSize=401.58mil|CornerRadius=43.31mil|HoleSize=0mil|Usage=FLASHONLY|Rotation=340.000|XOffset=0mil|YOffset=0mil|HoleType=Round|Shape=RoundedRectangle|*
%AMROUNDEDRECTD50*
21,1,0.08661,0.31496,0,0,340.0*
21,1,0.00000,0.40158,0,0,340.0*
1,1,0.08661,-0.05386,-0.14798*
1,1,0.08661,-0.05386,-0.14798*
1,1,0.08661,0.05386,0.14798*
1,1,0.08661,0.05386,0.14798*
%
%ADD50ROUNDEDRECTD50*%
G04:AMPARAMS|DCode=51|XSize=86.61mil|YSize=401.58mil|CornerRadius=43.31mil|HoleSize=0mil|Usage=FLASHONLY|Rotation=20.000|XOffset=0mil|YOffset=0mil|HoleType=Round|Shape=RoundedRectangle|*
%AMROUNDEDRECTD51*
21,1,0.08661,0.31496,0,0,20.0*
21,1,0.00000,0.40158,0,0,20.0*
1,1,0.08661,0.05386,-0.14798*
1,1,0.08661,0.05386,-0.14798*
1,1,0.08661,-0.05386,0.14798*
1,1,0.08661,-0.05386,0.14798*
%
%ADD51ROUNDEDRECTD51*%
G04:AMPARAMS|DCode=52|XSize=86.61mil|YSize=401.58mil|CornerRadius=43.31mil|HoleSize=0mil|Usage=FLASHONLY|Rotation=260.000|XOffset=0mil|YOffset=0mil|HoleType=Round|Shape=RoundedRectangle|*
%AMROUNDEDRECTD52*
21,1,0.08661,0.31496,0,0,260.0*
21,1,0.00000,0.40158,0,0,260.0*
1,1,0.08661,-0.15509,0.02735*
1,1,0.08661,-0.15509,0.02735*
1,1,0.08661,0.15509,-0.02735*
1,1,0.08661,0.15509,-0.02735*
%
%ADD52ROUNDEDRECTD52*%
G04:AMPARAMS|DCode=53|XSize=86.61mil|YSize=401.58mil|CornerRadius=43.31mil|HoleSize=0mil|Usage=FLASHONLY|Rotation=180.000|XOffset=0mil|YOffset=0mil|HoleType=Round|Shape=RoundedRectangle|*
%AMROUNDEDRECTD53*
21,1,0.08661,0.31496,0,0,180.0*
21,1,0.00000,0.40158,0,0,180.0*
1,1,0.08661,0.00000,0.15748*
1,1,0.08661,0.00000,0.15748*
1,1,0.08661,0.00000,-0.15748*
1,1,0.08661,0.00000,-0.15748*
%
%ADD53ROUNDEDRECTD53*%
G04:AMPARAMS|DCode=54|XSize=86.61mil|YSize=401.58mil|CornerRadius=43.31mil|HoleSize=0mil|Usage=FLASHONLY|Rotation=220.000|XOffset=0mil|YOffset=0mil|HoleType=Round|Shape=RoundedRectangle|*
%AMROUNDEDRECTD54*
21,1,0.08661,0.31496,0,0,220.0*
21,1,0.00000,0.40158,0,0,220.0*
1,1,0.08661,-0.10123,0.12064*
1,1,0.08661,-0.10123,0.12064*
1,1,0.08661,0.10123,-0.12064*
1,1,0.08661,0.10123,-0.12064*
%
%ADD54ROUNDEDRECTD54*%
%ADD55C,0.09843*%
%ADD56C,0.01968*%
%ADD57C,0.05315*%
%ADD58R,0.05315X0.05315*%
%ADD59C,0.31496*%
%ADD60C,0.02756*%
%ADD61C,0.01575*%
%ADD62C,0.04724*%
G04:AMPARAMS|DCode=63|XSize=59.06mil|YSize=74.8mil|CornerRadius=0mil|HoleSize=0mil|Usage=FLASHONLY|Rotation=140.000|XOffset=0mil|YOffset=0mil|HoleType=Round|Shape=Rectangle|*
%AMROTATEDRECTD63*
4,1,4,0.04666,0.00967,-0.00142,-0.04763,-0.04666,-0.00967,0.00142,0.04763,0.04666,0.00967,0.0*
%
%ADD63ROTATEDRECTD63*%

G04:AMPARAMS|DCode=64|XSize=59.06mil|YSize=74.8mil|CornerRadius=0mil|HoleSize=0mil|Usage=FLASHONLY|Rotation=100.000|XOffset=0mil|YOffset=0mil|HoleType=Round|Shape=Rectangle|*
%AMROTATEDRECTD64*
4,1,4,0.04196,-0.02258,-0.03171,-0.03557,-0.04196,0.02258,0.03171,0.03557,0.04196,-0.02258,0.0*
%
%ADD64ROTATEDRECTD64*%

G04:AMPARAMS|DCode=65|XSize=59.06mil|YSize=74.8mil|CornerRadius=0mil|HoleSize=0mil|Usage=FLASHONLY|Rotation=60.000|XOffset=0mil|YOffset=0mil|HoleType=Round|Shape=Rectangle|*
%AMROTATEDRECTD65*
4,1,4,0.01763,-0.04427,-0.04715,-0.00687,-0.01763,0.04427,0.04715,0.00687,0.01763,-0.04427,0.0*
%
%ADD65ROTATEDRECTD65*%

G04:AMPARAMS|DCode=66|XSize=59.06mil|YSize=74.8mil|CornerRadius=0mil|HoleSize=0mil|Usage=FLASHONLY|Rotation=300.000|XOffset=0mil|YOffset=0mil|HoleType=Round|Shape=Rectangle|*
%AMROTATEDRECTD66*
4,1,4,-0.04715,0.00687,0.01763,0.04427,0.04715,-0.00687,-0.01763,-0.04427,-0.04715,0.00687,0.0*
%
%ADD66ROTATEDRECTD66*%

G04:AMPARAMS|DCode=67|XSize=59.06mil|YSize=74.8mil|CornerRadius=0mil|HoleSize=0mil|Usage=FLASHONLY|Rotation=340.000|XOffset=0mil|YOffset=0mil|HoleType=Round|Shape=Rectangle|*
%AMROTATEDRECTD67*
4,1,4,-0.04054,-0.02505,-0.01496,0.04525,0.04054,0.02505,0.01496,-0.04525,-0.04054,-0.02505,0.0*
%
%ADD67ROTATEDRECTD67*%

G04:AMPARAMS|DCode=68|XSize=59.06mil|YSize=74.8mil|CornerRadius=0mil|HoleSize=0mil|Usage=FLASHONLY|Rotation=20.000|XOffset=0mil|YOffset=0mil|HoleType=Round|Shape=Rectangle|*
%AMROTATEDRECTD68*
4,1,4,-0.01496,-0.04525,-0.04054,0.02505,0.01496,0.04525,0.04054,-0.02505,-0.01496,-0.04525,0.0*
%
%ADD68ROTATEDRECTD68*%

G04:AMPARAMS|DCode=69|XSize=59.06mil|YSize=74.8mil|CornerRadius=0mil|HoleSize=0mil|Usage=FLASHONLY|Rotation=260.000|XOffset=0mil|YOffset=0mil|HoleType=Round|Shape=Rectangle|*
%AMROTATEDRECTD69*
4,1,4,-0.03171,0.03557,0.04196,0.02258,0.03171,-0.03557,-0.04196,-0.02258,-0.03171,0.03557,0.0*
%
%ADD69ROTATEDRECTD69*%

%ADD70R,0.05906X0.07480*%
G04:AMPARAMS|DCode=71|XSize=59.06mil|YSize=74.8mil|CornerRadius=0mil|HoleSize=0mil|Usage=FLASHONLY|Rotation=220.000|XOffset=0mil|YOffset=0mil|HoleType=Round|Shape=Rectangle|*
%AMROTATEDRECTD71*
4,1,4,-0.00142,0.04763,0.04666,-0.00967,0.00142,-0.04763,-0.04666,0.00967,-0.00142,0.04763,0.0*
%
%ADD71ROTATEDRECTD71*%

G04:AMPARAMS|DCode=72|XSize=19.68mil|YSize=19.68mil|CornerRadius=9.84mil|HoleSize=0mil|Usage=FLASHONLY|Rotation=270.000|XOffset=0mil|YOffset=0mil|HoleType=Round|Shape=RoundedRectangle|*
%AMROUNDEDRECTD72*
21,1,0.01968,0.00000,0,0,270.0*
21,1,0.00000,0.01968,0,0,270.0*
1,1,0.01968,0.00000,0.00000*
1,1,0.01968,0.00000,0.00000*
1,1,0.01968,0.00000,0.00000*
1,1,0.01968,0.00000,0.00000*
%
%ADD72ROUNDEDRECTD72*%
%ADD73R,0.05118X0.03937*%
%ADD74R,0.01968X0.03543*%
G04:AMPARAMS|DCode=75|XSize=19.68mil|YSize=19.68mil|CornerRadius=9.84mil|HoleSize=0mil|Usage=FLASHONLY|Rotation=0.000|XOffset=0mil|YOffset=0mil|HoleType=Round|Shape=RoundedRectangle|*
%AMROUNDEDRECTD75*
21,1,0.01968,0.00000,0,0,0.0*
21,1,0.00000,0.01968,0,0,0.0*
1,1,0.01968,0.00000,0.00000*
1,1,0.01968,0.00000,0.00000*
1,1,0.01968,0.00000,0.00000*
1,1,0.01968,0.00000,0.00000*
%
%ADD75ROUNDEDRECTD75*%
%ADD76R,0.03937X0.05118*%
%ADD77R,0.03543X0.01968*%
%ADD78R,0.12992X0.12992*%
%ADD79C,0.01968*%
%ADD80C,0.01575*%
G36*
X132Y153787D02*
X115Y153693D01*
X5350Y152770D01*
X5076Y151219D01*
X-158Y152142D01*
X-807Y148459D01*
X4423Y147536D01*
X4631Y146777D01*
X4530Y146691D01*
X3764Y145715D01*
X3204Y144608D01*
X2869Y143413D01*
X2775Y142176D01*
X2923Y140944D01*
X3309Y139764D01*
X3918Y138683D01*
X4726Y137741D01*
X5702Y136975D01*
X6809Y136414D01*
X8004Y136080D01*
X10911Y135567D01*
X8490Y121833D01*
X8814Y121776D01*
X9008Y120900D01*
X9476Y119836D01*
X10144Y118883D01*
X10984Y118078D01*
X11965Y117453D01*
X13049Y117032D01*
X14195Y116830D01*
X15358Y116855D01*
X16493Y117107D01*
X17558Y117575D01*
X18511Y118243D01*
X19316Y119083D01*
X19798Y119840D01*
X20121Y119782D01*
X20362Y121148D01*
X20362Y121148D01*
X20564Y122294D01*
Y122294D01*
X22543Y133516D01*
X24482Y133175D01*
X22503Y121952D01*
X22503Y121952D01*
X22301Y120806D01*
Y120806D01*
X22060Y119441D01*
X22384Y119384D01*
X22578Y118508D01*
X23046Y117443D01*
X23714Y116490D01*
X24554Y115686D01*
X25535Y115061D01*
X25709Y114993D01*
Y107997D01*
X8016Y90304D01*
X-23599D01*
X-23769Y90519D01*
X-23388Y91307D01*
X-21539D01*
X-20579Y91498D01*
X-19765Y92042D01*
X-586Y111221D01*
X-347D01*
X504Y111449D01*
X1267Y111889D01*
X1890Y112512D01*
X2331Y113275D01*
X2559Y114126D01*
Y115007D01*
X2331Y115859D01*
X1890Y116622D01*
X1267Y117245D01*
X504Y117685D01*
X-347Y117913D01*
X-1228D01*
X-2079Y117685D01*
X-2842Y117245D01*
X-3465Y116622D01*
X-3906Y115859D01*
X-4134Y115007D01*
Y114769D01*
X-22578Y96325D01*
X-82934D01*
X-91929Y105320D01*
Y105559D01*
X-92157Y106410D01*
X-92598Y107173D01*
X-93221Y107796D01*
X-93984Y108237D01*
X-94835Y108465D01*
X-95716D01*
X-96567Y108237D01*
X-97330Y107796D01*
X-97953Y107173D01*
X-98394Y106410D01*
X-98622Y105559D01*
Y104677D01*
X-98394Y103826D01*
X-97953Y103063D01*
X-97330Y102440D01*
X-96567Y102000D01*
X-95716Y101772D01*
X-95477D01*
X-85747Y92042D01*
X-85200Y91676D01*
X-85361Y90841D01*
X-85414Y90831D01*
X-86065Y90396D01*
X-86500Y89745D01*
X-86653Y88976D01*
Y75950D01*
X-100199Y62404D01*
X-100743Y61590D01*
X-100934Y60630D01*
Y45472D01*
X-100743Y44512D01*
X-100199Y43698D01*
X-86653Y30152D01*
Y29921D01*
X-86500Y29153D01*
X-86065Y28502D01*
X-85414Y28067D01*
X-84646Y27914D01*
X-84415D01*
X-82876Y26376D01*
X-82063Y25832D01*
X-81102Y25641D01*
X-54528D01*
X-53567Y25832D01*
X-52754Y26376D01*
X-51215Y27914D01*
X-25591D01*
X-24823Y28067D01*
X-24171Y28502D01*
X-23736Y29153D01*
X-23584Y29921D01*
Y47364D01*
X-22856Y47665D01*
X793Y24016D01*
X-29131Y-5909D01*
X-29573Y-6484D01*
X-29850Y-7155D01*
X-29945Y-7874D01*
Y-27914D01*
X-55083D01*
X-65735Y-17262D01*
X-65289Y-16594D01*
X-64762Y-16812D01*
X-62519Y-17413D01*
X-60216Y-17717D01*
X-57894D01*
X-55591Y-17413D01*
X-53348Y-16812D01*
X-51202Y-15924D01*
X-49191Y-14762D01*
X-47349Y-13349D01*
X-45706Y-11706D01*
X-44293Y-9864D01*
X-43132Y-7853D01*
X-42243Y-5707D01*
X-41642Y-3464D01*
X-41339Y-1161D01*
Y1161D01*
X-41642Y3464D01*
X-42243Y5707D01*
X-43132Y7853D01*
X-44293Y9864D01*
X-45706Y11706D01*
X-47349Y13349D01*
X-49191Y14762D01*
X-51202Y15924D01*
X-53348Y16812D01*
X-55591Y17413D01*
X-57894Y17717D01*
X-60216D01*
X-62519Y17413D01*
X-64762Y16812D01*
X-66908Y15924D01*
X-68919Y14762D01*
X-70762Y13349D01*
X-72404Y11706D01*
X-73817Y9864D01*
X-74979Y7853D01*
X-75867Y5707D01*
X-76468Y3464D01*
X-76772Y1161D01*
Y-1161D01*
X-76468Y-3464D01*
X-75867Y-5707D01*
X-75649Y-6234D01*
X-76317Y-6680D01*
X-97023Y14026D01*
Y34595D01*
X-97214Y35555D01*
X-97758Y36369D01*
X-108071Y46682D01*
X-107877Y47215D01*
X-107700Y48365D01*
X-107751Y49527D01*
X-108027Y50657D01*
X-108519Y51711D01*
X-109207Y52649D01*
X-109868Y53255D01*
X-109756Y53564D01*
X-111059Y54039D01*
X-111059Y54039D01*
X-112152Y54436D01*
X-112152Y54436D01*
X-122861Y58334D01*
X-121851Y61109D01*
X-121543Y62311D01*
X-121475Y63550D01*
X-121650Y64778D01*
X-122062Y65949D01*
X-122694Y67016D01*
X-123522Y67940D01*
X-124515Y68685D01*
X-125634Y69222D01*
X-126836Y69530D01*
X-128075Y69597D01*
X-129303Y69422D01*
X-129428Y69378D01*
X-129982Y69938D01*
X-128165Y74929D01*
X-131680Y76208D01*
X-133498Y71213D01*
X-134977Y71752D01*
X-133160Y76746D01*
X-133339Y76812D01*
X-133611Y77550D01*
X-132540Y79441D01*
X-128482Y85849D01*
X-124115Y92050D01*
X-119449Y98029D01*
X-114495Y103772D01*
X-109265Y109265D01*
X-103772Y114495D01*
X-99578Y118112D01*
X-98802Y117981D01*
X-98703Y117810D01*
X-94100Y120467D01*
X-93313Y119103D01*
X-97916Y116446D01*
X-96046Y113207D01*
X-91446Y115862D01*
X-90799Y115414D01*
X-90820Y115284D01*
X-90780Y114044D01*
X-90498Y112835D01*
X-89986Y111705D01*
X-89263Y110696D01*
X-88358Y109848D01*
X-87304Y109193D01*
X-86143Y108756D01*
X-84918Y108554D01*
X-83678Y108594D01*
X-82470Y108876D01*
X-81340Y109388D01*
X-78782Y110864D01*
X-71809Y98787D01*
X-71525Y98951D01*
X-70813Y98405D01*
X-69770Y97891D01*
X-68646Y97590D01*
X-67485Y97514D01*
X-66332Y97665D01*
X-65230Y98039D01*
X-64223Y98621D01*
X-63348Y99388D01*
X-62640Y100311D01*
X-62125Y101354D01*
X-61825Y102478D01*
X-61748Y103639D01*
X-61866Y104528D01*
X-61581Y104692D01*
X-62274Y105894D01*
X-62274Y105894D01*
X-62856Y106901D01*
X-62856Y106901D01*
X-68554Y116770D01*
X-66849Y117754D01*
X-59876Y105677D01*
X-59591Y105841D01*
X-58880Y105295D01*
X-57836Y104780D01*
X-56713Y104479D01*
X-55552Y104403D01*
X-54398Y104555D01*
X-53297Y104929D01*
X-52289Y105511D01*
X-51415Y106278D01*
X-50707Y107201D01*
X-50192Y108244D01*
X-49891Y109368D01*
X-49815Y110528D01*
X-49932Y111418D01*
X-49647Y111582D01*
X-50341Y112783D01*
X-50341Y112783D01*
X-50922Y113791D01*
X-50923Y113791D01*
X-56620Y123660D01*
X-54063Y125136D01*
X-53054Y125859D01*
X-52206Y126765D01*
X-51551Y127818D01*
X-51114Y128980D01*
X-50912Y130204D01*
X-50952Y131444D01*
X-51234Y132652D01*
X-51746Y133783D01*
X-52469Y134791D01*
X-53375Y135640D01*
X-54428Y136295D01*
X-54552Y136341D01*
X-54617Y137126D01*
X-50017Y139782D01*
X-51887Y143021D01*
X-56490Y140363D01*
X-57277Y141727D01*
X-52675Y144385D01*
X-52782Y144571D01*
X-52520Y145313D01*
X-52058Y145491D01*
X-44856Y147870D01*
X-37546Y149893D01*
X-30146Y151555D01*
X-22673Y152852D01*
X-15146Y153780D01*
X-7582Y154338D01*
X-540Y154511D01*
X132Y153787D01*
D02*
G37*
G36*
X52458Y144464D02*
X52494Y144671D01*
X53180Y145058D01*
X59134Y142762D01*
X66068Y139688D01*
X72842Y136278D01*
X79441Y132540D01*
X85849Y128482D01*
X92050Y124115D01*
X98029Y119449D01*
X99039Y118577D01*
X99034Y117790D01*
X98880Y117661D01*
X102297Y113590D01*
X101090Y112578D01*
X97674Y116649D01*
X94809Y114245D01*
X98223Y110176D01*
X97894Y109461D01*
X97761Y109459D01*
X96547Y109204D01*
X95406Y108717D01*
X94382Y108016D01*
X93514Y107129D01*
X92836Y106090D01*
X92374Y104939D01*
X92145Y103719D01*
X92159Y102478D01*
X92414Y101264D01*
X92901Y100123D01*
X93602Y99099D01*
X95500Y96837D01*
X87257Y89921D01*
X87157Y89897D01*
X86260Y90105D01*
X86257Y90109D01*
X86065Y90396D01*
X85414Y90831D01*
X84646Y90983D01*
X49409D01*
Y91536D01*
X45276D01*
X41142D01*
Y90983D01*
X25591D01*
X24823Y90831D01*
X24171Y90396D01*
X23736Y89745D01*
X23612Y89118D01*
X23493Y89102D01*
X22823Y88825D01*
X22247Y88383D01*
X14498Y80634D01*
X-23584D01*
Y85286D01*
X9055D01*
X10015Y85477D01*
X10829Y86021D01*
X29992Y105184D01*
X30536Y105998D01*
X30727Y106958D01*
Y115006D01*
X31128Y115183D01*
X32081Y115850D01*
X32886Y116690D01*
X33368Y117447D01*
X33692Y117390D01*
X36113Y131124D01*
X39021Y130611D01*
X40258Y130516D01*
X41490Y130665D01*
X42670Y131051D01*
X43751Y131659D01*
X44693Y132467D01*
X45459Y133443D01*
X46020Y134550D01*
X46354Y135745D01*
X46448Y136983D01*
X46300Y138214D01*
X45914Y139394D01*
X45849Y139509D01*
X46304Y140152D01*
X51535Y139229D01*
X52184Y142913D01*
X46950Y143836D01*
X47223Y145387D01*
X52458Y144464D01*
D02*
G37*
G36*
X53738Y81341D02*
X54402Y80760D01*
X54794Y79968D01*
X54823Y79527D01*
X54823Y79527D01*
X54784Y79077D01*
X54367Y78275D01*
X53675Y77694D01*
X52812Y77421D01*
X52362Y77461D01*
X51575D01*
Y81595D01*
X52461Y81595D01*
X52901Y81624D01*
X53738Y81341D01*
D02*
G37*
G36*
X42000Y81319D02*
X42664Y80738D01*
X43056Y79946D01*
X43085Y79505D01*
X43085Y79505D01*
X43046Y79055D01*
X42629Y78253D01*
X41937Y77672D01*
X41075Y77399D01*
X40624Y77439D01*
Y77439D01*
X39837Y77439D01*
X39837Y81573D01*
X40723Y81572D01*
X41163Y81602D01*
X42000Y81319D01*
D02*
G37*
G36*
X104357Y86281D02*
X93674Y77317D01*
X93885Y77065D01*
X93471Y76269D01*
X93146Y75152D01*
X93044Y73994D01*
X93171Y72837D01*
X93521Y71728D01*
X94080Y70708D01*
X94828Y69817D01*
X95735Y69089D01*
X96767Y68551D01*
X97884Y68226D01*
X99043Y68125D01*
X100199Y68251D01*
X101055Y68521D01*
X101266Y68269D01*
X111949Y77233D01*
X113847Y74971D01*
X114734Y74104D01*
X115773Y73426D01*
X116925Y72963D01*
X118144Y72734D01*
X119385Y72748D01*
X120599Y73003D01*
X121740Y73491D01*
X122765Y74191D01*
X123632Y75078D01*
X124310Y76117D01*
X124773Y77269D01*
X124797Y77399D01*
X125559Y77599D01*
X128973Y73530D01*
X131838Y75934D01*
X128421Y80006D01*
X129628Y81018D01*
X133044Y76946D01*
X133189Y77068D01*
X133964Y76928D01*
X136278Y72842D01*
X139688Y66068D01*
X142762Y59134D01*
X145491Y52058D01*
X147870Y44856D01*
X149893Y37546D01*
X151555Y30146D01*
X152070Y27177D01*
X151563Y26575D01*
X151378D01*
Y21260D01*
X149803D01*
Y26575D01*
X146063D01*
Y21264D01*
X145351Y20927D01*
X145249Y21011D01*
X144155Y21596D01*
X142967Y21956D01*
X141732Y22078D01*
X140497Y21956D01*
X139310Y21596D01*
X138216Y21011D01*
X137257Y20224D01*
X136469Y19265D01*
X135884Y18170D01*
X135524Y16983D01*
X135403Y15748D01*
Y12795D01*
X124007D01*
X124007Y12795D01*
X122844D01*
X122843Y12795D01*
X121457D01*
Y12466D01*
X120628Y12123D01*
X119661Y11477D01*
X118838Y10654D01*
X118192Y9687D01*
X118072Y9399D01*
X117166D01*
X116206Y9208D01*
X115392Y8664D01*
X108827Y2098D01*
X108283Y1285D01*
X108092Y324D01*
Y-12376D01*
X102559Y-17909D01*
X101772Y-17582D01*
Y-17276D01*
X101544Y-16425D01*
X101103Y-15662D01*
X100934Y-15493D01*
Y-2220D01*
X121068Y17913D01*
X121307D01*
X122158Y18141D01*
X122921Y18582D01*
X123544Y19205D01*
X123985Y19968D01*
X124213Y20819D01*
Y21700D01*
X123985Y22551D01*
X123544Y23315D01*
X122921Y23938D01*
X122158Y24378D01*
X121307Y24606D01*
X120426D01*
X119574Y24378D01*
X118811Y23938D01*
X118188Y23315D01*
X117748Y22551D01*
X117520Y21700D01*
Y21461D01*
X96651Y593D01*
X96107Y-221D01*
X95916Y-1181D01*
Y-6336D01*
X95129Y-6663D01*
X94672Y-6205D01*
X93684Y-5635D01*
X92583Y-5340D01*
X91443D01*
X90341Y-5635D01*
X90229Y-5700D01*
X86811D01*
Y-1969D01*
X69882D01*
Y-18898D01*
X86811D01*
Y-13642D01*
X90229D01*
X90341Y-13706D01*
X91443Y-14002D01*
X92583D01*
X93684Y-13706D01*
X94672Y-13136D01*
X95129Y-12679D01*
X95916Y-13005D01*
Y-15493D01*
X95747Y-15662D01*
X95307Y-16425D01*
X95079Y-17276D01*
Y-18157D01*
X95307Y-19008D01*
X95747Y-19771D01*
X96370Y-20394D01*
X97133Y-20835D01*
X97985Y-21063D01*
X98291D01*
X98617Y-21850D01*
X96599Y-23869D01*
X55118D01*
X54158Y-24060D01*
X53344Y-24604D01*
X50034Y-27914D01*
X25591D01*
X24823Y-28067D01*
X24171Y-28502D01*
X23736Y-29153D01*
X23584Y-29921D01*
Y-40447D01*
X22929Y-40885D01*
X21455Y-40274D01*
X19212Y-39673D01*
X16909Y-39370D01*
X14587D01*
X12284Y-39673D01*
X10041Y-40274D01*
X7895Y-41163D01*
X5884Y-42324D01*
X4042Y-43738D01*
X2400Y-45380D01*
X986Y-47223D01*
X-175Y-49234D01*
X-1064Y-51380D01*
X-1665Y-53623D01*
X-1969Y-55925D01*
Y-58248D01*
X-1665Y-60550D01*
X-1064Y-62794D01*
X-175Y-64939D01*
X986Y-66951D01*
X2400Y-68793D01*
X4042Y-70435D01*
X5884Y-71849D01*
X7895Y-73010D01*
X10041Y-73899D01*
X12284Y-74500D01*
X14587Y-74803D01*
X16909D01*
X19212Y-74500D01*
X21455Y-73899D01*
X22929Y-73289D01*
X23584Y-73726D01*
Y-80685D01*
X-23584D01*
Y-29921D01*
X-23736Y-29153D01*
X-24171Y-28502D01*
X-24386Y-28359D01*
Y-9025D01*
X5876Y21236D01*
X95768D01*
Y19390D01*
X96423D01*
Y15818D01*
X92646Y12042D01*
X86811D01*
Y16535D01*
X69882D01*
Y-394D01*
X86811D01*
Y4100D01*
X94291D01*
X95319Y4235D01*
X96277Y4632D01*
X97099Y5263D01*
X103202Y11365D01*
X103833Y12188D01*
X104229Y13146D01*
X104365Y14173D01*
Y19390D01*
X105020D01*
Y28642D01*
X95768D01*
Y26795D01*
X5876D01*
X-16796Y49468D01*
X-16443Y50165D01*
X-16412Y50197D01*
X-15069D01*
X-13738Y50462D01*
X-12484Y50981D01*
X-11356Y51735D01*
X-10396Y52695D01*
X-9642Y53823D01*
X-9123Y55077D01*
X-8858Y56408D01*
Y57765D01*
X-9123Y59096D01*
X-9642Y60350D01*
X-10396Y61479D01*
X-11356Y62438D01*
X-12484Y63192D01*
X-13738Y63712D01*
X-15069Y63976D01*
X-16427D01*
X-17758Y63712D01*
X-19012Y63192D01*
X-20140Y62438D01*
X-21100Y61479D01*
X-21854Y60350D01*
X-22373Y59096D01*
X-22638Y57765D01*
Y57155D01*
X-23425Y56714D01*
X-23584Y56811D01*
Y75075D01*
X11387D01*
X11490Y74287D01*
X10041Y73899D01*
X7895Y73010D01*
X5884Y71849D01*
X4042Y70435D01*
X2400Y68793D01*
X986Y66951D01*
X-175Y64939D01*
X-1064Y62794D01*
X-1665Y60550D01*
X-1969Y58248D01*
Y55925D01*
X-1665Y53623D01*
X-1064Y51380D01*
X-175Y49234D01*
X986Y47223D01*
X2400Y45380D01*
X4042Y43738D01*
X5884Y42324D01*
X7895Y41163D01*
X10041Y40274D01*
X12284Y39673D01*
X14587Y39370D01*
X16909D01*
X19212Y39673D01*
X21455Y40274D01*
X22929Y40885D01*
X23584Y40447D01*
Y29921D01*
X23736Y29153D01*
X24171Y28502D01*
X24823Y28067D01*
X25591Y27914D01*
X84646D01*
X85414Y28067D01*
X86065Y28502D01*
X86500Y29153D01*
X86653Y29921D01*
Y76870D01*
X88668Y78886D01*
X89026Y78782D01*
X90185Y78680D01*
X91342Y78807D01*
X92197Y79077D01*
X92409Y78825D01*
X103092Y87789D01*
X104357Y86281D01*
D02*
G37*
G36*
X49927Y81616D02*
X49927D01*
X50714Y81616D01*
X50714Y77483D01*
X49828Y77483D01*
X49388Y77453D01*
X48551Y77736D01*
X47887Y78318D01*
X47495Y79109D01*
X47466Y79550D01*
X47505Y80000D01*
X47922Y80802D01*
X48614Y81383D01*
X49476Y81656D01*
X49927Y81616D01*
D02*
G37*
G36*
X38189Y81595D02*
X38189Y81595D01*
X38976D01*
Y77461D01*
X38091Y77461D01*
X37650Y77431D01*
X36814Y77714D01*
X36149Y78296D01*
X35758Y79087D01*
X35728Y79528D01*
X35767Y79978D01*
X36184Y80780D01*
X36877Y81361D01*
X37739Y81634D01*
X38189Y81595D01*
D02*
G37*
G36*
X-45770Y62443D02*
X-45106Y61862D01*
X-44714Y61070D01*
X-44685Y60630D01*
X-44685Y60630D01*
X-44724Y60180D01*
X-45141Y59378D01*
X-45833Y58796D01*
X-46695Y58524D01*
X-47146Y58563D01*
X-47933D01*
Y62697D01*
X-47047Y62697D01*
X-46607Y62726D01*
X-45770Y62443D01*
D02*
G37*
G36*
X-57508Y62421D02*
X-56844Y61840D01*
X-56452Y61048D01*
X-56423Y60608D01*
X-56423Y60608D01*
X-56462Y60158D01*
X-56879Y59355D01*
X-57571Y58774D01*
X-58433Y58502D01*
X-58883Y58541D01*
Y58541D01*
X-59671Y58541D01*
X-59671Y62675D01*
X-58785Y62675D01*
X-58344Y62704D01*
X-57508Y62421D01*
D02*
G37*
G36*
X-49581Y62719D02*
X-49581D01*
X-48794Y62719D01*
X-48794Y58585D01*
X-49680Y58585D01*
X-50120Y58556D01*
X-50957Y58838D01*
X-51621Y59420D01*
X-52012Y60211D01*
X-52042Y60652D01*
X-52003Y61102D01*
X-51586Y61904D01*
X-50893Y62486D01*
X-50032Y62758D01*
X-49581Y62719D01*
D02*
G37*
G36*
X-61319Y62697D02*
X-61319Y62697D01*
X-60532D01*
Y58563D01*
X-61417Y58563D01*
X-61858Y58534D01*
X-62694Y58816D01*
X-63359Y59398D01*
X-63750Y60189D01*
X-63779Y60630D01*
X-63740Y61080D01*
X-63323Y61882D01*
X-62631Y62464D01*
X-61769Y62736D01*
X-61319Y62697D01*
D02*
G37*
G36*
X-86653Y67826D02*
Y38277D01*
X-87380Y37975D01*
X-95916Y46512D01*
Y59591D01*
X-87380Y68127D01*
X-86653Y67826D01*
D02*
G37*
G36*
X-113795Y42465D02*
X-113683Y42775D01*
X-112787Y42814D01*
X-111657Y43090D01*
X-111601Y43116D01*
X-102041Y33556D01*
Y12987D01*
X-101850Y12027D01*
X-101306Y11213D01*
X-62906Y-27187D01*
X-63207Y-27914D01*
X-84646D01*
X-85414Y-28067D01*
X-86065Y-28502D01*
X-86500Y-29153D01*
X-86653Y-29921D01*
Y-88976D01*
X-86577Y-89357D01*
X-86787Y-90202D01*
X-87601Y-90746D01*
X-101776Y-104921D01*
X-102015D01*
X-102866Y-105149D01*
X-103630Y-105590D01*
X-104253Y-106213D01*
X-104693Y-106976D01*
X-104921Y-107827D01*
Y-108708D01*
X-104693Y-109559D01*
X-104253Y-110322D01*
X-103630Y-110946D01*
X-102866Y-111386D01*
X-102015Y-111614D01*
X-101134D01*
X-100283Y-111386D01*
X-99520Y-110946D01*
X-98897Y-110322D01*
X-98456Y-109559D01*
X-98228Y-108708D01*
Y-108469D01*
X-84788Y-95029D01*
X34531D01*
X59302Y-119800D01*
Y-132422D01*
X59133Y-132591D01*
X58693Y-133354D01*
X58465Y-134205D01*
Y-135086D01*
X58693Y-135937D01*
X59133Y-136700D01*
X59756Y-137323D01*
X60519Y-137764D01*
X61370Y-137992D01*
X62252D01*
X63103Y-137764D01*
X63866Y-137323D01*
X64489Y-136700D01*
X64929Y-135937D01*
X65158Y-135086D01*
Y-134205D01*
X64929Y-133354D01*
X64489Y-132591D01*
X64320Y-132422D01*
Y-118761D01*
X64129Y-117800D01*
X63585Y-116987D01*
X38309Y-91711D01*
X38611Y-90983D01*
X84646D01*
X85414Y-90831D01*
X86065Y-90396D01*
X86256Y-90109D01*
X87214Y-89884D01*
X95500Y-96837D01*
X93602Y-99099D01*
X92901Y-100123D01*
X92414Y-101264D01*
X92159Y-102478D01*
X92145Y-103719D01*
X92374Y-104939D01*
X92836Y-106090D01*
X93514Y-107129D01*
X94382Y-108016D01*
X95406Y-108717D01*
X96547Y-109204D01*
X97761Y-109459D01*
X97894Y-109461D01*
X98223Y-110176D01*
X94809Y-114245D01*
X97674Y-116649D01*
X101090Y-112578D01*
X102297Y-113590D01*
X98880Y-117661D01*
X99034Y-117790D01*
X99039Y-118578D01*
X98029Y-119449D01*
X92050Y-124115D01*
X85849Y-128482D01*
X79441Y-132540D01*
X72842Y-136278D01*
X66068Y-139688D01*
X59134Y-142762D01*
X53180Y-145058D01*
X52494Y-144671D01*
X52458Y-144464D01*
X47223Y-145386D01*
X46950Y-143835D01*
X52184Y-142913D01*
X51535Y-139229D01*
X46304Y-140152D01*
X45849Y-139509D01*
X45914Y-139394D01*
X46300Y-138214D01*
X46448Y-136983D01*
X46354Y-135745D01*
X46020Y-134550D01*
X45459Y-133443D01*
X44693Y-132467D01*
X43751Y-131659D01*
X42670Y-131051D01*
X41490Y-130665D01*
X40258Y-130516D01*
X39021Y-130611D01*
X36113Y-131124D01*
X33692Y-117390D01*
X33368Y-117447D01*
X32886Y-116690D01*
X32081Y-115850D01*
X31128Y-115183D01*
X30064Y-114714D01*
X28928Y-114462D01*
X27765Y-114437D01*
X26619Y-114639D01*
X25535Y-115060D01*
X24554Y-115686D01*
X23714Y-116490D01*
X23046Y-117443D01*
X22578Y-118508D01*
X22384Y-119384D01*
X22060Y-119441D01*
X22301Y-120806D01*
Y-120806D01*
X22503Y-121952D01*
X22503Y-121952D01*
X24482Y-133175D01*
X22543Y-133516D01*
X20564Y-122294D01*
Y-122294D01*
X20362Y-121148D01*
X20362Y-121148D01*
X20121Y-119782D01*
X19798Y-119840D01*
X19316Y-119083D01*
X18511Y-118243D01*
X17558Y-117575D01*
X16493Y-117107D01*
X15358Y-116855D01*
X14195Y-116830D01*
X13049Y-117032D01*
X11965Y-117453D01*
X10984Y-118078D01*
X10144Y-118883D01*
X9476Y-119836D01*
X9008Y-120900D01*
X8814Y-121776D01*
X8490Y-121833D01*
X10911Y-135567D01*
X8004Y-136080D01*
X6809Y-136414D01*
X5702Y-136975D01*
X4726Y-137741D01*
X3918Y-138683D01*
X3309Y-139764D01*
X2923Y-140944D01*
X2775Y-142176D01*
X2869Y-143413D01*
X3204Y-144608D01*
X3764Y-145715D01*
X4530Y-146691D01*
X4631Y-146777D01*
X4423Y-147536D01*
X-807Y-148459D01*
X-158Y-152142D01*
X5076Y-151219D01*
X5350Y-152770D01*
X115Y-153693D01*
X132Y-153787D01*
X-540Y-154511D01*
X-7582Y-154338D01*
X-15146Y-153780D01*
X-22673Y-152852D01*
X-30146Y-151555D01*
X-37546Y-149893D01*
X-44856Y-147870D01*
X-52058Y-145491D01*
X-52520Y-145313D01*
X-52782Y-144571D01*
X-52675Y-144385D01*
X-57277Y-141727D01*
X-56490Y-140363D01*
X-51887Y-143021D01*
X-50017Y-139782D01*
X-54617Y-137126D01*
X-54552Y-136341D01*
X-54428Y-136295D01*
X-53375Y-135640D01*
X-52469Y-134791D01*
X-51746Y-133783D01*
X-51234Y-132652D01*
X-50952Y-131444D01*
X-50912Y-130204D01*
X-51114Y-128980D01*
X-51551Y-127818D01*
X-52206Y-126765D01*
X-53054Y-125859D01*
X-54063Y-125136D01*
X-56620Y-123660D01*
X-49647Y-111582D01*
X-49932Y-111418D01*
X-49815Y-110528D01*
X-49891Y-109368D01*
X-50192Y-108244D01*
X-50707Y-107201D01*
X-51415Y-106278D01*
X-52289Y-105511D01*
X-53297Y-104929D01*
X-54398Y-104555D01*
X-55552Y-104403D01*
X-56713Y-104479D01*
X-57836Y-104780D01*
X-58880Y-105295D01*
X-59591Y-105841D01*
X-59876Y-105677D01*
X-60569Y-106878D01*
X-60569Y-106878D01*
X-61151Y-107885D01*
X-61151Y-107885D01*
X-66849Y-117754D01*
X-68554Y-116770D01*
X-61581Y-104692D01*
X-61866Y-104528D01*
X-61748Y-103639D01*
X-61825Y-102478D01*
X-62126Y-101354D01*
X-62640Y-100311D01*
X-63348Y-99388D01*
X-64223Y-98621D01*
X-65230Y-98039D01*
X-66332Y-97665D01*
X-67485Y-97514D01*
X-68646Y-97590D01*
X-69770Y-97891D01*
X-70813Y-98405D01*
X-71525Y-98951D01*
X-71809Y-98787D01*
X-72503Y-99988D01*
X-72503Y-99988D01*
X-73084Y-100995D01*
X-73084Y-100996D01*
X-78782Y-110864D01*
X-81340Y-109388D01*
X-82470Y-108876D01*
X-83678Y-108594D01*
X-84918Y-108554D01*
X-86143Y-108756D01*
X-87304Y-109193D01*
X-88358Y-109848D01*
X-89263Y-110696D01*
X-89986Y-111705D01*
X-90498Y-112835D01*
X-90780Y-114044D01*
X-90820Y-115284D01*
X-90799Y-115414D01*
X-91446Y-115862D01*
X-96046Y-113207D01*
X-97916Y-116446D01*
X-93313Y-119103D01*
X-94100Y-120467D01*
X-98703Y-117810D01*
X-98802Y-117981D01*
X-99578Y-118112D01*
X-103772Y-114495D01*
X-109265Y-109265D01*
X-114495Y-103772D01*
X-119449Y-98029D01*
X-124115Y-92050D01*
X-128482Y-85849D01*
X-132540Y-79441D01*
X-133611Y-77550D01*
X-133339Y-76811D01*
X-133160Y-76746D01*
X-134977Y-71752D01*
X-133498Y-71213D01*
X-131680Y-76208D01*
X-128165Y-74929D01*
X-129982Y-69938D01*
X-129428Y-69378D01*
X-129303Y-69422D01*
X-128075Y-69597D01*
X-126836Y-69530D01*
X-125634Y-69222D01*
X-124515Y-68685D01*
X-123522Y-67940D01*
X-122694Y-67016D01*
X-122062Y-65949D01*
X-121650Y-64778D01*
X-121475Y-63550D01*
X-121543Y-62311D01*
X-121851Y-61109D01*
X-122861Y-58334D01*
X-112152Y-54436D01*
X-112152Y-54436D01*
X-111059Y-54039D01*
X-111059Y-54039D01*
X-109756Y-53564D01*
X-109868Y-53255D01*
X-109207Y-52649D01*
X-108519Y-51711D01*
X-108027Y-50657D01*
X-107751Y-49527D01*
X-107700Y-48365D01*
X-107877Y-47215D01*
X-108275Y-46122D01*
X-108878Y-45127D01*
X-109664Y-44270D01*
X-110602Y-43582D01*
X-111657Y-43090D01*
X-112787Y-42814D01*
X-113683Y-42775D01*
X-113795Y-42465D01*
X-126900Y-47235D01*
X-127574Y-45386D01*
X-116865Y-41488D01*
X-116865Y-41488D01*
X-115772Y-41090D01*
X-115772Y-41090D01*
X-114469Y-40616D01*
X-114581Y-40307D01*
X-113920Y-39701D01*
X-113232Y-38763D01*
X-112740Y-37708D01*
X-112464Y-36578D01*
X-112413Y-35416D01*
X-112590Y-34266D01*
X-112988Y-33173D01*
X-113591Y-32179D01*
X-114377Y-31321D01*
X-115315Y-30633D01*
X-116370Y-30142D01*
X-117499Y-29865D01*
X-118396Y-29826D01*
X-118508Y-29517D01*
X-131613Y-34287D01*
X-132623Y-31512D01*
X-133160Y-30393D01*
X-133904Y-29401D01*
X-134828Y-28572D01*
X-135896Y-27940D01*
X-137066Y-27529D01*
X-138295Y-27353D01*
X-139534Y-27421D01*
X-140736Y-27729D01*
X-141855Y-28266D01*
X-142847Y-29010D01*
X-143675Y-29934D01*
X-143743Y-30048D01*
X-144527Y-29975D01*
X-146343Y-24984D01*
X-149858Y-26264D01*
X-148040Y-31258D01*
X-149520Y-31797D01*
X-151338Y-26802D01*
X-151511Y-26865D01*
X-152193Y-26471D01*
X-152852Y-22673D01*
X-153780Y-15146D01*
X-154338Y-7582D01*
X-154524Y0D01*
X-154338Y7582D01*
X-153780Y15146D01*
X-152852Y22673D01*
X-152193Y26471D01*
X-151511Y26865D01*
X-151338Y26802D01*
X-149520Y31797D01*
X-148040Y31258D01*
X-149858Y26264D01*
X-146344Y24984D01*
X-144527Y29975D01*
X-143743Y30048D01*
X-143675Y29934D01*
X-142847Y29010D01*
X-141855Y28266D01*
X-140736Y27729D01*
X-139534Y27421D01*
X-138295Y27353D01*
X-137066Y27529D01*
X-135896Y27940D01*
X-134828Y28572D01*
X-133904Y29401D01*
X-133160Y30393D01*
X-132623Y31512D01*
X-131613Y34287D01*
X-118508Y29517D01*
X-118396Y29826D01*
X-117499Y29865D01*
X-116369Y30142D01*
X-115315Y30633D01*
X-114377Y31321D01*
X-113591Y32179D01*
X-112988Y33173D01*
X-112590Y34266D01*
X-112413Y35416D01*
X-112464Y36578D01*
X-112740Y37708D01*
X-113232Y38763D01*
X-113920Y39701D01*
X-114581Y40307D01*
X-114469Y40616D01*
X-115772Y41090D01*
X-115772Y41090D01*
X-116865Y41488D01*
X-116865Y41488D01*
X-127574Y45386D01*
X-126900Y47235D01*
X-113795Y42465D01*
D02*
G37*
G36*
X-63329Y-44626D02*
X-62527Y-45043D01*
X-61946Y-45735D01*
X-61673Y-46597D01*
X-61713Y-47047D01*
X-61713D01*
Y-47835D01*
X-65847D01*
X-65847Y-46949D01*
X-65876Y-46508D01*
X-65593Y-45672D01*
X-65012Y-45007D01*
X-64220Y-44616D01*
X-63779Y-44587D01*
X-63329Y-44626D01*
D02*
G37*
G36*
X-61735Y-48695D02*
X-61735Y-49581D01*
X-61705Y-50022D01*
X-61988Y-50858D01*
X-62570Y-51523D01*
X-63361Y-51914D01*
X-63802Y-51943D01*
X-63802Y-51943D01*
X-64252Y-51904D01*
X-65054Y-51487D01*
X-65635Y-50795D01*
X-65908Y-49933D01*
X-65869Y-49483D01*
X-65869Y-49483D01*
X-65869Y-48695D01*
X-61735Y-48695D01*
D02*
G37*
G36*
X-63307Y-56363D02*
X-62505Y-56780D01*
X-61924Y-57473D01*
X-61651Y-58335D01*
X-61691Y-58785D01*
X-61690Y-59572D01*
X-65824Y-59572D01*
X-65824Y-58687D01*
X-65854Y-58246D01*
X-65571Y-57410D01*
X-64990Y-56745D01*
X-64198Y-56354D01*
X-63757Y-56324D01*
X-63307Y-56363D01*
D02*
G37*
G36*
X62596Y-61769D02*
X63260Y-62351D01*
X63652Y-63142D01*
X63681Y-63583D01*
X63681Y-63583D01*
X63642Y-64033D01*
X63225Y-64835D01*
X62533Y-65417D01*
X61671Y-65689D01*
X61221Y-65650D01*
X60433D01*
Y-61516D01*
X61319Y-61516D01*
X61759Y-61486D01*
X62596Y-61769D01*
D02*
G37*
G36*
X50858Y-61890D02*
X51523Y-62471D01*
X51914Y-63263D01*
X51943Y-63703D01*
X51943Y-63703D01*
X51904Y-64153D01*
X51487Y-64956D01*
X50795Y-65537D01*
X49933Y-65809D01*
X49483Y-65770D01*
Y-65770D01*
X48695Y-65770D01*
X48695Y-61636D01*
X49581Y-61636D01*
X50022Y-61607D01*
X50858Y-61890D01*
D02*
G37*
G36*
X-61713Y-61319D02*
X-61683Y-61759D01*
X-61966Y-62596D01*
X-62548Y-63260D01*
X-63339Y-63652D01*
X-63779Y-63681D01*
X-63779Y-63681D01*
X-64230Y-63642D01*
X-65032Y-63225D01*
X-65613Y-62533D01*
X-65886Y-61671D01*
X-65847Y-61221D01*
Y-61221D01*
Y-60433D01*
X-61713D01*
X-61713Y-61319D01*
D02*
G37*
G36*
X58785Y-61494D02*
X58785D01*
X59572Y-61494D01*
X59572Y-65628D01*
X58687Y-65628D01*
X58246Y-65657D01*
X57410Y-65374D01*
X56745Y-64793D01*
X56354Y-64001D01*
X56324Y-63561D01*
X56363Y-63110D01*
X56780Y-62308D01*
X57473Y-61727D01*
X58335Y-61455D01*
X58785Y-61494D01*
D02*
G37*
G36*
X47047Y-61614D02*
X47047Y-61614D01*
X47835D01*
Y-65748D01*
X46949Y-65748D01*
X46508Y-65777D01*
X45672Y-65495D01*
X45007Y-64913D01*
X44616Y-64122D01*
X44587Y-63681D01*
X44626Y-63231D01*
X45043Y-62429D01*
X45735Y-61847D01*
X46597Y-61575D01*
X47047Y-61614D01*
D02*
G37*
G36*
X118528Y3590D02*
X118838Y3125D01*
X119661Y2303D01*
X120628Y1656D01*
X121457Y1313D01*
Y984D01*
X135403D01*
Y-984D01*
X121457D01*
Y-1313D01*
X120628Y-1656D01*
X119661Y-2303D01*
X118838Y-3125D01*
X118192Y-4092D01*
X117747Y-5167D01*
X117520Y-6308D01*
Y-7471D01*
X117747Y-8612D01*
X118192Y-9687D01*
X118838Y-10654D01*
X119661Y-11477D01*
X120628Y-12123D01*
X121457Y-12466D01*
Y-12795D01*
X135403D01*
Y-15748D01*
X135524Y-16983D01*
X135884Y-18170D01*
X136469Y-19265D01*
X137257Y-20224D01*
X138216Y-21011D01*
X139310Y-21596D01*
X140497Y-21956D01*
X141732Y-22078D01*
X142967Y-21956D01*
X144155Y-21596D01*
X145249Y-21011D01*
X145351Y-20927D01*
X146063Y-21264D01*
Y-26575D01*
X149803D01*
Y-21260D01*
X151378D01*
Y-26575D01*
X151563D01*
X152070Y-27177D01*
X151555Y-30146D01*
X149893Y-37546D01*
X147870Y-44856D01*
X145491Y-52058D01*
X142762Y-59134D01*
X139688Y-66068D01*
X136278Y-72842D01*
X133964Y-76928D01*
X133189Y-77068D01*
X133044Y-76946D01*
X129628Y-81018D01*
X128421Y-80006D01*
X131838Y-75934D01*
X128973Y-73530D01*
X125559Y-77599D01*
X124797Y-77399D01*
X124773Y-77269D01*
X124310Y-76117D01*
X123632Y-75078D01*
X122765Y-74191D01*
X121740Y-73491D01*
X120599Y-73003D01*
X119385Y-72748D01*
X118144Y-72734D01*
X116925Y-72963D01*
X115773Y-73426D01*
X114734Y-74104D01*
X113847Y-74971D01*
X111949Y-77233D01*
X101266Y-68269D01*
X101055Y-68521D01*
X100199Y-68251D01*
X99043Y-68125D01*
X97884Y-68226D01*
X96767Y-68551D01*
X95735Y-69089D01*
X94828Y-69817D01*
X94080Y-70708D01*
X93520Y-71728D01*
X93171Y-72837D01*
X93044Y-73994D01*
X93146Y-75152D01*
X93471Y-76269D01*
X93885Y-77065D01*
X93674Y-77317D01*
X94736Y-78208D01*
X94736Y-78208D01*
X95627Y-78956D01*
X95627Y-78956D01*
X104357Y-86281D01*
X103092Y-87789D01*
X94362Y-80464D01*
X94362Y-80464D01*
X93471Y-79716D01*
X93471Y-79716D01*
X92409Y-78825D01*
X92197Y-79077D01*
X91342Y-78807D01*
X90185Y-78680D01*
X89026Y-78782D01*
X87910Y-79107D01*
X87440Y-79352D01*
X86653Y-78874D01*
Y-29921D01*
X86604Y-29674D01*
X87197Y-28887D01*
X97638D01*
X98598Y-28696D01*
X99412Y-28152D01*
X112375Y-15189D01*
X112919Y-14375D01*
X113110Y-13415D01*
Y-715D01*
X117527Y3703D01*
X118528Y3590D01*
D02*
G37*
G36*
X23584Y-88976D02*
X23633Y-89223D01*
X23039Y-90011D01*
X-23039D01*
X-23633Y-89223D01*
X-23584Y-88976D01*
Y-86244D01*
X23584D01*
Y-88976D01*
D02*
G37*
%LPC*%
G36*
X49409Y95866D02*
X46063D01*
Y93110D01*
X49409D01*
Y95866D01*
D02*
G37*
G36*
X44488D02*
X41142D01*
Y93110D01*
X44488D01*
Y95866D01*
D02*
G37*
G36*
X101181Y41966D02*
Y38583D01*
X104564D01*
X104338Y39429D01*
X103780Y40394D01*
X102992Y41182D01*
X102027Y41739D01*
X101181Y41966D01*
D02*
G37*
G36*
X99606Y41966D02*
X98760Y41739D01*
X97795Y41182D01*
X97007Y40394D01*
X96450Y39429D01*
X96223Y38583D01*
X99606D01*
Y41966D01*
D02*
G37*
G36*
Y37008D02*
X96223D01*
X96450Y36162D01*
X97007Y35197D01*
X97795Y34409D01*
X98760Y33851D01*
X99606Y33625D01*
Y37008D01*
D02*
G37*
G36*
X104564D02*
X101181D01*
Y33625D01*
X102027Y33851D01*
X102992Y34409D01*
X103780Y35197D01*
X104338Y36162D01*
X104564Y37008D01*
D02*
G37*
G36*
X59734Y6890D02*
X58376D01*
X57046Y6625D01*
X55792Y6106D01*
X54663Y5352D01*
X53703Y4392D01*
X52950Y3263D01*
X52430Y2010D01*
X52165Y679D01*
Y-679D01*
X52430Y-2010D01*
X52950Y-3263D01*
X53703Y-4392D01*
X54663Y-5352D01*
X55792Y-6106D01*
X57046Y-6625D01*
X58376Y-6890D01*
X59734D01*
X61065Y-6625D01*
X62319Y-6106D01*
X63447Y-5352D01*
X64407Y-4392D01*
X65161Y-3263D01*
X65680Y-2010D01*
X65945Y-679D01*
Y679D01*
X65680Y2010D01*
X65161Y3263D01*
X64407Y4392D01*
X63447Y5352D01*
X62319Y6106D01*
X61065Y6625D01*
X59734Y6890D01*
D02*
G37*
G36*
X-15069Y-50197D02*
X-16427D01*
X-17758Y-50462D01*
X-19012Y-50981D01*
X-20140Y-51735D01*
X-21100Y-52695D01*
X-21854Y-53823D01*
X-22373Y-55077D01*
X-22638Y-56408D01*
Y-57765D01*
X-22373Y-59096D01*
X-21854Y-60350D01*
X-21100Y-61479D01*
X-20140Y-62438D01*
X-19012Y-63192D01*
X-17758Y-63712D01*
X-16427Y-63976D01*
X-15069D01*
X-13738Y-63712D01*
X-12484Y-63192D01*
X-11356Y-62438D01*
X-10396Y-61479D01*
X-9642Y-60350D01*
X-9123Y-59096D01*
X-8858Y-57765D01*
Y-56408D01*
X-9123Y-55077D01*
X-9642Y-53823D01*
X-10396Y-52695D01*
X-11356Y-51735D01*
X-12484Y-50981D01*
X-13738Y-50462D01*
X-15069Y-50197D01*
D02*
G37*
G36*
X-101922Y1378D02*
X-102803D01*
X-103654Y1150D01*
X-104417Y709D01*
X-105040Y86D01*
X-105481Y-677D01*
X-105709Y-1528D01*
Y-2409D01*
X-105481Y-3260D01*
X-105040Y-4023D01*
X-104871Y-4192D01*
Y-56441D01*
X-112800Y-64370D01*
X-113039D01*
X-113890Y-64598D01*
X-114653Y-65039D01*
X-115276Y-65662D01*
X-115717Y-66425D01*
X-115945Y-67276D01*
Y-68157D01*
X-115717Y-69008D01*
X-115276Y-69771D01*
X-114653Y-70394D01*
X-113890Y-70835D01*
X-113039Y-71063D01*
X-112158D01*
X-111307Y-70835D01*
X-110544Y-70394D01*
X-109921Y-69771D01*
X-109480Y-69008D01*
X-109252Y-68157D01*
Y-67918D01*
X-100588Y-59254D01*
X-100044Y-58440D01*
X-99853Y-57480D01*
Y-4192D01*
X-99684Y-4023D01*
X-99244Y-3260D01*
X-99016Y-2409D01*
Y-1528D01*
X-99244Y-677D01*
X-99684Y86D01*
X-100307Y709D01*
X-101070Y1150D01*
X-101922Y1378D01*
D02*
G37*
%LPD*%
D10*
X34799Y57905D02*
X41505D01*
X41535Y57874D01*
Y47244D02*
Y57874D01*
Y47244D02*
X41634Y47146D01*
X-56398Y-50394D02*
X-53150D01*
X-63779Y-46063D02*
X-60728D01*
X-56398Y-50394D01*
X-63779Y-62205D02*
X-60925D01*
X-56595Y-57874D02*
X-53150D01*
X-60925Y-62205D02*
X-56595Y-57874D01*
X-57972Y41611D02*
Y41699D01*
X-66437Y41732D02*
X-65725Y41021D01*
X-58563D02*
X-57972Y41611D01*
Y40388D02*
Y41732D01*
X-65725Y41021D02*
X-58563D01*
X-57972Y40388D02*
X-57939Y40354D01*
Y34832D02*
Y40354D01*
Y34832D02*
X-57905Y34799D01*
X46063Y-63681D02*
Y-60236D01*
X50394Y-55905D02*
Y-51575D01*
X-43701Y-66043D02*
Y-57874D01*
X-43799Y-66142D02*
X-43701Y-66043D01*
Y-57874D02*
X-43685Y-57889D01*
X-34814D01*
X-34799Y-57905D01*
X57889Y-34814D02*
X57905Y-34799D01*
X57874Y-42126D02*
X65945D01*
X57874D02*
X57889Y-42111D01*
Y-34814D01*
X65945Y-42126D02*
X66142Y-41929D01*
D24*
X-101575Y-108268D02*
X-85827Y-92520D01*
X35570D01*
X61811Y-118761D01*
Y-134646D02*
Y-118761D01*
X-21539Y93816D02*
X-787Y114567D01*
X-71260Y87795D02*
X9055D01*
X28218Y106958D01*
Y120354D01*
X37205Y79528D02*
X37330Y79402D01*
Y75071D02*
Y79402D01*
Y75071D02*
X41534Y70868D01*
X98425Y-17717D02*
Y-1181D01*
X97638Y-26378D02*
X110601Y-13415D01*
Y324D01*
X98425Y-1181D02*
X120866Y21260D01*
X110601Y324D02*
X117166Y6890D01*
X123425D01*
X41534Y67383D02*
Y70868D01*
X94644Y88410D02*
X94644D01*
X64108Y57874D02*
X94644Y88410D01*
X49014Y71849D02*
X53347Y76181D01*
X49016Y57874D02*
X64108D01*
X53347Y76181D02*
Y79528D01*
X49014Y67383D02*
Y71849D01*
X55118Y-26378D02*
X97638D01*
X50394Y-31102D02*
X55118Y-26378D01*
X-50394Y-32677D02*
X-43701Y-39370D01*
X-53868Y-32677D02*
X-50394D01*
X-112598Y-67716D02*
X-102362Y-57480D01*
X-46358Y57874D02*
Y60433D01*
X-46161Y60630D01*
X-50492Y53740D02*
X-46358Y57874D01*
X-50492Y51181D02*
Y53740D01*
X-62205Y57972D02*
X-57972Y53740D01*
Y51181D02*
Y53740D01*
X-62205Y57972D02*
Y60532D01*
X-62303Y60630D02*
X-62205Y60532D01*
X-113625Y48688D02*
X-99532Y34595D01*
X-102362Y-57480D02*
Y-1969D01*
X-99532Y12987D02*
X-53868Y-32677D01*
X-98425Y45472D02*
X-81102Y28150D01*
X-99532Y12987D02*
Y34595D01*
X-98425Y45472D02*
Y60630D01*
X-71260Y87795D01*
X-95276Y105118D02*
X-83973Y93816D01*
X-81102Y28150D02*
X-54528D01*
X-50492Y32185D02*
Y41732D01*
X-54528Y28150D02*
X-50492Y32185D01*
X-83973Y93816D02*
X-21539D01*
X50394Y-42126D02*
Y-31102D01*
X46063Y-60236D02*
X50394Y-55905D01*
X-43701Y-50394D02*
Y-39370D01*
X62205Y-63583D02*
Y-59252D01*
X57874Y-54921D02*
X62205Y-59252D01*
X57874Y-54921D02*
Y-51575D01*
D26*
X94644Y-88410D02*
D03*
X103502Y-77854D02*
D03*
D27*
X90121Y-84614D02*
D03*
X98978Y-74058D02*
D03*
X28218Y-120354D02*
D03*
X14648Y-122747D02*
D03*
X-67679Y-103445D02*
D03*
X-55746Y-110334D02*
D03*
X-67679Y103445D02*
D03*
X-55746Y110334D02*
D03*
X-113625Y48688D02*
D03*
X-118338Y35740D02*
D03*
X-113625Y-48688D02*
D03*
X-118338Y-35740D02*
D03*
X28218Y120354D02*
D03*
X14648Y122747D02*
D03*
X123425Y6890D02*
D03*
X123425Y-6890D02*
D03*
X90121Y84614D02*
D03*
X98978Y74058D02*
D03*
D28*
X111684Y-102708D02*
D03*
X120542Y-92153D02*
D03*
D29*
X29243Y-126170D02*
D03*
X15673Y-128562D02*
D03*
D30*
X33106Y-148076D02*
D03*
X19536Y-150468D02*
D03*
D31*
X-70632Y-108559D02*
D03*
X-58699Y-115449D02*
D03*
D32*
X-81754Y-127823D02*
D03*
X-69821Y-134713D02*
D03*
D33*
X-70632Y108559D02*
D03*
X-58699Y115449D02*
D03*
D34*
X-81754Y127823D02*
D03*
X-69821Y134713D02*
D03*
D35*
X-119175Y50708D02*
D03*
X-123888Y37760D02*
D03*
D36*
X-140077Y58316D02*
D03*
X-144790Y45367D02*
D03*
D37*
X-119175Y-50708D02*
D03*
X-123888Y-37759D02*
D03*
D38*
X-140077Y-58316D02*
D03*
X-144790Y-45367D02*
D03*
D39*
X29243Y126170D02*
D03*
X15673Y128562D02*
D03*
D40*
X33106Y148076D02*
D03*
X19536Y150469D02*
D03*
D41*
X129331Y6890D02*
D03*
X129331Y-6890D02*
D03*
D42*
X151575Y6890D02*
D03*
X151575Y-6890D02*
D03*
D43*
X94644Y88410D02*
D03*
X103502Y77854D02*
D03*
D44*
X111684Y102708D02*
D03*
X120542Y92153D02*
D03*
D45*
X100394Y14173D02*
Y24016D01*
X94291Y8071D02*
X100394Y14173D01*
X78347Y8071D02*
X94291D01*
X78347Y-10433D02*
X79109Y-9671D01*
X92013D01*
D46*
X108573Y-91104D02*
D03*
D47*
X24612Y-139579D02*
D03*
D48*
X-70866Y-122744D02*
D03*
D49*
Y122744D02*
D03*
D50*
X-133185Y48475D02*
D03*
D51*
X-133185Y-48475D02*
D03*
D52*
X24612Y139579D02*
D03*
D53*
X141732Y0D02*
D03*
D54*
X108573Y91104D02*
D03*
D55*
X59055Y0D02*
D03*
X-15748Y57087D02*
D03*
Y-57087D02*
D03*
D56*
X34799Y57905D02*
D03*
X-57905Y34799D02*
D03*
X57905Y-34799D02*
D03*
X-34799Y-57905D02*
D03*
D57*
X100394Y37795D02*
D03*
D58*
Y24016D02*
D03*
D59*
X15748Y57087D02*
D03*
Y-57087D02*
D03*
X-59055Y0D02*
D03*
D60*
X-101575Y-108268D02*
D03*
X61811Y-134646D02*
D03*
X91732Y-35827D02*
D03*
X89764Y-99606D02*
D03*
X98425Y-17717D02*
D03*
X-30859Y123770D02*
D03*
X43708Y126937D02*
D03*
X-18136Y147709D02*
D03*
X-6799Y129743D02*
D03*
X74481Y119194D02*
D03*
X-787Y114567D02*
D03*
X41339Y-20079D02*
D03*
X47244Y11024D02*
D03*
X-108661Y33858D02*
D03*
X-24016Y-123228D02*
D03*
X74803Y-114567D02*
D03*
X142126Y-46063D02*
D03*
X131043Y-20755D02*
D03*
X120866Y21260D02*
D03*
X-95276Y105118D02*
D03*
X-18504Y71260D02*
D03*
X-90945Y43701D02*
D03*
X-125148Y17588D02*
D03*
X119685Y-42520D02*
D03*
X16535Y-88189D02*
D03*
X-16535Y-41732D02*
D03*
X-17323Y-88189D02*
D03*
X-126217Y-15497D02*
D03*
X-92913Y-17717D02*
D03*
X-89670Y12602D02*
D03*
X-102362Y-1969D02*
D03*
X-142498Y2487D02*
D03*
X-98425Y-78740D02*
D03*
X-97244Y-38583D02*
D03*
X-112598Y-67716D02*
D03*
D61*
X96244Y-92322D02*
D03*
X98775Y-89306D02*
D03*
X92927Y-89538D02*
D03*
X95457Y-86523D02*
D03*
X89609Y-86755D02*
D03*
X92140Y-83739D02*
D03*
X107632Y-78750D02*
D03*
X105102Y-81766D02*
D03*
X104315Y-75967D02*
D03*
X101784Y-78983D02*
D03*
X100997Y-73183D02*
D03*
X98466Y-76199D02*
D03*
X112950Y-101200D02*
D03*
X119276Y-93660D02*
D03*
X121807Y-90645D02*
D03*
X110419Y-104216D02*
D03*
X31831Y-129511D02*
D03*
X27954Y-130195D02*
D03*
X31079Y-125246D02*
D03*
X27202Y-125930D02*
D03*
X30327Y-120981D02*
D03*
X26450Y-121665D02*
D03*
X14384Y-132587D02*
D03*
X18261Y-131904D02*
D03*
X13632Y-128323D02*
D03*
X17509Y-127639D02*
D03*
X12880Y-124058D02*
D03*
X16757Y-123374D02*
D03*
X31167Y-148417D02*
D03*
X21474Y-150127D02*
D03*
X17597Y-150810D02*
D03*
X35044Y-147734D02*
D03*
X-74207Y-110814D02*
D03*
X-70797Y-112782D02*
D03*
X-72042Y-107063D02*
D03*
X-68632Y-109032D02*
D03*
X-69876Y-103313D02*
D03*
X-66467Y-105281D02*
D03*
X-58864Y-119672D02*
D03*
X-62274Y-117703D02*
D03*
X-56699Y-115921D02*
D03*
X-60108Y-113953D02*
D03*
X-54533Y-112171D02*
D03*
X-57943Y-110202D02*
D03*
X-80049Y-128807D02*
D03*
X-71526Y-133728D02*
D03*
X-68116Y-135697D02*
D03*
X-83459Y-126839D02*
D03*
X-74207Y110814D02*
D03*
X-70797Y112782D02*
D03*
X-72042Y107063D02*
D03*
X-68632Y109032D02*
D03*
X-69876Y103313D02*
D03*
X-66467Y105281D02*
D03*
X-58864Y119672D02*
D03*
X-62274Y117703D02*
D03*
X-56699Y115921D02*
D03*
X-60108Y113953D02*
D03*
X-54533Y112171D02*
D03*
X-57943Y110202D02*
D03*
X-80049Y128807D02*
D03*
X-71526Y133728D02*
D03*
X-68116Y135697D02*
D03*
X-83459Y126839D02*
D03*
X-122016Y53837D02*
D03*
X-123363Y50137D02*
D03*
X-117947Y52356D02*
D03*
X-119293Y48656D02*
D03*
X-113877Y50875D02*
D03*
X-115224Y47175D02*
D03*
X-128075Y37189D02*
D03*
X-126729Y40889D02*
D03*
X-124006Y35708D02*
D03*
X-122659Y39407D02*
D03*
X-119936Y34227D02*
D03*
X-118590Y37926D02*
D03*
X-140751Y56466D02*
D03*
X-144117Y47217D02*
D03*
X-145463Y43518D02*
D03*
X-139404Y60166D02*
D03*
X-122016Y-53837D02*
D03*
X-123363Y-50137D02*
D03*
X-117947Y-52356D02*
D03*
X-119293Y-48656D02*
D03*
X-113877Y-50875D02*
D03*
X-115224Y-47175D02*
D03*
X-128075Y-37189D02*
D03*
X-126729Y-40889D02*
D03*
X-124006Y-35708D02*
D03*
X-122659Y-39407D02*
D03*
X-119936Y-34227D02*
D03*
X-118590Y-37926D02*
D03*
X-140751Y-56466D02*
D03*
X-144117Y-47217D02*
D03*
X-145463Y-43518D02*
D03*
X-139404Y-60166D02*
D03*
X31831Y129511D02*
D03*
X27954Y130195D02*
D03*
X31079Y125246D02*
D03*
X27202Y125930D02*
D03*
X30327Y120981D02*
D03*
X26450Y121665D02*
D03*
X14384Y132587D02*
D03*
X18261Y131904D02*
D03*
X13632Y128323D02*
D03*
X17509Y127639D02*
D03*
X12880Y124058D02*
D03*
X16757Y123374D02*
D03*
X31167Y148417D02*
D03*
X21474Y150127D02*
D03*
X17597Y150810D02*
D03*
X35044Y147734D02*
D03*
X133071Y8858D02*
D03*
X133071Y4921D02*
D03*
X128740Y8858D02*
D03*
X128740Y4921D02*
D03*
X124409Y8858D02*
D03*
X124409Y4921D02*
D03*
X133071Y-8858D02*
D03*
X133071Y-4921D02*
D03*
X128740Y-8858D02*
D03*
X128740Y-4921D02*
D03*
X124409Y-8858D02*
D03*
Y-4921D02*
D03*
X151575Y4921D02*
D03*
Y-4921D02*
D03*
X151575Y-8858D02*
D03*
Y8858D02*
D03*
X96244Y92322D02*
D03*
X98775Y89306D02*
D03*
X92927Y89538D02*
D03*
X95457Y86523D02*
D03*
X89609Y86755D02*
D03*
X92140Y83739D02*
D03*
X107632Y78750D02*
D03*
X105102Y81766D02*
D03*
X104315Y75967D02*
D03*
X101784Y78983D02*
D03*
X100997Y73183D02*
D03*
X98466Y76199D02*
D03*
X112950Y101200D02*
D03*
X119276Y93660D02*
D03*
X121807Y90645D02*
D03*
X110419Y104216D02*
D03*
D62*
X92013Y-9671D02*
D03*
D63*
X129025Y-80512D02*
D03*
X101693Y-113084D02*
D03*
D64*
X5213Y-151995D02*
D03*
X47087Y-144611D02*
D03*
D65*
X-56884Y-141045D02*
D03*
X-93707Y-119785D02*
D03*
D66*
X-56884Y141045D02*
D03*
X-93707Y119785D02*
D03*
D67*
X-148780Y31527D02*
D03*
X-134238Y71483D02*
D03*
D68*
X-148780Y-31527D02*
D03*
X-134238Y-71483D02*
D03*
D69*
X5213Y151995D02*
D03*
X47087Y144611D02*
D03*
D70*
X150591Y-21260D02*
D03*
Y21260D02*
D03*
D71*
X129025Y80512D02*
D03*
X101693Y113084D02*
D03*
D72*
X-50492Y60630D02*
D03*
X-46161D02*
D03*
X-57972D02*
D03*
X-62303D02*
D03*
X53347Y79528D02*
D03*
X49016D02*
D03*
X37205D02*
D03*
X41535D02*
D03*
X50394Y-63681D02*
D03*
X46063D02*
D03*
X57874Y-63583D02*
D03*
X62205D02*
D03*
D73*
X-54232Y73032D02*
D03*
Y67126D02*
D03*
X45276Y86417D02*
D03*
Y92323D02*
D03*
X-66437Y41732D02*
D03*
Y47638D02*
D03*
X54134Y-70473D02*
D03*
Y-76378D02*
D03*
X66142Y-41929D02*
D03*
Y-47835D02*
D03*
D74*
X41535Y67323D02*
D03*
X45276Y67323D02*
D03*
X49016Y67323D02*
D03*
X41535Y57874D02*
D03*
X45276Y57874D02*
D03*
X49016D02*
D03*
X-50492Y41732D02*
D03*
X-54232D02*
D03*
X-57972D02*
D03*
X-50492Y51181D02*
D03*
X-54232D02*
D03*
X-57972D02*
D03*
X50394Y-42126D02*
D03*
X54134Y-42126D02*
D03*
X57874Y-42126D02*
D03*
X50394Y-51575D02*
D03*
X54134Y-51575D02*
D03*
X57874D02*
D03*
D75*
X-63779Y-50394D02*
D03*
Y-46063D02*
D03*
Y-57874D02*
D03*
Y-62205D02*
D03*
D76*
X-78543Y-54134D02*
D03*
X-72638D02*
D03*
X-43504Y-66142D02*
D03*
X-49409D02*
D03*
X41634Y47146D02*
D03*
X47539D02*
D03*
D77*
X-43701Y-50394D02*
D03*
Y-54134D02*
D03*
Y-57874D02*
D03*
X-53150Y-50394D02*
D03*
Y-54134D02*
D03*
Y-57874D02*
D03*
D78*
X78347Y8071D02*
D03*
X78347Y-10433D02*
D03*
D79*
X87992Y-47835D02*
X88189Y-48031D01*
X54134Y-91929D02*
Y-76378D01*
X53937Y-92126D02*
X54134Y-91929D01*
X47638Y47244D02*
Y51181D01*
X47539Y47146D02*
X87106D01*
X45276Y53150D02*
Y57874D01*
Y53150D02*
X45669D01*
X47638Y51181D01*
X47539Y47146D02*
X47638Y47244D01*
X87106Y47146D02*
X87402Y46850D01*
X66142Y-47835D02*
X87992D01*
X-49409Y-66142D02*
Y-57208D01*
X-46336Y-54134D02*
X-43701D01*
X-49409Y-57208D02*
X-46336Y-54134D01*
X-37008Y-51968D02*
Y-27559D01*
X-66437Y47638D02*
X-57503D01*
X-89370D02*
X-66437D01*
X-57503D02*
X-54232Y44367D01*
X-87992Y-54134D02*
X-78543D01*
X-88189Y-54331D02*
X-87992Y-54134D01*
X-54232Y41732D02*
Y44367D01*
X-43602Y83071D02*
X-22835D01*
X-53642Y73032D02*
X-43602Y83071D01*
X-54232Y73032D02*
X-53642D01*
X-43701Y-54134D02*
X-39173D01*
X-37008Y-51968D01*
X54134Y-44761D02*
Y-42126D01*
X57208Y-47835D02*
X66142D01*
X54134Y-44761D02*
X57208Y-47835D01*
D80*
X-41339Y-78347D02*
X-36220Y-83465D01*
X-41339Y-78347D02*
X-27165Y-64173D01*
X-72638Y-70669D02*
X-64961Y-78347D01*
X-41339D01*
X-27165Y-7874D02*
X4724Y24016D01*
X24213Y86417D02*
X45276D01*
X15650Y77854D02*
X24213Y86417D01*
X-27657Y77854D02*
X15650D01*
X45669Y-70473D02*
X54134D01*
X32677Y-83465D02*
X45669Y-70473D01*
X54134D02*
Y-63632D01*
X-36220Y-83465D02*
X32677D01*
X45274Y86416D02*
X45276Y86417D01*
X45274Y79528D02*
Y86416D01*
Y79528D02*
X49016D01*
X41535D02*
X45274D01*
Y67383D02*
Y79528D01*
X4724Y24016D02*
X100394D01*
X-63779Y-54134D02*
X-53150D01*
X-63779D02*
Y-50394D01*
Y-57874D02*
Y-54134D01*
X-72638Y-70669D02*
Y-54134D01*
X-63779D01*
X-54232Y67126D02*
X-38386D01*
X-54232Y51181D02*
Y60630D01*
Y67126D01*
Y60630D02*
X-50492D01*
X-48828Y96750D02*
X-43380Y102198D01*
X-27165Y-64173D02*
Y-7874D01*
X-70600Y96750D02*
X-48828D01*
X-38386Y67126D02*
X-27657Y77854D01*
X-38386Y67126D02*
X4724Y24016D01*
X-57972Y60630D02*
X-54232D01*
X54134Y-63632D02*
X57825D01*
X54134D02*
Y-51575D01*
X57825Y-63632D02*
X57874Y-63583D01*
X50443Y-63632D02*
X54134D01*
X50394Y-63681D02*
X50443Y-63632D01*
M02*
