G04*
G04 #@! TF.GenerationSoftware,Altium Limited,Altium Designer,21.7.2 (23)*
G04*
G04 Layer_Physical_Order=2*
G04 Layer_Color=16711680*
%FSLAX25Y25*%
%MOIN*%
G70*
G04*
G04 #@! TF.SameCoordinates,E7E08F9A-FE39-4F42-AE66-928A3885C1E4*
G04*
G04*
G04 #@! TF.FilePolarity,Positive*
G04*
G01*
G75*
%ADD28C,0.03937*%
%ADD29C,0.03937*%
%ADD30R,0.08661X0.40158*%
G04:AMPARAMS|DCode=31|XSize=86.61mil|YSize=401.58mil|CornerRadius=0mil|HoleSize=0mil|Usage=FLASHONLY|Rotation=320.000|XOffset=0mil|YOffset=0mil|HoleType=Round|Shape=Rectangle|*
%AMROTATEDRECTD31*
4,1,4,-0.16224,-0.12598,0.09589,0.18165,0.16224,0.12598,-0.09589,-0.18165,-0.16224,-0.12598,0.0*
%
%ADD31ROTATEDRECTD31*%

G04:AMPARAMS|DCode=32|XSize=86.61mil|YSize=401.58mil|CornerRadius=0mil|HoleSize=0mil|Usage=FLASHONLY|Rotation=280.000|XOffset=0mil|YOffset=0mil|HoleType=Round|Shape=Rectangle|*
%AMROTATEDRECTD32*
4,1,4,-0.20526,0.00778,0.19022,0.07752,0.20526,-0.00778,-0.19022,-0.07752,-0.20526,0.00778,0.0*
%
%ADD32ROTATEDRECTD32*%

G04:AMPARAMS|DCode=33|XSize=86.61mil|YSize=401.58mil|CornerRadius=0mil|HoleSize=0mil|Usage=FLASHONLY|Rotation=240.000|XOffset=0mil|YOffset=0mil|HoleType=Round|Shape=Rectangle|*
%AMROTATEDRECTD33*
4,1,4,-0.15223,0.13790,0.19554,-0.06289,0.15223,-0.13790,-0.19554,0.06289,-0.15223,0.13790,0.0*
%
%ADD33ROTATEDRECTD33*%

G04:AMPARAMS|DCode=34|XSize=86.61mil|YSize=401.58mil|CornerRadius=0mil|HoleSize=0mil|Usage=FLASHONLY|Rotation=200.000|XOffset=0mil|YOffset=0mil|HoleType=Round|Shape=Rectangle|*
%AMROTATEDRECTD34*
4,1,4,-0.02798,0.20349,0.10937,-0.17387,0.02798,-0.20349,-0.10937,0.17387,-0.02798,0.20349,0.0*
%
%ADD34ROTATEDRECTD34*%

G04:AMPARAMS|DCode=35|XSize=86.61mil|YSize=401.58mil|CornerRadius=0mil|HoleSize=0mil|Usage=FLASHONLY|Rotation=160.000|XOffset=0mil|YOffset=0mil|HoleType=Round|Shape=Rectangle|*
%AMROTATEDRECTD35*
4,1,4,0.10937,0.17387,-0.02798,-0.20349,-0.10937,-0.17387,0.02798,0.20349,0.10937,0.17387,0.0*
%
%ADD35ROTATEDRECTD35*%

G04:AMPARAMS|DCode=36|XSize=86.61mil|YSize=401.58mil|CornerRadius=0mil|HoleSize=0mil|Usage=FLASHONLY|Rotation=120.000|XOffset=0mil|YOffset=0mil|HoleType=Round|Shape=Rectangle|*
%AMROTATEDRECTD36*
4,1,4,0.19554,0.06289,-0.15223,-0.13790,-0.19554,-0.06289,0.15223,0.13790,0.19554,0.06289,0.0*
%
%ADD36ROTATEDRECTD36*%

G04:AMPARAMS|DCode=37|XSize=86.61mil|YSize=401.58mil|CornerRadius=0mil|HoleSize=0mil|Usage=FLASHONLY|Rotation=80.000|XOffset=0mil|YOffset=0mil|HoleType=Round|Shape=Rectangle|*
%AMROTATEDRECTD37*
4,1,4,0.19022,-0.07752,-0.20526,-0.00778,-0.19022,0.07752,0.20526,0.00778,0.19022,-0.07752,0.0*
%
%ADD37ROTATEDRECTD37*%

G04:AMPARAMS|DCode=38|XSize=86.61mil|YSize=401.58mil|CornerRadius=0mil|HoleSize=0mil|Usage=FLASHONLY|Rotation=40.000|XOffset=0mil|YOffset=0mil|HoleType=Round|Shape=Rectangle|*
%AMROTATEDRECTD38*
4,1,4,0.09589,-0.18165,-0.16224,0.12598,-0.09589,0.18165,0.16224,-0.12598,0.09589,-0.18165,0.0*
%
%ADD38ROTATEDRECTD38*%

%ADD39C,0.09843*%
%ADD40R,0.05315X0.05315*%
%ADD41C,0.05315*%
%ADD42C,0.31496*%
%ADD43C,0.06102*%
%ADD44C,0.02756*%
%ADD45C,0.05000*%
%ADD46C,0.01575*%
%ADD47R,0.05315X0.03347*%
%ADD48R,0.12992X0.12992*%
%ADD49C,0.01000*%
%ADD50C,0.05906*%
%ADD51C,0.00787*%
G36*
X-435Y149839D02*
X-9741Y148198D01*
X-10766Y154014D01*
X-1461Y155654D01*
X-435Y149839D01*
D02*
G37*
G36*
X7654Y155805D02*
X15290Y155242D01*
X22889Y154305D01*
X30433Y152996D01*
X37903Y151318D01*
X45282Y149276D01*
X52552Y146874D01*
X53830Y146382D01*
X53993Y145783D01*
X51188Y140924D01*
X51134Y140513D01*
X51386Y140185D01*
X59569Y135460D01*
X59980Y135406D01*
X60308Y135658D01*
X63261Y140773D01*
X63315Y141183D01*
X63063Y141512D01*
X59025Y143843D01*
X59241Y144294D01*
X59696Y144119D01*
X65955Y141344D01*
X65975Y140788D01*
X65812Y140664D01*
X62466Y134867D01*
X62412Y134457D01*
X62664Y134128D01*
X71017Y129305D01*
X71428Y129251D01*
X71757Y129503D01*
X75103Y135300D01*
X75157Y135710D01*
X74905Y136039D01*
X71051Y138264D01*
X71289Y138704D01*
X73535Y137574D01*
X80196Y133800D01*
X84464Y131098D01*
X84205Y130670D01*
X80190Y132988D01*
X79779Y133042D01*
X79451Y132790D01*
X76104Y126993D01*
X76050Y126583D01*
X76302Y126254D01*
X84826Y121333D01*
X85237Y121279D01*
X85566Y121531D01*
X88912Y127327D01*
X88934Y127494D01*
X89441Y127748D01*
X89441D01*
X92925Y125295D01*
X95129Y123574D01*
X94850Y123160D01*
X91021Y125370D01*
X90611Y125424D01*
X90282Y125172D01*
X87329Y120058D01*
X87275Y119647D01*
X87528Y119318D01*
X95710Y114594D01*
X96121Y114540D01*
X96450Y114792D01*
X99262Y119664D01*
X99856Y119812D01*
X104759Y115583D01*
X110304Y110304D01*
X115583Y104759D01*
X120584Y98961D01*
X125295Y92925D01*
X129703Y86665D01*
X133800Y80196D01*
X135308Y77535D01*
X135056Y76965D01*
X129797Y75051D01*
X129550Y74825D01*
X129491Y74771D01*
X129473Y74357D01*
X129473Y74357D01*
X132705Y65478D01*
X132705Y65478D01*
X132985Y65173D01*
X133052Y65170D01*
X133398Y65155D01*
X138948Y67175D01*
X139253Y67454D01*
X139271Y67868D01*
X137718Y72135D01*
X138178Y72334D01*
X141016Y66696D01*
X141377Y65882D01*
X141024Y65443D01*
X140832Y65451D01*
X134543Y63162D01*
X134297Y62936D01*
X134237Y62882D01*
X134219Y62468D01*
X134219Y62468D01*
X137518Y53404D01*
X137798Y53099D01*
X138212Y53081D01*
X144501Y55370D01*
X144807Y55650D01*
X144825Y56064D01*
X143185Y60569D01*
X143649Y60756D01*
X144119Y59696D01*
X146874Y52552D01*
X149229Y45426D01*
X148756Y45262D01*
X146912Y50329D01*
X146632Y50635D01*
X146218Y50653D01*
X139929Y48364D01*
X139929Y48364D01*
X139623Y48084D01*
X139621Y48017D01*
X139605Y47670D01*
X142972Y38421D01*
X143197Y38175D01*
X143252Y38116D01*
X143666Y38098D01*
X143666Y38098D01*
X149955Y40387D01*
X150080Y40502D01*
X150634Y40375D01*
X150634Y40375D01*
X151318Y37903D01*
X152298Y33539D01*
X151817Y33399D01*
X150313Y37532D01*
X150313Y37532D01*
X150033Y37837D01*
X149966Y37840D01*
X149619Y37855D01*
X144070Y35835D01*
X143764Y35555D01*
X143746Y35142D01*
X146978Y26263D01*
X147258Y25957D01*
X147672Y25939D01*
X152936Y27855D01*
X153491Y27580D01*
X154305Y22889D01*
X155242Y15290D01*
X155805Y7654D01*
X155993Y0D01*
X155805Y-7654D01*
X155242Y-15290D01*
X154305Y-22889D01*
X153491Y-27580D01*
X152936Y-27855D01*
X147672Y-25939D01*
X147672Y-25939D01*
X147258Y-25957D01*
X146978Y-26263D01*
X143746Y-35142D01*
X143746Y-35142D01*
X143764Y-35555D01*
X144070Y-35835D01*
X149619Y-37855D01*
X150033Y-37837D01*
X150313Y-37532D01*
X151817Y-33398D01*
X152298Y-33539D01*
X151318Y-37903D01*
X150634Y-40375D01*
X150080Y-40502D01*
X149955Y-40387D01*
X143666Y-38098D01*
X143252Y-38116D01*
X142972Y-38421D01*
X139673Y-47485D01*
X139691Y-47899D01*
X139996Y-48179D01*
X146285Y-50468D01*
X146699Y-50450D01*
X146979Y-50144D01*
X148756Y-45262D01*
X149229Y-45426D01*
X146874Y-52552D01*
X144119Y-59696D01*
X143649Y-60756D01*
X143185Y-60569D01*
X144892Y-55879D01*
X144874Y-55465D01*
X144569Y-55185D01*
X138279Y-52896D01*
X137865Y-52914D01*
X137586Y-53219D01*
X134219Y-62468D01*
X134237Y-62882D01*
X134543Y-63162D01*
X140832Y-65451D01*
X140832Y-65451D01*
X141024Y-65443D01*
X141377Y-65882D01*
X141016Y-66696D01*
X138178Y-72334D01*
X137718Y-72135D01*
X139271Y-67868D01*
X139253Y-67454D01*
X138948Y-67175D01*
X133398Y-65155D01*
X132985Y-65173D01*
X132705Y-65478D01*
X129473Y-74357D01*
X129491Y-74771D01*
X129797Y-75051D01*
X135056Y-76965D01*
X135308Y-77535D01*
X133800Y-80196D01*
X129703Y-86665D01*
X125295Y-92925D01*
X120584Y-98961D01*
X115583Y-104759D01*
X110304Y-110304D01*
X104759Y-115583D01*
X99856Y-119812D01*
X99262Y-119664D01*
X96450Y-114792D01*
X96121Y-114540D01*
X95710Y-114594D01*
X87527Y-119318D01*
X87275Y-119647D01*
X87329Y-120058D01*
X90282Y-125172D01*
X90611Y-125424D01*
X91021Y-125370D01*
X94850Y-123160D01*
X95129Y-123574D01*
X92925Y-125295D01*
X89441Y-127748D01*
X88934Y-127494D01*
X88912Y-127327D01*
X85566Y-121531D01*
X85237Y-121279D01*
X84826Y-121333D01*
X76473Y-126155D01*
X76221Y-126484D01*
X76275Y-126895D01*
X79621Y-132691D01*
X79950Y-132943D01*
X80361Y-132889D01*
X84205Y-130670D01*
X84464Y-131098D01*
X80196Y-133800D01*
X73535Y-137574D01*
X71289Y-138704D01*
X71051Y-138264D01*
X75076Y-135940D01*
X75328Y-135612D01*
X75274Y-135201D01*
X71927Y-129405D01*
X71599Y-129153D01*
X71188Y-129207D01*
X62664Y-134128D01*
X62412Y-134457D01*
X62466Y-134867D01*
X65812Y-140664D01*
X65975Y-140788D01*
X65955Y-141344D01*
X65955Y-141344D01*
X59696Y-144119D01*
X59241Y-144294D01*
X59025Y-143843D01*
X63063Y-141512D01*
X63315Y-141183D01*
X63261Y-140773D01*
X60308Y-135658D01*
X59980Y-135406D01*
X59569Y-135460D01*
X51386Y-140185D01*
X51386D01*
X51134Y-140513D01*
X51188Y-140924D01*
X53993Y-145783D01*
X53830Y-146382D01*
X52552Y-146874D01*
X45282Y-149276D01*
X37903Y-151318D01*
X30433Y-152996D01*
X22889Y-154305D01*
X15290Y-155242D01*
X7654Y-155805D01*
X0Y-155993D01*
X-528Y-155980D01*
X-879Y-155471D01*
X98Y-149933D01*
X8Y-149528D01*
X-341Y-149306D01*
X-9647Y-147665D01*
X-10051Y-147755D01*
X-10273Y-148104D01*
X-11299Y-153920D01*
X-11209Y-154324D01*
X-10860Y-154547D01*
X-6372Y-155338D01*
X-6422Y-155835D01*
X-7654Y-155805D01*
X-13617Y-155365D01*
X-13835Y-154848D01*
X-13734Y-154690D01*
X-12572Y-148098D01*
X-12661Y-147694D01*
X-13011Y-147471D01*
X-22510Y-145797D01*
X-22914Y-145886D01*
X-23137Y-146236D01*
X-24299Y-152827D01*
X-24209Y-153231D01*
X-23860Y-153454D01*
X-19568Y-154210D01*
X-19642Y-154705D01*
X-22889Y-154305D01*
X-30433Y-152996D01*
X-34439Y-152096D01*
X-34341Y-151606D01*
X-29869Y-152394D01*
X-29465Y-152304D01*
X-29243Y-151955D01*
X-28080Y-145364D01*
X-28170Y-144959D01*
X-28519Y-144737D01*
X-38212Y-143028D01*
X-38617Y-143117D01*
X-38839Y-143467D01*
X-40001Y-150058D01*
X-39963Y-150229D01*
X-40351Y-150641D01*
X-45282Y-149276D01*
X-47182Y-148648D01*
X-47060Y-148163D01*
X-42653Y-148941D01*
X-42249Y-148851D01*
X-42026Y-148502D01*
X-41001Y-142686D01*
X-41090Y-142281D01*
X-41440Y-142059D01*
X-50745Y-140418D01*
X-51149Y-140508D01*
X-51372Y-140857D01*
X-52352Y-146414D01*
X-52358Y-146429D01*
X-52821Y-146739D01*
X-52880Y-146748D01*
X-59696Y-144119D01*
X-66696Y-141016D01*
X-73535Y-137574D01*
X-80196Y-133800D01*
X-86665Y-129703D01*
X-92925Y-125295D01*
X-98961Y-120584D01*
X-100636Y-119139D01*
X-100591Y-118518D01*
X-96300Y-114918D01*
X-96109Y-114550D01*
X-96233Y-114155D01*
X-102307Y-106917D01*
X-102674Y-106726D01*
X-103069Y-106850D01*
X-107593Y-110646D01*
X-107784Y-111014D01*
X-107660Y-111409D01*
X-104649Y-114997D01*
X-105014Y-115340D01*
X-110304Y-110304D01*
X-110346Y-110260D01*
X-110155Y-109735D01*
X-109953Y-109671D01*
X-104826Y-105369D01*
X-104635Y-105002D01*
X-104760Y-104607D01*
X-110960Y-97218D01*
X-111327Y-97026D01*
X-111722Y-97151D01*
X-116849Y-101453D01*
X-117040Y-101821D01*
X-116916Y-102216D01*
X-113959Y-105739D01*
X-114332Y-106073D01*
X-115583Y-104759D01*
X-120584Y-98961D01*
X-124371Y-94109D01*
X-123982Y-93794D01*
X-120838Y-97541D01*
X-120471Y-97732D01*
X-120076Y-97608D01*
X-114949Y-93305D01*
X-114758Y-92938D01*
X-114882Y-92543D01*
X-121209Y-85003D01*
X-121576Y-84812D01*
X-121971Y-84936D01*
X-127098Y-89239D01*
X-127175Y-89386D01*
X-127740Y-89453D01*
X-127740D01*
X-129703Y-86665D01*
X-131641Y-83605D01*
X-131237Y-83310D01*
X-128411Y-86678D01*
X-128044Y-86870D01*
X-127649Y-86745D01*
X-123125Y-82949D01*
X-122934Y-82582D01*
X-123058Y-82187D01*
X-129132Y-74948D01*
X-129499Y-74757D01*
X-129894Y-74882D01*
X-134193Y-78488D01*
X-134805Y-78421D01*
X-137574Y-73535D01*
X-141016Y-66696D01*
X-144119Y-59696D01*
X-146874Y-52552D01*
X-149276Y-45282D01*
X-151318Y-37903D01*
X-152996Y-30433D01*
X-153664Y-26582D01*
X-153235Y-26132D01*
X-147638D01*
X-147255Y-25973D01*
X-147097Y-25591D01*
Y-16142D01*
X-147255Y-15759D01*
X-147638Y-15600D01*
X-153543D01*
X-153926Y-15759D01*
X-154085Y-16142D01*
Y-20589D01*
X-154585Y-20620D01*
X-155242Y-15290D01*
X-155369Y-13570D01*
X-154890Y-13268D01*
X-154724Y-13337D01*
X-148031D01*
X-147649Y-13178D01*
X-147490Y-12795D01*
Y-3150D01*
X-147649Y-2767D01*
X-148031Y-2608D01*
X-154724D01*
X-155107Y-2767D01*
X-155266Y-3150D01*
Y-8172D01*
X-155766Y-8190D01*
X-155805Y-7654D01*
X-155993Y0D01*
X-155805Y7654D01*
X-155766Y8190D01*
X-155266Y8172D01*
Y2953D01*
X-155107Y2570D01*
X-154724Y2412D01*
X-148031D01*
X-147649Y2570D01*
X-147490Y2953D01*
Y12795D01*
X-147649Y13178D01*
X-148031Y13337D01*
X-154724D01*
X-154890Y13268D01*
X-155369Y13570D01*
X-155242Y15290D01*
X-154585Y20620D01*
X-154085Y20589D01*
Y16142D01*
X-153926Y15759D01*
X-153543Y15600D01*
X-147638D01*
X-147255Y15759D01*
X-147097Y16142D01*
Y25591D01*
X-147255Y25973D01*
X-147638Y26132D01*
X-153235D01*
X-153664Y26582D01*
X-152996Y30433D01*
X-151318Y37903D01*
X-149276Y45282D01*
X-146874Y52552D01*
X-144119Y59696D01*
X-141016Y66696D01*
X-137574Y73535D01*
X-134814Y78407D01*
X-134790Y78423D01*
X-134193Y78488D01*
X-129894Y74882D01*
X-129499Y74757D01*
X-129132Y74948D01*
X-123058Y82187D01*
X-122934Y82582D01*
X-123125Y82949D01*
X-127649Y86745D01*
X-128044Y86870D01*
X-128411Y86678D01*
X-131237Y83310D01*
X-131641Y83605D01*
X-129703Y86665D01*
X-127740Y89453D01*
X-127175Y89386D01*
X-127098Y89239D01*
X-121971Y84936D01*
X-121576Y84812D01*
X-121209Y85003D01*
X-115009Y92392D01*
X-114884Y92787D01*
X-115075Y93155D01*
X-120202Y97457D01*
X-120598Y97581D01*
X-120965Y97390D01*
X-123982Y93794D01*
X-124371Y94109D01*
X-120584Y98961D01*
X-115583Y104759D01*
X-114332Y106073D01*
X-113959Y105739D01*
X-117042Y102065D01*
X-117042Y102065D01*
X-117167Y101670D01*
X-117136Y101611D01*
X-116976Y101302D01*
X-111849Y97000D01*
X-111849Y97000D01*
X-111453Y96876D01*
X-111395Y96906D01*
X-111086Y97067D01*
X-104760Y104607D01*
X-104759Y104607D01*
X-104635Y105002D01*
X-104665Y105060D01*
X-104826Y105369D01*
X-109953Y109671D01*
X-110155Y109735D01*
X-110346Y110260D01*
X-110304Y110304D01*
X-105014Y115340D01*
X-104649Y114997D01*
X-107660Y111409D01*
X-107784Y111014D01*
X-107593Y110646D01*
X-103069Y106851D01*
X-102674Y106726D01*
X-102307Y106917D01*
X-96233Y114155D01*
X-96109Y114550D01*
X-96300Y114918D01*
X-100591Y118518D01*
X-100636Y119139D01*
X-98961Y120584D01*
X-92925Y125295D01*
X-86665Y129703D01*
X-80196Y133800D01*
X-73535Y137574D01*
X-66696Y141016D01*
X-59696Y144119D01*
X-52880Y146748D01*
X-52821Y146739D01*
X-52358Y146429D01*
X-52352Y146414D01*
X-51372Y140857D01*
X-51149Y140508D01*
X-50745Y140418D01*
X-41440Y142059D01*
X-41090Y142281D01*
X-41001Y142686D01*
X-42026Y148502D01*
X-42249Y148851D01*
X-42653Y148941D01*
X-47060Y148163D01*
X-47183Y148648D01*
X-45282Y149276D01*
X-40351Y150641D01*
X-39963Y150229D01*
X-40001Y150058D01*
X-38839Y143467D01*
X-38617Y143117D01*
X-38212Y143028D01*
X-28713Y144703D01*
X-28364Y144925D01*
X-28274Y145330D01*
X-29436Y151921D01*
X-29659Y152270D01*
X-30063Y152360D01*
X-34341Y151606D01*
X-34439Y152096D01*
X-30433Y152996D01*
X-22889Y154305D01*
X-19642Y154705D01*
X-19568Y154210D01*
X-24054Y153419D01*
X-24403Y153197D01*
X-24493Y152793D01*
X-23331Y146201D01*
X-23143Y145907D01*
X-23143Y145906D01*
X-23143D01*
X-23108Y145852D01*
X-22704Y145762D01*
X-22704Y145762D01*
X-13011Y147471D01*
X-12661Y147694D01*
X-12572Y148098D01*
X-13734Y154690D01*
X-13835Y154848D01*
X-13617Y155365D01*
X-7654Y155805D01*
X-6422Y155835D01*
X-6373Y155338D01*
X-10860Y154547D01*
X-11209Y154324D01*
X-11299Y153920D01*
X-10273Y148104D01*
X-10051Y147755D01*
X-9646Y147665D01*
X-341Y149306D01*
X8Y149528D01*
X98Y149933D01*
X-879Y155471D01*
X-528Y155980D01*
X0Y155993D01*
X7654Y155805D01*
D02*
G37*
G36*
X-13104Y148004D02*
X-22797Y146295D01*
X-23960Y152886D01*
X-14267Y154596D01*
X-13104Y148004D01*
D02*
G37*
G36*
X-28807Y145236D02*
X-38306Y143561D01*
X-39469Y150152D01*
X-29969Y151827D01*
X-28807Y145236D01*
D02*
G37*
G36*
X-41533Y142592D02*
X-50839Y140951D01*
X-51864Y146767D01*
X-42559Y148408D01*
X-41533Y142592D01*
D02*
G37*
G36*
X62792Y141043D02*
X59840Y135929D01*
X51657Y140653D01*
X54610Y145768D01*
X62792Y141043D01*
D02*
G37*
G36*
X74635Y135570D02*
X71288Y129774D01*
X62935Y134597D01*
X66281Y140393D01*
X74635Y135570D01*
D02*
G37*
G36*
X88443Y127598D02*
X85097Y121801D01*
X76573Y126723D01*
X79919Y132519D01*
X88443Y127598D01*
D02*
G37*
G36*
X98934Y120177D02*
X95981Y115063D01*
X87798Y119787D01*
X90751Y124901D01*
X98934Y120177D01*
D02*
G37*
G36*
X-96648Y114503D02*
X-102721Y107265D01*
X-107245Y111061D01*
X-101172Y118299D01*
X-96648Y114503D01*
D02*
G37*
G36*
X-105174Y104955D02*
X-111501Y97415D01*
X-116628Y101717D01*
X-110301Y109257D01*
X-105174Y104955D01*
D02*
G37*
G36*
X-115423Y92740D02*
X-121623Y85351D01*
X-126750Y89653D01*
X-120550Y97042D01*
X-115423Y92740D01*
D02*
G37*
G36*
X-123473Y82534D02*
X-129546Y75296D01*
X-134070Y79092D01*
X-127997Y86330D01*
X-123473Y82534D01*
D02*
G37*
G36*
X138763Y67683D02*
X133213Y65663D01*
X129982Y74542D01*
X135531Y76562D01*
X138763Y67683D01*
D02*
G37*
G36*
X144316Y55879D02*
X138027Y53589D01*
X134728Y62653D01*
X141017Y64943D01*
X144316Y55879D01*
D02*
G37*
G36*
X149770Y40895D02*
X143480Y38606D01*
X140114Y47855D01*
X146403Y50144D01*
X149770Y40895D01*
D02*
G37*
G36*
X153036Y28468D02*
X147487Y26448D01*
X144255Y35327D01*
X149804Y37347D01*
X153036Y28468D01*
D02*
G37*
G36*
X-147638Y16142D02*
X-153543D01*
Y25591D01*
X-147638D01*
Y16142D01*
D02*
G37*
G36*
X-148031Y2953D02*
X-154724D01*
Y12795D01*
X-148031D01*
Y2953D01*
D02*
G37*
G36*
Y-12795D02*
X-154724D01*
Y-3150D01*
X-148031D01*
Y-12795D01*
D02*
G37*
G36*
X-147638Y-25591D02*
X-153543D01*
Y-16142D01*
X-147638D01*
Y-25591D01*
D02*
G37*
G36*
X153036Y-28468D02*
X149804Y-37347D01*
X144255Y-35327D01*
X147487Y-26448D01*
X153036Y-28468D01*
D02*
G37*
G36*
X149770Y-40895D02*
X146471Y-49959D01*
X140181Y-47670D01*
X143480Y-38606D01*
X149770Y-40895D01*
D02*
G37*
G36*
X144384Y-55694D02*
X141017Y-64943D01*
X134728Y-62653D01*
X138094Y-53404D01*
X144384Y-55694D01*
D02*
G37*
G36*
X138763Y-67683D02*
X135531Y-76562D01*
X129982Y-74542D01*
X133213Y-65663D01*
X138763Y-67683D01*
D02*
G37*
G36*
X-123473Y-82534D02*
X-127997Y-86330D01*
X-134070Y-79092D01*
X-129546Y-75296D01*
X-123473Y-82534D01*
D02*
G37*
G36*
X-115297Y-92891D02*
X-120424Y-97193D01*
X-126750Y-89653D01*
X-121623Y-85351D01*
X-115297Y-92891D01*
D02*
G37*
G36*
X-105174Y-104955D02*
X-110301Y-109257D01*
X-116501Y-101868D01*
X-111374Y-97566D01*
X-105174Y-104955D01*
D02*
G37*
G36*
X-96648Y-114503D02*
X-101172Y-118299D01*
X-107245Y-111061D01*
X-102721Y-107265D01*
X-96648Y-114503D01*
D02*
G37*
G36*
X98934Y-120177D02*
X90751Y-124901D01*
X87798Y-119787D01*
X95981Y-115063D01*
X98934Y-120177D01*
D02*
G37*
G36*
X88443Y-127598D02*
X80090Y-132421D01*
X76743Y-126624D01*
X85097Y-121801D01*
X88443Y-127598D01*
D02*
G37*
G36*
X74805Y-135472D02*
X66281Y-140393D01*
X62935Y-134597D01*
X71459Y-129675D01*
X74805Y-135472D01*
D02*
G37*
G36*
X62792Y-141043D02*
X54610Y-145768D01*
X51657Y-140653D01*
X59840Y-135929D01*
X62792Y-141043D01*
D02*
G37*
G36*
X-41534Y-142592D02*
X-42559Y-148408D01*
X-51864Y-146767D01*
X-50839Y-140951D01*
X-41534Y-142592D01*
D02*
G37*
G36*
X-28613Y-145270D02*
X-29776Y-151861D01*
X-39469Y-150152D01*
X-38306Y-143561D01*
X-28613Y-145270D01*
D02*
G37*
G36*
X-13104Y-148004D02*
X-14267Y-154596D01*
X-23766Y-152921D01*
X-22604Y-146329D01*
X-13104Y-148004D01*
D02*
G37*
G36*
X-435Y-149839D02*
X-1461Y-155654D01*
X-10766Y-154014D01*
X-9741Y-148198D01*
X-435Y-149839D01*
D02*
G37*
%LPC*%
G36*
X-5184Y147910D02*
X-45717Y140763D01*
X-44039Y131248D01*
X-3507Y138395D01*
X-5184Y147910D01*
D02*
G37*
G36*
X-9266Y136438D02*
X-18959Y134729D01*
X-19308Y134506D01*
X-19398Y134102D01*
X-17074Y120920D01*
X-16995Y120797D01*
X-16949Y120659D01*
X-16462Y120097D01*
X-16398Y120065D01*
X-16358Y120005D01*
X-15130Y119168D01*
X-15059Y119153D01*
X-15006Y119105D01*
X-13605Y118608D01*
X-13533Y118612D01*
X-13469Y118579D01*
X-11987Y118456D01*
X-11919Y118477D01*
X-11848Y118462D01*
X-10384Y118720D01*
X-10323Y118759D01*
X-10251Y118762D01*
X-8902Y119384D01*
X-8853Y119437D01*
X-8784Y119458D01*
X-7637Y120404D01*
X-7603Y120468D01*
X-7542Y120506D01*
X-6674Y121713D01*
X-6658Y121783D01*
X-6608Y121835D01*
X-6342Y122529D01*
X-6345Y122630D01*
X-6306Y122723D01*
X-6325Y122768D01*
X-6315Y122817D01*
X-8639Y135999D01*
X-8862Y136348D01*
X-9266Y136438D01*
D02*
G37*
G36*
X-24775Y133703D02*
X-34468Y131994D01*
X-34817Y131772D01*
X-34907Y131367D01*
X-32582Y118185D01*
X-32504Y118062D01*
X-32458Y117924D01*
X-31971Y117363D01*
X-31906Y117331D01*
X-31867Y117270D01*
X-30639Y116433D01*
X-30568Y116418D01*
X-30514Y116370D01*
X-29113Y115873D01*
X-29041Y115877D01*
X-28977Y115844D01*
X-27496Y115721D01*
X-27427Y115743D01*
X-27357Y115727D01*
X-25893Y115985D01*
X-25832Y116024D01*
X-25760Y116027D01*
X-24410Y116649D01*
X-24362Y116702D01*
X-24293Y116724D01*
X-23146Y117669D01*
X-23112Y117733D01*
X-23051Y117771D01*
X-22183Y118978D01*
X-22166Y119048D01*
X-22117Y119100D01*
X-21851Y119794D01*
X-21855Y119940D01*
X-21823Y120082D01*
X-24148Y133264D01*
X-24370Y133614D01*
X-24775Y133703D01*
D02*
G37*
G36*
X55460Y137217D02*
X50629Y128850D01*
X86273Y108271D01*
X91103Y116638D01*
X55460Y137217D01*
D02*
G37*
G36*
X58030Y123323D02*
X57701Y123071D01*
X51008Y111478D01*
X50989Y111334D01*
X50936Y111199D01*
X50948Y110456D01*
X50977Y110389D01*
X50968Y110318D01*
X51371Y108887D01*
X51416Y108830D01*
X51426Y108759D01*
X52180Y107478D01*
X52237Y107434D01*
X52265Y107368D01*
X53321Y106321D01*
X53387Y106294D01*
X53431Y106237D01*
X54719Y105494D01*
X54790Y105484D01*
X54847Y105440D01*
X56281Y105049D01*
X56353Y105059D01*
X56419Y105030D01*
X57906Y105018D01*
X57973Y105045D01*
X58044Y105035D01*
X59484Y105401D01*
X59542Y105444D01*
X59614Y105453D01*
X60264Y105813D01*
X60312Y105874D01*
X60383Y105904D01*
X60412Y105972D01*
X60470Y106016D01*
X67162Y117608D01*
X67216Y118019D01*
X66964Y118348D01*
X58440Y123269D01*
X58030Y123323D01*
D02*
G37*
G36*
X41832Y130461D02*
X41042D01*
X40279Y130256D01*
X39595Y129861D01*
X39036Y129303D01*
X38641Y128619D01*
X38497Y128080D01*
X10178Y99761D01*
X-33603D01*
X-45121Y111279D01*
Y123162D01*
X-44842Y123645D01*
X-44638Y124408D01*
Y125198D01*
X-44842Y125961D01*
X-45237Y126645D01*
X-45796Y127204D01*
X-46480Y127599D01*
X-47243Y127803D01*
X-48033D01*
X-48796Y127599D01*
X-49480Y127204D01*
X-50038Y126645D01*
X-50433Y125961D01*
X-50638Y125198D01*
Y124408D01*
X-50433Y123645D01*
X-50155Y123162D01*
Y110236D01*
X-49963Y109273D01*
X-49417Y108457D01*
X-36425Y95464D01*
X-35609Y94919D01*
X-34646Y94727D01*
X11220D01*
X12184Y94919D01*
X13000Y95464D01*
X42057Y124521D01*
X42595Y124665D01*
X43279Y125060D01*
X43838Y125619D01*
X44233Y126303D01*
X44437Y127066D01*
Y127856D01*
X44233Y128619D01*
X43838Y129303D01*
X43279Y129861D01*
X42595Y130256D01*
X41832Y130461D01*
D02*
G37*
G36*
X71668Y115449D02*
X71339Y115197D01*
X64646Y103604D01*
X64627Y103460D01*
X64574Y103325D01*
X64587Y102582D01*
X64615Y102515D01*
X64607Y102444D01*
X65009Y101013D01*
X65054Y100956D01*
X65064Y100885D01*
X65818Y99604D01*
X65876Y99560D01*
X65903Y99494D01*
X66042Y99357D01*
X66043Y98857D01*
X64269Y97083D01*
X60457D01*
X60067Y97005D01*
X59736Y96784D01*
X54357Y91405D01*
X54136Y91074D01*
X54058Y90684D01*
Y88945D01*
X53987Y88873D01*
X53791Y88399D01*
Y87887D01*
X53987Y87414D01*
X54349Y87052D01*
X54822Y86856D01*
X55334D01*
X55807Y87052D01*
X56169Y87414D01*
X56366Y87887D01*
Y88399D01*
X56169Y88873D01*
X56098Y88945D01*
Y90262D01*
X60880Y95043D01*
X64692D01*
X65082Y95121D01*
X65413Y95342D01*
X67934Y97864D01*
X68357Y97620D01*
X68428Y97610D01*
X68485Y97566D01*
X69920Y97175D01*
X69991Y97184D01*
X70057Y97156D01*
X71544Y97144D01*
X71611Y97171D01*
X71682Y97161D01*
X73123Y97527D01*
X73180Y97570D01*
X73252Y97579D01*
X73902Y97939D01*
X73950Y98000D01*
X74022Y98030D01*
X74050Y98097D01*
X74108Y98142D01*
X80800Y109734D01*
X80801Y109734D01*
X80855Y110145D01*
X80814Y110198D01*
X80603Y110474D01*
X72079Y115395D01*
X71668Y115449D01*
D02*
G37*
G36*
X-94432Y98753D02*
X-94489Y98723D01*
X-94799Y98562D01*
X-101126Y91022D01*
X-101250Y90627D01*
X-101059Y90259D01*
X-90805Y81655D01*
X-90666Y81611D01*
X-90542Y81535D01*
X-89808Y81418D01*
X-89738Y81435D01*
X-89669Y81414D01*
X-88190Y81563D01*
X-88126Y81597D01*
X-88054Y81594D01*
X-86661Y82114D01*
X-86609Y82163D01*
X-86539Y82179D01*
X-85547Y82880D01*
X-83526Y80859D01*
X-83195Y80638D01*
X-82805Y80560D01*
X-81977D01*
X-81586Y80638D01*
X-81256Y80859D01*
X-71013Y91102D01*
X-57984D01*
X-55319Y88437D01*
Y88335D01*
X-55123Y87862D01*
X-54761Y87500D01*
X-54287Y87304D01*
X-53775D01*
X-53302Y87500D01*
X-52940Y87862D01*
X-52744Y88335D01*
Y88847D01*
X-52940Y89320D01*
X-53302Y89683D01*
X-53775Y89879D01*
X-53877D01*
X-56841Y92843D01*
X-57171Y93063D01*
X-57562Y93141D01*
X-71435D01*
X-71825Y93063D01*
X-72156Y92843D01*
X-82391Y82608D01*
X-84185Y84401D01*
X-83558Y85732D01*
X-83554Y85804D01*
X-83515Y85864D01*
X-83245Y87326D01*
X-83260Y87396D01*
X-83237Y87465D01*
X-83348Y88947D01*
X-83381Y89012D01*
X-83376Y89083D01*
X-83617Y89781D01*
Y89781D01*
X-83617Y89781D01*
X-83619Y89786D01*
X-83715Y89895D01*
X-83782Y90024D01*
X-94036Y98628D01*
X-94036Y98628D01*
X-94432Y98753D01*
D02*
G37*
G36*
X-99046Y109973D02*
X-125502Y78445D01*
X-118101Y72234D01*
X-91645Y103763D01*
X-99046Y109973D01*
D02*
G37*
G36*
X-104554Y86689D02*
X-104921Y86498D01*
X-111248Y78958D01*
X-111373Y78563D01*
X-111181Y78196D01*
X-100927Y69591D01*
X-100788Y69547D01*
X-100664Y69471D01*
X-99930Y69355D01*
X-99860Y69371D01*
X-99791Y69351D01*
X-98312Y69499D01*
X-98249Y69533D01*
X-98177Y69530D01*
X-96784Y70051D01*
X-96732Y70100D01*
X-96661Y70116D01*
X-95447Y70973D01*
X-95409Y71034D01*
X-95345Y71067D01*
X-94389Y72206D01*
X-94367Y72275D01*
X-94314Y72323D01*
X-93680Y73668D01*
X-93677Y73740D01*
X-93638Y73800D01*
X-93367Y75262D01*
X-93382Y75333D01*
X-93360Y75401D01*
X-93471Y76884D01*
X-93503Y76948D01*
X-93499Y77020D01*
X-93741Y77722D01*
X-93823Y77815D01*
X-93870Y77928D01*
X-93893Y77938D01*
X-93905Y77960D01*
X-104159Y86564D01*
X-104554Y86689D01*
D02*
G37*
G36*
X112403Y73079D02*
X111613D01*
X110850Y72874D01*
X110367Y72596D01*
X95669D01*
X94706Y72404D01*
X93890Y71858D01*
X87197Y65166D01*
X86651Y64349D01*
X86459Y63386D01*
Y27559D01*
X86651Y26596D01*
X87197Y25779D01*
X131875Y-18899D01*
X132692Y-19445D01*
X132975Y-19501D01*
X133197Y-19723D01*
X133881Y-20118D01*
X134644Y-20323D01*
X135434D01*
X136197Y-20118D01*
X136881Y-19723D01*
X137440Y-19165D01*
X137835Y-18481D01*
X138039Y-17718D01*
Y-16928D01*
X137835Y-16165D01*
X137440Y-15481D01*
X136881Y-14922D01*
X136197Y-14527D01*
X135434Y-14323D01*
X134644D01*
X134466Y-14371D01*
X91493Y28602D01*
Y62343D01*
X96712Y67562D01*
X110367D01*
X110850Y67283D01*
X111613Y67079D01*
X112403D01*
X113166Y67283D01*
X113850Y67678D01*
X114409Y68237D01*
X114803Y68921D01*
X115008Y69684D01*
Y70474D01*
X114803Y71237D01*
X114409Y71921D01*
X113850Y72479D01*
X113166Y72874D01*
X112403Y73079D01*
D02*
G37*
G36*
X16462Y62508D02*
X15034D01*
X13656Y62138D01*
X12419Y61425D01*
X11410Y60415D01*
X10696Y59179D01*
X10327Y57800D01*
Y56373D01*
X10696Y54994D01*
X11410Y53758D01*
X12419Y52749D01*
X13656Y52035D01*
X15034Y51665D01*
X16462D01*
X17841Y52035D01*
X19077Y52749D01*
X20086Y53758D01*
X20800Y54994D01*
X21169Y56373D01*
Y57800D01*
X20800Y59179D01*
X20086Y60415D01*
X19077Y61425D01*
X17841Y62138D01*
X16462Y62508D01*
D02*
G37*
G36*
X123310Y57188D02*
X123310Y57188D01*
X110731Y52610D01*
X110624Y52512D01*
X110496Y52442D01*
X110028Y51865D01*
X110008Y51796D01*
X109955Y51747D01*
X109344Y50391D01*
X109342Y50319D01*
X109303Y50258D01*
X109058Y48792D01*
X109074Y48722D01*
X109052Y48653D01*
X109188Y47173D01*
X109222Y47109D01*
X109219Y47037D01*
X109727Y45640D01*
X109776Y45587D01*
X109791Y45517D01*
X110638Y44295D01*
X110699Y44257D01*
X110732Y44192D01*
X111863Y43227D01*
X111931Y43205D01*
X111979Y43151D01*
X113318Y42506D01*
X113390Y42502D01*
X113450Y42463D01*
X114180Y42321D01*
X114316Y42349D01*
X114454Y42339D01*
X114460Y42344D01*
X114468Y42344D01*
X127047Y46922D01*
X127352Y47202D01*
X127370Y47616D01*
X124004Y56865D01*
X123778Y57111D01*
X123724Y57170D01*
X123310Y57188D01*
D02*
G37*
G36*
X-14683Y73335D02*
X-16813D01*
X-18925Y73057D01*
X-20982Y72505D01*
X-22950Y71690D01*
X-24794Y70625D01*
X-26484Y69329D01*
X-27990Y67823D01*
X-29287Y66133D01*
X-30352Y64288D01*
X-31167Y62321D01*
X-31718Y60263D01*
X-31996Y58152D01*
Y56022D01*
X-31718Y53910D01*
X-31167Y51853D01*
X-30352Y49885D01*
X-29287Y48040D01*
X-27990Y46350D01*
X-26484Y44844D01*
X-24794Y43548D01*
X-22950Y42483D01*
X-20982Y41668D01*
X-18925Y41117D01*
X-16813Y40839D01*
X-14683D01*
X-12571Y41117D01*
X-10514Y41668D01*
X-8546Y42483D01*
X-6702Y43548D01*
X-5012Y44844D01*
X-3506Y46350D01*
X-2209Y48040D01*
X-1144Y49885D01*
X-329Y51853D01*
X222Y53910D01*
X500Y56022D01*
Y58152D01*
X222Y60263D01*
X-329Y62321D01*
X-1144Y64288D01*
X-2209Y66133D01*
X-3506Y67823D01*
X-5012Y69329D01*
X-6702Y70625D01*
X-8546Y71690D01*
X-10514Y72505D01*
X-12571Y73057D01*
X-14683Y73335D01*
D02*
G37*
G36*
X128696Y42390D02*
X128696Y42390D01*
X116118Y37812D01*
X116010Y37713D01*
X115882Y37644D01*
X115414Y37067D01*
X115394Y36998D01*
X115341Y36948D01*
X114730Y35593D01*
X114728Y35521D01*
X114690Y35460D01*
X114444Y33994D01*
X114460Y33924D01*
X114438Y33855D01*
X114574Y32375D01*
X114608Y32311D01*
X114605Y32239D01*
X115113Y30842D01*
X115162Y30789D01*
X115177Y30718D01*
X116025Y29497D01*
X116085Y29458D01*
X116118Y29394D01*
X117249Y28429D01*
X117317Y28407D01*
X117365Y28353D01*
X118704Y27708D01*
X118776Y27704D01*
X118836Y27664D01*
X119566Y27523D01*
X119619Y27534D01*
X119669Y27513D01*
X119758Y27550D01*
X119854Y27546D01*
X132433Y32124D01*
X132738Y32404D01*
X132756Y32818D01*
X129390Y42066D01*
X129164Y42313D01*
X129110Y42372D01*
X128696Y42390D01*
D02*
G37*
G36*
X130686Y69465D02*
X121607Y66161D01*
X135684Y27485D01*
X144763Y30790D01*
X130686Y69465D01*
D02*
G37*
G36*
X-122381Y65558D02*
X-123171D01*
X-123934Y65353D01*
X-124618Y64958D01*
X-125177Y64400D01*
X-125572Y63716D01*
X-125776Y62953D01*
Y62163D01*
X-125572Y61400D01*
X-125177Y60716D01*
X-124618Y60157D01*
X-123934Y59762D01*
X-123396Y59618D01*
X-91920Y28142D01*
X-91103Y27596D01*
X-90140Y27404D01*
X-83530D01*
X-83048Y27126D01*
X-82285Y26921D01*
X-81495D01*
X-80732Y27126D01*
X-80048Y27521D01*
X-79489Y28079D01*
X-79094Y28763D01*
X-78890Y29526D01*
Y30316D01*
X-79094Y31079D01*
X-79489Y31763D01*
X-80048Y32322D01*
X-80732Y32717D01*
X-81495Y32921D01*
X-82285D01*
X-83048Y32717D01*
X-83530Y32438D01*
X-89097D01*
X-119836Y63177D01*
X-119981Y63716D01*
X-120376Y64400D01*
X-120934Y64958D01*
X-121618Y65353D01*
X-122381Y65558D01*
D02*
G37*
G36*
X32817Y14051D02*
X32783D01*
Y10500D01*
X36335D01*
Y10533D01*
X36059Y11564D01*
X35525Y12487D01*
X34771Y13242D01*
X33847Y13775D01*
X32817Y14051D01*
D02*
G37*
G36*
X31784D02*
X31750D01*
X30720Y13775D01*
X29796Y13242D01*
X29042Y12487D01*
X28508Y11564D01*
X28232Y10533D01*
Y10500D01*
X31784D01*
Y14051D01*
D02*
G37*
G36*
X36335Y9500D02*
X32783D01*
Y5949D01*
X32817D01*
X33847Y6225D01*
X34771Y6758D01*
X35525Y7513D01*
X36059Y8436D01*
X36335Y9467D01*
Y9500D01*
D02*
G37*
G36*
X31784D02*
X28232D01*
Y9467D01*
X28508Y8436D01*
X29042Y7513D01*
X29796Y6758D01*
X30720Y6225D01*
X31750Y5949D01*
X31784D01*
Y9500D01*
D02*
G37*
G36*
X-76075Y17823D02*
X-90067D01*
Y3831D01*
X-76075D01*
Y17823D01*
D02*
G37*
G36*
X24819Y8874D02*
X17504D01*
Y3528D01*
X24819D01*
Y8874D01*
D02*
G37*
G36*
X-47539Y23460D02*
X-103232D01*
X-103622Y23383D01*
X-103953Y23162D01*
X-116745Y10370D01*
X-118262D01*
X-118737Y10527D01*
X-119116Y11964D01*
X-119160Y12022D01*
X-119169Y12093D01*
X-119901Y13387D01*
X-119958Y13431D01*
X-119985Y13498D01*
X-121022Y14562D01*
X-121089Y14591D01*
X-121132Y14649D01*
X-121769Y15031D01*
X-121913Y15052D01*
X-122047Y15108D01*
X-122047Y15108D01*
X-135433Y15108D01*
X-135816Y14950D01*
X-135974Y14567D01*
Y4724D01*
X-135816Y4342D01*
X-135433Y4183D01*
X-122047Y4183D01*
X-121913Y4239D01*
X-121769Y4260D01*
X-121131Y4643D01*
X-121089Y4701D01*
X-121022Y4729D01*
X-119984Y5793D01*
X-119958Y5860D01*
X-119901Y5904D01*
X-119168Y7198D01*
X-119160Y7270D01*
X-119116Y7327D01*
X-118852Y8331D01*
X-116323D01*
X-115933Y8408D01*
X-115602Y8629D01*
X-102810Y21421D01*
X-47962D01*
X-25819Y-721D01*
X-25489Y-942D01*
X-25098Y-1020D01*
X18004D01*
Y-2468D01*
X24319D01*
Y-1020D01*
X28880D01*
X28974Y-1371D01*
X29442Y-2180D01*
X30103Y-2842D01*
X30913Y-3309D01*
X31816Y-3551D01*
X32751D01*
X33654Y-3309D01*
X34464Y-2842D01*
X35125Y-2180D01*
X35593Y-1371D01*
X35835Y-467D01*
Y467D01*
X35593Y1371D01*
X35125Y2180D01*
X34464Y2842D01*
X33654Y3309D01*
X32751Y3551D01*
X31816D01*
X30913Y3309D01*
X30103Y2842D01*
X29442Y2180D01*
X28974Y1371D01*
X28880Y1020D01*
X24319D01*
Y1878D01*
X18004D01*
Y1020D01*
X-24676D01*
X-46818Y23162D01*
X-47149Y23383D01*
X-47539Y23460D01*
D02*
G37*
G36*
X-58341Y5421D02*
X-59769D01*
X-61148Y5052D01*
X-62384Y4338D01*
X-63393Y3329D01*
X-64107Y2093D01*
X-64476Y714D01*
Y-714D01*
X-64107Y-2093D01*
X-63393Y-3329D01*
X-62384Y-4338D01*
X-61148Y-5052D01*
X-59769Y-5421D01*
X-58341D01*
X-56963Y-5052D01*
X-55726Y-4338D01*
X-54717Y-3329D01*
X-54003Y-2093D01*
X-53634Y-714D01*
Y714D01*
X-54003Y2093D01*
X-54717Y3329D01*
X-55726Y4338D01*
X-56963Y5052D01*
X-58341Y5421D01*
D02*
G37*
G36*
X-122047Y-640D02*
X-135433Y-640D01*
X-135816Y-798D01*
X-135974Y-1181D01*
Y-11024D01*
X-135816Y-11406D01*
X-135433Y-11565D01*
X-122047Y-11565D01*
X-121913Y-11509D01*
X-121769Y-11488D01*
X-121131Y-11105D01*
X-121089Y-11047D01*
X-121022Y-11019D01*
X-119984Y-9955D01*
X-119958Y-9888D01*
X-119901Y-9843D01*
X-119866Y-9782D01*
X-118372D01*
X-103837Y-24317D01*
X-103758Y-24917D01*
X-103551Y-25415D01*
Y-27173D01*
X-101793D01*
X-101295Y-27380D01*
X-100394Y-27498D01*
X-91732D01*
X-90831Y-27380D01*
X-89991Y-27032D01*
X-89270Y-26478D01*
X-84152Y-21360D01*
X-84152Y-21360D01*
X-83598Y-20639D01*
X-83250Y-19799D01*
X-83132Y-18898D01*
Y-14673D01*
X-76075D01*
Y-12517D01*
X29778D01*
X30103Y-12842D01*
X30913Y-13309D01*
X31816Y-13551D01*
X32751D01*
X33654Y-13309D01*
X34464Y-12842D01*
X35125Y-12180D01*
X35593Y-11371D01*
X35835Y-10468D01*
Y-9533D01*
X35593Y-8629D01*
X35125Y-7819D01*
X34464Y-7158D01*
X33654Y-6691D01*
X32751Y-6449D01*
X31816D01*
X30913Y-6691D01*
X30103Y-7158D01*
X29778Y-7483D01*
X-76075D01*
Y-681D01*
X-90067D01*
Y-10994D01*
X-90097Y-11220D01*
Y-17455D01*
X-93175Y-20533D01*
X-97808D01*
X-97931Y-20372D01*
X-114467Y-3837D01*
X-115188Y-3283D01*
X-116028Y-2935D01*
X-116929Y-2817D01*
X-119643D01*
X-119901Y-2361D01*
X-119958Y-2317D01*
X-119984Y-2250D01*
X-121022Y-1186D01*
X-121089Y-1157D01*
X-121132Y-1099D01*
X-121769Y-717D01*
X-121830Y-708D01*
X-121876Y-668D01*
X-121965Y-674D01*
X-122047Y-640D01*
D02*
G37*
G36*
X60120Y16248D02*
X57990D01*
X55879Y15970D01*
X53821Y15419D01*
X51853Y14604D01*
X50009Y13539D01*
X48319Y12242D01*
X46813Y10736D01*
X45516Y9046D01*
X44451Y7202D01*
X43636Y5234D01*
X43085Y3177D01*
X42807Y1065D01*
Y-1065D01*
X43085Y-3177D01*
X43636Y-5234D01*
X44451Y-7202D01*
X45516Y-9046D01*
X46813Y-10736D01*
X48319Y-12242D01*
X50009Y-13539D01*
X51853Y-14604D01*
X53821Y-15419D01*
X55879Y-15970D01*
X57990Y-16248D01*
X60120D01*
X62232Y-15970D01*
X64289Y-15419D01*
X66257Y-14604D01*
X68101Y-13539D01*
X69791Y-12242D01*
X71297Y-10736D01*
X72594Y-9046D01*
X73659Y-7202D01*
X74474Y-5234D01*
X75025Y-3177D01*
X75303Y-1065D01*
Y1065D01*
X75025Y3177D01*
X74474Y5234D01*
X73659Y7202D01*
X72594Y9046D01*
X71297Y10736D01*
X69791Y12242D01*
X68101Y13539D01*
X66257Y14604D01*
X64289Y15419D01*
X62232Y15970D01*
X60120Y16248D01*
D02*
G37*
G36*
X-136902Y20579D02*
X-146563D01*
Y-20579D01*
X-136902D01*
Y20579D01*
D02*
G37*
G36*
X-99894Y-34143D02*
Y-37295D01*
X-96741D01*
X-96986Y-36384D01*
X-97467Y-35550D01*
X-98148Y-34869D01*
X-98982Y-34387D01*
X-99894Y-34143D01*
D02*
G37*
G36*
X-100894Y-34143D02*
X-101805Y-34387D01*
X-102639Y-34869D01*
X-103320Y-35550D01*
X-103802Y-36384D01*
X-104046Y-37295D01*
X-100894D01*
Y-34143D01*
D02*
G37*
G36*
Y-38295D02*
X-104046D01*
X-103802Y-39207D01*
X-103320Y-40041D01*
X-102639Y-40722D01*
X-101805Y-41203D01*
X-100894Y-41448D01*
Y-38295D01*
D02*
G37*
G36*
X-96741D02*
X-99894D01*
Y-41448D01*
X-98982Y-41203D01*
X-98148Y-40722D01*
X-97467Y-40041D01*
X-96986Y-39207D01*
X-96741Y-38295D01*
D02*
G37*
G36*
X118354Y-30852D02*
X117624Y-30994D01*
X117564Y-31034D01*
X117493Y-31038D01*
X116153Y-31683D01*
X116105Y-31736D01*
X116037Y-31759D01*
X114906Y-32724D01*
X114873Y-32788D01*
X114813Y-32827D01*
X113965Y-34048D01*
X113950Y-34119D01*
X113901Y-34172D01*
X113393Y-35569D01*
X113396Y-35641D01*
X113362Y-35704D01*
X113227Y-37185D01*
X113248Y-37253D01*
X113232Y-37324D01*
X113478Y-38790D01*
X113516Y-38851D01*
X113518Y-38923D01*
X114129Y-40278D01*
X114182Y-40327D01*
X114202Y-40396D01*
X114671Y-40974D01*
X114697Y-40988D01*
X114708Y-41015D01*
X114818Y-41061D01*
X114906Y-41141D01*
X127484Y-45720D01*
X127484Y-45720D01*
X127898Y-45702D01*
X127943Y-45652D01*
X128178Y-45396D01*
X131544Y-36147D01*
X131526Y-35733D01*
X131221Y-35453D01*
X118642Y-30875D01*
X118497Y-30882D01*
X118354Y-30852D01*
D02*
G37*
G36*
X112968Y-45651D02*
X112238Y-45792D01*
X112178Y-45832D01*
X112106Y-45836D01*
X110767Y-46481D01*
X110719Y-46535D01*
X110651Y-46557D01*
X109524Y-47518D01*
X108138Y-46132D01*
X107807Y-45911D01*
X107417Y-45833D01*
X95807D01*
X95417Y-45911D01*
X95086Y-46132D01*
X87759Y-53459D01*
X87657D01*
X87184Y-53655D01*
X86822Y-54017D01*
X86626Y-54491D01*
Y-55003D01*
X86822Y-55476D01*
X87184Y-55838D01*
X87657Y-56034D01*
X88169D01*
X88643Y-55838D01*
X89005Y-55476D01*
X89201Y-55003D01*
Y-54901D01*
X96230Y-47872D01*
X106995D01*
X108402Y-49280D01*
X108007Y-50367D01*
X108010Y-50439D01*
X107976Y-50503D01*
X107841Y-51983D01*
X107862Y-52052D01*
X107846Y-52122D01*
X108092Y-53588D01*
X108130Y-53649D01*
X108132Y-53721D01*
X108743Y-55076D01*
X108796Y-55126D01*
X108816Y-55195D01*
X109284Y-55772D01*
X109311Y-55786D01*
X109322Y-55814D01*
X109322Y-55814D01*
X109432Y-55859D01*
X109520Y-55940D01*
X122098Y-60518D01*
X122098Y-60518D01*
X122512Y-60500D01*
X122557Y-60450D01*
X122792Y-60194D01*
X126158Y-50946D01*
X126158Y-50945D01*
X126140Y-50532D01*
X126091Y-50486D01*
X125835Y-50252D01*
X113256Y-45674D01*
X113111Y-45680D01*
X112968Y-45651D01*
D02*
G37*
G36*
X-88335Y-52744D02*
X-88847D01*
X-89320Y-52940D01*
X-89502Y-53122D01*
X-89701D01*
X-90091Y-53199D01*
X-90422Y-53420D01*
X-94348Y-57346D01*
X-94569Y-57677D01*
X-94646Y-58067D01*
Y-64246D01*
X-98272Y-67872D01*
X-98939Y-67401D01*
X-99009Y-67385D01*
X-99062Y-67336D01*
X-100454Y-66816D01*
X-100526Y-66818D01*
X-100590Y-66785D01*
X-102069Y-66636D01*
X-102138Y-66657D01*
X-102208Y-66640D01*
X-102942Y-66757D01*
X-102982Y-66781D01*
X-103028Y-66778D01*
X-103106Y-66846D01*
X-103205Y-66877D01*
X-113459Y-75481D01*
X-113650Y-75849D01*
X-113526Y-76244D01*
X-107199Y-83784D01*
X-106832Y-83975D01*
X-106437Y-83850D01*
X-96183Y-75246D01*
X-96115Y-75117D01*
X-96019Y-75008D01*
X-95776Y-74305D01*
X-95781Y-74233D01*
X-95748Y-74169D01*
X-95637Y-72687D01*
X-95660Y-72618D01*
X-95645Y-72548D01*
X-95915Y-71086D01*
X-95955Y-71026D01*
X-95958Y-70954D01*
X-96592Y-69609D01*
X-96601Y-69085D01*
X-92906Y-65390D01*
X-92685Y-65059D01*
X-92607Y-64669D01*
Y-58489D01*
X-89279Y-55161D01*
X-89228D01*
X-88847Y-55319D01*
X-88335D01*
X-87862Y-55123D01*
X-87500Y-54761D01*
X-87304Y-54287D01*
Y-53775D01*
X-87500Y-53302D01*
X-87862Y-52940D01*
X-88335Y-52744D01*
D02*
G37*
G36*
X16462Y-51665D02*
X15034D01*
X13656Y-52035D01*
X12419Y-52749D01*
X11410Y-53758D01*
X10696Y-54994D01*
X10327Y-56373D01*
Y-57800D01*
X10696Y-59179D01*
X11410Y-60415D01*
X12419Y-61425D01*
X13656Y-62138D01*
X15034Y-62508D01*
X16462D01*
X17841Y-62138D01*
X19077Y-61425D01*
X20086Y-60415D01*
X20800Y-59179D01*
X21169Y-57800D01*
Y-56373D01*
X20800Y-54994D01*
X20086Y-53758D01*
X19077Y-52749D01*
X17841Y-52035D01*
X16462Y-51665D01*
D02*
G37*
G36*
X135684Y-27485D02*
X121607Y-66161D01*
X130686Y-69465D01*
X144763Y-30790D01*
X135684Y-27485D01*
D02*
G37*
G36*
X-14683Y-40839D02*
X-16813D01*
X-18925Y-41117D01*
X-20982Y-41668D01*
X-22950Y-42483D01*
X-24794Y-43548D01*
X-26484Y-44844D01*
X-27990Y-46350D01*
X-29287Y-48040D01*
X-30352Y-49885D01*
X-31167Y-51853D01*
X-31718Y-53910D01*
X-31996Y-56022D01*
Y-58152D01*
X-31718Y-60263D01*
X-31167Y-62321D01*
X-30352Y-64288D01*
X-29287Y-66133D01*
X-27990Y-67823D01*
X-26484Y-69329D01*
X-24794Y-70625D01*
X-22950Y-71690D01*
X-20982Y-72505D01*
X-18925Y-73057D01*
X-16813Y-73335D01*
X-14683D01*
X-12571Y-73057D01*
X-10514Y-72505D01*
X-8546Y-71690D01*
X-6702Y-70625D01*
X-5012Y-69329D01*
X-3506Y-67823D01*
X-2209Y-66133D01*
X-1144Y-64288D01*
X-329Y-62321D01*
X222Y-60263D01*
X500Y-58152D01*
Y-56022D01*
X222Y-53910D01*
X-329Y-51853D01*
X-1144Y-49885D01*
X-2209Y-48040D01*
X-3506Y-46350D01*
X-5012Y-44844D01*
X-6702Y-43548D01*
X-8546Y-42483D01*
X-10514Y-41668D01*
X-12571Y-41117D01*
X-14683Y-40839D01*
D02*
G37*
G36*
X-91947Y-78700D02*
X-92015Y-78721D01*
X-92085Y-78704D01*
X-92819Y-78821D01*
X-92892Y-78865D01*
X-92976Y-78871D01*
X-93020Y-78921D01*
X-93082Y-78941D01*
X-103336Y-87545D01*
X-103528Y-87912D01*
X-103403Y-88307D01*
X-97076Y-95847D01*
X-96709Y-96038D01*
X-96314Y-95914D01*
X-86060Y-87310D01*
X-85993Y-87181D01*
X-85896Y-87072D01*
X-85654Y-86369D01*
X-85658Y-86297D01*
X-85626Y-86233D01*
X-85515Y-84750D01*
X-85537Y-84682D01*
X-85522Y-84611D01*
X-85793Y-83150D01*
X-85832Y-83089D01*
X-85835Y-83017D01*
X-86469Y-81673D01*
X-86523Y-81624D01*
X-86544Y-81555D01*
X-87500Y-80417D01*
X-87564Y-80383D01*
X-87602Y-80323D01*
X-88816Y-79465D01*
X-88886Y-79449D01*
X-88939Y-79400D01*
X-90332Y-78880D01*
X-90404Y-78882D01*
X-90467Y-78848D01*
X-91947Y-78700D01*
D02*
G37*
G36*
X68475Y-98916D02*
X66989Y-98928D01*
X66922Y-98956D01*
X66851Y-98947D01*
X65417Y-99338D01*
X65360Y-99382D01*
X65288Y-99391D01*
X64001Y-100135D01*
X63957Y-100192D01*
X63890Y-100219D01*
X62835Y-101266D01*
X62807Y-101332D01*
X62749Y-101376D01*
X61995Y-102657D01*
X61985Y-102728D01*
X61941Y-102785D01*
X61538Y-104216D01*
X61546Y-104287D01*
X61518Y-104353D01*
X61505Y-105096D01*
X61507Y-105101D01*
X61505Y-105105D01*
X61559Y-105236D01*
X61578Y-105376D01*
X68271Y-116969D01*
X68271Y-116969D01*
X68599Y-117221D01*
X68665Y-117212D01*
X69010Y-117167D01*
X77534Y-112245D01*
X77786Y-111917D01*
X77732Y-111506D01*
X71039Y-99914D01*
X70924Y-99825D01*
X70833Y-99711D01*
X70183Y-99350D01*
X70112Y-99342D01*
X70054Y-99299D01*
X68613Y-98932D01*
X68542Y-98943D01*
X68475Y-98916D01*
D02*
G37*
G36*
X77233Y-81440D02*
X51575D01*
X50612Y-81631D01*
X49795Y-82177D01*
X7816Y-124156D01*
X7271Y-124973D01*
X7079Y-125936D01*
Y-132388D01*
X6992Y-132475D01*
X6597Y-133159D01*
X6392Y-133923D01*
Y-134712D01*
X6597Y-135475D01*
X6992Y-136160D01*
X7550Y-136718D01*
X8234Y-137113D01*
X8997Y-137317D01*
X9787D01*
X10550Y-137113D01*
X11234Y-136718D01*
X11793Y-136160D01*
X12188Y-135475D01*
X12392Y-134712D01*
Y-133923D01*
X12188Y-133159D01*
X12113Y-133029D01*
Y-126978D01*
X52617Y-86474D01*
X76191D01*
X89962Y-100245D01*
X90106Y-100783D01*
X90501Y-101467D01*
X91060Y-102026D01*
X91744Y-102421D01*
X92507Y-102625D01*
X93297D01*
X94060Y-102421D01*
X94744Y-102026D01*
X95302Y-101467D01*
X95697Y-100783D01*
X95902Y-100020D01*
Y-99230D01*
X95697Y-98467D01*
X95302Y-97783D01*
X94744Y-97224D01*
X94060Y-96830D01*
X93521Y-96685D01*
X79013Y-82177D01*
X78197Y-81631D01*
X77233Y-81440D01*
D02*
G37*
G36*
X54837Y-106790D02*
X53350Y-106802D01*
X53284Y-106830D01*
X53213Y-106821D01*
X51778Y-107212D01*
X51721Y-107256D01*
X51650Y-107265D01*
X50363Y-108009D01*
X50319Y-108066D01*
X50252Y-108093D01*
X49196Y-109140D01*
X49169Y-109206D01*
X49111Y-109250D01*
X48357Y-110531D01*
X48347Y-110602D01*
X48303Y-110659D01*
X47900Y-112090D01*
X47908Y-112161D01*
X47880Y-112227D01*
X47867Y-112970D01*
X47869Y-112975D01*
X47867Y-112980D01*
X47921Y-113110D01*
X47940Y-113250D01*
X54633Y-124843D01*
X54633Y-124843D01*
X54961Y-125095D01*
X55027Y-125086D01*
X55372Y-125041D01*
X63896Y-120119D01*
X64148Y-119791D01*
X64094Y-119380D01*
X57401Y-107788D01*
X57285Y-107699D01*
X57195Y-107585D01*
X56545Y-107224D01*
X56473Y-107216D01*
X56416Y-107173D01*
X54975Y-106806D01*
X54904Y-106817D01*
X54837Y-106790D01*
D02*
G37*
G36*
X-118100Y-72234D02*
X-125502Y-78445D01*
X-99046Y-109973D01*
X-91645Y-103763D01*
X-118100Y-72234D01*
D02*
G37*
G36*
X-30986Y-115106D02*
X-32467Y-115229D01*
X-32531Y-115262D01*
X-32603Y-115258D01*
X-34004Y-115755D01*
X-34058Y-115803D01*
X-34128Y-115818D01*
X-35357Y-116655D01*
X-35396Y-116715D01*
X-35460Y-116747D01*
X-35948Y-117309D01*
X-35982Y-117411D01*
X-36052Y-117492D01*
X-36049Y-117534D01*
X-36072Y-117570D01*
X-38396Y-130752D01*
X-38307Y-131156D01*
X-37957Y-131379D01*
X-28264Y-133088D01*
X-27860Y-132999D01*
X-27637Y-132649D01*
X-27637Y-132649D01*
X-25313Y-119467D01*
X-25344Y-119325D01*
X-25341Y-119179D01*
X-25607Y-118485D01*
X-25656Y-118433D01*
X-25673Y-118363D01*
X-26540Y-117156D01*
X-26602Y-117118D01*
X-26635Y-117054D01*
X-27782Y-116108D01*
X-27851Y-116087D01*
X-27900Y-116034D01*
X-29250Y-115412D01*
X-29322Y-115409D01*
X-29383Y-115370D01*
X-30847Y-115112D01*
X-30917Y-115128D01*
X-30986Y-115106D01*
D02*
G37*
G36*
X-15477Y-117840D02*
X-16958Y-117964D01*
X-17022Y-117997D01*
X-17094Y-117993D01*
X-18495Y-118490D01*
X-18549Y-118538D01*
X-18619Y-118552D01*
X-19848Y-119390D01*
X-19887Y-119450D01*
X-19952Y-119482D01*
X-20439Y-120044D01*
X-20485Y-120181D01*
X-20563Y-120304D01*
X-22887Y-133487D01*
X-22798Y-133891D01*
X-22448Y-134114D01*
X-12755Y-135823D01*
X-12351Y-135733D01*
X-12128Y-135384D01*
X-12129Y-135384D01*
X-9804Y-122201D01*
X-9836Y-122059D01*
X-9832Y-121914D01*
X-10098Y-121220D01*
X-10147Y-121167D01*
X-10164Y-121097D01*
X-11032Y-119890D01*
X-11093Y-119852D01*
X-11127Y-119789D01*
X-12273Y-118843D01*
X-12342Y-118822D01*
X-12391Y-118769D01*
X-13741Y-118146D01*
X-13813Y-118143D01*
X-13874Y-118105D01*
X-15338Y-117847D01*
X-15408Y-117862D01*
X-15477Y-117840D01*
D02*
G37*
G36*
X86273Y-108271D02*
X50629Y-128850D01*
X55460Y-137217D01*
X91103Y-116638D01*
X86273Y-108271D01*
D02*
G37*
G36*
X-44039Y-131248D02*
X-45717Y-140763D01*
X-5184Y-147910D01*
X-3507Y-138395D01*
X-44039Y-131248D01*
D02*
G37*
%LPD*%
G36*
X-6848Y122723D02*
X-6848Y122723D01*
X-7114Y122029D01*
X-7982Y120822D01*
X-9128Y119876D01*
X-10478Y119253D01*
X-11942Y118995D01*
X-13424Y119118D01*
X-14825Y119615D01*
X-16053Y120452D01*
X-16541Y121013D01*
X-18865Y134196D01*
X-9172Y135905D01*
X-6848Y122723D01*
D02*
G37*
G36*
X-22356Y119988D02*
X-22356Y119988D01*
X-22622Y119294D01*
X-23490Y118087D01*
X-24637Y117141D01*
X-25987Y116518D01*
X-27451Y116260D01*
X-28932Y116384D01*
X-30334Y116880D01*
X-31562Y117718D01*
X-32049Y118279D01*
X-34374Y131461D01*
X-24681Y133170D01*
X-22356Y119988D01*
D02*
G37*
G36*
X66694Y117879D02*
X60001Y106287D01*
X60001Y106287D01*
X59351Y105926D01*
X57910Y105559D01*
X56424Y105572D01*
X54989Y105962D01*
X53702Y106706D01*
X52646Y107752D01*
X51892Y109034D01*
X51489Y110465D01*
X51477Y111208D01*
X58170Y122800D01*
X66694Y117879D01*
D02*
G37*
G36*
X80332Y110005D02*
X73639Y98413D01*
X73639Y98413D01*
X72989Y98052D01*
X71548Y97685D01*
X70062Y97698D01*
X68628Y98088D01*
X67340Y98832D01*
X66285Y99878D01*
X65530Y101160D01*
X65128Y102591D01*
X65115Y103334D01*
X71808Y114926D01*
X80332Y110005D01*
D02*
G37*
G36*
X-84130Y89609D02*
X-84130Y89609D01*
X-83888Y88907D01*
X-83777Y87424D01*
X-84047Y85962D01*
X-84681Y84618D01*
X-85637Y83479D01*
X-86851Y82621D01*
X-88244Y82101D01*
X-89723Y81953D01*
X-90457Y82070D01*
X-100711Y90674D01*
X-94384Y98214D01*
X-84130Y89609D01*
D02*
G37*
G36*
X-94253Y77546D02*
X-94253D01*
X-94010Y76843D01*
X-93900Y75361D01*
X-94170Y73899D01*
X-94804Y72554D01*
X-95759Y71415D01*
X-96974Y70557D01*
X-98366Y70037D01*
X-99845Y69889D01*
X-100579Y70006D01*
X-110834Y78610D01*
X-104507Y86150D01*
X-94253Y77546D01*
D02*
G37*
G36*
X126862Y47431D02*
X114283Y42853D01*
X114283Y42853D01*
X113553Y42994D01*
X112214Y43639D01*
X111083Y44604D01*
X110236Y45825D01*
X109727Y47222D01*
X109591Y48703D01*
X109837Y50169D01*
X110448Y51524D01*
X110917Y52101D01*
X123495Y56680D01*
X126862Y47431D01*
D02*
G37*
G36*
X132248Y32632D02*
X119669Y28054D01*
Y28054D01*
X118939Y28196D01*
X117600Y28841D01*
X116469Y29806D01*
X115622Y31027D01*
X115113Y32424D01*
X114977Y33904D01*
X115223Y35371D01*
X115835Y36726D01*
X116303Y37303D01*
X128881Y41881D01*
X132248Y32632D01*
D02*
G37*
G36*
X-122047Y14567D02*
X-121410Y14185D01*
X-120372Y13120D01*
X-119640Y11827D01*
X-119261Y10389D01*
X-119261Y8902D01*
X-119640Y7465D01*
X-120372Y6171D01*
X-121410Y5107D01*
X-122047Y4724D01*
X-135433Y4724D01*
Y14567D01*
X-122047Y14567D01*
X-122047Y14567D01*
D02*
G37*
G36*
X-122047Y-1181D02*
X-121410Y-1564D01*
X-120372Y-2628D01*
X-119640Y-3921D01*
X-119261Y-5359D01*
X-119261Y-6846D01*
X-119640Y-8283D01*
X-120372Y-9577D01*
X-121410Y-10641D01*
X-122047Y-11024D01*
X-135433Y-11024D01*
Y-1181D01*
X-122047Y-1181D01*
X-122047Y-1181D01*
D02*
G37*
G36*
X131036Y-35962D02*
X127669Y-45211D01*
X115091Y-40633D01*
X115091D01*
X114623Y-40055D01*
X114011Y-38700D01*
X113766Y-37234D01*
X113901Y-35754D01*
X114410Y-34357D01*
X115257Y-33135D01*
X116388Y-32170D01*
X117727Y-31525D01*
X118457Y-31384D01*
X131036Y-35962D01*
D02*
G37*
G36*
X125650Y-50760D02*
X122283Y-60009D01*
X109705Y-55431D01*
X109705Y-55431D01*
X109705Y-55431D01*
D01*
X109237Y-54854D01*
X108625Y-53499D01*
X108379Y-52033D01*
X108515Y-50552D01*
X109024Y-49155D01*
X109871Y-47934D01*
X111002Y-46969D01*
X112341Y-46323D01*
X113071Y-46182D01*
X125650Y-50760D01*
D02*
G37*
G36*
X-100644Y-67323D02*
X-99251Y-67843D01*
X-98037Y-68701D01*
X-97081Y-69840D01*
X-96447Y-71184D01*
X-96177Y-72646D01*
X-96288Y-74129D01*
X-96530Y-74831D01*
X-106784Y-83436D01*
X-113111Y-75896D01*
X-102857Y-67292D01*
X-102857Y-67292D01*
X-102123Y-67175D01*
X-100644Y-67323D01*
D02*
G37*
G36*
X-90521Y-79387D02*
X-89129Y-79907D01*
X-87914Y-80765D01*
X-86959Y-81903D01*
X-86325Y-83248D01*
X-86054Y-84710D01*
X-86165Y-86192D01*
X-86408Y-86895D01*
X-96662Y-95499D01*
X-102989Y-87959D01*
X-92734Y-79355D01*
X-92734Y-79355D01*
X-92000Y-79238D01*
X-90521Y-79387D01*
D02*
G37*
G36*
X69920Y-99823D02*
X70570Y-100184D01*
X77263Y-111777D01*
X68739Y-116698D01*
X62046Y-105105D01*
X62046Y-105105D01*
X62059Y-104362D01*
X62462Y-102931D01*
X63216Y-101650D01*
X64271Y-100603D01*
X65559Y-99860D01*
X66993Y-99469D01*
X68480Y-99457D01*
X69920Y-99823D01*
D02*
G37*
G36*
X56282Y-107697D02*
X56932Y-108058D01*
X63625Y-119651D01*
X55101Y-124572D01*
X48408Y-112980D01*
X48408Y-112980D01*
X48421Y-112236D01*
X48824Y-110805D01*
X49578Y-109524D01*
X50633Y-108477D01*
X51921Y-107734D01*
X53355Y-107343D01*
X54842Y-107331D01*
X56282Y-107697D01*
D02*
G37*
G36*
X-29477Y-115903D02*
X-28127Y-116526D01*
X-26980Y-117472D01*
X-26112Y-118678D01*
X-25846Y-119373D01*
X-28170Y-132555D01*
X-37863Y-130846D01*
X-35539Y-117664D01*
X-35539Y-117664D01*
X-35052Y-117102D01*
X-33823Y-116265D01*
X-32422Y-115768D01*
X-30941Y-115645D01*
X-29477Y-115903D01*
D02*
G37*
G36*
X-13968Y-118638D02*
X-12618Y-119260D01*
X-11471Y-120206D01*
X-10603Y-121413D01*
X-10337Y-122107D01*
X-12662Y-135290D01*
X-22355Y-133581D01*
X-20030Y-120398D01*
Y-120398D01*
X-19543Y-119837D01*
X-18315Y-119000D01*
X-16913Y-118503D01*
X-15432Y-118379D01*
X-13968Y-118638D01*
D02*
G37*
D28*
X-150394Y15264D02*
X-150394Y15264D01*
X95433Y-117647D02*
X97961D01*
X150000Y25984D02*
X150394Y25591D01*
X135772Y66889D02*
X135988Y66673D01*
X146850Y36138D02*
X146933D01*
X96457Y118504D02*
X100000Y114961D01*
X54497Y-143307D02*
X57126Y-140678D01*
X135988Y66673D02*
X135988D01*
X-4543Y-152756D02*
X3150D01*
X-135039Y-73228D02*
X-128621Y-79647D01*
X146260Y36811D02*
X146933Y36138D01*
X-105451Y109000D02*
X-101796Y112656D01*
X-126772Y83465D02*
X-125609Y84627D01*
X-53937Y142913D02*
X-53150Y143701D01*
X-55905Y-141339D02*
X-52759Y-144485D01*
X59003Y-138801D02*
X62350D01*
X135433Y-66815D02*
X136366Y-65882D01*
X88975Y-122644D02*
X91807Y-119812D01*
X-150394Y28740D02*
X-150394Y28740D01*
Y20866D02*
Y28740D01*
X-128621Y-80687D02*
Y-80687D01*
X-105057Y-109394D02*
X-101796Y-112656D01*
X135276Y-66693D02*
X135433Y-66850D01*
X150000Y25984D02*
Y28346D01*
X89405Y122618D02*
X89582Y122441D01*
X135988Y66673D02*
X136570Y66092D01*
X130682Y78320D02*
X132677Y76325D01*
X-133858Y74410D02*
Y75449D01*
X-96850Y117601D02*
Y118110D01*
X-101796Y112656D02*
Y112656D01*
X-105451Y108722D02*
Y109000D01*
X-125609Y-85021D02*
Y-83698D01*
X-96063Y-118504D02*
Y-118388D01*
X135433Y-66850D02*
Y-66815D01*
X146850Y-37142D02*
Y-35827D01*
X147638Y-35039D01*
X-9499Y-151732D02*
X-5567D01*
X-1575Y152362D02*
X1575D01*
X149606Y-26096D02*
X150506Y-25197D01*
X149606Y-28346D02*
Y-26096D01*
X-43121Y-144485D02*
X-41301Y-146305D01*
X-101796Y112656D02*
Y112656D01*
X-5567Y-151732D02*
X-4543Y-152756D01*
X-10988Y-150244D02*
X-9499Y-151732D01*
X135433Y-67323D02*
Y-66850D01*
X57126Y-140678D02*
X57126D01*
X134187Y-74121D02*
Y-71045D01*
X-101796Y-112656D02*
Y-112656D01*
X130955Y-77354D02*
X134187Y-74121D01*
X-128621Y-80687D02*
Y-79647D01*
X-105057Y-109394D02*
Y-108329D01*
X57126Y-140678D02*
X59003Y-138801D01*
X93268Y-119812D02*
X95433Y-117647D01*
X48819Y-143307D02*
X54497D01*
X-101796Y112656D02*
X-96850Y117601D01*
X-53150Y143701D02*
X-50394D01*
X-101796Y-112656D02*
X-96063Y-118388D01*
X-150506Y-28346D02*
X-150394Y-28234D01*
X-128621Y-80687D02*
X-125609Y-83698D01*
X-150394Y15264D02*
Y20866D01*
X91807Y-119812D02*
X93268D01*
X-46665Y-144485D02*
X-43121D01*
X60630Y139370D02*
X62008Y137992D01*
X146933Y36138D02*
X147638Y35433D01*
X50000Y143307D02*
X54331D01*
X-42913Y145276D02*
X-41937D01*
X-10636Y151575D02*
X-9055D01*
X89582Y122441D02*
X90158D01*
X-52759Y-144485D02*
X-46665D01*
X-133858Y75449D02*
X-128621Y80687D01*
X-150394Y-20866D02*
Y-15264D01*
Y-28234D02*
Y-20866D01*
X-125609Y84627D02*
Y85021D01*
X132677Y74410D02*
Y76325D01*
X57126Y-140678D02*
X57126D01*
X-150394Y-15264D02*
X-150394Y-15264D01*
X133655Y-17119D02*
X134836D01*
X135039Y-17323D01*
X88976Y27559D02*
X133655Y-17119D01*
X139741Y-59078D02*
X139764Y-59055D01*
X68898Y-135134D02*
Y-135039D01*
X9596Y-125936D02*
X51575Y-83957D01*
X9392Y-134317D02*
X9596Y-134114D01*
Y-125936D01*
X51575Y-83957D02*
X77233D01*
X92902Y-99625D01*
X-121260Y-91313D02*
X-121174Y-91399D01*
X-121260Y-91313D02*
Y-90945D01*
X-34252Y-147728D02*
Y-147638D01*
Y-147728D02*
X-34075Y-147905D01*
X82607Y-127331D02*
Y-127236D01*
X82677Y-127165D01*
X68898Y-135134D02*
X68968Y-135205D01*
X139741Y-59241D02*
Y-59078D01*
X139370Y59611D02*
Y59842D01*
Y59611D02*
X139741Y59241D01*
X-122621Y62402D02*
X-90140Y29921D01*
X-81890D01*
X-83071Y-7677D02*
X-80748Y-10000D01*
X32283D01*
X88976Y63386D02*
X95669Y70079D01*
X112008D01*
X11220Y97244D02*
X41437Y127461D01*
X-34646Y97244D02*
X11220D01*
X-47638Y110236D02*
X-34646Y97244D01*
X-47638Y110236D02*
Y124515D01*
X88976Y27559D02*
Y63386D01*
D29*
X-122441Y9843D02*
D03*
X-151575Y-7874D02*
D03*
X-150394Y-20866D02*
D03*
X-151575Y7874D02*
D03*
X-122835Y-6299D02*
D03*
X-150394Y20866D02*
D03*
X-101796Y112656D02*
D03*
X-98146Y74131D02*
D03*
X-111052Y103462D02*
D03*
X-128621Y80687D02*
D03*
X-121174Y91399D02*
D03*
X-87469Y86243D02*
D03*
X-11569Y122290D02*
D03*
X-34075Y147905D02*
D03*
X-46665Y144485D02*
D03*
X-18566Y150639D02*
D03*
X-27534Y119875D02*
D03*
X-5566Y151732D02*
D03*
X93268Y119812D02*
D03*
X55962Y109528D02*
D03*
X82607Y127331D02*
D03*
X57126Y140678D02*
D03*
X68968Y135205D02*
D03*
X69744Y101116D02*
D03*
X118423Y32628D02*
D03*
X139741Y59241D02*
D03*
X134187Y71045D02*
D03*
X145127Y44442D02*
D03*
X113272Y47931D02*
D03*
X148460Y31830D02*
D03*
X134187Y-71045D02*
D03*
X117581Y-36093D02*
D03*
X139741Y-59241D02*
D03*
X148460Y-31830D02*
D03*
X145127Y-44442D02*
D03*
X111690Y-51126D02*
D03*
X52697Y-110958D02*
D03*
X82607Y-127331D02*
D03*
X93268Y-119812D02*
D03*
X68968Y-135205D02*
D03*
X66873Y-103228D02*
D03*
X57126Y-140678D02*
D03*
X-46665Y-144485D02*
D03*
X-15126Y-122062D02*
D03*
X-34075Y-147905D02*
D03*
X-5566Y-151732D02*
D03*
X-18566Y-150639D02*
D03*
X-30955Y-118872D02*
D03*
X-100122Y-71164D02*
D03*
X-111052Y-103462D02*
D03*
X-101796Y-112656D02*
D03*
X-121174Y-91399D02*
D03*
X-90048Y-83782D02*
D03*
X-128621Y-80687D02*
D03*
D30*
X-141732Y-0D02*
D03*
D31*
X-108573Y91104D02*
D03*
D32*
X-24612Y139579D02*
D03*
D33*
X70866Y122744D02*
D03*
D34*
X133185Y48475D02*
D03*
D35*
X133185Y-48475D02*
D03*
D36*
X70866Y-122744D02*
D03*
D37*
X-24611Y-139579D02*
D03*
D38*
X-108573Y-91104D02*
D03*
D39*
X15748Y57087D02*
D03*
X-59055Y0D02*
D03*
X15748Y-57087D02*
D03*
D40*
X-100394Y-24016D02*
D03*
D41*
Y-37795D02*
D03*
D42*
X-15748Y57087D02*
D03*
Y-57087D02*
D03*
X59055Y0D02*
D03*
D43*
X32283Y10000D02*
D03*
Y0D02*
D03*
X32283Y-10000D02*
D03*
D44*
X-122047Y-71260D02*
D03*
X-126378Y-74016D02*
D03*
X-94882Y-111024D02*
D03*
X-90945Y-107874D02*
D03*
X-47638Y-132677D02*
D03*
X-48425Y-137402D02*
D03*
X-1575Y-146063D02*
D03*
X-787Y-141339D02*
D03*
X48819Y-132677D02*
D03*
X51181Y-136614D02*
D03*
X92520Y-112992D02*
D03*
X90158Y-109055D02*
D03*
X122835Y-69685D02*
D03*
X127559Y-71260D02*
D03*
X143701Y-27165D02*
D03*
X138976Y-25591D02*
D03*
X143701Y27165D02*
D03*
X139370Y25591D02*
D03*
X122441Y70079D02*
D03*
X127165Y72047D02*
D03*
X92913Y113386D02*
D03*
X90551Y109449D02*
D03*
X48819Y132677D02*
D03*
X51181Y137008D02*
D03*
X-1181Y146850D02*
D03*
X-394Y142520D02*
D03*
X-47638Y133465D02*
D03*
X-48819Y138189D02*
D03*
X-95669Y111024D02*
D03*
X-92126Y108268D02*
D03*
X-122835Y71653D02*
D03*
X-126378Y74410D02*
D03*
X-138976Y24016D02*
D03*
X-144488D02*
D03*
X-139764Y-24016D02*
D03*
X-144488D02*
D03*
D45*
X139764Y-59055D02*
D03*
X68898Y-135039D02*
D03*
Y135039D02*
D03*
X9392Y-134317D02*
D03*
X92902Y-99625D02*
D03*
X-121260Y-90945D02*
D03*
X-34252Y-147638D02*
D03*
X-18504Y-150787D02*
D03*
X82677Y-127165D02*
D03*
X135039Y-17323D02*
D03*
X145276Y-44094D02*
D03*
X139370Y59842D02*
D03*
X145276Y44882D02*
D03*
X82677Y127165D02*
D03*
X-121053Y91220D02*
D03*
X-110855Y103374D02*
D03*
X-18472Y150445D02*
D03*
X-34097Y147690D02*
D03*
X-122776Y62558D02*
D03*
X-151367Y-7933D02*
D03*
Y7933D02*
D03*
X-83071Y10827D02*
D03*
X-81890Y29921D02*
D03*
X112008Y70079D02*
D03*
X41437Y127461D02*
D03*
X-47638Y124803D02*
D03*
D46*
X-54031Y88591D02*
D03*
X55078Y88143D02*
D03*
X87913Y-54747D02*
D03*
X-88591Y-54031D02*
D03*
D47*
X21161Y-295D02*
D03*
X21161Y6201D02*
D03*
D48*
X-83071Y10827D02*
D03*
X-83071Y-7677D02*
D03*
D49*
X21161Y6201D02*
Y9744D01*
X16535Y6299D02*
X16634Y6201D01*
X21161D01*
Y9744D02*
X21260Y9843D01*
X-100122Y-71164D02*
X-93627Y-64669D01*
Y-58067D02*
X-89701Y-54141D01*
X-93627Y-64669D02*
Y-58067D01*
X60457Y96063D02*
X64692D01*
X55078Y90684D02*
X60457Y96063D01*
X64692D02*
X69744Y101116D01*
X95807Y-46853D02*
X107417D01*
X111690Y-51126D01*
X-87469Y86243D02*
X-82805Y81580D01*
X-81977D01*
X-71435Y92121D01*
X-57562D01*
X-116323Y9350D02*
X-103232Y22441D01*
X-121949Y9350D02*
X-116323D01*
X-122441Y9843D02*
X-121949Y9350D01*
X68898Y135039D02*
X68968Y135110D01*
Y135205D01*
X-121053Y91220D02*
Y91277D01*
X-121174Y91399D02*
X-121053Y91277D01*
X-151575Y-7874D02*
X-151426D01*
X-151367Y-7933D01*
X-151516Y7933D02*
X-151367D01*
X-151575Y7874D02*
X-151516Y7933D01*
X-103232Y22441D02*
X-47539D01*
X-25098Y0D01*
X-57562Y92121D02*
X-54031Y88591D01*
X55078Y88143D02*
Y90684D01*
X87913Y-54747D02*
X95807Y-46853D01*
X-88701Y-54141D02*
X-88591Y-54031D01*
X-89701Y-54141D02*
X-88701D01*
X-25098Y0D02*
X32283D01*
D50*
X-116929Y-6299D02*
X-100394Y-22835D01*
X-122835Y-6299D02*
X-116929D01*
X-100394Y-24016D02*
Y-22835D01*
X-18566Y150639D02*
X-18472Y150545D01*
Y150445D02*
Y150545D01*
X-100394Y-24016D02*
X-91732D01*
X-86614Y-18898D01*
Y-11220D01*
X-83071Y-7677D01*
D51*
X145127Y44733D02*
X145276Y44882D01*
X145127Y44442D02*
Y44733D01*
X82607Y127331D02*
X82677Y127260D01*
Y127165D02*
Y127260D01*
X-110943Y103462D02*
X-110855Y103374D01*
X-111052Y103462D02*
X-110943D01*
M02*
