G04*
G04 #@! TF.GenerationSoftware,Altium Limited,Altium Designer,21.7.2 (23)*
G04*
G04 Layer_Physical_Order=1*
G04 Layer_Color=255*
%FSLAX44Y44*%
%MOMM*%
G71*
G04*
G04 #@! TF.SameCoordinates,CB10E189-F396-4BD9-A6FE-D020F2BC0834*
G04*
G04*
G04 #@! TF.FilePolarity,Positive*
G04*
G01*
G75*
%ADD10C,0.2000*%
%ADD24C,0.2500*%
%ADD25C,0.2540*%
G04:AMPARAMS|DCode=26|XSize=2mm|YSize=3mm|CornerRadius=0mm|HoleSize=0mm|Usage=FLASHONLY|Rotation=230.000|XOffset=0mm|YOffset=0mm|HoleType=Round|Shape=Rectangle|*
%AMROTATEDRECTD26*
4,1,4,-0.5063,1.7302,1.7919,-0.1981,0.5063,-1.7302,-1.7919,0.1981,-0.5063,1.7302,0.0*
%
%ADD26ROTATEDRECTD26*%

%ADD27C,2.0000*%
G04:AMPARAMS|DCode=28|XSize=1.8mm|YSize=2mm|CornerRadius=0mm|HoleSize=0mm|Usage=FLASHONLY|Rotation=140.000|XOffset=0mm|YOffset=0mm|HoleType=Round|Shape=Rectangle|*
%AMROTATEDRECTD28*
4,1,4,1.3322,0.1875,0.0467,-1.3445,-1.3322,-0.1875,-0.0467,1.3445,1.3322,0.1875,0.0*
%
%ADD28ROTATEDRECTD28*%

G04:AMPARAMS|DCode=29|XSize=2mm|YSize=3mm|CornerRadius=0mm|HoleSize=0mm|Usage=FLASHONLY|Rotation=10.000|XOffset=0mm|YOffset=0mm|HoleType=Round|Shape=Rectangle|*
%AMROTATEDRECTD29*
4,1,4,-0.7243,-1.6509,-1.2453,1.3036,0.7243,1.6509,1.2453,-1.3036,-0.7243,-1.6509,0.0*
%
%ADD29ROTATEDRECTD29*%

G04:AMPARAMS|DCode=30|XSize=1.8mm|YSize=2mm|CornerRadius=0mm|HoleSize=0mm|Usage=FLASHONLY|Rotation=100.000|XOffset=0mm|YOffset=0mm|HoleType=Round|Shape=Rectangle|*
%AMROTATEDRECTD30*
4,1,4,1.1411,-0.7127,-0.8285,-1.0600,-1.1411,0.7127,0.8285,1.0600,1.1411,-0.7127,0.0*
%
%ADD30ROTATEDRECTD30*%

G04:AMPARAMS|DCode=31|XSize=2mm|YSize=3mm|CornerRadius=0mm|HoleSize=0mm|Usage=FLASHONLY|Rotation=150.000|XOffset=0mm|YOffset=0mm|HoleType=Round|Shape=Rectangle|*
%AMROTATEDRECTD31*
4,1,4,1.6160,0.7990,0.1160,-1.7990,-1.6160,-0.7990,-0.1160,1.7990,1.6160,0.7990,0.0*
%
%ADD31ROTATEDRECTD31*%

G04:AMPARAMS|DCode=32|XSize=1.8mm|YSize=2mm|CornerRadius=0mm|HoleSize=0mm|Usage=FLASHONLY|Rotation=60.000|XOffset=0mm|YOffset=0mm|HoleType=Round|Shape=Rectangle|*
%AMROTATEDRECTD32*
4,1,4,0.4160,-1.2794,-1.3160,-0.2794,-0.4160,1.2794,1.3160,0.2794,0.4160,-1.2794,0.0*
%
%ADD32ROTATEDRECTD32*%

G04:AMPARAMS|DCode=33|XSize=2mm|YSize=3mm|CornerRadius=0mm|HoleSize=0mm|Usage=FLASHONLY|Rotation=210.000|XOffset=0mm|YOffset=0mm|HoleType=Round|Shape=Rectangle|*
%AMROTATEDRECTD33*
4,1,4,0.1160,1.7990,1.6160,-0.7990,-0.1160,-1.7990,-1.6160,0.7990,0.1160,1.7990,0.0*
%
%ADD33ROTATEDRECTD33*%

G04:AMPARAMS|DCode=34|XSize=1.8mm|YSize=2mm|CornerRadius=0mm|HoleSize=0mm|Usage=FLASHONLY|Rotation=300.000|XOffset=0mm|YOffset=0mm|HoleType=Round|Shape=Rectangle|*
%AMROTATEDRECTD34*
4,1,4,-1.3160,0.2794,0.4160,1.2794,1.3160,-0.2794,-0.4160,-1.2794,-1.3160,0.2794,0.0*
%
%ADD34ROTATEDRECTD34*%

G04:AMPARAMS|DCode=35|XSize=2mm|YSize=3mm|CornerRadius=0mm|HoleSize=0mm|Usage=FLASHONLY|Rotation=70.000|XOffset=0mm|YOffset=0mm|HoleType=Round|Shape=Rectangle|*
%AMROTATEDRECTD35*
4,1,4,1.0675,-1.4527,-1.7516,-0.4267,-1.0675,1.4527,1.7516,0.4267,1.0675,-1.4527,0.0*
%
%ADD35ROTATEDRECTD35*%

G04:AMPARAMS|DCode=36|XSize=1.8mm|YSize=2mm|CornerRadius=0mm|HoleSize=0mm|Usage=FLASHONLY|Rotation=340.000|XOffset=0mm|YOffset=0mm|HoleType=Round|Shape=Rectangle|*
%AMROTATEDRECTD36*
4,1,4,-1.1877,-0.6319,-0.5037,1.2475,1.1877,0.6319,0.5037,-1.2475,-1.1877,-0.6319,0.0*
%
%ADD36ROTATEDRECTD36*%

G04:AMPARAMS|DCode=37|XSize=2mm|YSize=3mm|CornerRadius=0mm|HoleSize=0mm|Usage=FLASHONLY|Rotation=290.000|XOffset=0mm|YOffset=0mm|HoleType=Round|Shape=Rectangle|*
%AMROTATEDRECTD37*
4,1,4,-1.7516,0.4267,1.0675,1.4527,1.7516,-0.4267,-1.0675,-1.4527,-1.7516,0.4267,0.0*
%
%ADD37ROTATEDRECTD37*%

G04:AMPARAMS|DCode=38|XSize=1.8mm|YSize=2mm|CornerRadius=0mm|HoleSize=0mm|Usage=FLASHONLY|Rotation=20.000|XOffset=0mm|YOffset=0mm|HoleType=Round|Shape=Rectangle|*
%AMROTATEDRECTD38*
4,1,4,-0.5037,-1.2475,-1.1877,0.6319,0.5037,1.2475,1.1877,-0.6319,-0.5037,-1.2475,0.0*
%
%ADD38ROTATEDRECTD38*%

G04:AMPARAMS|DCode=39|XSize=2mm|YSize=3mm|CornerRadius=0mm|HoleSize=0mm|Usage=FLASHONLY|Rotation=350.000|XOffset=0mm|YOffset=0mm|HoleType=Round|Shape=Rectangle|*
%AMROTATEDRECTD39*
4,1,4,-1.2453,-1.3036,-0.7243,1.6509,1.2453,1.3036,0.7243,-1.6509,-1.2453,-1.3036,0.0*
%
%ADD39ROTATEDRECTD39*%

G04:AMPARAMS|DCode=40|XSize=1.8mm|YSize=2mm|CornerRadius=0mm|HoleSize=0mm|Usage=FLASHONLY|Rotation=260.000|XOffset=0mm|YOffset=0mm|HoleType=Round|Shape=Rectangle|*
%AMROTATEDRECTD40*
4,1,4,-0.8285,1.0600,1.1411,0.7127,0.8285,-1.0600,-1.1411,-0.7127,-0.8285,1.0600,0.0*
%
%ADD40ROTATEDRECTD40*%

%ADD41R,3.0000X2.0000*%
%ADD42R,1.8000X2.0000*%
G04:AMPARAMS|DCode=43|XSize=2mm|YSize=3mm|CornerRadius=0mm|HoleSize=0mm|Usage=FLASHONLY|Rotation=130.000|XOffset=0mm|YOffset=0mm|HoleType=Round|Shape=Rectangle|*
%AMROTATEDRECTD43*
4,1,4,1.7919,0.1981,-0.5063,-1.7302,-1.7919,-0.1981,0.5063,1.7302,1.7919,0.1981,0.0*
%
%ADD43ROTATEDRECTD43*%

G04:AMPARAMS|DCode=44|XSize=1.8mm|YSize=2mm|CornerRadius=0mm|HoleSize=0mm|Usage=FLASHONLY|Rotation=220.000|XOffset=0mm|YOffset=0mm|HoleType=Round|Shape=Rectangle|*
%AMROTATEDRECTD44*
4,1,4,0.0467,1.3445,1.3322,-0.1875,-0.0467,-1.3445,-1.3322,0.1875,0.0467,1.3445,0.0*
%
%ADD44ROTATEDRECTD44*%

%ADD45C,1.0000*%
%ADD46C,0.6000*%
G04:AMPARAMS|DCode=47|XSize=2.2mm|YSize=10.2mm|CornerRadius=1.1mm|HoleSize=0mm|Usage=FLASHONLY|Rotation=140.000|XOffset=0mm|YOffset=0mm|HoleType=Round|Shape=RoundedRectangle|*
%AMROUNDEDRECTD47*
21,1,2.2000,8.0000,0,0,140.0*
21,1,0.0000,10.2000,0,0,140.0*
1,1,2.2000,2.5712,3.0642*
1,1,2.2000,2.5712,3.0642*
1,1,2.2000,-2.5712,-3.0642*
1,1,2.2000,-2.5712,-3.0642*
%
%ADD47ROUNDEDRECTD47*%
G04:AMPARAMS|DCode=48|XSize=2.2mm|YSize=10.2mm|CornerRadius=1.1mm|HoleSize=0mm|Usage=FLASHONLY|Rotation=100.000|XOffset=0mm|YOffset=0mm|HoleType=Round|Shape=RoundedRectangle|*
%AMROUNDEDRECTD48*
21,1,2.2000,8.0000,0,0,100.0*
21,1,0.0000,10.2000,0,0,100.0*
1,1,2.2000,3.9392,0.6946*
1,1,2.2000,3.9392,0.6946*
1,1,2.2000,-3.9392,-0.6946*
1,1,2.2000,-3.9392,-0.6946*
%
%ADD48ROUNDEDRECTD48*%
G04:AMPARAMS|DCode=49|XSize=2.2mm|YSize=10.2mm|CornerRadius=1.1mm|HoleSize=0mm|Usage=FLASHONLY|Rotation=60.000|XOffset=0mm|YOffset=0mm|HoleType=Round|Shape=RoundedRectangle|*
%AMROUNDEDRECTD49*
21,1,2.2000,8.0000,0,0,60.0*
21,1,0.0000,10.2000,0,0,60.0*
1,1,2.2000,3.4641,-2.0000*
1,1,2.2000,3.4641,-2.0000*
1,1,2.2000,-3.4641,2.0000*
1,1,2.2000,-3.4641,2.0000*
%
%ADD49ROUNDEDRECTD49*%
G04:AMPARAMS|DCode=50|XSize=2.2mm|YSize=10.2mm|CornerRadius=1.1mm|HoleSize=0mm|Usage=FLASHONLY|Rotation=300.000|XOffset=0mm|YOffset=0mm|HoleType=Round|Shape=RoundedRectangle|*
%AMROUNDEDRECTD50*
21,1,2.2000,8.0000,0,0,300.0*
21,1,0.0000,10.2000,0,0,300.0*
1,1,2.2000,-3.4641,-2.0000*
1,1,2.2000,-3.4641,-2.0000*
1,1,2.2000,3.4641,2.0000*
1,1,2.2000,3.4641,2.0000*
%
%ADD50ROUNDEDRECTD50*%
G04:AMPARAMS|DCode=51|XSize=2.2mm|YSize=10.2mm|CornerRadius=1.1mm|HoleSize=0mm|Usage=FLASHONLY|Rotation=340.000|XOffset=0mm|YOffset=0mm|HoleType=Round|Shape=RoundedRectangle|*
%AMROUNDEDRECTD51*
21,1,2.2000,8.0000,0,0,340.0*
21,1,0.0000,10.2000,0,0,340.0*
1,1,2.2000,-1.3681,-3.7588*
1,1,2.2000,-1.3681,-3.7588*
1,1,2.2000,1.3681,3.7588*
1,1,2.2000,1.3681,3.7588*
%
%ADD51ROUNDEDRECTD51*%
G04:AMPARAMS|DCode=52|XSize=2.2mm|YSize=10.2mm|CornerRadius=1.1mm|HoleSize=0mm|Usage=FLASHONLY|Rotation=20.000|XOffset=0mm|YOffset=0mm|HoleType=Round|Shape=RoundedRectangle|*
%AMROUNDEDRECTD52*
21,1,2.2000,8.0000,0,0,20.0*
21,1,0.0000,10.2000,0,0,20.0*
1,1,2.2000,1.3681,-3.7588*
1,1,2.2000,1.3681,-3.7588*
1,1,2.2000,-1.3681,3.7588*
1,1,2.2000,-1.3681,3.7588*
%
%ADD52ROUNDEDRECTD52*%
G04:AMPARAMS|DCode=53|XSize=2.2mm|YSize=10.2mm|CornerRadius=1.1mm|HoleSize=0mm|Usage=FLASHONLY|Rotation=260.000|XOffset=0mm|YOffset=0mm|HoleType=Round|Shape=RoundedRectangle|*
%AMROUNDEDRECTD53*
21,1,2.2000,8.0000,0,0,260.0*
21,1,0.0000,10.2000,0,0,260.0*
1,1,2.2000,-3.9392,0.6946*
1,1,2.2000,-3.9392,0.6946*
1,1,2.2000,3.9392,-0.6946*
1,1,2.2000,3.9392,-0.6946*
%
%ADD53ROUNDEDRECTD53*%
G04:AMPARAMS|DCode=54|XSize=2.2mm|YSize=10.2mm|CornerRadius=1.1mm|HoleSize=0mm|Usage=FLASHONLY|Rotation=180.000|XOffset=0mm|YOffset=0mm|HoleType=Round|Shape=RoundedRectangle|*
%AMROUNDEDRECTD54*
21,1,2.2000,8.0000,0,0,180.0*
21,1,0.0000,10.2000,0,0,180.0*
1,1,2.2000,0.0000,4.0000*
1,1,2.2000,0.0000,4.0000*
1,1,2.2000,0.0000,-4.0000*
1,1,2.2000,0.0000,-4.0000*
%
%ADD54ROUNDEDRECTD54*%
G04:AMPARAMS|DCode=55|XSize=2.2mm|YSize=10.2mm|CornerRadius=1.1mm|HoleSize=0mm|Usage=FLASHONLY|Rotation=220.000|XOffset=0mm|YOffset=0mm|HoleType=Round|Shape=RoundedRectangle|*
%AMROUNDEDRECTD55*
21,1,2.2000,8.0000,0,0,220.0*
21,1,0.0000,10.2000,0,0,220.0*
1,1,2.2000,-2.5712,3.0642*
1,1,2.2000,-2.5712,3.0642*
1,1,2.2000,2.5712,-3.0642*
1,1,2.2000,2.5712,-3.0642*
%
%ADD55ROUNDEDRECTD55*%
%ADD56C,2.5000*%
%ADD57C,1.3500*%
%ADD58R,1.3500X1.3500*%
%ADD59C,8.0000*%
%ADD60C,0.8000*%
%ADD61C,0.4000*%
G36*
X19504Y397014D02*
X34754Y395889D01*
X35990Y394134D01*
X35526Y392710D01*
X4793D01*
X2183Y392366D01*
X-250Y391359D01*
X-2339Y389756D01*
X-38551Y353544D01*
X-46139Y361132D01*
X-48228Y362735D01*
X-50661Y363743D01*
X-53271Y364086D01*
X-154390D01*
X-154804Y366043D01*
X-152114Y367235D01*
X-133911Y374257D01*
X-115386Y380377D01*
X-96583Y385580D01*
X-77547Y389855D01*
X-58324Y393190D01*
X-38961Y395579D01*
X-19504Y397014D01*
X0Y397493D01*
X19504Y397014D01*
D02*
G37*
G36*
X126628Y346361D02*
Y318640D01*
X105360Y297372D01*
X87260D01*
X85789Y299373D01*
X91728Y333054D01*
X99114Y331752D01*
X102256Y331511D01*
X105386Y331889D01*
X108381Y332869D01*
X111127Y334415D01*
X113519Y336467D01*
X115465Y338946D01*
X116890Y341758D01*
X117739Y344793D01*
X117979Y347936D01*
X117602Y351065D01*
X116875Y353284D01*
X118628Y354361D01*
X126628Y346361D01*
D02*
G37*
G36*
X62184Y338264D02*
X57157Y309758D01*
X57157Y309758D01*
X56644Y306848D01*
Y306848D01*
X56033Y303379D01*
X56855Y303234D01*
X57348Y301010D01*
X58068Y299373D01*
X56840Y297372D01*
X46273D01*
X45642Y299372D01*
X47018Y300336D01*
X49062Y302471D01*
X50286Y304392D01*
X51108Y304247D01*
X51720Y307716D01*
X51720Y307717D01*
X52233Y310626D01*
Y310626D01*
X57259Y339132D01*
X62184Y338264D01*
D02*
G37*
G36*
X115386Y380377D02*
X133911Y374257D01*
X152114Y367235D01*
X169950Y359329D01*
X187377Y350557D01*
X204352Y340941D01*
X220835Y330503D01*
X236786Y319269D01*
X252167Y307266D01*
X266940Y294523D01*
X281070Y281070D01*
X281544Y280572D01*
X281432Y278575D01*
X267201Y266634D01*
X262381Y272380D01*
X260128Y274584D01*
X257488Y276306D01*
X254563Y277480D01*
X251466Y278062D01*
X248314Y278027D01*
X245230Y277379D01*
X242332Y276141D01*
X239730Y274361D01*
X237526Y272108D01*
X235804Y269469D01*
X234629Y266544D01*
X234048Y263447D01*
X234083Y260295D01*
X234731Y257211D01*
X235969Y254312D01*
X237749Y251711D01*
X242570Y245965D01*
X220396Y227360D01*
X220396Y227360D01*
X218971Y226164D01*
X218917Y226160D01*
X216992Y226748D01*
X216833Y226878D01*
X216780Y226936D01*
X216442Y227442D01*
X215780Y227884D01*
X215000Y228039D01*
X164269D01*
X160455Y230845D01*
X146448Y239902D01*
X142037Y242390D01*
X141657Y242723D01*
X141275Y242852D01*
X140939Y243077D01*
X140154Y243233D01*
X139396Y243490D01*
X138994Y243464D01*
X138598Y243542D01*
X137813Y243386D01*
X137015Y243334D01*
X136653Y243155D01*
X136257Y243077D01*
X135591Y242632D01*
X134874Y242278D01*
X134608Y241975D01*
X134272Y241751D01*
X133828Y241085D01*
X133300Y240484D01*
X126115Y228039D01*
X65000D01*
X64220Y227884D01*
X63558Y227442D01*
X63116Y226780D01*
X62961Y226000D01*
Y185705D01*
X61229Y184705D01*
X59946Y185446D01*
X54496Y187703D01*
X48798Y189230D01*
X42949Y190000D01*
X37050D01*
X31202Y189230D01*
X25504Y187703D01*
X20054Y185446D01*
X14946Y182496D01*
X10266Y178905D01*
X6095Y174734D01*
X2504Y170054D01*
X1640Y168559D01*
X-292Y169076D01*
Y234378D01*
X-635Y236989D01*
X-1643Y239421D01*
X-3246Y241510D01*
X-28465Y266729D01*
Y335102D01*
X7862Y371428D01*
X8014Y371382D01*
X8189Y371239D01*
X8995Y368997D01*
X8137Y367304D01*
X7288Y364268D01*
X7048Y361126D01*
X7425Y357997D01*
X8405Y355002D01*
X9951Y352255D01*
X12003Y349863D01*
X14483Y347917D01*
X17294Y346492D01*
X20329Y345644D01*
X27715Y344341D01*
X21564Y309457D01*
X22387Y309312D01*
X22880Y307087D01*
X24070Y304383D01*
X25765Y301962D01*
X27899Y299919D01*
X28757Y299372D01*
X28174Y297372D01*
X4355D01*
X3526Y298202D01*
X1474Y299387D01*
X-815Y300000D01*
X-3185D01*
X-5474Y299387D01*
X-7526Y298202D01*
X-9202Y296526D01*
X-10387Y294474D01*
X-11000Y292185D01*
Y289815D01*
X-10387Y287526D01*
X-9202Y285474D01*
X-7526Y283798D01*
X-5474Y282613D01*
X-3185Y282000D01*
X-815D01*
X1474Y282613D01*
X3526Y283798D01*
X4355Y284628D01*
X108000D01*
X110439Y285113D01*
X112506Y286494D01*
X137506Y311494D01*
X138887Y313561D01*
X139372Y316000D01*
Y349000D01*
X138887Y351439D01*
X137506Y353506D01*
X111686Y379325D01*
X112728Y381112D01*
X115386Y380377D01*
D02*
G37*
G36*
X-48637Y335102D02*
Y262551D01*
X-48293Y259940D01*
X-47286Y257508D01*
X-45683Y255419D01*
X-20464Y230200D01*
Y-64012D01*
X-247631D01*
X-310050Y-1593D01*
Y16577D01*
X-310394Y19187D01*
X-311401Y21620D01*
X-313004Y23709D01*
X-357729Y68434D01*
X-356702Y70235D01*
X-354416Y69649D01*
X-351269Y69478D01*
X-348149Y69923D01*
X-345176Y70968D01*
X-342463Y72574D01*
X-340117Y74678D01*
X-338225Y77199D01*
X-336862Y80041D01*
X-334297Y87088D01*
X-301011Y74973D01*
X-300725Y75758D01*
X-298449Y75858D01*
X-295579Y76560D01*
X-292901Y77808D01*
X-290518Y79556D01*
X-288522Y81734D01*
X-286989Y84260D01*
X-285978Y87037D01*
X-285529Y89957D01*
X-285658Y92909D01*
X-286360Y95779D01*
X-287609Y98457D01*
X-289356Y100840D01*
X-291036Y102379D01*
X-290750Y103164D01*
X-294060Y104369D01*
X-294060Y104369D01*
X-296837Y105379D01*
X-296837Y105379D01*
X-324037Y115279D01*
X-322327Y119978D01*
X-289040Y107863D01*
X-288755Y108647D01*
X-286478Y108747D01*
X-283608Y109449D01*
X-280930Y110698D01*
X-278547Y112445D01*
X-276551Y114623D01*
X-275018Y117149D01*
X-274008Y119926D01*
X-273558Y122846D01*
X-273687Y125798D01*
X-274389Y128668D01*
X-275638Y131346D01*
X-277385Y133729D01*
X-279065Y135268D01*
X-278780Y136053D01*
X-282090Y137258D01*
X-282090Y137258D01*
X-284866Y138269D01*
X-284867Y138269D01*
X-312066Y148168D01*
X-309501Y155216D01*
X-308718Y158269D01*
X-308546Y161416D01*
X-308992Y164536D01*
X-310037Y167510D01*
X-311643Y170222D01*
X-313747Y172568D01*
X-316268Y174460D01*
X-318703Y175628D01*
X-318271Y177628D01*
X-297640D01*
X-266372Y146360D01*
Y1355D01*
X-267202Y526D01*
X-268387Y-1526D01*
X-269000Y-3815D01*
Y-6185D01*
X-268387Y-8474D01*
X-267202Y-10526D01*
X-265526Y-12202D01*
X-263474Y-13387D01*
X-261185Y-14000D01*
X-258815D01*
X-256526Y-13387D01*
X-254474Y-12202D01*
X-252798Y-10526D01*
X-251613Y-8474D01*
X-251000Y-6185D01*
Y-3815D01*
X-251613Y-1526D01*
X-252798Y526D01*
X-253628Y1355D01*
Y149000D01*
X-254113Y151439D01*
X-255494Y153506D01*
X-290494Y188506D01*
X-292561Y189887D01*
X-295000Y190372D01*
X-330000D01*
X-332439Y189887D01*
X-334506Y188506D01*
X-356124Y166888D01*
X-357505Y164821D01*
X-357628Y164752D01*
X-359700Y165506D01*
X-360483Y167346D01*
X-359329Y169950D01*
X-350557Y187377D01*
X-340941Y204352D01*
X-330503Y220835D01*
X-319269Y236786D01*
X-307266Y252167D01*
X-294523Y266940D01*
X-281070Y281070D01*
X-266940Y294523D01*
X-252167Y307266D01*
X-236786Y319269D01*
X-227996Y325460D01*
X-225845Y324868D01*
X-225335Y323600D01*
X-246506Y302430D01*
X-247887Y300362D01*
X-248372Y297924D01*
Y273355D01*
X-249202Y272526D01*
X-250387Y270474D01*
X-251000Y268185D01*
Y265815D01*
X-250387Y263526D01*
X-249202Y261474D01*
X-247526Y259798D01*
X-245474Y258613D01*
X-243185Y258000D01*
X-240815D01*
X-238526Y258613D01*
X-236474Y259798D01*
X-234798Y261474D01*
X-233613Y263526D01*
X-233000Y265815D01*
Y268185D01*
X-233613Y270474D01*
X-234798Y272526D01*
X-235628Y273355D01*
Y295284D01*
X-230403Y300509D01*
X-228826Y299257D01*
X-229060Y298880D01*
X-230171Y295930D01*
X-230684Y292821D01*
X-230581Y289671D01*
X-229865Y286601D01*
X-228564Y283731D01*
X-226729Y281169D01*
X-224428Y279014D01*
X-221752Y277350D01*
X-218802Y276240D01*
X-215693Y275726D01*
X-212542Y275829D01*
X-209473Y276545D01*
X-206602Y277846D01*
X-200107Y281596D01*
X-182396Y250919D01*
X-181672Y251336D01*
X-179865Y249949D01*
X-177215Y248643D01*
X-174361Y247878D01*
X-171412Y247684D01*
X-168483Y248070D01*
X-165685Y249020D01*
X-163126Y250497D01*
X-160905Y252446D01*
X-159106Y254790D01*
X-157799Y257440D01*
X-157034Y260294D01*
X-156841Y263242D01*
X-157138Y265501D01*
X-156415Y265919D01*
X-158176Y268969D01*
X-158176Y268969D01*
X-159654Y271528D01*
X-159654Y271528D01*
X-174126Y296596D01*
X-169796Y299096D01*
X-152085Y268419D01*
X-151362Y268836D01*
X-149554Y267449D01*
X-146904Y266143D01*
X-144050Y265378D01*
X-141101Y265184D01*
X-138172Y265570D01*
X-135374Y266520D01*
X-132815Y267997D01*
X-130594Y269946D01*
X-128795Y272290D01*
X-127488Y274940D01*
X-126723Y277794D01*
X-126530Y280742D01*
X-126827Y283001D01*
X-126104Y283419D01*
X-127865Y286469D01*
X-127865Y286469D01*
X-129343Y289028D01*
X-129343Y289029D01*
X-143815Y314096D01*
X-137320Y317846D01*
X-134758Y319681D01*
X-132604Y321982D01*
X-130940Y324658D01*
X-129829Y327608D01*
X-129316Y330718D01*
X-129419Y333868D01*
X-130135Y336937D01*
X-131435Y339808D01*
X-132945Y341914D01*
X-132255Y343914D01*
X-57449D01*
X-48637Y335102D01*
D02*
G37*
G36*
X30409Y401688D02*
X49936Y399765D01*
X69346Y396886D01*
X88590Y393058D01*
X107624Y388290D01*
X126401Y382594D01*
X144876Y375984D01*
X163004Y368475D01*
X180742Y360086D01*
X198047Y350836D01*
X214877Y340748D01*
X231192Y329847D01*
X246952Y318158D01*
X262120Y305711D01*
X276659Y292533D01*
X290533Y278659D01*
X303710Y264120D01*
X316158Y248952D01*
X327847Y233192D01*
X328042Y232899D01*
X326440Y231698D01*
X319267Y240246D01*
X308911Y253517D01*
X296099Y268369D01*
X292478Y272172D01*
X284761Y281369D01*
X284184Y280884D01*
X282574Y282574D01*
X268369Y296099D01*
X253517Y308911D01*
X238054Y320978D01*
X222017Y332272D01*
X205446Y342766D01*
X188380Y352434D01*
X170860Y361253D01*
X152928Y369201D01*
X134628Y376260D01*
X116004Y382413D01*
X101156Y386522D01*
X101292Y387295D01*
X89022Y389458D01*
X77962Y391942D01*
X58636Y395295D01*
X49596Y396410D01*
X37279Y398582D01*
X37149Y397845D01*
X19608Y399139D01*
X0Y399620D01*
X-19608Y399139D01*
X-39170Y397696D01*
X-58636Y395295D01*
X-77962Y391942D01*
X-97100Y387644D01*
X-116004Y382413D01*
X-134628Y376260D01*
X-152928Y369201D01*
X-169152Y362010D01*
X-169503Y362243D01*
X-169340Y364533D01*
X-161004Y368475D01*
X-142876Y375984D01*
X-124401Y382594D01*
X-105624Y388290D01*
X-86590Y393058D01*
X-67346Y396886D01*
X-47936Y399765D01*
X-28409Y401688D01*
X-8811Y402651D01*
X10811D01*
X30409Y401688D01*
D02*
G37*
G36*
X265067Y219154D02*
X237932Y196385D01*
X238469Y195745D01*
X237416Y193724D01*
X236590Y190887D01*
X236332Y187944D01*
X236654Y185007D01*
X237542Y182189D01*
X238963Y179598D01*
X240863Y177335D01*
X243167Y175485D01*
X245788Y174121D01*
X248625Y173294D01*
X251568Y173036D01*
X254505Y173358D01*
X256679Y174043D01*
X257215Y173404D01*
X284351Y196173D01*
X289172Y190427D01*
X291424Y188223D01*
X294064Y186501D01*
X296989Y185327D01*
X299335Y184886D01*
X300148Y182870D01*
X226580Y109303D01*
X224977Y107214D01*
X223970Y104781D01*
X223626Y102171D01*
Y-13437D01*
X222585Y-14478D01*
X163099D01*
X162271Y-12478D01*
X163593Y-11156D01*
X165508Y-8289D01*
X166828Y-5105D01*
X167500Y-1724D01*
Y1724D01*
X166828Y5105D01*
X165508Y8289D01*
X163593Y11156D01*
X161156Y13593D01*
X158289Y15508D01*
X155105Y16827D01*
X151724Y17500D01*
X148276D01*
X144895Y16827D01*
X141711Y15508D01*
X138844Y13593D01*
X136407Y11156D01*
X134492Y8289D01*
X133173Y5105D01*
X132500Y1724D01*
Y-1724D01*
X133173Y-5105D01*
X134492Y-8289D01*
X136407Y-11156D01*
X137729Y-12478D01*
X136901Y-14478D01*
X74436D01*
X71825Y-14822D01*
X69393Y-15829D01*
X67304Y-17432D01*
X20724Y-64012D01*
X-292D01*
Y120924D01*
X1640Y121441D01*
X2504Y119946D01*
X6095Y115266D01*
X10266Y111095D01*
X14946Y107504D01*
X20054Y104554D01*
X25504Y102297D01*
X31202Y100770D01*
X37050Y100000D01*
X42949D01*
X48798Y100770D01*
X54496Y102297D01*
X59946Y104554D01*
X61229Y105295D01*
X62961Y104295D01*
Y76000D01*
X63116Y75220D01*
X63558Y74558D01*
X64220Y74116D01*
X65000Y73961D01*
X215000D01*
X215780Y74116D01*
X216442Y74558D01*
X216884Y75220D01*
X217039Y76000D01*
Y119764D01*
X240484Y133300D01*
X241085Y133828D01*
X241751Y134272D01*
X241975Y134608D01*
X242278Y134874D01*
X242632Y135591D01*
X243077Y136257D01*
X243155Y136653D01*
X243334Y137015D01*
X243386Y137813D01*
X243542Y138598D01*
X243464Y138994D01*
X243490Y139396D01*
X243233Y140154D01*
X243077Y140939D01*
X242852Y141275D01*
X242723Y141657D01*
X242390Y142037D01*
X239902Y146448D01*
X230845Y160455D01*
X220960Y173890D01*
X217039Y178594D01*
Y202722D01*
X219039Y203605D01*
X220669Y202297D01*
X223290Y200932D01*
X226127Y200105D01*
X229071Y199848D01*
X232008Y200170D01*
X234181Y200855D01*
X234718Y200215D01*
X261853Y222984D01*
X265067Y219154D01*
D02*
G37*
G36*
X328908Y231603D02*
X338748Y216877D01*
X348836Y200047D01*
X358086Y182742D01*
X366475Y165004D01*
X373984Y146876D01*
X377885Y135973D01*
X376010Y135276D01*
X369201Y152928D01*
X361253Y170860D01*
X352434Y188380D01*
X342766Y205446D01*
X332272Y222017D01*
X326717Y229905D01*
X327858Y231758D01*
X328908Y231603D01*
D02*
G37*
G36*
X143700Y234479D02*
X153638Y228148D01*
X163290Y221390D01*
X172638Y214217D01*
X181664Y206643D01*
X190351Y198683D01*
X198683Y190351D01*
X206643Y181664D01*
X214217Y172638D01*
X221390Y163290D01*
X228148Y153638D01*
X234479Y143700D01*
X237425Y138598D01*
X146492Y86098D01*
X143716Y90729D01*
X137718Y99707D01*
X131145Y108273D01*
X124026Y116391D01*
X116391Y124026D01*
X108273Y131145D01*
X99707Y137718D01*
X90729Y143716D01*
X86098Y146492D01*
Y146492D01*
X138598Y237425D01*
X143700Y234479D01*
D02*
G37*
G36*
X340941Y204352D02*
X350557Y187377D01*
X359329Y169950D01*
X367235Y152114D01*
X374257Y133911D01*
X380377Y115386D01*
X385580Y96583D01*
X389855Y77547D01*
X393190Y58324D01*
X395579Y38961D01*
X395947Y33965D01*
X394586Y32500D01*
X391372D01*
Y48000D01*
X390887Y50439D01*
X389506Y52506D01*
X369506Y72506D01*
X367439Y73887D01*
X365000Y74372D01*
X321000D01*
X318561Y73887D01*
X316494Y72506D01*
X306988Y63000D01*
X305815D01*
X303526Y62387D01*
X301474Y61202D01*
X299798Y59526D01*
X298613Y57474D01*
X298000Y55185D01*
Y52815D01*
X298613Y50526D01*
X299798Y48474D01*
X301474Y46798D01*
X303526Y45613D01*
X305815Y45000D01*
X308185D01*
X310474Y45613D01*
X312526Y46798D01*
X314202Y48474D01*
X315387Y50526D01*
X316000Y52815D01*
Y53988D01*
X323639Y61628D01*
X362360D01*
X367687Y56301D01*
X366482Y54678D01*
X366153Y54854D01*
X363137Y55768D01*
X360000Y56077D01*
X356864Y55768D01*
X353848Y54854D01*
X351068Y53368D01*
X348632Y51368D01*
X346632Y48932D01*
X345146Y46153D01*
X344231Y43137D01*
X343923Y40000D01*
Y32500D01*
X314978D01*
X314977Y32500D01*
X312023D01*
X312022Y32500D01*
X308500D01*
Y31665D01*
X306395Y30793D01*
X303938Y29151D01*
X301849Y27062D01*
X300207Y24605D01*
X299076Y21875D01*
X298500Y18977D01*
Y16023D01*
X299076Y13125D01*
X300207Y10395D01*
X301849Y7938D01*
X303938Y5849D01*
X306395Y4207D01*
X308500Y3335D01*
Y2500D01*
X343923D01*
Y-2500D01*
X308500D01*
Y-3335D01*
X306395Y-4207D01*
X304548Y-5441D01*
X265086Y34021D01*
Y49250D01*
X266750D01*
Y72750D01*
X243798D01*
Y89902D01*
X245798Y90437D01*
X246398Y89399D01*
X248399Y87398D01*
X250851Y85983D01*
X253000Y85407D01*
Y96000D01*
X255000D01*
Y98000D01*
X265593D01*
X265017Y100149D01*
X263602Y102601D01*
X261601Y104602D01*
X259149Y106017D01*
X256415Y106750D01*
X255384D01*
X254556Y108750D01*
X333630Y187824D01*
X335233Y189913D01*
X336241Y192346D01*
X336584Y194956D01*
Y207494D01*
X338584Y208074D01*
X340941Y204352D01*
D02*
G37*
G36*
X246265Y24800D02*
X247868Y22711D01*
X293298Y-22719D01*
X295387Y-24322D01*
X297819Y-25329D01*
X300430Y-25673D01*
X300921D01*
X301849Y-27062D01*
X303938Y-29151D01*
X306395Y-30793D01*
X308500Y-31665D01*
Y-32500D01*
X343923D01*
Y-40000D01*
X344231Y-43137D01*
X345146Y-46153D01*
X346632Y-48932D01*
X348632Y-51368D01*
X351068Y-53368D01*
X353848Y-54854D01*
X356864Y-55768D01*
X360000Y-56077D01*
X363137Y-55768D01*
X364198Y-55447D01*
X365258Y-57215D01*
X348559Y-73914D01*
X329178D01*
X272696Y-17432D01*
X270607Y-15829D01*
X268175Y-14822D01*
X265564Y-14478D01*
X244839D01*
X243798Y-13437D01*
Y25529D01*
X245798Y25927D01*
X246265Y24800D01*
D02*
G37*
G36*
X-382295Y100956D02*
Y68649D01*
X-381951Y66039D01*
X-380944Y63606D01*
X-379341Y61517D01*
X-330223Y12399D01*
Y-1593D01*
X-381132Y-52502D01*
X-382735Y-54591D01*
X-383743Y-57024D01*
X-384086Y-59634D01*
Y-94108D01*
X-386086Y-94330D01*
X-389855Y-77547D01*
X-393190Y-58324D01*
X-395579Y-38961D01*
X-397014Y-19504D01*
X-397493Y0D01*
X-397014Y19504D01*
X-395579Y38961D01*
X-393190Y58324D01*
X-389855Y77547D01*
X-385580Y96583D01*
X-384295Y101228D01*
X-382295Y100956D01*
D02*
G37*
G36*
X224150Y-36215D02*
X226607Y-37857D01*
X229337Y-38988D01*
X232235Y-39564D01*
X235189D01*
X238088Y-38988D01*
X240817Y-37857D01*
X243274Y-36215D01*
X244212Y-35278D01*
X244652Y-35386D01*
X244956Y-37520D01*
X244474Y-37798D01*
X242798Y-39474D01*
X241613Y-41526D01*
X241000Y-43815D01*
Y-46185D01*
X241613Y-48474D01*
X242798Y-50526D01*
X243628Y-51355D01*
Y-133432D01*
X243458Y-133553D01*
X242285Y-134047D01*
X241628Y-134190D01*
X241085Y-133828D01*
X240484Y-133300D01*
X217039Y-119764D01*
Y-76000D01*
X216884Y-75220D01*
X216442Y-74558D01*
X215780Y-74116D01*
X215000Y-73961D01*
X65000D01*
X64220Y-74116D01*
X63558Y-74558D01*
X63116Y-75220D01*
X62961Y-76000D01*
Y-104295D01*
X61229Y-105295D01*
X59946Y-104554D01*
X54496Y-102297D01*
X48798Y-100770D01*
X42949Y-100000D01*
X37050D01*
X31202Y-100770D01*
X25504Y-102297D01*
X20054Y-104554D01*
X14946Y-107504D01*
X10266Y-111095D01*
X6095Y-115266D01*
X2504Y-119946D01*
X1640Y-121441D01*
X-292Y-120924D01*
Y-84184D01*
X24902D01*
X27513Y-83841D01*
X29945Y-82833D01*
X32034Y-81230D01*
X78614Y-34650D01*
X222585D01*
X224150Y-36215D01*
D02*
G37*
G36*
X243628Y-143913D02*
Y-160151D01*
X218887Y-184891D01*
X217039Y-184126D01*
Y-178594D01*
X220960Y-173890D01*
X230845Y-160455D01*
X239902Y-146448D01*
X241628Y-143388D01*
X243628Y-143913D01*
D02*
G37*
G36*
X314914Y-88178D02*
Y-188746D01*
X312914Y-189562D01*
X311822Y-188446D01*
X309221Y-186666D01*
X306322Y-185429D01*
X303238Y-184780D01*
X300086Y-184746D01*
X296989Y-185327D01*
X294064Y-186501D01*
X291424Y-188223D01*
X289172Y-190427D01*
X284351Y-196173D01*
X257215Y-173404D01*
X256678Y-174043D01*
X254505Y-173358D01*
X251592Y-173039D01*
X251541Y-172976D01*
X250697Y-171105D01*
X254506Y-167296D01*
X255887Y-165229D01*
X256372Y-162790D01*
Y-51355D01*
X257202Y-50526D01*
X258387Y-48474D01*
X259000Y-46185D01*
Y-43815D01*
X258387Y-41526D01*
X257202Y-39474D01*
X255526Y-37798D01*
X253474Y-36613D01*
X253875Y-34650D01*
X261386D01*
X314914Y-88178D01*
D02*
G37*
G36*
X-258941Y-81230D02*
X-256852Y-82833D01*
X-254419Y-83841D01*
X-251809Y-84184D01*
X-217039D01*
Y-119764D01*
X-240484Y-133300D01*
X-241085Y-133828D01*
X-241751Y-134272D01*
X-241975Y-134608D01*
X-242278Y-134874D01*
X-242632Y-135591D01*
X-243077Y-136257D01*
X-243155Y-136653D01*
X-243334Y-137015D01*
X-243386Y-137813D01*
X-243542Y-138598D01*
X-243464Y-138994D01*
X-243490Y-139396D01*
X-243233Y-140154D01*
X-243077Y-140939D01*
X-242852Y-141275D01*
X-242723Y-141657D01*
X-242390Y-142037D01*
X-239902Y-146448D01*
X-230845Y-160455D01*
X-220960Y-173890D01*
X-217039Y-178594D01*
Y-226000D01*
X-216884Y-226780D01*
X-216442Y-227442D01*
X-215780Y-227884D01*
X-215000Y-228039D01*
X-164269D01*
X-160455Y-230845D01*
X-146448Y-239902D01*
X-142037Y-242390D01*
X-141657Y-242723D01*
X-141275Y-242852D01*
X-140939Y-243077D01*
X-140154Y-243233D01*
X-139396Y-243490D01*
X-138994Y-243464D01*
X-138598Y-243542D01*
X-137813Y-243386D01*
X-137015Y-243334D01*
X-136653Y-243155D01*
X-136257Y-243077D01*
X-135591Y-242632D01*
X-134874Y-242278D01*
X-134608Y-241975D01*
X-134272Y-241751D01*
X-133828Y-241085D01*
X-133300Y-240484D01*
X-126115Y-228039D01*
X-65000D01*
X-64220Y-227884D01*
X-63558Y-227442D01*
X-63116Y-226780D01*
X-62961Y-226000D01*
Y-84184D01*
X-20464D01*
Y-249822D01*
X-54563Y-283921D01*
X-56166Y-286010D01*
X-57174Y-288443D01*
X-57517Y-291053D01*
Y-344482D01*
X-132806D01*
X-133541Y-342622D01*
X-133271Y-342370D01*
X-131435Y-339808D01*
X-130135Y-336937D01*
X-129419Y-333868D01*
X-129316Y-330718D01*
X-129829Y-327608D01*
X-130940Y-324658D01*
X-132604Y-321982D01*
X-134758Y-319681D01*
X-137320Y-317846D01*
X-143815Y-314096D01*
X-126104Y-283419D01*
X-126828Y-283001D01*
X-126530Y-280742D01*
X-126723Y-277794D01*
X-127488Y-274940D01*
X-128795Y-272290D01*
X-130594Y-269946D01*
X-132815Y-267997D01*
X-135374Y-266520D01*
X-138172Y-265570D01*
X-141102Y-265184D01*
X-144050Y-265378D01*
X-146904Y-266143D01*
X-149554Y-267449D01*
X-151362Y-268836D01*
X-152085Y-268419D01*
X-153846Y-271469D01*
X-153846Y-271469D01*
X-155324Y-274028D01*
X-155324Y-274028D01*
X-169796Y-299096D01*
X-174126Y-296596D01*
X-156415Y-265919D01*
X-157138Y-265501D01*
X-156841Y-263242D01*
X-157034Y-260294D01*
X-157799Y-257440D01*
X-159106Y-254790D01*
X-160905Y-252446D01*
X-163126Y-250497D01*
X-165685Y-249020D01*
X-168483Y-248070D01*
X-171412Y-247684D01*
X-174361Y-247878D01*
X-177215Y-248643D01*
X-179865Y-249949D01*
X-181673Y-251336D01*
X-182396Y-250919D01*
X-184157Y-253969D01*
X-184157Y-253969D01*
X-185635Y-256528D01*
X-185635Y-256529D01*
X-200107Y-281596D01*
X-206602Y-277846D01*
X-209473Y-276545D01*
X-212542Y-275829D01*
X-215693Y-275726D01*
X-218802Y-276240D01*
X-221752Y-277350D01*
X-224428Y-279014D01*
X-226729Y-281169D01*
X-228564Y-283731D01*
X-229865Y-286601D01*
X-230581Y-289671D01*
X-230610Y-290550D01*
X-232637Y-291351D01*
X-249000Y-274988D01*
Y-273815D01*
X-249613Y-271526D01*
X-250798Y-269474D01*
X-252474Y-267798D01*
X-254526Y-266613D01*
X-256815Y-266000D01*
X-259185D01*
X-261474Y-266613D01*
X-263526Y-267798D01*
X-265202Y-269474D01*
X-266387Y-271526D01*
X-267000Y-273815D01*
Y-276185D01*
X-266387Y-278474D01*
X-265202Y-280526D01*
X-263526Y-282202D01*
X-261474Y-283387D01*
X-259185Y-284000D01*
X-258012D01*
X-222182Y-319830D01*
X-225075Y-324842D01*
X-227023Y-325296D01*
X-229192Y-323847D01*
X-244952Y-312159D01*
X-260120Y-299711D01*
X-274659Y-286533D01*
X-288533Y-272659D01*
X-301710Y-258120D01*
X-314158Y-242952D01*
X-325847Y-227192D01*
X-336748Y-210877D01*
X-345793Y-195786D01*
X-347792Y-192258D01*
X-353079Y-182366D01*
X-358812Y-170977D01*
X-359795Y-168899D01*
X-359858Y-168758D01*
X-358949Y-166778D01*
X-357231Y-168011D01*
X-356963Y-169363D01*
X-355581Y-171431D01*
X-329506Y-197506D01*
X-327439Y-198887D01*
X-325000Y-199372D01*
X-307000D01*
X-304561Y-198887D01*
X-302494Y-197506D01*
X-285988Y-181000D01*
X-284815D01*
X-282526Y-180387D01*
X-280474Y-179202D01*
X-278798Y-177526D01*
X-277613Y-175474D01*
X-277000Y-173185D01*
Y-170815D01*
X-277613Y-168526D01*
X-278798Y-166474D01*
X-280474Y-164798D01*
X-282526Y-163613D01*
X-284815Y-163000D01*
X-287185D01*
X-289474Y-163613D01*
X-291526Y-164798D01*
X-293202Y-166474D01*
X-294387Y-168526D01*
X-295000Y-170815D01*
Y-171988D01*
X-309639Y-186628D01*
X-322360D01*
X-331679Y-177309D01*
X-330586Y-175573D01*
X-328430Y-176332D01*
X-325310Y-176777D01*
X-322163Y-176605D01*
X-319110Y-175823D01*
X-316268Y-174460D01*
X-313747Y-172568D01*
X-311643Y-170222D01*
X-310037Y-167510D01*
X-308992Y-164536D01*
X-308547Y-161416D01*
X-308718Y-158269D01*
X-309501Y-155216D01*
X-312066Y-148168D01*
X-284867Y-138269D01*
X-284866Y-138269D01*
X-282090Y-137258D01*
X-282090Y-137258D01*
X-278780Y-136053D01*
X-279065Y-135268D01*
X-277385Y-133729D01*
X-275638Y-131346D01*
X-274389Y-128668D01*
X-273687Y-125798D01*
X-273558Y-122846D01*
X-274008Y-119926D01*
X-275018Y-117149D01*
X-276551Y-114623D01*
X-278547Y-112445D01*
X-280930Y-110698D01*
X-283608Y-109449D01*
X-286478Y-108747D01*
X-288755Y-108647D01*
X-289040Y-107862D01*
X-322327Y-119978D01*
X-324037Y-115279D01*
X-296838Y-105380D01*
X-296837Y-105379D01*
X-294060Y-104369D01*
X-294060Y-104369D01*
X-290750Y-103164D01*
X-291036Y-102379D01*
X-289356Y-100840D01*
X-287609Y-98457D01*
X-286360Y-95779D01*
X-285658Y-92909D01*
X-285529Y-89957D01*
X-285978Y-87037D01*
X-286989Y-84260D01*
X-288522Y-81734D01*
X-290518Y-79556D01*
X-292901Y-77809D01*
X-295579Y-76560D01*
X-298449Y-75858D01*
X-300725Y-75758D01*
X-301011Y-74973D01*
X-334297Y-87088D01*
X-336862Y-80041D01*
X-338225Y-77199D01*
X-340117Y-74678D01*
X-342463Y-72574D01*
X-345176Y-70968D01*
X-348149Y-69923D01*
X-351269Y-69478D01*
X-354416Y-69649D01*
X-357469Y-70432D01*
X-360311Y-71795D01*
X-361914Y-72997D01*
X-363914Y-71997D01*
Y-63812D01*
X-320136Y-20034D01*
X-258941Y-81230D01*
D02*
G37*
G36*
X392705Y-61125D02*
X389855Y-77547D01*
X385580Y-96583D01*
X380377Y-115386D01*
X374257Y-133911D01*
X367235Y-152114D01*
X359329Y-169950D01*
X350557Y-187377D01*
X340941Y-204352D01*
X337086Y-210439D01*
X335086Y-209859D01*
Y-94086D01*
X352737D01*
X355348Y-93743D01*
X357780Y-92735D01*
X359869Y-91132D01*
X390842Y-60159D01*
X392705Y-61125D01*
D02*
G37*
G36*
X236360Y-188270D02*
X236590Y-190887D01*
X237416Y-193724D01*
X238468Y-195745D01*
X237932Y-196385D01*
X240630Y-198649D01*
X240630Y-198649D01*
X242894Y-200548D01*
X242894Y-200549D01*
X265067Y-219154D01*
X261853Y-222984D01*
X239680Y-204379D01*
X239680Y-204379D01*
X237416Y-202479D01*
X237416Y-202479D01*
X234718Y-200215D01*
X234181Y-200855D01*
X232008Y-200170D01*
X229071Y-199848D01*
X226127Y-200105D01*
X223866Y-200765D01*
X222815Y-198988D01*
X234641Y-187161D01*
X236360Y-188270D01*
D02*
G37*
G36*
X237425Y-138598D02*
X234479Y-143700D01*
X228148Y-153638D01*
X221390Y-163290D01*
X214217Y-172638D01*
X206643Y-181664D01*
X198683Y-190351D01*
X190351Y-198683D01*
X181664Y-206643D01*
X172638Y-214217D01*
X163290Y-221390D01*
X153638Y-228148D01*
X143700Y-234479D01*
X138598Y-237425D01*
Y-237425D01*
X86098Y-146492D01*
X90729Y-143716D01*
X99707Y-137718D01*
X108273Y-131145D01*
X116391Y-124026D01*
X124026Y-116391D01*
X131145Y-108273D01*
X137718Y-99707D01*
X143716Y-90729D01*
X146492Y-86098D01*
X146492Y-86098D01*
X237425Y-138598D01*
D02*
G37*
G36*
X-143716Y-90729D02*
X-137718Y-99707D01*
X-131145Y-108273D01*
X-124026Y-116391D01*
X-116391Y-124026D01*
X-108273Y-131145D01*
X-99707Y-137718D01*
X-90729Y-143716D01*
X-86098Y-146492D01*
X-86098D01*
X-138598Y-237425D01*
X-143700Y-234479D01*
X-153638Y-228148D01*
X-163290Y-221390D01*
X-172638Y-214217D01*
X-181664Y-206643D01*
X-190351Y-198683D01*
X-198683Y-190351D01*
X-206643Y-181664D01*
X-214217Y-172638D01*
X-221390Y-163290D01*
X-228148Y-153638D01*
X-234479Y-143700D01*
X-237425Y-138598D01*
X-237425Y-138598D01*
X-146492Y-86098D01*
X-143716Y-90729D01*
D02*
G37*
G36*
X242569Y-245966D02*
X237749Y-251711D01*
X235969Y-254312D01*
X234731Y-257211D01*
X234083Y-260295D01*
X234048Y-263447D01*
X234629Y-266544D01*
X235804Y-269469D01*
X237526Y-272109D01*
X239730Y-274361D01*
X242331Y-276141D01*
X245230Y-277379D01*
X248314Y-278027D01*
X251466Y-278062D01*
X254563Y-277480D01*
X256203Y-276822D01*
X257328Y-278526D01*
X253906Y-281948D01*
X233710D01*
X210372Y-258610D01*
Y-228039D01*
X215000D01*
X215780Y-227884D01*
X216442Y-227442D01*
X216780Y-226936D01*
X217015Y-226740D01*
X218953Y-226149D01*
X242569Y-245966D01*
D02*
G37*
G36*
X2504Y-170054D02*
X6095Y-174734D01*
X10266Y-178905D01*
X14946Y-182496D01*
X20054Y-185446D01*
X25504Y-187703D01*
X31202Y-189230D01*
X37050Y-190000D01*
X42949D01*
X48798Y-189230D01*
X54496Y-187703D01*
X59946Y-185446D01*
X61229Y-184705D01*
X62961Y-185705D01*
Y-226000D01*
X63116Y-226780D01*
X63558Y-227442D01*
X64220Y-227884D01*
X65000Y-228039D01*
X126115D01*
X133300Y-240484D01*
X133828Y-241085D01*
X134272Y-241751D01*
X134608Y-241975D01*
X134874Y-242278D01*
X135591Y-242632D01*
X136257Y-243077D01*
X136653Y-243155D01*
X137015Y-243334D01*
X137813Y-243386D01*
X138598Y-243542D01*
X138994Y-243464D01*
X139396Y-243490D01*
X140154Y-243233D01*
X140939Y-243077D01*
X141275Y-242852D01*
X141657Y-242723D01*
X142037Y-242390D01*
X146448Y-239902D01*
X160455Y-230845D01*
X164269Y-228039D01*
X197628D01*
Y-261250D01*
X198113Y-263689D01*
X199494Y-265756D01*
X226565Y-292827D01*
X228632Y-294208D01*
X231071Y-294693D01*
X256545D01*
X258984Y-294208D01*
X261051Y-292827D01*
X278099Y-275779D01*
X281432Y-278575D01*
X281544Y-280572D01*
X281070Y-281070D01*
X266940Y-294523D01*
X252167Y-307266D01*
X236786Y-319269D01*
X220835Y-330503D01*
X204352Y-340941D01*
X187942Y-350237D01*
X186797Y-350849D01*
X174536Y-357021D01*
X165257Y-361410D01*
X160702Y-363429D01*
X144876Y-369984D01*
X126401Y-376594D01*
X107624Y-382290D01*
X103312Y-383370D01*
X101505Y-381833D01*
X101627Y-380949D01*
X102766Y-380596D01*
X138741Y-368384D01*
X138741Y-368384D01*
X139058Y-368268D01*
X141125Y-366887D01*
X141125Y-366887D01*
X157012Y-351000D01*
X158185D01*
X160474Y-350387D01*
X162526Y-349202D01*
X164202Y-347526D01*
X165387Y-345474D01*
X166000Y-343185D01*
Y-340815D01*
X165387Y-338526D01*
X164202Y-336474D01*
X162526Y-334798D01*
X160474Y-333613D01*
X158185Y-333000D01*
X155815D01*
X153526Y-333613D01*
X151474Y-334798D01*
X149798Y-336474D01*
X148613Y-338526D01*
X148000Y-340815D01*
Y-341988D01*
X132985Y-357003D01*
X99958Y-368214D01*
X97734Y-367118D01*
X97311Y-364720D01*
X104698Y-363418D01*
X107733Y-362569D01*
X110544Y-361144D01*
X113023Y-359199D01*
X115076Y-356806D01*
X116622Y-354060D01*
X117602Y-351065D01*
X117979Y-347936D01*
X117739Y-344793D01*
X116890Y-341758D01*
X115465Y-338946D01*
X113519Y-336467D01*
X111127Y-334415D01*
X108381Y-332869D01*
X105386Y-331889D01*
X102256Y-331511D01*
X99114Y-331752D01*
X91728Y-333054D01*
X85577Y-298170D01*
X84754Y-298315D01*
X83530Y-296393D01*
X81487Y-294258D01*
X79066Y-292564D01*
X76362Y-291374D01*
X73477Y-290734D01*
X70523Y-290670D01*
X67613Y-291183D01*
X64859Y-292254D01*
X62367Y-293841D01*
X60233Y-295885D01*
X58538Y-298305D01*
X57348Y-301010D01*
X56855Y-303234D01*
X56033Y-303379D01*
X56644Y-306848D01*
Y-306848D01*
X57157Y-309758D01*
X57157Y-309758D01*
X62184Y-338264D01*
X57259Y-339132D01*
X52233Y-310626D01*
Y-310626D01*
X51720Y-307716D01*
X51720Y-307716D01*
X51108Y-304247D01*
X50286Y-304392D01*
X49062Y-302470D01*
X47018Y-300336D01*
X44598Y-298641D01*
X41894Y-297451D01*
X39009Y-296812D01*
X36055Y-296747D01*
X33145Y-297260D01*
X30391Y-298331D01*
X27899Y-299919D01*
X25765Y-301962D01*
X24070Y-304383D01*
X22880Y-307087D01*
X22387Y-309312D01*
X21564Y-309457D01*
X27715Y-344341D01*
X20329Y-345644D01*
X17294Y-346492D01*
X14483Y-347917D01*
X12003Y-349863D01*
X9951Y-352255D01*
X8405Y-355002D01*
X7425Y-357997D01*
X7048Y-361126D01*
X7288Y-364268D01*
X8137Y-367304D01*
X9561Y-370115D01*
X10051Y-370739D01*
X9176Y-372538D01*
X-15198D01*
X-37345Y-350391D01*
Y-295231D01*
X-3246Y-261132D01*
X-1643Y-259043D01*
X-635Y-256611D01*
X-292Y-254000D01*
Y-169076D01*
X1640Y-168559D01*
X2504Y-170054D01*
D02*
G37*
G36*
X-26508Y-389756D02*
X-24419Y-391359D01*
X-21987Y-392366D01*
X-19376Y-392710D01*
X34588D01*
X34851Y-393241D01*
X33674Y-395367D01*
X30409Y-395688D01*
X10811Y-396651D01*
X-8811D01*
X-28409Y-395688D01*
X-47936Y-393765D01*
X-67346Y-390886D01*
X-86590Y-387058D01*
X-105624Y-382290D01*
X-124401Y-376594D01*
X-142876Y-369984D01*
X-151005Y-366617D01*
X-150615Y-364655D01*
X-51609D01*
X-26508Y-389756D01*
D02*
G37*
%LPC*%
G36*
X-138598Y243542D02*
X-138994Y243464D01*
X-139396Y243490D01*
X-140154Y243233D01*
X-140939Y243077D01*
X-141275Y242852D01*
X-141657Y242723D01*
X-142037Y242390D01*
X-146448Y239902D01*
X-160455Y230845D01*
X-164269Y228039D01*
X-215000D01*
X-215780Y227884D01*
X-216442Y227442D01*
X-216884Y226780D01*
X-217039Y226000D01*
Y178594D01*
X-220960Y173890D01*
X-230845Y160455D01*
X-239902Y146448D01*
X-242390Y142037D01*
X-242723Y141657D01*
X-242852Y141275D01*
X-243077Y140939D01*
X-243233Y140154D01*
X-243490Y139396D01*
X-243464Y138994D01*
X-243542Y138598D01*
X-243386Y137813D01*
X-243334Y137015D01*
X-243155Y136653D01*
X-243077Y136257D01*
X-242632Y135591D01*
X-242278Y134874D01*
X-241975Y134608D01*
X-241751Y134272D01*
X-241085Y133828D01*
X-240484Y133300D01*
X-217039Y119764D01*
Y76000D01*
X-216884Y75220D01*
X-216442Y74558D01*
X-215780Y74116D01*
X-215000Y73961D01*
X-65000D01*
X-64220Y74116D01*
X-63558Y74558D01*
X-63116Y75220D01*
X-62961Y76000D01*
Y226000D01*
X-63116Y226780D01*
X-63558Y227442D01*
X-64220Y227884D01*
X-65000Y228039D01*
X-126115D01*
X-133300Y240484D01*
X-133828Y241085D01*
X-134272Y241751D01*
X-134608Y241975D01*
X-134874Y242278D01*
X-135591Y242632D01*
X-136257Y243077D01*
X-136653Y243155D01*
X-137015Y243334D01*
X-137813Y243386D01*
X-138598Y243542D01*
D02*
G37*
G36*
X-38276Y162500D02*
X-41724D01*
X-45105Y161828D01*
X-48289Y160508D01*
X-51156Y158593D01*
X-53593Y156156D01*
X-55508Y153289D01*
X-56828Y150105D01*
X-57500Y146724D01*
Y143276D01*
X-56828Y139895D01*
X-55508Y136711D01*
X-53593Y133844D01*
X-51156Y131407D01*
X-48289Y129492D01*
X-45105Y128173D01*
X-41724Y127500D01*
X-38276D01*
X-34895Y128173D01*
X-31711Y129492D01*
X-28844Y131407D01*
X-26407Y133844D01*
X-24492Y136711D01*
X-23173Y139895D01*
X-22500Y143276D01*
Y146724D01*
X-23173Y150105D01*
X-24492Y153289D01*
X-26407Y156156D01*
X-28844Y158593D01*
X-31711Y160508D01*
X-34895Y161828D01*
X-38276Y162500D01*
D02*
G37*
G36*
X-147051Y45000D02*
X-152949D01*
X-158798Y44230D01*
X-164496Y42703D01*
X-169946Y40446D01*
X-175054Y37496D01*
X-179734Y33905D01*
X-183905Y29734D01*
X-187496Y25054D01*
X-190446Y19946D01*
X-192703Y14496D01*
X-194230Y8798D01*
X-195000Y2949D01*
Y-2949D01*
X-194230Y-8798D01*
X-192703Y-14496D01*
X-190446Y-19946D01*
X-187496Y-25054D01*
X-183905Y-29734D01*
X-179734Y-33905D01*
X-175054Y-37496D01*
X-169946Y-40446D01*
X-164496Y-42703D01*
X-158798Y-44230D01*
X-152949Y-45000D01*
X-147051D01*
X-141202Y-44230D01*
X-135504Y-42703D01*
X-130054Y-40446D01*
X-124946Y-37496D01*
X-120266Y-33905D01*
X-116095Y-29734D01*
X-112504Y-25054D01*
X-109554Y-19946D01*
X-107297Y-14496D01*
X-105770Y-8798D01*
X-105000Y-2949D01*
Y2949D01*
X-105770Y8798D01*
X-107297Y14496D01*
X-109554Y19946D01*
X-112504Y25054D01*
X-116095Y29734D01*
X-120266Y33905D01*
X-124946Y37496D01*
X-130054Y40446D01*
X-135504Y42703D01*
X-141202Y44230D01*
X-147051Y45000D01*
D02*
G37*
%LPD*%
G36*
X-86098Y146492D02*
X-90729Y143716D01*
X-99707Y137718D01*
X-108273Y131145D01*
X-116391Y124026D01*
X-124026Y116391D01*
X-131145Y108273D01*
X-137718Y99707D01*
X-143716Y90729D01*
X-146492Y86098D01*
X-237425Y138598D01*
X-234479Y143700D01*
X-228148Y153638D01*
X-221390Y163290D01*
X-214217Y172638D01*
X-206643Y181664D01*
X-198683Y190351D01*
X-190351Y198683D01*
X-181664Y206643D01*
X-172638Y214217D01*
X-163290Y221390D01*
X-153638Y228148D01*
X-143700Y234479D01*
X-138598Y237425D01*
X-138598D01*
X-86098Y146492D01*
D02*
G37*
%LPC*%
G36*
X265593Y94000D02*
X257000D01*
Y85407D01*
X259149Y85983D01*
X261601Y87398D01*
X263602Y89399D01*
X265017Y91851D01*
X265593Y94000D01*
D02*
G37*
G36*
X-38276Y-127500D02*
X-41724D01*
X-45105Y-128173D01*
X-48289Y-129492D01*
X-51156Y-131407D01*
X-53593Y-133844D01*
X-55508Y-136711D01*
X-56828Y-139895D01*
X-57500Y-143276D01*
Y-146724D01*
X-56828Y-150105D01*
X-55508Y-153289D01*
X-53593Y-156156D01*
X-51156Y-158593D01*
X-48289Y-160508D01*
X-45105Y-161828D01*
X-41724Y-162500D01*
X-38276D01*
X-34895Y-161828D01*
X-31711Y-160508D01*
X-28844Y-158593D01*
X-26407Y-156156D01*
X-24492Y-153289D01*
X-23173Y-150105D01*
X-22500Y-146724D01*
Y-143276D01*
X-23173Y-139895D01*
X-24492Y-136711D01*
X-26407Y-133844D01*
X-28844Y-131407D01*
X-31711Y-129492D01*
X-34895Y-128173D01*
X-38276Y-127500D01*
D02*
G37*
%LPD*%
D10*
X237425Y138598D02*
G03*
X138598Y237425I-233827J-135000D01*
G01*
X146492Y86098D02*
G03*
X86098Y146492I-142894J-82500D01*
G01*
X-138598Y237425D02*
G03*
X-237425Y138598I135000J-233827D01*
G01*
X-86098Y146492D02*
G03*
X-146492Y86098I82500J-142894D01*
G01*
X-237425Y-138598D02*
G03*
X-138598Y-237425I233827J135000D01*
G01*
X-146492Y-86098D02*
G03*
X-86098Y-146492I142894J82500D01*
G01*
X138598Y-237425D02*
G03*
X237425Y-138598I-135000J233827D01*
G01*
X86098Y-146492D02*
G03*
X146492Y-86098I-82500J142894D01*
G01*
X86098Y146492D02*
X138598Y237425D01*
X146492Y86098D02*
X237425Y138598D01*
X-237425D02*
X-146492Y86098D01*
X-138598Y237425D02*
X-86098Y146492D01*
X-138598Y-237425D02*
X-86098Y-146492D01*
X-237425Y-138598D02*
X-146492Y-86098D01*
X146492D02*
X237425Y-138598D01*
X86098Y-146492D02*
X138598Y-237425D01*
D24*
X93130Y-376998D02*
G03*
X136619Y-362381I-447999J1404859D01*
G01*
X-258000Y-275000D02*
X-214918Y-318082D01*
X136619Y-362381D02*
X157000Y-342000D01*
X385000Y22500D02*
Y48000D01*
X365000Y68000D02*
X385000Y48000D01*
X321000Y68000D02*
X365000D01*
X307000Y54000D02*
X321000Y68000D01*
X256545Y-288321D02*
X280156Y-264709D01*
X280464D01*
X-325000Y-193000D02*
X-307000D01*
X-351075Y-166925D02*
X-325000Y-193000D01*
X-307000D02*
X-286000Y-172000D01*
X-351075Y-166925D02*
Y-152844D01*
X-355796Y-148123D02*
X-351075Y-152844D01*
X133000Y316000D02*
Y349000D01*
X106322Y375678D02*
X133000Y349000D01*
X108000Y291000D02*
X133000Y316000D01*
X204000Y-208790D02*
X250000Y-162790D01*
X231071Y-288321D02*
X256545D01*
X204000Y-261250D02*
X231071Y-288321D01*
X250000Y-162790D02*
Y-45000D01*
X204000Y-261250D02*
Y-208790D01*
X89013Y-375244D02*
X93130Y-376998D01*
X86606Y-375132D02*
X88352Y-373386D01*
X-2000Y291000D02*
X108000D01*
X-354086Y152821D02*
X-351618Y155289D01*
X-355796Y148122D02*
Y153462D01*
X-330000Y184000D02*
X-295000D01*
X-351618Y155289D02*
Y162382D01*
X-330000Y184000D01*
X86551Y375678D02*
X106322D01*
X-242000Y297924D02*
X-215254Y324670D01*
X-242000Y267000D02*
Y297924D01*
X-211986Y324670D02*
X-207656D01*
X-260000Y-5000D02*
Y149000D01*
X-215254Y324670D02*
X-211986D01*
X-295000Y184000D02*
X-260000Y149000D01*
D25*
X278012Y-231404D02*
G03*
X278012Y-231404I-2236J0D01*
G01*
X64748Y-354453D02*
G03*
X64748Y-354453I-2235J-78D01*
G01*
X-177764Y-311769D02*
G03*
X-177764Y-311769I-2236J0D01*
G01*
Y311769D02*
G03*
X-177764Y311769I-2236J0D01*
G01*
X-336053Y123127D02*
G03*
X-336053Y123127I-2236J0D01*
G01*
X-336053Y-123127D02*
G03*
X-336053Y-123127I-2236J0D01*
G01*
X62125Y352329D02*
G03*
X62125Y352329I388J2202D01*
G01*
X362236Y0D02*
G03*
X362236Y0I-2236J0D01*
G01*
X278012Y231404D02*
G03*
X278012Y231404I-2236J0D01*
G01*
D26*
X240397Y-224562D02*
D03*
X262894Y-197750D02*
D03*
D27*
X228906Y-214920D02*
D03*
X251404Y-188108D02*
D03*
X71673Y-305698D02*
D03*
X37205Y-311776D02*
D03*
X-171905Y-262749D02*
D03*
X-141595Y-280249D02*
D03*
X-171905Y262749D02*
D03*
X-141594Y280249D02*
D03*
X-288608Y123668D02*
D03*
X-300579Y90779D02*
D03*
X-288608Y-123668D02*
D03*
X-300579Y-90779D02*
D03*
X71673Y305699D02*
D03*
X37204Y311776D02*
D03*
X313500Y17500D02*
D03*
X313500Y-17500D02*
D03*
X228906Y214920D02*
D03*
X251404Y188108D02*
D03*
X233712Y-24564D02*
D03*
D28*
X283678Y-260879D02*
D03*
X306176Y-234067D02*
D03*
D29*
X74278Y-320471D02*
D03*
X39809Y-326548D02*
D03*
D30*
X84089Y-376112D02*
D03*
X49620Y-382190D02*
D03*
D31*
X-179405Y-275739D02*
D03*
X-149095Y-293239D02*
D03*
D32*
X-207656Y-324670D02*
D03*
X-177345Y-342170D02*
D03*
D33*
X-179405Y275739D02*
D03*
X-149095Y293239D02*
D03*
D34*
X-207655Y324670D02*
D03*
X-177345Y342170D02*
D03*
D35*
X-302704Y128798D02*
D03*
X-314674Y95909D02*
D03*
D36*
X-355796Y148122D02*
D03*
X-367767Y115233D02*
D03*
D37*
X-302704Y-128798D02*
D03*
X-314674Y-95909D02*
D03*
D38*
X-355796Y-148122D02*
D03*
X-367767Y-115233D02*
D03*
D39*
X74278Y320471D02*
D03*
X39809Y326548D02*
D03*
D40*
X84089Y376112D02*
D03*
X49620Y382190D02*
D03*
D41*
X328500Y17500D02*
D03*
X328500Y-17500D02*
D03*
D42*
X385000Y17500D02*
D03*
X385000Y-17500D02*
D03*
D43*
X240397Y224562D02*
D03*
X262894Y197750D02*
D03*
D44*
X283678Y260879D02*
D03*
X306176Y234067D02*
D03*
D45*
X-47431Y-354569D02*
X-19376Y-382624D01*
X47158D01*
X-47431Y-354569D02*
Y-291053D01*
X-158996Y-354569D02*
X-47431D01*
X-374000Y-105175D02*
Y-59634D01*
X-369970Y-113030D02*
Y-110535D01*
X-369477D02*
Y-109698D01*
X-374000Y-105175D02*
X-369477Y-109698D01*
X-369970Y-113030D02*
X-367767Y-115233D01*
X-170145Y-343420D02*
X-158996Y-354569D01*
X-10378Y-254000D02*
Y-74098D01*
X-47431Y-291053D02*
X-10378Y-254000D01*
X326498Y194956D02*
Y209701D01*
X310997Y225203D02*
X326498Y209701D01*
X302962Y-234038D02*
X325000Y-212000D01*
X265564Y-24564D02*
X325000Y-84000D01*
X352737D01*
X325000Y-212000D02*
Y-84000D01*
X302962Y-237897D02*
Y-234038D01*
X74436Y-24564D02*
X233712D01*
X385000Y-18000D02*
X385500Y-17500D01*
X385000Y-51737D02*
Y-22500D01*
Y-18000D01*
X352737Y-84000D02*
X385000Y-51737D01*
X233712Y-23833D02*
Y102171D01*
X300430Y-15587D02*
X311587D01*
X233712Y-24564D02*
X265564D01*
X255000Y29843D02*
X300430Y-15587D01*
X311587D02*
X313500Y-17500D01*
X255000Y29843D02*
Y61000D01*
X4793Y382624D02*
X47158D01*
X-53271Y354000D02*
X-38551Y339280D01*
X4793Y382624D01*
X-38551Y262551D02*
Y339280D01*
X-161000Y354000D02*
X-53271D01*
X-170330Y344670D02*
X-161000Y354000D01*
X-372209Y68649D02*
X-320136Y16577D01*
X-372209Y68649D02*
Y106309D01*
X-370332Y108185D01*
X-320136Y-5770D02*
Y16577D01*
X233712Y102171D02*
X326498Y194956D01*
X24902Y-74098D02*
X74436Y-24564D01*
X47158Y382624D02*
X47158Y382624D01*
X-374000Y-59634D02*
X-320136Y-5770D01*
X-251809Y-74098D01*
X-10378D02*
X24902D01*
X-251809D02*
X-10378D01*
Y234378D01*
X-38551Y262551D02*
X-10378Y234378D01*
D46*
X88919Y147255D02*
D03*
X-147255Y88919D02*
D03*
X-88919Y-147255D02*
D03*
X147255Y-88919D02*
D03*
D47*
X275776Y-231404D02*
D03*
D48*
X62513Y-354531D02*
D03*
D49*
X-180000Y-311769D02*
D03*
D50*
Y311769D02*
D03*
D51*
X-338289Y123127D02*
D03*
D52*
X-338289Y-123127D02*
D03*
D53*
X62513Y354531D02*
D03*
D54*
X360000Y0D02*
D03*
D55*
X275776Y231404D02*
D03*
D56*
X150000Y0D02*
D03*
X-40000Y145000D02*
D03*
Y-145000D02*
D03*
D57*
X255000Y96000D02*
D03*
D58*
Y61000D02*
D03*
D59*
X40000Y145000D02*
D03*
Y-145000D02*
D03*
X-150000Y0D02*
D03*
D60*
X-258000Y-275000D02*
D03*
X157000Y-342000D02*
D03*
X233000Y-91000D02*
D03*
X228000Y-253000D02*
D03*
X250000Y-45000D02*
D03*
X-78383Y314375D02*
D03*
X111018Y322421D02*
D03*
X-46066Y375182D02*
D03*
X-17271Y329547D02*
D03*
X189181Y302753D02*
D03*
X-2000Y291000D02*
D03*
X105000Y-51000D02*
D03*
X120000Y28000D02*
D03*
X-276000Y86000D02*
D03*
X-61000Y-313000D02*
D03*
X190000Y-291000D02*
D03*
X361000Y-117000D02*
D03*
X332850Y-52718D02*
D03*
X307000Y54000D02*
D03*
X-242000Y267000D02*
D03*
X-47000Y181000D02*
D03*
X-229000Y114000D02*
D03*
X-317875Y44675D02*
D03*
X304000Y-108000D02*
D03*
X42000Y-224000D02*
D03*
X-42000Y-106000D02*
D03*
X-44000Y-224000D02*
D03*
X-320592Y-39364D02*
D03*
X-236000Y-45000D02*
D03*
X-227761Y32010D02*
D03*
X-260000Y-5000D02*
D03*
X-361944Y6318D02*
D03*
X-250000Y-200000D02*
D03*
X-247000Y-98000D02*
D03*
X-286000Y-172000D02*
D03*
D61*
X244460Y-234498D02*
D03*
X250888Y-226838D02*
D03*
X236034Y-227428D02*
D03*
X242462Y-219767D02*
D03*
X227607Y-220357D02*
D03*
X234035Y-212696D02*
D03*
X273386Y-200026D02*
D03*
X266958Y-207687D02*
D03*
X264959Y-192956D02*
D03*
X258531Y-200616D02*
D03*
X256533Y-185885D02*
D03*
X250105Y-193545D02*
D03*
X286892Y-257049D02*
D03*
X302962Y-237898D02*
D03*
X309390Y-230237D02*
D03*
X280464Y-264709D02*
D03*
X80851Y-328958D02*
D03*
X71003Y-330694D02*
D03*
X78941Y-318125D02*
D03*
X69093Y-319862D02*
D03*
X77031Y-307292D02*
D03*
X67183Y-309029D02*
D03*
X36535Y-336772D02*
D03*
X46383Y-335036D02*
D03*
X34625Y-325939D02*
D03*
X44473Y-324203D02*
D03*
X32715Y-315106D02*
D03*
X42563Y-313370D02*
D03*
X79165Y-376980D02*
D03*
X54545Y-381321D02*
D03*
X44696Y-383058D02*
D03*
X89013Y-375244D02*
D03*
X-188486Y-281467D02*
D03*
X-179825Y-286467D02*
D03*
X-182986Y-271940D02*
D03*
X-174325Y-276940D02*
D03*
X-177486Y-262414D02*
D03*
X-168825Y-267414D02*
D03*
X-149515Y-303967D02*
D03*
X-158175Y-298967D02*
D03*
X-144015Y-294440D02*
D03*
X-152675Y-289440D02*
D03*
X-138515Y-284914D02*
D03*
X-147175Y-279914D02*
D03*
X-203325Y-327170D02*
D03*
X-181675Y-339670D02*
D03*
X-173015Y-344670D02*
D03*
X-211986Y-322170D02*
D03*
X-188486Y281467D02*
D03*
X-179825Y286467D02*
D03*
X-182986Y271940D02*
D03*
X-174325Y276940D02*
D03*
X-177486Y262414D02*
D03*
X-168825Y267414D02*
D03*
X-149515Y303967D02*
D03*
X-158175Y298967D02*
D03*
X-144015Y294440D02*
D03*
X-152675Y289440D02*
D03*
X-138514Y284914D02*
D03*
X-147175Y279914D02*
D03*
X-203325Y327170D02*
D03*
X-181675Y339670D02*
D03*
X-173015Y344670D02*
D03*
X-211986Y322170D02*
D03*
X-309921Y136746D02*
D03*
X-313341Y127349D02*
D03*
X-299584Y132984D02*
D03*
X-303004Y123587D02*
D03*
X-289247Y129221D02*
D03*
X-292668Y119825D02*
D03*
X-325312Y94460D02*
D03*
X-321891Y103857D02*
D03*
X-314975Y90698D02*
D03*
X-311555Y100094D02*
D03*
X-304638Y86935D02*
D03*
X-301218Y96332D02*
D03*
X-357506Y143424D02*
D03*
X-366057Y119932D02*
D03*
X-369477Y110535D02*
D03*
X-354086Y152821D02*
D03*
X-309921Y-136746D02*
D03*
X-313341Y-127349D02*
D03*
X-299584Y-132984D02*
D03*
X-303004Y-123587D02*
D03*
X-289247Y-129221D02*
D03*
X-292668Y-119824D02*
D03*
X-325312Y-94460D02*
D03*
X-321891Y-103857D02*
D03*
X-314975Y-90698D02*
D03*
X-311555Y-100095D02*
D03*
X-304638Y-86935D02*
D03*
X-301218Y-96332D02*
D03*
X-357506Y-143424D02*
D03*
X-366057Y-119932D02*
D03*
X-369477Y-110535D02*
D03*
X-354086Y-152821D02*
D03*
X80851Y328958D02*
D03*
X71003Y330694D02*
D03*
X78941Y318125D02*
D03*
X69093Y319862D02*
D03*
X77031Y307292D02*
D03*
X67183Y309029D02*
D03*
X36535Y336772D02*
D03*
X46383Y335036D02*
D03*
X34625Y325939D02*
D03*
X44473Y324203D02*
D03*
X32715Y315106D02*
D03*
X42563Y313370D02*
D03*
X79165Y376980D02*
D03*
X54544Y381321D02*
D03*
X44696Y383058D02*
D03*
X89013Y375244D02*
D03*
X338000Y22500D02*
D03*
X338000Y12500D02*
D03*
X327000Y22500D02*
D03*
X327000Y12500D02*
D03*
X316000Y22500D02*
D03*
X316000Y12500D02*
D03*
X338000Y-22500D02*
D03*
X338000Y-12500D02*
D03*
X327000Y-22500D02*
D03*
X327000Y-12500D02*
D03*
X316000Y-22500D02*
D03*
Y-12500D02*
D03*
X385000Y12500D02*
D03*
Y-12500D02*
D03*
X385000Y-22500D02*
D03*
Y22500D02*
D03*
X244460Y234498D02*
D03*
X250888Y226838D02*
D03*
X236034Y227428D02*
D03*
X242462Y219767D02*
D03*
X227607Y220357D02*
D03*
X234035Y212696D02*
D03*
X273386Y200026D02*
D03*
X266958Y207687D02*
D03*
X264959Y192955D02*
D03*
X258531Y200616D02*
D03*
X256533Y185885D02*
D03*
X250105Y193545D02*
D03*
X286892Y257049D02*
D03*
X302962Y237898D02*
D03*
X309390Y230237D02*
D03*
X280464Y264709D02*
D03*
M02*
