G04*
G04 #@! TF.GenerationSoftware,Altium Limited,Altium Designer,21.7.2 (23)*
G04*
G04 Layer_Color=65535*
%FSLAX44Y44*%
%MOMM*%
G71*
G04*
G04 #@! TF.SameCoordinates,9BB895A2-42D1-4055-8D82-49C525802847*
G04*
G04*
G04 #@! TF.FilePolarity,Positive*
G04*
G01*
G75*
%ADD10C,0.2000*%
G36*
X-3365Y101004D02*
X-2951Y101000D01*
X-2528Y100995D01*
X-2096Y100988D01*
X-1657Y100978D01*
X-1209Y100968D01*
X-754Y100955D01*
X-292Y100941D01*
X175Y100925D01*
X649Y100907D01*
X1129Y100888D01*
X1613Y100867D01*
X2102Y100844D01*
X2594Y100820D01*
X3091Y100795D01*
X3590Y100768D01*
X4093Y100739D01*
X4597Y100709D01*
X5103Y100677D01*
X5611Y100645D01*
X6119Y100610D01*
X6628Y100575D01*
X7136Y100538D01*
X7645Y100500D01*
X8152Y100460D01*
X8658Y100419D01*
X9161Y100378D01*
X9663Y100335D01*
X10161Y100290D01*
X10657Y100245D01*
X11149Y100199D01*
X11636Y100151D01*
X12119Y100103D01*
X12597Y100053D01*
X13069Y100002D01*
X13535Y99951D01*
X13995Y99899D01*
X14447Y99845D01*
X14893Y99791D01*
X15330Y99736D01*
X15760Y99681D01*
X16180Y99624D01*
X16591Y99567D01*
X16993Y99509D01*
X17384Y99450D01*
X17765Y99390D01*
X18135Y99330D01*
X18493Y99270D01*
X18840Y99208D01*
X19174Y99146D01*
X19662Y99053D01*
X20150Y98957D01*
X20636Y98859D01*
X21121Y98759D01*
X21605Y98658D01*
X22087Y98554D01*
X22568Y98448D01*
X23048Y98341D01*
X23527Y98231D01*
X24004Y98120D01*
X24480Y98006D01*
X24955Y97890D01*
X25429Y97773D01*
X25901Y97653D01*
X26372Y97531D01*
X26842Y97408D01*
X27311Y97282D01*
X27778Y97155D01*
X28244Y97025D01*
X28709Y96893D01*
X29173Y96759D01*
X29636Y96624D01*
X30097Y96486D01*
X30558Y96346D01*
X31017Y96204D01*
X31475Y96060D01*
X31932Y95914D01*
X32387Y95766D01*
X32842Y95617D01*
X33295Y95464D01*
X33747Y95310D01*
X34198Y95154D01*
X34648Y94996D01*
X35097Y94836D01*
X35545Y94673D01*
X35991Y94509D01*
X36437Y94342D01*
X36881Y94174D01*
X37324Y94003D01*
X37766Y93830D01*
X38207Y93656D01*
X38647Y93479D01*
X39086Y93300D01*
X39523Y93119D01*
X39960Y92936D01*
X40396Y92751D01*
X40830Y92563D01*
X41264Y92374D01*
X41696Y92182D01*
X42128Y91989D01*
X42558Y91793D01*
X42987Y91595D01*
X43415Y91395D01*
X43843Y91193D01*
X44269Y90989D01*
X44694Y90783D01*
X45118Y90574D01*
X45542Y90364D01*
X45964Y90151D01*
X46385Y89936D01*
X46805Y89719D01*
X47224Y89500D01*
X47643Y89279D01*
X48060Y89056D01*
X48476Y88830D01*
X48892Y88602D01*
X49306Y88373D01*
X49719Y88141D01*
X50132Y87907D01*
X50543Y87670D01*
X50954Y87432D01*
X51364Y87191D01*
X51772Y86948D01*
X52180Y86703D01*
X52587Y86456D01*
X52993Y86207D01*
X53398Y85955D01*
X53802Y85702D01*
X54205Y85446D01*
X54608Y85188D01*
X55009Y84928D01*
X55410Y84665D01*
X55810Y84401D01*
X56209Y84134D01*
X56607Y83865D01*
X57004Y83593D01*
X57400Y83320D01*
X57796Y83044D01*
X58190Y82766D01*
X58584Y82486D01*
X58977Y82204D01*
X59369Y81919D01*
X59760Y81633D01*
X60151Y81344D01*
X60540Y81053D01*
X60929Y80759D01*
X61317Y80463D01*
X61704Y80166D01*
X62091Y79865D01*
X62476Y79563D01*
X62861Y79258D01*
X63245Y78951D01*
X63629Y78642D01*
X64011Y78331D01*
X64393Y78017D01*
X64774Y77701D01*
X65154Y77383D01*
X65534Y77063D01*
X65913Y76740D01*
X66291Y76415D01*
X66668Y76087D01*
X67045Y75758D01*
X67421Y75426D01*
X67796Y75092D01*
X68170Y74756D01*
X68544Y74417D01*
X68917Y74076D01*
X69289Y73733D01*
X69661Y73387D01*
X70032Y73039D01*
X70402Y72689D01*
X70772Y72336D01*
X71141Y71982D01*
X71509Y71624D01*
X71877Y71265D01*
X72244Y70903D01*
X72611Y70539D01*
X72976Y70173D01*
X73314Y69832D01*
X73650Y69489D01*
X73984Y69146D01*
X74316Y68801D01*
X74646Y68456D01*
X74974Y68109D01*
X75301Y67761D01*
X75625Y67412D01*
X75948Y67062D01*
X76269Y66711D01*
X76588Y66358D01*
X76905Y66005D01*
X77220Y65651D01*
X77533Y65295D01*
X77845Y64939D01*
X78154Y64581D01*
X78462Y64222D01*
X78768Y63862D01*
X79071Y63501D01*
X79373Y63139D01*
X79673Y62776D01*
X79972Y62412D01*
X80268Y62047D01*
X80562Y61681D01*
X80855Y61313D01*
X81145Y60945D01*
X81434Y60576D01*
X81721Y60205D01*
X82006Y59834D01*
X82289Y59461D01*
X82570Y59088D01*
X82849Y58713D01*
X83126Y58338D01*
X83401Y57961D01*
X83675Y57584D01*
X83946Y57205D01*
X84216Y56826D01*
X84483Y56445D01*
X84749Y56063D01*
X85013Y55681D01*
X85275Y55297D01*
X85535Y54913D01*
X85793Y54527D01*
X86049Y54141D01*
X86303Y53753D01*
X86555Y53365D01*
X86805Y52975D01*
X87054Y52585D01*
X87300Y52193D01*
X87545Y51801D01*
X87788Y51407D01*
X88028Y51013D01*
X88267Y50618D01*
X88504Y50222D01*
X88738Y49825D01*
X88971Y49426D01*
X89202Y49027D01*
X89431Y48627D01*
X89658Y48226D01*
X89883Y47825D01*
X90107Y47422D01*
X90328Y47018D01*
X90547Y46613D01*
X90764Y46208D01*
X90980Y45802D01*
X91193Y45394D01*
X91404Y44986D01*
X91614Y44577D01*
X91821Y44166D01*
X92027Y43756D01*
X92231Y43344D01*
X92432Y42931D01*
X92632Y42517D01*
X92830Y42103D01*
X93025Y41687D01*
X93219Y41271D01*
X93411Y40854D01*
X93601Y40436D01*
X93788Y40017D01*
X93974Y39597D01*
X94158Y39176D01*
X94340Y38755D01*
X94520Y38333D01*
X94698Y37909D01*
X94874Y37485D01*
X95048Y37060D01*
X95220Y36635D01*
X95390Y36208D01*
X95558Y35781D01*
X95724Y35352D01*
X95888Y34923D01*
X96050Y34493D01*
X96210Y34063D01*
X96368Y33631D01*
X96524Y33199D01*
X96678Y32766D01*
X96830Y32332D01*
X96980Y31897D01*
X97128Y31461D01*
X97275Y31025D01*
X97419Y30588D01*
X97561Y30150D01*
X97701Y29711D01*
X97839Y29272D01*
X97975Y28831D01*
X98109Y28390D01*
X98241Y27948D01*
X98371Y27506D01*
X98499Y27062D01*
X98625Y26618D01*
X98749Y26173D01*
X98870Y25727D01*
X98990Y25281D01*
X99108Y24834D01*
X99224Y24386D01*
X99338Y23937D01*
X99450Y23488D01*
X99559Y23038D01*
X99667Y22587D01*
X99773Y22135D01*
X99877Y21683D01*
X99978Y21230D01*
X100078Y20776D01*
X100176Y20321D01*
X100271Y19866D01*
X100365Y19410D01*
X100456Y18953D01*
X100545Y18496D01*
X100633Y18038D01*
X100718Y17579D01*
X100801Y17120D01*
X100883Y16660D01*
X100962Y16199D01*
X101039Y15737D01*
X101114Y15275D01*
X101187Y14812D01*
X101258Y14349D01*
X101327Y13885D01*
X101394Y13420D01*
X101459Y12954D01*
X101522Y12488D01*
X101582Y12021D01*
X101641Y11554D01*
X101697Y11085D01*
X101752Y10617D01*
X101804Y10147D01*
X101855Y9677D01*
X101903Y9206D01*
X101949Y8735D01*
X101994Y8263D01*
X102036Y7790D01*
X102076Y7317D01*
X102114Y6843D01*
X102149Y6369D01*
X102183Y5894D01*
X102215Y5418D01*
X102245Y4942D01*
X102272Y4465D01*
X102298Y3987D01*
X102321Y3509D01*
X102342Y3030D01*
X102361Y2551D01*
X102379Y2071D01*
X102394Y1591D01*
X102407Y1110D01*
X102417Y628D01*
X102426Y146D01*
X102433Y-337D01*
X102437Y-820D01*
X102440Y-1304D01*
X102440Y-1796D01*
X102439Y-2134D01*
X102437Y-2472D01*
X102434Y-2809D01*
X102430Y-3146D01*
X102425Y-3483D01*
X102419Y-3820D01*
X102411Y-4156D01*
X102403Y-4492D01*
X102394Y-4828D01*
X102379Y-5331D01*
X102360Y-5833D01*
X102340Y-6335D01*
X102318Y-6836D01*
X102293Y-7336D01*
X102266Y-7836D01*
X102236Y-8335D01*
X102205Y-8834D01*
X102171Y-9331D01*
X102135Y-9829D01*
X102096Y-10325D01*
X102055Y-10821D01*
X102012Y-11316D01*
X101967Y-11810D01*
X101919Y-12304D01*
X101870Y-12797D01*
X101818Y-13289D01*
X101763Y-13781D01*
X101706Y-14272D01*
X101648Y-14762D01*
X101586Y-15252D01*
X101523Y-15741D01*
X101457Y-16229D01*
X101389Y-16716D01*
X101319Y-17203D01*
X101247Y-17689D01*
X101172Y-18174D01*
X101095Y-18659D01*
X101016Y-19143D01*
X100934Y-19626D01*
X100851Y-20108D01*
X100765Y-20589D01*
X100676Y-21070D01*
X100586Y-21551D01*
X100493Y-22030D01*
X100398Y-22508D01*
X100301Y-22986D01*
X100202Y-23463D01*
X100100Y-23940D01*
X99996Y-24415D01*
X99890Y-24890D01*
X99782Y-25364D01*
X99671Y-25838D01*
X99558Y-26310D01*
X99443Y-26782D01*
X99326Y-27253D01*
X99206Y-27723D01*
X99085Y-28192D01*
X98961Y-28661D01*
X98834Y-29129D01*
X98706Y-29596D01*
X98575Y-30062D01*
X98442Y-30527D01*
X98307Y-30992D01*
X98170Y-31456D01*
X98031Y-31919D01*
X97889Y-32381D01*
X97745Y-32842D01*
X97599Y-33303D01*
X97451Y-33763D01*
X97300Y-34221D01*
X97147Y-34679D01*
X96992Y-35137D01*
X96835Y-35593D01*
X96676Y-36048D01*
X96514Y-36503D01*
X96350Y-36957D01*
X96184Y-37410D01*
X96016Y-37862D01*
X95846Y-38313D01*
X95673Y-38764D01*
X95498Y-39213D01*
X95321Y-39662D01*
X95142Y-40110D01*
X94961Y-40557D01*
X94777Y-41003D01*
X94592Y-41448D01*
X94404Y-41892D01*
X94214Y-42336D01*
X94022Y-42778D01*
X93827Y-43220D01*
X93630Y-43661D01*
X93432Y-44101D01*
X93231Y-44540D01*
X93027Y-44978D01*
X92822Y-45415D01*
X92615Y-45851D01*
X92405Y-46286D01*
X92193Y-46721D01*
X91979Y-47154D01*
X91763Y-47587D01*
X91545Y-48018D01*
X91324Y-48449D01*
X91101Y-48879D01*
X90876Y-49308D01*
X90649Y-49736D01*
X90420Y-50163D01*
X90189Y-50589D01*
X89955Y-51014D01*
X89720Y-51438D01*
X89482Y-51861D01*
X89242Y-52284D01*
X89000Y-52705D01*
X88756Y-53125D01*
X88509Y-53545D01*
X88261Y-53963D01*
X88010Y-54380D01*
X87757Y-54797D01*
X87502Y-55212D01*
X87245Y-55627D01*
X86986Y-56040D01*
X86724Y-56453D01*
X86461Y-56864D01*
X86195Y-57275D01*
X85927Y-57684D01*
X85657Y-58093D01*
X85385Y-58500D01*
X85111Y-58907D01*
X84835Y-59312D01*
X84556Y-59717D01*
X84276Y-60120D01*
X83993Y-60523D01*
X83708Y-60924D01*
X83421Y-61325D01*
X83132Y-61724D01*
X82841Y-62122D01*
X82547Y-62520D01*
X82252Y-62916D01*
X81954Y-63311D01*
X81655Y-63706D01*
X81353Y-64099D01*
X81049Y-64491D01*
X80743Y-64882D01*
X80435Y-65272D01*
X80125Y-65661D01*
X79812Y-66049D01*
X79498Y-66436D01*
X79181Y-66821D01*
X78863Y-67206D01*
X78542Y-67590D01*
X78219Y-67972D01*
X77894Y-68354D01*
X77567Y-68734D01*
X77238Y-69113D01*
X76906Y-69492D01*
X76573Y-69868D01*
X76238Y-70245D01*
X75900Y-70620D01*
X75560Y-70993D01*
X75219Y-71366D01*
X74875Y-71738D01*
X74529Y-72108D01*
X74181Y-72477D01*
X73831Y-72846D01*
X73479Y-73213D01*
X73124Y-73579D01*
X72768Y-73944D01*
X72410Y-74307D01*
X72170Y-74549D01*
X71929Y-74791D01*
X71687Y-75031D01*
X71444Y-75272D01*
X71200Y-75512D01*
X70955Y-75751D01*
X70710Y-75990D01*
X70463Y-76228D01*
X70216Y-76466D01*
X69960Y-76711D01*
X69695Y-76961D01*
X69429Y-77211D01*
X69163Y-77460D01*
X68895Y-77708D01*
X68627Y-77955D01*
X68357Y-78200D01*
X68087Y-78445D01*
X67815Y-78689D01*
X67543Y-78931D01*
X67269Y-79173D01*
X66995Y-79414D01*
X66719Y-79653D01*
X66443Y-79892D01*
X66166Y-80129D01*
X65888Y-80366D01*
X65609Y-80601D01*
X65329Y-80835D01*
X65048Y-81069D01*
X64766Y-81301D01*
X64483Y-81532D01*
X64200Y-81762D01*
X63916Y-81991D01*
X63630Y-82219D01*
X63344Y-82446D01*
X63057Y-82672D01*
X62769Y-82897D01*
X62480Y-83121D01*
X62190Y-83344D01*
X61900Y-83565D01*
X61608Y-83786D01*
X61316Y-84005D01*
X61023Y-84224D01*
X60729Y-84441D01*
X60434Y-84658D01*
X60139Y-84873D01*
X59842Y-85087D01*
X59545Y-85300D01*
X59247Y-85512D01*
X58948Y-85723D01*
X58649Y-85933D01*
X58348Y-86142D01*
X58047Y-86349D01*
X57745Y-86556D01*
X57442Y-86761D01*
X57139Y-86966D01*
X56834Y-87169D01*
X56529Y-87371D01*
X56223Y-87572D01*
X55917Y-87772D01*
X55609Y-87971D01*
X55301Y-88169D01*
X54993Y-88366D01*
X54683Y-88562D01*
X54373Y-88756D01*
X54062Y-88949D01*
X53750Y-89142D01*
X53438Y-89333D01*
X53124Y-89523D01*
X52811Y-89712D01*
X52496Y-89900D01*
X52181Y-90087D01*
X51865Y-90272D01*
X51549Y-90457D01*
X51231Y-90640D01*
X50913Y-90822D01*
X50595Y-91004D01*
X50275Y-91184D01*
X49956Y-91362D01*
X49635Y-91540D01*
X49314Y-91717D01*
X48992Y-91892D01*
X48669Y-92067D01*
X48346Y-92240D01*
X48023Y-92412D01*
X47698Y-92583D01*
X47373Y-92753D01*
X47048Y-92921D01*
X46722Y-93089D01*
X46395Y-93255D01*
X46067Y-93421D01*
X45739Y-93585D01*
X45411Y-93748D01*
X45082Y-93910D01*
X44752Y-94070D01*
X44422Y-94230D01*
X44091Y-94388D01*
X43760Y-94545D01*
X43428Y-94701D01*
X43095Y-94856D01*
X42762Y-95010D01*
X42429Y-95162D01*
X42095Y-95314D01*
X41760Y-95464D01*
X41425Y-95613D01*
X41089Y-95761D01*
X40753Y-95907D01*
X40416Y-96053D01*
X40079Y-96197D01*
X39742Y-96340D01*
X39403Y-96482D01*
X39065Y-96623D01*
X38726Y-96763D01*
X38386Y-96901D01*
X38046Y-97038D01*
X37706Y-97175D01*
X37364Y-97309D01*
X37023Y-97443D01*
X36681Y-97576D01*
X36339Y-97707D01*
X35996Y-97837D01*
X35653Y-97966D01*
X35309Y-98094D01*
X34965Y-98220D01*
X34621Y-98345D01*
X34276Y-98470D01*
X33930Y-98593D01*
X33585Y-98714D01*
X33239Y-98835D01*
X32892Y-98954D01*
X32545Y-99072D01*
X32198Y-99189D01*
X31850Y-99305D01*
X31502Y-99419D01*
X31154Y-99532D01*
X30805Y-99644D01*
X30456Y-99755D01*
X30107Y-99865D01*
X29757Y-99973D01*
X29407Y-100080D01*
X29056Y-100186D01*
X28705Y-100291D01*
X28354Y-100394D01*
X28003Y-100496D01*
X27651Y-100597D01*
X27299Y-100697D01*
X26947Y-100796D01*
X26594Y-100893D01*
X26241Y-100989D01*
X25888Y-101084D01*
X25534Y-101177D01*
X25180Y-101270D01*
X24826Y-101361D01*
X24472Y-101451D01*
X24117Y-101539D01*
X23762Y-101626D01*
X23407Y-101712D01*
X23052Y-101797D01*
X22696Y-101881D01*
X22340Y-101963D01*
X21984Y-102044D01*
X21628Y-102124D01*
X21271Y-102203D01*
X20914Y-102280D01*
X20557Y-102356D01*
X20200Y-102430D01*
X19843Y-102504D01*
X19485Y-102576D01*
X19128Y-102647D01*
X18770Y-102717D01*
X18411Y-102785D01*
X18053Y-102852D01*
X17694Y-102918D01*
X17336Y-102983D01*
X16977Y-103046D01*
X16618Y-103108D01*
X16259Y-103169D01*
X15899Y-103228D01*
X15540Y-103286D01*
X15180Y-103343D01*
X14821Y-103399D01*
X14461Y-103453D01*
X14101Y-103506D01*
X13741Y-103558D01*
X13381Y-103608D01*
X13020Y-103657D01*
X12660Y-103705D01*
X12300Y-103751D01*
X11939Y-103797D01*
X11579Y-103840D01*
X11218Y-103883D01*
X10857Y-103924D01*
X10496Y-103964D01*
X10135Y-104003D01*
X9774Y-104040D01*
X9413Y-104076D01*
X9052Y-104111D01*
X8691Y-104144D01*
X8330Y-104176D01*
X7969Y-104207D01*
X7607Y-104237D01*
X7246Y-104265D01*
X6885Y-104291D01*
X6524Y-104317D01*
X6162Y-104341D01*
X5801Y-104364D01*
X5440Y-104385D01*
X5078Y-104405D01*
X4717Y-104424D01*
X4356Y-104442D01*
X3995Y-104458D01*
X3633Y-104473D01*
X3272Y-104486D01*
X2911Y-104498D01*
X2550Y-104509D01*
X2189Y-104518D01*
X1828Y-104527D01*
X1467Y-104533D01*
X1106Y-104539D01*
X745Y-104543D01*
X385Y-104545D01*
X204Y-104546D01*
X-156Y-104547D01*
X-517Y-104546D01*
X-877Y-104544D01*
X-1237Y-104541D01*
X-1598Y-104536D01*
X-1958Y-104530D01*
X-2318Y-104522D01*
X-2677Y-104513D01*
X-3037Y-104503D01*
X-3397Y-104491D01*
X-3756Y-104478D01*
X-4116Y-104464D01*
X-4475Y-104448D01*
X-4834Y-104431D01*
X-5193Y-104413D01*
X-5551Y-104393D01*
X-5910Y-104372D01*
X-6269Y-104349D01*
X-6627Y-104325D01*
X-6985Y-104299D01*
X-7343Y-104273D01*
X-7700Y-104244D01*
X-8058Y-104215D01*
X-8415Y-104184D01*
X-8772Y-104151D01*
X-9129Y-104118D01*
X-9485Y-104082D01*
X-9842Y-104046D01*
X-10198Y-104008D01*
X-10554Y-103969D01*
X-10910Y-103928D01*
X-11265Y-103886D01*
X-11620Y-103842D01*
X-11975Y-103797D01*
X-12330Y-103751D01*
X-12685Y-103703D01*
X-13039Y-103654D01*
X-13393Y-103603D01*
X-13746Y-103551D01*
X-14100Y-103498D01*
X-14453Y-103443D01*
X-14805Y-103386D01*
X-15158Y-103329D01*
X-15510Y-103270D01*
X-15862Y-103209D01*
X-16410Y-103113D01*
X-16952Y-103016D01*
X-17489Y-102919D01*
X-18020Y-102822D01*
X-18545Y-102724D01*
X-19065Y-102626D01*
X-19580Y-102527D01*
X-20090Y-102427D01*
X-20595Y-102326D01*
X-21095Y-102226D01*
X-21590Y-102124D01*
X-22080Y-102021D01*
X-22566Y-101918D01*
X-23048Y-101813D01*
X-23525Y-101708D01*
X-23999Y-101602D01*
X-24468Y-101494D01*
X-24933Y-101386D01*
X-25395Y-101277D01*
X-25853Y-101166D01*
X-26307Y-101054D01*
X-26758Y-100941D01*
X-27206Y-100826D01*
X-27650Y-100711D01*
X-28092Y-100594D01*
X-28531Y-100475D01*
X-28967Y-100355D01*
X-29400Y-100233D01*
X-29830Y-100110D01*
X-30258Y-99985D01*
X-30684Y-99859D01*
X-31108Y-99731D01*
X-31530Y-99601D01*
X-31949Y-99469D01*
X-32367Y-99335D01*
X-32783Y-99200D01*
X-33198Y-99062D01*
X-33611Y-98923D01*
X-34023Y-98782D01*
X-34434Y-98638D01*
X-34843Y-98493D01*
X-35252Y-98345D01*
X-35659Y-98195D01*
X-36067Y-98043D01*
X-36473Y-97889D01*
X-36879Y-97732D01*
X-37284Y-97573D01*
X-37690Y-97411D01*
X-38095Y-97247D01*
X-38500Y-97080D01*
X-38906Y-96911D01*
X-39311Y-96740D01*
X-39717Y-96565D01*
X-40124Y-96388D01*
X-40531Y-96208D01*
X-40939Y-96026D01*
X-41348Y-95840D01*
X-41758Y-95652D01*
X-42168Y-95461D01*
X-42581Y-95266D01*
X-42994Y-95069D01*
X-43409Y-94869D01*
X-43826Y-94665D01*
X-44244Y-94459D01*
X-44664Y-94249D01*
X-45086Y-94036D01*
X-45510Y-93820D01*
X-45937Y-93601D01*
X-46365Y-93378D01*
X-46796Y-93151D01*
X-47230Y-92921D01*
X-47667Y-92688D01*
X-48106Y-92451D01*
X-48548Y-92211D01*
X-48993Y-91967D01*
X-49442Y-91719D01*
X-49894Y-91468D01*
X-50349Y-91212D01*
X-50808Y-90953D01*
X-51270Y-90690D01*
X-51736Y-90423D01*
X-52206Y-90152D01*
X-52681Y-89878D01*
X-53159Y-89599D01*
X-53642Y-89316D01*
X-53803Y-89220D01*
X-54022Y-89090D01*
X-54243Y-88957D01*
X-54467Y-88821D01*
X-54692Y-88681D01*
X-54920Y-88538D01*
X-55149Y-88392D01*
X-55381Y-88244D01*
X-55614Y-88091D01*
X-55850Y-87936D01*
X-56087Y-87779D01*
X-56326Y-87618D01*
X-56567Y-87454D01*
X-56810Y-87288D01*
X-57054Y-87118D01*
X-57300Y-86946D01*
X-57547Y-86772D01*
X-57796Y-86594D01*
X-58047Y-86414D01*
X-58299Y-86232D01*
X-58552Y-86047D01*
X-58807Y-85860D01*
X-59063Y-85670D01*
X-59320Y-85477D01*
X-59578Y-85283D01*
X-59838Y-85086D01*
X-60099Y-84887D01*
X-60361Y-84685D01*
X-60624Y-84482D01*
X-60888Y-84276D01*
X-61153Y-84068D01*
X-61419Y-83858D01*
X-61686Y-83646D01*
X-61953Y-83432D01*
X-62222Y-83216D01*
X-62491Y-82999D01*
X-62761Y-82779D01*
X-63031Y-82558D01*
X-63302Y-82335D01*
X-63574Y-82110D01*
X-63846Y-81884D01*
X-64118Y-81656D01*
X-64391Y-81426D01*
X-64665Y-81195D01*
X-64938Y-80962D01*
X-65212Y-80728D01*
X-65486Y-80492D01*
X-65761Y-80255D01*
X-66035Y-80017D01*
X-66310Y-79777D01*
X-66585Y-79536D01*
X-66860Y-79294D01*
X-67134Y-79051D01*
X-67409Y-78807D01*
X-67684Y-78561D01*
X-67958Y-78315D01*
X-68232Y-78067D01*
X-68506Y-77819D01*
X-68779Y-77569D01*
X-69053Y-77319D01*
X-69325Y-77068D01*
X-69598Y-76816D01*
X-69870Y-76564D01*
X-70141Y-76310D01*
X-70412Y-76056D01*
X-70682Y-75802D01*
X-70952Y-75547D01*
X-71221Y-75291D01*
X-71489Y-75035D01*
X-71756Y-74778D01*
X-72023Y-74521D01*
X-72288Y-74264D01*
X-72553Y-74006D01*
X-72817Y-73748D01*
X-73079Y-73490D01*
X-73341Y-73232D01*
X-73601Y-72973D01*
X-73861Y-72714D01*
X-74119Y-72456D01*
X-74376Y-72197D01*
X-74632Y-71938D01*
X-74886Y-71680D01*
X-75139Y-71421D01*
X-75390Y-71162D01*
X-75640Y-70904D01*
X-75889Y-70646D01*
X-76136Y-70388D01*
X-76381Y-70131D01*
X-76625Y-69874D01*
X-76867Y-69617D01*
X-77107Y-69361D01*
X-77346Y-69105D01*
X-77582Y-68850D01*
X-77817Y-68595D01*
X-78050Y-68341D01*
X-78281Y-68088D01*
X-78510Y-67835D01*
X-78737Y-67583D01*
X-78961Y-67332D01*
X-79184Y-67081D01*
X-79404Y-66832D01*
X-79623Y-66583D01*
X-79839Y-66336D01*
X-80052Y-66089D01*
X-80263Y-65843D01*
X-80472Y-65599D01*
X-80679Y-65355D01*
X-80882Y-65113D01*
X-81084Y-64872D01*
X-81282Y-64632D01*
X-81479Y-64393D01*
X-81672Y-64156D01*
X-81863Y-63920D01*
X-82051Y-63685D01*
X-82236Y-63452D01*
X-82418Y-63221D01*
X-82597Y-62991D01*
X-82774Y-62762D01*
X-82947Y-62536D01*
X-83117Y-62311D01*
X-83285Y-62087D01*
X-83449Y-61865D01*
X-83610Y-61645D01*
X-83767Y-61427D01*
X-83922Y-61211D01*
X-84073Y-60997D01*
X-84221Y-60785D01*
X-84365Y-60574D01*
X-84506Y-60366D01*
X-84724Y-60040D01*
X-84943Y-59707D01*
X-85164Y-59366D01*
X-85387Y-59020D01*
X-85611Y-58666D01*
X-85837Y-58307D01*
X-86064Y-57941D01*
X-86292Y-57569D01*
X-86522Y-57193D01*
X-86752Y-56810D01*
X-86983Y-56423D01*
X-87215Y-56030D01*
X-87447Y-55633D01*
X-87680Y-55231D01*
X-87914Y-54826D01*
X-88147Y-54416D01*
X-88381Y-54003D01*
X-88615Y-53586D01*
X-88848Y-53165D01*
X-89082Y-52742D01*
X-89315Y-52316D01*
X-89548Y-51887D01*
X-89780Y-51455D01*
X-90012Y-51022D01*
X-90243Y-50587D01*
X-90473Y-50149D01*
X-90702Y-49711D01*
X-90930Y-49271D01*
X-91157Y-48830D01*
X-91382Y-48388D01*
X-91607Y-47946D01*
X-91829Y-47503D01*
X-92050Y-47061D01*
X-92269Y-46618D01*
X-92486Y-46176D01*
X-92701Y-45734D01*
X-92914Y-45293D01*
X-93125Y-44853D01*
X-93334Y-44414D01*
X-93540Y-43977D01*
X-93743Y-43541D01*
X-93944Y-43108D01*
X-94142Y-42676D01*
X-94337Y-42247D01*
X-94529Y-41820D01*
X-94718Y-41397D01*
X-94903Y-40976D01*
X-95086Y-40559D01*
X-95265Y-40145D01*
X-95440Y-39735D01*
X-95611Y-39328D01*
X-95779Y-38927D01*
X-95943Y-38529D01*
X-96102Y-38136D01*
X-96258Y-37748D01*
X-96409Y-37365D01*
X-96556Y-36988D01*
X-96698Y-36616D01*
X-96836Y-36249D01*
X-96969Y-35889D01*
X-97097Y-35535D01*
X-97220Y-35187D01*
X-97338Y-34846D01*
X-97451Y-34513D01*
X-97530Y-34277D01*
X-97608Y-34040D01*
X-97685Y-33803D01*
X-97761Y-33566D01*
X-97837Y-33328D01*
X-97913Y-33090D01*
X-97987Y-32851D01*
X-98061Y-32611D01*
X-98135Y-32372D01*
X-98208Y-32132D01*
X-98280Y-31891D01*
X-98351Y-31649D01*
X-98422Y-31408D01*
X-98493Y-31166D01*
X-98563Y-30923D01*
X-98632Y-30680D01*
X-98700Y-30437D01*
X-98768Y-30193D01*
X-98836Y-29949D01*
X-98902Y-29704D01*
X-98968Y-29459D01*
X-99034Y-29213D01*
X-99099Y-28967D01*
X-99163Y-28721D01*
X-99227Y-28474D01*
X-99290Y-28227D01*
X-99352Y-27979D01*
X-99414Y-27731D01*
X-99475Y-27483D01*
X-99536Y-27234D01*
X-99596Y-26985D01*
X-99655Y-26735D01*
X-99714Y-26485D01*
X-99772Y-26235D01*
X-99830Y-25984D01*
X-99887Y-25733D01*
X-99943Y-25482D01*
X-99999Y-25230D01*
X-100054Y-24978D01*
X-100108Y-24725D01*
X-100162Y-24473D01*
X-100215Y-24220D01*
X-100268Y-23966D01*
X-100320Y-23712D01*
X-100371Y-23458D01*
X-100422Y-23204D01*
X-100472Y-22949D01*
X-100522Y-22694D01*
X-100571Y-22438D01*
X-100619Y-22183D01*
X-100667Y-21927D01*
X-100714Y-21670D01*
X-100760Y-21414D01*
X-100806Y-21157D01*
X-100851Y-20900D01*
X-100896Y-20642D01*
X-100940Y-20385D01*
X-100984Y-20127D01*
X-101026Y-19868D01*
X-101069Y-19610D01*
X-101110Y-19351D01*
X-101151Y-19092D01*
X-101192Y-18832D01*
X-101231Y-18573D01*
X-101270Y-18313D01*
X-101309Y-18053D01*
X-101347Y-17793D01*
X-101384Y-17532D01*
X-101421Y-17271D01*
X-101457Y-17010D01*
X-101492Y-16749D01*
X-101527Y-16488D01*
X-101561Y-16226D01*
X-101595Y-15964D01*
X-101628Y-15702D01*
X-101660Y-15440D01*
X-101692Y-15177D01*
X-101723Y-14915D01*
X-101754Y-14652D01*
X-101784Y-14389D01*
X-101813Y-14126D01*
X-101842Y-13862D01*
X-101870Y-13599D01*
X-101897Y-13335D01*
X-101924Y-13071D01*
X-101951Y-12807D01*
X-101976Y-12543D01*
X-102001Y-12278D01*
X-102026Y-12014D01*
X-102050Y-11749D01*
X-102073Y-11484D01*
X-102095Y-11219D01*
X-102117Y-10954D01*
X-102139Y-10689D01*
X-102160Y-10424D01*
X-102180Y-10158D01*
X-102199Y-9893D01*
X-102218Y-9627D01*
X-102236Y-9361D01*
X-102254Y-9095D01*
X-102271Y-8829D01*
X-102288Y-8563D01*
X-102303Y-8297D01*
X-102319Y-8031D01*
X-102333Y-7764D01*
X-102347Y-7498D01*
X-102361Y-7232D01*
X-102373Y-6965D01*
X-102386Y-6698D01*
X-102397Y-6431D01*
X-102408Y-6165D01*
X-102418Y-5898D01*
X-102428Y-5631D01*
X-102437Y-5364D01*
X-102446Y-5097D01*
X-102453Y-4830D01*
X-102461Y-4563D01*
X-102467Y-4296D01*
X-102473Y-4029D01*
X-102479Y-3762D01*
X-102484Y-3494D01*
X-102488Y-3227D01*
X-102491Y-2960D01*
X-102494Y-2693D01*
X-102497Y-2426D01*
X-102498Y-2158D01*
X-102500Y-1891D01*
X-102500Y-1624D01*
X-102500Y-1357D01*
X-102499Y-1090D01*
X-102498Y-823D01*
X-102496Y-556D01*
X-102493Y-288D01*
X-102490Y-21D01*
X-102486Y246D01*
X-102482Y513D01*
X-102477Y780D01*
X-102471Y1046D01*
X-102465Y1313D01*
X-102458Y1580D01*
X-102451Y1847D01*
X-102443Y2113D01*
X-102434Y2380D01*
X-102425Y2647D01*
X-102415Y2913D01*
X-102404Y3179D01*
X-102393Y3446D01*
X-102381Y3712D01*
X-102369Y3978D01*
X-102356Y4244D01*
X-102342Y4510D01*
X-102328Y4775D01*
X-102313Y5041D01*
X-102298Y5307D01*
X-102282Y5572D01*
X-102265Y5838D01*
X-102248Y6103D01*
X-102230Y6368D01*
X-102212Y6633D01*
X-102192Y6898D01*
X-102173Y7162D01*
X-102152Y7427D01*
X-102131Y7691D01*
X-102110Y7955D01*
X-102088Y8219D01*
X-102065Y8483D01*
X-102042Y8747D01*
X-102017Y9010D01*
X-101993Y9274D01*
X-101967Y9537D01*
X-101942Y9800D01*
X-101915Y10063D01*
X-101888Y10325D01*
X-101860Y10588D01*
X-101832Y10850D01*
X-101803Y11112D01*
X-101774Y11374D01*
X-101743Y11636D01*
X-101713Y11897D01*
X-101681Y12158D01*
X-101649Y12419D01*
X-101617Y12680D01*
X-101583Y12940D01*
X-101550Y13201D01*
X-101515Y13461D01*
X-101480Y13721D01*
X-101444Y13980D01*
X-101408Y14239D01*
X-101371Y14498D01*
X-101334Y14757D01*
X-101296Y15016D01*
X-101257Y15274D01*
X-101217Y15532D01*
X-101178Y15790D01*
X-101137Y16047D01*
X-101096Y16304D01*
X-101054Y16561D01*
X-101011Y16818D01*
X-100968Y17074D01*
X-100925Y17330D01*
X-100880Y17586D01*
X-100836Y17841D01*
X-100790Y18096D01*
X-100744Y18351D01*
X-100697Y18605D01*
X-100650Y18859D01*
X-100602Y19113D01*
X-100554Y19366D01*
X-100504Y19619D01*
X-100455Y19872D01*
X-100404Y20125D01*
X-100353Y20377D01*
X-100302Y20628D01*
X-100249Y20880D01*
X-100196Y21131D01*
X-100143Y21381D01*
X-100089Y21632D01*
X-100034Y21881D01*
X-99979Y22131D01*
X-99923Y22380D01*
X-99866Y22629D01*
X-99809Y22877D01*
X-99751Y23125D01*
X-99693Y23373D01*
X-99634Y23620D01*
X-99574Y23867D01*
X-99514Y24113D01*
X-99453Y24359D01*
X-99392Y24604D01*
X-99330Y24850D01*
X-99267Y25094D01*
X-99204Y25339D01*
X-99140Y25582D01*
X-99075Y25826D01*
X-99010Y26069D01*
X-98945Y26311D01*
X-98878Y26553D01*
X-98811Y26795D01*
X-98744Y27036D01*
X-98676Y27277D01*
X-98607Y27517D01*
X-98537Y27757D01*
X-98467Y27996D01*
X-98397Y28235D01*
X-98325Y28473D01*
X-98253Y28711D01*
X-98181Y28948D01*
X-98108Y29185D01*
X-98034Y29421D01*
X-97960Y29657D01*
X-97885Y29893D01*
X-97809Y30127D01*
X-97733Y30362D01*
X-97656Y30596D01*
X-97579Y30829D01*
X-97449Y31215D01*
X-97345Y31522D01*
X-97239Y31829D01*
X-97132Y32135D01*
X-97023Y32442D01*
X-96914Y32748D01*
X-96803Y33054D01*
X-96691Y33360D01*
X-96578Y33665D01*
X-96463Y33971D01*
X-96348Y34276D01*
X-96231Y34581D01*
X-96113Y34886D01*
X-95994Y35191D01*
X-95874Y35495D01*
X-95752Y35799D01*
X-95630Y36103D01*
X-95506Y36407D01*
X-95381Y36710D01*
X-95255Y37014D01*
X-95128Y37317D01*
X-94999Y37619D01*
X-94870Y37922D01*
X-94739Y38224D01*
X-94607Y38526D01*
X-94474Y38828D01*
X-94340Y39129D01*
X-94205Y39431D01*
X-94069Y39732D01*
X-93932Y40032D01*
X-93793Y40332D01*
X-93653Y40633D01*
X-93513Y40932D01*
X-93371Y41232D01*
X-93228Y41531D01*
X-93084Y41830D01*
X-92939Y42128D01*
X-92793Y42426D01*
X-92645Y42724D01*
X-92497Y43022D01*
X-92347Y43319D01*
X-92197Y43616D01*
X-92045Y43912D01*
X-91893Y44208D01*
X-91739Y44504D01*
X-91585Y44800D01*
X-91429Y45095D01*
X-91272Y45390D01*
X-91114Y45684D01*
X-90955Y45978D01*
X-90795Y46272D01*
X-90635Y46565D01*
X-90473Y46858D01*
X-90310Y47150D01*
X-90146Y47442D01*
X-89981Y47734D01*
X-89815Y48025D01*
X-89648Y48316D01*
X-89480Y48607D01*
X-89311Y48896D01*
X-89141Y49186D01*
X-88970Y49475D01*
X-88798Y49764D01*
X-88625Y50052D01*
X-88451Y50340D01*
X-88276Y50628D01*
X-88101Y50915D01*
X-87924Y51201D01*
X-87746Y51487D01*
X-87567Y51773D01*
X-87388Y52058D01*
X-87207Y52343D01*
X-87026Y52627D01*
X-86843Y52910D01*
X-86660Y53194D01*
X-86476Y53476D01*
X-86290Y53759D01*
X-86104Y54040D01*
X-85917Y54322D01*
X-85729Y54602D01*
X-85540Y54882D01*
X-85351Y55162D01*
X-85160Y55441D01*
X-84968Y55720D01*
X-84776Y55998D01*
X-84582Y56276D01*
X-84388Y56553D01*
X-84193Y56829D01*
X-83997Y57105D01*
X-83800Y57381D01*
X-83602Y57656D01*
X-83404Y57930D01*
X-83204Y58204D01*
X-83004Y58477D01*
X-82803Y58749D01*
X-82601Y59021D01*
X-82398Y59293D01*
X-82194Y59563D01*
X-81990Y59834D01*
X-81784Y60103D01*
X-81578Y60372D01*
X-81371Y60641D01*
X-81163Y60909D01*
X-80955Y61176D01*
X-80745Y61442D01*
X-80535Y61708D01*
X-80324Y61974D01*
X-80112Y62238D01*
X-79900Y62502D01*
X-79686Y62766D01*
X-79472Y63029D01*
X-79257Y63291D01*
X-79041Y63552D01*
X-78825Y63813D01*
X-78607Y64073D01*
X-78389Y64333D01*
X-78170Y64592D01*
X-77951Y64850D01*
X-77730Y65107D01*
X-77398Y65492D01*
X-77065Y65875D01*
X-76729Y66257D01*
X-76392Y66637D01*
X-76054Y67016D01*
X-75714Y67393D01*
X-75372Y67768D01*
X-75029Y68142D01*
X-74684Y68514D01*
X-74337Y68884D01*
X-73989Y69253D01*
X-73639Y69620D01*
X-73288Y69985D01*
X-73053Y70227D01*
X-72818Y70469D01*
X-72582Y70710D01*
X-72345Y70950D01*
X-72107Y71189D01*
X-71869Y71428D01*
X-71630Y71666D01*
X-71391Y71903D01*
X-71150Y72139D01*
X-70910Y72374D01*
X-70668Y72609D01*
X-70426Y72842D01*
X-70184Y73075D01*
X-69940Y73307D01*
X-69696Y73539D01*
X-69452Y73769D01*
X-69207Y73998D01*
X-68961Y74227D01*
X-68715Y74455D01*
X-68468Y74682D01*
X-68221Y74908D01*
X-67972Y75133D01*
X-67724Y75358D01*
X-67475Y75581D01*
X-67225Y75804D01*
X-66975Y76025D01*
X-66724Y76246D01*
X-66472Y76466D01*
X-66220Y76685D01*
X-65968Y76903D01*
X-65714Y77120D01*
X-65461Y77337D01*
X-65206Y77552D01*
X-64952Y77767D01*
X-64696Y77980D01*
X-64441Y78193D01*
X-64184Y78405D01*
X-63927Y78615D01*
X-63670Y78825D01*
X-63412Y79034D01*
X-63154Y79242D01*
X-62895Y79449D01*
X-62636Y79655D01*
X-62376Y79860D01*
X-62115Y80064D01*
X-61854Y80267D01*
X-61593Y80469D01*
X-61331Y80670D01*
X-61069Y80870D01*
X-60806Y81069D01*
X-60543Y81268D01*
X-60279Y81465D01*
X-60015Y81661D01*
X-59750Y81856D01*
X-59485Y82050D01*
X-59220Y82243D01*
X-58954Y82435D01*
X-58688Y82626D01*
X-58421Y82816D01*
X-58153Y83005D01*
X-57886Y83193D01*
X-57618Y83380D01*
X-57349Y83566D01*
X-57080Y83751D01*
X-56811Y83935D01*
X-56541Y84117D01*
X-56271Y84299D01*
X-56000Y84479D01*
X-55729Y84659D01*
X-55458Y84837D01*
X-55186Y85014D01*
X-54914Y85191D01*
X-54642Y85366D01*
X-54369Y85540D01*
X-54096Y85713D01*
X-53822Y85884D01*
X-53548Y86055D01*
X-53274Y86225D01*
X-52999Y86393D01*
X-52724Y86560D01*
X-52449Y86727D01*
X-52173Y86892D01*
X-51897Y87056D01*
X-51620Y87218D01*
X-51344Y87380D01*
X-51067Y87540D01*
X-50789Y87700D01*
X-50512Y87858D01*
X-50234Y88015D01*
X-49955Y88170D01*
X-49677Y88325D01*
X-49398Y88479D01*
X-49119Y88631D01*
X-48839Y88782D01*
X-48559Y88932D01*
X-48279Y89080D01*
X-47999Y89228D01*
X-47718Y89374D01*
X-47438Y89519D01*
X-47156Y89663D01*
X-46875Y89806D01*
X-46593Y89947D01*
X-46311Y90087D01*
X-46029Y90226D01*
X-45747Y90364D01*
X-45464Y90500D01*
X-45181Y90636D01*
X-44898Y90770D01*
X-44615Y90902D01*
X-44331Y91034D01*
X-44047Y91164D01*
X-43763Y91293D01*
X-43479Y91421D01*
X-43194Y91547D01*
X-42910Y91672D01*
X-42625Y91796D01*
X-42340Y91918D01*
X-42054Y92040D01*
X-41640Y92215D01*
X-41219Y92393D01*
X-40796Y92573D01*
X-40373Y92753D01*
X-39952Y92933D01*
X-39538Y93110D01*
X-39132Y93284D01*
X-38739Y93453D01*
X-38360Y93616D01*
X-37998Y93772D01*
X-37657Y93920D01*
X-37339Y94058D01*
X-37048Y94185D01*
X-36786Y94299D01*
X-36556Y94401D01*
X-36186Y94565D01*
X-35881Y94695D01*
X-35563Y94826D01*
X-35233Y94957D01*
X-34890Y95088D01*
X-34534Y95220D01*
X-34165Y95351D01*
X-33784Y95484D01*
X-33392Y95616D01*
X-32987Y95748D01*
X-32571Y95881D01*
X-32143Y96013D01*
X-31704Y96146D01*
X-31255Y96278D01*
X-30794Y96411D01*
X-30322Y96543D01*
X-29840Y96675D01*
X-29348Y96807D01*
X-28846Y96939D01*
X-28333Y97070D01*
X-27812Y97201D01*
X-27280Y97332D01*
X-26739Y97462D01*
X-26190Y97592D01*
X-25631Y97721D01*
X-25063Y97849D01*
X-24487Y97977D01*
X-23903Y98105D01*
X-23310Y98231D01*
X-22710Y98357D01*
X-22102Y98483D01*
X-21486Y98607D01*
X-20863Y98730D01*
X-20233Y98853D01*
X-19595Y98974D01*
X-18951Y99095D01*
X-18301Y99214D01*
X-17644Y99333D01*
X-16981Y99450D01*
X-16311Y99566D01*
X-15636Y99681D01*
X-14956Y99795D01*
X-14270Y99907D01*
X-13578Y100018D01*
X-12882Y100127D01*
X-12181Y100235D01*
X-11475Y100342D01*
X-10765Y100447D01*
X-10050Y100551D01*
X-9332Y100653D01*
X-8609Y100753D01*
X-8174Y100812D01*
X-7951Y100840D01*
X-7713Y100866D01*
X-7458Y100889D01*
X-7189Y100910D01*
X-6905Y100929D01*
X-6607Y100946D01*
X-6295Y100961D01*
X-5971Y100973D01*
X-5633Y100983D01*
X-5283Y100992D01*
X-4921Y100998D01*
X-4548Y101002D01*
X-4164Y101005D01*
X-3770Y101005D01*
X-3365Y101004D01*
D02*
G37*
%LPC*%
G36*
X-439Y94295D02*
X-833Y94294D01*
X-1227Y94290D01*
X-1621Y94285D01*
X-2016Y94277D01*
X-2412Y94266D01*
X-2809Y94254D01*
X-3207Y94239D01*
X-3607Y94221D01*
X-4008Y94202D01*
X-4412Y94180D01*
X-4818Y94156D01*
X-5226Y94129D01*
X-5637Y94101D01*
X-6051Y94070D01*
X-6468Y94037D01*
X-6889Y94001D01*
X-7313Y93963D01*
X-7849Y93912D01*
X-8392Y93858D01*
X-8941Y93800D01*
X-9498Y93739D01*
X-10063Y93674D01*
X-10636Y93605D01*
X-11218Y93533D01*
X-11810Y93457D01*
X-12411Y93378D01*
X-13022Y93295D01*
X-13644Y93208D01*
X-14278Y93118D01*
X-14534Y93081D01*
X-14763Y93047D01*
X-14992Y93012D01*
X-15221Y92977D01*
X-15451Y92941D01*
X-15682Y92904D01*
X-15913Y92866D01*
X-16145Y92827D01*
X-16377Y92788D01*
X-16610Y92747D01*
X-16843Y92706D01*
X-17077Y92664D01*
X-17311Y92621D01*
X-17546Y92578D01*
X-17781Y92533D01*
X-18017Y92488D01*
X-18253Y92442D01*
X-18489Y92395D01*
X-18726Y92347D01*
X-18963Y92298D01*
X-19201Y92249D01*
X-19439Y92199D01*
X-19677Y92148D01*
X-19916Y92096D01*
X-20155Y92044D01*
X-20395Y91990D01*
X-20635Y91936D01*
X-20875Y91881D01*
X-21116Y91826D01*
X-21356Y91769D01*
X-21597Y91712D01*
X-21839Y91654D01*
X-22081Y91595D01*
X-22322Y91536D01*
X-22565Y91475D01*
X-22807Y91414D01*
X-23050Y91353D01*
X-23293Y91290D01*
X-23536Y91227D01*
X-23779Y91163D01*
X-24023Y91098D01*
X-24267Y91033D01*
X-24511Y90966D01*
X-24755Y90899D01*
X-24999Y90832D01*
X-25244Y90764D01*
X-25488Y90694D01*
X-25733Y90625D01*
X-25978Y90554D01*
X-26223Y90483D01*
X-26468Y90411D01*
X-26713Y90338D01*
X-26958Y90265D01*
X-27204Y90191D01*
X-27449Y90116D01*
X-27695Y90041D01*
X-27940Y89965D01*
X-28186Y89888D01*
X-28431Y89811D01*
X-28677Y89733D01*
X-28923Y89654D01*
X-29168Y89574D01*
X-29414Y89494D01*
X-29659Y89413D01*
X-29905Y89332D01*
X-30150Y89250D01*
X-30396Y89167D01*
X-30641Y89084D01*
X-30887Y89000D01*
X-31132Y88915D01*
X-31377Y88830D01*
X-31622Y88744D01*
X-31867Y88657D01*
X-32112Y88570D01*
X-32357Y88482D01*
X-32601Y88393D01*
X-32846Y88304D01*
X-33090Y88215D01*
X-33334Y88124D01*
X-33578Y88034D01*
X-33822Y87942D01*
X-34065Y87850D01*
X-34309Y87757D01*
X-34552Y87664D01*
X-34794Y87570D01*
X-35037Y87475D01*
X-35280Y87380D01*
X-35522Y87284D01*
X-35764Y87188D01*
X-36005Y87091D01*
X-36247Y86994D01*
X-36488Y86896D01*
X-36728Y86797D01*
X-36969Y86698D01*
X-37209Y86598D01*
X-37449Y86498D01*
X-37688Y86397D01*
X-37927Y86296D01*
X-38166Y86194D01*
X-38404Y86091D01*
X-38642Y85989D01*
X-38880Y85885D01*
X-39117Y85781D01*
X-39354Y85676D01*
X-39590Y85571D01*
X-39826Y85465D01*
X-40062Y85359D01*
X-40297Y85253D01*
X-40531Y85145D01*
X-40765Y85038D01*
X-40999Y84929D01*
X-41232Y84821D01*
X-41465Y84711D01*
X-41697Y84602D01*
X-41928Y84491D01*
X-42160Y84381D01*
X-42390Y84269D01*
X-42620Y84158D01*
X-42849Y84045D01*
X-43078Y83933D01*
X-43307Y83820D01*
X-43534Y83706D01*
X-43762Y83592D01*
X-43988Y83477D01*
X-44214Y83362D01*
X-44439Y83247D01*
X-44664Y83131D01*
X-44888Y83014D01*
X-45267Y82815D01*
X-45578Y82650D01*
X-45889Y82484D01*
X-46199Y82316D01*
X-46508Y82148D01*
X-46817Y81978D01*
X-47125Y81807D01*
X-47432Y81634D01*
X-47738Y81461D01*
X-48044Y81286D01*
X-48349Y81110D01*
X-48654Y80933D01*
X-48957Y80754D01*
X-49260Y80575D01*
X-49563Y80394D01*
X-49864Y80212D01*
X-50165Y80029D01*
X-50465Y79845D01*
X-50764Y79659D01*
X-51063Y79473D01*
X-51361Y79285D01*
X-51658Y79096D01*
X-51954Y78906D01*
X-52250Y78715D01*
X-52545Y78523D01*
X-52839Y78329D01*
X-53133Y78135D01*
X-53425Y77939D01*
X-53717Y77742D01*
X-54008Y77544D01*
X-54299Y77345D01*
X-54588Y77145D01*
X-54877Y76943D01*
X-55165Y76741D01*
X-55453Y76537D01*
X-55739Y76333D01*
X-56025Y76127D01*
X-56310Y75920D01*
X-56594Y75712D01*
X-56878Y75504D01*
X-57160Y75293D01*
X-57442Y75082D01*
X-57723Y74870D01*
X-58004Y74657D01*
X-58283Y74443D01*
X-58562Y74227D01*
X-58839Y74011D01*
X-59117Y73793D01*
X-59393Y73575D01*
X-59668Y73355D01*
X-59943Y73134D01*
X-60216Y72913D01*
X-60490Y72690D01*
X-60762Y72466D01*
X-61033Y72242D01*
X-61303Y72016D01*
X-61573Y71789D01*
X-61842Y71561D01*
X-62110Y71333D01*
X-62377Y71103D01*
X-62643Y70872D01*
X-62909Y70640D01*
X-63173Y70408D01*
X-63437Y70174D01*
X-63700Y69939D01*
X-63962Y69703D01*
X-64223Y69467D01*
X-64483Y69229D01*
X-64743Y68990D01*
X-65002Y68751D01*
X-65259Y68510D01*
X-65516Y68269D01*
X-65772Y68026D01*
X-66027Y67783D01*
X-66281Y67538D01*
X-66535Y67293D01*
X-66787Y67047D01*
X-67038Y66800D01*
X-67289Y66552D01*
X-67539Y66303D01*
X-67788Y66053D01*
X-68036Y65802D01*
X-68283Y65550D01*
X-68529Y65298D01*
X-68774Y65044D01*
X-69018Y64790D01*
X-69262Y64534D01*
X-69504Y64278D01*
X-69746Y64021D01*
X-69986Y63763D01*
X-70226Y63504D01*
X-70465Y63244D01*
X-70702Y62983D01*
X-70939Y62722D01*
X-71175Y62460D01*
X-71410Y62196D01*
X-71644Y61932D01*
X-71877Y61667D01*
X-72110Y61402D01*
X-72341Y61135D01*
X-72571Y60867D01*
X-72800Y60599D01*
X-73029Y60330D01*
X-73256Y60060D01*
X-73482Y59789D01*
X-73708Y59518D01*
X-73932Y59245D01*
X-74156Y58972D01*
X-74378Y58698D01*
X-74600Y58423D01*
X-74820Y58147D01*
X-75040Y57871D01*
X-75259Y57594D01*
X-75476Y57316D01*
X-75693Y57037D01*
X-75908Y56757D01*
X-76123Y56477D01*
X-76337Y56196D01*
X-76549Y55914D01*
X-76761Y55631D01*
X-76971Y55348D01*
X-77181Y55064D01*
X-77389Y54779D01*
X-77597Y54493D01*
X-77804Y54207D01*
X-78009Y53919D01*
X-78213Y53631D01*
X-78417Y53343D01*
X-78619Y53053D01*
X-78821Y52763D01*
X-79021Y52473D01*
X-79220Y52181D01*
X-79418Y51889D01*
X-79616Y51596D01*
X-79812Y51302D01*
X-80007Y51008D01*
X-80201Y50713D01*
X-80394Y50417D01*
X-80586Y50120D01*
X-80777Y49823D01*
X-80966Y49525D01*
X-81155Y49227D01*
X-81343Y48928D01*
X-81529Y48628D01*
X-81715Y48328D01*
X-81899Y48026D01*
X-82082Y47725D01*
X-82265Y47422D01*
X-82446Y47119D01*
X-82626Y46815D01*
X-82805Y46511D01*
X-82983Y46206D01*
X-83159Y45900D01*
X-83335Y45594D01*
X-83510Y45287D01*
X-83683Y44979D01*
X-83855Y44671D01*
X-84027Y44363D01*
X-84197Y44053D01*
X-84366Y43743D01*
X-84534Y43432D01*
X-84700Y43121D01*
X-84866Y42810D01*
X-85030Y42497D01*
X-85194Y42184D01*
X-85356Y41871D01*
X-85517Y41557D01*
X-85677Y41242D01*
X-85836Y40927D01*
X-85993Y40611D01*
X-86150Y40294D01*
X-86305Y39978D01*
X-86460Y39660D01*
X-86613Y39342D01*
X-86764Y39023D01*
X-86915Y38704D01*
X-87065Y38385D01*
X-87213Y38064D01*
X-87360Y37744D01*
X-87506Y37422D01*
X-87651Y37101D01*
X-87795Y36778D01*
X-87937Y36456D01*
X-88079Y36132D01*
X-88219Y35808D01*
X-88358Y35484D01*
X-88495Y35159D01*
X-88632Y34834D01*
X-88767Y34508D01*
X-88901Y34182D01*
X-89034Y33855D01*
X-89166Y33528D01*
X-89297Y33200D01*
X-89426Y32872D01*
X-89554Y32543D01*
X-89681Y32214D01*
X-89806Y31884D01*
X-89931Y31554D01*
X-90054Y31224D01*
X-90176Y30893D01*
X-90297Y30561D01*
X-90416Y30230D01*
X-90534Y29897D01*
X-90651Y29565D01*
X-90767Y29232D01*
X-90882Y28898D01*
X-90995Y28564D01*
X-91107Y28230D01*
X-91218Y27895D01*
X-91327Y27560D01*
X-91435Y27224D01*
X-91542Y26888D01*
X-91648Y26552D01*
X-91752Y26215D01*
X-91856Y25878D01*
X-91958Y25540D01*
X-92058Y25202D01*
X-92157Y24864D01*
X-92255Y24525D01*
X-92352Y24186D01*
X-92448Y23847D01*
X-92542Y23507D01*
X-92635Y23167D01*
X-92726Y22826D01*
X-92817Y22486D01*
X-92906Y22144D01*
X-92993Y21803D01*
X-93080Y21461D01*
X-93165Y21119D01*
X-93249Y20777D01*
X-93331Y20434D01*
X-93412Y20091D01*
X-93492Y19747D01*
X-93570Y19403D01*
X-93647Y19059D01*
X-93723Y18715D01*
X-93798Y18370D01*
X-93871Y18025D01*
X-93943Y17680D01*
X-94013Y17335D01*
X-94082Y16989D01*
X-94150Y16643D01*
X-94217Y16296D01*
X-94282Y15949D01*
X-94345Y15603D01*
X-94408Y15255D01*
X-94469Y14908D01*
X-94528Y14560D01*
X-94587Y14212D01*
X-94643Y13864D01*
X-94699Y13516D01*
X-94753Y13167D01*
X-94806Y12818D01*
X-94857Y12469D01*
X-94907Y12119D01*
X-94956Y11770D01*
X-95002Y11432D01*
X-95044Y11104D01*
X-95085Y10774D01*
X-95125Y10442D01*
X-95164Y10108D01*
X-95201Y9772D01*
X-95236Y9434D01*
X-95271Y9094D01*
X-95303Y8752D01*
X-95335Y8408D01*
X-95365Y8063D01*
X-95394Y7715D01*
X-95421Y7367D01*
X-95447Y7016D01*
X-95472Y6664D01*
X-95495Y6310D01*
X-95517Y5955D01*
X-95538Y5598D01*
X-95557Y5240D01*
X-95575Y4880D01*
X-95592Y4519D01*
X-95607Y4156D01*
X-95621Y3793D01*
X-95634Y3428D01*
X-95645Y3061D01*
X-95655Y2694D01*
X-95664Y2325D01*
X-95671Y1955D01*
X-95677Y1584D01*
X-95682Y1212D01*
X-95686Y839D01*
X-95688Y466D01*
X-95689Y91D01*
X-95689Y-285D01*
X-95687Y-661D01*
X-95684Y-1039D01*
X-95680Y-1417D01*
X-95675Y-1796D01*
X-95668Y-2175D01*
X-95660Y-2555D01*
X-95651Y-2936D01*
X-95641Y-3318D01*
X-95629Y-3699D01*
X-95616Y-4082D01*
X-95602Y-4465D01*
X-95587Y-4848D01*
X-95570Y-5232D01*
X-95552Y-5615D01*
X-95533Y-6000D01*
X-95513Y-6384D01*
X-95492Y-6769D01*
X-95469Y-7154D01*
X-95445Y-7539D01*
X-95420Y-7924D01*
X-95394Y-8309D01*
X-95366Y-8694D01*
X-95337Y-9080D01*
X-95308Y-9465D01*
X-95276Y-9850D01*
X-95244Y-10235D01*
X-95211Y-10619D01*
X-95176Y-11004D01*
X-95141Y-11388D01*
X-95104Y-11772D01*
X-95066Y-12156D01*
X-95027Y-12539D01*
X-94986Y-12922D01*
X-94945Y-13304D01*
X-94902Y-13686D01*
X-94858Y-14068D01*
X-94813Y-14449D01*
X-94767Y-14829D01*
X-94720Y-15208D01*
X-94672Y-15587D01*
X-94622Y-15965D01*
X-94572Y-16343D01*
X-94520Y-16719D01*
X-94467Y-17095D01*
X-94413Y-17470D01*
X-94358Y-17844D01*
X-94302Y-18217D01*
X-94245Y-18589D01*
X-94187Y-18960D01*
X-94128Y-19330D01*
X-94067Y-19699D01*
X-94006Y-20066D01*
X-93943Y-20433D01*
X-93879Y-20798D01*
X-93815Y-21162D01*
X-93749Y-21525D01*
X-93682Y-21886D01*
X-93614Y-22246D01*
X-93545Y-22604D01*
X-93475Y-22961D01*
X-93404Y-23317D01*
X-93332Y-23671D01*
X-93259Y-24023D01*
X-93185Y-24374D01*
X-93110Y-24723D01*
X-93034Y-25070D01*
X-92956Y-25416D01*
X-92878Y-25760D01*
X-92799Y-26102D01*
X-92719Y-26442D01*
X-92638Y-26780D01*
X-92555Y-27116D01*
X-92472Y-27451D01*
X-92388Y-27783D01*
X-92303Y-28113D01*
X-92216Y-28441D01*
X-92129Y-28767D01*
X-92041Y-29091D01*
X-91952Y-29413D01*
X-91862Y-29732D01*
X-91771Y-30049D01*
X-91679Y-30364D01*
X-91586Y-30676D01*
X-91492Y-30986D01*
X-91397Y-31294D01*
X-91301Y-31599D01*
X-91204Y-31901D01*
X-91107Y-32201D01*
X-91008Y-32499D01*
X-90908Y-32793D01*
X-90808Y-33085D01*
X-90707Y-33375D01*
X-90604Y-33661D01*
X-90501Y-33945D01*
X-90381Y-34269D01*
X-90244Y-34634D01*
X-90105Y-34998D01*
X-89966Y-35361D01*
X-89824Y-35724D01*
X-89682Y-36087D01*
X-89538Y-36448D01*
X-89393Y-36809D01*
X-89246Y-37169D01*
X-89098Y-37528D01*
X-88949Y-37886D01*
X-88798Y-38244D01*
X-88646Y-38601D01*
X-88493Y-38957D01*
X-88338Y-39313D01*
X-88182Y-39667D01*
X-88025Y-40021D01*
X-87866Y-40374D01*
X-87706Y-40726D01*
X-87545Y-41078D01*
X-87382Y-41429D01*
X-87219Y-41779D01*
X-87053Y-42128D01*
X-86887Y-42477D01*
X-86719Y-42824D01*
X-86550Y-43171D01*
X-86379Y-43517D01*
X-86208Y-43862D01*
X-86035Y-44207D01*
X-85860Y-44550D01*
X-85685Y-44893D01*
X-85508Y-45235D01*
X-85330Y-45576D01*
X-85150Y-45917D01*
X-84970Y-46256D01*
X-84788Y-46595D01*
X-84605Y-46933D01*
X-84420Y-47270D01*
X-84235Y-47606D01*
X-84048Y-47941D01*
X-83860Y-48276D01*
X-83670Y-48610D01*
X-83480Y-48942D01*
X-83288Y-49275D01*
X-83095Y-49606D01*
X-82900Y-49936D01*
X-82705Y-50265D01*
X-82508Y-50594D01*
X-82310Y-50922D01*
X-82111Y-51248D01*
X-81910Y-51574D01*
X-81709Y-51899D01*
X-81506Y-52224D01*
X-81302Y-52547D01*
X-81097Y-52870D01*
X-80890Y-53191D01*
X-80683Y-53512D01*
X-80474Y-53832D01*
X-80264Y-54150D01*
X-80053Y-54468D01*
X-79840Y-54785D01*
X-79627Y-55102D01*
X-79412Y-55417D01*
X-79196Y-55731D01*
X-78979Y-56045D01*
X-78761Y-56357D01*
X-78542Y-56669D01*
X-78321Y-56980D01*
X-78100Y-57289D01*
X-77877Y-57598D01*
X-77653Y-57906D01*
X-77428Y-58213D01*
X-77202Y-58519D01*
X-76975Y-58824D01*
X-76746Y-59128D01*
X-76517Y-59432D01*
X-76286Y-59734D01*
X-76054Y-60035D01*
X-75821Y-60335D01*
X-75587Y-60635D01*
X-75352Y-60933D01*
X-75116Y-61231D01*
X-74879Y-61527D01*
X-74640Y-61823D01*
X-74401Y-62117D01*
X-74160Y-62411D01*
X-73918Y-62703D01*
X-73676Y-62995D01*
X-73432Y-63286D01*
X-73187Y-63575D01*
X-72941Y-63864D01*
X-72694Y-64152D01*
X-72446Y-64438D01*
X-72197Y-64724D01*
X-71946Y-65009D01*
X-71695Y-65292D01*
X-71443Y-65575D01*
X-71189Y-65856D01*
X-70935Y-66137D01*
X-70679Y-66417D01*
X-70423Y-66695D01*
X-70165Y-66973D01*
X-69907Y-67249D01*
X-69647Y-67525D01*
X-69386Y-67799D01*
X-69125Y-68073D01*
X-68862Y-68345D01*
X-68598Y-68616D01*
X-68334Y-68886D01*
X-68068Y-69156D01*
X-67801Y-69424D01*
X-67533Y-69691D01*
X-67265Y-69957D01*
X-66995Y-70222D01*
X-66724Y-70486D01*
X-66453Y-70749D01*
X-66180Y-71011D01*
X-65906Y-71271D01*
X-65632Y-71531D01*
X-65356Y-71790D01*
X-65080Y-72047D01*
X-64802Y-72303D01*
X-64524Y-72559D01*
X-64244Y-72813D01*
X-63964Y-73066D01*
X-63682Y-73318D01*
X-63400Y-73569D01*
X-63117Y-73819D01*
X-62833Y-74068D01*
X-62548Y-74315D01*
X-62262Y-74562D01*
X-61975Y-74807D01*
X-61687Y-75051D01*
X-61398Y-75294D01*
X-61108Y-75536D01*
X-60817Y-75777D01*
X-60526Y-76017D01*
X-60233Y-76256D01*
X-59940Y-76493D01*
X-59646Y-76729D01*
X-59351Y-76965D01*
X-59054Y-77199D01*
X-58758Y-77432D01*
X-58460Y-77663D01*
X-58161Y-77894D01*
X-57861Y-78123D01*
X-57561Y-78352D01*
X-57259Y-78579D01*
X-56957Y-78805D01*
X-56654Y-79029D01*
X-56350Y-79253D01*
X-56045Y-79475D01*
X-55739Y-79697D01*
X-55433Y-79917D01*
X-55125Y-80135D01*
X-54817Y-80353D01*
X-54508Y-80570D01*
X-54198Y-80785D01*
X-53887Y-80999D01*
X-53576Y-81212D01*
X-53263Y-81424D01*
X-52950Y-81634D01*
X-52636Y-81843D01*
X-52321Y-82051D01*
X-52005Y-82258D01*
X-51688Y-82464D01*
X-51371Y-82668D01*
X-51053Y-82872D01*
X-50734Y-83074D01*
X-50414Y-83274D01*
X-50093Y-83474D01*
X-49772Y-83672D01*
X-49450Y-83869D01*
X-49127Y-84065D01*
X-48803Y-84259D01*
X-48479Y-84453D01*
X-48154Y-84645D01*
X-47828Y-84835D01*
X-47501Y-85025D01*
X-47173Y-85213D01*
X-46845Y-85400D01*
X-46516Y-85586D01*
X-46186Y-85770D01*
X-45855Y-85954D01*
X-45524Y-86135D01*
X-45192Y-86316D01*
X-44859Y-86495D01*
X-44525Y-86673D01*
X-44191Y-86850D01*
X-43856Y-87026D01*
X-43520Y-87200D01*
X-43184Y-87373D01*
X-42846Y-87544D01*
X-42509Y-87715D01*
X-42170Y-87884D01*
X-41831Y-88051D01*
X-41491Y-88218D01*
X-41150Y-88383D01*
X-40808Y-88546D01*
X-40466Y-88709D01*
X-40123Y-88870D01*
X-39780Y-89030D01*
X-39436Y-89188D01*
X-39091Y-89345D01*
X-38745Y-89501D01*
X-38399Y-89655D01*
X-38052Y-89808D01*
X-37704Y-89960D01*
X-37356Y-90110D01*
X-37007Y-90259D01*
X-36658Y-90407D01*
X-36307Y-90553D01*
X-35956Y-90698D01*
X-35605Y-90842D01*
X-35253Y-90984D01*
X-34900Y-91125D01*
X-34546Y-91264D01*
X-34193Y-91402D01*
X-33838Y-91539D01*
X-33482Y-91674D01*
X-33126Y-91808D01*
X-32770Y-91941D01*
X-32413Y-92072D01*
X-32055Y-92202D01*
X-31696Y-92330D01*
X-31337Y-92457D01*
X-30978Y-92583D01*
X-30618Y-92707D01*
X-30257Y-92830D01*
X-29895Y-92951D01*
X-29533Y-93071D01*
X-29171Y-93190D01*
X-28808Y-93307D01*
X-28444Y-93422D01*
X-28080Y-93537D01*
X-27715Y-93649D01*
X-27349Y-93761D01*
X-26983Y-93871D01*
X-26616Y-93979D01*
X-26249Y-94086D01*
X-25882Y-94192D01*
X-25513Y-94296D01*
X-25145Y-94399D01*
X-24775Y-94500D01*
X-24405Y-94600D01*
X-24035Y-94698D01*
X-23664Y-94795D01*
X-23293Y-94890D01*
X-22921Y-94984D01*
X-22548Y-95077D01*
X-22175Y-95168D01*
X-21801Y-95257D01*
X-21427Y-95345D01*
X-21053Y-95432D01*
X-20678Y-95517D01*
X-20302Y-95601D01*
X-20114Y-95642D01*
X-19894Y-95689D01*
X-19669Y-95735D01*
X-19441Y-95781D01*
X-19208Y-95826D01*
X-18970Y-95870D01*
X-18729Y-95914D01*
X-18484Y-95957D01*
X-18235Y-95999D01*
X-17981Y-96040D01*
X-17725Y-96081D01*
X-17464Y-96121D01*
X-17200Y-96160D01*
X-16932Y-96198D01*
X-16660Y-96236D01*
X-16385Y-96273D01*
X-16107Y-96309D01*
X-15825Y-96344D01*
X-15540Y-96379D01*
X-15252Y-96413D01*
X-14961Y-96446D01*
X-14667Y-96479D01*
X-14370Y-96510D01*
X-14070Y-96541D01*
X-13767Y-96572D01*
X-13461Y-96601D01*
X-13153Y-96630D01*
X-12842Y-96658D01*
X-12528Y-96685D01*
X-12212Y-96712D01*
X-11894Y-96738D01*
X-11573Y-96763D01*
X-11250Y-96787D01*
X-10925Y-96811D01*
X-10597Y-96834D01*
X-10268Y-96856D01*
X-9936Y-96878D01*
X-9603Y-96898D01*
X-9268Y-96918D01*
X-8931Y-96938D01*
X-8592Y-96956D01*
X-8251Y-96974D01*
X-7910Y-96991D01*
X-7566Y-97007D01*
X-7221Y-97023D01*
X-6875Y-97037D01*
X-6527Y-97051D01*
X-6178Y-97065D01*
X-5828Y-97077D01*
X-5477Y-97089D01*
X-5125Y-97100D01*
X-4772Y-97111D01*
X-4418Y-97120D01*
X-4063Y-97129D01*
X-3708Y-97137D01*
X-3351Y-97145D01*
X-2995Y-97152D01*
X-2637Y-97157D01*
X-2279Y-97163D01*
X-1921Y-97167D01*
X-1562Y-97171D01*
X-1204Y-97174D01*
X-845Y-97176D01*
X-486Y-97178D01*
X-126Y-97178D01*
X233Y-97178D01*
X592Y-97178D01*
X951Y-97176D01*
X1309Y-97174D01*
X1668Y-97171D01*
X2026Y-97168D01*
X2383Y-97163D01*
X2740Y-97158D01*
X3097Y-97152D01*
X3453Y-97146D01*
X3808Y-97138D01*
X4162Y-97130D01*
X4515Y-97121D01*
X4868Y-97112D01*
X5220Y-97101D01*
X5570Y-97090D01*
X5919Y-97078D01*
X6267Y-97066D01*
X6614Y-97053D01*
X6960Y-97038D01*
X7304Y-97024D01*
X7647Y-97008D01*
X7988Y-96992D01*
X8327Y-96975D01*
X8665Y-96957D01*
X9001Y-96939D01*
X9335Y-96920D01*
X9667Y-96900D01*
X9998Y-96879D01*
X10326Y-96858D01*
X10652Y-96835D01*
X10976Y-96812D01*
X11298Y-96789D01*
X11617Y-96764D01*
X11934Y-96739D01*
X12249Y-96713D01*
X12561Y-96687D01*
X12871Y-96659D01*
X13177Y-96631D01*
X13481Y-96602D01*
X13783Y-96573D01*
X14081Y-96542D01*
X14376Y-96511D01*
X14669Y-96479D01*
X14958Y-96447D01*
X15244Y-96413D01*
X15527Y-96379D01*
X15807Y-96345D01*
X16083Y-96309D01*
X16356Y-96273D01*
X16626Y-96236D01*
X16891Y-96198D01*
X17154Y-96159D01*
X17412Y-96120D01*
X17667Y-96080D01*
X17918Y-96039D01*
X18165Y-95998D01*
X18408Y-95956D01*
X18647Y-95913D01*
X18881Y-95869D01*
X19112Y-95825D01*
X19338Y-95779D01*
X19560Y-95733D01*
X19778Y-95687D01*
X20191Y-95595D01*
X20604Y-95502D01*
X21016Y-95407D01*
X21428Y-95310D01*
X21840Y-95212D01*
X22250Y-95111D01*
X22661Y-95009D01*
X23071Y-94905D01*
X23480Y-94799D01*
X23889Y-94691D01*
X24297Y-94581D01*
X24705Y-94470D01*
X25112Y-94357D01*
X25519Y-94242D01*
X25925Y-94125D01*
X26330Y-94007D01*
X26735Y-93887D01*
X27139Y-93765D01*
X27543Y-93641D01*
X27946Y-93515D01*
X28349Y-93388D01*
X28751Y-93259D01*
X29152Y-93128D01*
X29553Y-92995D01*
X29953Y-92861D01*
X30352Y-92725D01*
X30751Y-92587D01*
X31149Y-92448D01*
X31547Y-92306D01*
X31944Y-92163D01*
X32340Y-92018D01*
X32736Y-91872D01*
X33130Y-91724D01*
X33525Y-91574D01*
X33918Y-91422D01*
X34311Y-91269D01*
X34703Y-91114D01*
X35095Y-90957D01*
X35485Y-90799D01*
X35875Y-90639D01*
X36265Y-90477D01*
X36653Y-90314D01*
X37041Y-90149D01*
X37428Y-89982D01*
X37815Y-89813D01*
X38200Y-89643D01*
X38585Y-89472D01*
X38969Y-89298D01*
X39353Y-89123D01*
X39735Y-88946D01*
X40117Y-88768D01*
X40498Y-88588D01*
X40879Y-88406D01*
X41258Y-88223D01*
X41637Y-88038D01*
X42014Y-87852D01*
X42392Y-87664D01*
X42768Y-87474D01*
X43143Y-87282D01*
X43518Y-87090D01*
X43891Y-86895D01*
X44264Y-86699D01*
X44636Y-86501D01*
X45007Y-86302D01*
X45378Y-86101D01*
X45747Y-85898D01*
X46116Y-85694D01*
X46483Y-85488D01*
X46850Y-85281D01*
X47216Y-85072D01*
X47581Y-84862D01*
X47945Y-84650D01*
X48309Y-84436D01*
X48671Y-84221D01*
X49032Y-84005D01*
X49393Y-83786D01*
X49752Y-83567D01*
X50111Y-83346D01*
X50468Y-83123D01*
X50825Y-82899D01*
X51181Y-82673D01*
X51535Y-82445D01*
X51889Y-82217D01*
X52242Y-81986D01*
X52594Y-81754D01*
X52945Y-81521D01*
X53295Y-81286D01*
X53643Y-81050D01*
X53991Y-80812D01*
X54338Y-80572D01*
X54684Y-80332D01*
X55029Y-80089D01*
X55373Y-79845D01*
X55715Y-79600D01*
X56057Y-79353D01*
X56398Y-79105D01*
X56737Y-78856D01*
X57076Y-78604D01*
X57413Y-78352D01*
X57750Y-78098D01*
X58085Y-77842D01*
X58419Y-77586D01*
X58752Y-77327D01*
X59085Y-77067D01*
X59416Y-76806D01*
X59745Y-76543D01*
X60074Y-76280D01*
X60402Y-76014D01*
X60728Y-75747D01*
X61054Y-75479D01*
X61378Y-75209D01*
X61701Y-74938D01*
X62023Y-74665D01*
X62344Y-74392D01*
X62664Y-74116D01*
X62982Y-73840D01*
X63299Y-73562D01*
X63615Y-73282D01*
X63931Y-73001D01*
X64244Y-72719D01*
X64557Y-72436D01*
X64868Y-72151D01*
X65178Y-71865D01*
X65487Y-71577D01*
X65795Y-71288D01*
X66101Y-70998D01*
X66407Y-70706D01*
X66711Y-70413D01*
X67014Y-70119D01*
X67315Y-69823D01*
X67615Y-69526D01*
X67915Y-69228D01*
X68212Y-68928D01*
X68509Y-68627D01*
X68804Y-68325D01*
X69098Y-68021D01*
X69391Y-67717D01*
X69682Y-67410D01*
X69972Y-67103D01*
X70261Y-66794D01*
X70548Y-66484D01*
X70834Y-66173D01*
X71119Y-65860D01*
X71402Y-65546D01*
X71684Y-65231D01*
X71965Y-64915D01*
X72245Y-64597D01*
X72523Y-64278D01*
X72799Y-63958D01*
X73075Y-63637D01*
X73349Y-63314D01*
X73621Y-62990D01*
X73892Y-62665D01*
X74162Y-62339D01*
X74430Y-62011D01*
X74697Y-61682D01*
X74963Y-61352D01*
X75227Y-61021D01*
X75490Y-60688D01*
X75751Y-60355D01*
X76011Y-60020D01*
X76270Y-59684D01*
X76526Y-59346D01*
X76782Y-59008D01*
X77036Y-58668D01*
X77289Y-58327D01*
X77540Y-57985D01*
X77790Y-57642D01*
X78038Y-57298D01*
X78285Y-56952D01*
X78528Y-56607D01*
X78768Y-56264D01*
X79007Y-55921D01*
X79243Y-55576D01*
X79478Y-55231D01*
X79712Y-54885D01*
X79943Y-54538D01*
X80174Y-54190D01*
X80402Y-53841D01*
X80629Y-53492D01*
X80854Y-53141D01*
X81077Y-52790D01*
X81299Y-52438D01*
X81519Y-52085D01*
X81737Y-51731D01*
X81954Y-51376D01*
X82169Y-51021D01*
X82383Y-50665D01*
X82594Y-50307D01*
X82805Y-49949D01*
X83013Y-49591D01*
X83220Y-49231D01*
X83425Y-48871D01*
X83628Y-48509D01*
X83830Y-48147D01*
X84030Y-47785D01*
X84229Y-47421D01*
X84425Y-47057D01*
X84620Y-46691D01*
X84814Y-46326D01*
X85005Y-45959D01*
X85195Y-45591D01*
X85384Y-45223D01*
X85570Y-44854D01*
X85755Y-44484D01*
X85939Y-44114D01*
X86120Y-43742D01*
X86300Y-43370D01*
X86478Y-42998D01*
X86655Y-42624D01*
X86830Y-42250D01*
X87003Y-41875D01*
X87175Y-41499D01*
X87344Y-41123D01*
X87512Y-40746D01*
X87679Y-40368D01*
X87843Y-39990D01*
X88006Y-39610D01*
X88168Y-39230D01*
X88327Y-38850D01*
X88485Y-38468D01*
X88642Y-38086D01*
X88796Y-37704D01*
X88949Y-37320D01*
X89100Y-36936D01*
X89249Y-36552D01*
X89397Y-36166D01*
X89543Y-35780D01*
X89687Y-35394D01*
X89830Y-35006D01*
X89971Y-34618D01*
X90110Y-34230D01*
X90247Y-33840D01*
X90383Y-33450D01*
X90517Y-33060D01*
X90649Y-32668D01*
X90780Y-32277D01*
X90909Y-31884D01*
X91036Y-31491D01*
X91162Y-31098D01*
X91285Y-30703D01*
X91407Y-30308D01*
X91528Y-29913D01*
X91646Y-29517D01*
X91763Y-29120D01*
X91878Y-28723D01*
X91992Y-28325D01*
X92103Y-27927D01*
X92213Y-27528D01*
X92322Y-27128D01*
X92428Y-26728D01*
X92533Y-26327D01*
X92636Y-25926D01*
X92737Y-25524D01*
X92837Y-25122D01*
X92935Y-24719D01*
X93031Y-24316D01*
X93125Y-23912D01*
X93218Y-23507D01*
X93308Y-23102D01*
X93398Y-22697D01*
X93485Y-22291D01*
X93571Y-21884D01*
X93655Y-21477D01*
X93737Y-21069D01*
X93817Y-20661D01*
X93896Y-20252D01*
X93973Y-19843D01*
X94048Y-19434D01*
X94122Y-19024D01*
X94193Y-18613D01*
X94263Y-18202D01*
X94332Y-17790D01*
X94398Y-17378D01*
X94463Y-16966D01*
X94526Y-16553D01*
X94587Y-16140D01*
X94646Y-15726D01*
X94704Y-15312D01*
X94760Y-14897D01*
X94814Y-14482D01*
X94867Y-14066D01*
X94917Y-13650D01*
X94966Y-13233D01*
X95013Y-12816D01*
X95059Y-12399D01*
X95102Y-11981D01*
X95144Y-11563D01*
X95184Y-11145D01*
X95222Y-10726D01*
X95259Y-10306D01*
X95294Y-9887D01*
X95327Y-9466D01*
X95358Y-9046D01*
X95387Y-8625D01*
X95415Y-8204D01*
X95441Y-7782D01*
X95465Y-7360D01*
X95487Y-6937D01*
X95508Y-6515D01*
X95527Y-6091D01*
X95544Y-5668D01*
X95559Y-5244D01*
X95573Y-4820D01*
X95584Y-4395D01*
X95594Y-3970D01*
X95602Y-3545D01*
X95609Y-3120D01*
X95613Y-2694D01*
X95616Y-2268D01*
X95617Y-1841D01*
X95616Y-1414D01*
X95613Y-987D01*
X95609Y-560D01*
X95603Y-132D01*
X95595Y296D01*
X95585Y725D01*
X95574Y1153D01*
X95560Y1582D01*
X95545Y2011D01*
X95528Y2441D01*
X95509Y2871D01*
X95489Y3301D01*
X95466Y3731D01*
X95442Y4161D01*
X95416Y4592D01*
X95388Y5023D01*
X95359Y5454D01*
X95327Y5886D01*
X95294Y6318D01*
X95259Y6750D01*
X95222Y7182D01*
X95184Y7615D01*
X95143Y8047D01*
X95101Y8480D01*
X95057Y8913D01*
X95011Y9347D01*
X94963Y9780D01*
X94914Y10214D01*
X94862Y10648D01*
X94809Y11082D01*
X94760Y11473D01*
X94728Y11719D01*
X94695Y11964D01*
X94662Y12210D01*
X94628Y12455D01*
X94594Y12700D01*
X94558Y12945D01*
X94522Y13190D01*
X94486Y13435D01*
X94449Y13679D01*
X94411Y13923D01*
X94373Y14167D01*
X94333Y14411D01*
X94294Y14655D01*
X94253Y14898D01*
X94212Y15141D01*
X94171Y15384D01*
X94129Y15627D01*
X94086Y15870D01*
X94042Y16112D01*
X93998Y16354D01*
X93953Y16596D01*
X93907Y16838D01*
X93862Y17080D01*
X93815Y17321D01*
X93767Y17562D01*
X93719Y17803D01*
X93671Y18044D01*
X93622Y18285D01*
X93572Y18525D01*
X93521Y18765D01*
X93470Y19005D01*
X93418Y19245D01*
X93366Y19484D01*
X93313Y19724D01*
X93259Y19963D01*
X93205Y20202D01*
X93150Y20440D01*
X93095Y20679D01*
X93039Y20917D01*
X92982Y21155D01*
X92924Y21393D01*
X92867Y21630D01*
X92808Y21868D01*
X92749Y22105D01*
X92689Y22342D01*
X92629Y22578D01*
X92568Y22815D01*
X92506Y23051D01*
X92444Y23287D01*
X92381Y23523D01*
X92317Y23758D01*
X92253Y23994D01*
X92189Y24229D01*
X92123Y24464D01*
X92058Y24698D01*
X91991Y24933D01*
X91924Y25167D01*
X91856Y25401D01*
X91788Y25634D01*
X91719Y25868D01*
X91650Y26101D01*
X91580Y26334D01*
X91509Y26567D01*
X91438Y26799D01*
X91366Y27031D01*
X91293Y27263D01*
X91220Y27495D01*
X91147Y27727D01*
X91072Y27958D01*
X90997Y28189D01*
X90922Y28420D01*
X90846Y28650D01*
X90769Y28880D01*
X90692Y29110D01*
X90614Y29340D01*
X90536Y29570D01*
X90457Y29799D01*
X90378Y30028D01*
X90297Y30257D01*
X90217Y30485D01*
X90135Y30713D01*
X90054Y30941D01*
X89971Y31169D01*
X89888Y31397D01*
X89805Y31624D01*
X89720Y31851D01*
X89636Y32078D01*
X89550Y32304D01*
X89465Y32530D01*
X89378Y32756D01*
X89291Y32982D01*
X89203Y33207D01*
X89115Y33432D01*
X89026Y33657D01*
X88937Y33881D01*
X88847Y34106D01*
X88757Y34330D01*
X88666Y34553D01*
X88574Y34777D01*
X88482Y35000D01*
X88389Y35223D01*
X88296Y35446D01*
X88202Y35668D01*
X88108Y35890D01*
X88013Y36112D01*
X87917Y36334D01*
X87821Y36555D01*
X87725Y36776D01*
X87627Y36997D01*
X87530Y37217D01*
X87431Y37437D01*
X87332Y37657D01*
X87233Y37877D01*
X87133Y38096D01*
X87033Y38315D01*
X86932Y38534D01*
X86830Y38752D01*
X86728Y38970D01*
X86625Y39188D01*
X86522Y39406D01*
X86418Y39623D01*
X86314Y39840D01*
X86209Y40057D01*
X86103Y40273D01*
X85997Y40489D01*
X85891Y40705D01*
X85784Y40920D01*
X85676Y41136D01*
X85568Y41350D01*
X85459Y41565D01*
X85350Y41779D01*
X85241Y41993D01*
X85130Y42207D01*
X85020Y42420D01*
X84908Y42633D01*
X84796Y42846D01*
X84684Y43059D01*
X84571Y43271D01*
X84458Y43483D01*
X84344Y43694D01*
X84229Y43906D01*
X84114Y44116D01*
X83998Y44327D01*
X83882Y44537D01*
X83766Y44747D01*
X83649Y44957D01*
X83531Y45166D01*
X83413Y45375D01*
X83294Y45584D01*
X83175Y45793D01*
X83055Y46001D01*
X82935Y46208D01*
X82814Y46416D01*
X82693Y46623D01*
X82571Y46830D01*
X82449Y47036D01*
X82326Y47242D01*
X82203Y47448D01*
X82079Y47654D01*
X81954Y47859D01*
X81829Y48064D01*
X81704Y48268D01*
X81578Y48473D01*
X81452Y48677D01*
X81325Y48880D01*
X81197Y49083D01*
X81069Y49286D01*
X80941Y49489D01*
X80812Y49691D01*
X80683Y49893D01*
X80553Y50094D01*
X80422Y50295D01*
X80291Y50496D01*
X80160Y50697D01*
X80028Y50897D01*
X79896Y51097D01*
X79763Y51296D01*
X79629Y51495D01*
X79495Y51694D01*
X79361Y51893D01*
X79226Y52091D01*
X79091Y52288D01*
X78955Y52486D01*
X78818Y52683D01*
X78682Y52880D01*
X78544Y53076D01*
X78407Y53272D01*
X78268Y53468D01*
X78129Y53663D01*
X77990Y53858D01*
X77850Y54053D01*
X77710Y54247D01*
X77569Y54441D01*
X77428Y54634D01*
X77287Y54827D01*
X77144Y55020D01*
X77002Y55213D01*
X76859Y55405D01*
X76715Y55597D01*
X76571Y55788D01*
X76426Y55979D01*
X76281Y56170D01*
X76136Y56360D01*
X75990Y56550D01*
X75844Y56739D01*
X75697Y56929D01*
X75549Y57117D01*
X75401Y57306D01*
X75253Y57494D01*
X75104Y57681D01*
X74955Y57869D01*
X74805Y58056D01*
X74655Y58242D01*
X74505Y58429D01*
X74354Y58614D01*
X74202Y58800D01*
X74050Y58985D01*
X73898Y59170D01*
X73745Y59354D01*
X73591Y59538D01*
X73438Y59721D01*
X73283Y59904D01*
X73128Y60087D01*
X72973Y60270D01*
X72818Y60452D01*
X72662Y60633D01*
X72505Y60815D01*
X72348Y60995D01*
X72190Y61176D01*
X72033Y61356D01*
X71874Y61536D01*
X71715Y61715D01*
X71556Y61894D01*
X71397Y62072D01*
X71237Y62250D01*
X71076Y62428D01*
X70915Y62605D01*
X70753Y62782D01*
X70592Y62959D01*
X70429Y63135D01*
X70266Y63311D01*
X70103Y63486D01*
X69940Y63661D01*
X69776Y63836D01*
X69611Y64010D01*
X69446Y64183D01*
X69281Y64357D01*
X69115Y64530D01*
X68949Y64702D01*
X68782Y64874D01*
X68615Y65046D01*
X68447Y65217D01*
X68279Y65388D01*
X68111Y65558D01*
X67942Y65728D01*
X67773Y65898D01*
X67603Y66067D01*
X67433Y66236D01*
X67263Y66404D01*
X67092Y66572D01*
X66920Y66740D01*
X66749Y66907D01*
X66576Y67074D01*
X66404Y67240D01*
X66231Y67406D01*
X66058Y67571D01*
X65884Y67736D01*
X65709Y67901D01*
X65535Y68065D01*
X65360Y68229D01*
X65184Y68392D01*
X65008Y68555D01*
X64832Y68718D01*
X64655Y68880D01*
X64478Y69041D01*
X64300Y69202D01*
X64123Y69363D01*
X63944Y69524D01*
X63765Y69683D01*
X63586Y69843D01*
X63407Y70002D01*
X63227Y70160D01*
X63046Y70318D01*
X62866Y70476D01*
X62684Y70634D01*
X62503Y70790D01*
X62321Y70947D01*
X62139Y71103D01*
X61956Y71258D01*
X61773Y71413D01*
X61589Y71568D01*
X61405Y71722D01*
X61221Y71876D01*
X61036Y72029D01*
X60851Y72182D01*
X60665Y72334D01*
X60479Y72486D01*
X60293Y72637D01*
X60107Y72788D01*
X59920Y72939D01*
X59732Y73089D01*
X59544Y73239D01*
X59356Y73388D01*
X59167Y73537D01*
X58979Y73685D01*
X58789Y73833D01*
X58600Y73980D01*
X58409Y74127D01*
X58219Y74274D01*
X58028Y74420D01*
X57837Y74565D01*
X57645Y74710D01*
X57453Y74855D01*
X57261Y74999D01*
X57068Y75143D01*
X56875Y75286D01*
X56682Y75429D01*
X56488Y75571D01*
X56294Y75713D01*
X56099Y75854D01*
X55904Y75995D01*
X55709Y76135D01*
X55513Y76275D01*
X55317Y76414D01*
X55121Y76553D01*
X54924Y76692D01*
X54727Y76830D01*
X54529Y76968D01*
X54331Y77105D01*
X54133Y77241D01*
X53935Y77377D01*
X53736Y77513D01*
X53537Y77648D01*
X53337Y77783D01*
X53137Y77917D01*
X52937Y78050D01*
X52736Y78184D01*
X52535Y78316D01*
X52333Y78449D01*
X52132Y78580D01*
X51930Y78712D01*
X51727Y78842D01*
X51524Y78973D01*
X51321Y79102D01*
X51118Y79232D01*
X50914Y79360D01*
X50710Y79489D01*
X50505Y79616D01*
X50300Y79744D01*
X50095Y79871D01*
X49890Y79997D01*
X49684Y80123D01*
X49478Y80248D01*
X49271Y80373D01*
X49064Y80497D01*
X48857Y80621D01*
X48649Y80744D01*
X48442Y80867D01*
X48233Y80989D01*
X48025Y81111D01*
X47816Y81232D01*
X47607Y81353D01*
X47397Y81473D01*
X47187Y81593D01*
X46977Y81712D01*
X46767Y81831D01*
X46556Y81949D01*
X46344Y82067D01*
X46133Y82184D01*
X45921Y82301D01*
X45709Y82417D01*
X45497Y82532D01*
X45284Y82647D01*
X45071Y82762D01*
X44857Y82876D01*
X44643Y82990D01*
X44429Y83103D01*
X44215Y83215D01*
X44000Y83327D01*
X43785Y83439D01*
X43570Y83550D01*
X43354Y83660D01*
X43138Y83770D01*
X42922Y83879D01*
X42706Y83988D01*
X42489Y84096D01*
X42271Y84204D01*
X42054Y84311D01*
X41836Y84418D01*
X41618Y84524D01*
X41400Y84630D01*
X41181Y84735D01*
X40962Y84840D01*
X40743Y84944D01*
X40523Y85047D01*
X40303Y85150D01*
X40083Y85252D01*
X39862Y85354D01*
X39642Y85456D01*
X39420Y85556D01*
X39199Y85657D01*
X38977Y85756D01*
X38756Y85856D01*
X38533Y85954D01*
X38311Y86052D01*
X38088Y86150D01*
X37865Y86247D01*
X37641Y86343D01*
X37417Y86439D01*
X37193Y86534D01*
X36969Y86629D01*
X36744Y86723D01*
X36520Y86817D01*
X36295Y86910D01*
X36069Y87002D01*
X35843Y87094D01*
X35617Y87186D01*
X35391Y87277D01*
X35164Y87367D01*
X34938Y87457D01*
X34711Y87546D01*
X34483Y87635D01*
X34255Y87723D01*
X34028Y87810D01*
X33799Y87897D01*
X33571Y87984D01*
X33342Y88069D01*
X33113Y88155D01*
X32884Y88239D01*
X32654Y88323D01*
X32424Y88407D01*
X32194Y88490D01*
X31964Y88572D01*
X31733Y88654D01*
X31502Y88735D01*
X31271Y88816D01*
X31040Y88896D01*
X30808Y88976D01*
X30576Y89055D01*
X30344Y89133D01*
X30111Y89211D01*
X29878Y89288D01*
X29645Y89365D01*
X29412Y89441D01*
X29179Y89516D01*
X28945Y89591D01*
X28711Y89665D01*
X28477Y89739D01*
X28242Y89812D01*
X28007Y89885D01*
X27772Y89957D01*
X27537Y90028D01*
X27301Y90099D01*
X27066Y90169D01*
X26830Y90239D01*
X26593Y90308D01*
X26357Y90376D01*
X26120Y90444D01*
X25883Y90511D01*
X25646Y90577D01*
X25408Y90644D01*
X25171Y90709D01*
X24932Y90774D01*
X24694Y90838D01*
X24456Y90902D01*
X24217Y90965D01*
X23978Y91027D01*
X23739Y91089D01*
X23500Y91150D01*
X23260Y91211D01*
X23020Y91271D01*
X22780Y91330D01*
X22540Y91389D01*
X22299Y91447D01*
X22058Y91505D01*
X21817Y91561D01*
X21576Y91618D01*
X21335Y91674D01*
X21093Y91729D01*
X20851Y91783D01*
X20609Y91837D01*
X20366Y91890D01*
X20124Y91943D01*
X19881Y91995D01*
X19638Y92047D01*
X19395Y92097D01*
X19151Y92148D01*
X18908Y92197D01*
X18664Y92246D01*
X18420Y92294D01*
X18175Y92342D01*
X17931Y92389D01*
X17686Y92436D01*
X17441Y92481D01*
X17196Y92527D01*
X16950Y92571D01*
X16705Y92615D01*
X16459Y92658D01*
X16213Y92701D01*
X15967Y92743D01*
X15720Y92785D01*
X15474Y92825D01*
X15227Y92865D01*
X14980Y92905D01*
X14733Y92944D01*
X14485Y92982D01*
X14237Y93020D01*
X13989Y93056D01*
X13742Y93093D01*
X13493Y93128D01*
X12861Y93217D01*
X12232Y93302D01*
X11613Y93385D01*
X11005Y93463D01*
X10407Y93539D01*
X9819Y93610D01*
X9239Y93678D01*
X8669Y93743D01*
X8106Y93804D01*
X7552Y93861D01*
X7005Y93915D01*
X6465Y93965D01*
X6037Y94003D01*
X5613Y94038D01*
X5193Y94071D01*
X4776Y94102D01*
X4363Y94131D01*
X3952Y94157D01*
X3544Y94181D01*
X3139Y94203D01*
X2736Y94222D01*
X2334Y94239D01*
X1935Y94254D01*
X1537Y94267D01*
X1140Y94277D01*
X744Y94285D01*
X349Y94291D01*
X-45Y94294D01*
X-439Y94295D01*
D02*
G37*
%LPD*%
G36*
X15583Y70439D02*
X15681Y70426D01*
X15777Y70406D01*
X15871Y70379D01*
X15964Y70346D01*
X16054Y70305D01*
X16143Y70257D01*
X16229Y70203D01*
X16314Y70142D01*
X16396Y70073D01*
X16476Y69998D01*
X16555Y69917D01*
X16631Y69828D01*
X16705Y69733D01*
X16777Y69631D01*
X16847Y69523D01*
X16915Y69408D01*
X16980Y69285D01*
X17044Y69157D01*
X17105Y69022D01*
X17164Y68880D01*
X17221Y68731D01*
X17276Y68576D01*
X17328Y68415D01*
X17378Y68247D01*
X17426Y68072D01*
X17471Y67891D01*
X17514Y67704D01*
X17555Y67510D01*
X17593Y67309D01*
X17630Y67103D01*
X17663Y66890D01*
X17695Y66670D01*
X17724Y66444D01*
X17750Y66212D01*
X17774Y65973D01*
X17796Y65729D01*
X17815Y65477D01*
X17831Y65220D01*
X17845Y64956D01*
X17857Y64687D01*
X17866Y64411D01*
X17873Y64128D01*
X17876Y63840D01*
X17878Y63546D01*
Y58592D01*
X11899D01*
Y63228D01*
X11904Y63793D01*
X11920Y64332D01*
X11946Y64846D01*
X11983Y65335D01*
X12031Y65799D01*
X12089Y66237D01*
X12157Y66650D01*
X12236Y67038D01*
X12325Y67400D01*
X12425Y67736D01*
X12535Y68046D01*
X12656Y68330D01*
X12786Y68589D01*
X12928Y68821D01*
X13079Y69027D01*
X13241Y69208D01*
X13374Y69338D01*
X13506Y69461D01*
X13636Y69576D01*
X13764Y69685D01*
X13891Y69786D01*
X14016Y69879D01*
X14139Y69966D01*
X14261Y70045D01*
X14381Y70117D01*
X14499Y70182D01*
X14615Y70240D01*
X14730Y70290D01*
X14843Y70333D01*
X14954Y70370D01*
X15063Y70399D01*
X15171Y70421D01*
X15277Y70436D01*
X15381Y70444D01*
X15482Y70445D01*
X15583Y70439D01*
D02*
G37*
G36*
X-228Y70484D02*
X-158Y70477D01*
X-85Y70465D01*
X-7Y70448D01*
X76Y70426D01*
X165Y70399D01*
X260Y70368D01*
X362Y70332D01*
X471Y70293D01*
X715Y70200D01*
X1152Y70031D01*
X1247Y69991D01*
X1338Y69945D01*
X1425Y69892D01*
X1507Y69832D01*
X1586Y69765D01*
X1661Y69691D01*
X1733Y69609D01*
X1800Y69519D01*
X1864Y69420D01*
X1925Y69313D01*
X1981Y69196D01*
X2035Y69070D01*
X2085Y68934D01*
X2132Y68788D01*
X2176Y68632D01*
X2216Y68464D01*
X2254Y68286D01*
X2288Y68096D01*
X2320Y67895D01*
X2349Y67681D01*
X2375Y67455D01*
X2398Y67216D01*
X2419Y66964D01*
X2438Y66699D01*
X2454Y66420D01*
X2467Y66126D01*
X2478Y65819D01*
X2487Y65496D01*
X2494Y65159D01*
X2499Y64806D01*
X2502Y64437D01*
X2503Y64052D01*
Y58592D01*
X-178Y58592D01*
X-509Y58593D01*
X-713Y58596D01*
X-903Y58602D01*
X-1080Y58612D01*
X-1244Y58626D01*
X-1322Y58635D01*
X-1396Y58646D01*
X-1468Y58658D01*
X-1537Y58672D01*
X-1603Y58687D01*
X-1666Y58705D01*
X-1727Y58725D01*
X-1785Y58747D01*
X-1841Y58771D01*
X-1894Y58797D01*
X-1944Y58826D01*
X-1992Y58858D01*
X-2038Y58892D01*
X-2082Y58929D01*
X-2123Y58969D01*
X-2162Y59013D01*
X-2199Y59059D01*
X-2234Y59109D01*
X-2267Y59162D01*
X-2298Y59218D01*
X-2327Y59278D01*
X-2355Y59342D01*
X-2380Y59410D01*
X-2404Y59481D01*
X-2427Y59557D01*
X-2447Y59637D01*
X-2467Y59721D01*
X-2484Y59809D01*
X-2501Y59903D01*
X-2516Y60000D01*
X-2530Y60103D01*
X-2542Y60210D01*
X-2553Y60322D01*
X-2563Y60439D01*
X-2573Y60562D01*
X-2581Y60690D01*
X-2588Y60823D01*
X-2594Y60961D01*
X-2600Y61106D01*
X-2604Y61256D01*
X-2612Y61574D01*
X-2617Y61916D01*
X-2620Y62283D01*
X-2621Y62677D01*
X-2622Y63318D01*
X-2622Y63546D01*
X-2617Y64056D01*
X-2601Y64562D01*
X-2576Y65061D01*
X-2541Y65550D01*
X-2498Y66026D01*
X-2447Y66486D01*
X-2387Y66927D01*
X-2321Y67346D01*
X-2248Y67739D01*
X-2169Y68104D01*
X-2085Y68437D01*
X-1995Y68736D01*
X-1901Y68997D01*
X-1803Y69218D01*
X-1702Y69395D01*
X-1597Y69525D01*
X-1294Y69830D01*
X-1123Y69999D01*
X-1046Y70073D01*
X-973Y70141D01*
X-904Y70202D01*
X-838Y70257D01*
X-775Y70306D01*
X-714Y70349D01*
X-655Y70386D01*
X-596Y70416D01*
X-537Y70442D01*
X-478Y70461D01*
X-419Y70475D01*
X-357Y70483D01*
X-294Y70486D01*
X-228Y70484D01*
D02*
G37*
G36*
X-14417Y70453D02*
X-14332Y70440D01*
X-14247Y70420D01*
X-14164Y70393D01*
X-14080Y70359D01*
X-13997Y70319D01*
X-13913Y70271D01*
X-13827Y70216D01*
X-13740Y70154D01*
X-13650Y70086D01*
X-13558Y70010D01*
X-13463Y69927D01*
X-13365Y69837D01*
X-13262Y69740D01*
X-13155Y69636D01*
X-13043Y69525D01*
X-12990Y69466D01*
X-12939Y69395D01*
X-12887Y69312D01*
X-12837Y69218D01*
X-12788Y69113D01*
X-12739Y68997D01*
X-12692Y68871D01*
X-12645Y68736D01*
X-12600Y68591D01*
X-12556Y68437D01*
X-12513Y68274D01*
X-12471Y68104D01*
X-12431Y67925D01*
X-12392Y67739D01*
X-12355Y67546D01*
X-12319Y67346D01*
X-12285Y67139D01*
X-12253Y66927D01*
X-12222Y66709D01*
X-12194Y66486D01*
X-12167Y66259D01*
X-12142Y66026D01*
X-12119Y65790D01*
X-12099Y65550D01*
X-12081Y65307D01*
X-12064Y65061D01*
X-12050Y64812D01*
X-12039Y64562D01*
X-12030Y64309D01*
X-12023Y64056D01*
X-12019Y63801D01*
X-12018Y63546D01*
Y58592D01*
X-17997D01*
Y63674D01*
X-17993Y64383D01*
X-17981Y65033D01*
X-17959Y65628D01*
X-17927Y66171D01*
X-17884Y66665D01*
X-17830Y67111D01*
X-17763Y67513D01*
X-17684Y67875D01*
X-17592Y68198D01*
X-17485Y68486D01*
X-17363Y68741D01*
X-17225Y68966D01*
X-17071Y69165D01*
X-16899Y69339D01*
X-16710Y69493D01*
X-16502Y69627D01*
X-16325Y69730D01*
X-16157Y69826D01*
X-15998Y69915D01*
X-15847Y69998D01*
X-15704Y70073D01*
X-15568Y70142D01*
X-15438Y70205D01*
X-15315Y70260D01*
X-15198Y70309D01*
X-15087Y70351D01*
X-14980Y70386D01*
X-14878Y70414D01*
X-14779Y70436D01*
X-14685Y70450D01*
X-14593Y70458D01*
X-14504Y70459D01*
X-14417Y70453D01*
D02*
G37*
G36*
X32185Y49021D02*
X32693Y48999D01*
X33170Y48977D01*
X33618Y48955D01*
X34037Y48932D01*
X34428Y48909D01*
X34793Y48885D01*
X35132Y48859D01*
X35447Y48831D01*
X35738Y48801D01*
X36006Y48767D01*
X36253Y48731D01*
X36479Y48690D01*
X36686Y48646D01*
X36874Y48596D01*
X37045Y48542D01*
X37199Y48482D01*
X37337Y48416D01*
X37460Y48343D01*
X37571Y48264D01*
X37668Y48178D01*
X37754Y48084D01*
X37830Y47982D01*
X37895Y47871D01*
X37953Y47751D01*
X38002Y47622D01*
X38045Y47483D01*
X38083Y47334D01*
X38115Y47175D01*
X38145Y47003D01*
X38172Y46821D01*
X38197Y46627D01*
X38221Y46420D01*
X38491Y44071D01*
X26419D01*
Y49274D01*
X32185Y49021D01*
D02*
G37*
G36*
X-26539Y46633D02*
Y44071D01*
X-32118D01*
X-32385Y44071D01*
X-32645Y44073D01*
X-32899Y44077D01*
X-33147Y44082D01*
X-33389Y44088D01*
X-33624Y44096D01*
X-33854Y44105D01*
X-34077Y44116D01*
X-34295Y44128D01*
X-34507Y44142D01*
X-34712Y44157D01*
X-34912Y44174D01*
X-35106Y44193D01*
X-35294Y44213D01*
X-35476Y44235D01*
X-35653Y44259D01*
X-35824Y44284D01*
X-35989Y44312D01*
X-36149Y44341D01*
X-36303Y44372D01*
X-36452Y44404D01*
X-36595Y44439D01*
X-36733Y44475D01*
X-36865Y44514D01*
X-36992Y44554D01*
X-37113Y44596D01*
X-37230Y44641D01*
X-37341Y44687D01*
X-37447Y44735D01*
X-37548Y44786D01*
X-37643Y44838D01*
X-37734Y44893D01*
X-37819Y44950D01*
X-37900Y45009D01*
X-37975Y45070D01*
X-38046Y45133D01*
X-38112Y45199D01*
X-38172Y45267D01*
X-38228Y45337D01*
X-38280Y45410D01*
X-38326Y45484D01*
X-38368Y45562D01*
X-38406Y45641D01*
X-38438Y45724D01*
X-38467Y45808D01*
X-38490Y45895D01*
X-38509Y45985D01*
X-38524Y46077D01*
X-38534Y46171D01*
X-38540Y46269D01*
X-38542Y46368D01*
X-38539Y46471D01*
X-38532Y46576D01*
X-38521Y46684D01*
X-38506Y46794D01*
X-38487Y46907D01*
X-38463Y47023D01*
X-38436Y47142D01*
X-38404Y47264D01*
X-38369Y47388D01*
X-38330Y47515D01*
X-38286Y47645D01*
X-38239Y47779D01*
X-38188Y47915D01*
X-38150Y48002D01*
X-38105Y48087D01*
X-38053Y48167D01*
X-37993Y48245D01*
X-37925Y48318D01*
X-37849Y48388D01*
X-37764Y48455D01*
X-37671Y48519D01*
X-37569Y48579D01*
X-37458Y48636D01*
X-37337Y48690D01*
X-37206Y48741D01*
X-37065Y48788D01*
X-36914Y48833D01*
X-36752Y48875D01*
X-36579Y48914D01*
X-36395Y48950D01*
X-36200Y48984D01*
X-35993Y49015D01*
X-35775Y49043D01*
X-35543Y49068D01*
X-35300Y49091D01*
X-35044Y49112D01*
X-34774Y49130D01*
X-34492Y49146D01*
X-34195Y49159D01*
X-33885Y49171D01*
X-33561Y49180D01*
X-33222Y49187D01*
X-32869Y49192D01*
X-32501Y49195D01*
X-32118Y49196D01*
X-26539D01*
Y46633D01*
D02*
G37*
G36*
X32229Y34658D02*
X32703Y34650D01*
X33156Y34636D01*
X33586Y34618D01*
X33994Y34594D01*
X34381Y34564D01*
X34747Y34529D01*
X35093Y34488D01*
X35418Y34441D01*
X35724Y34387D01*
X36010Y34326D01*
X36277Y34259D01*
X36526Y34185D01*
X36757Y34104D01*
X36969Y34015D01*
X37165Y33918D01*
X37343Y33814D01*
X37505Y33701D01*
X37650Y33581D01*
X37780Y33451D01*
X37894Y33313D01*
X37992Y33167D01*
X38077Y33011D01*
X38147Y32845D01*
X38203Y32670D01*
X38245Y32486D01*
X38275Y32291D01*
X38292Y32087D01*
X38296Y31871D01*
X38288Y31646D01*
X38269Y31409D01*
X38239Y31162D01*
X38213Y30988D01*
X38186Y30824D01*
X38156Y30670D01*
X38124Y30526D01*
X38087Y30391D01*
X38067Y30326D01*
X38045Y30264D01*
X38023Y30204D01*
X37998Y30147D01*
X37972Y30091D01*
X37944Y30037D01*
X37914Y29986D01*
X37883Y29936D01*
X37849Y29888D01*
X37813Y29843D01*
X37774Y29799D01*
X37734Y29756D01*
X37690Y29716D01*
X37644Y29677D01*
X37596Y29640D01*
X37544Y29605D01*
X37490Y29571D01*
X37432Y29539D01*
X37372Y29509D01*
X37308Y29480D01*
X37240Y29452D01*
X37169Y29426D01*
X37095Y29401D01*
X37017Y29378D01*
X36935Y29356D01*
X36849Y29335D01*
X36759Y29316D01*
X36665Y29297D01*
X36567Y29280D01*
X36464Y29264D01*
X36357Y29249D01*
X36245Y29236D01*
X36129Y29223D01*
X36007Y29211D01*
X35881Y29200D01*
X35750Y29190D01*
X35614Y29181D01*
X35473Y29173D01*
X35326Y29165D01*
X35173Y29159D01*
X35016Y29153D01*
X34852Y29147D01*
X34683Y29143D01*
X34327Y29135D01*
X33946Y29130D01*
X33541Y29126D01*
X33109Y29124D01*
X32650Y29123D01*
X32410Y29123D01*
X31579Y29126D01*
X30830Y29136D01*
X30161Y29154D01*
X29565Y29181D01*
X29039Y29219D01*
X28579Y29269D01*
X28179Y29331D01*
X27836Y29407D01*
X27544Y29499D01*
X27299Y29607D01*
X27098Y29733D01*
X26934Y29877D01*
X26804Y30042D01*
X26704Y30228D01*
X26628Y30436D01*
X26572Y30668D01*
X26545Y30831D01*
X26522Y31003D01*
X26506Y31181D01*
X26494Y31365D01*
X26488Y31551D01*
X26487Y31741D01*
X26492Y31931D01*
X26501Y32120D01*
X26516Y32308D01*
X26535Y32492D01*
X26559Y32671D01*
X26588Y32844D01*
X26621Y33009D01*
X26659Y33165D01*
X26701Y33310D01*
X26747Y33444D01*
X26782Y33523D01*
X26823Y33599D01*
X26872Y33672D01*
X26927Y33743D01*
X26990Y33811D01*
X27060Y33876D01*
X27137Y33938D01*
X27222Y33998D01*
X27315Y34055D01*
X27415Y34109D01*
X27523Y34160D01*
X27639Y34209D01*
X27762Y34255D01*
X27894Y34299D01*
X28034Y34340D01*
X28182Y34378D01*
X28338Y34414D01*
X28503Y34448D01*
X28676Y34479D01*
X28857Y34507D01*
X29047Y34533D01*
X29246Y34556D01*
X29454Y34578D01*
X29670Y34596D01*
X29895Y34613D01*
X30130Y34626D01*
X30373Y34638D01*
X30626Y34647D01*
X30888Y34654D01*
X31160Y34659D01*
X31441Y34662D01*
X31731Y34662D01*
X32229Y34658D01*
D02*
G37*
G36*
X-26539Y28618D02*
X-32296Y28870D01*
X-33143Y28911D01*
X-33908Y28955D01*
X-34595Y29004D01*
X-35209Y29060D01*
X-35753Y29122D01*
X-36231Y29194D01*
X-36649Y29275D01*
X-37009Y29368D01*
X-37317Y29473D01*
X-37576Y29591D01*
X-37791Y29725D01*
X-37966Y29874D01*
X-38104Y30041D01*
X-38211Y30227D01*
X-38290Y30432D01*
X-38345Y30659D01*
X-38370Y30822D01*
X-38383Y30993D01*
X-38386Y31170D01*
X-38378Y31353D01*
X-38360Y31539D01*
X-38332Y31728D01*
X-38296Y31918D01*
X-38250Y32108D01*
X-38196Y32295D01*
X-38133Y32479D01*
X-38063Y32659D01*
X-37985Y32832D01*
X-37901Y32998D01*
X-37810Y33154D01*
X-37712Y33300D01*
X-37609Y33435D01*
X-37541Y33511D01*
X-37465Y33585D01*
X-37381Y33656D01*
X-37289Y33725D01*
X-37190Y33792D01*
X-37083Y33856D01*
X-36968Y33918D01*
X-36845Y33977D01*
X-36714Y34034D01*
X-36576Y34089D01*
X-36430Y34141D01*
X-36276Y34190D01*
X-36114Y34238D01*
X-35944Y34283D01*
X-35767Y34325D01*
X-35582Y34365D01*
X-35389Y34402D01*
X-35188Y34437D01*
X-34980Y34470D01*
X-34763Y34501D01*
X-34539Y34528D01*
X-34307Y34554D01*
X-34067Y34577D01*
X-33820Y34597D01*
X-33565Y34616D01*
X-33302Y34631D01*
X-33031Y34645D01*
X-32752Y34656D01*
X-32466Y34664D01*
X-32171Y34670D01*
X-31869Y34674D01*
X-31559Y34675D01*
X-26539D01*
Y28618D01*
D02*
G37*
G36*
X32128Y19127D02*
X32606Y19105D01*
X33057Y19084D01*
X33483Y19062D01*
X33884Y19039D01*
X34262Y19015D01*
X34616Y18990D01*
X34947Y18964D01*
X35257Y18935D01*
X35546Y18905D01*
X35814Y18872D01*
X36064Y18837D01*
X36295Y18799D01*
X36508Y18757D01*
X36704Y18712D01*
X36883Y18664D01*
X37048Y18611D01*
X37198Y18555D01*
X37334Y18493D01*
X37456Y18427D01*
X37567Y18356D01*
X37666Y18280D01*
X37754Y18197D01*
X37832Y18110D01*
X37901Y18015D01*
X37962Y17915D01*
X38015Y17808D01*
X38061Y17694D01*
X38101Y17572D01*
X38136Y17443D01*
X38166Y17306D01*
X38192Y17162D01*
X38216Y17009D01*
X38231Y16891D01*
X38241Y16774D01*
X38247Y16660D01*
X38248Y16547D01*
X38245Y16436D01*
X38237Y16327D01*
X38225Y16220D01*
X38209Y16115D01*
X38188Y16012D01*
X38163Y15910D01*
X38134Y15811D01*
X38100Y15713D01*
X38063Y15617D01*
X38020Y15524D01*
X37974Y15432D01*
X37923Y15342D01*
X37868Y15254D01*
X37809Y15168D01*
X37746Y15084D01*
X37679Y15002D01*
X37607Y14922D01*
X37531Y14844D01*
X37452Y14768D01*
X37368Y14694D01*
X37280Y14622D01*
X37188Y14552D01*
X37092Y14484D01*
X36992Y14418D01*
X36888Y14355D01*
X36780Y14293D01*
X36668Y14233D01*
X36552Y14176D01*
X36432Y14120D01*
X36309Y14067D01*
X36181Y14016D01*
X36050Y13967D01*
X35914Y13920D01*
X35775Y13875D01*
X35632Y13832D01*
X35486Y13792D01*
X35335Y13753D01*
X35181Y13717D01*
X35023Y13683D01*
X34861Y13651D01*
X34696Y13622D01*
X34527Y13594D01*
X34354Y13569D01*
X34178Y13546D01*
X33998Y13525D01*
X33814Y13507D01*
X33627Y13491D01*
X33436Y13477D01*
X33242Y13465D01*
X33044Y13455D01*
X32843Y13448D01*
X32638Y13443D01*
X32429Y13441D01*
X32217Y13441D01*
X32002Y13443D01*
X31783Y13447D01*
X31561Y13454D01*
X31336Y13463D01*
X31107Y13475D01*
X30875Y13489D01*
X30522Y13512D01*
X30191Y13534D01*
X29881Y13557D01*
X29589Y13581D01*
X29317Y13606D01*
X29063Y13633D01*
X28826Y13662D01*
X28607Y13694D01*
X28403Y13729D01*
X28215Y13767D01*
X28042Y13810D01*
X27882Y13858D01*
X27736Y13910D01*
X27603Y13969D01*
X27482Y14034D01*
X27371Y14105D01*
X27272Y14183D01*
X27182Y14270D01*
X27102Y14364D01*
X27030Y14468D01*
X26966Y14580D01*
X26909Y14702D01*
X26858Y14834D01*
X26813Y14977D01*
X26773Y15131D01*
X26738Y15297D01*
X26706Y15475D01*
X26677Y15665D01*
X26650Y15869D01*
X26625Y16086D01*
X26600Y16318D01*
X26576Y16564D01*
X26305Y19381D01*
X32128Y19127D01*
D02*
G37*
G36*
X-26539Y13321D02*
X-30866D01*
X-31315Y13325D01*
X-31769Y13339D01*
X-32223Y13361D01*
X-32676Y13391D01*
X-33124Y13428D01*
X-33564Y13472D01*
X-33993Y13523D01*
X-34407Y13580D01*
X-34804Y13643D01*
X-35181Y13712D01*
X-35535Y13784D01*
X-35862Y13862D01*
X-36160Y13943D01*
X-36425Y14027D01*
X-36654Y14115D01*
X-36845Y14205D01*
X-36993Y14291D01*
X-37136Y14385D01*
X-37272Y14489D01*
X-37402Y14601D01*
X-37525Y14720D01*
X-37642Y14846D01*
X-37752Y14978D01*
X-37855Y15117D01*
X-37951Y15260D01*
X-38040Y15409D01*
X-38122Y15561D01*
X-38196Y15717D01*
X-38263Y15876D01*
X-38323Y16037D01*
X-38374Y16201D01*
X-38418Y16366D01*
X-38453Y16531D01*
X-38480Y16697D01*
X-38499Y16863D01*
X-38510Y17027D01*
X-38512Y17190D01*
X-38505Y17351D01*
X-38489Y17510D01*
X-38465Y17666D01*
X-38431Y17817D01*
X-38388Y17965D01*
X-38335Y18108D01*
X-38274Y18245D01*
X-38202Y18377D01*
X-38121Y18502D01*
X-38029Y18620D01*
X-37928Y18730D01*
X-37892Y18760D01*
X-37842Y18788D01*
X-37779Y18817D01*
X-37703Y18845D01*
X-37615Y18872D01*
X-37515Y18899D01*
X-37403Y18926D01*
X-37280Y18951D01*
X-37146Y18977D01*
X-37002Y19001D01*
X-36847Y19025D01*
X-36597Y19059D01*
X-36327Y19092D01*
X-36037Y19123D01*
X-35729Y19151D01*
X-35405Y19178D01*
X-35066Y19202D01*
X-34831Y19217D01*
X-34591Y19231D01*
X-34345Y19243D01*
X-34094Y19255D01*
X-33839Y19265D01*
X-33579Y19274D01*
X-33314Y19282D01*
X-33047Y19288D01*
X-32776Y19293D01*
X-32503Y19297D01*
X-32227Y19299D01*
X-31949Y19300D01*
X-26539D01*
Y13321D01*
D02*
G37*
G36*
X7839Y50931D02*
X8363Y50929D01*
X8871Y50925D01*
X9363Y50919D01*
X9683Y50914D01*
X9997Y50907D01*
X10303Y50900D01*
X10603Y50891D01*
X10897Y50882D01*
X11184Y50870D01*
X11465Y50858D01*
X11739Y50844D01*
X12008Y50828D01*
X12270Y50811D01*
X12526Y50792D01*
X12777Y50772D01*
X13021Y50749D01*
X13259Y50725D01*
X13492Y50699D01*
X13719Y50671D01*
X13941Y50641D01*
X14156Y50608D01*
X14367Y50574D01*
X14572Y50537D01*
X14771Y50498D01*
X14965Y50456D01*
X15155Y50412D01*
X15338Y50365D01*
X15517Y50316D01*
X15691Y50264D01*
X15860Y50209D01*
X16024Y50152D01*
X16183Y50091D01*
X16338Y50028D01*
X16488Y49962D01*
X16633Y49892D01*
X16774Y49819D01*
X16910Y49744D01*
X17042Y49664D01*
X17170Y49582D01*
X17293Y49496D01*
X17413Y49406D01*
X17528Y49313D01*
X17639Y49217D01*
X17746Y49116D01*
X17849Y49012D01*
X17949Y48904D01*
X18045Y48792D01*
X18137Y48676D01*
X18225Y48556D01*
X18310Y48432D01*
X18392Y48304D01*
X18470Y48172D01*
X18545Y48035D01*
X18616Y47894D01*
X18685Y47748D01*
X18750Y47598D01*
X18812Y47443D01*
X18871Y47284D01*
X18927Y47120D01*
X18981Y46951D01*
X19032Y46777D01*
X19080Y46598D01*
X19125Y46415D01*
X19168Y46226D01*
X19208Y46032D01*
X19246Y45833D01*
X19282Y45628D01*
X19315Y45419D01*
X19346Y45204D01*
X19375Y44983D01*
X19402Y44757D01*
X19427Y44525D01*
X19450Y44288D01*
X19471Y44045D01*
X19490Y43796D01*
X19508Y43541D01*
X19524Y43280D01*
X19539Y43014D01*
X19552Y42741D01*
X19563Y42462D01*
X19573Y42176D01*
X19582Y41885D01*
X19590Y41587D01*
X19596Y41283D01*
X19601Y40972D01*
X19607Y40493D01*
X19612Y40000D01*
X19614Y39491D01*
X19615Y38967D01*
X19614Y38427D01*
X19612Y37682D01*
X19607Y36711D01*
X19596Y34846D01*
X19591Y33967D01*
X19589Y33288D01*
X19587Y32591D01*
X19586Y31875D01*
X19585Y30708D01*
X19583Y29595D01*
X19579Y28535D01*
X19574Y27527D01*
X19566Y26568D01*
X19556Y25659D01*
X19545Y24796D01*
X19531Y23979D01*
X19515Y23207D01*
X19496Y22478D01*
X19475Y21790D01*
X19452Y21142D01*
X19425Y20532D01*
X19396Y19960D01*
X19364Y19423D01*
X19328Y18921D01*
X19290Y18451D01*
X19248Y18013D01*
X19203Y17605D01*
X19154Y17225D01*
X19102Y16873D01*
X19046Y16545D01*
X18986Y16243D01*
X18922Y15962D01*
X18854Y15703D01*
X18782Y15464D01*
X18706Y15243D01*
X18625Y15039D01*
X18540Y14851D01*
X18450Y14677D01*
X18356Y14515D01*
X18256Y14365D01*
X18078Y14117D01*
X17931Y13927D01*
X17809Y13786D01*
X17682Y13655D01*
X17563Y13547D01*
X17435Y13447D01*
X17296Y13352D01*
X17166Y13276D01*
X17026Y13205D01*
X16874Y13138D01*
X16708Y13075D01*
X16528Y13016D01*
X16332Y12961D01*
X16119Y12909D01*
X15888Y12862D01*
X15637Y12818D01*
X15366Y12777D01*
X15072Y12740D01*
X14755Y12706D01*
X14413Y12674D01*
X14046Y12646D01*
X13652Y12620D01*
X13229Y12597D01*
X12777Y12577D01*
X12294Y12558D01*
X11779Y12542D01*
X11231Y12528D01*
X10648Y12515D01*
X10029Y12505D01*
X9373Y12496D01*
X8560Y12487D01*
X7692Y12481D01*
X6769Y12476D01*
X5642Y12471D01*
X4280Y12469D01*
X2644Y12467D01*
X690Y12466D01*
X-200Y12467D01*
X-1076Y12471D01*
X-1937Y12476D01*
X-2783Y12483D01*
X-3614Y12492D01*
X-4427Y12503D01*
X-5224Y12516D01*
X-6001Y12531D01*
X-6760Y12548D01*
X-7499Y12567D01*
X-8218Y12587D01*
X-8915Y12609D01*
X-9590Y12633D01*
X-10242Y12658D01*
X-10870Y12685D01*
X-11475Y12713D01*
X-12054Y12743D01*
X-12607Y12775D01*
X-13133Y12808D01*
X-13632Y12842D01*
X-14103Y12878D01*
X-14545Y12915D01*
X-14957Y12953D01*
X-15338Y12993D01*
X-15688Y13034D01*
X-16006Y13076D01*
X-16292Y13119D01*
X-16543Y13163D01*
X-16761Y13209D01*
X-16943Y13255D01*
X-17089Y13303D01*
X-17199Y13351D01*
X-17374Y13450D01*
X-17521Y13546D01*
X-17642Y13640D01*
X-17757Y13744D01*
X-17851Y13846D01*
X-17939Y13961D01*
X-18022Y14089D01*
X-18100Y14232D01*
X-18163Y14369D01*
X-18222Y14520D01*
X-18277Y14685D01*
X-18330Y14867D01*
X-18379Y15066D01*
X-18425Y15283D01*
X-18468Y15520D01*
X-18508Y15777D01*
X-18545Y16056D01*
X-18579Y16358D01*
X-18611Y16684D01*
X-18640Y17034D01*
X-18667Y17412D01*
X-18692Y17816D01*
X-18714Y18249D01*
X-18734Y18711D01*
X-18752Y19204D01*
X-18768Y19729D01*
X-18782Y20286D01*
X-18795Y20878D01*
X-18806Y21505D01*
X-18817Y22282D01*
X-18826Y23111D01*
X-18834Y23992D01*
X-18839Y24928D01*
X-18844Y26067D01*
X-18848Y27283D01*
X-18850Y28745D01*
X-18851Y30491D01*
X-18851Y31227D01*
X-18851Y32536D01*
X-18849Y33779D01*
X-18845Y34959D01*
X-18840Y36077D01*
X-18833Y37135D01*
X-18824Y38136D01*
X-18814Y39080D01*
X-18801Y39970D01*
X-18785Y40806D01*
X-18768Y41592D01*
X-18748Y42329D01*
X-18725Y43018D01*
X-18699Y43662D01*
X-18671Y44262D01*
X-18639Y44819D01*
X-18604Y45336D01*
X-18566Y45815D01*
X-18524Y46257D01*
X-18479Y46663D01*
X-18431Y47037D01*
X-18378Y47379D01*
X-18321Y47691D01*
X-18261Y47975D01*
X-18196Y48232D01*
X-18126Y48466D01*
X-18053Y48676D01*
X-17974Y48866D01*
X-17891Y49036D01*
X-17803Y49190D01*
X-17710Y49327D01*
X-17612Y49450D01*
X-17496Y49575D01*
X-17369Y49690D01*
X-17243Y49786D01*
X-17104Y49877D01*
X-16949Y49964D01*
X-16778Y50045D01*
X-16612Y50113D01*
X-16432Y50177D01*
X-16235Y50238D01*
X-16020Y50296D01*
X-15786Y50350D01*
X-15533Y50401D01*
X-15259Y50449D01*
X-14962Y50494D01*
X-14643Y50536D01*
X-14299Y50575D01*
X-13930Y50612D01*
X-13534Y50646D01*
X-13111Y50677D01*
X-12660Y50706D01*
X-12178Y50733D01*
X-11666Y50757D01*
X-11121Y50779D01*
X-10544Y50799D01*
X-9932Y50817D01*
X-9285Y50833D01*
X-8601Y50847D01*
X-7880Y50859D01*
X-7120Y50870D01*
X-6321Y50879D01*
X-5357Y50887D01*
X-4338Y50894D01*
X-3262Y50899D01*
X-2129Y50902D01*
X-781Y50904D01*
X249Y50904D01*
X979Y50905D01*
X1690Y50907D01*
X2610Y50911D01*
X5182Y50925D01*
X5978Y50929D01*
X6744Y50931D01*
X7300Y50932D01*
X7839Y50931D01*
D02*
G37*
G36*
X2328Y-987D02*
X2306Y-1488D01*
X2284Y-1960D01*
X2262Y-2403D01*
X2240Y-2817D01*
X2217Y-3205D01*
X2193Y-3566D01*
X2168Y-3902D01*
X2140Y-4213D01*
X2111Y-4501D01*
X2079Y-4767D01*
X2044Y-5011D01*
X2005Y-5234D01*
X1963Y-5437D01*
X1916Y-5621D01*
X1865Y-5788D01*
X1809Y-5937D01*
X1748Y-6070D01*
X1681Y-6188D01*
X1609Y-6291D01*
X1530Y-6382D01*
X1444Y-6459D01*
X1350Y-6525D01*
X1250Y-6581D01*
X1141Y-6627D01*
X1024Y-6664D01*
X898Y-6693D01*
X763Y-6715D01*
X619Y-6731D01*
X465Y-6741D01*
X301Y-6748D01*
X126Y-6751D01*
X-200Y-6752D01*
X-420Y-6748D01*
X-624Y-6739D01*
X-776Y-6727D01*
X-918Y-6710D01*
X-1050Y-6686D01*
X-1173Y-6655D01*
X-1288Y-6616D01*
X-1369Y-6581D01*
X-1445Y-6540D01*
X-1517Y-6494D01*
X-1585Y-6441D01*
X-1649Y-6382D01*
X-1709Y-6315D01*
X-1765Y-6241D01*
X-1818Y-6160D01*
X-1868Y-6070D01*
X-1914Y-5972D01*
X-1957Y-5864D01*
X-1998Y-5748D01*
X-2036Y-5621D01*
X-2071Y-5485D01*
X-2104Y-5338D01*
X-2134Y-5180D01*
X-2163Y-5011D01*
X-2190Y-4830D01*
X-2215Y-4637D01*
X-2238Y-4432D01*
X-2267Y-4138D01*
X-2294Y-3820D01*
X-2319Y-3478D01*
X-2342Y-3110D01*
X-2365Y-2716D01*
X-2393Y-2185D01*
X-2425Y-1488D01*
X-2448Y-987D01*
X-2700Y4779D01*
X2581D01*
X2328Y-987D01*
D02*
G37*
G36*
X17705Y-471D02*
X17686Y-835D01*
X17666Y-1186D01*
X17644Y-1523D01*
X17620Y-1846D01*
X17595Y-2156D01*
X17568Y-2453D01*
X17538Y-2738D01*
X17507Y-3011D01*
X17473Y-3271D01*
X17438Y-3520D01*
X17399Y-3758D01*
X17359Y-3984D01*
X17316Y-4200D01*
X17270Y-4406D01*
X17222Y-4601D01*
X17171Y-4787D01*
X17117Y-4963D01*
X17060Y-5129D01*
X17000Y-5287D01*
X16937Y-5436D01*
X16871Y-5577D01*
X16801Y-5710D01*
X16729Y-5835D01*
X16652Y-5953D01*
X16572Y-6063D01*
X16489Y-6167D01*
X16401Y-6264D01*
X16310Y-6355D01*
X16215Y-6441D01*
X16116Y-6520D01*
X16013Y-6594D01*
X15906Y-6663D01*
X15797Y-6727D01*
X15688Y-6785D01*
X15581Y-6836D01*
X15474Y-6882D01*
X15369Y-6921D01*
X15265Y-6954D01*
X15162Y-6981D01*
X15060Y-7002D01*
X14960Y-7017D01*
X14860Y-7026D01*
X14811Y-7028D01*
X14714Y-7029D01*
X14617Y-7023D01*
X14522Y-7012D01*
X14428Y-6994D01*
X14336Y-6971D01*
X14245Y-6943D01*
X14155Y-6908D01*
X14067Y-6868D01*
X13980Y-6823D01*
X13895Y-6772D01*
X13811Y-6715D01*
X13728Y-6653D01*
X13647Y-6586D01*
X13568Y-6513D01*
X13490Y-6435D01*
X13414Y-6351D01*
X13339Y-6263D01*
X13266Y-6169D01*
X13194Y-6069D01*
X13124Y-5965D01*
X13056Y-5856D01*
X12990Y-5741D01*
X12925Y-5622D01*
X12862Y-5497D01*
X12801Y-5368D01*
X12742Y-5233D01*
X12684Y-5094D01*
X12628Y-4949D01*
X12574Y-4801D01*
X12522Y-4647D01*
X12472Y-4488D01*
X12424Y-4325D01*
X12378Y-4157D01*
X12334Y-3985D01*
X12292Y-3808D01*
X12251Y-3626D01*
X12213Y-3440D01*
X12177Y-3250D01*
X12143Y-3055D01*
X12111Y-2855D01*
X12082Y-2652D01*
X12054Y-2444D01*
X12028Y-2232D01*
X12005Y-2015D01*
X11984Y-1795D01*
X11966Y-1570D01*
X11949Y-1341D01*
X11935Y-1108D01*
X11923Y-871D01*
X11913Y-630D01*
X11906Y-385D01*
X11901Y-136D01*
X11899Y117D01*
X11899Y245D01*
Y4779D01*
X17959D01*
X17705Y-471D01*
D02*
G37*
G36*
X-12018Y151D02*
X-12020Y-364D01*
X-12025Y-856D01*
X-12034Y-1327D01*
X-12047Y-1776D01*
X-12063Y-2203D01*
X-12084Y-2610D01*
X-12109Y-2996D01*
X-12139Y-3363D01*
X-12172Y-3709D01*
X-12211Y-4037D01*
X-12254Y-4345D01*
X-12302Y-4635D01*
X-12356Y-4907D01*
X-12414Y-5162D01*
X-12477Y-5399D01*
X-12546Y-5619D01*
X-12621Y-5823D01*
X-12701Y-6011D01*
X-12788Y-6183D01*
X-12880Y-6340D01*
X-12978Y-6482D01*
X-13083Y-6610D01*
X-13194Y-6723D01*
X-13311Y-6823D01*
X-13435Y-6910D01*
X-13566Y-6984D01*
X-13704Y-7045D01*
X-13849Y-7094D01*
X-14001Y-7132D01*
X-14160Y-7158D01*
X-14327Y-7174D01*
X-14501Y-7179D01*
X-14619Y-7178D01*
X-14734Y-7174D01*
X-14848Y-7166D01*
X-14959Y-7156D01*
X-15067Y-7143D01*
X-15174Y-7128D01*
X-15278Y-7109D01*
X-15380Y-7087D01*
X-15480Y-7062D01*
X-15577Y-7034D01*
X-15673Y-7003D01*
X-15766Y-6969D01*
X-15857Y-6931D01*
X-15946Y-6891D01*
X-16033Y-6847D01*
X-16118Y-6800D01*
X-16201Y-6749D01*
X-16281Y-6696D01*
X-16360Y-6639D01*
X-16437Y-6579D01*
X-16511Y-6515D01*
X-16583Y-6448D01*
X-16654Y-6378D01*
X-16723Y-6304D01*
X-16789Y-6226D01*
X-16854Y-6145D01*
X-16916Y-6061D01*
X-16977Y-5972D01*
X-17036Y-5881D01*
X-17093Y-5785D01*
X-17148Y-5686D01*
X-17201Y-5584D01*
X-17252Y-5477D01*
X-17301Y-5367D01*
X-17349Y-5253D01*
X-17395Y-5135D01*
X-17439Y-5014D01*
X-17481Y-4888D01*
X-17522Y-4759D01*
X-17560Y-4625D01*
X-17597Y-4488D01*
X-17632Y-4347D01*
X-17666Y-4202D01*
X-17697Y-4052D01*
X-17728Y-3899D01*
X-17756Y-3742D01*
X-17783Y-3580D01*
X-17808Y-3414D01*
X-17831Y-3244D01*
X-17853Y-3070D01*
X-17873Y-2892D01*
X-17892Y-2709D01*
X-17909Y-2522D01*
X-17925Y-2331D01*
X-17939Y-2136D01*
X-17951Y-1936D01*
X-17962Y-1731D01*
X-17971Y-1523D01*
X-17979Y-1309D01*
X-17986Y-1092D01*
X-17991Y-869D01*
X-17994Y-642D01*
X-17996Y-411D01*
X-17997Y-175D01*
Y4779D01*
X-12018D01*
Y151D01*
D02*
G37*
G36*
X30977Y-24305D02*
X31259Y-24309D01*
X31556Y-24315D01*
X31868Y-24324D01*
X32195Y-24337D01*
X32537Y-24352D01*
X32896Y-24371D01*
X33271Y-24392D01*
X33663Y-24416D01*
X33836Y-24427D01*
X34007Y-24439D01*
X34176Y-24452D01*
X34344Y-24466D01*
X34510Y-24480D01*
X34674Y-24494D01*
X34836Y-24510D01*
X34997Y-24526D01*
X35156Y-24543D01*
X35313Y-24560D01*
X35469Y-24578D01*
X35623Y-24597D01*
X35775Y-24617D01*
X35925Y-24637D01*
X36074Y-24658D01*
X36221Y-24680D01*
X36367Y-24702D01*
X36510Y-24726D01*
X36653Y-24750D01*
X36793Y-24774D01*
X36932Y-24800D01*
X37069Y-24826D01*
X37204Y-24853D01*
X37338Y-24880D01*
X37471Y-24909D01*
X37601Y-24938D01*
X37730Y-24968D01*
X37858Y-24999D01*
X37984Y-25030D01*
X38108Y-25063D01*
X38230Y-25096D01*
X38351Y-25130D01*
X38471Y-25164D01*
X38589Y-25200D01*
X38705Y-25236D01*
X38819Y-25273D01*
X38933Y-25311D01*
X39044Y-25350D01*
X39154Y-25389D01*
X39263Y-25430D01*
X39369Y-25471D01*
X39475Y-25513D01*
X39579Y-25556D01*
X39681Y-25600D01*
X39782Y-25645D01*
X39881Y-25690D01*
X39979Y-25736D01*
X40075Y-25784D01*
X40170Y-25831D01*
X40263Y-25880D01*
X40354Y-25930D01*
X40445Y-25981D01*
X40533Y-26033D01*
X40621Y-26085D01*
X40706Y-26138D01*
X40791Y-26193D01*
X40873Y-26248D01*
X40955Y-26304D01*
X41035Y-26361D01*
X41113Y-26419D01*
X41190Y-26477D01*
X41266Y-26537D01*
X41340Y-26598D01*
X41413Y-26660D01*
X41484Y-26722D01*
X41554Y-26786D01*
X41622Y-26850D01*
X41689Y-26915D01*
X41755Y-26982D01*
X41819Y-27049D01*
X41882Y-27117D01*
X41944Y-27187D01*
X42004Y-27257D01*
X42062Y-27328D01*
X42120Y-27400D01*
X42176Y-27473D01*
X42230Y-27547D01*
X42284Y-27622D01*
X42335Y-27699D01*
X42386Y-27776D01*
X42435Y-27854D01*
X42483Y-27933D01*
X42530Y-28013D01*
X42575Y-28095D01*
X42619Y-28177D01*
X42661Y-28260D01*
X42702Y-28344D01*
X42742Y-28430D01*
X42781Y-28516D01*
X42818Y-28604D01*
X42854Y-28692D01*
X42889Y-28782D01*
X42923Y-28872D01*
X42955Y-28964D01*
X42986Y-29057D01*
X43016Y-29151D01*
X43044Y-29246D01*
X43071Y-29341D01*
X43097Y-29439D01*
X43122Y-29537D01*
X43145Y-29636D01*
X43168Y-29736D01*
X43189Y-29838D01*
X43208Y-29941D01*
X43227Y-30044D01*
X43244Y-30149D01*
X43260Y-30255D01*
X43275Y-30362D01*
X43289Y-30470D01*
X43301Y-30580D01*
X43313Y-30690D01*
X43323Y-30802D01*
X43332Y-30915D01*
X43340Y-31029D01*
X43346Y-31144D01*
X43352Y-31260D01*
X43356Y-31378D01*
X43359Y-31496D01*
X43361Y-31616D01*
X43362Y-31737D01*
X43362Y-31859D01*
X43360Y-31983D01*
X43358Y-32107D01*
X43354Y-32233D01*
X43349Y-32360D01*
X43344Y-32488D01*
X43337Y-32617D01*
X43318Y-32901D01*
X43296Y-33196D01*
X43272Y-33478D01*
X43246Y-33747D01*
X43232Y-33877D01*
X43218Y-34004D01*
X43202Y-34127D01*
X43186Y-34248D01*
X43169Y-34366D01*
X43152Y-34482D01*
X43133Y-34595D01*
X43113Y-34705D01*
X43093Y-34812D01*
X43071Y-34918D01*
X43048Y-35021D01*
X43025Y-35121D01*
X43000Y-35220D01*
X42973Y-35317D01*
X42946Y-35411D01*
X42917Y-35503D01*
X42887Y-35594D01*
X42856Y-35683D01*
X42823Y-35770D01*
X42789Y-35856D01*
X42754Y-35940D01*
X42716Y-36022D01*
X42677Y-36103D01*
X42637Y-36183D01*
X42595Y-36261D01*
X42551Y-36339D01*
X42506Y-36415D01*
X42458Y-36490D01*
X42409Y-36565D01*
X42358Y-36638D01*
X42305Y-36711D01*
X42250Y-36783D01*
X42194Y-36854D01*
X42135Y-36925D01*
X42074Y-36995D01*
X42011Y-37065D01*
X41945Y-37135D01*
X41878Y-37204D01*
X41808Y-37273D01*
X41736Y-37343D01*
X41662Y-37412D01*
X41585Y-37481D01*
X41506Y-37550D01*
X41424Y-37620D01*
X41340Y-37689D01*
X41253Y-37760D01*
X41164Y-37830D01*
X41072Y-37902D01*
X40977Y-37973D01*
X40780Y-38119D01*
X40571Y-38268D01*
X40350Y-38421D01*
X40118Y-38579D01*
X39898Y-38725D01*
X39682Y-38864D01*
X39470Y-38996D01*
X39365Y-39059D01*
X39261Y-39121D01*
X39158Y-39181D01*
X39055Y-39239D01*
X38953Y-39295D01*
X38851Y-39350D01*
X38750Y-39403D01*
X38649Y-39455D01*
X38549Y-39504D01*
X38449Y-39553D01*
X38348Y-39600D01*
X38248Y-39645D01*
X38148Y-39688D01*
X38047Y-39731D01*
X37947Y-39771D01*
X37846Y-39810D01*
X37745Y-39848D01*
X37643Y-39884D01*
X37542Y-39918D01*
X37439Y-39952D01*
X37336Y-39984D01*
X37232Y-40014D01*
X37128Y-40043D01*
X37022Y-40071D01*
X36916Y-40097D01*
X36809Y-40122D01*
X36701Y-40146D01*
X36591Y-40168D01*
X36481Y-40189D01*
X36369Y-40209D01*
X36256Y-40228D01*
X36141Y-40245D01*
X36025Y-40261D01*
X35907Y-40276D01*
X35788Y-40290D01*
X35667Y-40302D01*
X35545Y-40314D01*
X35420Y-40324D01*
X35294Y-40333D01*
X35165Y-40341D01*
X35035Y-40348D01*
X34902Y-40354D01*
X34767Y-40359D01*
X34630Y-40363D01*
X34491Y-40365D01*
X34349Y-40367D01*
X34204Y-40368D01*
X34057Y-40368D01*
X33908Y-40366D01*
X33756Y-40364D01*
X33600Y-40361D01*
X33442Y-40357D01*
X33118Y-40347D01*
X32781Y-40333D01*
X32431Y-40315D01*
X27701Y-40065D01*
X27449Y-33307D01*
X27425Y-32612D01*
X27408Y-31924D01*
X27396Y-31247D01*
X27389Y-30585D01*
X27387Y-29942D01*
X27390Y-29322D01*
X27398Y-28730D01*
X27411Y-28169D01*
X27429Y-27644D01*
X27451Y-27158D01*
X27477Y-26717D01*
X27508Y-26323D01*
X27544Y-25981D01*
X27583Y-25694D01*
X27626Y-25469D01*
X27673Y-25307D01*
X27711Y-25219D01*
X27755Y-25136D01*
X27805Y-25056D01*
X27862Y-24981D01*
X27926Y-24911D01*
X27997Y-24844D01*
X28077Y-24782D01*
X28164Y-24724D01*
X28261Y-24669D01*
X28366Y-24619D01*
X28481Y-24573D01*
X28605Y-24531D01*
X28739Y-24492D01*
X28883Y-24457D01*
X29039Y-24426D01*
X29205Y-24399D01*
X29383Y-24375D01*
X29572Y-24355D01*
X29774Y-24338D01*
X29988Y-24325D01*
X30215Y-24315D01*
X30456Y-24308D01*
X30710Y-24305D01*
X30977Y-24305D01*
D02*
G37*
G36*
X-22115Y-24265D02*
X-21948Y-24275D01*
X-21823Y-24288D01*
X-21706Y-24308D01*
X-21597Y-24335D01*
X-21494Y-24369D01*
X-21398Y-24413D01*
X-21309Y-24466D01*
X-21227Y-24530D01*
X-21151Y-24605D01*
X-21097Y-24670D01*
X-21047Y-24742D01*
X-21000Y-24822D01*
X-20956Y-24909D01*
X-20916Y-25005D01*
X-20878Y-25110D01*
X-20842Y-25224D01*
X-20810Y-25348D01*
X-20780Y-25482D01*
X-20752Y-25626D01*
X-20727Y-25780D01*
X-20704Y-25946D01*
X-20683Y-26123D01*
X-20664Y-26312D01*
X-20647Y-26512D01*
X-20628Y-26800D01*
X-20611Y-27110D01*
X-20597Y-27445D01*
X-20586Y-27804D01*
X-20577Y-28189D01*
X-20571Y-28601D01*
X-20566Y-29040D01*
X-20562Y-29630D01*
X-20560Y-30265D01*
X-20560Y-30669D01*
Y-37075D01*
X-16716D01*
X-16414Y-37076D01*
X-16129Y-37078D01*
X-15858Y-37083D01*
X-15603Y-37089D01*
X-15362Y-37097D01*
X-15135Y-37108D01*
X-14922Y-37121D01*
X-14722Y-37137D01*
X-14535Y-37156D01*
X-14361Y-37178D01*
X-14199Y-37203D01*
X-14048Y-37232D01*
X-13909Y-37265D01*
X-13781Y-37301D01*
X-13663Y-37341D01*
X-13556Y-37386D01*
X-13457Y-37435D01*
X-13369Y-37488D01*
X-13289Y-37547D01*
X-13218Y-37610D01*
X-13154Y-37678D01*
X-13098Y-37752D01*
X-13050Y-37831D01*
X-13008Y-37916D01*
X-12973Y-38007D01*
X-12944Y-38104D01*
X-12920Y-38207D01*
X-12902Y-38316D01*
X-12888Y-38433D01*
X-12879Y-38555D01*
X-12874Y-38685D01*
X-12872Y-38823D01*
X-12874Y-38969D01*
X-12879Y-39108D01*
X-12888Y-39237D01*
X-12902Y-39359D01*
X-12922Y-39473D01*
X-12948Y-39579D01*
X-12982Y-39678D01*
X-13003Y-39724D01*
X-13025Y-39769D01*
X-13049Y-39812D01*
X-13076Y-39853D01*
X-13106Y-39893D01*
X-13138Y-39931D01*
X-13172Y-39967D01*
X-13210Y-40001D01*
X-13250Y-40034D01*
X-13293Y-40066D01*
X-13340Y-40095D01*
X-13389Y-40124D01*
X-13442Y-40150D01*
X-13499Y-40175D01*
X-13558Y-40199D01*
X-13622Y-40222D01*
X-13689Y-40243D01*
X-13759Y-40262D01*
X-13834Y-40280D01*
X-13913Y-40297D01*
X-13996Y-40313D01*
X-14083Y-40327D01*
X-14174Y-40340D01*
X-14270Y-40352D01*
X-14370Y-40363D01*
X-14475Y-40372D01*
X-14585Y-40380D01*
X-14699Y-40388D01*
X-14818Y-40394D01*
X-14943Y-40399D01*
X-15072Y-40403D01*
X-15207Y-40406D01*
X-15347Y-40408D01*
X-15492Y-40409D01*
X-15643Y-40409D01*
X-15799Y-40408D01*
X-16130Y-40404D01*
X-16484Y-40397D01*
X-16862Y-40386D01*
X-17266Y-40373D01*
X-17696Y-40357D01*
X-18153Y-40338D01*
X-18638Y-40317D01*
X-24403Y-40065D01*
X-24655Y-33307D01*
X-24679Y-32613D01*
X-24697Y-31926D01*
X-24710Y-31251D01*
X-24719Y-30593D01*
X-24722Y-29954D01*
X-24721Y-29339D01*
X-24715Y-28753D01*
X-24704Y-28198D01*
X-24690Y-27680D01*
X-24670Y-27202D01*
X-24647Y-26768D01*
X-24619Y-26383D01*
X-24587Y-26050D01*
X-24552Y-25773D01*
X-24512Y-25557D01*
X-24469Y-25406D01*
X-24415Y-25289D01*
X-24345Y-25176D01*
X-24260Y-25067D01*
X-24161Y-24962D01*
X-24050Y-24862D01*
X-23926Y-24768D01*
X-23793Y-24680D01*
X-23649Y-24599D01*
X-23497Y-24525D01*
X-23338Y-24459D01*
X-23173Y-24401D01*
X-23003Y-24353D01*
X-22829Y-24314D01*
X-22652Y-24286D01*
X-22474Y-24269D01*
X-22295Y-24263D01*
X-22115Y-24265D01*
D02*
G37*
G36*
X14914Y-24266D02*
X15305Y-24275D01*
X15689Y-24291D01*
X16065Y-24312D01*
X16436Y-24340D01*
X16798Y-24373D01*
X17154Y-24413D01*
X17502Y-24458D01*
X17843Y-24509D01*
X18176Y-24566D01*
X18501Y-24629D01*
X18818Y-24697D01*
X19126Y-24771D01*
X19426Y-24850D01*
X19718Y-24935D01*
X20001Y-25026D01*
X20275Y-25122D01*
X20539Y-25223D01*
X20795Y-25329D01*
X21041Y-25440D01*
X21278Y-25557D01*
X21505Y-25679D01*
X21722Y-25806D01*
X21929Y-25938D01*
X22126Y-26075D01*
X22312Y-26216D01*
X22488Y-26363D01*
X22653Y-26514D01*
X22807Y-26670D01*
X22951Y-26831D01*
X23083Y-26997D01*
X23203Y-27166D01*
X23301Y-27325D01*
X23390Y-27497D01*
X23471Y-27679D01*
X23543Y-27872D01*
X23608Y-28074D01*
X23663Y-28285D01*
X23711Y-28504D01*
X23751Y-28729D01*
X23783Y-28961D01*
X23807Y-29198D01*
X23823Y-29439D01*
X23832Y-29684D01*
X23833Y-29932D01*
X23827Y-30181D01*
X23813Y-30432D01*
X23791Y-30682D01*
X23763Y-30932D01*
X23727Y-31181D01*
X23684Y-31426D01*
X23635Y-31669D01*
X23578Y-31908D01*
X23514Y-32141D01*
X23444Y-32369D01*
X23367Y-32590D01*
X23284Y-32804D01*
X23194Y-33009D01*
X23097Y-33205D01*
X22995Y-33391D01*
X22886Y-33566D01*
X22771Y-33729D01*
X22649Y-33880D01*
X22522Y-34017D01*
X22412Y-34128D01*
X22309Y-34234D01*
X22214Y-34335D01*
X22125Y-34433D01*
X22043Y-34527D01*
X21969Y-34618D01*
X21902Y-34706D01*
X21841Y-34791D01*
X21788Y-34875D01*
X21742Y-34957D01*
X21703Y-35038D01*
X21671Y-35119D01*
X21646Y-35199D01*
X21629Y-35280D01*
X21618Y-35361D01*
X21614Y-35443D01*
X21618Y-35527D01*
X21629Y-35613D01*
X21646Y-35701D01*
X21671Y-35792D01*
X21703Y-35886D01*
X21742Y-35984D01*
X21788Y-36086D01*
X21841Y-36193D01*
X21902Y-36304D01*
X21969Y-36421D01*
X22043Y-36543D01*
X22125Y-36672D01*
X22214Y-36807D01*
X22309Y-36950D01*
X22412Y-37100D01*
X22687Y-37495D01*
X22839Y-37721D01*
X22981Y-37936D01*
X23111Y-38140D01*
X23229Y-38334D01*
X23336Y-38518D01*
X23431Y-38692D01*
X23514Y-38856D01*
X23585Y-39010D01*
X23645Y-39155D01*
X23693Y-39292D01*
X23728Y-39419D01*
X23752Y-39538D01*
X23764Y-39649D01*
X23764Y-39751D01*
X23751Y-39846D01*
X23727Y-39933D01*
X23690Y-40013D01*
X23641Y-40086D01*
X23580Y-40151D01*
X23506Y-40210D01*
X23420Y-40263D01*
X23321Y-40310D01*
X23210Y-40351D01*
X23087Y-40386D01*
X22950Y-40415D01*
X22802Y-40440D01*
X22640Y-40459D01*
X22466Y-40474D01*
X22279Y-40484D01*
X22079Y-40490D01*
X21866Y-40492D01*
X21749Y-40490D01*
X21633Y-40483D01*
X21517Y-40471D01*
X21402Y-40455D01*
X21288Y-40434D01*
X21174Y-40409D01*
X21061Y-40380D01*
X20950Y-40347D01*
X20839Y-40309D01*
X20730Y-40266D01*
X20621Y-40220D01*
X20514Y-40170D01*
X20408Y-40115D01*
X20304Y-40056D01*
X20201Y-39993D01*
X20099Y-39927D01*
X19999Y-39856D01*
X19901Y-39781D01*
X19804Y-39703D01*
X19709Y-39621D01*
X19616Y-39535D01*
X19525Y-39446D01*
X19436Y-39352D01*
X19348Y-39255D01*
X19263Y-39155D01*
X19180Y-39051D01*
X19100Y-38944D01*
X19021Y-38833D01*
X18945Y-38719D01*
X18872Y-38601D01*
X18800Y-38480D01*
X18732Y-38356D01*
X18607Y-38139D01*
X18470Y-37927D01*
X18322Y-37723D01*
X18165Y-37527D01*
X17999Y-37341D01*
X17826Y-37165D01*
X17648Y-37000D01*
X17465Y-36848D01*
X17280Y-36710D01*
X17094Y-36587D01*
X16908Y-36480D01*
X16723Y-36390D01*
X16540Y-36317D01*
X16363Y-36265D01*
X16190Y-36232D01*
X16025Y-36221D01*
X15924Y-36223D01*
X15826Y-36228D01*
X15733Y-36238D01*
X15642Y-36251D01*
X15556Y-36268D01*
X15473Y-36290D01*
X15393Y-36315D01*
X15317Y-36344D01*
X15245Y-36377D01*
X15175Y-36414D01*
X15110Y-36456D01*
X15047Y-36501D01*
X14988Y-36551D01*
X14933Y-36605D01*
X14880Y-36663D01*
X14831Y-36726D01*
X14785Y-36793D01*
X14742Y-36865D01*
X14703Y-36941D01*
X14666Y-37021D01*
X14633Y-37106D01*
X14603Y-37196D01*
X14575Y-37291D01*
X14551Y-37390D01*
X14530Y-37494D01*
X14511Y-37602D01*
X14496Y-37716D01*
X14483Y-37834D01*
X14474Y-37957D01*
X14467Y-38085D01*
X14463Y-38218D01*
X14460Y-38513D01*
X14456Y-38662D01*
X14449Y-38804D01*
X14440Y-38939D01*
X14427Y-39067D01*
X14411Y-39188D01*
X14391Y-39302D01*
X14368Y-39411D01*
X14341Y-39513D01*
X14310Y-39609D01*
X14275Y-39699D01*
X14236Y-39783D01*
X14192Y-39861D01*
X14144Y-39934D01*
X14092Y-40002D01*
X14034Y-40065D01*
X13972Y-40122D01*
X13904Y-40175D01*
X13831Y-40223D01*
X13752Y-40267D01*
X13668Y-40306D01*
X13578Y-40341D01*
X13482Y-40371D01*
X13380Y-40398D01*
X13272Y-40422D01*
X13157Y-40441D01*
X13036Y-40457D01*
X12908Y-40470D01*
X12773Y-40480D01*
X12631Y-40487D01*
X12482Y-40490D01*
X12133Y-40491D01*
X11908Y-40489D01*
X11741Y-40483D01*
X11585Y-40471D01*
X11440Y-40454D01*
X11338Y-40436D01*
X11242Y-40413D01*
X11152Y-40384D01*
X11066Y-40349D01*
X10986Y-40306D01*
X10912Y-40257D01*
X10841Y-40199D01*
X10776Y-40132D01*
X10715Y-40056D01*
X10658Y-39970D01*
X10606Y-39874D01*
X10558Y-39766D01*
X10513Y-39646D01*
X10473Y-39514D01*
X10436Y-39368D01*
X10402Y-39209D01*
X10372Y-39036D01*
X10344Y-38847D01*
X10320Y-38643D01*
X10298Y-38423D01*
X10279Y-38186D01*
X10262Y-37931D01*
X10247Y-37659D01*
X10235Y-37367D01*
X10225Y-37056D01*
X10216Y-36726D01*
X10209Y-36375D01*
X10203Y-36002D01*
X10198Y-35472D01*
X10194Y-34901D01*
X10192Y-34288D01*
X10190Y-33288D01*
X10190Y-32377D01*
Y-24263D01*
X14517D01*
X14914Y-24266D01*
D02*
G37*
G36*
X-1294Y-24330D02*
X-973Y-24344D01*
X-655Y-24366D01*
X-340Y-24394D01*
X-30Y-24430D01*
X275Y-24473D01*
X574Y-24523D01*
X865Y-24580D01*
X1149Y-24645D01*
X1424Y-24717D01*
X1688Y-24796D01*
X1942Y-24882D01*
X2185Y-24976D01*
X2415Y-25077D01*
X2631Y-25185D01*
X2760Y-25257D01*
X2887Y-25334D01*
X3013Y-25416D01*
X3137Y-25502D01*
X3259Y-25593D01*
X3379Y-25688D01*
X3498Y-25787D01*
X3614Y-25891D01*
X3728Y-25998D01*
X3841Y-26110D01*
X3951Y-26226D01*
X4060Y-26345D01*
X4166Y-26467D01*
X4270Y-26594D01*
X4372Y-26724D01*
X4471Y-26857D01*
X4569Y-26993D01*
X4664Y-27132D01*
X4757Y-27275D01*
X4848Y-27420D01*
X4936Y-27568D01*
X5021Y-27718D01*
X5104Y-27871D01*
X5185Y-28026D01*
X5263Y-28184D01*
X5339Y-28344D01*
X5411Y-28506D01*
X5482Y-28670D01*
X5549Y-28836D01*
X5614Y-29004D01*
X5676Y-29173D01*
X5735Y-29343D01*
X5791Y-29515D01*
X5845Y-29689D01*
X5895Y-29863D01*
X5943Y-30039D01*
X5987Y-30216D01*
X6029Y-30393D01*
X6067Y-30571D01*
X6103Y-30750D01*
X6135Y-30930D01*
X6164Y-31109D01*
X6189Y-31289D01*
X6212Y-31470D01*
X6231Y-31650D01*
X6247Y-31830D01*
X6259Y-32011D01*
X6268Y-32190D01*
X6274Y-32370D01*
X6276Y-32549D01*
X6275Y-32727D01*
X6270Y-32905D01*
X6261Y-33082D01*
X6249Y-33258D01*
X6233Y-33433D01*
X6213Y-33607D01*
X6190Y-33779D01*
X6163Y-33951D01*
X6132Y-34120D01*
X6097Y-34288D01*
X6058Y-34455D01*
X6016Y-34620D01*
X5969Y-34782D01*
X5918Y-34943D01*
X5862Y-35108D01*
X5803Y-35270D01*
X5741Y-35429D01*
X5677Y-35587D01*
X5610Y-35742D01*
X5540Y-35894D01*
X5467Y-36044D01*
X5392Y-36192D01*
X5314Y-36337D01*
X5234Y-36480D01*
X5151Y-36621D01*
X5066Y-36759D01*
X4979Y-36894D01*
X4889Y-37027D01*
X4797Y-37158D01*
X4702Y-37286D01*
X4606Y-37412D01*
X4507Y-37535D01*
X4406Y-37656D01*
X4303Y-37775D01*
X4198Y-37891D01*
X4091Y-38004D01*
X3982Y-38115D01*
X3871Y-38224D01*
X3759Y-38330D01*
X3644Y-38434D01*
X3528Y-38535D01*
X3410Y-38634D01*
X3290Y-38730D01*
X3169Y-38824D01*
X3046Y-38915D01*
X2921Y-39004D01*
X2795Y-39091D01*
X2667Y-39175D01*
X2538Y-39256D01*
X2408Y-39335D01*
X2276Y-39412D01*
X2143Y-39486D01*
X2009Y-39557D01*
X1873Y-39626D01*
X1736Y-39693D01*
X1599Y-39757D01*
X1460Y-39818D01*
X1319Y-39877D01*
X1178Y-39934D01*
X1036Y-39988D01*
X893Y-40040D01*
X749Y-40089D01*
X605Y-40135D01*
X459Y-40179D01*
X313Y-40221D01*
X166Y-40260D01*
X18Y-40296D01*
X-130Y-40330D01*
X-279Y-40362D01*
X-428Y-40391D01*
X-578Y-40417D01*
X-729Y-40441D01*
X-880Y-40462D01*
X-1031Y-40481D01*
X-1182Y-40497D01*
X-1334Y-40511D01*
X-1486Y-40522D01*
X-1638Y-40531D01*
X-1791Y-40537D01*
X-1944Y-40540D01*
X-2096Y-40542D01*
X-2249Y-40540D01*
X-2402Y-40536D01*
X-2554Y-40529D01*
X-2707Y-40520D01*
X-2859Y-40508D01*
X-3011Y-40494D01*
X-3163Y-40477D01*
X-3315Y-40458D01*
X-3466Y-40436D01*
X-3618Y-40411D01*
X-3768Y-40384D01*
X-3918Y-40354D01*
X-4068Y-40322D01*
X-4218Y-40287D01*
X-4366Y-40250D01*
X-4514Y-40210D01*
X-4662Y-40167D01*
X-4809Y-40122D01*
X-4955Y-40075D01*
X-5100Y-40024D01*
X-5244Y-39971D01*
X-5388Y-39916D01*
X-5531Y-39858D01*
X-5673Y-39797D01*
X-5813Y-39734D01*
X-5953Y-39668D01*
X-6092Y-39599D01*
X-6229Y-39528D01*
X-6366Y-39455D01*
X-6501Y-39378D01*
X-6635Y-39299D01*
X-6768Y-39218D01*
X-6899Y-39134D01*
X-7029Y-39047D01*
X-7157Y-38958D01*
X-7285Y-38866D01*
X-7410Y-38771D01*
X-7534Y-38674D01*
X-7657Y-38574D01*
X-7778Y-38472D01*
X-7897Y-38366D01*
X-8015Y-38259D01*
X-8130Y-38148D01*
X-8244Y-38035D01*
X-8356Y-37920D01*
X-8467Y-37801D01*
X-8575Y-37680D01*
X-8681Y-37557D01*
X-8786Y-37431D01*
X-8888Y-37302D01*
X-8988Y-37170D01*
X-9086Y-37036D01*
X-9182Y-36899D01*
X-9276Y-36760D01*
X-9367Y-36617D01*
X-9456Y-36472D01*
X-9543Y-36325D01*
X-9628Y-36175D01*
X-9710Y-36022D01*
X-9789Y-35867D01*
X-9866Y-35708D01*
X-9954Y-35519D01*
X-10036Y-35329D01*
X-10115Y-35140D01*
X-10188Y-34950D01*
X-10257Y-34760D01*
X-10321Y-34571D01*
X-10380Y-34382D01*
X-10434Y-34193D01*
X-10484Y-34005D01*
X-10530Y-33816D01*
X-10571Y-33628D01*
X-10607Y-33441D01*
X-10638Y-33254D01*
X-10665Y-33067D01*
X-10688Y-32881D01*
X-10705Y-32696D01*
X-10718Y-32511D01*
X-10727Y-32327D01*
X-10731Y-32144D01*
X-10731Y-31961D01*
X-10726Y-31779D01*
X-10717Y-31598D01*
X-10703Y-31418D01*
X-10685Y-31238D01*
X-10662Y-31060D01*
X-10635Y-30883D01*
X-10604Y-30706D01*
X-10568Y-30531D01*
X-10528Y-30357D01*
X-10483Y-30184D01*
X-10434Y-30012D01*
X-10381Y-29842D01*
X-10323Y-29673D01*
X-10261Y-29505D01*
X-10195Y-29338D01*
X-10125Y-29173D01*
X-10050Y-29009D01*
X-9971Y-28847D01*
X-9888Y-28686D01*
X-9800Y-28528D01*
X-9708Y-28370D01*
X-9612Y-28214D01*
X-9512Y-28060D01*
X-9408Y-27908D01*
X-9299Y-27757D01*
X-9187Y-27609D01*
X-9070Y-27462D01*
X-8949Y-27317D01*
X-8824Y-27174D01*
X-8695Y-27033D01*
X-8562Y-26895D01*
X-8425Y-26758D01*
X-8284Y-26623D01*
X-8138Y-26491D01*
X-7989Y-26360D01*
X-7836Y-26232D01*
X-7678Y-26107D01*
X-7517Y-25983D01*
X-7351Y-25862D01*
X-7182Y-25744D01*
X-7009Y-25627D01*
X-6832Y-25514D01*
X-6651Y-25403D01*
X-6466Y-25294D01*
X-6255Y-25181D01*
X-6030Y-25074D01*
X-5792Y-24975D01*
X-5542Y-24882D01*
X-5281Y-24797D01*
X-5010Y-24718D01*
X-4729Y-24647D01*
X-4441Y-24583D01*
X-4144Y-24525D01*
X-3841Y-24475D01*
X-3533Y-24432D01*
X-3220Y-24396D01*
X-2903Y-24367D01*
X-2583Y-24346D01*
X-2262Y-24331D01*
X-1939Y-24324D01*
X-1616Y-24323D01*
X-1294Y-24330D01*
D02*
G37*
G36*
X18732Y-48606D02*
X18731Y-48792D01*
X18728Y-48967D01*
X18722Y-49131D01*
X18713Y-49284D01*
X18698Y-49427D01*
X18679Y-49561D01*
X18666Y-49625D01*
X18653Y-49686D01*
X18637Y-49744D01*
X18620Y-49801D01*
X18600Y-49855D01*
X18579Y-49907D01*
X18556Y-49958D01*
X18530Y-50006D01*
X18501Y-50052D01*
X18471Y-50096D01*
X18438Y-50138D01*
X18402Y-50179D01*
X18363Y-50217D01*
X18321Y-50254D01*
X18277Y-50289D01*
X18229Y-50322D01*
X18178Y-50354D01*
X18124Y-50384D01*
X18067Y-50412D01*
X18006Y-50439D01*
X17941Y-50465D01*
X17873Y-50489D01*
X17801Y-50511D01*
X17725Y-50532D01*
X17645Y-50552D01*
X17561Y-50571D01*
X17473Y-50588D01*
X17381Y-50604D01*
X17284Y-50619D01*
X17182Y-50633D01*
X17076Y-50646D01*
X16966Y-50657D01*
X16850Y-50668D01*
X16730Y-50678D01*
X16604Y-50687D01*
X16474Y-50695D01*
X16338Y-50702D01*
X16197Y-50709D01*
X16050Y-50715D01*
X15741Y-50724D01*
X15408Y-50731D01*
X15052Y-50736D01*
X14671Y-50739D01*
X14265Y-50741D01*
X13833Y-50742D01*
X13161Y-50742D01*
X12742Y-50743D01*
X12349Y-50746D01*
X11981Y-50750D01*
X11637Y-50756D01*
X11315Y-50764D01*
X11017Y-50775D01*
X10740Y-50788D01*
X10484Y-50805D01*
X10248Y-50826D01*
X10032Y-50851D01*
X9833Y-50879D01*
X9653Y-50913D01*
X9489Y-50951D01*
X9341Y-50995D01*
X9208Y-51044D01*
X9090Y-51100D01*
X8985Y-51161D01*
X8893Y-51230D01*
X8812Y-51305D01*
X8743Y-51388D01*
X8684Y-51478D01*
X8635Y-51576D01*
X8594Y-51683D01*
X8561Y-51798D01*
X8535Y-51922D01*
X8516Y-52056D01*
X8501Y-52200D01*
X8492Y-52353D01*
X8486Y-52517D01*
X8483Y-52692D01*
X8482Y-52971D01*
X8484Y-53149D01*
X8489Y-53316D01*
X8496Y-53474D01*
X8508Y-53621D01*
X8525Y-53759D01*
X8547Y-53887D01*
X8575Y-54006D01*
X8591Y-54063D01*
X8610Y-54117D01*
X8630Y-54169D01*
X8653Y-54219D01*
X8677Y-54267D01*
X8704Y-54313D01*
X8733Y-54357D01*
X8764Y-54400D01*
X8797Y-54440D01*
X8834Y-54479D01*
X8872Y-54516D01*
X8914Y-54551D01*
X8958Y-54584D01*
X9005Y-54616D01*
X9056Y-54646D01*
X9109Y-54675D01*
X9165Y-54702D01*
X9225Y-54728D01*
X9288Y-54752D01*
X9355Y-54775D01*
X9424Y-54796D01*
X9498Y-54816D01*
X9575Y-54835D01*
X9657Y-54853D01*
X9742Y-54869D01*
X9830Y-54885D01*
X9923Y-54899D01*
X10021Y-54912D01*
X10122Y-54924D01*
X10228Y-54935D01*
X10338Y-54945D01*
X10453Y-54955D01*
X10572Y-54963D01*
X10696Y-54970D01*
X10958Y-54983D01*
X11241Y-54993D01*
X11543Y-55001D01*
X11868Y-55006D01*
X12213Y-55010D01*
X12582Y-55012D01*
X12975Y-55013D01*
X13584Y-55013D01*
X13965Y-55015D01*
X14322Y-55017D01*
X14657Y-55022D01*
X14970Y-55028D01*
X15263Y-55037D01*
X15535Y-55048D01*
X15788Y-55062D01*
X16022Y-55080D01*
X16238Y-55101D01*
X16436Y-55127D01*
X16618Y-55156D01*
X16784Y-55190D01*
X16935Y-55229D01*
X17072Y-55273D01*
X17194Y-55323D01*
X17304Y-55379D01*
X17401Y-55441D01*
X17487Y-55510D01*
X17562Y-55585D01*
X17627Y-55668D01*
X17683Y-55758D01*
X17730Y-55856D01*
X17768Y-55963D01*
X17800Y-56077D01*
X17825Y-56201D01*
X17844Y-56334D01*
X17858Y-56477D01*
X17868Y-56629D01*
X17874Y-56791D01*
X17877Y-56964D01*
X17878Y-57241D01*
X17876Y-57420D01*
X17871Y-57587D01*
X17863Y-57745D01*
X17852Y-57892D01*
X17835Y-58029D01*
X17813Y-58158D01*
X17785Y-58277D01*
X17768Y-58333D01*
X17750Y-58388D01*
X17730Y-58440D01*
X17707Y-58490D01*
X17683Y-58538D01*
X17656Y-58584D01*
X17627Y-58628D01*
X17596Y-58670D01*
X17562Y-58711D01*
X17526Y-58749D01*
X17487Y-58786D01*
X17446Y-58822D01*
X17401Y-58855D01*
X17354Y-58887D01*
X17304Y-58917D01*
X17251Y-58946D01*
X17194Y-58973D01*
X17135Y-58998D01*
X17072Y-59023D01*
X17005Y-59046D01*
X16935Y-59067D01*
X16862Y-59087D01*
X16784Y-59106D01*
X16703Y-59124D01*
X16618Y-59140D01*
X16529Y-59155D01*
X16436Y-59170D01*
X16339Y-59183D01*
X16238Y-59195D01*
X16132Y-59206D01*
X16022Y-59216D01*
X15907Y-59225D01*
X15788Y-59234D01*
X15664Y-59241D01*
X15401Y-59254D01*
X15119Y-59264D01*
X14816Y-59272D01*
X14492Y-59277D01*
X14146Y-59281D01*
X13777Y-59282D01*
X13385Y-59283D01*
X12803Y-59284D01*
X12447Y-59286D01*
X12110Y-59290D01*
X11793Y-59295D01*
X11494Y-59303D01*
X11213Y-59313D01*
X10950Y-59324D01*
X10704Y-59339D01*
X10475Y-59357D01*
X10261Y-59377D01*
X10063Y-59401D01*
X9879Y-59428D01*
X9710Y-59459D01*
X9555Y-59493D01*
X9412Y-59532D01*
X9283Y-59575D01*
X9165Y-59622D01*
X9059Y-59674D01*
X8964Y-59730D01*
X8880Y-59791D01*
X8805Y-59858D01*
X8740Y-59930D01*
X8684Y-60008D01*
X8636Y-60092D01*
X8595Y-60181D01*
X8562Y-60277D01*
X8535Y-60379D01*
X8515Y-60487D01*
X8500Y-60603D01*
X8489Y-60725D01*
X8484Y-60855D01*
X8482Y-60992D01*
X8484Y-61130D01*
X8490Y-61261D01*
X8500Y-61385D01*
X8515Y-61501D01*
X8537Y-61611D01*
X8565Y-61713D01*
X8600Y-61810D01*
X8642Y-61899D01*
X8693Y-61983D01*
X8722Y-62023D01*
X8753Y-62061D01*
X8787Y-62098D01*
X8823Y-62133D01*
X8861Y-62167D01*
X8902Y-62200D01*
X8946Y-62231D01*
X8993Y-62261D01*
X9043Y-62290D01*
X9095Y-62317D01*
X9151Y-62344D01*
X9209Y-62369D01*
X9271Y-62393D01*
X9336Y-62415D01*
X9405Y-62437D01*
X9476Y-62458D01*
X9552Y-62477D01*
X9631Y-62496D01*
X9713Y-62513D01*
X9799Y-62530D01*
X9890Y-62545D01*
X9984Y-62560D01*
X10081Y-62574D01*
X10183Y-62586D01*
X10289Y-62599D01*
X10400Y-62610D01*
X10514Y-62620D01*
X10633Y-62630D01*
X10884Y-62647D01*
X11154Y-62661D01*
X11442Y-62673D01*
X11751Y-62682D01*
X12079Y-62689D01*
X12428Y-62694D01*
X12799Y-62698D01*
X13191Y-62699D01*
X14052Y-62700D01*
X14471Y-62702D01*
X14865Y-62704D01*
X15233Y-62708D01*
X15577Y-62714D01*
X15898Y-62722D01*
X16197Y-62733D01*
X16474Y-62747D01*
X16730Y-62764D01*
X16966Y-62784D01*
X17182Y-62809D01*
X17381Y-62838D01*
X17561Y-62871D01*
X17725Y-62909D01*
X17873Y-62953D01*
X18006Y-63003D01*
X18124Y-63058D01*
X18229Y-63120D01*
X18321Y-63188D01*
X18402Y-63263D01*
X18471Y-63346D01*
X18530Y-63436D01*
X18579Y-63534D01*
X18620Y-63641D01*
X18653Y-63756D01*
X18679Y-63881D01*
X18698Y-64015D01*
X18713Y-64158D01*
X18722Y-64311D01*
X18728Y-64475D01*
X18731Y-64650D01*
X18731Y-65075D01*
X18728Y-65297D01*
X18720Y-65461D01*
X18708Y-65613D01*
X18689Y-65756D01*
X18669Y-65855D01*
X18644Y-65950D01*
X18613Y-66038D01*
X18576Y-66122D01*
X18531Y-66200D01*
X18479Y-66274D01*
X18418Y-66342D01*
X18348Y-66406D01*
X18269Y-66466D01*
X18180Y-66521D01*
X18079Y-66572D01*
X17967Y-66619D01*
X17844Y-66662D01*
X17707Y-66701D01*
X17557Y-66737D01*
X17393Y-66770D01*
X17215Y-66799D01*
X17021Y-66826D01*
X16812Y-66849D01*
X16586Y-66870D01*
X16343Y-66888D01*
X16083Y-66904D01*
X15804Y-66918D01*
X15506Y-66930D01*
X15189Y-66940D01*
X14851Y-66948D01*
X14493Y-66954D01*
X14114Y-66960D01*
X13573Y-66965D01*
X12992Y-66968D01*
X12206Y-66970D01*
X10991Y-66971D01*
X10617Y-66971D01*
X9930Y-66971D01*
X9283Y-66969D01*
X8674Y-66967D01*
X8102Y-66963D01*
X7567Y-66957D01*
X7067Y-66950D01*
X6600Y-66940D01*
X6166Y-66927D01*
X5764Y-66913D01*
X5392Y-66895D01*
X5049Y-66874D01*
X4734Y-66849D01*
X4446Y-66821D01*
X4184Y-66789D01*
X3945Y-66753D01*
X3731Y-66712D01*
X3538Y-66667D01*
X3366Y-66617D01*
X3214Y-66562D01*
X3081Y-66501D01*
X2965Y-66435D01*
X2865Y-66363D01*
X2781Y-66284D01*
X2710Y-66200D01*
X2652Y-66108D01*
X2605Y-66010D01*
X2569Y-65905D01*
X2542Y-65792D01*
X2523Y-65672D01*
X2511Y-65544D01*
X2505Y-65407D01*
X2501Y-65133D01*
X2496Y-65010D01*
X2486Y-64893D01*
X2473Y-64782D01*
X2455Y-64677D01*
X2432Y-64578D01*
X2404Y-64485D01*
X2370Y-64397D01*
X2331Y-64315D01*
X2286Y-64238D01*
X2234Y-64166D01*
X2176Y-64099D01*
X2110Y-64036D01*
X2038Y-63979D01*
X1957Y-63925D01*
X1869Y-63876D01*
X1773Y-63832D01*
X1669Y-63791D01*
X1555Y-63754D01*
X1433Y-63721D01*
X1301Y-63691D01*
X1159Y-63665D01*
X1007Y-63642D01*
X846Y-63622D01*
X673Y-63605D01*
X490Y-63590D01*
X295Y-63579D01*
X89Y-63569D01*
X-129Y-63562D01*
X-359Y-63558D01*
X-601Y-63555D01*
X-856Y-63554D01*
X-1325Y-63559D01*
X-1756Y-63573D01*
X-2149Y-63598D01*
X-2507Y-63635D01*
X-2832Y-63683D01*
X-3126Y-63745D01*
X-3390Y-63821D01*
X-3627Y-63911D01*
X-3839Y-64017D01*
X-4026Y-64139D01*
X-4192Y-64278D01*
X-4337Y-64436D01*
X-4465Y-64612D01*
X-4576Y-64808D01*
X-4673Y-65025D01*
X-4758Y-65263D01*
X-4797Y-65380D01*
X-4839Y-65492D01*
X-4885Y-65599D01*
X-4934Y-65702D01*
X-4986Y-65800D01*
X-5042Y-65894D01*
X-5101Y-65983D01*
X-5165Y-66067D01*
X-5232Y-66148D01*
X-5304Y-66224D01*
X-5380Y-66295D01*
X-5461Y-66363D01*
X-5546Y-66427D01*
X-5636Y-66487D01*
X-5731Y-66543D01*
X-5831Y-66595D01*
X-5936Y-66643D01*
X-6047Y-66688D01*
X-6164Y-66729D01*
X-6286Y-66767D01*
X-6414Y-66801D01*
X-6548Y-66831D01*
X-6688Y-66859D01*
X-6835Y-66883D01*
X-6988Y-66905D01*
X-7147Y-66923D01*
X-7314Y-66938D01*
X-7487Y-66950D01*
X-7668Y-66959D01*
X-7856Y-66966D01*
X-8051Y-66970D01*
X-8254Y-66971D01*
X-11208D01*
X-9831Y-64309D01*
X-9672Y-64006D01*
X-9481Y-63650D01*
X-9260Y-63244D01*
X-9013Y-62794D01*
X-8740Y-62304D01*
X-8446Y-61779D01*
X-8132Y-61222D01*
X-7801Y-60639D01*
X-7457Y-60033D01*
X-7100Y-59410D01*
X-6734Y-58774D01*
X-6361Y-58129D01*
X-5985Y-57480D01*
X-5606Y-56832D01*
X-5229Y-56188D01*
X-4855Y-55553D01*
X-4485Y-54925D01*
X-4120Y-54299D01*
X-3762Y-53679D01*
X-3412Y-53070D01*
X-3074Y-52474D01*
X-2748Y-51897D01*
X-2438Y-51341D01*
X-2145Y-50811D01*
X-1872Y-50311D01*
X-1620Y-49844D01*
X-1392Y-49415D01*
X-1190Y-49027D01*
X-1016Y-48684D01*
X-873Y-48390D01*
X-761Y-48150D01*
X-685Y-47966D01*
X-636Y-47847D01*
X-580Y-47735D01*
X-518Y-47629D01*
X-448Y-47529D01*
X-390Y-47457D01*
X-326Y-47389D01*
X-255Y-47324D01*
X-179Y-47262D01*
X-95Y-47203D01*
X-3Y-47147D01*
X96Y-47094D01*
X204Y-47043D01*
X321Y-46996D01*
X447Y-46951D01*
X584Y-46908D01*
X730Y-46868D01*
X887Y-46830D01*
X1056Y-46795D01*
X1236Y-46762D01*
X1428Y-46731D01*
X1634Y-46703D01*
X1852Y-46676D01*
X2084Y-46651D01*
X2330Y-46629D01*
X2590Y-46608D01*
X2866Y-46589D01*
X3157Y-46572D01*
X3464Y-46556D01*
X3787Y-46542D01*
X4127Y-46529D01*
X4485Y-46518D01*
X4860Y-46509D01*
X5254Y-46500D01*
X5666Y-46493D01*
X6098Y-46487D01*
X6705Y-46480D01*
X7347Y-46476D01*
X8027Y-46473D01*
X8745Y-46471D01*
X9309Y-46471D01*
X18732D01*
Y-48606D01*
D02*
G37*
G36*
X-37333Y-22679D02*
X-37143Y-22681D01*
X-36951Y-22685D01*
X-36757Y-22690D01*
X-36562Y-22697D01*
X-36364Y-22706D01*
X-36166Y-22716D01*
X-35966Y-22729D01*
X-32091Y-22981D01*
X-31864Y-46257D01*
X-31637Y-69533D01*
X-41060D01*
Y-46613D01*
X-41056Y-44275D01*
X-41047Y-41997D01*
X-41032Y-39790D01*
X-41012Y-37666D01*
X-40986Y-35638D01*
X-40955Y-33717D01*
X-40920Y-31916D01*
X-40881Y-30247D01*
X-40838Y-28722D01*
X-40791Y-27352D01*
X-40740Y-26151D01*
X-40687Y-25129D01*
X-40631Y-24300D01*
X-40573Y-23674D01*
X-40513Y-23265D01*
X-40451Y-23084D01*
X-40415Y-23054D01*
X-40369Y-23024D01*
X-40314Y-22995D01*
X-40249Y-22967D01*
X-40177Y-22941D01*
X-40095Y-22915D01*
X-40006Y-22891D01*
X-39909Y-22868D01*
X-39804Y-22846D01*
X-39692Y-22826D01*
X-39573Y-22806D01*
X-39447Y-22788D01*
X-39315Y-22771D01*
X-39176Y-22756D01*
X-39032Y-22741D01*
X-38882Y-22729D01*
X-38728Y-22717D01*
X-38568Y-22707D01*
X-38403Y-22699D01*
X-38234Y-22692D01*
X-38061Y-22686D01*
X-37884Y-22682D01*
X-37703Y-22679D01*
X-37519Y-22678D01*
X-37333Y-22679D01*
D02*
G37*
%LPC*%
G36*
X34046Y-27679D02*
X33715Y-27680D01*
X33512Y-27683D01*
X33322Y-27688D01*
X33144Y-27696D01*
X32979Y-27708D01*
X32825Y-27726D01*
X32753Y-27737D01*
X32683Y-27749D01*
X32616Y-27763D01*
X32552Y-27779D01*
X32490Y-27796D01*
X32431Y-27816D01*
X32374Y-27837D01*
X32320Y-27861D01*
X32269Y-27887D01*
X32219Y-27915D01*
X32172Y-27946D01*
X32127Y-27980D01*
X32085Y-28016D01*
X32044Y-28054D01*
X32006Y-28096D01*
X31969Y-28141D01*
X31935Y-28189D01*
X31902Y-28240D01*
X31872Y-28294D01*
X31843Y-28352D01*
X31816Y-28413D01*
X31790Y-28477D01*
X31767Y-28546D01*
X31744Y-28618D01*
X31724Y-28694D01*
X31704Y-28774D01*
X31687Y-28858D01*
X31670Y-28947D01*
X31655Y-29039D01*
X31641Y-29137D01*
X31629Y-29238D01*
X31617Y-29344D01*
X31607Y-29455D01*
X31597Y-29571D01*
X31589Y-29692D01*
X31582Y-29818D01*
X31575Y-29949D01*
X31569Y-30085D01*
X31560Y-30373D01*
X31553Y-30684D01*
X31549Y-31017D01*
X31546Y-31374D01*
X31545Y-31756D01*
X31544Y-32377D01*
X31545Y-32795D01*
X31546Y-33187D01*
X31548Y-33554D01*
X31551Y-33898D01*
X31557Y-34218D01*
X31565Y-34517D01*
X31576Y-34793D01*
X31590Y-35049D01*
X31608Y-35285D01*
X31630Y-35502D01*
X31656Y-35701D01*
X31687Y-35882D01*
X31723Y-36047D01*
X31765Y-36196D01*
X31814Y-36329D01*
X31868Y-36449D01*
X31930Y-36555D01*
X31999Y-36648D01*
X32076Y-36730D01*
X32161Y-36800D01*
X32255Y-36860D01*
X32358Y-36911D01*
X32470Y-36953D01*
X32592Y-36987D01*
X32725Y-37014D01*
X32868Y-37035D01*
X33022Y-37051D01*
X33188Y-37062D01*
X33365Y-37069D01*
X33556Y-37073D01*
X33758Y-37075D01*
X33974Y-37075D01*
X34180Y-37071D01*
X34383Y-37061D01*
X34583Y-37042D01*
X34779Y-37017D01*
X34973Y-36986D01*
X35163Y-36947D01*
X35350Y-36902D01*
X35533Y-36851D01*
X35713Y-36794D01*
X35889Y-36730D01*
X36062Y-36661D01*
X36231Y-36587D01*
X36396Y-36507D01*
X36557Y-36421D01*
X36715Y-36330D01*
X36868Y-36235D01*
X37017Y-36134D01*
X37162Y-36029D01*
X37302Y-35920D01*
X37439Y-35806D01*
X37571Y-35688D01*
X37698Y-35566D01*
X37820Y-35440D01*
X37938Y-35311D01*
X38052Y-35178D01*
X38160Y-35041D01*
X38263Y-34902D01*
X38362Y-34760D01*
X38455Y-34614D01*
X38543Y-34466D01*
X38626Y-34316D01*
X38703Y-34163D01*
X38775Y-34008D01*
X38842Y-33851D01*
X38903Y-33692D01*
X38958Y-33532D01*
X39008Y-33370D01*
X39052Y-33206D01*
X39090Y-33042D01*
X39122Y-32876D01*
X39148Y-32710D01*
X39168Y-32542D01*
X39181Y-32375D01*
X39188Y-32207D01*
X39190Y-32038D01*
X39184Y-31870D01*
X39172Y-31702D01*
X39153Y-31534D01*
X39128Y-31367D01*
X39096Y-31200D01*
X39057Y-31034D01*
X39011Y-30869D01*
X38958Y-30705D01*
X38898Y-30542D01*
X38830Y-30381D01*
X38756Y-30221D01*
X38674Y-30063D01*
X38585Y-29907D01*
X38488Y-29753D01*
X38384Y-29602D01*
X38272Y-29453D01*
X38152Y-29306D01*
X38025Y-29162D01*
X37890Y-29022D01*
X37818Y-28953D01*
X37740Y-28885D01*
X37657Y-28818D01*
X37569Y-28752D01*
X37476Y-28687D01*
X37379Y-28624D01*
X37277Y-28561D01*
X37171Y-28500D01*
X37062Y-28441D01*
X36948Y-28383D01*
X36832Y-28327D01*
X36712Y-28272D01*
X36589Y-28220D01*
X36464Y-28169D01*
X36337Y-28120D01*
X36207Y-28074D01*
X36075Y-28029D01*
X35942Y-27987D01*
X35808Y-27947D01*
X35672Y-27909D01*
X35536Y-27874D01*
X35398Y-27842D01*
X35261Y-27812D01*
X35123Y-27785D01*
X34985Y-27761D01*
X34848Y-27740D01*
X34712Y-27722D01*
X34576Y-27707D01*
X34441Y-27695D01*
X34308Y-27686D01*
X34176Y-27681D01*
X34046Y-27679D01*
D02*
G37*
G36*
X16119Y-27674D02*
X15960Y-27676D01*
X15811Y-27689D01*
X15670Y-27712D01*
X15537Y-27746D01*
X15414Y-27790D01*
X15298Y-27845D01*
X15191Y-27911D01*
X15092Y-27987D01*
X15000Y-28075D01*
X14917Y-28173D01*
X14841Y-28283D01*
X14772Y-28403D01*
X14711Y-28535D01*
X14657Y-28678D01*
X14610Y-28833D01*
X14569Y-28999D01*
X14536Y-29177D01*
X14509Y-29366D01*
X14488Y-29567D01*
X14473Y-29780D01*
X14464Y-30005D01*
X14461Y-30242D01*
X14466Y-30541D01*
X14481Y-30824D01*
X14506Y-31088D01*
X14541Y-31335D01*
X14586Y-31564D01*
X14640Y-31774D01*
X14703Y-31966D01*
X14776Y-32139D01*
X14857Y-32293D01*
X14948Y-32427D01*
X15048Y-32541D01*
X15156Y-32635D01*
X15272Y-32708D01*
X15397Y-32761D01*
X15531Y-32794D01*
X15673Y-32804D01*
X15840Y-32802D01*
X16006Y-32794D01*
X16168Y-32782D01*
X16328Y-32765D01*
X16486Y-32743D01*
X16640Y-32718D01*
X16791Y-32687D01*
X16940Y-32653D01*
X17086Y-32615D01*
X17228Y-32573D01*
X17367Y-32527D01*
X17503Y-32477D01*
X17636Y-32424D01*
X17765Y-32367D01*
X17890Y-32308D01*
X18012Y-32245D01*
X18131Y-32179D01*
X18246Y-32111D01*
X18357Y-32039D01*
X18464Y-31965D01*
X18567Y-31889D01*
X18666Y-31811D01*
X18761Y-31730D01*
X18852Y-31647D01*
X18939Y-31563D01*
X19021Y-31477D01*
X19099Y-31388D01*
X19173Y-31299D01*
X19242Y-31208D01*
X19306Y-31116D01*
X19366Y-31023D01*
X19421Y-30929D01*
X19471Y-30834D01*
X19516Y-30738D01*
X19557Y-30642D01*
X19592Y-30545D01*
X19622Y-30448D01*
X19647Y-30351D01*
X19667Y-30254D01*
X19681Y-30157D01*
X19690Y-30060D01*
X19694Y-29963D01*
X19692Y-29867D01*
X19684Y-29771D01*
X19671Y-29677D01*
X19652Y-29583D01*
X19627Y-29490D01*
X19596Y-29399D01*
X19559Y-29308D01*
X19516Y-29219D01*
X19467Y-29132D01*
X19411Y-29046D01*
X19350Y-28963D01*
X19282Y-28881D01*
X19207Y-28801D01*
X19126Y-28723D01*
X19039Y-28648D01*
X18944Y-28575D01*
X18843Y-28505D01*
X18736Y-28437D01*
X18621Y-28373D01*
X18499Y-28311D01*
X18371Y-28253D01*
X18235Y-28198D01*
X17978Y-28102D01*
X17731Y-28015D01*
X17495Y-27938D01*
X17269Y-27871D01*
X17053Y-27813D01*
X16847Y-27765D01*
X16651Y-27727D01*
X16464Y-27699D01*
X16287Y-27682D01*
X16119Y-27674D01*
D02*
G37*
G36*
X-2095Y-27887D02*
X-2209Y-27890D01*
X-2323Y-27898D01*
X-2437Y-27909D01*
X-2551Y-27924D01*
X-2666Y-27943D01*
X-2781Y-27966D01*
X-2895Y-27992D01*
X-3010Y-28023D01*
X-3124Y-28057D01*
X-3239Y-28095D01*
X-3353Y-28137D01*
X-3468Y-28182D01*
X-3582Y-28232D01*
X-3695Y-28286D01*
X-3809Y-28343D01*
X-3922Y-28404D01*
X-4035Y-28469D01*
X-4147Y-28538D01*
X-4259Y-28611D01*
X-4370Y-28688D01*
X-4481Y-28768D01*
X-4591Y-28853D01*
X-4701Y-28942D01*
X-4810Y-29034D01*
X-4918Y-29130D01*
X-5025Y-29231D01*
X-5132Y-29335D01*
X-5229Y-29433D01*
X-5324Y-29530D01*
X-5415Y-29626D01*
X-5504Y-29720D01*
X-5589Y-29814D01*
X-5672Y-29906D01*
X-5752Y-29998D01*
X-5828Y-30088D01*
X-5902Y-30178D01*
X-5973Y-30266D01*
X-6041Y-30354D01*
X-6106Y-30441D01*
X-6168Y-30527D01*
X-6228Y-30613D01*
X-6284Y-30698D01*
X-6337Y-30783D01*
X-6388Y-30867D01*
X-6436Y-30950D01*
X-6480Y-31033D01*
X-6522Y-31116D01*
X-6561Y-31199D01*
X-6597Y-31281D01*
X-6631Y-31363D01*
X-6661Y-31445D01*
X-6688Y-31527D01*
X-6713Y-31609D01*
X-6735Y-31690D01*
X-6754Y-31772D01*
X-6770Y-31854D01*
X-6783Y-31936D01*
X-6793Y-32018D01*
X-6801Y-32101D01*
X-6806Y-32184D01*
X-6807Y-32267D01*
X-6806Y-32350D01*
X-6803Y-32434D01*
X-6796Y-32519D01*
X-6787Y-32604D01*
X-6774Y-32690D01*
X-6759Y-32776D01*
X-6741Y-32863D01*
X-6721Y-32951D01*
X-6697Y-33040D01*
X-6671Y-33129D01*
X-6642Y-33219D01*
X-6610Y-33311D01*
X-6575Y-33403D01*
X-6538Y-33496D01*
X-6498Y-33591D01*
X-6455Y-33687D01*
X-6409Y-33784D01*
X-6360Y-33882D01*
X-6309Y-33981D01*
X-6255Y-34082D01*
X-6198Y-34184D01*
X-6139Y-34288D01*
X-6076Y-34393D01*
X-6011Y-34500D01*
X-5943Y-34609D01*
X-5873Y-34719D01*
X-5800Y-34831D01*
X-5724Y-34944D01*
X-5645Y-35059D01*
X-5563Y-35177D01*
X-5477Y-35297D01*
X-5388Y-35414D01*
X-5297Y-35526D01*
X-5204Y-35634D01*
X-5110Y-35738D01*
X-5013Y-35838D01*
X-4915Y-35935D01*
X-4815Y-36027D01*
X-4714Y-36115D01*
X-4611Y-36199D01*
X-4507Y-36279D01*
X-4401Y-36355D01*
X-4294Y-36427D01*
X-4186Y-36495D01*
X-4077Y-36559D01*
X-3966Y-36618D01*
X-3854Y-36674D01*
X-3742Y-36726D01*
X-3628Y-36774D01*
X-3514Y-36818D01*
X-3399Y-36858D01*
X-3283Y-36894D01*
X-3166Y-36926D01*
X-3049Y-36954D01*
X-2932Y-36978D01*
X-2813Y-36998D01*
X-2695Y-37014D01*
X-2576Y-37026D01*
X-2457Y-37034D01*
X-2338Y-37038D01*
X-2218Y-37038D01*
X-2099Y-37034D01*
X-1979Y-37027D01*
X-1860Y-37015D01*
X-1740Y-36999D01*
X-1621Y-36980D01*
X-1502Y-36956D01*
X-1384Y-36929D01*
X-1266Y-36897D01*
X-1148Y-36862D01*
X-1031Y-36823D01*
X-914Y-36779D01*
X-799Y-36732D01*
X-684Y-36681D01*
X-569Y-36626D01*
X-456Y-36567D01*
X-343Y-36504D01*
X-232Y-36438D01*
X-121Y-36367D01*
X-12Y-36293D01*
X97Y-36214D01*
X203Y-36132D01*
X309Y-36046D01*
X413Y-35956D01*
X516Y-35861D01*
X617Y-35764D01*
X717Y-35662D01*
X815Y-35556D01*
X911Y-35447D01*
X1006Y-35333D01*
X1098Y-35216D01*
X1189Y-35095D01*
X1278Y-34970D01*
X1365Y-34841D01*
X1484Y-34658D01*
X1595Y-34483D01*
X1700Y-34316D01*
X1796Y-34157D01*
X1885Y-34004D01*
X1967Y-33857D01*
X2042Y-33716D01*
X2109Y-33580D01*
X2168Y-33448D01*
X2220Y-33320D01*
X2265Y-33196D01*
X2303Y-33074D01*
X2334Y-32955D01*
X2357Y-32837D01*
X2373Y-32721D01*
X2382Y-32605D01*
X2384Y-32489D01*
X2378Y-32372D01*
X2366Y-32254D01*
X2346Y-32134D01*
X2319Y-32012D01*
X2286Y-31887D01*
X2245Y-31759D01*
X2198Y-31627D01*
X2143Y-31490D01*
X2082Y-31348D01*
X2013Y-31200D01*
X1938Y-31046D01*
X1856Y-30886D01*
X1767Y-30718D01*
X1672Y-30542D01*
X1569Y-30357D01*
X1493Y-30225D01*
X1416Y-30096D01*
X1337Y-29971D01*
X1256Y-29850D01*
X1173Y-29732D01*
X1089Y-29618D01*
X1003Y-29507D01*
X916Y-29400D01*
X827Y-29297D01*
X736Y-29197D01*
X645Y-29100D01*
X552Y-29008D01*
X457Y-28919D01*
X362Y-28833D01*
X265Y-28752D01*
X167Y-28674D01*
X68Y-28599D01*
X-33Y-28528D01*
X-134Y-28461D01*
X-236Y-28398D01*
X-340Y-28338D01*
X-444Y-28282D01*
X-549Y-28229D01*
X-655Y-28181D01*
X-763Y-28136D01*
X-870Y-28094D01*
X-979Y-28057D01*
X-1088Y-28023D01*
X-1198Y-27993D01*
X-1308Y-27966D01*
X-1419Y-27944D01*
X-1531Y-27925D01*
X-1643Y-27910D01*
X-1755Y-27898D01*
X-1868Y-27891D01*
X-1981Y-27887D01*
X-2095Y-27887D01*
D02*
G37*
G36*
X2234Y-52450D02*
X2149Y-52516D01*
X2012Y-52701D01*
X1831Y-52991D01*
X1614Y-53369D01*
X1370Y-53818D01*
X1105Y-54323D01*
X828Y-54868D01*
X547Y-55436D01*
X269Y-56011D01*
X2Y-56578D01*
X-245Y-57119D01*
X-465Y-57619D01*
X-649Y-58062D01*
X-791Y-58431D01*
X-882Y-58711D01*
X-914Y-58885D01*
X-905Y-58926D01*
X-879Y-58965D01*
X-837Y-59004D01*
X-779Y-59040D01*
X-707Y-59075D01*
X-621Y-59108D01*
X-523Y-59138D01*
X-412Y-59166D01*
X-291Y-59192D01*
X-159Y-59215D01*
X-18Y-59235D01*
X131Y-59252D01*
X288Y-59265D01*
X451Y-59275D01*
X620Y-59281D01*
X794Y-59283D01*
X925Y-59282D01*
X1048Y-59276D01*
X1165Y-59267D01*
X1277Y-59253D01*
X1382Y-59235D01*
X1481Y-59212D01*
X1574Y-59184D01*
X1662Y-59150D01*
X1744Y-59110D01*
X1822Y-59064D01*
X1894Y-59012D01*
X1961Y-58953D01*
X2023Y-58887D01*
X2081Y-58813D01*
X2134Y-58732D01*
X2183Y-58643D01*
X2227Y-58545D01*
X2268Y-58439D01*
X2305Y-58324D01*
X2338Y-58199D01*
X2367Y-58065D01*
X2393Y-57921D01*
X2416Y-57767D01*
X2436Y-57602D01*
X2453Y-57426D01*
X2467Y-57239D01*
X2479Y-57041D01*
X2488Y-56831D01*
X2495Y-56609D01*
X2499Y-56374D01*
X2502Y-56127D01*
X2503Y-55867D01*
X2497Y-55181D01*
X2482Y-54540D01*
X2457Y-53960D01*
X2424Y-53454D01*
X2384Y-53036D01*
X2338Y-52720D01*
X2288Y-52520D01*
X2234Y-52450D01*
D02*
G37*
%LPD*%
D10*
X329000Y48998D02*
X325668D01*
X327334D01*
Y40668D01*
X325668Y39002D01*
X324002D01*
X322336Y40668D01*
X332332Y39002D02*
X335664D01*
X333998D01*
Y48998D01*
X332332Y47332D01*
X216334Y255998D02*
X213002D01*
X214668D01*
Y247668D01*
X213002Y246002D01*
X211336D01*
X209669Y247668D01*
X219666D02*
X221332Y246002D01*
X224664D01*
X226331Y247668D01*
Y254332D01*
X224664Y255998D01*
X221332D01*
X219666Y254332D01*
Y252666D01*
X221332Y251000D01*
X226331D01*
X1334Y332998D02*
X-1998D01*
X-332D01*
Y324668D01*
X-1998Y323002D01*
X-3665D01*
X-5331Y324668D01*
X4666Y331332D02*
X6332Y332998D01*
X9664D01*
X11331Y331332D01*
Y329666D01*
X9664Y328000D01*
X11331Y326334D01*
Y324668D01*
X9664Y323002D01*
X6332D01*
X4666Y324668D01*
Y326334D01*
X6332Y328000D01*
X4666Y329666D01*
Y331332D01*
X6332Y328000D02*
X9664D01*
X-211666Y265998D02*
X-214998D01*
X-213332D01*
Y257668D01*
X-214998Y256002D01*
X-216665D01*
X-218331Y257668D01*
X-208334Y265998D02*
X-201669D01*
Y264332D01*
X-208334Y257668D01*
Y256002D01*
X-326666Y73998D02*
X-329998D01*
X-328332D01*
Y65668D01*
X-329998Y64002D01*
X-331665D01*
X-333331Y65668D01*
X-316669Y73998D02*
X-320002Y72332D01*
X-323334Y69000D01*
Y65668D01*
X-321668Y64002D01*
X-318335D01*
X-316669Y65668D01*
Y67334D01*
X-318335Y69000D01*
X-323334D01*
X-294666Y-148002D02*
X-297998D01*
X-296332D01*
Y-156332D01*
X-297998Y-157998D01*
X-299664D01*
X-301331Y-156332D01*
X-284669Y-148002D02*
X-291334D01*
Y-153000D01*
X-288002Y-151334D01*
X-286336D01*
X-284669Y-153000D01*
Y-156332D01*
X-286336Y-157998D01*
X-289668D01*
X-291334Y-156332D01*
X-118666Y-307002D02*
X-121998D01*
X-120332D01*
Y-315332D01*
X-121998Y-316998D01*
X-123665D01*
X-125331Y-315332D01*
X-110336Y-316998D02*
Y-307002D01*
X-115334Y-312000D01*
X-108669D01*
X109334Y-308002D02*
X106002D01*
X107668D01*
Y-316332D01*
X106002Y-317998D01*
X104335D01*
X102669Y-316332D01*
X112666Y-309668D02*
X114332Y-308002D01*
X117664D01*
X119331Y-309668D01*
Y-311334D01*
X117664Y-313000D01*
X115998D01*
X117664D01*
X119331Y-314666D01*
Y-316332D01*
X117664Y-317998D01*
X114332D01*
X112666Y-316332D01*
X281334Y-169002D02*
X278002D01*
X279668D01*
Y-177332D01*
X278002Y-178998D01*
X276336D01*
X274669Y-177332D01*
X291331Y-178998D02*
X284666D01*
X291331Y-172334D01*
Y-170668D01*
X289664Y-169002D01*
X286332D01*
X284666Y-170668D01*
X133972Y182847D02*
X138684Y178134D01*
X136328Y180491D01*
X129259Y173422D01*
X144575Y172244D02*
X142219Y174600D01*
X139862D01*
X135150Y169888D01*
Y167531D01*
X137506Y165175D01*
X139862D01*
X144575Y169888D01*
X144575Y172244D01*
X148109Y168709D02*
X142219Y162819D01*
Y160462D01*
X144575Y158106D01*
X146931Y158106D01*
X152822Y163997D01*
X158713Y155750D02*
X158713Y158106D01*
X156356Y160462D01*
X154000D01*
X149288Y155750D01*
Y153394D01*
X151644Y151037D01*
X154000Y151038D01*
X162247Y154572D02*
X155178Y147503D01*
X158713Y151037D01*
X163425Y146325D01*
X166959Y149859D01*
X159891Y142790D01*
X170494Y134544D02*
Y132187D01*
X172850Y129831D01*
X175206D01*
X179919Y134544D01*
Y136900D01*
X177563Y139256D01*
X175206D01*
X174028Y138078D01*
X174028Y135722D01*
X177563Y132187D01*
X-187347Y135722D02*
X-182635Y140434D01*
X-184991Y138078D01*
X-177922Y131009D01*
X-176744Y146325D02*
X-179100Y143969D01*
Y141612D01*
X-174388Y136900D01*
X-172031D01*
X-169675Y139256D01*
Y141612D01*
X-174388Y146325D01*
X-176744Y146325D01*
X-173209Y149859D02*
X-167319Y143969D01*
X-164963D01*
X-162606Y146325D01*
X-162606Y148681D01*
X-168497Y154572D01*
X-160250Y160462D02*
X-162606Y160463D01*
X-164963Y158106D01*
Y155750D01*
X-160250Y151038D01*
X-157894D01*
X-155538Y153394D01*
X-155538Y155750D01*
X-159072Y163997D02*
X-152003Y156928D01*
X-155538Y160463D01*
X-150825Y165175D01*
X-154359Y168710D01*
X-147291Y161641D01*
X-143756Y176956D02*
Y179313D01*
X-141400Y181669D01*
X-139044D01*
X-137865Y180491D01*
Y178134D01*
X-135509Y178134D01*
X-134331Y176956D01*
X-134331Y174600D01*
X-136687Y172244D01*
X-139044D01*
X-140222Y173422D01*
Y175778D01*
X-142578Y175778D01*
X-143756Y176956D01*
X-140222Y175778D02*
X-137865Y178134D01*
X-137472Y-185597D02*
X-142184Y-180884D01*
X-139828Y-183241D01*
X-132759Y-176172D01*
X-148075Y-174994D02*
X-145719Y-177350D01*
X-143362D01*
X-138650Y-172638D01*
Y-170281D01*
X-141006Y-167925D01*
X-143362D01*
X-148075Y-172638D01*
X-148075Y-174994D01*
X-151609Y-171459D02*
X-145719Y-165569D01*
Y-163213D01*
X-148075Y-160856D01*
X-150431Y-160856D01*
X-156322Y-166747D01*
X-162213Y-158500D02*
X-162213Y-160856D01*
X-159856Y-163213D01*
X-157500D01*
X-152788Y-158500D01*
Y-156144D01*
X-155144Y-153787D01*
X-157500Y-153787D01*
X-165747Y-157322D02*
X-158678Y-150253D01*
X-162213Y-153787D01*
X-166925Y-149075D01*
X-170459Y-152609D01*
X-163391Y-145541D01*
X-184597Y-138472D02*
X-181063Y-139650D01*
X-176350D01*
X-173994Y-137294D01*
Y-134937D01*
X-176350Y-132581D01*
X-178706D01*
X-179884Y-133759D01*
X-179884Y-136116D01*
X-176350Y-139650D01*
X183419Y-141650D02*
X178706Y-146362D01*
X181063Y-144006D01*
X173994Y-136937D01*
X172816Y-152253D02*
X175172Y-149897D01*
Y-147541D01*
X170459Y-142828D01*
X168103D01*
X165747Y-145184D01*
Y-147541D01*
X170459Y-152253D01*
X172816Y-152253D01*
X169281Y-155787D02*
X163391Y-149897D01*
X161034D01*
X158678Y-152253D01*
X158678Y-154609D01*
X164569Y-160500D01*
X156322Y-166391D02*
X158678Y-166391D01*
X161034Y-164034D01*
Y-161678D01*
X156322Y-156966D01*
X153966D01*
X151609Y-159322D01*
X151609Y-161678D01*
X155144Y-169925D02*
X148075Y-162856D01*
X151609Y-166391D01*
X146897Y-171103D01*
X150431Y-174638D01*
X143362Y-167569D01*
X133937Y-176994D02*
X131581Y-179350D01*
X132759Y-178172D01*
X139828Y-185241D01*
Y-182885D01*
M02*
