G04*
G04 #@! TF.GenerationSoftware,Altium Limited,Altium Designer,21.7.2 (23)*
G04*
G04 Layer_Color=32896*
%FSLAX25Y25*%
%MOIN*%
G70*
G04*
G04 #@! TF.SameCoordinates,4EB03F82-40D2-4175-A11E-0564D1C33967*
G04*
G04*
G04 #@! TF.FilePolarity,Positive*
G04*
G01*
G75*
%ADD10C,0.00787*%
%ADD79C,0.01968*%
%ADD119C,0.00591*%
D10*
X116142Y30906D02*
G03*
X116142Y30906I-15748J0D01*
G01*
X40945Y63976D02*
X49606Y63976D01*
X40945Y63976D02*
X40945Y61221D01*
X49606D01*
X49606Y63976D02*
X49606Y61221D01*
X-58563Y45079D02*
Y47835D01*
X-49902D01*
Y45079D02*
Y47835D01*
X-58563Y45079D02*
X-49902D01*
X-49803Y-58465D02*
X-47047D01*
X-49803D02*
Y-49803D01*
X-47047D01*
Y-58465D02*
Y-49803D01*
X58464Y-45472D02*
X58464Y-48228D01*
X49803Y-48228D02*
X58464Y-48228D01*
X49803Y-45472D02*
X49803Y-48228D01*
X49803Y-45472D02*
X58464Y-45472D01*
X92520Y119684D02*
X93832D01*
X94488Y119028D01*
Y116404D01*
X93832Y115748D01*
X92520D01*
X91864Y116404D01*
Y119028D01*
X92520Y119684D01*
X90552D02*
Y116404D01*
X89897Y115748D01*
X88585D01*
X87929Y116404D01*
Y119684D01*
X86617D02*
X83993D01*
X85305D01*
Y115748D01*
X87795Y-92127D02*
X86483D01*
X87139D01*
Y-96063D01*
X87795D01*
X86483D01*
X82548Y-92127D02*
X83859D01*
X84516Y-92783D01*
Y-95407D01*
X83859Y-96063D01*
X82548D01*
X81892Y-95407D01*
Y-92783D01*
X82548Y-92127D01*
X93701Y-108269D02*
X92389D01*
X93045D01*
Y-112205D01*
X93701D01*
X92389D01*
X90421D02*
Y-108269D01*
X87797Y-112205D01*
Y-108269D01*
X135433Y-70080D02*
Y-72704D01*
X134121Y-74016D01*
X132809Y-72704D01*
Y-70080D01*
X131497D02*
Y-74016D01*
X129530D01*
X128874Y-73360D01*
Y-70736D01*
X129530Y-70080D01*
X131497D01*
X127562D02*
Y-74016D01*
X125594D01*
X124938Y-73360D01*
Y-70736D01*
X125594Y-70080D01*
X127562D01*
X109187Y-66930D02*
X111811D01*
Y-68898D01*
X110499Y-68242D01*
X109843D01*
X109187Y-68898D01*
Y-70210D01*
X109843Y-70866D01*
X111155D01*
X111811Y-70210D01*
X107875Y-66930D02*
Y-69554D01*
X106563Y-70866D01*
X105252Y-69554D01*
Y-66930D01*
X42913Y-122442D02*
X41601D01*
X42257D01*
Y-126378D01*
X42913D01*
X41601D01*
X37666Y-122442D02*
X38978D01*
X39634Y-123098D01*
Y-125722D01*
X38978Y-126378D01*
X37666D01*
X37010Y-125722D01*
Y-123098D01*
X37666Y-122442D01*
X55906Y-134253D02*
X57218D01*
X57874Y-134909D01*
Y-137533D01*
X57218Y-138189D01*
X55906D01*
X55250Y-137533D01*
Y-134909D01*
X55906Y-134253D01*
X53938D02*
Y-137533D01*
X53282Y-138189D01*
X51970D01*
X51315Y-137533D01*
Y-134253D01*
X50002D02*
X47379D01*
X48691D01*
Y-138189D01*
X1969Y-142915D02*
Y-145538D01*
X657Y-146850D01*
X-655Y-145538D01*
Y-142915D01*
X-1967D02*
Y-146850D01*
X-3935D01*
X-4591Y-146194D01*
Y-143571D01*
X-3935Y-142915D01*
X-1967D01*
X-5903D02*
Y-146850D01*
X-7871D01*
X-8527Y-146194D01*
Y-143571D01*
X-7871Y-142915D01*
X-5903D01*
X3675Y-126773D02*
X6299D01*
Y-128741D01*
X4987Y-128085D01*
X4331D01*
X3675Y-128741D01*
Y-130053D01*
X4331Y-130709D01*
X5643D01*
X6299Y-130053D01*
X2363Y-126773D02*
Y-129397D01*
X1052Y-130709D01*
X-260Y-129397D01*
Y-126773D01*
X-78347Y-101970D02*
X-79658D01*
X-79002D01*
Y-105905D01*
X-78347D01*
X-79658D01*
X-83594Y-101970D02*
X-82282D01*
X-81626Y-102626D01*
Y-105250D01*
X-82282Y-105905D01*
X-83594D01*
X-84250Y-105250D01*
Y-102626D01*
X-83594Y-101970D01*
X-91339Y-109450D02*
X-92651D01*
X-91995D01*
Y-113386D01*
X-91339D01*
X-92651D01*
X-94618D02*
Y-109450D01*
X-97242Y-113386D01*
Y-109450D01*
X-41732Y-134647D02*
Y-137271D01*
X-43044Y-138583D01*
X-44356Y-137271D01*
Y-134647D01*
X-45668D02*
Y-138583D01*
X-47636D01*
X-48292Y-137927D01*
Y-135303D01*
X-47636Y-134647D01*
X-45668D01*
X-49604D02*
Y-138583D01*
X-51572D01*
X-52228Y-137927D01*
Y-135303D01*
X-51572Y-134647D01*
X-49604D01*
X-48293Y-118505D02*
X-45669D01*
Y-120473D01*
X-46981Y-119817D01*
X-47637D01*
X-48293Y-120473D01*
Y-121785D01*
X-47637Y-122441D01*
X-46325D01*
X-45669Y-121785D01*
X-49605Y-118505D02*
Y-121129D01*
X-50917Y-122441D01*
X-52229Y-121129D01*
Y-118505D01*
X-77559Y104723D02*
X-78871D01*
X-78215D01*
Y100787D01*
X-77559D01*
X-78871D01*
X-82807Y104723D02*
X-81495D01*
X-80839Y104067D01*
Y101443D01*
X-81495Y100787D01*
X-82807D01*
X-83463Y101443D01*
Y104067D01*
X-82807Y104723D01*
X-93306Y112597D02*
X-91995D01*
X-91339Y111941D01*
Y109317D01*
X-91995Y108661D01*
X-93306D01*
X-93962Y109317D01*
Y111941D01*
X-93306Y112597D01*
X-95274D02*
Y109317D01*
X-95930Y108661D01*
X-97242D01*
X-97898Y109317D01*
Y112597D01*
X-99210D02*
X-101834D01*
X-100522D01*
Y108661D01*
X-40945Y137400D02*
Y134776D01*
X-42257Y133465D01*
X-43569Y134776D01*
Y137400D01*
X-44881D02*
Y133465D01*
X-46848D01*
X-47504Y134121D01*
Y136744D01*
X-46848Y137400D01*
X-44881D01*
X-48816D02*
Y133465D01*
X-50784D01*
X-51440Y134121D01*
Y136744D01*
X-50784Y137400D01*
X-48816D01*
X-49081Y121259D02*
X-46457D01*
Y119291D01*
X-47769Y119947D01*
X-48425D01*
X-49081Y119291D01*
Y117979D01*
X-48425Y117323D01*
X-47113D01*
X-46457Y117979D01*
X-50392Y121259D02*
Y118635D01*
X-51704Y117323D01*
X-53016Y118635D01*
Y121259D01*
X-111811Y61810D02*
X-113123D01*
X-112467D01*
Y57874D01*
X-111811D01*
X-113123D01*
X-117059Y61810D02*
X-115747D01*
X-115091Y61154D01*
Y58530D01*
X-115747Y57874D01*
X-117059D01*
X-117715Y58530D01*
Y61154D01*
X-117059Y61810D01*
X-120472Y74015D02*
X-121784D01*
X-121128D01*
Y70079D01*
X-120472D01*
X-121784D01*
X-123752D02*
Y74015D01*
X-126376Y70079D01*
Y74015D01*
X-141732Y24408D02*
Y21784D01*
X-143044Y20472D01*
X-144356Y21784D01*
Y24408D01*
X-145668D02*
Y20472D01*
X-147636D01*
X-148292Y21128D01*
Y23752D01*
X-147636Y24408D01*
X-145668D01*
X-149604D02*
Y20472D01*
X-151572D01*
X-152228Y21128D01*
Y23752D01*
X-151572Y24408D01*
X-149604D01*
X-125852Y29526D02*
X-123228D01*
Y27558D01*
X-124540Y28214D01*
X-125196D01*
X-125852Y27558D01*
Y26247D01*
X-125196Y25591D01*
X-123884D01*
X-123228Y26247D01*
X-127164Y29526D02*
Y26902D01*
X-128476Y25591D01*
X-129788Y26902D01*
Y29526D01*
X-112205Y-57482D02*
X-113517D01*
X-112861D01*
Y-61417D01*
X-112205D01*
X-113517D01*
X-117452Y-57482D02*
X-116140D01*
X-115484Y-58138D01*
Y-60761D01*
X-116140Y-61417D01*
X-117452D01*
X-118108Y-60761D01*
Y-58138D01*
X-117452Y-57482D01*
X-119684Y-70867D02*
X-118372D01*
X-117717Y-71523D01*
Y-74147D01*
X-118372Y-74803D01*
X-119684D01*
X-120340Y-74147D01*
Y-71523D01*
X-119684Y-70867D01*
X-121652D02*
Y-74147D01*
X-122308Y-74803D01*
X-123620D01*
X-124276Y-74147D01*
Y-70867D01*
X-125588D02*
X-128212D01*
X-126900D01*
Y-74803D01*
X-136614Y-22049D02*
Y-24672D01*
X-137926Y-25984D01*
X-139238Y-24672D01*
Y-22049D01*
X-140550D02*
Y-25984D01*
X-142518D01*
X-143174Y-25328D01*
Y-22704D01*
X-142518Y-22049D01*
X-140550D01*
X-144486D02*
Y-25984D01*
X-146453D01*
X-147109Y-25328D01*
Y-22704D01*
X-146453Y-22049D01*
X-144486D01*
X-126246Y-25198D02*
X-123622D01*
Y-27166D01*
X-124934Y-26510D01*
X-125590D01*
X-126246Y-27166D01*
Y-28478D01*
X-125590Y-29134D01*
X-124278D01*
X-123622Y-28478D01*
X-127558Y-25198D02*
Y-27822D01*
X-128870Y-29134D01*
X-130182Y-27822D01*
Y-25198D01*
X43307Y123227D02*
X41995D01*
X42651D01*
Y119291D01*
X43307D01*
X41995D01*
X38059Y123227D02*
X39371D01*
X40027Y122571D01*
Y119947D01*
X39371Y119291D01*
X38059D01*
X37404Y119947D01*
Y122571D01*
X38059Y123227D01*
X53937Y137400D02*
X52625D01*
X53281D01*
Y133465D01*
X53937D01*
X52625D01*
X50657D02*
Y137400D01*
X48033Y133465D01*
Y137400D01*
X1181Y145668D02*
Y143044D01*
X-131Y141732D01*
X-1443Y143044D01*
Y145668D01*
X-2755D02*
Y141732D01*
X-4722D01*
X-5378Y142388D01*
Y145012D01*
X-4722Y145668D01*
X-2755D01*
X-6690D02*
Y141732D01*
X-8658D01*
X-9314Y142388D01*
Y145012D01*
X-8658Y145668D01*
X-6690D01*
X4069Y130707D02*
X6693D01*
Y128740D01*
X5381Y129395D01*
X4725D01*
X4069Y128740D01*
Y127428D01*
X4725Y126772D01*
X6037D01*
X6693Y127428D01*
X2757Y130707D02*
Y128084D01*
X1445Y126772D01*
X133Y128084D01*
Y130707D01*
X130807Y18207D02*
X129495D01*
X130151D01*
Y14272D01*
X130807D01*
X129495D01*
X125559Y18207D02*
X126871D01*
X127527Y17551D01*
Y14928D01*
X126871Y14272D01*
X125559D01*
X124904Y14928D01*
Y17551D01*
X125559Y18207D01*
X142914Y25983D02*
X144226D01*
X144882Y25327D01*
Y22703D01*
X144226Y22047D01*
X142914D01*
X142258Y22703D01*
Y25327D01*
X142914Y25983D01*
X140946D02*
Y22703D01*
X140290Y22047D01*
X138978D01*
X138322Y22703D01*
Y25983D01*
X137010D02*
X134387D01*
X135698D01*
Y22047D01*
X144882Y-21261D02*
Y-23885D01*
X143570Y-25197D01*
X142258Y-23885D01*
Y-21261D01*
X140946D02*
Y-25197D01*
X138978D01*
X138322Y-24541D01*
Y-21917D01*
X138978Y-21261D01*
X140946D01*
X137010D02*
Y-25197D01*
X135043D01*
X134387Y-24541D01*
Y-21917D01*
X135043Y-21261D01*
X137010D01*
X126805Y-13682D02*
X129429D01*
Y-15650D01*
X128117Y-14994D01*
X127461D01*
X126805Y-15650D01*
Y-16962D01*
X127461Y-17618D01*
X128773D01*
X129429Y-16962D01*
X125493Y-13682D02*
Y-16306D01*
X124181Y-17618D01*
X122870Y-16306D01*
Y-13682D01*
X91352Y99640D02*
X90040D01*
X90696D01*
Y95704D01*
X91352D01*
X90040D01*
X86105Y99640D02*
X87417D01*
X88073Y98984D01*
Y96360D01*
X87417Y95704D01*
X86105D01*
X85449Y96360D01*
Y98984D01*
X86105Y99640D01*
X134646Y74408D02*
Y71784D01*
X133334Y70472D01*
X132022Y71784D01*
Y74408D01*
X130710D02*
Y70472D01*
X128742D01*
X128086Y71128D01*
Y73752D01*
X128742Y74408D01*
X130710D01*
X126774D02*
Y70472D01*
X124806D01*
X124150Y71128D01*
Y73752D01*
X124806Y74408D01*
X126774D01*
X111549Y72046D02*
X114173D01*
Y70078D01*
X112861Y70734D01*
X112205D01*
X111549Y70078D01*
Y68766D01*
X112205Y68110D01*
X113517D01*
X114173Y68766D01*
X110238Y72046D02*
Y69422D01*
X108926Y68110D01*
X107614Y69422D01*
Y72046D01*
X-26967Y56939D02*
Y55627D01*
Y56283D01*
X-23031D01*
Y56939D01*
Y55627D01*
X-26967Y53659D02*
X-23031D01*
Y51035D01*
X-26967Y47756D02*
Y49068D01*
X-26311Y49724D01*
X-23687D01*
X-23031Y49068D01*
Y47756D01*
X-23687Y47100D01*
X-26311D01*
X-26967Y47756D01*
X-23031Y45788D02*
X-26967D01*
Y43820D01*
X-26311Y43164D01*
X-24999D01*
X-24343Y43820D01*
Y45788D01*
Y44476D02*
X-23031Y43164D01*
X-26967Y41852D02*
X-23031D01*
Y39884D01*
X-23687Y39228D01*
X-26311D01*
X-26967Y39884D01*
Y41852D01*
X-23031Y37916D02*
X-25655D01*
X-26967Y36604D01*
X-25655Y35293D01*
X-23031D01*
X-24999D01*
Y37916D01*
X-26311Y31357D02*
X-26967Y32013D01*
Y33325D01*
X-26311Y33981D01*
X-25655D01*
X-24999Y33325D01*
Y32013D01*
X-24343Y31357D01*
X-23687D01*
X-23031Y32013D01*
Y33325D01*
X-23687Y33981D01*
X-26967Y30045D02*
X-23031D01*
X-24999D01*
Y27421D01*
X-26967D01*
X-23031D01*
X-26967Y22173D02*
X-23031D01*
X-24999D01*
Y19549D01*
X-26967D01*
X-23031D01*
Y18238D02*
X-25655D01*
X-26967Y16926D01*
X-25655Y15614D01*
X-23031D01*
X-24999D01*
Y18238D01*
X-23687Y11678D02*
X-26311D01*
X-26967Y12334D01*
Y13646D01*
X-26311Y14302D01*
X-23687D01*
X-23031Y13646D01*
Y12334D01*
X-24343Y12990D02*
X-23031Y11678D01*
Y12334D02*
X-23687Y11678D01*
X-25655Y10366D02*
X-23687D01*
X-23031Y9710D01*
Y7742D01*
X-25655D01*
X-26967Y6430D02*
X-23031D01*
Y4462D01*
X-23687Y3807D01*
X-26311D01*
X-26967Y4462D01*
Y6430D01*
X-23031Y2495D02*
X-25655D01*
X-26967Y1183D01*
X-25655Y-129D01*
X-23031D01*
X-24999D01*
Y2495D01*
X-26967Y-5377D02*
X-23687D01*
X-23031Y-6033D01*
Y-7345D01*
X-23687Y-8001D01*
X-26967D01*
X-23031Y-9313D02*
X-26967D01*
Y-11281D01*
X-26311Y-11936D01*
X-24999D01*
X-24343Y-11281D01*
Y-9313D01*
X-23031Y-13248D02*
X-26967D01*
Y-15216D01*
X-26311Y-15872D01*
X-24999D01*
X-24343Y-15216D01*
Y-13248D01*
X-26967Y-19808D02*
Y-17184D01*
X-23031D01*
Y-19808D01*
X-24999Y-17184D02*
Y-18496D01*
X-23031Y-21120D02*
X-26967D01*
Y-23088D01*
X-26311Y-23744D01*
X-24999D01*
X-24343Y-23088D01*
Y-21120D01*
Y-22432D02*
X-23031Y-23744D01*
Y-28991D02*
X-26967D01*
Y-30959D01*
X-26311Y-31615D01*
X-24999D01*
X-24343Y-30959D01*
Y-28991D01*
X-26311Y-35551D02*
X-26967Y-34895D01*
Y-33583D01*
X-26311Y-32927D01*
X-23687D01*
X-23031Y-33583D01*
Y-34895D01*
X-23687Y-35551D01*
X-26967Y-36863D02*
X-23031D01*
Y-38831D01*
X-23687Y-39487D01*
X-24343D01*
X-24999Y-38831D01*
Y-36863D01*
Y-38831D01*
X-25655Y-39487D01*
X-26311D01*
X-26967Y-38831D01*
Y-36863D01*
X59382Y56594D02*
Y53314D01*
X58726Y52658D01*
X57414D01*
X56758Y53314D01*
Y56594D01*
X53478Y52658D02*
Y56594D01*
X55446Y54626D01*
X52823D01*
X33200Y77953D02*
Y80577D01*
X31888Y81889D01*
X30576Y80577D01*
Y77953D01*
Y79921D01*
X33200D01*
X29264Y81889D02*
Y77953D01*
Y79921D01*
X26640D01*
Y81889D01*
Y77953D01*
X25328Y81889D02*
Y77953D01*
X22704D01*
X21393Y81889D02*
Y77953D01*
X19425D01*
X18769Y78609D01*
Y79265D01*
X19425Y79921D01*
X21393D01*
X19425D01*
X18769Y80577D01*
Y81233D01*
X19425Y81889D01*
X21393D01*
X67846D02*
X65222D01*
X66534D01*
Y77953D01*
X61942Y81889D02*
X63254D01*
X63910Y81233D01*
Y78609D01*
X63254Y77953D01*
X61942D01*
X61286Y78609D01*
Y81233D01*
X61942Y81889D01*
X57351Y81233D02*
X58007Y81889D01*
X59319D01*
X59975Y81233D01*
Y78609D01*
X59319Y77953D01*
X58007D01*
X57351Y78609D01*
Y79921D01*
X58663D01*
X-66407Y58662D02*
Y61286D01*
X-67718Y62598D01*
X-69030Y61286D01*
Y58662D01*
Y60630D01*
X-66407D01*
X-70342Y62598D02*
Y58662D01*
Y60630D01*
X-72966D01*
Y62598D01*
Y58662D01*
X-74278Y62598D02*
Y58662D01*
X-76902D01*
X-78214Y62598D02*
Y58662D01*
X-80182D01*
X-80838Y59318D01*
Y59974D01*
X-80182Y60630D01*
X-78214D01*
X-80182D01*
X-80838Y61286D01*
Y61942D01*
X-80182Y62598D01*
X-78214D01*
X-31760D02*
X-34384D01*
X-33072D01*
Y58662D01*
X-37664Y62598D02*
X-36352D01*
X-35696Y61942D01*
Y59318D01*
X-36352Y58662D01*
X-37664D01*
X-38320Y59318D01*
Y61942D01*
X-37664Y62598D01*
X-42255Y61942D02*
X-41600Y62598D01*
X-40288D01*
X-39632Y61942D01*
Y59318D01*
X-40288Y58662D01*
X-41600D01*
X-42255Y59318D01*
Y60630D01*
X-40944D01*
X-56367Y-70373D02*
Y-67750D01*
X-57679Y-66438D01*
X-58991Y-67750D01*
Y-70373D01*
Y-68405D01*
X-56367D01*
X-60303Y-66438D02*
Y-70373D01*
Y-68405D01*
X-62927D01*
Y-66438D01*
Y-70373D01*
X-64239Y-66438D02*
Y-70373D01*
X-66862D01*
X-68174Y-66438D02*
Y-70373D01*
X-70142D01*
X-70798Y-69717D01*
Y-69061D01*
X-70142Y-68405D01*
X-68174D01*
X-70142D01*
X-70798Y-67750D01*
Y-67094D01*
X-70142Y-66438D01*
X-68174D01*
X-58729Y-37697D02*
X-61352D01*
X-60041D01*
Y-41633D01*
X-64632Y-37697D02*
X-63320D01*
X-62665Y-38353D01*
Y-40977D01*
X-63320Y-41633D01*
X-64632D01*
X-65288Y-40977D01*
Y-38353D01*
X-64632Y-37697D01*
X-69224Y-38353D02*
X-68568Y-37697D01*
X-67256D01*
X-66600Y-38353D01*
Y-40977D01*
X-67256Y-41633D01*
X-68568D01*
X-69224Y-40977D01*
Y-39665D01*
X-67912D01*
X80345Y-65649D02*
Y-63025D01*
X79033Y-61713D01*
X77722Y-63025D01*
Y-65649D01*
Y-63681D01*
X80345D01*
X76410Y-61713D02*
Y-65649D01*
Y-63681D01*
X73786D01*
Y-61713D01*
Y-65649D01*
X72474Y-61713D02*
Y-65649D01*
X69850D01*
X68538Y-61713D02*
Y-65649D01*
X66570D01*
X65914Y-64993D01*
Y-64337D01*
X66570Y-63681D01*
X68538D01*
X66570D01*
X65914Y-63025D01*
Y-62369D01*
X66570Y-61713D01*
X68538D01*
X42551Y-61418D02*
X39927D01*
X41239D01*
Y-65354D01*
X36647Y-61418D02*
X37959D01*
X38615Y-62074D01*
Y-64698D01*
X37959Y-65354D01*
X36647D01*
X35991Y-64698D01*
Y-62074D01*
X36647Y-61418D01*
X32056Y-62074D02*
X32711Y-61418D01*
X34023D01*
X34679Y-62074D01*
Y-64698D01*
X34023Y-65354D01*
X32711D01*
X32056Y-64698D01*
Y-63386D01*
X33367D01*
X-40323Y39369D02*
Y36090D01*
X-40979Y35434D01*
X-42290D01*
X-42946Y36090D01*
Y39369D01*
X-44258Y38713D02*
X-44914Y39369D01*
X-46226D01*
X-46882Y38713D01*
Y38058D01*
X-46226Y37402D01*
X-45570D01*
X-46226D01*
X-46882Y36746D01*
Y36090D01*
X-46226Y35434D01*
X-44914D01*
X-44258Y36090D01*
X-34122Y-41733D02*
Y-45013D01*
X-34778Y-45669D01*
X-36090D01*
X-36746Y-45013D01*
Y-41733D01*
X-40681Y-45669D02*
X-38058D01*
X-40681Y-43045D01*
Y-42389D01*
X-40025Y-41733D01*
X-38713D01*
X-38058Y-42389D01*
X45243Y41962D02*
X45899Y42617D01*
X47210D01*
X47866Y41962D01*
Y39338D01*
X47210Y38682D01*
X45899D01*
X45243Y39338D01*
X43931D02*
X43275Y38682D01*
X41963D01*
X41307Y39338D01*
Y41962D01*
X41963Y42617D01*
X43275D01*
X43931Y41962D01*
Y41306D01*
X43275Y40650D01*
X41307D01*
X45932Y101312D02*
X46587Y101968D01*
X47899D01*
X48555Y101312D01*
Y98688D01*
X47899Y98032D01*
X46587D01*
X45932Y98688D01*
X44620Y101312D02*
X43964Y101968D01*
X42652D01*
X41996Y101312D01*
Y100656D01*
X42652Y100000D01*
X41996Y99344D01*
Y98688D01*
X42652Y98032D01*
X43964D01*
X44620Y98688D01*
Y99344D01*
X43964Y100000D01*
X44620Y100656D01*
Y101312D01*
X43964Y100000D02*
X42652D01*
X-74836Y45603D02*
X-74180Y46259D01*
X-72868D01*
X-72212Y45603D01*
Y42979D01*
X-72868Y42323D01*
X-74180D01*
X-74836Y42979D01*
X-76148Y46259D02*
X-78772D01*
Y45603D01*
X-76148Y42979D01*
Y42323D01*
X-53675Y80840D02*
X-53019Y81495D01*
X-51707D01*
X-51051Y80840D01*
Y78216D01*
X-51707Y77560D01*
X-53019D01*
X-53675Y78216D01*
X-57610Y81495D02*
X-56299Y80840D01*
X-54987Y79528D01*
Y78216D01*
X-55643Y77560D01*
X-56954D01*
X-57610Y78216D01*
Y78872D01*
X-56954Y79528D01*
X-54987D01*
X-46194Y-71523D02*
X-45538Y-70867D01*
X-44227D01*
X-43571Y-71523D01*
Y-74147D01*
X-44227Y-74803D01*
X-45538D01*
X-46194Y-74147D01*
X-50130Y-70867D02*
X-47506D01*
Y-72835D01*
X-48818Y-72179D01*
X-49474D01*
X-50130Y-72835D01*
Y-74147D01*
X-49474Y-74803D01*
X-48162D01*
X-47506Y-74147D01*
X-85565Y-52330D02*
X-84909Y-51674D01*
X-83597D01*
X-82941Y-52330D01*
Y-54954D01*
X-83597Y-55610D01*
X-84909D01*
X-85565Y-54954D01*
X-88844Y-55610D02*
Y-51674D01*
X-86876Y-53642D01*
X-89500D01*
X74672Y-43373D02*
X75328Y-42717D01*
X76640D01*
X77296Y-43373D01*
Y-45997D01*
X76640Y-46653D01*
X75328D01*
X74672Y-45997D01*
X73360Y-43373D02*
X72704Y-42717D01*
X71392D01*
X70736Y-43373D01*
Y-44029D01*
X71392Y-44685D01*
X72048D01*
X71392D01*
X70736Y-45341D01*
Y-45997D01*
X71392Y-46653D01*
X72704D01*
X73360Y-45997D01*
X54790Y-81365D02*
X55446Y-80709D01*
X56758D01*
X57414Y-81365D01*
Y-83989D01*
X56758Y-84645D01*
X55446D01*
X54790Y-83989D01*
X50854Y-84645D02*
X53478D01*
X50854Y-82021D01*
Y-81365D01*
X51510Y-80709D01*
X52822D01*
X53478Y-81365D01*
X79134Y32808D02*
X79790Y33464D01*
X81102D01*
X81758Y32808D01*
Y30184D01*
X81102Y29528D01*
X79790D01*
X79134Y30184D01*
X77822Y29528D02*
X76510D01*
X77166D01*
Y33464D01*
X77822Y32808D01*
X68765Y-11418D02*
Y-14042D01*
X67453Y-15354D01*
X66141Y-14042D01*
Y-11418D01*
X64829D02*
Y-15354D01*
X62861D01*
X62205Y-14698D01*
Y-12074D01*
X62861Y-11418D01*
X64829D01*
X60893Y-15354D02*
X59582D01*
X60237D01*
Y-11418D01*
X60893Y-12074D01*
X45143Y-35040D02*
Y-38320D01*
X44488Y-38976D01*
X43176D01*
X42520Y-38320D01*
Y-35040D01*
X41208Y-38976D02*
X39896D01*
X40552D01*
Y-35040D01*
X41208Y-35696D01*
D79*
X130315Y-64173D02*
G03*
X141256Y-29401I-124816J58382D01*
G01*
X78937Y-22441D02*
G03*
X78937Y-22441I-984J0D01*
G01*
X130315Y-64173D02*
X137726Y-58863D01*
X129750Y-55776D02*
X130302Y-64059D01*
D119*
X49213Y53937D02*
G03*
X49213Y53937I-197J0D01*
G01*
X-50295Y37795D02*
G03*
X-50295Y37795I-197J0D01*
G01*
X-39567Y-50394D02*
G03*
X-39567Y-50394I-197J0D01*
G01*
X50590Y-38189D02*
G03*
X50590Y-38189I-197J0D01*
G01*
X100346Y9055D02*
Y12991D01*
X102313Y11023D02*
X98378D01*
X-84448Y16995D02*
Y18045D01*
Y17520D01*
X-81824D01*
X-81299Y18045D01*
Y18570D01*
X-81824Y19094D01*
X-84448Y15946D02*
X-81299D01*
Y13847D01*
X-83923Y10698D02*
X-84448Y11223D01*
Y12273D01*
X-83923Y12797D01*
X-81824D01*
X-81299Y12273D01*
Y11223D01*
X-81824Y10698D01*
X-84448Y7550D02*
Y8599D01*
Y8074D01*
X-81824D01*
X-81299Y8599D01*
Y9124D01*
X-81824Y9649D01*
X-84448Y6500D02*
X-81299D01*
Y4401D01*
X-83923Y1252D02*
X-84448Y1777D01*
Y2827D01*
X-83923Y3352D01*
X-81824D01*
X-81299Y2827D01*
Y1777D01*
X-81824Y1252D01*
X-84448Y-1896D02*
Y-847D01*
Y-1371D01*
X-81824D01*
X-81299Y-847D01*
Y-322D01*
X-81824Y203D01*
X-84448Y-2946D02*
X-81299D01*
Y-5045D01*
X-83923Y-8193D02*
X-84448Y-7668D01*
Y-6619D01*
X-83923Y-6094D01*
X-81824D01*
X-81299Y-6619D01*
Y-7668D01*
X-81824Y-8193D01*
X-84448Y-11342D02*
Y-10292D01*
Y-10817D01*
X-81824D01*
X-81299Y-10292D01*
Y-9768D01*
X-81824Y-9243D01*
X-84448Y-12391D02*
X-81299D01*
Y-14491D01*
X-83923Y-17639D02*
X-84448Y-17114D01*
Y-16065D01*
X-83923Y-15540D01*
X-81824D01*
X-81299Y-16065D01*
Y-17114D01*
X-81824Y-17639D01*
M02*
