G04*
G04 #@! TF.GenerationSoftware,Altium Limited,Altium Designer,21.7.2 (23)*
G04*
G04 Layer_Color=16711935*
%FSLAX25Y25*%
%MOIN*%
G70*
G04*
G04 #@! TF.SameCoordinates,4EB03F82-40D2-4175-A11E-0564D1C33967*
G04*
G04*
G04 #@! TF.FilePolarity,Negative*
G04*
G01*
G75*
G04:AMPARAMS|DCode=11|XSize=401.58mil|YSize=86.61mil|CornerRadius=0mil|HoleSize=0mil|Usage=FLASHONLY|Rotation=230.000|XOffset=0mil|YOffset=0mil|HoleType=Round|Shape=Round|*
%AMOVALD11*
21,1,0.31496,0.08661,0.00000,0.00000,230.0*
1,1,0.08661,0.10123,0.12064*
1,1,0.08661,-0.10123,-0.12064*
%
%ADD11OVALD11*%

G04:AMPARAMS|DCode=12|XSize=401.58mil|YSize=86.61mil|CornerRadius=0mil|HoleSize=0mil|Usage=FLASHONLY|Rotation=370.000|XOffset=0mil|YOffset=0mil|HoleType=Round|Shape=Round|*
%AMOVALD12*
21,1,0.31496,0.08661,0.00000,0.00000,370.0*
1,1,0.08661,-0.15509,-0.02735*
1,1,0.08661,0.15509,0.02735*
%
%ADD12OVALD12*%

G04:AMPARAMS|DCode=13|XSize=401.58mil|YSize=86.61mil|CornerRadius=0mil|HoleSize=0mil|Usage=FLASHONLY|Rotation=150.000|XOffset=0mil|YOffset=0mil|HoleType=Round|Shape=Round|*
%AMOVALD13*
21,1,0.31496,0.08661,0.00000,0.00000,150.0*
1,1,0.08661,0.13638,-0.07874*
1,1,0.08661,-0.13638,0.07874*
%
%ADD13OVALD13*%

G04:AMPARAMS|DCode=14|XSize=401.58mil|YSize=86.61mil|CornerRadius=0mil|HoleSize=0mil|Usage=FLASHONLY|Rotation=570.000|XOffset=0mil|YOffset=0mil|HoleType=Round|Shape=Round|*
%AMOVALD14*
21,1,0.31496,0.08661,0.00000,0.00000,570.0*
1,1,0.08661,0.13638,0.07874*
1,1,0.08661,-0.13638,-0.07874*
%
%ADD14OVALD14*%

G04:AMPARAMS|DCode=15|XSize=401.58mil|YSize=86.61mil|CornerRadius=0mil|HoleSize=0mil|Usage=FLASHONLY|Rotation=430.000|XOffset=0mil|YOffset=0mil|HoleType=Round|Shape=Round|*
%AMOVALD15*
21,1,0.31496,0.08661,0.00000,0.00000,430.0*
1,1,0.08661,-0.05386,-0.14798*
1,1,0.08661,0.05386,0.14798*
%
%ADD15OVALD15*%

G04:AMPARAMS|DCode=16|XSize=401.58mil|YSize=86.61mil|CornerRadius=0mil|HoleSize=0mil|Usage=FLASHONLY|Rotation=290.000|XOffset=0mil|YOffset=0mil|HoleType=Round|Shape=Round|*
%AMOVALD16*
21,1,0.31496,0.08661,0.00000,0.00000,290.0*
1,1,0.08661,-0.05386,0.14798*
1,1,0.08661,0.05386,-0.14798*
%
%ADD16OVALD16*%

G04:AMPARAMS|DCode=17|XSize=401.58mil|YSize=86.61mil|CornerRadius=0mil|HoleSize=0mil|Usage=FLASHONLY|Rotation=350.000|XOffset=0mil|YOffset=0mil|HoleType=Round|Shape=Round|*
%AMOVALD17*
21,1,0.31496,0.08661,0.00000,0.00000,350.0*
1,1,0.08661,-0.15509,0.02735*
1,1,0.08661,0.15509,-0.02735*
%
%ADD17OVALD17*%

%ADD18O,0.08661X0.40158*%
G04:AMPARAMS|DCode=19|XSize=401.58mil|YSize=86.61mil|CornerRadius=0mil|HoleSize=0mil|Usage=FLASHONLY|Rotation=490.000|XOffset=0mil|YOffset=0mil|HoleType=Round|Shape=Round|*
%AMOVALD19*
21,1,0.31496,0.08661,0.00000,0.00000,490.0*
1,1,0.08661,0.10123,-0.12064*
1,1,0.08661,-0.10123,0.12064*
%
%ADD19OVALD19*%

%ADD20C,0.10642*%
%ADD21C,0.06115*%
%ADD22R,0.06115X0.06115*%
%ADD23C,0.32296*%
%ADD81R,0.01378X0.04921*%
%ADD82R,0.04921X0.01378*%
G04:AMPARAMS|DCode=83|XSize=86.74mil|YSize=126.11mil|CornerRadius=0mil|HoleSize=0mil|Usage=FLASHONLY|Rotation=230.000|XOffset=0mil|YOffset=0mil|HoleType=Round|Shape=Rectangle|*
%AMROTATEDRECTD83*
4,1,4,-0.02043,0.07375,0.07618,-0.00731,0.02043,-0.07375,-0.07618,0.00731,-0.02043,0.07375,0.0*
%
%ADD83ROTATEDRECTD83*%

%ADD84C,0.08674*%
G04:AMPARAMS|DCode=85|XSize=67.06mil|YSize=82.8mil|CornerRadius=0mil|HoleSize=0mil|Usage=FLASHONLY|Rotation=140.000|XOffset=0mil|YOffset=0mil|HoleType=Round|Shape=Rectangle|*
%AMROTATEDRECTD85*
4,1,4,0.05230,0.01016,-0.00093,-0.05327,-0.05230,-0.01016,0.00093,0.05327,0.05230,0.01016,0.0*
%
%ADD85ROTATEDRECTD85*%

G04:AMPARAMS|DCode=86|XSize=78.87mil|YSize=86.74mil|CornerRadius=0mil|HoleSize=0mil|Usage=FLASHONLY|Rotation=140.000|XOffset=0mil|YOffset=0mil|HoleType=Round|Shape=Rectangle|*
%AMROTATEDRECTD86*
4,1,4,0.05809,0.00788,0.00233,-0.05857,-0.05809,-0.00788,-0.00233,0.05857,0.05809,0.00788,0.0*
%
%ADD86ROTATEDRECTD86*%

G04:AMPARAMS|DCode=87|XSize=86.74mil|YSize=126.11mil|CornerRadius=0mil|HoleSize=0mil|Usage=FLASHONLY|Rotation=10.000|XOffset=0mil|YOffset=0mil|HoleType=Round|Shape=Rectangle|*
%AMROTATEDRECTD87*
4,1,4,-0.03176,-0.06963,-0.05366,0.05457,0.03176,0.06963,0.05366,-0.05457,-0.03176,-0.06963,0.0*
%
%ADD87ROTATEDRECTD87*%

G04:AMPARAMS|DCode=88|XSize=67.06mil|YSize=82.8mil|CornerRadius=0mil|HoleSize=0mil|Usage=FLASHONLY|Rotation=100.000|XOffset=0mil|YOffset=0mil|HoleType=Round|Shape=Rectangle|*
%AMROTATEDRECTD88*
4,1,4,0.04659,-0.02583,-0.03495,-0.04021,-0.04659,0.02583,0.03495,0.04021,0.04659,-0.02583,0.0*
%
%ADD88ROTATEDRECTD88*%

G04:AMPARAMS|DCode=89|XSize=78.87mil|YSize=86.74mil|CornerRadius=0mil|HoleSize=0mil|Usage=FLASHONLY|Rotation=100.000|XOffset=0mil|YOffset=0mil|HoleType=Round|Shape=Rectangle|*
%AMROTATEDRECTD89*
4,1,4,0.04956,-0.03130,-0.03586,-0.04637,-0.04956,0.03130,0.03586,0.04637,0.04956,-0.03130,0.0*
%
%ADD89ROTATEDRECTD89*%

G04:AMPARAMS|DCode=90|XSize=86.74mil|YSize=126.11mil|CornerRadius=0mil|HoleSize=0mil|Usage=FLASHONLY|Rotation=150.000|XOffset=0mil|YOffset=0mil|HoleType=Round|Shape=Rectangle|*
%AMROTATEDRECTD90*
4,1,4,0.06909,0.03292,0.00603,-0.07629,-0.06909,-0.03292,-0.00603,0.07629,0.06909,0.03292,0.0*
%
%ADD90ROTATEDRECTD90*%

G04:AMPARAMS|DCode=91|XSize=67.06mil|YSize=82.8mil|CornerRadius=0mil|HoleSize=0mil|Usage=FLASHONLY|Rotation=60.000|XOffset=0mil|YOffset=0mil|HoleType=Round|Shape=Rectangle|*
%AMROTATEDRECTD91*
4,1,4,0.01909,-0.04974,-0.05262,-0.00834,-0.01909,0.04974,0.05262,0.00834,0.01909,-0.04974,0.0*
%
%ADD91ROTATEDRECTD91*%

G04:AMPARAMS|DCode=92|XSize=78.87mil|YSize=86.74mil|CornerRadius=0mil|HoleSize=0mil|Usage=FLASHONLY|Rotation=60.000|XOffset=0mil|YOffset=0mil|HoleType=Round|Shape=Rectangle|*
%AMROTATEDRECTD92*
4,1,4,0.01784,-0.05584,-0.05728,-0.01247,-0.01784,0.05584,0.05728,0.01247,0.01784,-0.05584,0.0*
%
%ADD92ROTATEDRECTD92*%

G04:AMPARAMS|DCode=93|XSize=86.74mil|YSize=126.11mil|CornerRadius=0mil|HoleSize=0mil|Usage=FLASHONLY|Rotation=210.000|XOffset=0mil|YOffset=0mil|HoleType=Round|Shape=Rectangle|*
%AMROTATEDRECTD93*
4,1,4,0.00603,0.07629,0.06909,-0.03292,-0.00603,-0.07629,-0.06909,0.03292,0.00603,0.07629,0.0*
%
%ADD93ROTATEDRECTD93*%

G04:AMPARAMS|DCode=94|XSize=67.06mil|YSize=82.8mil|CornerRadius=0mil|HoleSize=0mil|Usage=FLASHONLY|Rotation=300.000|XOffset=0mil|YOffset=0mil|HoleType=Round|Shape=Rectangle|*
%AMROTATEDRECTD94*
4,1,4,-0.05262,0.00834,0.01909,0.04974,0.05262,-0.00834,-0.01909,-0.04974,-0.05262,0.00834,0.0*
%
%ADD94ROTATEDRECTD94*%

G04:AMPARAMS|DCode=95|XSize=78.87mil|YSize=86.74mil|CornerRadius=0mil|HoleSize=0mil|Usage=FLASHONLY|Rotation=300.000|XOffset=0mil|YOffset=0mil|HoleType=Round|Shape=Rectangle|*
%AMROTATEDRECTD95*
4,1,4,-0.05728,0.01247,0.01784,0.05584,0.05728,-0.01247,-0.01784,-0.05584,-0.05728,0.01247,0.0*
%
%ADD95ROTATEDRECTD95*%

G04:AMPARAMS|DCode=96|XSize=86.74mil|YSize=126.11mil|CornerRadius=0mil|HoleSize=0mil|Usage=FLASHONLY|Rotation=70.000|XOffset=0mil|YOffset=0mil|HoleType=Round|Shape=Rectangle|*
%AMROTATEDRECTD96*
4,1,4,0.04442,-0.06232,-0.07409,-0.01919,-0.04442,0.06232,0.07409,0.01919,0.04442,-0.06232,0.0*
%
%ADD96ROTATEDRECTD96*%

G04:AMPARAMS|DCode=97|XSize=67.06mil|YSize=82.8mil|CornerRadius=0mil|HoleSize=0mil|Usage=FLASHONLY|Rotation=340.000|XOffset=0mil|YOffset=0mil|HoleType=Round|Shape=Rectangle|*
%AMROTATEDRECTD97*
4,1,4,-0.04567,-0.02744,-0.01735,0.05037,0.04567,0.02744,0.01735,-0.05037,-0.04567,-0.02744,0.0*
%
%ADD97ROTATEDRECTD97*%

G04:AMPARAMS|DCode=98|XSize=78.87mil|YSize=86.74mil|CornerRadius=0mil|HoleSize=0mil|Usage=FLASHONLY|Rotation=340.000|XOffset=0mil|YOffset=0mil|HoleType=Round|Shape=Rectangle|*
%AMROTATEDRECTD98*
4,1,4,-0.05189,-0.02727,-0.02222,0.05424,0.05189,0.02727,0.02222,-0.05424,-0.05189,-0.02727,0.0*
%
%ADD98ROTATEDRECTD98*%

G04:AMPARAMS|DCode=99|XSize=86.74mil|YSize=126.11mil|CornerRadius=0mil|HoleSize=0mil|Usage=FLASHONLY|Rotation=290.000|XOffset=0mil|YOffset=0mil|HoleType=Round|Shape=Rectangle|*
%AMROTATEDRECTD99*
4,1,4,-0.07409,0.01919,0.04442,0.06232,0.07409,-0.01919,-0.04442,-0.06232,-0.07409,0.01919,0.0*
%
%ADD99ROTATEDRECTD99*%

G04:AMPARAMS|DCode=100|XSize=67.06mil|YSize=82.8mil|CornerRadius=0mil|HoleSize=0mil|Usage=FLASHONLY|Rotation=20.000|XOffset=0mil|YOffset=0mil|HoleType=Round|Shape=Rectangle|*
%AMROTATEDRECTD100*
4,1,4,-0.01735,-0.05037,-0.04567,0.02744,0.01735,0.05037,0.04567,-0.02744,-0.01735,-0.05037,0.0*
%
%ADD100ROTATEDRECTD100*%

G04:AMPARAMS|DCode=101|XSize=78.87mil|YSize=86.74mil|CornerRadius=0mil|HoleSize=0mil|Usage=FLASHONLY|Rotation=20.000|XOffset=0mil|YOffset=0mil|HoleType=Round|Shape=Rectangle|*
%AMROTATEDRECTD101*
4,1,4,-0.02222,-0.05424,-0.05189,0.02727,0.02222,0.05424,0.05189,-0.02727,-0.02222,-0.05424,0.0*
%
%ADD101ROTATEDRECTD101*%

G04:AMPARAMS|DCode=102|XSize=86.74mil|YSize=126.11mil|CornerRadius=0mil|HoleSize=0mil|Usage=FLASHONLY|Rotation=350.000|XOffset=0mil|YOffset=0mil|HoleType=Round|Shape=Rectangle|*
%AMROTATEDRECTD102*
4,1,4,-0.05366,-0.05457,-0.03176,0.06963,0.05366,0.05457,0.03176,-0.06963,-0.05366,-0.05457,0.0*
%
%ADD102ROTATEDRECTD102*%

G04:AMPARAMS|DCode=103|XSize=67.06mil|YSize=82.8mil|CornerRadius=0mil|HoleSize=0mil|Usage=FLASHONLY|Rotation=260.000|XOffset=0mil|YOffset=0mil|HoleType=Round|Shape=Rectangle|*
%AMROTATEDRECTD103*
4,1,4,-0.03495,0.04021,0.04659,0.02583,0.03495,-0.04021,-0.04659,-0.02583,-0.03495,0.04021,0.0*
%
%ADD103ROTATEDRECTD103*%

G04:AMPARAMS|DCode=104|XSize=78.87mil|YSize=86.74mil|CornerRadius=0mil|HoleSize=0mil|Usage=FLASHONLY|Rotation=260.000|XOffset=0mil|YOffset=0mil|HoleType=Round|Shape=Rectangle|*
%AMROTATEDRECTD104*
4,1,4,-0.03586,0.04637,0.04956,0.03130,0.03586,-0.04637,-0.04956,-0.03130,-0.03586,0.04637,0.0*
%
%ADD104ROTATEDRECTD104*%

%ADD105R,0.12611X0.08674*%
%ADD106R,0.06706X0.08280*%
%ADD107R,0.07887X0.08674*%
G04:AMPARAMS|DCode=108|XSize=86.74mil|YSize=126.11mil|CornerRadius=0mil|HoleSize=0mil|Usage=FLASHONLY|Rotation=130.000|XOffset=0mil|YOffset=0mil|HoleType=Round|Shape=Rectangle|*
%AMROTATEDRECTD108*
4,1,4,0.07618,0.00731,-0.02043,-0.07375,-0.07618,-0.00731,0.02043,0.07375,0.07618,0.00731,0.0*
%
%ADD108ROTATEDRECTD108*%

G04:AMPARAMS|DCode=109|XSize=67.06mil|YSize=82.8mil|CornerRadius=0mil|HoleSize=0mil|Usage=FLASHONLY|Rotation=220.000|XOffset=0mil|YOffset=0mil|HoleType=Round|Shape=Rectangle|*
%AMROTATEDRECTD109*
4,1,4,-0.00093,0.05327,0.05230,-0.01016,0.00093,-0.05327,-0.05230,0.01016,-0.00093,0.05327,0.0*
%
%ADD109ROTATEDRECTD109*%

G04:AMPARAMS|DCode=110|XSize=78.87mil|YSize=86.74mil|CornerRadius=0mil|HoleSize=0mil|Usage=FLASHONLY|Rotation=220.000|XOffset=0mil|YOffset=0mil|HoleType=Round|Shape=Rectangle|*
%AMROTATEDRECTD110*
4,1,4,0.00233,0.05857,0.05809,-0.00788,-0.00233,-0.05857,-0.05809,0.00788,0.00233,0.05857,0.0*
%
%ADD110ROTATEDRECTD110*%

G04:AMPARAMS|DCode=111|XSize=27.69mil|YSize=27.69mil|CornerRadius=13.84mil|HoleSize=0mil|Usage=FLASHONLY|Rotation=270.000|XOffset=0mil|YOffset=0mil|HoleType=Round|Shape=RoundedRectangle|*
%AMROUNDEDRECTD111*
21,1,0.02769,0.00000,0,0,270.0*
21,1,0.00000,0.02769,0,0,270.0*
1,1,0.02769,0.00000,0.00000*
1,1,0.02769,0.00000,0.00000*
1,1,0.02769,0.00000,0.00000*
1,1,0.02769,0.00000,0.00000*
%
%ADD111ROUNDEDRECTD111*%
%ADD112R,0.05918X0.04737*%
%ADD113R,0.02769X0.04343*%
G04:AMPARAMS|DCode=114|XSize=27.69mil|YSize=27.69mil|CornerRadius=13.84mil|HoleSize=0mil|Usage=FLASHONLY|Rotation=0.000|XOffset=0mil|YOffset=0mil|HoleType=Round|Shape=RoundedRectangle|*
%AMROUNDEDRECTD114*
21,1,0.02769,0.00000,0,0,0.0*
21,1,0.00000,0.02769,0,0,0.0*
1,1,0.02769,0.00000,0.00000*
1,1,0.02769,0.00000,0.00000*
1,1,0.02769,0.00000,0.00000*
1,1,0.02769,0.00000,0.00000*
%
%ADD114ROUNDEDRECTD114*%
%ADD115R,0.04737X0.05918*%
%ADD116R,0.04343X0.02769*%
%ADD117R,0.13792X0.13792*%
%ADD118C,0.02375*%
G36*
X-61660Y-60036D02*
X-61609Y-60046D01*
X-61559Y-60063D01*
X-61512Y-60086D01*
X-61483Y-60105D01*
X-61469Y-60115D01*
X-61429Y-60150D01*
Y-60150D01*
X-61429D01*
X-61395Y-60189D01*
X-61385Y-60203D01*
X-61365Y-60233D01*
X-61342Y-60280D01*
X-61325Y-60329D01*
X-61315Y-60381D01*
X-61312Y-60433D01*
D01*
Y-60433D01*
X-61312Y-61306D01*
X-61283Y-61733D01*
X-61283Y-61785D01*
D01*
Y-61785D01*
X-61290Y-61837D01*
X-61296Y-61858D01*
X-61304Y-61888D01*
X-61304Y-61888D01*
X-61586Y-62724D01*
X-61586Y-62724D01*
X-61606Y-62773D01*
X-61633Y-62818D01*
X-61657Y-62850D01*
X-61664Y-62860D01*
X-61664Y-62860D01*
X-62246Y-63524D01*
X-62246Y-63524D01*
X-62283Y-63561D01*
X-62325Y-63593D01*
X-62344Y-63604D01*
X-62370Y-63620D01*
X-62370Y-63620D01*
X-63161Y-64011D01*
X-63161D01*
X-63161Y-64011D01*
X-63210Y-64031D01*
X-63242Y-64040D01*
X-63260Y-64045D01*
X-63312Y-64052D01*
X-63312D01*
X-63753Y-64081D01*
X-63757Y-64081D01*
X-63762Y-64082D01*
X-63771Y-64081D01*
X-63779Y-64082D01*
X-63792Y-64081D01*
X-63805Y-64081D01*
X-63810Y-64081D01*
X-63814Y-64080D01*
X-64264Y-64041D01*
X-64265D01*
X-64316Y-64033D01*
X-64367Y-64019D01*
X-64415Y-63998D01*
X-65217Y-63581D01*
X-65217Y-63581D01*
X-65262Y-63554D01*
X-65302Y-63521D01*
X-65339Y-63483D01*
X-65920Y-62791D01*
X-65951Y-62748D01*
X-65963Y-62728D01*
X-65977Y-62702D01*
X-65996Y-62653D01*
X-65996Y-62653D01*
X-66268Y-61792D01*
X-66268Y-61791D01*
X-66277Y-61753D01*
X-66280Y-61741D01*
X-66286Y-61689D01*
Y-61689D01*
D01*
X-66285Y-61636D01*
X-66247Y-61203D01*
Y-60433D01*
X-66244Y-60381D01*
X-66234Y-60329D01*
X-66217Y-60280D01*
X-66194Y-60233D01*
X-66164Y-60189D01*
X-66130Y-60150D01*
X-66091Y-60115D01*
X-66047Y-60086D01*
X-66000Y-60063D01*
X-65950Y-60046D01*
X-65899Y-60036D01*
X-65847Y-60032D01*
X-61713D01*
X-61713D01*
D01*
X-61660Y-60036D01*
D02*
G37*
G36*
X-63753Y-55924D02*
X-63732Y-55924D01*
X-63727Y-55925D01*
X-63723Y-55925D01*
X-63273Y-55964D01*
X-63273D01*
X-63227Y-55971D01*
X-63221Y-55972D01*
X-63206Y-55976D01*
X-63170Y-55987D01*
X-63122Y-56008D01*
X-62320Y-56425D01*
X-62320Y-56425D01*
X-62275Y-56452D01*
X-62234Y-56485D01*
X-62198Y-56523D01*
X-61617Y-57215D01*
X-61586Y-57257D01*
X-61574Y-57278D01*
X-61560Y-57303D01*
X-61541Y-57352D01*
X-61541Y-57352D01*
X-61269Y-58214D01*
X-61269Y-58214D01*
X-61260Y-58252D01*
X-61257Y-58265D01*
X-61251Y-58317D01*
Y-58317D01*
D01*
X-61252Y-58369D01*
X-61290Y-58802D01*
X-61290Y-59572D01*
D01*
Y-59572D01*
X-61293Y-59625D01*
X-61303Y-59676D01*
X-61320Y-59726D01*
X-61343Y-59773D01*
X-61373Y-59816D01*
X-61407Y-59856D01*
X-61446Y-59890D01*
X-61490Y-59920D01*
X-61537Y-59943D01*
X-61587Y-59960D01*
X-61638Y-59970D01*
X-61690Y-59973D01*
X-61690D01*
D01*
X-65824Y-59973D01*
X-65824D01*
D01*
X-65877Y-59970D01*
X-65928Y-59960D01*
X-65978Y-59943D01*
X-66025Y-59920D01*
X-66054Y-59900D01*
X-66068Y-59890D01*
X-66108Y-59856D01*
Y-59856D01*
X-66108D01*
X-66142Y-59816D01*
X-66152Y-59802D01*
X-66172Y-59773D01*
X-66195Y-59726D01*
X-66212Y-59676D01*
X-66222Y-59625D01*
X-66225Y-59572D01*
D01*
Y-59572D01*
X-66225Y-58700D01*
X-66254Y-58273D01*
X-66254Y-58220D01*
D01*
Y-58220D01*
X-66247Y-58168D01*
X-66241Y-58147D01*
X-66233Y-58118D01*
X-66233Y-58118D01*
X-65951Y-57281D01*
X-65951Y-57281D01*
X-65931Y-57233D01*
X-65904Y-57187D01*
X-65880Y-57155D01*
X-65873Y-57146D01*
X-65873Y-57146D01*
X-65291Y-56481D01*
X-65291Y-56481D01*
X-65254Y-56444D01*
X-65213Y-56412D01*
X-65193Y-56401D01*
X-65167Y-56386D01*
X-65167Y-56386D01*
X-64376Y-55994D01*
X-64376D01*
X-64376Y-55994D01*
X-64327Y-55974D01*
X-64295Y-55966D01*
X-64277Y-55961D01*
X-64225Y-55954D01*
X-64225D01*
X-63784Y-55924D01*
X-63780Y-55924D01*
X-63775Y-55924D01*
X-63753Y-55924D01*
D02*
G37*
G36*
X-61735Y-48294D02*
X-61735D01*
D01*
X-61682Y-48298D01*
X-61631Y-48308D01*
X-61614Y-48314D01*
X-61581Y-48325D01*
X-61534Y-48348D01*
X-61491Y-48377D01*
X-61451Y-48412D01*
Y-48412D01*
X-61451D01*
X-61417Y-48451D01*
X-61387Y-48495D01*
X-61364Y-48542D01*
X-61353Y-48575D01*
X-61347Y-48592D01*
X-61337Y-48643D01*
X-61334Y-48695D01*
D01*
Y-48695D01*
X-61334Y-49568D01*
X-61305Y-49995D01*
X-61305Y-50047D01*
D01*
Y-50047D01*
X-61312Y-50099D01*
X-61318Y-50121D01*
X-61326Y-50150D01*
X-61326Y-50150D01*
X-61608Y-50986D01*
X-61608Y-50987D01*
X-61628Y-51035D01*
X-61655Y-51081D01*
X-61679Y-51112D01*
X-61686Y-51122D01*
X-61686Y-51122D01*
X-62268Y-51787D01*
X-62268Y-51787D01*
X-62305Y-51824D01*
X-62347Y-51856D01*
X-62366Y-51867D01*
X-62392Y-51882D01*
X-62392Y-51882D01*
X-63183Y-52273D01*
X-63183D01*
X-63183Y-52273D01*
X-63232Y-52293D01*
X-63264Y-52302D01*
X-63282Y-52307D01*
X-63334Y-52314D01*
X-63334D01*
X-63775Y-52343D01*
X-63779Y-52343D01*
X-63784Y-52344D01*
X-63793Y-52344D01*
X-63802Y-52344D01*
X-63815Y-52343D01*
X-63827Y-52343D01*
X-63832Y-52343D01*
X-63836Y-52343D01*
X-64287Y-52304D01*
X-64287D01*
X-64338Y-52296D01*
X-64389Y-52281D01*
X-64437Y-52260D01*
X-65239Y-51843D01*
X-65239Y-51843D01*
X-65284Y-51816D01*
X-65325Y-51783D01*
X-65361Y-51745D01*
X-65942Y-51053D01*
X-65973Y-51011D01*
X-65985Y-50990D01*
X-65999Y-50965D01*
X-66018Y-50916D01*
X-66018Y-50916D01*
X-66290Y-50054D01*
X-66290Y-50054D01*
X-66299Y-50015D01*
X-66302Y-50003D01*
X-66308Y-49951D01*
Y-49951D01*
D01*
X-66307Y-49898D01*
X-66269Y-49465D01*
X-66269Y-48695D01*
D01*
Y-48695D01*
X-66266Y-48643D01*
X-66256Y-48592D01*
X-66239Y-48542D01*
X-66216Y-48495D01*
X-66186Y-48451D01*
X-66152Y-48412D01*
X-66113Y-48377D01*
X-66069Y-48348D01*
X-66022Y-48325D01*
X-65972Y-48308D01*
X-65921Y-48298D01*
X-65869Y-48294D01*
X-65869D01*
D01*
X-61735Y-48294D01*
D02*
G37*
G36*
X-63775Y-44187D02*
X-63754Y-44187D01*
X-63749Y-44187D01*
X-63745Y-44187D01*
X-63295Y-44226D01*
X-63295D01*
X-63250Y-44233D01*
X-63243Y-44234D01*
X-63228Y-44239D01*
X-63192Y-44249D01*
X-63144Y-44270D01*
X-62342Y-44687D01*
X-62342Y-44687D01*
X-62297Y-44714D01*
X-62256Y-44747D01*
X-62220Y-44785D01*
X-61639Y-45477D01*
X-61608Y-45519D01*
X-61596Y-45540D01*
X-61582Y-45565D01*
X-61563Y-45614D01*
X-61563Y-45614D01*
X-61291Y-46476D01*
X-61291Y-46476D01*
X-61282Y-46515D01*
X-61279Y-46527D01*
X-61273Y-46579D01*
Y-46579D01*
D01*
X-61274Y-46632D01*
X-61312Y-47065D01*
Y-47835D01*
X-61315Y-47887D01*
X-61325Y-47938D01*
X-61342Y-47988D01*
X-61365Y-48035D01*
X-61395Y-48079D01*
X-61429Y-48118D01*
X-61469Y-48153D01*
X-61512Y-48182D01*
X-61559Y-48205D01*
X-61609Y-48222D01*
X-61660Y-48232D01*
X-61713Y-48235D01*
X-65847D01*
X-65899Y-48232D01*
X-65950Y-48222D01*
X-66000Y-48205D01*
X-66047Y-48182D01*
X-66091Y-48153D01*
X-66130Y-48118D01*
X-66164Y-48079D01*
X-66194Y-48035D01*
X-66217Y-47988D01*
X-66234Y-47938D01*
X-66244Y-47887D01*
X-66247Y-47835D01*
X-66247Y-46962D01*
X-66276Y-46535D01*
X-66276Y-46483D01*
D01*
Y-46483D01*
X-66269Y-46431D01*
X-66263Y-46409D01*
X-66256Y-46380D01*
X-66255Y-46380D01*
X-65973Y-45544D01*
X-65973Y-45543D01*
X-65953Y-45495D01*
X-65926Y-45450D01*
X-65902Y-45418D01*
X-65895Y-45408D01*
X-65895Y-45408D01*
X-65313Y-44743D01*
X-65313Y-44743D01*
X-65276Y-44706D01*
X-65235Y-44674D01*
X-65215Y-44663D01*
X-65189Y-44648D01*
X-65189Y-44648D01*
X-64398Y-44257D01*
X-64398D01*
X-64398Y-44257D01*
X-64349Y-44236D01*
X-64317Y-44228D01*
X-64299Y-44223D01*
X-64247Y-44216D01*
X-64247D01*
X-63806Y-44187D01*
X-63802Y-44187D01*
X-63797Y-44186D01*
X-63775Y-44187D01*
D02*
G37*
G36*
X46632Y-61176D02*
X47065Y-61213D01*
X47835D01*
X47887Y-61217D01*
X47938Y-61227D01*
X47988Y-61244D01*
X48035Y-61267D01*
X48079Y-61296D01*
X48118Y-61331D01*
X48153Y-61370D01*
X48182Y-61414D01*
X48205Y-61461D01*
X48222Y-61510D01*
X48232Y-61562D01*
X48235Y-61614D01*
Y-65748D01*
X48232Y-65800D01*
X48222Y-65852D01*
X48205Y-65901D01*
X48182Y-65948D01*
X48153Y-65992D01*
X48118Y-66031D01*
X48079Y-66066D01*
X48035Y-66095D01*
X47988Y-66118D01*
X47938Y-66135D01*
X47887Y-66145D01*
X47835Y-66149D01*
X46962Y-66149D01*
X46535Y-66177D01*
X46483Y-66177D01*
D01*
X46483D01*
X46431Y-66171D01*
X46409Y-66165D01*
X46380Y-66157D01*
X46380Y-66157D01*
X45544Y-65874D01*
X45543Y-65874D01*
X45495Y-65854D01*
X45450Y-65828D01*
X45418Y-65804D01*
X45408Y-65796D01*
X45408Y-65796D01*
X44743Y-65215D01*
X44743Y-65215D01*
X44706Y-65178D01*
X44674Y-65136D01*
X44663Y-65117D01*
X44648Y-65091D01*
X44648Y-65091D01*
X44257Y-64299D01*
Y-64299D01*
X44257Y-64299D01*
X44236Y-64251D01*
X44228Y-64219D01*
X44223Y-64200D01*
X44216Y-64148D01*
Y-64148D01*
X44187Y-63708D01*
X44187Y-63703D01*
X44186Y-63699D01*
X44187Y-63677D01*
X44187Y-63655D01*
X44187Y-63651D01*
X44187Y-63646D01*
X44226Y-63196D01*
Y-63196D01*
X44233Y-63151D01*
X44234Y-63144D01*
X44239Y-63130D01*
X44249Y-63094D01*
X44270Y-63046D01*
X44687Y-62244D01*
X44687Y-62244D01*
X44714Y-62199D01*
X44747Y-62158D01*
X44785Y-62122D01*
X45477Y-61540D01*
X45519Y-61509D01*
X45540Y-61498D01*
X45565Y-61484D01*
X45614Y-61465D01*
X45614Y-61465D01*
X46476Y-61193D01*
X46476Y-61193D01*
X46515Y-61183D01*
X46527Y-61180D01*
X46579Y-61175D01*
X46579D01*
D01*
X46632Y-61176D01*
D02*
G37*
G36*
X50099Y-61214D02*
X50121Y-61219D01*
X50150Y-61227D01*
X50150Y-61227D01*
X50986Y-61510D01*
X50987Y-61510D01*
X51035Y-61530D01*
X51081Y-61556D01*
X51112Y-61581D01*
X51122Y-61588D01*
X51122Y-61588D01*
X51787Y-62169D01*
X51787Y-62170D01*
X51824Y-62207D01*
X51856Y-62248D01*
X51867Y-62267D01*
X51882Y-62293D01*
X51882Y-62293D01*
X52273Y-63085D01*
Y-63085D01*
X52273Y-63085D01*
X52293Y-63133D01*
X52302Y-63165D01*
X52307Y-63184D01*
X52314Y-63236D01*
Y-63236D01*
X52343Y-63677D01*
X52343Y-63681D01*
X52344Y-63686D01*
X52344Y-63694D01*
X52344Y-63703D01*
X52343Y-63716D01*
X52343Y-63729D01*
X52343Y-63734D01*
X52343Y-63738D01*
X52304Y-64188D01*
Y-64188D01*
X52296Y-64240D01*
X52281Y-64290D01*
X52260Y-64338D01*
X51843Y-65140D01*
X51843Y-65140D01*
X51816Y-65185D01*
X51783Y-65226D01*
X51745Y-65263D01*
X51053Y-65844D01*
X51011Y-65875D01*
X50990Y-65886D01*
X50965Y-65900D01*
X50916Y-65919D01*
X50916Y-65919D01*
X50054Y-66192D01*
X50054Y-66192D01*
X50015Y-66201D01*
X50003Y-66204D01*
X49951Y-66210D01*
X49951D01*
D01*
X49898Y-66209D01*
X49465Y-66171D01*
X48695Y-66171D01*
D01*
X48695D01*
X48643Y-66167D01*
X48592Y-66157D01*
X48542Y-66140D01*
X48495Y-66117D01*
X48451Y-66088D01*
X48412Y-66053D01*
X48377Y-66014D01*
X48348Y-65970D01*
X48325Y-65924D01*
X48308Y-65874D01*
X48298Y-65822D01*
X48294Y-65770D01*
Y-65770D01*
D01*
X48294Y-61636D01*
Y-61636D01*
D01*
X48298Y-61584D01*
X48308Y-61532D01*
X48314Y-61516D01*
X48325Y-61483D01*
X48348Y-61436D01*
X48377Y-61392D01*
X48412Y-61353D01*
X48412D01*
Y-61353D01*
X48451Y-61318D01*
X48495Y-61289D01*
X48542Y-61266D01*
X48575Y-61255D01*
X48592Y-61249D01*
X48643Y-61239D01*
X48695Y-61235D01*
D01*
X48695D01*
X49568Y-61235D01*
X49995Y-61207D01*
X50047Y-61207D01*
D01*
X50047D01*
X50099Y-61214D01*
D02*
G37*
G36*
X58369Y-61055D02*
X58802Y-61093D01*
X59572Y-61093D01*
D01*
X59572D01*
X59625Y-61096D01*
X59676Y-61106D01*
X59726Y-61123D01*
X59773Y-61147D01*
X59816Y-61176D01*
X59856Y-61210D01*
X59890Y-61250D01*
X59920Y-61293D01*
X59943Y-61340D01*
X59960Y-61390D01*
X59970Y-61441D01*
X59973Y-61494D01*
Y-61494D01*
D01*
X59973Y-65628D01*
Y-65628D01*
D01*
X59970Y-65680D01*
X59960Y-65731D01*
X59943Y-65781D01*
X59920Y-65828D01*
X59900Y-65857D01*
X59890Y-65872D01*
X59856Y-65911D01*
X59856D01*
Y-65911D01*
X59816Y-65946D01*
X59802Y-65955D01*
X59773Y-65975D01*
X59726Y-65998D01*
X59676Y-66015D01*
X59625Y-66025D01*
X59572Y-66028D01*
D01*
X59572D01*
X58700Y-66028D01*
X58273Y-66057D01*
X58220Y-66057D01*
D01*
X58220D01*
X58168Y-66050D01*
X58147Y-66044D01*
X58118Y-66037D01*
X58118Y-66037D01*
X57281Y-65754D01*
X57281Y-65754D01*
X57233Y-65734D01*
X57187Y-65708D01*
X57155Y-65683D01*
X57146Y-65676D01*
X57146Y-65676D01*
X56481Y-65094D01*
X56481Y-65094D01*
X56444Y-65057D01*
X56412Y-65016D01*
X56401Y-64997D01*
X56386Y-64970D01*
X56386Y-64970D01*
X55994Y-64179D01*
Y-64179D01*
X55994Y-64179D01*
X55974Y-64130D01*
X55966Y-64098D01*
X55961Y-64080D01*
X55954Y-64028D01*
Y-64028D01*
X55924Y-63587D01*
X55924Y-63583D01*
X55924Y-63578D01*
X55924Y-63557D01*
X55924Y-63535D01*
X55925Y-63530D01*
X55925Y-63526D01*
X55964Y-63076D01*
Y-63076D01*
X55971Y-63031D01*
X55972Y-63024D01*
X55976Y-63009D01*
X55987Y-62973D01*
X56008Y-62925D01*
X56425Y-62124D01*
X56425Y-62123D01*
X56452Y-62078D01*
X56485Y-62038D01*
X56523Y-62001D01*
X57215Y-61420D01*
X57257Y-61389D01*
X57278Y-61378D01*
X57303Y-61364D01*
X57352Y-61345D01*
X57352Y-61345D01*
X58214Y-61072D01*
X58214Y-61072D01*
X58252Y-61063D01*
X58265Y-61060D01*
X58317Y-61054D01*
X58317D01*
D01*
X58369Y-61055D01*
D02*
G37*
G36*
X61837Y-61093D02*
X61858Y-61099D01*
X61888Y-61107D01*
X61888Y-61107D01*
X62724Y-61389D01*
X62724Y-61389D01*
X62773Y-61409D01*
X62818Y-61436D01*
X62850Y-61460D01*
X62860Y-61468D01*
X62860Y-61468D01*
X63524Y-62049D01*
X63524Y-62049D01*
X63561Y-62086D01*
X63593Y-62128D01*
X63604Y-62147D01*
X63620Y-62173D01*
X63620Y-62173D01*
X64011Y-62964D01*
Y-62964D01*
X64011Y-62964D01*
X64031Y-63013D01*
X64040Y-63045D01*
X64045Y-63064D01*
X64052Y-63116D01*
Y-63116D01*
X64081Y-63556D01*
X64081Y-63561D01*
X64082Y-63565D01*
X64081Y-63574D01*
X64082Y-63583D01*
X64081Y-63596D01*
X64081Y-63608D01*
X64081Y-63613D01*
X64080Y-63617D01*
X64041Y-64068D01*
Y-64068D01*
X64033Y-64119D01*
X64019Y-64170D01*
X63998Y-64218D01*
X63581Y-65020D01*
X63581Y-65020D01*
X63553Y-65065D01*
X63521Y-65106D01*
X63483Y-65142D01*
X62791Y-65723D01*
X62748Y-65754D01*
X62728Y-65766D01*
X62702Y-65780D01*
X62653Y-65799D01*
X62653Y-65799D01*
X61792Y-66071D01*
X61791Y-66071D01*
X61753Y-66080D01*
X61741Y-66084D01*
X61689Y-66089D01*
X61689D01*
D01*
X61636Y-66088D01*
X61203Y-66050D01*
X60433D01*
X60381Y-66047D01*
X60329Y-66037D01*
X60280Y-66020D01*
X60233Y-65997D01*
X60189Y-65968D01*
X60150Y-65933D01*
X60115Y-65894D01*
X60086Y-65850D01*
X60063Y-65803D01*
X60046Y-65753D01*
X60036Y-65702D01*
X60032Y-65650D01*
Y-61516D01*
Y-61516D01*
D01*
X60036Y-61463D01*
X60046Y-61412D01*
X60063Y-61362D01*
X60086Y-61315D01*
X60105Y-61286D01*
X60115Y-61272D01*
X60150Y-61232D01*
X60150D01*
Y-61232D01*
X60189Y-61198D01*
X60203Y-61188D01*
X60233Y-61169D01*
X60280Y-61145D01*
X60329Y-61129D01*
X60381Y-61118D01*
X60433Y-61115D01*
D01*
X60433D01*
X61305Y-61115D01*
X61733Y-61086D01*
X61785Y-61086D01*
D01*
X61785D01*
X61837Y-61093D01*
D02*
G37*
G36*
X-61734Y63135D02*
X-61302Y63098D01*
X-60532D01*
X-60479Y63094D01*
X-60428Y63084D01*
X-60378Y63067D01*
X-60331Y63044D01*
X-60287Y63015D01*
X-60248Y62980D01*
X-60214Y62941D01*
X-60184Y62897D01*
X-60161Y62850D01*
X-60144Y62801D01*
X-60134Y62749D01*
X-60131Y62697D01*
Y58563D01*
X-60134Y58511D01*
X-60144Y58459D01*
X-60161Y58410D01*
X-60184Y58363D01*
X-60214Y58319D01*
X-60248Y58280D01*
X-60287Y58245D01*
X-60331Y58216D01*
X-60378Y58193D01*
X-60428Y58176D01*
X-60479Y58166D01*
X-60532Y58162D01*
X-61404Y58162D01*
X-61831Y58134D01*
X-61884Y58134D01*
D01*
X-61884D01*
X-61936Y58140D01*
X-61957Y58146D01*
X-61986Y58154D01*
X-61986Y58154D01*
X-62823Y58437D01*
X-62823Y58437D01*
X-62871Y58457D01*
X-62917Y58483D01*
X-62949Y58507D01*
X-62958Y58515D01*
X-62958Y58515D01*
X-63623Y59096D01*
X-63623Y59096D01*
X-63660Y59133D01*
X-63692Y59175D01*
X-63703Y59194D01*
X-63718Y59220D01*
X-63718Y59220D01*
X-64109Y60012D01*
Y60012D01*
X-64109Y60012D01*
X-64130Y60060D01*
X-64138Y60092D01*
X-64143Y60111D01*
X-64150Y60163D01*
Y60163D01*
X-64179Y60603D01*
X-64179Y60608D01*
X-64180Y60612D01*
X-64179Y60634D01*
X-64180Y60656D01*
X-64179Y60660D01*
X-64179Y60665D01*
X-64140Y61115D01*
Y61115D01*
X-64133Y61160D01*
X-64132Y61167D01*
X-64127Y61181D01*
X-64117Y61217D01*
X-64096Y61265D01*
X-63679Y62067D01*
X-63679Y62067D01*
X-63652Y62112D01*
X-63619Y62153D01*
X-63581Y62189D01*
X-62889Y62771D01*
X-62847Y62802D01*
X-62826Y62813D01*
X-62801Y62827D01*
X-62752Y62846D01*
X-62752Y62846D01*
X-61890Y63118D01*
X-61890Y63118D01*
X-61852Y63128D01*
X-61839Y63131D01*
X-61787Y63137D01*
X-61787D01*
D01*
X-61734Y63135D01*
D02*
G37*
G36*
X-58267Y63097D02*
X-58245Y63092D01*
X-58216Y63084D01*
X-58216Y63084D01*
X-57380Y62801D01*
X-57380Y62801D01*
X-57331Y62781D01*
X-57286Y62755D01*
X-57254Y62730D01*
X-57244Y62723D01*
X-57244Y62723D01*
X-56580Y62142D01*
X-56580Y62141D01*
X-56542Y62104D01*
X-56511Y62063D01*
X-56499Y62044D01*
X-56484Y62018D01*
X-56484Y62018D01*
X-56093Y61226D01*
Y61226D01*
X-56093Y61226D01*
X-56073Y61178D01*
X-56064Y61146D01*
X-56059Y61127D01*
X-56052Y61075D01*
Y61075D01*
X-56023Y60634D01*
X-56023Y60630D01*
X-56022Y60626D01*
X-56023Y60617D01*
X-56022Y60608D01*
X-56023Y60595D01*
X-56023Y60582D01*
X-56023Y60577D01*
X-56023Y60573D01*
X-56063Y60123D01*
Y60123D01*
X-56071Y60071D01*
X-56085Y60021D01*
X-56106Y59973D01*
X-56523Y59171D01*
X-56523Y59171D01*
X-56550Y59126D01*
X-56583Y59085D01*
X-56621Y59049D01*
X-57313Y58467D01*
X-57355Y58436D01*
X-57376Y58425D01*
X-57402Y58411D01*
X-57450Y58392D01*
X-57450Y58392D01*
X-58312Y58120D01*
X-58312Y58119D01*
X-58351Y58110D01*
X-58363Y58107D01*
X-58415Y58101D01*
X-58415D01*
D01*
X-58468Y58102D01*
X-58901Y58140D01*
X-59671Y58140D01*
X-59671D01*
D01*
X-59723Y58144D01*
X-59775Y58154D01*
X-59824Y58171D01*
X-59871Y58194D01*
X-59915Y58223D01*
X-59954Y58258D01*
X-59989Y58297D01*
X-60018Y58341D01*
X-60041Y58388D01*
X-60058Y58437D01*
X-60068Y58489D01*
X-60072Y58541D01*
D01*
Y58541D01*
X-60072Y62675D01*
D01*
Y62675D01*
X-60068Y62727D01*
X-60058Y62779D01*
X-60052Y62795D01*
X-60041Y62828D01*
X-60018Y62875D01*
X-59989Y62919D01*
X-59954Y62958D01*
X-59954D01*
Y62958D01*
X-59915Y62993D01*
X-59871Y63022D01*
X-59824Y63045D01*
X-59791Y63056D01*
X-59775Y63062D01*
X-59723Y63072D01*
X-59671Y63076D01*
X-59671D01*
D01*
X-58798Y63076D01*
X-58371Y63104D01*
X-58319Y63104D01*
D01*
X-58319D01*
X-58267Y63097D01*
D02*
G37*
G36*
X-49997Y63157D02*
X-49564Y63120D01*
X-48794Y63120D01*
D01*
X-48794D01*
X-48741Y63116D01*
X-48690Y63106D01*
X-48640Y63089D01*
X-48593Y63066D01*
X-48550Y63037D01*
X-48510Y63002D01*
X-48476Y62963D01*
X-48447Y62919D01*
X-48423Y62872D01*
X-48407Y62823D01*
X-48396Y62771D01*
X-48393Y62719D01*
D01*
Y62719D01*
X-48393Y58585D01*
D01*
Y58585D01*
X-48396Y58533D01*
X-48407Y58481D01*
X-48423Y58432D01*
X-48447Y58385D01*
X-48466Y58355D01*
X-48476Y58341D01*
X-48510Y58302D01*
X-48510D01*
Y58302D01*
X-48550Y58267D01*
X-48564Y58257D01*
X-48593Y58238D01*
X-48640Y58215D01*
X-48690Y58198D01*
X-48741Y58188D01*
X-48794Y58184D01*
D01*
X-48794D01*
X-49666Y58184D01*
X-50094Y58156D01*
X-50146Y58156D01*
D01*
X-50146D01*
X-50198Y58162D01*
X-50219Y58168D01*
X-50248Y58176D01*
X-50249Y58176D01*
X-51085Y58459D01*
X-51085Y58459D01*
X-51134Y58479D01*
X-51179Y58505D01*
X-51211Y58529D01*
X-51221Y58537D01*
X-51221Y58537D01*
X-51885Y59118D01*
X-51885Y59118D01*
X-51922Y59155D01*
X-51954Y59197D01*
X-51965Y59216D01*
X-51980Y59242D01*
X-51980Y59242D01*
X-52372Y60034D01*
Y60034D01*
X-52372Y60034D01*
X-52392Y60082D01*
X-52400Y60114D01*
X-52406Y60133D01*
X-52412Y60185D01*
Y60185D01*
X-52442Y60625D01*
X-52442Y60630D01*
X-52442Y60634D01*
X-52442Y60656D01*
X-52442Y60678D01*
X-52441Y60682D01*
X-52441Y60687D01*
X-52402Y61137D01*
Y61137D01*
X-52395Y61182D01*
X-52394Y61189D01*
X-52390Y61203D01*
X-52379Y61239D01*
X-52358Y61287D01*
X-51941Y62089D01*
X-51941Y62089D01*
X-51914Y62134D01*
X-51881Y62175D01*
X-51844Y62211D01*
X-51151Y62793D01*
X-51109Y62824D01*
X-51088Y62835D01*
X-51063Y62849D01*
X-51014Y62868D01*
X-51014Y62868D01*
X-50152Y63140D01*
X-50152Y63140D01*
X-50114Y63150D01*
X-50101Y63153D01*
X-50049Y63159D01*
X-50049D01*
D01*
X-49997Y63157D01*
D02*
G37*
G36*
X-46529Y63120D02*
X-46508Y63114D01*
X-46478Y63106D01*
X-46478Y63106D01*
X-45642Y62823D01*
X-45642Y62823D01*
X-45593Y62803D01*
X-45548Y62777D01*
X-45516Y62752D01*
X-45506Y62745D01*
X-45506Y62745D01*
X-44842Y62164D01*
X-44842Y62164D01*
X-44805Y62126D01*
X-44773Y62085D01*
X-44762Y62066D01*
X-44747Y62040D01*
X-44746Y62040D01*
X-44355Y61248D01*
Y61248D01*
X-44355Y61248D01*
X-44335Y61200D01*
X-44326Y61168D01*
X-44321Y61149D01*
X-44314Y61097D01*
Y61097D01*
X-44285Y60657D01*
X-44285Y60652D01*
X-44285Y60648D01*
X-44285Y60639D01*
X-44284Y60630D01*
X-44285Y60617D01*
X-44285Y60604D01*
X-44286Y60599D01*
X-44286Y60595D01*
X-44325Y60145D01*
Y60145D01*
X-44333Y60093D01*
X-44347Y60043D01*
X-44368Y59995D01*
X-44785Y59193D01*
X-44785Y59193D01*
X-44813Y59148D01*
X-44846Y59107D01*
X-44883Y59071D01*
X-45575Y58489D01*
X-45618Y58458D01*
X-45638Y58447D01*
X-45664Y58433D01*
X-45713Y58414D01*
X-45713Y58414D01*
X-46575Y58142D01*
X-46575Y58142D01*
X-46613Y58132D01*
X-46626Y58129D01*
X-46678Y58123D01*
X-46678D01*
D01*
X-46730Y58125D01*
X-47163Y58162D01*
X-47933D01*
X-47985Y58166D01*
X-48037Y58176D01*
X-48087Y58193D01*
X-48134Y58216D01*
X-48177Y58245D01*
X-48217Y58280D01*
X-48251Y58319D01*
X-48280Y58363D01*
X-48303Y58410D01*
X-48320Y58459D01*
X-48331Y58511D01*
X-48334Y58563D01*
Y62697D01*
D01*
Y62697D01*
X-48331Y62749D01*
X-48320Y62801D01*
X-48303Y62850D01*
X-48280Y62897D01*
X-48261Y62926D01*
X-48251Y62941D01*
X-48217Y62980D01*
X-48217D01*
Y62980D01*
X-48177Y63015D01*
X-48163Y63024D01*
X-48134Y63044D01*
X-48087Y63067D01*
X-48037Y63084D01*
X-47985Y63094D01*
X-47933Y63098D01*
D01*
X-47933D01*
X-47061Y63098D01*
X-46633Y63126D01*
X-46581Y63126D01*
D01*
X-46581D01*
X-46529Y63120D01*
D02*
G37*
G36*
X37773Y82033D02*
X38206Y81995D01*
X38976D01*
X39029Y81992D01*
X39080Y81982D01*
X39130Y81965D01*
X39177Y81942D01*
X39220Y81912D01*
X39260Y81878D01*
X39294Y81839D01*
X39323Y81795D01*
X39347Y81748D01*
X39364Y81698D01*
X39374Y81647D01*
X39377Y81595D01*
Y77461D01*
X39374Y77408D01*
X39364Y77357D01*
X39347Y77307D01*
X39323Y77260D01*
X39294Y77217D01*
X39260Y77177D01*
X39220Y77143D01*
X39177Y77113D01*
X39130Y77090D01*
X39080Y77073D01*
X39029Y77063D01*
X38976Y77060D01*
X38104Y77060D01*
X37677Y77031D01*
X37624Y77031D01*
D01*
X37624D01*
X37572Y77038D01*
X37551Y77044D01*
X37522Y77052D01*
X37521Y77052D01*
X36685Y77334D01*
X36685Y77334D01*
X36637Y77354D01*
X36591Y77381D01*
X36559Y77405D01*
X36550Y77412D01*
X36550Y77412D01*
X35885Y77994D01*
X35885Y77994D01*
X35848Y78031D01*
X35816Y78073D01*
X35805Y78092D01*
X35790Y78118D01*
X35790Y78118D01*
X35398Y78909D01*
Y78909D01*
X35398Y78909D01*
X35378Y78958D01*
X35370Y78990D01*
X35365Y79008D01*
X35358Y79060D01*
Y79060D01*
X35328Y79501D01*
X35328Y79505D01*
X35328Y79510D01*
X35328Y79532D01*
X35328Y79553D01*
X35329Y79558D01*
X35329Y79562D01*
X35368Y80012D01*
Y80013D01*
X35375Y80058D01*
X35376Y80064D01*
X35380Y80079D01*
X35391Y80115D01*
X35412Y80163D01*
X35829Y80965D01*
X35829Y80965D01*
X35856Y81010D01*
X35889Y81051D01*
X35927Y81087D01*
X36619Y81668D01*
X36661Y81699D01*
X36682Y81711D01*
X36707Y81725D01*
X36756Y81744D01*
X36756Y81744D01*
X37618Y82016D01*
X37618Y82016D01*
X37656Y82025D01*
X37669Y82028D01*
X37721Y82034D01*
X37721D01*
D01*
X37773Y82033D01*
D02*
G37*
G36*
X41241Y81995D02*
X41263Y81989D01*
X41292Y81982D01*
X41292Y81981D01*
X42128Y81699D01*
X42128Y81699D01*
X42177Y81679D01*
X42222Y81652D01*
X42254Y81628D01*
X42264Y81621D01*
X42264Y81621D01*
X42928Y81039D01*
X42928Y81039D01*
X42965Y81002D01*
X42997Y80961D01*
X43009Y80941D01*
X43024Y80915D01*
X43024Y80915D01*
X43415Y80124D01*
Y80124D01*
X43415Y80124D01*
X43435Y80075D01*
X43444Y80043D01*
X43449Y80025D01*
X43456Y79973D01*
Y79973D01*
X43485Y79532D01*
X43485Y79528D01*
X43486Y79523D01*
X43485Y79514D01*
X43486Y79505D01*
X43485Y79493D01*
X43485Y79480D01*
X43485Y79475D01*
X43485Y79471D01*
X43445Y79021D01*
Y79021D01*
X43437Y78969D01*
X43423Y78918D01*
X43402Y78870D01*
X42985Y78068D01*
X42985Y78068D01*
X42957Y78023D01*
X42925Y77982D01*
X42887Y77946D01*
X42195Y77365D01*
X42152Y77334D01*
X42132Y77322D01*
X42106Y77308D01*
X42058Y77289D01*
X42057Y77289D01*
X41196Y77017D01*
X41195Y77017D01*
X41157Y77008D01*
X41145Y77005D01*
X41093Y76999D01*
X41093D01*
D01*
X41040Y77000D01*
X40607Y77038D01*
X39837Y77038D01*
X39837D01*
D01*
X39785Y77041D01*
X39733Y77051D01*
X39684Y77068D01*
X39637Y77091D01*
X39593Y77121D01*
X39554Y77155D01*
X39519Y77195D01*
X39490Y77238D01*
X39467Y77285D01*
X39450Y77335D01*
X39440Y77386D01*
X39436Y77439D01*
D01*
Y77439D01*
X39436Y81573D01*
D01*
Y81573D01*
X39440Y81625D01*
X39450Y81676D01*
X39456Y81693D01*
X39467Y81726D01*
X39490Y81773D01*
X39519Y81817D01*
X39554Y81856D01*
X39554D01*
Y81856D01*
X39593Y81890D01*
X39637Y81920D01*
X39684Y81943D01*
X39717Y81954D01*
X39733Y81960D01*
X39785Y81970D01*
X39837Y81973D01*
X39837D01*
D01*
X40710Y81973D01*
X41137Y82002D01*
X41189Y82002D01*
D01*
X41189D01*
X41241Y81995D01*
D02*
G37*
G36*
X49511Y82055D02*
X49944Y82017D01*
X50714Y82017D01*
D01*
X50714D01*
X50766Y82014D01*
X50818Y82004D01*
X50867Y81987D01*
X50915Y81964D01*
X50958Y81935D01*
X50998Y81900D01*
X51032Y81861D01*
X51061Y81817D01*
X51084Y81770D01*
X51101Y81720D01*
X51112Y81669D01*
X51115Y81616D01*
D01*
Y81616D01*
X51115Y77483D01*
D01*
Y77483D01*
X51112Y77430D01*
X51101Y77379D01*
X51084Y77329D01*
X51061Y77282D01*
X51042Y77253D01*
X51032Y77239D01*
X50998Y77199D01*
X50998D01*
Y77199D01*
X50958Y77165D01*
X50944Y77155D01*
X50915Y77135D01*
X50867Y77112D01*
X50818Y77096D01*
X50766Y77085D01*
X50714Y77082D01*
D01*
X50714D01*
X49842Y77082D01*
X49414Y77053D01*
X49362Y77053D01*
D01*
X49362D01*
X49310Y77060D01*
X49289Y77066D01*
X49259Y77074D01*
X49259Y77074D01*
X48423Y77356D01*
X48423Y77356D01*
X48374Y77376D01*
X48329Y77403D01*
X48297Y77427D01*
X48287Y77434D01*
X48287Y77434D01*
X47623Y78016D01*
X47623Y78016D01*
X47586Y78053D01*
X47554Y78095D01*
X47543Y78114D01*
X47528Y78140D01*
X47528Y78140D01*
X47136Y78931D01*
Y78931D01*
X47136Y78931D01*
X47116Y78980D01*
X47107Y79012D01*
X47102Y79031D01*
X47095Y79082D01*
Y79083D01*
X47066Y79523D01*
X47066Y79527D01*
X47066Y79532D01*
X47066Y79554D01*
X47066Y79575D01*
X47067Y79580D01*
X47067Y79584D01*
X47106Y80035D01*
Y80035D01*
X47113Y80080D01*
X47114Y80086D01*
X47118Y80101D01*
X47128Y80137D01*
X47150Y80185D01*
X47567Y80987D01*
X47567Y80987D01*
X47594Y81032D01*
X47627Y81073D01*
X47664Y81109D01*
X48357Y81690D01*
X48399Y81721D01*
X48419Y81733D01*
X48445Y81747D01*
X48494Y81766D01*
X48494Y81766D01*
X49356Y82038D01*
X49356Y82038D01*
X49394Y82047D01*
X49406Y82050D01*
X49459Y82056D01*
X49459D01*
D01*
X49511Y82055D01*
D02*
G37*
G36*
X52979Y82017D02*
X53000Y82011D01*
X53030Y82004D01*
X53030Y82004D01*
X53866Y81721D01*
X53866Y81721D01*
X53914Y81701D01*
X53960Y81674D01*
X53992Y81650D01*
X54001Y81643D01*
X54001Y81643D01*
X54666Y81061D01*
X54666Y81061D01*
X54703Y81024D01*
X54735Y80983D01*
X54746Y80963D01*
X54761Y80937D01*
X54761Y80937D01*
X55153Y80146D01*
Y80146D01*
X55153Y80146D01*
X55173Y80097D01*
X55181Y80065D01*
X55187Y80047D01*
X55194Y79995D01*
Y79995D01*
X55223Y79554D01*
X55223Y79550D01*
X55223Y79545D01*
X55223Y79536D01*
X55224Y79527D01*
X55223Y79515D01*
X55223Y79502D01*
X55222Y79497D01*
X55222Y79493D01*
X55183Y79043D01*
Y79043D01*
X55175Y78991D01*
X55160Y78940D01*
X55139Y78892D01*
X54722Y78090D01*
X54722Y78090D01*
X54695Y78045D01*
X54662Y78004D01*
X54624Y77968D01*
X53932Y77387D01*
X53890Y77356D01*
X53869Y77344D01*
X53844Y77331D01*
X53795Y77311D01*
X53795Y77311D01*
X52933Y77039D01*
X52933Y77039D01*
X52895Y77030D01*
X52882Y77027D01*
X52830Y77021D01*
X52830D01*
D01*
X52778Y77022D01*
X52345Y77060D01*
X51575D01*
X51522Y77063D01*
X51471Y77073D01*
X51421Y77090D01*
X51374Y77113D01*
X51331Y77143D01*
X51291Y77177D01*
X51257Y77217D01*
X51228Y77260D01*
X51205Y77307D01*
X51188Y77357D01*
X51177Y77408D01*
X51174Y77461D01*
Y81595D01*
D01*
Y81595D01*
X51177Y81647D01*
X51188Y81698D01*
X51205Y81748D01*
X51228Y81795D01*
X51247Y81824D01*
X51257Y81839D01*
X51291Y81878D01*
X51291D01*
Y81878D01*
X51331Y81912D01*
X51345Y81922D01*
X51374Y81942D01*
X51421Y81965D01*
X51471Y81982D01*
X51522Y81992D01*
X51575Y81995D01*
D01*
X51575D01*
X52447Y81995D01*
X52874Y82024D01*
X52927Y82024D01*
D01*
X52927D01*
X52979Y82017D01*
D02*
G37*
D11*
X108573Y-91104D02*
D03*
D12*
X24612Y-139579D02*
D03*
D13*
X-70866Y-122744D02*
D03*
D14*
Y122744D02*
D03*
D15*
X-133185Y48475D02*
D03*
D16*
X-133185Y-48475D02*
D03*
D17*
X24612Y139579D02*
D03*
D18*
X141732Y0D02*
D03*
D19*
X108573Y91104D02*
D03*
D20*
X59055Y0D02*
D03*
X-15748Y57087D02*
D03*
Y-57087D02*
D03*
D21*
X100394Y37795D02*
D03*
D22*
Y24016D02*
D03*
D23*
X15748Y57087D02*
D03*
Y-57087D02*
D03*
X-59055Y0D02*
D03*
D81*
X-48423Y60630D02*
D03*
X-60042Y60630D02*
D03*
X51085Y79524D02*
D03*
X39465Y79528D02*
D03*
X48324Y-63681D02*
D03*
X59943Y-63583D02*
D03*
D82*
X-63779Y-48324D02*
D03*
Y-59943D02*
D03*
D83*
X94644Y-88410D02*
D03*
X103502Y-77854D02*
D03*
D84*
X90121Y-84614D02*
D03*
X98978Y-74058D02*
D03*
X28218Y-120354D02*
D03*
X14648Y-122747D02*
D03*
X-67679Y-103445D02*
D03*
X-55746Y-110334D02*
D03*
X-67679Y103445D02*
D03*
X-55746Y110334D02*
D03*
X-113625Y48688D02*
D03*
X-118338Y35740D02*
D03*
X-113625Y-48688D02*
D03*
X-118338Y-35740D02*
D03*
X28218Y120354D02*
D03*
X14648Y122747D02*
D03*
X123425Y6890D02*
D03*
X123425Y-6890D02*
D03*
X90121Y84614D02*
D03*
X98978Y74058D02*
D03*
D85*
X129025Y-80512D02*
D03*
X101693Y-113084D02*
D03*
D86*
X111684Y-102708D02*
D03*
X120542Y-92153D02*
D03*
D87*
X29243Y-126170D02*
D03*
X15673Y-128562D02*
D03*
D88*
X5213Y-151995D02*
D03*
X47087Y-144611D02*
D03*
D89*
X33106Y-148076D02*
D03*
X19536Y-150468D02*
D03*
D90*
X-70632Y-108559D02*
D03*
X-58699Y-115449D02*
D03*
D91*
X-56884Y-141045D02*
D03*
X-93707Y-119785D02*
D03*
D92*
X-81754Y-127823D02*
D03*
X-69821Y-134713D02*
D03*
D93*
X-70632Y108559D02*
D03*
X-58699Y115449D02*
D03*
D94*
X-56884Y141045D02*
D03*
X-93707Y119785D02*
D03*
D95*
X-81754Y127823D02*
D03*
X-69821Y134713D02*
D03*
D96*
X-119175Y50708D02*
D03*
X-123888Y37760D02*
D03*
D97*
X-148780Y31527D02*
D03*
X-134238Y71483D02*
D03*
D98*
X-140077Y58316D02*
D03*
X-144790Y45367D02*
D03*
D99*
X-119175Y-50708D02*
D03*
X-123888Y-37759D02*
D03*
D100*
X-148780Y-31527D02*
D03*
X-134238Y-71483D02*
D03*
D101*
X-140077Y-58316D02*
D03*
X-144790Y-45367D02*
D03*
D102*
X29243Y126170D02*
D03*
X15673Y128562D02*
D03*
D103*
X5213Y151995D02*
D03*
X47087Y144611D02*
D03*
D104*
X33106Y148076D02*
D03*
X19536Y150469D02*
D03*
D105*
X129331Y6890D02*
D03*
X129331Y-6890D02*
D03*
D106*
X150591Y-21260D02*
D03*
Y21260D02*
D03*
D107*
X151575Y6890D02*
D03*
X151575Y-6890D02*
D03*
D108*
X94644Y88410D02*
D03*
X103502Y77854D02*
D03*
D109*
X129025Y80512D02*
D03*
X101693Y113084D02*
D03*
D110*
X111684Y102708D02*
D03*
X120542Y92153D02*
D03*
D111*
X-50492Y60630D02*
D03*
X-46161D02*
D03*
X-57972D02*
D03*
X-62303D02*
D03*
X53347Y79528D02*
D03*
X49016D02*
D03*
X37205D02*
D03*
X41535D02*
D03*
X50394Y-63681D02*
D03*
X46063D02*
D03*
X57874Y-63583D02*
D03*
X62205D02*
D03*
D112*
X-54232Y73032D02*
D03*
Y67126D02*
D03*
X45276Y86417D02*
D03*
Y92323D02*
D03*
X-66437Y41732D02*
D03*
Y47638D02*
D03*
X54134Y-70473D02*
D03*
Y-76378D02*
D03*
X66142Y-41929D02*
D03*
Y-47835D02*
D03*
D113*
X41535Y67323D02*
D03*
X45276Y67323D02*
D03*
X49016Y67323D02*
D03*
X41535Y57874D02*
D03*
X45276Y57874D02*
D03*
X49016D02*
D03*
X-50492Y41732D02*
D03*
X-54232D02*
D03*
X-57972D02*
D03*
X-50492Y51181D02*
D03*
X-54232D02*
D03*
X-57972D02*
D03*
X50394Y-42126D02*
D03*
X54134Y-42126D02*
D03*
X57874Y-42126D02*
D03*
X50394Y-51575D02*
D03*
X54134Y-51575D02*
D03*
X57874D02*
D03*
D114*
X-63779Y-50394D02*
D03*
Y-46063D02*
D03*
Y-57874D02*
D03*
Y-62205D02*
D03*
D115*
X-78543Y-54134D02*
D03*
X-72638D02*
D03*
X-43504Y-66142D02*
D03*
X-49409D02*
D03*
X41634Y47146D02*
D03*
X47539D02*
D03*
D116*
X-43701Y-50394D02*
D03*
Y-54134D02*
D03*
Y-57874D02*
D03*
X-53150Y-50394D02*
D03*
Y-54134D02*
D03*
Y-57874D02*
D03*
D117*
X78347Y8071D02*
D03*
X78347Y-10433D02*
D03*
D118*
X96244Y-92322D02*
D03*
X98775Y-89306D02*
D03*
X92927Y-89538D02*
D03*
X95457Y-86523D02*
D03*
X89609Y-86755D02*
D03*
X92140Y-83739D02*
D03*
X107632Y-78750D02*
D03*
X105102Y-81766D02*
D03*
X104315Y-75967D02*
D03*
X101784Y-78983D02*
D03*
X100997Y-73183D02*
D03*
X98466Y-76199D02*
D03*
X112950Y-101200D02*
D03*
X119276Y-93660D02*
D03*
X121807Y-90645D02*
D03*
X110419Y-104216D02*
D03*
X31831Y-129511D02*
D03*
X27954Y-130195D02*
D03*
X31079Y-125246D02*
D03*
X27202Y-125930D02*
D03*
X30327Y-120981D02*
D03*
X26450Y-121665D02*
D03*
X14384Y-132587D02*
D03*
X18261Y-131904D02*
D03*
X13632Y-128323D02*
D03*
X17509Y-127639D02*
D03*
X12880Y-124058D02*
D03*
X16757Y-123374D02*
D03*
X31167Y-148417D02*
D03*
X21474Y-150127D02*
D03*
X17597Y-150810D02*
D03*
X35044Y-147734D02*
D03*
X-74207Y-110814D02*
D03*
X-70797Y-112782D02*
D03*
X-72042Y-107063D02*
D03*
X-68632Y-109032D02*
D03*
X-69876Y-103313D02*
D03*
X-66467Y-105281D02*
D03*
X-58864Y-119672D02*
D03*
X-62274Y-117703D02*
D03*
X-56699Y-115921D02*
D03*
X-60108Y-113953D02*
D03*
X-54533Y-112171D02*
D03*
X-57943Y-110202D02*
D03*
X-80049Y-128807D02*
D03*
X-71526Y-133728D02*
D03*
X-68116Y-135697D02*
D03*
X-83459Y-126839D02*
D03*
X-74207Y110814D02*
D03*
X-70797Y112782D02*
D03*
X-72042Y107063D02*
D03*
X-68632Y109032D02*
D03*
X-69876Y103313D02*
D03*
X-66467Y105281D02*
D03*
X-58864Y119672D02*
D03*
X-62274Y117703D02*
D03*
X-56699Y115921D02*
D03*
X-60108Y113953D02*
D03*
X-54533Y112171D02*
D03*
X-57943Y110202D02*
D03*
X-80049Y128807D02*
D03*
X-71526Y133728D02*
D03*
X-68116Y135697D02*
D03*
X-83459Y126839D02*
D03*
X-122016Y53837D02*
D03*
X-123363Y50137D02*
D03*
X-117947Y52356D02*
D03*
X-119293Y48656D02*
D03*
X-113877Y50875D02*
D03*
X-115224Y47175D02*
D03*
X-128075Y37189D02*
D03*
X-126729Y40889D02*
D03*
X-124006Y35708D02*
D03*
X-122659Y39407D02*
D03*
X-119936Y34227D02*
D03*
X-118590Y37926D02*
D03*
X-140751Y56466D02*
D03*
X-144117Y47217D02*
D03*
X-145463Y43518D02*
D03*
X-139404Y60166D02*
D03*
X-122016Y-53837D02*
D03*
X-123363Y-50137D02*
D03*
X-117947Y-52356D02*
D03*
X-119293Y-48656D02*
D03*
X-113877Y-50875D02*
D03*
X-115224Y-47175D02*
D03*
X-128075Y-37189D02*
D03*
X-126729Y-40889D02*
D03*
X-124006Y-35708D02*
D03*
X-122659Y-39407D02*
D03*
X-119936Y-34227D02*
D03*
X-118590Y-37926D02*
D03*
X-140751Y-56466D02*
D03*
X-144117Y-47217D02*
D03*
X-145463Y-43518D02*
D03*
X-139404Y-60166D02*
D03*
X31831Y129511D02*
D03*
X27954Y130195D02*
D03*
X31079Y125246D02*
D03*
X27202Y125930D02*
D03*
X30327Y120981D02*
D03*
X26450Y121665D02*
D03*
X14384Y132587D02*
D03*
X18261Y131904D02*
D03*
X13632Y128323D02*
D03*
X17509Y127639D02*
D03*
X12880Y124058D02*
D03*
X16757Y123374D02*
D03*
X31167Y148417D02*
D03*
X21474Y150127D02*
D03*
X17597Y150810D02*
D03*
X35044Y147734D02*
D03*
X133071Y8858D02*
D03*
X133071Y4921D02*
D03*
X128740Y8858D02*
D03*
X128740Y4921D02*
D03*
X124409Y8858D02*
D03*
X124409Y4921D02*
D03*
X133071Y-8858D02*
D03*
X133071Y-4921D02*
D03*
X128740Y-8858D02*
D03*
X128740Y-4921D02*
D03*
X124409Y-8858D02*
D03*
Y-4921D02*
D03*
X151575Y4921D02*
D03*
Y-4921D02*
D03*
X151575Y-8858D02*
D03*
Y8858D02*
D03*
X96244Y92322D02*
D03*
X98775Y89306D02*
D03*
X92927Y89538D02*
D03*
X95457Y86523D02*
D03*
X89609Y86755D02*
D03*
X92140Y83739D02*
D03*
X107632Y78750D02*
D03*
X105102Y81766D02*
D03*
X104315Y75967D02*
D03*
X101784Y78983D02*
D03*
X100997Y73183D02*
D03*
X98466Y76199D02*
D03*
X112950Y101200D02*
D03*
X119276Y93660D02*
D03*
X121807Y90645D02*
D03*
X110419Y104216D02*
D03*
M02*
