G04*
G04 #@! TF.GenerationSoftware,Altium Limited,Altium Designer,21.7.2 (23)*
G04*
G04 Layer_Color=65535*
%FSLAX25Y25*%
%MOIN*%
G70*
G04*
G04 #@! TF.SameCoordinates,E7E08F9A-FE39-4F42-AE66-928A3885C1E4*
G04*
G04*
G04 #@! TF.FilePolarity,Positive*
G04*
G01*
G75*
G36*
X-1325Y40356D02*
X-1162Y40354D01*
X-995Y40352D01*
X-825Y40349D01*
X-652Y40346D01*
X-476Y40342D01*
X-297Y40337D01*
X-115Y40331D01*
X69Y40325D01*
X256Y40318D01*
X444Y40310D01*
X635Y40302D01*
X827Y40293D01*
X1021Y40284D01*
X1217Y40273D01*
X1414Y40263D01*
X1611Y40252D01*
X1810Y40240D01*
X2009Y40227D01*
X2209Y40214D01*
X2409Y40201D01*
X2609Y40187D01*
X2810Y40172D01*
X3010Y40157D01*
X3209Y40142D01*
X3409Y40126D01*
X3607Y40109D01*
X3804Y40092D01*
X4001Y40075D01*
X4196Y40057D01*
X4389Y40039D01*
X4581Y40020D01*
X4771Y40001D01*
X4959Y39981D01*
X5145Y39962D01*
X5329Y39941D01*
X5510Y39921D01*
X5688Y39900D01*
X5863Y39878D01*
X6036Y39857D01*
X6205Y39835D01*
X6370Y39813D01*
X6532Y39790D01*
X6690Y39767D01*
X6844Y39744D01*
X6994Y39721D01*
X7140Y39697D01*
X7281Y39673D01*
X7417Y39649D01*
X7549Y39625D01*
X7741Y39588D01*
X7933Y39550D01*
X8124Y39511D01*
X8315Y39472D01*
X8506Y39432D01*
X8696Y39391D01*
X8885Y39350D01*
X9074Y39307D01*
X9262Y39264D01*
X9450Y39220D01*
X9638Y39176D01*
X9825Y39130D01*
X10011Y39084D01*
X10197Y39037D01*
X10383Y38989D01*
X10568Y38940D01*
X10752Y38891D01*
X10936Y38840D01*
X11120Y38789D01*
X11303Y38737D01*
X11486Y38685D01*
X11668Y38631D01*
X11849Y38577D01*
X12031Y38522D01*
X12211Y38466D01*
X12392Y38410D01*
X12572Y38352D01*
X12751Y38294D01*
X12930Y38235D01*
X13108Y38175D01*
X13286Y38114D01*
X13464Y38053D01*
X13641Y37990D01*
X13818Y37927D01*
X13994Y37863D01*
X14170Y37799D01*
X14345Y37733D01*
X14520Y37667D01*
X14694Y37600D01*
X14868Y37532D01*
X15042Y37463D01*
X15215Y37393D01*
X15388Y37323D01*
X15560Y37251D01*
X15732Y37179D01*
X15904Y37106D01*
X16075Y37033D01*
X16246Y36958D01*
X16416Y36883D01*
X16586Y36807D01*
X16755Y36729D01*
X16924Y36652D01*
X17093Y36573D01*
X17261Y36493D01*
X17429Y36413D01*
X17596Y36332D01*
X17763Y36250D01*
X17930Y36167D01*
X18096Y36083D01*
X18262Y35998D01*
X18427Y35913D01*
X18592Y35827D01*
X18757Y35740D01*
X18921Y35652D01*
X19085Y35563D01*
X19249Y35473D01*
X19412Y35383D01*
X19575Y35292D01*
X19737Y35199D01*
X19899Y35106D01*
X20061Y35013D01*
X20222Y34918D01*
X20383Y34822D01*
X20543Y34726D01*
X20704Y34628D01*
X20863Y34530D01*
X21023Y34431D01*
X21182Y34331D01*
X21341Y34231D01*
X21499Y34129D01*
X21657Y34027D01*
X21815Y33923D01*
X21972Y33819D01*
X22129Y33714D01*
X22286Y33608D01*
X22442Y33501D01*
X22599Y33394D01*
X22754Y33285D01*
X22909Y33176D01*
X23065Y33066D01*
X23219Y32954D01*
X23374Y32842D01*
X23528Y32729D01*
X23681Y32616D01*
X23835Y32501D01*
X23988Y32386D01*
X24141Y32269D01*
X24293Y32152D01*
X24445Y32034D01*
X24597Y31914D01*
X24748Y31795D01*
X24900Y31674D01*
X25051Y31552D01*
X25201Y31429D01*
X25352Y31306D01*
X25502Y31181D01*
X25651Y31056D01*
X25801Y30930D01*
X25950Y30803D01*
X26099Y30675D01*
X26247Y30546D01*
X26396Y30417D01*
X26544Y30286D01*
X26691Y30154D01*
X26839Y30022D01*
X26986Y29888D01*
X27133Y29754D01*
X27279Y29619D01*
X27426Y29483D01*
X27572Y29346D01*
X27718Y29208D01*
X27863Y29069D01*
X28008Y28930D01*
X28153Y28789D01*
X28298Y28648D01*
X28443Y28505D01*
X28587Y28362D01*
X28731Y28218D01*
X28864Y28083D01*
X28996Y27948D01*
X29127Y27813D01*
X29258Y27678D01*
X29388Y27542D01*
X29517Y27405D01*
X29646Y27268D01*
X29774Y27131D01*
X29901Y26993D01*
X30027Y26855D01*
X30153Y26716D01*
X30277Y26577D01*
X30402Y26437D01*
X30525Y26297D01*
X30648Y26157D01*
X30769Y26016D01*
X30891Y25875D01*
X31011Y25733D01*
X31130Y25591D01*
X31249Y25449D01*
X31367Y25306D01*
X31485Y25162D01*
X31602Y25019D01*
X31717Y24874D01*
X31833Y24730D01*
X31947Y24585D01*
X32061Y24439D01*
X32173Y24294D01*
X32286Y24147D01*
X32397Y24001D01*
X32508Y23854D01*
X32618Y23706D01*
X32727Y23558D01*
X32835Y23410D01*
X32943Y23261D01*
X33050Y23112D01*
X33156Y22963D01*
X33261Y22813D01*
X33366Y22663D01*
X33470Y22512D01*
X33573Y22361D01*
X33675Y22210D01*
X33777Y22058D01*
X33878Y21906D01*
X33977Y21753D01*
X34077Y21600D01*
X34175Y21447D01*
X34273Y21293D01*
X34370Y21139D01*
X34466Y20985D01*
X34562Y20830D01*
X34657Y20674D01*
X34751Y20519D01*
X34844Y20363D01*
X34936Y20207D01*
X35028Y20050D01*
X35119Y19893D01*
X35209Y19735D01*
X35299Y19577D01*
X35387Y19419D01*
X35475Y19261D01*
X35562Y19102D01*
X35648Y18942D01*
X35734Y18783D01*
X35819Y18623D01*
X35903Y18462D01*
X35986Y18302D01*
X36068Y18140D01*
X36150Y17979D01*
X36231Y17817D01*
X36311Y17655D01*
X36391Y17492D01*
X36469Y17330D01*
X36547Y17166D01*
X36624Y17003D01*
X36700Y16839D01*
X36776Y16675D01*
X36851Y16510D01*
X36925Y16345D01*
X36998Y16180D01*
X37070Y16014D01*
X37142Y15848D01*
X37213Y15682D01*
X37283Y15516D01*
X37352Y15349D01*
X37420Y15181D01*
X37488Y15014D01*
X37555Y14846D01*
X37621Y14677D01*
X37687Y14509D01*
X37751Y14340D01*
X37815Y14171D01*
X37878Y14001D01*
X37940Y13831D01*
X38002Y13661D01*
X38062Y13490D01*
X38122Y13319D01*
X38181Y13148D01*
X38239Y12977D01*
X38297Y12805D01*
X38354Y12633D01*
X38410Y12461D01*
X38465Y12288D01*
X38519Y12115D01*
X38573Y11941D01*
X38625Y11768D01*
X38677Y11594D01*
X38729Y11419D01*
X38779Y11245D01*
X38829Y11070D01*
X38877Y10895D01*
X38925Y10719D01*
X38973Y10544D01*
X39019Y10368D01*
X39065Y10191D01*
X39109Y10015D01*
X39153Y9838D01*
X39197Y9661D01*
X39239Y9483D01*
X39281Y9305D01*
X39322Y9127D01*
X39362Y8949D01*
X39401Y8770D01*
X39439Y8591D01*
X39477Y8412D01*
X39514Y8232D01*
X39550Y8053D01*
X39585Y7873D01*
X39619Y7692D01*
X39653Y7512D01*
X39686Y7331D01*
X39718Y7149D01*
X39749Y6968D01*
X39779Y6786D01*
X39809Y6604D01*
X39838Y6422D01*
X39865Y6240D01*
X39893Y6057D01*
X39919Y5874D01*
X39944Y5691D01*
X39969Y5507D01*
X39993Y5323D01*
X40016Y5139D01*
X40038Y4955D01*
X40060Y4770D01*
X40080Y4586D01*
X40100Y4400D01*
X40119Y4215D01*
X40137Y4030D01*
X40155Y3844D01*
X40172Y3658D01*
X40187Y3471D01*
X40202Y3285D01*
X40216Y3098D01*
X40230Y2911D01*
X40242Y2724D01*
X40254Y2536D01*
X40265Y2348D01*
X40275Y2160D01*
X40284Y1972D01*
X40292Y1784D01*
X40300Y1595D01*
X40306Y1406D01*
X40312Y1217D01*
X40317Y1027D01*
X40322Y838D01*
X40325Y648D01*
X40328Y458D01*
X40330Y268D01*
X40331Y77D01*
X40331Y-117D01*
X40330Y-250D01*
X40330Y-383D01*
X40328Y-515D01*
X40327Y-648D01*
X40325Y-781D01*
X40322Y-913D01*
X40319Y-1046D01*
X40316Y-1178D01*
X40313Y-1310D01*
X40306Y-1508D01*
X40299Y-1706D01*
X40291Y-1904D01*
X40283Y-2101D01*
X40273Y-2298D01*
X40262Y-2495D01*
X40251Y-2691D01*
X40238Y-2887D01*
X40225Y-3083D01*
X40211Y-3279D01*
X40195Y-3474D01*
X40179Y-3670D01*
X40162Y-3864D01*
X40145Y-4059D01*
X40126Y-4253D01*
X40106Y-4448D01*
X40086Y-4642D01*
X40064Y-4835D01*
X40042Y-5028D01*
X40019Y-5221D01*
X39995Y-5414D01*
X39970Y-5607D01*
X39944Y-5799D01*
X39917Y-5991D01*
X39889Y-6182D01*
X39861Y-6374D01*
X39832Y-6565D01*
X39801Y-6755D01*
X39770Y-6946D01*
X39738Y-7136D01*
X39705Y-7326D01*
X39671Y-7516D01*
X39636Y-7705D01*
X39601Y-7894D01*
X39564Y-8083D01*
X39527Y-8271D01*
X39489Y-8459D01*
X39450Y-8647D01*
X39410Y-8835D01*
X39369Y-9022D01*
X39327Y-9209D01*
X39284Y-9395D01*
X39241Y-9582D01*
X39196Y-9768D01*
X39151Y-9954D01*
X39105Y-10139D01*
X39058Y-10324D01*
X39010Y-10509D01*
X38961Y-10693D01*
X38911Y-10877D01*
X38861Y-11061D01*
X38809Y-11245D01*
X38757Y-11428D01*
X38704Y-11611D01*
X38650Y-11794D01*
X38595Y-11976D01*
X38539Y-12158D01*
X38482Y-12340D01*
X38425Y-12521D01*
X38366Y-12702D01*
X38307Y-12882D01*
X38247Y-13063D01*
X38186Y-13243D01*
X38124Y-13422D01*
X38061Y-13602D01*
X37998Y-13781D01*
X37933Y-13959D01*
X37868Y-14138D01*
X37802Y-14316D01*
X37734Y-14493D01*
X37667Y-14671D01*
X37598Y-14848D01*
X37528Y-15024D01*
X37458Y-15201D01*
X37386Y-15377D01*
X37314Y-15552D01*
X37241Y-15728D01*
X37167Y-15902D01*
X37092Y-16077D01*
X37016Y-16251D01*
X36940Y-16425D01*
X36862Y-16599D01*
X36784Y-16772D01*
X36705Y-16945D01*
X36625Y-17117D01*
X36544Y-17289D01*
X36462Y-17461D01*
X36380Y-17632D01*
X36296Y-17804D01*
X36212Y-17974D01*
X36127Y-18144D01*
X36041Y-18314D01*
X35954Y-18484D01*
X35867Y-18653D01*
X35778Y-18822D01*
X35689Y-18991D01*
X35598Y-19159D01*
X35508Y-19326D01*
X35416Y-19494D01*
X35323Y-19661D01*
X35229Y-19827D01*
X35135Y-19994D01*
X35039Y-20159D01*
X34943Y-20325D01*
X34846Y-20490D01*
X34748Y-20655D01*
X34650Y-20819D01*
X34550Y-20983D01*
X34450Y-21147D01*
X34348Y-21310D01*
X34246Y-21473D01*
X34143Y-21635D01*
X34040Y-21797D01*
X33935Y-21959D01*
X33830Y-22120D01*
X33723Y-22281D01*
X33616Y-22441D01*
X33508Y-22601D01*
X33400Y-22761D01*
X33290Y-22920D01*
X33179Y-23079D01*
X33068Y-23237D01*
X32956Y-23395D01*
X32843Y-23553D01*
X32729Y-23710D01*
X32614Y-23867D01*
X32499Y-24024D01*
X32383Y-24180D01*
X32265Y-24335D01*
X32147Y-24490D01*
X32029Y-24645D01*
X31909Y-24800D01*
X31789Y-24953D01*
X31667Y-25107D01*
X31545Y-25260D01*
X31422Y-25413D01*
X31298Y-25565D01*
X31174Y-25717D01*
X31048Y-25868D01*
X30922Y-26019D01*
X30795Y-26170D01*
X30667Y-26320D01*
X30538Y-26470D01*
X30408Y-26619D01*
X30278Y-26768D01*
X30147Y-26917D01*
X30015Y-27065D01*
X29882Y-27212D01*
X29748Y-27360D01*
X29614Y-27506D01*
X29478Y-27653D01*
X29342Y-27798D01*
X29205Y-27944D01*
X29067Y-28089D01*
X28929Y-28233D01*
X28789Y-28378D01*
X28649Y-28521D01*
X28508Y-28664D01*
X28413Y-28760D01*
X28318Y-28855D01*
X28223Y-28949D01*
X28128Y-29044D01*
X28032Y-29138D01*
X27935Y-29233D01*
X27839Y-29327D01*
X27741Y-29421D01*
X27644Y-29514D01*
X27543Y-29610D01*
X27439Y-29709D01*
X27334Y-29808D01*
X27229Y-29906D01*
X27124Y-30003D01*
X27018Y-30100D01*
X26912Y-30197D01*
X26806Y-30293D01*
X26699Y-30389D01*
X26592Y-30485D01*
X26484Y-30580D01*
X26376Y-30675D01*
X26267Y-30769D01*
X26159Y-30863D01*
X26050Y-30956D01*
X25940Y-31049D01*
X25830Y-31142D01*
X25720Y-31234D01*
X25609Y-31326D01*
X25499Y-31418D01*
X25387Y-31509D01*
X25276Y-31599D01*
X25164Y-31690D01*
X25051Y-31779D01*
X24938Y-31869D01*
X24825Y-31958D01*
X24712Y-32046D01*
X24598Y-32134D01*
X24484Y-32222D01*
X24370Y-32309D01*
X24255Y-32396D01*
X24140Y-32482D01*
X24025Y-32568D01*
X23909Y-32654D01*
X23793Y-32739D01*
X23677Y-32824D01*
X23560Y-32908D01*
X23443Y-32992D01*
X23326Y-33076D01*
X23208Y-33159D01*
X23090Y-33241D01*
X22972Y-33323D01*
X22853Y-33405D01*
X22734Y-33487D01*
X22615Y-33568D01*
X22496Y-33648D01*
X22376Y-33728D01*
X22256Y-33808D01*
X22135Y-33887D01*
X22015Y-33966D01*
X21893Y-34044D01*
X21772Y-34122D01*
X21651Y-34199D01*
X21529Y-34276D01*
X21407Y-34353D01*
X21284Y-34429D01*
X21161Y-34505D01*
X21038Y-34580D01*
X20915Y-34655D01*
X20792Y-34729D01*
X20668Y-34803D01*
X20544Y-34877D01*
X20419Y-34950D01*
X20295Y-35022D01*
X20170Y-35095D01*
X20045Y-35166D01*
X19919Y-35238D01*
X19794Y-35309D01*
X19668Y-35379D01*
X19541Y-35449D01*
X19415Y-35519D01*
X19288Y-35588D01*
X19161Y-35656D01*
X19034Y-35724D01*
X18906Y-35792D01*
X18779Y-35860D01*
X18651Y-35926D01*
X18523Y-35993D01*
X18394Y-36059D01*
X18266Y-36124D01*
X18137Y-36189D01*
X18008Y-36254D01*
X17878Y-36318D01*
X17749Y-36382D01*
X17619Y-36445D01*
X17489Y-36508D01*
X17359Y-36570D01*
X17228Y-36632D01*
X17097Y-36693D01*
X16967Y-36754D01*
X16836Y-36815D01*
X16704Y-36875D01*
X16573Y-36935D01*
X16441Y-36994D01*
X16309Y-37052D01*
X16177Y-37110D01*
X16045Y-37168D01*
X15912Y-37225D01*
X15779Y-37282D01*
X15646Y-37339D01*
X15513Y-37395D01*
X15380Y-37450D01*
X15246Y-37505D01*
X15113Y-37560D01*
X14979Y-37613D01*
X14845Y-37667D01*
X14710Y-37720D01*
X14576Y-37773D01*
X14441Y-37825D01*
X14307Y-37877D01*
X14172Y-37928D01*
X14037Y-37979D01*
X13901Y-38029D01*
X13766Y-38079D01*
X13630Y-38128D01*
X13494Y-38177D01*
X13359Y-38225D01*
X13222Y-38273D01*
X13086Y-38321D01*
X12950Y-38368D01*
X12813Y-38414D01*
X12676Y-38460D01*
X12539Y-38506D01*
X12403Y-38551D01*
X12265Y-38595D01*
X12128Y-38640D01*
X11991Y-38683D01*
X11853Y-38726D01*
X11715Y-38769D01*
X11577Y-38811D01*
X11440Y-38853D01*
X11301Y-38894D01*
X11163Y-38935D01*
X11025Y-38975D01*
X10886Y-39015D01*
X10748Y-39054D01*
X10609Y-39093D01*
X10470Y-39131D01*
X10331Y-39169D01*
X10192Y-39206D01*
X10053Y-39243D01*
X9913Y-39279D01*
X9774Y-39315D01*
X9635Y-39351D01*
X9495Y-39385D01*
X9355Y-39420D01*
X9215Y-39454D01*
X9076Y-39487D01*
X8935Y-39520D01*
X8795Y-39552D01*
X8655Y-39584D01*
X8515Y-39616D01*
X8375Y-39647D01*
X8234Y-39677D01*
X8094Y-39707D01*
X7953Y-39736D01*
X7812Y-39765D01*
X7671Y-39794D01*
X7530Y-39822D01*
X7390Y-39849D01*
X7249Y-39876D01*
X7107Y-39902D01*
X6966Y-39928D01*
X6825Y-39954D01*
X6684Y-39979D01*
X6543Y-40003D01*
X6401Y-40027D01*
X6260Y-40050D01*
X6118Y-40073D01*
X5977Y-40096D01*
X5835Y-40118D01*
X5693Y-40139D01*
X5552Y-40160D01*
X5410Y-40180D01*
X5268Y-40200D01*
X5126Y-40219D01*
X4984Y-40238D01*
X4842Y-40256D01*
X4700Y-40274D01*
X4558Y-40292D01*
X4416Y-40308D01*
X4274Y-40325D01*
X4132Y-40340D01*
X3990Y-40356D01*
X3848Y-40370D01*
X3706Y-40384D01*
X3564Y-40398D01*
X3422Y-40411D01*
X3279Y-40424D01*
X3137Y-40436D01*
X2995Y-40448D01*
X2853Y-40459D01*
X2710Y-40469D01*
X2568Y-40479D01*
X2426Y-40489D01*
X2284Y-40498D01*
X2142Y-40506D01*
X1999Y-40514D01*
X1857Y-40521D01*
X1715Y-40528D01*
X1573Y-40535D01*
X1431Y-40540D01*
X1288Y-40546D01*
X1146Y-40551D01*
X1004Y-40555D01*
X862Y-40558D01*
X720Y-40562D01*
X578Y-40564D01*
X435Y-40566D01*
X293Y-40568D01*
X152Y-40569D01*
X81Y-40569D01*
X-62Y-40570D01*
X-203Y-40569D01*
X-345Y-40569D01*
X-487Y-40567D01*
X-629Y-40565D01*
X-771Y-40563D01*
X-912Y-40560D01*
X-1054Y-40556D01*
X-1196Y-40552D01*
X-1337Y-40548D01*
X-1479Y-40543D01*
X-1620Y-40537D01*
X-1762Y-40531D01*
X-1903Y-40524D01*
X-2044Y-40517D01*
X-2186Y-40509D01*
X-2327Y-40501D01*
X-2468Y-40492D01*
X-2609Y-40482D01*
X-2750Y-40472D01*
X-2891Y-40462D01*
X-3032Y-40451D01*
X-3172Y-40439D01*
X-3313Y-40427D01*
X-3453Y-40414D01*
X-3594Y-40401D01*
X-3734Y-40387D01*
X-3875Y-40372D01*
X-4015Y-40358D01*
X-4155Y-40342D01*
X-4295Y-40326D01*
X-4435Y-40309D01*
X-4575Y-40292D01*
X-4715Y-40275D01*
X-4854Y-40256D01*
X-4994Y-40237D01*
X-5133Y-40218D01*
X-5273Y-40198D01*
X-5412Y-40178D01*
X-5551Y-40156D01*
X-5690Y-40135D01*
X-5829Y-40113D01*
X-5968Y-40090D01*
X-6106Y-40067D01*
X-6245Y-40043D01*
X-6461Y-40005D01*
X-6674Y-39967D01*
X-6885Y-39929D01*
X-7094Y-39891D01*
X-7301Y-39852D01*
X-7506Y-39813D01*
X-7709Y-39774D01*
X-7909Y-39735D01*
X-8108Y-39696D01*
X-8305Y-39656D01*
X-8500Y-39616D01*
X-8693Y-39575D01*
X-8884Y-39535D01*
X-9074Y-39493D01*
X-9262Y-39452D01*
X-9448Y-39410D01*
X-9633Y-39368D01*
X-9816Y-39325D01*
X-9998Y-39282D01*
X-10178Y-39239D01*
X-10357Y-39195D01*
X-10535Y-39150D01*
X-10711Y-39105D01*
X-10886Y-39059D01*
X-11060Y-39013D01*
X-11232Y-38967D01*
X-11404Y-38919D01*
X-11575Y-38871D01*
X-11744Y-38823D01*
X-11913Y-38774D01*
X-12080Y-38724D01*
X-12247Y-38673D01*
X-12413Y-38622D01*
X-12578Y-38570D01*
X-12743Y-38518D01*
X-12907Y-38464D01*
X-13070Y-38410D01*
X-13233Y-38356D01*
X-13395Y-38300D01*
X-13556Y-38243D01*
X-13718Y-38186D01*
X-13879Y-38128D01*
X-14039Y-38069D01*
X-14199Y-38009D01*
X-14359Y-37948D01*
X-14519Y-37887D01*
X-14679Y-37824D01*
X-14839Y-37760D01*
X-14998Y-37696D01*
X-15158Y-37630D01*
X-15317Y-37563D01*
X-15477Y-37496D01*
X-15637Y-37427D01*
X-15797Y-37358D01*
X-15957Y-37287D01*
X-16118Y-37215D01*
X-16279Y-37142D01*
X-16440Y-37068D01*
X-16602Y-36992D01*
X-16764Y-36916D01*
X-16927Y-36838D01*
X-17090Y-36759D01*
X-17254Y-36679D01*
X-17419Y-36598D01*
X-17584Y-36516D01*
X-17750Y-36432D01*
X-17917Y-36347D01*
X-18085Y-36260D01*
X-18254Y-36172D01*
X-18424Y-36083D01*
X-18595Y-35993D01*
X-18766Y-35901D01*
X-18939Y-35808D01*
X-19113Y-35713D01*
X-19289Y-35617D01*
X-19465Y-35519D01*
X-19643Y-35420D01*
X-19822Y-35320D01*
X-20003Y-35218D01*
X-20185Y-35114D01*
X-20369Y-35009D01*
X-20554Y-34903D01*
X-20740Y-34794D01*
X-20929Y-34685D01*
X-21119Y-34573D01*
X-21182Y-34536D01*
X-21269Y-34484D01*
X-21356Y-34432D01*
X-21444Y-34378D01*
X-21532Y-34323D01*
X-21622Y-34267D01*
X-21712Y-34210D01*
X-21803Y-34151D01*
X-21895Y-34091D01*
X-21988Y-34030D01*
X-22082Y-33968D01*
X-22176Y-33905D01*
X-22270Y-33840D01*
X-22366Y-33775D01*
X-22462Y-33708D01*
X-22559Y-33640D01*
X-22656Y-33572D01*
X-22754Y-33502D01*
X-22853Y-33431D01*
X-22952Y-33359D01*
X-23052Y-33286D01*
X-23152Y-33212D01*
X-23253Y-33138D01*
X-23354Y-33062D01*
X-23456Y-32985D01*
X-23558Y-32908D01*
X-23661Y-32829D01*
X-23764Y-32750D01*
X-23868Y-32670D01*
X-23972Y-32589D01*
X-24076Y-32507D01*
X-24181Y-32425D01*
X-24286Y-32341D01*
X-24391Y-32257D01*
X-24497Y-32172D01*
X-24603Y-32086D01*
X-24709Y-32000D01*
X-24815Y-31913D01*
X-24922Y-31825D01*
X-25029Y-31736D01*
X-25136Y-31647D01*
X-25243Y-31557D01*
X-25351Y-31467D01*
X-25458Y-31376D01*
X-25566Y-31284D01*
X-25674Y-31192D01*
X-25782Y-31099D01*
X-25890Y-31006D01*
X-25998Y-30912D01*
X-26106Y-30818D01*
X-26215Y-30723D01*
X-26323Y-30628D01*
X-26431Y-30532D01*
X-26539Y-30436D01*
X-26647Y-30339D01*
X-26755Y-30242D01*
X-26863Y-30145D01*
X-26971Y-30047D01*
X-27079Y-29949D01*
X-27186Y-29850D01*
X-27294Y-29751D01*
X-27401Y-29652D01*
X-27508Y-29553D01*
X-27615Y-29453D01*
X-27721Y-29353D01*
X-27828Y-29253D01*
X-27934Y-29152D01*
X-28040Y-29052D01*
X-28145Y-28951D01*
X-28251Y-28850D01*
X-28355Y-28749D01*
X-28460Y-28647D01*
X-28564Y-28546D01*
X-28668Y-28444D01*
X-28771Y-28343D01*
X-28874Y-28241D01*
X-28977Y-28139D01*
X-29079Y-28037D01*
X-29181Y-27935D01*
X-29282Y-27833D01*
X-29383Y-27732D01*
X-29483Y-27630D01*
X-29582Y-27528D01*
X-29681Y-27426D01*
X-29780Y-27325D01*
X-29877Y-27223D01*
X-29975Y-27121D01*
X-30071Y-27020D01*
X-30167Y-26919D01*
X-30263Y-26818D01*
X-30357Y-26717D01*
X-30451Y-26616D01*
X-30544Y-26516D01*
X-30637Y-26415D01*
X-30728Y-26315D01*
X-30819Y-26216D01*
X-30909Y-26116D01*
X-30999Y-26017D01*
X-31087Y-25918D01*
X-31175Y-25820D01*
X-31262Y-25721D01*
X-31348Y-25623D01*
X-31433Y-25526D01*
X-31517Y-25429D01*
X-31600Y-25332D01*
X-31682Y-25236D01*
X-31763Y-25140D01*
X-31844Y-25044D01*
X-31923Y-24949D01*
X-32001Y-24855D01*
X-32078Y-24761D01*
X-32154Y-24668D01*
X-32229Y-24575D01*
X-32303Y-24483D01*
X-32376Y-24391D01*
X-32448Y-24300D01*
X-32519Y-24209D01*
X-32588Y-24119D01*
X-32656Y-24030D01*
X-32723Y-23941D01*
X-32789Y-23853D01*
X-32854Y-23766D01*
X-32917Y-23679D01*
X-32979Y-23594D01*
X-33040Y-23508D01*
X-33100Y-23424D01*
X-33158Y-23340D01*
X-33215Y-23258D01*
X-33270Y-23176D01*
X-33356Y-23047D01*
X-33442Y-22916D01*
X-33529Y-22782D01*
X-33617Y-22646D01*
X-33705Y-22506D01*
X-33794Y-22365D01*
X-33884Y-22221D01*
X-33973Y-22075D01*
X-34064Y-21926D01*
X-34154Y-21776D01*
X-34245Y-21623D01*
X-34337Y-21469D01*
X-34428Y-21312D01*
X-34520Y-21154D01*
X-34612Y-20994D01*
X-34704Y-20833D01*
X-34796Y-20670D01*
X-34888Y-20506D01*
X-34980Y-20341D01*
X-35072Y-20174D01*
X-35164Y-20006D01*
X-35255Y-19837D01*
X-35347Y-19668D01*
X-35438Y-19497D01*
X-35529Y-19325D01*
X-35619Y-19153D01*
X-35710Y-18981D01*
X-35799Y-18808D01*
X-35889Y-18634D01*
X-35977Y-18460D01*
X-36066Y-18286D01*
X-36153Y-18112D01*
X-36240Y-17937D01*
X-36326Y-17763D01*
X-36412Y-17589D01*
X-36497Y-17415D01*
X-36580Y-17241D01*
X-36663Y-17068D01*
X-36746Y-16895D01*
X-36827Y-16723D01*
X-36907Y-16552D01*
X-36986Y-16381D01*
X-37064Y-16211D01*
X-37141Y-16042D01*
X-37216Y-15874D01*
X-37290Y-15707D01*
X-37364Y-15542D01*
X-37435Y-15377D01*
X-37506Y-15214D01*
X-37575Y-15053D01*
X-37642Y-14893D01*
X-37708Y-14735D01*
X-37773Y-14578D01*
X-37836Y-14424D01*
X-37897Y-14271D01*
X-37956Y-14120D01*
X-38014Y-13972D01*
X-38070Y-13825D01*
X-38124Y-13681D01*
X-38177Y-13539D01*
X-38227Y-13400D01*
X-38276Y-13263D01*
X-38322Y-13129D01*
X-38367Y-12997D01*
X-38398Y-12904D01*
X-38428Y-12811D01*
X-38459Y-12718D01*
X-38489Y-12624D01*
X-38519Y-12531D01*
X-38548Y-12437D01*
X-38578Y-12343D01*
X-38607Y-12249D01*
X-38636Y-12154D01*
X-38664Y-12060D01*
X-38693Y-11965D01*
X-38721Y-11870D01*
X-38749Y-11775D01*
X-38777Y-11679D01*
X-38804Y-11584D01*
X-38831Y-11488D01*
X-38858Y-11392D01*
X-38885Y-11296D01*
X-38912Y-11200D01*
X-38938Y-11104D01*
X-38964Y-11007D01*
X-38990Y-10911D01*
X-39015Y-10814D01*
X-39041Y-10717D01*
X-39066Y-10620D01*
X-39090Y-10522D01*
X-39115Y-10425D01*
X-39139Y-10327D01*
X-39164Y-10229D01*
X-39187Y-10131D01*
X-39211Y-10033D01*
X-39234Y-9935D01*
X-39257Y-9837D01*
X-39280Y-9738D01*
X-39303Y-9639D01*
X-39325Y-9541D01*
X-39348Y-9442D01*
X-39369Y-9342D01*
X-39391Y-9243D01*
X-39413Y-9144D01*
X-39434Y-9044D01*
X-39455Y-8945D01*
X-39476Y-8845D01*
X-39496Y-8745D01*
X-39516Y-8645D01*
X-39536Y-8545D01*
X-39556Y-8444D01*
X-39575Y-8344D01*
X-39595Y-8243D01*
X-39614Y-8143D01*
X-39633Y-8042D01*
X-39651Y-7941D01*
X-39669Y-7840D01*
X-39687Y-7739D01*
X-39705Y-7638D01*
X-39723Y-7536D01*
X-39740Y-7435D01*
X-39757Y-7333D01*
X-39774Y-7232D01*
X-39791Y-7130D01*
X-39807Y-7028D01*
X-39823Y-6926D01*
X-39839Y-6824D01*
X-39855Y-6722D01*
X-39870Y-6619D01*
X-39885Y-6517D01*
X-39900Y-6414D01*
X-39915Y-6312D01*
X-39930Y-6209D01*
X-39944Y-6106D01*
X-39958Y-6004D01*
X-39971Y-5901D01*
X-39985Y-5798D01*
X-39998Y-5695D01*
X-40011Y-5591D01*
X-40024Y-5488D01*
X-40036Y-5385D01*
X-40049Y-5281D01*
X-40061Y-5178D01*
X-40072Y-5074D01*
X-40084Y-4971D01*
X-40095Y-4867D01*
X-40106Y-4763D01*
X-40117Y-4659D01*
X-40128Y-4555D01*
X-40138Y-4452D01*
X-40148Y-4347D01*
X-40158Y-4243D01*
X-40168Y-4139D01*
X-40177Y-4035D01*
X-40186Y-3931D01*
X-40195Y-3827D01*
X-40204Y-3722D01*
X-40212Y-3618D01*
X-40220Y-3513D01*
X-40228Y-3409D01*
X-40236Y-3304D01*
X-40243Y-3200D01*
X-40251Y-3095D01*
X-40257Y-2990D01*
X-40264Y-2886D01*
X-40271Y-2781D01*
X-40277Y-2676D01*
X-40283Y-2571D01*
X-40289Y-2466D01*
X-40294Y-2361D01*
X-40299Y-2256D01*
X-40304Y-2152D01*
X-40309Y-2047D01*
X-40314Y-1942D01*
X-40318Y-1836D01*
X-40322Y-1732D01*
X-40326Y-1626D01*
X-40330Y-1521D01*
X-40333Y-1416D01*
X-40336Y-1311D01*
X-40339Y-1206D01*
X-40341Y-1101D01*
X-40344Y-996D01*
X-40346Y-890D01*
X-40348Y-785D01*
X-40350Y-680D01*
X-40351Y-575D01*
X-40352Y-470D01*
X-40353Y-364D01*
X-40354Y-259D01*
X-40354Y-154D01*
X-40354Y-49D01*
X-40354Y56D01*
X-40354Y161D01*
X-40354Y267D01*
X-40353Y372D01*
X-40352Y477D01*
X-40350Y582D01*
X-40349Y687D01*
X-40347Y792D01*
X-40345Y898D01*
X-40343Y1003D01*
X-40341Y1108D01*
X-40338Y1213D01*
X-40335Y1318D01*
X-40332Y1423D01*
X-40328Y1528D01*
X-40325Y1633D01*
X-40321Y1737D01*
X-40317Y1842D01*
X-40312Y1947D01*
X-40308Y2052D01*
X-40303Y2157D01*
X-40298Y2261D01*
X-40292Y2366D01*
X-40287Y2471D01*
X-40281Y2575D01*
X-40275Y2680D01*
X-40268Y2784D01*
X-40262Y2889D01*
X-40255Y2993D01*
X-40248Y3098D01*
X-40241Y3202D01*
X-40233Y3306D01*
X-40225Y3410D01*
X-40218Y3514D01*
X-40209Y3619D01*
X-40201Y3723D01*
X-40192Y3827D01*
X-40183Y3930D01*
X-40174Y4034D01*
X-40164Y4138D01*
X-40155Y4242D01*
X-40145Y4345D01*
X-40135Y4449D01*
X-40124Y4552D01*
X-40113Y4656D01*
X-40102Y4759D01*
X-40091Y4862D01*
X-40080Y4965D01*
X-40068Y5068D01*
X-40056Y5172D01*
X-40044Y5274D01*
X-40032Y5377D01*
X-40019Y5480D01*
X-40007Y5583D01*
X-39994Y5685D01*
X-39980Y5788D01*
X-39967Y5890D01*
X-39953Y5992D01*
X-39939Y6095D01*
X-39924Y6197D01*
X-39910Y6299D01*
X-39895Y6401D01*
X-39880Y6502D01*
X-39865Y6604D01*
X-39849Y6706D01*
X-39834Y6807D01*
X-39818Y6908D01*
X-39801Y7010D01*
X-39785Y7111D01*
X-39768Y7212D01*
X-39751Y7313D01*
X-39734Y7413D01*
X-39717Y7514D01*
X-39699Y7615D01*
X-39681Y7715D01*
X-39663Y7815D01*
X-39645Y7915D01*
X-39626Y8015D01*
X-39607Y8115D01*
X-39588Y8215D01*
X-39569Y8315D01*
X-39549Y8414D01*
X-39529Y8514D01*
X-39509Y8613D01*
X-39489Y8712D01*
X-39468Y8811D01*
X-39447Y8910D01*
X-39426Y9008D01*
X-39405Y9107D01*
X-39384Y9205D01*
X-39362Y9303D01*
X-39340Y9402D01*
X-39318Y9500D01*
X-39295Y9597D01*
X-39272Y9695D01*
X-39249Y9792D01*
X-39226Y9890D01*
X-39202Y9987D01*
X-39179Y10084D01*
X-39155Y10181D01*
X-39131Y10277D01*
X-39106Y10374D01*
X-39082Y10470D01*
X-39057Y10566D01*
X-39031Y10662D01*
X-39006Y10758D01*
X-38980Y10854D01*
X-38955Y10949D01*
X-38928Y11045D01*
X-38902Y11140D01*
X-38875Y11235D01*
X-38849Y11329D01*
X-38822Y11424D01*
X-38794Y11518D01*
X-38767Y11613D01*
X-38739Y11707D01*
X-38711Y11800D01*
X-38682Y11894D01*
X-38654Y11987D01*
X-38625Y12081D01*
X-38596Y12174D01*
X-38567Y12267D01*
X-38537Y12359D01*
X-38508Y12452D01*
X-38478Y12544D01*
X-38447Y12636D01*
X-38417Y12728D01*
X-38366Y12880D01*
X-38325Y13001D01*
X-38283Y13122D01*
X-38241Y13242D01*
X-38198Y13363D01*
X-38155Y13483D01*
X-38111Y13604D01*
X-38067Y13724D01*
X-38023Y13845D01*
X-37978Y13965D01*
X-37932Y14085D01*
X-37886Y14205D01*
X-37840Y14325D01*
X-37793Y14445D01*
X-37746Y14565D01*
X-37698Y14685D01*
X-37650Y14804D01*
X-37601Y14924D01*
X-37552Y15044D01*
X-37502Y15163D01*
X-37452Y15282D01*
X-37401Y15401D01*
X-37350Y15520D01*
X-37299Y15639D01*
X-37247Y15758D01*
X-37195Y15877D01*
X-37142Y15996D01*
X-37089Y16114D01*
X-37035Y16233D01*
X-36981Y16351D01*
X-36926Y16469D01*
X-36871Y16588D01*
X-36816Y16706D01*
X-36760Y16824D01*
X-36704Y16941D01*
X-36647Y17059D01*
X-36590Y17176D01*
X-36533Y17294D01*
X-36474Y17411D01*
X-36416Y17528D01*
X-36357Y17645D01*
X-36298Y17762D01*
X-36238Y17879D01*
X-36178Y17996D01*
X-36118Y18112D01*
X-36057Y18228D01*
X-35996Y18345D01*
X-35934Y18461D01*
X-35872Y18576D01*
X-35809Y18692D01*
X-35746Y18808D01*
X-35683Y18923D01*
X-35619Y19038D01*
X-35555Y19154D01*
X-35490Y19269D01*
X-35425Y19383D01*
X-35360Y19498D01*
X-35294Y19613D01*
X-35228Y19727D01*
X-35162Y19841D01*
X-35095Y19955D01*
X-35028Y20069D01*
X-34960Y20183D01*
X-34892Y20296D01*
X-34823Y20410D01*
X-34754Y20523D01*
X-34685Y20636D01*
X-34616Y20749D01*
X-34546Y20861D01*
X-34475Y20974D01*
X-34405Y21086D01*
X-34334Y21198D01*
X-34262Y21310D01*
X-34190Y21421D01*
X-34118Y21533D01*
X-34045Y21644D01*
X-33973Y21755D01*
X-33899Y21866D01*
X-33826Y21977D01*
X-33752Y22087D01*
X-33677Y22198D01*
X-33603Y22308D01*
X-33527Y22418D01*
X-33452Y22528D01*
X-33376Y22637D01*
X-33300Y22746D01*
X-33224Y22855D01*
X-33147Y22964D01*
X-33070Y23073D01*
X-32992Y23181D01*
X-32914Y23290D01*
X-32836Y23398D01*
X-32758Y23505D01*
X-32679Y23613D01*
X-32599Y23720D01*
X-32520Y23827D01*
X-32440Y23934D01*
X-32360Y24041D01*
X-32279Y24147D01*
X-32199Y24253D01*
X-32117Y24359D01*
X-32036Y24465D01*
X-31954Y24570D01*
X-31872Y24676D01*
X-31789Y24780D01*
X-31707Y24885D01*
X-31624Y24990D01*
X-31540Y25094D01*
X-31457Y25198D01*
X-31372Y25302D01*
X-31288Y25405D01*
X-31203Y25508D01*
X-31119Y25611D01*
X-31033Y25714D01*
X-30948Y25816D01*
X-30862Y25918D01*
X-30776Y26020D01*
X-30689Y26122D01*
X-30602Y26223D01*
X-30472Y26375D01*
X-30340Y26526D01*
X-30208Y26676D01*
X-30076Y26826D01*
X-29943Y26975D01*
X-29809Y27123D01*
X-29674Y27271D01*
X-29539Y27418D01*
X-29403Y27564D01*
X-29267Y27710D01*
X-29129Y27855D01*
X-28992Y28000D01*
X-28854Y28144D01*
X-28761Y28239D01*
X-28668Y28334D01*
X-28575Y28429D01*
X-28482Y28524D01*
X-28389Y28618D01*
X-28295Y28712D01*
X-28201Y28805D01*
X-28106Y28899D01*
X-28012Y28992D01*
X-27917Y29084D01*
X-27822Y29177D01*
X-27727Y29269D01*
X-27631Y29360D01*
X-27536Y29452D01*
X-27440Y29543D01*
X-27343Y29633D01*
X-27247Y29724D01*
X-27150Y29814D01*
X-27053Y29904D01*
X-26956Y29993D01*
X-26858Y30082D01*
X-26761Y30171D01*
X-26663Y30259D01*
X-26565Y30347D01*
X-26467Y30435D01*
X-26368Y30522D01*
X-26269Y30609D01*
X-26170Y30695D01*
X-26071Y30782D01*
X-25971Y30867D01*
X-25872Y30953D01*
X-25772Y31038D01*
X-25672Y31123D01*
X-25572Y31207D01*
X-25471Y31291D01*
X-25370Y31375D01*
X-25269Y31459D01*
X-25168Y31541D01*
X-25067Y31624D01*
X-24965Y31706D01*
X-24864Y31788D01*
X-24762Y31870D01*
X-24660Y31951D01*
X-24557Y32032D01*
X-24455Y32112D01*
X-24352Y32192D01*
X-24249Y32271D01*
X-24146Y32351D01*
X-24043Y32429D01*
X-23939Y32508D01*
X-23836Y32586D01*
X-23732Y32663D01*
X-23628Y32741D01*
X-23524Y32817D01*
X-23419Y32894D01*
X-23315Y32970D01*
X-23210Y33045D01*
X-23105Y33121D01*
X-23000Y33195D01*
X-22895Y33270D01*
X-22790Y33344D01*
X-22684Y33417D01*
X-22578Y33491D01*
X-22472Y33563D01*
X-22366Y33636D01*
X-22260Y33708D01*
X-22154Y33779D01*
X-22047Y33850D01*
X-21941Y33921D01*
X-21834Y33991D01*
X-21727Y34061D01*
X-21620Y34130D01*
X-21512Y34199D01*
X-21405Y34268D01*
X-21297Y34336D01*
X-21190Y34403D01*
X-21082Y34470D01*
X-20974Y34537D01*
X-20866Y34604D01*
X-20757Y34669D01*
X-20649Y34735D01*
X-20540Y34800D01*
X-20432Y34864D01*
X-20323Y34928D01*
X-20214Y34992D01*
X-20105Y35055D01*
X-19996Y35118D01*
X-19886Y35180D01*
X-19777Y35242D01*
X-19668Y35303D01*
X-19558Y35364D01*
X-19448Y35425D01*
X-19338Y35485D01*
X-19228Y35544D01*
X-19118Y35603D01*
X-19008Y35662D01*
X-18897Y35720D01*
X-18787Y35777D01*
X-18676Y35834D01*
X-18565Y35891D01*
X-18455Y35947D01*
X-18344Y36003D01*
X-18233Y36058D01*
X-18122Y36113D01*
X-18011Y36167D01*
X-17899Y36221D01*
X-17788Y36274D01*
X-17676Y36327D01*
X-17565Y36379D01*
X-17453Y36431D01*
X-17341Y36482D01*
X-17230Y36533D01*
X-17118Y36583D01*
X-17006Y36633D01*
X-16894Y36682D01*
X-16781Y36731D01*
X-16669Y36779D01*
X-16557Y36827D01*
X-16394Y36896D01*
X-16228Y36966D01*
X-16061Y37037D01*
X-15895Y37108D01*
X-15729Y37178D01*
X-15566Y37248D01*
X-15406Y37317D01*
X-15251Y37383D01*
X-15102Y37447D01*
X-14960Y37509D01*
X-14826Y37567D01*
X-14701Y37621D01*
X-14586Y37671D01*
X-14483Y37716D01*
X-14392Y37756D01*
X-14246Y37821D01*
X-14126Y37872D01*
X-14001Y37923D01*
X-13871Y37975D01*
X-13736Y38027D01*
X-13596Y38079D01*
X-13451Y38131D01*
X-13301Y38183D01*
X-13146Y38235D01*
X-12987Y38287D01*
X-12823Y38339D01*
X-12655Y38391D01*
X-12482Y38443D01*
X-12305Y38495D01*
X-12123Y38548D01*
X-11938Y38600D01*
X-11748Y38652D01*
X-11554Y38704D01*
X-11357Y38756D01*
X-11155Y38807D01*
X-10949Y38859D01*
X-10740Y38910D01*
X-10527Y38961D01*
X-10311Y39013D01*
X-10091Y39063D01*
X-9867Y39114D01*
X-9641Y39164D01*
X-9411Y39215D01*
X-9177Y39264D01*
X-8941Y39314D01*
X-8702Y39363D01*
X-8459Y39412D01*
X-8214Y39461D01*
X-7966Y39509D01*
X-7715Y39557D01*
X-7461Y39604D01*
X-7205Y39651D01*
X-6946Y39698D01*
X-6685Y39744D01*
X-6422Y39790D01*
X-6156Y39835D01*
X-5888Y39880D01*
X-5618Y39924D01*
X-5346Y39968D01*
X-5072Y40011D01*
X-4796Y40053D01*
X-4518Y40095D01*
X-4238Y40137D01*
X-3957Y40177D01*
X-3674Y40218D01*
X-3390Y40257D01*
X-3218Y40280D01*
X-3131Y40291D01*
X-3036Y40301D01*
X-2936Y40311D01*
X-2830Y40319D01*
X-2719Y40326D01*
X-2601Y40333D01*
X-2479Y40339D01*
X-2351Y40344D01*
X-2218Y40348D01*
X-2080Y40351D01*
X-1938Y40354D01*
X-1791Y40355D01*
X-1640Y40356D01*
X-1484Y40356D01*
X-1325Y40356D01*
D02*
G37*
%LPC*%
G36*
X-173Y37715D02*
X-328Y37714D01*
X-483Y37713D01*
X-638Y37710D01*
X-794Y37707D01*
X-950Y37703D01*
X-1106Y37698D01*
X-1263Y37692D01*
X-1420Y37686D01*
X-1578Y37678D01*
X-1737Y37669D01*
X-1897Y37660D01*
X-2057Y37649D01*
X-2219Y37638D01*
X-2382Y37626D01*
X-2547Y37613D01*
X-2712Y37599D01*
X-2879Y37584D01*
X-3090Y37564D01*
X-3304Y37543D01*
X-3520Y37520D01*
X-3739Y37496D01*
X-3962Y37470D01*
X-4187Y37443D01*
X-4417Y37415D01*
X-4650Y37385D01*
X-4886Y37353D01*
X-5127Y37321D01*
X-5372Y37287D01*
X-5621Y37251D01*
X-5722Y37236D01*
X-5812Y37223D01*
X-5902Y37210D01*
X-5993Y37196D01*
X-6083Y37181D01*
X-6174Y37167D01*
X-6265Y37152D01*
X-6356Y37137D01*
X-6448Y37121D01*
X-6539Y37105D01*
X-6631Y37089D01*
X-6723Y37073D01*
X-6815Y37056D01*
X-6908Y37038D01*
X-7000Y37021D01*
X-7093Y37003D01*
X-7186Y36985D01*
X-7279Y36966D01*
X-7372Y36948D01*
X-7466Y36928D01*
X-7559Y36909D01*
X-7653Y36889D01*
X-7747Y36869D01*
X-7841Y36849D01*
X-7935Y36828D01*
X-8029Y36807D01*
X-8124Y36786D01*
X-8219Y36764D01*
X-8313Y36742D01*
X-8408Y36720D01*
X-8503Y36698D01*
X-8598Y36675D01*
X-8693Y36652D01*
X-8788Y36628D01*
X-8884Y36604D01*
X-8979Y36580D01*
X-9075Y36556D01*
X-9170Y36531D01*
X-9266Y36507D01*
X-9362Y36481D01*
X-9458Y36456D01*
X-9554Y36430D01*
X-9650Y36404D01*
X-9746Y36378D01*
X-9842Y36351D01*
X-9939Y36324D01*
X-10035Y36297D01*
X-10131Y36270D01*
X-10227Y36242D01*
X-10324Y36214D01*
X-10420Y36185D01*
X-10517Y36157D01*
X-10614Y36128D01*
X-10710Y36099D01*
X-10807Y36069D01*
X-10903Y36040D01*
X-11000Y36010D01*
X-11097Y35980D01*
X-11193Y35949D01*
X-11290Y35918D01*
X-11387Y35887D01*
X-11484Y35856D01*
X-11580Y35824D01*
X-11677Y35793D01*
X-11774Y35761D01*
X-11870Y35728D01*
X-11967Y35696D01*
X-12064Y35663D01*
X-12160Y35630D01*
X-12257Y35596D01*
X-12353Y35563D01*
X-12450Y35529D01*
X-12546Y35495D01*
X-12642Y35461D01*
X-12739Y35426D01*
X-12835Y35391D01*
X-12931Y35356D01*
X-13027Y35321D01*
X-13124Y35285D01*
X-13220Y35249D01*
X-13316Y35213D01*
X-13411Y35177D01*
X-13507Y35141D01*
X-13603Y35104D01*
X-13699Y35067D01*
X-13794Y35030D01*
X-13890Y34992D01*
X-13985Y34955D01*
X-14080Y34917D01*
X-14175Y34878D01*
X-14270Y34840D01*
X-14365Y34802D01*
X-14460Y34763D01*
X-14555Y34724D01*
X-14649Y34684D01*
X-14744Y34645D01*
X-14838Y34605D01*
X-14932Y34565D01*
X-15026Y34525D01*
X-15120Y34485D01*
X-15213Y34444D01*
X-15307Y34403D01*
X-15400Y34363D01*
X-15494Y34321D01*
X-15587Y34280D01*
X-15680Y34238D01*
X-15772Y34197D01*
X-15865Y34155D01*
X-15957Y34112D01*
X-16049Y34070D01*
X-16141Y34027D01*
X-16233Y33985D01*
X-16325Y33942D01*
X-16416Y33898D01*
X-16507Y33855D01*
X-16598Y33811D01*
X-16689Y33768D01*
X-16780Y33724D01*
X-16870Y33679D01*
X-16960Y33635D01*
X-17050Y33590D01*
X-17140Y33546D01*
X-17229Y33501D01*
X-17318Y33456D01*
X-17407Y33410D01*
X-17496Y33365D01*
X-17584Y33319D01*
X-17672Y33273D01*
X-17822Y33195D01*
X-17944Y33130D01*
X-18067Y33065D01*
X-18189Y32999D01*
X-18310Y32932D01*
X-18432Y32865D01*
X-18553Y32798D01*
X-18674Y32730D01*
X-18795Y32662D01*
X-18915Y32593D01*
X-19035Y32524D01*
X-19155Y32454D01*
X-19275Y32384D01*
X-19394Y32313D01*
X-19513Y32242D01*
X-19632Y32170D01*
X-19750Y32098D01*
X-19868Y32026D01*
X-19986Y31953D01*
X-20103Y31879D01*
X-20221Y31805D01*
X-20338Y31731D01*
X-20455Y31656D01*
X-20571Y31581D01*
X-20687Y31505D01*
X-20803Y31429D01*
X-20918Y31352D01*
X-21034Y31275D01*
X-21148Y31198D01*
X-21263Y31120D01*
X-21377Y31041D01*
X-21492Y30962D01*
X-21605Y30883D01*
X-21719Y30804D01*
X-21832Y30723D01*
X-21945Y30643D01*
X-22057Y30562D01*
X-22169Y30481D01*
X-22281Y30399D01*
X-22393Y30316D01*
X-22504Y30234D01*
X-22615Y30150D01*
X-22726Y30067D01*
X-22836Y29983D01*
X-22946Y29899D01*
X-23056Y29814D01*
X-23165Y29729D01*
X-23274Y29643D01*
X-23383Y29557D01*
X-23491Y29471D01*
X-23599Y29384D01*
X-23707Y29296D01*
X-23815Y29209D01*
X-23922Y29121D01*
X-24029Y29032D01*
X-24135Y28943D01*
X-24241Y28854D01*
X-24347Y28764D01*
X-24453Y28674D01*
X-24558Y28584D01*
X-24663Y28493D01*
X-24767Y28402D01*
X-24871Y28310D01*
X-24975Y28218D01*
X-25079Y28126D01*
X-25182Y28033D01*
X-25285Y27940D01*
X-25387Y27846D01*
X-25489Y27752D01*
X-25591Y27658D01*
X-25693Y27563D01*
X-25794Y27468D01*
X-25894Y27373D01*
X-25995Y27277D01*
X-26095Y27180D01*
X-26195Y27084D01*
X-26294Y26987D01*
X-26393Y26890D01*
X-26492Y26792D01*
X-26590Y26694D01*
X-26688Y26596D01*
X-26786Y26497D01*
X-26883Y26398D01*
X-26980Y26298D01*
X-27076Y26198D01*
X-27172Y26098D01*
X-27268Y25998D01*
X-27364Y25897D01*
X-27459Y25796D01*
X-27554Y25694D01*
X-27648Y25592D01*
X-27742Y25490D01*
X-27836Y25387D01*
X-27929Y25284D01*
X-28022Y25181D01*
X-28114Y25077D01*
X-28206Y24973D01*
X-28298Y24869D01*
X-28390Y24764D01*
X-28481Y24659D01*
X-28571Y24554D01*
X-28662Y24449D01*
X-28752Y24342D01*
X-28841Y24236D01*
X-28930Y24130D01*
X-29019Y24023D01*
X-29107Y23915D01*
X-29195Y23808D01*
X-29283Y23700D01*
X-29370Y23592D01*
X-29457Y23483D01*
X-29543Y23374D01*
X-29629Y23265D01*
X-29715Y23156D01*
X-29800Y23046D01*
X-29885Y22936D01*
X-29970Y22826D01*
X-30054Y22715D01*
X-30138Y22604D01*
X-30221Y22493D01*
X-30304Y22381D01*
X-30386Y22269D01*
X-30468Y22157D01*
X-30550Y22045D01*
X-30631Y21932D01*
X-30712Y21819D01*
X-30793Y21705D01*
X-30873Y21592D01*
X-30953Y21478D01*
X-31032Y21363D01*
X-31111Y21249D01*
X-31189Y21134D01*
X-31267Y21019D01*
X-31345Y20904D01*
X-31422Y20788D01*
X-31499Y20672D01*
X-31575Y20556D01*
X-31651Y20440D01*
X-31727Y20323D01*
X-31802Y20206D01*
X-31877Y20089D01*
X-31951Y19971D01*
X-32025Y19853D01*
X-32098Y19736D01*
X-32171Y19617D01*
X-32244Y19499D01*
X-32316Y19380D01*
X-32388Y19261D01*
X-32459Y19141D01*
X-32530Y19022D01*
X-32600Y18902D01*
X-32670Y18782D01*
X-32740Y18662D01*
X-32809Y18541D01*
X-32878Y18420D01*
X-32946Y18299D01*
X-33014Y18178D01*
X-33081Y18056D01*
X-33148Y17934D01*
X-33215Y17812D01*
X-33281Y17690D01*
X-33347Y17568D01*
X-33412Y17445D01*
X-33477Y17322D01*
X-33541Y17199D01*
X-33605Y17075D01*
X-33668Y16951D01*
X-33731Y16827D01*
X-33794Y16703D01*
X-33856Y16579D01*
X-33917Y16454D01*
X-33979Y16330D01*
X-34039Y16205D01*
X-34099Y16080D01*
X-34159Y15954D01*
X-34219Y15828D01*
X-34277Y15703D01*
X-34336Y15576D01*
X-34394Y15450D01*
X-34451Y15324D01*
X-34508Y15197D01*
X-34565Y15070D01*
X-34621Y14943D01*
X-34677Y14816D01*
X-34732Y14688D01*
X-34786Y14561D01*
X-34841Y14433D01*
X-34894Y14305D01*
X-34948Y14176D01*
X-35001Y14048D01*
X-35053Y13919D01*
X-35105Y13790D01*
X-35156Y13661D01*
X-35207Y13532D01*
X-35257Y13403D01*
X-35307Y13273D01*
X-35357Y13143D01*
X-35406Y13013D01*
X-35454Y12883D01*
X-35502Y12753D01*
X-35550Y12623D01*
X-35597Y12492D01*
X-35643Y12361D01*
X-35689Y12230D01*
X-35735Y12099D01*
X-35780Y11968D01*
X-35825Y11836D01*
X-35869Y11705D01*
X-35912Y11573D01*
X-35956Y11441D01*
X-35998Y11309D01*
X-36040Y11176D01*
X-36082Y11044D01*
X-36123Y10911D01*
X-36164Y10779D01*
X-36204Y10646D01*
X-36243Y10513D01*
X-36283Y10379D01*
X-36321Y10246D01*
X-36359Y10113D01*
X-36397Y9979D01*
X-36434Y9845D01*
X-36470Y9711D01*
X-36507Y9577D01*
X-36542Y9443D01*
X-36577Y9309D01*
X-36612Y9174D01*
X-36646Y9040D01*
X-36679Y8905D01*
X-36712Y8770D01*
X-36744Y8635D01*
X-36776Y8500D01*
X-36808Y8365D01*
X-36839Y8230D01*
X-36869Y8094D01*
X-36899Y7959D01*
X-36928Y7823D01*
X-36957Y7687D01*
X-36985Y7551D01*
X-37013Y7415D01*
X-37040Y7279D01*
X-37067Y7143D01*
X-37093Y7006D01*
X-37119Y6870D01*
X-37144Y6733D01*
X-37168Y6597D01*
X-37192Y6460D01*
X-37216Y6323D01*
X-37239Y6186D01*
X-37261Y6049D01*
X-37283Y5912D01*
X-37304Y5774D01*
X-37325Y5637D01*
X-37345Y5500D01*
X-37365Y5362D01*
X-37384Y5224D01*
X-37402Y5091D01*
X-37419Y4962D01*
X-37435Y4832D01*
X-37451Y4702D01*
X-37466Y4570D01*
X-37481Y4438D01*
X-37495Y4304D01*
X-37508Y4171D01*
X-37521Y4036D01*
X-37533Y3901D01*
X-37545Y3765D01*
X-37557Y3628D01*
X-37567Y3491D01*
X-37578Y3353D01*
X-37587Y3214D01*
X-37596Y3075D01*
X-37605Y2935D01*
X-37613Y2795D01*
X-37621Y2653D01*
X-37628Y2512D01*
X-37635Y2370D01*
X-37641Y2227D01*
X-37646Y2084D01*
X-37651Y1940D01*
X-37655Y1796D01*
X-37659Y1651D01*
X-37663Y1506D01*
X-37666Y1360D01*
X-37668Y1214D01*
X-37670Y1068D01*
X-37672Y921D01*
X-37672Y774D01*
X-37673Y626D01*
X-37673Y478D01*
X-37672Y330D01*
X-37671Y182D01*
X-37669Y33D01*
X-37667Y-116D01*
X-37665Y-266D01*
X-37661Y-416D01*
X-37658Y-565D01*
X-37654Y-716D01*
X-37649Y-866D01*
X-37644Y-1017D01*
X-37639Y-1167D01*
X-37633Y-1318D01*
X-37626Y-1469D01*
X-37619Y-1620D01*
X-37611Y-1771D01*
X-37604Y-1923D01*
X-37595Y-2074D01*
X-37586Y-2226D01*
X-37577Y-2378D01*
X-37567Y-2529D01*
X-37556Y-2681D01*
X-37546Y-2832D01*
X-37534Y-2984D01*
X-37523Y-3136D01*
X-37510Y-3287D01*
X-37498Y-3439D01*
X-37485Y-3590D01*
X-37471Y-3742D01*
X-37457Y-3893D01*
X-37442Y-4044D01*
X-37427Y-4195D01*
X-37412Y-4346D01*
X-37396Y-4497D01*
X-37380Y-4647D01*
X-37363Y-4798D01*
X-37346Y-4948D01*
X-37328Y-5098D01*
X-37310Y-5248D01*
X-37291Y-5397D01*
X-37272Y-5546D01*
X-37253Y-5695D01*
X-37233Y-5844D01*
X-37213Y-5992D01*
X-37192Y-6140D01*
X-37171Y-6288D01*
X-37149Y-6435D01*
X-37127Y-6582D01*
X-37104Y-6728D01*
X-37082Y-6874D01*
X-37058Y-7020D01*
X-37034Y-7165D01*
X-37010Y-7310D01*
X-36985Y-7454D01*
X-36960Y-7598D01*
X-36935Y-7741D01*
X-36909Y-7884D01*
X-36883Y-8026D01*
X-36856Y-8168D01*
X-36829Y-8309D01*
X-36801Y-8449D01*
X-36773Y-8589D01*
X-36745Y-8729D01*
X-36716Y-8867D01*
X-36687Y-9005D01*
X-36657Y-9143D01*
X-36627Y-9280D01*
X-36597Y-9416D01*
X-36566Y-9551D01*
X-36535Y-9686D01*
X-36503Y-9820D01*
X-36471Y-9953D01*
X-36439Y-10085D01*
X-36406Y-10217D01*
X-36373Y-10348D01*
X-36340Y-10478D01*
X-36306Y-10607D01*
X-36271Y-10735D01*
X-36237Y-10863D01*
X-36202Y-10989D01*
X-36166Y-11115D01*
X-36130Y-11240D01*
X-36094Y-11364D01*
X-36057Y-11487D01*
X-36020Y-11609D01*
X-35983Y-11730D01*
X-35945Y-11850D01*
X-35907Y-11969D01*
X-35869Y-12087D01*
X-35830Y-12204D01*
X-35791Y-12320D01*
X-35751Y-12435D01*
X-35711Y-12549D01*
X-35671Y-12662D01*
X-35630Y-12774D01*
X-35583Y-12901D01*
X-35529Y-13045D01*
X-35475Y-13188D01*
X-35419Y-13331D01*
X-35364Y-13474D01*
X-35308Y-13617D01*
X-35251Y-13759D01*
X-35194Y-13901D01*
X-35136Y-14043D01*
X-35078Y-14184D01*
X-35019Y-14325D01*
X-34960Y-14466D01*
X-34900Y-14607D01*
X-34840Y-14747D01*
X-34779Y-14887D01*
X-34717Y-15026D01*
X-34655Y-15166D01*
X-34593Y-15305D01*
X-34530Y-15443D01*
X-34466Y-15582D01*
X-34402Y-15720D01*
X-34338Y-15858D01*
X-34273Y-15995D01*
X-34207Y-16132D01*
X-34141Y-16269D01*
X-34075Y-16406D01*
X-34008Y-16542D01*
X-33940Y-16678D01*
X-33872Y-16814D01*
X-33803Y-16949D01*
X-33734Y-17084D01*
X-33665Y-17219D01*
X-33595Y-17353D01*
X-33524Y-17487D01*
X-33453Y-17620D01*
X-33381Y-17754D01*
X-33309Y-17887D01*
X-33236Y-18020D01*
X-33163Y-18152D01*
X-33090Y-18284D01*
X-33016Y-18416D01*
X-32941Y-18547D01*
X-32866Y-18678D01*
X-32790Y-18809D01*
X-32714Y-18939D01*
X-32638Y-19069D01*
X-32561Y-19199D01*
X-32484Y-19328D01*
X-32405Y-19457D01*
X-32327Y-19586D01*
X-32248Y-19714D01*
X-32169Y-19842D01*
X-32089Y-19970D01*
X-32009Y-20097D01*
X-31928Y-20224D01*
X-31847Y-20351D01*
X-31765Y-20477D01*
X-31683Y-20603D01*
X-31600Y-20729D01*
X-31517Y-20854D01*
X-31433Y-20978D01*
X-31349Y-21103D01*
X-31265Y-21227D01*
X-31180Y-21351D01*
X-31094Y-21474D01*
X-31008Y-21597D01*
X-30922Y-21720D01*
X-30835Y-21842D01*
X-30748Y-21964D01*
X-30660Y-22086D01*
X-30572Y-22207D01*
X-30483Y-22328D01*
X-30395Y-22448D01*
X-30305Y-22569D01*
X-30215Y-22688D01*
X-30125Y-22808D01*
X-30034Y-22927D01*
X-29943Y-23045D01*
X-29851Y-23164D01*
X-29759Y-23281D01*
X-29666Y-23399D01*
X-29573Y-23516D01*
X-29480Y-23633D01*
X-29386Y-23749D01*
X-29292Y-23865D01*
X-29197Y-23981D01*
X-29102Y-24096D01*
X-29006Y-24211D01*
X-28910Y-24325D01*
X-28814Y-24439D01*
X-28717Y-24553D01*
X-28620Y-24666D01*
X-28522Y-24779D01*
X-28424Y-24891D01*
X-28325Y-25003D01*
X-28226Y-25115D01*
X-28127Y-25226D01*
X-28027Y-25337D01*
X-27927Y-25448D01*
X-27826Y-25558D01*
X-27725Y-25667D01*
X-27624Y-25777D01*
X-27522Y-25885D01*
X-27420Y-25994D01*
X-27318Y-26102D01*
X-27215Y-26210D01*
X-27111Y-26317D01*
X-27007Y-26424D01*
X-26903Y-26530D01*
X-26798Y-26636D01*
X-26693Y-26742D01*
X-26588Y-26847D01*
X-26482Y-26952D01*
X-26376Y-27056D01*
X-26270Y-27160D01*
X-26162Y-27263D01*
X-26055Y-27366D01*
X-25947Y-27469D01*
X-25839Y-27571D01*
X-25731Y-27673D01*
X-25622Y-27774D01*
X-25513Y-27875D01*
X-25403Y-27976D01*
X-25293Y-28076D01*
X-25183Y-28176D01*
X-25072Y-28275D01*
X-24961Y-28374D01*
X-24849Y-28472D01*
X-24737Y-28570D01*
X-24625Y-28667D01*
X-24512Y-28764D01*
X-24399Y-28861D01*
X-24286Y-28957D01*
X-24172Y-29053D01*
X-24058Y-29148D01*
X-23944Y-29243D01*
X-23829Y-29337D01*
X-23714Y-29431D01*
X-23598Y-29525D01*
X-23483Y-29618D01*
X-23366Y-29711D01*
X-23250Y-29803D01*
X-23133Y-29894D01*
X-23016Y-29985D01*
X-22898Y-30076D01*
X-22780Y-30167D01*
X-22662Y-30257D01*
X-22543Y-30346D01*
X-22424Y-30435D01*
X-22305Y-30523D01*
X-22185Y-30611D01*
X-22065Y-30699D01*
X-21945Y-30786D01*
X-21824Y-30873D01*
X-21703Y-30959D01*
X-21581Y-31045D01*
X-21460Y-31130D01*
X-21338Y-31215D01*
X-21215Y-31299D01*
X-21093Y-31383D01*
X-20970Y-31466D01*
X-20846Y-31549D01*
X-20723Y-31631D01*
X-20599Y-31713D01*
X-20474Y-31795D01*
X-20350Y-31876D01*
X-20225Y-31956D01*
X-20099Y-32036D01*
X-19974Y-32116D01*
X-19848Y-32195D01*
X-19722Y-32273D01*
X-19595Y-32351D01*
X-19468Y-32429D01*
X-19341Y-32506D01*
X-19214Y-32582D01*
X-19086Y-32658D01*
X-18958Y-32734D01*
X-18830Y-32809D01*
X-18701Y-32884D01*
X-18572Y-32958D01*
X-18443Y-33031D01*
X-18313Y-33105D01*
X-18183Y-33177D01*
X-18053Y-33249D01*
X-17923Y-33321D01*
X-17792Y-33392D01*
X-17661Y-33463D01*
X-17530Y-33533D01*
X-17398Y-33602D01*
X-17266Y-33672D01*
X-17134Y-33740D01*
X-17002Y-33808D01*
X-16869Y-33876D01*
X-16736Y-33943D01*
X-16602Y-34009D01*
X-16469Y-34075D01*
X-16335Y-34141D01*
X-16201Y-34206D01*
X-16066Y-34270D01*
X-15932Y-34334D01*
X-15797Y-34398D01*
X-15661Y-34460D01*
X-15526Y-34523D01*
X-15390Y-34585D01*
X-15254Y-34646D01*
X-15118Y-34707D01*
X-14981Y-34767D01*
X-14844Y-34827D01*
X-14707Y-34886D01*
X-14570Y-34945D01*
X-14432Y-35003D01*
X-14294Y-35060D01*
X-14156Y-35117D01*
X-14018Y-35174D01*
X-13879Y-35230D01*
X-13740Y-35285D01*
X-13601Y-35340D01*
X-13462Y-35395D01*
X-13322Y-35449D01*
X-13182Y-35502D01*
X-13042Y-35555D01*
X-12901Y-35607D01*
X-12761Y-35658D01*
X-12620Y-35709D01*
X-12479Y-35760D01*
X-12338Y-35810D01*
X-12196Y-35859D01*
X-12054Y-35908D01*
X-11912Y-35957D01*
X-11770Y-36004D01*
X-11627Y-36052D01*
X-11485Y-36098D01*
X-11342Y-36144D01*
X-11198Y-36190D01*
X-11055Y-36235D01*
X-10911Y-36279D01*
X-10767Y-36323D01*
X-10623Y-36366D01*
X-10479Y-36409D01*
X-10334Y-36451D01*
X-10190Y-36493D01*
X-10045Y-36534D01*
X-9900Y-36574D01*
X-9754Y-36614D01*
X-9608Y-36654D01*
X-9463Y-36692D01*
X-9317Y-36730D01*
X-9170Y-36768D01*
X-9024Y-36805D01*
X-8877Y-36841D01*
X-8730Y-36877D01*
X-8583Y-36912D01*
X-8436Y-36947D01*
X-8288Y-36981D01*
X-8141Y-37015D01*
X-7993Y-37047D01*
X-7919Y-37064D01*
X-7832Y-37082D01*
X-7744Y-37101D01*
X-7654Y-37119D01*
X-7562Y-37136D01*
X-7469Y-37154D01*
X-7374Y-37171D01*
X-7277Y-37188D01*
X-7179Y-37204D01*
X-7079Y-37220D01*
X-6978Y-37236D01*
X-6876Y-37252D01*
X-6771Y-37268D01*
X-6666Y-37283D01*
X-6559Y-37297D01*
X-6451Y-37312D01*
X-6341Y-37326D01*
X-6230Y-37340D01*
X-6118Y-37354D01*
X-6005Y-37367D01*
X-5890Y-37380D01*
X-5774Y-37393D01*
X-5657Y-37406D01*
X-5539Y-37418D01*
X-5420Y-37430D01*
X-5300Y-37441D01*
X-5178Y-37453D01*
X-5056Y-37464D01*
X-4932Y-37475D01*
X-4808Y-37485D01*
X-4683Y-37495D01*
X-4556Y-37505D01*
X-4429Y-37515D01*
X-4301Y-37524D01*
X-4172Y-37533D01*
X-4042Y-37542D01*
X-3912Y-37550D01*
X-3781Y-37558D01*
X-3649Y-37566D01*
X-3516Y-37574D01*
X-3383Y-37581D01*
X-3249Y-37588D01*
X-3114Y-37595D01*
X-2979Y-37601D01*
X-2843Y-37607D01*
X-2707Y-37613D01*
X-2570Y-37619D01*
X-2432Y-37624D01*
X-2294Y-37629D01*
X-2156Y-37634D01*
X-2018Y-37638D01*
X-1879Y-37642D01*
X-1739Y-37646D01*
X-1600Y-37649D01*
X-1460Y-37653D01*
X-1319Y-37655D01*
X-1179Y-37658D01*
X-1038Y-37660D01*
X-897Y-37663D01*
X-756Y-37664D01*
X-615Y-37666D01*
X-474Y-37667D01*
X-333Y-37668D01*
X-191Y-37668D01*
X-50Y-37669D01*
X92Y-37669D01*
X233Y-37668D01*
X374Y-37668D01*
X515Y-37667D01*
X656Y-37666D01*
X797Y-37664D01*
X938Y-37663D01*
X1079Y-37661D01*
X1219Y-37658D01*
X1359Y-37656D01*
X1499Y-37653D01*
X1639Y-37650D01*
X1778Y-37646D01*
X1916Y-37642D01*
X2055Y-37638D01*
X2193Y-37634D01*
X2331Y-37629D01*
X2468Y-37624D01*
X2604Y-37619D01*
X2740Y-37614D01*
X2876Y-37608D01*
X3011Y-37602D01*
X3145Y-37595D01*
X3278Y-37589D01*
X3411Y-37582D01*
X3544Y-37574D01*
X3675Y-37567D01*
X3806Y-37559D01*
X3936Y-37551D01*
X4065Y-37542D01*
X4194Y-37534D01*
X4321Y-37525D01*
X4448Y-37515D01*
X4574Y-37506D01*
X4699Y-37496D01*
X4822Y-37486D01*
X4945Y-37475D01*
X5067Y-37464D01*
X5188Y-37453D01*
X5308Y-37442D01*
X5426Y-37430D01*
X5544Y-37418D01*
X5660Y-37406D01*
X5775Y-37394D01*
X5889Y-37381D01*
X6002Y-37367D01*
X6113Y-37354D01*
X6223Y-37340D01*
X6332Y-37326D01*
X6440Y-37312D01*
X6546Y-37298D01*
X6650Y-37283D01*
X6753Y-37268D01*
X6855Y-37252D01*
X6955Y-37236D01*
X7054Y-37220D01*
X7151Y-37204D01*
X7247Y-37187D01*
X7341Y-37170D01*
X7434Y-37153D01*
X7524Y-37136D01*
X7613Y-37118D01*
X7701Y-37100D01*
X7786Y-37081D01*
X7949Y-37045D01*
X8112Y-37009D01*
X8274Y-36971D01*
X8436Y-36933D01*
X8598Y-36894D01*
X8760Y-36855D01*
X8922Y-36814D01*
X9083Y-36773D01*
X9244Y-36732D01*
X9405Y-36689D01*
X9566Y-36646D01*
X9726Y-36602D01*
X9887Y-36558D01*
X10047Y-36513D01*
X10207Y-36467D01*
X10366Y-36420D01*
X10526Y-36373D01*
X10685Y-36325D01*
X10844Y-36276D01*
X11002Y-36226D01*
X11161Y-36176D01*
X11319Y-36125D01*
X11477Y-36074D01*
X11635Y-36022D01*
X11792Y-35969D01*
X11950Y-35915D01*
X12107Y-35861D01*
X12263Y-35806D01*
X12420Y-35750D01*
X12576Y-35694D01*
X12732Y-35637D01*
X12888Y-35579D01*
X13044Y-35521D01*
X13199Y-35462D01*
X13354Y-35403D01*
X13508Y-35342D01*
X13663Y-35281D01*
X13817Y-35219D01*
X13971Y-35157D01*
X14124Y-35094D01*
X14277Y-35030D01*
X14431Y-34966D01*
X14583Y-34901D01*
X14736Y-34835D01*
X14888Y-34769D01*
X15040Y-34702D01*
X15191Y-34635D01*
X15342Y-34566D01*
X15493Y-34497D01*
X15644Y-34428D01*
X15794Y-34358D01*
X15944Y-34287D01*
X16094Y-34215D01*
X16243Y-34143D01*
X16392Y-34070D01*
X16541Y-33997D01*
X16690Y-33923D01*
X16838Y-33848D01*
X16985Y-33773D01*
X17133Y-33697D01*
X17280Y-33620D01*
X17427Y-33543D01*
X17573Y-33465D01*
X17719Y-33386D01*
X17865Y-33307D01*
X18011Y-33228D01*
X18156Y-33147D01*
X18301Y-33066D01*
X18445Y-32985D01*
X18589Y-32902D01*
X18733Y-32820D01*
X18876Y-32736D01*
X19019Y-32652D01*
X19162Y-32567D01*
X19304Y-32482D01*
X19446Y-32396D01*
X19587Y-32310D01*
X19729Y-32223D01*
X19869Y-32135D01*
X20010Y-32047D01*
X20150Y-31958D01*
X20290Y-31868D01*
X20429Y-31778D01*
X20568Y-31688D01*
X20706Y-31596D01*
X20844Y-31504D01*
X20982Y-31412D01*
X21120Y-31319D01*
X21256Y-31225D01*
X21393Y-31131D01*
X21529Y-31036D01*
X21665Y-30941D01*
X21800Y-30845D01*
X21935Y-30748D01*
X22070Y-30651D01*
X22204Y-30553D01*
X22337Y-30455D01*
X22471Y-30356D01*
X22604Y-30257D01*
X22736Y-30157D01*
X22868Y-30056D01*
X23000Y-29955D01*
X23131Y-29853D01*
X23262Y-29751D01*
X23392Y-29648D01*
X23522Y-29545D01*
X23651Y-29441D01*
X23780Y-29336D01*
X23909Y-29231D01*
X24037Y-29125D01*
X24165Y-29019D01*
X24292Y-28913D01*
X24419Y-28805D01*
X24545Y-28697D01*
X24671Y-28589D01*
X24796Y-28480D01*
X24921Y-28371D01*
X25045Y-28261D01*
X25170Y-28150D01*
X25293Y-28039D01*
X25416Y-27927D01*
X25539Y-27815D01*
X25661Y-27703D01*
X25782Y-27589D01*
X25904Y-27476D01*
X26024Y-27361D01*
X26144Y-27246D01*
X26264Y-27131D01*
X26383Y-27015D01*
X26502Y-26899D01*
X26620Y-26782D01*
X26738Y-26665D01*
X26855Y-26546D01*
X26972Y-26428D01*
X27088Y-26309D01*
X27204Y-26190D01*
X27319Y-26070D01*
X27434Y-25949D01*
X27548Y-25828D01*
X27662Y-25706D01*
X27775Y-25584D01*
X27887Y-25462D01*
X28000Y-25339D01*
X28111Y-25215D01*
X28222Y-25091D01*
X28333Y-24967D01*
X28443Y-24841D01*
X28552Y-24716D01*
X28661Y-24590D01*
X28770Y-24463D01*
X28877Y-24336D01*
X28985Y-24209D01*
X29092Y-24081D01*
X29198Y-23952D01*
X29303Y-23823D01*
X29408Y-23694D01*
X29513Y-23564D01*
X29617Y-23433D01*
X29721Y-23302D01*
X29823Y-23171D01*
X29926Y-23039D01*
X30027Y-22907D01*
X30129Y-22774D01*
X30229Y-22641D01*
X30329Y-22507D01*
X30429Y-22373D01*
X30527Y-22238D01*
X30626Y-22103D01*
X30724Y-21968D01*
X30821Y-21832D01*
X30917Y-21696D01*
X31011Y-21561D01*
X31105Y-21426D01*
X31198Y-21290D01*
X31291Y-21154D01*
X31383Y-21018D01*
X31474Y-20881D01*
X31564Y-20744D01*
X31654Y-20607D01*
X31744Y-20469D01*
X31832Y-20331D01*
X31920Y-20193D01*
X32008Y-20054D01*
X32094Y-19915D01*
X32180Y-19776D01*
X32265Y-19636D01*
X32350Y-19496D01*
X32434Y-19356D01*
X32517Y-19216D01*
X32600Y-19075D01*
X32682Y-18933D01*
X32764Y-18792D01*
X32844Y-18650D01*
X32925Y-18508D01*
X33004Y-18365D01*
X33083Y-18222D01*
X33161Y-18079D01*
X33238Y-17936D01*
X33315Y-17792D01*
X33391Y-17648D01*
X33467Y-17503D01*
X33542Y-17359D01*
X33616Y-17214D01*
X33689Y-17068D01*
X33762Y-16923D01*
X33834Y-16777D01*
X33906Y-16631D01*
X33977Y-16485D01*
X34047Y-16338D01*
X34116Y-16191D01*
X34185Y-16043D01*
X34253Y-15896D01*
X34321Y-15748D01*
X34387Y-15600D01*
X34454Y-15451D01*
X34519Y-15302D01*
X34584Y-15153D01*
X34648Y-15004D01*
X34712Y-14854D01*
X34775Y-14705D01*
X34837Y-14555D01*
X34898Y-14404D01*
X34959Y-14253D01*
X35019Y-14103D01*
X35079Y-13951D01*
X35138Y-13800D01*
X35196Y-13648D01*
X35253Y-13496D01*
X35310Y-13344D01*
X35366Y-13191D01*
X35422Y-13039D01*
X35476Y-12886D01*
X35530Y-12732D01*
X35584Y-12579D01*
X35637Y-12425D01*
X35689Y-12271D01*
X35740Y-12117D01*
X35791Y-11962D01*
X35841Y-11808D01*
X35890Y-11653D01*
X35939Y-11497D01*
X35987Y-11342D01*
X36035Y-11186D01*
X36081Y-11030D01*
X36127Y-10874D01*
X36173Y-10718D01*
X36217Y-10561D01*
X36261Y-10404D01*
X36304Y-10247D01*
X36347Y-10090D01*
X36389Y-9932D01*
X36430Y-9775D01*
X36471Y-9617D01*
X36511Y-9458D01*
X36550Y-9300D01*
X36588Y-9141D01*
X36626Y-8983D01*
X36663Y-8823D01*
X36700Y-8664D01*
X36736Y-8505D01*
X36771Y-8345D01*
X36805Y-8185D01*
X36839Y-8025D01*
X36872Y-7865D01*
X36904Y-7704D01*
X36936Y-7544D01*
X36967Y-7383D01*
X36997Y-7222D01*
X37027Y-7061D01*
X37056Y-6899D01*
X37084Y-6737D01*
X37111Y-6576D01*
X37138Y-6414D01*
X37165Y-6251D01*
X37190Y-6089D01*
X37215Y-5926D01*
X37239Y-5764D01*
X37262Y-5601D01*
X37285Y-5438D01*
X37307Y-5274D01*
X37328Y-5111D01*
X37349Y-4947D01*
X37369Y-4783D01*
X37388Y-4620D01*
X37407Y-4455D01*
X37425Y-4291D01*
X37442Y-4127D01*
X37458Y-3962D01*
X37474Y-3797D01*
X37489Y-3632D01*
X37503Y-3467D01*
X37517Y-3302D01*
X37530Y-3136D01*
X37543Y-2971D01*
X37554Y-2805D01*
X37565Y-2639D01*
X37575Y-2473D01*
X37585Y-2307D01*
X37593Y-2141D01*
X37602Y-1974D01*
X37609Y-1808D01*
X37616Y-1641D01*
X37622Y-1474D01*
X37627Y-1307D01*
X37632Y-1140D01*
X37635Y-973D01*
X37639Y-805D01*
X37641Y-638D01*
X37643Y-470D01*
X37644Y-302D01*
X37644Y-134D01*
X37644Y34D01*
X37643Y202D01*
X37641Y370D01*
X37639Y539D01*
X37636Y707D01*
X37632Y876D01*
X37627Y1045D01*
X37622Y1213D01*
X37616Y1382D01*
X37609Y1551D01*
X37602Y1721D01*
X37594Y1890D01*
X37585Y2059D01*
X37576Y2229D01*
X37565Y2399D01*
X37554Y2568D01*
X37543Y2738D01*
X37530Y2908D01*
X37517Y3078D01*
X37504Y3248D01*
X37489Y3418D01*
X37474Y3588D01*
X37458Y3759D01*
X37441Y3929D01*
X37424Y4100D01*
X37406Y4270D01*
X37387Y4441D01*
X37368Y4612D01*
X37347Y4783D01*
X37326Y4953D01*
X37307Y5107D01*
X37295Y5204D01*
X37282Y5301D01*
X37268Y5398D01*
X37255Y5494D01*
X37242Y5591D01*
X37228Y5687D01*
X37214Y5784D01*
X37199Y5880D01*
X37185Y5976D01*
X37170Y6072D01*
X37155Y6168D01*
X37139Y6264D01*
X37124Y6360D01*
X37108Y6456D01*
X37091Y6552D01*
X37075Y6647D01*
X37058Y6743D01*
X37042Y6838D01*
X37024Y6934D01*
X37007Y7029D01*
X36989Y7125D01*
X36972Y7220D01*
X36953Y7315D01*
X36935Y7410D01*
X36916Y7505D01*
X36897Y7600D01*
X36878Y7695D01*
X36859Y7789D01*
X36839Y7884D01*
X36819Y7978D01*
X36799Y8073D01*
X36779Y8167D01*
X36758Y8262D01*
X36737Y8356D01*
X36716Y8450D01*
X36695Y8544D01*
X36673Y8638D01*
X36651Y8732D01*
X36629Y8826D01*
X36607Y8919D01*
X36584Y9013D01*
X36562Y9106D01*
X36539Y9200D01*
X36515Y9293D01*
X36492Y9386D01*
X36468Y9480D01*
X36444Y9573D01*
X36420Y9666D01*
X36395Y9759D01*
X36370Y9851D01*
X36345Y9944D01*
X36320Y10037D01*
X36295Y10129D01*
X36269Y10222D01*
X36243Y10314D01*
X36217Y10407D01*
X36191Y10499D01*
X36164Y10591D01*
X36137Y10683D01*
X36110Y10775D01*
X36083Y10866D01*
X36055Y10958D01*
X36027Y11050D01*
X35999Y11141D01*
X35971Y11233D01*
X35942Y11324D01*
X35914Y11415D01*
X35884Y11507D01*
X35855Y11598D01*
X35826Y11688D01*
X35796Y11779D01*
X35766Y11870D01*
X35736Y11961D01*
X35706Y12051D01*
X35675Y12142D01*
X35644Y12232D01*
X35613Y12322D01*
X35582Y12413D01*
X35550Y12503D01*
X35518Y12593D01*
X35486Y12683D01*
X35454Y12772D01*
X35422Y12862D01*
X35389Y12951D01*
X35356Y13041D01*
X35323Y13130D01*
X35290Y13219D01*
X35256Y13309D01*
X35222Y13398D01*
X35188Y13487D01*
X35154Y13575D01*
X35119Y13664D01*
X35085Y13753D01*
X35050Y13841D01*
X35015Y13930D01*
X34979Y14018D01*
X34944Y14106D01*
X34908Y14194D01*
X34872Y14282D01*
X34835Y14370D01*
X34799Y14458D01*
X34762Y14546D01*
X34725Y14633D01*
X34688Y14721D01*
X34651Y14808D01*
X34613Y14895D01*
X34575Y14982D01*
X34537Y15069D01*
X34499Y15156D01*
X34460Y15243D01*
X34422Y15330D01*
X34383Y15416D01*
X34344Y15503D01*
X34304Y15589D01*
X34265Y15675D01*
X34225Y15761D01*
X34185Y15847D01*
X34145Y15933D01*
X34104Y16019D01*
X34064Y16105D01*
X34023Y16190D01*
X33982Y16275D01*
X33941Y16361D01*
X33899Y16446D01*
X33857Y16531D01*
X33815Y16616D01*
X33773Y16701D01*
X33731Y16786D01*
X33688Y16870D01*
X33645Y16955D01*
X33602Y17039D01*
X33559Y17123D01*
X33516Y17208D01*
X33472Y17291D01*
X33428Y17375D01*
X33384Y17459D01*
X33340Y17543D01*
X33296Y17626D01*
X33251Y17710D01*
X33206Y17793D01*
X33161Y17876D01*
X33116Y17959D01*
X33070Y18042D01*
X33024Y18125D01*
X32979Y18208D01*
X32932Y18290D01*
X32886Y18373D01*
X32840Y18455D01*
X32793Y18537D01*
X32746Y18619D01*
X32699Y18701D01*
X32651Y18783D01*
X32604Y18865D01*
X32556Y18946D01*
X32508Y19027D01*
X32460Y19109D01*
X32412Y19190D01*
X32363Y19271D01*
X32314Y19352D01*
X32265Y19433D01*
X32216Y19513D01*
X32167Y19594D01*
X32117Y19674D01*
X32068Y19755D01*
X32018Y19835D01*
X31967Y19915D01*
X31917Y19995D01*
X31866Y20074D01*
X31816Y20154D01*
X31765Y20233D01*
X31714Y20313D01*
X31662Y20392D01*
X31611Y20471D01*
X31559Y20550D01*
X31507Y20629D01*
X31455Y20707D01*
X31403Y20786D01*
X31350Y20864D01*
X31297Y20943D01*
X31245Y21021D01*
X31191Y21099D01*
X31138Y21177D01*
X31085Y21254D01*
X31031Y21332D01*
X30977Y21409D01*
X30923Y21487D01*
X30869Y21564D01*
X30814Y21641D01*
X30760Y21718D01*
X30705Y21794D01*
X30650Y21871D01*
X30595Y21948D01*
X30539Y22024D01*
X30483Y22100D01*
X30428Y22176D01*
X30372Y22252D01*
X30316Y22328D01*
X30259Y22403D01*
X30203Y22479D01*
X30146Y22554D01*
X30089Y22629D01*
X30032Y22705D01*
X29975Y22780D01*
X29917Y22854D01*
X29860Y22929D01*
X29802Y23003D01*
X29744Y23078D01*
X29686Y23152D01*
X29627Y23226D01*
X29569Y23300D01*
X29510Y23374D01*
X29451Y23447D01*
X29392Y23521D01*
X29333Y23594D01*
X29273Y23667D01*
X29213Y23740D01*
X29154Y23813D01*
X29094Y23886D01*
X29033Y23958D01*
X28973Y24031D01*
X28912Y24103D01*
X28852Y24175D01*
X28791Y24247D01*
X28730Y24319D01*
X28668Y24390D01*
X28607Y24462D01*
X28545Y24533D01*
X28484Y24604D01*
X28422Y24676D01*
X28359Y24746D01*
X28297Y24817D01*
X28234Y24888D01*
X28172Y24958D01*
X28109Y25028D01*
X28046Y25099D01*
X27983Y25168D01*
X27919Y25238D01*
X27856Y25308D01*
X27792Y25378D01*
X27728Y25447D01*
X27664Y25516D01*
X27600Y25585D01*
X27535Y25654D01*
X27471Y25723D01*
X27406Y25791D01*
X27341Y25860D01*
X27276Y25928D01*
X27211Y25996D01*
X27145Y26064D01*
X27079Y26131D01*
X27014Y26199D01*
X26948Y26267D01*
X26882Y26334D01*
X26815Y26401D01*
X26749Y26468D01*
X26682Y26535D01*
X26616Y26601D01*
X26548Y26668D01*
X26481Y26734D01*
X26414Y26800D01*
X26347Y26866D01*
X26279Y26932D01*
X26211Y26998D01*
X26143Y27063D01*
X26075Y27128D01*
X26007Y27193D01*
X25938Y27258D01*
X25870Y27323D01*
X25801Y27388D01*
X25732Y27452D01*
X25663Y27517D01*
X25594Y27581D01*
X25524Y27645D01*
X25455Y27709D01*
X25385Y27772D01*
X25315Y27836D01*
X25245Y27899D01*
X25175Y27962D01*
X25104Y28025D01*
X25034Y28088D01*
X24963Y28150D01*
X24892Y28213D01*
X24821Y28275D01*
X24750Y28337D01*
X24679Y28399D01*
X24607Y28461D01*
X24536Y28522D01*
X24464Y28584D01*
X24392Y28645D01*
X24320Y28706D01*
X24248Y28767D01*
X24175Y28828D01*
X24103Y28888D01*
X24030Y28948D01*
X23957Y29008D01*
X23884Y29068D01*
X23811Y29128D01*
X23738Y29188D01*
X23664Y29247D01*
X23590Y29307D01*
X23517Y29366D01*
X23443Y29425D01*
X23369Y29484D01*
X23294Y29542D01*
X23220Y29600D01*
X23145Y29659D01*
X23071Y29717D01*
X22996Y29774D01*
X22921Y29832D01*
X22846Y29890D01*
X22770Y29947D01*
X22695Y30004D01*
X22619Y30061D01*
X22544Y30118D01*
X22468Y30174D01*
X22392Y30231D01*
X22316Y30287D01*
X22239Y30343D01*
X22163Y30399D01*
X22086Y30454D01*
X22009Y30510D01*
X21933Y30565D01*
X21856Y30620D01*
X21778Y30675D01*
X21701Y30730D01*
X21624Y30784D01*
X21546Y30839D01*
X21468Y30893D01*
X21390Y30947D01*
X21312Y31000D01*
X21234Y31054D01*
X21156Y31107D01*
X21077Y31161D01*
X20999Y31214D01*
X20920Y31266D01*
X20841Y31319D01*
X20762Y31372D01*
X20683Y31424D01*
X20604Y31476D01*
X20524Y31528D01*
X20445Y31579D01*
X20365Y31631D01*
X20285Y31682D01*
X20205Y31733D01*
X20125Y31784D01*
X20045Y31835D01*
X19964Y31885D01*
X19884Y31936D01*
X19803Y31986D01*
X19723Y32036D01*
X19642Y32085D01*
X19561Y32135D01*
X19479Y32184D01*
X19398Y32233D01*
X19317Y32282D01*
X19235Y32331D01*
X19153Y32380D01*
X19072Y32428D01*
X18990Y32476D01*
X18907Y32524D01*
X18825Y32572D01*
X18743Y32619D01*
X18660Y32667D01*
X18578Y32714D01*
X18495Y32761D01*
X18412Y32807D01*
X18329Y32854D01*
X18246Y32900D01*
X18163Y32946D01*
X18079Y32992D01*
X17996Y33038D01*
X17912Y33084D01*
X17828Y33129D01*
X17744Y33174D01*
X17660Y33219D01*
X17576Y33264D01*
X17492Y33308D01*
X17408Y33353D01*
X17323Y33397D01*
X17238Y33440D01*
X17154Y33484D01*
X17069Y33528D01*
X16984Y33571D01*
X16898Y33614D01*
X16813Y33657D01*
X16728Y33699D01*
X16642Y33742D01*
X16557Y33784D01*
X16471Y33826D01*
X16385Y33868D01*
X16299Y33909D01*
X16213Y33951D01*
X16127Y33992D01*
X16040Y34033D01*
X15954Y34074D01*
X15867Y34114D01*
X15781Y34154D01*
X15694Y34195D01*
X15607Y34234D01*
X15520Y34274D01*
X15433Y34314D01*
X15346Y34353D01*
X15258Y34392D01*
X15171Y34431D01*
X15083Y34469D01*
X14995Y34508D01*
X14907Y34546D01*
X14819Y34584D01*
X14731Y34622D01*
X14643Y34659D01*
X14555Y34696D01*
X14466Y34734D01*
X14378Y34770D01*
X14289Y34807D01*
X14200Y34844D01*
X14111Y34880D01*
X14023Y34916D01*
X13934Y34951D01*
X13844Y34987D01*
X13755Y35022D01*
X13666Y35058D01*
X13576Y35092D01*
X13486Y35127D01*
X13397Y35162D01*
X13307Y35196D01*
X13217Y35230D01*
X13127Y35263D01*
X13037Y35297D01*
X12946Y35331D01*
X12856Y35364D01*
X12765Y35396D01*
X12675Y35429D01*
X12584Y35462D01*
X12493Y35494D01*
X12402Y35526D01*
X12311Y35557D01*
X12220Y35589D01*
X12129Y35620D01*
X12038Y35651D01*
X11946Y35682D01*
X11855Y35713D01*
X11763Y35743D01*
X11671Y35774D01*
X11580Y35803D01*
X11488Y35833D01*
X11396Y35863D01*
X11304Y35892D01*
X11211Y35921D01*
X11119Y35950D01*
X11027Y35978D01*
X10934Y36007D01*
X10841Y36035D01*
X10749Y36062D01*
X10656Y36090D01*
X10563Y36118D01*
X10470Y36145D01*
X10377Y36172D01*
X10283Y36198D01*
X10190Y36225D01*
X10097Y36251D01*
X10003Y36277D01*
X9910Y36303D01*
X9816Y36328D01*
X9722Y36353D01*
X9628Y36379D01*
X9534Y36403D01*
X9440Y36428D01*
X9346Y36452D01*
X9252Y36476D01*
X9157Y36500D01*
X9063Y36524D01*
X8969Y36547D01*
X8874Y36570D01*
X8779Y36593D01*
X8684Y36616D01*
X8590Y36638D01*
X8495Y36661D01*
X8399Y36683D01*
X8304Y36704D01*
X8209Y36726D01*
X8114Y36747D01*
X8018Y36768D01*
X7923Y36789D01*
X7827Y36809D01*
X7732Y36829D01*
X7636Y36849D01*
X7540Y36869D01*
X7444Y36889D01*
X7348Y36908D01*
X7252Y36927D01*
X7156Y36946D01*
X7059Y36964D01*
X6963Y36983D01*
X6866Y37001D01*
X6770Y37018D01*
X6673Y37036D01*
X6577Y37053D01*
X6480Y37070D01*
X6383Y37087D01*
X6286Y37104D01*
X6189Y37120D01*
X6092Y37136D01*
X5995Y37152D01*
X5897Y37167D01*
X5800Y37183D01*
X5703Y37198D01*
X5605Y37212D01*
X5508Y37227D01*
X5410Y37241D01*
X5312Y37255D01*
X5064Y37290D01*
X4816Y37324D01*
X4572Y37356D01*
X4333Y37387D01*
X4097Y37417D01*
X3866Y37445D01*
X3638Y37472D01*
X3413Y37497D01*
X3192Y37521D01*
X2973Y37544D01*
X2758Y37565D01*
X2545Y37585D01*
X2377Y37600D01*
X2210Y37613D01*
X2045Y37626D01*
X1881Y37639D01*
X1718Y37650D01*
X1556Y37660D01*
X1395Y37670D01*
X1236Y37678D01*
X1077Y37686D01*
X919Y37693D01*
X762Y37698D01*
X605Y37703D01*
X449Y37707D01*
X293Y37711D01*
X138Y37713D01*
X-18Y37714D01*
X-173Y37715D01*
D02*
G37*
%LPD*%
G36*
X6135Y28322D02*
X6174Y28317D01*
X6211Y28310D01*
X6249Y28299D01*
X6285Y28286D01*
X6321Y28270D01*
X6355Y28251D01*
X6389Y28229D01*
X6423Y28205D01*
X6455Y28179D01*
X6487Y28149D01*
X6518Y28117D01*
X6548Y28082D01*
X6577Y28045D01*
X6605Y28005D01*
X6633Y27962D01*
X6659Y27916D01*
X6685Y27868D01*
X6710Y27818D01*
X6734Y27764D01*
X6758Y27709D01*
X6780Y27650D01*
X6801Y27589D01*
X6822Y27526D01*
X6842Y27459D01*
X6860Y27391D01*
X6878Y27319D01*
X6895Y27246D01*
X6911Y27169D01*
X6927Y27090D01*
X6941Y27009D01*
X6954Y26925D01*
X6966Y26839D01*
X6978Y26750D01*
X6988Y26658D01*
X6998Y26564D01*
X7006Y26468D01*
X7014Y26369D01*
X7020Y26268D01*
X7026Y26164D01*
X7030Y26058D01*
X7034Y25949D01*
X7036Y25838D01*
X7038Y25724D01*
X7039Y25609D01*
Y23658D01*
X4685D01*
Y25484D01*
X4687Y25706D01*
X4693Y25918D01*
X4703Y26121D01*
X4718Y26313D01*
X4736Y26496D01*
X4759Y26668D01*
X4786Y26831D01*
X4817Y26983D01*
X4852Y27126D01*
X4892Y27258D01*
X4935Y27380D01*
X4983Y27492D01*
X5034Y27594D01*
X5090Y27685D01*
X5149Y27767D01*
X5213Y27838D01*
X5265Y27889D01*
X5317Y27937D01*
X5368Y27983D01*
X5419Y28025D01*
X5469Y28065D01*
X5518Y28102D01*
X5567Y28136D01*
X5614Y28167D01*
X5662Y28196D01*
X5708Y28221D01*
X5754Y28244D01*
X5799Y28264D01*
X5844Y28281D01*
X5887Y28295D01*
X5931Y28307D01*
X5973Y28315D01*
X6014Y28321D01*
X6055Y28324D01*
X6095Y28325D01*
X6135Y28322D01*
D02*
G37*
G36*
X-90Y28340D02*
X-62Y28337D01*
X-33Y28333D01*
X-3Y28326D01*
X30Y28317D01*
X65Y28307D01*
X102Y28295D01*
X143Y28280D01*
X186Y28265D01*
X282Y28228D01*
X453Y28162D01*
X491Y28146D01*
X527Y28128D01*
X561Y28107D01*
X593Y28084D01*
X624Y28057D01*
X654Y28028D01*
X682Y27996D01*
X709Y27960D01*
X734Y27921D01*
X758Y27879D01*
X780Y27833D01*
X801Y27783D01*
X821Y27730D01*
X839Y27672D01*
X857Y27611D01*
X872Y27545D01*
X887Y27475D01*
X901Y27400D01*
X913Y27321D01*
X925Y27237D01*
X935Y27148D01*
X944Y27054D01*
X952Y26954D01*
X960Y26850D01*
X966Y26740D01*
X971Y26625D01*
X976Y26504D01*
X979Y26377D01*
X982Y26244D01*
X984Y26105D01*
X985Y25960D01*
X985Y25808D01*
Y23658D01*
X-70Y23658D01*
X-200Y23659D01*
X-281Y23660D01*
X-355Y23662D01*
X-425Y23666D01*
X-490Y23672D01*
X-520Y23675D01*
X-550Y23679D01*
X-578Y23684D01*
X-605Y23690D01*
X-631Y23696D01*
X-656Y23703D01*
X-680Y23710D01*
X-703Y23719D01*
X-725Y23729D01*
X-746Y23739D01*
X-765Y23751D01*
X-784Y23763D01*
X-802Y23776D01*
X-819Y23791D01*
X-836Y23807D01*
X-851Y23824D01*
X-866Y23842D01*
X-880Y23862D01*
X-893Y23882D01*
X-905Y23905D01*
X-916Y23928D01*
X-927Y23954D01*
X-937Y23980D01*
X-947Y24008D01*
X-955Y24038D01*
X-964Y24070D01*
X-971Y24103D01*
X-978Y24138D01*
X-984Y24174D01*
X-991Y24213D01*
X-996Y24253D01*
X-1001Y24295D01*
X-1005Y24339D01*
X-1009Y24386D01*
X-1013Y24434D01*
X-1016Y24484D01*
X-1019Y24536D01*
X-1021Y24591D01*
X-1024Y24648D01*
X-1025Y24707D01*
X-1028Y24832D01*
X-1030Y24967D01*
X-1031Y25111D01*
X-1032Y25266D01*
X-1032Y25519D01*
X-1032Y25609D01*
X-1030Y25809D01*
X-1024Y26009D01*
X-1014Y26205D01*
X-1001Y26398D01*
X-984Y26585D01*
X-963Y26766D01*
X-940Y26940D01*
X-914Y27105D01*
X-885Y27259D01*
X-854Y27403D01*
X-821Y27534D01*
X-785Y27652D01*
X-748Y27755D01*
X-710Y27842D01*
X-670Y27911D01*
X-629Y27962D01*
X-509Y28083D01*
X-442Y28149D01*
X-412Y28178D01*
X-383Y28205D01*
X-356Y28229D01*
X-330Y28251D01*
X-305Y28270D01*
X-281Y28287D01*
X-258Y28301D01*
X-235Y28314D01*
X-212Y28324D01*
X-188Y28331D01*
X-165Y28337D01*
X-141Y28340D01*
X-116Y28341D01*
X-90Y28340D01*
D02*
G37*
G36*
X-5676Y28328D02*
X-5642Y28323D01*
X-5609Y28315D01*
X-5576Y28304D01*
X-5544Y28291D01*
X-5511Y28275D01*
X-5477Y28256D01*
X-5444Y28235D01*
X-5409Y28210D01*
X-5374Y28183D01*
X-5338Y28153D01*
X-5301Y28121D01*
X-5262Y28085D01*
X-5221Y28047D01*
X-5179Y28006D01*
X-5135Y27962D01*
X-5114Y27939D01*
X-5094Y27911D01*
X-5074Y27879D01*
X-5054Y27842D01*
X-5034Y27800D01*
X-5015Y27755D01*
X-4997Y27705D01*
X-4978Y27652D01*
X-4961Y27595D01*
X-4943Y27534D01*
X-4926Y27470D01*
X-4910Y27403D01*
X-4894Y27333D01*
X-4879Y27259D01*
X-4864Y27183D01*
X-4850Y27105D01*
X-4837Y27023D01*
X-4824Y26940D01*
X-4812Y26854D01*
X-4801Y26766D01*
X-4790Y26677D01*
X-4780Y26585D01*
X-4772Y26492D01*
X-4763Y26398D01*
X-4756Y26302D01*
X-4750Y26205D01*
X-4744Y26107D01*
X-4740Y26009D01*
X-4736Y25909D01*
X-4734Y25809D01*
X-4732Y25709D01*
X-4732Y25609D01*
Y23658D01*
X-7085D01*
Y25659D01*
X-7084Y25938D01*
X-7079Y26194D01*
X-7070Y26429D01*
X-7058Y26642D01*
X-7041Y26836D01*
X-7020Y27012D01*
X-6994Y27171D01*
X-6962Y27313D01*
X-6926Y27440D01*
X-6884Y27553D01*
X-6836Y27654D01*
X-6781Y27743D01*
X-6721Y27821D01*
X-6653Y27889D01*
X-6579Y27950D01*
X-6497Y28003D01*
X-6427Y28043D01*
X-6361Y28081D01*
X-6298Y28116D01*
X-6239Y28149D01*
X-6182Y28179D01*
X-6129Y28206D01*
X-6078Y28230D01*
X-6030Y28252D01*
X-5984Y28271D01*
X-5940Y28288D01*
X-5898Y28302D01*
X-5857Y28313D01*
X-5819Y28321D01*
X-5781Y28327D01*
X-5745Y28330D01*
X-5710Y28330D01*
X-5676Y28328D01*
D02*
G37*
G36*
X12671Y19890D02*
X12871Y19881D01*
X13059Y19873D01*
X13235Y19864D01*
X13400Y19855D01*
X13554Y19846D01*
X13698Y19837D01*
X13832Y19827D01*
X13955Y19816D01*
X14070Y19804D01*
X14176Y19790D01*
X14273Y19776D01*
X14362Y19760D01*
X14443Y19742D01*
X14517Y19723D01*
X14584Y19701D01*
X14645Y19678D01*
X14699Y19652D01*
X14748Y19623D01*
X14792Y19592D01*
X14830Y19558D01*
X14864Y19521D01*
X14894Y19481D01*
X14919Y19437D01*
X14942Y19390D01*
X14962Y19340D01*
X14978Y19285D01*
X14993Y19226D01*
X15006Y19163D01*
X15018Y19096D01*
X15028Y19024D01*
X15038Y18947D01*
X15048Y18866D01*
X15154Y17941D01*
X10401D01*
Y19990D01*
X12671Y19890D01*
D02*
G37*
G36*
X-10448Y18950D02*
Y17941D01*
X-12645D01*
X-12750Y17942D01*
X-12852Y17942D01*
X-12952Y17944D01*
X-13050Y17945D01*
X-13145Y17948D01*
X-13238Y17951D01*
X-13328Y17955D01*
X-13416Y17959D01*
X-13502Y17964D01*
X-13585Y17969D01*
X-13666Y17975D01*
X-13745Y17982D01*
X-13821Y17989D01*
X-13895Y17997D01*
X-13967Y18006D01*
X-14037Y18015D01*
X-14104Y18025D01*
X-14169Y18036D01*
X-14232Y18047D01*
X-14293Y18060D01*
X-14351Y18072D01*
X-14407Y18086D01*
X-14462Y18101D01*
X-14514Y18116D01*
X-14564Y18132D01*
X-14612Y18148D01*
X-14657Y18166D01*
X-14701Y18184D01*
X-14743Y18203D01*
X-14783Y18223D01*
X-14820Y18243D01*
X-14856Y18265D01*
X-14889Y18287D01*
X-14921Y18311D01*
X-14951Y18335D01*
X-14979Y18360D01*
X-15005Y18385D01*
X-15029Y18412D01*
X-15051Y18440D01*
X-15071Y18468D01*
X-15089Y18498D01*
X-15106Y18528D01*
X-15120Y18560D01*
X-15133Y18592D01*
X-15144Y18625D01*
X-15154Y18659D01*
X-15161Y18695D01*
X-15167Y18731D01*
X-15171Y18768D01*
X-15173Y18807D01*
X-15174Y18846D01*
X-15173Y18886D01*
X-15170Y18927D01*
X-15166Y18970D01*
X-15160Y19014D01*
X-15152Y19058D01*
X-15143Y19104D01*
X-15132Y19150D01*
X-15120Y19198D01*
X-15106Y19247D01*
X-15090Y19297D01*
X-15073Y19349D01*
X-15055Y19401D01*
X-15035Y19455D01*
X-15020Y19489D01*
X-15002Y19522D01*
X-14981Y19554D01*
X-14958Y19584D01*
X-14931Y19613D01*
X-14901Y19641D01*
X-14868Y19667D01*
X-14831Y19692D01*
X-14791Y19716D01*
X-14747Y19739D01*
X-14699Y19760D01*
X-14648Y19780D01*
X-14593Y19799D01*
X-14533Y19816D01*
X-14469Y19833D01*
X-14401Y19848D01*
X-14329Y19862D01*
X-14252Y19876D01*
X-14171Y19888D01*
X-14085Y19899D01*
X-13994Y19909D01*
X-13898Y19918D01*
X-13797Y19926D01*
X-13691Y19933D01*
X-13579Y19939D01*
X-13463Y19945D01*
X-13341Y19949D01*
X-13213Y19953D01*
X-13080Y19955D01*
X-12941Y19957D01*
X-12796Y19959D01*
X-12645Y19959D01*
X-10448D01*
Y18950D01*
D02*
G37*
G36*
X12688Y14235D02*
X12875Y14232D01*
X13053Y14227D01*
X13223Y14220D01*
X13384Y14210D01*
X13536Y14198D01*
X13680Y14185D01*
X13816Y14168D01*
X13944Y14150D01*
X14064Y14129D01*
X14177Y14105D01*
X14283Y14078D01*
X14380Y14049D01*
X14471Y14017D01*
X14555Y13982D01*
X14632Y13944D01*
X14702Y13903D01*
X14766Y13859D01*
X14823Y13811D01*
X14874Y13760D01*
X14919Y13706D01*
X14958Y13648D01*
X14991Y13587D01*
X15018Y13522D01*
X15041Y13453D01*
X15057Y13380D01*
X15069Y13304D01*
X15075Y13223D01*
X15077Y13138D01*
X15074Y13049D01*
X15067Y12956D01*
X15055Y12859D01*
X15044Y12790D01*
X15034Y12726D01*
X15022Y12665D01*
X15009Y12608D01*
X14995Y12555D01*
X14987Y12530D01*
X14978Y12506D01*
X14969Y12482D01*
X14960Y12459D01*
X14950Y12437D01*
X14939Y12416D01*
X14927Y12396D01*
X14914Y12376D01*
X14901Y12358D01*
X14887Y12340D01*
X14872Y12322D01*
X14856Y12306D01*
X14839Y12290D01*
X14821Y12274D01*
X14802Y12260D01*
X14781Y12246D01*
X14760Y12233D01*
X14737Y12220D01*
X14713Y12208D01*
X14688Y12197D01*
X14662Y12186D01*
X14634Y12176D01*
X14604Y12166D01*
X14574Y12157D01*
X14541Y12148D01*
X14507Y12140D01*
X14472Y12132D01*
X14435Y12125D01*
X14396Y12118D01*
X14356Y12112D01*
X14314Y12106D01*
X14270Y12101D01*
X14224Y12096D01*
X14176Y12091D01*
X14127Y12087D01*
X14075Y12083D01*
X14021Y12079D01*
X13965Y12076D01*
X13908Y12073D01*
X13848Y12070D01*
X13786Y12068D01*
X13721Y12066D01*
X13655Y12064D01*
X13514Y12061D01*
X13365Y12059D01*
X13205Y12058D01*
X13035Y12057D01*
X12854Y12056D01*
X12760Y12056D01*
X12432Y12057D01*
X12138Y12061D01*
X11874Y12068D01*
X11640Y12079D01*
X11433Y12094D01*
X11252Y12114D01*
X11094Y12138D01*
X10959Y12168D01*
X10844Y12204D01*
X10748Y12247D01*
X10668Y12296D01*
X10604Y12353D01*
X10553Y12418D01*
X10513Y12491D01*
X10484Y12573D01*
X10462Y12664D01*
X10451Y12729D01*
X10442Y12797D01*
X10435Y12867D01*
X10431Y12939D01*
X10428Y13012D01*
X10428Y13087D01*
X10430Y13162D01*
X10434Y13236D01*
X10439Y13310D01*
X10447Y13383D01*
X10456Y13453D01*
X10468Y13521D01*
X10481Y13586D01*
X10496Y13647D01*
X10512Y13705D01*
X10531Y13757D01*
X10544Y13789D01*
X10560Y13818D01*
X10579Y13847D01*
X10601Y13875D01*
X10626Y13902D01*
X10654Y13928D01*
X10684Y13952D01*
X10718Y13976D01*
X10754Y13998D01*
X10793Y14019D01*
X10836Y14040D01*
X10881Y14059D01*
X10930Y14077D01*
X10982Y14094D01*
X11037Y14110D01*
X11095Y14125D01*
X11157Y14140D01*
X11221Y14153D01*
X11290Y14165D01*
X11361Y14176D01*
X11436Y14186D01*
X11514Y14195D01*
X11596Y14204D01*
X11681Y14211D01*
X11770Y14218D01*
X11862Y14223D01*
X11958Y14228D01*
X12058Y14231D01*
X12161Y14234D01*
X12268Y14236D01*
X12378Y14237D01*
X12493Y14237D01*
X12688Y14235D01*
D02*
G37*
G36*
X-10448Y11857D02*
X-12715Y11957D01*
X-13048Y11973D01*
X-13350Y11990D01*
X-13620Y12009D01*
X-13862Y12031D01*
X-14076Y12056D01*
X-14264Y12084D01*
X-14429Y12116D01*
X-14571Y12153D01*
X-14692Y12194D01*
X-14794Y12241D01*
X-14878Y12293D01*
X-14947Y12352D01*
X-15002Y12418D01*
X-15044Y12491D01*
X-15075Y12572D01*
X-15097Y12661D01*
X-15106Y12725D01*
X-15112Y12792D01*
X-15112Y12862D01*
X-15109Y12934D01*
X-15102Y13008D01*
X-15091Y13082D01*
X-15077Y13157D01*
X-15059Y13231D01*
X-15038Y13305D01*
X-15013Y13378D01*
X-14986Y13448D01*
X-14955Y13517D01*
X-14922Y13582D01*
X-14886Y13643D01*
X-14847Y13701D01*
X-14807Y13754D01*
X-14780Y13784D01*
X-14750Y13813D01*
X-14717Y13841D01*
X-14681Y13868D01*
X-14642Y13894D01*
X-14600Y13920D01*
X-14554Y13944D01*
X-14506Y13967D01*
X-14454Y13990D01*
X-14400Y14011D01*
X-14342Y14032D01*
X-14282Y14051D01*
X-14218Y14070D01*
X-14151Y14088D01*
X-14082Y14104D01*
X-14009Y14120D01*
X-13933Y14135D01*
X-13854Y14149D01*
X-13771Y14162D01*
X-13686Y14173D01*
X-13598Y14184D01*
X-13507Y14194D01*
X-13412Y14203D01*
X-13315Y14212D01*
X-13214Y14219D01*
X-13111Y14225D01*
X-13004Y14230D01*
X-12894Y14234D01*
X-12782Y14238D01*
X-12666Y14240D01*
X-12547Y14242D01*
X-12425Y14242D01*
X-10448D01*
Y11857D01*
D02*
G37*
G36*
X12649Y8121D02*
X12837Y8112D01*
X13015Y8104D01*
X13182Y8095D01*
X13340Y8086D01*
X13489Y8077D01*
X13628Y8067D01*
X13759Y8057D01*
X13881Y8045D01*
X13994Y8033D01*
X14100Y8021D01*
X14198Y8007D01*
X14289Y7992D01*
X14373Y7975D01*
X14450Y7958D01*
X14521Y7938D01*
X14586Y7918D01*
X14645Y7896D01*
X14698Y7871D01*
X14747Y7845D01*
X14790Y7817D01*
X14829Y7787D01*
X14864Y7755D01*
X14895Y7720D01*
X14922Y7683D01*
X14946Y7644D01*
X14966Y7602D01*
X14985Y7557D01*
X15000Y7509D01*
X15014Y7458D01*
X15026Y7404D01*
X15036Y7347D01*
X15046Y7287D01*
X15052Y7240D01*
X15055Y7195D01*
X15058Y7149D01*
X15058Y7105D01*
X15057Y7062D01*
X15054Y7019D01*
X15049Y6977D01*
X15043Y6935D01*
X15035Y6894D01*
X15025Y6854D01*
X15013Y6815D01*
X15000Y6777D01*
X14985Y6739D01*
X14969Y6702D01*
X14950Y6666D01*
X14930Y6631D01*
X14909Y6596D01*
X14886Y6562D01*
X14861Y6529D01*
X14834Y6497D01*
X14806Y6465D01*
X14776Y6435D01*
X14745Y6405D01*
X14712Y6376D01*
X14677Y6347D01*
X14641Y6320D01*
X14603Y6293D01*
X14564Y6267D01*
X14523Y6242D01*
X14480Y6218D01*
X14436Y6194D01*
X14391Y6172D01*
X14344Y6150D01*
X14295Y6129D01*
X14244Y6109D01*
X14193Y6089D01*
X14140Y6071D01*
X14085Y6053D01*
X14029Y6036D01*
X13971Y6020D01*
X13912Y6005D01*
X13851Y5991D01*
X13789Y5978D01*
X13725Y5965D01*
X13660Y5953D01*
X13593Y5943D01*
X13525Y5933D01*
X13456Y5924D01*
X13385Y5915D01*
X13313Y5908D01*
X13239Y5902D01*
X13164Y5896D01*
X13087Y5892D01*
X13009Y5888D01*
X12930Y5885D01*
X12849Y5883D01*
X12767Y5882D01*
X12684Y5882D01*
X12599Y5883D01*
X12513Y5885D01*
X12426Y5887D01*
X12337Y5891D01*
X12247Y5896D01*
X12155Y5901D01*
X12017Y5910D01*
X11886Y5919D01*
X11764Y5928D01*
X11649Y5937D01*
X11542Y5947D01*
X11442Y5958D01*
X11349Y5969D01*
X11263Y5982D01*
X11182Y5996D01*
X11108Y6011D01*
X11040Y6028D01*
X10977Y6046D01*
X10920Y6067D01*
X10867Y6090D01*
X10819Y6116D01*
X10776Y6144D01*
X10737Y6175D01*
X10702Y6209D01*
X10670Y6246D01*
X10642Y6286D01*
X10616Y6331D01*
X10594Y6379D01*
X10574Y6431D01*
X10556Y6487D01*
X10541Y6548D01*
X10527Y6613D01*
X10514Y6683D01*
X10503Y6758D01*
X10492Y6838D01*
X10482Y6924D01*
X10473Y7015D01*
X10463Y7112D01*
X10356Y8221D01*
X12649Y8121D01*
D02*
G37*
G36*
X-10448Y5835D02*
X-12152D01*
X-12329Y5837D01*
X-12507Y5842D01*
X-12686Y5851D01*
X-12865Y5862D01*
X-13041Y5877D01*
X-13214Y5895D01*
X-13383Y5915D01*
X-13546Y5937D01*
X-13702Y5962D01*
X-13851Y5989D01*
X-13990Y6018D01*
X-14119Y6048D01*
X-14236Y6080D01*
X-14341Y6113D01*
X-14431Y6148D01*
X-14506Y6183D01*
X-14564Y6217D01*
X-14620Y6254D01*
X-14674Y6295D01*
X-14725Y6339D01*
X-14774Y6386D01*
X-14820Y6435D01*
X-14863Y6488D01*
X-14904Y6542D01*
X-14941Y6599D01*
X-14976Y6657D01*
X-15009Y6717D01*
X-15038Y6778D01*
X-15064Y6841D01*
X-15088Y6904D01*
X-15108Y6969D01*
X-15125Y7034D01*
X-15139Y7099D01*
X-15150Y7164D01*
X-15157Y7229D01*
X-15161Y7294D01*
X-15162Y7358D01*
X-15159Y7422D01*
X-15153Y7484D01*
X-15144Y7546D01*
X-15130Y7605D01*
X-15113Y7663D01*
X-15093Y7720D01*
X-15068Y7774D01*
X-15040Y7825D01*
X-15008Y7875D01*
X-14972Y7921D01*
X-14932Y7965D01*
X-14918Y7976D01*
X-14898Y7988D01*
X-14874Y7999D01*
X-14844Y8010D01*
X-14809Y8021D01*
X-14770Y8031D01*
X-14726Y8042D01*
X-14677Y8052D01*
X-14624Y8062D01*
X-14568Y8071D01*
X-14507Y8081D01*
X-14408Y8094D01*
X-14302Y8107D01*
X-14188Y8119D01*
X-14067Y8130D01*
X-13939Y8141D01*
X-13805Y8151D01*
X-13713Y8156D01*
X-13618Y8162D01*
X-13522Y8167D01*
X-13423Y8171D01*
X-13322Y8175D01*
X-13220Y8179D01*
X-13116Y8182D01*
X-13011Y8184D01*
X-12904Y8186D01*
X-12796Y8188D01*
X-12688Y8189D01*
X-12578Y8189D01*
X-10448D01*
Y5835D01*
D02*
G37*
G36*
X3086Y20642D02*
X3292Y20641D01*
X3492Y20640D01*
X3686Y20637D01*
X3812Y20635D01*
X3936Y20633D01*
X4056Y20630D01*
X4174Y20627D01*
X4290Y20623D01*
X4403Y20618D01*
X4514Y20613D01*
X4622Y20608D01*
X4727Y20602D01*
X4831Y20595D01*
X4932Y20587D01*
X5030Y20579D01*
X5126Y20571D01*
X5220Y20561D01*
X5312Y20551D01*
X5401Y20540D01*
X5488Y20528D01*
X5573Y20515D01*
X5656Y20502D01*
X5737Y20487D01*
X5815Y20471D01*
X5892Y20455D01*
X5966Y20438D01*
X6039Y20419D01*
X6109Y20400D01*
X6178Y20380D01*
X6244Y20358D01*
X6309Y20335D01*
X6371Y20312D01*
X6432Y20287D01*
X6491Y20260D01*
X6548Y20233D01*
X6604Y20204D01*
X6658Y20175D01*
X6709Y20143D01*
X6760Y20111D01*
X6808Y20077D01*
X6855Y20042D01*
X6901Y20005D01*
X6944Y19967D01*
X6987Y19928D01*
X7027Y19887D01*
X7067Y19844D01*
X7104Y19800D01*
X7141Y19755D01*
X7175Y19707D01*
X7209Y19658D01*
X7241Y19608D01*
X7272Y19556D01*
X7301Y19502D01*
X7329Y19446D01*
X7356Y19389D01*
X7382Y19330D01*
X7406Y19269D01*
X7430Y19206D01*
X7452Y19142D01*
X7473Y19075D01*
X7493Y19007D01*
X7512Y18936D01*
X7530Y18864D01*
X7546Y18790D01*
X7562Y18713D01*
X7577Y18635D01*
X7591Y18554D01*
X7604Y18472D01*
X7617Y18387D01*
X7628Y18301D01*
X7639Y18211D01*
X7648Y18120D01*
X7658Y18027D01*
X7666Y17931D01*
X7673Y17833D01*
X7680Y17733D01*
X7687Y17630D01*
X7692Y17525D01*
X7697Y17417D01*
X7702Y17308D01*
X7706Y17195D01*
X7709Y17081D01*
X7712Y16963D01*
X7715Y16844D01*
X7717Y16721D01*
X7720Y16533D01*
X7721Y16339D01*
X7722Y16138D01*
X7722Y15932D01*
X7722Y15719D01*
X7721Y15426D01*
X7719Y15044D01*
X7715Y14309D01*
X7713Y13963D01*
X7712Y13696D01*
X7711Y13421D01*
X7711Y13140D01*
X7711Y12680D01*
X7710Y12242D01*
X7708Y11825D01*
X7706Y11428D01*
X7703Y11050D01*
X7699Y10692D01*
X7695Y10353D01*
X7689Y10031D01*
X7683Y9727D01*
X7676Y9440D01*
X7667Y9169D01*
X7658Y8914D01*
X7648Y8674D01*
X7636Y8449D01*
X7623Y8237D01*
X7610Y8040D01*
X7594Y7855D01*
X7578Y7682D01*
X7560Y7522D01*
X7541Y7372D01*
X7520Y7233D01*
X7498Y7104D01*
X7475Y6985D01*
X7450Y6875D01*
X7423Y6773D01*
X7395Y6679D01*
X7365Y6592D01*
X7333Y6512D01*
X7299Y6437D01*
X7264Y6369D01*
X7227Y6305D01*
X7188Y6246D01*
X7117Y6148D01*
X7059Y6074D01*
X7012Y6018D01*
X6961Y5966D01*
X6915Y5924D01*
X6864Y5884D01*
X6809Y5847D01*
X6758Y5817D01*
X6703Y5789D01*
X6643Y5763D01*
X6578Y5738D01*
X6507Y5715D01*
X6430Y5693D01*
X6346Y5673D01*
X6255Y5654D01*
X6156Y5637D01*
X6050Y5621D01*
X5934Y5606D01*
X5809Y5593D01*
X5675Y5581D01*
X5530Y5569D01*
X5375Y5559D01*
X5208Y5550D01*
X5030Y5542D01*
X4840Y5535D01*
X4637Y5528D01*
X4422Y5523D01*
X4192Y5518D01*
X3949Y5514D01*
X3690Y5510D01*
X3370Y5507D01*
X3029Y5504D01*
X2665Y5502D01*
X2221Y5500D01*
X1685Y5499D01*
X1041Y5499D01*
X272Y5499D01*
X-79Y5499D01*
X-423Y5500D01*
X-763Y5502D01*
X-1096Y5505D01*
X-1423Y5509D01*
X-1743Y5513D01*
X-2056Y5518D01*
X-2363Y5524D01*
X-2661Y5531D01*
X-2952Y5538D01*
X-3235Y5546D01*
X-3510Y5555D01*
X-3776Y5564D01*
X-4032Y5574D01*
X-4280Y5585D01*
X-4518Y5596D01*
X-4746Y5608D01*
X-4963Y5620D01*
X-5170Y5633D01*
X-5367Y5646D01*
X-5552Y5661D01*
X-5726Y5675D01*
X-5888Y5690D01*
X-6039Y5706D01*
X-6176Y5722D01*
X-6302Y5739D01*
X-6414Y5756D01*
X-6513Y5773D01*
X-6599Y5791D01*
X-6671Y5809D01*
X-6728Y5828D01*
X-6771Y5847D01*
X-6840Y5886D01*
X-6898Y5924D01*
X-6946Y5961D01*
X-6991Y6002D01*
X-7028Y6042D01*
X-7063Y6087D01*
X-7095Y6137D01*
X-7126Y6194D01*
X-7151Y6248D01*
X-7174Y6307D01*
X-7196Y6372D01*
X-7216Y6444D01*
X-7236Y6522D01*
X-7254Y6607D01*
X-7271Y6701D01*
X-7287Y6802D01*
X-7301Y6912D01*
X-7315Y7031D01*
X-7327Y7159D01*
X-7339Y7297D01*
X-7349Y7446D01*
X-7359Y7605D01*
X-7368Y7775D01*
X-7376Y7957D01*
X-7383Y8151D01*
X-7389Y8358D01*
X-7395Y8577D01*
X-7400Y8810D01*
X-7404Y9057D01*
X-7408Y9363D01*
X-7412Y9689D01*
X-7415Y10036D01*
X-7417Y10405D01*
X-7419Y10853D01*
X-7420Y11332D01*
X-7421Y11907D01*
X-7422Y12595D01*
X-7422Y12885D01*
X-7422Y13400D01*
X-7421Y13889D01*
X-7419Y14354D01*
X-7417Y14794D01*
X-7415Y15211D01*
X-7411Y15605D01*
X-7407Y15976D01*
X-7402Y16327D01*
X-7396Y16656D01*
X-7389Y16965D01*
X-7381Y17256D01*
X-7372Y17527D01*
X-7362Y17780D01*
X-7351Y18016D01*
X-7338Y18236D01*
X-7324Y18440D01*
X-7309Y18628D01*
X-7293Y18802D01*
X-7275Y18962D01*
X-7256Y19109D01*
X-7235Y19243D01*
X-7213Y19366D01*
X-7189Y19478D01*
X-7164Y19580D01*
X-7136Y19671D01*
X-7107Y19755D01*
X-7077Y19829D01*
X-7044Y19896D01*
X-7009Y19956D01*
X-6973Y20011D01*
X-6934Y20059D01*
X-6888Y20108D01*
X-6838Y20153D01*
X-6789Y20191D01*
X-6734Y20227D01*
X-6673Y20261D01*
X-6605Y20293D01*
X-6540Y20320D01*
X-6469Y20345D01*
X-6391Y20369D01*
X-6307Y20392D01*
X-6215Y20413D01*
X-6115Y20433D01*
X-6007Y20452D01*
X-5891Y20470D01*
X-5765Y20487D01*
X-5630Y20502D01*
X-5484Y20516D01*
X-5328Y20530D01*
X-5162Y20542D01*
X-4984Y20554D01*
X-4795Y20564D01*
X-4593Y20574D01*
X-4378Y20582D01*
X-4151Y20590D01*
X-3910Y20597D01*
X-3655Y20604D01*
X-3386Y20609D01*
X-3102Y20614D01*
X-2803Y20618D01*
X-2489Y20622D01*
X-2109Y20625D01*
X-1708Y20628D01*
X-1284Y20629D01*
X-838Y20631D01*
X-307Y20631D01*
X98Y20631D01*
X385Y20632D01*
X665Y20633D01*
X1028Y20634D01*
X2040Y20640D01*
X2354Y20641D01*
X2655Y20642D01*
X2874Y20642D01*
X3086Y20642D01*
D02*
G37*
G36*
X917Y202D02*
X908Y5D01*
X899Y-181D01*
X891Y-355D01*
X882Y-519D01*
X873Y-671D01*
X864Y-813D01*
X853Y-946D01*
X843Y-1068D01*
X831Y-1182D01*
X818Y-1286D01*
X805Y-1382D01*
X789Y-1470D01*
X773Y-1550D01*
X754Y-1623D01*
X734Y-1688D01*
X712Y-1747D01*
X688Y-1799D01*
X662Y-1846D01*
X633Y-1886D01*
X602Y-1922D01*
X568Y-1953D01*
X532Y-1979D01*
X492Y-2000D01*
X449Y-2018D01*
X403Y-2033D01*
X354Y-2044D01*
X301Y-2053D01*
X244Y-2059D01*
X183Y-2063D01*
X118Y-2066D01*
X50Y-2067D01*
X-79Y-2068D01*
X-166Y-2066D01*
X-246Y-2063D01*
X-305Y-2058D01*
X-361Y-2051D01*
X-413Y-2042D01*
X-462Y-2030D01*
X-507Y-2014D01*
X-539Y-2000D01*
X-569Y-1984D01*
X-597Y-1966D01*
X-624Y-1945D01*
X-649Y-1922D01*
X-673Y-1896D01*
X-695Y-1867D01*
X-716Y-1835D01*
X-735Y-1799D01*
X-754Y-1760D01*
X-771Y-1718D01*
X-787Y-1672D01*
X-801Y-1623D01*
X-815Y-1569D01*
X-828Y-1511D01*
X-840Y-1449D01*
X-852Y-1382D01*
X-862Y-1311D01*
X-872Y-1235D01*
X-881Y-1154D01*
X-893Y-1039D01*
X-903Y-914D01*
X-913Y-779D01*
X-922Y-634D01*
X-931Y-479D01*
X-942Y-270D01*
X-955Y5D01*
X-964Y202D01*
X-1063Y2472D01*
X1016D01*
X917Y202D01*
D02*
G37*
G36*
X6971Y405D02*
X6963Y262D01*
X6955Y124D01*
X6946Y-9D01*
X6937Y-136D01*
X6927Y-258D01*
X6916Y-375D01*
X6905Y-487D01*
X6893Y-595D01*
X6879Y-697D01*
X6865Y-795D01*
X6850Y-889D01*
X6834Y-978D01*
X6817Y-1063D01*
X6799Y-1144D01*
X6780Y-1221D01*
X6760Y-1294D01*
X6739Y-1363D01*
X6717Y-1429D01*
X6693Y-1491D01*
X6668Y-1550D01*
X6642Y-1605D01*
X6615Y-1657D01*
X6586Y-1707D01*
X6556Y-1753D01*
X6525Y-1797D01*
X6492Y-1837D01*
X6457Y-1876D01*
X6421Y-1912D01*
X6384Y-1945D01*
X6345Y-1976D01*
X6304Y-2006D01*
X6262Y-2033D01*
X6219Y-2058D01*
X6176Y-2081D01*
X6134Y-2101D01*
X6092Y-2119D01*
X6051Y-2134D01*
X6010Y-2147D01*
X5969Y-2158D01*
X5929Y-2166D01*
X5890Y-2172D01*
X5850Y-2176D01*
X5831Y-2176D01*
X5793Y-2177D01*
X5755Y-2174D01*
X5717Y-2170D01*
X5680Y-2163D01*
X5644Y-2154D01*
X5608Y-2143D01*
X5573Y-2129D01*
X5538Y-2114D01*
X5504Y-2096D01*
X5470Y-2076D01*
X5437Y-2053D01*
X5405Y-2029D01*
X5373Y-2002D01*
X5342Y-1974D01*
X5311Y-1943D01*
X5281Y-1910D01*
X5252Y-1875D01*
X5223Y-1838D01*
X5195Y-1799D01*
X5167Y-1758D01*
X5140Y-1715D01*
X5114Y-1670D01*
X5089Y-1623D01*
X5064Y-1574D01*
X5040Y-1523D01*
X5016Y-1470D01*
X4994Y-1415D01*
X4972Y-1358D01*
X4950Y-1299D01*
X4930Y-1239D01*
X4910Y-1177D01*
X4891Y-1112D01*
X4873Y-1046D01*
X4856Y-978D01*
X4839Y-909D01*
X4823Y-837D01*
X4808Y-764D01*
X4794Y-689D01*
X4781Y-612D01*
X4768Y-534D01*
X4756Y-453D01*
X4746Y-372D01*
X4736Y-288D01*
X4727Y-203D01*
X4718Y-116D01*
X4711Y-27D01*
X4704Y63D01*
X4699Y154D01*
X4694Y248D01*
X4690Y343D01*
X4687Y439D01*
X4685Y537D01*
X4685Y636D01*
X4685Y687D01*
Y2472D01*
X7071D01*
X6971Y405D01*
D02*
G37*
G36*
X-4732Y650D02*
X-4732Y447D01*
X-4734Y253D01*
X-4738Y68D01*
X-4743Y-108D01*
X-4749Y-277D01*
X-4758Y-437D01*
X-4767Y-589D01*
X-4779Y-733D01*
X-4792Y-870D01*
X-4808Y-999D01*
X-4825Y-1120D01*
X-4843Y-1234D01*
X-4864Y-1342D01*
X-4887Y-1442D01*
X-4912Y-1535D01*
X-4940Y-1622D01*
X-4969Y-1702D01*
X-5001Y-1776D01*
X-5034Y-1844D01*
X-5071Y-1905D01*
X-5110Y-1961D01*
X-5151Y-2012D01*
X-5194Y-2056D01*
X-5240Y-2096D01*
X-5289Y-2130D01*
X-5341Y-2159D01*
X-5395Y-2183D01*
X-5452Y-2203D01*
X-5512Y-2217D01*
X-5575Y-2228D01*
X-5640Y-2234D01*
X-5709Y-2236D01*
X-5756Y-2235D01*
X-5801Y-2234D01*
X-5846Y-2231D01*
X-5889Y-2227D01*
X-5932Y-2222D01*
X-5974Y-2216D01*
X-6015Y-2208D01*
X-6055Y-2200D01*
X-6094Y-2190D01*
X-6133Y-2179D01*
X-6170Y-2166D01*
X-6207Y-2153D01*
X-6243Y-2138D01*
X-6278Y-2122D01*
X-6312Y-2105D01*
X-6346Y-2087D01*
X-6378Y-2067D01*
X-6410Y-2046D01*
X-6441Y-2023D01*
X-6471Y-2000D01*
X-6500Y-1974D01*
X-6529Y-1948D01*
X-6557Y-1920D01*
X-6584Y-1891D01*
X-6610Y-1861D01*
X-6635Y-1829D01*
X-6660Y-1795D01*
X-6684Y-1761D01*
X-6707Y-1725D01*
X-6729Y-1687D01*
X-6751Y-1648D01*
X-6772Y-1608D01*
X-6792Y-1566D01*
X-6812Y-1522D01*
X-6830Y-1478D01*
X-6848Y-1431D01*
X-6866Y-1383D01*
X-6882Y-1334D01*
X-6898Y-1283D01*
X-6914Y-1230D01*
X-6928Y-1176D01*
X-6942Y-1121D01*
X-6955Y-1064D01*
X-6967Y-1005D01*
X-6979Y-945D01*
X-6991Y-883D01*
X-7001Y-819D01*
X-7011Y-754D01*
X-7020Y-687D01*
X-7029Y-618D01*
X-7037Y-548D01*
X-7044Y-476D01*
X-7051Y-403D01*
X-7057Y-327D01*
X-7062Y-250D01*
X-7067Y-172D01*
X-7072Y-91D01*
X-7075Y-9D01*
X-7079Y75D01*
X-7081Y161D01*
X-7083Y248D01*
X-7084Y338D01*
X-7085Y429D01*
X-7085Y522D01*
Y2472D01*
X-4732D01*
Y650D01*
D02*
G37*
G36*
X12196Y-8978D02*
X12307Y-8980D01*
X12424Y-8982D01*
X12546Y-8986D01*
X12675Y-8991D01*
X12810Y-8997D01*
X12951Y-9004D01*
X13099Y-9013D01*
X13253Y-9022D01*
X13321Y-9027D01*
X13389Y-9031D01*
X13455Y-9036D01*
X13521Y-9042D01*
X13587Y-9047D01*
X13651Y-9053D01*
X13715Y-9059D01*
X13778Y-9065D01*
X13841Y-9072D01*
X13903Y-9079D01*
X13964Y-9086D01*
X14025Y-9093D01*
X14085Y-9101D01*
X14144Y-9109D01*
X14202Y-9117D01*
X14260Y-9126D01*
X14318Y-9135D01*
X14374Y-9144D01*
X14430Y-9153D01*
X14485Y-9163D01*
X14540Y-9173D01*
X14594Y-9183D01*
X14648Y-9194D01*
X14700Y-9205D01*
X14752Y-9216D01*
X14804Y-9228D01*
X14854Y-9239D01*
X14905Y-9251D01*
X14954Y-9264D01*
X15003Y-9277D01*
X15051Y-9290D01*
X15099Y-9303D01*
X15146Y-9317D01*
X15192Y-9331D01*
X15238Y-9345D01*
X15283Y-9360D01*
X15328Y-9375D01*
X15372Y-9390D01*
X15415Y-9405D01*
X15458Y-9421D01*
X15500Y-9437D01*
X15541Y-9454D01*
X15582Y-9471D01*
X15622Y-9488D01*
X15662Y-9506D01*
X15701Y-9524D01*
X15740Y-9542D01*
X15777Y-9560D01*
X15815Y-9579D01*
X15852Y-9599D01*
X15888Y-9618D01*
X15923Y-9638D01*
X15958Y-9658D01*
X15992Y-9679D01*
X16026Y-9700D01*
X16059Y-9721D01*
X16092Y-9743D01*
X16124Y-9765D01*
X16155Y-9788D01*
X16186Y-9810D01*
X16217Y-9834D01*
X16246Y-9857D01*
X16276Y-9881D01*
X16304Y-9905D01*
X16332Y-9930D01*
X16360Y-9955D01*
X16387Y-9980D01*
X16413Y-10006D01*
X16439Y-10032D01*
X16464Y-10059D01*
X16489Y-10086D01*
X16513Y-10113D01*
X16537Y-10140D01*
X16560Y-10168D01*
X16583Y-10197D01*
X16605Y-10226D01*
X16626Y-10255D01*
X16647Y-10284D01*
X16668Y-10314D01*
X16687Y-10345D01*
X16707Y-10376D01*
X16726Y-10407D01*
X16744Y-10438D01*
X16762Y-10470D01*
X16779Y-10503D01*
X16796Y-10536D01*
X16812Y-10569D01*
X16828Y-10602D01*
X16843Y-10636D01*
X16858Y-10671D01*
X16872Y-10706D01*
X16885Y-10741D01*
X16899Y-10776D01*
X16911Y-10813D01*
X16924Y-10849D01*
X16935Y-10886D01*
X16947Y-10923D01*
X16957Y-10961D01*
X16967Y-11000D01*
X16977Y-11038D01*
X16986Y-11077D01*
X16995Y-11117D01*
X17003Y-11157D01*
X17011Y-11197D01*
X17018Y-11238D01*
X17025Y-11279D01*
X17032Y-11321D01*
X17038Y-11363D01*
X17043Y-11406D01*
X17048Y-11449D01*
X17052Y-11492D01*
X17056Y-11536D01*
X17060Y-11581D01*
X17063Y-11626D01*
X17065Y-11671D01*
X17068Y-11717D01*
X17069Y-11763D01*
X17071Y-11810D01*
X17071Y-11857D01*
X17072Y-11904D01*
X17072Y-11953D01*
X17071Y-12001D01*
X17070Y-12050D01*
X17069Y-12100D01*
X17067Y-12150D01*
X17064Y-12200D01*
X17062Y-12251D01*
X17054Y-12363D01*
X17046Y-12479D01*
X17036Y-12590D01*
X17026Y-12696D01*
X17021Y-12747D01*
X17015Y-12797D01*
X17009Y-12845D01*
X17003Y-12893D01*
X16996Y-12939D01*
X16989Y-12985D01*
X16982Y-13029D01*
X16974Y-13073D01*
X16966Y-13115D01*
X16957Y-13157D01*
X16948Y-13197D01*
X16939Y-13237D01*
X16929Y-13276D01*
X16919Y-13314D01*
X16908Y-13351D01*
X16897Y-13387D01*
X16885Y-13423D01*
X16872Y-13458D01*
X16860Y-13492D01*
X16846Y-13526D01*
X16832Y-13559D01*
X16817Y-13591D01*
X16802Y-13623D01*
X16786Y-13655D01*
X16770Y-13686D01*
X16752Y-13716D01*
X16735Y-13746D01*
X16716Y-13776D01*
X16697Y-13805D01*
X16677Y-13834D01*
X16656Y-13863D01*
X16634Y-13891D01*
X16612Y-13919D01*
X16589Y-13947D01*
X16565Y-13974D01*
X16540Y-14002D01*
X16514Y-14029D01*
X16487Y-14057D01*
X16460Y-14084D01*
X16432Y-14111D01*
X16402Y-14139D01*
X16372Y-14166D01*
X16341Y-14193D01*
X16309Y-14220D01*
X16275Y-14248D01*
X16241Y-14276D01*
X16206Y-14303D01*
X16170Y-14331D01*
X16133Y-14360D01*
X16055Y-14417D01*
X15973Y-14476D01*
X15886Y-14536D01*
X15795Y-14598D01*
X15708Y-14656D01*
X15623Y-14710D01*
X15539Y-14762D01*
X15498Y-14787D01*
X15457Y-14811D01*
X15416Y-14835D01*
X15376Y-14858D01*
X15336Y-14880D01*
X15296Y-14901D01*
X15256Y-14922D01*
X15216Y-14943D01*
X15177Y-14962D01*
X15137Y-14981D01*
X15098Y-15000D01*
X15058Y-15018D01*
X15019Y-15035D01*
X14979Y-15051D01*
X14940Y-15067D01*
X14900Y-15083D01*
X14860Y-15098D01*
X14820Y-15112D01*
X14780Y-15125D01*
X14740Y-15138D01*
X14699Y-15151D01*
X14658Y-15163D01*
X14617Y-15175D01*
X14576Y-15185D01*
X14534Y-15196D01*
X14492Y-15206D01*
X14449Y-15215D01*
X14406Y-15224D01*
X14363Y-15232D01*
X14319Y-15240D01*
X14274Y-15247D01*
X14229Y-15254D01*
X14183Y-15260D01*
X14137Y-15266D01*
X14090Y-15272D01*
X14042Y-15277D01*
X13994Y-15281D01*
X13945Y-15285D01*
X13895Y-15289D01*
X13845Y-15292D01*
X13793Y-15294D01*
X13741Y-15297D01*
X13688Y-15299D01*
X13634Y-15300D01*
X13579Y-15301D01*
X13523Y-15302D01*
X13466Y-15302D01*
X13408Y-15302D01*
X13350Y-15302D01*
X13290Y-15301D01*
X13228Y-15300D01*
X13166Y-15298D01*
X13038Y-15294D01*
X12906Y-15289D01*
X12768Y-15282D01*
X10906Y-15183D01*
X10807Y-12522D01*
X10797Y-12249D01*
X10791Y-11978D01*
X10786Y-11711D01*
X10783Y-11451D01*
X10782Y-11198D01*
X10783Y-10954D01*
X10787Y-10721D01*
X10792Y-10500D01*
X10799Y-10293D01*
X10807Y-10102D01*
X10818Y-9928D01*
X10830Y-9773D01*
X10844Y-9638D01*
X10859Y-9525D01*
X10876Y-9437D01*
X10895Y-9373D01*
X10910Y-9338D01*
X10927Y-9305D01*
X10947Y-9274D01*
X10969Y-9245D01*
X10994Y-9217D01*
X11022Y-9191D01*
X11054Y-9166D01*
X11088Y-9143D01*
X11126Y-9122D01*
X11168Y-9102D01*
X11213Y-9084D01*
X11262Y-9067D01*
X11315Y-9052D01*
X11371Y-9038D01*
X11433Y-9026D01*
X11498Y-9015D01*
X11568Y-9006D01*
X11643Y-8998D01*
X11722Y-8991D01*
X11806Y-8986D01*
X11896Y-8982D01*
X11990Y-8980D01*
X12090Y-8978D01*
X12196Y-8978D01*
D02*
G37*
G36*
X-8707Y-8963D02*
X-8641Y-8967D01*
X-8592Y-8972D01*
X-8546Y-8980D01*
X-8503Y-8990D01*
X-8462Y-9004D01*
X-8425Y-9021D01*
X-8389Y-9042D01*
X-8357Y-9067D01*
X-8327Y-9097D01*
X-8306Y-9122D01*
X-8286Y-9150D01*
X-8268Y-9182D01*
X-8251Y-9216D01*
X-8235Y-9254D01*
X-8219Y-9295D01*
X-8206Y-9340D01*
X-8193Y-9389D01*
X-8181Y-9442D01*
X-8170Y-9498D01*
X-8160Y-9559D01*
X-8151Y-9624D01*
X-8143Y-9694D01*
X-8135Y-9768D01*
X-8129Y-9847D01*
X-8121Y-9961D01*
X-8115Y-10083D01*
X-8109Y-10215D01*
X-8105Y-10356D01*
X-8101Y-10508D01*
X-8099Y-10670D01*
X-8097Y-10843D01*
X-8095Y-11075D01*
X-8095Y-11325D01*
X-8094Y-11484D01*
Y-14006D01*
X-6581D01*
X-6462Y-14006D01*
X-6350Y-14007D01*
X-6243Y-14009D01*
X-6143Y-14011D01*
X-6048Y-14015D01*
X-5959Y-14019D01*
X-5875Y-14024D01*
X-5796Y-14030D01*
X-5723Y-14038D01*
X-5654Y-14047D01*
X-5590Y-14056D01*
X-5531Y-14068D01*
X-5476Y-14081D01*
X-5426Y-14095D01*
X-5379Y-14111D01*
X-5337Y-14128D01*
X-5298Y-14148D01*
X-5263Y-14169D01*
X-5232Y-14192D01*
X-5204Y-14217D01*
X-5179Y-14243D01*
X-5157Y-14272D01*
X-5138Y-14304D01*
X-5121Y-14337D01*
X-5108Y-14373D01*
X-5096Y-14411D01*
X-5087Y-14451D01*
X-5080Y-14495D01*
X-5074Y-14540D01*
X-5071Y-14589D01*
X-5068Y-14640D01*
X-5068Y-14694D01*
X-5068Y-14752D01*
X-5070Y-14806D01*
X-5074Y-14857D01*
X-5079Y-14905D01*
X-5087Y-14950D01*
X-5098Y-14992D01*
X-5111Y-15031D01*
X-5119Y-15049D01*
X-5128Y-15067D01*
X-5138Y-15084D01*
X-5148Y-15100D01*
X-5160Y-15115D01*
X-5172Y-15130D01*
X-5186Y-15144D01*
X-5201Y-15158D01*
X-5217Y-15171D01*
X-5234Y-15183D01*
X-5252Y-15195D01*
X-5271Y-15206D01*
X-5292Y-15217D01*
X-5314Y-15227D01*
X-5338Y-15236D01*
X-5363Y-15245D01*
X-5389Y-15253D01*
X-5417Y-15261D01*
X-5447Y-15268D01*
X-5478Y-15274D01*
X-5510Y-15281D01*
X-5544Y-15286D01*
X-5580Y-15291D01*
X-5618Y-15296D01*
X-5658Y-15300D01*
X-5699Y-15304D01*
X-5742Y-15307D01*
X-5787Y-15310D01*
X-5834Y-15313D01*
X-5883Y-15314D01*
X-5934Y-15316D01*
X-5987Y-15317D01*
X-6042Y-15318D01*
X-6099Y-15318D01*
X-6159Y-15318D01*
X-6220Y-15318D01*
X-6350Y-15317D01*
X-6490Y-15314D01*
X-6639Y-15310D01*
X-6798Y-15304D01*
X-6967Y-15298D01*
X-7147Y-15291D01*
X-7338Y-15282D01*
X-9608Y-15183D01*
X-9707Y-12522D01*
X-9716Y-12249D01*
X-9723Y-11979D01*
X-9728Y-11713D01*
X-9732Y-11454D01*
X-9733Y-11202D01*
X-9733Y-10960D01*
X-9730Y-10729D01*
X-9726Y-10511D01*
X-9720Y-10307D01*
X-9713Y-10119D01*
X-9703Y-9948D01*
X-9693Y-9797D01*
X-9680Y-9665D01*
X-9666Y-9556D01*
X-9650Y-9471D01*
X-9633Y-9412D01*
X-9612Y-9366D01*
X-9585Y-9321D01*
X-9551Y-9278D01*
X-9512Y-9237D01*
X-9468Y-9198D01*
X-9420Y-9161D01*
X-9367Y-9126D01*
X-9311Y-9094D01*
X-9251Y-9065D01*
X-9188Y-9039D01*
X-9123Y-9016D01*
X-9056Y-8997D01*
X-8988Y-8982D01*
X-8918Y-8971D01*
X-8848Y-8964D01*
X-8777Y-8962D01*
X-8707Y-8963D01*
D02*
G37*
G36*
X5872Y-8963D02*
X6025Y-8967D01*
X6177Y-8973D01*
X6325Y-8981D01*
X6471Y-8992D01*
X6614Y-9005D01*
X6754Y-9021D01*
X6891Y-9039D01*
X7025Y-9059D01*
X7156Y-9081D01*
X7284Y-9106D01*
X7408Y-9133D01*
X7530Y-9162D01*
X7648Y-9193D01*
X7763Y-9227D01*
X7874Y-9262D01*
X7982Y-9300D01*
X8086Y-9340D01*
X8187Y-9381D01*
X8284Y-9425D01*
X8377Y-9471D01*
X8467Y-9519D01*
X8552Y-9569D01*
X8633Y-9621D01*
X8711Y-9675D01*
X8784Y-9731D01*
X8854Y-9789D01*
X8918Y-9848D01*
X8979Y-9910D01*
X9036Y-9973D01*
X9088Y-10038D01*
X9135Y-10105D01*
X9174Y-10167D01*
X9209Y-10235D01*
X9241Y-10307D01*
X9269Y-10383D01*
X9294Y-10462D01*
X9316Y-10545D01*
X9335Y-10631D01*
X9351Y-10720D01*
X9363Y-10811D01*
X9373Y-10905D01*
X9379Y-11000D01*
X9383Y-11096D01*
X9383Y-11194D01*
X9381Y-11292D01*
X9375Y-11390D01*
X9367Y-11489D01*
X9356Y-11587D01*
X9341Y-11685D01*
X9325Y-11782D01*
X9305Y-11878D01*
X9283Y-11971D01*
X9258Y-12064D01*
X9230Y-12153D01*
X9200Y-12240D01*
X9167Y-12324D01*
X9131Y-12405D01*
X9093Y-12482D01*
X9053Y-12555D01*
X9010Y-12624D01*
X8965Y-12689D01*
X8917Y-12748D01*
X8867Y-12802D01*
X8824Y-12846D01*
X8783Y-12887D01*
X8745Y-12927D01*
X8711Y-12966D01*
X8679Y-13003D01*
X8649Y-13038D01*
X8623Y-13073D01*
X8599Y-13107D01*
X8578Y-13140D01*
X8560Y-13172D01*
X8545Y-13204D01*
X8532Y-13236D01*
X8522Y-13267D01*
X8515Y-13299D01*
X8511Y-13331D01*
X8510Y-13363D01*
X8511Y-13397D01*
X8515Y-13430D01*
X8522Y-13465D01*
X8532Y-13501D01*
X8545Y-13538D01*
X8560Y-13577D01*
X8578Y-13617D01*
X8599Y-13658D01*
X8623Y-13702D01*
X8649Y-13748D01*
X8679Y-13797D01*
X8711Y-13847D01*
X8745Y-13901D01*
X8783Y-13957D01*
X8824Y-14016D01*
X8932Y-14171D01*
X8992Y-14260D01*
X9048Y-14345D01*
X9099Y-14425D01*
X9145Y-14502D01*
X9187Y-14574D01*
X9225Y-14642D01*
X9257Y-14707D01*
X9285Y-14768D01*
X9309Y-14825D01*
X9328Y-14879D01*
X9342Y-14929D01*
X9351Y-14976D01*
X9356Y-15019D01*
X9356Y-15059D01*
X9351Y-15097D01*
X9341Y-15131D01*
X9327Y-15163D01*
X9307Y-15191D01*
X9283Y-15217D01*
X9254Y-15240D01*
X9220Y-15261D01*
X9182Y-15280D01*
X9138Y-15295D01*
X9089Y-15309D01*
X9036Y-15321D01*
X8977Y-15330D01*
X8913Y-15338D01*
X8845Y-15344D01*
X8771Y-15348D01*
X8692Y-15350D01*
X8609Y-15351D01*
X8563Y-15350D01*
X8517Y-15347D01*
X8471Y-15343D01*
X8426Y-15337D01*
X8381Y-15328D01*
X8336Y-15319D01*
X8292Y-15307D01*
X8248Y-15294D01*
X8204Y-15279D01*
X8161Y-15262D01*
X8119Y-15244D01*
X8077Y-15224D01*
X8035Y-15203D01*
X7994Y-15180D01*
X7953Y-15155D01*
X7913Y-15129D01*
X7874Y-15101D01*
X7835Y-15071D01*
X7797Y-15041D01*
X7760Y-15008D01*
X7723Y-14974D01*
X7687Y-14939D01*
X7652Y-14902D01*
X7617Y-14864D01*
X7584Y-14825D01*
X7551Y-14784D01*
X7520Y-14742D01*
X7489Y-14698D01*
X7459Y-14653D01*
X7430Y-14607D01*
X7402Y-14559D01*
X7375Y-14510D01*
X7326Y-14425D01*
X7272Y-14342D01*
X7214Y-14261D01*
X7152Y-14184D01*
X7086Y-14110D01*
X7018Y-14041D01*
X6948Y-13976D01*
X6876Y-13917D01*
X6803Y-13862D01*
X6730Y-13814D01*
X6656Y-13771D01*
X6584Y-13736D01*
X6512Y-13708D01*
X6442Y-13687D01*
X6374Y-13674D01*
X6309Y-13670D01*
X6269Y-13670D01*
X6231Y-13673D01*
X6194Y-13676D01*
X6158Y-13682D01*
X6124Y-13688D01*
X6092Y-13697D01*
X6060Y-13706D01*
X6030Y-13718D01*
X6002Y-13731D01*
X5975Y-13746D01*
X5949Y-13762D01*
X5924Y-13780D01*
X5901Y-13800D01*
X5879Y-13821D01*
X5858Y-13844D01*
X5839Y-13869D01*
X5821Y-13895D01*
X5804Y-13923D01*
X5788Y-13953D01*
X5774Y-13985D01*
X5761Y-14018D01*
X5749Y-14054D01*
X5738Y-14091D01*
X5729Y-14130D01*
X5720Y-14171D01*
X5713Y-14213D01*
X5707Y-14258D01*
X5702Y-14305D01*
X5698Y-14353D01*
X5695Y-14404D01*
X5694Y-14456D01*
X5693Y-14572D01*
X5691Y-14631D01*
X5689Y-14686D01*
X5685Y-14740D01*
X5680Y-14790D01*
X5673Y-14838D01*
X5666Y-14883D01*
X5657Y-14925D01*
X5646Y-14966D01*
X5634Y-15003D01*
X5620Y-15039D01*
X5605Y-15072D01*
X5588Y-15103D01*
X5569Y-15132D01*
X5548Y-15158D01*
X5525Y-15183D01*
X5501Y-15206D01*
X5474Y-15226D01*
X5445Y-15245D01*
X5414Y-15262D01*
X5381Y-15278D01*
X5346Y-15292D01*
X5308Y-15304D01*
X5268Y-15314D01*
X5225Y-15323D01*
X5180Y-15331D01*
X5132Y-15337D01*
X5082Y-15342D01*
X5029Y-15346D01*
X4973Y-15349D01*
X4914Y-15351D01*
X4777Y-15351D01*
X4688Y-15350D01*
X4622Y-15347D01*
X4561Y-15343D01*
X4504Y-15336D01*
X4464Y-15329D01*
X4426Y-15320D01*
X4391Y-15308D01*
X4357Y-15295D01*
X4325Y-15278D01*
X4296Y-15259D01*
X4268Y-15236D01*
X4242Y-15210D01*
X4219Y-15180D01*
X4196Y-15146D01*
X4176Y-15108D01*
X4157Y-15065D01*
X4139Y-15018D01*
X4123Y-14966D01*
X4109Y-14909D01*
X4095Y-14846D01*
X4083Y-14778D01*
X4073Y-14704D01*
X4063Y-14623D01*
X4054Y-14537D01*
X4047Y-14443D01*
X4040Y-14343D01*
X4034Y-14236D01*
X4030Y-14121D01*
X4025Y-13999D01*
X4022Y-13868D01*
X4019Y-13730D01*
X4017Y-13584D01*
X4015Y-13375D01*
X4013Y-13150D01*
X4013Y-12909D01*
X4012Y-12515D01*
X4012Y-12156D01*
Y-8962D01*
X5715D01*
X5872Y-8963D01*
D02*
G37*
G36*
X-509Y-8988D02*
X-383Y-8994D01*
X-258Y-9002D01*
X-134Y-9013D01*
X-12Y-9027D01*
X108Y-9044D01*
X226Y-9064D01*
X341Y-9087D01*
X452Y-9112D01*
X560Y-9140D01*
X665Y-9172D01*
X765Y-9206D01*
X860Y-9243D01*
X951Y-9282D01*
X1036Y-9325D01*
X1087Y-9353D01*
X1137Y-9384D01*
X1186Y-9416D01*
X1235Y-9450D01*
X1283Y-9485D01*
X1330Y-9523D01*
X1377Y-9562D01*
X1423Y-9603D01*
X1468Y-9645D01*
X1512Y-9689D01*
X1556Y-9734D01*
X1598Y-9781D01*
X1640Y-9830D01*
X1681Y-9879D01*
X1721Y-9931D01*
X1760Y-9983D01*
X1799Y-10037D01*
X1836Y-10091D01*
X1873Y-10148D01*
X1908Y-10205D01*
X1943Y-10263D01*
X1977Y-10322D01*
X2010Y-10382D01*
X2041Y-10443D01*
X2072Y-10506D01*
X2102Y-10569D01*
X2131Y-10632D01*
X2158Y-10697D01*
X2185Y-10762D01*
X2210Y-10828D01*
X2235Y-10895D01*
X2258Y-10962D01*
X2280Y-11030D01*
X2301Y-11098D01*
X2321Y-11167D01*
X2340Y-11236D01*
X2357Y-11305D01*
X2374Y-11375D01*
X2389Y-11445D01*
X2403Y-11516D01*
X2415Y-11586D01*
X2427Y-11657D01*
X2437Y-11728D01*
X2446Y-11799D01*
X2453Y-11870D01*
X2459Y-11941D01*
X2464Y-12012D01*
X2468Y-12083D01*
X2470Y-12154D01*
X2471Y-12224D01*
X2470Y-12294D01*
X2468Y-12364D01*
X2465Y-12434D01*
X2460Y-12503D01*
X2454Y-12572D01*
X2446Y-12641D01*
X2437Y-12708D01*
X2426Y-12776D01*
X2414Y-12843D01*
X2400Y-12909D01*
X2385Y-12974D01*
X2368Y-13039D01*
X2350Y-13103D01*
X2330Y-13167D01*
X2308Y-13231D01*
X2285Y-13295D01*
X2260Y-13358D01*
X2235Y-13420D01*
X2208Y-13481D01*
X2181Y-13541D01*
X2152Y-13600D01*
X2123Y-13658D01*
X2092Y-13715D01*
X2061Y-13772D01*
X2028Y-13827D01*
X1994Y-13881D01*
X1960Y-13935D01*
X1925Y-13987D01*
X1888Y-14039D01*
X1851Y-14089D01*
X1813Y-14139D01*
X1774Y-14187D01*
X1735Y-14235D01*
X1694Y-14281D01*
X1653Y-14327D01*
X1611Y-14372D01*
X1568Y-14415D01*
X1524Y-14458D01*
X1480Y-14500D01*
X1435Y-14541D01*
X1389Y-14581D01*
X1342Y-14620D01*
X1295Y-14658D01*
X1247Y-14694D01*
X1199Y-14730D01*
X1150Y-14765D01*
X1100Y-14799D01*
X1050Y-14833D01*
X999Y-14865D01*
X948Y-14896D01*
X896Y-14926D01*
X844Y-14955D01*
X791Y-14983D01*
X738Y-15010D01*
X684Y-15036D01*
X629Y-15062D01*
X575Y-15086D01*
X520Y-15109D01*
X464Y-15132D01*
X408Y-15153D01*
X352Y-15173D01*
X295Y-15192D01*
X238Y-15211D01*
X181Y-15228D01*
X123Y-15244D01*
X65Y-15260D01*
X7Y-15274D01*
X-51Y-15288D01*
X-110Y-15300D01*
X-169Y-15311D01*
X-228Y-15322D01*
X-287Y-15331D01*
X-346Y-15339D01*
X-406Y-15347D01*
X-465Y-15353D01*
X-525Y-15359D01*
X-585Y-15363D01*
X-645Y-15367D01*
X-705Y-15369D01*
X-765Y-15370D01*
X-825Y-15371D01*
X-885Y-15370D01*
X-946Y-15369D01*
X-1006Y-15366D01*
X-1066Y-15362D01*
X-1126Y-15358D01*
X-1185Y-15352D01*
X-1245Y-15345D01*
X-1305Y-15338D01*
X-1365Y-15329D01*
X-1424Y-15319D01*
X-1484Y-15309D01*
X-1543Y-15297D01*
X-1602Y-15284D01*
X-1660Y-15271D01*
X-1719Y-15256D01*
X-1777Y-15240D01*
X-1835Y-15223D01*
X-1893Y-15206D01*
X-1951Y-15187D01*
X-2008Y-15167D01*
X-2065Y-15146D01*
X-2121Y-15124D01*
X-2177Y-15101D01*
X-2233Y-15078D01*
X-2289Y-15053D01*
X-2344Y-15027D01*
X-2398Y-15000D01*
X-2452Y-14972D01*
X-2506Y-14943D01*
X-2559Y-14913D01*
X-2612Y-14882D01*
X-2664Y-14850D01*
X-2716Y-14817D01*
X-2767Y-14782D01*
X-2818Y-14747D01*
X-2868Y-14711D01*
X-2917Y-14674D01*
X-2966Y-14635D01*
X-3015Y-14596D01*
X-3062Y-14556D01*
X-3109Y-14514D01*
X-3155Y-14472D01*
X-3201Y-14428D01*
X-3246Y-14384D01*
X-3290Y-14338D01*
X-3333Y-14292D01*
X-3376Y-14244D01*
X-3418Y-14196D01*
X-3459Y-14146D01*
X-3499Y-14095D01*
X-3539Y-14043D01*
X-3577Y-13991D01*
X-3615Y-13937D01*
X-3652Y-13882D01*
X-3688Y-13826D01*
X-3723Y-13769D01*
X-3757Y-13711D01*
X-3790Y-13652D01*
X-3823Y-13591D01*
X-3854Y-13530D01*
X-3884Y-13468D01*
X-3919Y-13393D01*
X-3951Y-13318D01*
X-3982Y-13244D01*
X-4011Y-13169D01*
X-4038Y-13095D01*
X-4063Y-13020D01*
X-4087Y-12946D01*
X-4108Y-12871D01*
X-4128Y-12797D01*
X-4146Y-12723D01*
X-4162Y-12649D01*
X-4176Y-12575D01*
X-4188Y-12502D01*
X-4199Y-12428D01*
X-4208Y-12355D01*
X-4215Y-12282D01*
X-4220Y-12209D01*
X-4223Y-12137D01*
X-4225Y-12064D01*
X-4225Y-11992D01*
X-4223Y-11921D01*
X-4219Y-11850D01*
X-4214Y-11779D01*
X-4207Y-11708D01*
X-4198Y-11638D01*
X-4187Y-11568D01*
X-4175Y-11499D01*
X-4161Y-11430D01*
X-4145Y-11361D01*
X-4127Y-11293D01*
X-4108Y-11225D01*
X-4087Y-11158D01*
X-4064Y-11091D01*
X-4040Y-11025D01*
X-4014Y-10960D01*
X-3986Y-10895D01*
X-3957Y-10830D01*
X-3926Y-10767D01*
X-3893Y-10703D01*
X-3858Y-10641D01*
X-3822Y-10579D01*
X-3784Y-10518D01*
X-3745Y-10457D01*
X-3704Y-10397D01*
X-3661Y-10338D01*
X-3617Y-10279D01*
X-3571Y-10221D01*
X-3523Y-10164D01*
X-3474Y-10108D01*
X-3423Y-10052D01*
X-3371Y-9998D01*
X-3317Y-9944D01*
X-3261Y-9891D01*
X-3204Y-9839D01*
X-3145Y-9787D01*
X-3085Y-9737D01*
X-3023Y-9688D01*
X-2959Y-9639D01*
X-2894Y-9591D01*
X-2828Y-9545D01*
X-2760Y-9499D01*
X-2690Y-9454D01*
X-2618Y-9410D01*
X-2546Y-9368D01*
X-2462Y-9323D01*
X-2374Y-9281D01*
X-2280Y-9242D01*
X-2182Y-9206D01*
X-2079Y-9172D01*
X-1972Y-9141D01*
X-1862Y-9113D01*
X-1748Y-9088D01*
X-1632Y-9065D01*
X-1512Y-9045D01*
X-1391Y-9028D01*
X-1268Y-9014D01*
X-1143Y-9003D01*
X-1017Y-8994D01*
X-890Y-8989D01*
X-763Y-8986D01*
X-636Y-8986D01*
X-509Y-8988D01*
D02*
G37*
G36*
X7375Y-18546D02*
X7374Y-18619D01*
X7373Y-18688D01*
X7371Y-18752D01*
X7367Y-18813D01*
X7361Y-18869D01*
X7354Y-18922D01*
X7349Y-18947D01*
X7344Y-18971D01*
X7338Y-18994D01*
X7331Y-19016D01*
X7323Y-19038D01*
X7315Y-19058D01*
X7305Y-19078D01*
X7295Y-19097D01*
X7284Y-19115D01*
X7272Y-19132D01*
X7259Y-19149D01*
X7245Y-19165D01*
X7230Y-19180D01*
X7213Y-19195D01*
X7196Y-19208D01*
X7177Y-19221D01*
X7157Y-19234D01*
X7136Y-19246D01*
X7113Y-19257D01*
X7089Y-19267D01*
X7063Y-19277D01*
X7037Y-19287D01*
X7008Y-19296D01*
X6978Y-19304D01*
X6947Y-19312D01*
X6914Y-19319D01*
X6879Y-19326D01*
X6843Y-19332D01*
X6805Y-19338D01*
X6765Y-19344D01*
X6723Y-19349D01*
X6679Y-19353D01*
X6634Y-19358D01*
X6587Y-19361D01*
X6537Y-19365D01*
X6486Y-19368D01*
X6432Y-19371D01*
X6377Y-19374D01*
X6319Y-19376D01*
X6197Y-19379D01*
X6066Y-19382D01*
X5926Y-19384D01*
X5776Y-19386D01*
X5616Y-19386D01*
X5446Y-19387D01*
X5182Y-19387D01*
X5017Y-19387D01*
X4862Y-19388D01*
X4717Y-19390D01*
X4581Y-19392D01*
X4455Y-19395D01*
X4337Y-19399D01*
X4228Y-19405D01*
X4128Y-19412D01*
X4035Y-19420D01*
X3949Y-19429D01*
X3871Y-19441D01*
X3800Y-19454D01*
X3736Y-19469D01*
X3678Y-19486D01*
X3625Y-19506D01*
X3579Y-19527D01*
X3537Y-19552D01*
X3501Y-19579D01*
X3469Y-19608D01*
X3442Y-19641D01*
X3419Y-19676D01*
X3400Y-19715D01*
X3384Y-19757D01*
X3371Y-19802D01*
X3360Y-19851D01*
X3353Y-19904D01*
X3347Y-19961D01*
X3343Y-20021D01*
X3341Y-20086D01*
X3340Y-20154D01*
X3339Y-20264D01*
X3340Y-20334D01*
X3342Y-20400D01*
X3345Y-20462D01*
X3350Y-20520D01*
X3356Y-20574D01*
X3365Y-20625D01*
X3376Y-20672D01*
X3382Y-20694D01*
X3390Y-20715D01*
X3398Y-20736D01*
X3407Y-20755D01*
X3416Y-20775D01*
X3427Y-20793D01*
X3438Y-20810D01*
X3450Y-20827D01*
X3463Y-20843D01*
X3478Y-20858D01*
X3493Y-20872D01*
X3509Y-20886D01*
X3527Y-20899D01*
X3545Y-20912D01*
X3565Y-20924D01*
X3586Y-20935D01*
X3608Y-20946D01*
X3632Y-20956D01*
X3657Y-20965D01*
X3683Y-20974D01*
X3711Y-20983D01*
X3739Y-20991D01*
X3770Y-20998D01*
X3802Y-21005D01*
X3835Y-21012D01*
X3870Y-21018D01*
X3907Y-21023D01*
X3945Y-21028D01*
X3985Y-21033D01*
X4027Y-21037D01*
X4070Y-21042D01*
X4115Y-21045D01*
X4162Y-21048D01*
X4211Y-21051D01*
X4314Y-21056D01*
X4425Y-21060D01*
X4545Y-21063D01*
X4672Y-21065D01*
X4809Y-21067D01*
X4954Y-21068D01*
X5108Y-21068D01*
X5348Y-21068D01*
X5498Y-21069D01*
X5638Y-21070D01*
X5770Y-21071D01*
X5894Y-21074D01*
X6009Y-21078D01*
X6116Y-21082D01*
X6216Y-21088D01*
X6308Y-21094D01*
X6393Y-21103D01*
X6471Y-21113D01*
X6543Y-21124D01*
X6608Y-21138D01*
X6667Y-21153D01*
X6721Y-21171D01*
X6769Y-21190D01*
X6813Y-21212D01*
X6851Y-21237D01*
X6885Y-21264D01*
X6914Y-21293D01*
X6940Y-21326D01*
X6962Y-21362D01*
X6980Y-21400D01*
X6995Y-21442D01*
X7008Y-21487D01*
X7018Y-21536D01*
X7025Y-21588D01*
X7031Y-21644D01*
X7034Y-21704D01*
X7037Y-21768D01*
X7038Y-21836D01*
X7038Y-21945D01*
X7038Y-22016D01*
X7036Y-22082D01*
X7033Y-22143D01*
X7028Y-22201D01*
X7022Y-22256D01*
X7013Y-22306D01*
X7002Y-22353D01*
X6995Y-22375D01*
X6988Y-22397D01*
X6980Y-22417D01*
X6971Y-22437D01*
X6962Y-22456D01*
X6951Y-22474D01*
X6940Y-22491D01*
X6928Y-22508D01*
X6914Y-22524D01*
X6900Y-22539D01*
X6885Y-22554D01*
X6869Y-22568D01*
X6851Y-22581D01*
X6832Y-22593D01*
X6813Y-22605D01*
X6792Y-22616D01*
X6769Y-22627D01*
X6746Y-22637D01*
X6721Y-22647D01*
X6695Y-22656D01*
X6667Y-22664D01*
X6638Y-22672D01*
X6608Y-22680D01*
X6576Y-22686D01*
X6543Y-22693D01*
X6508Y-22699D01*
X6471Y-22705D01*
X6433Y-22710D01*
X6393Y-22715D01*
X6351Y-22719D01*
X6308Y-22723D01*
X6263Y-22727D01*
X6216Y-22730D01*
X6167Y-22733D01*
X6064Y-22738D01*
X5952Y-22742D01*
X5833Y-22745D01*
X5706Y-22747D01*
X5569Y-22748D01*
X5424Y-22749D01*
X5270Y-22749D01*
X5041Y-22750D01*
X4900Y-22750D01*
X4768Y-22752D01*
X4643Y-22754D01*
X4525Y-22757D01*
X4415Y-22761D01*
X4311Y-22766D01*
X4214Y-22771D01*
X4124Y-22778D01*
X4040Y-22786D01*
X3962Y-22796D01*
X3889Y-22806D01*
X3823Y-22818D01*
X3762Y-22832D01*
X3706Y-22847D01*
X3655Y-22864D01*
X3608Y-22883D01*
X3567Y-22903D01*
X3529Y-22925D01*
X3496Y-22949D01*
X3467Y-22976D01*
X3441Y-23004D01*
X3419Y-23035D01*
X3400Y-23067D01*
X3384Y-23103D01*
X3371Y-23140D01*
X3360Y-23181D01*
X3352Y-23223D01*
X3346Y-23269D01*
X3342Y-23317D01*
X3340Y-23368D01*
X3339Y-23422D01*
X3340Y-23476D01*
X3342Y-23528D01*
X3346Y-23577D01*
X3353Y-23622D01*
X3361Y-23666D01*
X3372Y-23706D01*
X3386Y-23744D01*
X3402Y-23779D01*
X3422Y-23812D01*
X3434Y-23828D01*
X3446Y-23843D01*
X3459Y-23857D01*
X3474Y-23871D01*
X3489Y-23885D01*
X3505Y-23898D01*
X3522Y-23910D01*
X3541Y-23922D01*
X3560Y-23933D01*
X3581Y-23944D01*
X3603Y-23954D01*
X3626Y-23964D01*
X3650Y-23973D01*
X3676Y-23982D01*
X3703Y-23991D01*
X3731Y-23999D01*
X3760Y-24007D01*
X3792Y-24014D01*
X3824Y-24021D01*
X3858Y-24027D01*
X3893Y-24034D01*
X3931Y-24039D01*
X3969Y-24045D01*
X4009Y-24050D01*
X4051Y-24055D01*
X4094Y-24059D01*
X4140Y-24063D01*
X4186Y-24067D01*
X4285Y-24073D01*
X4391Y-24079D01*
X4505Y-24084D01*
X4626Y-24087D01*
X4755Y-24090D01*
X4893Y-24092D01*
X5039Y-24093D01*
X5193Y-24094D01*
X5533Y-24095D01*
X5697Y-24095D01*
X5852Y-24096D01*
X5997Y-24098D01*
X6133Y-24100D01*
X6259Y-24103D01*
X6377Y-24107D01*
X6486Y-24113D01*
X6587Y-24120D01*
X6679Y-24128D01*
X6765Y-24137D01*
X6843Y-24149D01*
X6914Y-24162D01*
X6978Y-24177D01*
X7037Y-24194D01*
X7089Y-24214D01*
X7136Y-24235D01*
X7177Y-24260D01*
X7213Y-24287D01*
X7245Y-24316D01*
X7272Y-24349D01*
X7295Y-24384D01*
X7315Y-24423D01*
X7331Y-24465D01*
X7344Y-24510D01*
X7354Y-24559D01*
X7361Y-24612D01*
X7367Y-24668D01*
X7371Y-24729D01*
X7373Y-24793D01*
X7374Y-24862D01*
X7374Y-25030D01*
X7373Y-25117D01*
X7370Y-25181D01*
X7365Y-25242D01*
X7358Y-25297D01*
X7350Y-25337D01*
X7340Y-25374D01*
X7328Y-25409D01*
X7313Y-25442D01*
X7296Y-25473D01*
X7275Y-25501D01*
X7251Y-25528D01*
X7224Y-25554D01*
X7192Y-25577D01*
X7157Y-25599D01*
X7118Y-25619D01*
X7074Y-25637D01*
X7025Y-25654D01*
X6971Y-25670D01*
X6912Y-25684D01*
X6848Y-25697D01*
X6778Y-25708D01*
X6701Y-25719D01*
X6619Y-25728D01*
X6530Y-25736D01*
X6434Y-25743D01*
X6332Y-25750D01*
X6222Y-25755D01*
X6105Y-25760D01*
X5980Y-25764D01*
X5847Y-25767D01*
X5706Y-25769D01*
X5556Y-25771D01*
X5344Y-25774D01*
X5115Y-25775D01*
X4806Y-25776D01*
X4327Y-25776D01*
X4180Y-25776D01*
X3910Y-25776D01*
X3655Y-25775D01*
X3415Y-25774D01*
X3190Y-25773D01*
X2979Y-25771D01*
X2782Y-25767D01*
X2599Y-25764D01*
X2428Y-25759D01*
X2269Y-25753D01*
X2123Y-25746D01*
X1988Y-25738D01*
X1864Y-25728D01*
X1750Y-25717D01*
X1647Y-25704D01*
X1553Y-25690D01*
X1469Y-25674D01*
X1393Y-25656D01*
X1325Y-25637D01*
X1266Y-25615D01*
X1213Y-25591D01*
X1167Y-25565D01*
X1128Y-25537D01*
X1095Y-25506D01*
X1067Y-25472D01*
X1044Y-25436D01*
X1026Y-25398D01*
X1011Y-25356D01*
X1001Y-25312D01*
X993Y-25264D01*
X989Y-25214D01*
X986Y-25160D01*
X985Y-25052D01*
X983Y-25004D01*
X979Y-24958D01*
X974Y-24914D01*
X967Y-24873D01*
X958Y-24834D01*
X946Y-24797D01*
X933Y-24763D01*
X918Y-24730D01*
X900Y-24700D01*
X879Y-24671D01*
X857Y-24645D01*
X831Y-24621D01*
X802Y-24598D01*
X771Y-24577D01*
X736Y-24558D01*
X698Y-24540D01*
X657Y-24524D01*
X612Y-24509D01*
X564Y-24496D01*
X512Y-24485D01*
X456Y-24474D01*
X397Y-24465D01*
X333Y-24457D01*
X265Y-24451D01*
X193Y-24445D01*
X116Y-24440D01*
X35Y-24437D01*
X-51Y-24434D01*
X-141Y-24432D01*
X-237Y-24431D01*
X-337Y-24431D01*
X-522Y-24433D01*
X-691Y-24438D01*
X-846Y-24448D01*
X-987Y-24462D01*
X-1115Y-24482D01*
X-1231Y-24506D01*
X-1335Y-24536D01*
X-1428Y-24571D01*
X-1511Y-24613D01*
X-1585Y-24661D01*
X-1650Y-24716D01*
X-1708Y-24778D01*
X-1758Y-24847D01*
X-1802Y-24925D01*
X-1840Y-25010D01*
X-1873Y-25103D01*
X-1889Y-25150D01*
X-1905Y-25194D01*
X-1923Y-25236D01*
X-1942Y-25276D01*
X-1963Y-25315D01*
X-1985Y-25352D01*
X-2008Y-25387D01*
X-2033Y-25420D01*
X-2060Y-25452D01*
X-2088Y-25482D01*
X-2118Y-25510D01*
X-2150Y-25537D01*
X-2183Y-25562D01*
X-2219Y-25585D01*
X-2256Y-25607D01*
X-2296Y-25628D01*
X-2337Y-25647D01*
X-2381Y-25664D01*
X-2427Y-25681D01*
X-2475Y-25695D01*
X-2525Y-25709D01*
X-2578Y-25721D01*
X-2633Y-25732D01*
X-2691Y-25741D01*
X-2751Y-25750D01*
X-2814Y-25757D01*
X-2880Y-25763D01*
X-2948Y-25768D01*
X-3019Y-25771D01*
X-3093Y-25774D01*
X-3170Y-25776D01*
X-3249Y-25776D01*
X-4412D01*
X-3870Y-24728D01*
X-3808Y-24609D01*
X-3733Y-24468D01*
X-3646Y-24309D01*
X-3548Y-24132D01*
X-3441Y-23939D01*
X-3325Y-23732D01*
X-3202Y-23513D01*
X-3071Y-23283D01*
X-2936Y-23045D01*
X-2795Y-22799D01*
X-2651Y-22549D01*
X-2504Y-22295D01*
X-2356Y-22039D01*
X-2207Y-21784D01*
X-2059Y-21531D01*
X-1911Y-21281D01*
X-1766Y-21034D01*
X-1622Y-20787D01*
X-1481Y-20543D01*
X-1343Y-20303D01*
X-1210Y-20069D01*
X-1082Y-19841D01*
X-960Y-19623D01*
X-845Y-19414D01*
X-737Y-19217D01*
X-638Y-19033D01*
X-548Y-18864D01*
X-469Y-18711D01*
X-400Y-18576D01*
X-344Y-18461D01*
X-300Y-18366D01*
X-270Y-18294D01*
X-250Y-18247D01*
X-228Y-18203D01*
X-204Y-18161D01*
X-177Y-18122D01*
X-154Y-18093D01*
X-128Y-18067D01*
X-101Y-18041D01*
X-70Y-18017D01*
X-37Y-17993D01*
X-1Y-17971D01*
X38Y-17950D01*
X80Y-17931D01*
X126Y-17912D01*
X176Y-17894D01*
X230Y-17877D01*
X287Y-17861D01*
X349Y-17847D01*
X416Y-17833D01*
X487Y-17820D01*
X562Y-17808D01*
X643Y-17796D01*
X729Y-17786D01*
X820Y-17776D01*
X917Y-17767D01*
X1020Y-17759D01*
X1128Y-17752D01*
X1243Y-17745D01*
X1364Y-17739D01*
X1491Y-17733D01*
X1625Y-17728D01*
X1766Y-17724D01*
X1914Y-17720D01*
X2069Y-17717D01*
X2231Y-17714D01*
X2401Y-17711D01*
X2640Y-17709D01*
X2893Y-17707D01*
X3160Y-17706D01*
X3443Y-17705D01*
X3665Y-17705D01*
X7375D01*
Y-18546D01*
D02*
G37*
G36*
X-14698Y-8338D02*
X-14623Y-8339D01*
X-14548Y-8340D01*
X-14471Y-8343D01*
X-14394Y-8345D01*
X-14317Y-8349D01*
X-14239Y-8353D01*
X-14160Y-8358D01*
X-12634Y-8457D01*
X-12545Y-17621D01*
X-12455Y-26785D01*
X-16165D01*
Y-17761D01*
X-16164Y-16841D01*
X-16160Y-15944D01*
X-16154Y-15075D01*
X-16146Y-14239D01*
X-16136Y-13440D01*
X-16124Y-12684D01*
X-16110Y-11975D01*
X-16095Y-11318D01*
X-16078Y-10717D01*
X-16059Y-10178D01*
X-16040Y-9705D01*
X-16019Y-9303D01*
X-15997Y-8976D01*
X-15974Y-8730D01*
X-15950Y-8569D01*
X-15925Y-8498D01*
X-15911Y-8486D01*
X-15893Y-8474D01*
X-15871Y-8463D01*
X-15846Y-8452D01*
X-15818Y-8441D01*
X-15786Y-8431D01*
X-15750Y-8422D01*
X-15712Y-8413D01*
X-15671Y-8404D01*
X-15627Y-8396D01*
X-15580Y-8388D01*
X-15530Y-8381D01*
X-15478Y-8375D01*
X-15424Y-8368D01*
X-15367Y-8363D01*
X-15308Y-8358D01*
X-15247Y-8353D01*
X-15184Y-8349D01*
X-15119Y-8346D01*
X-15053Y-8343D01*
X-14985Y-8341D01*
X-14915Y-8339D01*
X-14844Y-8338D01*
X-14771Y-8338D01*
X-14698Y-8338D01*
D02*
G37*
%LPC*%
G36*
X13404Y-10307D02*
X13274Y-10307D01*
X13194Y-10308D01*
X13119Y-10310D01*
X13049Y-10313D01*
X12984Y-10318D01*
X12923Y-10325D01*
X12895Y-10329D01*
X12867Y-10334D01*
X12841Y-10340D01*
X12816Y-10346D01*
X12791Y-10353D01*
X12768Y-10361D01*
X12746Y-10369D01*
X12725Y-10378D01*
X12704Y-10389D01*
X12685Y-10400D01*
X12666Y-10412D01*
X12649Y-10425D01*
X12632Y-10439D01*
X12616Y-10454D01*
X12601Y-10471D01*
X12586Y-10488D01*
X12573Y-10507D01*
X12560Y-10527D01*
X12548Y-10549D01*
X12537Y-10571D01*
X12526Y-10595D01*
X12516Y-10621D01*
X12506Y-10648D01*
X12498Y-10676D01*
X12490Y-10706D01*
X12482Y-10738D01*
X12475Y-10771D01*
X12469Y-10806D01*
X12463Y-10842D01*
X12457Y-10881D01*
X12452Y-10921D01*
X12448Y-10962D01*
X12444Y-11006D01*
X12440Y-11052D01*
X12437Y-11099D01*
X12434Y-11149D01*
X12431Y-11200D01*
X12429Y-11254D01*
X12425Y-11367D01*
X12423Y-11490D01*
X12421Y-11621D01*
X12420Y-11762D01*
X12419Y-11912D01*
X12419Y-12156D01*
X12419Y-12321D01*
X12420Y-12475D01*
X12420Y-12620D01*
X12422Y-12755D01*
X12424Y-12881D01*
X12427Y-12999D01*
X12432Y-13108D01*
X12437Y-13208D01*
X12444Y-13301D01*
X12453Y-13387D01*
X12463Y-13465D01*
X12475Y-13536D01*
X12489Y-13601D01*
X12506Y-13660D01*
X12525Y-13712D01*
X12547Y-13759D01*
X12571Y-13801D01*
X12598Y-13838D01*
X12628Y-13870D01*
X12662Y-13898D01*
X12699Y-13921D01*
X12739Y-13941D01*
X12784Y-13958D01*
X12832Y-13971D01*
X12884Y-13982D01*
X12940Y-13990D01*
X13001Y-13996D01*
X13066Y-14001D01*
X13136Y-14004D01*
X13211Y-14005D01*
X13291Y-14006D01*
X13376Y-14006D01*
X13457Y-14005D01*
X13536Y-14000D01*
X13615Y-13993D01*
X13693Y-13983D01*
X13769Y-13971D01*
X13844Y-13956D01*
X13917Y-13938D01*
X13989Y-13918D01*
X14060Y-13895D01*
X14130Y-13870D01*
X14198Y-13843D01*
X14264Y-13814D01*
X14329Y-13782D01*
X14393Y-13748D01*
X14455Y-13713D01*
X14515Y-13675D01*
X14574Y-13636D01*
X14631Y-13594D01*
X14686Y-13551D01*
X14740Y-13506D01*
X14792Y-13460D01*
X14842Y-13412D01*
X14890Y-13362D01*
X14936Y-13311D01*
X14981Y-13259D01*
X15024Y-13205D01*
X15064Y-13150D01*
X15103Y-13094D01*
X15140Y-13037D01*
X15174Y-12979D01*
X15207Y-12920D01*
X15237Y-12859D01*
X15266Y-12798D01*
X15292Y-12737D01*
X15316Y-12674D01*
X15338Y-12611D01*
X15358Y-12547D01*
X15375Y-12483D01*
X15390Y-12418D01*
X15402Y-12353D01*
X15413Y-12287D01*
X15420Y-12221D01*
X15426Y-12155D01*
X15429Y-12089D01*
X15429Y-12023D01*
X15427Y-11957D01*
X15422Y-11891D01*
X15415Y-11824D01*
X15405Y-11759D01*
X15392Y-11693D01*
X15377Y-11627D01*
X15359Y-11562D01*
X15338Y-11498D01*
X15314Y-11434D01*
X15288Y-11370D01*
X15258Y-11308D01*
X15226Y-11245D01*
X15191Y-11184D01*
X15153Y-11123D01*
X15112Y-11064D01*
X15068Y-11005D01*
X15021Y-10947D01*
X14970Y-10891D01*
X14917Y-10835D01*
X14889Y-10808D01*
X14858Y-10781D01*
X14826Y-10755D01*
X14791Y-10729D01*
X14754Y-10704D01*
X14716Y-10679D01*
X14676Y-10654D01*
X14634Y-10630D01*
X14591Y-10607D01*
X14547Y-10584D01*
X14501Y-10562D01*
X14454Y-10540D01*
X14405Y-10520D01*
X14356Y-10500D01*
X14306Y-10480D01*
X14255Y-10462D01*
X14203Y-10445D01*
X14151Y-10428D01*
X14097Y-10412D01*
X14044Y-10397D01*
X13990Y-10384D01*
X13936Y-10371D01*
X13882Y-10359D01*
X13828Y-10349D01*
X13774Y-10339D01*
X13720Y-10331D01*
X13666Y-10323D01*
X13612Y-10318D01*
X13559Y-10313D01*
X13507Y-10310D01*
X13455Y-10307D01*
X13404Y-10307D01*
D02*
G37*
G36*
X6346Y-10305D02*
X6284Y-10306D01*
X6225Y-10311D01*
X6169Y-10320D01*
X6117Y-10333D01*
X6068Y-10351D01*
X6023Y-10372D01*
X5981Y-10398D01*
X5942Y-10428D01*
X5906Y-10463D01*
X5873Y-10501D01*
X5843Y-10544D01*
X5816Y-10592D01*
X5792Y-10644D01*
X5771Y-10700D01*
X5752Y-10761D01*
X5736Y-10826D01*
X5723Y-10896D01*
X5712Y-10971D01*
X5704Y-11050D01*
X5698Y-11134D01*
X5694Y-11222D01*
X5693Y-11316D01*
X5695Y-11434D01*
X5701Y-11545D01*
X5711Y-11649D01*
X5725Y-11746D01*
X5742Y-11836D01*
X5764Y-11919D01*
X5789Y-11995D01*
X5817Y-12063D01*
X5849Y-12123D01*
X5885Y-12176D01*
X5924Y-12221D01*
X5967Y-12258D01*
X6013Y-12287D01*
X6062Y-12308D01*
X6115Y-12320D01*
X6170Y-12325D01*
X6236Y-12324D01*
X6301Y-12321D01*
X6365Y-12316D01*
X6429Y-12309D01*
X6490Y-12301D01*
X6551Y-12290D01*
X6611Y-12279D01*
X6669Y-12265D01*
X6727Y-12250D01*
X6783Y-12233D01*
X6837Y-12215D01*
X6891Y-12196D01*
X6943Y-12175D01*
X6994Y-12152D01*
X7044Y-12129D01*
X7091Y-12104D01*
X7138Y-12078D01*
X7183Y-12051D01*
X7227Y-12023D01*
X7269Y-11994D01*
X7310Y-11964D01*
X7349Y-11933D01*
X7386Y-11902D01*
X7422Y-11869D01*
X7456Y-11836D01*
X7489Y-11802D01*
X7519Y-11767D01*
X7548Y-11732D01*
X7576Y-11696D01*
X7601Y-11660D01*
X7624Y-11623D01*
X7646Y-11586D01*
X7666Y-11549D01*
X7684Y-11511D01*
X7700Y-11473D01*
X7713Y-11435D01*
X7725Y-11397D01*
X7735Y-11359D01*
X7743Y-11320D01*
X7749Y-11282D01*
X7752Y-11244D01*
X7754Y-11206D01*
X7753Y-11168D01*
X7750Y-11130D01*
X7744Y-11093D01*
X7737Y-11056D01*
X7727Y-11020D01*
X7715Y-10984D01*
X7700Y-10948D01*
X7683Y-10913D01*
X7664Y-10879D01*
X7642Y-10845D01*
X7618Y-10812D01*
X7591Y-10780D01*
X7562Y-10748D01*
X7530Y-10718D01*
X7496Y-10688D01*
X7458Y-10660D01*
X7419Y-10632D01*
X7376Y-10605D01*
X7331Y-10580D01*
X7283Y-10556D01*
X7233Y-10533D01*
X7179Y-10511D01*
X7078Y-10473D01*
X6981Y-10439D01*
X6888Y-10409D01*
X6799Y-10382D01*
X6714Y-10360D01*
X6633Y-10341D01*
X6555Y-10326D01*
X6482Y-10315D01*
X6412Y-10308D01*
X6346Y-10305D01*
D02*
G37*
G36*
X-825Y-10388D02*
X-869Y-10390D01*
X-914Y-10393D01*
X-959Y-10397D01*
X-1004Y-10403D01*
X-1049Y-10411D01*
X-1095Y-10420D01*
X-1140Y-10430D01*
X-1185Y-10442D01*
X-1230Y-10455D01*
X-1275Y-10470D01*
X-1320Y-10487D01*
X-1365Y-10505D01*
X-1410Y-10524D01*
X-1455Y-10546D01*
X-1500Y-10568D01*
X-1544Y-10592D01*
X-1588Y-10618D01*
X-1633Y-10645D01*
X-1677Y-10674D01*
X-1721Y-10704D01*
X-1764Y-10736D01*
X-1808Y-10769D01*
X-1851Y-10804D01*
X-1894Y-10840D01*
X-1936Y-10878D01*
X-1979Y-10918D01*
X-2021Y-10959D01*
X-2059Y-10997D01*
X-2096Y-11035D01*
X-2132Y-11073D01*
X-2167Y-11110D01*
X-2201Y-11147D01*
X-2233Y-11184D01*
X-2265Y-11220D01*
X-2295Y-11255D01*
X-2324Y-11290D01*
X-2352Y-11325D01*
X-2378Y-11360D01*
X-2404Y-11394D01*
X-2428Y-11428D01*
X-2452Y-11462D01*
X-2474Y-11495D01*
X-2495Y-11529D01*
X-2515Y-11562D01*
X-2534Y-11595D01*
X-2551Y-11627D01*
X-2568Y-11660D01*
X-2583Y-11692D01*
X-2597Y-11725D01*
X-2610Y-11757D01*
X-2622Y-11789D01*
X-2633Y-11822D01*
X-2643Y-11854D01*
X-2651Y-11886D01*
X-2659Y-11918D01*
X-2665Y-11950D01*
X-2671Y-11983D01*
X-2675Y-12015D01*
X-2678Y-12048D01*
X-2679Y-12080D01*
X-2680Y-12113D01*
X-2680Y-12146D01*
X-2678Y-12179D01*
X-2676Y-12212D01*
X-2672Y-12246D01*
X-2667Y-12279D01*
X-2661Y-12313D01*
X-2654Y-12348D01*
X-2646Y-12382D01*
X-2637Y-12417D01*
X-2626Y-12452D01*
X-2615Y-12488D01*
X-2602Y-12524D01*
X-2589Y-12560D01*
X-2574Y-12597D01*
X-2558Y-12634D01*
X-2541Y-12672D01*
X-2523Y-12710D01*
X-2504Y-12749D01*
X-2484Y-12788D01*
X-2463Y-12828D01*
X-2440Y-12868D01*
X-2417Y-12909D01*
X-2392Y-12950D01*
X-2367Y-12992D01*
X-2340Y-13035D01*
X-2312Y-13078D01*
X-2283Y-13122D01*
X-2253Y-13167D01*
X-2222Y-13212D01*
X-2190Y-13259D01*
X-2156Y-13306D01*
X-2121Y-13352D01*
X-2085Y-13396D01*
X-2049Y-13439D01*
X-2012Y-13480D01*
X-1974Y-13519D01*
X-1935Y-13557D01*
X-1896Y-13593D01*
X-1856Y-13628D01*
X-1815Y-13661D01*
X-1774Y-13692D01*
X-1733Y-13722D01*
X-1691Y-13751D01*
X-1648Y-13777D01*
X-1605Y-13803D01*
X-1561Y-13826D01*
X-1517Y-13848D01*
X-1473Y-13869D01*
X-1429Y-13887D01*
X-1383Y-13905D01*
X-1338Y-13920D01*
X-1292Y-13935D01*
X-1247Y-13947D01*
X-1201Y-13958D01*
X-1154Y-13968D01*
X-1108Y-13975D01*
X-1061Y-13982D01*
X-1014Y-13987D01*
X-967Y-13990D01*
X-920Y-13991D01*
X-873Y-13991D01*
X-826Y-13990D01*
X-779Y-13987D01*
X-732Y-13982D01*
X-685Y-13976D01*
X-638Y-13968D01*
X-592Y-13959D01*
X-545Y-13948D01*
X-498Y-13936D01*
X-452Y-13922D01*
X-406Y-13906D01*
X-360Y-13890D01*
X-314Y-13871D01*
X-269Y-13851D01*
X-224Y-13829D01*
X-179Y-13806D01*
X-135Y-13781D01*
X-91Y-13755D01*
X-48Y-13727D01*
X-5Y-13698D01*
X38Y-13667D01*
X80Y-13635D01*
X122Y-13601D01*
X163Y-13565D01*
X203Y-13528D01*
X243Y-13490D01*
X282Y-13450D01*
X321Y-13408D01*
X359Y-13365D01*
X396Y-13320D01*
X433Y-13274D01*
X468Y-13226D01*
X503Y-13177D01*
X537Y-13126D01*
X584Y-13054D01*
X628Y-12986D01*
X669Y-12920D01*
X707Y-12857D01*
X742Y-12797D01*
X775Y-12739D01*
X804Y-12683D01*
X830Y-12630D01*
X854Y-12578D01*
X874Y-12528D01*
X892Y-12479D01*
X907Y-12431D01*
X919Y-12384D01*
X928Y-12337D01*
X934Y-12292D01*
X938Y-12246D01*
X938Y-12200D01*
X936Y-12154D01*
X931Y-12108D01*
X924Y-12061D01*
X913Y-12013D01*
X900Y-11964D01*
X884Y-11913D01*
X865Y-11861D01*
X844Y-11807D01*
X819Y-11751D01*
X793Y-11693D01*
X763Y-11632D01*
X731Y-11569D01*
X696Y-11503D01*
X658Y-11434D01*
X618Y-11361D01*
X588Y-11309D01*
X557Y-11258D01*
X526Y-11209D01*
X494Y-11161D01*
X462Y-11115D01*
X429Y-11070D01*
X395Y-11026D01*
X360Y-10984D01*
X326Y-10943D01*
X290Y-10904D01*
X254Y-10866D01*
X217Y-10830D01*
X180Y-10795D01*
X142Y-10761D01*
X104Y-10729D01*
X66Y-10698D01*
X27Y-10669D01*
X-13Y-10641D01*
X-53Y-10615D01*
X-93Y-10590D01*
X-134Y-10566D01*
X-175Y-10544D01*
X-216Y-10523D01*
X-258Y-10504D01*
X-300Y-10486D01*
X-343Y-10470D01*
X-385Y-10455D01*
X-428Y-10442D01*
X-471Y-10430D01*
X-515Y-10420D01*
X-559Y-10411D01*
X-603Y-10403D01*
X-647Y-10397D01*
X-691Y-10393D01*
X-735Y-10390D01*
X-780Y-10389D01*
X-825Y-10388D01*
D02*
G37*
G36*
X879Y-20059D02*
X846Y-20085D01*
X792Y-20158D01*
X721Y-20272D01*
X636Y-20421D01*
X539Y-20598D01*
X435Y-20797D01*
X326Y-21011D01*
X215Y-21235D01*
X106Y-21461D01*
X1Y-21684D01*
X-96Y-21897D01*
X-183Y-22094D01*
X-256Y-22268D01*
X-311Y-22414D01*
X-347Y-22524D01*
X-360Y-22593D01*
X-356Y-22609D01*
X-346Y-22624D01*
X-329Y-22639D01*
X-307Y-22654D01*
X-278Y-22667D01*
X-244Y-22680D01*
X-206Y-22692D01*
X-162Y-22703D01*
X-114Y-22714D01*
X-63Y-22723D01*
X-7Y-22730D01*
X52Y-22737D01*
X113Y-22742D01*
X178Y-22746D01*
X244Y-22749D01*
X313Y-22749D01*
X364Y-22749D01*
X413Y-22747D01*
X459Y-22743D01*
X503Y-22738D01*
X544Y-22730D01*
X583Y-22721D01*
X620Y-22710D01*
X654Y-22697D01*
X687Y-22681D01*
X717Y-22663D01*
X746Y-22643D01*
X772Y-22619D01*
X796Y-22593D01*
X819Y-22564D01*
X840Y-22532D01*
X859Y-22497D01*
X877Y-22459D01*
X893Y-22417D01*
X907Y-22372D01*
X920Y-22322D01*
X932Y-22270D01*
X942Y-22213D01*
X951Y-22152D01*
X959Y-22087D01*
X966Y-22018D01*
X971Y-21945D01*
X976Y-21867D01*
X979Y-21784D01*
X982Y-21696D01*
X984Y-21604D01*
X985Y-21507D01*
X985Y-21404D01*
X983Y-21134D01*
X977Y-20882D01*
X967Y-20653D01*
X954Y-20454D01*
X939Y-20290D01*
X921Y-20165D01*
X901Y-20087D01*
X879Y-20059D01*
D02*
G37*
%LPD*%
M02*
