M48
;Layer_Color=9474304
;FILE_FORMAT=4:4
METRIC,LZ
;TYPE=PLATED
T1F00S00C0.2000
T2F00S00C0.4000
T3F00S00C0.5000
T4F00S00C0.8500
T5F00S00C1.0000
%
T01
X-00088919Y-00147255
X00147255Y-00088919
X00088919Y00147255
X-00147255Y00088919
T02
X00408767Y-00008984
X00222Y-00041
X-00032Y-00327106
X-00174Y-00306
X-00251Y-00208
X-0027Y00101
X00043999Y00164207
X-00018Y00269
X00074495Y00422482
T03
X-00132922Y-0037664
X-00122089Y-0037855
X-00093704Y-00384571
X-00082871Y-00386481
X-00080961Y-00375648
X-00091793Y-00373738
X-00052401Y-00380684
X-00054311Y-00391517
X-00043478Y-00393427
X-00041568Y-00382594
X-00013009Y-0038763
X-00014919Y-00398463
X-00004086Y-00400373
X-00002176Y-0038954
X00140775Y-0037483
X00150302Y-0036933
X00244198Y-00313964
X00238698Y-00304438
X00248225Y-00298938
X00253725Y-00308464
X003375Y-00192544
X00347837Y-00196306
X00351599Y-00185969
X00341262Y-00182207
X00352121Y-00155298
X00362457Y-0015906
X00366219Y-00148723
X00355883Y-00144961
X00365801Y-0011771
X00376138Y-00121472
X003799Y-00111136
X00369563Y-00107374
X00379482Y-00080122
X00383244Y-00069786
X00393581Y-00073548
X00389819Y-00083885
X00214084Y-00319804
X00219584Y-0032933
X00210057Y-0033483
X00204557Y-00325304
X00179443Y-00339804
X00184943Y-0034933
X00175416Y-0035483
X00169916Y-00345304
X00144802Y-00359804
X00135275Y-00365304
X-00120179Y-00367718
X-00131012Y-00365807
X-00251292Y-00296364
X-00259719Y-00303434
X-0026679Y-00295008
X-00258363Y-00287937
X-0027777Y-00266364
X-00286196Y-00273435
X-00293267Y-00265009
X-00284841Y-00257938
X-00303482Y-00235723
X-00310552Y-00227296
X-00318979Y-00234367
X-00311908Y-00242793
X-00329193Y-00205081
X-00336264Y-00196655
X-0034469Y-00203725
X-0033762Y-00212152
X-00383Y-000655
X-00394
Y-000545
X-00383
X-00384Y-000255
Y-000145
X-00395Y-000145
Y-000255
Y000145
Y000255
X-00384
Y000145
Y000545
X-00395
Y000655
X-00384
X-0034469Y00203725
X-00336264Y00196654
X-00329193Y00205081
X-0033762Y00212152
X-00318979Y00234367
X-00310552Y00227296
X-00303482Y00235723
X-00311908Y00242794
X-00293267Y00265009
X-00284841Y00257938
X-0027777Y00266365
X-00286196Y00273435
X-0026679Y00295008
X-00259719Y00303434
X-00251292Y00296364
X-00258363Y00287937
X-00131012Y00365807
X-00132922Y0037664
X-00122089Y0037855
X-00120179Y00367718
X-00091793Y00373738
X-00093703Y00384571
X-00082871Y00386481
X-00080961Y00375648
X-00052401Y00380684
X-00041568Y00382594
X-00043478Y00393427
X-00054311Y00391517
X-00013009Y0038763
X-00014919Y00398463
X-00004086Y00400373
X-00002176Y0038954
X00140775Y0037483
X00135275Y00365304
X00144802Y00359804
X00150302Y0036933
X00175416Y0035483
X00184943Y0034933
X00179443Y00339804
X00169916Y00345304
X00210057Y0033483
X00204557Y00325304
X00214084Y00319804
X00219584Y0032933
X00244198Y00313964
X00238699Y00304438
X00248225Y00298938
X00253725Y00308464
X003375Y00192544
X00341262Y00182207
X00351599Y00185969
X00347837Y00196306
X00352121Y00155298
X00362457Y0015906
X00366219Y00148723
X00355883Y00144961
X00365801Y0011771
X00376138Y00121472
X003799Y00111136
X00369563Y00107374
X00379482Y00080122
X00389819Y00083885
X00393581Y00073548
X00383244Y00069786
T04
X-002805Y-000945
Y-000595
T05
X-00128Y00023
M30
