M48
;Layer_Color=9474304
;FILE_FORMAT=4:4
METRIC,LZ
;TYPE=PLATED
T1F00S00C0.2000
T2F00S00C0.4000
T3F00S00C0.6000
T4F00S00C0.8500
T5F00S00C1.0200
;TYPE=NON_PLATED
T7F00S00C2.5000
T8F00S00C8.0000
%
T01
X002233Y-00139057
X-00225022Y-0013724
X-0013724Y00225022
X00139898Y00223884
T02
X-00004Y-00371
X00235Y-00287
X00312Y-00177
X00324Y-00181
X00353Y-00065
X00365Y-00069
X00229Y-00277
X00124Y-00337
X0013Y-00347
X-00002Y-00359
X-00123Y-00349
X-00121Y-00337
X-00231Y-00274
X-00241Y-00282
X-0031Y-00181
X-00321Y-00188
X-00355Y-00061
X-00367
Y00061
X-00353
X-00321Y00189
X-00312Y00182
X-00243Y00282
X-00234Y00275
X-00121Y00339
X-00124Y00351
X-00001Y00362
X-00003Y00373
X0013Y00348
X00124Y00337
X00236Y00288
X0023Y00278
X00311Y00178
X00323Y00183
X00354Y00065
X00365Y00069
T03
X-00087Y-00375
X-00047Y-00383
X00235971Y-00253048
X00355Y-0015
X00369Y-00112
X00343Y-00044
X0021Y-00323
X00175Y-00343
X00023857Y-00341166
X-00308Y-00231
X-00384472Y-00020149
Y00020149
X-00211Y000275
X-00208Y00076
X-00311852Y00158896
X-00307474Y00231698
X-00281571Y00262569
X-00121Y00317
X-00086606Y00375132
X-0004692Y0038213
X0010525Y0032375
X00175Y00343
X0021Y00323
X002845Y00178
X00354Y00152
X00369Y00114
T04
X-00255Y-00096
Y-00061
T05
X00082Y-000254
X00082Y0
Y000254
T07
X-0015Y0
X0004Y-00145
Y00145
T08
X-0004Y-00145
X0015Y0
X-0004Y00145
M30
