G04*
G04 #@! TF.GenerationSoftware,Altium Limited,Altium Designer,21.7.2 (23)*
G04*
G04 Layer_Color=16711935*
%FSLAX44Y44*%
%MOMM*%
G71*
G04*
G04 #@! TF.SameCoordinates,A18D3496-1026-4BA7-8AEB-D4DB3583FBB1*
G04*
G04*
G04 #@! TF.FilePolarity,Positive*
G04*
G01*
G75*
%ADD27C,0.1000*%
D27*
X-0Y961000D02*
X0Y0D01*
Y961000D02*
X900000D01*
X0Y0D02*
X900000D01*
Y961000D01*
X0Y16000D02*
Y944000D01*
Y16000D02*
X38500D01*
X0Y944000D02*
X38500D01*
Y0D02*
X111500D01*
X150000Y16000D02*
Y944000D01*
X111500Y16000D02*
X150000D01*
X111500Y0D02*
Y16000D01*
X38500Y0D02*
Y16000D01*
Y944000D02*
Y960000D01*
X111500D01*
Y944000D02*
Y960000D01*
Y944000D02*
X150000D01*
Y16000D02*
Y944000D01*
Y16000D02*
X188500D01*
X150000Y944000D02*
X188500D01*
Y0D02*
X261500D01*
X300000Y16000D02*
Y944000D01*
X261500Y16000D02*
X300000D01*
X261500Y0D02*
Y16000D01*
X188500Y0D02*
Y16000D01*
Y944000D02*
Y960000D01*
X261500D01*
Y944000D02*
Y960000D01*
Y944000D02*
X300000D01*
Y16000D02*
Y944000D01*
Y16000D02*
X338500D01*
X300000Y944000D02*
X338500D01*
Y0D02*
X411500D01*
X450000Y16000D02*
Y944000D01*
X411500Y16000D02*
X450000D01*
X411500Y0D02*
Y16000D01*
X338500Y0D02*
Y16000D01*
Y944000D02*
Y960000D01*
X411500D01*
Y944000D02*
Y960000D01*
Y944000D02*
X450000D01*
Y16000D02*
Y944000D01*
Y16000D02*
X488500D01*
X450000Y944000D02*
X488500D01*
Y0D02*
X561500D01*
X600000Y16000D02*
Y944000D01*
X561500Y16000D02*
X600000D01*
X561500Y0D02*
Y16000D01*
X488500Y0D02*
Y16000D01*
Y944000D02*
Y960000D01*
X561500D01*
Y944000D02*
Y960000D01*
Y944000D02*
X600000D01*
Y16000D02*
Y944000D01*
Y16000D02*
X638500D01*
X600000Y944000D02*
X638500D01*
Y0D02*
X711500D01*
X750000Y16000D02*
Y944000D01*
X711500Y16000D02*
X750000D01*
X711500Y0D02*
Y16000D01*
X638500Y0D02*
Y16000D01*
Y944000D02*
Y960000D01*
X711500D01*
Y944000D02*
Y960000D01*
Y944000D02*
X750000D01*
Y16000D02*
Y944000D01*
Y16000D02*
X788500D01*
X750000Y944000D02*
X788500D01*
Y0D02*
X861500D01*
X900000Y16000D02*
Y944000D01*
X861500Y16000D02*
X900000D01*
X861500Y0D02*
Y16000D01*
X788500Y0D02*
Y16000D01*
Y944000D02*
Y960000D01*
X861500D01*
Y944000D02*
Y960000D01*
Y944000D02*
X900000D01*
M02*
