G04*
G04 #@! TF.GenerationSoftware,Altium Limited,Altium Designer,21.7.2 (23)*
G04*
G04 Layer_Color=8388736*
%FSLAX44Y44*%
%MOMM*%
G71*
G04*
G04 #@! TF.SameCoordinates,4EA3E7D4-8FC9-4B51-A035-DBAEA2916729*
G04*
G04*
G04 #@! TF.FilePolarity,Negative*
G04*
G01*
G75*
%ADD23R,2.7032X4.2032*%
%ADD24C,2.7032*%
%ADD25C,1.2032*%
%ADD26R,1.6532X1.4532*%
%ADD27R,1.7032X1.1032*%
%ADD28C,1.1032*%
%ADD29C,1.0032*%
G36*
X1435133Y961010D02*
X1435264Y960984D01*
X1435390Y960941D01*
X1435509Y960882D01*
X1435620Y960808D01*
X1435720Y960720D01*
X1435808Y960620D01*
X1435882Y960509D01*
X1435941Y960390D01*
X1435983Y960264D01*
X1436010Y960133D01*
X1436018Y960000D01*
Y920000D01*
Y918354D01*
D01*
Y918354D01*
X1436010Y918222D01*
X1435983Y918091D01*
X1435132Y914912D01*
X1435089Y914786D01*
X1435030Y914666D01*
X1433384Y911816D01*
X1433384Y911816D01*
X1433310Y911705D01*
X1433222Y911605D01*
X1430895Y909278D01*
X1430895Y909278D01*
X1430795Y909190D01*
X1430684Y909116D01*
X1427834Y907470D01*
X1427834Y907470D01*
X1427714Y907411D01*
X1427588Y907368D01*
X1424409Y906517D01*
X1424279Y906491D01*
X1424146Y906482D01*
X1420854D01*
X1420721Y906491D01*
X1420591Y906517D01*
X1417412Y907368D01*
X1417285Y907411D01*
X1417166Y907470D01*
X1414316Y909116D01*
X1414316Y909116D01*
X1414205Y909190D01*
X1414105Y909278D01*
X1411778Y911605D01*
X1411777Y911605D01*
X1411690Y911705D01*
X1411616Y911816D01*
X1409970Y914666D01*
X1409970Y914666D01*
X1409911Y914786D01*
X1409868Y914912D01*
X1409017Y918091D01*
X1408990Y918222D01*
X1408982Y918354D01*
Y920000D01*
Y960000D01*
X1408990Y960133D01*
X1409017Y960264D01*
X1409059Y960390D01*
X1409118Y960509D01*
X1409192Y960620D01*
X1409280Y960720D01*
X1409380Y960808D01*
X1409491Y960882D01*
X1409610Y960941D01*
X1409736Y960984D01*
X1409867Y961010D01*
X1410000Y961018D01*
X1435000D01*
X1435133Y961010D01*
D02*
G37*
G36*
X1395133D02*
X1395264Y960984D01*
X1395390Y960941D01*
X1395509Y960882D01*
X1395620Y960808D01*
X1395720Y960720D01*
X1395808Y960620D01*
X1395882Y960509D01*
X1395941Y960390D01*
X1395983Y960264D01*
X1396010Y960133D01*
X1396018Y960000D01*
Y920000D01*
Y918354D01*
D01*
Y918354D01*
X1396010Y918222D01*
X1395983Y918091D01*
X1395132Y914912D01*
X1395089Y914786D01*
X1395030Y914666D01*
X1393384Y911816D01*
X1393384Y911816D01*
X1393310Y911705D01*
X1393222Y911605D01*
X1390895Y909278D01*
X1390895Y909278D01*
X1390795Y909190D01*
X1390684Y909116D01*
X1387834Y907470D01*
X1387834Y907470D01*
X1387714Y907411D01*
X1387588Y907368D01*
X1384409Y906517D01*
X1384279Y906491D01*
X1384146Y906482D01*
X1380854D01*
X1380721Y906491D01*
X1380591Y906517D01*
X1377412Y907368D01*
X1377285Y907411D01*
X1377166Y907470D01*
X1374316Y909116D01*
X1374316Y909116D01*
X1374205Y909190D01*
X1374105Y909278D01*
X1371778Y911605D01*
X1371777Y911605D01*
X1371690Y911705D01*
X1371616Y911816D01*
X1369970Y914666D01*
X1369970Y914666D01*
X1369911Y914786D01*
X1369868Y914912D01*
X1369017Y918091D01*
X1368990Y918222D01*
X1368982Y918354D01*
Y920000D01*
Y960000D01*
X1368990Y960133D01*
X1369017Y960264D01*
X1369059Y960390D01*
X1369118Y960509D01*
X1369192Y960620D01*
X1369280Y960720D01*
X1369380Y960808D01*
X1369491Y960882D01*
X1369610Y960941D01*
X1369736Y960984D01*
X1369867Y961010D01*
X1370000Y961018D01*
X1395000D01*
X1395133Y961010D01*
D02*
G37*
G36*
X1355133D02*
X1355264Y960984D01*
X1355390Y960941D01*
X1355509Y960882D01*
X1355620Y960808D01*
X1355720Y960720D01*
X1355808Y960620D01*
X1355882Y960509D01*
X1355941Y960390D01*
X1355983Y960264D01*
X1356010Y960133D01*
X1356018Y960000D01*
Y920000D01*
Y918354D01*
D01*
Y918354D01*
X1356010Y918222D01*
X1355983Y918091D01*
X1355132Y914912D01*
X1355089Y914786D01*
X1355030Y914666D01*
X1353384Y911816D01*
X1353384Y911816D01*
X1353310Y911705D01*
X1353222Y911605D01*
X1350895Y909278D01*
X1350895Y909278D01*
X1350795Y909190D01*
X1350684Y909116D01*
X1347834Y907470D01*
X1347834Y907470D01*
X1347714Y907411D01*
X1347588Y907368D01*
X1344409Y906517D01*
X1344279Y906491D01*
X1344146Y906482D01*
X1340854D01*
X1340721Y906491D01*
X1340591Y906517D01*
X1337412Y907368D01*
X1337285Y907411D01*
X1337166Y907470D01*
X1334316Y909116D01*
X1334316Y909116D01*
X1334205Y909190D01*
X1334105Y909278D01*
X1331778Y911605D01*
X1331777Y911605D01*
X1331690Y911705D01*
X1331616Y911816D01*
X1329970Y914666D01*
X1329970Y914666D01*
X1329911Y914786D01*
X1329868Y914912D01*
X1329017Y918091D01*
X1328990Y918222D01*
X1328982Y918354D01*
Y920000D01*
Y960000D01*
X1328990Y960133D01*
X1329017Y960264D01*
X1329059Y960390D01*
X1329118Y960509D01*
X1329192Y960620D01*
X1329280Y960720D01*
X1329380Y960808D01*
X1329491Y960882D01*
X1329610Y960941D01*
X1329736Y960984D01*
X1329867Y961010D01*
X1330000Y961018D01*
X1355000D01*
X1355133Y961010D01*
D02*
G37*
G36*
X1270133D02*
X1270264Y960984D01*
X1270390Y960941D01*
X1270509Y960882D01*
X1270620Y960808D01*
X1270720Y960720D01*
X1270808Y960620D01*
X1270882Y960509D01*
X1270941Y960390D01*
X1270984Y960264D01*
X1271010Y960133D01*
X1271018Y960000D01*
Y920000D01*
Y918354D01*
D01*
Y918354D01*
X1271010Y918222D01*
X1270984Y918091D01*
X1270132Y914912D01*
X1270089Y914786D01*
X1270030Y914666D01*
X1268384Y911816D01*
X1268384Y911816D01*
X1268310Y911705D01*
X1268222Y911605D01*
X1265895Y909278D01*
X1265895Y909278D01*
X1265795Y909190D01*
X1265684Y909116D01*
X1262834Y907470D01*
X1262834Y907470D01*
X1262714Y907411D01*
X1262588Y907368D01*
X1259409Y906517D01*
X1259278Y906491D01*
X1259146Y906482D01*
X1255854D01*
X1255721Y906491D01*
X1255591Y906517D01*
X1252412Y907368D01*
X1252286Y907411D01*
X1252166Y907470D01*
X1249316Y909116D01*
X1249316Y909116D01*
X1249205Y909190D01*
X1249105Y909278D01*
X1246778Y911605D01*
X1246777Y911605D01*
X1246690Y911705D01*
X1246616Y911816D01*
X1244970Y914666D01*
X1244970Y914666D01*
X1244911Y914786D01*
X1244868Y914912D01*
X1244016Y918091D01*
X1243990Y918222D01*
X1243982Y918354D01*
Y920000D01*
Y960000D01*
X1243990Y960133D01*
X1244016Y960264D01*
X1244059Y960390D01*
X1244118Y960509D01*
X1244192Y960620D01*
X1244280Y960720D01*
X1244380Y960808D01*
X1244491Y960882D01*
X1244610Y960941D01*
X1244736Y960984D01*
X1244867Y961010D01*
X1245000Y961018D01*
X1270000D01*
X1270133Y961010D01*
D02*
G37*
G36*
X1230133D02*
X1230264Y960984D01*
X1230390Y960941D01*
X1230509Y960882D01*
X1230620Y960808D01*
X1230720Y960720D01*
X1230808Y960620D01*
X1230882Y960509D01*
X1230941Y960390D01*
X1230984Y960264D01*
X1231010Y960133D01*
X1231018Y960000D01*
Y920000D01*
Y918354D01*
D01*
Y918354D01*
X1231010Y918222D01*
X1230984Y918091D01*
X1230132Y914912D01*
X1230089Y914786D01*
X1230030Y914666D01*
X1228384Y911816D01*
X1228384Y911816D01*
X1228310Y911705D01*
X1228222Y911605D01*
X1225895Y909278D01*
X1225895Y909278D01*
X1225795Y909190D01*
X1225684Y909116D01*
X1222834Y907470D01*
X1222834Y907470D01*
X1222714Y907411D01*
X1222588Y907368D01*
X1219409Y906517D01*
X1219278Y906491D01*
X1219146Y906482D01*
X1215854D01*
X1215721Y906491D01*
X1215591Y906517D01*
X1212412Y907368D01*
X1212286Y907411D01*
X1212166Y907470D01*
X1209316Y909116D01*
X1209316Y909116D01*
X1209205Y909190D01*
X1209105Y909278D01*
X1206778Y911605D01*
X1206777Y911605D01*
X1206690Y911705D01*
X1206616Y911816D01*
X1204970Y914666D01*
X1204970Y914666D01*
X1204911Y914786D01*
X1204868Y914912D01*
X1204016Y918091D01*
X1203990Y918222D01*
X1203982Y918354D01*
Y920000D01*
Y960000D01*
X1203990Y960133D01*
X1204016Y960264D01*
X1204059Y960390D01*
X1204118Y960509D01*
X1204192Y960620D01*
X1204280Y960720D01*
X1204380Y960808D01*
X1204491Y960882D01*
X1204610Y960941D01*
X1204736Y960984D01*
X1204867Y961010D01*
X1205000Y961018D01*
X1230000D01*
X1230133Y961010D01*
D02*
G37*
G36*
X1190133D02*
X1190264Y960984D01*
X1190390Y960941D01*
X1190509Y960882D01*
X1190620Y960808D01*
X1190720Y960720D01*
X1190808Y960620D01*
X1190882Y960509D01*
X1190941Y960390D01*
X1190984Y960264D01*
X1191010Y960133D01*
X1191018Y960000D01*
Y920000D01*
Y918354D01*
D01*
Y918354D01*
X1191010Y918222D01*
X1190984Y918091D01*
X1190132Y914912D01*
X1190089Y914786D01*
X1190030Y914666D01*
X1188384Y911816D01*
X1188384Y911816D01*
X1188310Y911705D01*
X1188222Y911605D01*
X1185895Y909278D01*
X1185895Y909278D01*
X1185795Y909190D01*
X1185684Y909116D01*
X1182834Y907470D01*
X1182834Y907470D01*
X1182714Y907411D01*
X1182588Y907368D01*
X1179409Y906517D01*
X1179278Y906491D01*
X1179146Y906482D01*
X1175854D01*
X1175721Y906491D01*
X1175591Y906517D01*
X1172412Y907368D01*
X1172286Y907411D01*
X1172166Y907470D01*
X1169316Y909116D01*
X1169316Y909116D01*
X1169205Y909190D01*
X1169105Y909278D01*
X1166778Y911605D01*
X1166777Y911605D01*
X1166690Y911705D01*
X1166616Y911816D01*
X1164970Y914666D01*
X1164970Y914666D01*
X1164911Y914786D01*
X1164868Y914912D01*
X1164016Y918091D01*
X1163990Y918222D01*
X1163982Y918354D01*
Y920000D01*
Y960000D01*
X1163990Y960133D01*
X1164016Y960264D01*
X1164059Y960390D01*
X1164118Y960509D01*
X1164192Y960620D01*
X1164280Y960720D01*
X1164380Y960808D01*
X1164491Y960882D01*
X1164610Y960941D01*
X1164736Y960984D01*
X1164867Y961010D01*
X1165000Y961018D01*
X1190000D01*
X1190133Y961010D01*
D02*
G37*
G36*
X1105133D02*
X1105264Y960984D01*
X1105390Y960941D01*
X1105509Y960882D01*
X1105620Y960808D01*
X1105720Y960720D01*
X1105808Y960620D01*
X1105882Y960509D01*
X1105941Y960390D01*
X1105984Y960264D01*
X1106010Y960133D01*
X1106018Y960000D01*
Y920000D01*
Y918354D01*
D01*
Y918354D01*
X1106010Y918222D01*
X1105984Y918091D01*
X1105132Y914912D01*
X1105089Y914786D01*
X1105030Y914666D01*
X1103384Y911816D01*
X1103384Y911816D01*
X1103310Y911705D01*
X1103222Y911605D01*
X1100895Y909278D01*
X1100895Y909278D01*
X1100795Y909190D01*
X1100684Y909116D01*
X1097834Y907470D01*
X1097834Y907470D01*
X1097714Y907411D01*
X1097588Y907368D01*
X1094409Y906517D01*
X1094278Y906491D01*
X1094146Y906482D01*
X1090854D01*
X1090721Y906491D01*
X1090591Y906517D01*
X1087412Y907368D01*
X1087286Y907411D01*
X1087166Y907470D01*
X1084316Y909116D01*
X1084316Y909116D01*
X1084205Y909190D01*
X1084105Y909278D01*
X1081778Y911605D01*
X1081777Y911605D01*
X1081690Y911705D01*
X1081616Y911816D01*
X1079970Y914666D01*
X1079970Y914666D01*
X1079911Y914786D01*
X1079868Y914912D01*
X1079016Y918091D01*
X1078990Y918222D01*
X1078982Y918354D01*
Y920000D01*
Y960000D01*
X1078990Y960133D01*
X1079016Y960264D01*
X1079059Y960390D01*
X1079118Y960509D01*
X1079192Y960620D01*
X1079280Y960720D01*
X1079380Y960808D01*
X1079491Y960882D01*
X1079610Y960941D01*
X1079736Y960984D01*
X1079867Y961010D01*
X1080000Y961018D01*
X1105000D01*
X1105133Y961010D01*
D02*
G37*
G36*
X1065133D02*
X1065264Y960984D01*
X1065390Y960941D01*
X1065509Y960882D01*
X1065620Y960808D01*
X1065720Y960720D01*
X1065808Y960620D01*
X1065882Y960509D01*
X1065941Y960390D01*
X1065984Y960264D01*
X1066010Y960133D01*
X1066018Y960000D01*
Y920000D01*
Y918354D01*
D01*
Y918354D01*
X1066010Y918222D01*
X1065984Y918091D01*
X1065132Y914912D01*
X1065089Y914786D01*
X1065030Y914666D01*
X1063384Y911816D01*
X1063384Y911816D01*
X1063310Y911705D01*
X1063222Y911605D01*
X1060895Y909278D01*
X1060895Y909278D01*
X1060795Y909190D01*
X1060684Y909116D01*
X1057834Y907470D01*
X1057834Y907470D01*
X1057714Y907411D01*
X1057588Y907368D01*
X1054409Y906517D01*
X1054278Y906491D01*
X1054146Y906482D01*
X1050854D01*
X1050721Y906491D01*
X1050591Y906517D01*
X1047412Y907368D01*
X1047286Y907411D01*
X1047166Y907470D01*
X1044316Y909116D01*
X1044316Y909116D01*
X1044205Y909190D01*
X1044105Y909278D01*
X1041778Y911605D01*
X1041777Y911605D01*
X1041690Y911705D01*
X1041616Y911816D01*
X1039970Y914666D01*
X1039970Y914666D01*
X1039911Y914786D01*
X1039868Y914912D01*
X1039016Y918091D01*
X1038990Y918222D01*
X1038982Y918354D01*
Y920000D01*
Y960000D01*
X1038990Y960133D01*
X1039016Y960264D01*
X1039059Y960390D01*
X1039118Y960509D01*
X1039192Y960620D01*
X1039280Y960720D01*
X1039380Y960808D01*
X1039491Y960882D01*
X1039610Y960941D01*
X1039736Y960984D01*
X1039867Y961010D01*
X1040000Y961018D01*
X1065000D01*
X1065133Y961010D01*
D02*
G37*
G36*
X1025133D02*
X1025264Y960984D01*
X1025390Y960941D01*
X1025509Y960882D01*
X1025620Y960808D01*
X1025720Y960720D01*
X1025808Y960620D01*
X1025882Y960509D01*
X1025941Y960390D01*
X1025984Y960264D01*
X1026010Y960133D01*
X1026018Y960000D01*
Y920000D01*
Y918354D01*
D01*
Y918354D01*
X1026010Y918222D01*
X1025984Y918091D01*
X1025132Y914912D01*
X1025089Y914786D01*
X1025030Y914666D01*
X1023384Y911816D01*
X1023384Y911816D01*
X1023310Y911705D01*
X1023222Y911605D01*
X1020895Y909278D01*
X1020895Y909278D01*
X1020795Y909190D01*
X1020684Y909116D01*
X1017834Y907470D01*
X1017834Y907470D01*
X1017714Y907411D01*
X1017588Y907368D01*
X1014409Y906517D01*
X1014278Y906491D01*
X1014146Y906482D01*
X1010854D01*
X1010721Y906491D01*
X1010591Y906517D01*
X1007412Y907368D01*
X1007286Y907411D01*
X1007166Y907470D01*
X1004316Y909116D01*
X1004316Y909116D01*
X1004205Y909190D01*
X1004105Y909278D01*
X1001778Y911605D01*
X1001777Y911605D01*
X1001690Y911705D01*
X1001616Y911816D01*
X999970Y914666D01*
X999970Y914666D01*
X999911Y914786D01*
X999868Y914912D01*
X999016Y918091D01*
X998990Y918222D01*
X998982Y918354D01*
Y920000D01*
Y960000D01*
X998990Y960133D01*
X999016Y960264D01*
X999059Y960390D01*
X999118Y960509D01*
X999192Y960620D01*
X999280Y960720D01*
X999380Y960808D01*
X999491Y960882D01*
X999610Y960941D01*
X999736Y960984D01*
X999867Y961010D01*
X1000000Y961018D01*
X1025000D01*
X1025133Y961010D01*
D02*
G37*
G36*
X940133D02*
X940264Y960984D01*
X940390Y960941D01*
X940509Y960882D01*
X940620Y960808D01*
X940720Y960720D01*
X940808Y960620D01*
X940882Y960509D01*
X940941Y960390D01*
X940984Y960264D01*
X941010Y960133D01*
X941018Y960000D01*
Y920000D01*
Y918354D01*
D01*
Y918354D01*
X941010Y918222D01*
X940984Y918091D01*
X940132Y914912D01*
X940089Y914786D01*
X940030Y914666D01*
X938384Y911816D01*
X938384Y911816D01*
X938310Y911705D01*
X938222Y911605D01*
X935895Y909278D01*
X935895Y909278D01*
X935795Y909190D01*
X935684Y909116D01*
X932834Y907470D01*
X932834Y907470D01*
X932714Y907411D01*
X932588Y907368D01*
X929409Y906517D01*
X929278Y906491D01*
X929146Y906482D01*
X925854D01*
X925721Y906491D01*
X925591Y906517D01*
X922412Y907368D01*
X922286Y907411D01*
X922166Y907470D01*
X919316Y909116D01*
X919316Y909116D01*
X919205Y909190D01*
X919105Y909278D01*
X916778Y911605D01*
X916777Y911605D01*
X916690Y911705D01*
X916616Y911816D01*
X914970Y914666D01*
X914970Y914666D01*
X914911Y914786D01*
X914868Y914912D01*
X914016Y918091D01*
X913990Y918222D01*
X913982Y918354D01*
Y920000D01*
Y960000D01*
X913990Y960133D01*
X914016Y960264D01*
X914059Y960390D01*
X914118Y960509D01*
X914192Y960620D01*
X914280Y960720D01*
X914380Y960808D01*
X914491Y960882D01*
X914610Y960941D01*
X914736Y960984D01*
X914867Y961010D01*
X915000Y961018D01*
X940000D01*
X940133Y961010D01*
D02*
G37*
G36*
X900133D02*
X900264Y960984D01*
X900390Y960941D01*
X900509Y960882D01*
X900620Y960808D01*
X900720Y960720D01*
X900808Y960620D01*
X900882Y960509D01*
X900941Y960390D01*
X900984Y960264D01*
X901010Y960133D01*
X901018Y960000D01*
Y920000D01*
Y918354D01*
D01*
Y918354D01*
X901010Y918222D01*
X900984Y918091D01*
X900132Y914912D01*
X900089Y914786D01*
X900030Y914666D01*
X898384Y911816D01*
X898384Y911816D01*
X898310Y911705D01*
X898222Y911605D01*
X895895Y909278D01*
X895895Y909278D01*
X895795Y909190D01*
X895684Y909116D01*
X892834Y907470D01*
X892834Y907470D01*
X892714Y907411D01*
X892588Y907368D01*
X889409Y906517D01*
X889278Y906491D01*
X889146Y906482D01*
X885854D01*
X885721Y906491D01*
X885591Y906517D01*
X882412Y907368D01*
X882286Y907411D01*
X882166Y907470D01*
X879316Y909116D01*
X879316Y909116D01*
X879205Y909190D01*
X879105Y909278D01*
X876778Y911605D01*
X876777Y911605D01*
X876690Y911705D01*
X876616Y911816D01*
X874970Y914666D01*
X874970Y914666D01*
X874911Y914786D01*
X874868Y914912D01*
X874016Y918091D01*
X873990Y918222D01*
X873982Y918354D01*
Y920000D01*
Y960000D01*
X873990Y960133D01*
X874016Y960264D01*
X874059Y960390D01*
X874118Y960509D01*
X874192Y960620D01*
X874280Y960720D01*
X874380Y960808D01*
X874491Y960882D01*
X874610Y960941D01*
X874736Y960984D01*
X874867Y961010D01*
X875000Y961018D01*
X900000D01*
X900133Y961010D01*
D02*
G37*
G36*
X860133D02*
X860264Y960984D01*
X860390Y960941D01*
X860509Y960882D01*
X860620Y960808D01*
X860720Y960720D01*
X860808Y960620D01*
X860882Y960509D01*
X860941Y960390D01*
X860984Y960264D01*
X861010Y960133D01*
X861018Y960000D01*
Y920000D01*
Y918354D01*
D01*
Y918354D01*
X861010Y918222D01*
X860984Y918091D01*
X860132Y914912D01*
X860089Y914786D01*
X860030Y914666D01*
X858384Y911816D01*
X858384Y911816D01*
X858310Y911705D01*
X858222Y911605D01*
X855895Y909278D01*
X855895Y909278D01*
X855795Y909190D01*
X855684Y909116D01*
X852834Y907470D01*
X852834Y907470D01*
X852714Y907411D01*
X852588Y907368D01*
X849409Y906517D01*
X849278Y906491D01*
X849146Y906482D01*
X845854D01*
X845721Y906491D01*
X845591Y906517D01*
X842412Y907368D01*
X842286Y907411D01*
X842166Y907470D01*
X839316Y909116D01*
X839316Y909116D01*
X839205Y909190D01*
X839105Y909278D01*
X836778Y911605D01*
X836777Y911605D01*
X836690Y911705D01*
X836616Y911816D01*
X834970Y914666D01*
X834970Y914666D01*
X834911Y914786D01*
X834868Y914912D01*
X834016Y918091D01*
X833990Y918222D01*
X833982Y918354D01*
Y920000D01*
Y960000D01*
X833990Y960133D01*
X834016Y960264D01*
X834059Y960390D01*
X834118Y960509D01*
X834192Y960620D01*
X834280Y960720D01*
X834380Y960808D01*
X834491Y960882D01*
X834610Y960941D01*
X834736Y960984D01*
X834867Y961010D01*
X835000Y961018D01*
X860000D01*
X860133Y961010D01*
D02*
G37*
G36*
X775133D02*
X775264Y960984D01*
X775390Y960941D01*
X775509Y960882D01*
X775620Y960808D01*
X775720Y960720D01*
X775808Y960620D01*
X775882Y960509D01*
X775941Y960390D01*
X775984Y960264D01*
X776010Y960133D01*
X776018Y960000D01*
Y920000D01*
Y918354D01*
D01*
Y918354D01*
X776010Y918222D01*
X775984Y918091D01*
X775132Y914912D01*
X775089Y914786D01*
X775030Y914666D01*
X773384Y911816D01*
X773384Y911816D01*
X773310Y911705D01*
X773222Y911605D01*
X770895Y909278D01*
X770895Y909278D01*
X770795Y909190D01*
X770684Y909116D01*
X767834Y907470D01*
X767834Y907470D01*
X767714Y907411D01*
X767588Y907368D01*
X764409Y906517D01*
X764278Y906491D01*
X764146Y906482D01*
X760854D01*
X760721Y906491D01*
X760591Y906517D01*
X757412Y907368D01*
X757286Y907411D01*
X757166Y907470D01*
X754316Y909116D01*
X754316Y909116D01*
X754205Y909190D01*
X754105Y909278D01*
X751778Y911605D01*
X751777Y911605D01*
X751690Y911705D01*
X751616Y911816D01*
X749970Y914666D01*
X749970Y914666D01*
X749911Y914786D01*
X749868Y914912D01*
X749016Y918091D01*
X748990Y918222D01*
X748982Y918354D01*
Y920000D01*
Y960000D01*
X748990Y960133D01*
X749016Y960264D01*
X749059Y960390D01*
X749118Y960509D01*
X749192Y960620D01*
X749280Y960720D01*
X749380Y960808D01*
X749491Y960882D01*
X749610Y960941D01*
X749736Y960984D01*
X749867Y961010D01*
X750000Y961018D01*
X775000D01*
X775133Y961010D01*
D02*
G37*
G36*
X735133D02*
X735264Y960984D01*
X735390Y960941D01*
X735509Y960882D01*
X735620Y960808D01*
X735720Y960720D01*
X735808Y960620D01*
X735882Y960509D01*
X735941Y960390D01*
X735984Y960264D01*
X736010Y960133D01*
X736018Y960000D01*
Y920000D01*
Y918354D01*
D01*
Y918354D01*
X736010Y918222D01*
X735984Y918091D01*
X735132Y914912D01*
X735089Y914786D01*
X735030Y914666D01*
X733384Y911816D01*
X733384Y911816D01*
X733310Y911705D01*
X733222Y911605D01*
X730895Y909278D01*
X730895Y909278D01*
X730795Y909190D01*
X730684Y909116D01*
X727834Y907470D01*
X727834Y907470D01*
X727714Y907411D01*
X727588Y907368D01*
X724409Y906517D01*
X724278Y906491D01*
X724146Y906482D01*
X720854D01*
X720721Y906491D01*
X720591Y906517D01*
X717412Y907368D01*
X717286Y907411D01*
X717166Y907470D01*
X714316Y909116D01*
X714316Y909116D01*
X714205Y909190D01*
X714105Y909278D01*
X711778Y911605D01*
X711777Y911605D01*
X711690Y911705D01*
X711616Y911816D01*
X709970Y914666D01*
X709970Y914666D01*
X709911Y914786D01*
X709868Y914912D01*
X709016Y918091D01*
X708990Y918222D01*
X708982Y918354D01*
Y920000D01*
Y960000D01*
X708990Y960133D01*
X709016Y960264D01*
X709059Y960390D01*
X709118Y960509D01*
X709192Y960620D01*
X709280Y960720D01*
X709380Y960808D01*
X709491Y960882D01*
X709610Y960941D01*
X709736Y960984D01*
X709867Y961010D01*
X710000Y961018D01*
X735000D01*
X735133Y961010D01*
D02*
G37*
G36*
X695133D02*
X695264Y960984D01*
X695390Y960941D01*
X695509Y960882D01*
X695620Y960808D01*
X695720Y960720D01*
X695808Y960620D01*
X695882Y960509D01*
X695941Y960390D01*
X695984Y960264D01*
X696010Y960133D01*
X696018Y960000D01*
Y920000D01*
Y918354D01*
D01*
Y918354D01*
X696010Y918222D01*
X695984Y918091D01*
X695132Y914912D01*
X695089Y914786D01*
X695030Y914666D01*
X693384Y911816D01*
X693384Y911816D01*
X693310Y911705D01*
X693222Y911605D01*
X690895Y909278D01*
X690895Y909278D01*
X690795Y909190D01*
X690684Y909116D01*
X687834Y907470D01*
X687834Y907470D01*
X687714Y907411D01*
X687588Y907368D01*
X684409Y906517D01*
X684278Y906491D01*
X684146Y906482D01*
X680854D01*
X680721Y906491D01*
X680591Y906517D01*
X677412Y907368D01*
X677286Y907411D01*
X677166Y907470D01*
X674316Y909116D01*
X674316Y909116D01*
X674205Y909190D01*
X674105Y909278D01*
X671778Y911605D01*
X671777Y911605D01*
X671690Y911705D01*
X671616Y911816D01*
X669970Y914666D01*
X669970Y914666D01*
X669911Y914786D01*
X669868Y914912D01*
X669016Y918091D01*
X668990Y918222D01*
X668982Y918354D01*
Y920000D01*
Y960000D01*
X668990Y960133D01*
X669016Y960264D01*
X669059Y960390D01*
X669118Y960509D01*
X669192Y960620D01*
X669280Y960720D01*
X669380Y960808D01*
X669491Y960882D01*
X669610Y960941D01*
X669736Y960984D01*
X669867Y961010D01*
X670000Y961018D01*
X695000D01*
X695133Y961010D01*
D02*
G37*
G36*
X610133D02*
X610263Y960984D01*
X610390Y960941D01*
X610509Y960882D01*
X610620Y960808D01*
X610720Y960720D01*
X610808Y960620D01*
X610882Y960509D01*
X610941Y960390D01*
X610984Y960264D01*
X611009Y960133D01*
X611018Y960000D01*
Y920000D01*
Y918354D01*
D01*
Y918354D01*
X611009Y918222D01*
X610984Y918091D01*
X610132Y914912D01*
X610089Y914786D01*
X610030Y914666D01*
X608384Y911816D01*
X608384Y911816D01*
X608310Y911705D01*
X608222Y911605D01*
X605895Y909278D01*
X605895Y909278D01*
X605795Y909190D01*
X605684Y909116D01*
X602834Y907470D01*
X602834Y907470D01*
X602714Y907411D01*
X602588Y907368D01*
X599409Y906517D01*
X599278Y906491D01*
X599146Y906482D01*
X595854D01*
X595721Y906491D01*
X595591Y906517D01*
X592412Y907368D01*
X592285Y907411D01*
X592166Y907470D01*
X589316Y909116D01*
X589316Y909116D01*
X589205Y909190D01*
X589105Y909278D01*
X586778Y911605D01*
X586777Y911605D01*
X586690Y911705D01*
X586616Y911816D01*
X584970Y914666D01*
X584970Y914666D01*
X584911Y914786D01*
X584868Y914912D01*
X584016Y918091D01*
X583991Y918222D01*
X583982Y918354D01*
Y920000D01*
Y960000D01*
X583991Y960133D01*
X584016Y960264D01*
X584059Y960390D01*
X584118Y960509D01*
X584192Y960620D01*
X584280Y960720D01*
X584380Y960808D01*
X584491Y960882D01*
X584610Y960941D01*
X584737Y960984D01*
X584867Y961010D01*
X585000Y961018D01*
X610000D01*
X610133Y961010D01*
D02*
G37*
G36*
X570133D02*
X570263Y960984D01*
X570390Y960941D01*
X570509Y960882D01*
X570620Y960808D01*
X570720Y960720D01*
X570808Y960620D01*
X570882Y960509D01*
X570941Y960390D01*
X570984Y960264D01*
X571009Y960133D01*
X571018Y960000D01*
Y920000D01*
Y918354D01*
D01*
Y918354D01*
X571009Y918222D01*
X570984Y918091D01*
X570132Y914912D01*
X570089Y914786D01*
X570030Y914666D01*
X568384Y911816D01*
X568384Y911816D01*
X568310Y911705D01*
X568222Y911605D01*
X565895Y909278D01*
X565895Y909278D01*
X565795Y909190D01*
X565684Y909116D01*
X562834Y907470D01*
X562834Y907470D01*
X562714Y907411D01*
X562588Y907368D01*
X559409Y906517D01*
X559278Y906491D01*
X559146Y906482D01*
X555854D01*
X555721Y906491D01*
X555591Y906517D01*
X552412Y907368D01*
X552285Y907411D01*
X552166Y907470D01*
X549316Y909116D01*
X549316Y909116D01*
X549205Y909190D01*
X549105Y909278D01*
X546778Y911605D01*
X546777Y911605D01*
X546690Y911705D01*
X546616Y911816D01*
X544970Y914666D01*
X544970Y914666D01*
X544911Y914786D01*
X544868Y914912D01*
X544016Y918091D01*
X543991Y918222D01*
X543982Y918354D01*
Y920000D01*
Y960000D01*
X543991Y960133D01*
X544016Y960264D01*
X544059Y960390D01*
X544118Y960509D01*
X544192Y960620D01*
X544280Y960720D01*
X544380Y960808D01*
X544491Y960882D01*
X544610Y960941D01*
X544737Y960984D01*
X544867Y961010D01*
X545000Y961018D01*
X570000D01*
X570133Y961010D01*
D02*
G37*
G36*
X530133D02*
X530263Y960984D01*
X530390Y960941D01*
X530509Y960882D01*
X530620Y960808D01*
X530720Y960720D01*
X530808Y960620D01*
X530882Y960509D01*
X530941Y960390D01*
X530984Y960264D01*
X531009Y960133D01*
X531018Y960000D01*
Y920000D01*
Y918354D01*
D01*
Y918354D01*
X531009Y918222D01*
X530984Y918091D01*
X530132Y914912D01*
X530089Y914786D01*
X530030Y914666D01*
X528384Y911816D01*
X528384Y911816D01*
X528310Y911705D01*
X528222Y911605D01*
X525895Y909278D01*
X525895Y909278D01*
X525795Y909190D01*
X525684Y909116D01*
X522834Y907470D01*
X522834Y907470D01*
X522714Y907411D01*
X522588Y907368D01*
X519409Y906517D01*
X519278Y906491D01*
X519146Y906482D01*
X515854D01*
X515721Y906491D01*
X515591Y906517D01*
X512412Y907368D01*
X512285Y907411D01*
X512166Y907470D01*
X509316Y909116D01*
X509316Y909116D01*
X509205Y909190D01*
X509105Y909278D01*
X506778Y911605D01*
X506777Y911605D01*
X506690Y911705D01*
X506616Y911816D01*
X504970Y914666D01*
X504970Y914666D01*
X504911Y914786D01*
X504868Y914912D01*
X504016Y918091D01*
X503991Y918222D01*
X503982Y918354D01*
Y920000D01*
Y960000D01*
X503991Y960133D01*
X504016Y960264D01*
X504059Y960390D01*
X504118Y960509D01*
X504192Y960620D01*
X504280Y960720D01*
X504380Y960808D01*
X504491Y960882D01*
X504610Y960941D01*
X504737Y960984D01*
X504867Y961010D01*
X505000Y961018D01*
X530000D01*
X530133Y961010D01*
D02*
G37*
G36*
X445133D02*
X445263Y960984D01*
X445390Y960941D01*
X445509Y960882D01*
X445620Y960808D01*
X445720Y960720D01*
X445808Y960620D01*
X445882Y960509D01*
X445941Y960390D01*
X445984Y960264D01*
X446009Y960133D01*
X446018Y960000D01*
Y920000D01*
Y918354D01*
D01*
Y918354D01*
X446009Y918222D01*
X445984Y918091D01*
X445132Y914912D01*
X445089Y914786D01*
X445030Y914666D01*
X443384Y911816D01*
X443384Y911816D01*
X443310Y911705D01*
X443222Y911605D01*
X440895Y909278D01*
X440895Y909278D01*
X440795Y909190D01*
X440684Y909116D01*
X437834Y907470D01*
X437834Y907470D01*
X437714Y907411D01*
X437588Y907368D01*
X434409Y906517D01*
X434278Y906491D01*
X434146Y906482D01*
X430854D01*
X430721Y906491D01*
X430591Y906517D01*
X427412Y907368D01*
X427285Y907411D01*
X427166Y907470D01*
X424316Y909116D01*
X424316Y909116D01*
X424205Y909190D01*
X424105Y909278D01*
X421778Y911605D01*
X421777Y911605D01*
X421690Y911705D01*
X421616Y911816D01*
X419970Y914666D01*
X419970Y914666D01*
X419911Y914786D01*
X419868Y914912D01*
X419016Y918091D01*
X418991Y918222D01*
X418982Y918354D01*
Y920000D01*
Y960000D01*
X418991Y960133D01*
X419016Y960264D01*
X419059Y960390D01*
X419118Y960509D01*
X419192Y960620D01*
X419280Y960720D01*
X419380Y960808D01*
X419491Y960882D01*
X419610Y960941D01*
X419737Y960984D01*
X419867Y961010D01*
X420000Y961018D01*
X445000D01*
X445133Y961010D01*
D02*
G37*
G36*
X405133D02*
X405263Y960984D01*
X405390Y960941D01*
X405509Y960882D01*
X405620Y960808D01*
X405720Y960720D01*
X405808Y960620D01*
X405882Y960509D01*
X405941Y960390D01*
X405984Y960264D01*
X406009Y960133D01*
X406018Y960000D01*
Y920000D01*
Y918354D01*
D01*
Y918354D01*
X406009Y918222D01*
X405984Y918091D01*
X405132Y914912D01*
X405089Y914786D01*
X405030Y914666D01*
X403384Y911816D01*
X403384Y911816D01*
X403310Y911705D01*
X403222Y911605D01*
X400895Y909278D01*
X400895Y909278D01*
X400795Y909190D01*
X400684Y909116D01*
X397834Y907470D01*
X397834Y907470D01*
X397714Y907411D01*
X397588Y907368D01*
X394409Y906517D01*
X394278Y906491D01*
X394146Y906482D01*
X390854D01*
X390721Y906491D01*
X390591Y906517D01*
X387412Y907368D01*
X387285Y907411D01*
X387166Y907470D01*
X384316Y909116D01*
X384316Y909116D01*
X384205Y909190D01*
X384105Y909278D01*
X381778Y911605D01*
X381777Y911605D01*
X381690Y911705D01*
X381616Y911816D01*
X379970Y914666D01*
X379970Y914666D01*
X379911Y914786D01*
X379868Y914912D01*
X379016Y918091D01*
X378991Y918222D01*
X378982Y918354D01*
Y920000D01*
Y960000D01*
X378991Y960133D01*
X379016Y960264D01*
X379059Y960390D01*
X379118Y960509D01*
X379192Y960620D01*
X379280Y960720D01*
X379380Y960808D01*
X379491Y960882D01*
X379610Y960941D01*
X379737Y960984D01*
X379867Y961010D01*
X380000Y961018D01*
X405000D01*
X405133Y961010D01*
D02*
G37*
G36*
X365133D02*
X365263Y960984D01*
X365390Y960941D01*
X365509Y960882D01*
X365620Y960808D01*
X365720Y960720D01*
X365808Y960620D01*
X365882Y960509D01*
X365941Y960390D01*
X365984Y960264D01*
X366009Y960133D01*
X366018Y960000D01*
Y920000D01*
Y918354D01*
D01*
Y918354D01*
X366009Y918222D01*
X365984Y918091D01*
X365132Y914912D01*
X365089Y914786D01*
X365030Y914666D01*
X363384Y911816D01*
X363384Y911816D01*
X363310Y911705D01*
X363222Y911605D01*
X360895Y909278D01*
X360895Y909278D01*
X360795Y909190D01*
X360684Y909116D01*
X357834Y907470D01*
X357834Y907470D01*
X357714Y907411D01*
X357588Y907368D01*
X354409Y906517D01*
X354278Y906491D01*
X354146Y906482D01*
X350854D01*
X350721Y906491D01*
X350591Y906517D01*
X347412Y907368D01*
X347285Y907411D01*
X347166Y907470D01*
X344316Y909116D01*
X344316Y909116D01*
X344205Y909190D01*
X344105Y909278D01*
X341778Y911605D01*
X341777Y911605D01*
X341690Y911705D01*
X341616Y911816D01*
X339970Y914666D01*
X339970Y914666D01*
X339911Y914786D01*
X339868Y914912D01*
X339016Y918091D01*
X338991Y918222D01*
X338982Y918354D01*
Y920000D01*
Y960000D01*
X338991Y960133D01*
X339016Y960264D01*
X339059Y960390D01*
X339118Y960509D01*
X339192Y960620D01*
X339280Y960720D01*
X339380Y960808D01*
X339491Y960882D01*
X339610Y960941D01*
X339737Y960984D01*
X339867Y961010D01*
X340000Y961018D01*
X365000D01*
X365133Y961010D01*
D02*
G37*
G36*
X280133D02*
X280264Y960984D01*
X280390Y960941D01*
X280509Y960882D01*
X280620Y960808D01*
X280720Y960720D01*
X280808Y960620D01*
X280882Y960509D01*
X280941Y960390D01*
X280984Y960264D01*
X281010Y960133D01*
X281018Y960000D01*
Y920000D01*
Y918354D01*
D01*
Y918354D01*
X281010Y918222D01*
X280984Y918091D01*
X280132Y914912D01*
X280089Y914786D01*
X280030Y914666D01*
X278384Y911816D01*
X278384Y911816D01*
X278310Y911705D01*
X278222Y911605D01*
X275895Y909278D01*
X275895Y909278D01*
X275795Y909190D01*
X275684Y909116D01*
X272834Y907470D01*
X272834Y907470D01*
X272714Y907411D01*
X272588Y907368D01*
X269409Y906517D01*
X269279Y906491D01*
X269146Y906482D01*
X265854D01*
X265721Y906491D01*
X265591Y906517D01*
X262412Y907368D01*
X262285Y907411D01*
X262166Y907470D01*
X259316Y909116D01*
X259316Y909116D01*
X259205Y909190D01*
X259105Y909278D01*
X256778Y911605D01*
X256777Y911605D01*
X256690Y911705D01*
X256616Y911816D01*
X254970Y914666D01*
X254970Y914666D01*
X254911Y914786D01*
X254868Y914912D01*
X254016Y918091D01*
X253990Y918222D01*
X253982Y918354D01*
Y920000D01*
Y960000D01*
X253990Y960133D01*
X254016Y960264D01*
X254059Y960390D01*
X254118Y960509D01*
X254192Y960620D01*
X254280Y960720D01*
X254380Y960808D01*
X254491Y960882D01*
X254610Y960941D01*
X254736Y960984D01*
X254867Y961010D01*
X255000Y961018D01*
X280000D01*
X280133Y961010D01*
D02*
G37*
G36*
X240133D02*
X240264Y960984D01*
X240390Y960941D01*
X240509Y960882D01*
X240620Y960808D01*
X240720Y960720D01*
X240808Y960620D01*
X240882Y960509D01*
X240941Y960390D01*
X240984Y960264D01*
X241010Y960133D01*
X241018Y960000D01*
Y920000D01*
Y918354D01*
D01*
Y918354D01*
X241010Y918222D01*
X240984Y918091D01*
X240132Y914912D01*
X240089Y914786D01*
X240030Y914666D01*
X238384Y911816D01*
X238384Y911816D01*
X238310Y911705D01*
X238222Y911605D01*
X235895Y909278D01*
X235895Y909278D01*
X235795Y909190D01*
X235684Y909116D01*
X232834Y907470D01*
X232834Y907470D01*
X232714Y907411D01*
X232588Y907368D01*
X229409Y906517D01*
X229279Y906491D01*
X229146Y906482D01*
X225854D01*
X225721Y906491D01*
X225591Y906517D01*
X222412Y907368D01*
X222285Y907411D01*
X222166Y907470D01*
X219316Y909116D01*
X219316Y909116D01*
X219205Y909190D01*
X219105Y909278D01*
X216778Y911605D01*
X216777Y911605D01*
X216690Y911705D01*
X216616Y911816D01*
X214970Y914666D01*
X214970Y914666D01*
X214911Y914786D01*
X214868Y914912D01*
X214016Y918091D01*
X213990Y918222D01*
X213982Y918354D01*
Y920000D01*
Y960000D01*
X213990Y960133D01*
X214016Y960264D01*
X214059Y960390D01*
X214118Y960509D01*
X214192Y960620D01*
X214280Y960720D01*
X214380Y960808D01*
X214491Y960882D01*
X214610Y960941D01*
X214736Y960984D01*
X214867Y961010D01*
X215000Y961018D01*
X240000D01*
X240133Y961010D01*
D02*
G37*
G36*
X200133D02*
X200264Y960984D01*
X200390Y960941D01*
X200509Y960882D01*
X200620Y960808D01*
X200720Y960720D01*
X200808Y960620D01*
X200882Y960509D01*
X200941Y960390D01*
X200984Y960264D01*
X201010Y960133D01*
X201018Y960000D01*
Y920000D01*
Y918354D01*
D01*
Y918354D01*
X201010Y918222D01*
X200984Y918091D01*
X200132Y914912D01*
X200089Y914786D01*
X200030Y914666D01*
X198384Y911816D01*
X198384Y911816D01*
X198310Y911705D01*
X198222Y911605D01*
X195895Y909278D01*
X195895Y909278D01*
X195795Y909190D01*
X195684Y909116D01*
X192834Y907470D01*
X192834Y907470D01*
X192714Y907411D01*
X192588Y907368D01*
X189409Y906517D01*
X189279Y906491D01*
X189146Y906482D01*
X185854D01*
X185721Y906491D01*
X185591Y906517D01*
X182412Y907368D01*
X182285Y907411D01*
X182166Y907470D01*
X179316Y909116D01*
X179316Y909116D01*
X179205Y909190D01*
X179105Y909278D01*
X176778Y911605D01*
X176777Y911605D01*
X176690Y911705D01*
X176616Y911816D01*
X174970Y914666D01*
X174970Y914666D01*
X174911Y914786D01*
X174868Y914912D01*
X174016Y918091D01*
X173990Y918222D01*
X173982Y918354D01*
Y920000D01*
Y960000D01*
X173990Y960133D01*
X174016Y960264D01*
X174059Y960390D01*
X174118Y960509D01*
X174192Y960620D01*
X174280Y960720D01*
X174380Y960808D01*
X174491Y960882D01*
X174610Y960941D01*
X174736Y960984D01*
X174867Y961010D01*
X175000Y961018D01*
X200000D01*
X200133Y961010D01*
D02*
G37*
G36*
X115133D02*
X115264Y960984D01*
X115390Y960941D01*
X115509Y960882D01*
X115620Y960808D01*
X115720Y960720D01*
X115808Y960620D01*
X115882Y960509D01*
X115941Y960390D01*
X115983Y960264D01*
X116010Y960133D01*
X116018Y960000D01*
Y920000D01*
Y918354D01*
D01*
Y918354D01*
X116010Y918222D01*
X115983Y918091D01*
X115132Y914912D01*
X115089Y914786D01*
X115030Y914666D01*
X113384Y911816D01*
X113384Y911816D01*
X113310Y911705D01*
X113222Y911605D01*
X110895Y909278D01*
X110895Y909278D01*
X110795Y909190D01*
X110684Y909116D01*
X107834Y907470D01*
X107834Y907470D01*
X107714Y907411D01*
X107588Y907368D01*
X104409Y906517D01*
X104278Y906491D01*
X104146Y906482D01*
X100854D01*
X100721Y906491D01*
X100591Y906517D01*
X97412Y907368D01*
X97285Y907411D01*
X97166Y907470D01*
X94316Y909116D01*
X94316Y909116D01*
X94205Y909190D01*
X94105Y909278D01*
X91778Y911605D01*
X91777Y911605D01*
X91690Y911705D01*
X91616Y911816D01*
X89970Y914666D01*
X89970Y914666D01*
X89911Y914786D01*
X89868Y914912D01*
X89017Y918091D01*
X88990Y918222D01*
X88982Y918354D01*
Y920000D01*
Y960000D01*
X88990Y960133D01*
X89017Y960264D01*
X89059Y960390D01*
X89118Y960509D01*
X89192Y960620D01*
X89280Y960720D01*
X89380Y960808D01*
X89491Y960882D01*
X89610Y960941D01*
X89736Y960984D01*
X89867Y961010D01*
X90000Y961018D01*
X115000D01*
X115133Y961010D01*
D02*
G37*
G36*
X75133D02*
X75264Y960984D01*
X75390Y960941D01*
X75509Y960882D01*
X75620Y960808D01*
X75720Y960720D01*
X75808Y960620D01*
X75882Y960509D01*
X75941Y960390D01*
X75984Y960264D01*
X76009Y960133D01*
X76018Y960000D01*
Y920000D01*
Y918354D01*
D01*
Y918354D01*
X76009Y918222D01*
X75984Y918091D01*
X75132Y914912D01*
X75089Y914786D01*
X75030Y914666D01*
X73384Y911816D01*
X73384Y911816D01*
X73310Y911705D01*
X73222Y911605D01*
X70895Y909278D01*
X70895Y909278D01*
X70795Y909190D01*
X70684Y909116D01*
X67834Y907470D01*
X67834Y907470D01*
X67714Y907411D01*
X67588Y907368D01*
X64409Y906517D01*
X64278Y906491D01*
X64146Y906482D01*
X60854D01*
X60721Y906491D01*
X60591Y906517D01*
X57412Y907368D01*
X57285Y907411D01*
X57166Y907470D01*
X54316Y909116D01*
X54316Y909116D01*
X54205Y909190D01*
X54105Y909278D01*
X51778Y911605D01*
X51778Y911605D01*
X51690Y911705D01*
X51616Y911816D01*
X49970Y914666D01*
X49970Y914666D01*
X49911Y914786D01*
X49868Y914912D01*
X49016Y918091D01*
X48991Y918222D01*
X48982Y918354D01*
Y920000D01*
Y960000D01*
X48991Y960133D01*
X49016Y960264D01*
X49059Y960390D01*
X49118Y960509D01*
X49192Y960620D01*
X49280Y960720D01*
X49380Y960808D01*
X49491Y960882D01*
X49610Y960941D01*
X49736Y960984D01*
X49867Y961010D01*
X50000Y961018D01*
X75000D01*
X75133Y961010D01*
D02*
G37*
G36*
X35133D02*
X35264Y960984D01*
X35390Y960941D01*
X35509Y960882D01*
X35620Y960808D01*
X35720Y960720D01*
X35808Y960620D01*
X35882Y960509D01*
X35941Y960390D01*
X35984Y960264D01*
X36010Y960133D01*
X36018Y960000D01*
Y920000D01*
Y918354D01*
D01*
Y918354D01*
X36010Y918222D01*
X35984Y918091D01*
X35132Y914912D01*
X35089Y914786D01*
X35030Y914666D01*
X33384Y911816D01*
X33384Y911816D01*
X33310Y911705D01*
X33222Y911605D01*
X30895Y909278D01*
X30895Y909278D01*
X30795Y909190D01*
X30684Y909116D01*
X27834Y907470D01*
X27834Y907470D01*
X27714Y907411D01*
X27588Y907368D01*
X24409Y906517D01*
X24279Y906491D01*
X24146Y906482D01*
X20854D01*
X20721Y906491D01*
X20591Y906517D01*
X17412Y907368D01*
X17285Y907411D01*
X17166Y907470D01*
X14316Y909116D01*
X14316Y909116D01*
X14205Y909190D01*
X14105Y909278D01*
X11778Y911605D01*
X11777Y911605D01*
X11690Y911705D01*
X11616Y911816D01*
X9970Y914666D01*
X9970Y914666D01*
X9911Y914786D01*
X9868Y914912D01*
X9017Y918091D01*
X8990Y918222D01*
X8982Y918354D01*
Y920000D01*
Y960000D01*
X8990Y960133D01*
X9017Y960264D01*
X9059Y960390D01*
X9118Y960509D01*
X9192Y960620D01*
X9280Y960720D01*
X9380Y960808D01*
X9491Y960882D01*
X9610Y960941D01*
X9736Y960984D01*
X9867Y961010D01*
X10000Y961018D01*
X35000D01*
X35133Y961010D01*
D02*
G37*
G36*
X1424279Y53509D02*
X1424409Y53484D01*
X1427588Y52632D01*
X1427714Y52589D01*
X1427834Y52530D01*
X1430684Y50884D01*
X1430795Y50810D01*
X1430895Y50722D01*
X1430895Y50722D01*
X1433222Y48395D01*
X1433310Y48295D01*
X1433384Y48184D01*
X1433384Y48184D01*
X1435030Y45334D01*
X1435089Y45215D01*
X1435132Y45088D01*
X1435983Y41909D01*
X1436010Y41779D01*
X1436018Y41646D01*
D01*
Y41646D01*
Y40000D01*
Y0D01*
X1436010Y-133D01*
X1435983Y-264D01*
X1435941Y-390D01*
X1435882Y-509D01*
X1435808Y-620D01*
X1435720Y-720D01*
X1435620Y-808D01*
X1435509Y-882D01*
X1435390Y-941D01*
X1435264Y-984D01*
X1435133Y-1009D01*
X1435000Y-1018D01*
X1410000D01*
X1409867Y-1009D01*
X1409736Y-984D01*
X1409610Y-941D01*
X1409491Y-882D01*
X1409380Y-808D01*
X1409280Y-720D01*
X1409192Y-620D01*
X1409118Y-509D01*
X1409059Y-390D01*
X1409017Y-264D01*
X1408990Y-133D01*
X1408982Y0D01*
Y40000D01*
Y41646D01*
X1408990Y41779D01*
X1409017Y41909D01*
X1409868Y45088D01*
X1409911Y45215D01*
X1409970Y45334D01*
X1409970Y45334D01*
X1411616Y48184D01*
X1411690Y48295D01*
X1411777Y48395D01*
X1411778Y48395D01*
X1414105Y50722D01*
X1414205Y50810D01*
X1414316Y50884D01*
X1414316Y50884D01*
X1417166Y52530D01*
X1417285Y52589D01*
X1417412Y52632D01*
X1420591Y53484D01*
X1420721Y53509D01*
X1420854Y53518D01*
D01*
X1420854D01*
X1424146D01*
X1424279Y53509D01*
D02*
G37*
G36*
X1384279D02*
X1384409Y53484D01*
X1387588Y52632D01*
X1387714Y52589D01*
X1387834Y52530D01*
X1390684Y50884D01*
X1390795Y50810D01*
X1390895Y50722D01*
X1390895Y50722D01*
X1393222Y48395D01*
X1393310Y48295D01*
X1393384Y48184D01*
X1393384Y48184D01*
X1395030Y45334D01*
X1395089Y45215D01*
X1395132Y45088D01*
X1395983Y41909D01*
X1396010Y41779D01*
X1396018Y41646D01*
D01*
Y41646D01*
Y40000D01*
Y0D01*
X1396010Y-133D01*
X1395983Y-264D01*
X1395941Y-390D01*
X1395882Y-509D01*
X1395808Y-620D01*
X1395720Y-720D01*
X1395620Y-808D01*
X1395509Y-882D01*
X1395390Y-941D01*
X1395264Y-984D01*
X1395133Y-1009D01*
X1395000Y-1018D01*
X1370000D01*
X1369867Y-1009D01*
X1369736Y-984D01*
X1369610Y-941D01*
X1369491Y-882D01*
X1369380Y-808D01*
X1369280Y-720D01*
X1369192Y-620D01*
X1369118Y-509D01*
X1369059Y-390D01*
X1369017Y-264D01*
X1368990Y-133D01*
X1368982Y0D01*
Y40000D01*
Y41646D01*
X1368990Y41779D01*
X1369017Y41909D01*
X1369868Y45088D01*
X1369911Y45215D01*
X1369970Y45334D01*
X1369970Y45334D01*
X1371616Y48184D01*
X1371690Y48295D01*
X1371777Y48395D01*
X1371778Y48395D01*
X1374105Y50722D01*
X1374205Y50810D01*
X1374316Y50884D01*
X1374316Y50884D01*
X1377166Y52530D01*
X1377285Y52589D01*
X1377412Y52632D01*
X1380591Y53484D01*
X1380721Y53509D01*
X1380854Y53518D01*
X1380854D01*
D01*
X1384146D01*
X1384279Y53509D01*
D02*
G37*
G36*
X1344279D02*
X1344409Y53484D01*
X1347588Y52632D01*
X1347714Y52589D01*
X1347834Y52530D01*
X1350684Y50884D01*
X1350795Y50810D01*
X1350895Y50722D01*
X1350895Y50722D01*
X1353222Y48395D01*
X1353310Y48295D01*
X1353384Y48184D01*
X1353384Y48184D01*
X1355030Y45334D01*
X1355089Y45215D01*
X1355132Y45088D01*
X1355983Y41909D01*
X1356010Y41779D01*
X1356018Y41646D01*
D01*
Y41646D01*
Y40000D01*
Y0D01*
X1356010Y-133D01*
X1355983Y-264D01*
X1355941Y-390D01*
X1355882Y-509D01*
X1355808Y-620D01*
X1355720Y-720D01*
X1355620Y-808D01*
X1355509Y-882D01*
X1355390Y-941D01*
X1355264Y-984D01*
X1355133Y-1009D01*
X1355000Y-1018D01*
X1330000D01*
X1329867Y-1009D01*
X1329736Y-984D01*
X1329610Y-941D01*
X1329491Y-882D01*
X1329380Y-808D01*
X1329280Y-720D01*
X1329192Y-620D01*
X1329118Y-509D01*
X1329059Y-390D01*
X1329017Y-264D01*
X1328990Y-133D01*
X1328982Y0D01*
Y40000D01*
Y41646D01*
X1328990Y41779D01*
X1329017Y41909D01*
X1329868Y45088D01*
X1329911Y45215D01*
X1329970Y45334D01*
X1329970Y45334D01*
X1331616Y48184D01*
X1331690Y48295D01*
X1331777Y48395D01*
X1331778Y48395D01*
X1334105Y50722D01*
X1334205Y50810D01*
X1334316Y50884D01*
X1334316Y50884D01*
X1337166Y52530D01*
X1337285Y52589D01*
X1337412Y52632D01*
X1340591Y53484D01*
X1340721Y53509D01*
X1340854Y53518D01*
D01*
X1340854D01*
X1344146D01*
X1344279Y53509D01*
D02*
G37*
G36*
X1259279D02*
X1259409Y53484D01*
X1262588Y52632D01*
X1262714Y52589D01*
X1262834Y52530D01*
X1265684Y50884D01*
X1265795Y50810D01*
X1265895Y50722D01*
X1265895Y50722D01*
X1268222Y48395D01*
X1268310Y48295D01*
X1268384Y48184D01*
X1268384Y48184D01*
X1270030Y45334D01*
X1270089Y45215D01*
X1270132Y45088D01*
X1270984Y41909D01*
X1271010Y41779D01*
X1271018Y41646D01*
D01*
Y41646D01*
Y40000D01*
Y0D01*
X1271010Y-133D01*
X1270984Y-264D01*
X1270941Y-390D01*
X1270882Y-509D01*
X1270808Y-620D01*
X1270720Y-720D01*
X1270620Y-808D01*
X1270509Y-882D01*
X1270390Y-941D01*
X1270264Y-984D01*
X1270133Y-1009D01*
X1270000Y-1018D01*
X1245000D01*
X1244867Y-1009D01*
X1244736Y-984D01*
X1244610Y-941D01*
X1244491Y-882D01*
X1244380Y-808D01*
X1244280Y-720D01*
X1244192Y-620D01*
X1244118Y-509D01*
X1244059Y-390D01*
X1244016Y-264D01*
X1243990Y-133D01*
X1243982Y0D01*
Y40000D01*
Y41646D01*
X1243990Y41779D01*
X1244016Y41909D01*
X1244868Y45088D01*
X1244911Y45215D01*
X1244970Y45334D01*
X1244970Y45334D01*
X1246616Y48184D01*
X1246690Y48295D01*
X1246777Y48395D01*
X1246778Y48395D01*
X1249105Y50722D01*
X1249205Y50810D01*
X1249316Y50884D01*
X1249316Y50884D01*
X1252166Y52530D01*
X1252286Y52589D01*
X1252412Y52632D01*
X1255591Y53484D01*
X1255721Y53509D01*
X1255854Y53518D01*
X1255854D01*
D01*
X1259146D01*
X1259279Y53509D01*
D02*
G37*
G36*
X1219279D02*
X1219409Y53484D01*
X1222588Y52632D01*
X1222714Y52589D01*
X1222834Y52530D01*
X1225684Y50884D01*
X1225795Y50810D01*
X1225895Y50722D01*
X1225895Y50722D01*
X1228222Y48395D01*
X1228310Y48295D01*
X1228384Y48184D01*
X1228384Y48184D01*
X1230030Y45334D01*
X1230089Y45215D01*
X1230132Y45088D01*
X1230984Y41909D01*
X1231010Y41779D01*
X1231018Y41646D01*
D01*
Y41646D01*
Y40000D01*
Y0D01*
X1231010Y-133D01*
X1230984Y-264D01*
X1230941Y-390D01*
X1230882Y-509D01*
X1230808Y-620D01*
X1230720Y-720D01*
X1230620Y-808D01*
X1230509Y-882D01*
X1230390Y-941D01*
X1230264Y-984D01*
X1230133Y-1009D01*
X1230000Y-1018D01*
X1205000D01*
X1204867Y-1009D01*
X1204736Y-984D01*
X1204610Y-941D01*
X1204491Y-882D01*
X1204380Y-808D01*
X1204280Y-720D01*
X1204192Y-620D01*
X1204118Y-509D01*
X1204059Y-390D01*
X1204016Y-264D01*
X1203990Y-133D01*
X1203982Y0D01*
Y40000D01*
Y41646D01*
X1203990Y41779D01*
X1204016Y41909D01*
X1204868Y45088D01*
X1204911Y45215D01*
X1204970Y45334D01*
X1204970Y45334D01*
X1206616Y48184D01*
X1206690Y48295D01*
X1206777Y48395D01*
X1206778Y48395D01*
X1209105Y50722D01*
X1209205Y50810D01*
X1209316Y50884D01*
X1209316Y50884D01*
X1212166Y52530D01*
X1212286Y52589D01*
X1212412Y52632D01*
X1215591Y53484D01*
X1215721Y53509D01*
X1215854Y53518D01*
D01*
X1215854D01*
X1219146D01*
X1219279Y53509D01*
D02*
G37*
G36*
X1179279D02*
X1179409Y53484D01*
X1182588Y52632D01*
X1182714Y52589D01*
X1182834Y52530D01*
X1185684Y50884D01*
X1185795Y50810D01*
X1185895Y50722D01*
X1185895Y50722D01*
X1188222Y48395D01*
X1188310Y48295D01*
X1188384Y48184D01*
X1188384Y48184D01*
X1190030Y45334D01*
X1190089Y45215D01*
X1190132Y45088D01*
X1190984Y41909D01*
X1191010Y41779D01*
X1191018Y41646D01*
D01*
Y41646D01*
Y40000D01*
Y0D01*
X1191010Y-133D01*
X1190984Y-264D01*
X1190941Y-390D01*
X1190882Y-509D01*
X1190808Y-620D01*
X1190720Y-720D01*
X1190620Y-808D01*
X1190509Y-882D01*
X1190390Y-941D01*
X1190264Y-984D01*
X1190133Y-1009D01*
X1190000Y-1018D01*
X1165000D01*
X1164867Y-1009D01*
X1164736Y-984D01*
X1164610Y-941D01*
X1164491Y-882D01*
X1164380Y-808D01*
X1164280Y-720D01*
X1164192Y-620D01*
X1164118Y-509D01*
X1164059Y-390D01*
X1164016Y-264D01*
X1163990Y-133D01*
X1163982Y0D01*
Y40000D01*
Y41646D01*
X1163990Y41779D01*
X1164016Y41909D01*
X1164868Y45088D01*
X1164911Y45215D01*
X1164970Y45334D01*
X1164970Y45334D01*
X1166616Y48184D01*
X1166690Y48295D01*
X1166777Y48395D01*
X1166778Y48395D01*
X1169105Y50722D01*
X1169205Y50810D01*
X1169316Y50884D01*
X1169316Y50884D01*
X1172166Y52530D01*
X1172286Y52589D01*
X1172412Y52632D01*
X1175591Y53484D01*
X1175721Y53509D01*
X1175854Y53518D01*
X1175854D01*
D01*
X1179146D01*
X1179279Y53509D01*
D02*
G37*
G36*
X1094279D02*
X1094409Y53484D01*
X1097588Y52632D01*
X1097714Y52589D01*
X1097834Y52530D01*
X1100684Y50884D01*
X1100795Y50810D01*
X1100895Y50722D01*
X1100895Y50722D01*
X1103222Y48395D01*
X1103310Y48295D01*
X1103384Y48184D01*
X1103384Y48184D01*
X1105030Y45334D01*
X1105089Y45215D01*
X1105132Y45088D01*
X1105984Y41909D01*
X1106010Y41779D01*
X1106018Y41646D01*
D01*
Y41646D01*
Y40000D01*
Y0D01*
X1106010Y-133D01*
X1105984Y-264D01*
X1105941Y-390D01*
X1105882Y-509D01*
X1105808Y-620D01*
X1105720Y-720D01*
X1105620Y-808D01*
X1105509Y-882D01*
X1105390Y-941D01*
X1105264Y-984D01*
X1105133Y-1009D01*
X1105000Y-1018D01*
X1080000D01*
X1079867Y-1009D01*
X1079736Y-984D01*
X1079610Y-941D01*
X1079491Y-882D01*
X1079380Y-808D01*
X1079280Y-720D01*
X1079192Y-620D01*
X1079118Y-509D01*
X1079059Y-390D01*
X1079016Y-264D01*
X1078990Y-133D01*
X1078982Y0D01*
Y40000D01*
Y41646D01*
X1078990Y41779D01*
X1079016Y41909D01*
X1079868Y45088D01*
X1079911Y45215D01*
X1079970Y45334D01*
X1079970Y45334D01*
X1081616Y48184D01*
X1081690Y48295D01*
X1081777Y48395D01*
X1081778Y48395D01*
X1084105Y50722D01*
X1084205Y50810D01*
X1084316Y50884D01*
X1084316Y50884D01*
X1087166Y52530D01*
X1087286Y52589D01*
X1087412Y52632D01*
X1090591Y53484D01*
X1090721Y53509D01*
X1090854Y53518D01*
D01*
X1090854D01*
X1094146D01*
X1094279Y53509D01*
D02*
G37*
G36*
X1054279D02*
X1054409Y53484D01*
X1057588Y52632D01*
X1057714Y52589D01*
X1057834Y52530D01*
X1060684Y50884D01*
X1060795Y50810D01*
X1060895Y50722D01*
X1060895Y50722D01*
X1063222Y48395D01*
X1063310Y48295D01*
X1063384Y48184D01*
X1063384Y48184D01*
X1065030Y45334D01*
X1065089Y45215D01*
X1065132Y45088D01*
X1065984Y41909D01*
X1066010Y41779D01*
X1066018Y41646D01*
D01*
Y41646D01*
Y40000D01*
Y0D01*
X1066010Y-133D01*
X1065984Y-264D01*
X1065941Y-390D01*
X1065882Y-509D01*
X1065808Y-620D01*
X1065720Y-720D01*
X1065620Y-808D01*
X1065509Y-882D01*
X1065390Y-941D01*
X1065264Y-984D01*
X1065133Y-1009D01*
X1065000Y-1018D01*
X1040000D01*
X1039867Y-1009D01*
X1039736Y-984D01*
X1039610Y-941D01*
X1039491Y-882D01*
X1039380Y-808D01*
X1039280Y-720D01*
X1039192Y-620D01*
X1039118Y-509D01*
X1039059Y-390D01*
X1039016Y-264D01*
X1038990Y-133D01*
X1038982Y0D01*
Y40000D01*
Y41646D01*
X1038990Y41779D01*
X1039016Y41909D01*
X1039868Y45088D01*
X1039911Y45215D01*
X1039970Y45334D01*
X1039970Y45334D01*
X1041616Y48184D01*
X1041690Y48295D01*
X1041777Y48395D01*
X1041778Y48395D01*
X1044105Y50722D01*
X1044205Y50810D01*
X1044316Y50884D01*
X1044316Y50884D01*
X1047166Y52530D01*
X1047286Y52589D01*
X1047412Y52632D01*
X1050591Y53484D01*
X1050721Y53509D01*
X1050854Y53518D01*
X1050854D01*
D01*
X1054146D01*
X1054279Y53509D01*
D02*
G37*
G36*
X1014279D02*
X1014409Y53484D01*
X1017588Y52632D01*
X1017714Y52589D01*
X1017834Y52530D01*
X1020684Y50884D01*
X1020795Y50810D01*
X1020895Y50722D01*
X1020895Y50722D01*
X1023222Y48395D01*
X1023310Y48295D01*
X1023384Y48184D01*
X1023384Y48184D01*
X1025030Y45334D01*
X1025089Y45215D01*
X1025132Y45088D01*
X1025984Y41909D01*
X1026010Y41779D01*
X1026018Y41646D01*
D01*
Y41646D01*
Y40000D01*
Y0D01*
X1026010Y-133D01*
X1025984Y-264D01*
X1025941Y-390D01*
X1025882Y-509D01*
X1025808Y-620D01*
X1025720Y-720D01*
X1025620Y-808D01*
X1025509Y-882D01*
X1025390Y-941D01*
X1025264Y-984D01*
X1025133Y-1009D01*
X1025000Y-1018D01*
X1000000D01*
X999867Y-1009D01*
X999736Y-984D01*
X999610Y-941D01*
X999491Y-882D01*
X999380Y-808D01*
X999280Y-720D01*
X999192Y-620D01*
X999118Y-509D01*
X999059Y-390D01*
X999016Y-264D01*
X998990Y-133D01*
X998982Y0D01*
Y40000D01*
Y41646D01*
X998990Y41779D01*
X999016Y41909D01*
X999868Y45088D01*
X999911Y45215D01*
X999970Y45334D01*
X999970Y45334D01*
X1001616Y48184D01*
X1001690Y48295D01*
X1001777Y48395D01*
X1001778Y48395D01*
X1004105Y50722D01*
X1004205Y50810D01*
X1004316Y50884D01*
X1004316Y50884D01*
X1007166Y52530D01*
X1007286Y52589D01*
X1007412Y52632D01*
X1010591Y53484D01*
X1010721Y53509D01*
X1010854Y53518D01*
D01*
X1010854D01*
X1014146D01*
X1014279Y53509D01*
D02*
G37*
G36*
X929279D02*
X929409Y53484D01*
X932588Y52632D01*
X932714Y52589D01*
X932834Y52530D01*
X935684Y50884D01*
X935795Y50810D01*
X935895Y50722D01*
X935895Y50722D01*
X938222Y48395D01*
X938310Y48295D01*
X938384Y48184D01*
X938384Y48184D01*
X940030Y45334D01*
X940089Y45215D01*
X940132Y45088D01*
X940984Y41909D01*
X941010Y41779D01*
X941018Y41646D01*
D01*
Y41646D01*
Y40000D01*
Y0D01*
X941010Y-133D01*
X940984Y-264D01*
X940941Y-390D01*
X940882Y-509D01*
X940808Y-620D01*
X940720Y-720D01*
X940620Y-808D01*
X940509Y-882D01*
X940390Y-941D01*
X940264Y-984D01*
X940133Y-1009D01*
X940000Y-1018D01*
X915000D01*
X914867Y-1009D01*
X914736Y-984D01*
X914610Y-941D01*
X914491Y-882D01*
X914380Y-808D01*
X914280Y-720D01*
X914192Y-620D01*
X914118Y-509D01*
X914059Y-390D01*
X914016Y-264D01*
X913990Y-133D01*
X913982Y0D01*
Y40000D01*
Y41646D01*
X913990Y41779D01*
X914016Y41909D01*
X914868Y45088D01*
X914911Y45215D01*
X914970Y45334D01*
X914970Y45334D01*
X916616Y48184D01*
X916690Y48295D01*
X916777Y48395D01*
X916778Y48395D01*
X919105Y50722D01*
X919205Y50810D01*
X919316Y50884D01*
X919316Y50884D01*
X922166Y52530D01*
X922286Y52589D01*
X922412Y52632D01*
X925591Y53484D01*
X925721Y53509D01*
X925854Y53518D01*
X925854D01*
D01*
X929146D01*
X929279Y53509D01*
D02*
G37*
G36*
X889279D02*
X889409Y53484D01*
X892588Y52632D01*
X892714Y52589D01*
X892834Y52530D01*
X895684Y50884D01*
X895795Y50810D01*
X895895Y50722D01*
X895895Y50722D01*
X898222Y48395D01*
X898310Y48295D01*
X898384Y48184D01*
X898384Y48184D01*
X900030Y45334D01*
X900089Y45215D01*
X900132Y45088D01*
X900984Y41909D01*
X901010Y41779D01*
X901018Y41646D01*
D01*
Y41646D01*
Y40000D01*
Y0D01*
X901010Y-133D01*
X900984Y-264D01*
X900941Y-390D01*
X900882Y-509D01*
X900808Y-620D01*
X900720Y-720D01*
X900620Y-808D01*
X900509Y-882D01*
X900390Y-941D01*
X900264Y-984D01*
X900133Y-1009D01*
X900000Y-1018D01*
X875000D01*
X874867Y-1009D01*
X874736Y-984D01*
X874610Y-941D01*
X874491Y-882D01*
X874380Y-808D01*
X874280Y-720D01*
X874192Y-620D01*
X874118Y-509D01*
X874059Y-390D01*
X874016Y-264D01*
X873990Y-133D01*
X873982Y0D01*
Y40000D01*
Y41646D01*
X873990Y41779D01*
X874016Y41909D01*
X874868Y45088D01*
X874911Y45215D01*
X874970Y45334D01*
X874970Y45334D01*
X876616Y48184D01*
X876690Y48295D01*
X876777Y48395D01*
X876778Y48395D01*
X879105Y50722D01*
X879205Y50810D01*
X879316Y50884D01*
X879316Y50884D01*
X882166Y52530D01*
X882286Y52589D01*
X882412Y52632D01*
X885591Y53484D01*
X885721Y53509D01*
X885854Y53518D01*
D01*
X885854D01*
X889146D01*
X889279Y53509D01*
D02*
G37*
G36*
X849279D02*
X849409Y53484D01*
X852588Y52632D01*
X852714Y52589D01*
X852834Y52530D01*
X855684Y50884D01*
X855795Y50810D01*
X855895Y50722D01*
X855895Y50722D01*
X858222Y48395D01*
X858310Y48295D01*
X858384Y48184D01*
X858384Y48184D01*
X860030Y45334D01*
X860089Y45215D01*
X860132Y45088D01*
X860984Y41909D01*
X861010Y41779D01*
X861018Y41646D01*
D01*
Y41646D01*
Y40000D01*
Y0D01*
X861010Y-133D01*
X860984Y-264D01*
X860941Y-390D01*
X860882Y-509D01*
X860808Y-620D01*
X860720Y-720D01*
X860620Y-808D01*
X860509Y-882D01*
X860390Y-941D01*
X860264Y-984D01*
X860133Y-1009D01*
X860000Y-1018D01*
X835000D01*
X834867Y-1009D01*
X834736Y-984D01*
X834610Y-941D01*
X834491Y-882D01*
X834380Y-808D01*
X834280Y-720D01*
X834192Y-620D01*
X834118Y-509D01*
X834059Y-390D01*
X834016Y-264D01*
X833990Y-133D01*
X833982Y0D01*
Y40000D01*
Y41646D01*
X833990Y41779D01*
X834016Y41909D01*
X834868Y45088D01*
X834911Y45215D01*
X834970Y45334D01*
X834970Y45334D01*
X836616Y48184D01*
X836690Y48295D01*
X836777Y48395D01*
X836778Y48395D01*
X839105Y50722D01*
X839205Y50810D01*
X839316Y50884D01*
X839316Y50884D01*
X842166Y52530D01*
X842286Y52589D01*
X842412Y52632D01*
X845591Y53484D01*
X845721Y53509D01*
X845854Y53518D01*
X845854D01*
D01*
X849146D01*
X849279Y53509D01*
D02*
G37*
G36*
X764279D02*
X764409Y53484D01*
X767588Y52632D01*
X767714Y52589D01*
X767834Y52530D01*
X770684Y50884D01*
X770795Y50810D01*
X770895Y50722D01*
X770895Y50722D01*
X773222Y48395D01*
X773310Y48295D01*
X773384Y48184D01*
X773384Y48184D01*
X775030Y45334D01*
X775089Y45215D01*
X775132Y45088D01*
X775984Y41909D01*
X776010Y41779D01*
X776018Y41646D01*
D01*
Y41646D01*
Y40000D01*
Y0D01*
X776010Y-133D01*
X775984Y-264D01*
X775941Y-390D01*
X775882Y-509D01*
X775808Y-620D01*
X775720Y-720D01*
X775620Y-808D01*
X775509Y-882D01*
X775390Y-941D01*
X775264Y-984D01*
X775133Y-1009D01*
X775000Y-1018D01*
X750000D01*
X749867Y-1009D01*
X749736Y-984D01*
X749610Y-941D01*
X749491Y-882D01*
X749380Y-808D01*
X749280Y-720D01*
X749192Y-620D01*
X749118Y-509D01*
X749059Y-390D01*
X749016Y-264D01*
X748990Y-133D01*
X748982Y0D01*
Y40000D01*
Y41646D01*
X748990Y41779D01*
X749016Y41909D01*
X749868Y45088D01*
X749911Y45215D01*
X749970Y45334D01*
X749970Y45334D01*
X751616Y48184D01*
X751690Y48295D01*
X751777Y48395D01*
X751778Y48395D01*
X754105Y50722D01*
X754205Y50810D01*
X754316Y50884D01*
X754316Y50884D01*
X757166Y52530D01*
X757286Y52589D01*
X757412Y52632D01*
X760591Y53484D01*
X760721Y53509D01*
X760854Y53518D01*
D01*
X760854D01*
X764146D01*
X764279Y53509D01*
D02*
G37*
G36*
X724279D02*
X724409Y53484D01*
X727588Y52632D01*
X727714Y52589D01*
X727834Y52530D01*
X730684Y50884D01*
X730795Y50810D01*
X730895Y50722D01*
X730895Y50722D01*
X733222Y48395D01*
X733310Y48295D01*
X733384Y48184D01*
X733384Y48184D01*
X735030Y45334D01*
X735089Y45215D01*
X735132Y45088D01*
X735984Y41909D01*
X736010Y41779D01*
X736018Y41646D01*
D01*
Y41646D01*
Y40000D01*
Y0D01*
X736010Y-133D01*
X735984Y-264D01*
X735941Y-390D01*
X735882Y-509D01*
X735808Y-620D01*
X735720Y-720D01*
X735620Y-808D01*
X735509Y-882D01*
X735390Y-941D01*
X735264Y-984D01*
X735133Y-1009D01*
X735000Y-1018D01*
X710000D01*
X709867Y-1009D01*
X709736Y-984D01*
X709610Y-941D01*
X709491Y-882D01*
X709380Y-808D01*
X709280Y-720D01*
X709192Y-620D01*
X709118Y-509D01*
X709059Y-390D01*
X709016Y-264D01*
X708990Y-133D01*
X708982Y0D01*
Y40000D01*
Y41646D01*
X708990Y41779D01*
X709016Y41909D01*
X709868Y45088D01*
X709911Y45215D01*
X709970Y45334D01*
X709970Y45334D01*
X711616Y48184D01*
X711690Y48295D01*
X711777Y48395D01*
X711778Y48395D01*
X714105Y50722D01*
X714205Y50810D01*
X714316Y50884D01*
X714316Y50884D01*
X717166Y52530D01*
X717286Y52589D01*
X717412Y52632D01*
X720591Y53484D01*
X720721Y53509D01*
X720854Y53518D01*
X720854D01*
D01*
X724146D01*
X724279Y53509D01*
D02*
G37*
G36*
X684279D02*
X684409Y53484D01*
X687588Y52632D01*
X687714Y52589D01*
X687834Y52530D01*
X690684Y50884D01*
X690795Y50810D01*
X690895Y50722D01*
X690895Y50722D01*
X693222Y48395D01*
X693310Y48295D01*
X693384Y48184D01*
X693384Y48184D01*
X695030Y45334D01*
X695089Y45215D01*
X695132Y45088D01*
X695984Y41909D01*
X696010Y41779D01*
X696018Y41646D01*
D01*
Y41646D01*
Y40000D01*
Y0D01*
X696010Y-133D01*
X695984Y-264D01*
X695941Y-390D01*
X695882Y-509D01*
X695808Y-620D01*
X695720Y-720D01*
X695620Y-808D01*
X695509Y-882D01*
X695390Y-941D01*
X695264Y-984D01*
X695133Y-1009D01*
X695000Y-1018D01*
X670000D01*
X669867Y-1009D01*
X669736Y-984D01*
X669610Y-941D01*
X669491Y-882D01*
X669380Y-808D01*
X669280Y-720D01*
X669192Y-620D01*
X669118Y-509D01*
X669059Y-390D01*
X669016Y-264D01*
X668990Y-133D01*
X668982Y0D01*
Y40000D01*
Y41646D01*
X668990Y41779D01*
X669016Y41909D01*
X669868Y45088D01*
X669911Y45215D01*
X669970Y45334D01*
X669970Y45334D01*
X671616Y48184D01*
X671690Y48295D01*
X671777Y48395D01*
X671778Y48395D01*
X674105Y50722D01*
X674205Y50810D01*
X674316Y50884D01*
X674316Y50884D01*
X677166Y52530D01*
X677286Y52589D01*
X677412Y52632D01*
X680591Y53484D01*
X680721Y53509D01*
X680854Y53518D01*
D01*
X680854D01*
X684146D01*
X684279Y53509D01*
D02*
G37*
G36*
X599279D02*
X599409Y53484D01*
X602588Y52632D01*
X602714Y52589D01*
X602834Y52530D01*
X605684Y50884D01*
X605795Y50810D01*
X605895Y50722D01*
X605895Y50722D01*
X608222Y48395D01*
X608310Y48295D01*
X608384Y48184D01*
X608384Y48184D01*
X610030Y45334D01*
X610089Y45215D01*
X610132Y45088D01*
X610984Y41909D01*
X611009Y41779D01*
X611018Y41646D01*
D01*
Y41646D01*
Y40000D01*
Y0D01*
X611009Y-133D01*
X610984Y-264D01*
X610941Y-390D01*
X610882Y-509D01*
X610808Y-620D01*
X610720Y-720D01*
X610620Y-808D01*
X610509Y-882D01*
X610390Y-941D01*
X610263Y-984D01*
X610133Y-1009D01*
X610000Y-1018D01*
X585000D01*
X584867Y-1009D01*
X584737Y-984D01*
X584610Y-941D01*
X584491Y-882D01*
X584380Y-808D01*
X584280Y-720D01*
X584192Y-620D01*
X584118Y-509D01*
X584059Y-390D01*
X584016Y-264D01*
X583991Y-133D01*
X583982Y0D01*
Y40000D01*
Y41646D01*
X583991Y41779D01*
X584016Y41909D01*
X584868Y45088D01*
X584911Y45215D01*
X584970Y45334D01*
X584970Y45334D01*
X586616Y48184D01*
X586690Y48295D01*
X586777Y48395D01*
X586778Y48395D01*
X589105Y50722D01*
X589205Y50810D01*
X589316Y50884D01*
X589316Y50884D01*
X592166Y52530D01*
X592285Y52589D01*
X592412Y52632D01*
X595591Y53484D01*
X595721Y53509D01*
X595854Y53518D01*
X595854D01*
D01*
X599146D01*
X599279Y53509D01*
D02*
G37*
G36*
X559279D02*
X559409Y53484D01*
X562588Y52632D01*
X562714Y52589D01*
X562834Y52530D01*
X565684Y50884D01*
X565795Y50810D01*
X565895Y50722D01*
X565895Y50722D01*
X568222Y48395D01*
X568310Y48295D01*
X568384Y48184D01*
X568384Y48184D01*
X570030Y45334D01*
X570089Y45215D01*
X570132Y45088D01*
X570984Y41909D01*
X571009Y41779D01*
X571018Y41646D01*
D01*
Y41646D01*
Y40000D01*
Y0D01*
X571009Y-133D01*
X570984Y-264D01*
X570941Y-390D01*
X570882Y-509D01*
X570808Y-620D01*
X570720Y-720D01*
X570620Y-808D01*
X570509Y-882D01*
X570390Y-941D01*
X570263Y-984D01*
X570133Y-1009D01*
X570000Y-1018D01*
X545000D01*
X544867Y-1009D01*
X544737Y-984D01*
X544610Y-941D01*
X544491Y-882D01*
X544380Y-808D01*
X544280Y-720D01*
X544192Y-620D01*
X544118Y-509D01*
X544059Y-390D01*
X544016Y-264D01*
X543991Y-133D01*
X543982Y0D01*
Y40000D01*
Y41646D01*
X543991Y41779D01*
X544016Y41909D01*
X544868Y45088D01*
X544911Y45215D01*
X544970Y45334D01*
X544970Y45334D01*
X546616Y48184D01*
X546690Y48295D01*
X546777Y48395D01*
X546778Y48395D01*
X549105Y50722D01*
X549205Y50810D01*
X549316Y50884D01*
X549316Y50884D01*
X552166Y52530D01*
X552285Y52589D01*
X552412Y52632D01*
X555591Y53484D01*
X555721Y53509D01*
X555854Y53518D01*
D01*
X555854D01*
X559146D01*
X559279Y53509D01*
D02*
G37*
G36*
X519279D02*
X519409Y53484D01*
X522588Y52632D01*
X522714Y52589D01*
X522834Y52530D01*
X525684Y50884D01*
X525795Y50810D01*
X525895Y50722D01*
X525895Y50722D01*
X528222Y48395D01*
X528310Y48295D01*
X528384Y48184D01*
X528384Y48184D01*
X530030Y45334D01*
X530089Y45215D01*
X530132Y45088D01*
X530984Y41909D01*
X531009Y41779D01*
X531018Y41646D01*
D01*
Y41646D01*
Y40000D01*
Y0D01*
X531009Y-133D01*
X530984Y-264D01*
X530941Y-390D01*
X530882Y-509D01*
X530808Y-620D01*
X530720Y-720D01*
X530620Y-808D01*
X530509Y-882D01*
X530390Y-941D01*
X530263Y-984D01*
X530133Y-1009D01*
X530000Y-1018D01*
X505000D01*
X504867Y-1009D01*
X504737Y-984D01*
X504610Y-941D01*
X504491Y-882D01*
X504380Y-808D01*
X504280Y-720D01*
X504192Y-620D01*
X504118Y-509D01*
X504059Y-390D01*
X504016Y-264D01*
X503991Y-133D01*
X503982Y0D01*
Y40000D01*
Y41646D01*
X503991Y41779D01*
X504016Y41909D01*
X504868Y45088D01*
X504911Y45215D01*
X504970Y45334D01*
X504970Y45334D01*
X506616Y48184D01*
X506690Y48295D01*
X506777Y48395D01*
X506778Y48395D01*
X509105Y50722D01*
X509205Y50810D01*
X509316Y50884D01*
X509316Y50884D01*
X512166Y52530D01*
X512285Y52589D01*
X512412Y52632D01*
X515591Y53484D01*
X515721Y53509D01*
X515854Y53518D01*
X515854D01*
D01*
X519146D01*
X519279Y53509D01*
D02*
G37*
G36*
X434279D02*
X434409Y53484D01*
X437588Y52632D01*
X437714Y52589D01*
X437834Y52530D01*
X440684Y50884D01*
X440795Y50810D01*
X440895Y50722D01*
X440895Y50722D01*
X443222Y48395D01*
X443310Y48295D01*
X443384Y48184D01*
X443384Y48184D01*
X445030Y45334D01*
X445089Y45215D01*
X445132Y45088D01*
X445984Y41909D01*
X446009Y41779D01*
X446018Y41646D01*
D01*
Y41646D01*
Y40000D01*
Y0D01*
X446009Y-133D01*
X445984Y-264D01*
X445941Y-390D01*
X445882Y-509D01*
X445808Y-620D01*
X445720Y-720D01*
X445620Y-808D01*
X445509Y-882D01*
X445390Y-941D01*
X445263Y-984D01*
X445133Y-1009D01*
X445000Y-1018D01*
X420000D01*
X419867Y-1009D01*
X419737Y-984D01*
X419610Y-941D01*
X419491Y-882D01*
X419380Y-808D01*
X419280Y-720D01*
X419192Y-620D01*
X419118Y-509D01*
X419059Y-390D01*
X419016Y-264D01*
X418991Y-133D01*
X418982Y0D01*
Y40000D01*
Y41646D01*
X418991Y41779D01*
X419016Y41909D01*
X419868Y45088D01*
X419911Y45215D01*
X419970Y45334D01*
X419970Y45334D01*
X421616Y48184D01*
X421690Y48295D01*
X421777Y48395D01*
X421778Y48395D01*
X424105Y50722D01*
X424205Y50810D01*
X424316Y50884D01*
X424316Y50884D01*
X427166Y52530D01*
X427285Y52589D01*
X427412Y52632D01*
X430591Y53484D01*
X430721Y53509D01*
X430854Y53518D01*
D01*
X430854D01*
X434146D01*
X434279Y53509D01*
D02*
G37*
G36*
X394279D02*
X394409Y53484D01*
X397588Y52632D01*
X397714Y52589D01*
X397834Y52530D01*
X400684Y50884D01*
X400795Y50810D01*
X400895Y50722D01*
X400895Y50722D01*
X403222Y48395D01*
X403310Y48295D01*
X403384Y48184D01*
X403384Y48184D01*
X405030Y45334D01*
X405089Y45215D01*
X405132Y45088D01*
X405984Y41909D01*
X406009Y41779D01*
X406018Y41646D01*
D01*
Y41646D01*
Y40000D01*
Y0D01*
X406009Y-133D01*
X405984Y-264D01*
X405941Y-390D01*
X405882Y-509D01*
X405808Y-620D01*
X405720Y-720D01*
X405620Y-808D01*
X405509Y-882D01*
X405390Y-941D01*
X405263Y-984D01*
X405133Y-1009D01*
X405000Y-1018D01*
X380000D01*
X379867Y-1009D01*
X379737Y-984D01*
X379610Y-941D01*
X379491Y-882D01*
X379380Y-808D01*
X379280Y-720D01*
X379192Y-620D01*
X379118Y-509D01*
X379059Y-390D01*
X379016Y-264D01*
X378991Y-133D01*
X378982Y0D01*
Y40000D01*
Y41646D01*
X378991Y41779D01*
X379016Y41909D01*
X379868Y45088D01*
X379911Y45215D01*
X379970Y45334D01*
X379970Y45334D01*
X381616Y48184D01*
X381690Y48295D01*
X381777Y48395D01*
X381778Y48395D01*
X384105Y50722D01*
X384205Y50810D01*
X384316Y50884D01*
X384316Y50884D01*
X387166Y52530D01*
X387285Y52589D01*
X387412Y52632D01*
X390591Y53484D01*
X390721Y53509D01*
X390854Y53518D01*
X390854D01*
D01*
X394146D01*
X394279Y53509D01*
D02*
G37*
G36*
X354279D02*
X354409Y53484D01*
X357588Y52632D01*
X357714Y52589D01*
X357834Y52530D01*
X360684Y50884D01*
X360795Y50810D01*
X360895Y50722D01*
X360895Y50722D01*
X363222Y48395D01*
X363310Y48295D01*
X363384Y48184D01*
X363384Y48184D01*
X365030Y45334D01*
X365089Y45215D01*
X365132Y45088D01*
X365984Y41909D01*
X366009Y41779D01*
X366018Y41646D01*
D01*
Y41646D01*
Y40000D01*
Y0D01*
X366009Y-133D01*
X365984Y-264D01*
X365941Y-390D01*
X365882Y-509D01*
X365808Y-620D01*
X365720Y-720D01*
X365620Y-808D01*
X365509Y-882D01*
X365390Y-941D01*
X365263Y-984D01*
X365133Y-1009D01*
X365000Y-1018D01*
X340000D01*
X339867Y-1009D01*
X339737Y-984D01*
X339610Y-941D01*
X339491Y-882D01*
X339380Y-808D01*
X339280Y-720D01*
X339192Y-620D01*
X339118Y-509D01*
X339059Y-390D01*
X339016Y-264D01*
X338991Y-133D01*
X338982Y0D01*
Y40000D01*
Y41646D01*
X338991Y41779D01*
X339016Y41909D01*
X339868Y45088D01*
X339911Y45215D01*
X339970Y45334D01*
X339970Y45334D01*
X341616Y48184D01*
X341690Y48295D01*
X341777Y48395D01*
X341778Y48395D01*
X344105Y50722D01*
X344205Y50810D01*
X344316Y50884D01*
X344316Y50884D01*
X347166Y52530D01*
X347285Y52589D01*
X347412Y52632D01*
X350591Y53484D01*
X350721Y53509D01*
X350854Y53518D01*
D01*
X350854D01*
X354146D01*
X354279Y53509D01*
D02*
G37*
G36*
X269279D02*
X269409Y53484D01*
X272588Y52632D01*
X272714Y52589D01*
X272834Y52530D01*
X275684Y50884D01*
X275795Y50810D01*
X275895Y50722D01*
X275895Y50722D01*
X278222Y48395D01*
X278310Y48295D01*
X278384Y48184D01*
X278384Y48184D01*
X280030Y45334D01*
X280089Y45215D01*
X280132Y45088D01*
X280984Y41909D01*
X281010Y41779D01*
X281018Y41646D01*
D01*
Y41646D01*
Y40000D01*
Y0D01*
X281010Y-133D01*
X280984Y-264D01*
X280941Y-390D01*
X280882Y-509D01*
X280808Y-620D01*
X280720Y-720D01*
X280620Y-808D01*
X280509Y-882D01*
X280390Y-941D01*
X280264Y-984D01*
X280133Y-1009D01*
X280000Y-1018D01*
X255000D01*
X254867Y-1009D01*
X254736Y-984D01*
X254610Y-941D01*
X254491Y-882D01*
X254380Y-808D01*
X254280Y-720D01*
X254192Y-620D01*
X254118Y-509D01*
X254059Y-390D01*
X254016Y-264D01*
X253990Y-133D01*
X253982Y0D01*
Y40000D01*
Y41646D01*
X253990Y41779D01*
X254016Y41909D01*
X254868Y45088D01*
X254911Y45215D01*
X254970Y45334D01*
X254970Y45334D01*
X256616Y48184D01*
X256690Y48295D01*
X256777Y48395D01*
X256778Y48395D01*
X259105Y50722D01*
X259205Y50810D01*
X259316Y50884D01*
X259316Y50884D01*
X262166Y52530D01*
X262285Y52589D01*
X262412Y52632D01*
X265591Y53484D01*
X265721Y53509D01*
X265854Y53518D01*
X265854D01*
D01*
X269146D01*
X269279Y53509D01*
D02*
G37*
G36*
X229279D02*
X229409Y53484D01*
X232588Y52632D01*
X232714Y52589D01*
X232834Y52530D01*
X235684Y50884D01*
X235795Y50810D01*
X235895Y50722D01*
X235895Y50722D01*
X238222Y48395D01*
X238310Y48295D01*
X238384Y48184D01*
X238384Y48184D01*
X240030Y45334D01*
X240089Y45215D01*
X240132Y45088D01*
X240984Y41909D01*
X241010Y41779D01*
X241018Y41646D01*
D01*
Y41646D01*
Y40000D01*
Y0D01*
X241010Y-133D01*
X240984Y-264D01*
X240941Y-390D01*
X240882Y-509D01*
X240808Y-620D01*
X240720Y-720D01*
X240620Y-808D01*
X240509Y-882D01*
X240390Y-941D01*
X240264Y-984D01*
X240133Y-1009D01*
X240000Y-1018D01*
X215000D01*
X214867Y-1009D01*
X214736Y-984D01*
X214610Y-941D01*
X214491Y-882D01*
X214380Y-808D01*
X214280Y-720D01*
X214192Y-620D01*
X214118Y-509D01*
X214059Y-390D01*
X214016Y-264D01*
X213990Y-133D01*
X213982Y0D01*
Y40000D01*
Y41646D01*
X213990Y41779D01*
X214016Y41909D01*
X214868Y45088D01*
X214911Y45215D01*
X214970Y45334D01*
X214970Y45334D01*
X216616Y48184D01*
X216690Y48295D01*
X216777Y48395D01*
X216778Y48395D01*
X219105Y50722D01*
X219205Y50810D01*
X219316Y50884D01*
X219316Y50884D01*
X222166Y52530D01*
X222285Y52589D01*
X222412Y52632D01*
X225591Y53484D01*
X225721Y53509D01*
X225854Y53518D01*
D01*
X225854D01*
X229146D01*
X229279Y53509D01*
D02*
G37*
G36*
X189279D02*
X189409Y53484D01*
X192588Y52632D01*
X192714Y52589D01*
X192834Y52530D01*
X195684Y50884D01*
X195795Y50810D01*
X195895Y50722D01*
X195895Y50722D01*
X198222Y48395D01*
X198310Y48295D01*
X198384Y48184D01*
X198384Y48184D01*
X200030Y45334D01*
X200089Y45215D01*
X200132Y45088D01*
X200984Y41909D01*
X201010Y41779D01*
X201018Y41646D01*
D01*
Y41646D01*
Y40000D01*
Y0D01*
X201010Y-133D01*
X200984Y-264D01*
X200941Y-390D01*
X200882Y-509D01*
X200808Y-620D01*
X200720Y-720D01*
X200620Y-808D01*
X200509Y-882D01*
X200390Y-941D01*
X200264Y-984D01*
X200133Y-1009D01*
X200000Y-1018D01*
X175000D01*
X174867Y-1009D01*
X174736Y-984D01*
X174610Y-941D01*
X174491Y-882D01*
X174380Y-808D01*
X174280Y-720D01*
X174192Y-620D01*
X174118Y-509D01*
X174059Y-390D01*
X174016Y-264D01*
X173990Y-133D01*
X173982Y0D01*
Y40000D01*
Y41646D01*
X173990Y41779D01*
X174016Y41909D01*
X174868Y45088D01*
X174911Y45215D01*
X174970Y45334D01*
X174970Y45334D01*
X176616Y48184D01*
X176690Y48295D01*
X176777Y48395D01*
X176778Y48395D01*
X179105Y50722D01*
X179205Y50810D01*
X179316Y50884D01*
X179316Y50884D01*
X182166Y52530D01*
X182285Y52589D01*
X182412Y52632D01*
X185591Y53484D01*
X185721Y53509D01*
X185854Y53518D01*
X185854D01*
D01*
X189146D01*
X189279Y53509D01*
D02*
G37*
G36*
X104279D02*
X104409Y53484D01*
X107588Y52632D01*
X107714Y52589D01*
X107834Y52530D01*
X110684Y50884D01*
X110795Y50810D01*
X110895Y50722D01*
X110895Y50722D01*
X113222Y48395D01*
X113310Y48295D01*
X113384Y48184D01*
X113384Y48184D01*
X115030Y45334D01*
X115089Y45215D01*
X115132Y45088D01*
X115983Y41909D01*
X116010Y41779D01*
X116018Y41646D01*
D01*
Y41646D01*
Y40000D01*
Y0D01*
X116010Y-133D01*
X115983Y-264D01*
X115941Y-390D01*
X115882Y-509D01*
X115808Y-620D01*
X115720Y-720D01*
X115620Y-808D01*
X115509Y-882D01*
X115390Y-941D01*
X115264Y-984D01*
X115133Y-1009D01*
X115000Y-1018D01*
X90000D01*
X89867Y-1009D01*
X89736Y-984D01*
X89610Y-941D01*
X89491Y-882D01*
X89380Y-808D01*
X89280Y-720D01*
X89192Y-620D01*
X89118Y-509D01*
X89059Y-390D01*
X89017Y-264D01*
X88990Y-133D01*
X88982Y0D01*
Y40000D01*
Y41646D01*
X88990Y41779D01*
X89017Y41909D01*
X89868Y45088D01*
X89911Y45215D01*
X89970Y45334D01*
X89970Y45334D01*
X91616Y48184D01*
X91690Y48295D01*
X91777Y48395D01*
X91778Y48395D01*
X94105Y50722D01*
X94205Y50810D01*
X94316Y50884D01*
X94316Y50884D01*
X97166Y52530D01*
X97285Y52589D01*
X97412Y52632D01*
X100591Y53484D01*
X100721Y53509D01*
X100854Y53518D01*
D01*
X100854D01*
X104146D01*
X104279Y53509D01*
D02*
G37*
G36*
X64279D02*
X64409Y53484D01*
X67588Y52632D01*
X67714Y52589D01*
X67834Y52530D01*
X70684Y50884D01*
X70795Y50810D01*
X70895Y50722D01*
X70895Y50722D01*
X73222Y48395D01*
X73310Y48295D01*
X73384Y48184D01*
X73384Y48184D01*
X75030Y45334D01*
X75089Y45215D01*
X75132Y45088D01*
X75984Y41909D01*
X76009Y41779D01*
X76018Y41646D01*
D01*
Y41646D01*
Y40000D01*
Y0D01*
X76009Y-133D01*
X75984Y-264D01*
X75941Y-390D01*
X75882Y-509D01*
X75808Y-620D01*
X75720Y-720D01*
X75620Y-808D01*
X75509Y-882D01*
X75390Y-941D01*
X75264Y-984D01*
X75133Y-1009D01*
X75000Y-1018D01*
X50000D01*
X49867Y-1009D01*
X49736Y-984D01*
X49610Y-941D01*
X49491Y-882D01*
X49380Y-808D01*
X49280Y-720D01*
X49192Y-620D01*
X49118Y-509D01*
X49059Y-390D01*
X49016Y-264D01*
X48991Y-133D01*
X48982Y0D01*
Y40000D01*
Y41646D01*
X48991Y41779D01*
X49016Y41909D01*
X49868Y45088D01*
X49911Y45215D01*
X49970Y45334D01*
X49970Y45334D01*
X51616Y48184D01*
X51690Y48295D01*
X51778Y48395D01*
X51778Y48395D01*
X54105Y50722D01*
X54205Y50810D01*
X54316Y50884D01*
X54316Y50884D01*
X57166Y52530D01*
X57285Y52589D01*
X57412Y52632D01*
X60591Y53484D01*
X60721Y53509D01*
X60854Y53518D01*
X60854D01*
D01*
X64146D01*
X64279Y53509D01*
D02*
G37*
G36*
X24279D02*
X24409Y53484D01*
X27588Y52632D01*
X27714Y52589D01*
X27834Y52530D01*
X30684Y50884D01*
X30795Y50810D01*
X30895Y50722D01*
X30895Y50722D01*
X33222Y48395D01*
X33310Y48295D01*
X33384Y48184D01*
X33384Y48184D01*
X35030Y45334D01*
X35089Y45215D01*
X35132Y45088D01*
X35984Y41909D01*
X36010Y41779D01*
X36018Y41646D01*
D01*
Y41646D01*
Y40000D01*
Y0D01*
X36010Y-133D01*
X35984Y-264D01*
X35941Y-390D01*
X35882Y-509D01*
X35808Y-620D01*
X35720Y-720D01*
X35620Y-808D01*
X35509Y-882D01*
X35390Y-941D01*
X35264Y-984D01*
X35133Y-1009D01*
X35000Y-1018D01*
X10000D01*
X9867Y-1009D01*
X9736Y-984D01*
X9610Y-941D01*
X9491Y-882D01*
X9380Y-808D01*
X9280Y-720D01*
X9192Y-620D01*
X9118Y-509D01*
X9059Y-390D01*
X9017Y-264D01*
X8990Y-133D01*
X8982Y0D01*
Y40000D01*
Y41646D01*
X8990Y41779D01*
X9017Y41909D01*
X9868Y45088D01*
X9911Y45215D01*
X9970Y45334D01*
X9970Y45334D01*
X11616Y48184D01*
X11690Y48295D01*
X11777Y48395D01*
X11778Y48395D01*
X14105Y50722D01*
X14205Y50810D01*
X14316Y50884D01*
X14316Y50884D01*
X17166Y52530D01*
X17285Y52589D01*
X17412Y52632D01*
X20591Y53484D01*
X20721Y53509D01*
X20854Y53518D01*
D01*
X20854D01*
X24146D01*
X24279Y53509D01*
D02*
G37*
D23*
X142500Y940000D02*
D03*
Y20000D02*
D03*
X307500Y940000D02*
D03*
Y20000D02*
D03*
X472500Y940000D02*
D03*
Y20000D02*
D03*
X637500Y940000D02*
D03*
Y20000D02*
D03*
X802500Y940000D02*
D03*
Y20000D02*
D03*
X967500Y940000D02*
D03*
Y20000D02*
D03*
X1132500Y940000D02*
D03*
Y20000D02*
D03*
X1297500Y940000D02*
D03*
Y20000D02*
D03*
X1462500Y940000D02*
D03*
Y20000D02*
D03*
D24*
X142500Y920000D02*
D03*
Y40000D02*
D03*
X307500Y920000D02*
D03*
Y40000D02*
D03*
X472500Y920000D02*
D03*
Y40000D02*
D03*
X637500Y920000D02*
D03*
Y40000D02*
D03*
X802500Y920000D02*
D03*
Y40000D02*
D03*
X967500Y920000D02*
D03*
Y40000D02*
D03*
X1132500Y920000D02*
D03*
Y40000D02*
D03*
X1297500Y920000D02*
D03*
Y40000D02*
D03*
X1462500Y920000D02*
D03*
Y40000D02*
D03*
D25*
X62500Y920000D02*
D03*
X102500D02*
D03*
X22500D02*
D03*
X62500Y40000D02*
D03*
X102500D02*
D03*
X22500D02*
D03*
X227500Y920000D02*
D03*
X267500D02*
D03*
X187500D02*
D03*
X227500Y40000D02*
D03*
X267500D02*
D03*
X187500D02*
D03*
X392500Y920000D02*
D03*
X432500D02*
D03*
X352500D02*
D03*
X392500Y40000D02*
D03*
X432500D02*
D03*
X352500D02*
D03*
X557500Y920000D02*
D03*
X597500D02*
D03*
X517500D02*
D03*
X557500Y40000D02*
D03*
X597500D02*
D03*
X517500D02*
D03*
X722500Y920000D02*
D03*
X762500D02*
D03*
X682500D02*
D03*
X722500Y40000D02*
D03*
X762500D02*
D03*
X682500D02*
D03*
X887500Y920000D02*
D03*
X927500D02*
D03*
X847500D02*
D03*
X887500Y40000D02*
D03*
X927500D02*
D03*
X847500D02*
D03*
X1052500Y920000D02*
D03*
X1092500D02*
D03*
X1012500D02*
D03*
X1052500Y40000D02*
D03*
X1092500D02*
D03*
X1012500D02*
D03*
X1217500Y920000D02*
D03*
X1257500D02*
D03*
X1177500D02*
D03*
X1217500Y40000D02*
D03*
X1257500D02*
D03*
X1177500D02*
D03*
X1382500Y920000D02*
D03*
X1422500D02*
D03*
X1342500D02*
D03*
X1382500Y40000D02*
D03*
X1422500D02*
D03*
X1342500D02*
D03*
D26*
X28500Y119500D02*
D03*
Y136500D02*
D03*
Y520500D02*
D03*
Y503500D02*
D03*
Y456500D02*
D03*
Y439500D02*
D03*
Y328500D02*
D03*
Y311500D02*
D03*
Y392500D02*
D03*
Y375500D02*
D03*
Y584500D02*
D03*
Y567500D02*
D03*
Y648500D02*
D03*
Y631500D02*
D03*
Y712500D02*
D03*
Y695500D02*
D03*
Y776500D02*
D03*
Y759500D02*
D03*
Y840500D02*
D03*
Y823500D02*
D03*
Y264500D02*
D03*
Y247500D02*
D03*
Y200500D02*
D03*
Y183500D02*
D03*
X193500Y119500D02*
D03*
Y136500D02*
D03*
Y520500D02*
D03*
Y503500D02*
D03*
Y456500D02*
D03*
Y439500D02*
D03*
Y328500D02*
D03*
Y311500D02*
D03*
Y392500D02*
D03*
Y375500D02*
D03*
Y584500D02*
D03*
Y567500D02*
D03*
Y648500D02*
D03*
Y631500D02*
D03*
Y712500D02*
D03*
Y695500D02*
D03*
Y776500D02*
D03*
Y759500D02*
D03*
Y840500D02*
D03*
Y823500D02*
D03*
Y264500D02*
D03*
Y247500D02*
D03*
Y200500D02*
D03*
Y183500D02*
D03*
X358500Y119500D02*
D03*
Y136500D02*
D03*
Y520500D02*
D03*
Y503500D02*
D03*
Y456500D02*
D03*
Y439500D02*
D03*
Y328500D02*
D03*
Y311500D02*
D03*
Y392500D02*
D03*
Y375500D02*
D03*
Y584500D02*
D03*
Y567500D02*
D03*
Y648500D02*
D03*
Y631500D02*
D03*
Y712500D02*
D03*
Y695500D02*
D03*
Y776500D02*
D03*
Y759500D02*
D03*
Y840500D02*
D03*
Y823500D02*
D03*
Y264500D02*
D03*
Y247500D02*
D03*
Y200500D02*
D03*
Y183500D02*
D03*
X523500Y119500D02*
D03*
Y136500D02*
D03*
Y520500D02*
D03*
Y503500D02*
D03*
Y456500D02*
D03*
Y439500D02*
D03*
Y328500D02*
D03*
Y311500D02*
D03*
Y392500D02*
D03*
Y375500D02*
D03*
Y584500D02*
D03*
Y567500D02*
D03*
Y648500D02*
D03*
Y631500D02*
D03*
Y712500D02*
D03*
Y695500D02*
D03*
Y776500D02*
D03*
Y759500D02*
D03*
Y840500D02*
D03*
Y823500D02*
D03*
Y264500D02*
D03*
Y247500D02*
D03*
Y200500D02*
D03*
Y183500D02*
D03*
X688500Y119500D02*
D03*
Y136500D02*
D03*
Y520500D02*
D03*
Y503500D02*
D03*
Y456500D02*
D03*
Y439500D02*
D03*
Y328500D02*
D03*
Y311500D02*
D03*
Y392500D02*
D03*
Y375500D02*
D03*
Y584500D02*
D03*
Y567500D02*
D03*
Y648500D02*
D03*
Y631500D02*
D03*
Y712500D02*
D03*
Y695500D02*
D03*
Y776500D02*
D03*
Y759500D02*
D03*
Y840500D02*
D03*
Y823500D02*
D03*
Y264500D02*
D03*
Y247500D02*
D03*
Y200500D02*
D03*
Y183500D02*
D03*
X853500Y119500D02*
D03*
Y136500D02*
D03*
Y520500D02*
D03*
Y503500D02*
D03*
Y456500D02*
D03*
Y439500D02*
D03*
Y328500D02*
D03*
Y311500D02*
D03*
Y392500D02*
D03*
Y375500D02*
D03*
Y584500D02*
D03*
Y567500D02*
D03*
Y648500D02*
D03*
Y631500D02*
D03*
Y712500D02*
D03*
Y695500D02*
D03*
Y776500D02*
D03*
Y759500D02*
D03*
Y840500D02*
D03*
Y823500D02*
D03*
Y264500D02*
D03*
Y247500D02*
D03*
Y200500D02*
D03*
Y183500D02*
D03*
X1018500Y119500D02*
D03*
Y136500D02*
D03*
Y520500D02*
D03*
Y503500D02*
D03*
Y456500D02*
D03*
Y439500D02*
D03*
Y328500D02*
D03*
Y311500D02*
D03*
Y392500D02*
D03*
Y375500D02*
D03*
Y584500D02*
D03*
Y567500D02*
D03*
Y648500D02*
D03*
Y631500D02*
D03*
Y712500D02*
D03*
Y695500D02*
D03*
Y776500D02*
D03*
Y759500D02*
D03*
Y840500D02*
D03*
Y823500D02*
D03*
Y264500D02*
D03*
Y247500D02*
D03*
Y200500D02*
D03*
Y183500D02*
D03*
X1183500Y119500D02*
D03*
Y136500D02*
D03*
Y520500D02*
D03*
Y503500D02*
D03*
Y456500D02*
D03*
Y439500D02*
D03*
Y328500D02*
D03*
Y311500D02*
D03*
Y392500D02*
D03*
Y375500D02*
D03*
Y584500D02*
D03*
Y567500D02*
D03*
Y648500D02*
D03*
Y631500D02*
D03*
Y712500D02*
D03*
Y695500D02*
D03*
Y776500D02*
D03*
Y759500D02*
D03*
Y840500D02*
D03*
Y823500D02*
D03*
Y264500D02*
D03*
Y247500D02*
D03*
Y200500D02*
D03*
Y183500D02*
D03*
X1348500Y119500D02*
D03*
Y136500D02*
D03*
Y520500D02*
D03*
Y503500D02*
D03*
Y456500D02*
D03*
Y439500D02*
D03*
Y328500D02*
D03*
Y311500D02*
D03*
Y392500D02*
D03*
Y375500D02*
D03*
Y584500D02*
D03*
Y567500D02*
D03*
Y648500D02*
D03*
Y631500D02*
D03*
Y712500D02*
D03*
Y695500D02*
D03*
Y776500D02*
D03*
Y759500D02*
D03*
Y840500D02*
D03*
Y823500D02*
D03*
Y264500D02*
D03*
Y247500D02*
D03*
Y200500D02*
D03*
Y183500D02*
D03*
D27*
X60000Y144500D02*
D03*
Y111500D02*
D03*
X109000D02*
D03*
Y144500D02*
D03*
X60000Y848500D02*
D03*
Y815500D02*
D03*
X109000D02*
D03*
Y848500D02*
D03*
X60000Y528500D02*
D03*
Y495500D02*
D03*
X109000D02*
D03*
Y528500D02*
D03*
X60000Y464500D02*
D03*
Y431500D02*
D03*
X109000D02*
D03*
Y464500D02*
D03*
X60000Y400500D02*
D03*
Y367500D02*
D03*
X109000D02*
D03*
Y400500D02*
D03*
X60000Y592500D02*
D03*
Y559500D02*
D03*
X109000D02*
D03*
Y592500D02*
D03*
X60000Y336500D02*
D03*
Y303500D02*
D03*
X109000D02*
D03*
Y336500D02*
D03*
X60000Y720500D02*
D03*
Y687500D02*
D03*
X109000D02*
D03*
Y720500D02*
D03*
X60000Y656500D02*
D03*
Y623500D02*
D03*
X109000D02*
D03*
Y656500D02*
D03*
X60000Y784500D02*
D03*
Y751500D02*
D03*
X109000D02*
D03*
Y784500D02*
D03*
X60000Y208500D02*
D03*
Y175500D02*
D03*
X109000D02*
D03*
Y208500D02*
D03*
X60000Y272500D02*
D03*
Y239500D02*
D03*
X109000D02*
D03*
Y272500D02*
D03*
X225000Y144500D02*
D03*
Y111500D02*
D03*
X274000D02*
D03*
Y144500D02*
D03*
X225000Y848500D02*
D03*
Y815500D02*
D03*
X274000D02*
D03*
Y848500D02*
D03*
X225000Y528500D02*
D03*
Y495500D02*
D03*
X274000D02*
D03*
Y528500D02*
D03*
X225000Y464500D02*
D03*
Y431500D02*
D03*
X274000D02*
D03*
Y464500D02*
D03*
X225000Y400500D02*
D03*
Y367500D02*
D03*
X274000D02*
D03*
Y400500D02*
D03*
X225000Y592500D02*
D03*
Y559500D02*
D03*
X274000D02*
D03*
Y592500D02*
D03*
X225000Y336500D02*
D03*
Y303500D02*
D03*
X274000D02*
D03*
Y336500D02*
D03*
X225000Y720500D02*
D03*
Y687500D02*
D03*
X274000D02*
D03*
Y720500D02*
D03*
X225000Y656500D02*
D03*
Y623500D02*
D03*
X274000D02*
D03*
Y656500D02*
D03*
X225000Y784500D02*
D03*
Y751500D02*
D03*
X274000D02*
D03*
Y784500D02*
D03*
X225000Y208500D02*
D03*
Y175500D02*
D03*
X274000D02*
D03*
Y208500D02*
D03*
X225000Y272500D02*
D03*
Y239500D02*
D03*
X274000D02*
D03*
Y272500D02*
D03*
X390000Y144500D02*
D03*
Y111500D02*
D03*
X439000D02*
D03*
Y144500D02*
D03*
X390000Y848500D02*
D03*
Y815500D02*
D03*
X439000D02*
D03*
Y848500D02*
D03*
X390000Y528500D02*
D03*
Y495500D02*
D03*
X439000D02*
D03*
Y528500D02*
D03*
X390000Y464500D02*
D03*
Y431500D02*
D03*
X439000D02*
D03*
Y464500D02*
D03*
X390000Y400500D02*
D03*
Y367500D02*
D03*
X439000D02*
D03*
Y400500D02*
D03*
X390000Y592500D02*
D03*
Y559500D02*
D03*
X439000D02*
D03*
Y592500D02*
D03*
X390000Y336500D02*
D03*
Y303500D02*
D03*
X439000D02*
D03*
Y336500D02*
D03*
X390000Y720500D02*
D03*
Y687500D02*
D03*
X439000D02*
D03*
Y720500D02*
D03*
X390000Y656500D02*
D03*
Y623500D02*
D03*
X439000D02*
D03*
Y656500D02*
D03*
X390000Y784500D02*
D03*
Y751500D02*
D03*
X439000D02*
D03*
Y784500D02*
D03*
X390000Y208500D02*
D03*
Y175500D02*
D03*
X439000D02*
D03*
Y208500D02*
D03*
X390000Y272500D02*
D03*
Y239500D02*
D03*
X439000D02*
D03*
Y272500D02*
D03*
X555000Y144500D02*
D03*
Y111500D02*
D03*
X604000D02*
D03*
Y144500D02*
D03*
X555000Y848500D02*
D03*
Y815500D02*
D03*
X604000D02*
D03*
Y848500D02*
D03*
X555000Y528500D02*
D03*
Y495500D02*
D03*
X604000D02*
D03*
Y528500D02*
D03*
X555000Y464500D02*
D03*
Y431500D02*
D03*
X604000D02*
D03*
Y464500D02*
D03*
X555000Y400500D02*
D03*
Y367500D02*
D03*
X604000D02*
D03*
Y400500D02*
D03*
X555000Y592500D02*
D03*
Y559500D02*
D03*
X604000D02*
D03*
Y592500D02*
D03*
X555000Y336500D02*
D03*
Y303500D02*
D03*
X604000D02*
D03*
Y336500D02*
D03*
X555000Y720500D02*
D03*
Y687500D02*
D03*
X604000D02*
D03*
Y720500D02*
D03*
X555000Y656500D02*
D03*
Y623500D02*
D03*
X604000D02*
D03*
Y656500D02*
D03*
X555000Y784500D02*
D03*
Y751500D02*
D03*
X604000D02*
D03*
Y784500D02*
D03*
X555000Y208500D02*
D03*
Y175500D02*
D03*
X604000D02*
D03*
Y208500D02*
D03*
X555000Y272500D02*
D03*
Y239500D02*
D03*
X604000D02*
D03*
Y272500D02*
D03*
X720000Y144500D02*
D03*
Y111500D02*
D03*
X769000D02*
D03*
Y144500D02*
D03*
X720000Y848500D02*
D03*
Y815500D02*
D03*
X769000D02*
D03*
Y848500D02*
D03*
X720000Y528500D02*
D03*
Y495500D02*
D03*
X769000D02*
D03*
Y528500D02*
D03*
X720000Y464500D02*
D03*
Y431500D02*
D03*
X769000D02*
D03*
Y464500D02*
D03*
X720000Y400500D02*
D03*
Y367500D02*
D03*
X769000D02*
D03*
Y400500D02*
D03*
X720000Y592500D02*
D03*
Y559500D02*
D03*
X769000D02*
D03*
Y592500D02*
D03*
X720000Y336500D02*
D03*
Y303500D02*
D03*
X769000D02*
D03*
Y336500D02*
D03*
X720000Y720500D02*
D03*
Y687500D02*
D03*
X769000D02*
D03*
Y720500D02*
D03*
X720000Y656500D02*
D03*
Y623500D02*
D03*
X769000D02*
D03*
Y656500D02*
D03*
X720000Y784500D02*
D03*
Y751500D02*
D03*
X769000D02*
D03*
Y784500D02*
D03*
X720000Y208500D02*
D03*
Y175500D02*
D03*
X769000D02*
D03*
Y208500D02*
D03*
X720000Y272500D02*
D03*
Y239500D02*
D03*
X769000D02*
D03*
Y272500D02*
D03*
X885000Y144500D02*
D03*
Y111500D02*
D03*
X934000D02*
D03*
Y144500D02*
D03*
X885000Y848500D02*
D03*
Y815500D02*
D03*
X934000D02*
D03*
Y848500D02*
D03*
X885000Y528500D02*
D03*
Y495500D02*
D03*
X934000D02*
D03*
Y528500D02*
D03*
X885000Y464500D02*
D03*
Y431500D02*
D03*
X934000D02*
D03*
Y464500D02*
D03*
X885000Y400500D02*
D03*
Y367500D02*
D03*
X934000D02*
D03*
Y400500D02*
D03*
X885000Y592500D02*
D03*
Y559500D02*
D03*
X934000D02*
D03*
Y592500D02*
D03*
X885000Y336500D02*
D03*
Y303500D02*
D03*
X934000D02*
D03*
Y336500D02*
D03*
X885000Y720500D02*
D03*
Y687500D02*
D03*
X934000D02*
D03*
Y720500D02*
D03*
X885000Y656500D02*
D03*
Y623500D02*
D03*
X934000D02*
D03*
Y656500D02*
D03*
X885000Y784500D02*
D03*
Y751500D02*
D03*
X934000D02*
D03*
Y784500D02*
D03*
X885000Y208500D02*
D03*
Y175500D02*
D03*
X934000D02*
D03*
Y208500D02*
D03*
X885000Y272500D02*
D03*
Y239500D02*
D03*
X934000D02*
D03*
Y272500D02*
D03*
X1050000Y144500D02*
D03*
Y111500D02*
D03*
X1099000D02*
D03*
Y144500D02*
D03*
X1050000Y848500D02*
D03*
Y815500D02*
D03*
X1099000D02*
D03*
Y848500D02*
D03*
X1050000Y528500D02*
D03*
Y495500D02*
D03*
X1099000D02*
D03*
Y528500D02*
D03*
X1050000Y464500D02*
D03*
Y431500D02*
D03*
X1099000D02*
D03*
Y464500D02*
D03*
X1050000Y400500D02*
D03*
Y367500D02*
D03*
X1099000D02*
D03*
Y400500D02*
D03*
X1050000Y592500D02*
D03*
Y559500D02*
D03*
X1099000D02*
D03*
Y592500D02*
D03*
X1050000Y336500D02*
D03*
Y303500D02*
D03*
X1099000D02*
D03*
Y336500D02*
D03*
X1050000Y720500D02*
D03*
Y687500D02*
D03*
X1099000D02*
D03*
Y720500D02*
D03*
X1050000Y656500D02*
D03*
Y623500D02*
D03*
X1099000D02*
D03*
Y656500D02*
D03*
X1050000Y784500D02*
D03*
Y751500D02*
D03*
X1099000D02*
D03*
Y784500D02*
D03*
X1050000Y208500D02*
D03*
Y175500D02*
D03*
X1099000D02*
D03*
Y208500D02*
D03*
X1050000Y272500D02*
D03*
Y239500D02*
D03*
X1099000D02*
D03*
Y272500D02*
D03*
X1215000Y144500D02*
D03*
Y111500D02*
D03*
X1264000D02*
D03*
Y144500D02*
D03*
X1215000Y848500D02*
D03*
Y815500D02*
D03*
X1264000D02*
D03*
Y848500D02*
D03*
X1215000Y528500D02*
D03*
Y495500D02*
D03*
X1264000D02*
D03*
Y528500D02*
D03*
X1215000Y464500D02*
D03*
Y431500D02*
D03*
X1264000D02*
D03*
Y464500D02*
D03*
X1215000Y400500D02*
D03*
Y367500D02*
D03*
X1264000D02*
D03*
Y400500D02*
D03*
X1215000Y592500D02*
D03*
Y559500D02*
D03*
X1264000D02*
D03*
Y592500D02*
D03*
X1215000Y336500D02*
D03*
Y303500D02*
D03*
X1264000D02*
D03*
Y336500D02*
D03*
X1215000Y720500D02*
D03*
Y687500D02*
D03*
X1264000D02*
D03*
Y720500D02*
D03*
X1215000Y656500D02*
D03*
Y623500D02*
D03*
X1264000D02*
D03*
Y656500D02*
D03*
X1215000Y784500D02*
D03*
Y751500D02*
D03*
X1264000D02*
D03*
Y784500D02*
D03*
X1215000Y208500D02*
D03*
Y175500D02*
D03*
X1264000D02*
D03*
Y208500D02*
D03*
X1215000Y272500D02*
D03*
Y239500D02*
D03*
X1264000D02*
D03*
Y272500D02*
D03*
X1380000Y144500D02*
D03*
Y111500D02*
D03*
X1429000D02*
D03*
Y144500D02*
D03*
X1380000Y848500D02*
D03*
Y815500D02*
D03*
X1429000D02*
D03*
Y848500D02*
D03*
X1380000Y528500D02*
D03*
Y495500D02*
D03*
X1429000D02*
D03*
Y528500D02*
D03*
X1380000Y464500D02*
D03*
Y431500D02*
D03*
X1429000D02*
D03*
Y464500D02*
D03*
X1380000Y400500D02*
D03*
Y367500D02*
D03*
X1429000D02*
D03*
Y400500D02*
D03*
X1380000Y592500D02*
D03*
Y559500D02*
D03*
X1429000D02*
D03*
Y592500D02*
D03*
X1380000Y336500D02*
D03*
Y303500D02*
D03*
X1429000D02*
D03*
Y336500D02*
D03*
X1380000Y720500D02*
D03*
Y687500D02*
D03*
X1429000D02*
D03*
Y720500D02*
D03*
X1380000Y656500D02*
D03*
Y623500D02*
D03*
X1429000D02*
D03*
Y656500D02*
D03*
X1380000Y784500D02*
D03*
Y751500D02*
D03*
X1429000D02*
D03*
Y784500D02*
D03*
X1380000Y208500D02*
D03*
Y175500D02*
D03*
X1429000D02*
D03*
Y208500D02*
D03*
X1380000Y272500D02*
D03*
Y239500D02*
D03*
X1429000D02*
D03*
Y272500D02*
D03*
D28*
X109000Y815500D02*
D03*
Y751500D02*
D03*
Y687500D02*
D03*
Y623500D02*
D03*
Y559500D02*
D03*
Y495500D02*
D03*
Y431500D02*
D03*
Y367500D02*
D03*
Y303500D02*
D03*
Y239500D02*
D03*
Y175500D02*
D03*
Y111500D02*
D03*
X60000Y144500D02*
D03*
X109000Y848500D02*
D03*
X60000D02*
D03*
Y815500D02*
D03*
X109000Y784500D02*
D03*
X60000D02*
D03*
Y751500D02*
D03*
X109000Y720500D02*
D03*
X60000D02*
D03*
Y687500D02*
D03*
X109000Y656500D02*
D03*
X60000D02*
D03*
Y623500D02*
D03*
X109000Y592500D02*
D03*
X60000D02*
D03*
Y559500D02*
D03*
X109000Y528500D02*
D03*
X60000D02*
D03*
Y495500D02*
D03*
X109000Y464500D02*
D03*
X60000D02*
D03*
Y431500D02*
D03*
X109000Y400500D02*
D03*
X60000D02*
D03*
Y367500D02*
D03*
X109000Y336500D02*
D03*
X60000D02*
D03*
Y303500D02*
D03*
X109000Y272500D02*
D03*
X60000D02*
D03*
Y239500D02*
D03*
X109000Y208500D02*
D03*
X60000D02*
D03*
Y175500D02*
D03*
Y111500D02*
D03*
X109000Y144500D02*
D03*
X274000Y815500D02*
D03*
Y751500D02*
D03*
Y687500D02*
D03*
Y623500D02*
D03*
Y559500D02*
D03*
Y495500D02*
D03*
Y431500D02*
D03*
Y367500D02*
D03*
Y303500D02*
D03*
Y239500D02*
D03*
Y175500D02*
D03*
Y111500D02*
D03*
X225000Y144500D02*
D03*
X274000Y848500D02*
D03*
X225000D02*
D03*
Y815500D02*
D03*
X274000Y784500D02*
D03*
X225000D02*
D03*
Y751500D02*
D03*
X274000Y720500D02*
D03*
X225000D02*
D03*
Y687500D02*
D03*
X274000Y656500D02*
D03*
X225000D02*
D03*
Y623500D02*
D03*
X274000Y592500D02*
D03*
X225000D02*
D03*
Y559500D02*
D03*
X274000Y528500D02*
D03*
X225000D02*
D03*
Y495500D02*
D03*
X274000Y464500D02*
D03*
X225000D02*
D03*
Y431500D02*
D03*
X274000Y400500D02*
D03*
X225000D02*
D03*
Y367500D02*
D03*
X274000Y336500D02*
D03*
X225000D02*
D03*
Y303500D02*
D03*
X274000Y272500D02*
D03*
X225000D02*
D03*
Y239500D02*
D03*
X274000Y208500D02*
D03*
X225000D02*
D03*
Y175500D02*
D03*
Y111500D02*
D03*
X274000Y144500D02*
D03*
X439000Y815500D02*
D03*
Y751500D02*
D03*
Y687500D02*
D03*
Y623500D02*
D03*
Y559500D02*
D03*
Y495500D02*
D03*
Y431500D02*
D03*
Y367500D02*
D03*
Y303500D02*
D03*
Y239500D02*
D03*
Y175500D02*
D03*
Y111500D02*
D03*
X390000Y144500D02*
D03*
X439000Y848500D02*
D03*
X390000D02*
D03*
Y815500D02*
D03*
X439000Y784500D02*
D03*
X390000D02*
D03*
Y751500D02*
D03*
X439000Y720500D02*
D03*
X390000D02*
D03*
Y687500D02*
D03*
X439000Y656500D02*
D03*
X390000D02*
D03*
Y623500D02*
D03*
X439000Y592500D02*
D03*
X390000D02*
D03*
Y559500D02*
D03*
X439000Y528500D02*
D03*
X390000D02*
D03*
Y495500D02*
D03*
X439000Y464500D02*
D03*
X390000D02*
D03*
Y431500D02*
D03*
X439000Y400500D02*
D03*
X390000D02*
D03*
Y367500D02*
D03*
X439000Y336500D02*
D03*
X390000D02*
D03*
Y303500D02*
D03*
X439000Y272500D02*
D03*
X390000D02*
D03*
Y239500D02*
D03*
X439000Y208500D02*
D03*
X390000D02*
D03*
Y175500D02*
D03*
Y111500D02*
D03*
X439000Y144500D02*
D03*
X604000Y815500D02*
D03*
Y751500D02*
D03*
Y687500D02*
D03*
Y623500D02*
D03*
Y559500D02*
D03*
Y495500D02*
D03*
Y431500D02*
D03*
Y367500D02*
D03*
Y303500D02*
D03*
Y239500D02*
D03*
Y175500D02*
D03*
Y111500D02*
D03*
X555000Y144500D02*
D03*
X604000Y848500D02*
D03*
X555000D02*
D03*
Y815500D02*
D03*
X604000Y784500D02*
D03*
X555000D02*
D03*
Y751500D02*
D03*
X604000Y720500D02*
D03*
X555000D02*
D03*
Y687500D02*
D03*
X604000Y656500D02*
D03*
X555000D02*
D03*
Y623500D02*
D03*
X604000Y592500D02*
D03*
X555000D02*
D03*
Y559500D02*
D03*
X604000Y528500D02*
D03*
X555000D02*
D03*
Y495500D02*
D03*
X604000Y464500D02*
D03*
X555000D02*
D03*
Y431500D02*
D03*
X604000Y400500D02*
D03*
X555000D02*
D03*
Y367500D02*
D03*
X604000Y336500D02*
D03*
X555000D02*
D03*
Y303500D02*
D03*
X604000Y272500D02*
D03*
X555000D02*
D03*
Y239500D02*
D03*
X604000Y208500D02*
D03*
X555000D02*
D03*
Y175500D02*
D03*
Y111500D02*
D03*
X604000Y144500D02*
D03*
X769000Y815500D02*
D03*
Y751500D02*
D03*
Y687500D02*
D03*
Y623500D02*
D03*
Y559500D02*
D03*
Y495500D02*
D03*
Y431500D02*
D03*
Y367500D02*
D03*
Y303500D02*
D03*
Y239500D02*
D03*
Y175500D02*
D03*
Y111500D02*
D03*
X720000Y144500D02*
D03*
X769000Y848500D02*
D03*
X720000D02*
D03*
Y815500D02*
D03*
X769000Y784500D02*
D03*
X720000D02*
D03*
Y751500D02*
D03*
X769000Y720500D02*
D03*
X720000D02*
D03*
Y687500D02*
D03*
X769000Y656500D02*
D03*
X720000D02*
D03*
Y623500D02*
D03*
X769000Y592500D02*
D03*
X720000D02*
D03*
Y559500D02*
D03*
X769000Y528500D02*
D03*
X720000D02*
D03*
Y495500D02*
D03*
X769000Y464500D02*
D03*
X720000D02*
D03*
Y431500D02*
D03*
X769000Y400500D02*
D03*
X720000D02*
D03*
Y367500D02*
D03*
X769000Y336500D02*
D03*
X720000D02*
D03*
Y303500D02*
D03*
X769000Y272500D02*
D03*
X720000D02*
D03*
Y239500D02*
D03*
X769000Y208500D02*
D03*
X720000D02*
D03*
Y175500D02*
D03*
Y111500D02*
D03*
X769000Y144500D02*
D03*
X934000Y815500D02*
D03*
Y751500D02*
D03*
Y687500D02*
D03*
Y623500D02*
D03*
Y559500D02*
D03*
Y495500D02*
D03*
Y431500D02*
D03*
Y367500D02*
D03*
Y303500D02*
D03*
Y239500D02*
D03*
Y175500D02*
D03*
Y111500D02*
D03*
X885000Y144500D02*
D03*
X934000Y848500D02*
D03*
X885000D02*
D03*
Y815500D02*
D03*
X934000Y784500D02*
D03*
X885000D02*
D03*
Y751500D02*
D03*
X934000Y720500D02*
D03*
X885000D02*
D03*
Y687500D02*
D03*
X934000Y656500D02*
D03*
X885000D02*
D03*
Y623500D02*
D03*
X934000Y592500D02*
D03*
X885000D02*
D03*
Y559500D02*
D03*
X934000Y528500D02*
D03*
X885000D02*
D03*
Y495500D02*
D03*
X934000Y464500D02*
D03*
X885000D02*
D03*
Y431500D02*
D03*
X934000Y400500D02*
D03*
X885000D02*
D03*
Y367500D02*
D03*
X934000Y336500D02*
D03*
X885000D02*
D03*
Y303500D02*
D03*
X934000Y272500D02*
D03*
X885000D02*
D03*
Y239500D02*
D03*
X934000Y208500D02*
D03*
X885000D02*
D03*
Y175500D02*
D03*
Y111500D02*
D03*
X934000Y144500D02*
D03*
X1099000Y815500D02*
D03*
Y751500D02*
D03*
Y687500D02*
D03*
Y623500D02*
D03*
Y559500D02*
D03*
Y495500D02*
D03*
Y431500D02*
D03*
Y367500D02*
D03*
Y303500D02*
D03*
Y239500D02*
D03*
Y175500D02*
D03*
Y111500D02*
D03*
X1050000Y144500D02*
D03*
X1099000Y848500D02*
D03*
X1050000D02*
D03*
Y815500D02*
D03*
X1099000Y784500D02*
D03*
X1050000D02*
D03*
Y751500D02*
D03*
X1099000Y720500D02*
D03*
X1050000D02*
D03*
Y687500D02*
D03*
X1099000Y656500D02*
D03*
X1050000D02*
D03*
Y623500D02*
D03*
X1099000Y592500D02*
D03*
X1050000D02*
D03*
Y559500D02*
D03*
X1099000Y528500D02*
D03*
X1050000D02*
D03*
Y495500D02*
D03*
X1099000Y464500D02*
D03*
X1050000D02*
D03*
Y431500D02*
D03*
X1099000Y400500D02*
D03*
X1050000D02*
D03*
Y367500D02*
D03*
X1099000Y336500D02*
D03*
X1050000D02*
D03*
Y303500D02*
D03*
X1099000Y272500D02*
D03*
X1050000D02*
D03*
Y239500D02*
D03*
X1099000Y208500D02*
D03*
X1050000D02*
D03*
Y175500D02*
D03*
Y111500D02*
D03*
X1099000Y144500D02*
D03*
X1264000Y815500D02*
D03*
Y751500D02*
D03*
Y687500D02*
D03*
Y623500D02*
D03*
Y559500D02*
D03*
Y495500D02*
D03*
Y431500D02*
D03*
Y367500D02*
D03*
Y303500D02*
D03*
Y239500D02*
D03*
Y175500D02*
D03*
Y111500D02*
D03*
X1215000Y144500D02*
D03*
X1264000Y848500D02*
D03*
X1215000D02*
D03*
Y815500D02*
D03*
X1264000Y784500D02*
D03*
X1215000D02*
D03*
Y751500D02*
D03*
X1264000Y720500D02*
D03*
X1215000D02*
D03*
Y687500D02*
D03*
X1264000Y656500D02*
D03*
X1215000D02*
D03*
Y623500D02*
D03*
X1264000Y592500D02*
D03*
X1215000D02*
D03*
Y559500D02*
D03*
X1264000Y528500D02*
D03*
X1215000D02*
D03*
Y495500D02*
D03*
X1264000Y464500D02*
D03*
X1215000D02*
D03*
Y431500D02*
D03*
X1264000Y400500D02*
D03*
X1215000D02*
D03*
Y367500D02*
D03*
X1264000Y336500D02*
D03*
X1215000D02*
D03*
Y303500D02*
D03*
X1264000Y272500D02*
D03*
X1215000D02*
D03*
Y239500D02*
D03*
X1264000Y208500D02*
D03*
X1215000D02*
D03*
Y175500D02*
D03*
Y111500D02*
D03*
X1264000Y144500D02*
D03*
X1429000Y815500D02*
D03*
Y751500D02*
D03*
Y687500D02*
D03*
Y623500D02*
D03*
Y559500D02*
D03*
Y495500D02*
D03*
Y431500D02*
D03*
Y367500D02*
D03*
Y303500D02*
D03*
Y239500D02*
D03*
Y175500D02*
D03*
Y111500D02*
D03*
X1380000Y144500D02*
D03*
X1429000Y848500D02*
D03*
X1380000D02*
D03*
Y815500D02*
D03*
X1429000Y784500D02*
D03*
X1380000D02*
D03*
Y751500D02*
D03*
X1429000Y720500D02*
D03*
X1380000D02*
D03*
Y687500D02*
D03*
X1429000Y656500D02*
D03*
X1380000D02*
D03*
Y623500D02*
D03*
X1429000Y592500D02*
D03*
X1380000D02*
D03*
Y559500D02*
D03*
X1429000Y528500D02*
D03*
X1380000D02*
D03*
Y495500D02*
D03*
X1429000Y464500D02*
D03*
X1380000D02*
D03*
Y431500D02*
D03*
X1429000Y400500D02*
D03*
X1380000D02*
D03*
Y367500D02*
D03*
X1429000Y336500D02*
D03*
X1380000D02*
D03*
Y303500D02*
D03*
X1429000Y272500D02*
D03*
X1380000D02*
D03*
Y239500D02*
D03*
X1429000Y208500D02*
D03*
X1380000D02*
D03*
Y175500D02*
D03*
Y111500D02*
D03*
X1429000Y144500D02*
D03*
D29*
X137500Y922500D02*
D03*
X57500D02*
D03*
X67500D02*
D03*
X27500D02*
D03*
X17500D02*
D03*
X147500D02*
D03*
X97500D02*
D03*
X107500D02*
D03*
X27500Y932500D02*
D03*
X67500D02*
D03*
X137500D02*
D03*
X97500D02*
D03*
X17500D02*
D03*
X107500D02*
D03*
X57500D02*
D03*
X147500D02*
D03*
X107500Y942500D02*
D03*
X97500D02*
D03*
X27500D02*
D03*
X147500D02*
D03*
X57500D02*
D03*
X67500D02*
D03*
X17500D02*
D03*
X137500D02*
D03*
X57500Y952500D02*
D03*
X27500D02*
D03*
X67500D02*
D03*
X107500D02*
D03*
X97500D02*
D03*
X137500D02*
D03*
X17500D02*
D03*
X147500D02*
D03*
X137500Y17500D02*
D03*
X57500Y7500D02*
D03*
X67500D02*
D03*
X97500D02*
D03*
X107500D02*
D03*
X17500D02*
D03*
X137500D02*
D03*
X147500D02*
D03*
X27500D02*
D03*
X147500Y17500D02*
D03*
X27500D02*
D03*
X97500D02*
D03*
X107500D02*
D03*
X67500D02*
D03*
X17500D02*
D03*
X57500D02*
D03*
Y27500D02*
D03*
X67500D02*
D03*
X17500D02*
D03*
X147500D02*
D03*
X27500D02*
D03*
X97500D02*
D03*
X137500D02*
D03*
X107500D02*
D03*
X137500Y37500D02*
D03*
X27500D02*
D03*
X107500D02*
D03*
X97500D02*
D03*
X147500D02*
D03*
X57500D02*
D03*
X67500D02*
D03*
X17500D02*
D03*
X302500Y922500D02*
D03*
X222500D02*
D03*
X232500D02*
D03*
X192500D02*
D03*
X182500D02*
D03*
X312500D02*
D03*
X262500D02*
D03*
X272500D02*
D03*
X192500Y932500D02*
D03*
X232500D02*
D03*
X302500D02*
D03*
X262500D02*
D03*
X182500D02*
D03*
X272500D02*
D03*
X222500D02*
D03*
X312500D02*
D03*
X272500Y942500D02*
D03*
X262500D02*
D03*
X192500D02*
D03*
X312500D02*
D03*
X222500D02*
D03*
X232500D02*
D03*
X182500D02*
D03*
X302500D02*
D03*
X222500Y952500D02*
D03*
X192500D02*
D03*
X232500D02*
D03*
X272500D02*
D03*
X262500D02*
D03*
X302500D02*
D03*
X182500D02*
D03*
X312500D02*
D03*
X302500Y17500D02*
D03*
X222500Y7500D02*
D03*
X232500D02*
D03*
X262500D02*
D03*
X272500D02*
D03*
X182500D02*
D03*
X302500D02*
D03*
X312500D02*
D03*
X192500D02*
D03*
X312500Y17500D02*
D03*
X192500D02*
D03*
X262500D02*
D03*
X272500D02*
D03*
X232500D02*
D03*
X182500D02*
D03*
X222500D02*
D03*
Y27500D02*
D03*
X232500D02*
D03*
X182500D02*
D03*
X312500D02*
D03*
X192500D02*
D03*
X262500D02*
D03*
X302500D02*
D03*
X272500D02*
D03*
X302500Y37500D02*
D03*
X192500D02*
D03*
X272500D02*
D03*
X262500D02*
D03*
X312500D02*
D03*
X222500D02*
D03*
X232500D02*
D03*
X182500D02*
D03*
X467500Y922500D02*
D03*
X387500D02*
D03*
X397500D02*
D03*
X357500D02*
D03*
X347500D02*
D03*
X477500D02*
D03*
X427500D02*
D03*
X437500D02*
D03*
X357500Y932500D02*
D03*
X397500D02*
D03*
X467500D02*
D03*
X427500D02*
D03*
X347500D02*
D03*
X437500D02*
D03*
X387500D02*
D03*
X477500D02*
D03*
X437500Y942500D02*
D03*
X427500D02*
D03*
X357500D02*
D03*
X477500D02*
D03*
X387500D02*
D03*
X397500D02*
D03*
X347500D02*
D03*
X467500D02*
D03*
X387500Y952500D02*
D03*
X357500D02*
D03*
X397500D02*
D03*
X437500D02*
D03*
X427500D02*
D03*
X467500D02*
D03*
X347500D02*
D03*
X477500D02*
D03*
X467500Y17500D02*
D03*
X387500Y7500D02*
D03*
X397500D02*
D03*
X427500D02*
D03*
X437500D02*
D03*
X347500D02*
D03*
X467500D02*
D03*
X477500D02*
D03*
X357500D02*
D03*
X477500Y17500D02*
D03*
X357500D02*
D03*
X427500D02*
D03*
X437500D02*
D03*
X397500D02*
D03*
X347500D02*
D03*
X387500D02*
D03*
Y27500D02*
D03*
X397500D02*
D03*
X347500D02*
D03*
X477500D02*
D03*
X357500D02*
D03*
X427500D02*
D03*
X467500D02*
D03*
X437500D02*
D03*
X467500Y37500D02*
D03*
X357500D02*
D03*
X437500D02*
D03*
X427500D02*
D03*
X477500D02*
D03*
X387500D02*
D03*
X397500D02*
D03*
X347500D02*
D03*
X632500Y922500D02*
D03*
X552500D02*
D03*
X562500D02*
D03*
X522500D02*
D03*
X512500D02*
D03*
X642500D02*
D03*
X592500D02*
D03*
X602500D02*
D03*
X522500Y932500D02*
D03*
X562500D02*
D03*
X632500D02*
D03*
X592500D02*
D03*
X512500D02*
D03*
X602500D02*
D03*
X552500D02*
D03*
X642500D02*
D03*
X602500Y942500D02*
D03*
X592500D02*
D03*
X522500D02*
D03*
X642500D02*
D03*
X552500D02*
D03*
X562500D02*
D03*
X512500D02*
D03*
X632500D02*
D03*
X552500Y952500D02*
D03*
X522500D02*
D03*
X562500D02*
D03*
X602500D02*
D03*
X592500D02*
D03*
X632500D02*
D03*
X512500D02*
D03*
X642500D02*
D03*
X632500Y17500D02*
D03*
X552500Y7500D02*
D03*
X562500D02*
D03*
X592500D02*
D03*
X602500D02*
D03*
X512500D02*
D03*
X632500D02*
D03*
X642500D02*
D03*
X522500D02*
D03*
X642500Y17500D02*
D03*
X522500D02*
D03*
X592500D02*
D03*
X602500D02*
D03*
X562500D02*
D03*
X512500D02*
D03*
X552500D02*
D03*
Y27500D02*
D03*
X562500D02*
D03*
X512500D02*
D03*
X642500D02*
D03*
X522500D02*
D03*
X592500D02*
D03*
X632500D02*
D03*
X602500D02*
D03*
X632500Y37500D02*
D03*
X522500D02*
D03*
X602500D02*
D03*
X592500D02*
D03*
X642500D02*
D03*
X552500D02*
D03*
X562500D02*
D03*
X512500D02*
D03*
X797500Y922500D02*
D03*
X717500D02*
D03*
X727500D02*
D03*
X687500D02*
D03*
X677500D02*
D03*
X807500D02*
D03*
X757500D02*
D03*
X767500D02*
D03*
X687500Y932500D02*
D03*
X727500D02*
D03*
X797500D02*
D03*
X757500D02*
D03*
X677500D02*
D03*
X767500D02*
D03*
X717500D02*
D03*
X807500D02*
D03*
X767500Y942500D02*
D03*
X757500D02*
D03*
X687500D02*
D03*
X807500D02*
D03*
X717500D02*
D03*
X727500D02*
D03*
X677500D02*
D03*
X797500D02*
D03*
X717500Y952500D02*
D03*
X687500D02*
D03*
X727500D02*
D03*
X767500D02*
D03*
X757500D02*
D03*
X797500D02*
D03*
X677500D02*
D03*
X807500D02*
D03*
X797500Y17500D02*
D03*
X717500Y7500D02*
D03*
X727500D02*
D03*
X757500D02*
D03*
X767500D02*
D03*
X677500D02*
D03*
X797500D02*
D03*
X807500D02*
D03*
X687500D02*
D03*
X807500Y17500D02*
D03*
X687500D02*
D03*
X757500D02*
D03*
X767500D02*
D03*
X727500D02*
D03*
X677500D02*
D03*
X717500D02*
D03*
Y27500D02*
D03*
X727500D02*
D03*
X677500D02*
D03*
X807500D02*
D03*
X687500D02*
D03*
X757500D02*
D03*
X797500D02*
D03*
X767500D02*
D03*
X797500Y37500D02*
D03*
X687500D02*
D03*
X767500D02*
D03*
X757500D02*
D03*
X807500D02*
D03*
X717500D02*
D03*
X727500D02*
D03*
X677500D02*
D03*
X962500Y922500D02*
D03*
X882500D02*
D03*
X892500D02*
D03*
X852500D02*
D03*
X842500D02*
D03*
X972500D02*
D03*
X922500D02*
D03*
X932500D02*
D03*
X852500Y932500D02*
D03*
X892500D02*
D03*
X962500D02*
D03*
X922500D02*
D03*
X842500D02*
D03*
X932500D02*
D03*
X882500D02*
D03*
X972500D02*
D03*
X932500Y942500D02*
D03*
X922500D02*
D03*
X852500D02*
D03*
X972500D02*
D03*
X882500D02*
D03*
X892500D02*
D03*
X842500D02*
D03*
X962500D02*
D03*
X882500Y952500D02*
D03*
X852500D02*
D03*
X892500D02*
D03*
X932500D02*
D03*
X922500D02*
D03*
X962500D02*
D03*
X842500D02*
D03*
X972500D02*
D03*
X962500Y17500D02*
D03*
X882500Y7500D02*
D03*
X892500D02*
D03*
X922500D02*
D03*
X932500D02*
D03*
X842500D02*
D03*
X962500D02*
D03*
X972500D02*
D03*
X852500D02*
D03*
X972500Y17500D02*
D03*
X852500D02*
D03*
X922500D02*
D03*
X932500D02*
D03*
X892500D02*
D03*
X842500D02*
D03*
X882500D02*
D03*
Y27500D02*
D03*
X892500D02*
D03*
X842500D02*
D03*
X972500D02*
D03*
X852500D02*
D03*
X922500D02*
D03*
X962500D02*
D03*
X932500D02*
D03*
X962500Y37500D02*
D03*
X852500D02*
D03*
X932500D02*
D03*
X922500D02*
D03*
X972500D02*
D03*
X882500D02*
D03*
X892500D02*
D03*
X842500D02*
D03*
X1127500Y922500D02*
D03*
X1047500D02*
D03*
X1057500D02*
D03*
X1017500D02*
D03*
X1007500D02*
D03*
X1137500D02*
D03*
X1087500D02*
D03*
X1097500D02*
D03*
X1017500Y932500D02*
D03*
X1057500D02*
D03*
X1127500D02*
D03*
X1087500D02*
D03*
X1007500D02*
D03*
X1097500D02*
D03*
X1047500D02*
D03*
X1137500D02*
D03*
X1097500Y942500D02*
D03*
X1087500D02*
D03*
X1017500D02*
D03*
X1137500D02*
D03*
X1047500D02*
D03*
X1057500D02*
D03*
X1007500D02*
D03*
X1127500D02*
D03*
X1047500Y952500D02*
D03*
X1017500D02*
D03*
X1057500D02*
D03*
X1097500D02*
D03*
X1087500D02*
D03*
X1127500D02*
D03*
X1007500D02*
D03*
X1137500D02*
D03*
X1127500Y17500D02*
D03*
X1047500Y7500D02*
D03*
X1057500D02*
D03*
X1087500D02*
D03*
X1097500D02*
D03*
X1007500D02*
D03*
X1127500D02*
D03*
X1137500D02*
D03*
X1017500D02*
D03*
X1137500Y17500D02*
D03*
X1017500D02*
D03*
X1087500D02*
D03*
X1097500D02*
D03*
X1057500D02*
D03*
X1007500D02*
D03*
X1047500D02*
D03*
Y27500D02*
D03*
X1057500D02*
D03*
X1007500D02*
D03*
X1137500D02*
D03*
X1017500D02*
D03*
X1087500D02*
D03*
X1127500D02*
D03*
X1097500D02*
D03*
X1127500Y37500D02*
D03*
X1017500D02*
D03*
X1097500D02*
D03*
X1087500D02*
D03*
X1137500D02*
D03*
X1047500D02*
D03*
X1057500D02*
D03*
X1007500D02*
D03*
X1292500Y922500D02*
D03*
X1212500D02*
D03*
X1222500D02*
D03*
X1182500D02*
D03*
X1172500D02*
D03*
X1302500D02*
D03*
X1252500D02*
D03*
X1262500D02*
D03*
X1182500Y932500D02*
D03*
X1222500D02*
D03*
X1292500D02*
D03*
X1252500D02*
D03*
X1172500D02*
D03*
X1262500D02*
D03*
X1212500D02*
D03*
X1302500D02*
D03*
X1262500Y942500D02*
D03*
X1252500D02*
D03*
X1182500D02*
D03*
X1302500D02*
D03*
X1212500D02*
D03*
X1222500D02*
D03*
X1172500D02*
D03*
X1292500D02*
D03*
X1212500Y952500D02*
D03*
X1182500D02*
D03*
X1222500D02*
D03*
X1262500D02*
D03*
X1252500D02*
D03*
X1292500D02*
D03*
X1172500D02*
D03*
X1302500D02*
D03*
X1292500Y17500D02*
D03*
X1212500Y7500D02*
D03*
X1222500D02*
D03*
X1252500D02*
D03*
X1262500D02*
D03*
X1172500D02*
D03*
X1292500D02*
D03*
X1302500D02*
D03*
X1182500D02*
D03*
X1302500Y17500D02*
D03*
X1182500D02*
D03*
X1252500D02*
D03*
X1262500D02*
D03*
X1222500D02*
D03*
X1172500D02*
D03*
X1212500D02*
D03*
Y27500D02*
D03*
X1222500D02*
D03*
X1172500D02*
D03*
X1302500D02*
D03*
X1182500D02*
D03*
X1252500D02*
D03*
X1292500D02*
D03*
X1262500D02*
D03*
X1292500Y37500D02*
D03*
X1182500D02*
D03*
X1262500D02*
D03*
X1252500D02*
D03*
X1302500D02*
D03*
X1212500D02*
D03*
X1222500D02*
D03*
X1172500D02*
D03*
X1457500Y922500D02*
D03*
X1377500D02*
D03*
X1387500D02*
D03*
X1347500D02*
D03*
X1337500D02*
D03*
X1467500D02*
D03*
X1417500D02*
D03*
X1427500D02*
D03*
X1347500Y932500D02*
D03*
X1387500D02*
D03*
X1457500D02*
D03*
X1417500D02*
D03*
X1337500D02*
D03*
X1427500D02*
D03*
X1377500D02*
D03*
X1467500D02*
D03*
X1427500Y942500D02*
D03*
X1417500D02*
D03*
X1347500D02*
D03*
X1467500D02*
D03*
X1377500D02*
D03*
X1387500D02*
D03*
X1337500D02*
D03*
X1457500D02*
D03*
X1377500Y952500D02*
D03*
X1347500D02*
D03*
X1387500D02*
D03*
X1427500D02*
D03*
X1417500D02*
D03*
X1457500D02*
D03*
X1337500D02*
D03*
X1467500D02*
D03*
X1457500Y17500D02*
D03*
X1377500Y7500D02*
D03*
X1387500D02*
D03*
X1417500D02*
D03*
X1427500D02*
D03*
X1337500D02*
D03*
X1457500D02*
D03*
X1467500D02*
D03*
X1347500D02*
D03*
X1467500Y17500D02*
D03*
X1347500D02*
D03*
X1417500D02*
D03*
X1427500D02*
D03*
X1387500D02*
D03*
X1337500D02*
D03*
X1377500D02*
D03*
Y27500D02*
D03*
X1387500D02*
D03*
X1337500D02*
D03*
X1467500D02*
D03*
X1347500D02*
D03*
X1417500D02*
D03*
X1457500D02*
D03*
X1427500D02*
D03*
X1457500Y37500D02*
D03*
X1347500D02*
D03*
X1427500D02*
D03*
X1417500D02*
D03*
X1467500D02*
D03*
X1377500D02*
D03*
X1387500D02*
D03*
X1337500D02*
D03*
M02*
