G04*
G04 #@! TF.GenerationSoftware,Altium Limited,Altium Designer,21.7.2 (23)*
G04*
G04 Layer_Color=8388736*
%FSLAX44Y44*%
%MOMM*%
G71*
G04*
G04 #@! TF.SameCoordinates,347EBB59-7EAA-41E4-9BFB-609F0E12C0C3*
G04*
G04*
G04 #@! TF.FilePolarity,Negative*
G04*
G01*
G75*
%ADD23R,2.2000X3.2000*%
%ADD24C,2.2000*%
%ADD25R,2.8000X3.4000*%
%ADD26R,2.8032X3.4032*%
%ADD27R,1.6500X1.4500*%
%ADD28R,1.7000X1.1000*%
%ADD29C,1.1000*%
%ADD30C,1.0000*%
%ADD31C,0.6032*%
D23*
X57500Y940500D02*
D03*
X92500D02*
D03*
X57500Y19500D02*
D03*
X92500D02*
D03*
X207500Y940500D02*
D03*
X242500D02*
D03*
X207500Y19500D02*
D03*
X242500D02*
D03*
X357500Y940500D02*
D03*
X392500D02*
D03*
X357500Y19500D02*
D03*
X392500D02*
D03*
X507500Y940500D02*
D03*
X542500D02*
D03*
X507500Y19500D02*
D03*
X542500D02*
D03*
X657500Y940500D02*
D03*
X692500D02*
D03*
X657500Y19500D02*
D03*
X692500D02*
D03*
X807500Y940500D02*
D03*
X842500D02*
D03*
X807500Y19500D02*
D03*
X842500D02*
D03*
X957500Y940500D02*
D03*
X992500D02*
D03*
X957500Y19500D02*
D03*
X992500D02*
D03*
X1107500Y940500D02*
D03*
X1142500D02*
D03*
X1107500Y19500D02*
D03*
X1142500D02*
D03*
X1257500Y940500D02*
D03*
X1292500D02*
D03*
X1257500Y19500D02*
D03*
X1292500D02*
D03*
D24*
X57500Y925500D02*
D03*
X92500D02*
D03*
X57500Y34500D02*
D03*
X92500D02*
D03*
X207500Y925500D02*
D03*
X242500D02*
D03*
X207500Y34500D02*
D03*
X242500D02*
D03*
X357500Y925500D02*
D03*
X392500D02*
D03*
X357500Y34500D02*
D03*
X392500D02*
D03*
X507500Y925500D02*
D03*
X542500D02*
D03*
X507500Y34500D02*
D03*
X542500D02*
D03*
X657500Y925500D02*
D03*
X692500D02*
D03*
X657500Y34500D02*
D03*
X692500D02*
D03*
X807500Y925500D02*
D03*
X842500D02*
D03*
X807500Y34500D02*
D03*
X842500D02*
D03*
X957500Y925500D02*
D03*
X992500D02*
D03*
X957500Y34500D02*
D03*
X992500D02*
D03*
X1107500Y925500D02*
D03*
X1142500D02*
D03*
X1107500Y34500D02*
D03*
X1142500D02*
D03*
X1257500Y925500D02*
D03*
X1292500D02*
D03*
X1257500Y34500D02*
D03*
X1292500D02*
D03*
D25*
X132500Y923500D02*
D03*
Y36500D02*
D03*
X282500Y923500D02*
D03*
Y36500D02*
D03*
X432500Y923500D02*
D03*
Y36500D02*
D03*
X582500Y923500D02*
D03*
Y36500D02*
D03*
X732500Y923500D02*
D03*
Y36500D02*
D03*
X882500Y923500D02*
D03*
Y36500D02*
D03*
X1032500Y923500D02*
D03*
Y36500D02*
D03*
X1182500Y923500D02*
D03*
Y36500D02*
D03*
X1332500Y923500D02*
D03*
Y36500D02*
D03*
D26*
X17500Y923500D02*
D03*
Y36500D02*
D03*
X167500Y923500D02*
D03*
Y36500D02*
D03*
X317500Y923500D02*
D03*
Y36500D02*
D03*
X467500Y923500D02*
D03*
Y36500D02*
D03*
X617500Y923500D02*
D03*
Y36500D02*
D03*
X767500Y923500D02*
D03*
Y36500D02*
D03*
X917500Y923500D02*
D03*
Y36500D02*
D03*
X1067500Y923500D02*
D03*
Y36500D02*
D03*
X1217500Y923500D02*
D03*
Y36500D02*
D03*
D27*
X19000Y823500D02*
D03*
Y840500D02*
D03*
Y119500D02*
D03*
Y136500D02*
D03*
Y520500D02*
D03*
Y503500D02*
D03*
Y456500D02*
D03*
Y439500D02*
D03*
Y328500D02*
D03*
Y311500D02*
D03*
Y392500D02*
D03*
Y375500D02*
D03*
Y584500D02*
D03*
Y567500D02*
D03*
Y648500D02*
D03*
Y631500D02*
D03*
Y712500D02*
D03*
Y695500D02*
D03*
Y776500D02*
D03*
Y759500D02*
D03*
Y264500D02*
D03*
Y247500D02*
D03*
Y200500D02*
D03*
Y183500D02*
D03*
X169000Y823500D02*
D03*
Y840500D02*
D03*
Y119500D02*
D03*
Y136500D02*
D03*
Y520500D02*
D03*
Y503500D02*
D03*
Y456500D02*
D03*
Y439500D02*
D03*
Y328500D02*
D03*
Y311500D02*
D03*
Y392500D02*
D03*
Y375500D02*
D03*
Y584500D02*
D03*
Y567500D02*
D03*
Y648500D02*
D03*
Y631500D02*
D03*
Y712500D02*
D03*
Y695500D02*
D03*
Y776500D02*
D03*
Y759500D02*
D03*
Y264500D02*
D03*
Y247500D02*
D03*
Y200500D02*
D03*
Y183500D02*
D03*
X319000Y823500D02*
D03*
Y840500D02*
D03*
Y119500D02*
D03*
Y136500D02*
D03*
Y520500D02*
D03*
Y503500D02*
D03*
Y456500D02*
D03*
Y439500D02*
D03*
Y328500D02*
D03*
Y311500D02*
D03*
Y392500D02*
D03*
Y375500D02*
D03*
Y584500D02*
D03*
Y567500D02*
D03*
Y648500D02*
D03*
Y631500D02*
D03*
Y712500D02*
D03*
Y695500D02*
D03*
Y776500D02*
D03*
Y759500D02*
D03*
Y264500D02*
D03*
Y247500D02*
D03*
Y200500D02*
D03*
Y183500D02*
D03*
X469000Y823500D02*
D03*
Y840500D02*
D03*
Y119500D02*
D03*
Y136500D02*
D03*
Y520500D02*
D03*
Y503500D02*
D03*
Y456500D02*
D03*
Y439500D02*
D03*
Y328500D02*
D03*
Y311500D02*
D03*
Y392500D02*
D03*
Y375500D02*
D03*
Y584500D02*
D03*
Y567500D02*
D03*
Y648500D02*
D03*
Y631500D02*
D03*
Y712500D02*
D03*
Y695500D02*
D03*
Y776500D02*
D03*
Y759500D02*
D03*
Y264500D02*
D03*
Y247500D02*
D03*
Y200500D02*
D03*
Y183500D02*
D03*
X619000Y823500D02*
D03*
Y840500D02*
D03*
Y119500D02*
D03*
Y136500D02*
D03*
Y520500D02*
D03*
Y503500D02*
D03*
Y456500D02*
D03*
Y439500D02*
D03*
Y328500D02*
D03*
Y311500D02*
D03*
Y392500D02*
D03*
Y375500D02*
D03*
Y584500D02*
D03*
Y567500D02*
D03*
Y648500D02*
D03*
Y631500D02*
D03*
Y712500D02*
D03*
Y695500D02*
D03*
Y776500D02*
D03*
Y759500D02*
D03*
Y264500D02*
D03*
Y247500D02*
D03*
Y200500D02*
D03*
Y183500D02*
D03*
X769000Y823500D02*
D03*
Y840500D02*
D03*
Y119500D02*
D03*
Y136500D02*
D03*
Y520500D02*
D03*
Y503500D02*
D03*
Y456500D02*
D03*
Y439500D02*
D03*
Y328500D02*
D03*
Y311500D02*
D03*
Y392500D02*
D03*
Y375500D02*
D03*
Y584500D02*
D03*
Y567500D02*
D03*
Y648500D02*
D03*
Y631500D02*
D03*
Y712500D02*
D03*
Y695500D02*
D03*
Y776500D02*
D03*
Y759500D02*
D03*
Y264500D02*
D03*
Y247500D02*
D03*
Y200500D02*
D03*
Y183500D02*
D03*
X919000Y823500D02*
D03*
Y840500D02*
D03*
Y119500D02*
D03*
Y136500D02*
D03*
Y520500D02*
D03*
Y503500D02*
D03*
Y456500D02*
D03*
Y439500D02*
D03*
Y328500D02*
D03*
Y311500D02*
D03*
Y392500D02*
D03*
Y375500D02*
D03*
Y584500D02*
D03*
Y567500D02*
D03*
Y648500D02*
D03*
Y631500D02*
D03*
Y712500D02*
D03*
Y695500D02*
D03*
Y776500D02*
D03*
Y759500D02*
D03*
Y264500D02*
D03*
Y247500D02*
D03*
Y200500D02*
D03*
Y183500D02*
D03*
X1069000Y823500D02*
D03*
Y840500D02*
D03*
Y119500D02*
D03*
Y136500D02*
D03*
Y520500D02*
D03*
Y503500D02*
D03*
Y456500D02*
D03*
Y439500D02*
D03*
Y328500D02*
D03*
Y311500D02*
D03*
Y392500D02*
D03*
Y375500D02*
D03*
Y584500D02*
D03*
Y567500D02*
D03*
Y648500D02*
D03*
Y631500D02*
D03*
Y712500D02*
D03*
Y695500D02*
D03*
Y776500D02*
D03*
Y759500D02*
D03*
Y264500D02*
D03*
Y247500D02*
D03*
Y200500D02*
D03*
Y183500D02*
D03*
X1219000Y823500D02*
D03*
Y840500D02*
D03*
Y119500D02*
D03*
Y136500D02*
D03*
Y520500D02*
D03*
Y503500D02*
D03*
Y456500D02*
D03*
Y439500D02*
D03*
Y328500D02*
D03*
Y311500D02*
D03*
Y392500D02*
D03*
Y375500D02*
D03*
Y584500D02*
D03*
Y567500D02*
D03*
Y648500D02*
D03*
Y631500D02*
D03*
Y712500D02*
D03*
Y695500D02*
D03*
Y776500D02*
D03*
Y759500D02*
D03*
Y264500D02*
D03*
Y247500D02*
D03*
Y200500D02*
D03*
Y183500D02*
D03*
D28*
X50500Y144500D02*
D03*
Y111500D02*
D03*
X99500D02*
D03*
Y144500D02*
D03*
X50500Y848500D02*
D03*
Y815500D02*
D03*
X99500D02*
D03*
Y848500D02*
D03*
X50500Y528500D02*
D03*
Y495500D02*
D03*
X99500D02*
D03*
Y528500D02*
D03*
X50500Y464500D02*
D03*
Y431500D02*
D03*
X99500D02*
D03*
Y464500D02*
D03*
X50500Y400500D02*
D03*
Y367500D02*
D03*
X99500D02*
D03*
Y400500D02*
D03*
X50500Y592500D02*
D03*
Y559500D02*
D03*
X99500D02*
D03*
Y592500D02*
D03*
X50500Y336500D02*
D03*
Y303500D02*
D03*
X99500D02*
D03*
Y336500D02*
D03*
X50500Y720500D02*
D03*
Y687500D02*
D03*
X99500D02*
D03*
Y720500D02*
D03*
X50500Y656500D02*
D03*
Y623500D02*
D03*
X99500D02*
D03*
Y656500D02*
D03*
X50500Y784500D02*
D03*
Y751500D02*
D03*
X99500D02*
D03*
Y784500D02*
D03*
X50500Y208500D02*
D03*
Y175500D02*
D03*
X99500D02*
D03*
Y208500D02*
D03*
X50500Y272500D02*
D03*
Y239500D02*
D03*
X99500D02*
D03*
Y272500D02*
D03*
X200500Y144500D02*
D03*
Y111500D02*
D03*
X249500D02*
D03*
Y144500D02*
D03*
X200500Y848500D02*
D03*
Y815500D02*
D03*
X249500D02*
D03*
Y848500D02*
D03*
X200500Y528500D02*
D03*
Y495500D02*
D03*
X249500D02*
D03*
Y528500D02*
D03*
X200500Y464500D02*
D03*
Y431500D02*
D03*
X249500D02*
D03*
Y464500D02*
D03*
X200500Y400500D02*
D03*
Y367500D02*
D03*
X249500D02*
D03*
Y400500D02*
D03*
X200500Y592500D02*
D03*
Y559500D02*
D03*
X249500D02*
D03*
Y592500D02*
D03*
X200500Y336500D02*
D03*
Y303500D02*
D03*
X249500D02*
D03*
Y336500D02*
D03*
X200500Y720500D02*
D03*
Y687500D02*
D03*
X249500D02*
D03*
Y720500D02*
D03*
X200500Y656500D02*
D03*
Y623500D02*
D03*
X249500D02*
D03*
Y656500D02*
D03*
X200500Y784500D02*
D03*
Y751500D02*
D03*
X249500D02*
D03*
Y784500D02*
D03*
X200500Y208500D02*
D03*
Y175500D02*
D03*
X249500D02*
D03*
Y208500D02*
D03*
X200500Y272500D02*
D03*
Y239500D02*
D03*
X249500D02*
D03*
Y272500D02*
D03*
X350500Y144500D02*
D03*
Y111500D02*
D03*
X399500D02*
D03*
Y144500D02*
D03*
X350500Y848500D02*
D03*
Y815500D02*
D03*
X399500D02*
D03*
Y848500D02*
D03*
X350500Y528500D02*
D03*
Y495500D02*
D03*
X399500D02*
D03*
Y528500D02*
D03*
X350500Y464500D02*
D03*
Y431500D02*
D03*
X399500D02*
D03*
Y464500D02*
D03*
X350500Y400500D02*
D03*
Y367500D02*
D03*
X399500D02*
D03*
Y400500D02*
D03*
X350500Y592500D02*
D03*
Y559500D02*
D03*
X399500D02*
D03*
Y592500D02*
D03*
X350500Y336500D02*
D03*
Y303500D02*
D03*
X399500D02*
D03*
Y336500D02*
D03*
X350500Y720500D02*
D03*
Y687500D02*
D03*
X399500D02*
D03*
Y720500D02*
D03*
X350500Y656500D02*
D03*
Y623500D02*
D03*
X399500D02*
D03*
Y656500D02*
D03*
X350500Y784500D02*
D03*
Y751500D02*
D03*
X399500D02*
D03*
Y784500D02*
D03*
X350500Y208500D02*
D03*
Y175500D02*
D03*
X399500D02*
D03*
Y208500D02*
D03*
X350500Y272500D02*
D03*
Y239500D02*
D03*
X399500D02*
D03*
Y272500D02*
D03*
X500500Y144500D02*
D03*
Y111500D02*
D03*
X549500D02*
D03*
Y144500D02*
D03*
X500500Y848500D02*
D03*
Y815500D02*
D03*
X549500D02*
D03*
Y848500D02*
D03*
X500500Y528500D02*
D03*
Y495500D02*
D03*
X549500D02*
D03*
Y528500D02*
D03*
X500500Y464500D02*
D03*
Y431500D02*
D03*
X549500D02*
D03*
Y464500D02*
D03*
X500500Y400500D02*
D03*
Y367500D02*
D03*
X549500D02*
D03*
Y400500D02*
D03*
X500500Y592500D02*
D03*
Y559500D02*
D03*
X549500D02*
D03*
Y592500D02*
D03*
X500500Y336500D02*
D03*
Y303500D02*
D03*
X549500D02*
D03*
Y336500D02*
D03*
X500500Y720500D02*
D03*
Y687500D02*
D03*
X549500D02*
D03*
Y720500D02*
D03*
X500500Y656500D02*
D03*
Y623500D02*
D03*
X549500D02*
D03*
Y656500D02*
D03*
X500500Y784500D02*
D03*
Y751500D02*
D03*
X549500D02*
D03*
Y784500D02*
D03*
X500500Y208500D02*
D03*
Y175500D02*
D03*
X549500D02*
D03*
Y208500D02*
D03*
X500500Y272500D02*
D03*
Y239500D02*
D03*
X549500D02*
D03*
Y272500D02*
D03*
X650500Y144500D02*
D03*
Y111500D02*
D03*
X699500D02*
D03*
Y144500D02*
D03*
X650500Y848500D02*
D03*
Y815500D02*
D03*
X699500D02*
D03*
Y848500D02*
D03*
X650500Y528500D02*
D03*
Y495500D02*
D03*
X699500D02*
D03*
Y528500D02*
D03*
X650500Y464500D02*
D03*
Y431500D02*
D03*
X699500D02*
D03*
Y464500D02*
D03*
X650500Y400500D02*
D03*
Y367500D02*
D03*
X699500D02*
D03*
Y400500D02*
D03*
X650500Y592500D02*
D03*
Y559500D02*
D03*
X699500D02*
D03*
Y592500D02*
D03*
X650500Y336500D02*
D03*
Y303500D02*
D03*
X699500D02*
D03*
Y336500D02*
D03*
X650500Y720500D02*
D03*
Y687500D02*
D03*
X699500D02*
D03*
Y720500D02*
D03*
X650500Y656500D02*
D03*
Y623500D02*
D03*
X699500D02*
D03*
Y656500D02*
D03*
X650500Y784500D02*
D03*
Y751500D02*
D03*
X699500D02*
D03*
Y784500D02*
D03*
X650500Y208500D02*
D03*
Y175500D02*
D03*
X699500D02*
D03*
Y208500D02*
D03*
X650500Y272500D02*
D03*
Y239500D02*
D03*
X699500D02*
D03*
Y272500D02*
D03*
X800500Y144500D02*
D03*
Y111500D02*
D03*
X849500D02*
D03*
Y144500D02*
D03*
X800500Y848500D02*
D03*
Y815500D02*
D03*
X849500D02*
D03*
Y848500D02*
D03*
X800500Y528500D02*
D03*
Y495500D02*
D03*
X849500D02*
D03*
Y528500D02*
D03*
X800500Y464500D02*
D03*
Y431500D02*
D03*
X849500D02*
D03*
Y464500D02*
D03*
X800500Y400500D02*
D03*
Y367500D02*
D03*
X849500D02*
D03*
Y400500D02*
D03*
X800500Y592500D02*
D03*
Y559500D02*
D03*
X849500D02*
D03*
Y592500D02*
D03*
X800500Y336500D02*
D03*
Y303500D02*
D03*
X849500D02*
D03*
Y336500D02*
D03*
X800500Y720500D02*
D03*
Y687500D02*
D03*
X849500D02*
D03*
Y720500D02*
D03*
X800500Y656500D02*
D03*
Y623500D02*
D03*
X849500D02*
D03*
Y656500D02*
D03*
X800500Y784500D02*
D03*
Y751500D02*
D03*
X849500D02*
D03*
Y784500D02*
D03*
X800500Y208500D02*
D03*
Y175500D02*
D03*
X849500D02*
D03*
Y208500D02*
D03*
X800500Y272500D02*
D03*
Y239500D02*
D03*
X849500D02*
D03*
Y272500D02*
D03*
X950500Y144500D02*
D03*
Y111500D02*
D03*
X999500D02*
D03*
Y144500D02*
D03*
X950500Y848500D02*
D03*
Y815500D02*
D03*
X999500D02*
D03*
Y848500D02*
D03*
X950500Y528500D02*
D03*
Y495500D02*
D03*
X999500D02*
D03*
Y528500D02*
D03*
X950500Y464500D02*
D03*
Y431500D02*
D03*
X999500D02*
D03*
Y464500D02*
D03*
X950500Y400500D02*
D03*
Y367500D02*
D03*
X999500D02*
D03*
Y400500D02*
D03*
X950500Y592500D02*
D03*
Y559500D02*
D03*
X999500D02*
D03*
Y592500D02*
D03*
X950500Y336500D02*
D03*
Y303500D02*
D03*
X999500D02*
D03*
Y336500D02*
D03*
X950500Y720500D02*
D03*
Y687500D02*
D03*
X999500D02*
D03*
Y720500D02*
D03*
X950500Y656500D02*
D03*
Y623500D02*
D03*
X999500D02*
D03*
Y656500D02*
D03*
X950500Y784500D02*
D03*
Y751500D02*
D03*
X999500D02*
D03*
Y784500D02*
D03*
X950500Y208500D02*
D03*
Y175500D02*
D03*
X999500D02*
D03*
Y208500D02*
D03*
X950500Y272500D02*
D03*
Y239500D02*
D03*
X999500D02*
D03*
Y272500D02*
D03*
X1100500Y144500D02*
D03*
Y111500D02*
D03*
X1149500D02*
D03*
Y144500D02*
D03*
X1100500Y848500D02*
D03*
Y815500D02*
D03*
X1149500D02*
D03*
Y848500D02*
D03*
X1100500Y528500D02*
D03*
Y495500D02*
D03*
X1149500D02*
D03*
Y528500D02*
D03*
X1100500Y464500D02*
D03*
Y431500D02*
D03*
X1149500D02*
D03*
Y464500D02*
D03*
X1100500Y400500D02*
D03*
Y367500D02*
D03*
X1149500D02*
D03*
Y400500D02*
D03*
X1100500Y592500D02*
D03*
Y559500D02*
D03*
X1149500D02*
D03*
Y592500D02*
D03*
X1100500Y336500D02*
D03*
Y303500D02*
D03*
X1149500D02*
D03*
Y336500D02*
D03*
X1100500Y720500D02*
D03*
Y687500D02*
D03*
X1149500D02*
D03*
Y720500D02*
D03*
X1100500Y656500D02*
D03*
Y623500D02*
D03*
X1149500D02*
D03*
Y656500D02*
D03*
X1100500Y784500D02*
D03*
Y751500D02*
D03*
X1149500D02*
D03*
Y784500D02*
D03*
X1100500Y208500D02*
D03*
Y175500D02*
D03*
X1149500D02*
D03*
Y208500D02*
D03*
X1100500Y272500D02*
D03*
Y239500D02*
D03*
X1149500D02*
D03*
Y272500D02*
D03*
X1250500Y144500D02*
D03*
Y111500D02*
D03*
X1299500D02*
D03*
Y144500D02*
D03*
X1250500Y848500D02*
D03*
Y815500D02*
D03*
X1299500D02*
D03*
Y848500D02*
D03*
X1250500Y528500D02*
D03*
Y495500D02*
D03*
X1299500D02*
D03*
Y528500D02*
D03*
X1250500Y464500D02*
D03*
Y431500D02*
D03*
X1299500D02*
D03*
Y464500D02*
D03*
X1250500Y400500D02*
D03*
Y367500D02*
D03*
X1299500D02*
D03*
Y400500D02*
D03*
X1250500Y592500D02*
D03*
Y559500D02*
D03*
X1299500D02*
D03*
Y592500D02*
D03*
X1250500Y336500D02*
D03*
Y303500D02*
D03*
X1299500D02*
D03*
Y336500D02*
D03*
X1250500Y720500D02*
D03*
Y687500D02*
D03*
X1299500D02*
D03*
Y720500D02*
D03*
X1250500Y656500D02*
D03*
Y623500D02*
D03*
X1299500D02*
D03*
Y656500D02*
D03*
X1250500Y784500D02*
D03*
Y751500D02*
D03*
X1299500D02*
D03*
Y784500D02*
D03*
X1250500Y208500D02*
D03*
Y175500D02*
D03*
X1299500D02*
D03*
Y208500D02*
D03*
X1250500Y272500D02*
D03*
Y239500D02*
D03*
X1299500D02*
D03*
Y272500D02*
D03*
D29*
X99500Y111500D02*
D03*
Y175500D02*
D03*
Y239500D02*
D03*
Y303500D02*
D03*
Y367500D02*
D03*
Y431500D02*
D03*
Y495500D02*
D03*
Y559500D02*
D03*
Y623500D02*
D03*
Y687500D02*
D03*
Y751500D02*
D03*
Y815500D02*
D03*
X50500Y144500D02*
D03*
X99500Y848500D02*
D03*
X50500D02*
D03*
Y815500D02*
D03*
X99500Y784500D02*
D03*
X50500D02*
D03*
Y751500D02*
D03*
X99500Y720500D02*
D03*
X50500D02*
D03*
Y687500D02*
D03*
X99500Y656500D02*
D03*
X50500D02*
D03*
Y623500D02*
D03*
X99500Y592500D02*
D03*
X50500D02*
D03*
Y559500D02*
D03*
X99500Y528500D02*
D03*
X50500D02*
D03*
Y495500D02*
D03*
X99500Y464500D02*
D03*
X50500D02*
D03*
Y431500D02*
D03*
X99500Y400500D02*
D03*
X50500D02*
D03*
Y367500D02*
D03*
X99500Y336500D02*
D03*
X50500D02*
D03*
Y303500D02*
D03*
X99500Y272500D02*
D03*
X50500D02*
D03*
Y239500D02*
D03*
X99500Y208500D02*
D03*
X50500D02*
D03*
Y175500D02*
D03*
Y111500D02*
D03*
X99500Y144500D02*
D03*
X249500Y111500D02*
D03*
Y175500D02*
D03*
Y239500D02*
D03*
Y303500D02*
D03*
Y367500D02*
D03*
Y431500D02*
D03*
Y495500D02*
D03*
Y559500D02*
D03*
Y623500D02*
D03*
Y687500D02*
D03*
Y751500D02*
D03*
Y815500D02*
D03*
X200500Y144500D02*
D03*
X249500Y848500D02*
D03*
X200500D02*
D03*
Y815500D02*
D03*
X249500Y784500D02*
D03*
X200500D02*
D03*
Y751500D02*
D03*
X249500Y720500D02*
D03*
X200500D02*
D03*
Y687500D02*
D03*
X249500Y656500D02*
D03*
X200500D02*
D03*
Y623500D02*
D03*
X249500Y592500D02*
D03*
X200500D02*
D03*
Y559500D02*
D03*
X249500Y528500D02*
D03*
X200500D02*
D03*
Y495500D02*
D03*
X249500Y464500D02*
D03*
X200500D02*
D03*
Y431500D02*
D03*
X249500Y400500D02*
D03*
X200500D02*
D03*
Y367500D02*
D03*
X249500Y336500D02*
D03*
X200500D02*
D03*
Y303500D02*
D03*
X249500Y272500D02*
D03*
X200500D02*
D03*
Y239500D02*
D03*
X249500Y208500D02*
D03*
X200500D02*
D03*
Y175500D02*
D03*
Y111500D02*
D03*
X249500Y144500D02*
D03*
X399500Y111500D02*
D03*
Y175500D02*
D03*
Y239500D02*
D03*
Y303500D02*
D03*
Y367500D02*
D03*
Y431500D02*
D03*
Y495500D02*
D03*
Y559500D02*
D03*
Y623500D02*
D03*
Y687500D02*
D03*
Y751500D02*
D03*
Y815500D02*
D03*
X350500Y144500D02*
D03*
X399500Y848500D02*
D03*
X350500D02*
D03*
Y815500D02*
D03*
X399500Y784500D02*
D03*
X350500D02*
D03*
Y751500D02*
D03*
X399500Y720500D02*
D03*
X350500D02*
D03*
Y687500D02*
D03*
X399500Y656500D02*
D03*
X350500D02*
D03*
Y623500D02*
D03*
X399500Y592500D02*
D03*
X350500D02*
D03*
Y559500D02*
D03*
X399500Y528500D02*
D03*
X350500D02*
D03*
Y495500D02*
D03*
X399500Y464500D02*
D03*
X350500D02*
D03*
Y431500D02*
D03*
X399500Y400500D02*
D03*
X350500D02*
D03*
Y367500D02*
D03*
X399500Y336500D02*
D03*
X350500D02*
D03*
Y303500D02*
D03*
X399500Y272500D02*
D03*
X350500D02*
D03*
Y239500D02*
D03*
X399500Y208500D02*
D03*
X350500D02*
D03*
Y175500D02*
D03*
Y111500D02*
D03*
X399500Y144500D02*
D03*
X549500Y111500D02*
D03*
Y175500D02*
D03*
Y239500D02*
D03*
Y303500D02*
D03*
Y367500D02*
D03*
Y431500D02*
D03*
Y495500D02*
D03*
Y559500D02*
D03*
Y623500D02*
D03*
Y687500D02*
D03*
Y751500D02*
D03*
Y815500D02*
D03*
X500500Y144500D02*
D03*
X549500Y848500D02*
D03*
X500500D02*
D03*
Y815500D02*
D03*
X549500Y784500D02*
D03*
X500500D02*
D03*
Y751500D02*
D03*
X549500Y720500D02*
D03*
X500500D02*
D03*
Y687500D02*
D03*
X549500Y656500D02*
D03*
X500500D02*
D03*
Y623500D02*
D03*
X549500Y592500D02*
D03*
X500500D02*
D03*
Y559500D02*
D03*
X549500Y528500D02*
D03*
X500500D02*
D03*
Y495500D02*
D03*
X549500Y464500D02*
D03*
X500500D02*
D03*
Y431500D02*
D03*
X549500Y400500D02*
D03*
X500500D02*
D03*
Y367500D02*
D03*
X549500Y336500D02*
D03*
X500500D02*
D03*
Y303500D02*
D03*
X549500Y272500D02*
D03*
X500500D02*
D03*
Y239500D02*
D03*
X549500Y208500D02*
D03*
X500500D02*
D03*
Y175500D02*
D03*
Y111500D02*
D03*
X549500Y144500D02*
D03*
X699500Y111500D02*
D03*
Y175500D02*
D03*
Y239500D02*
D03*
Y303500D02*
D03*
Y367500D02*
D03*
Y431500D02*
D03*
Y495500D02*
D03*
Y559500D02*
D03*
Y623500D02*
D03*
Y687500D02*
D03*
Y751500D02*
D03*
Y815500D02*
D03*
X650500Y144500D02*
D03*
X699500Y848500D02*
D03*
X650500D02*
D03*
Y815500D02*
D03*
X699500Y784500D02*
D03*
X650500D02*
D03*
Y751500D02*
D03*
X699500Y720500D02*
D03*
X650500D02*
D03*
Y687500D02*
D03*
X699500Y656500D02*
D03*
X650500D02*
D03*
Y623500D02*
D03*
X699500Y592500D02*
D03*
X650500D02*
D03*
Y559500D02*
D03*
X699500Y528500D02*
D03*
X650500D02*
D03*
Y495500D02*
D03*
X699500Y464500D02*
D03*
X650500D02*
D03*
Y431500D02*
D03*
X699500Y400500D02*
D03*
X650500D02*
D03*
Y367500D02*
D03*
X699500Y336500D02*
D03*
X650500D02*
D03*
Y303500D02*
D03*
X699500Y272500D02*
D03*
X650500D02*
D03*
Y239500D02*
D03*
X699500Y208500D02*
D03*
X650500D02*
D03*
Y175500D02*
D03*
Y111500D02*
D03*
X699500Y144500D02*
D03*
X849500Y111500D02*
D03*
Y175500D02*
D03*
Y239500D02*
D03*
Y303500D02*
D03*
Y367500D02*
D03*
Y431500D02*
D03*
Y495500D02*
D03*
Y559500D02*
D03*
Y623500D02*
D03*
Y687500D02*
D03*
Y751500D02*
D03*
Y815500D02*
D03*
X800500Y144500D02*
D03*
X849500Y848500D02*
D03*
X800500D02*
D03*
Y815500D02*
D03*
X849500Y784500D02*
D03*
X800500D02*
D03*
Y751500D02*
D03*
X849500Y720500D02*
D03*
X800500D02*
D03*
Y687500D02*
D03*
X849500Y656500D02*
D03*
X800500D02*
D03*
Y623500D02*
D03*
X849500Y592500D02*
D03*
X800500D02*
D03*
Y559500D02*
D03*
X849500Y528500D02*
D03*
X800500D02*
D03*
Y495500D02*
D03*
X849500Y464500D02*
D03*
X800500D02*
D03*
Y431500D02*
D03*
X849500Y400500D02*
D03*
X800500D02*
D03*
Y367500D02*
D03*
X849500Y336500D02*
D03*
X800500D02*
D03*
Y303500D02*
D03*
X849500Y272500D02*
D03*
X800500D02*
D03*
Y239500D02*
D03*
X849500Y208500D02*
D03*
X800500D02*
D03*
Y175500D02*
D03*
Y111500D02*
D03*
X849500Y144500D02*
D03*
X999500Y111500D02*
D03*
Y175500D02*
D03*
Y239500D02*
D03*
Y303500D02*
D03*
Y367500D02*
D03*
Y431500D02*
D03*
Y495500D02*
D03*
Y559500D02*
D03*
Y623500D02*
D03*
Y687500D02*
D03*
Y751500D02*
D03*
Y815500D02*
D03*
X950500Y144500D02*
D03*
X999500Y848500D02*
D03*
X950500D02*
D03*
Y815500D02*
D03*
X999500Y784500D02*
D03*
X950500D02*
D03*
Y751500D02*
D03*
X999500Y720500D02*
D03*
X950500D02*
D03*
Y687500D02*
D03*
X999500Y656500D02*
D03*
X950500D02*
D03*
Y623500D02*
D03*
X999500Y592500D02*
D03*
X950500D02*
D03*
Y559500D02*
D03*
X999500Y528500D02*
D03*
X950500D02*
D03*
Y495500D02*
D03*
X999500Y464500D02*
D03*
X950500D02*
D03*
Y431500D02*
D03*
X999500Y400500D02*
D03*
X950500D02*
D03*
Y367500D02*
D03*
X999500Y336500D02*
D03*
X950500D02*
D03*
Y303500D02*
D03*
X999500Y272500D02*
D03*
X950500D02*
D03*
Y239500D02*
D03*
X999500Y208500D02*
D03*
X950500D02*
D03*
Y175500D02*
D03*
Y111500D02*
D03*
X999500Y144500D02*
D03*
X1149500Y111500D02*
D03*
Y175500D02*
D03*
Y239500D02*
D03*
Y303500D02*
D03*
Y367500D02*
D03*
Y431500D02*
D03*
Y495500D02*
D03*
Y559500D02*
D03*
Y623500D02*
D03*
Y687500D02*
D03*
Y751500D02*
D03*
Y815500D02*
D03*
X1100500Y144500D02*
D03*
X1149500Y848500D02*
D03*
X1100500D02*
D03*
Y815500D02*
D03*
X1149500Y784500D02*
D03*
X1100500D02*
D03*
Y751500D02*
D03*
X1149500Y720500D02*
D03*
X1100500D02*
D03*
Y687500D02*
D03*
X1149500Y656500D02*
D03*
X1100500D02*
D03*
Y623500D02*
D03*
X1149500Y592500D02*
D03*
X1100500D02*
D03*
Y559500D02*
D03*
X1149500Y528500D02*
D03*
X1100500D02*
D03*
Y495500D02*
D03*
X1149500Y464500D02*
D03*
X1100500D02*
D03*
Y431500D02*
D03*
X1149500Y400500D02*
D03*
X1100500D02*
D03*
Y367500D02*
D03*
X1149500Y336500D02*
D03*
X1100500D02*
D03*
Y303500D02*
D03*
X1149500Y272500D02*
D03*
X1100500D02*
D03*
Y239500D02*
D03*
X1149500Y208500D02*
D03*
X1100500D02*
D03*
Y175500D02*
D03*
Y111500D02*
D03*
X1149500Y144500D02*
D03*
X1299500Y111500D02*
D03*
Y175500D02*
D03*
Y239500D02*
D03*
Y303500D02*
D03*
Y367500D02*
D03*
Y431500D02*
D03*
Y495500D02*
D03*
Y559500D02*
D03*
Y623500D02*
D03*
Y687500D02*
D03*
Y751500D02*
D03*
Y815500D02*
D03*
X1250500Y144500D02*
D03*
X1299500Y848500D02*
D03*
X1250500D02*
D03*
Y815500D02*
D03*
X1299500Y784500D02*
D03*
X1250500D02*
D03*
Y751500D02*
D03*
X1299500Y720500D02*
D03*
X1250500D02*
D03*
Y687500D02*
D03*
X1299500Y656500D02*
D03*
X1250500D02*
D03*
Y623500D02*
D03*
X1299500Y592500D02*
D03*
X1250500D02*
D03*
Y559500D02*
D03*
X1299500Y528500D02*
D03*
X1250500D02*
D03*
Y495500D02*
D03*
X1299500Y464500D02*
D03*
X1250500D02*
D03*
Y431500D02*
D03*
X1299500Y400500D02*
D03*
X1250500D02*
D03*
Y367500D02*
D03*
X1299500Y336500D02*
D03*
X1250500D02*
D03*
Y303500D02*
D03*
X1299500Y272500D02*
D03*
X1250500D02*
D03*
Y239500D02*
D03*
X1299500Y208500D02*
D03*
X1250500D02*
D03*
Y175500D02*
D03*
Y111500D02*
D03*
X1299500Y144500D02*
D03*
D30*
X103000Y82000D02*
D03*
X63000Y88000D02*
D03*
X67000Y873000D02*
D03*
X107000D02*
D03*
X139000Y894000D02*
D03*
X138000Y63000D02*
D03*
X32000Y873000D02*
D03*
X36000Y78000D02*
D03*
X253000Y82000D02*
D03*
X213000Y88000D02*
D03*
X217000Y873000D02*
D03*
X257000D02*
D03*
X289000Y894000D02*
D03*
X288000Y63000D02*
D03*
X182000Y873000D02*
D03*
X186000Y78000D02*
D03*
X403000Y82000D02*
D03*
X363000Y88000D02*
D03*
X367000Y873000D02*
D03*
X407000D02*
D03*
X439000Y894000D02*
D03*
X438000Y63000D02*
D03*
X332000Y873000D02*
D03*
X336000Y78000D02*
D03*
X553000Y82000D02*
D03*
X513000Y88000D02*
D03*
X517000Y873000D02*
D03*
X557000D02*
D03*
X589000Y894000D02*
D03*
X588000Y63000D02*
D03*
X482000Y873000D02*
D03*
X486000Y78000D02*
D03*
X703000Y82000D02*
D03*
X663000Y88000D02*
D03*
X667000Y873000D02*
D03*
X707000D02*
D03*
X739000Y894000D02*
D03*
X738000Y63000D02*
D03*
X632000Y873000D02*
D03*
X636000Y78000D02*
D03*
X853000Y82000D02*
D03*
X813000Y88000D02*
D03*
X817000Y873000D02*
D03*
X857000D02*
D03*
X889000Y894000D02*
D03*
X888000Y63000D02*
D03*
X782000Y873000D02*
D03*
X786000Y78000D02*
D03*
X1003000Y82000D02*
D03*
X963000Y88000D02*
D03*
X967000Y873000D02*
D03*
X1007000D02*
D03*
X1039000Y894000D02*
D03*
X1038000Y63000D02*
D03*
X932000Y873000D02*
D03*
X936000Y78000D02*
D03*
X1153000Y82000D02*
D03*
X1113000Y88000D02*
D03*
X1117000Y873000D02*
D03*
X1157000D02*
D03*
X1189000Y894000D02*
D03*
X1188000Y63000D02*
D03*
X1082000Y873000D02*
D03*
X1086000Y78000D02*
D03*
X1303000Y82000D02*
D03*
X1263000Y88000D02*
D03*
X1267000Y873000D02*
D03*
X1307000D02*
D03*
X1339000Y894000D02*
D03*
X1338000Y63000D02*
D03*
X1232000Y873000D02*
D03*
X1236000Y78000D02*
D03*
D31*
X137500Y933500D02*
D03*
Y923500D02*
D03*
X127500D02*
D03*
Y933500D02*
D03*
X137500Y913500D02*
D03*
X127500D02*
D03*
X12500Y933500D02*
D03*
Y923500D02*
D03*
X22500D02*
D03*
Y933500D02*
D03*
X12500Y913500D02*
D03*
X22500D02*
D03*
X137500Y26500D02*
D03*
Y36500D02*
D03*
X127500D02*
D03*
Y26500D02*
D03*
X137500Y46500D02*
D03*
X127500D02*
D03*
X12500Y26500D02*
D03*
Y36500D02*
D03*
X22500D02*
D03*
Y26500D02*
D03*
X12500Y46500D02*
D03*
X22500D02*
D03*
X287500Y933500D02*
D03*
Y923500D02*
D03*
X277500D02*
D03*
Y933500D02*
D03*
X287500Y913500D02*
D03*
X277500D02*
D03*
X162500Y933500D02*
D03*
Y923500D02*
D03*
X172500D02*
D03*
Y933500D02*
D03*
X162500Y913500D02*
D03*
X172500D02*
D03*
X287500Y26500D02*
D03*
Y36500D02*
D03*
X277500D02*
D03*
Y26500D02*
D03*
X287500Y46500D02*
D03*
X277500D02*
D03*
X162500Y26500D02*
D03*
Y36500D02*
D03*
X172500D02*
D03*
Y26500D02*
D03*
X162500Y46500D02*
D03*
X172500D02*
D03*
X437500Y933500D02*
D03*
Y923500D02*
D03*
X427500D02*
D03*
Y933500D02*
D03*
X437500Y913500D02*
D03*
X427500D02*
D03*
X312500Y933500D02*
D03*
Y923500D02*
D03*
X322500D02*
D03*
Y933500D02*
D03*
X312500Y913500D02*
D03*
X322500D02*
D03*
X437500Y26500D02*
D03*
Y36500D02*
D03*
X427500D02*
D03*
Y26500D02*
D03*
X437500Y46500D02*
D03*
X427500D02*
D03*
X312500Y26500D02*
D03*
Y36500D02*
D03*
X322500D02*
D03*
Y26500D02*
D03*
X312500Y46500D02*
D03*
X322500D02*
D03*
X587500Y933500D02*
D03*
Y923500D02*
D03*
X577500D02*
D03*
Y933500D02*
D03*
X587500Y913500D02*
D03*
X577500D02*
D03*
X462500Y933500D02*
D03*
Y923500D02*
D03*
X472500D02*
D03*
Y933500D02*
D03*
X462500Y913500D02*
D03*
X472500D02*
D03*
X587500Y26500D02*
D03*
Y36500D02*
D03*
X577500D02*
D03*
Y26500D02*
D03*
X587500Y46500D02*
D03*
X577500D02*
D03*
X462500Y26500D02*
D03*
Y36500D02*
D03*
X472500D02*
D03*
Y26500D02*
D03*
X462500Y46500D02*
D03*
X472500D02*
D03*
X737500Y933500D02*
D03*
Y923500D02*
D03*
X727500D02*
D03*
Y933500D02*
D03*
X737500Y913500D02*
D03*
X727500D02*
D03*
X612500Y933500D02*
D03*
Y923500D02*
D03*
X622500D02*
D03*
Y933500D02*
D03*
X612500Y913500D02*
D03*
X622500D02*
D03*
X737500Y26500D02*
D03*
Y36500D02*
D03*
X727500D02*
D03*
Y26500D02*
D03*
X737500Y46500D02*
D03*
X727500D02*
D03*
X612500Y26500D02*
D03*
Y36500D02*
D03*
X622500D02*
D03*
Y26500D02*
D03*
X612500Y46500D02*
D03*
X622500D02*
D03*
X887500Y933500D02*
D03*
Y923500D02*
D03*
X877500D02*
D03*
Y933500D02*
D03*
X887500Y913500D02*
D03*
X877500D02*
D03*
X762500Y933500D02*
D03*
Y923500D02*
D03*
X772500D02*
D03*
Y933500D02*
D03*
X762500Y913500D02*
D03*
X772500D02*
D03*
X887500Y26500D02*
D03*
Y36500D02*
D03*
X877500D02*
D03*
Y26500D02*
D03*
X887500Y46500D02*
D03*
X877500D02*
D03*
X762500Y26500D02*
D03*
Y36500D02*
D03*
X772500D02*
D03*
Y26500D02*
D03*
X762500Y46500D02*
D03*
X772500D02*
D03*
X1037500Y933500D02*
D03*
Y923500D02*
D03*
X1027500D02*
D03*
Y933500D02*
D03*
X1037500Y913500D02*
D03*
X1027500D02*
D03*
X912500Y933500D02*
D03*
Y923500D02*
D03*
X922500D02*
D03*
Y933500D02*
D03*
X912500Y913500D02*
D03*
X922500D02*
D03*
X1037500Y26500D02*
D03*
Y36500D02*
D03*
X1027500D02*
D03*
Y26500D02*
D03*
X1037500Y46500D02*
D03*
X1027500D02*
D03*
X912500Y26500D02*
D03*
Y36500D02*
D03*
X922500D02*
D03*
Y26500D02*
D03*
X912500Y46500D02*
D03*
X922500D02*
D03*
X1187500Y933500D02*
D03*
Y923500D02*
D03*
X1177500D02*
D03*
Y933500D02*
D03*
X1187500Y913500D02*
D03*
X1177500D02*
D03*
X1062500Y933500D02*
D03*
Y923500D02*
D03*
X1072500D02*
D03*
Y933500D02*
D03*
X1062500Y913500D02*
D03*
X1072500D02*
D03*
X1187500Y26500D02*
D03*
Y36500D02*
D03*
X1177500D02*
D03*
Y26500D02*
D03*
X1187500Y46500D02*
D03*
X1177500D02*
D03*
X1062500Y26500D02*
D03*
Y36500D02*
D03*
X1072500D02*
D03*
Y26500D02*
D03*
X1062500Y46500D02*
D03*
X1072500D02*
D03*
X1337500Y933500D02*
D03*
Y923500D02*
D03*
X1327500D02*
D03*
Y933500D02*
D03*
X1337500Y913500D02*
D03*
X1327500D02*
D03*
X1212500Y933500D02*
D03*
Y923500D02*
D03*
X1222500D02*
D03*
Y933500D02*
D03*
X1212500Y913500D02*
D03*
X1222500D02*
D03*
X1337500Y26500D02*
D03*
Y36500D02*
D03*
X1327500D02*
D03*
Y26500D02*
D03*
X1337500Y46500D02*
D03*
X1327500D02*
D03*
X1212500Y26500D02*
D03*
Y36500D02*
D03*
X1222500D02*
D03*
Y26500D02*
D03*
X1212500Y46500D02*
D03*
X1222500D02*
D03*
M02*
