G04*
G04 #@! TF.GenerationSoftware,Altium Limited,Altium Designer,21.7.2 (23)*
G04*
G04 Layer_Color=32768*
%FSLAX44Y44*%
%MOMM*%
G71*
G04*
G04 #@! TF.SameCoordinates,A18D3496-1026-4BA7-8AEB-D4DB3583FBB1*
G04*
G04*
G04 #@! TF.FilePolarity,Positive*
G04*
G01*
G75*
%ADD27C,0.1000*%
%ADD28C,0.0500*%
D27*
X14000Y128000D02*
X24000D01*
X19000Y123000D02*
Y133000D01*
Y507000D02*
Y517000D01*
X14000Y512000D02*
X24000D01*
X19000Y443000D02*
Y453000D01*
X14000Y448000D02*
X24000D01*
X19000Y315000D02*
Y325000D01*
X14000Y320000D02*
X24000D01*
X19000Y379000D02*
Y389000D01*
X14000Y384000D02*
X24000D01*
X19000Y571000D02*
Y581000D01*
X14000Y576000D02*
X24000D01*
X19000Y635000D02*
Y645000D01*
X14000Y640000D02*
X24000D01*
X19000Y699000D02*
Y709000D01*
X14000Y704000D02*
X24000D01*
X19000Y763000D02*
Y773000D01*
X14000Y768000D02*
X24000D01*
X19000Y827000D02*
Y837000D01*
X14000Y832000D02*
X24000D01*
X19000Y251000D02*
Y261000D01*
X14000Y256000D02*
X24000D01*
X19000Y187000D02*
Y197000D01*
X14000Y192000D02*
X24000D01*
X70000Y128000D02*
X80000D01*
X75000Y123000D02*
Y133000D01*
X70000Y832000D02*
X80000D01*
X75000Y827000D02*
Y837000D01*
X70000Y512000D02*
X80000D01*
X75000Y507000D02*
Y517000D01*
X70000Y448000D02*
X80000D01*
X75000Y443000D02*
Y453000D01*
X70000Y384000D02*
X80000D01*
X75000Y379000D02*
Y389000D01*
X70000Y576000D02*
X80000D01*
X75000Y571000D02*
Y581000D01*
X70000Y320000D02*
X80000D01*
X75000Y315000D02*
Y325000D01*
X70000Y704000D02*
X80000D01*
X75000Y699000D02*
Y709000D01*
X70000Y640000D02*
X80000D01*
X75000Y635000D02*
Y645000D01*
X70000Y768000D02*
X80000D01*
X75000Y763000D02*
Y773000D01*
X70000Y192000D02*
X80000D01*
X75000Y187000D02*
Y197000D01*
X70000Y256000D02*
X80000D01*
X75000Y251000D02*
Y261000D01*
X164000Y128000D02*
X174000D01*
X169000Y123000D02*
Y133000D01*
Y507000D02*
Y517000D01*
X164000Y512000D02*
X174000D01*
X169000Y443000D02*
Y453000D01*
X164000Y448000D02*
X174000D01*
X169000Y315000D02*
Y325000D01*
X164000Y320000D02*
X174000D01*
X169000Y379000D02*
Y389000D01*
X164000Y384000D02*
X174000D01*
X169000Y571000D02*
Y581000D01*
X164000Y576000D02*
X174000D01*
X169000Y635000D02*
Y645000D01*
X164000Y640000D02*
X174000D01*
X169000Y699000D02*
Y709000D01*
X164000Y704000D02*
X174000D01*
X169000Y763000D02*
Y773000D01*
X164000Y768000D02*
X174000D01*
X169000Y827000D02*
Y837000D01*
X164000Y832000D02*
X174000D01*
X169000Y251000D02*
Y261000D01*
X164000Y256000D02*
X174000D01*
X169000Y187000D02*
Y197000D01*
X164000Y192000D02*
X174000D01*
X220000Y128000D02*
X230000D01*
X225000Y123000D02*
Y133000D01*
X220000Y832000D02*
X230000D01*
X225000Y827000D02*
Y837000D01*
X220000Y512000D02*
X230000D01*
X225000Y507000D02*
Y517000D01*
X220000Y448000D02*
X230000D01*
X225000Y443000D02*
Y453000D01*
X220000Y384000D02*
X230000D01*
X225000Y379000D02*
Y389000D01*
X220000Y576000D02*
X230000D01*
X225000Y571000D02*
Y581000D01*
X220000Y320000D02*
X230000D01*
X225000Y315000D02*
Y325000D01*
X220000Y704000D02*
X230000D01*
X225000Y699000D02*
Y709000D01*
X220000Y640000D02*
X230000D01*
X225000Y635000D02*
Y645000D01*
X220000Y768000D02*
X230000D01*
X225000Y763000D02*
Y773000D01*
X220000Y192000D02*
X230000D01*
X225000Y187000D02*
Y197000D01*
X220000Y256000D02*
X230000D01*
X225000Y251000D02*
Y261000D01*
X314000Y128000D02*
X324000D01*
X319000Y123000D02*
Y133000D01*
Y507000D02*
Y517000D01*
X314000Y512000D02*
X324000D01*
X319000Y443000D02*
Y453000D01*
X314000Y448000D02*
X324000D01*
X319000Y315000D02*
Y325000D01*
X314000Y320000D02*
X324000D01*
X319000Y379000D02*
Y389000D01*
X314000Y384000D02*
X324000D01*
X319000Y571000D02*
Y581000D01*
X314000Y576000D02*
X324000D01*
X319000Y635000D02*
Y645000D01*
X314000Y640000D02*
X324000D01*
X319000Y699000D02*
Y709000D01*
X314000Y704000D02*
X324000D01*
X319000Y763000D02*
Y773000D01*
X314000Y768000D02*
X324000D01*
X319000Y827000D02*
Y837000D01*
X314000Y832000D02*
X324000D01*
X319000Y251000D02*
Y261000D01*
X314000Y256000D02*
X324000D01*
X319000Y187000D02*
Y197000D01*
X314000Y192000D02*
X324000D01*
X370000Y128000D02*
X380000D01*
X375000Y123000D02*
Y133000D01*
X370000Y832000D02*
X380000D01*
X375000Y827000D02*
Y837000D01*
X370000Y512000D02*
X380000D01*
X375000Y507000D02*
Y517000D01*
X370000Y448000D02*
X380000D01*
X375000Y443000D02*
Y453000D01*
X370000Y384000D02*
X380000D01*
X375000Y379000D02*
Y389000D01*
X370000Y576000D02*
X380000D01*
X375000Y571000D02*
Y581000D01*
X370000Y320000D02*
X380000D01*
X375000Y315000D02*
Y325000D01*
X370000Y704000D02*
X380000D01*
X375000Y699000D02*
Y709000D01*
X370000Y640000D02*
X380000D01*
X375000Y635000D02*
Y645000D01*
X370000Y768000D02*
X380000D01*
X375000Y763000D02*
Y773000D01*
X370000Y192000D02*
X380000D01*
X375000Y187000D02*
Y197000D01*
X370000Y256000D02*
X380000D01*
X375000Y251000D02*
Y261000D01*
X464000Y128000D02*
X474000D01*
X469000Y123000D02*
Y133000D01*
Y507000D02*
Y517000D01*
X464000Y512000D02*
X474000D01*
X469000Y443000D02*
Y453000D01*
X464000Y448000D02*
X474000D01*
X469000Y315000D02*
Y325000D01*
X464000Y320000D02*
X474000D01*
X469000Y379000D02*
Y389000D01*
X464000Y384000D02*
X474000D01*
X469000Y571000D02*
Y581000D01*
X464000Y576000D02*
X474000D01*
X469000Y635000D02*
Y645000D01*
X464000Y640000D02*
X474000D01*
X469000Y699000D02*
Y709000D01*
X464000Y704000D02*
X474000D01*
X469000Y763000D02*
Y773000D01*
X464000Y768000D02*
X474000D01*
X469000Y827000D02*
Y837000D01*
X464000Y832000D02*
X474000D01*
X469000Y251000D02*
Y261000D01*
X464000Y256000D02*
X474000D01*
X469000Y187000D02*
Y197000D01*
X464000Y192000D02*
X474000D01*
X520000Y128000D02*
X530000D01*
X525000Y123000D02*
Y133000D01*
X520000Y832000D02*
X530000D01*
X525000Y827000D02*
Y837000D01*
X520000Y512000D02*
X530000D01*
X525000Y507000D02*
Y517000D01*
X520000Y448000D02*
X530000D01*
X525000Y443000D02*
Y453000D01*
X520000Y384000D02*
X530000D01*
X525000Y379000D02*
Y389000D01*
X520000Y576000D02*
X530000D01*
X525000Y571000D02*
Y581000D01*
X520000Y320000D02*
X530000D01*
X525000Y315000D02*
Y325000D01*
X520000Y704000D02*
X530000D01*
X525000Y699000D02*
Y709000D01*
X520000Y640000D02*
X530000D01*
X525000Y635000D02*
Y645000D01*
X520000Y768000D02*
X530000D01*
X525000Y763000D02*
Y773000D01*
X520000Y192000D02*
X530000D01*
X525000Y187000D02*
Y197000D01*
X520000Y256000D02*
X530000D01*
X525000Y251000D02*
Y261000D01*
X614000Y128000D02*
X624000D01*
X619000Y123000D02*
Y133000D01*
Y507000D02*
Y517000D01*
X614000Y512000D02*
X624000D01*
X619000Y443000D02*
Y453000D01*
X614000Y448000D02*
X624000D01*
X619000Y315000D02*
Y325000D01*
X614000Y320000D02*
X624000D01*
X619000Y379000D02*
Y389000D01*
X614000Y384000D02*
X624000D01*
X619000Y571000D02*
Y581000D01*
X614000Y576000D02*
X624000D01*
X619000Y635000D02*
Y645000D01*
X614000Y640000D02*
X624000D01*
X619000Y699000D02*
Y709000D01*
X614000Y704000D02*
X624000D01*
X619000Y763000D02*
Y773000D01*
X614000Y768000D02*
X624000D01*
X619000Y827000D02*
Y837000D01*
X614000Y832000D02*
X624000D01*
X619000Y251000D02*
Y261000D01*
X614000Y256000D02*
X624000D01*
X619000Y187000D02*
Y197000D01*
X614000Y192000D02*
X624000D01*
X670000Y128000D02*
X680000D01*
X675000Y123000D02*
Y133000D01*
X670000Y832000D02*
X680000D01*
X675000Y827000D02*
Y837000D01*
X670000Y512000D02*
X680000D01*
X675000Y507000D02*
Y517000D01*
X670000Y448000D02*
X680000D01*
X675000Y443000D02*
Y453000D01*
X670000Y384000D02*
X680000D01*
X675000Y379000D02*
Y389000D01*
X670000Y576000D02*
X680000D01*
X675000Y571000D02*
Y581000D01*
X670000Y320000D02*
X680000D01*
X675000Y315000D02*
Y325000D01*
X670000Y704000D02*
X680000D01*
X675000Y699000D02*
Y709000D01*
X670000Y640000D02*
X680000D01*
X675000Y635000D02*
Y645000D01*
X670000Y768000D02*
X680000D01*
X675000Y763000D02*
Y773000D01*
X670000Y192000D02*
X680000D01*
X675000Y187000D02*
Y197000D01*
X670000Y256000D02*
X680000D01*
X675000Y251000D02*
Y261000D01*
X764000Y128000D02*
X774000D01*
X769000Y123000D02*
Y133000D01*
Y507000D02*
Y517000D01*
X764000Y512000D02*
X774000D01*
X769000Y443000D02*
Y453000D01*
X764000Y448000D02*
X774000D01*
X769000Y315000D02*
Y325000D01*
X764000Y320000D02*
X774000D01*
X769000Y379000D02*
Y389000D01*
X764000Y384000D02*
X774000D01*
X769000Y571000D02*
Y581000D01*
X764000Y576000D02*
X774000D01*
X769000Y635000D02*
Y645000D01*
X764000Y640000D02*
X774000D01*
X769000Y699000D02*
Y709000D01*
X764000Y704000D02*
X774000D01*
X769000Y763000D02*
Y773000D01*
X764000Y768000D02*
X774000D01*
X769000Y827000D02*
Y837000D01*
X764000Y832000D02*
X774000D01*
X769000Y251000D02*
Y261000D01*
X764000Y256000D02*
X774000D01*
X769000Y187000D02*
Y197000D01*
X764000Y192000D02*
X774000D01*
X820000Y128000D02*
X830000D01*
X825000Y123000D02*
Y133000D01*
X820000Y832000D02*
X830000D01*
X825000Y827000D02*
Y837000D01*
X820000Y512000D02*
X830000D01*
X825000Y507000D02*
Y517000D01*
X820000Y448000D02*
X830000D01*
X825000Y443000D02*
Y453000D01*
X820000Y384000D02*
X830000D01*
X825000Y379000D02*
Y389000D01*
X820000Y576000D02*
X830000D01*
X825000Y571000D02*
Y581000D01*
X820000Y320000D02*
X830000D01*
X825000Y315000D02*
Y325000D01*
X820000Y704000D02*
X830000D01*
X825000Y699000D02*
Y709000D01*
X820000Y640000D02*
X830000D01*
X825000Y635000D02*
Y645000D01*
X820000Y768000D02*
X830000D01*
X825000Y763000D02*
Y773000D01*
X820000Y192000D02*
X830000D01*
X825000Y187000D02*
Y197000D01*
X820000Y256000D02*
X830000D01*
X825000Y251000D02*
Y261000D01*
D28*
X9000Y111000D02*
Y145000D01*
X29000Y111000D02*
Y145000D01*
X9000Y111000D02*
X29000D01*
X9000Y145000D02*
X29000D01*
X9000Y529000D02*
X29000D01*
X9000Y495000D02*
X29000D01*
Y529000D01*
X9000Y495000D02*
Y529000D01*
Y465000D02*
X29000D01*
X9000Y431000D02*
X29000D01*
Y465000D01*
X9000Y431000D02*
Y465000D01*
Y337000D02*
X29000D01*
X9000Y303000D02*
X29000D01*
Y337000D01*
X9000Y303000D02*
Y337000D01*
Y401000D02*
X29000D01*
X9000Y367000D02*
X29000D01*
Y401000D01*
X9000Y367000D02*
Y401000D01*
Y593000D02*
X29000D01*
X9000Y559000D02*
X29000D01*
Y593000D01*
X9000Y559000D02*
Y593000D01*
Y657000D02*
X29000D01*
X9000Y623000D02*
X29000D01*
Y657000D01*
X9000Y623000D02*
Y657000D01*
Y721000D02*
X29000D01*
X9000Y687000D02*
X29000D01*
Y721000D01*
X9000Y687000D02*
Y721000D01*
Y785000D02*
X29000D01*
X9000Y751000D02*
X29000D01*
Y785000D01*
X9000Y751000D02*
Y785000D01*
Y849000D02*
X29000D01*
X9000Y815000D02*
X29000D01*
Y849000D01*
X9000Y815000D02*
Y849000D01*
Y273000D02*
X29000D01*
X9000Y239000D02*
X29000D01*
Y273000D01*
X9000Y239000D02*
Y273000D01*
Y209000D02*
X29000D01*
X9000Y175000D02*
X29000D01*
Y209000D01*
X9000Y175000D02*
Y209000D01*
X42000Y102000D02*
X108000D01*
X42000Y154000D02*
X108000D01*
Y102000D02*
Y154000D01*
X42000Y102000D02*
Y154000D01*
Y806000D02*
X108000D01*
X42000Y858000D02*
X108000D01*
Y806000D02*
Y858000D01*
X42000Y806000D02*
Y858000D01*
Y486000D02*
X108000D01*
X42000Y538000D02*
X108000D01*
Y486000D02*
Y538000D01*
X42000Y486000D02*
Y538000D01*
Y422000D02*
X108000D01*
X42000Y474000D02*
X108000D01*
Y422000D02*
Y474000D01*
X42000Y422000D02*
Y474000D01*
Y358000D02*
X108000D01*
X42000Y410000D02*
X108000D01*
Y358000D02*
Y410000D01*
X42000Y358000D02*
Y410000D01*
Y550000D02*
X108000D01*
X42000Y602000D02*
X108000D01*
Y550000D02*
Y602000D01*
X42000Y550000D02*
Y602000D01*
Y294000D02*
X108000D01*
X42000Y346000D02*
X108000D01*
Y294000D02*
Y346000D01*
X42000Y294000D02*
Y346000D01*
Y678000D02*
X108000D01*
X42000Y730000D02*
X108000D01*
Y678000D02*
Y730000D01*
X42000Y678000D02*
Y730000D01*
Y614000D02*
X108000D01*
X42000Y666000D02*
X108000D01*
Y614000D02*
Y666000D01*
X42000Y614000D02*
Y666000D01*
Y742000D02*
X108000D01*
X42000Y794000D02*
X108000D01*
Y742000D02*
Y794000D01*
X42000Y742000D02*
Y794000D01*
Y166000D02*
X108000D01*
X42000Y218000D02*
X108000D01*
Y166000D02*
Y218000D01*
X42000Y166000D02*
Y218000D01*
Y230000D02*
X108000D01*
X42000Y282000D02*
X108000D01*
Y230000D02*
Y282000D01*
X42000Y230000D02*
Y282000D01*
X159000Y111000D02*
Y145000D01*
X179000Y111000D02*
Y145000D01*
X159000Y111000D02*
X179000D01*
X159000Y145000D02*
X179000D01*
X159000Y529000D02*
X179000D01*
X159000Y495000D02*
X179000D01*
Y529000D01*
X159000Y495000D02*
Y529000D01*
Y465000D02*
X179000D01*
X159000Y431000D02*
X179000D01*
Y465000D01*
X159000Y431000D02*
Y465000D01*
Y337000D02*
X179000D01*
X159000Y303000D02*
X179000D01*
Y337000D01*
X159000Y303000D02*
Y337000D01*
Y401000D02*
X179000D01*
X159000Y367000D02*
X179000D01*
Y401000D01*
X159000Y367000D02*
Y401000D01*
Y593000D02*
X179000D01*
X159000Y559000D02*
X179000D01*
Y593000D01*
X159000Y559000D02*
Y593000D01*
Y657000D02*
X179000D01*
X159000Y623000D02*
X179000D01*
Y657000D01*
X159000Y623000D02*
Y657000D01*
Y721000D02*
X179000D01*
X159000Y687000D02*
X179000D01*
Y721000D01*
X159000Y687000D02*
Y721000D01*
Y785000D02*
X179000D01*
X159000Y751000D02*
X179000D01*
Y785000D01*
X159000Y751000D02*
Y785000D01*
Y849000D02*
X179000D01*
X159000Y815000D02*
X179000D01*
Y849000D01*
X159000Y815000D02*
Y849000D01*
Y273000D02*
X179000D01*
X159000Y239000D02*
X179000D01*
Y273000D01*
X159000Y239000D02*
Y273000D01*
Y209000D02*
X179000D01*
X159000Y175000D02*
X179000D01*
Y209000D01*
X159000Y175000D02*
Y209000D01*
X192000Y102000D02*
X258000D01*
X192000Y154000D02*
X258000D01*
Y102000D02*
Y154000D01*
X192000Y102000D02*
Y154000D01*
Y806000D02*
X258000D01*
X192000Y858000D02*
X258000D01*
Y806000D02*
Y858000D01*
X192000Y806000D02*
Y858000D01*
Y486000D02*
X258000D01*
X192000Y538000D02*
X258000D01*
Y486000D02*
Y538000D01*
X192000Y486000D02*
Y538000D01*
Y422000D02*
X258000D01*
X192000Y474000D02*
X258000D01*
Y422000D02*
Y474000D01*
X192000Y422000D02*
Y474000D01*
Y358000D02*
X258000D01*
X192000Y410000D02*
X258000D01*
Y358000D02*
Y410000D01*
X192000Y358000D02*
Y410000D01*
Y550000D02*
X258000D01*
X192000Y602000D02*
X258000D01*
Y550000D02*
Y602000D01*
X192000Y550000D02*
Y602000D01*
Y294000D02*
X258000D01*
X192000Y346000D02*
X258000D01*
Y294000D02*
Y346000D01*
X192000Y294000D02*
Y346000D01*
Y678000D02*
X258000D01*
X192000Y730000D02*
X258000D01*
Y678000D02*
Y730000D01*
X192000Y678000D02*
Y730000D01*
Y614000D02*
X258000D01*
X192000Y666000D02*
X258000D01*
Y614000D02*
Y666000D01*
X192000Y614000D02*
Y666000D01*
Y742000D02*
X258000D01*
X192000Y794000D02*
X258000D01*
Y742000D02*
Y794000D01*
X192000Y742000D02*
Y794000D01*
Y166000D02*
X258000D01*
X192000Y218000D02*
X258000D01*
Y166000D02*
Y218000D01*
X192000Y166000D02*
Y218000D01*
Y230000D02*
X258000D01*
X192000Y282000D02*
X258000D01*
Y230000D02*
Y282000D01*
X192000Y230000D02*
Y282000D01*
X309000Y111000D02*
Y145000D01*
X329000Y111000D02*
Y145000D01*
X309000Y111000D02*
X329000D01*
X309000Y145000D02*
X329000D01*
X309000Y529000D02*
X329000D01*
X309000Y495000D02*
X329000D01*
Y529000D01*
X309000Y495000D02*
Y529000D01*
Y465000D02*
X329000D01*
X309000Y431000D02*
X329000D01*
Y465000D01*
X309000Y431000D02*
Y465000D01*
Y337000D02*
X329000D01*
X309000Y303000D02*
X329000D01*
Y337000D01*
X309000Y303000D02*
Y337000D01*
Y401000D02*
X329000D01*
X309000Y367000D02*
X329000D01*
Y401000D01*
X309000Y367000D02*
Y401000D01*
Y593000D02*
X329000D01*
X309000Y559000D02*
X329000D01*
Y593000D01*
X309000Y559000D02*
Y593000D01*
Y657000D02*
X329000D01*
X309000Y623000D02*
X329000D01*
Y657000D01*
X309000Y623000D02*
Y657000D01*
Y721000D02*
X329000D01*
X309000Y687000D02*
X329000D01*
Y721000D01*
X309000Y687000D02*
Y721000D01*
Y785000D02*
X329000D01*
X309000Y751000D02*
X329000D01*
Y785000D01*
X309000Y751000D02*
Y785000D01*
Y849000D02*
X329000D01*
X309000Y815000D02*
X329000D01*
Y849000D01*
X309000Y815000D02*
Y849000D01*
Y273000D02*
X329000D01*
X309000Y239000D02*
X329000D01*
Y273000D01*
X309000Y239000D02*
Y273000D01*
Y209000D02*
X329000D01*
X309000Y175000D02*
X329000D01*
Y209000D01*
X309000Y175000D02*
Y209000D01*
X342000Y102000D02*
X408000D01*
X342000Y154000D02*
X408000D01*
Y102000D02*
Y154000D01*
X342000Y102000D02*
Y154000D01*
Y806000D02*
X408000D01*
X342000Y858000D02*
X408000D01*
Y806000D02*
Y858000D01*
X342000Y806000D02*
Y858000D01*
Y486000D02*
X408000D01*
X342000Y538000D02*
X408000D01*
Y486000D02*
Y538000D01*
X342000Y486000D02*
Y538000D01*
Y422000D02*
X408000D01*
X342000Y474000D02*
X408000D01*
Y422000D02*
Y474000D01*
X342000Y422000D02*
Y474000D01*
Y358000D02*
X408000D01*
X342000Y410000D02*
X408000D01*
Y358000D02*
Y410000D01*
X342000Y358000D02*
Y410000D01*
Y550000D02*
X408000D01*
X342000Y602000D02*
X408000D01*
Y550000D02*
Y602000D01*
X342000Y550000D02*
Y602000D01*
Y294000D02*
X408000D01*
X342000Y346000D02*
X408000D01*
Y294000D02*
Y346000D01*
X342000Y294000D02*
Y346000D01*
Y678000D02*
X408000D01*
X342000Y730000D02*
X408000D01*
Y678000D02*
Y730000D01*
X342000Y678000D02*
Y730000D01*
Y614000D02*
X408000D01*
X342000Y666000D02*
X408000D01*
Y614000D02*
Y666000D01*
X342000Y614000D02*
Y666000D01*
Y742000D02*
X408000D01*
X342000Y794000D02*
X408000D01*
Y742000D02*
Y794000D01*
X342000Y742000D02*
Y794000D01*
Y166000D02*
X408000D01*
X342000Y218000D02*
X408000D01*
Y166000D02*
Y218000D01*
X342000Y166000D02*
Y218000D01*
Y230000D02*
X408000D01*
X342000Y282000D02*
X408000D01*
Y230000D02*
Y282000D01*
X342000Y230000D02*
Y282000D01*
X459000Y111000D02*
Y145000D01*
X479000Y111000D02*
Y145000D01*
X459000Y111000D02*
X479000D01*
X459000Y145000D02*
X479000D01*
X459000Y529000D02*
X479000D01*
X459000Y495000D02*
X479000D01*
Y529000D01*
X459000Y495000D02*
Y529000D01*
Y465000D02*
X479000D01*
X459000Y431000D02*
X479000D01*
Y465000D01*
X459000Y431000D02*
Y465000D01*
Y337000D02*
X479000D01*
X459000Y303000D02*
X479000D01*
Y337000D01*
X459000Y303000D02*
Y337000D01*
Y401000D02*
X479000D01*
X459000Y367000D02*
X479000D01*
Y401000D01*
X459000Y367000D02*
Y401000D01*
Y593000D02*
X479000D01*
X459000Y559000D02*
X479000D01*
Y593000D01*
X459000Y559000D02*
Y593000D01*
Y657000D02*
X479000D01*
X459000Y623000D02*
X479000D01*
Y657000D01*
X459000Y623000D02*
Y657000D01*
Y721000D02*
X479000D01*
X459000Y687000D02*
X479000D01*
Y721000D01*
X459000Y687000D02*
Y721000D01*
Y785000D02*
X479000D01*
X459000Y751000D02*
X479000D01*
Y785000D01*
X459000Y751000D02*
Y785000D01*
Y849000D02*
X479000D01*
X459000Y815000D02*
X479000D01*
Y849000D01*
X459000Y815000D02*
Y849000D01*
Y273000D02*
X479000D01*
X459000Y239000D02*
X479000D01*
Y273000D01*
X459000Y239000D02*
Y273000D01*
Y209000D02*
X479000D01*
X459000Y175000D02*
X479000D01*
Y209000D01*
X459000Y175000D02*
Y209000D01*
X492000Y102000D02*
X558000D01*
X492000Y154000D02*
X558000D01*
Y102000D02*
Y154000D01*
X492000Y102000D02*
Y154000D01*
Y806000D02*
X558000D01*
X492000Y858000D02*
X558000D01*
Y806000D02*
Y858000D01*
X492000Y806000D02*
Y858000D01*
Y486000D02*
X558000D01*
X492000Y538000D02*
X558000D01*
Y486000D02*
Y538000D01*
X492000Y486000D02*
Y538000D01*
Y422000D02*
X558000D01*
X492000Y474000D02*
X558000D01*
Y422000D02*
Y474000D01*
X492000Y422000D02*
Y474000D01*
Y358000D02*
X558000D01*
X492000Y410000D02*
X558000D01*
Y358000D02*
Y410000D01*
X492000Y358000D02*
Y410000D01*
Y550000D02*
X558000D01*
X492000Y602000D02*
X558000D01*
Y550000D02*
Y602000D01*
X492000Y550000D02*
Y602000D01*
Y294000D02*
X558000D01*
X492000Y346000D02*
X558000D01*
Y294000D02*
Y346000D01*
X492000Y294000D02*
Y346000D01*
Y678000D02*
X558000D01*
X492000Y730000D02*
X558000D01*
Y678000D02*
Y730000D01*
X492000Y678000D02*
Y730000D01*
Y614000D02*
X558000D01*
X492000Y666000D02*
X558000D01*
Y614000D02*
Y666000D01*
X492000Y614000D02*
Y666000D01*
Y742000D02*
X558000D01*
X492000Y794000D02*
X558000D01*
Y742000D02*
Y794000D01*
X492000Y742000D02*
Y794000D01*
Y166000D02*
X558000D01*
X492000Y218000D02*
X558000D01*
Y166000D02*
Y218000D01*
X492000Y166000D02*
Y218000D01*
Y230000D02*
X558000D01*
X492000Y282000D02*
X558000D01*
Y230000D02*
Y282000D01*
X492000Y230000D02*
Y282000D01*
X609000Y111000D02*
Y145000D01*
X629000Y111000D02*
Y145000D01*
X609000Y111000D02*
X629000D01*
X609000Y145000D02*
X629000D01*
X609000Y529000D02*
X629000D01*
X609000Y495000D02*
X629000D01*
Y529000D01*
X609000Y495000D02*
Y529000D01*
Y465000D02*
X629000D01*
X609000Y431000D02*
X629000D01*
Y465000D01*
X609000Y431000D02*
Y465000D01*
Y337000D02*
X629000D01*
X609000Y303000D02*
X629000D01*
Y337000D01*
X609000Y303000D02*
Y337000D01*
Y401000D02*
X629000D01*
X609000Y367000D02*
X629000D01*
Y401000D01*
X609000Y367000D02*
Y401000D01*
Y593000D02*
X629000D01*
X609000Y559000D02*
X629000D01*
Y593000D01*
X609000Y559000D02*
Y593000D01*
Y657000D02*
X629000D01*
X609000Y623000D02*
X629000D01*
Y657000D01*
X609000Y623000D02*
Y657000D01*
Y721000D02*
X629000D01*
X609000Y687000D02*
X629000D01*
Y721000D01*
X609000Y687000D02*
Y721000D01*
Y785000D02*
X629000D01*
X609000Y751000D02*
X629000D01*
Y785000D01*
X609000Y751000D02*
Y785000D01*
Y849000D02*
X629000D01*
X609000Y815000D02*
X629000D01*
Y849000D01*
X609000Y815000D02*
Y849000D01*
Y273000D02*
X629000D01*
X609000Y239000D02*
X629000D01*
Y273000D01*
X609000Y239000D02*
Y273000D01*
Y209000D02*
X629000D01*
X609000Y175000D02*
X629000D01*
Y209000D01*
X609000Y175000D02*
Y209000D01*
X642000Y102000D02*
X708000D01*
X642000Y154000D02*
X708000D01*
Y102000D02*
Y154000D01*
X642000Y102000D02*
Y154000D01*
Y806000D02*
X708000D01*
X642000Y858000D02*
X708000D01*
Y806000D02*
Y858000D01*
X642000Y806000D02*
Y858000D01*
Y486000D02*
X708000D01*
X642000Y538000D02*
X708000D01*
Y486000D02*
Y538000D01*
X642000Y486000D02*
Y538000D01*
Y422000D02*
X708000D01*
X642000Y474000D02*
X708000D01*
Y422000D02*
Y474000D01*
X642000Y422000D02*
Y474000D01*
Y358000D02*
X708000D01*
X642000Y410000D02*
X708000D01*
Y358000D02*
Y410000D01*
X642000Y358000D02*
Y410000D01*
Y550000D02*
X708000D01*
X642000Y602000D02*
X708000D01*
Y550000D02*
Y602000D01*
X642000Y550000D02*
Y602000D01*
Y294000D02*
X708000D01*
X642000Y346000D02*
X708000D01*
Y294000D02*
Y346000D01*
X642000Y294000D02*
Y346000D01*
Y678000D02*
X708000D01*
X642000Y730000D02*
X708000D01*
Y678000D02*
Y730000D01*
X642000Y678000D02*
Y730000D01*
Y614000D02*
X708000D01*
X642000Y666000D02*
X708000D01*
Y614000D02*
Y666000D01*
X642000Y614000D02*
Y666000D01*
Y742000D02*
X708000D01*
X642000Y794000D02*
X708000D01*
Y742000D02*
Y794000D01*
X642000Y742000D02*
Y794000D01*
Y166000D02*
X708000D01*
X642000Y218000D02*
X708000D01*
Y166000D02*
Y218000D01*
X642000Y166000D02*
Y218000D01*
Y230000D02*
X708000D01*
X642000Y282000D02*
X708000D01*
Y230000D02*
Y282000D01*
X642000Y230000D02*
Y282000D01*
X759000Y111000D02*
Y145000D01*
X779000Y111000D02*
Y145000D01*
X759000Y111000D02*
X779000D01*
X759000Y145000D02*
X779000D01*
X759000Y529000D02*
X779000D01*
X759000Y495000D02*
X779000D01*
Y529000D01*
X759000Y495000D02*
Y529000D01*
Y465000D02*
X779000D01*
X759000Y431000D02*
X779000D01*
Y465000D01*
X759000Y431000D02*
Y465000D01*
Y337000D02*
X779000D01*
X759000Y303000D02*
X779000D01*
Y337000D01*
X759000Y303000D02*
Y337000D01*
Y401000D02*
X779000D01*
X759000Y367000D02*
X779000D01*
Y401000D01*
X759000Y367000D02*
Y401000D01*
Y593000D02*
X779000D01*
X759000Y559000D02*
X779000D01*
Y593000D01*
X759000Y559000D02*
Y593000D01*
Y657000D02*
X779000D01*
X759000Y623000D02*
X779000D01*
Y657000D01*
X759000Y623000D02*
Y657000D01*
Y721000D02*
X779000D01*
X759000Y687000D02*
X779000D01*
Y721000D01*
X759000Y687000D02*
Y721000D01*
Y785000D02*
X779000D01*
X759000Y751000D02*
X779000D01*
Y785000D01*
X759000Y751000D02*
Y785000D01*
Y849000D02*
X779000D01*
X759000Y815000D02*
X779000D01*
Y849000D01*
X759000Y815000D02*
Y849000D01*
Y273000D02*
X779000D01*
X759000Y239000D02*
X779000D01*
Y273000D01*
X759000Y239000D02*
Y273000D01*
Y209000D02*
X779000D01*
X759000Y175000D02*
X779000D01*
Y209000D01*
X759000Y175000D02*
Y209000D01*
X792000Y102000D02*
X858000D01*
X792000Y154000D02*
X858000D01*
Y102000D02*
Y154000D01*
X792000Y102000D02*
Y154000D01*
Y806000D02*
X858000D01*
X792000Y858000D02*
X858000D01*
Y806000D02*
Y858000D01*
X792000Y806000D02*
Y858000D01*
Y486000D02*
X858000D01*
X792000Y538000D02*
X858000D01*
Y486000D02*
Y538000D01*
X792000Y486000D02*
Y538000D01*
Y422000D02*
X858000D01*
X792000Y474000D02*
X858000D01*
Y422000D02*
Y474000D01*
X792000Y422000D02*
Y474000D01*
Y358000D02*
X858000D01*
X792000Y410000D02*
X858000D01*
Y358000D02*
Y410000D01*
X792000Y358000D02*
Y410000D01*
Y550000D02*
X858000D01*
X792000Y602000D02*
X858000D01*
Y550000D02*
Y602000D01*
X792000Y550000D02*
Y602000D01*
Y294000D02*
X858000D01*
X792000Y346000D02*
X858000D01*
Y294000D02*
Y346000D01*
X792000Y294000D02*
Y346000D01*
Y678000D02*
X858000D01*
X792000Y730000D02*
X858000D01*
Y678000D02*
Y730000D01*
X792000Y678000D02*
Y730000D01*
Y614000D02*
X858000D01*
X792000Y666000D02*
X858000D01*
Y614000D02*
Y666000D01*
X792000Y614000D02*
Y666000D01*
Y742000D02*
X858000D01*
X792000Y794000D02*
X858000D01*
Y742000D02*
Y794000D01*
X792000Y742000D02*
Y794000D01*
Y166000D02*
X858000D01*
X792000Y218000D02*
X858000D01*
Y166000D02*
Y218000D01*
X792000Y166000D02*
Y218000D01*
Y230000D02*
X858000D01*
X792000Y282000D02*
X858000D01*
Y230000D02*
Y282000D01*
X792000Y230000D02*
Y282000D01*
M02*
