M48
;Layer_Color=9474304
;FILE_FORMAT=4:4
METRIC,LZ
;TYPE=PLATED
T1F00S00C0.4000
T2F00S00C0.5000
%
T01
X000125Y000265
Y000365
X000225
Y000265
Y000465
X000125
X00036Y00078
X00063Y00088
X00103Y00082
X00138Y00063
X001375Y000465
Y000365
Y000265
X001275
Y000365
Y000465
X001625
Y000365
Y000265
X001725
Y000365
Y000465
X00186Y00078
X00213Y00088
X00253Y00082
X00288Y00063
X002875Y000465
Y000365
Y000265
X002775
Y000365
Y000465
X003125
Y000365
Y000265
X003225
Y000365
Y000465
X00336Y00078
X00363Y00088
X00403Y00082
X00438Y00063
X004375Y000465
Y000365
Y000265
X004275
Y000365
Y000465
X004625
Y000365
Y000265
X004725
Y000365
Y000465
X00486Y00078
X00513Y00088
X00553Y00082
X00588Y00063
X005875Y000465
Y000365
Y000265
X005775
Y000365
Y000465
X006125
Y000365
Y000265
X006225
Y000365
Y000465
X00636Y00078
X00663Y00088
X00703Y00082
X00738Y00063
X007375Y000465
Y000365
Y000265
X007275
Y000365
Y000465
X007625
Y000365
Y000265
X007725
Y000365
Y000465
X00786Y00078
X00813Y00088
X00853Y00082
X00888Y00063
X008875Y000465
Y000365
Y000265
X008775
Y000365
Y000465
X009125
Y000365
Y000265
X009225
Y000365
Y000465
X00936Y00078
X00963Y00088
X01003Y00082
X01038Y00063
X010375Y000465
Y000365
Y000265
X010275
Y000365
Y000465
X010625
Y000365
Y000265
X010725
Y000365
Y000465
X01086Y00078
X01113Y00088
X01153Y00082
X01188Y00063
X011875Y000465
Y000365
Y000265
X011775
Y000365
Y000465
X012125
Y000365
Y000265
X012225
Y000365
Y000465
X01236Y00078
X01263Y00088
X01303Y00082
X013275Y000465
Y000365
Y000265
X013375
Y000365
Y000465
X01338Y00063
X00139Y00894
X00107Y00873
X00067
X00032
X00182
X00217
X00257
X00289Y00894
X00332Y00873
X00367
X00407
X00439Y00894
X00482Y00873
X00517
X00557
X00589Y00894
X00632Y00873
X00667
X00707
X00739Y00894
X00782Y00873
X00817
X00857
X00889Y00894
X00932Y00873
X00967
X01007
X01039Y00894
X01082Y00873
X01117
X01157
X01189Y00894
X01232Y00873
X01267
X01307
X01339Y00894
X013375Y009135
Y009235
Y009335
X013275
Y009235
Y009135
X012225
Y009235
X012125
Y009335
X012225
X012125Y009135
X011875
Y009235
Y009335
X011775
Y009235
Y009135
X010725
Y009235
X010625
Y009335
X010725
X010625Y009135
X010375
Y009235
Y009335
X010275
Y009235
Y009135
X009225
Y009235
X009125
Y009335
X009225
X009125Y009135
X008875
Y009235
Y009335
X008775
Y009235
Y009135
X007725
Y009235
X007625
Y009335
X007725
X007625Y009135
X007375
Y009235
Y009335
X007275
Y009235
Y009135
X006225
Y009235
X006125
Y009335
X006225
X006125Y009135
X005875
Y009235
Y009335
X005775
Y009235
Y009135
X004725
Y009235
X004625
Y009335
X004725
X004625Y009135
X004375
Y009235
Y009335
X004275
Y009235
Y009135
X003225
Y009235
X003125
Y009335
X003225
X003125Y009135
X002875
Y009235
Y009335
X002775
Y009235
Y009135
X001725
Y009235
X001625
Y009335
X001725
X001625Y009135
X001375
Y009235
Y009335
X001275
Y009235
Y009135
X000225
Y009235
X000125
Y009335
X000225
X000125Y009135
T02
X009505Y001115
Y001445
Y001755
Y002085
Y002395
Y002725
Y003035
Y003365
Y003675
Y004005
Y004315
Y004645
Y004955
X009995
Y004645
Y004315
Y004005
Y003675
Y003365
Y003035
Y002725
Y002395
Y002085
Y001755
Y001445
Y001115
X011005
Y001445
Y001755
Y002085
Y002395
Y002725
Y003035
Y003365
Y003675
Y004005
Y004315
Y004645
Y004955
X011495
Y004645
Y004315
Y004005
Y003675
Y003365
Y003035
Y002725
Y002395
Y002085
Y001755
Y001445
Y001115
X012505
Y001445
Y001755
Y002085
Y002395
Y002725
Y003035
Y003365
Y003675
Y004005
Y004315
Y004645
Y004955
X012995
Y004645
Y004315
Y004005
Y003675
Y003365
Y003035
Y002725
Y002395
Y002085
Y001755
Y001445
Y001115
X008495
Y001445
Y001755
Y002085
Y002395
Y002725
Y003035
Y003365
Y003675
Y004005
Y004315
Y004645
Y004955
X008005
Y004645
Y004315
Y004005
Y003675
Y003365
Y003035
Y002725
Y002395
Y002085
Y001755
Y001445
Y001115
X006995
Y001445
Y001755
Y002085
Y002395
Y002725
Y003035
Y003365
Y003675
Y004005
Y004315
Y004645
Y004955
X006505
Y004645
Y004315
Y004005
Y003675
Y003365
Y003035
Y002725
Y002395
Y002085
Y001755
Y001445
Y001115
X005495
Y001445
Y001755
Y002085
Y002395
Y002725
Y003035
Y003365
Y003675
Y004005
Y004315
Y004645
Y004955
X005005
Y004645
Y004315
Y004005
Y003675
Y003365
Y003035
Y002725
Y002395
Y002085
Y001755
Y001445
Y001115
X003995
Y001445
Y001755
Y002085
Y002395
Y002725
Y003035
Y003365
Y003675
Y004005
Y004315
Y004645
Y004955
X003505
Y004645
Y004315
Y004005
Y003675
Y003365
Y003035
Y002725
Y002395
Y002085
Y001755
Y001445
Y001115
X002495
Y001445
Y001755
Y002085
Y002395
Y002725
Y003035
Y003365
Y003675
Y004005
Y004315
Y004645
Y004955
X002005
Y004645
Y004315
Y004005
Y003675
Y003365
Y003035
Y002725
Y002395
Y002085
Y001755
Y001445
Y001115
X000995
Y001445
Y001755
Y002085
Y002395
Y002725
Y003035
Y003365
Y003675
Y004005
Y004315
Y004645
Y004955
X000505
Y004645
Y004315
Y004005
Y003675
Y003365
Y003035
Y002725
Y002395
Y002085
Y001755
Y001445
Y001115
Y005285
Y005595
Y005925
Y006235
Y006565
Y006875
Y007205
Y007515
Y007845
Y008155
Y008485
X000995
Y008155
Y007845
Y007515
Y007205
Y006875
Y006565
Y006235
Y005925
Y005595
Y005285
X002005
Y005595
Y005925
Y006235
Y006565
Y006875
Y007205
Y007515
Y007845
Y008155
Y008485
X002495
Y008155
Y007845
Y007515
Y007205
Y006875
Y006565
Y006235
Y005925
Y005595
Y005285
X003505
Y005595
Y005925
Y006235
Y006565
Y006875
Y007205
Y007515
Y007845
Y008155
Y008485
X003995
Y008155
Y007845
Y007515
Y007205
Y006875
Y006565
Y006235
Y005925
Y005595
Y005285
X005005
Y005595
Y005925
Y006235
Y006565
Y006875
Y007205
Y007515
Y007845
Y008155
Y008485
X005495
Y008155
Y007845
Y007515
Y007205
Y006875
Y006565
Y006235
Y005925
Y005595
Y005285
X006505
Y005595
Y005925
Y006235
Y006565
Y006875
Y007205
Y007515
Y007845
Y008155
Y008485
X006995
Y008155
Y007845
Y007515
Y007205
Y006875
Y006565
Y006235
Y005925
Y005595
Y005285
X008005
Y005595
Y005925
Y006235
Y006565
Y006875
Y007205
Y007515
Y007845
Y008155
Y008485
X008495
Y008155
Y007845
Y007515
Y007205
Y006875
Y006565
Y006235
Y005925
Y005595
Y005285
X009505
Y005595
Y005925
Y006235
Y006565
Y006875
Y007205
Y007515
Y007845
Y008155
Y008485
X009995
Y008155
Y007845
Y007515
Y007205
Y006875
Y006565
Y006235
Y005925
Y005595
Y005285
X011005
Y005595
Y005925
Y006235
Y006565
Y006875
Y007205
Y007515
Y007845
Y008155
Y008485
X011495
Y008155
Y007845
Y007515
Y007205
Y006875
Y006565
Y006235
Y005925
Y005595
Y005285
X012505
Y005595
Y005925
Y006235
Y006565
Y006875
Y007205
Y007515
Y007845
Y008155
Y008485
X012995
Y008155
Y007845
Y007515
Y007205
Y006875
Y006565
Y006235
Y005925
Y005595
Y005285
M30
