G04*
G04 #@! TF.GenerationSoftware,Altium Limited,Altium Designer,21.7.2 (23)*
G04*
G04 Layer_Color=16711935*
%FSLAX44Y44*%
%MOMM*%
G71*
G04*
G04 #@! TF.SameCoordinates,A18D3496-1026-4BA7-8AEB-D4DB3583FBB1*
G04*
G04*
G04 #@! TF.FilePolarity,Positive*
G04*
G01*
G75*
%ADD27C,0.1000*%
D27*
X12000Y117250D02*
Y138750D01*
X26000Y117250D02*
Y138750D01*
X12000Y117250D02*
X26000D01*
X12000Y138750D02*
X26000D01*
X12000Y522750D02*
X26000D01*
X12000Y501250D02*
X26000D01*
Y522750D01*
X12000Y501250D02*
Y522750D01*
Y458750D02*
X26000D01*
X12000Y437250D02*
X26000D01*
Y458750D01*
X12000Y437250D02*
Y458750D01*
Y330750D02*
X26000D01*
X12000Y309250D02*
X26000D01*
Y330750D01*
X12000Y309250D02*
Y330750D01*
Y394750D02*
X26000D01*
X12000Y373250D02*
X26000D01*
Y394750D01*
X12000Y373250D02*
Y394750D01*
Y586750D02*
X26000D01*
X12000Y565250D02*
X26000D01*
Y586750D01*
X12000Y565250D02*
Y586750D01*
Y650750D02*
X26000D01*
X12000Y629250D02*
X26000D01*
Y650750D01*
X12000Y629250D02*
Y650750D01*
Y714750D02*
X26000D01*
X12000Y693250D02*
X26000D01*
Y714750D01*
X12000Y693250D02*
Y714750D01*
Y778750D02*
X26000D01*
X12000Y757250D02*
X26000D01*
Y778750D01*
X12000Y757250D02*
Y778750D01*
Y842750D02*
X26000D01*
X12000Y821250D02*
X26000D01*
Y842750D01*
X12000Y821250D02*
Y842750D01*
Y266750D02*
X26000D01*
X12000Y245250D02*
X26000D01*
Y266750D01*
X12000Y245250D02*
Y266750D01*
Y202750D02*
X26000D01*
X12000Y181250D02*
X26000D01*
Y202750D01*
X12000Y181250D02*
Y202750D01*
X50000Y103000D02*
Y153000D01*
X100000D01*
X50000Y103000D02*
X100000D01*
Y153000D01*
X50000Y807000D02*
Y857000D01*
X100000D01*
X50000Y807000D02*
X100000D01*
Y857000D01*
X50000Y487000D02*
Y537000D01*
X100000D01*
X50000Y487000D02*
X100000D01*
Y537000D01*
X50000Y423000D02*
Y473000D01*
X100000D01*
X50000Y423000D02*
X100000D01*
Y473000D01*
X50000Y359000D02*
Y409000D01*
X100000D01*
X50000Y359000D02*
X100000D01*
Y409000D01*
X50000Y551000D02*
Y601000D01*
X100000D01*
X50000Y551000D02*
X100000D01*
Y601000D01*
X50000Y295000D02*
Y345000D01*
X100000D01*
X50000Y295000D02*
X100000D01*
Y345000D01*
X50000Y679000D02*
Y729000D01*
X100000D01*
X50000Y679000D02*
X100000D01*
Y729000D01*
X50000Y615000D02*
Y665000D01*
X100000D01*
X50000Y615000D02*
X100000D01*
Y665000D01*
X50000Y743000D02*
Y793000D01*
X100000D01*
X50000Y743000D02*
X100000D01*
Y793000D01*
X50000Y167000D02*
Y217000D01*
X100000D01*
X50000Y167000D02*
X100000D01*
Y217000D01*
X50000Y231000D02*
Y281000D01*
X100000D01*
X50000Y231000D02*
X100000D01*
Y281000D01*
X162000Y117250D02*
Y138750D01*
X176000Y117250D02*
Y138750D01*
X162000Y117250D02*
X176000D01*
X162000Y138750D02*
X176000D01*
X162000Y522750D02*
X176000D01*
X162000Y501250D02*
X176000D01*
Y522750D01*
X162000Y501250D02*
Y522750D01*
Y458750D02*
X176000D01*
X162000Y437250D02*
X176000D01*
Y458750D01*
X162000Y437250D02*
Y458750D01*
Y330750D02*
X176000D01*
X162000Y309250D02*
X176000D01*
Y330750D01*
X162000Y309250D02*
Y330750D01*
Y394750D02*
X176000D01*
X162000Y373250D02*
X176000D01*
Y394750D01*
X162000Y373250D02*
Y394750D01*
Y586750D02*
X176000D01*
X162000Y565250D02*
X176000D01*
Y586750D01*
X162000Y565250D02*
Y586750D01*
Y650750D02*
X176000D01*
X162000Y629250D02*
X176000D01*
Y650750D01*
X162000Y629250D02*
Y650750D01*
Y714750D02*
X176000D01*
X162000Y693250D02*
X176000D01*
Y714750D01*
X162000Y693250D02*
Y714750D01*
Y778750D02*
X176000D01*
X162000Y757250D02*
X176000D01*
Y778750D01*
X162000Y757250D02*
Y778750D01*
Y842750D02*
X176000D01*
X162000Y821250D02*
X176000D01*
Y842750D01*
X162000Y821250D02*
Y842750D01*
Y266750D02*
X176000D01*
X162000Y245250D02*
X176000D01*
Y266750D01*
X162000Y245250D02*
Y266750D01*
Y202750D02*
X176000D01*
X162000Y181250D02*
X176000D01*
Y202750D01*
X162000Y181250D02*
Y202750D01*
X200000Y103000D02*
Y153000D01*
X250000D01*
X200000Y103000D02*
X250000D01*
Y153000D01*
X200000Y807000D02*
Y857000D01*
X250000D01*
X200000Y807000D02*
X250000D01*
Y857000D01*
X200000Y487000D02*
Y537000D01*
X250000D01*
X200000Y487000D02*
X250000D01*
Y537000D01*
X200000Y423000D02*
Y473000D01*
X250000D01*
X200000Y423000D02*
X250000D01*
Y473000D01*
X200000Y359000D02*
Y409000D01*
X250000D01*
X200000Y359000D02*
X250000D01*
Y409000D01*
X200000Y551000D02*
Y601000D01*
X250000D01*
X200000Y551000D02*
X250000D01*
Y601000D01*
X200000Y295000D02*
Y345000D01*
X250000D01*
X200000Y295000D02*
X250000D01*
Y345000D01*
X200000Y679000D02*
Y729000D01*
X250000D01*
X200000Y679000D02*
X250000D01*
Y729000D01*
X200000Y615000D02*
Y665000D01*
X250000D01*
X200000Y615000D02*
X250000D01*
Y665000D01*
X200000Y743000D02*
Y793000D01*
X250000D01*
X200000Y743000D02*
X250000D01*
Y793000D01*
X200000Y167000D02*
Y217000D01*
X250000D01*
X200000Y167000D02*
X250000D01*
Y217000D01*
X200000Y231000D02*
Y281000D01*
X250000D01*
X200000Y231000D02*
X250000D01*
Y281000D01*
X312000Y117250D02*
Y138750D01*
X326000Y117250D02*
Y138750D01*
X312000Y117250D02*
X326000D01*
X312000Y138750D02*
X326000D01*
X312000Y522750D02*
X326000D01*
X312000Y501250D02*
X326000D01*
Y522750D01*
X312000Y501250D02*
Y522750D01*
Y458750D02*
X326000D01*
X312000Y437250D02*
X326000D01*
Y458750D01*
X312000Y437250D02*
Y458750D01*
Y330750D02*
X326000D01*
X312000Y309250D02*
X326000D01*
Y330750D01*
X312000Y309250D02*
Y330750D01*
Y394750D02*
X326000D01*
X312000Y373250D02*
X326000D01*
Y394750D01*
X312000Y373250D02*
Y394750D01*
Y586750D02*
X326000D01*
X312000Y565250D02*
X326000D01*
Y586750D01*
X312000Y565250D02*
Y586750D01*
Y650750D02*
X326000D01*
X312000Y629250D02*
X326000D01*
Y650750D01*
X312000Y629250D02*
Y650750D01*
Y714750D02*
X326000D01*
X312000Y693250D02*
X326000D01*
Y714750D01*
X312000Y693250D02*
Y714750D01*
Y778750D02*
X326000D01*
X312000Y757250D02*
X326000D01*
Y778750D01*
X312000Y757250D02*
Y778750D01*
Y842750D02*
X326000D01*
X312000Y821250D02*
X326000D01*
Y842750D01*
X312000Y821250D02*
Y842750D01*
Y266750D02*
X326000D01*
X312000Y245250D02*
X326000D01*
Y266750D01*
X312000Y245250D02*
Y266750D01*
Y202750D02*
X326000D01*
X312000Y181250D02*
X326000D01*
Y202750D01*
X312000Y181250D02*
Y202750D01*
X350000Y103000D02*
Y153000D01*
X400000D01*
X350000Y103000D02*
X400000D01*
Y153000D01*
X350000Y807000D02*
Y857000D01*
X400000D01*
X350000Y807000D02*
X400000D01*
Y857000D01*
X350000Y487000D02*
Y537000D01*
X400000D01*
X350000Y487000D02*
X400000D01*
Y537000D01*
X350000Y423000D02*
Y473000D01*
X400000D01*
X350000Y423000D02*
X400000D01*
Y473000D01*
X350000Y359000D02*
Y409000D01*
X400000D01*
X350000Y359000D02*
X400000D01*
Y409000D01*
X350000Y551000D02*
Y601000D01*
X400000D01*
X350000Y551000D02*
X400000D01*
Y601000D01*
X350000Y295000D02*
Y345000D01*
X400000D01*
X350000Y295000D02*
X400000D01*
Y345000D01*
X350000Y679000D02*
Y729000D01*
X400000D01*
X350000Y679000D02*
X400000D01*
Y729000D01*
X350000Y615000D02*
Y665000D01*
X400000D01*
X350000Y615000D02*
X400000D01*
Y665000D01*
X350000Y743000D02*
Y793000D01*
X400000D01*
X350000Y743000D02*
X400000D01*
Y793000D01*
X350000Y167000D02*
Y217000D01*
X400000D01*
X350000Y167000D02*
X400000D01*
Y217000D01*
X350000Y231000D02*
Y281000D01*
X400000D01*
X350000Y231000D02*
X400000D01*
Y281000D01*
X462000Y117250D02*
Y138750D01*
X476000Y117250D02*
Y138750D01*
X462000Y117250D02*
X476000D01*
X462000Y138750D02*
X476000D01*
X462000Y522750D02*
X476000D01*
X462000Y501250D02*
X476000D01*
Y522750D01*
X462000Y501250D02*
Y522750D01*
Y458750D02*
X476000D01*
X462000Y437250D02*
X476000D01*
Y458750D01*
X462000Y437250D02*
Y458750D01*
Y330750D02*
X476000D01*
X462000Y309250D02*
X476000D01*
Y330750D01*
X462000Y309250D02*
Y330750D01*
Y394750D02*
X476000D01*
X462000Y373250D02*
X476000D01*
Y394750D01*
X462000Y373250D02*
Y394750D01*
Y586750D02*
X476000D01*
X462000Y565250D02*
X476000D01*
Y586750D01*
X462000Y565250D02*
Y586750D01*
Y650750D02*
X476000D01*
X462000Y629250D02*
X476000D01*
Y650750D01*
X462000Y629250D02*
Y650750D01*
Y714750D02*
X476000D01*
X462000Y693250D02*
X476000D01*
Y714750D01*
X462000Y693250D02*
Y714750D01*
Y778750D02*
X476000D01*
X462000Y757250D02*
X476000D01*
Y778750D01*
X462000Y757250D02*
Y778750D01*
Y842750D02*
X476000D01*
X462000Y821250D02*
X476000D01*
Y842750D01*
X462000Y821250D02*
Y842750D01*
Y266750D02*
X476000D01*
X462000Y245250D02*
X476000D01*
Y266750D01*
X462000Y245250D02*
Y266750D01*
Y202750D02*
X476000D01*
X462000Y181250D02*
X476000D01*
Y202750D01*
X462000Y181250D02*
Y202750D01*
X500000Y103000D02*
Y153000D01*
X550000D01*
X500000Y103000D02*
X550000D01*
Y153000D01*
X500000Y807000D02*
Y857000D01*
X550000D01*
X500000Y807000D02*
X550000D01*
Y857000D01*
X500000Y487000D02*
Y537000D01*
X550000D01*
X500000Y487000D02*
X550000D01*
Y537000D01*
X500000Y423000D02*
Y473000D01*
X550000D01*
X500000Y423000D02*
X550000D01*
Y473000D01*
X500000Y359000D02*
Y409000D01*
X550000D01*
X500000Y359000D02*
X550000D01*
Y409000D01*
X500000Y551000D02*
Y601000D01*
X550000D01*
X500000Y551000D02*
X550000D01*
Y601000D01*
X500000Y295000D02*
Y345000D01*
X550000D01*
X500000Y295000D02*
X550000D01*
Y345000D01*
X500000Y679000D02*
Y729000D01*
X550000D01*
X500000Y679000D02*
X550000D01*
Y729000D01*
X500000Y615000D02*
Y665000D01*
X550000D01*
X500000Y615000D02*
X550000D01*
Y665000D01*
X500000Y743000D02*
Y793000D01*
X550000D01*
X500000Y743000D02*
X550000D01*
Y793000D01*
X500000Y167000D02*
Y217000D01*
X550000D01*
X500000Y167000D02*
X550000D01*
Y217000D01*
X500000Y231000D02*
Y281000D01*
X550000D01*
X500000Y231000D02*
X550000D01*
Y281000D01*
X612000Y117250D02*
Y138750D01*
X626000Y117250D02*
Y138750D01*
X612000Y117250D02*
X626000D01*
X612000Y138750D02*
X626000D01*
X612000Y522750D02*
X626000D01*
X612000Y501250D02*
X626000D01*
Y522750D01*
X612000Y501250D02*
Y522750D01*
Y458750D02*
X626000D01*
X612000Y437250D02*
X626000D01*
Y458750D01*
X612000Y437250D02*
Y458750D01*
Y330750D02*
X626000D01*
X612000Y309250D02*
X626000D01*
Y330750D01*
X612000Y309250D02*
Y330750D01*
Y394750D02*
X626000D01*
X612000Y373250D02*
X626000D01*
Y394750D01*
X612000Y373250D02*
Y394750D01*
Y586750D02*
X626000D01*
X612000Y565250D02*
X626000D01*
Y586750D01*
X612000Y565250D02*
Y586750D01*
Y650750D02*
X626000D01*
X612000Y629250D02*
X626000D01*
Y650750D01*
X612000Y629250D02*
Y650750D01*
Y714750D02*
X626000D01*
X612000Y693250D02*
X626000D01*
Y714750D01*
X612000Y693250D02*
Y714750D01*
Y778750D02*
X626000D01*
X612000Y757250D02*
X626000D01*
Y778750D01*
X612000Y757250D02*
Y778750D01*
Y842750D02*
X626000D01*
X612000Y821250D02*
X626000D01*
Y842750D01*
X612000Y821250D02*
Y842750D01*
Y266750D02*
X626000D01*
X612000Y245250D02*
X626000D01*
Y266750D01*
X612000Y245250D02*
Y266750D01*
Y202750D02*
X626000D01*
X612000Y181250D02*
X626000D01*
Y202750D01*
X612000Y181250D02*
Y202750D01*
X650000Y103000D02*
Y153000D01*
X700000D01*
X650000Y103000D02*
X700000D01*
Y153000D01*
X650000Y807000D02*
Y857000D01*
X700000D01*
X650000Y807000D02*
X700000D01*
Y857000D01*
X650000Y487000D02*
Y537000D01*
X700000D01*
X650000Y487000D02*
X700000D01*
Y537000D01*
X650000Y423000D02*
Y473000D01*
X700000D01*
X650000Y423000D02*
X700000D01*
Y473000D01*
X650000Y359000D02*
Y409000D01*
X700000D01*
X650000Y359000D02*
X700000D01*
Y409000D01*
X650000Y551000D02*
Y601000D01*
X700000D01*
X650000Y551000D02*
X700000D01*
Y601000D01*
X650000Y295000D02*
Y345000D01*
X700000D01*
X650000Y295000D02*
X700000D01*
Y345000D01*
X650000Y679000D02*
Y729000D01*
X700000D01*
X650000Y679000D02*
X700000D01*
Y729000D01*
X650000Y615000D02*
Y665000D01*
X700000D01*
X650000Y615000D02*
X700000D01*
Y665000D01*
X650000Y743000D02*
Y793000D01*
X700000D01*
X650000Y743000D02*
X700000D01*
Y793000D01*
X650000Y167000D02*
Y217000D01*
X700000D01*
X650000Y167000D02*
X700000D01*
Y217000D01*
X650000Y231000D02*
Y281000D01*
X700000D01*
X650000Y231000D02*
X700000D01*
Y281000D01*
X762000Y117250D02*
Y138750D01*
X776000Y117250D02*
Y138750D01*
X762000Y117250D02*
X776000D01*
X762000Y138750D02*
X776000D01*
X762000Y522750D02*
X776000D01*
X762000Y501250D02*
X776000D01*
Y522750D01*
X762000Y501250D02*
Y522750D01*
Y458750D02*
X776000D01*
X762000Y437250D02*
X776000D01*
Y458750D01*
X762000Y437250D02*
Y458750D01*
Y330750D02*
X776000D01*
X762000Y309250D02*
X776000D01*
Y330750D01*
X762000Y309250D02*
Y330750D01*
Y394750D02*
X776000D01*
X762000Y373250D02*
X776000D01*
Y394750D01*
X762000Y373250D02*
Y394750D01*
Y586750D02*
X776000D01*
X762000Y565250D02*
X776000D01*
Y586750D01*
X762000Y565250D02*
Y586750D01*
Y650750D02*
X776000D01*
X762000Y629250D02*
X776000D01*
Y650750D01*
X762000Y629250D02*
Y650750D01*
Y714750D02*
X776000D01*
X762000Y693250D02*
X776000D01*
Y714750D01*
X762000Y693250D02*
Y714750D01*
Y778750D02*
X776000D01*
X762000Y757250D02*
X776000D01*
Y778750D01*
X762000Y757250D02*
Y778750D01*
Y842750D02*
X776000D01*
X762000Y821250D02*
X776000D01*
Y842750D01*
X762000Y821250D02*
Y842750D01*
Y266750D02*
X776000D01*
X762000Y245250D02*
X776000D01*
Y266750D01*
X762000Y245250D02*
Y266750D01*
Y202750D02*
X776000D01*
X762000Y181250D02*
X776000D01*
Y202750D01*
X762000Y181250D02*
Y202750D01*
X800000Y103000D02*
Y153000D01*
X850000D01*
X800000Y103000D02*
X850000D01*
Y153000D01*
X800000Y807000D02*
Y857000D01*
X850000D01*
X800000Y807000D02*
X850000D01*
Y857000D01*
X800000Y487000D02*
Y537000D01*
X850000D01*
X800000Y487000D02*
X850000D01*
Y537000D01*
X800000Y423000D02*
Y473000D01*
X850000D01*
X800000Y423000D02*
X850000D01*
Y473000D01*
X800000Y359000D02*
Y409000D01*
X850000D01*
X800000Y359000D02*
X850000D01*
Y409000D01*
X800000Y551000D02*
Y601000D01*
X850000D01*
X800000Y551000D02*
X850000D01*
Y601000D01*
X800000Y295000D02*
Y345000D01*
X850000D01*
X800000Y295000D02*
X850000D01*
Y345000D01*
X800000Y679000D02*
Y729000D01*
X850000D01*
X800000Y679000D02*
X850000D01*
Y729000D01*
X800000Y615000D02*
Y665000D01*
X850000D01*
X800000Y615000D02*
X850000D01*
Y665000D01*
X800000Y743000D02*
Y793000D01*
X850000D01*
X800000Y743000D02*
X850000D01*
Y793000D01*
X800000Y167000D02*
Y217000D01*
X850000D01*
X800000Y167000D02*
X850000D01*
Y217000D01*
X800000Y231000D02*
Y281000D01*
X850000D01*
X800000Y231000D02*
X850000D01*
Y281000D01*
M02*
