G04*
G04 #@! TF.GenerationSoftware,Altium Limited,Altium Designer,21.7.2 (23)*
G04*
G04 Layer_Color=8388736*
%FSLAX44Y44*%
%MOMM*%
G71*
G04*
G04 #@! TF.SameCoordinates,A18D3496-1026-4BA7-8AEB-D4DB3583FBB1*
G04*
G04*
G04 #@! TF.FilePolarity,Negative*
G04*
G01*
G75*
%ADD21R,1.6532X1.4532*%
%ADD22C,1.2032*%
%ADD23R,1.7032X1.1032*%
%ADD24C,1.1032*%
%ADD25C,0.9032*%
G36*
X897000Y907000D02*
X864500D01*
Y942000D01*
X897000D01*
Y907000D01*
D02*
G37*
G36*
X785500D02*
X753000D01*
Y942000D01*
X785500D01*
Y907000D01*
D02*
G37*
G36*
X747000D02*
X714500D01*
Y942000D01*
X747000D01*
Y907000D01*
D02*
G37*
G36*
X635500D02*
X603000D01*
Y942000D01*
X635500D01*
Y907000D01*
D02*
G37*
G36*
X597000D02*
X564500D01*
Y942000D01*
X597000D01*
Y907000D01*
D02*
G37*
G36*
X485500D02*
X453000D01*
Y942000D01*
X485500D01*
Y907000D01*
D02*
G37*
G36*
X447000D02*
X414500D01*
Y942000D01*
X447000D01*
Y907000D01*
D02*
G37*
G36*
X335500D02*
X303000D01*
Y942000D01*
X335500D01*
Y907000D01*
D02*
G37*
G36*
X297000D02*
X264500D01*
Y942000D01*
X297000D01*
Y907000D01*
D02*
G37*
G36*
X185500D02*
X153000D01*
Y942000D01*
X185500D01*
Y907000D01*
D02*
G37*
G36*
X147000D02*
X114500D01*
Y942000D01*
X147000D01*
Y907000D01*
D02*
G37*
G36*
X35500D02*
X3000D01*
Y942000D01*
X35500D01*
Y907000D01*
D02*
G37*
G36*
X857633Y957010D02*
X857763Y956983D01*
X857889Y956941D01*
X858009Y956882D01*
X858120Y956808D01*
X858220Y956720D01*
X858308Y956620D01*
X858382Y956509D01*
X858441Y956390D01*
X858483Y956264D01*
X858509Y956133D01*
X858518Y956000D01*
Y916000D01*
Y914354D01*
D01*
Y914354D01*
X858509Y914221D01*
X858483Y914091D01*
X857632Y910912D01*
X857589Y910786D01*
X857530Y910666D01*
X855884Y907816D01*
X855884Y907816D01*
X855810Y907705D01*
X855722Y907605D01*
X853395Y905278D01*
X853395Y905277D01*
X853295Y905190D01*
X853184Y905116D01*
X850334Y903470D01*
X850334Y903470D01*
X850214Y903411D01*
X850088Y903368D01*
X846909Y902516D01*
X846778Y902490D01*
X846646Y902482D01*
X843354D01*
X843221Y902490D01*
X843091Y902516D01*
X839912Y903368D01*
X839785Y903411D01*
X839666Y903470D01*
X836816Y905116D01*
X836816Y905116D01*
X836705Y905190D01*
X836605Y905277D01*
X834278Y907605D01*
X834277Y907605D01*
X834190Y907705D01*
X834116Y907816D01*
X832470Y910666D01*
X832470Y910666D01*
X832411Y910786D01*
X832368Y910912D01*
X831516Y914091D01*
X831490Y914221D01*
X831482Y914354D01*
Y916000D01*
Y956000D01*
X831490Y956133D01*
X831516Y956264D01*
X831559Y956390D01*
X831618Y956509D01*
X831692Y956620D01*
X831780Y956720D01*
X831880Y956808D01*
X831991Y956882D01*
X832110Y956941D01*
X832236Y956983D01*
X832367Y957010D01*
X832500Y957018D01*
X857500D01*
X857633Y957010D01*
D02*
G37*
G36*
X817633D02*
X817763Y956983D01*
X817890Y956941D01*
X818009Y956882D01*
X818120Y956808D01*
X818220Y956720D01*
X818308Y956620D01*
X818382Y956509D01*
X818441Y956390D01*
X818483Y956264D01*
X818509Y956133D01*
X818518Y956000D01*
Y916000D01*
Y914354D01*
D01*
Y914354D01*
X818509Y914221D01*
X818483Y914091D01*
X817632Y910912D01*
X817589Y910786D01*
X817530Y910666D01*
X815884Y907816D01*
X815884Y907816D01*
X815810Y907705D01*
X815722Y907605D01*
X813395Y905278D01*
X813395Y905277D01*
X813295Y905190D01*
X813184Y905116D01*
X810334Y903470D01*
X810334Y903470D01*
X810214Y903411D01*
X810088Y903368D01*
X806909Y902516D01*
X806778Y902490D01*
X806646Y902482D01*
X803354D01*
X803221Y902490D01*
X803091Y902516D01*
X799912Y903368D01*
X799785Y903411D01*
X799666Y903470D01*
X796816Y905116D01*
X796816Y905116D01*
X796705Y905190D01*
X796605Y905277D01*
X794278Y907605D01*
X794277Y907605D01*
X794190Y907705D01*
X794116Y907816D01*
X792470Y910666D01*
X792470Y910666D01*
X792411Y910786D01*
X792368Y910912D01*
X791516Y914091D01*
X791490Y914221D01*
X791482Y914354D01*
Y916000D01*
Y956000D01*
X791490Y956133D01*
X791516Y956264D01*
X791559Y956390D01*
X791618Y956509D01*
X791692Y956620D01*
X791780Y956720D01*
X791880Y956808D01*
X791991Y956882D01*
X792110Y956941D01*
X792236Y956983D01*
X792367Y957010D01*
X792500Y957018D01*
X817500D01*
X817633Y957010D01*
D02*
G37*
G36*
X707633D02*
X707763Y956983D01*
X707889Y956941D01*
X708009Y956882D01*
X708120Y956808D01*
X708220Y956720D01*
X708308Y956620D01*
X708382Y956509D01*
X708441Y956390D01*
X708483Y956264D01*
X708509Y956133D01*
X708518Y956000D01*
Y916000D01*
Y914354D01*
D01*
Y914354D01*
X708509Y914221D01*
X708483Y914091D01*
X707632Y910912D01*
X707589Y910786D01*
X707530Y910666D01*
X705884Y907816D01*
X705884Y907816D01*
X705810Y907705D01*
X705722Y907605D01*
X703395Y905278D01*
X703395Y905277D01*
X703295Y905190D01*
X703184Y905116D01*
X700334Y903470D01*
X700334Y903470D01*
X700214Y903411D01*
X700088Y903368D01*
X696909Y902516D01*
X696778Y902490D01*
X696646Y902482D01*
X693354D01*
X693221Y902490D01*
X693091Y902516D01*
X689911Y903368D01*
X689785Y903411D01*
X689666Y903470D01*
X686816Y905116D01*
X686816Y905116D01*
X686705Y905190D01*
X686605Y905277D01*
X684278Y907605D01*
X684277Y907605D01*
X684190Y907705D01*
X684116Y907816D01*
X682470Y910666D01*
X682470Y910666D01*
X682411Y910786D01*
X682368Y910912D01*
X681516Y914091D01*
X681490Y914221D01*
X681482Y914354D01*
Y916000D01*
Y956000D01*
X681490Y956133D01*
X681516Y956264D01*
X681559Y956390D01*
X681618Y956509D01*
X681692Y956620D01*
X681780Y956720D01*
X681880Y956808D01*
X681991Y956882D01*
X682110Y956941D01*
X682236Y956983D01*
X682367Y957010D01*
X682500Y957018D01*
X707500D01*
X707633Y957010D01*
D02*
G37*
G36*
X667633D02*
X667763Y956983D01*
X667889Y956941D01*
X668009Y956882D01*
X668120Y956808D01*
X668220Y956720D01*
X668308Y956620D01*
X668382Y956509D01*
X668441Y956390D01*
X668483Y956264D01*
X668509Y956133D01*
X668518Y956000D01*
Y916000D01*
Y914354D01*
D01*
Y914354D01*
X668509Y914221D01*
X668483Y914091D01*
X667632Y910912D01*
X667589Y910786D01*
X667530Y910666D01*
X665884Y907816D01*
X665884Y907816D01*
X665810Y907705D01*
X665722Y907605D01*
X663395Y905278D01*
X663395Y905277D01*
X663295Y905190D01*
X663184Y905116D01*
X660334Y903470D01*
X660334Y903470D01*
X660214Y903411D01*
X660088Y903368D01*
X656909Y902516D01*
X656778Y902490D01*
X656646Y902482D01*
X653354D01*
X653221Y902490D01*
X653091Y902516D01*
X649912Y903368D01*
X649785Y903411D01*
X649666Y903470D01*
X646816Y905116D01*
X646816Y905116D01*
X646705Y905190D01*
X646605Y905277D01*
X644278Y907605D01*
X644277Y907605D01*
X644190Y907705D01*
X644116Y907816D01*
X642470Y910666D01*
X642470Y910666D01*
X642411Y910786D01*
X642368Y910912D01*
X641516Y914091D01*
X641490Y914221D01*
X641482Y914354D01*
Y916000D01*
Y956000D01*
X641490Y956133D01*
X641516Y956264D01*
X641559Y956390D01*
X641618Y956509D01*
X641692Y956620D01*
X641780Y956720D01*
X641880Y956808D01*
X641991Y956882D01*
X642110Y956941D01*
X642236Y956983D01*
X642367Y957010D01*
X642500Y957018D01*
X667500D01*
X667633Y957010D01*
D02*
G37*
G36*
X557633D02*
X557763Y956983D01*
X557890Y956941D01*
X558009Y956882D01*
X558120Y956808D01*
X558220Y956720D01*
X558308Y956620D01*
X558382Y956509D01*
X558441Y956390D01*
X558483Y956264D01*
X558509Y956133D01*
X558518Y956000D01*
Y916000D01*
Y914354D01*
D01*
Y914354D01*
X558509Y914221D01*
X558483Y914091D01*
X557631Y910912D01*
X557589Y910786D01*
X557530Y910666D01*
X555884Y907816D01*
X555884Y907816D01*
X555810Y907705D01*
X555722Y907605D01*
X553395Y905278D01*
X553395Y905277D01*
X553295Y905190D01*
X553184Y905116D01*
X550334Y903470D01*
X550334Y903470D01*
X550214Y903411D01*
X550088Y903368D01*
X546909Y902516D01*
X546778Y902490D01*
X546646Y902482D01*
X543354D01*
X543221Y902490D01*
X543091Y902516D01*
X539911Y903368D01*
X539785Y903411D01*
X539666Y903470D01*
X536816Y905116D01*
X536816Y905116D01*
X536705Y905190D01*
X536605Y905277D01*
X534278Y907605D01*
X534277Y907605D01*
X534190Y907705D01*
X534116Y907816D01*
X532470Y910666D01*
X532470Y910666D01*
X532411Y910786D01*
X532368Y910912D01*
X531516Y914091D01*
X531490Y914221D01*
X531482Y914354D01*
Y916000D01*
Y956000D01*
X531490Y956133D01*
X531516Y956264D01*
X531559Y956390D01*
X531618Y956509D01*
X531692Y956620D01*
X531780Y956720D01*
X531880Y956808D01*
X531991Y956882D01*
X532110Y956941D01*
X532236Y956983D01*
X532367Y957010D01*
X532500Y957018D01*
X557500D01*
X557633Y957010D01*
D02*
G37*
G36*
X517633D02*
X517763Y956983D01*
X517890Y956941D01*
X518009Y956882D01*
X518120Y956808D01*
X518220Y956720D01*
X518308Y956620D01*
X518382Y956509D01*
X518441Y956390D01*
X518483Y956264D01*
X518509Y956133D01*
X518518Y956000D01*
Y916000D01*
Y914354D01*
D01*
Y914354D01*
X518509Y914221D01*
X518483Y914091D01*
X517631Y910912D01*
X517589Y910786D01*
X517530Y910666D01*
X515884Y907816D01*
X515884Y907816D01*
X515810Y907705D01*
X515722Y907605D01*
X513395Y905278D01*
X513395Y905277D01*
X513295Y905190D01*
X513184Y905116D01*
X510334Y903470D01*
X510334Y903470D01*
X510214Y903411D01*
X510088Y903368D01*
X506909Y902516D01*
X506778Y902490D01*
X506646Y902482D01*
X503354D01*
X503221Y902490D01*
X503091Y902516D01*
X499911Y903368D01*
X499785Y903411D01*
X499666Y903470D01*
X496816Y905116D01*
X496816Y905116D01*
X496705Y905190D01*
X496605Y905277D01*
X494278Y907605D01*
X494277Y907605D01*
X494190Y907705D01*
X494116Y907816D01*
X492470Y910666D01*
X492470Y910666D01*
X492411Y910786D01*
X492368Y910912D01*
X491516Y914091D01*
X491490Y914221D01*
X491482Y914354D01*
Y916000D01*
Y956000D01*
X491490Y956133D01*
X491516Y956264D01*
X491559Y956390D01*
X491618Y956509D01*
X491692Y956620D01*
X491780Y956720D01*
X491880Y956808D01*
X491991Y956882D01*
X492110Y956941D01*
X492236Y956983D01*
X492367Y957010D01*
X492500Y957018D01*
X517500D01*
X517633Y957010D01*
D02*
G37*
G36*
X407633D02*
X407763Y956983D01*
X407890Y956941D01*
X408009Y956882D01*
X408120Y956808D01*
X408220Y956720D01*
X408308Y956620D01*
X408382Y956509D01*
X408441Y956390D01*
X408483Y956264D01*
X408509Y956133D01*
X408518Y956000D01*
Y916000D01*
Y914354D01*
D01*
Y914354D01*
X408509Y914221D01*
X408483Y914091D01*
X407631Y910912D01*
X407589Y910786D01*
X407530Y910666D01*
X405884Y907816D01*
X405884Y907816D01*
X405810Y907705D01*
X405722Y907605D01*
X403395Y905278D01*
X403395Y905277D01*
X403295Y905190D01*
X403184Y905116D01*
X400334Y903470D01*
X400334Y903470D01*
X400214Y903411D01*
X400088Y903368D01*
X396909Y902516D01*
X396778Y902490D01*
X396646Y902482D01*
X393354D01*
X393221Y902490D01*
X393091Y902516D01*
X389911Y903368D01*
X389785Y903411D01*
X389666Y903470D01*
X386816Y905116D01*
X386816Y905116D01*
X386705Y905190D01*
X386605Y905277D01*
X384278Y907605D01*
X384277Y907605D01*
X384190Y907705D01*
X384116Y907816D01*
X382470Y910666D01*
X382470Y910666D01*
X382411Y910786D01*
X382368Y910912D01*
X381516Y914091D01*
X381490Y914221D01*
X381482Y914354D01*
Y916000D01*
Y956000D01*
X381490Y956133D01*
X381516Y956264D01*
X381559Y956390D01*
X381618Y956509D01*
X381692Y956620D01*
X381780Y956720D01*
X381880Y956808D01*
X381991Y956882D01*
X382110Y956941D01*
X382236Y956983D01*
X382367Y957010D01*
X382500Y957018D01*
X407500D01*
X407633Y957010D01*
D02*
G37*
G36*
X367633D02*
X367763Y956983D01*
X367890Y956941D01*
X368009Y956882D01*
X368120Y956808D01*
X368220Y956720D01*
X368308Y956620D01*
X368382Y956509D01*
X368441Y956390D01*
X368483Y956264D01*
X368509Y956133D01*
X368518Y956000D01*
Y916000D01*
Y914354D01*
D01*
Y914354D01*
X368509Y914221D01*
X368483Y914091D01*
X367631Y910912D01*
X367589Y910786D01*
X367530Y910666D01*
X365884Y907816D01*
X365884Y907816D01*
X365810Y907705D01*
X365722Y907605D01*
X363395Y905278D01*
X363395Y905277D01*
X363295Y905190D01*
X363184Y905116D01*
X360334Y903470D01*
X360334Y903470D01*
X360214Y903411D01*
X360088Y903368D01*
X356909Y902516D01*
X356778Y902490D01*
X356646Y902482D01*
X353354D01*
X353221Y902490D01*
X353091Y902516D01*
X349911Y903368D01*
X349785Y903411D01*
X349666Y903470D01*
X346816Y905116D01*
X346816Y905116D01*
X346705Y905190D01*
X346605Y905277D01*
X344278Y907605D01*
X344277Y907605D01*
X344190Y907705D01*
X344116Y907816D01*
X342470Y910666D01*
X342470Y910666D01*
X342411Y910786D01*
X342368Y910912D01*
X341516Y914091D01*
X341490Y914221D01*
X341482Y914354D01*
Y916000D01*
Y956000D01*
X341490Y956133D01*
X341516Y956264D01*
X341559Y956390D01*
X341618Y956509D01*
X341692Y956620D01*
X341780Y956720D01*
X341880Y956808D01*
X341991Y956882D01*
X342110Y956941D01*
X342236Y956983D01*
X342367Y957010D01*
X342500Y957018D01*
X367500D01*
X367633Y957010D01*
D02*
G37*
G36*
X257633D02*
X257763Y956983D01*
X257889Y956941D01*
X258009Y956882D01*
X258120Y956808D01*
X258220Y956720D01*
X258308Y956620D01*
X258382Y956509D01*
X258441Y956390D01*
X258483Y956264D01*
X258509Y956133D01*
X258518Y956000D01*
Y916000D01*
Y914354D01*
D01*
Y914354D01*
X258509Y914221D01*
X258483Y914091D01*
X257631Y910912D01*
X257589Y910786D01*
X257530Y910666D01*
X255884Y907816D01*
X255884Y907816D01*
X255810Y907705D01*
X255722Y907605D01*
X253395Y905278D01*
X253395Y905277D01*
X253295Y905190D01*
X253184Y905116D01*
X250334Y903470D01*
X250334Y903470D01*
X250214Y903411D01*
X250088Y903368D01*
X246909Y902516D01*
X246778Y902490D01*
X246646Y902482D01*
X243354D01*
X243221Y902490D01*
X243091Y902516D01*
X239911Y903368D01*
X239785Y903411D01*
X239666Y903470D01*
X236816Y905116D01*
X236816Y905116D01*
X236705Y905190D01*
X236605Y905277D01*
X234278Y907605D01*
X234277Y907605D01*
X234190Y907705D01*
X234116Y907816D01*
X232470Y910666D01*
X232470Y910666D01*
X232411Y910786D01*
X232368Y910912D01*
X231516Y914091D01*
X231490Y914221D01*
X231482Y914354D01*
Y916000D01*
Y956000D01*
X231490Y956133D01*
X231516Y956264D01*
X231559Y956390D01*
X231618Y956509D01*
X231692Y956620D01*
X231780Y956720D01*
X231880Y956808D01*
X231991Y956882D01*
X232110Y956941D01*
X232236Y956983D01*
X232367Y957010D01*
X232500Y957018D01*
X257500D01*
X257633Y957010D01*
D02*
G37*
G36*
X217633D02*
X217763Y956983D01*
X217889Y956941D01*
X218009Y956882D01*
X218120Y956808D01*
X218220Y956720D01*
X218308Y956620D01*
X218382Y956509D01*
X218441Y956390D01*
X218483Y956264D01*
X218509Y956133D01*
X218518Y956000D01*
Y916000D01*
Y914354D01*
D01*
Y914354D01*
X218509Y914221D01*
X218483Y914091D01*
X217631Y910912D01*
X217589Y910786D01*
X217530Y910666D01*
X215884Y907816D01*
X215884Y907816D01*
X215810Y907705D01*
X215722Y907605D01*
X213395Y905278D01*
X213395Y905277D01*
X213295Y905190D01*
X213184Y905116D01*
X210334Y903470D01*
X210334Y903470D01*
X210214Y903411D01*
X210088Y903368D01*
X206909Y902516D01*
X206778Y902490D01*
X206646Y902482D01*
X203354D01*
X203221Y902490D01*
X203091Y902516D01*
X199911Y903368D01*
X199785Y903411D01*
X199666Y903470D01*
X196816Y905116D01*
X196816Y905116D01*
X196705Y905190D01*
X196605Y905277D01*
X194278Y907605D01*
X194277Y907605D01*
X194190Y907705D01*
X194116Y907816D01*
X192470Y910666D01*
X192470Y910666D01*
X192411Y910786D01*
X192368Y910912D01*
X191516Y914091D01*
X191490Y914221D01*
X191482Y914354D01*
Y916000D01*
Y956000D01*
X191490Y956133D01*
X191516Y956264D01*
X191559Y956390D01*
X191618Y956509D01*
X191692Y956620D01*
X191780Y956720D01*
X191880Y956808D01*
X191991Y956882D01*
X192110Y956941D01*
X192236Y956983D01*
X192367Y957010D01*
X192500Y957018D01*
X217500D01*
X217633Y957010D01*
D02*
G37*
G36*
X107633D02*
X107763Y956983D01*
X107889Y956941D01*
X108009Y956882D01*
X108120Y956808D01*
X108220Y956720D01*
X108308Y956620D01*
X108382Y956509D01*
X108441Y956390D01*
X108483Y956264D01*
X108509Y956133D01*
X108518Y956000D01*
Y916000D01*
Y914354D01*
D01*
Y914354D01*
X108509Y914221D01*
X108483Y914091D01*
X107632Y910912D01*
X107589Y910786D01*
X107530Y910666D01*
X105884Y907816D01*
X105884Y907816D01*
X105810Y907705D01*
X105722Y907605D01*
X103395Y905278D01*
X103395Y905277D01*
X103295Y905190D01*
X103184Y905116D01*
X100334Y903470D01*
X100334Y903470D01*
X100214Y903411D01*
X100088Y903368D01*
X96909Y902516D01*
X96778Y902490D01*
X96645Y902482D01*
X93354D01*
X93221Y902490D01*
X93091Y902516D01*
X89911Y903368D01*
X89785Y903411D01*
X89666Y903470D01*
X86816Y905116D01*
X86816Y905116D01*
X86705Y905190D01*
X86605Y905277D01*
X84278Y907605D01*
X84277Y907605D01*
X84190Y907705D01*
X84116Y907816D01*
X82470Y910666D01*
X82470Y910666D01*
X82411Y910786D01*
X82368Y910912D01*
X81516Y914091D01*
X81490Y914221D01*
X81482Y914354D01*
Y916000D01*
Y956000D01*
X81490Y956133D01*
X81516Y956264D01*
X81559Y956390D01*
X81618Y956509D01*
X81692Y956620D01*
X81780Y956720D01*
X81880Y956808D01*
X81991Y956882D01*
X82110Y956941D01*
X82236Y956983D01*
X82367Y957010D01*
X82500Y957018D01*
X107500D01*
X107633Y957010D01*
D02*
G37*
G36*
X67633D02*
X67763Y956983D01*
X67889Y956941D01*
X68009Y956882D01*
X68120Y956808D01*
X68220Y956720D01*
X68308Y956620D01*
X68382Y956509D01*
X68441Y956390D01*
X68483Y956264D01*
X68509Y956133D01*
X68518Y956000D01*
Y916000D01*
Y914354D01*
D01*
Y914354D01*
X68509Y914221D01*
X68483Y914091D01*
X67632Y910912D01*
X67589Y910786D01*
X67530Y910666D01*
X65884Y907816D01*
X65884Y907816D01*
X65810Y907705D01*
X65722Y907605D01*
X63395Y905278D01*
X63395Y905277D01*
X63295Y905190D01*
X63184Y905116D01*
X60334Y903470D01*
X60334Y903470D01*
X60214Y903411D01*
X60088Y903368D01*
X56909Y902516D01*
X56778Y902490D01*
X56645Y902482D01*
X53354D01*
X53221Y902490D01*
X53091Y902516D01*
X49911Y903368D01*
X49785Y903411D01*
X49666Y903470D01*
X46816Y905116D01*
X46816Y905116D01*
X46705Y905190D01*
X46605Y905277D01*
X44278Y907605D01*
X44277Y907605D01*
X44190Y907705D01*
X44116Y907816D01*
X42470Y910666D01*
X42470Y910666D01*
X42411Y910786D01*
X42368Y910912D01*
X41516Y914091D01*
X41490Y914221D01*
X41482Y914354D01*
Y916000D01*
Y956000D01*
X41490Y956133D01*
X41516Y956264D01*
X41559Y956390D01*
X41618Y956509D01*
X41692Y956620D01*
X41780Y956720D01*
X41880Y956808D01*
X41991Y956882D01*
X42110Y956941D01*
X42236Y956983D01*
X42367Y957010D01*
X42500Y957018D01*
X67500D01*
X67633Y957010D01*
D02*
G37*
G36*
X846778Y57509D02*
X846909Y57484D01*
X850088Y56632D01*
X850214Y56589D01*
X850334Y56530D01*
X853184Y54884D01*
X853295Y54810D01*
X853395Y54722D01*
X853395Y54722D01*
X855722Y52395D01*
X855810Y52295D01*
X855884Y52184D01*
X855884Y52184D01*
X857530Y49334D01*
X857589Y49214D01*
X857632Y49088D01*
X858483Y45909D01*
X858509Y45778D01*
X858518Y45646D01*
Y45646D01*
D01*
Y44000D01*
Y4000D01*
X858509Y3867D01*
X858483Y3737D01*
X858441Y3610D01*
X858382Y3491D01*
X858308Y3380D01*
X858220Y3280D01*
X858120Y3192D01*
X858009Y3118D01*
X857889Y3059D01*
X857763Y3016D01*
X857633Y2991D01*
X857500Y2982D01*
X832500D01*
X832367Y2991D01*
X832236Y3016D01*
X832110Y3059D01*
X831991Y3118D01*
X831880Y3192D01*
X831780Y3280D01*
X831692Y3380D01*
X831618Y3491D01*
X831559Y3610D01*
X831516Y3737D01*
X831490Y3867D01*
X831482Y4000D01*
Y44000D01*
Y45646D01*
X831490Y45778D01*
X831516Y45909D01*
X832368Y49088D01*
X832411Y49214D01*
X832470Y49334D01*
X832470Y49334D01*
X834116Y52184D01*
X834190Y52295D01*
X834277Y52395D01*
X834278Y52395D01*
X836605Y54722D01*
X836705Y54810D01*
X836816Y54884D01*
X836816Y54884D01*
X839666Y56530D01*
X839785Y56589D01*
X839912Y56632D01*
X843091Y57484D01*
X843221Y57509D01*
X843354Y57518D01*
D01*
X843354D01*
X846646D01*
X846778Y57509D01*
D02*
G37*
G36*
X806778D02*
X806909Y57484D01*
X810088Y56632D01*
X810214Y56589D01*
X810334Y56530D01*
X813184Y54884D01*
X813295Y54810D01*
X813395Y54722D01*
X813395Y54722D01*
X815722Y52395D01*
X815810Y52295D01*
X815884Y52184D01*
X815884Y52184D01*
X817530Y49334D01*
X817589Y49214D01*
X817632Y49088D01*
X818483Y45909D01*
X818509Y45778D01*
X818518Y45646D01*
Y45646D01*
D01*
Y44000D01*
Y4000D01*
X818509Y3867D01*
X818483Y3737D01*
X818441Y3610D01*
X818382Y3491D01*
X818308Y3380D01*
X818220Y3280D01*
X818120Y3192D01*
X818009Y3118D01*
X817890Y3059D01*
X817763Y3016D01*
X817633Y2991D01*
X817500Y2982D01*
X792500D01*
X792367Y2991D01*
X792236Y3016D01*
X792110Y3059D01*
X791991Y3118D01*
X791880Y3192D01*
X791780Y3280D01*
X791692Y3380D01*
X791618Y3491D01*
X791559Y3610D01*
X791516Y3737D01*
X791490Y3867D01*
X791482Y4000D01*
Y44000D01*
Y45646D01*
X791490Y45778D01*
X791516Y45909D01*
X792368Y49088D01*
X792411Y49214D01*
X792470Y49334D01*
X792470Y49334D01*
X794116Y52184D01*
X794190Y52295D01*
X794277Y52395D01*
X794278Y52395D01*
X796605Y54722D01*
X796705Y54810D01*
X796816Y54884D01*
X796816Y54884D01*
X799666Y56530D01*
X799785Y56589D01*
X799912Y56632D01*
X803091Y57484D01*
X803221Y57509D01*
X803354Y57518D01*
X803354D01*
D01*
X806646D01*
X806778Y57509D01*
D02*
G37*
G36*
X696778D02*
X696909Y57484D01*
X700088Y56632D01*
X700214Y56589D01*
X700334Y56530D01*
X703184Y54884D01*
X703295Y54810D01*
X703395Y54722D01*
X703395Y54722D01*
X705722Y52395D01*
X705810Y52295D01*
X705884Y52184D01*
X705884Y52184D01*
X707530Y49334D01*
X707589Y49214D01*
X707632Y49088D01*
X708483Y45909D01*
X708509Y45778D01*
X708518Y45646D01*
Y45646D01*
D01*
Y44000D01*
Y4000D01*
X708509Y3867D01*
X708483Y3737D01*
X708441Y3610D01*
X708382Y3491D01*
X708308Y3380D01*
X708220Y3280D01*
X708120Y3192D01*
X708009Y3118D01*
X707889Y3059D01*
X707763Y3016D01*
X707633Y2991D01*
X707500Y2982D01*
X682500D01*
X682367Y2991D01*
X682236Y3016D01*
X682110Y3059D01*
X681991Y3118D01*
X681880Y3192D01*
X681780Y3280D01*
X681692Y3380D01*
X681618Y3491D01*
X681559Y3610D01*
X681516Y3737D01*
X681490Y3867D01*
X681482Y4000D01*
Y44000D01*
Y45646D01*
X681490Y45778D01*
X681516Y45909D01*
X682368Y49088D01*
X682411Y49214D01*
X682470Y49334D01*
X682470Y49334D01*
X684116Y52184D01*
X684190Y52295D01*
X684277Y52395D01*
X684278Y52395D01*
X686605Y54722D01*
X686705Y54810D01*
X686816Y54884D01*
X686816Y54884D01*
X689666Y56530D01*
X689785Y56589D01*
X689911Y56632D01*
X693091Y57484D01*
X693221Y57509D01*
X693354Y57518D01*
D01*
X693354D01*
X696646D01*
X696778Y57509D01*
D02*
G37*
G36*
X656778D02*
X656909Y57484D01*
X660088Y56632D01*
X660214Y56589D01*
X660334Y56530D01*
X663184Y54884D01*
X663295Y54810D01*
X663395Y54722D01*
X663395Y54722D01*
X665722Y52395D01*
X665810Y52295D01*
X665884Y52184D01*
X665884Y52184D01*
X667530Y49334D01*
X667589Y49214D01*
X667632Y49088D01*
X668483Y45909D01*
X668509Y45778D01*
X668518Y45646D01*
Y45646D01*
D01*
Y44000D01*
Y4000D01*
X668509Y3867D01*
X668483Y3737D01*
X668441Y3610D01*
X668382Y3491D01*
X668308Y3380D01*
X668220Y3280D01*
X668120Y3192D01*
X668009Y3118D01*
X667889Y3059D01*
X667763Y3016D01*
X667633Y2991D01*
X667500Y2982D01*
X642500D01*
X642367Y2991D01*
X642236Y3016D01*
X642110Y3059D01*
X641991Y3118D01*
X641880Y3192D01*
X641780Y3280D01*
X641692Y3380D01*
X641618Y3491D01*
X641559Y3610D01*
X641516Y3737D01*
X641490Y3867D01*
X641482Y4000D01*
Y44000D01*
Y45646D01*
X641490Y45778D01*
X641516Y45909D01*
X642368Y49088D01*
X642411Y49214D01*
X642470Y49334D01*
X642470Y49334D01*
X644116Y52184D01*
X644190Y52295D01*
X644277Y52395D01*
X644278Y52395D01*
X646605Y54722D01*
X646705Y54810D01*
X646816Y54884D01*
X646816Y54884D01*
X649666Y56530D01*
X649785Y56589D01*
X649912Y56632D01*
X653091Y57484D01*
X653221Y57509D01*
X653354Y57518D01*
X653354D01*
D01*
X656646D01*
X656778Y57509D01*
D02*
G37*
G36*
X546778D02*
X546909Y57484D01*
X550088Y56632D01*
X550214Y56589D01*
X550334Y56530D01*
X553184Y54884D01*
X553295Y54810D01*
X553395Y54722D01*
X553395Y54722D01*
X555722Y52395D01*
X555810Y52295D01*
X555884Y52184D01*
X555884Y52184D01*
X557530Y49334D01*
X557589Y49214D01*
X557631Y49088D01*
X558483Y45909D01*
X558509Y45778D01*
X558518Y45646D01*
Y45646D01*
D01*
Y44000D01*
Y4000D01*
X558509Y3867D01*
X558483Y3737D01*
X558441Y3610D01*
X558382Y3491D01*
X558308Y3380D01*
X558220Y3280D01*
X558120Y3192D01*
X558009Y3118D01*
X557890Y3059D01*
X557763Y3016D01*
X557633Y2991D01*
X557500Y2982D01*
X532500D01*
X532367Y2991D01*
X532236Y3016D01*
X532110Y3059D01*
X531991Y3118D01*
X531880Y3192D01*
X531780Y3280D01*
X531692Y3380D01*
X531618Y3491D01*
X531559Y3610D01*
X531516Y3737D01*
X531490Y3867D01*
X531482Y4000D01*
Y44000D01*
Y45646D01*
X531490Y45778D01*
X531516Y45909D01*
X532368Y49088D01*
X532411Y49214D01*
X532470Y49334D01*
X532470Y49334D01*
X534116Y52184D01*
X534190Y52295D01*
X534277Y52395D01*
X534278Y52395D01*
X536605Y54722D01*
X536705Y54810D01*
X536816Y54884D01*
X536816Y54884D01*
X539666Y56530D01*
X539785Y56589D01*
X539911Y56632D01*
X543091Y57484D01*
X543221Y57509D01*
X543354Y57518D01*
D01*
X543354D01*
X546646D01*
X546778Y57509D01*
D02*
G37*
G36*
X506778D02*
X506909Y57484D01*
X510088Y56632D01*
X510214Y56589D01*
X510334Y56530D01*
X513184Y54884D01*
X513295Y54810D01*
X513395Y54722D01*
X513395Y54722D01*
X515722Y52395D01*
X515810Y52295D01*
X515884Y52184D01*
X515884Y52184D01*
X517530Y49334D01*
X517589Y49214D01*
X517631Y49088D01*
X518483Y45909D01*
X518509Y45778D01*
X518518Y45646D01*
Y45646D01*
D01*
Y44000D01*
Y4000D01*
X518509Y3867D01*
X518483Y3737D01*
X518441Y3610D01*
X518382Y3491D01*
X518308Y3380D01*
X518220Y3280D01*
X518120Y3192D01*
X518009Y3118D01*
X517890Y3059D01*
X517763Y3016D01*
X517633Y2991D01*
X517500Y2982D01*
X492500D01*
X492367Y2991D01*
X492236Y3016D01*
X492110Y3059D01*
X491991Y3118D01*
X491880Y3192D01*
X491780Y3280D01*
X491692Y3380D01*
X491618Y3491D01*
X491559Y3610D01*
X491516Y3737D01*
X491490Y3867D01*
X491482Y4000D01*
Y44000D01*
Y45646D01*
X491490Y45778D01*
X491516Y45909D01*
X492368Y49088D01*
X492411Y49214D01*
X492470Y49334D01*
X492470Y49334D01*
X494116Y52184D01*
X494190Y52295D01*
X494277Y52395D01*
X494278Y52395D01*
X496605Y54722D01*
X496705Y54810D01*
X496816Y54884D01*
X496816Y54884D01*
X499666Y56530D01*
X499785Y56589D01*
X499911Y56632D01*
X503091Y57484D01*
X503221Y57509D01*
X503354Y57518D01*
X503354D01*
D01*
X506646D01*
X506778Y57509D01*
D02*
G37*
G36*
X396778D02*
X396909Y57484D01*
X400088Y56632D01*
X400214Y56589D01*
X400334Y56530D01*
X403184Y54884D01*
X403295Y54810D01*
X403395Y54722D01*
X403395Y54722D01*
X405722Y52395D01*
X405810Y52295D01*
X405884Y52184D01*
X405884Y52184D01*
X407530Y49334D01*
X407589Y49214D01*
X407631Y49088D01*
X408483Y45909D01*
X408509Y45778D01*
X408518Y45646D01*
Y45646D01*
D01*
Y44000D01*
Y4000D01*
X408509Y3867D01*
X408483Y3737D01*
X408441Y3610D01*
X408382Y3491D01*
X408308Y3380D01*
X408220Y3280D01*
X408120Y3192D01*
X408009Y3118D01*
X407890Y3059D01*
X407763Y3016D01*
X407633Y2991D01*
X407500Y2982D01*
X382500D01*
X382367Y2991D01*
X382236Y3016D01*
X382110Y3059D01*
X381991Y3118D01*
X381880Y3192D01*
X381780Y3280D01*
X381692Y3380D01*
X381618Y3491D01*
X381559Y3610D01*
X381516Y3737D01*
X381490Y3867D01*
X381482Y4000D01*
Y44000D01*
Y45646D01*
X381490Y45778D01*
X381516Y45909D01*
X382368Y49088D01*
X382411Y49214D01*
X382470Y49334D01*
X382470Y49334D01*
X384116Y52184D01*
X384190Y52295D01*
X384277Y52395D01*
X384278Y52395D01*
X386605Y54722D01*
X386705Y54810D01*
X386816Y54884D01*
X386816Y54884D01*
X389666Y56530D01*
X389785Y56589D01*
X389911Y56632D01*
X393091Y57484D01*
X393221Y57509D01*
X393354Y57518D01*
D01*
X393354D01*
X396646D01*
X396778Y57509D01*
D02*
G37*
G36*
X356778D02*
X356909Y57484D01*
X360088Y56632D01*
X360214Y56589D01*
X360334Y56530D01*
X363184Y54884D01*
X363295Y54810D01*
X363395Y54722D01*
X363395Y54722D01*
X365722Y52395D01*
X365810Y52295D01*
X365884Y52184D01*
X365884Y52184D01*
X367530Y49334D01*
X367589Y49214D01*
X367631Y49088D01*
X368483Y45909D01*
X368509Y45778D01*
X368518Y45646D01*
Y45646D01*
D01*
Y44000D01*
Y4000D01*
X368509Y3867D01*
X368483Y3737D01*
X368441Y3610D01*
X368382Y3491D01*
X368308Y3380D01*
X368220Y3280D01*
X368120Y3192D01*
X368009Y3118D01*
X367890Y3059D01*
X367763Y3016D01*
X367633Y2991D01*
X367500Y2982D01*
X342500D01*
X342367Y2991D01*
X342236Y3016D01*
X342110Y3059D01*
X341991Y3118D01*
X341880Y3192D01*
X341780Y3280D01*
X341692Y3380D01*
X341618Y3491D01*
X341559Y3610D01*
X341516Y3737D01*
X341490Y3867D01*
X341482Y4000D01*
Y44000D01*
Y45646D01*
X341490Y45778D01*
X341516Y45909D01*
X342368Y49088D01*
X342411Y49214D01*
X342470Y49334D01*
X342470Y49334D01*
X344116Y52184D01*
X344190Y52295D01*
X344277Y52395D01*
X344278Y52395D01*
X346605Y54722D01*
X346705Y54810D01*
X346816Y54884D01*
X346816Y54884D01*
X349666Y56530D01*
X349785Y56589D01*
X349911Y56632D01*
X353091Y57484D01*
X353221Y57509D01*
X353354Y57518D01*
X353354D01*
D01*
X356646D01*
X356778Y57509D01*
D02*
G37*
G36*
X246778D02*
X246909Y57484D01*
X250088Y56632D01*
X250214Y56589D01*
X250334Y56530D01*
X253184Y54884D01*
X253295Y54810D01*
X253395Y54722D01*
X253395Y54722D01*
X255722Y52395D01*
X255810Y52295D01*
X255884Y52184D01*
X255884Y52184D01*
X257530Y49334D01*
X257589Y49214D01*
X257631Y49088D01*
X258483Y45909D01*
X258509Y45778D01*
X258518Y45646D01*
Y45646D01*
D01*
Y44000D01*
Y4000D01*
X258509Y3867D01*
X258483Y3737D01*
X258441Y3610D01*
X258382Y3491D01*
X258308Y3380D01*
X258220Y3280D01*
X258120Y3192D01*
X258009Y3118D01*
X257889Y3059D01*
X257763Y3016D01*
X257633Y2991D01*
X257500Y2982D01*
X232500D01*
X232367Y2991D01*
X232236Y3016D01*
X232110Y3059D01*
X231991Y3118D01*
X231880Y3192D01*
X231780Y3280D01*
X231692Y3380D01*
X231618Y3491D01*
X231559Y3610D01*
X231516Y3737D01*
X231490Y3867D01*
X231482Y4000D01*
Y44000D01*
Y45646D01*
X231490Y45778D01*
X231516Y45909D01*
X232368Y49088D01*
X232411Y49214D01*
X232470Y49334D01*
X232470Y49334D01*
X234116Y52184D01*
X234190Y52295D01*
X234277Y52395D01*
X234278Y52395D01*
X236605Y54722D01*
X236705Y54810D01*
X236816Y54884D01*
X236816Y54884D01*
X239666Y56530D01*
X239785Y56589D01*
X239911Y56632D01*
X243091Y57484D01*
X243221Y57509D01*
X243354Y57518D01*
D01*
X243354D01*
X246646D01*
X246778Y57509D01*
D02*
G37*
G36*
X206779D02*
X206909Y57484D01*
X210088Y56632D01*
X210214Y56589D01*
X210334Y56530D01*
X213184Y54884D01*
X213295Y54810D01*
X213395Y54722D01*
X213395Y54722D01*
X215722Y52395D01*
X215810Y52295D01*
X215884Y52184D01*
X215884Y52184D01*
X217530Y49334D01*
X217589Y49214D01*
X217631Y49088D01*
X218483Y45909D01*
X218509Y45778D01*
X218518Y45646D01*
Y45646D01*
D01*
Y44000D01*
Y4000D01*
X218509Y3867D01*
X218483Y3737D01*
X218441Y3610D01*
X218382Y3491D01*
X218308Y3380D01*
X218220Y3280D01*
X218120Y3192D01*
X218009Y3118D01*
X217889Y3059D01*
X217763Y3016D01*
X217633Y2991D01*
X217500Y2982D01*
X192500D01*
X192367Y2991D01*
X192236Y3016D01*
X192110Y3059D01*
X191991Y3118D01*
X191880Y3192D01*
X191780Y3280D01*
X191692Y3380D01*
X191618Y3491D01*
X191559Y3610D01*
X191516Y3737D01*
X191490Y3867D01*
X191482Y4000D01*
Y44000D01*
Y45646D01*
X191490Y45778D01*
X191516Y45909D01*
X192368Y49088D01*
X192411Y49214D01*
X192470Y49334D01*
X192470Y49334D01*
X194116Y52184D01*
X194190Y52295D01*
X194277Y52395D01*
X194278Y52395D01*
X196605Y54722D01*
X196705Y54810D01*
X196816Y54884D01*
X196816Y54884D01*
X199666Y56530D01*
X199785Y56589D01*
X199911Y56632D01*
X203091Y57484D01*
X203221Y57509D01*
X203354Y57518D01*
X203354D01*
D01*
X206646D01*
X206779Y57509D01*
D02*
G37*
G36*
X96778D02*
X96909Y57484D01*
X100088Y56632D01*
X100214Y56589D01*
X100334Y56530D01*
X103184Y54884D01*
X103295Y54810D01*
X103395Y54722D01*
X103395Y54722D01*
X105722Y52395D01*
X105810Y52295D01*
X105884Y52184D01*
X105884Y52184D01*
X107530Y49334D01*
X107589Y49214D01*
X107632Y49088D01*
X108483Y45909D01*
X108509Y45778D01*
X108518Y45646D01*
Y45646D01*
D01*
Y44000D01*
Y4000D01*
X108509Y3867D01*
X108483Y3737D01*
X108441Y3610D01*
X108382Y3491D01*
X108308Y3380D01*
X108220Y3280D01*
X108120Y3192D01*
X108009Y3118D01*
X107889Y3059D01*
X107763Y3016D01*
X107633Y2991D01*
X107500Y2982D01*
X82500D01*
X82367Y2991D01*
X82236Y3016D01*
X82110Y3059D01*
X81991Y3118D01*
X81880Y3192D01*
X81780Y3280D01*
X81692Y3380D01*
X81618Y3491D01*
X81559Y3610D01*
X81516Y3737D01*
X81490Y3867D01*
X81482Y4000D01*
Y44000D01*
Y45646D01*
X81490Y45778D01*
X81516Y45909D01*
X82368Y49088D01*
X82411Y49214D01*
X82470Y49334D01*
X82470Y49334D01*
X84116Y52184D01*
X84190Y52295D01*
X84277Y52395D01*
X84278Y52395D01*
X86605Y54722D01*
X86705Y54810D01*
X86816Y54884D01*
X86816Y54884D01*
X89666Y56530D01*
X89785Y56589D01*
X89911Y56632D01*
X93091Y57484D01*
X93221Y57509D01*
X93354Y57518D01*
D01*
X93354D01*
X96645D01*
X96778Y57509D01*
D02*
G37*
G36*
X56778D02*
X56909Y57484D01*
X60088Y56632D01*
X60214Y56589D01*
X60334Y56530D01*
X63184Y54884D01*
X63295Y54810D01*
X63395Y54722D01*
X63395Y54722D01*
X65722Y52395D01*
X65810Y52295D01*
X65884Y52184D01*
X65884Y52184D01*
X67530Y49334D01*
X67589Y49214D01*
X67632Y49088D01*
X68483Y45909D01*
X68509Y45778D01*
X68518Y45646D01*
Y45646D01*
D01*
Y44000D01*
Y4000D01*
X68509Y3867D01*
X68483Y3737D01*
X68441Y3610D01*
X68382Y3491D01*
X68308Y3380D01*
X68220Y3280D01*
X68120Y3192D01*
X68009Y3118D01*
X67889Y3059D01*
X67763Y3016D01*
X67633Y2991D01*
X67500Y2982D01*
X42500D01*
X42367Y2991D01*
X42236Y3016D01*
X42110Y3059D01*
X41991Y3118D01*
X41880Y3192D01*
X41780Y3280D01*
X41692Y3380D01*
X41618Y3491D01*
X41559Y3610D01*
X41516Y3737D01*
X41490Y3867D01*
X41482Y4000D01*
Y44000D01*
Y45646D01*
X41490Y45778D01*
X41516Y45909D01*
X42368Y49088D01*
X42411Y49214D01*
X42470Y49334D01*
X42470Y49334D01*
X44116Y52184D01*
X44190Y52295D01*
X44277Y52395D01*
X44278Y52395D01*
X46605Y54722D01*
X46705Y54810D01*
X46816Y54884D01*
X46816Y54884D01*
X49666Y56530D01*
X49785Y56589D01*
X49911Y56632D01*
X53091Y57484D01*
X53221Y57509D01*
X53354Y57518D01*
X53354D01*
D01*
X56645D01*
X56778Y57509D01*
D02*
G37*
G36*
X900000Y18000D02*
X864500D01*
Y53000D01*
X900000D01*
Y18000D01*
D02*
G37*
G36*
X785500D02*
X750000D01*
Y53000D01*
X785500D01*
Y18000D01*
D02*
G37*
G36*
X750000D02*
X714500D01*
Y53000D01*
X750000D01*
Y18000D01*
D02*
G37*
G36*
X635500D02*
X600000D01*
Y53000D01*
X635500D01*
Y18000D01*
D02*
G37*
G36*
X600000D02*
X564500D01*
Y53000D01*
X600000D01*
Y18000D01*
D02*
G37*
G36*
X485500D02*
X450000D01*
Y53000D01*
X485500D01*
Y18000D01*
D02*
G37*
G36*
X450000D02*
X414500D01*
Y53000D01*
X450000D01*
Y18000D01*
D02*
G37*
G36*
X335500D02*
X300000D01*
Y53000D01*
X335500D01*
Y18000D01*
D02*
G37*
G36*
X300000D02*
X264500D01*
Y53000D01*
X300000D01*
Y18000D01*
D02*
G37*
G36*
X185500D02*
X150000D01*
Y53000D01*
X185500D01*
Y18000D01*
D02*
G37*
G36*
X150000D02*
X114500D01*
Y53000D01*
X150000D01*
Y18000D01*
D02*
G37*
G36*
X35500D02*
X0D01*
Y53000D01*
X35500D01*
Y18000D01*
D02*
G37*
D21*
X19000Y119500D02*
D03*
Y136500D02*
D03*
Y520500D02*
D03*
Y503500D02*
D03*
Y456500D02*
D03*
Y439500D02*
D03*
Y328500D02*
D03*
Y311500D02*
D03*
Y392500D02*
D03*
Y375500D02*
D03*
Y584500D02*
D03*
Y567500D02*
D03*
Y648500D02*
D03*
Y631500D02*
D03*
Y712500D02*
D03*
Y695500D02*
D03*
Y776500D02*
D03*
Y759500D02*
D03*
Y840500D02*
D03*
Y823500D02*
D03*
Y264500D02*
D03*
Y247500D02*
D03*
Y200500D02*
D03*
Y183500D02*
D03*
X169000Y119500D02*
D03*
Y136500D02*
D03*
Y520500D02*
D03*
Y503500D02*
D03*
Y456500D02*
D03*
Y439500D02*
D03*
Y328500D02*
D03*
Y311500D02*
D03*
Y392500D02*
D03*
Y375500D02*
D03*
Y584500D02*
D03*
Y567500D02*
D03*
Y648500D02*
D03*
Y631500D02*
D03*
Y712500D02*
D03*
Y695500D02*
D03*
Y776500D02*
D03*
Y759500D02*
D03*
Y840500D02*
D03*
Y823500D02*
D03*
Y264500D02*
D03*
Y247500D02*
D03*
Y200500D02*
D03*
Y183500D02*
D03*
X319000Y119500D02*
D03*
Y136500D02*
D03*
Y520500D02*
D03*
Y503500D02*
D03*
Y456500D02*
D03*
Y439500D02*
D03*
Y328500D02*
D03*
Y311500D02*
D03*
Y392500D02*
D03*
Y375500D02*
D03*
Y584500D02*
D03*
Y567500D02*
D03*
Y648500D02*
D03*
Y631500D02*
D03*
Y712500D02*
D03*
Y695500D02*
D03*
Y776500D02*
D03*
Y759500D02*
D03*
Y840500D02*
D03*
Y823500D02*
D03*
Y264500D02*
D03*
Y247500D02*
D03*
Y200500D02*
D03*
Y183500D02*
D03*
X469000Y119500D02*
D03*
Y136500D02*
D03*
Y520500D02*
D03*
Y503500D02*
D03*
Y456500D02*
D03*
Y439500D02*
D03*
Y328500D02*
D03*
Y311500D02*
D03*
Y392500D02*
D03*
Y375500D02*
D03*
Y584500D02*
D03*
Y567500D02*
D03*
Y648500D02*
D03*
Y631500D02*
D03*
Y712500D02*
D03*
Y695500D02*
D03*
Y776500D02*
D03*
Y759500D02*
D03*
Y840500D02*
D03*
Y823500D02*
D03*
Y264500D02*
D03*
Y247500D02*
D03*
Y200500D02*
D03*
Y183500D02*
D03*
X619000Y119500D02*
D03*
Y136500D02*
D03*
Y520500D02*
D03*
Y503500D02*
D03*
Y456500D02*
D03*
Y439500D02*
D03*
Y328500D02*
D03*
Y311500D02*
D03*
Y392500D02*
D03*
Y375500D02*
D03*
Y584500D02*
D03*
Y567500D02*
D03*
Y648500D02*
D03*
Y631500D02*
D03*
Y712500D02*
D03*
Y695500D02*
D03*
Y776500D02*
D03*
Y759500D02*
D03*
Y840500D02*
D03*
Y823500D02*
D03*
Y264500D02*
D03*
Y247500D02*
D03*
Y200500D02*
D03*
Y183500D02*
D03*
X769000Y119500D02*
D03*
Y136500D02*
D03*
Y520500D02*
D03*
Y503500D02*
D03*
Y456500D02*
D03*
Y439500D02*
D03*
Y328500D02*
D03*
Y311500D02*
D03*
Y392500D02*
D03*
Y375500D02*
D03*
Y584500D02*
D03*
Y567500D02*
D03*
Y648500D02*
D03*
Y631500D02*
D03*
Y712500D02*
D03*
Y695500D02*
D03*
Y776500D02*
D03*
Y759500D02*
D03*
Y840500D02*
D03*
Y823500D02*
D03*
Y264500D02*
D03*
Y247500D02*
D03*
Y200500D02*
D03*
Y183500D02*
D03*
D22*
X55000Y44000D02*
D03*
X95000D02*
D03*
Y916000D02*
D03*
X55000D02*
D03*
X205000Y44000D02*
D03*
X245000D02*
D03*
Y916000D02*
D03*
X205000D02*
D03*
X355000Y44000D02*
D03*
X395000D02*
D03*
Y916000D02*
D03*
X355000D02*
D03*
X505000Y44000D02*
D03*
X545000D02*
D03*
Y916000D02*
D03*
X505000D02*
D03*
X655000Y44000D02*
D03*
X695000D02*
D03*
Y916000D02*
D03*
X655000D02*
D03*
X805000Y44000D02*
D03*
X845000D02*
D03*
Y916000D02*
D03*
X805000D02*
D03*
D23*
X50500Y144500D02*
D03*
Y111500D02*
D03*
X99500D02*
D03*
Y144500D02*
D03*
X50500Y848500D02*
D03*
Y815500D02*
D03*
X99500D02*
D03*
Y848500D02*
D03*
X50500Y528500D02*
D03*
Y495500D02*
D03*
X99500D02*
D03*
Y528500D02*
D03*
X50500Y464500D02*
D03*
Y431500D02*
D03*
X99500D02*
D03*
Y464500D02*
D03*
X50500Y400500D02*
D03*
Y367500D02*
D03*
X99500D02*
D03*
Y400500D02*
D03*
X50500Y592500D02*
D03*
Y559500D02*
D03*
X99500D02*
D03*
Y592500D02*
D03*
X50500Y336500D02*
D03*
Y303500D02*
D03*
X99500D02*
D03*
Y336500D02*
D03*
X50500Y720500D02*
D03*
Y687500D02*
D03*
X99500D02*
D03*
Y720500D02*
D03*
X50500Y656500D02*
D03*
Y623500D02*
D03*
X99500D02*
D03*
Y656500D02*
D03*
X50500Y784500D02*
D03*
Y751500D02*
D03*
X99500D02*
D03*
Y784500D02*
D03*
X50500Y208500D02*
D03*
Y175500D02*
D03*
X99500D02*
D03*
Y208500D02*
D03*
X50500Y272500D02*
D03*
Y239500D02*
D03*
X99500D02*
D03*
Y272500D02*
D03*
X200500Y144500D02*
D03*
Y111500D02*
D03*
X249500D02*
D03*
Y144500D02*
D03*
X200500Y848500D02*
D03*
Y815500D02*
D03*
X249500D02*
D03*
Y848500D02*
D03*
X200500Y528500D02*
D03*
Y495500D02*
D03*
X249500D02*
D03*
Y528500D02*
D03*
X200500Y464500D02*
D03*
Y431500D02*
D03*
X249500D02*
D03*
Y464500D02*
D03*
X200500Y400500D02*
D03*
Y367500D02*
D03*
X249500D02*
D03*
Y400500D02*
D03*
X200500Y592500D02*
D03*
Y559500D02*
D03*
X249500D02*
D03*
Y592500D02*
D03*
X200500Y336500D02*
D03*
Y303500D02*
D03*
X249500D02*
D03*
Y336500D02*
D03*
X200500Y720500D02*
D03*
Y687500D02*
D03*
X249500D02*
D03*
Y720500D02*
D03*
X200500Y656500D02*
D03*
Y623500D02*
D03*
X249500D02*
D03*
Y656500D02*
D03*
X200500Y784500D02*
D03*
Y751500D02*
D03*
X249500D02*
D03*
Y784500D02*
D03*
X200500Y208500D02*
D03*
Y175500D02*
D03*
X249500D02*
D03*
Y208500D02*
D03*
X200500Y272500D02*
D03*
Y239500D02*
D03*
X249500D02*
D03*
Y272500D02*
D03*
X350500Y144500D02*
D03*
Y111500D02*
D03*
X399500D02*
D03*
Y144500D02*
D03*
X350500Y848500D02*
D03*
Y815500D02*
D03*
X399500D02*
D03*
Y848500D02*
D03*
X350500Y528500D02*
D03*
Y495500D02*
D03*
X399500D02*
D03*
Y528500D02*
D03*
X350500Y464500D02*
D03*
Y431500D02*
D03*
X399500D02*
D03*
Y464500D02*
D03*
X350500Y400500D02*
D03*
Y367500D02*
D03*
X399500D02*
D03*
Y400500D02*
D03*
X350500Y592500D02*
D03*
Y559500D02*
D03*
X399500D02*
D03*
Y592500D02*
D03*
X350500Y336500D02*
D03*
Y303500D02*
D03*
X399500D02*
D03*
Y336500D02*
D03*
X350500Y720500D02*
D03*
Y687500D02*
D03*
X399500D02*
D03*
Y720500D02*
D03*
X350500Y656500D02*
D03*
Y623500D02*
D03*
X399500D02*
D03*
Y656500D02*
D03*
X350500Y784500D02*
D03*
Y751500D02*
D03*
X399500D02*
D03*
Y784500D02*
D03*
X350500Y208500D02*
D03*
Y175500D02*
D03*
X399500D02*
D03*
Y208500D02*
D03*
X350500Y272500D02*
D03*
Y239500D02*
D03*
X399500D02*
D03*
Y272500D02*
D03*
X500500Y144500D02*
D03*
Y111500D02*
D03*
X549500D02*
D03*
Y144500D02*
D03*
X500500Y848500D02*
D03*
Y815500D02*
D03*
X549500D02*
D03*
Y848500D02*
D03*
X500500Y528500D02*
D03*
Y495500D02*
D03*
X549500D02*
D03*
Y528500D02*
D03*
X500500Y464500D02*
D03*
Y431500D02*
D03*
X549500D02*
D03*
Y464500D02*
D03*
X500500Y400500D02*
D03*
Y367500D02*
D03*
X549500D02*
D03*
Y400500D02*
D03*
X500500Y592500D02*
D03*
Y559500D02*
D03*
X549500D02*
D03*
Y592500D02*
D03*
X500500Y336500D02*
D03*
Y303500D02*
D03*
X549500D02*
D03*
Y336500D02*
D03*
X500500Y720500D02*
D03*
Y687500D02*
D03*
X549500D02*
D03*
Y720500D02*
D03*
X500500Y656500D02*
D03*
Y623500D02*
D03*
X549500D02*
D03*
Y656500D02*
D03*
X500500Y784500D02*
D03*
Y751500D02*
D03*
X549500D02*
D03*
Y784500D02*
D03*
X500500Y208500D02*
D03*
Y175500D02*
D03*
X549500D02*
D03*
Y208500D02*
D03*
X500500Y272500D02*
D03*
Y239500D02*
D03*
X549500D02*
D03*
Y272500D02*
D03*
X650500Y144500D02*
D03*
Y111500D02*
D03*
X699500D02*
D03*
Y144500D02*
D03*
X650500Y848500D02*
D03*
Y815500D02*
D03*
X699500D02*
D03*
Y848500D02*
D03*
X650500Y528500D02*
D03*
Y495500D02*
D03*
X699500D02*
D03*
Y528500D02*
D03*
X650500Y464500D02*
D03*
Y431500D02*
D03*
X699500D02*
D03*
Y464500D02*
D03*
X650500Y400500D02*
D03*
Y367500D02*
D03*
X699500D02*
D03*
Y400500D02*
D03*
X650500Y592500D02*
D03*
Y559500D02*
D03*
X699500D02*
D03*
Y592500D02*
D03*
X650500Y336500D02*
D03*
Y303500D02*
D03*
X699500D02*
D03*
Y336500D02*
D03*
X650500Y720500D02*
D03*
Y687500D02*
D03*
X699500D02*
D03*
Y720500D02*
D03*
X650500Y656500D02*
D03*
Y623500D02*
D03*
X699500D02*
D03*
Y656500D02*
D03*
X650500Y784500D02*
D03*
Y751500D02*
D03*
X699500D02*
D03*
Y784500D02*
D03*
X650500Y208500D02*
D03*
Y175500D02*
D03*
X699500D02*
D03*
Y208500D02*
D03*
X650500Y272500D02*
D03*
Y239500D02*
D03*
X699500D02*
D03*
Y272500D02*
D03*
X800500Y144500D02*
D03*
Y111500D02*
D03*
X849500D02*
D03*
Y144500D02*
D03*
X800500Y848500D02*
D03*
Y815500D02*
D03*
X849500D02*
D03*
Y848500D02*
D03*
X800500Y528500D02*
D03*
Y495500D02*
D03*
X849500D02*
D03*
Y528500D02*
D03*
X800500Y464500D02*
D03*
Y431500D02*
D03*
X849500D02*
D03*
Y464500D02*
D03*
X800500Y400500D02*
D03*
Y367500D02*
D03*
X849500D02*
D03*
Y400500D02*
D03*
X800500Y592500D02*
D03*
Y559500D02*
D03*
X849500D02*
D03*
Y592500D02*
D03*
X800500Y336500D02*
D03*
Y303500D02*
D03*
X849500D02*
D03*
Y336500D02*
D03*
X800500Y720500D02*
D03*
Y687500D02*
D03*
X849500D02*
D03*
Y720500D02*
D03*
X800500Y656500D02*
D03*
Y623500D02*
D03*
X849500D02*
D03*
Y656500D02*
D03*
X800500Y784500D02*
D03*
Y751500D02*
D03*
X849500D02*
D03*
Y784500D02*
D03*
X800500Y208500D02*
D03*
Y175500D02*
D03*
X849500D02*
D03*
Y208500D02*
D03*
X800500Y272500D02*
D03*
Y239500D02*
D03*
X849500D02*
D03*
Y272500D02*
D03*
D24*
X99500Y815500D02*
D03*
Y751500D02*
D03*
Y687500D02*
D03*
Y623500D02*
D03*
Y559500D02*
D03*
Y495500D02*
D03*
Y431500D02*
D03*
Y367500D02*
D03*
Y303500D02*
D03*
Y239500D02*
D03*
Y175500D02*
D03*
Y111500D02*
D03*
X50500Y144500D02*
D03*
X99500Y848500D02*
D03*
X50500D02*
D03*
Y815500D02*
D03*
X99500Y784500D02*
D03*
X50500D02*
D03*
Y751500D02*
D03*
X99500Y720500D02*
D03*
X50500D02*
D03*
Y687500D02*
D03*
X99500Y656500D02*
D03*
X50500D02*
D03*
Y623500D02*
D03*
X99500Y592500D02*
D03*
X50500D02*
D03*
Y559500D02*
D03*
X99500Y528500D02*
D03*
X50500D02*
D03*
Y495500D02*
D03*
X99500Y464500D02*
D03*
X50500D02*
D03*
Y431500D02*
D03*
X99500Y400500D02*
D03*
X50500D02*
D03*
Y367500D02*
D03*
X99500Y336500D02*
D03*
X50500D02*
D03*
Y303500D02*
D03*
X99500Y272500D02*
D03*
X50500D02*
D03*
Y239500D02*
D03*
X99500Y208500D02*
D03*
X50500D02*
D03*
Y175500D02*
D03*
Y111500D02*
D03*
X99500Y144500D02*
D03*
X249500Y815500D02*
D03*
Y751500D02*
D03*
Y687500D02*
D03*
Y623500D02*
D03*
Y559500D02*
D03*
Y495500D02*
D03*
Y431500D02*
D03*
Y367500D02*
D03*
Y303500D02*
D03*
Y239500D02*
D03*
Y175500D02*
D03*
Y111500D02*
D03*
X200500Y144500D02*
D03*
X249500Y848500D02*
D03*
X200500D02*
D03*
Y815500D02*
D03*
X249500Y784500D02*
D03*
X200500D02*
D03*
Y751500D02*
D03*
X249500Y720500D02*
D03*
X200500D02*
D03*
Y687500D02*
D03*
X249500Y656500D02*
D03*
X200500D02*
D03*
Y623500D02*
D03*
X249500Y592500D02*
D03*
X200500D02*
D03*
Y559500D02*
D03*
X249500Y528500D02*
D03*
X200500D02*
D03*
Y495500D02*
D03*
X249500Y464500D02*
D03*
X200500D02*
D03*
Y431500D02*
D03*
X249500Y400500D02*
D03*
X200500D02*
D03*
Y367500D02*
D03*
X249500Y336500D02*
D03*
X200500D02*
D03*
Y303500D02*
D03*
X249500Y272500D02*
D03*
X200500D02*
D03*
Y239500D02*
D03*
X249500Y208500D02*
D03*
X200500D02*
D03*
Y175500D02*
D03*
Y111500D02*
D03*
X249500Y144500D02*
D03*
X399500Y815500D02*
D03*
Y751500D02*
D03*
Y687500D02*
D03*
Y623500D02*
D03*
Y559500D02*
D03*
Y495500D02*
D03*
Y431500D02*
D03*
Y367500D02*
D03*
Y303500D02*
D03*
Y239500D02*
D03*
Y175500D02*
D03*
Y111500D02*
D03*
X350500Y144500D02*
D03*
X399500Y848500D02*
D03*
X350500D02*
D03*
Y815500D02*
D03*
X399500Y784500D02*
D03*
X350500D02*
D03*
Y751500D02*
D03*
X399500Y720500D02*
D03*
X350500D02*
D03*
Y687500D02*
D03*
X399500Y656500D02*
D03*
X350500D02*
D03*
Y623500D02*
D03*
X399500Y592500D02*
D03*
X350500D02*
D03*
Y559500D02*
D03*
X399500Y528500D02*
D03*
X350500D02*
D03*
Y495500D02*
D03*
X399500Y464500D02*
D03*
X350500D02*
D03*
Y431500D02*
D03*
X399500Y400500D02*
D03*
X350500D02*
D03*
Y367500D02*
D03*
X399500Y336500D02*
D03*
X350500D02*
D03*
Y303500D02*
D03*
X399500Y272500D02*
D03*
X350500D02*
D03*
Y239500D02*
D03*
X399500Y208500D02*
D03*
X350500D02*
D03*
Y175500D02*
D03*
Y111500D02*
D03*
X399500Y144500D02*
D03*
X549500Y815500D02*
D03*
Y751500D02*
D03*
Y687500D02*
D03*
Y623500D02*
D03*
Y559500D02*
D03*
Y495500D02*
D03*
Y431500D02*
D03*
Y367500D02*
D03*
Y303500D02*
D03*
Y239500D02*
D03*
Y175500D02*
D03*
Y111500D02*
D03*
X500500Y144500D02*
D03*
X549500Y848500D02*
D03*
X500500D02*
D03*
Y815500D02*
D03*
X549500Y784500D02*
D03*
X500500D02*
D03*
Y751500D02*
D03*
X549500Y720500D02*
D03*
X500500D02*
D03*
Y687500D02*
D03*
X549500Y656500D02*
D03*
X500500D02*
D03*
Y623500D02*
D03*
X549500Y592500D02*
D03*
X500500D02*
D03*
Y559500D02*
D03*
X549500Y528500D02*
D03*
X500500D02*
D03*
Y495500D02*
D03*
X549500Y464500D02*
D03*
X500500D02*
D03*
Y431500D02*
D03*
X549500Y400500D02*
D03*
X500500D02*
D03*
Y367500D02*
D03*
X549500Y336500D02*
D03*
X500500D02*
D03*
Y303500D02*
D03*
X549500Y272500D02*
D03*
X500500D02*
D03*
Y239500D02*
D03*
X549500Y208500D02*
D03*
X500500D02*
D03*
Y175500D02*
D03*
Y111500D02*
D03*
X549500Y144500D02*
D03*
X699500Y815500D02*
D03*
Y751500D02*
D03*
Y687500D02*
D03*
Y623500D02*
D03*
Y559500D02*
D03*
Y495500D02*
D03*
Y431500D02*
D03*
Y367500D02*
D03*
Y303500D02*
D03*
Y239500D02*
D03*
Y175500D02*
D03*
Y111500D02*
D03*
X650500Y144500D02*
D03*
X699500Y848500D02*
D03*
X650500D02*
D03*
Y815500D02*
D03*
X699500Y784500D02*
D03*
X650500D02*
D03*
Y751500D02*
D03*
X699500Y720500D02*
D03*
X650500D02*
D03*
Y687500D02*
D03*
X699500Y656500D02*
D03*
X650500D02*
D03*
Y623500D02*
D03*
X699500Y592500D02*
D03*
X650500D02*
D03*
Y559500D02*
D03*
X699500Y528500D02*
D03*
X650500D02*
D03*
Y495500D02*
D03*
X699500Y464500D02*
D03*
X650500D02*
D03*
Y431500D02*
D03*
X699500Y400500D02*
D03*
X650500D02*
D03*
Y367500D02*
D03*
X699500Y336500D02*
D03*
X650500D02*
D03*
Y303500D02*
D03*
X699500Y272500D02*
D03*
X650500D02*
D03*
Y239500D02*
D03*
X699500Y208500D02*
D03*
X650500D02*
D03*
Y175500D02*
D03*
Y111500D02*
D03*
X699500Y144500D02*
D03*
X849500Y815500D02*
D03*
Y751500D02*
D03*
Y687500D02*
D03*
Y623500D02*
D03*
Y559500D02*
D03*
Y495500D02*
D03*
Y431500D02*
D03*
Y367500D02*
D03*
Y303500D02*
D03*
Y239500D02*
D03*
Y175500D02*
D03*
Y111500D02*
D03*
X800500Y144500D02*
D03*
X849500Y848500D02*
D03*
X800500D02*
D03*
Y815500D02*
D03*
X849500Y784500D02*
D03*
X800500D02*
D03*
Y751500D02*
D03*
X849500Y720500D02*
D03*
X800500D02*
D03*
Y687500D02*
D03*
X849500Y656500D02*
D03*
X800500D02*
D03*
Y623500D02*
D03*
X849500Y592500D02*
D03*
X800500D02*
D03*
Y559500D02*
D03*
X849500Y528500D02*
D03*
X800500D02*
D03*
Y495500D02*
D03*
X849500Y464500D02*
D03*
X800500D02*
D03*
Y431500D02*
D03*
X849500Y400500D02*
D03*
X800500D02*
D03*
Y367500D02*
D03*
X849500Y336500D02*
D03*
X800500D02*
D03*
Y303500D02*
D03*
X849500Y272500D02*
D03*
X800500D02*
D03*
Y239500D02*
D03*
X849500Y208500D02*
D03*
X800500D02*
D03*
Y175500D02*
D03*
Y111500D02*
D03*
X849500Y144500D02*
D03*
D25*
X24000Y89000D02*
D03*
X104000Y70000D02*
D03*
X117000Y82000D02*
D03*
X90000D02*
D03*
X120000Y877000D02*
D03*
X106000Y889000D02*
D03*
X92000Y877000D02*
D03*
X36000Y876000D02*
D03*
X119500Y25000D02*
D03*
X130000D02*
D03*
X120000Y45000D02*
D03*
Y35000D02*
D03*
X140000Y45000D02*
D03*
X130000Y35000D02*
D03*
X140000D02*
D03*
X130000Y45000D02*
D03*
X20500D02*
D03*
X30500Y35000D02*
D03*
X20500D02*
D03*
X30500Y45000D02*
D03*
X10500Y35000D02*
D03*
Y45000D02*
D03*
X20500Y25000D02*
D03*
X30500D02*
D03*
X140000Y915000D02*
D03*
Y925000D02*
D03*
Y935000D02*
D03*
X30000D02*
D03*
X20000D02*
D03*
X10000Y915000D02*
D03*
Y925000D02*
D03*
Y935000D02*
D03*
X140000Y25000D02*
D03*
X10000D02*
D03*
X30000Y915000D02*
D03*
X20000Y925000D02*
D03*
X30000D02*
D03*
X20000Y915000D02*
D03*
X130000Y935000D02*
D03*
X120000D02*
D03*
Y925000D02*
D03*
X130000D02*
D03*
X120000Y915000D02*
D03*
X130000D02*
D03*
X174000Y89000D02*
D03*
X254000Y70000D02*
D03*
X267000Y82000D02*
D03*
X240000D02*
D03*
X270000Y877000D02*
D03*
X256000Y889000D02*
D03*
X242000Y877000D02*
D03*
X186000Y876000D02*
D03*
X269500Y25000D02*
D03*
X280000D02*
D03*
X270000Y45000D02*
D03*
Y35000D02*
D03*
X290000Y45000D02*
D03*
X280000Y35000D02*
D03*
X290000D02*
D03*
X280000Y45000D02*
D03*
X170500D02*
D03*
X180500Y35000D02*
D03*
X170500D02*
D03*
X180500Y45000D02*
D03*
X160500Y35000D02*
D03*
Y45000D02*
D03*
X170500Y25000D02*
D03*
X180500D02*
D03*
X290000Y915000D02*
D03*
Y925000D02*
D03*
Y935000D02*
D03*
X180000D02*
D03*
X170000D02*
D03*
X160000Y915000D02*
D03*
Y925000D02*
D03*
Y935000D02*
D03*
X290000Y25000D02*
D03*
X160000D02*
D03*
X180000Y915000D02*
D03*
X170000Y925000D02*
D03*
X180000D02*
D03*
X170000Y915000D02*
D03*
X280000Y935000D02*
D03*
X270000D02*
D03*
Y925000D02*
D03*
X280000D02*
D03*
X270000Y915000D02*
D03*
X280000D02*
D03*
X324000Y89000D02*
D03*
X404000Y70000D02*
D03*
X417000Y82000D02*
D03*
X390000D02*
D03*
X420000Y877000D02*
D03*
X406000Y889000D02*
D03*
X392000Y877000D02*
D03*
X336000Y876000D02*
D03*
X419500Y25000D02*
D03*
X430000D02*
D03*
X420000Y45000D02*
D03*
Y35000D02*
D03*
X440000Y45000D02*
D03*
X430000Y35000D02*
D03*
X440000D02*
D03*
X430000Y45000D02*
D03*
X320500D02*
D03*
X330500Y35000D02*
D03*
X320500D02*
D03*
X330500Y45000D02*
D03*
X310500Y35000D02*
D03*
Y45000D02*
D03*
X320500Y25000D02*
D03*
X330500D02*
D03*
X440000Y915000D02*
D03*
Y925000D02*
D03*
Y935000D02*
D03*
X330000D02*
D03*
X320000D02*
D03*
X310000Y915000D02*
D03*
Y925000D02*
D03*
Y935000D02*
D03*
X440000Y25000D02*
D03*
X310000D02*
D03*
X330000Y915000D02*
D03*
X320000Y925000D02*
D03*
X330000D02*
D03*
X320000Y915000D02*
D03*
X430000Y935000D02*
D03*
X420000D02*
D03*
Y925000D02*
D03*
X430000D02*
D03*
X420000Y915000D02*
D03*
X430000D02*
D03*
X474000Y89000D02*
D03*
X554000Y70000D02*
D03*
X567000Y82000D02*
D03*
X540000D02*
D03*
X570000Y877000D02*
D03*
X556000Y889000D02*
D03*
X542000Y877000D02*
D03*
X486000Y876000D02*
D03*
X569500Y25000D02*
D03*
X580000D02*
D03*
X570000Y45000D02*
D03*
Y35000D02*
D03*
X590000Y45000D02*
D03*
X580000Y35000D02*
D03*
X590000D02*
D03*
X580000Y45000D02*
D03*
X470500D02*
D03*
X480500Y35000D02*
D03*
X470500D02*
D03*
X480500Y45000D02*
D03*
X460500Y35000D02*
D03*
Y45000D02*
D03*
X470500Y25000D02*
D03*
X480500D02*
D03*
X590000Y915000D02*
D03*
Y925000D02*
D03*
Y935000D02*
D03*
X480000D02*
D03*
X470000D02*
D03*
X460000Y915000D02*
D03*
Y925000D02*
D03*
Y935000D02*
D03*
X590000Y25000D02*
D03*
X460000D02*
D03*
X480000Y915000D02*
D03*
X470000Y925000D02*
D03*
X480000D02*
D03*
X470000Y915000D02*
D03*
X580000Y935000D02*
D03*
X570000D02*
D03*
Y925000D02*
D03*
X580000D02*
D03*
X570000Y915000D02*
D03*
X580000D02*
D03*
X624000Y89000D02*
D03*
X704000Y70000D02*
D03*
X717000Y82000D02*
D03*
X690000D02*
D03*
X720000Y877000D02*
D03*
X706000Y889000D02*
D03*
X692000Y877000D02*
D03*
X636000Y876000D02*
D03*
X719500Y25000D02*
D03*
X730000D02*
D03*
X720000Y45000D02*
D03*
Y35000D02*
D03*
X740000Y45000D02*
D03*
X730000Y35000D02*
D03*
X740000D02*
D03*
X730000Y45000D02*
D03*
X620500D02*
D03*
X630500Y35000D02*
D03*
X620500D02*
D03*
X630500Y45000D02*
D03*
X610500Y35000D02*
D03*
Y45000D02*
D03*
X620500Y25000D02*
D03*
X630500D02*
D03*
X740000Y915000D02*
D03*
Y925000D02*
D03*
Y935000D02*
D03*
X630000D02*
D03*
X620000D02*
D03*
X610000Y915000D02*
D03*
Y925000D02*
D03*
Y935000D02*
D03*
X740000Y25000D02*
D03*
X610000D02*
D03*
X630000Y915000D02*
D03*
X620000Y925000D02*
D03*
X630000D02*
D03*
X620000Y915000D02*
D03*
X730000Y935000D02*
D03*
X720000D02*
D03*
Y925000D02*
D03*
X730000D02*
D03*
X720000Y915000D02*
D03*
X730000D02*
D03*
X774000Y89000D02*
D03*
X854000Y70000D02*
D03*
X867000Y82000D02*
D03*
X840000D02*
D03*
X870000Y877000D02*
D03*
X856000Y889000D02*
D03*
X842000Y877000D02*
D03*
X786000Y876000D02*
D03*
X869500Y25000D02*
D03*
X880000D02*
D03*
X870000Y45000D02*
D03*
Y35000D02*
D03*
X890000Y45000D02*
D03*
X880000Y35000D02*
D03*
X890000D02*
D03*
X880000Y45000D02*
D03*
X770500D02*
D03*
X780500Y35000D02*
D03*
X770500D02*
D03*
X780500Y45000D02*
D03*
X760500Y35000D02*
D03*
Y45000D02*
D03*
X770500Y25000D02*
D03*
X780500D02*
D03*
X890000Y915000D02*
D03*
Y925000D02*
D03*
Y935000D02*
D03*
X780000D02*
D03*
X770000D02*
D03*
X760000Y915000D02*
D03*
Y925000D02*
D03*
Y935000D02*
D03*
X890000Y25000D02*
D03*
X760000D02*
D03*
X780000Y915000D02*
D03*
X770000Y925000D02*
D03*
X780000D02*
D03*
X770000Y915000D02*
D03*
X880000Y935000D02*
D03*
X870000D02*
D03*
Y925000D02*
D03*
X880000D02*
D03*
X870000Y915000D02*
D03*
X880000D02*
D03*
M02*
