G04*
G04 #@! TF.GenerationSoftware,Altium Limited,Altium Designer,21.7.2 (23)*
G04*
G04 Layer_Color=32768*
%FSLAX44Y44*%
%MOMM*%
G71*
G04*
G04 #@! TF.SameCoordinates,4EA3E7D4-8FC9-4B51-A035-DBAEA2916729*
G04*
G04*
G04 #@! TF.FilePolarity,Positive*
G04*
G01*
G75*
%ADD31C,0.1000*%
%ADD32C,0.0500*%
D31*
X23500Y128000D02*
X33500D01*
X28500Y123000D02*
Y133000D01*
Y507000D02*
Y517000D01*
X23500Y512000D02*
X33500D01*
X28500Y443000D02*
Y453000D01*
X23500Y448000D02*
X33500D01*
X28500Y315000D02*
Y325000D01*
X23500Y320000D02*
X33500D01*
X28500Y379000D02*
Y389000D01*
X23500Y384000D02*
X33500D01*
X28500Y571000D02*
Y581000D01*
X23500Y576000D02*
X33500D01*
X28500Y635000D02*
Y645000D01*
X23500Y640000D02*
X33500D01*
X28500Y699000D02*
Y709000D01*
X23500Y704000D02*
X33500D01*
X28500Y763000D02*
Y773000D01*
X23500Y768000D02*
X33500D01*
X28500Y827000D02*
Y837000D01*
X23500Y832000D02*
X33500D01*
X28500Y251000D02*
Y261000D01*
X23500Y256000D02*
X33500D01*
X28500Y187000D02*
Y197000D01*
X23500Y192000D02*
X33500D01*
X79500Y128000D02*
X89500D01*
X84500Y123000D02*
Y133000D01*
X79500Y832000D02*
X89500D01*
X84500Y827000D02*
Y837000D01*
X79500Y512000D02*
X89500D01*
X84500Y507000D02*
Y517000D01*
X79500Y448000D02*
X89500D01*
X84500Y443000D02*
Y453000D01*
X79500Y384000D02*
X89500D01*
X84500Y379000D02*
Y389000D01*
X79500Y576000D02*
X89500D01*
X84500Y571000D02*
Y581000D01*
X79500Y320000D02*
X89500D01*
X84500Y315000D02*
Y325000D01*
X79500Y704000D02*
X89500D01*
X84500Y699000D02*
Y709000D01*
X79500Y640000D02*
X89500D01*
X84500Y635000D02*
Y645000D01*
X79500Y768000D02*
X89500D01*
X84500Y763000D02*
Y773000D01*
X79500Y192000D02*
X89500D01*
X84500Y187000D02*
Y197000D01*
X79500Y256000D02*
X89500D01*
X84500Y251000D02*
Y261000D01*
X188500Y128000D02*
X198500D01*
X193500Y123000D02*
Y133000D01*
Y507000D02*
Y517000D01*
X188500Y512000D02*
X198500D01*
X193500Y443000D02*
Y453000D01*
X188500Y448000D02*
X198500D01*
X193500Y315000D02*
Y325000D01*
X188500Y320000D02*
X198500D01*
X193500Y379000D02*
Y389000D01*
X188500Y384000D02*
X198500D01*
X193500Y571000D02*
Y581000D01*
X188500Y576000D02*
X198500D01*
X193500Y635000D02*
Y645000D01*
X188500Y640000D02*
X198500D01*
X193500Y699000D02*
Y709000D01*
X188500Y704000D02*
X198500D01*
X193500Y763000D02*
Y773000D01*
X188500Y768000D02*
X198500D01*
X193500Y827000D02*
Y837000D01*
X188500Y832000D02*
X198500D01*
X193500Y251000D02*
Y261000D01*
X188500Y256000D02*
X198500D01*
X193500Y187000D02*
Y197000D01*
X188500Y192000D02*
X198500D01*
X244500Y128000D02*
X254500D01*
X249500Y123000D02*
Y133000D01*
X244500Y832000D02*
X254500D01*
X249500Y827000D02*
Y837000D01*
X244500Y512000D02*
X254500D01*
X249500Y507000D02*
Y517000D01*
X244500Y448000D02*
X254500D01*
X249500Y443000D02*
Y453000D01*
X244500Y384000D02*
X254500D01*
X249500Y379000D02*
Y389000D01*
X244500Y576000D02*
X254500D01*
X249500Y571000D02*
Y581000D01*
X244500Y320000D02*
X254500D01*
X249500Y315000D02*
Y325000D01*
X244500Y704000D02*
X254500D01*
X249500Y699000D02*
Y709000D01*
X244500Y640000D02*
X254500D01*
X249500Y635000D02*
Y645000D01*
X244500Y768000D02*
X254500D01*
X249500Y763000D02*
Y773000D01*
X244500Y192000D02*
X254500D01*
X249500Y187000D02*
Y197000D01*
X244500Y256000D02*
X254500D01*
X249500Y251000D02*
Y261000D01*
X353500Y128000D02*
X363500D01*
X358500Y123000D02*
Y133000D01*
Y507000D02*
Y517000D01*
X353500Y512000D02*
X363500D01*
X358500Y443000D02*
Y453000D01*
X353500Y448000D02*
X363500D01*
X358500Y315000D02*
Y325000D01*
X353500Y320000D02*
X363500D01*
X358500Y379000D02*
Y389000D01*
X353500Y384000D02*
X363500D01*
X358500Y571000D02*
Y581000D01*
X353500Y576000D02*
X363500D01*
X358500Y635000D02*
Y645000D01*
X353500Y640000D02*
X363500D01*
X358500Y699000D02*
Y709000D01*
X353500Y704000D02*
X363500D01*
X358500Y763000D02*
Y773000D01*
X353500Y768000D02*
X363500D01*
X358500Y827000D02*
Y837000D01*
X353500Y832000D02*
X363500D01*
X358500Y251000D02*
Y261000D01*
X353500Y256000D02*
X363500D01*
X358500Y187000D02*
Y197000D01*
X353500Y192000D02*
X363500D01*
X409500Y128000D02*
X419500D01*
X414500Y123000D02*
Y133000D01*
X409500Y832000D02*
X419500D01*
X414500Y827000D02*
Y837000D01*
X409500Y512000D02*
X419500D01*
X414500Y507000D02*
Y517000D01*
X409500Y448000D02*
X419500D01*
X414500Y443000D02*
Y453000D01*
X409500Y384000D02*
X419500D01*
X414500Y379000D02*
Y389000D01*
X409500Y576000D02*
X419500D01*
X414500Y571000D02*
Y581000D01*
X409500Y320000D02*
X419500D01*
X414500Y315000D02*
Y325000D01*
X409500Y704000D02*
X419500D01*
X414500Y699000D02*
Y709000D01*
X409500Y640000D02*
X419500D01*
X414500Y635000D02*
Y645000D01*
X409500Y768000D02*
X419500D01*
X414500Y763000D02*
Y773000D01*
X409500Y192000D02*
X419500D01*
X414500Y187000D02*
Y197000D01*
X409500Y256000D02*
X419500D01*
X414500Y251000D02*
Y261000D01*
X518500Y128000D02*
X528500D01*
X523500Y123000D02*
Y133000D01*
Y507000D02*
Y517000D01*
X518500Y512000D02*
X528500D01*
X523500Y443000D02*
Y453000D01*
X518500Y448000D02*
X528500D01*
X523500Y315000D02*
Y325000D01*
X518500Y320000D02*
X528500D01*
X523500Y379000D02*
Y389000D01*
X518500Y384000D02*
X528500D01*
X523500Y571000D02*
Y581000D01*
X518500Y576000D02*
X528500D01*
X523500Y635000D02*
Y645000D01*
X518500Y640000D02*
X528500D01*
X523500Y699000D02*
Y709000D01*
X518500Y704000D02*
X528500D01*
X523500Y763000D02*
Y773000D01*
X518500Y768000D02*
X528500D01*
X523500Y827000D02*
Y837000D01*
X518500Y832000D02*
X528500D01*
X523500Y251000D02*
Y261000D01*
X518500Y256000D02*
X528500D01*
X523500Y187000D02*
Y197000D01*
X518500Y192000D02*
X528500D01*
X574500Y128000D02*
X584500D01*
X579500Y123000D02*
Y133000D01*
X574500Y832000D02*
X584500D01*
X579500Y827000D02*
Y837000D01*
X574500Y512000D02*
X584500D01*
X579500Y507000D02*
Y517000D01*
X574500Y448000D02*
X584500D01*
X579500Y443000D02*
Y453000D01*
X574500Y384000D02*
X584500D01*
X579500Y379000D02*
Y389000D01*
X574500Y576000D02*
X584500D01*
X579500Y571000D02*
Y581000D01*
X574500Y320000D02*
X584500D01*
X579500Y315000D02*
Y325000D01*
X574500Y704000D02*
X584500D01*
X579500Y699000D02*
Y709000D01*
X574500Y640000D02*
X584500D01*
X579500Y635000D02*
Y645000D01*
X574500Y768000D02*
X584500D01*
X579500Y763000D02*
Y773000D01*
X574500Y192000D02*
X584500D01*
X579500Y187000D02*
Y197000D01*
X574500Y256000D02*
X584500D01*
X579500Y251000D02*
Y261000D01*
X683500Y128000D02*
X693500D01*
X688500Y123000D02*
Y133000D01*
Y507000D02*
Y517000D01*
X683500Y512000D02*
X693500D01*
X688500Y443000D02*
Y453000D01*
X683500Y448000D02*
X693500D01*
X688500Y315000D02*
Y325000D01*
X683500Y320000D02*
X693500D01*
X688500Y379000D02*
Y389000D01*
X683500Y384000D02*
X693500D01*
X688500Y571000D02*
Y581000D01*
X683500Y576000D02*
X693500D01*
X688500Y635000D02*
Y645000D01*
X683500Y640000D02*
X693500D01*
X688500Y699000D02*
Y709000D01*
X683500Y704000D02*
X693500D01*
X688500Y763000D02*
Y773000D01*
X683500Y768000D02*
X693500D01*
X688500Y827000D02*
Y837000D01*
X683500Y832000D02*
X693500D01*
X688500Y251000D02*
Y261000D01*
X683500Y256000D02*
X693500D01*
X688500Y187000D02*
Y197000D01*
X683500Y192000D02*
X693500D01*
X739500Y128000D02*
X749500D01*
X744500Y123000D02*
Y133000D01*
X739500Y832000D02*
X749500D01*
X744500Y827000D02*
Y837000D01*
X739500Y512000D02*
X749500D01*
X744500Y507000D02*
Y517000D01*
X739500Y448000D02*
X749500D01*
X744500Y443000D02*
Y453000D01*
X739500Y384000D02*
X749500D01*
X744500Y379000D02*
Y389000D01*
X739500Y576000D02*
X749500D01*
X744500Y571000D02*
Y581000D01*
X739500Y320000D02*
X749500D01*
X744500Y315000D02*
Y325000D01*
X739500Y704000D02*
X749500D01*
X744500Y699000D02*
Y709000D01*
X739500Y640000D02*
X749500D01*
X744500Y635000D02*
Y645000D01*
X739500Y768000D02*
X749500D01*
X744500Y763000D02*
Y773000D01*
X739500Y192000D02*
X749500D01*
X744500Y187000D02*
Y197000D01*
X739500Y256000D02*
X749500D01*
X744500Y251000D02*
Y261000D01*
X848500Y128000D02*
X858500D01*
X853500Y123000D02*
Y133000D01*
Y507000D02*
Y517000D01*
X848500Y512000D02*
X858500D01*
X853500Y443000D02*
Y453000D01*
X848500Y448000D02*
X858500D01*
X853500Y315000D02*
Y325000D01*
X848500Y320000D02*
X858500D01*
X853500Y379000D02*
Y389000D01*
X848500Y384000D02*
X858500D01*
X853500Y571000D02*
Y581000D01*
X848500Y576000D02*
X858500D01*
X853500Y635000D02*
Y645000D01*
X848500Y640000D02*
X858500D01*
X853500Y699000D02*
Y709000D01*
X848500Y704000D02*
X858500D01*
X853500Y763000D02*
Y773000D01*
X848500Y768000D02*
X858500D01*
X853500Y827000D02*
Y837000D01*
X848500Y832000D02*
X858500D01*
X853500Y251000D02*
Y261000D01*
X848500Y256000D02*
X858500D01*
X853500Y187000D02*
Y197000D01*
X848500Y192000D02*
X858500D01*
X904500Y128000D02*
X914500D01*
X909500Y123000D02*
Y133000D01*
X904500Y832000D02*
X914500D01*
X909500Y827000D02*
Y837000D01*
X904500Y512000D02*
X914500D01*
X909500Y507000D02*
Y517000D01*
X904500Y448000D02*
X914500D01*
X909500Y443000D02*
Y453000D01*
X904500Y384000D02*
X914500D01*
X909500Y379000D02*
Y389000D01*
X904500Y576000D02*
X914500D01*
X909500Y571000D02*
Y581000D01*
X904500Y320000D02*
X914500D01*
X909500Y315000D02*
Y325000D01*
X904500Y704000D02*
X914500D01*
X909500Y699000D02*
Y709000D01*
X904500Y640000D02*
X914500D01*
X909500Y635000D02*
Y645000D01*
X904500Y768000D02*
X914500D01*
X909500Y763000D02*
Y773000D01*
X904500Y192000D02*
X914500D01*
X909500Y187000D02*
Y197000D01*
X904500Y256000D02*
X914500D01*
X909500Y251000D02*
Y261000D01*
X1013500Y128000D02*
X1023500D01*
X1018500Y123000D02*
Y133000D01*
Y507000D02*
Y517000D01*
X1013500Y512000D02*
X1023500D01*
X1018500Y443000D02*
Y453000D01*
X1013500Y448000D02*
X1023500D01*
X1018500Y315000D02*
Y325000D01*
X1013500Y320000D02*
X1023500D01*
X1018500Y379000D02*
Y389000D01*
X1013500Y384000D02*
X1023500D01*
X1018500Y571000D02*
Y581000D01*
X1013500Y576000D02*
X1023500D01*
X1018500Y635000D02*
Y645000D01*
X1013500Y640000D02*
X1023500D01*
X1018500Y699000D02*
Y709000D01*
X1013500Y704000D02*
X1023500D01*
X1018500Y763000D02*
Y773000D01*
X1013500Y768000D02*
X1023500D01*
X1018500Y827000D02*
Y837000D01*
X1013500Y832000D02*
X1023500D01*
X1018500Y251000D02*
Y261000D01*
X1013500Y256000D02*
X1023500D01*
X1018500Y187000D02*
Y197000D01*
X1013500Y192000D02*
X1023500D01*
X1069500Y128000D02*
X1079500D01*
X1074500Y123000D02*
Y133000D01*
X1069500Y832000D02*
X1079500D01*
X1074500Y827000D02*
Y837000D01*
X1069500Y512000D02*
X1079500D01*
X1074500Y507000D02*
Y517000D01*
X1069500Y448000D02*
X1079500D01*
X1074500Y443000D02*
Y453000D01*
X1069500Y384000D02*
X1079500D01*
X1074500Y379000D02*
Y389000D01*
X1069500Y576000D02*
X1079500D01*
X1074500Y571000D02*
Y581000D01*
X1069500Y320000D02*
X1079500D01*
X1074500Y315000D02*
Y325000D01*
X1069500Y704000D02*
X1079500D01*
X1074500Y699000D02*
Y709000D01*
X1069500Y640000D02*
X1079500D01*
X1074500Y635000D02*
Y645000D01*
X1069500Y768000D02*
X1079500D01*
X1074500Y763000D02*
Y773000D01*
X1069500Y192000D02*
X1079500D01*
X1074500Y187000D02*
Y197000D01*
X1069500Y256000D02*
X1079500D01*
X1074500Y251000D02*
Y261000D01*
X1178500Y128000D02*
X1188500D01*
X1183500Y123000D02*
Y133000D01*
Y507000D02*
Y517000D01*
X1178500Y512000D02*
X1188500D01*
X1183500Y443000D02*
Y453000D01*
X1178500Y448000D02*
X1188500D01*
X1183500Y315000D02*
Y325000D01*
X1178500Y320000D02*
X1188500D01*
X1183500Y379000D02*
Y389000D01*
X1178500Y384000D02*
X1188500D01*
X1183500Y571000D02*
Y581000D01*
X1178500Y576000D02*
X1188500D01*
X1183500Y635000D02*
Y645000D01*
X1178500Y640000D02*
X1188500D01*
X1183500Y699000D02*
Y709000D01*
X1178500Y704000D02*
X1188500D01*
X1183500Y763000D02*
Y773000D01*
X1178500Y768000D02*
X1188500D01*
X1183500Y827000D02*
Y837000D01*
X1178500Y832000D02*
X1188500D01*
X1183500Y251000D02*
Y261000D01*
X1178500Y256000D02*
X1188500D01*
X1183500Y187000D02*
Y197000D01*
X1178500Y192000D02*
X1188500D01*
X1234500Y128000D02*
X1244500D01*
X1239500Y123000D02*
Y133000D01*
X1234500Y832000D02*
X1244500D01*
X1239500Y827000D02*
Y837000D01*
X1234500Y512000D02*
X1244500D01*
X1239500Y507000D02*
Y517000D01*
X1234500Y448000D02*
X1244500D01*
X1239500Y443000D02*
Y453000D01*
X1234500Y384000D02*
X1244500D01*
X1239500Y379000D02*
Y389000D01*
X1234500Y576000D02*
X1244500D01*
X1239500Y571000D02*
Y581000D01*
X1234500Y320000D02*
X1244500D01*
X1239500Y315000D02*
Y325000D01*
X1234500Y704000D02*
X1244500D01*
X1239500Y699000D02*
Y709000D01*
X1234500Y640000D02*
X1244500D01*
X1239500Y635000D02*
Y645000D01*
X1234500Y768000D02*
X1244500D01*
X1239500Y763000D02*
Y773000D01*
X1234500Y192000D02*
X1244500D01*
X1239500Y187000D02*
Y197000D01*
X1234500Y256000D02*
X1244500D01*
X1239500Y251000D02*
Y261000D01*
X1343500Y128000D02*
X1353500D01*
X1348500Y123000D02*
Y133000D01*
Y507000D02*
Y517000D01*
X1343500Y512000D02*
X1353500D01*
X1348500Y443000D02*
Y453000D01*
X1343500Y448000D02*
X1353500D01*
X1348500Y315000D02*
Y325000D01*
X1343500Y320000D02*
X1353500D01*
X1348500Y379000D02*
Y389000D01*
X1343500Y384000D02*
X1353500D01*
X1348500Y571000D02*
Y581000D01*
X1343500Y576000D02*
X1353500D01*
X1348500Y635000D02*
Y645000D01*
X1343500Y640000D02*
X1353500D01*
X1348500Y699000D02*
Y709000D01*
X1343500Y704000D02*
X1353500D01*
X1348500Y763000D02*
Y773000D01*
X1343500Y768000D02*
X1353500D01*
X1348500Y827000D02*
Y837000D01*
X1343500Y832000D02*
X1353500D01*
X1348500Y251000D02*
Y261000D01*
X1343500Y256000D02*
X1353500D01*
X1348500Y187000D02*
Y197000D01*
X1343500Y192000D02*
X1353500D01*
X1399500Y128000D02*
X1409500D01*
X1404500Y123000D02*
Y133000D01*
X1399500Y832000D02*
X1409500D01*
X1404500Y827000D02*
Y837000D01*
X1399500Y512000D02*
X1409500D01*
X1404500Y507000D02*
Y517000D01*
X1399500Y448000D02*
X1409500D01*
X1404500Y443000D02*
Y453000D01*
X1399500Y384000D02*
X1409500D01*
X1404500Y379000D02*
Y389000D01*
X1399500Y576000D02*
X1409500D01*
X1404500Y571000D02*
Y581000D01*
X1399500Y320000D02*
X1409500D01*
X1404500Y315000D02*
Y325000D01*
X1399500Y704000D02*
X1409500D01*
X1404500Y699000D02*
Y709000D01*
X1399500Y640000D02*
X1409500D01*
X1404500Y635000D02*
Y645000D01*
X1399500Y768000D02*
X1409500D01*
X1404500Y763000D02*
Y773000D01*
X1399500Y192000D02*
X1409500D01*
X1404500Y187000D02*
Y197000D01*
X1399500Y256000D02*
X1409500D01*
X1404500Y251000D02*
Y261000D01*
D32*
X18500Y111000D02*
Y145000D01*
X38500Y111000D02*
Y145000D01*
X18500Y111000D02*
X38500D01*
X18500Y145000D02*
X38500D01*
X18500Y529000D02*
X38500D01*
X18500Y495000D02*
X38500D01*
Y529000D01*
X18500Y495000D02*
Y529000D01*
Y465000D02*
X38500D01*
X18500Y431000D02*
X38500D01*
Y465000D01*
X18500Y431000D02*
Y465000D01*
Y337000D02*
X38500D01*
X18500Y303000D02*
X38500D01*
Y337000D01*
X18500Y303000D02*
Y337000D01*
Y401000D02*
X38500D01*
X18500Y367000D02*
X38500D01*
Y401000D01*
X18500Y367000D02*
Y401000D01*
Y593000D02*
X38500D01*
X18500Y559000D02*
X38500D01*
Y593000D01*
X18500Y559000D02*
Y593000D01*
Y657000D02*
X38500D01*
X18500Y623000D02*
X38500D01*
Y657000D01*
X18500Y623000D02*
Y657000D01*
Y721000D02*
X38500D01*
X18500Y687000D02*
X38500D01*
Y721000D01*
X18500Y687000D02*
Y721000D01*
Y785000D02*
X38500D01*
X18500Y751000D02*
X38500D01*
Y785000D01*
X18500Y751000D02*
Y785000D01*
Y849000D02*
X38500D01*
X18500Y815000D02*
X38500D01*
Y849000D01*
X18500Y815000D02*
Y849000D01*
Y273000D02*
X38500D01*
X18500Y239000D02*
X38500D01*
Y273000D01*
X18500Y239000D02*
Y273000D01*
Y209000D02*
X38500D01*
X18500Y175000D02*
X38500D01*
Y209000D01*
X18500Y175000D02*
Y209000D01*
X51500Y102000D02*
X117500D01*
X51500Y154000D02*
X117500D01*
Y102000D02*
Y154000D01*
X51500Y102000D02*
Y154000D01*
Y806000D02*
X117500D01*
X51500Y858000D02*
X117500D01*
Y806000D02*
Y858000D01*
X51500Y806000D02*
Y858000D01*
Y486000D02*
X117500D01*
X51500Y538000D02*
X117500D01*
Y486000D02*
Y538000D01*
X51500Y486000D02*
Y538000D01*
Y422000D02*
X117500D01*
X51500Y474000D02*
X117500D01*
Y422000D02*
Y474000D01*
X51500Y422000D02*
Y474000D01*
Y358000D02*
X117500D01*
X51500Y410000D02*
X117500D01*
Y358000D02*
Y410000D01*
X51500Y358000D02*
Y410000D01*
Y550000D02*
X117500D01*
X51500Y602000D02*
X117500D01*
Y550000D02*
Y602000D01*
X51500Y550000D02*
Y602000D01*
Y294000D02*
X117500D01*
X51500Y346000D02*
X117500D01*
Y294000D02*
Y346000D01*
X51500Y294000D02*
Y346000D01*
Y678000D02*
X117500D01*
X51500Y730000D02*
X117500D01*
Y678000D02*
Y730000D01*
X51500Y678000D02*
Y730000D01*
Y614000D02*
X117500D01*
X51500Y666000D02*
X117500D01*
Y614000D02*
Y666000D01*
X51500Y614000D02*
Y666000D01*
Y742000D02*
X117500D01*
X51500Y794000D02*
X117500D01*
Y742000D02*
Y794000D01*
X51500Y742000D02*
Y794000D01*
Y166000D02*
X117500D01*
X51500Y218000D02*
X117500D01*
Y166000D02*
Y218000D01*
X51500Y166000D02*
Y218000D01*
Y230000D02*
X117500D01*
X51500Y282000D02*
X117500D01*
Y230000D02*
Y282000D01*
X51500Y230000D02*
Y282000D01*
X183500Y111000D02*
Y145000D01*
X203500Y111000D02*
Y145000D01*
X183500Y111000D02*
X203500D01*
X183500Y145000D02*
X203500D01*
X183500Y529000D02*
X203500D01*
X183500Y495000D02*
X203500D01*
Y529000D01*
X183500Y495000D02*
Y529000D01*
Y465000D02*
X203500D01*
X183500Y431000D02*
X203500D01*
Y465000D01*
X183500Y431000D02*
Y465000D01*
Y337000D02*
X203500D01*
X183500Y303000D02*
X203500D01*
Y337000D01*
X183500Y303000D02*
Y337000D01*
Y401000D02*
X203500D01*
X183500Y367000D02*
X203500D01*
Y401000D01*
X183500Y367000D02*
Y401000D01*
Y593000D02*
X203500D01*
X183500Y559000D02*
X203500D01*
Y593000D01*
X183500Y559000D02*
Y593000D01*
Y657000D02*
X203500D01*
X183500Y623000D02*
X203500D01*
Y657000D01*
X183500Y623000D02*
Y657000D01*
Y721000D02*
X203500D01*
X183500Y687000D02*
X203500D01*
Y721000D01*
X183500Y687000D02*
Y721000D01*
Y785000D02*
X203500D01*
X183500Y751000D02*
X203500D01*
Y785000D01*
X183500Y751000D02*
Y785000D01*
Y849000D02*
X203500D01*
X183500Y815000D02*
X203500D01*
Y849000D01*
X183500Y815000D02*
Y849000D01*
Y273000D02*
X203500D01*
X183500Y239000D02*
X203500D01*
Y273000D01*
X183500Y239000D02*
Y273000D01*
Y209000D02*
X203500D01*
X183500Y175000D02*
X203500D01*
Y209000D01*
X183500Y175000D02*
Y209000D01*
X216500Y102000D02*
X282500D01*
X216500Y154000D02*
X282500D01*
Y102000D02*
Y154000D01*
X216500Y102000D02*
Y154000D01*
Y806000D02*
X282500D01*
X216500Y858000D02*
X282500D01*
Y806000D02*
Y858000D01*
X216500Y806000D02*
Y858000D01*
Y486000D02*
X282500D01*
X216500Y538000D02*
X282500D01*
Y486000D02*
Y538000D01*
X216500Y486000D02*
Y538000D01*
Y422000D02*
X282500D01*
X216500Y474000D02*
X282500D01*
Y422000D02*
Y474000D01*
X216500Y422000D02*
Y474000D01*
Y358000D02*
X282500D01*
X216500Y410000D02*
X282500D01*
Y358000D02*
Y410000D01*
X216500Y358000D02*
Y410000D01*
Y550000D02*
X282500D01*
X216500Y602000D02*
X282500D01*
Y550000D02*
Y602000D01*
X216500Y550000D02*
Y602000D01*
Y294000D02*
X282500D01*
X216500Y346000D02*
X282500D01*
Y294000D02*
Y346000D01*
X216500Y294000D02*
Y346000D01*
Y678000D02*
X282500D01*
X216500Y730000D02*
X282500D01*
Y678000D02*
Y730000D01*
X216500Y678000D02*
Y730000D01*
Y614000D02*
X282500D01*
X216500Y666000D02*
X282500D01*
Y614000D02*
Y666000D01*
X216500Y614000D02*
Y666000D01*
Y742000D02*
X282500D01*
X216500Y794000D02*
X282500D01*
Y742000D02*
Y794000D01*
X216500Y742000D02*
Y794000D01*
Y166000D02*
X282500D01*
X216500Y218000D02*
X282500D01*
Y166000D02*
Y218000D01*
X216500Y166000D02*
Y218000D01*
Y230000D02*
X282500D01*
X216500Y282000D02*
X282500D01*
Y230000D02*
Y282000D01*
X216500Y230000D02*
Y282000D01*
X348500Y111000D02*
Y145000D01*
X368500Y111000D02*
Y145000D01*
X348500Y111000D02*
X368500D01*
X348500Y145000D02*
X368500D01*
X348500Y529000D02*
X368500D01*
X348500Y495000D02*
X368500D01*
Y529000D01*
X348500Y495000D02*
Y529000D01*
Y465000D02*
X368500D01*
X348500Y431000D02*
X368500D01*
Y465000D01*
X348500Y431000D02*
Y465000D01*
Y337000D02*
X368500D01*
X348500Y303000D02*
X368500D01*
Y337000D01*
X348500Y303000D02*
Y337000D01*
Y401000D02*
X368500D01*
X348500Y367000D02*
X368500D01*
Y401000D01*
X348500Y367000D02*
Y401000D01*
Y593000D02*
X368500D01*
X348500Y559000D02*
X368500D01*
Y593000D01*
X348500Y559000D02*
Y593000D01*
Y657000D02*
X368500D01*
X348500Y623000D02*
X368500D01*
Y657000D01*
X348500Y623000D02*
Y657000D01*
Y721000D02*
X368500D01*
X348500Y687000D02*
X368500D01*
Y721000D01*
X348500Y687000D02*
Y721000D01*
Y785000D02*
X368500D01*
X348500Y751000D02*
X368500D01*
Y785000D01*
X348500Y751000D02*
Y785000D01*
Y849000D02*
X368500D01*
X348500Y815000D02*
X368500D01*
Y849000D01*
X348500Y815000D02*
Y849000D01*
Y273000D02*
X368500D01*
X348500Y239000D02*
X368500D01*
Y273000D01*
X348500Y239000D02*
Y273000D01*
Y209000D02*
X368500D01*
X348500Y175000D02*
X368500D01*
Y209000D01*
X348500Y175000D02*
Y209000D01*
X381500Y102000D02*
X447500D01*
X381500Y154000D02*
X447500D01*
Y102000D02*
Y154000D01*
X381500Y102000D02*
Y154000D01*
Y806000D02*
X447500D01*
X381500Y858000D02*
X447500D01*
Y806000D02*
Y858000D01*
X381500Y806000D02*
Y858000D01*
Y486000D02*
X447500D01*
X381500Y538000D02*
X447500D01*
Y486000D02*
Y538000D01*
X381500Y486000D02*
Y538000D01*
Y422000D02*
X447500D01*
X381500Y474000D02*
X447500D01*
Y422000D02*
Y474000D01*
X381500Y422000D02*
Y474000D01*
Y358000D02*
X447500D01*
X381500Y410000D02*
X447500D01*
Y358000D02*
Y410000D01*
X381500Y358000D02*
Y410000D01*
Y550000D02*
X447500D01*
X381500Y602000D02*
X447500D01*
Y550000D02*
Y602000D01*
X381500Y550000D02*
Y602000D01*
Y294000D02*
X447500D01*
X381500Y346000D02*
X447500D01*
Y294000D02*
Y346000D01*
X381500Y294000D02*
Y346000D01*
Y678000D02*
X447500D01*
X381500Y730000D02*
X447500D01*
Y678000D02*
Y730000D01*
X381500Y678000D02*
Y730000D01*
Y614000D02*
X447500D01*
X381500Y666000D02*
X447500D01*
Y614000D02*
Y666000D01*
X381500Y614000D02*
Y666000D01*
Y742000D02*
X447500D01*
X381500Y794000D02*
X447500D01*
Y742000D02*
Y794000D01*
X381500Y742000D02*
Y794000D01*
Y166000D02*
X447500D01*
X381500Y218000D02*
X447500D01*
Y166000D02*
Y218000D01*
X381500Y166000D02*
Y218000D01*
Y230000D02*
X447500D01*
X381500Y282000D02*
X447500D01*
Y230000D02*
Y282000D01*
X381500Y230000D02*
Y282000D01*
X513500Y111000D02*
Y145000D01*
X533500Y111000D02*
Y145000D01*
X513500Y111000D02*
X533500D01*
X513500Y145000D02*
X533500D01*
X513500Y529000D02*
X533500D01*
X513500Y495000D02*
X533500D01*
Y529000D01*
X513500Y495000D02*
Y529000D01*
Y465000D02*
X533500D01*
X513500Y431000D02*
X533500D01*
Y465000D01*
X513500Y431000D02*
Y465000D01*
Y337000D02*
X533500D01*
X513500Y303000D02*
X533500D01*
Y337000D01*
X513500Y303000D02*
Y337000D01*
Y401000D02*
X533500D01*
X513500Y367000D02*
X533500D01*
Y401000D01*
X513500Y367000D02*
Y401000D01*
Y593000D02*
X533500D01*
X513500Y559000D02*
X533500D01*
Y593000D01*
X513500Y559000D02*
Y593000D01*
Y657000D02*
X533500D01*
X513500Y623000D02*
X533500D01*
Y657000D01*
X513500Y623000D02*
Y657000D01*
Y721000D02*
X533500D01*
X513500Y687000D02*
X533500D01*
Y721000D01*
X513500Y687000D02*
Y721000D01*
Y785000D02*
X533500D01*
X513500Y751000D02*
X533500D01*
Y785000D01*
X513500Y751000D02*
Y785000D01*
Y849000D02*
X533500D01*
X513500Y815000D02*
X533500D01*
Y849000D01*
X513500Y815000D02*
Y849000D01*
Y273000D02*
X533500D01*
X513500Y239000D02*
X533500D01*
Y273000D01*
X513500Y239000D02*
Y273000D01*
Y209000D02*
X533500D01*
X513500Y175000D02*
X533500D01*
Y209000D01*
X513500Y175000D02*
Y209000D01*
X546500Y102000D02*
X612500D01*
X546500Y154000D02*
X612500D01*
Y102000D02*
Y154000D01*
X546500Y102000D02*
Y154000D01*
Y806000D02*
X612500D01*
X546500Y858000D02*
X612500D01*
Y806000D02*
Y858000D01*
X546500Y806000D02*
Y858000D01*
Y486000D02*
X612500D01*
X546500Y538000D02*
X612500D01*
Y486000D02*
Y538000D01*
X546500Y486000D02*
Y538000D01*
Y422000D02*
X612500D01*
X546500Y474000D02*
X612500D01*
Y422000D02*
Y474000D01*
X546500Y422000D02*
Y474000D01*
Y358000D02*
X612500D01*
X546500Y410000D02*
X612500D01*
Y358000D02*
Y410000D01*
X546500Y358000D02*
Y410000D01*
Y550000D02*
X612500D01*
X546500Y602000D02*
X612500D01*
Y550000D02*
Y602000D01*
X546500Y550000D02*
Y602000D01*
Y294000D02*
X612500D01*
X546500Y346000D02*
X612500D01*
Y294000D02*
Y346000D01*
X546500Y294000D02*
Y346000D01*
Y678000D02*
X612500D01*
X546500Y730000D02*
X612500D01*
Y678000D02*
Y730000D01*
X546500Y678000D02*
Y730000D01*
Y614000D02*
X612500D01*
X546500Y666000D02*
X612500D01*
Y614000D02*
Y666000D01*
X546500Y614000D02*
Y666000D01*
Y742000D02*
X612500D01*
X546500Y794000D02*
X612500D01*
Y742000D02*
Y794000D01*
X546500Y742000D02*
Y794000D01*
Y166000D02*
X612500D01*
X546500Y218000D02*
X612500D01*
Y166000D02*
Y218000D01*
X546500Y166000D02*
Y218000D01*
Y230000D02*
X612500D01*
X546500Y282000D02*
X612500D01*
Y230000D02*
Y282000D01*
X546500Y230000D02*
Y282000D01*
X678500Y111000D02*
Y145000D01*
X698500Y111000D02*
Y145000D01*
X678500Y111000D02*
X698500D01*
X678500Y145000D02*
X698500D01*
X678500Y529000D02*
X698500D01*
X678500Y495000D02*
X698500D01*
Y529000D01*
X678500Y495000D02*
Y529000D01*
Y465000D02*
X698500D01*
X678500Y431000D02*
X698500D01*
Y465000D01*
X678500Y431000D02*
Y465000D01*
Y337000D02*
X698500D01*
X678500Y303000D02*
X698500D01*
Y337000D01*
X678500Y303000D02*
Y337000D01*
Y401000D02*
X698500D01*
X678500Y367000D02*
X698500D01*
Y401000D01*
X678500Y367000D02*
Y401000D01*
Y593000D02*
X698500D01*
X678500Y559000D02*
X698500D01*
Y593000D01*
X678500Y559000D02*
Y593000D01*
Y657000D02*
X698500D01*
X678500Y623000D02*
X698500D01*
Y657000D01*
X678500Y623000D02*
Y657000D01*
Y721000D02*
X698500D01*
X678500Y687000D02*
X698500D01*
Y721000D01*
X678500Y687000D02*
Y721000D01*
Y785000D02*
X698500D01*
X678500Y751000D02*
X698500D01*
Y785000D01*
X678500Y751000D02*
Y785000D01*
Y849000D02*
X698500D01*
X678500Y815000D02*
X698500D01*
Y849000D01*
X678500Y815000D02*
Y849000D01*
Y273000D02*
X698500D01*
X678500Y239000D02*
X698500D01*
Y273000D01*
X678500Y239000D02*
Y273000D01*
Y209000D02*
X698500D01*
X678500Y175000D02*
X698500D01*
Y209000D01*
X678500Y175000D02*
Y209000D01*
X711500Y102000D02*
X777500D01*
X711500Y154000D02*
X777500D01*
Y102000D02*
Y154000D01*
X711500Y102000D02*
Y154000D01*
Y806000D02*
X777500D01*
X711500Y858000D02*
X777500D01*
Y806000D02*
Y858000D01*
X711500Y806000D02*
Y858000D01*
Y486000D02*
X777500D01*
X711500Y538000D02*
X777500D01*
Y486000D02*
Y538000D01*
X711500Y486000D02*
Y538000D01*
Y422000D02*
X777500D01*
X711500Y474000D02*
X777500D01*
Y422000D02*
Y474000D01*
X711500Y422000D02*
Y474000D01*
Y358000D02*
X777500D01*
X711500Y410000D02*
X777500D01*
Y358000D02*
Y410000D01*
X711500Y358000D02*
Y410000D01*
Y550000D02*
X777500D01*
X711500Y602000D02*
X777500D01*
Y550000D02*
Y602000D01*
X711500Y550000D02*
Y602000D01*
Y294000D02*
X777500D01*
X711500Y346000D02*
X777500D01*
Y294000D02*
Y346000D01*
X711500Y294000D02*
Y346000D01*
Y678000D02*
X777500D01*
X711500Y730000D02*
X777500D01*
Y678000D02*
Y730000D01*
X711500Y678000D02*
Y730000D01*
Y614000D02*
X777500D01*
X711500Y666000D02*
X777500D01*
Y614000D02*
Y666000D01*
X711500Y614000D02*
Y666000D01*
Y742000D02*
X777500D01*
X711500Y794000D02*
X777500D01*
Y742000D02*
Y794000D01*
X711500Y742000D02*
Y794000D01*
Y166000D02*
X777500D01*
X711500Y218000D02*
X777500D01*
Y166000D02*
Y218000D01*
X711500Y166000D02*
Y218000D01*
Y230000D02*
X777500D01*
X711500Y282000D02*
X777500D01*
Y230000D02*
Y282000D01*
X711500Y230000D02*
Y282000D01*
X843500Y111000D02*
Y145000D01*
X863500Y111000D02*
Y145000D01*
X843500Y111000D02*
X863500D01*
X843500Y145000D02*
X863500D01*
X843500Y529000D02*
X863500D01*
X843500Y495000D02*
X863500D01*
Y529000D01*
X843500Y495000D02*
Y529000D01*
Y465000D02*
X863500D01*
X843500Y431000D02*
X863500D01*
Y465000D01*
X843500Y431000D02*
Y465000D01*
Y337000D02*
X863500D01*
X843500Y303000D02*
X863500D01*
Y337000D01*
X843500Y303000D02*
Y337000D01*
Y401000D02*
X863500D01*
X843500Y367000D02*
X863500D01*
Y401000D01*
X843500Y367000D02*
Y401000D01*
Y593000D02*
X863500D01*
X843500Y559000D02*
X863500D01*
Y593000D01*
X843500Y559000D02*
Y593000D01*
Y657000D02*
X863500D01*
X843500Y623000D02*
X863500D01*
Y657000D01*
X843500Y623000D02*
Y657000D01*
Y721000D02*
X863500D01*
X843500Y687000D02*
X863500D01*
Y721000D01*
X843500Y687000D02*
Y721000D01*
Y785000D02*
X863500D01*
X843500Y751000D02*
X863500D01*
Y785000D01*
X843500Y751000D02*
Y785000D01*
Y849000D02*
X863500D01*
X843500Y815000D02*
X863500D01*
Y849000D01*
X843500Y815000D02*
Y849000D01*
Y273000D02*
X863500D01*
X843500Y239000D02*
X863500D01*
Y273000D01*
X843500Y239000D02*
Y273000D01*
Y209000D02*
X863500D01*
X843500Y175000D02*
X863500D01*
Y209000D01*
X843500Y175000D02*
Y209000D01*
X876500Y102000D02*
X942500D01*
X876500Y154000D02*
X942500D01*
Y102000D02*
Y154000D01*
X876500Y102000D02*
Y154000D01*
Y806000D02*
X942500D01*
X876500Y858000D02*
X942500D01*
Y806000D02*
Y858000D01*
X876500Y806000D02*
Y858000D01*
Y486000D02*
X942500D01*
X876500Y538000D02*
X942500D01*
Y486000D02*
Y538000D01*
X876500Y486000D02*
Y538000D01*
Y422000D02*
X942500D01*
X876500Y474000D02*
X942500D01*
Y422000D02*
Y474000D01*
X876500Y422000D02*
Y474000D01*
Y358000D02*
X942500D01*
X876500Y410000D02*
X942500D01*
Y358000D02*
Y410000D01*
X876500Y358000D02*
Y410000D01*
Y550000D02*
X942500D01*
X876500Y602000D02*
X942500D01*
Y550000D02*
Y602000D01*
X876500Y550000D02*
Y602000D01*
Y294000D02*
X942500D01*
X876500Y346000D02*
X942500D01*
Y294000D02*
Y346000D01*
X876500Y294000D02*
Y346000D01*
Y678000D02*
X942500D01*
X876500Y730000D02*
X942500D01*
Y678000D02*
Y730000D01*
X876500Y678000D02*
Y730000D01*
Y614000D02*
X942500D01*
X876500Y666000D02*
X942500D01*
Y614000D02*
Y666000D01*
X876500Y614000D02*
Y666000D01*
Y742000D02*
X942500D01*
X876500Y794000D02*
X942500D01*
Y742000D02*
Y794000D01*
X876500Y742000D02*
Y794000D01*
Y166000D02*
X942500D01*
X876500Y218000D02*
X942500D01*
Y166000D02*
Y218000D01*
X876500Y166000D02*
Y218000D01*
Y230000D02*
X942500D01*
X876500Y282000D02*
X942500D01*
Y230000D02*
Y282000D01*
X876500Y230000D02*
Y282000D01*
X1008500Y111000D02*
Y145000D01*
X1028500Y111000D02*
Y145000D01*
X1008500Y111000D02*
X1028500D01*
X1008500Y145000D02*
X1028500D01*
X1008500Y529000D02*
X1028500D01*
X1008500Y495000D02*
X1028500D01*
Y529000D01*
X1008500Y495000D02*
Y529000D01*
Y465000D02*
X1028500D01*
X1008500Y431000D02*
X1028500D01*
Y465000D01*
X1008500Y431000D02*
Y465000D01*
Y337000D02*
X1028500D01*
X1008500Y303000D02*
X1028500D01*
Y337000D01*
X1008500Y303000D02*
Y337000D01*
Y401000D02*
X1028500D01*
X1008500Y367000D02*
X1028500D01*
Y401000D01*
X1008500Y367000D02*
Y401000D01*
Y593000D02*
X1028500D01*
X1008500Y559000D02*
X1028500D01*
Y593000D01*
X1008500Y559000D02*
Y593000D01*
Y657000D02*
X1028500D01*
X1008500Y623000D02*
X1028500D01*
Y657000D01*
X1008500Y623000D02*
Y657000D01*
Y721000D02*
X1028500D01*
X1008500Y687000D02*
X1028500D01*
Y721000D01*
X1008500Y687000D02*
Y721000D01*
Y785000D02*
X1028500D01*
X1008500Y751000D02*
X1028500D01*
Y785000D01*
X1008500Y751000D02*
Y785000D01*
Y849000D02*
X1028500D01*
X1008500Y815000D02*
X1028500D01*
Y849000D01*
X1008500Y815000D02*
Y849000D01*
Y273000D02*
X1028500D01*
X1008500Y239000D02*
X1028500D01*
Y273000D01*
X1008500Y239000D02*
Y273000D01*
Y209000D02*
X1028500D01*
X1008500Y175000D02*
X1028500D01*
Y209000D01*
X1008500Y175000D02*
Y209000D01*
X1041500Y102000D02*
X1107500D01*
X1041500Y154000D02*
X1107500D01*
Y102000D02*
Y154000D01*
X1041500Y102000D02*
Y154000D01*
Y806000D02*
X1107500D01*
X1041500Y858000D02*
X1107500D01*
Y806000D02*
Y858000D01*
X1041500Y806000D02*
Y858000D01*
Y486000D02*
X1107500D01*
X1041500Y538000D02*
X1107500D01*
Y486000D02*
Y538000D01*
X1041500Y486000D02*
Y538000D01*
Y422000D02*
X1107500D01*
X1041500Y474000D02*
X1107500D01*
Y422000D02*
Y474000D01*
X1041500Y422000D02*
Y474000D01*
Y358000D02*
X1107500D01*
X1041500Y410000D02*
X1107500D01*
Y358000D02*
Y410000D01*
X1041500Y358000D02*
Y410000D01*
Y550000D02*
X1107500D01*
X1041500Y602000D02*
X1107500D01*
Y550000D02*
Y602000D01*
X1041500Y550000D02*
Y602000D01*
Y294000D02*
X1107500D01*
X1041500Y346000D02*
X1107500D01*
Y294000D02*
Y346000D01*
X1041500Y294000D02*
Y346000D01*
Y678000D02*
X1107500D01*
X1041500Y730000D02*
X1107500D01*
Y678000D02*
Y730000D01*
X1041500Y678000D02*
Y730000D01*
Y614000D02*
X1107500D01*
X1041500Y666000D02*
X1107500D01*
Y614000D02*
Y666000D01*
X1041500Y614000D02*
Y666000D01*
Y742000D02*
X1107500D01*
X1041500Y794000D02*
X1107500D01*
Y742000D02*
Y794000D01*
X1041500Y742000D02*
Y794000D01*
Y166000D02*
X1107500D01*
X1041500Y218000D02*
X1107500D01*
Y166000D02*
Y218000D01*
X1041500Y166000D02*
Y218000D01*
Y230000D02*
X1107500D01*
X1041500Y282000D02*
X1107500D01*
Y230000D02*
Y282000D01*
X1041500Y230000D02*
Y282000D01*
X1173500Y111000D02*
Y145000D01*
X1193500Y111000D02*
Y145000D01*
X1173500Y111000D02*
X1193500D01*
X1173500Y145000D02*
X1193500D01*
X1173500Y529000D02*
X1193500D01*
X1173500Y495000D02*
X1193500D01*
Y529000D01*
X1173500Y495000D02*
Y529000D01*
Y465000D02*
X1193500D01*
X1173500Y431000D02*
X1193500D01*
Y465000D01*
X1173500Y431000D02*
Y465000D01*
Y337000D02*
X1193500D01*
X1173500Y303000D02*
X1193500D01*
Y337000D01*
X1173500Y303000D02*
Y337000D01*
Y401000D02*
X1193500D01*
X1173500Y367000D02*
X1193500D01*
Y401000D01*
X1173500Y367000D02*
Y401000D01*
Y593000D02*
X1193500D01*
X1173500Y559000D02*
X1193500D01*
Y593000D01*
X1173500Y559000D02*
Y593000D01*
Y657000D02*
X1193500D01*
X1173500Y623000D02*
X1193500D01*
Y657000D01*
X1173500Y623000D02*
Y657000D01*
Y721000D02*
X1193500D01*
X1173500Y687000D02*
X1193500D01*
Y721000D01*
X1173500Y687000D02*
Y721000D01*
Y785000D02*
X1193500D01*
X1173500Y751000D02*
X1193500D01*
Y785000D01*
X1173500Y751000D02*
Y785000D01*
Y849000D02*
X1193500D01*
X1173500Y815000D02*
X1193500D01*
Y849000D01*
X1173500Y815000D02*
Y849000D01*
Y273000D02*
X1193500D01*
X1173500Y239000D02*
X1193500D01*
Y273000D01*
X1173500Y239000D02*
Y273000D01*
Y209000D02*
X1193500D01*
X1173500Y175000D02*
X1193500D01*
Y209000D01*
X1173500Y175000D02*
Y209000D01*
X1206500Y102000D02*
X1272500D01*
X1206500Y154000D02*
X1272500D01*
Y102000D02*
Y154000D01*
X1206500Y102000D02*
Y154000D01*
Y806000D02*
X1272500D01*
X1206500Y858000D02*
X1272500D01*
Y806000D02*
Y858000D01*
X1206500Y806000D02*
Y858000D01*
Y486000D02*
X1272500D01*
X1206500Y538000D02*
X1272500D01*
Y486000D02*
Y538000D01*
X1206500Y486000D02*
Y538000D01*
Y422000D02*
X1272500D01*
X1206500Y474000D02*
X1272500D01*
Y422000D02*
Y474000D01*
X1206500Y422000D02*
Y474000D01*
Y358000D02*
X1272500D01*
X1206500Y410000D02*
X1272500D01*
Y358000D02*
Y410000D01*
X1206500Y358000D02*
Y410000D01*
Y550000D02*
X1272500D01*
X1206500Y602000D02*
X1272500D01*
Y550000D02*
Y602000D01*
X1206500Y550000D02*
Y602000D01*
Y294000D02*
X1272500D01*
X1206500Y346000D02*
X1272500D01*
Y294000D02*
Y346000D01*
X1206500Y294000D02*
Y346000D01*
Y678000D02*
X1272500D01*
X1206500Y730000D02*
X1272500D01*
Y678000D02*
Y730000D01*
X1206500Y678000D02*
Y730000D01*
Y614000D02*
X1272500D01*
X1206500Y666000D02*
X1272500D01*
Y614000D02*
Y666000D01*
X1206500Y614000D02*
Y666000D01*
Y742000D02*
X1272500D01*
X1206500Y794000D02*
X1272500D01*
Y742000D02*
Y794000D01*
X1206500Y742000D02*
Y794000D01*
Y166000D02*
X1272500D01*
X1206500Y218000D02*
X1272500D01*
Y166000D02*
Y218000D01*
X1206500Y166000D02*
Y218000D01*
Y230000D02*
X1272500D01*
X1206500Y282000D02*
X1272500D01*
Y230000D02*
Y282000D01*
X1206500Y230000D02*
Y282000D01*
X1338500Y111000D02*
Y145000D01*
X1358500Y111000D02*
Y145000D01*
X1338500Y111000D02*
X1358500D01*
X1338500Y145000D02*
X1358500D01*
X1338500Y529000D02*
X1358500D01*
X1338500Y495000D02*
X1358500D01*
Y529000D01*
X1338500Y495000D02*
Y529000D01*
Y465000D02*
X1358500D01*
X1338500Y431000D02*
X1358500D01*
Y465000D01*
X1338500Y431000D02*
Y465000D01*
Y337000D02*
X1358500D01*
X1338500Y303000D02*
X1358500D01*
Y337000D01*
X1338500Y303000D02*
Y337000D01*
Y401000D02*
X1358500D01*
X1338500Y367000D02*
X1358500D01*
Y401000D01*
X1338500Y367000D02*
Y401000D01*
Y593000D02*
X1358500D01*
X1338500Y559000D02*
X1358500D01*
Y593000D01*
X1338500Y559000D02*
Y593000D01*
Y657000D02*
X1358500D01*
X1338500Y623000D02*
X1358500D01*
Y657000D01*
X1338500Y623000D02*
Y657000D01*
Y721000D02*
X1358500D01*
X1338500Y687000D02*
X1358500D01*
Y721000D01*
X1338500Y687000D02*
Y721000D01*
Y785000D02*
X1358500D01*
X1338500Y751000D02*
X1358500D01*
Y785000D01*
X1338500Y751000D02*
Y785000D01*
Y849000D02*
X1358500D01*
X1338500Y815000D02*
X1358500D01*
Y849000D01*
X1338500Y815000D02*
Y849000D01*
Y273000D02*
X1358500D01*
X1338500Y239000D02*
X1358500D01*
Y273000D01*
X1338500Y239000D02*
Y273000D01*
Y209000D02*
X1358500D01*
X1338500Y175000D02*
X1358500D01*
Y209000D01*
X1338500Y175000D02*
Y209000D01*
X1371500Y102000D02*
X1437500D01*
X1371500Y154000D02*
X1437500D01*
Y102000D02*
Y154000D01*
X1371500Y102000D02*
Y154000D01*
Y806000D02*
X1437500D01*
X1371500Y858000D02*
X1437500D01*
Y806000D02*
Y858000D01*
X1371500Y806000D02*
Y858000D01*
Y486000D02*
X1437500D01*
X1371500Y538000D02*
X1437500D01*
Y486000D02*
Y538000D01*
X1371500Y486000D02*
Y538000D01*
Y422000D02*
X1437500D01*
X1371500Y474000D02*
X1437500D01*
Y422000D02*
Y474000D01*
X1371500Y422000D02*
Y474000D01*
Y358000D02*
X1437500D01*
X1371500Y410000D02*
X1437500D01*
Y358000D02*
Y410000D01*
X1371500Y358000D02*
Y410000D01*
Y550000D02*
X1437500D01*
X1371500Y602000D02*
X1437500D01*
Y550000D02*
Y602000D01*
X1371500Y550000D02*
Y602000D01*
Y294000D02*
X1437500D01*
X1371500Y346000D02*
X1437500D01*
Y294000D02*
Y346000D01*
X1371500Y294000D02*
Y346000D01*
Y678000D02*
X1437500D01*
X1371500Y730000D02*
X1437500D01*
Y678000D02*
Y730000D01*
X1371500Y678000D02*
Y730000D01*
Y614000D02*
X1437500D01*
X1371500Y666000D02*
X1437500D01*
Y614000D02*
Y666000D01*
X1371500Y614000D02*
Y666000D01*
Y742000D02*
X1437500D01*
X1371500Y794000D02*
X1437500D01*
Y742000D02*
Y794000D01*
X1371500Y742000D02*
Y794000D01*
Y166000D02*
X1437500D01*
X1371500Y218000D02*
X1437500D01*
Y166000D02*
Y218000D01*
X1371500Y166000D02*
Y218000D01*
Y230000D02*
X1437500D01*
X1371500Y282000D02*
X1437500D01*
Y230000D02*
Y282000D01*
X1371500Y230000D02*
Y282000D01*
M02*
