G04*
G04 #@! TF.GenerationSoftware,Altium Limited,Altium Designer,21.7.2 (23)*
G04*
G04 Layer_Color=16711935*
%FSLAX44Y44*%
%MOMM*%
G71*
G04*
G04 #@! TF.SameCoordinates,A9A7B072-6AC6-4A5B-B51B-50EAD1D51C51*
G04*
G04*
G04 #@! TF.FilePolarity,Positive*
G04*
G01*
G75*
%ADD27C,0.1000*%
D27*
X5000Y522750D02*
X19000D01*
X5000Y501250D02*
X19000D01*
Y522750D01*
X5000Y501250D02*
Y522750D01*
Y458750D02*
X19000D01*
X5000Y437250D02*
X19000D01*
Y458750D01*
X5000Y437250D02*
Y458750D01*
Y330750D02*
X19000D01*
X5000Y309250D02*
X19000D01*
Y330750D01*
X5000Y309250D02*
Y330750D01*
Y394750D02*
X19000D01*
X5000Y373250D02*
X19000D01*
Y394750D01*
X5000Y373250D02*
Y394750D01*
Y586750D02*
X19000D01*
X5000Y565250D02*
X19000D01*
Y586750D01*
X5000Y565250D02*
Y586750D01*
Y650750D02*
X19000D01*
X5000Y629250D02*
X19000D01*
Y650750D01*
X5000Y629250D02*
Y650750D01*
Y714750D02*
X19000D01*
X5000Y693250D02*
X19000D01*
Y714750D01*
X5000Y693250D02*
Y714750D01*
Y778750D02*
X19000D01*
X5000Y757250D02*
X19000D01*
Y778750D01*
X5000Y757250D02*
Y778750D01*
Y842750D02*
X19000D01*
X5000Y821250D02*
X19000D01*
Y842750D01*
X5000Y821250D02*
Y842750D01*
Y266750D02*
X19000D01*
X5000Y245250D02*
X19000D01*
Y266750D01*
X5000Y245250D02*
Y266750D01*
Y202750D02*
X19000D01*
X5000Y181250D02*
X19000D01*
Y202750D01*
X5000Y181250D02*
Y202750D01*
Y138750D02*
X19000D01*
X5000Y117250D02*
X19000D01*
Y138750D01*
X5000Y117250D02*
Y138750D01*
X37500Y103000D02*
Y153000D01*
X87500D01*
X37500Y103000D02*
X87500D01*
Y153000D01*
X37500Y807000D02*
Y857000D01*
X87500D01*
X37500Y807000D02*
X87500D01*
Y857000D01*
X37500Y487000D02*
Y537000D01*
X87500D01*
X37500Y487000D02*
X87500D01*
Y537000D01*
X37500Y423000D02*
Y473000D01*
X87500D01*
X37500Y423000D02*
X87500D01*
Y473000D01*
X37500Y359000D02*
Y409000D01*
X87500D01*
X37500Y359000D02*
X87500D01*
Y409000D01*
X37500Y551000D02*
Y601000D01*
X87500D01*
X37500Y551000D02*
X87500D01*
Y601000D01*
X37500Y295000D02*
Y345000D01*
X87500D01*
X37500Y295000D02*
X87500D01*
Y345000D01*
X37500Y679000D02*
Y729000D01*
X87500D01*
X37500Y679000D02*
X87500D01*
Y729000D01*
X37500Y615000D02*
Y665000D01*
X87500D01*
X37500Y615000D02*
X87500D01*
Y665000D01*
X37500Y743000D02*
Y793000D01*
X87500D01*
X37500Y743000D02*
X87500D01*
Y793000D01*
X37500Y167000D02*
Y217000D01*
X87500D01*
X37500Y167000D02*
X87500D01*
Y217000D01*
X37500Y231000D02*
Y281000D01*
X87500D01*
X37500Y231000D02*
X87500D01*
Y281000D01*
X130000Y522750D02*
X144000D01*
X130000Y501250D02*
X144000D01*
Y522750D01*
X130000Y501250D02*
Y522750D01*
Y458750D02*
X144000D01*
X130000Y437250D02*
X144000D01*
Y458750D01*
X130000Y437250D02*
Y458750D01*
Y330750D02*
X144000D01*
X130000Y309250D02*
X144000D01*
Y330750D01*
X130000Y309250D02*
Y330750D01*
Y394750D02*
X144000D01*
X130000Y373250D02*
X144000D01*
Y394750D01*
X130000Y373250D02*
Y394750D01*
Y586750D02*
X144000D01*
X130000Y565250D02*
X144000D01*
Y586750D01*
X130000Y565250D02*
Y586750D01*
Y650750D02*
X144000D01*
X130000Y629250D02*
X144000D01*
Y650750D01*
X130000Y629250D02*
Y650750D01*
Y714750D02*
X144000D01*
X130000Y693250D02*
X144000D01*
Y714750D01*
X130000Y693250D02*
Y714750D01*
Y778750D02*
X144000D01*
X130000Y757250D02*
X144000D01*
Y778750D01*
X130000Y757250D02*
Y778750D01*
Y842750D02*
X144000D01*
X130000Y821250D02*
X144000D01*
Y842750D01*
X130000Y821250D02*
Y842750D01*
Y266750D02*
X144000D01*
X130000Y245250D02*
X144000D01*
Y266750D01*
X130000Y245250D02*
Y266750D01*
Y202750D02*
X144000D01*
X130000Y181250D02*
X144000D01*
Y202750D01*
X130000Y181250D02*
Y202750D01*
Y138750D02*
X144000D01*
X130000Y117250D02*
X144000D01*
Y138750D01*
X130000Y117250D02*
Y138750D01*
X162500Y103000D02*
Y153000D01*
X212500D01*
X162500Y103000D02*
X212500D01*
Y153000D01*
X162500Y807000D02*
Y857000D01*
X212500D01*
X162500Y807000D02*
X212500D01*
Y857000D01*
X162500Y487000D02*
Y537000D01*
X212500D01*
X162500Y487000D02*
X212500D01*
Y537000D01*
X162500Y423000D02*
Y473000D01*
X212500D01*
X162500Y423000D02*
X212500D01*
Y473000D01*
X162500Y359000D02*
Y409000D01*
X212500D01*
X162500Y359000D02*
X212500D01*
Y409000D01*
X162500Y551000D02*
Y601000D01*
X212500D01*
X162500Y551000D02*
X212500D01*
Y601000D01*
X162500Y295000D02*
Y345000D01*
X212500D01*
X162500Y295000D02*
X212500D01*
Y345000D01*
X162500Y679000D02*
Y729000D01*
X212500D01*
X162500Y679000D02*
X212500D01*
Y729000D01*
X162500Y615000D02*
Y665000D01*
X212500D01*
X162500Y615000D02*
X212500D01*
Y665000D01*
X162500Y743000D02*
Y793000D01*
X212500D01*
X162500Y743000D02*
X212500D01*
Y793000D01*
X162500Y167000D02*
Y217000D01*
X212500D01*
X162500Y167000D02*
X212500D01*
Y217000D01*
X162500Y231000D02*
Y281000D01*
X212500D01*
X162500Y231000D02*
X212500D01*
Y281000D01*
X255000Y522750D02*
X269000D01*
X255000Y501250D02*
X269000D01*
Y522750D01*
X255000Y501250D02*
Y522750D01*
Y458750D02*
X269000D01*
X255000Y437250D02*
X269000D01*
Y458750D01*
X255000Y437250D02*
Y458750D01*
Y330750D02*
X269000D01*
X255000Y309250D02*
X269000D01*
Y330750D01*
X255000Y309250D02*
Y330750D01*
Y394750D02*
X269000D01*
X255000Y373250D02*
X269000D01*
Y394750D01*
X255000Y373250D02*
Y394750D01*
Y586750D02*
X269000D01*
X255000Y565250D02*
X269000D01*
Y586750D01*
X255000Y565250D02*
Y586750D01*
Y650750D02*
X269000D01*
X255000Y629250D02*
X269000D01*
Y650750D01*
X255000Y629250D02*
Y650750D01*
Y714750D02*
X269000D01*
X255000Y693250D02*
X269000D01*
Y714750D01*
X255000Y693250D02*
Y714750D01*
Y778750D02*
X269000D01*
X255000Y757250D02*
X269000D01*
Y778750D01*
X255000Y757250D02*
Y778750D01*
Y842750D02*
X269000D01*
X255000Y821250D02*
X269000D01*
Y842750D01*
X255000Y821250D02*
Y842750D01*
Y266750D02*
X269000D01*
X255000Y245250D02*
X269000D01*
Y266750D01*
X255000Y245250D02*
Y266750D01*
Y202750D02*
X269000D01*
X255000Y181250D02*
X269000D01*
Y202750D01*
X255000Y181250D02*
Y202750D01*
Y138750D02*
X269000D01*
X255000Y117250D02*
X269000D01*
Y138750D01*
X255000Y117250D02*
Y138750D01*
X287500Y103000D02*
Y153000D01*
X337500D01*
X287500Y103000D02*
X337500D01*
Y153000D01*
X287500Y807000D02*
Y857000D01*
X337500D01*
X287500Y807000D02*
X337500D01*
Y857000D01*
X287500Y487000D02*
Y537000D01*
X337500D01*
X287500Y487000D02*
X337500D01*
Y537000D01*
X287500Y423000D02*
Y473000D01*
X337500D01*
X287500Y423000D02*
X337500D01*
Y473000D01*
X287500Y359000D02*
Y409000D01*
X337500D01*
X287500Y359000D02*
X337500D01*
Y409000D01*
X287500Y551000D02*
Y601000D01*
X337500D01*
X287500Y551000D02*
X337500D01*
Y601000D01*
X287500Y295000D02*
Y345000D01*
X337500D01*
X287500Y295000D02*
X337500D01*
Y345000D01*
X287500Y679000D02*
Y729000D01*
X337500D01*
X287500Y679000D02*
X337500D01*
Y729000D01*
X287500Y615000D02*
Y665000D01*
X337500D01*
X287500Y615000D02*
X337500D01*
Y665000D01*
X287500Y743000D02*
Y793000D01*
X337500D01*
X287500Y743000D02*
X337500D01*
Y793000D01*
X287500Y167000D02*
Y217000D01*
X337500D01*
X287500Y167000D02*
X337500D01*
Y217000D01*
X287500Y231000D02*
Y281000D01*
X337500D01*
X287500Y231000D02*
X337500D01*
Y281000D01*
X380000Y522750D02*
X394000D01*
X380000Y501250D02*
X394000D01*
Y522750D01*
X380000Y501250D02*
Y522750D01*
Y458750D02*
X394000D01*
X380000Y437250D02*
X394000D01*
Y458750D01*
X380000Y437250D02*
Y458750D01*
Y330750D02*
X394000D01*
X380000Y309250D02*
X394000D01*
Y330750D01*
X380000Y309250D02*
Y330750D01*
Y394750D02*
X394000D01*
X380000Y373250D02*
X394000D01*
Y394750D01*
X380000Y373250D02*
Y394750D01*
Y586750D02*
X394000D01*
X380000Y565250D02*
X394000D01*
Y586750D01*
X380000Y565250D02*
Y586750D01*
Y650750D02*
X394000D01*
X380000Y629250D02*
X394000D01*
Y650750D01*
X380000Y629250D02*
Y650750D01*
Y714750D02*
X394000D01*
X380000Y693250D02*
X394000D01*
Y714750D01*
X380000Y693250D02*
Y714750D01*
Y778750D02*
X394000D01*
X380000Y757250D02*
X394000D01*
Y778750D01*
X380000Y757250D02*
Y778750D01*
Y842750D02*
X394000D01*
X380000Y821250D02*
X394000D01*
Y842750D01*
X380000Y821250D02*
Y842750D01*
Y266750D02*
X394000D01*
X380000Y245250D02*
X394000D01*
Y266750D01*
X380000Y245250D02*
Y266750D01*
Y202750D02*
X394000D01*
X380000Y181250D02*
X394000D01*
Y202750D01*
X380000Y181250D02*
Y202750D01*
Y138750D02*
X394000D01*
X380000Y117250D02*
X394000D01*
Y138750D01*
X380000Y117250D02*
Y138750D01*
X412500Y103000D02*
Y153000D01*
X462500D01*
X412500Y103000D02*
X462500D01*
Y153000D01*
X412500Y807000D02*
Y857000D01*
X462500D01*
X412500Y807000D02*
X462500D01*
Y857000D01*
X412500Y487000D02*
Y537000D01*
X462500D01*
X412500Y487000D02*
X462500D01*
Y537000D01*
X412500Y423000D02*
Y473000D01*
X462500D01*
X412500Y423000D02*
X462500D01*
Y473000D01*
X412500Y359000D02*
Y409000D01*
X462500D01*
X412500Y359000D02*
X462500D01*
Y409000D01*
X412500Y551000D02*
Y601000D01*
X462500D01*
X412500Y551000D02*
X462500D01*
Y601000D01*
X412500Y295000D02*
Y345000D01*
X462500D01*
X412500Y295000D02*
X462500D01*
Y345000D01*
X412500Y679000D02*
Y729000D01*
X462500D01*
X412500Y679000D02*
X462500D01*
Y729000D01*
X412500Y615000D02*
Y665000D01*
X462500D01*
X412500Y615000D02*
X462500D01*
Y665000D01*
X412500Y743000D02*
Y793000D01*
X462500D01*
X412500Y743000D02*
X462500D01*
Y793000D01*
X412500Y167000D02*
Y217000D01*
X462500D01*
X412500Y167000D02*
X462500D01*
Y217000D01*
X412500Y231000D02*
Y281000D01*
X462500D01*
X412500Y231000D02*
X462500D01*
Y281000D01*
X505000Y522750D02*
X519000D01*
X505000Y501250D02*
X519000D01*
Y522750D01*
X505000Y501250D02*
Y522750D01*
Y458750D02*
X519000D01*
X505000Y437250D02*
X519000D01*
Y458750D01*
X505000Y437250D02*
Y458750D01*
Y330750D02*
X519000D01*
X505000Y309250D02*
X519000D01*
Y330750D01*
X505000Y309250D02*
Y330750D01*
Y394750D02*
X519000D01*
X505000Y373250D02*
X519000D01*
Y394750D01*
X505000Y373250D02*
Y394750D01*
Y586750D02*
X519000D01*
X505000Y565250D02*
X519000D01*
Y586750D01*
X505000Y565250D02*
Y586750D01*
Y650750D02*
X519000D01*
X505000Y629250D02*
X519000D01*
Y650750D01*
X505000Y629250D02*
Y650750D01*
Y714750D02*
X519000D01*
X505000Y693250D02*
X519000D01*
Y714750D01*
X505000Y693250D02*
Y714750D01*
Y778750D02*
X519000D01*
X505000Y757250D02*
X519000D01*
Y778750D01*
X505000Y757250D02*
Y778750D01*
Y842750D02*
X519000D01*
X505000Y821250D02*
X519000D01*
Y842750D01*
X505000Y821250D02*
Y842750D01*
Y266750D02*
X519000D01*
X505000Y245250D02*
X519000D01*
Y266750D01*
X505000Y245250D02*
Y266750D01*
Y202750D02*
X519000D01*
X505000Y181250D02*
X519000D01*
Y202750D01*
X505000Y181250D02*
Y202750D01*
Y138750D02*
X519000D01*
X505000Y117250D02*
X519000D01*
Y138750D01*
X505000Y117250D02*
Y138750D01*
X537500Y103000D02*
Y153000D01*
X587500D01*
X537500Y103000D02*
X587500D01*
Y153000D01*
X537500Y807000D02*
Y857000D01*
X587500D01*
X537500Y807000D02*
X587500D01*
Y857000D01*
X537500Y487000D02*
Y537000D01*
X587500D01*
X537500Y487000D02*
X587500D01*
Y537000D01*
X537500Y423000D02*
Y473000D01*
X587500D01*
X537500Y423000D02*
X587500D01*
Y473000D01*
X537500Y359000D02*
Y409000D01*
X587500D01*
X537500Y359000D02*
X587500D01*
Y409000D01*
X537500Y551000D02*
Y601000D01*
X587500D01*
X537500Y551000D02*
X587500D01*
Y601000D01*
X537500Y295000D02*
Y345000D01*
X587500D01*
X537500Y295000D02*
X587500D01*
Y345000D01*
X537500Y679000D02*
Y729000D01*
X587500D01*
X537500Y679000D02*
X587500D01*
Y729000D01*
X537500Y615000D02*
Y665000D01*
X587500D01*
X537500Y615000D02*
X587500D01*
Y665000D01*
X537500Y743000D02*
Y793000D01*
X587500D01*
X537500Y743000D02*
X587500D01*
Y793000D01*
X537500Y167000D02*
Y217000D01*
X587500D01*
X537500Y167000D02*
X587500D01*
Y217000D01*
X537500Y231000D02*
Y281000D01*
X587500D01*
X537500Y231000D02*
X587500D01*
Y281000D01*
X630000Y522750D02*
X644000D01*
X630000Y501250D02*
X644000D01*
Y522750D01*
X630000Y501250D02*
Y522750D01*
Y458750D02*
X644000D01*
X630000Y437250D02*
X644000D01*
Y458750D01*
X630000Y437250D02*
Y458750D01*
Y330750D02*
X644000D01*
X630000Y309250D02*
X644000D01*
Y330750D01*
X630000Y309250D02*
Y330750D01*
Y394750D02*
X644000D01*
X630000Y373250D02*
X644000D01*
Y394750D01*
X630000Y373250D02*
Y394750D01*
Y586750D02*
X644000D01*
X630000Y565250D02*
X644000D01*
Y586750D01*
X630000Y565250D02*
Y586750D01*
Y650750D02*
X644000D01*
X630000Y629250D02*
X644000D01*
Y650750D01*
X630000Y629250D02*
Y650750D01*
Y714750D02*
X644000D01*
X630000Y693250D02*
X644000D01*
Y714750D01*
X630000Y693250D02*
Y714750D01*
Y778750D02*
X644000D01*
X630000Y757250D02*
X644000D01*
Y778750D01*
X630000Y757250D02*
Y778750D01*
Y842750D02*
X644000D01*
X630000Y821250D02*
X644000D01*
Y842750D01*
X630000Y821250D02*
Y842750D01*
Y266750D02*
X644000D01*
X630000Y245250D02*
X644000D01*
Y266750D01*
X630000Y245250D02*
Y266750D01*
Y202750D02*
X644000D01*
X630000Y181250D02*
X644000D01*
Y202750D01*
X630000Y181250D02*
Y202750D01*
Y138750D02*
X644000D01*
X630000Y117250D02*
X644000D01*
Y138750D01*
X630000Y117250D02*
Y138750D01*
X662500Y103000D02*
Y153000D01*
X712500D01*
X662500Y103000D02*
X712500D01*
Y153000D01*
X662500Y807000D02*
Y857000D01*
X712500D01*
X662500Y807000D02*
X712500D01*
Y857000D01*
X662500Y487000D02*
Y537000D01*
X712500D01*
X662500Y487000D02*
X712500D01*
Y537000D01*
X662500Y423000D02*
Y473000D01*
X712500D01*
X662500Y423000D02*
X712500D01*
Y473000D01*
X662500Y359000D02*
Y409000D01*
X712500D01*
X662500Y359000D02*
X712500D01*
Y409000D01*
X662500Y551000D02*
Y601000D01*
X712500D01*
X662500Y551000D02*
X712500D01*
Y601000D01*
X662500Y295000D02*
Y345000D01*
X712500D01*
X662500Y295000D02*
X712500D01*
Y345000D01*
X662500Y679000D02*
Y729000D01*
X712500D01*
X662500Y679000D02*
X712500D01*
Y729000D01*
X662500Y615000D02*
Y665000D01*
X712500D01*
X662500Y615000D02*
X712500D01*
Y665000D01*
X662500Y743000D02*
Y793000D01*
X712500D01*
X662500Y743000D02*
X712500D01*
Y793000D01*
X662500Y167000D02*
Y217000D01*
X712500D01*
X662500Y167000D02*
X712500D01*
Y217000D01*
X662500Y231000D02*
Y281000D01*
X712500D01*
X662500Y231000D02*
X712500D01*
Y281000D01*
X755000Y522750D02*
X769000D01*
X755000Y501250D02*
X769000D01*
Y522750D01*
X755000Y501250D02*
Y522750D01*
Y458750D02*
X769000D01*
X755000Y437250D02*
X769000D01*
Y458750D01*
X755000Y437250D02*
Y458750D01*
Y330750D02*
X769000D01*
X755000Y309250D02*
X769000D01*
Y330750D01*
X755000Y309250D02*
Y330750D01*
Y394750D02*
X769000D01*
X755000Y373250D02*
X769000D01*
Y394750D01*
X755000Y373250D02*
Y394750D01*
Y586750D02*
X769000D01*
X755000Y565250D02*
X769000D01*
Y586750D01*
X755000Y565250D02*
Y586750D01*
Y650750D02*
X769000D01*
X755000Y629250D02*
X769000D01*
Y650750D01*
X755000Y629250D02*
Y650750D01*
Y714750D02*
X769000D01*
X755000Y693250D02*
X769000D01*
Y714750D01*
X755000Y693250D02*
Y714750D01*
Y778750D02*
X769000D01*
X755000Y757250D02*
X769000D01*
Y778750D01*
X755000Y757250D02*
Y778750D01*
Y842750D02*
X769000D01*
X755000Y821250D02*
X769000D01*
Y842750D01*
X755000Y821250D02*
Y842750D01*
Y266750D02*
X769000D01*
X755000Y245250D02*
X769000D01*
Y266750D01*
X755000Y245250D02*
Y266750D01*
Y202750D02*
X769000D01*
X755000Y181250D02*
X769000D01*
Y202750D01*
X755000Y181250D02*
Y202750D01*
Y138750D02*
X769000D01*
X755000Y117250D02*
X769000D01*
Y138750D01*
X755000Y117250D02*
Y138750D01*
X787500Y103000D02*
Y153000D01*
X837500D01*
X787500Y103000D02*
X837500D01*
Y153000D01*
X787500Y807000D02*
Y857000D01*
X837500D01*
X787500Y807000D02*
X837500D01*
Y857000D01*
X787500Y487000D02*
Y537000D01*
X837500D01*
X787500Y487000D02*
X837500D01*
Y537000D01*
X787500Y423000D02*
Y473000D01*
X837500D01*
X787500Y423000D02*
X837500D01*
Y473000D01*
X787500Y359000D02*
Y409000D01*
X837500D01*
X787500Y359000D02*
X837500D01*
Y409000D01*
X787500Y551000D02*
Y601000D01*
X837500D01*
X787500Y551000D02*
X837500D01*
Y601000D01*
X787500Y295000D02*
Y345000D01*
X837500D01*
X787500Y295000D02*
X837500D01*
Y345000D01*
X787500Y679000D02*
Y729000D01*
X837500D01*
X787500Y679000D02*
X837500D01*
Y729000D01*
X787500Y615000D02*
Y665000D01*
X837500D01*
X787500Y615000D02*
X837500D01*
Y665000D01*
X787500Y743000D02*
Y793000D01*
X837500D01*
X787500Y743000D02*
X837500D01*
Y793000D01*
X787500Y167000D02*
Y217000D01*
X837500D01*
X787500Y167000D02*
X837500D01*
Y217000D01*
X787500Y231000D02*
Y281000D01*
X837500D01*
X787500Y231000D02*
X837500D01*
Y281000D01*
X880000Y522750D02*
X894000D01*
X880000Y501250D02*
X894000D01*
Y522750D01*
X880000Y501250D02*
Y522750D01*
Y458750D02*
X894000D01*
X880000Y437250D02*
X894000D01*
Y458750D01*
X880000Y437250D02*
Y458750D01*
Y330750D02*
X894000D01*
X880000Y309250D02*
X894000D01*
Y330750D01*
X880000Y309250D02*
Y330750D01*
Y394750D02*
X894000D01*
X880000Y373250D02*
X894000D01*
Y394750D01*
X880000Y373250D02*
Y394750D01*
Y586750D02*
X894000D01*
X880000Y565250D02*
X894000D01*
Y586750D01*
X880000Y565250D02*
Y586750D01*
Y650750D02*
X894000D01*
X880000Y629250D02*
X894000D01*
Y650750D01*
X880000Y629250D02*
Y650750D01*
Y714750D02*
X894000D01*
X880000Y693250D02*
X894000D01*
Y714750D01*
X880000Y693250D02*
Y714750D01*
Y778750D02*
X894000D01*
X880000Y757250D02*
X894000D01*
Y778750D01*
X880000Y757250D02*
Y778750D01*
Y842750D02*
X894000D01*
X880000Y821250D02*
X894000D01*
Y842750D01*
X880000Y821250D02*
Y842750D01*
Y266750D02*
X894000D01*
X880000Y245250D02*
X894000D01*
Y266750D01*
X880000Y245250D02*
Y266750D01*
Y202750D02*
X894000D01*
X880000Y181250D02*
X894000D01*
Y202750D01*
X880000Y181250D02*
Y202750D01*
Y138750D02*
X894000D01*
X880000Y117250D02*
X894000D01*
Y138750D01*
X880000Y117250D02*
Y138750D01*
X912500Y103000D02*
Y153000D01*
X962500D01*
X912500Y103000D02*
X962500D01*
Y153000D01*
X912500Y807000D02*
Y857000D01*
X962500D01*
X912500Y807000D02*
X962500D01*
Y857000D01*
X912500Y487000D02*
Y537000D01*
X962500D01*
X912500Y487000D02*
X962500D01*
Y537000D01*
X912500Y423000D02*
Y473000D01*
X962500D01*
X912500Y423000D02*
X962500D01*
Y473000D01*
X912500Y359000D02*
Y409000D01*
X962500D01*
X912500Y359000D02*
X962500D01*
Y409000D01*
X912500Y551000D02*
Y601000D01*
X962500D01*
X912500Y551000D02*
X962500D01*
Y601000D01*
X912500Y295000D02*
Y345000D01*
X962500D01*
X912500Y295000D02*
X962500D01*
Y345000D01*
X912500Y679000D02*
Y729000D01*
X962500D01*
X912500Y679000D02*
X962500D01*
Y729000D01*
X912500Y615000D02*
Y665000D01*
X962500D01*
X912500Y615000D02*
X962500D01*
Y665000D01*
X912500Y743000D02*
Y793000D01*
X962500D01*
X912500Y743000D02*
X962500D01*
Y793000D01*
X912500Y167000D02*
Y217000D01*
X962500D01*
X912500Y167000D02*
X962500D01*
Y217000D01*
X912500Y231000D02*
Y281000D01*
X962500D01*
X912500Y231000D02*
X962500D01*
Y281000D01*
M02*
