G04*
G04 #@! TF.GenerationSoftware,Altium Limited,Altium Designer,21.7.2 (23)*
G04*
G04 Layer_Color=8388736*
%FSLAX44Y44*%
%MOMM*%
G71*
G04*
G04 #@! TF.SameCoordinates,A9A7B072-6AC6-4A5B-B51B-50EAD1D51C51*
G04*
G04*
G04 #@! TF.FilePolarity,Negative*
G04*
G01*
G75*
%ADD21C,1.2032*%
%ADD22R,1.6532X1.4532*%
%ADD23R,1.7032X1.1032*%
%ADD24C,1.1032*%
%ADD25C,0.9032*%
%ADD26C,0.8032*%
G36*
X997000Y907000D02*
X977000D01*
Y942000D01*
X997000D01*
Y907000D01*
D02*
G37*
G36*
X898000D02*
X878000D01*
Y942000D01*
X898000D01*
Y907000D01*
D02*
G37*
G36*
X872000D02*
X852000D01*
Y942000D01*
X872000D01*
Y907000D01*
D02*
G37*
G36*
X773000D02*
X753000D01*
Y942000D01*
X773000D01*
Y907000D01*
D02*
G37*
G36*
X747000D02*
X727000D01*
Y942000D01*
X747000D01*
Y907000D01*
D02*
G37*
G36*
X648000D02*
X628000D01*
Y942000D01*
X648000D01*
Y907000D01*
D02*
G37*
G36*
X622000D02*
X602000D01*
Y942000D01*
X622000D01*
Y907000D01*
D02*
G37*
G36*
X523000D02*
X503000D01*
Y942000D01*
X523000D01*
Y907000D01*
D02*
G37*
G36*
X497000D02*
X477000D01*
Y942000D01*
X497000D01*
Y907000D01*
D02*
G37*
G36*
X398000D02*
X378000D01*
Y942000D01*
X398000D01*
Y907000D01*
D02*
G37*
G36*
X372000D02*
X352000D01*
Y942000D01*
X372000D01*
Y907000D01*
D02*
G37*
G36*
X273000D02*
X253000D01*
Y942000D01*
X273000D01*
Y907000D01*
D02*
G37*
G36*
X247000D02*
X227000D01*
Y942000D01*
X247000D01*
Y907000D01*
D02*
G37*
G36*
X148000D02*
X128000D01*
Y942000D01*
X148000D01*
Y907000D01*
D02*
G37*
G36*
X122000D02*
X102000D01*
Y942000D01*
X122000D01*
Y907000D01*
D02*
G37*
G36*
X23000D02*
X3000D01*
Y942000D01*
X23000D01*
Y907000D01*
D02*
G37*
G36*
X970133Y957010D02*
X970263Y956983D01*
X970390Y956941D01*
X970509Y956882D01*
X970620Y956808D01*
X970720Y956720D01*
X970808Y956620D01*
X970882Y956509D01*
X970941Y956390D01*
X970983Y956264D01*
X971009Y956133D01*
X971018Y956000D01*
Y916000D01*
Y914354D01*
D01*
Y914354D01*
X971009Y914221D01*
X970983Y914091D01*
X970132Y910912D01*
X970089Y910786D01*
X970030Y910666D01*
X968384Y907816D01*
X968384Y907816D01*
X968310Y907705D01*
X968222Y907605D01*
X965895Y905278D01*
X965895Y905277D01*
X965795Y905190D01*
X965684Y905116D01*
X962834Y903470D01*
X962834Y903470D01*
X962714Y903411D01*
X962588Y903368D01*
X959409Y902516D01*
X959278Y902490D01*
X959146Y902482D01*
X955854D01*
X955721Y902490D01*
X955591Y902516D01*
X952412Y903368D01*
X952285Y903411D01*
X952166Y903470D01*
X949316Y905116D01*
X949316Y905116D01*
X949205Y905190D01*
X949105Y905277D01*
X946778Y907605D01*
X946777Y907605D01*
X946690Y907705D01*
X946616Y907816D01*
X944970Y910666D01*
X944970Y910666D01*
X944911Y910786D01*
X944868Y910912D01*
X944016Y914091D01*
X943990Y914221D01*
X943982Y914354D01*
Y916000D01*
Y956000D01*
X943990Y956133D01*
X944016Y956264D01*
X944059Y956390D01*
X944118Y956509D01*
X944192Y956620D01*
X944280Y956720D01*
X944380Y956808D01*
X944491Y956882D01*
X944610Y956941D01*
X944736Y956983D01*
X944867Y957010D01*
X945000Y957018D01*
X970000D01*
X970133Y957010D01*
D02*
G37*
G36*
X930133D02*
X930263Y956983D01*
X930390Y956941D01*
X930509Y956882D01*
X930620Y956808D01*
X930720Y956720D01*
X930808Y956620D01*
X930882Y956509D01*
X930941Y956390D01*
X930983Y956264D01*
X931009Y956133D01*
X931018Y956000D01*
Y916000D01*
Y914354D01*
D01*
Y914354D01*
X931009Y914221D01*
X930983Y914091D01*
X930132Y910912D01*
X930089Y910786D01*
X930030Y910666D01*
X928384Y907816D01*
X928384Y907816D01*
X928310Y907705D01*
X928222Y907605D01*
X925895Y905278D01*
X925895Y905277D01*
X925795Y905190D01*
X925684Y905116D01*
X922834Y903470D01*
X922834Y903470D01*
X922714Y903411D01*
X922588Y903368D01*
X919409Y902516D01*
X919278Y902490D01*
X919146Y902482D01*
X915854D01*
X915721Y902490D01*
X915591Y902516D01*
X912412Y903368D01*
X912285Y903411D01*
X912166Y903470D01*
X909316Y905116D01*
X909316Y905116D01*
X909205Y905190D01*
X909105Y905277D01*
X906778Y907605D01*
X906777Y907605D01*
X906690Y907705D01*
X906616Y907816D01*
X904970Y910666D01*
X904970Y910666D01*
X904911Y910786D01*
X904868Y910912D01*
X904016Y914091D01*
X903990Y914221D01*
X903982Y914354D01*
Y916000D01*
Y956000D01*
X903990Y956133D01*
X904016Y956264D01*
X904059Y956390D01*
X904118Y956509D01*
X904192Y956620D01*
X904280Y956720D01*
X904380Y956808D01*
X904491Y956882D01*
X904610Y956941D01*
X904736Y956983D01*
X904867Y957010D01*
X905000Y957018D01*
X930000D01*
X930133Y957010D01*
D02*
G37*
G36*
X845133D02*
X845263Y956983D01*
X845389Y956941D01*
X845509Y956882D01*
X845620Y956808D01*
X845720Y956720D01*
X845808Y956620D01*
X845882Y956509D01*
X845941Y956390D01*
X845983Y956264D01*
X846009Y956133D01*
X846018Y956000D01*
Y916000D01*
Y914354D01*
D01*
Y914354D01*
X846009Y914221D01*
X845983Y914091D01*
X845132Y910912D01*
X845089Y910786D01*
X845030Y910666D01*
X843384Y907816D01*
X843384Y907816D01*
X843310Y907705D01*
X843222Y907605D01*
X840895Y905278D01*
X840895Y905277D01*
X840795Y905190D01*
X840684Y905116D01*
X837834Y903470D01*
X837834Y903470D01*
X837714Y903411D01*
X837588Y903368D01*
X834409Y902516D01*
X834278Y902490D01*
X834146Y902482D01*
X830854D01*
X830721Y902490D01*
X830591Y902516D01*
X827412Y903368D01*
X827285Y903411D01*
X827166Y903470D01*
X824316Y905116D01*
X824316Y905116D01*
X824205Y905190D01*
X824105Y905277D01*
X821778Y907605D01*
X821777Y907605D01*
X821690Y907705D01*
X821616Y907816D01*
X819970Y910666D01*
X819970Y910666D01*
X819911Y910786D01*
X819868Y910912D01*
X819016Y914091D01*
X818990Y914221D01*
X818982Y914354D01*
Y916000D01*
Y956000D01*
X818990Y956133D01*
X819016Y956264D01*
X819059Y956390D01*
X819118Y956509D01*
X819192Y956620D01*
X819280Y956720D01*
X819380Y956808D01*
X819491Y956882D01*
X819610Y956941D01*
X819736Y956983D01*
X819867Y957010D01*
X820000Y957018D01*
X845000D01*
X845133Y957010D01*
D02*
G37*
G36*
X805133D02*
X805263Y956983D01*
X805389Y956941D01*
X805509Y956882D01*
X805620Y956808D01*
X805720Y956720D01*
X805808Y956620D01*
X805882Y956509D01*
X805941Y956390D01*
X805983Y956264D01*
X806009Y956133D01*
X806018Y956000D01*
Y916000D01*
Y914354D01*
D01*
Y914354D01*
X806009Y914221D01*
X805983Y914091D01*
X805132Y910912D01*
X805089Y910786D01*
X805030Y910666D01*
X803384Y907816D01*
X803384Y907816D01*
X803310Y907705D01*
X803222Y907605D01*
X800895Y905278D01*
X800895Y905277D01*
X800795Y905190D01*
X800684Y905116D01*
X797834Y903470D01*
X797834Y903470D01*
X797714Y903411D01*
X797588Y903368D01*
X794409Y902516D01*
X794278Y902490D01*
X794146Y902482D01*
X790854D01*
X790721Y902490D01*
X790591Y902516D01*
X787412Y903368D01*
X787285Y903411D01*
X787166Y903470D01*
X784316Y905116D01*
X784316Y905116D01*
X784205Y905190D01*
X784105Y905277D01*
X781778Y907605D01*
X781777Y907605D01*
X781690Y907705D01*
X781616Y907816D01*
X779970Y910666D01*
X779970Y910666D01*
X779911Y910786D01*
X779868Y910912D01*
X779016Y914091D01*
X778990Y914221D01*
X778982Y914354D01*
Y916000D01*
Y956000D01*
X778990Y956133D01*
X779016Y956264D01*
X779059Y956390D01*
X779118Y956509D01*
X779192Y956620D01*
X779280Y956720D01*
X779380Y956808D01*
X779491Y956882D01*
X779610Y956941D01*
X779736Y956983D01*
X779867Y957010D01*
X780000Y957018D01*
X805000D01*
X805133Y957010D01*
D02*
G37*
G36*
X720133D02*
X720263Y956983D01*
X720389Y956941D01*
X720509Y956882D01*
X720620Y956808D01*
X720720Y956720D01*
X720808Y956620D01*
X720882Y956509D01*
X720941Y956390D01*
X720983Y956264D01*
X721009Y956133D01*
X721018Y956000D01*
Y916000D01*
Y914354D01*
D01*
Y914354D01*
X721009Y914221D01*
X720983Y914091D01*
X720132Y910912D01*
X720089Y910786D01*
X720030Y910666D01*
X718384Y907816D01*
X718384Y907816D01*
X718310Y907705D01*
X718222Y907605D01*
X715895Y905278D01*
X715895Y905277D01*
X715795Y905190D01*
X715684Y905116D01*
X712834Y903470D01*
X712834Y903470D01*
X712714Y903411D01*
X712588Y903368D01*
X709409Y902516D01*
X709278Y902490D01*
X709146Y902482D01*
X705854D01*
X705721Y902490D01*
X705591Y902516D01*
X702411Y903368D01*
X702285Y903411D01*
X702166Y903470D01*
X699316Y905116D01*
X699316Y905116D01*
X699205Y905190D01*
X699105Y905277D01*
X696778Y907605D01*
X696777Y907605D01*
X696690Y907705D01*
X696616Y907816D01*
X694970Y910666D01*
X694970Y910666D01*
X694911Y910786D01*
X694868Y910912D01*
X694016Y914091D01*
X693990Y914221D01*
X693982Y914354D01*
Y916000D01*
Y956000D01*
X693990Y956133D01*
X694016Y956264D01*
X694059Y956390D01*
X694118Y956509D01*
X694192Y956620D01*
X694280Y956720D01*
X694380Y956808D01*
X694491Y956882D01*
X694610Y956941D01*
X694736Y956983D01*
X694867Y957010D01*
X695000Y957018D01*
X720000D01*
X720133Y957010D01*
D02*
G37*
G36*
X680133D02*
X680263Y956983D01*
X680389Y956941D01*
X680509Y956882D01*
X680620Y956808D01*
X680720Y956720D01*
X680808Y956620D01*
X680882Y956509D01*
X680941Y956390D01*
X680983Y956264D01*
X681009Y956133D01*
X681018Y956000D01*
Y916000D01*
Y914354D01*
D01*
Y914354D01*
X681009Y914221D01*
X680983Y914091D01*
X680132Y910912D01*
X680089Y910786D01*
X680030Y910666D01*
X678384Y907816D01*
X678384Y907816D01*
X678310Y907705D01*
X678222Y907605D01*
X675895Y905278D01*
X675895Y905277D01*
X675795Y905190D01*
X675684Y905116D01*
X672834Y903470D01*
X672834Y903470D01*
X672714Y903411D01*
X672588Y903368D01*
X669409Y902516D01*
X669278Y902490D01*
X669146Y902482D01*
X665854D01*
X665721Y902490D01*
X665591Y902516D01*
X662412Y903368D01*
X662285Y903411D01*
X662166Y903470D01*
X659316Y905116D01*
X659316Y905116D01*
X659205Y905190D01*
X659105Y905277D01*
X656778Y907605D01*
X656777Y907605D01*
X656690Y907705D01*
X656616Y907816D01*
X654970Y910666D01*
X654970Y910666D01*
X654911Y910786D01*
X654868Y910912D01*
X654016Y914091D01*
X653990Y914221D01*
X653982Y914354D01*
Y916000D01*
Y956000D01*
X653990Y956133D01*
X654016Y956264D01*
X654059Y956390D01*
X654118Y956509D01*
X654192Y956620D01*
X654280Y956720D01*
X654380Y956808D01*
X654491Y956882D01*
X654610Y956941D01*
X654736Y956983D01*
X654867Y957010D01*
X655000Y957018D01*
X680000D01*
X680133Y957010D01*
D02*
G37*
G36*
X595133D02*
X595263Y956983D01*
X595390Y956941D01*
X595509Y956882D01*
X595620Y956808D01*
X595720Y956720D01*
X595808Y956620D01*
X595882Y956509D01*
X595941Y956390D01*
X595983Y956264D01*
X596009Y956133D01*
X596018Y956000D01*
Y916000D01*
Y914354D01*
D01*
Y914354D01*
X596009Y914221D01*
X595983Y914091D01*
X595131Y910912D01*
X595089Y910786D01*
X595030Y910666D01*
X593384Y907816D01*
X593384Y907816D01*
X593310Y907705D01*
X593222Y907605D01*
X590895Y905278D01*
X590895Y905277D01*
X590795Y905190D01*
X590684Y905116D01*
X587834Y903470D01*
X587834Y903470D01*
X587714Y903411D01*
X587588Y903368D01*
X584409Y902516D01*
X584278Y902490D01*
X584146Y902482D01*
X580854D01*
X580721Y902490D01*
X580591Y902516D01*
X577411Y903368D01*
X577285Y903411D01*
X577166Y903470D01*
X574316Y905116D01*
X574316Y905116D01*
X574205Y905190D01*
X574105Y905277D01*
X571778Y907605D01*
X571777Y907605D01*
X571690Y907705D01*
X571616Y907816D01*
X569970Y910666D01*
X569970Y910666D01*
X569911Y910786D01*
X569868Y910912D01*
X569016Y914091D01*
X568990Y914221D01*
X568982Y914354D01*
Y916000D01*
Y956000D01*
X568990Y956133D01*
X569016Y956264D01*
X569059Y956390D01*
X569118Y956509D01*
X569192Y956620D01*
X569280Y956720D01*
X569380Y956808D01*
X569491Y956882D01*
X569610Y956941D01*
X569736Y956983D01*
X569867Y957010D01*
X570000Y957018D01*
X595000D01*
X595133Y957010D01*
D02*
G37*
G36*
X555133D02*
X555263Y956983D01*
X555390Y956941D01*
X555509Y956882D01*
X555620Y956808D01*
X555720Y956720D01*
X555808Y956620D01*
X555882Y956509D01*
X555941Y956390D01*
X555983Y956264D01*
X556009Y956133D01*
X556018Y956000D01*
Y916000D01*
Y914354D01*
D01*
Y914354D01*
X556009Y914221D01*
X555983Y914091D01*
X555131Y910912D01*
X555089Y910786D01*
X555030Y910666D01*
X553384Y907816D01*
X553384Y907816D01*
X553310Y907705D01*
X553222Y907605D01*
X550895Y905278D01*
X550895Y905277D01*
X550795Y905190D01*
X550684Y905116D01*
X547834Y903470D01*
X547834Y903470D01*
X547714Y903411D01*
X547588Y903368D01*
X544409Y902516D01*
X544278Y902490D01*
X544146Y902482D01*
X540854D01*
X540721Y902490D01*
X540591Y902516D01*
X537411Y903368D01*
X537285Y903411D01*
X537166Y903470D01*
X534316Y905116D01*
X534316Y905116D01*
X534205Y905190D01*
X534105Y905277D01*
X531778Y907605D01*
X531777Y907605D01*
X531690Y907705D01*
X531616Y907816D01*
X529970Y910666D01*
X529970Y910666D01*
X529911Y910786D01*
X529868Y910912D01*
X529016Y914091D01*
X528990Y914221D01*
X528982Y914354D01*
Y916000D01*
Y956000D01*
X528990Y956133D01*
X529016Y956264D01*
X529059Y956390D01*
X529118Y956509D01*
X529192Y956620D01*
X529280Y956720D01*
X529380Y956808D01*
X529491Y956882D01*
X529610Y956941D01*
X529736Y956983D01*
X529867Y957010D01*
X530000Y957018D01*
X555000D01*
X555133Y957010D01*
D02*
G37*
G36*
X470133D02*
X470263Y956983D01*
X470390Y956941D01*
X470509Y956882D01*
X470620Y956808D01*
X470720Y956720D01*
X470808Y956620D01*
X470882Y956509D01*
X470941Y956390D01*
X470983Y956264D01*
X471009Y956133D01*
X471018Y956000D01*
Y916000D01*
Y914354D01*
D01*
Y914354D01*
X471009Y914221D01*
X470983Y914091D01*
X470131Y910912D01*
X470089Y910786D01*
X470030Y910666D01*
X468384Y907816D01*
X468384Y907816D01*
X468310Y907705D01*
X468222Y907605D01*
X465895Y905278D01*
X465895Y905277D01*
X465795Y905190D01*
X465684Y905116D01*
X462834Y903470D01*
X462834Y903470D01*
X462714Y903411D01*
X462588Y903368D01*
X459409Y902516D01*
X459278Y902490D01*
X459146Y902482D01*
X455854D01*
X455721Y902490D01*
X455591Y902516D01*
X452411Y903368D01*
X452285Y903411D01*
X452166Y903470D01*
X449316Y905116D01*
X449316Y905116D01*
X449205Y905190D01*
X449105Y905277D01*
X446778Y907605D01*
X446777Y907605D01*
X446690Y907705D01*
X446616Y907816D01*
X444970Y910666D01*
X444970Y910666D01*
X444911Y910786D01*
X444868Y910912D01*
X444016Y914091D01*
X443990Y914221D01*
X443982Y914354D01*
Y916000D01*
Y956000D01*
X443990Y956133D01*
X444016Y956264D01*
X444059Y956390D01*
X444118Y956509D01*
X444192Y956620D01*
X444280Y956720D01*
X444380Y956808D01*
X444491Y956882D01*
X444610Y956941D01*
X444736Y956983D01*
X444867Y957010D01*
X445000Y957018D01*
X470000D01*
X470133Y957010D01*
D02*
G37*
G36*
X430133D02*
X430263Y956983D01*
X430390Y956941D01*
X430509Y956882D01*
X430620Y956808D01*
X430720Y956720D01*
X430808Y956620D01*
X430882Y956509D01*
X430941Y956390D01*
X430983Y956264D01*
X431009Y956133D01*
X431018Y956000D01*
Y916000D01*
Y914354D01*
D01*
Y914354D01*
X431009Y914221D01*
X430983Y914091D01*
X430131Y910912D01*
X430089Y910786D01*
X430030Y910666D01*
X428384Y907816D01*
X428384Y907816D01*
X428310Y907705D01*
X428222Y907605D01*
X425895Y905278D01*
X425895Y905277D01*
X425795Y905190D01*
X425684Y905116D01*
X422834Y903470D01*
X422834Y903470D01*
X422714Y903411D01*
X422588Y903368D01*
X419409Y902516D01*
X419278Y902490D01*
X419146Y902482D01*
X415854D01*
X415721Y902490D01*
X415591Y902516D01*
X412411Y903368D01*
X412285Y903411D01*
X412166Y903470D01*
X409316Y905116D01*
X409316Y905116D01*
X409205Y905190D01*
X409105Y905277D01*
X406778Y907605D01*
X406777Y907605D01*
X406690Y907705D01*
X406616Y907816D01*
X404970Y910666D01*
X404970Y910666D01*
X404911Y910786D01*
X404868Y910912D01*
X404016Y914091D01*
X403990Y914221D01*
X403982Y914354D01*
Y916000D01*
Y956000D01*
X403990Y956133D01*
X404016Y956264D01*
X404059Y956390D01*
X404118Y956509D01*
X404192Y956620D01*
X404280Y956720D01*
X404380Y956808D01*
X404491Y956882D01*
X404610Y956941D01*
X404736Y956983D01*
X404867Y957010D01*
X405000Y957018D01*
X430000D01*
X430133Y957010D01*
D02*
G37*
G36*
X345133D02*
X345263Y956983D01*
X345390Y956941D01*
X345509Y956882D01*
X345620Y956808D01*
X345720Y956720D01*
X345808Y956620D01*
X345882Y956509D01*
X345941Y956390D01*
X345983Y956264D01*
X346009Y956133D01*
X346018Y956000D01*
Y916000D01*
Y914354D01*
D01*
Y914354D01*
X346009Y914221D01*
X345983Y914091D01*
X345131Y910912D01*
X345089Y910786D01*
X345030Y910666D01*
X343384Y907816D01*
X343384Y907816D01*
X343310Y907705D01*
X343222Y907605D01*
X340895Y905278D01*
X340895Y905277D01*
X340795Y905190D01*
X340684Y905116D01*
X337834Y903470D01*
X337834Y903470D01*
X337714Y903411D01*
X337588Y903368D01*
X334409Y902516D01*
X334278Y902490D01*
X334146Y902482D01*
X330854D01*
X330721Y902490D01*
X330591Y902516D01*
X327411Y903368D01*
X327285Y903411D01*
X327166Y903470D01*
X324316Y905116D01*
X324316Y905116D01*
X324205Y905190D01*
X324105Y905277D01*
X321778Y907605D01*
X321777Y907605D01*
X321690Y907705D01*
X321616Y907816D01*
X319970Y910666D01*
X319970Y910666D01*
X319911Y910786D01*
X319868Y910912D01*
X319016Y914091D01*
X318990Y914221D01*
X318982Y914354D01*
Y916000D01*
Y956000D01*
X318990Y956133D01*
X319016Y956264D01*
X319059Y956390D01*
X319118Y956509D01*
X319192Y956620D01*
X319280Y956720D01*
X319380Y956808D01*
X319491Y956882D01*
X319610Y956941D01*
X319736Y956983D01*
X319867Y957010D01*
X320000Y957018D01*
X345000D01*
X345133Y957010D01*
D02*
G37*
G36*
X305133D02*
X305263Y956983D01*
X305389Y956941D01*
X305509Y956882D01*
X305620Y956808D01*
X305720Y956720D01*
X305808Y956620D01*
X305882Y956509D01*
X305941Y956390D01*
X305983Y956264D01*
X306009Y956133D01*
X306018Y956000D01*
Y916000D01*
Y914354D01*
D01*
Y914354D01*
X306009Y914221D01*
X305983Y914091D01*
X305131Y910912D01*
X305089Y910786D01*
X305030Y910666D01*
X303384Y907816D01*
X303384Y907816D01*
X303310Y907705D01*
X303222Y907605D01*
X300895Y905278D01*
X300895Y905277D01*
X300795Y905190D01*
X300684Y905116D01*
X297834Y903470D01*
X297834Y903470D01*
X297714Y903411D01*
X297588Y903368D01*
X294409Y902516D01*
X294278Y902490D01*
X294146Y902482D01*
X290854D01*
X290721Y902490D01*
X290591Y902516D01*
X287411Y903368D01*
X287285Y903411D01*
X287166Y903470D01*
X284316Y905116D01*
X284316Y905116D01*
X284205Y905190D01*
X284105Y905277D01*
X281778Y907605D01*
X281777Y907605D01*
X281690Y907705D01*
X281616Y907816D01*
X279970Y910666D01*
X279970Y910666D01*
X279911Y910786D01*
X279868Y910912D01*
X279016Y914091D01*
X278990Y914221D01*
X278982Y914354D01*
Y916000D01*
Y956000D01*
X278990Y956133D01*
X279016Y956264D01*
X279059Y956390D01*
X279118Y956509D01*
X279192Y956620D01*
X279280Y956720D01*
X279380Y956808D01*
X279491Y956882D01*
X279610Y956941D01*
X279736Y956983D01*
X279867Y957010D01*
X280000Y957018D01*
X305000D01*
X305133Y957010D01*
D02*
G37*
G36*
X220133D02*
X220263Y956983D01*
X220389Y956941D01*
X220509Y956882D01*
X220620Y956808D01*
X220720Y956720D01*
X220808Y956620D01*
X220882Y956509D01*
X220941Y956390D01*
X220983Y956264D01*
X221009Y956133D01*
X221018Y956000D01*
Y916000D01*
Y914354D01*
D01*
Y914354D01*
X221009Y914221D01*
X220983Y914091D01*
X220131Y910912D01*
X220089Y910786D01*
X220030Y910666D01*
X218384Y907816D01*
X218384Y907816D01*
X218310Y907705D01*
X218222Y907605D01*
X215895Y905278D01*
X215895Y905277D01*
X215795Y905190D01*
X215684Y905116D01*
X212834Y903470D01*
X212834Y903470D01*
X212714Y903411D01*
X212588Y903368D01*
X209409Y902516D01*
X209278Y902490D01*
X209146Y902482D01*
X205854D01*
X205721Y902490D01*
X205591Y902516D01*
X202411Y903368D01*
X202285Y903411D01*
X202166Y903470D01*
X199316Y905116D01*
X199316Y905116D01*
X199205Y905190D01*
X199105Y905277D01*
X196778Y907605D01*
X196777Y907605D01*
X196690Y907705D01*
X196616Y907816D01*
X194970Y910666D01*
X194970Y910666D01*
X194911Y910786D01*
X194868Y910912D01*
X194016Y914091D01*
X193990Y914221D01*
X193982Y914354D01*
Y916000D01*
Y956000D01*
X193990Y956133D01*
X194016Y956264D01*
X194059Y956390D01*
X194118Y956509D01*
X194192Y956620D01*
X194280Y956720D01*
X194380Y956808D01*
X194491Y956882D01*
X194610Y956941D01*
X194736Y956983D01*
X194867Y957010D01*
X195000Y957018D01*
X220000D01*
X220133Y957010D01*
D02*
G37*
G36*
X180133D02*
X180263Y956983D01*
X180389Y956941D01*
X180509Y956882D01*
X180620Y956808D01*
X180720Y956720D01*
X180808Y956620D01*
X180882Y956509D01*
X180941Y956390D01*
X180983Y956264D01*
X181009Y956133D01*
X181018Y956000D01*
Y916000D01*
Y914354D01*
D01*
Y914354D01*
X181009Y914221D01*
X180983Y914091D01*
X180131Y910912D01*
X180089Y910786D01*
X180030Y910666D01*
X178384Y907816D01*
X178384Y907816D01*
X178310Y907705D01*
X178222Y907605D01*
X175895Y905278D01*
X175895Y905277D01*
X175795Y905190D01*
X175684Y905116D01*
X172834Y903470D01*
X172834Y903470D01*
X172714Y903411D01*
X172588Y903368D01*
X169409Y902516D01*
X169278Y902490D01*
X169146Y902482D01*
X165854D01*
X165721Y902490D01*
X165591Y902516D01*
X162411Y903368D01*
X162285Y903411D01*
X162166Y903470D01*
X159316Y905116D01*
X159316Y905116D01*
X159205Y905190D01*
X159105Y905277D01*
X156778Y907605D01*
X156777Y907605D01*
X156690Y907705D01*
X156616Y907816D01*
X154970Y910666D01*
X154970Y910666D01*
X154911Y910786D01*
X154868Y910912D01*
X154016Y914091D01*
X153990Y914221D01*
X153982Y914354D01*
Y916000D01*
Y956000D01*
X153990Y956133D01*
X154016Y956264D01*
X154059Y956390D01*
X154118Y956509D01*
X154192Y956620D01*
X154280Y956720D01*
X154380Y956808D01*
X154491Y956882D01*
X154610Y956941D01*
X154736Y956983D01*
X154867Y957010D01*
X155000Y957018D01*
X180000D01*
X180133Y957010D01*
D02*
G37*
G36*
X95133D02*
X95263Y956983D01*
X95389Y956941D01*
X95509Y956882D01*
X95620Y956808D01*
X95720Y956720D01*
X95808Y956620D01*
X95882Y956509D01*
X95941Y956390D01*
X95983Y956264D01*
X96009Y956133D01*
X96018Y956000D01*
Y916000D01*
Y914354D01*
D01*
Y914354D01*
X96009Y914221D01*
X95983Y914091D01*
X95132Y910912D01*
X95089Y910786D01*
X95030Y910666D01*
X93384Y907816D01*
X93384Y907816D01*
X93310Y907705D01*
X93222Y907605D01*
X90895Y905278D01*
X90895Y905277D01*
X90795Y905190D01*
X90684Y905116D01*
X87834Y903470D01*
X87834Y903470D01*
X87714Y903411D01*
X87588Y903368D01*
X84409Y902516D01*
X84278Y902490D01*
X84145Y902482D01*
X80854D01*
X80721Y902490D01*
X80591Y902516D01*
X77411Y903368D01*
X77285Y903411D01*
X77166Y903470D01*
X74316Y905116D01*
X74316Y905116D01*
X74205Y905190D01*
X74105Y905277D01*
X71778Y907605D01*
X71777Y907605D01*
X71690Y907705D01*
X71616Y907816D01*
X69970Y910666D01*
X69970Y910666D01*
X69911Y910786D01*
X69868Y910912D01*
X69016Y914091D01*
X68990Y914221D01*
X68982Y914354D01*
Y916000D01*
Y956000D01*
X68990Y956133D01*
X69016Y956264D01*
X69059Y956390D01*
X69118Y956509D01*
X69192Y956620D01*
X69280Y956720D01*
X69380Y956808D01*
X69491Y956882D01*
X69610Y956941D01*
X69736Y956983D01*
X69867Y957010D01*
X70000Y957018D01*
X95000D01*
X95133Y957010D01*
D02*
G37*
G36*
X55133D02*
X55263Y956983D01*
X55389Y956941D01*
X55509Y956882D01*
X55620Y956808D01*
X55720Y956720D01*
X55808Y956620D01*
X55882Y956509D01*
X55941Y956390D01*
X55983Y956264D01*
X56009Y956133D01*
X56018Y956000D01*
Y916000D01*
Y914354D01*
D01*
Y914354D01*
X56009Y914221D01*
X55983Y914091D01*
X55132Y910912D01*
X55089Y910786D01*
X55030Y910666D01*
X53384Y907816D01*
X53384Y907816D01*
X53310Y907705D01*
X53222Y907605D01*
X50895Y905278D01*
X50895Y905277D01*
X50795Y905190D01*
X50684Y905116D01*
X47834Y903470D01*
X47834Y903470D01*
X47714Y903411D01*
X47588Y903368D01*
X44409Y902516D01*
X44278Y902490D01*
X44145Y902482D01*
X40854D01*
X40721Y902490D01*
X40591Y902516D01*
X37411Y903368D01*
X37285Y903411D01*
X37166Y903470D01*
X34316Y905116D01*
X34316Y905116D01*
X34205Y905190D01*
X34105Y905277D01*
X31778Y907605D01*
X31777Y907605D01*
X31690Y907705D01*
X31616Y907816D01*
X29970Y910666D01*
X29970Y910666D01*
X29911Y910786D01*
X29868Y910912D01*
X29016Y914091D01*
X28990Y914221D01*
X28982Y914354D01*
Y916000D01*
Y956000D01*
X28990Y956133D01*
X29016Y956264D01*
X29059Y956390D01*
X29118Y956509D01*
X29192Y956620D01*
X29280Y956720D01*
X29380Y956808D01*
X29491Y956882D01*
X29610Y956941D01*
X29736Y956983D01*
X29867Y957010D01*
X30000Y957018D01*
X55000D01*
X55133Y957010D01*
D02*
G37*
G36*
X959278Y57509D02*
X959409Y57484D01*
X962588Y56632D01*
X962714Y56589D01*
X962834Y56530D01*
X965684Y54884D01*
X965795Y54810D01*
X965895Y54722D01*
X965895Y54722D01*
X968222Y52395D01*
X968310Y52295D01*
X968384Y52184D01*
X968384Y52184D01*
X970030Y49334D01*
X970089Y49214D01*
X970132Y49088D01*
X970983Y45909D01*
X971009Y45778D01*
X971018Y45646D01*
Y45646D01*
D01*
Y44000D01*
Y4000D01*
X971009Y3867D01*
X970983Y3737D01*
X970941Y3610D01*
X970882Y3491D01*
X970808Y3380D01*
X970720Y3280D01*
X970620Y3192D01*
X970509Y3118D01*
X970390Y3059D01*
X970263Y3016D01*
X970133Y2991D01*
X970000Y2982D01*
X945000D01*
X944867Y2991D01*
X944736Y3016D01*
X944610Y3059D01*
X944491Y3118D01*
X944380Y3192D01*
X944280Y3280D01*
X944192Y3380D01*
X944118Y3491D01*
X944059Y3610D01*
X944016Y3737D01*
X943990Y3867D01*
X943982Y4000D01*
Y44000D01*
Y45646D01*
X943990Y45778D01*
X944016Y45909D01*
X944868Y49088D01*
X944911Y49214D01*
X944970Y49334D01*
X944970Y49334D01*
X946616Y52184D01*
X946690Y52295D01*
X946777Y52395D01*
X946778Y52395D01*
X949105Y54722D01*
X949205Y54810D01*
X949316Y54884D01*
X949316Y54884D01*
X952166Y56530D01*
X952285Y56589D01*
X952412Y56632D01*
X955591Y57484D01*
X955721Y57509D01*
X955854Y57518D01*
D01*
X955854D01*
X959146D01*
X959278Y57509D01*
D02*
G37*
G36*
X919278D02*
X919409Y57484D01*
X922588Y56632D01*
X922714Y56589D01*
X922834Y56530D01*
X925684Y54884D01*
X925795Y54810D01*
X925895Y54722D01*
X925895Y54722D01*
X928222Y52395D01*
X928310Y52295D01*
X928384Y52184D01*
X928384Y52184D01*
X930030Y49334D01*
X930089Y49214D01*
X930132Y49088D01*
X930983Y45909D01*
X931009Y45778D01*
X931018Y45646D01*
Y45646D01*
D01*
Y44000D01*
Y4000D01*
X931009Y3867D01*
X930983Y3737D01*
X930941Y3610D01*
X930882Y3491D01*
X930808Y3380D01*
X930720Y3280D01*
X930620Y3192D01*
X930509Y3118D01*
X930390Y3059D01*
X930263Y3016D01*
X930133Y2991D01*
X930000Y2982D01*
X905000D01*
X904867Y2991D01*
X904736Y3016D01*
X904610Y3059D01*
X904491Y3118D01*
X904380Y3192D01*
X904280Y3280D01*
X904192Y3380D01*
X904118Y3491D01*
X904059Y3610D01*
X904016Y3737D01*
X903990Y3867D01*
X903982Y4000D01*
Y44000D01*
Y45646D01*
X903990Y45778D01*
X904016Y45909D01*
X904868Y49088D01*
X904911Y49214D01*
X904970Y49334D01*
X904970Y49334D01*
X906616Y52184D01*
X906690Y52295D01*
X906777Y52395D01*
X906778Y52395D01*
X909105Y54722D01*
X909205Y54810D01*
X909316Y54884D01*
X909316Y54884D01*
X912166Y56530D01*
X912285Y56589D01*
X912412Y56632D01*
X915591Y57484D01*
X915721Y57509D01*
X915854Y57518D01*
X915854D01*
D01*
X919146D01*
X919278Y57509D01*
D02*
G37*
G36*
X834278D02*
X834409Y57484D01*
X837588Y56632D01*
X837714Y56589D01*
X837834Y56530D01*
X840684Y54884D01*
X840795Y54810D01*
X840895Y54722D01*
X840895Y54722D01*
X843222Y52395D01*
X843310Y52295D01*
X843384Y52184D01*
X843384Y52184D01*
X845030Y49334D01*
X845089Y49214D01*
X845132Y49088D01*
X845983Y45909D01*
X846009Y45778D01*
X846018Y45646D01*
Y45646D01*
D01*
Y44000D01*
Y4000D01*
X846009Y3867D01*
X845983Y3737D01*
X845941Y3610D01*
X845882Y3491D01*
X845808Y3380D01*
X845720Y3280D01*
X845620Y3192D01*
X845509Y3118D01*
X845389Y3059D01*
X845263Y3016D01*
X845133Y2991D01*
X845000Y2982D01*
X820000D01*
X819867Y2991D01*
X819736Y3016D01*
X819610Y3059D01*
X819491Y3118D01*
X819380Y3192D01*
X819280Y3280D01*
X819192Y3380D01*
X819118Y3491D01*
X819059Y3610D01*
X819016Y3737D01*
X818990Y3867D01*
X818982Y4000D01*
Y44000D01*
Y45646D01*
X818990Y45778D01*
X819016Y45909D01*
X819868Y49088D01*
X819911Y49214D01*
X819970Y49334D01*
X819970Y49334D01*
X821616Y52184D01*
X821690Y52295D01*
X821777Y52395D01*
X821778Y52395D01*
X824105Y54722D01*
X824205Y54810D01*
X824316Y54884D01*
X824316Y54884D01*
X827166Y56530D01*
X827285Y56589D01*
X827412Y56632D01*
X830591Y57484D01*
X830721Y57509D01*
X830854Y57518D01*
D01*
X830854D01*
X834146D01*
X834278Y57509D01*
D02*
G37*
G36*
X794278D02*
X794409Y57484D01*
X797588Y56632D01*
X797714Y56589D01*
X797834Y56530D01*
X800684Y54884D01*
X800795Y54810D01*
X800895Y54722D01*
X800895Y54722D01*
X803222Y52395D01*
X803310Y52295D01*
X803384Y52184D01*
X803384Y52184D01*
X805030Y49334D01*
X805089Y49214D01*
X805132Y49088D01*
X805983Y45909D01*
X806009Y45778D01*
X806018Y45646D01*
Y45646D01*
D01*
Y44000D01*
Y4000D01*
X806009Y3867D01*
X805983Y3737D01*
X805941Y3610D01*
X805882Y3491D01*
X805808Y3380D01*
X805720Y3280D01*
X805620Y3192D01*
X805509Y3118D01*
X805389Y3059D01*
X805263Y3016D01*
X805133Y2991D01*
X805000Y2982D01*
X780000D01*
X779867Y2991D01*
X779736Y3016D01*
X779610Y3059D01*
X779491Y3118D01*
X779380Y3192D01*
X779280Y3280D01*
X779192Y3380D01*
X779118Y3491D01*
X779059Y3610D01*
X779016Y3737D01*
X778990Y3867D01*
X778982Y4000D01*
Y44000D01*
Y45646D01*
X778990Y45778D01*
X779016Y45909D01*
X779868Y49088D01*
X779911Y49214D01*
X779970Y49334D01*
X779970Y49334D01*
X781616Y52184D01*
X781690Y52295D01*
X781777Y52395D01*
X781778Y52395D01*
X784105Y54722D01*
X784205Y54810D01*
X784316Y54884D01*
X784316Y54884D01*
X787166Y56530D01*
X787285Y56589D01*
X787412Y56632D01*
X790591Y57484D01*
X790721Y57509D01*
X790854Y57518D01*
X790854D01*
D01*
X794146D01*
X794278Y57509D01*
D02*
G37*
G36*
X709278D02*
X709409Y57484D01*
X712588Y56632D01*
X712714Y56589D01*
X712834Y56530D01*
X715684Y54884D01*
X715795Y54810D01*
X715895Y54722D01*
X715895Y54722D01*
X718222Y52395D01*
X718310Y52295D01*
X718384Y52184D01*
X718384Y52184D01*
X720030Y49334D01*
X720089Y49214D01*
X720132Y49088D01*
X720983Y45909D01*
X721009Y45778D01*
X721018Y45646D01*
Y45646D01*
D01*
Y44000D01*
Y4000D01*
X721009Y3867D01*
X720983Y3737D01*
X720941Y3610D01*
X720882Y3491D01*
X720808Y3380D01*
X720720Y3280D01*
X720620Y3192D01*
X720509Y3118D01*
X720389Y3059D01*
X720263Y3016D01*
X720133Y2991D01*
X720000Y2982D01*
X695000D01*
X694867Y2991D01*
X694736Y3016D01*
X694610Y3059D01*
X694491Y3118D01*
X694380Y3192D01*
X694280Y3280D01*
X694192Y3380D01*
X694118Y3491D01*
X694059Y3610D01*
X694016Y3737D01*
X693990Y3867D01*
X693982Y4000D01*
Y44000D01*
Y45646D01*
X693990Y45778D01*
X694016Y45909D01*
X694868Y49088D01*
X694911Y49214D01*
X694970Y49334D01*
X694970Y49334D01*
X696616Y52184D01*
X696690Y52295D01*
X696777Y52395D01*
X696778Y52395D01*
X699105Y54722D01*
X699205Y54810D01*
X699316Y54884D01*
X699316Y54884D01*
X702166Y56530D01*
X702285Y56589D01*
X702411Y56632D01*
X705591Y57484D01*
X705721Y57509D01*
X705854Y57518D01*
D01*
X705854D01*
X709146D01*
X709278Y57509D01*
D02*
G37*
G36*
X669278D02*
X669409Y57484D01*
X672588Y56632D01*
X672714Y56589D01*
X672834Y56530D01*
X675684Y54884D01*
X675795Y54810D01*
X675895Y54722D01*
X675895Y54722D01*
X678222Y52395D01*
X678310Y52295D01*
X678384Y52184D01*
X678384Y52184D01*
X680030Y49334D01*
X680089Y49214D01*
X680132Y49088D01*
X680983Y45909D01*
X681009Y45778D01*
X681018Y45646D01*
Y45646D01*
D01*
Y44000D01*
Y4000D01*
X681009Y3867D01*
X680983Y3737D01*
X680941Y3610D01*
X680882Y3491D01*
X680808Y3380D01*
X680720Y3280D01*
X680620Y3192D01*
X680509Y3118D01*
X680389Y3059D01*
X680263Y3016D01*
X680133Y2991D01*
X680000Y2982D01*
X655000D01*
X654867Y2991D01*
X654736Y3016D01*
X654610Y3059D01*
X654491Y3118D01*
X654380Y3192D01*
X654280Y3280D01*
X654192Y3380D01*
X654118Y3491D01*
X654059Y3610D01*
X654016Y3737D01*
X653990Y3867D01*
X653982Y4000D01*
Y44000D01*
Y45646D01*
X653990Y45778D01*
X654016Y45909D01*
X654868Y49088D01*
X654911Y49214D01*
X654970Y49334D01*
X654970Y49334D01*
X656616Y52184D01*
X656690Y52295D01*
X656777Y52395D01*
X656778Y52395D01*
X659105Y54722D01*
X659205Y54810D01*
X659316Y54884D01*
X659316Y54884D01*
X662166Y56530D01*
X662285Y56589D01*
X662412Y56632D01*
X665591Y57484D01*
X665721Y57509D01*
X665854Y57518D01*
X665854D01*
D01*
X669146D01*
X669278Y57509D01*
D02*
G37*
G36*
X584278D02*
X584409Y57484D01*
X587588Y56632D01*
X587714Y56589D01*
X587834Y56530D01*
X590684Y54884D01*
X590795Y54810D01*
X590895Y54722D01*
X590895Y54722D01*
X593222Y52395D01*
X593310Y52295D01*
X593384Y52184D01*
X593384Y52184D01*
X595030Y49334D01*
X595089Y49214D01*
X595131Y49088D01*
X595983Y45909D01*
X596009Y45778D01*
X596018Y45646D01*
Y45646D01*
D01*
Y44000D01*
Y4000D01*
X596009Y3867D01*
X595983Y3737D01*
X595941Y3610D01*
X595882Y3491D01*
X595808Y3380D01*
X595720Y3280D01*
X595620Y3192D01*
X595509Y3118D01*
X595390Y3059D01*
X595263Y3016D01*
X595133Y2991D01*
X595000Y2982D01*
X570000D01*
X569867Y2991D01*
X569736Y3016D01*
X569610Y3059D01*
X569491Y3118D01*
X569380Y3192D01*
X569280Y3280D01*
X569192Y3380D01*
X569118Y3491D01*
X569059Y3610D01*
X569016Y3737D01*
X568990Y3867D01*
X568982Y4000D01*
Y44000D01*
Y45646D01*
X568990Y45778D01*
X569016Y45909D01*
X569868Y49088D01*
X569911Y49214D01*
X569970Y49334D01*
X569970Y49334D01*
X571616Y52184D01*
X571690Y52295D01*
X571777Y52395D01*
X571778Y52395D01*
X574105Y54722D01*
X574205Y54810D01*
X574316Y54884D01*
X574316Y54884D01*
X577166Y56530D01*
X577285Y56589D01*
X577411Y56632D01*
X580591Y57484D01*
X580721Y57509D01*
X580854Y57518D01*
D01*
X580854D01*
X584146D01*
X584278Y57509D01*
D02*
G37*
G36*
X544278D02*
X544409Y57484D01*
X547588Y56632D01*
X547714Y56589D01*
X547834Y56530D01*
X550684Y54884D01*
X550795Y54810D01*
X550895Y54722D01*
X550895Y54722D01*
X553222Y52395D01*
X553310Y52295D01*
X553384Y52184D01*
X553384Y52184D01*
X555030Y49334D01*
X555089Y49214D01*
X555131Y49088D01*
X555983Y45909D01*
X556009Y45778D01*
X556018Y45646D01*
Y45646D01*
D01*
Y44000D01*
Y4000D01*
X556009Y3867D01*
X555983Y3737D01*
X555941Y3610D01*
X555882Y3491D01*
X555808Y3380D01*
X555720Y3280D01*
X555620Y3192D01*
X555509Y3118D01*
X555390Y3059D01*
X555263Y3016D01*
X555133Y2991D01*
X555000Y2982D01*
X530000D01*
X529867Y2991D01*
X529736Y3016D01*
X529610Y3059D01*
X529491Y3118D01*
X529380Y3192D01*
X529280Y3280D01*
X529192Y3380D01*
X529118Y3491D01*
X529059Y3610D01*
X529016Y3737D01*
X528990Y3867D01*
X528982Y4000D01*
Y44000D01*
Y45646D01*
X528990Y45778D01*
X529016Y45909D01*
X529868Y49088D01*
X529911Y49214D01*
X529970Y49334D01*
X529970Y49334D01*
X531616Y52184D01*
X531690Y52295D01*
X531777Y52395D01*
X531778Y52395D01*
X534105Y54722D01*
X534205Y54810D01*
X534316Y54884D01*
X534316Y54884D01*
X537166Y56530D01*
X537285Y56589D01*
X537411Y56632D01*
X540591Y57484D01*
X540721Y57509D01*
X540854Y57518D01*
X540854D01*
D01*
X544146D01*
X544278Y57509D01*
D02*
G37*
G36*
X459278D02*
X459409Y57484D01*
X462588Y56632D01*
X462714Y56589D01*
X462834Y56530D01*
X465684Y54884D01*
X465795Y54810D01*
X465895Y54722D01*
X465895Y54722D01*
X468222Y52395D01*
X468310Y52295D01*
X468384Y52184D01*
X468384Y52184D01*
X470030Y49334D01*
X470089Y49214D01*
X470131Y49088D01*
X470983Y45909D01*
X471009Y45778D01*
X471018Y45646D01*
Y45646D01*
D01*
Y44000D01*
Y4000D01*
X471009Y3867D01*
X470983Y3737D01*
X470941Y3610D01*
X470882Y3491D01*
X470808Y3380D01*
X470720Y3280D01*
X470620Y3192D01*
X470509Y3118D01*
X470390Y3059D01*
X470263Y3016D01*
X470133Y2991D01*
X470000Y2982D01*
X445000D01*
X444867Y2991D01*
X444736Y3016D01*
X444610Y3059D01*
X444491Y3118D01*
X444380Y3192D01*
X444280Y3280D01*
X444192Y3380D01*
X444118Y3491D01*
X444059Y3610D01*
X444016Y3737D01*
X443990Y3867D01*
X443982Y4000D01*
Y44000D01*
Y45646D01*
X443990Y45778D01*
X444016Y45909D01*
X444868Y49088D01*
X444911Y49214D01*
X444970Y49334D01*
X444970Y49334D01*
X446616Y52184D01*
X446690Y52295D01*
X446777Y52395D01*
X446778Y52395D01*
X449105Y54722D01*
X449205Y54810D01*
X449316Y54884D01*
X449316Y54884D01*
X452166Y56530D01*
X452285Y56589D01*
X452411Y56632D01*
X455591Y57484D01*
X455721Y57509D01*
X455854Y57518D01*
D01*
X455854D01*
X459146D01*
X459278Y57509D01*
D02*
G37*
G36*
X419278D02*
X419409Y57484D01*
X422588Y56632D01*
X422714Y56589D01*
X422834Y56530D01*
X425684Y54884D01*
X425795Y54810D01*
X425895Y54722D01*
X425895Y54722D01*
X428222Y52395D01*
X428310Y52295D01*
X428384Y52184D01*
X428384Y52184D01*
X430030Y49334D01*
X430089Y49214D01*
X430131Y49088D01*
X430983Y45909D01*
X431009Y45778D01*
X431018Y45646D01*
Y45646D01*
D01*
Y44000D01*
Y4000D01*
X431009Y3867D01*
X430983Y3737D01*
X430941Y3610D01*
X430882Y3491D01*
X430808Y3380D01*
X430720Y3280D01*
X430620Y3192D01*
X430509Y3118D01*
X430390Y3059D01*
X430263Y3016D01*
X430133Y2991D01*
X430000Y2982D01*
X405000D01*
X404867Y2991D01*
X404736Y3016D01*
X404610Y3059D01*
X404491Y3118D01*
X404380Y3192D01*
X404280Y3280D01*
X404192Y3380D01*
X404118Y3491D01*
X404059Y3610D01*
X404016Y3737D01*
X403990Y3867D01*
X403982Y4000D01*
Y44000D01*
Y45646D01*
X403990Y45778D01*
X404016Y45909D01*
X404868Y49088D01*
X404911Y49214D01*
X404970Y49334D01*
X404970Y49334D01*
X406616Y52184D01*
X406690Y52295D01*
X406777Y52395D01*
X406778Y52395D01*
X409105Y54722D01*
X409205Y54810D01*
X409316Y54884D01*
X409316Y54884D01*
X412166Y56530D01*
X412285Y56589D01*
X412411Y56632D01*
X415591Y57484D01*
X415721Y57509D01*
X415854Y57518D01*
X415854D01*
D01*
X419146D01*
X419278Y57509D01*
D02*
G37*
G36*
X334278D02*
X334409Y57484D01*
X337588Y56632D01*
X337714Y56589D01*
X337834Y56530D01*
X340684Y54884D01*
X340795Y54810D01*
X340895Y54722D01*
X340895Y54722D01*
X343222Y52395D01*
X343310Y52295D01*
X343384Y52184D01*
X343384Y52184D01*
X345030Y49334D01*
X345089Y49214D01*
X345131Y49088D01*
X345983Y45909D01*
X346009Y45778D01*
X346018Y45646D01*
Y45646D01*
D01*
Y44000D01*
Y4000D01*
X346009Y3867D01*
X345983Y3737D01*
X345941Y3610D01*
X345882Y3491D01*
X345808Y3380D01*
X345720Y3280D01*
X345620Y3192D01*
X345509Y3118D01*
X345390Y3059D01*
X345263Y3016D01*
X345133Y2991D01*
X345000Y2982D01*
X320000D01*
X319867Y2991D01*
X319736Y3016D01*
X319610Y3059D01*
X319491Y3118D01*
X319380Y3192D01*
X319280Y3280D01*
X319192Y3380D01*
X319118Y3491D01*
X319059Y3610D01*
X319016Y3737D01*
X318990Y3867D01*
X318982Y4000D01*
Y44000D01*
Y45646D01*
X318990Y45778D01*
X319016Y45909D01*
X319868Y49088D01*
X319911Y49214D01*
X319970Y49334D01*
X319970Y49334D01*
X321616Y52184D01*
X321690Y52295D01*
X321777Y52395D01*
X321778Y52395D01*
X324105Y54722D01*
X324205Y54810D01*
X324316Y54884D01*
X324316Y54884D01*
X327166Y56530D01*
X327285Y56589D01*
X327411Y56632D01*
X330591Y57484D01*
X330721Y57509D01*
X330854Y57518D01*
D01*
X330854D01*
X334146D01*
X334278Y57509D01*
D02*
G37*
G36*
X294279D02*
X294409Y57484D01*
X297588Y56632D01*
X297714Y56589D01*
X297834Y56530D01*
X300684Y54884D01*
X300795Y54810D01*
X300895Y54722D01*
X300895Y54722D01*
X303222Y52395D01*
X303310Y52295D01*
X303384Y52184D01*
X303384Y52184D01*
X305030Y49334D01*
X305089Y49214D01*
X305131Y49088D01*
X305983Y45909D01*
X306009Y45778D01*
X306018Y45646D01*
Y45646D01*
D01*
Y44000D01*
Y4000D01*
X306009Y3867D01*
X305983Y3737D01*
X305941Y3610D01*
X305882Y3491D01*
X305808Y3380D01*
X305720Y3280D01*
X305620Y3192D01*
X305509Y3118D01*
X305389Y3059D01*
X305263Y3016D01*
X305133Y2991D01*
X305000Y2982D01*
X280000D01*
X279867Y2991D01*
X279736Y3016D01*
X279610Y3059D01*
X279491Y3118D01*
X279380Y3192D01*
X279280Y3280D01*
X279192Y3380D01*
X279118Y3491D01*
X279059Y3610D01*
X279016Y3737D01*
X278990Y3867D01*
X278982Y4000D01*
Y44000D01*
Y45646D01*
X278990Y45778D01*
X279016Y45909D01*
X279868Y49088D01*
X279911Y49214D01*
X279970Y49334D01*
X279970Y49334D01*
X281616Y52184D01*
X281690Y52295D01*
X281777Y52395D01*
X281778Y52395D01*
X284105Y54722D01*
X284205Y54810D01*
X284316Y54884D01*
X284316Y54884D01*
X287166Y56530D01*
X287285Y56589D01*
X287411Y56632D01*
X290591Y57484D01*
X290721Y57509D01*
X290854Y57518D01*
X290854D01*
D01*
X294146D01*
X294279Y57509D01*
D02*
G37*
G36*
X209278D02*
X209409Y57484D01*
X212588Y56632D01*
X212714Y56589D01*
X212834Y56530D01*
X215684Y54884D01*
X215795Y54810D01*
X215895Y54722D01*
X215895Y54722D01*
X218222Y52395D01*
X218310Y52295D01*
X218384Y52184D01*
X218384Y52184D01*
X220030Y49334D01*
X220089Y49214D01*
X220131Y49088D01*
X220983Y45909D01*
X221009Y45778D01*
X221018Y45646D01*
Y45646D01*
D01*
Y44000D01*
Y4000D01*
X221009Y3867D01*
X220983Y3737D01*
X220941Y3610D01*
X220882Y3491D01*
X220808Y3380D01*
X220720Y3280D01*
X220620Y3192D01*
X220509Y3118D01*
X220389Y3059D01*
X220263Y3016D01*
X220133Y2991D01*
X220000Y2982D01*
X195000D01*
X194867Y2991D01*
X194736Y3016D01*
X194610Y3059D01*
X194491Y3118D01*
X194380Y3192D01*
X194280Y3280D01*
X194192Y3380D01*
X194118Y3491D01*
X194059Y3610D01*
X194016Y3737D01*
X193990Y3867D01*
X193982Y4000D01*
Y44000D01*
Y45646D01*
X193990Y45778D01*
X194016Y45909D01*
X194868Y49088D01*
X194911Y49214D01*
X194970Y49334D01*
X194970Y49334D01*
X196616Y52184D01*
X196690Y52295D01*
X196777Y52395D01*
X196778Y52395D01*
X199105Y54722D01*
X199205Y54810D01*
X199316Y54884D01*
X199316Y54884D01*
X202166Y56530D01*
X202285Y56589D01*
X202411Y56632D01*
X205591Y57484D01*
X205721Y57509D01*
X205854Y57518D01*
D01*
X205854D01*
X209146D01*
X209278Y57509D01*
D02*
G37*
G36*
X169279D02*
X169409Y57484D01*
X172588Y56632D01*
X172714Y56589D01*
X172834Y56530D01*
X175684Y54884D01*
X175795Y54810D01*
X175895Y54722D01*
X175895Y54722D01*
X178222Y52395D01*
X178310Y52295D01*
X178384Y52184D01*
X178384Y52184D01*
X180030Y49334D01*
X180089Y49214D01*
X180131Y49088D01*
X180983Y45909D01*
X181009Y45778D01*
X181018Y45646D01*
Y45646D01*
D01*
Y44000D01*
Y4000D01*
X181009Y3867D01*
X180983Y3737D01*
X180941Y3610D01*
X180882Y3491D01*
X180808Y3380D01*
X180720Y3280D01*
X180620Y3192D01*
X180509Y3118D01*
X180389Y3059D01*
X180263Y3016D01*
X180133Y2991D01*
X180000Y2982D01*
X155000D01*
X154867Y2991D01*
X154736Y3016D01*
X154610Y3059D01*
X154491Y3118D01*
X154380Y3192D01*
X154280Y3280D01*
X154192Y3380D01*
X154118Y3491D01*
X154059Y3610D01*
X154016Y3737D01*
X153990Y3867D01*
X153982Y4000D01*
Y44000D01*
Y45646D01*
X153990Y45778D01*
X154016Y45909D01*
X154868Y49088D01*
X154911Y49214D01*
X154970Y49334D01*
X154970Y49334D01*
X156616Y52184D01*
X156690Y52295D01*
X156777Y52395D01*
X156778Y52395D01*
X159105Y54722D01*
X159205Y54810D01*
X159316Y54884D01*
X159316Y54884D01*
X162166Y56530D01*
X162285Y56589D01*
X162411Y56632D01*
X165591Y57484D01*
X165721Y57509D01*
X165854Y57518D01*
X165854D01*
D01*
X169146D01*
X169279Y57509D01*
D02*
G37*
G36*
X84278D02*
X84409Y57484D01*
X87588Y56632D01*
X87714Y56589D01*
X87834Y56530D01*
X90684Y54884D01*
X90795Y54810D01*
X90895Y54722D01*
X90895Y54722D01*
X93222Y52395D01*
X93310Y52295D01*
X93384Y52184D01*
X93384Y52184D01*
X95030Y49334D01*
X95089Y49214D01*
X95132Y49088D01*
X95983Y45909D01*
X96009Y45778D01*
X96018Y45646D01*
Y45646D01*
D01*
Y44000D01*
Y4000D01*
X96009Y3867D01*
X95983Y3737D01*
X95941Y3610D01*
X95882Y3491D01*
X95808Y3380D01*
X95720Y3280D01*
X95620Y3192D01*
X95509Y3118D01*
X95389Y3059D01*
X95263Y3016D01*
X95133Y2991D01*
X95000Y2982D01*
X70000D01*
X69867Y2991D01*
X69736Y3016D01*
X69610Y3059D01*
X69491Y3118D01*
X69380Y3192D01*
X69280Y3280D01*
X69192Y3380D01*
X69118Y3491D01*
X69059Y3610D01*
X69016Y3737D01*
X68990Y3867D01*
X68982Y4000D01*
Y44000D01*
Y45646D01*
X68990Y45778D01*
X69016Y45909D01*
X69868Y49088D01*
X69911Y49214D01*
X69970Y49334D01*
X69970Y49334D01*
X71616Y52184D01*
X71690Y52295D01*
X71777Y52395D01*
X71778Y52395D01*
X74105Y54722D01*
X74205Y54810D01*
X74316Y54884D01*
X74316Y54884D01*
X77166Y56530D01*
X77285Y56589D01*
X77411Y56632D01*
X80591Y57484D01*
X80721Y57509D01*
X80854Y57518D01*
D01*
X80854D01*
X84145D01*
X84278Y57509D01*
D02*
G37*
G36*
X44278D02*
X44409Y57484D01*
X47588Y56632D01*
X47714Y56589D01*
X47834Y56530D01*
X50684Y54884D01*
X50795Y54810D01*
X50895Y54722D01*
X50895Y54722D01*
X53222Y52395D01*
X53310Y52295D01*
X53384Y52184D01*
X53384Y52184D01*
X55030Y49334D01*
X55089Y49214D01*
X55132Y49088D01*
X55983Y45909D01*
X56009Y45778D01*
X56018Y45646D01*
Y45646D01*
D01*
Y44000D01*
Y4000D01*
X56009Y3867D01*
X55983Y3737D01*
X55941Y3610D01*
X55882Y3491D01*
X55808Y3380D01*
X55720Y3280D01*
X55620Y3192D01*
X55509Y3118D01*
X55389Y3059D01*
X55263Y3016D01*
X55133Y2991D01*
X55000Y2982D01*
X30000D01*
X29867Y2991D01*
X29736Y3016D01*
X29610Y3059D01*
X29491Y3118D01*
X29380Y3192D01*
X29280Y3280D01*
X29192Y3380D01*
X29118Y3491D01*
X29059Y3610D01*
X29016Y3737D01*
X28990Y3867D01*
X28982Y4000D01*
Y44000D01*
Y45646D01*
X28990Y45778D01*
X29016Y45909D01*
X29868Y49088D01*
X29911Y49214D01*
X29970Y49334D01*
X29970Y49334D01*
X31616Y52184D01*
X31690Y52295D01*
X31777Y52395D01*
X31778Y52395D01*
X34105Y54722D01*
X34205Y54810D01*
X34316Y54884D01*
X34316Y54884D01*
X37166Y56530D01*
X37285Y56589D01*
X37411Y56632D01*
X40591Y57484D01*
X40721Y57509D01*
X40854Y57518D01*
X40854D01*
D01*
X44145D01*
X44278Y57509D01*
D02*
G37*
G36*
X997000Y18000D02*
X977000D01*
Y53000D01*
X997000D01*
Y18000D01*
D02*
G37*
G36*
X898000D02*
X878000D01*
Y53000D01*
X898000D01*
Y18000D01*
D02*
G37*
G36*
X872000D02*
X852000D01*
Y53000D01*
X872000D01*
Y18000D01*
D02*
G37*
G36*
X773000D02*
X753000D01*
Y53000D01*
X773000D01*
Y18000D01*
D02*
G37*
G36*
X747000D02*
X727000D01*
Y53000D01*
X747000D01*
Y18000D01*
D02*
G37*
G36*
X648000D02*
X628000D01*
Y53000D01*
X648000D01*
Y18000D01*
D02*
G37*
G36*
X622000D02*
X602000D01*
Y53000D01*
X622000D01*
Y18000D01*
D02*
G37*
G36*
X523000D02*
X503000D01*
Y53000D01*
X523000D01*
Y18000D01*
D02*
G37*
G36*
X497000D02*
X477000D01*
Y53000D01*
X497000D01*
Y18000D01*
D02*
G37*
G36*
X398000D02*
X378000D01*
Y53000D01*
X398000D01*
Y18000D01*
D02*
G37*
G36*
X372000D02*
X352000D01*
Y53000D01*
X372000D01*
Y18000D01*
D02*
G37*
G36*
X273000D02*
X253000D01*
Y53000D01*
X273000D01*
Y18000D01*
D02*
G37*
G36*
X247000D02*
X227000D01*
Y53000D01*
X247000D01*
Y18000D01*
D02*
G37*
G36*
X148000D02*
X128000D01*
Y53000D01*
X148000D01*
Y18000D01*
D02*
G37*
G36*
X122000D02*
X102000D01*
Y53000D01*
X122000D01*
Y18000D01*
D02*
G37*
G36*
X23000D02*
X3000D01*
Y53000D01*
X23000D01*
Y18000D01*
D02*
G37*
D21*
X42500Y44000D02*
D03*
X82500D02*
D03*
Y916000D02*
D03*
X42500D02*
D03*
X167500Y44000D02*
D03*
X207500D02*
D03*
Y916000D02*
D03*
X167500D02*
D03*
X292500Y44000D02*
D03*
X332500D02*
D03*
Y916000D02*
D03*
X292500D02*
D03*
X417500Y44000D02*
D03*
X457500D02*
D03*
Y916000D02*
D03*
X417500D02*
D03*
X542500Y44000D02*
D03*
X582500D02*
D03*
Y916000D02*
D03*
X542500D02*
D03*
X667500Y44000D02*
D03*
X707500D02*
D03*
Y916000D02*
D03*
X667500D02*
D03*
X792500Y44000D02*
D03*
X832500D02*
D03*
Y916000D02*
D03*
X792500D02*
D03*
X917500Y44000D02*
D03*
X957500D02*
D03*
Y916000D02*
D03*
X917500D02*
D03*
D22*
X12000Y520500D02*
D03*
Y503500D02*
D03*
Y456500D02*
D03*
Y439500D02*
D03*
Y328500D02*
D03*
Y311500D02*
D03*
Y392500D02*
D03*
Y375500D02*
D03*
Y584500D02*
D03*
Y567500D02*
D03*
Y648500D02*
D03*
Y631500D02*
D03*
Y712500D02*
D03*
Y695500D02*
D03*
Y776500D02*
D03*
Y759500D02*
D03*
Y840500D02*
D03*
Y823500D02*
D03*
Y264500D02*
D03*
Y247500D02*
D03*
Y200500D02*
D03*
Y183500D02*
D03*
Y136500D02*
D03*
Y119500D02*
D03*
X137000Y520500D02*
D03*
Y503500D02*
D03*
Y456500D02*
D03*
Y439500D02*
D03*
Y328500D02*
D03*
Y311500D02*
D03*
Y392500D02*
D03*
Y375500D02*
D03*
Y584500D02*
D03*
Y567500D02*
D03*
Y648500D02*
D03*
Y631500D02*
D03*
Y712500D02*
D03*
Y695500D02*
D03*
Y776500D02*
D03*
Y759500D02*
D03*
Y840500D02*
D03*
Y823500D02*
D03*
Y264500D02*
D03*
Y247500D02*
D03*
Y200500D02*
D03*
Y183500D02*
D03*
Y136500D02*
D03*
Y119500D02*
D03*
X262000Y520500D02*
D03*
Y503500D02*
D03*
Y456500D02*
D03*
Y439500D02*
D03*
Y328500D02*
D03*
Y311500D02*
D03*
Y392500D02*
D03*
Y375500D02*
D03*
Y584500D02*
D03*
Y567500D02*
D03*
Y648500D02*
D03*
Y631500D02*
D03*
Y712500D02*
D03*
Y695500D02*
D03*
Y776500D02*
D03*
Y759500D02*
D03*
Y840500D02*
D03*
Y823500D02*
D03*
Y264500D02*
D03*
Y247500D02*
D03*
Y200500D02*
D03*
Y183500D02*
D03*
Y136500D02*
D03*
Y119500D02*
D03*
X387000Y520500D02*
D03*
Y503500D02*
D03*
Y456500D02*
D03*
Y439500D02*
D03*
Y328500D02*
D03*
Y311500D02*
D03*
Y392500D02*
D03*
Y375500D02*
D03*
Y584500D02*
D03*
Y567500D02*
D03*
Y648500D02*
D03*
Y631500D02*
D03*
Y712500D02*
D03*
Y695500D02*
D03*
Y776500D02*
D03*
Y759500D02*
D03*
Y840500D02*
D03*
Y823500D02*
D03*
Y264500D02*
D03*
Y247500D02*
D03*
Y200500D02*
D03*
Y183500D02*
D03*
Y136500D02*
D03*
Y119500D02*
D03*
X512000Y520500D02*
D03*
Y503500D02*
D03*
Y456500D02*
D03*
Y439500D02*
D03*
Y328500D02*
D03*
Y311500D02*
D03*
Y392500D02*
D03*
Y375500D02*
D03*
Y584500D02*
D03*
Y567500D02*
D03*
Y648500D02*
D03*
Y631500D02*
D03*
Y712500D02*
D03*
Y695500D02*
D03*
Y776500D02*
D03*
Y759500D02*
D03*
Y840500D02*
D03*
Y823500D02*
D03*
Y264500D02*
D03*
Y247500D02*
D03*
Y200500D02*
D03*
Y183500D02*
D03*
Y136500D02*
D03*
Y119500D02*
D03*
X637000Y520500D02*
D03*
Y503500D02*
D03*
Y456500D02*
D03*
Y439500D02*
D03*
Y328500D02*
D03*
Y311500D02*
D03*
Y392500D02*
D03*
Y375500D02*
D03*
Y584500D02*
D03*
Y567500D02*
D03*
Y648500D02*
D03*
Y631500D02*
D03*
Y712500D02*
D03*
Y695500D02*
D03*
Y776500D02*
D03*
Y759500D02*
D03*
Y840500D02*
D03*
Y823500D02*
D03*
Y264500D02*
D03*
Y247500D02*
D03*
Y200500D02*
D03*
Y183500D02*
D03*
Y136500D02*
D03*
Y119500D02*
D03*
X762000Y520500D02*
D03*
Y503500D02*
D03*
Y456500D02*
D03*
Y439500D02*
D03*
Y328500D02*
D03*
Y311500D02*
D03*
Y392500D02*
D03*
Y375500D02*
D03*
Y584500D02*
D03*
Y567500D02*
D03*
Y648500D02*
D03*
Y631500D02*
D03*
Y712500D02*
D03*
Y695500D02*
D03*
Y776500D02*
D03*
Y759500D02*
D03*
Y840500D02*
D03*
Y823500D02*
D03*
Y264500D02*
D03*
Y247500D02*
D03*
Y200500D02*
D03*
Y183500D02*
D03*
Y136500D02*
D03*
Y119500D02*
D03*
X887000Y520500D02*
D03*
Y503500D02*
D03*
Y456500D02*
D03*
Y439500D02*
D03*
Y328500D02*
D03*
Y311500D02*
D03*
Y392500D02*
D03*
Y375500D02*
D03*
Y584500D02*
D03*
Y567500D02*
D03*
Y648500D02*
D03*
Y631500D02*
D03*
Y712500D02*
D03*
Y695500D02*
D03*
Y776500D02*
D03*
Y759500D02*
D03*
Y840500D02*
D03*
Y823500D02*
D03*
Y264500D02*
D03*
Y247500D02*
D03*
Y200500D02*
D03*
Y183500D02*
D03*
Y136500D02*
D03*
Y119500D02*
D03*
D23*
X38000Y144500D02*
D03*
Y111500D02*
D03*
X87000D02*
D03*
Y144500D02*
D03*
X38000Y848500D02*
D03*
Y815500D02*
D03*
X87000D02*
D03*
Y848500D02*
D03*
X38000Y528500D02*
D03*
Y495500D02*
D03*
X87000D02*
D03*
Y528500D02*
D03*
X38000Y464500D02*
D03*
Y431500D02*
D03*
X87000D02*
D03*
Y464500D02*
D03*
X38000Y400500D02*
D03*
Y367500D02*
D03*
X87000D02*
D03*
Y400500D02*
D03*
X38000Y592500D02*
D03*
Y559500D02*
D03*
X87000D02*
D03*
Y592500D02*
D03*
X38000Y336500D02*
D03*
Y303500D02*
D03*
X87000D02*
D03*
Y336500D02*
D03*
X38000Y720500D02*
D03*
Y687500D02*
D03*
X87000D02*
D03*
Y720500D02*
D03*
X38000Y656500D02*
D03*
Y623500D02*
D03*
X87000D02*
D03*
Y656500D02*
D03*
X38000Y784500D02*
D03*
Y751500D02*
D03*
X87000D02*
D03*
Y784500D02*
D03*
X38000Y208500D02*
D03*
Y175500D02*
D03*
X87000D02*
D03*
Y208500D02*
D03*
X38000Y272500D02*
D03*
Y239500D02*
D03*
X87000D02*
D03*
Y272500D02*
D03*
X163000Y144500D02*
D03*
Y111500D02*
D03*
X212000D02*
D03*
Y144500D02*
D03*
X163000Y848500D02*
D03*
Y815500D02*
D03*
X212000D02*
D03*
Y848500D02*
D03*
X163000Y528500D02*
D03*
Y495500D02*
D03*
X212000D02*
D03*
Y528500D02*
D03*
X163000Y464500D02*
D03*
Y431500D02*
D03*
X212000D02*
D03*
Y464500D02*
D03*
X163000Y400500D02*
D03*
Y367500D02*
D03*
X212000D02*
D03*
Y400500D02*
D03*
X163000Y592500D02*
D03*
Y559500D02*
D03*
X212000D02*
D03*
Y592500D02*
D03*
X163000Y336500D02*
D03*
Y303500D02*
D03*
X212000D02*
D03*
Y336500D02*
D03*
X163000Y720500D02*
D03*
Y687500D02*
D03*
X212000D02*
D03*
Y720500D02*
D03*
X163000Y656500D02*
D03*
Y623500D02*
D03*
X212000D02*
D03*
Y656500D02*
D03*
X163000Y784500D02*
D03*
Y751500D02*
D03*
X212000D02*
D03*
Y784500D02*
D03*
X163000Y208500D02*
D03*
Y175500D02*
D03*
X212000D02*
D03*
Y208500D02*
D03*
X163000Y272500D02*
D03*
Y239500D02*
D03*
X212000D02*
D03*
Y272500D02*
D03*
X288000Y144500D02*
D03*
Y111500D02*
D03*
X337000D02*
D03*
Y144500D02*
D03*
X288000Y848500D02*
D03*
Y815500D02*
D03*
X337000D02*
D03*
Y848500D02*
D03*
X288000Y528500D02*
D03*
Y495500D02*
D03*
X337000D02*
D03*
Y528500D02*
D03*
X288000Y464500D02*
D03*
Y431500D02*
D03*
X337000D02*
D03*
Y464500D02*
D03*
X288000Y400500D02*
D03*
Y367500D02*
D03*
X337000D02*
D03*
Y400500D02*
D03*
X288000Y592500D02*
D03*
Y559500D02*
D03*
X337000D02*
D03*
Y592500D02*
D03*
X288000Y336500D02*
D03*
Y303500D02*
D03*
X337000D02*
D03*
Y336500D02*
D03*
X288000Y720500D02*
D03*
Y687500D02*
D03*
X337000D02*
D03*
Y720500D02*
D03*
X288000Y656500D02*
D03*
Y623500D02*
D03*
X337000D02*
D03*
Y656500D02*
D03*
X288000Y784500D02*
D03*
Y751500D02*
D03*
X337000D02*
D03*
Y784500D02*
D03*
X288000Y208500D02*
D03*
Y175500D02*
D03*
X337000D02*
D03*
Y208500D02*
D03*
X288000Y272500D02*
D03*
Y239500D02*
D03*
X337000D02*
D03*
Y272500D02*
D03*
X413000Y144500D02*
D03*
Y111500D02*
D03*
X462000D02*
D03*
Y144500D02*
D03*
X413000Y848500D02*
D03*
Y815500D02*
D03*
X462000D02*
D03*
Y848500D02*
D03*
X413000Y528500D02*
D03*
Y495500D02*
D03*
X462000D02*
D03*
Y528500D02*
D03*
X413000Y464500D02*
D03*
Y431500D02*
D03*
X462000D02*
D03*
Y464500D02*
D03*
X413000Y400500D02*
D03*
Y367500D02*
D03*
X462000D02*
D03*
Y400500D02*
D03*
X413000Y592500D02*
D03*
Y559500D02*
D03*
X462000D02*
D03*
Y592500D02*
D03*
X413000Y336500D02*
D03*
Y303500D02*
D03*
X462000D02*
D03*
Y336500D02*
D03*
X413000Y720500D02*
D03*
Y687500D02*
D03*
X462000D02*
D03*
Y720500D02*
D03*
X413000Y656500D02*
D03*
Y623500D02*
D03*
X462000D02*
D03*
Y656500D02*
D03*
X413000Y784500D02*
D03*
Y751500D02*
D03*
X462000D02*
D03*
Y784500D02*
D03*
X413000Y208500D02*
D03*
Y175500D02*
D03*
X462000D02*
D03*
Y208500D02*
D03*
X413000Y272500D02*
D03*
Y239500D02*
D03*
X462000D02*
D03*
Y272500D02*
D03*
X538000Y144500D02*
D03*
Y111500D02*
D03*
X587000D02*
D03*
Y144500D02*
D03*
X538000Y848500D02*
D03*
Y815500D02*
D03*
X587000D02*
D03*
Y848500D02*
D03*
X538000Y528500D02*
D03*
Y495500D02*
D03*
X587000D02*
D03*
Y528500D02*
D03*
X538000Y464500D02*
D03*
Y431500D02*
D03*
X587000D02*
D03*
Y464500D02*
D03*
X538000Y400500D02*
D03*
Y367500D02*
D03*
X587000D02*
D03*
Y400500D02*
D03*
X538000Y592500D02*
D03*
Y559500D02*
D03*
X587000D02*
D03*
Y592500D02*
D03*
X538000Y336500D02*
D03*
Y303500D02*
D03*
X587000D02*
D03*
Y336500D02*
D03*
X538000Y720500D02*
D03*
Y687500D02*
D03*
X587000D02*
D03*
Y720500D02*
D03*
X538000Y656500D02*
D03*
Y623500D02*
D03*
X587000D02*
D03*
Y656500D02*
D03*
X538000Y784500D02*
D03*
Y751500D02*
D03*
X587000D02*
D03*
Y784500D02*
D03*
X538000Y208500D02*
D03*
Y175500D02*
D03*
X587000D02*
D03*
Y208500D02*
D03*
X538000Y272500D02*
D03*
Y239500D02*
D03*
X587000D02*
D03*
Y272500D02*
D03*
X663000Y144500D02*
D03*
Y111500D02*
D03*
X712000D02*
D03*
Y144500D02*
D03*
X663000Y848500D02*
D03*
Y815500D02*
D03*
X712000D02*
D03*
Y848500D02*
D03*
X663000Y528500D02*
D03*
Y495500D02*
D03*
X712000D02*
D03*
Y528500D02*
D03*
X663000Y464500D02*
D03*
Y431500D02*
D03*
X712000D02*
D03*
Y464500D02*
D03*
X663000Y400500D02*
D03*
Y367500D02*
D03*
X712000D02*
D03*
Y400500D02*
D03*
X663000Y592500D02*
D03*
Y559500D02*
D03*
X712000D02*
D03*
Y592500D02*
D03*
X663000Y336500D02*
D03*
Y303500D02*
D03*
X712000D02*
D03*
Y336500D02*
D03*
X663000Y720500D02*
D03*
Y687500D02*
D03*
X712000D02*
D03*
Y720500D02*
D03*
X663000Y656500D02*
D03*
Y623500D02*
D03*
X712000D02*
D03*
Y656500D02*
D03*
X663000Y784500D02*
D03*
Y751500D02*
D03*
X712000D02*
D03*
Y784500D02*
D03*
X663000Y208500D02*
D03*
Y175500D02*
D03*
X712000D02*
D03*
Y208500D02*
D03*
X663000Y272500D02*
D03*
Y239500D02*
D03*
X712000D02*
D03*
Y272500D02*
D03*
X788000Y144500D02*
D03*
Y111500D02*
D03*
X837000D02*
D03*
Y144500D02*
D03*
X788000Y848500D02*
D03*
Y815500D02*
D03*
X837000D02*
D03*
Y848500D02*
D03*
X788000Y528500D02*
D03*
Y495500D02*
D03*
X837000D02*
D03*
Y528500D02*
D03*
X788000Y464500D02*
D03*
Y431500D02*
D03*
X837000D02*
D03*
Y464500D02*
D03*
X788000Y400500D02*
D03*
Y367500D02*
D03*
X837000D02*
D03*
Y400500D02*
D03*
X788000Y592500D02*
D03*
Y559500D02*
D03*
X837000D02*
D03*
Y592500D02*
D03*
X788000Y336500D02*
D03*
Y303500D02*
D03*
X837000D02*
D03*
Y336500D02*
D03*
X788000Y720500D02*
D03*
Y687500D02*
D03*
X837000D02*
D03*
Y720500D02*
D03*
X788000Y656500D02*
D03*
Y623500D02*
D03*
X837000D02*
D03*
Y656500D02*
D03*
X788000Y784500D02*
D03*
Y751500D02*
D03*
X837000D02*
D03*
Y784500D02*
D03*
X788000Y208500D02*
D03*
Y175500D02*
D03*
X837000D02*
D03*
Y208500D02*
D03*
X788000Y272500D02*
D03*
Y239500D02*
D03*
X837000D02*
D03*
Y272500D02*
D03*
X913000Y144500D02*
D03*
Y111500D02*
D03*
X962000D02*
D03*
Y144500D02*
D03*
X913000Y848500D02*
D03*
Y815500D02*
D03*
X962000D02*
D03*
Y848500D02*
D03*
X913000Y528500D02*
D03*
Y495500D02*
D03*
X962000D02*
D03*
Y528500D02*
D03*
X913000Y464500D02*
D03*
Y431500D02*
D03*
X962000D02*
D03*
Y464500D02*
D03*
X913000Y400500D02*
D03*
Y367500D02*
D03*
X962000D02*
D03*
Y400500D02*
D03*
X913000Y592500D02*
D03*
Y559500D02*
D03*
X962000D02*
D03*
Y592500D02*
D03*
X913000Y336500D02*
D03*
Y303500D02*
D03*
X962000D02*
D03*
Y336500D02*
D03*
X913000Y720500D02*
D03*
Y687500D02*
D03*
X962000D02*
D03*
Y720500D02*
D03*
X913000Y656500D02*
D03*
Y623500D02*
D03*
X962000D02*
D03*
Y656500D02*
D03*
X913000Y784500D02*
D03*
Y751500D02*
D03*
X962000D02*
D03*
Y784500D02*
D03*
X913000Y208500D02*
D03*
Y175500D02*
D03*
X962000D02*
D03*
Y208500D02*
D03*
X913000Y272500D02*
D03*
Y239500D02*
D03*
X962000D02*
D03*
Y272500D02*
D03*
D24*
X87000Y815500D02*
D03*
Y751500D02*
D03*
Y687500D02*
D03*
Y623500D02*
D03*
Y559500D02*
D03*
Y495500D02*
D03*
Y431500D02*
D03*
Y367500D02*
D03*
Y303500D02*
D03*
Y239500D02*
D03*
Y175500D02*
D03*
Y111500D02*
D03*
X38000Y144500D02*
D03*
X87000Y848500D02*
D03*
X38000D02*
D03*
Y815500D02*
D03*
X87000Y784500D02*
D03*
X38000D02*
D03*
Y751500D02*
D03*
X87000Y720500D02*
D03*
X38000D02*
D03*
Y687500D02*
D03*
X87000Y656500D02*
D03*
X38000D02*
D03*
Y623500D02*
D03*
X87000Y592500D02*
D03*
X38000D02*
D03*
Y559500D02*
D03*
X87000Y528500D02*
D03*
X38000D02*
D03*
Y495500D02*
D03*
X87000Y464500D02*
D03*
X38000D02*
D03*
Y431500D02*
D03*
X87000Y400500D02*
D03*
X38000D02*
D03*
Y367500D02*
D03*
X87000Y336500D02*
D03*
X38000D02*
D03*
Y303500D02*
D03*
X87000Y272500D02*
D03*
X38000D02*
D03*
Y239500D02*
D03*
X87000Y208500D02*
D03*
X38000D02*
D03*
Y175500D02*
D03*
Y111500D02*
D03*
X87000Y144500D02*
D03*
X212000Y815500D02*
D03*
Y751500D02*
D03*
Y687500D02*
D03*
Y623500D02*
D03*
Y559500D02*
D03*
Y495500D02*
D03*
Y431500D02*
D03*
Y367500D02*
D03*
Y303500D02*
D03*
Y239500D02*
D03*
Y175500D02*
D03*
Y111500D02*
D03*
X163000Y144500D02*
D03*
X212000Y848500D02*
D03*
X163000D02*
D03*
Y815500D02*
D03*
X212000Y784500D02*
D03*
X163000D02*
D03*
Y751500D02*
D03*
X212000Y720500D02*
D03*
X163000D02*
D03*
Y687500D02*
D03*
X212000Y656500D02*
D03*
X163000D02*
D03*
Y623500D02*
D03*
X212000Y592500D02*
D03*
X163000D02*
D03*
Y559500D02*
D03*
X212000Y528500D02*
D03*
X163000D02*
D03*
Y495500D02*
D03*
X212000Y464500D02*
D03*
X163000D02*
D03*
Y431500D02*
D03*
X212000Y400500D02*
D03*
X163000D02*
D03*
Y367500D02*
D03*
X212000Y336500D02*
D03*
X163000D02*
D03*
Y303500D02*
D03*
X212000Y272500D02*
D03*
X163000D02*
D03*
Y239500D02*
D03*
X212000Y208500D02*
D03*
X163000D02*
D03*
Y175500D02*
D03*
Y111500D02*
D03*
X212000Y144500D02*
D03*
X337000Y815500D02*
D03*
Y751500D02*
D03*
Y687500D02*
D03*
Y623500D02*
D03*
Y559500D02*
D03*
Y495500D02*
D03*
Y431500D02*
D03*
Y367500D02*
D03*
Y303500D02*
D03*
Y239500D02*
D03*
Y175500D02*
D03*
Y111500D02*
D03*
X288000Y144500D02*
D03*
X337000Y848500D02*
D03*
X288000D02*
D03*
Y815500D02*
D03*
X337000Y784500D02*
D03*
X288000D02*
D03*
Y751500D02*
D03*
X337000Y720500D02*
D03*
X288000D02*
D03*
Y687500D02*
D03*
X337000Y656500D02*
D03*
X288000D02*
D03*
Y623500D02*
D03*
X337000Y592500D02*
D03*
X288000D02*
D03*
Y559500D02*
D03*
X337000Y528500D02*
D03*
X288000D02*
D03*
Y495500D02*
D03*
X337000Y464500D02*
D03*
X288000D02*
D03*
Y431500D02*
D03*
X337000Y400500D02*
D03*
X288000D02*
D03*
Y367500D02*
D03*
X337000Y336500D02*
D03*
X288000D02*
D03*
Y303500D02*
D03*
X337000Y272500D02*
D03*
X288000D02*
D03*
Y239500D02*
D03*
X337000Y208500D02*
D03*
X288000D02*
D03*
Y175500D02*
D03*
Y111500D02*
D03*
X337000Y144500D02*
D03*
X462000Y815500D02*
D03*
Y751500D02*
D03*
Y687500D02*
D03*
Y623500D02*
D03*
Y559500D02*
D03*
Y495500D02*
D03*
Y431500D02*
D03*
Y367500D02*
D03*
Y303500D02*
D03*
Y239500D02*
D03*
Y175500D02*
D03*
Y111500D02*
D03*
X413000Y144500D02*
D03*
X462000Y848500D02*
D03*
X413000D02*
D03*
Y815500D02*
D03*
X462000Y784500D02*
D03*
X413000D02*
D03*
Y751500D02*
D03*
X462000Y720500D02*
D03*
X413000D02*
D03*
Y687500D02*
D03*
X462000Y656500D02*
D03*
X413000D02*
D03*
Y623500D02*
D03*
X462000Y592500D02*
D03*
X413000D02*
D03*
Y559500D02*
D03*
X462000Y528500D02*
D03*
X413000D02*
D03*
Y495500D02*
D03*
X462000Y464500D02*
D03*
X413000D02*
D03*
Y431500D02*
D03*
X462000Y400500D02*
D03*
X413000D02*
D03*
Y367500D02*
D03*
X462000Y336500D02*
D03*
X413000D02*
D03*
Y303500D02*
D03*
X462000Y272500D02*
D03*
X413000D02*
D03*
Y239500D02*
D03*
X462000Y208500D02*
D03*
X413000D02*
D03*
Y175500D02*
D03*
Y111500D02*
D03*
X462000Y144500D02*
D03*
X587000Y815500D02*
D03*
Y751500D02*
D03*
Y687500D02*
D03*
Y623500D02*
D03*
Y559500D02*
D03*
Y495500D02*
D03*
Y431500D02*
D03*
Y367500D02*
D03*
Y303500D02*
D03*
Y239500D02*
D03*
Y175500D02*
D03*
Y111500D02*
D03*
X538000Y144500D02*
D03*
X587000Y848500D02*
D03*
X538000D02*
D03*
Y815500D02*
D03*
X587000Y784500D02*
D03*
X538000D02*
D03*
Y751500D02*
D03*
X587000Y720500D02*
D03*
X538000D02*
D03*
Y687500D02*
D03*
X587000Y656500D02*
D03*
X538000D02*
D03*
Y623500D02*
D03*
X587000Y592500D02*
D03*
X538000D02*
D03*
Y559500D02*
D03*
X587000Y528500D02*
D03*
X538000D02*
D03*
Y495500D02*
D03*
X587000Y464500D02*
D03*
X538000D02*
D03*
Y431500D02*
D03*
X587000Y400500D02*
D03*
X538000D02*
D03*
Y367500D02*
D03*
X587000Y336500D02*
D03*
X538000D02*
D03*
Y303500D02*
D03*
X587000Y272500D02*
D03*
X538000D02*
D03*
Y239500D02*
D03*
X587000Y208500D02*
D03*
X538000D02*
D03*
Y175500D02*
D03*
Y111500D02*
D03*
X587000Y144500D02*
D03*
X712000Y815500D02*
D03*
Y751500D02*
D03*
Y687500D02*
D03*
Y623500D02*
D03*
Y559500D02*
D03*
Y495500D02*
D03*
Y431500D02*
D03*
Y367500D02*
D03*
Y303500D02*
D03*
Y239500D02*
D03*
Y175500D02*
D03*
Y111500D02*
D03*
X663000Y144500D02*
D03*
X712000Y848500D02*
D03*
X663000D02*
D03*
Y815500D02*
D03*
X712000Y784500D02*
D03*
X663000D02*
D03*
Y751500D02*
D03*
X712000Y720500D02*
D03*
X663000D02*
D03*
Y687500D02*
D03*
X712000Y656500D02*
D03*
X663000D02*
D03*
Y623500D02*
D03*
X712000Y592500D02*
D03*
X663000D02*
D03*
Y559500D02*
D03*
X712000Y528500D02*
D03*
X663000D02*
D03*
Y495500D02*
D03*
X712000Y464500D02*
D03*
X663000D02*
D03*
Y431500D02*
D03*
X712000Y400500D02*
D03*
X663000D02*
D03*
Y367500D02*
D03*
X712000Y336500D02*
D03*
X663000D02*
D03*
Y303500D02*
D03*
X712000Y272500D02*
D03*
X663000D02*
D03*
Y239500D02*
D03*
X712000Y208500D02*
D03*
X663000D02*
D03*
Y175500D02*
D03*
Y111500D02*
D03*
X712000Y144500D02*
D03*
X837000Y815500D02*
D03*
Y751500D02*
D03*
Y687500D02*
D03*
Y623500D02*
D03*
Y559500D02*
D03*
Y495500D02*
D03*
Y431500D02*
D03*
Y367500D02*
D03*
Y303500D02*
D03*
Y239500D02*
D03*
Y175500D02*
D03*
Y111500D02*
D03*
X788000Y144500D02*
D03*
X837000Y848500D02*
D03*
X788000D02*
D03*
Y815500D02*
D03*
X837000Y784500D02*
D03*
X788000D02*
D03*
Y751500D02*
D03*
X837000Y720500D02*
D03*
X788000D02*
D03*
Y687500D02*
D03*
X837000Y656500D02*
D03*
X788000D02*
D03*
Y623500D02*
D03*
X837000Y592500D02*
D03*
X788000D02*
D03*
Y559500D02*
D03*
X837000Y528500D02*
D03*
X788000D02*
D03*
Y495500D02*
D03*
X837000Y464500D02*
D03*
X788000D02*
D03*
Y431500D02*
D03*
X837000Y400500D02*
D03*
X788000D02*
D03*
Y367500D02*
D03*
X837000Y336500D02*
D03*
X788000D02*
D03*
Y303500D02*
D03*
X837000Y272500D02*
D03*
X788000D02*
D03*
Y239500D02*
D03*
X837000Y208500D02*
D03*
X788000D02*
D03*
Y175500D02*
D03*
Y111500D02*
D03*
X837000Y144500D02*
D03*
X962000Y815500D02*
D03*
Y751500D02*
D03*
Y687500D02*
D03*
Y623500D02*
D03*
Y559500D02*
D03*
Y495500D02*
D03*
Y431500D02*
D03*
Y367500D02*
D03*
Y303500D02*
D03*
Y239500D02*
D03*
Y175500D02*
D03*
Y111500D02*
D03*
X913000Y144500D02*
D03*
X962000Y848500D02*
D03*
X913000D02*
D03*
Y815500D02*
D03*
X962000Y784500D02*
D03*
X913000D02*
D03*
Y751500D02*
D03*
X962000Y720500D02*
D03*
X913000D02*
D03*
Y687500D02*
D03*
X962000Y656500D02*
D03*
X913000D02*
D03*
Y623500D02*
D03*
X962000Y592500D02*
D03*
X913000D02*
D03*
Y559500D02*
D03*
X962000Y528500D02*
D03*
X913000D02*
D03*
Y495500D02*
D03*
X962000Y464500D02*
D03*
X913000D02*
D03*
Y431500D02*
D03*
X962000Y400500D02*
D03*
X913000D02*
D03*
Y367500D02*
D03*
X962000Y336500D02*
D03*
X913000D02*
D03*
Y303500D02*
D03*
X962000Y272500D02*
D03*
X913000D02*
D03*
Y239500D02*
D03*
X962000Y208500D02*
D03*
X913000D02*
D03*
Y175500D02*
D03*
Y111500D02*
D03*
X962000Y144500D02*
D03*
D25*
X117000Y23000D02*
D03*
X107000D02*
D03*
X8000Y24750D02*
D03*
X18000D02*
D03*
X107000Y33250D02*
D03*
X117000D02*
D03*
X8000Y35000D02*
D03*
X18000D02*
D03*
X107000Y44250D02*
D03*
X117000D02*
D03*
X18000Y46000D02*
D03*
X8000D02*
D03*
X25000Y870000D02*
D03*
X18000Y914000D02*
D03*
Y935250D02*
D03*
X8000D02*
D03*
Y925000D02*
D03*
X18000D02*
D03*
X8000Y914000D02*
D03*
X117000Y935250D02*
D03*
X107000D02*
D03*
Y925000D02*
D03*
X117000D02*
D03*
X107000Y914000D02*
D03*
X117000D02*
D03*
X242000Y23000D02*
D03*
X232000D02*
D03*
X133000Y24750D02*
D03*
X143000D02*
D03*
X232000Y33250D02*
D03*
X242000D02*
D03*
X133000Y35000D02*
D03*
X143000D02*
D03*
X232000Y44250D02*
D03*
X242000D02*
D03*
X143000Y46000D02*
D03*
X133000D02*
D03*
X150000Y870000D02*
D03*
X143000Y914000D02*
D03*
Y935250D02*
D03*
X133000D02*
D03*
Y925000D02*
D03*
X143000D02*
D03*
X133000Y914000D02*
D03*
X242000Y935250D02*
D03*
X232000D02*
D03*
Y925000D02*
D03*
X242000D02*
D03*
X232000Y914000D02*
D03*
X242000D02*
D03*
X367000Y23000D02*
D03*
X357000D02*
D03*
X258000Y24750D02*
D03*
X268000D02*
D03*
X357000Y33250D02*
D03*
X367000D02*
D03*
X258000Y35000D02*
D03*
X268000D02*
D03*
X357000Y44250D02*
D03*
X367000D02*
D03*
X268000Y46000D02*
D03*
X258000D02*
D03*
X275000Y870000D02*
D03*
X268000Y914000D02*
D03*
Y935250D02*
D03*
X258000D02*
D03*
Y925000D02*
D03*
X268000D02*
D03*
X258000Y914000D02*
D03*
X367000Y935250D02*
D03*
X357000D02*
D03*
Y925000D02*
D03*
X367000D02*
D03*
X357000Y914000D02*
D03*
X367000D02*
D03*
X492000Y23000D02*
D03*
X482000D02*
D03*
X383000Y24750D02*
D03*
X393000D02*
D03*
X482000Y33250D02*
D03*
X492000D02*
D03*
X383000Y35000D02*
D03*
X393000D02*
D03*
X482000Y44250D02*
D03*
X492000D02*
D03*
X393000Y46000D02*
D03*
X383000D02*
D03*
X400000Y870000D02*
D03*
X393000Y914000D02*
D03*
Y935250D02*
D03*
X383000D02*
D03*
Y925000D02*
D03*
X393000D02*
D03*
X383000Y914000D02*
D03*
X492000Y935250D02*
D03*
X482000D02*
D03*
Y925000D02*
D03*
X492000D02*
D03*
X482000Y914000D02*
D03*
X492000D02*
D03*
X617000Y23000D02*
D03*
X607000D02*
D03*
X508000Y24750D02*
D03*
X518000D02*
D03*
X607000Y33250D02*
D03*
X617000D02*
D03*
X508000Y35000D02*
D03*
X518000D02*
D03*
X607000Y44250D02*
D03*
X617000D02*
D03*
X518000Y46000D02*
D03*
X508000D02*
D03*
X525000Y870000D02*
D03*
X518000Y914000D02*
D03*
Y935250D02*
D03*
X508000D02*
D03*
Y925000D02*
D03*
X518000D02*
D03*
X508000Y914000D02*
D03*
X617000Y935250D02*
D03*
X607000D02*
D03*
Y925000D02*
D03*
X617000D02*
D03*
X607000Y914000D02*
D03*
X617000D02*
D03*
X742000Y23000D02*
D03*
X732000D02*
D03*
X633000Y24750D02*
D03*
X643000D02*
D03*
X732000Y33250D02*
D03*
X742000D02*
D03*
X633000Y35000D02*
D03*
X643000D02*
D03*
X732000Y44250D02*
D03*
X742000D02*
D03*
X643000Y46000D02*
D03*
X633000D02*
D03*
X650000Y870000D02*
D03*
X643000Y914000D02*
D03*
Y935250D02*
D03*
X633000D02*
D03*
Y925000D02*
D03*
X643000D02*
D03*
X633000Y914000D02*
D03*
X742000Y935250D02*
D03*
X732000D02*
D03*
Y925000D02*
D03*
X742000D02*
D03*
X732000Y914000D02*
D03*
X742000D02*
D03*
X867000Y23000D02*
D03*
X857000D02*
D03*
X758000Y24750D02*
D03*
X768000D02*
D03*
X857000Y33250D02*
D03*
X867000D02*
D03*
X758000Y35000D02*
D03*
X768000D02*
D03*
X857000Y44250D02*
D03*
X867000D02*
D03*
X768000Y46000D02*
D03*
X758000D02*
D03*
X775000Y870000D02*
D03*
X768000Y914000D02*
D03*
Y935250D02*
D03*
X758000D02*
D03*
Y925000D02*
D03*
X768000D02*
D03*
X758000Y914000D02*
D03*
X867000Y935250D02*
D03*
X857000D02*
D03*
Y925000D02*
D03*
X867000D02*
D03*
X857000Y914000D02*
D03*
X867000D02*
D03*
X992000Y23000D02*
D03*
X982000D02*
D03*
X883000Y24750D02*
D03*
X893000D02*
D03*
X982000Y33250D02*
D03*
X992000D02*
D03*
X883000Y35000D02*
D03*
X893000D02*
D03*
X982000Y44250D02*
D03*
X992000D02*
D03*
X893000Y46000D02*
D03*
X883000D02*
D03*
X900000Y870000D02*
D03*
X893000Y914000D02*
D03*
Y935250D02*
D03*
X883000D02*
D03*
Y925000D02*
D03*
X893000D02*
D03*
X883000Y914000D02*
D03*
X992000Y935250D02*
D03*
X982000D02*
D03*
Y925000D02*
D03*
X992000D02*
D03*
X982000Y914000D02*
D03*
X992000D02*
D03*
D26*
X14040Y823000D02*
D03*
Y759000D02*
D03*
Y631000D02*
D03*
Y567000D02*
D03*
Y439000D02*
D03*
Y375000D02*
D03*
Y183000D02*
D03*
Y695000D02*
D03*
Y311000D02*
D03*
Y503000D02*
D03*
Y247000D02*
D03*
Y101000D02*
D03*
X139040Y823000D02*
D03*
Y759000D02*
D03*
Y631000D02*
D03*
Y567000D02*
D03*
Y439000D02*
D03*
Y375000D02*
D03*
Y183000D02*
D03*
Y695000D02*
D03*
Y311000D02*
D03*
Y503000D02*
D03*
Y247000D02*
D03*
Y101000D02*
D03*
X264040Y823000D02*
D03*
Y759000D02*
D03*
Y631000D02*
D03*
Y567000D02*
D03*
Y439000D02*
D03*
Y375000D02*
D03*
Y183000D02*
D03*
Y695000D02*
D03*
Y311000D02*
D03*
Y503000D02*
D03*
Y247000D02*
D03*
Y101000D02*
D03*
X389040Y823000D02*
D03*
Y759000D02*
D03*
Y631000D02*
D03*
Y567000D02*
D03*
Y439000D02*
D03*
Y375000D02*
D03*
Y183000D02*
D03*
Y695000D02*
D03*
Y311000D02*
D03*
Y503000D02*
D03*
Y247000D02*
D03*
Y101000D02*
D03*
X514040Y823000D02*
D03*
Y759000D02*
D03*
Y631000D02*
D03*
Y567000D02*
D03*
Y439000D02*
D03*
Y375000D02*
D03*
Y183000D02*
D03*
Y695000D02*
D03*
Y311000D02*
D03*
Y503000D02*
D03*
Y247000D02*
D03*
Y101000D02*
D03*
X639040Y823000D02*
D03*
Y759000D02*
D03*
Y631000D02*
D03*
Y567000D02*
D03*
Y439000D02*
D03*
Y375000D02*
D03*
Y183000D02*
D03*
Y695000D02*
D03*
Y311000D02*
D03*
Y503000D02*
D03*
Y247000D02*
D03*
Y101000D02*
D03*
X764040Y823000D02*
D03*
Y759000D02*
D03*
Y631000D02*
D03*
Y567000D02*
D03*
Y439000D02*
D03*
Y375000D02*
D03*
Y183000D02*
D03*
Y695000D02*
D03*
Y311000D02*
D03*
Y503000D02*
D03*
Y247000D02*
D03*
Y101000D02*
D03*
X889040Y823000D02*
D03*
Y759000D02*
D03*
Y631000D02*
D03*
Y567000D02*
D03*
Y439000D02*
D03*
Y375000D02*
D03*
Y183000D02*
D03*
Y695000D02*
D03*
Y311000D02*
D03*
Y503000D02*
D03*
Y247000D02*
D03*
Y101000D02*
D03*
M02*
