G04*
G04 #@! TF.GenerationSoftware,Altium Limited,Altium Designer,21.7.2 (23)*
G04*
G04 Layer_Color=8388736*
%FSLAX44Y44*%
%MOMM*%
G71*
G04*
G04 #@! TF.SameCoordinates,0FFFA108-C98E-47EB-AFC1-BA6D9033F8A2*
G04*
G04*
G04 #@! TF.FilePolarity,Negative*
G04*
G01*
G75*
%ADD23R,2.2032X3.2032*%
%ADD24C,2.2032*%
%ADD25R,2.8032X3.4032*%
%ADD26R,1.6532X1.4532*%
%ADD27R,1.7032X1.1032*%
%ADD28C,1.1032*%
%ADD29C,0.6032*%
%ADD30C,0.9032*%
D23*
X57500Y940500D02*
D03*
X92500D02*
D03*
X57500Y19500D02*
D03*
X92500D02*
D03*
X207500Y940500D02*
D03*
X242500D02*
D03*
X207500Y19500D02*
D03*
X242500D02*
D03*
X357500Y940500D02*
D03*
X392500D02*
D03*
X357500Y19500D02*
D03*
X392500D02*
D03*
X507500Y940500D02*
D03*
X542500D02*
D03*
X507500Y19500D02*
D03*
X542500D02*
D03*
X657500Y940500D02*
D03*
X692500D02*
D03*
X657500Y19500D02*
D03*
X692500D02*
D03*
X807500Y940500D02*
D03*
X842500D02*
D03*
X807500Y19500D02*
D03*
X842500D02*
D03*
D24*
X57500Y925500D02*
D03*
X92500D02*
D03*
X57500Y34500D02*
D03*
X92500D02*
D03*
X207500Y925500D02*
D03*
X242500D02*
D03*
X207500Y34500D02*
D03*
X242500D02*
D03*
X357500Y925500D02*
D03*
X392500D02*
D03*
X357500Y34500D02*
D03*
X392500D02*
D03*
X507500Y925500D02*
D03*
X542500D02*
D03*
X507500Y34500D02*
D03*
X542500D02*
D03*
X657500Y925500D02*
D03*
X692500D02*
D03*
X657500Y34500D02*
D03*
X692500D02*
D03*
X807500Y925500D02*
D03*
X842500D02*
D03*
X807500Y34500D02*
D03*
X842500D02*
D03*
D25*
X132500Y923500D02*
D03*
X17500D02*
D03*
X132500Y36500D02*
D03*
X17500D02*
D03*
X282500Y923500D02*
D03*
X167500D02*
D03*
X282500Y36500D02*
D03*
X167500D02*
D03*
X432500Y923500D02*
D03*
X317500D02*
D03*
X432500Y36500D02*
D03*
X317500D02*
D03*
X582500Y923500D02*
D03*
X467500D02*
D03*
X582500Y36500D02*
D03*
X467500D02*
D03*
X732500Y923500D02*
D03*
X617500D02*
D03*
X732500Y36500D02*
D03*
X617500D02*
D03*
X882500Y923500D02*
D03*
X767500D02*
D03*
X882500Y36500D02*
D03*
X767500D02*
D03*
D26*
X19000Y823500D02*
D03*
Y840500D02*
D03*
Y119500D02*
D03*
Y136500D02*
D03*
Y520500D02*
D03*
Y503500D02*
D03*
Y456500D02*
D03*
Y439500D02*
D03*
Y328500D02*
D03*
Y311500D02*
D03*
Y392500D02*
D03*
Y375500D02*
D03*
Y584500D02*
D03*
Y567500D02*
D03*
Y648500D02*
D03*
Y631500D02*
D03*
Y712500D02*
D03*
Y695500D02*
D03*
Y776500D02*
D03*
Y759500D02*
D03*
Y264500D02*
D03*
Y247500D02*
D03*
Y200500D02*
D03*
Y183500D02*
D03*
X169000Y823500D02*
D03*
Y840500D02*
D03*
Y119500D02*
D03*
Y136500D02*
D03*
Y520500D02*
D03*
Y503500D02*
D03*
Y456500D02*
D03*
Y439500D02*
D03*
Y328500D02*
D03*
Y311500D02*
D03*
Y392500D02*
D03*
Y375500D02*
D03*
Y584500D02*
D03*
Y567500D02*
D03*
Y648500D02*
D03*
Y631500D02*
D03*
Y712500D02*
D03*
Y695500D02*
D03*
Y776500D02*
D03*
Y759500D02*
D03*
Y264500D02*
D03*
Y247500D02*
D03*
Y200500D02*
D03*
Y183500D02*
D03*
X319000Y823500D02*
D03*
Y840500D02*
D03*
Y119500D02*
D03*
Y136500D02*
D03*
Y520500D02*
D03*
Y503500D02*
D03*
Y456500D02*
D03*
Y439500D02*
D03*
Y328500D02*
D03*
Y311500D02*
D03*
Y392500D02*
D03*
Y375500D02*
D03*
Y584500D02*
D03*
Y567500D02*
D03*
Y648500D02*
D03*
Y631500D02*
D03*
Y712500D02*
D03*
Y695500D02*
D03*
Y776500D02*
D03*
Y759500D02*
D03*
Y264500D02*
D03*
Y247500D02*
D03*
Y200500D02*
D03*
Y183500D02*
D03*
X469000Y823500D02*
D03*
Y840500D02*
D03*
Y119500D02*
D03*
Y136500D02*
D03*
Y520500D02*
D03*
Y503500D02*
D03*
Y456500D02*
D03*
Y439500D02*
D03*
Y328500D02*
D03*
Y311500D02*
D03*
Y392500D02*
D03*
Y375500D02*
D03*
Y584500D02*
D03*
Y567500D02*
D03*
Y648500D02*
D03*
Y631500D02*
D03*
Y712500D02*
D03*
Y695500D02*
D03*
Y776500D02*
D03*
Y759500D02*
D03*
Y264500D02*
D03*
Y247500D02*
D03*
Y200500D02*
D03*
Y183500D02*
D03*
X619000Y823500D02*
D03*
Y840500D02*
D03*
Y119500D02*
D03*
Y136500D02*
D03*
Y520500D02*
D03*
Y503500D02*
D03*
Y456500D02*
D03*
Y439500D02*
D03*
Y328500D02*
D03*
Y311500D02*
D03*
Y392500D02*
D03*
Y375500D02*
D03*
Y584500D02*
D03*
Y567500D02*
D03*
Y648500D02*
D03*
Y631500D02*
D03*
Y712500D02*
D03*
Y695500D02*
D03*
Y776500D02*
D03*
Y759500D02*
D03*
Y264500D02*
D03*
Y247500D02*
D03*
Y200500D02*
D03*
Y183500D02*
D03*
X769000Y823500D02*
D03*
Y840500D02*
D03*
Y119500D02*
D03*
Y136500D02*
D03*
Y520500D02*
D03*
Y503500D02*
D03*
Y456500D02*
D03*
Y439500D02*
D03*
Y328500D02*
D03*
Y311500D02*
D03*
Y392500D02*
D03*
Y375500D02*
D03*
Y584500D02*
D03*
Y567500D02*
D03*
Y648500D02*
D03*
Y631500D02*
D03*
Y712500D02*
D03*
Y695500D02*
D03*
Y776500D02*
D03*
Y759500D02*
D03*
Y264500D02*
D03*
Y247500D02*
D03*
Y200500D02*
D03*
Y183500D02*
D03*
D27*
X50500Y144500D02*
D03*
Y111500D02*
D03*
X99500D02*
D03*
Y144500D02*
D03*
X50500Y848500D02*
D03*
Y815500D02*
D03*
X99500D02*
D03*
Y848500D02*
D03*
X50500Y528500D02*
D03*
Y495500D02*
D03*
X99500D02*
D03*
Y528500D02*
D03*
X50500Y464500D02*
D03*
Y431500D02*
D03*
X99500D02*
D03*
Y464500D02*
D03*
X50500Y400500D02*
D03*
Y367500D02*
D03*
X99500D02*
D03*
Y400500D02*
D03*
X50500Y592500D02*
D03*
Y559500D02*
D03*
X99500D02*
D03*
Y592500D02*
D03*
X50500Y336500D02*
D03*
Y303500D02*
D03*
X99500D02*
D03*
Y336500D02*
D03*
X50500Y720500D02*
D03*
Y687500D02*
D03*
X99500D02*
D03*
Y720500D02*
D03*
X50500Y656500D02*
D03*
Y623500D02*
D03*
X99500D02*
D03*
Y656500D02*
D03*
X50500Y784500D02*
D03*
Y751500D02*
D03*
X99500D02*
D03*
Y784500D02*
D03*
X50500Y208500D02*
D03*
Y175500D02*
D03*
X99500D02*
D03*
Y208500D02*
D03*
X50500Y272500D02*
D03*
Y239500D02*
D03*
X99500D02*
D03*
Y272500D02*
D03*
X200500Y144500D02*
D03*
Y111500D02*
D03*
X249500D02*
D03*
Y144500D02*
D03*
X200500Y848500D02*
D03*
Y815500D02*
D03*
X249500D02*
D03*
Y848500D02*
D03*
X200500Y528500D02*
D03*
Y495500D02*
D03*
X249500D02*
D03*
Y528500D02*
D03*
X200500Y464500D02*
D03*
Y431500D02*
D03*
X249500D02*
D03*
Y464500D02*
D03*
X200500Y400500D02*
D03*
Y367500D02*
D03*
X249500D02*
D03*
Y400500D02*
D03*
X200500Y592500D02*
D03*
Y559500D02*
D03*
X249500D02*
D03*
Y592500D02*
D03*
X200500Y336500D02*
D03*
Y303500D02*
D03*
X249500D02*
D03*
Y336500D02*
D03*
X200500Y720500D02*
D03*
Y687500D02*
D03*
X249500D02*
D03*
Y720500D02*
D03*
X200500Y656500D02*
D03*
Y623500D02*
D03*
X249500D02*
D03*
Y656500D02*
D03*
X200500Y784500D02*
D03*
Y751500D02*
D03*
X249500D02*
D03*
Y784500D02*
D03*
X200500Y208500D02*
D03*
Y175500D02*
D03*
X249500D02*
D03*
Y208500D02*
D03*
X200500Y272500D02*
D03*
Y239500D02*
D03*
X249500D02*
D03*
Y272500D02*
D03*
X350500Y144500D02*
D03*
Y111500D02*
D03*
X399500D02*
D03*
Y144500D02*
D03*
X350500Y848500D02*
D03*
Y815500D02*
D03*
X399500D02*
D03*
Y848500D02*
D03*
X350500Y528500D02*
D03*
Y495500D02*
D03*
X399500D02*
D03*
Y528500D02*
D03*
X350500Y464500D02*
D03*
Y431500D02*
D03*
X399500D02*
D03*
Y464500D02*
D03*
X350500Y400500D02*
D03*
Y367500D02*
D03*
X399500D02*
D03*
Y400500D02*
D03*
X350500Y592500D02*
D03*
Y559500D02*
D03*
X399500D02*
D03*
Y592500D02*
D03*
X350500Y336500D02*
D03*
Y303500D02*
D03*
X399500D02*
D03*
Y336500D02*
D03*
X350500Y720500D02*
D03*
Y687500D02*
D03*
X399500D02*
D03*
Y720500D02*
D03*
X350500Y656500D02*
D03*
Y623500D02*
D03*
X399500D02*
D03*
Y656500D02*
D03*
X350500Y784500D02*
D03*
Y751500D02*
D03*
X399500D02*
D03*
Y784500D02*
D03*
X350500Y208500D02*
D03*
Y175500D02*
D03*
X399500D02*
D03*
Y208500D02*
D03*
X350500Y272500D02*
D03*
Y239500D02*
D03*
X399500D02*
D03*
Y272500D02*
D03*
X500500Y144500D02*
D03*
Y111500D02*
D03*
X549500D02*
D03*
Y144500D02*
D03*
X500500Y848500D02*
D03*
Y815500D02*
D03*
X549500D02*
D03*
Y848500D02*
D03*
X500500Y528500D02*
D03*
Y495500D02*
D03*
X549500D02*
D03*
Y528500D02*
D03*
X500500Y464500D02*
D03*
Y431500D02*
D03*
X549500D02*
D03*
Y464500D02*
D03*
X500500Y400500D02*
D03*
Y367500D02*
D03*
X549500D02*
D03*
Y400500D02*
D03*
X500500Y592500D02*
D03*
Y559500D02*
D03*
X549500D02*
D03*
Y592500D02*
D03*
X500500Y336500D02*
D03*
Y303500D02*
D03*
X549500D02*
D03*
Y336500D02*
D03*
X500500Y720500D02*
D03*
Y687500D02*
D03*
X549500D02*
D03*
Y720500D02*
D03*
X500500Y656500D02*
D03*
Y623500D02*
D03*
X549500D02*
D03*
Y656500D02*
D03*
X500500Y784500D02*
D03*
Y751500D02*
D03*
X549500D02*
D03*
Y784500D02*
D03*
X500500Y208500D02*
D03*
Y175500D02*
D03*
X549500D02*
D03*
Y208500D02*
D03*
X500500Y272500D02*
D03*
Y239500D02*
D03*
X549500D02*
D03*
Y272500D02*
D03*
X650500Y144500D02*
D03*
Y111500D02*
D03*
X699500D02*
D03*
Y144500D02*
D03*
X650500Y848500D02*
D03*
Y815500D02*
D03*
X699500D02*
D03*
Y848500D02*
D03*
X650500Y528500D02*
D03*
Y495500D02*
D03*
X699500D02*
D03*
Y528500D02*
D03*
X650500Y464500D02*
D03*
Y431500D02*
D03*
X699500D02*
D03*
Y464500D02*
D03*
X650500Y400500D02*
D03*
Y367500D02*
D03*
X699500D02*
D03*
Y400500D02*
D03*
X650500Y592500D02*
D03*
Y559500D02*
D03*
X699500D02*
D03*
Y592500D02*
D03*
X650500Y336500D02*
D03*
Y303500D02*
D03*
X699500D02*
D03*
Y336500D02*
D03*
X650500Y720500D02*
D03*
Y687500D02*
D03*
X699500D02*
D03*
Y720500D02*
D03*
X650500Y656500D02*
D03*
Y623500D02*
D03*
X699500D02*
D03*
Y656500D02*
D03*
X650500Y784500D02*
D03*
Y751500D02*
D03*
X699500D02*
D03*
Y784500D02*
D03*
X650500Y208500D02*
D03*
Y175500D02*
D03*
X699500D02*
D03*
Y208500D02*
D03*
X650500Y272500D02*
D03*
Y239500D02*
D03*
X699500D02*
D03*
Y272500D02*
D03*
X800500Y144500D02*
D03*
Y111500D02*
D03*
X849500D02*
D03*
Y144500D02*
D03*
X800500Y848500D02*
D03*
Y815500D02*
D03*
X849500D02*
D03*
Y848500D02*
D03*
X800500Y528500D02*
D03*
Y495500D02*
D03*
X849500D02*
D03*
Y528500D02*
D03*
X800500Y464500D02*
D03*
Y431500D02*
D03*
X849500D02*
D03*
Y464500D02*
D03*
X800500Y400500D02*
D03*
Y367500D02*
D03*
X849500D02*
D03*
Y400500D02*
D03*
X800500Y592500D02*
D03*
Y559500D02*
D03*
X849500D02*
D03*
Y592500D02*
D03*
X800500Y336500D02*
D03*
Y303500D02*
D03*
X849500D02*
D03*
Y336500D02*
D03*
X800500Y720500D02*
D03*
Y687500D02*
D03*
X849500D02*
D03*
Y720500D02*
D03*
X800500Y656500D02*
D03*
Y623500D02*
D03*
X849500D02*
D03*
Y656500D02*
D03*
X800500Y784500D02*
D03*
Y751500D02*
D03*
X849500D02*
D03*
Y784500D02*
D03*
X800500Y208500D02*
D03*
Y175500D02*
D03*
X849500D02*
D03*
Y208500D02*
D03*
X800500Y272500D02*
D03*
Y239500D02*
D03*
X849500D02*
D03*
Y272500D02*
D03*
D28*
X99500Y815500D02*
D03*
Y751500D02*
D03*
Y687500D02*
D03*
Y623500D02*
D03*
Y559500D02*
D03*
Y495500D02*
D03*
Y431500D02*
D03*
Y367500D02*
D03*
Y303500D02*
D03*
Y239500D02*
D03*
Y175500D02*
D03*
Y111500D02*
D03*
X50500Y144500D02*
D03*
X99500Y848500D02*
D03*
X50500D02*
D03*
Y815500D02*
D03*
X99500Y784500D02*
D03*
X50500D02*
D03*
Y751500D02*
D03*
X99500Y720500D02*
D03*
X50500D02*
D03*
Y687500D02*
D03*
X99500Y656500D02*
D03*
X50500D02*
D03*
Y623500D02*
D03*
X99500Y592500D02*
D03*
X50500D02*
D03*
Y559500D02*
D03*
X99500Y528500D02*
D03*
X50500D02*
D03*
Y495500D02*
D03*
X99500Y464500D02*
D03*
X50500D02*
D03*
Y431500D02*
D03*
X99500Y400500D02*
D03*
X50500D02*
D03*
Y367500D02*
D03*
X99500Y336500D02*
D03*
X50500D02*
D03*
Y303500D02*
D03*
X99500Y272500D02*
D03*
X50500D02*
D03*
Y239500D02*
D03*
X99500Y208500D02*
D03*
X50500D02*
D03*
Y175500D02*
D03*
Y111500D02*
D03*
X99500Y144500D02*
D03*
X249500Y815500D02*
D03*
Y751500D02*
D03*
Y687500D02*
D03*
Y623500D02*
D03*
Y559500D02*
D03*
Y495500D02*
D03*
Y431500D02*
D03*
Y367500D02*
D03*
Y303500D02*
D03*
Y239500D02*
D03*
Y175500D02*
D03*
Y111500D02*
D03*
X200500Y144500D02*
D03*
X249500Y848500D02*
D03*
X200500D02*
D03*
Y815500D02*
D03*
X249500Y784500D02*
D03*
X200500D02*
D03*
Y751500D02*
D03*
X249500Y720500D02*
D03*
X200500D02*
D03*
Y687500D02*
D03*
X249500Y656500D02*
D03*
X200500D02*
D03*
Y623500D02*
D03*
X249500Y592500D02*
D03*
X200500D02*
D03*
Y559500D02*
D03*
X249500Y528500D02*
D03*
X200500D02*
D03*
Y495500D02*
D03*
X249500Y464500D02*
D03*
X200500D02*
D03*
Y431500D02*
D03*
X249500Y400500D02*
D03*
X200500D02*
D03*
Y367500D02*
D03*
X249500Y336500D02*
D03*
X200500D02*
D03*
Y303500D02*
D03*
X249500Y272500D02*
D03*
X200500D02*
D03*
Y239500D02*
D03*
X249500Y208500D02*
D03*
X200500D02*
D03*
Y175500D02*
D03*
Y111500D02*
D03*
X249500Y144500D02*
D03*
X399500Y815500D02*
D03*
Y751500D02*
D03*
Y687500D02*
D03*
Y623500D02*
D03*
Y559500D02*
D03*
Y495500D02*
D03*
Y431500D02*
D03*
Y367500D02*
D03*
Y303500D02*
D03*
Y239500D02*
D03*
Y175500D02*
D03*
Y111500D02*
D03*
X350500Y144500D02*
D03*
X399500Y848500D02*
D03*
X350500D02*
D03*
Y815500D02*
D03*
X399500Y784500D02*
D03*
X350500D02*
D03*
Y751500D02*
D03*
X399500Y720500D02*
D03*
X350500D02*
D03*
Y687500D02*
D03*
X399500Y656500D02*
D03*
X350500D02*
D03*
Y623500D02*
D03*
X399500Y592500D02*
D03*
X350500D02*
D03*
Y559500D02*
D03*
X399500Y528500D02*
D03*
X350500D02*
D03*
Y495500D02*
D03*
X399500Y464500D02*
D03*
X350500D02*
D03*
Y431500D02*
D03*
X399500Y400500D02*
D03*
X350500D02*
D03*
Y367500D02*
D03*
X399500Y336500D02*
D03*
X350500D02*
D03*
Y303500D02*
D03*
X399500Y272500D02*
D03*
X350500D02*
D03*
Y239500D02*
D03*
X399500Y208500D02*
D03*
X350500D02*
D03*
Y175500D02*
D03*
Y111500D02*
D03*
X399500Y144500D02*
D03*
X549500Y815500D02*
D03*
Y751500D02*
D03*
Y687500D02*
D03*
Y623500D02*
D03*
Y559500D02*
D03*
Y495500D02*
D03*
Y431500D02*
D03*
Y367500D02*
D03*
Y303500D02*
D03*
Y239500D02*
D03*
Y175500D02*
D03*
Y111500D02*
D03*
X500500Y144500D02*
D03*
X549500Y848500D02*
D03*
X500500D02*
D03*
Y815500D02*
D03*
X549500Y784500D02*
D03*
X500500D02*
D03*
Y751500D02*
D03*
X549500Y720500D02*
D03*
X500500D02*
D03*
Y687500D02*
D03*
X549500Y656500D02*
D03*
X500500D02*
D03*
Y623500D02*
D03*
X549500Y592500D02*
D03*
X500500D02*
D03*
Y559500D02*
D03*
X549500Y528500D02*
D03*
X500500D02*
D03*
Y495500D02*
D03*
X549500Y464500D02*
D03*
X500500D02*
D03*
Y431500D02*
D03*
X549500Y400500D02*
D03*
X500500D02*
D03*
Y367500D02*
D03*
X549500Y336500D02*
D03*
X500500D02*
D03*
Y303500D02*
D03*
X549500Y272500D02*
D03*
X500500D02*
D03*
Y239500D02*
D03*
X549500Y208500D02*
D03*
X500500D02*
D03*
Y175500D02*
D03*
Y111500D02*
D03*
X549500Y144500D02*
D03*
X699500Y815500D02*
D03*
Y751500D02*
D03*
Y687500D02*
D03*
Y623500D02*
D03*
Y559500D02*
D03*
Y495500D02*
D03*
Y431500D02*
D03*
Y367500D02*
D03*
Y303500D02*
D03*
Y239500D02*
D03*
Y175500D02*
D03*
Y111500D02*
D03*
X650500Y144500D02*
D03*
X699500Y848500D02*
D03*
X650500D02*
D03*
Y815500D02*
D03*
X699500Y784500D02*
D03*
X650500D02*
D03*
Y751500D02*
D03*
X699500Y720500D02*
D03*
X650500D02*
D03*
Y687500D02*
D03*
X699500Y656500D02*
D03*
X650500D02*
D03*
Y623500D02*
D03*
X699500Y592500D02*
D03*
X650500D02*
D03*
Y559500D02*
D03*
X699500Y528500D02*
D03*
X650500D02*
D03*
Y495500D02*
D03*
X699500Y464500D02*
D03*
X650500D02*
D03*
Y431500D02*
D03*
X699500Y400500D02*
D03*
X650500D02*
D03*
Y367500D02*
D03*
X699500Y336500D02*
D03*
X650500D02*
D03*
Y303500D02*
D03*
X699500Y272500D02*
D03*
X650500D02*
D03*
Y239500D02*
D03*
X699500Y208500D02*
D03*
X650500D02*
D03*
Y175500D02*
D03*
Y111500D02*
D03*
X699500Y144500D02*
D03*
X849500Y815500D02*
D03*
Y751500D02*
D03*
Y687500D02*
D03*
Y623500D02*
D03*
Y559500D02*
D03*
Y495500D02*
D03*
Y431500D02*
D03*
Y367500D02*
D03*
Y303500D02*
D03*
Y239500D02*
D03*
Y175500D02*
D03*
Y111500D02*
D03*
X800500Y144500D02*
D03*
X849500Y848500D02*
D03*
X800500D02*
D03*
Y815500D02*
D03*
X849500Y784500D02*
D03*
X800500D02*
D03*
Y751500D02*
D03*
X849500Y720500D02*
D03*
X800500D02*
D03*
Y687500D02*
D03*
X849500Y656500D02*
D03*
X800500D02*
D03*
Y623500D02*
D03*
X849500Y592500D02*
D03*
X800500D02*
D03*
Y559500D02*
D03*
X849500Y528500D02*
D03*
X800500D02*
D03*
Y495500D02*
D03*
X849500Y464500D02*
D03*
X800500D02*
D03*
Y431500D02*
D03*
X849500Y400500D02*
D03*
X800500D02*
D03*
Y367500D02*
D03*
X849500Y336500D02*
D03*
X800500D02*
D03*
Y303500D02*
D03*
X849500Y272500D02*
D03*
X800500D02*
D03*
Y239500D02*
D03*
X849500Y208500D02*
D03*
X800500D02*
D03*
Y175500D02*
D03*
Y111500D02*
D03*
X849500Y144500D02*
D03*
D29*
X137500Y933500D02*
D03*
Y923500D02*
D03*
X127500D02*
D03*
Y933500D02*
D03*
X137500Y913500D02*
D03*
X127500D02*
D03*
X12500Y933500D02*
D03*
Y923500D02*
D03*
X22500D02*
D03*
Y933500D02*
D03*
X12500Y913500D02*
D03*
X22500D02*
D03*
X137500Y26500D02*
D03*
Y36500D02*
D03*
X127500D02*
D03*
Y26500D02*
D03*
X137500Y46500D02*
D03*
X127500D02*
D03*
X12500Y26500D02*
D03*
Y36500D02*
D03*
X22500D02*
D03*
Y26500D02*
D03*
X12500Y46500D02*
D03*
X22500D02*
D03*
X287500Y933500D02*
D03*
Y923500D02*
D03*
X277500D02*
D03*
Y933500D02*
D03*
X287500Y913500D02*
D03*
X277500D02*
D03*
X162500Y933500D02*
D03*
Y923500D02*
D03*
X172500D02*
D03*
Y933500D02*
D03*
X162500Y913500D02*
D03*
X172500D02*
D03*
X287500Y26500D02*
D03*
Y36500D02*
D03*
X277500D02*
D03*
Y26500D02*
D03*
X287500Y46500D02*
D03*
X277500D02*
D03*
X162500Y26500D02*
D03*
Y36500D02*
D03*
X172500D02*
D03*
Y26500D02*
D03*
X162500Y46500D02*
D03*
X172500D02*
D03*
X437500Y933500D02*
D03*
Y923500D02*
D03*
X427500D02*
D03*
Y933500D02*
D03*
X437500Y913500D02*
D03*
X427500D02*
D03*
X312500Y933500D02*
D03*
Y923500D02*
D03*
X322500D02*
D03*
Y933500D02*
D03*
X312500Y913500D02*
D03*
X322500D02*
D03*
X437500Y26500D02*
D03*
Y36500D02*
D03*
X427500D02*
D03*
Y26500D02*
D03*
X437500Y46500D02*
D03*
X427500D02*
D03*
X312500Y26500D02*
D03*
Y36500D02*
D03*
X322500D02*
D03*
Y26500D02*
D03*
X312500Y46500D02*
D03*
X322500D02*
D03*
X587500Y933500D02*
D03*
Y923500D02*
D03*
X577500D02*
D03*
Y933500D02*
D03*
X587500Y913500D02*
D03*
X577500D02*
D03*
X462500Y933500D02*
D03*
Y923500D02*
D03*
X472500D02*
D03*
Y933500D02*
D03*
X462500Y913500D02*
D03*
X472500D02*
D03*
X587500Y26500D02*
D03*
Y36500D02*
D03*
X577500D02*
D03*
Y26500D02*
D03*
X587500Y46500D02*
D03*
X577500D02*
D03*
X462500Y26500D02*
D03*
Y36500D02*
D03*
X472500D02*
D03*
Y26500D02*
D03*
X462500Y46500D02*
D03*
X472500D02*
D03*
X737500Y933500D02*
D03*
Y923500D02*
D03*
X727500D02*
D03*
Y933500D02*
D03*
X737500Y913500D02*
D03*
X727500D02*
D03*
X612500Y933500D02*
D03*
Y923500D02*
D03*
X622500D02*
D03*
Y933500D02*
D03*
X612500Y913500D02*
D03*
X622500D02*
D03*
X737500Y26500D02*
D03*
Y36500D02*
D03*
X727500D02*
D03*
Y26500D02*
D03*
X737500Y46500D02*
D03*
X727500D02*
D03*
X612500Y26500D02*
D03*
Y36500D02*
D03*
X622500D02*
D03*
Y26500D02*
D03*
X612500Y46500D02*
D03*
X622500D02*
D03*
X887500Y933500D02*
D03*
Y923500D02*
D03*
X877500D02*
D03*
Y933500D02*
D03*
X887500Y913500D02*
D03*
X877500D02*
D03*
X762500Y933500D02*
D03*
Y923500D02*
D03*
X772500D02*
D03*
Y933500D02*
D03*
X762500Y913500D02*
D03*
X772500D02*
D03*
X887500Y26500D02*
D03*
Y36500D02*
D03*
X877500D02*
D03*
Y26500D02*
D03*
X887500Y46500D02*
D03*
X877500D02*
D03*
X762500Y26500D02*
D03*
Y36500D02*
D03*
X772500D02*
D03*
Y26500D02*
D03*
X762500Y46500D02*
D03*
X772500D02*
D03*
D30*
X36000Y78000D02*
D03*
X32000Y873000D02*
D03*
X138000Y63000D02*
D03*
X139000Y894000D02*
D03*
X107000Y873000D02*
D03*
X67000D02*
D03*
X63000Y88000D02*
D03*
X103000Y82000D02*
D03*
X186000Y78000D02*
D03*
X182000Y873000D02*
D03*
X288000Y63000D02*
D03*
X289000Y894000D02*
D03*
X257000Y873000D02*
D03*
X217000D02*
D03*
X213000Y88000D02*
D03*
X253000Y82000D02*
D03*
X336000Y78000D02*
D03*
X332000Y873000D02*
D03*
X438000Y63000D02*
D03*
X439000Y894000D02*
D03*
X407000Y873000D02*
D03*
X367000D02*
D03*
X363000Y88000D02*
D03*
X403000Y82000D02*
D03*
X486000Y78000D02*
D03*
X482000Y873000D02*
D03*
X588000Y63000D02*
D03*
X589000Y894000D02*
D03*
X557000Y873000D02*
D03*
X517000D02*
D03*
X513000Y88000D02*
D03*
X553000Y82000D02*
D03*
X636000Y78000D02*
D03*
X632000Y873000D02*
D03*
X738000Y63000D02*
D03*
X739000Y894000D02*
D03*
X707000Y873000D02*
D03*
X667000D02*
D03*
X663000Y88000D02*
D03*
X703000Y82000D02*
D03*
X786000Y78000D02*
D03*
X782000Y873000D02*
D03*
X888000Y63000D02*
D03*
X889000Y894000D02*
D03*
X857000Y873000D02*
D03*
X817000D02*
D03*
X813000Y88000D02*
D03*
X853000Y82000D02*
D03*
M02*
