G04*
G04 #@! TF.GenerationSoftware,Altium Limited,Altium Designer,21.7.2 (23)*
G04*
G04 Layer_Color=16711935*
%FSLAX44Y44*%
%MOMM*%
G71*
G04*
G04 #@! TF.SameCoordinates,347EBB59-7EAA-41E4-9BFB-609F0E12C0C3*
G04*
G04*
G04 #@! TF.FilePolarity,Negative*
G04*
G01*
G75*
%ADD23R,2.2000X3.2000*%
%ADD24C,2.2000*%
%ADD29C,1.1000*%
%ADD30C,1.0000*%
G36*
X1330000Y97000D02*
X1220000D01*
Y862000D01*
X1330000D01*
Y97000D01*
D02*
G37*
G36*
X1180000D02*
X1070000D01*
Y862000D01*
X1180000D01*
Y97000D01*
D02*
G37*
G36*
X1030000D02*
X920000D01*
Y862000D01*
X1030000D01*
Y97000D01*
D02*
G37*
G36*
X880000D02*
X770000D01*
Y862000D01*
X880000D01*
Y97000D01*
D02*
G37*
G36*
X730000D02*
X620000D01*
Y862000D01*
X730000D01*
Y97000D01*
D02*
G37*
G36*
X580000D02*
X470000D01*
Y862000D01*
X580000D01*
Y97000D01*
D02*
G37*
G36*
X430000D02*
X320000D01*
Y862000D01*
X430000D01*
Y97000D01*
D02*
G37*
G36*
X280000D02*
X170000D01*
Y862000D01*
X280000D01*
Y97000D01*
D02*
G37*
G36*
X130000D02*
X20000D01*
Y862000D01*
X130000D01*
Y97000D01*
D02*
G37*
D23*
X57500Y940500D02*
D03*
X92500D02*
D03*
X57500Y19500D02*
D03*
X92500D02*
D03*
X207500Y940500D02*
D03*
X242500D02*
D03*
X207500Y19500D02*
D03*
X242500D02*
D03*
X357500Y940500D02*
D03*
X392500D02*
D03*
X357500Y19500D02*
D03*
X392500D02*
D03*
X507500Y940500D02*
D03*
X542500D02*
D03*
X507500Y19500D02*
D03*
X542500D02*
D03*
X657500Y940500D02*
D03*
X692500D02*
D03*
X657500Y19500D02*
D03*
X692500D02*
D03*
X807500Y940500D02*
D03*
X842500D02*
D03*
X807500Y19500D02*
D03*
X842500D02*
D03*
X957500Y940500D02*
D03*
X992500D02*
D03*
X957500Y19500D02*
D03*
X992500D02*
D03*
X1107500Y940500D02*
D03*
X1142500D02*
D03*
X1107500Y19500D02*
D03*
X1142500D02*
D03*
X1257500Y940500D02*
D03*
X1292500D02*
D03*
X1257500Y19500D02*
D03*
X1292500D02*
D03*
D24*
X57500Y925500D02*
D03*
X92500D02*
D03*
X57500Y34500D02*
D03*
X92500D02*
D03*
X207500Y925500D02*
D03*
X242500D02*
D03*
X207500Y34500D02*
D03*
X242500D02*
D03*
X357500Y925500D02*
D03*
X392500D02*
D03*
X357500Y34500D02*
D03*
X392500D02*
D03*
X507500Y925500D02*
D03*
X542500D02*
D03*
X507500Y34500D02*
D03*
X542500D02*
D03*
X657500Y925500D02*
D03*
X692500D02*
D03*
X657500Y34500D02*
D03*
X692500D02*
D03*
X807500Y925500D02*
D03*
X842500D02*
D03*
X807500Y34500D02*
D03*
X842500D02*
D03*
X957500Y925500D02*
D03*
X992500D02*
D03*
X957500Y34500D02*
D03*
X992500D02*
D03*
X1107500Y925500D02*
D03*
X1142500D02*
D03*
X1107500Y34500D02*
D03*
X1142500D02*
D03*
X1257500Y925500D02*
D03*
X1292500D02*
D03*
X1257500Y34500D02*
D03*
X1292500D02*
D03*
D29*
X99500Y111500D02*
D03*
Y175500D02*
D03*
Y239500D02*
D03*
Y303500D02*
D03*
Y367500D02*
D03*
Y431500D02*
D03*
Y495500D02*
D03*
Y559500D02*
D03*
Y623500D02*
D03*
Y687500D02*
D03*
Y751500D02*
D03*
Y815500D02*
D03*
X50500Y144500D02*
D03*
X99500Y848500D02*
D03*
X50500D02*
D03*
Y815500D02*
D03*
X99500Y784500D02*
D03*
X50500D02*
D03*
Y751500D02*
D03*
X99500Y720500D02*
D03*
X50500D02*
D03*
Y687500D02*
D03*
X99500Y656500D02*
D03*
X50500D02*
D03*
Y623500D02*
D03*
X99500Y592500D02*
D03*
X50500D02*
D03*
Y559500D02*
D03*
X99500Y528500D02*
D03*
X50500D02*
D03*
Y495500D02*
D03*
X99500Y464500D02*
D03*
X50500D02*
D03*
Y431500D02*
D03*
X99500Y400500D02*
D03*
X50500D02*
D03*
Y367500D02*
D03*
X99500Y336500D02*
D03*
X50500D02*
D03*
Y303500D02*
D03*
X99500Y272500D02*
D03*
X50500D02*
D03*
Y239500D02*
D03*
X99500Y208500D02*
D03*
X50500D02*
D03*
Y175500D02*
D03*
Y111500D02*
D03*
X99500Y144500D02*
D03*
X249500Y111500D02*
D03*
Y175500D02*
D03*
Y239500D02*
D03*
Y303500D02*
D03*
Y367500D02*
D03*
Y431500D02*
D03*
Y495500D02*
D03*
Y559500D02*
D03*
Y623500D02*
D03*
Y687500D02*
D03*
Y751500D02*
D03*
Y815500D02*
D03*
X200500Y144500D02*
D03*
X249500Y848500D02*
D03*
X200500D02*
D03*
Y815500D02*
D03*
X249500Y784500D02*
D03*
X200500D02*
D03*
Y751500D02*
D03*
X249500Y720500D02*
D03*
X200500D02*
D03*
Y687500D02*
D03*
X249500Y656500D02*
D03*
X200500D02*
D03*
Y623500D02*
D03*
X249500Y592500D02*
D03*
X200500D02*
D03*
Y559500D02*
D03*
X249500Y528500D02*
D03*
X200500D02*
D03*
Y495500D02*
D03*
X249500Y464500D02*
D03*
X200500D02*
D03*
Y431500D02*
D03*
X249500Y400500D02*
D03*
X200500D02*
D03*
Y367500D02*
D03*
X249500Y336500D02*
D03*
X200500D02*
D03*
Y303500D02*
D03*
X249500Y272500D02*
D03*
X200500D02*
D03*
Y239500D02*
D03*
X249500Y208500D02*
D03*
X200500D02*
D03*
Y175500D02*
D03*
Y111500D02*
D03*
X249500Y144500D02*
D03*
X399500Y111500D02*
D03*
Y175500D02*
D03*
Y239500D02*
D03*
Y303500D02*
D03*
Y367500D02*
D03*
Y431500D02*
D03*
Y495500D02*
D03*
Y559500D02*
D03*
Y623500D02*
D03*
Y687500D02*
D03*
Y751500D02*
D03*
Y815500D02*
D03*
X350500Y144500D02*
D03*
X399500Y848500D02*
D03*
X350500D02*
D03*
Y815500D02*
D03*
X399500Y784500D02*
D03*
X350500D02*
D03*
Y751500D02*
D03*
X399500Y720500D02*
D03*
X350500D02*
D03*
Y687500D02*
D03*
X399500Y656500D02*
D03*
X350500D02*
D03*
Y623500D02*
D03*
X399500Y592500D02*
D03*
X350500D02*
D03*
Y559500D02*
D03*
X399500Y528500D02*
D03*
X350500D02*
D03*
Y495500D02*
D03*
X399500Y464500D02*
D03*
X350500D02*
D03*
Y431500D02*
D03*
X399500Y400500D02*
D03*
X350500D02*
D03*
Y367500D02*
D03*
X399500Y336500D02*
D03*
X350500D02*
D03*
Y303500D02*
D03*
X399500Y272500D02*
D03*
X350500D02*
D03*
Y239500D02*
D03*
X399500Y208500D02*
D03*
X350500D02*
D03*
Y175500D02*
D03*
Y111500D02*
D03*
X399500Y144500D02*
D03*
X549500Y111500D02*
D03*
Y175500D02*
D03*
Y239500D02*
D03*
Y303500D02*
D03*
Y367500D02*
D03*
Y431500D02*
D03*
Y495500D02*
D03*
Y559500D02*
D03*
Y623500D02*
D03*
Y687500D02*
D03*
Y751500D02*
D03*
Y815500D02*
D03*
X500500Y144500D02*
D03*
X549500Y848500D02*
D03*
X500500D02*
D03*
Y815500D02*
D03*
X549500Y784500D02*
D03*
X500500D02*
D03*
Y751500D02*
D03*
X549500Y720500D02*
D03*
X500500D02*
D03*
Y687500D02*
D03*
X549500Y656500D02*
D03*
X500500D02*
D03*
Y623500D02*
D03*
X549500Y592500D02*
D03*
X500500D02*
D03*
Y559500D02*
D03*
X549500Y528500D02*
D03*
X500500D02*
D03*
Y495500D02*
D03*
X549500Y464500D02*
D03*
X500500D02*
D03*
Y431500D02*
D03*
X549500Y400500D02*
D03*
X500500D02*
D03*
Y367500D02*
D03*
X549500Y336500D02*
D03*
X500500D02*
D03*
Y303500D02*
D03*
X549500Y272500D02*
D03*
X500500D02*
D03*
Y239500D02*
D03*
X549500Y208500D02*
D03*
X500500D02*
D03*
Y175500D02*
D03*
Y111500D02*
D03*
X549500Y144500D02*
D03*
X699500Y111500D02*
D03*
Y175500D02*
D03*
Y239500D02*
D03*
Y303500D02*
D03*
Y367500D02*
D03*
Y431500D02*
D03*
Y495500D02*
D03*
Y559500D02*
D03*
Y623500D02*
D03*
Y687500D02*
D03*
Y751500D02*
D03*
Y815500D02*
D03*
X650500Y144500D02*
D03*
X699500Y848500D02*
D03*
X650500D02*
D03*
Y815500D02*
D03*
X699500Y784500D02*
D03*
X650500D02*
D03*
Y751500D02*
D03*
X699500Y720500D02*
D03*
X650500D02*
D03*
Y687500D02*
D03*
X699500Y656500D02*
D03*
X650500D02*
D03*
Y623500D02*
D03*
X699500Y592500D02*
D03*
X650500D02*
D03*
Y559500D02*
D03*
X699500Y528500D02*
D03*
X650500D02*
D03*
Y495500D02*
D03*
X699500Y464500D02*
D03*
X650500D02*
D03*
Y431500D02*
D03*
X699500Y400500D02*
D03*
X650500D02*
D03*
Y367500D02*
D03*
X699500Y336500D02*
D03*
X650500D02*
D03*
Y303500D02*
D03*
X699500Y272500D02*
D03*
X650500D02*
D03*
Y239500D02*
D03*
X699500Y208500D02*
D03*
X650500D02*
D03*
Y175500D02*
D03*
Y111500D02*
D03*
X699500Y144500D02*
D03*
X849500Y111500D02*
D03*
Y175500D02*
D03*
Y239500D02*
D03*
Y303500D02*
D03*
Y367500D02*
D03*
Y431500D02*
D03*
Y495500D02*
D03*
Y559500D02*
D03*
Y623500D02*
D03*
Y687500D02*
D03*
Y751500D02*
D03*
Y815500D02*
D03*
X800500Y144500D02*
D03*
X849500Y848500D02*
D03*
X800500D02*
D03*
Y815500D02*
D03*
X849500Y784500D02*
D03*
X800500D02*
D03*
Y751500D02*
D03*
X849500Y720500D02*
D03*
X800500D02*
D03*
Y687500D02*
D03*
X849500Y656500D02*
D03*
X800500D02*
D03*
Y623500D02*
D03*
X849500Y592500D02*
D03*
X800500D02*
D03*
Y559500D02*
D03*
X849500Y528500D02*
D03*
X800500D02*
D03*
Y495500D02*
D03*
X849500Y464500D02*
D03*
X800500D02*
D03*
Y431500D02*
D03*
X849500Y400500D02*
D03*
X800500D02*
D03*
Y367500D02*
D03*
X849500Y336500D02*
D03*
X800500D02*
D03*
Y303500D02*
D03*
X849500Y272500D02*
D03*
X800500D02*
D03*
Y239500D02*
D03*
X849500Y208500D02*
D03*
X800500D02*
D03*
Y175500D02*
D03*
Y111500D02*
D03*
X849500Y144500D02*
D03*
X999500Y111500D02*
D03*
Y175500D02*
D03*
Y239500D02*
D03*
Y303500D02*
D03*
Y367500D02*
D03*
Y431500D02*
D03*
Y495500D02*
D03*
Y559500D02*
D03*
Y623500D02*
D03*
Y687500D02*
D03*
Y751500D02*
D03*
Y815500D02*
D03*
X950500Y144500D02*
D03*
X999500Y848500D02*
D03*
X950500D02*
D03*
Y815500D02*
D03*
X999500Y784500D02*
D03*
X950500D02*
D03*
Y751500D02*
D03*
X999500Y720500D02*
D03*
X950500D02*
D03*
Y687500D02*
D03*
X999500Y656500D02*
D03*
X950500D02*
D03*
Y623500D02*
D03*
X999500Y592500D02*
D03*
X950500D02*
D03*
Y559500D02*
D03*
X999500Y528500D02*
D03*
X950500D02*
D03*
Y495500D02*
D03*
X999500Y464500D02*
D03*
X950500D02*
D03*
Y431500D02*
D03*
X999500Y400500D02*
D03*
X950500D02*
D03*
Y367500D02*
D03*
X999500Y336500D02*
D03*
X950500D02*
D03*
Y303500D02*
D03*
X999500Y272500D02*
D03*
X950500D02*
D03*
Y239500D02*
D03*
X999500Y208500D02*
D03*
X950500D02*
D03*
Y175500D02*
D03*
Y111500D02*
D03*
X999500Y144500D02*
D03*
X1149500Y111500D02*
D03*
Y175500D02*
D03*
Y239500D02*
D03*
Y303500D02*
D03*
Y367500D02*
D03*
Y431500D02*
D03*
Y495500D02*
D03*
Y559500D02*
D03*
Y623500D02*
D03*
Y687500D02*
D03*
Y751500D02*
D03*
Y815500D02*
D03*
X1100500Y144500D02*
D03*
X1149500Y848500D02*
D03*
X1100500D02*
D03*
Y815500D02*
D03*
X1149500Y784500D02*
D03*
X1100500D02*
D03*
Y751500D02*
D03*
X1149500Y720500D02*
D03*
X1100500D02*
D03*
Y687500D02*
D03*
X1149500Y656500D02*
D03*
X1100500D02*
D03*
Y623500D02*
D03*
X1149500Y592500D02*
D03*
X1100500D02*
D03*
Y559500D02*
D03*
X1149500Y528500D02*
D03*
X1100500D02*
D03*
Y495500D02*
D03*
X1149500Y464500D02*
D03*
X1100500D02*
D03*
Y431500D02*
D03*
X1149500Y400500D02*
D03*
X1100500D02*
D03*
Y367500D02*
D03*
X1149500Y336500D02*
D03*
X1100500D02*
D03*
Y303500D02*
D03*
X1149500Y272500D02*
D03*
X1100500D02*
D03*
Y239500D02*
D03*
X1149500Y208500D02*
D03*
X1100500D02*
D03*
Y175500D02*
D03*
Y111500D02*
D03*
X1149500Y144500D02*
D03*
X1299500Y111500D02*
D03*
Y175500D02*
D03*
Y239500D02*
D03*
Y303500D02*
D03*
Y367500D02*
D03*
Y431500D02*
D03*
Y495500D02*
D03*
Y559500D02*
D03*
Y623500D02*
D03*
Y687500D02*
D03*
Y751500D02*
D03*
Y815500D02*
D03*
X1250500Y144500D02*
D03*
X1299500Y848500D02*
D03*
X1250500D02*
D03*
Y815500D02*
D03*
X1299500Y784500D02*
D03*
X1250500D02*
D03*
Y751500D02*
D03*
X1299500Y720500D02*
D03*
X1250500D02*
D03*
Y687500D02*
D03*
X1299500Y656500D02*
D03*
X1250500D02*
D03*
Y623500D02*
D03*
X1299500Y592500D02*
D03*
X1250500D02*
D03*
Y559500D02*
D03*
X1299500Y528500D02*
D03*
X1250500D02*
D03*
Y495500D02*
D03*
X1299500Y464500D02*
D03*
X1250500D02*
D03*
Y431500D02*
D03*
X1299500Y400500D02*
D03*
X1250500D02*
D03*
Y367500D02*
D03*
X1299500Y336500D02*
D03*
X1250500D02*
D03*
Y303500D02*
D03*
X1299500Y272500D02*
D03*
X1250500D02*
D03*
Y239500D02*
D03*
X1299500Y208500D02*
D03*
X1250500D02*
D03*
Y175500D02*
D03*
Y111500D02*
D03*
X1299500Y144500D02*
D03*
D30*
X103000Y82000D02*
D03*
X63000Y88000D02*
D03*
X67000Y873000D02*
D03*
X107000D02*
D03*
X139000Y894000D02*
D03*
X138000Y63000D02*
D03*
X32000Y873000D02*
D03*
X36000Y78000D02*
D03*
X253000Y82000D02*
D03*
X213000Y88000D02*
D03*
X217000Y873000D02*
D03*
X257000D02*
D03*
X289000Y894000D02*
D03*
X288000Y63000D02*
D03*
X182000Y873000D02*
D03*
X186000Y78000D02*
D03*
X403000Y82000D02*
D03*
X363000Y88000D02*
D03*
X367000Y873000D02*
D03*
X407000D02*
D03*
X439000Y894000D02*
D03*
X438000Y63000D02*
D03*
X332000Y873000D02*
D03*
X336000Y78000D02*
D03*
X553000Y82000D02*
D03*
X513000Y88000D02*
D03*
X517000Y873000D02*
D03*
X557000D02*
D03*
X589000Y894000D02*
D03*
X588000Y63000D02*
D03*
X482000Y873000D02*
D03*
X486000Y78000D02*
D03*
X703000Y82000D02*
D03*
X663000Y88000D02*
D03*
X667000Y873000D02*
D03*
X707000D02*
D03*
X739000Y894000D02*
D03*
X738000Y63000D02*
D03*
X632000Y873000D02*
D03*
X636000Y78000D02*
D03*
X853000Y82000D02*
D03*
X813000Y88000D02*
D03*
X817000Y873000D02*
D03*
X857000D02*
D03*
X889000Y894000D02*
D03*
X888000Y63000D02*
D03*
X782000Y873000D02*
D03*
X786000Y78000D02*
D03*
X1003000Y82000D02*
D03*
X963000Y88000D02*
D03*
X967000Y873000D02*
D03*
X1007000D02*
D03*
X1039000Y894000D02*
D03*
X1038000Y63000D02*
D03*
X932000Y873000D02*
D03*
X936000Y78000D02*
D03*
X1153000Y82000D02*
D03*
X1113000Y88000D02*
D03*
X1117000Y873000D02*
D03*
X1157000D02*
D03*
X1189000Y894000D02*
D03*
X1188000Y63000D02*
D03*
X1082000Y873000D02*
D03*
X1086000Y78000D02*
D03*
X1303000Y82000D02*
D03*
X1263000Y88000D02*
D03*
X1267000Y873000D02*
D03*
X1307000D02*
D03*
X1339000Y894000D02*
D03*
X1338000Y63000D02*
D03*
X1232000Y873000D02*
D03*
X1236000Y78000D02*
D03*
M02*
