G04*
G04 #@! TF.GenerationSoftware,Altium Limited,Altium Designer,21.7.2 (23)*
G04*
G04 Layer_Color=65535*
%FSLAX44Y44*%
%MOMM*%
G71*
G04*
G04 #@! TF.SameCoordinates,4EA3E7D4-8FC9-4B51-A035-DBAEA2916729*
G04*
G04*
G04 #@! TF.FilePolarity,Positive*
G04*
G01*
G75*
%ADD21C,0.2500*%
%ADD22C,0.2000*%
D21*
X48250Y144500D02*
G03*
X48250Y144500I-1250J0D01*
G01*
Y848500D02*
G03*
X48250Y848500I-1250J0D01*
G01*
Y528500D02*
G03*
X48250Y528500I-1250J0D01*
G01*
Y464500D02*
G03*
X48250Y464500I-1250J0D01*
G01*
Y400500D02*
G03*
X48250Y400500I-1250J0D01*
G01*
Y592500D02*
G03*
X48250Y592500I-1250J0D01*
G01*
Y336500D02*
G03*
X48250Y336500I-1250J0D01*
G01*
Y720500D02*
G03*
X48250Y720500I-1250J0D01*
G01*
Y656500D02*
G03*
X48250Y656500I-1250J0D01*
G01*
Y784500D02*
G03*
X48250Y784500I-1250J0D01*
G01*
Y208500D02*
G03*
X48250Y208500I-1250J0D01*
G01*
Y272500D02*
G03*
X48250Y272500I-1250J0D01*
G01*
X135005Y199500D02*
Y204498D01*
Y201999D01*
X150000D01*
Y199500D01*
Y204498D01*
Y211996D02*
Y216994D01*
Y214495D01*
X135005D01*
Y211996D01*
X150000Y226991D02*
Y231989D01*
X147501Y234489D01*
X142502D01*
X140003Y231989D01*
Y226991D01*
X142502Y224492D01*
X147501D01*
X150000Y226991D01*
X140003Y239487D02*
X150000D01*
X145002D01*
X142502Y241986D01*
X140003Y244485D01*
Y246985D01*
X135005Y254482D02*
X150000D01*
Y261980D01*
X147501Y264479D01*
X137504D01*
X135005Y261980D01*
Y254482D01*
X140003Y271977D02*
Y276975D01*
X142502Y279474D01*
X150000D01*
Y271977D01*
X147501Y269477D01*
X145002Y271977D01*
Y279474D01*
X150000Y284473D02*
Y291970D01*
X147501Y294469D01*
X145002Y291970D01*
Y286972D01*
X142502Y284473D01*
X140003Y286972D01*
Y294469D01*
X135005Y299468D02*
X150000D01*
X142502D01*
X140003Y301967D01*
Y306965D01*
X142502Y309464D01*
X150000D01*
X135005Y329458D02*
X150000D01*
X142502D01*
Y339455D01*
X135005D01*
X150000D01*
Y344453D02*
X140003D01*
X135005Y349451D01*
X140003Y354450D01*
X150000D01*
X142502D01*
Y344453D01*
X147501Y369445D02*
X137504D01*
X135005Y366946D01*
Y361947D01*
X137504Y359448D01*
X147501D01*
X150000Y361947D01*
Y366946D01*
X145002Y364447D02*
X150000Y369445D01*
Y366946D02*
X147501Y369445D01*
X140003Y374443D02*
X147501D01*
X150000Y376943D01*
Y384440D01*
X140003D01*
X135005Y389439D02*
X150000D01*
Y396936D01*
X147501Y399435D01*
X137504D01*
X135005Y396936D01*
Y389439D01*
X150000Y404434D02*
X140003D01*
X135005Y409432D01*
X140003Y414430D01*
X150000D01*
X142502D01*
Y404434D01*
X135005Y434424D02*
X150000D01*
X145002Y439422D01*
X150000Y444421D01*
X135005D01*
X137504Y459416D02*
X135005Y456917D01*
Y451918D01*
X137504Y449419D01*
X140003D01*
X142502Y451918D01*
Y456917D01*
X145002Y459416D01*
X147501D01*
X150000Y456917D01*
Y451918D01*
X147501Y449419D01*
X150000Y474411D02*
Y464414D01*
X140003Y474411D01*
X137504D01*
X135005Y471912D01*
Y466913D01*
X137504Y464414D01*
Y479409D02*
X135005Y481909D01*
Y486907D01*
X137504Y489406D01*
X140003D01*
X142502Y486907D01*
X145002Y489406D01*
X147501D01*
X150000Y486907D01*
Y481909D01*
X147501Y479409D01*
X145002D01*
X142502Y481909D01*
X140003Y479409D01*
X137504D01*
X142502Y481909D02*
Y486907D01*
X150000Y494404D02*
Y499403D01*
Y496904D01*
X135005D01*
X137504Y494404D01*
X150000Y516897D02*
Y506900D01*
X140003Y516897D01*
X137504D01*
X135005Y514398D01*
Y509400D01*
X137504Y506900D01*
X135005Y536891D02*
X150000D01*
Y546888D01*
X135005Y561883D02*
Y551886D01*
X150000D01*
Y561883D01*
X142502Y551886D02*
Y556884D01*
X135005Y566881D02*
X150000D01*
Y574379D01*
X147501Y576878D01*
X137504D01*
X135005Y574379D01*
Y566881D01*
X150000Y581876D02*
Y589374D01*
X147501Y591873D01*
X145002Y589374D01*
Y584375D01*
X142502Y581876D01*
X140003Y584375D01*
Y591873D01*
X150000Y611866D02*
X135005D01*
Y619364D01*
X137504Y621863D01*
X142502D01*
X145002Y619364D01*
Y611866D01*
X137504Y636858D02*
X135005Y634359D01*
Y629361D01*
X137504Y626862D01*
X147501D01*
X150000Y629361D01*
Y634359D01*
X147501Y636858D01*
X135005Y641857D02*
X150000D01*
Y649354D01*
X147501Y651853D01*
X145002D01*
X142502Y649354D01*
Y641857D01*
Y649354D01*
X140003Y651853D01*
X137504D01*
X135005Y649354D01*
Y641857D01*
X137504Y681844D02*
X135005Y679345D01*
Y674346D01*
X137504Y671847D01*
X140003D01*
X142502Y674346D01*
Y679345D01*
X145002Y681844D01*
X147501D01*
X150000Y679345D01*
Y674346D01*
X147501Y671847D01*
X137504Y689341D02*
X140003D01*
Y686842D01*
Y691841D01*
Y689341D01*
X147501D01*
X150000Y691841D01*
X140003Y701837D02*
Y706836D01*
X142502Y709335D01*
X150000D01*
Y701837D01*
X147501Y699338D01*
X145002Y701837D01*
Y709335D01*
X140003Y724330D02*
Y716833D01*
X142502Y714333D01*
X147501D01*
X150000Y716833D01*
Y724330D01*
Y729329D02*
X135005D01*
X145002D02*
X140003Y736826D01*
X145002Y729329D02*
X150000Y736826D01*
X213250Y144500D02*
G03*
X213250Y144500I-1250J0D01*
G01*
Y848500D02*
G03*
X213250Y848500I-1250J0D01*
G01*
Y528500D02*
G03*
X213250Y528500I-1250J0D01*
G01*
Y464500D02*
G03*
X213250Y464500I-1250J0D01*
G01*
Y400500D02*
G03*
X213250Y400500I-1250J0D01*
G01*
Y592500D02*
G03*
X213250Y592500I-1250J0D01*
G01*
Y336500D02*
G03*
X213250Y336500I-1250J0D01*
G01*
Y720500D02*
G03*
X213250Y720500I-1250J0D01*
G01*
Y656500D02*
G03*
X213250Y656500I-1250J0D01*
G01*
Y784500D02*
G03*
X213250Y784500I-1250J0D01*
G01*
Y208500D02*
G03*
X213250Y208500I-1250J0D01*
G01*
Y272500D02*
G03*
X213250Y272500I-1250J0D01*
G01*
X300005Y199500D02*
Y204498D01*
Y201999D01*
X315000D01*
Y199500D01*
Y204498D01*
Y211996D02*
Y216994D01*
Y214495D01*
X300005D01*
Y211996D01*
X315000Y226991D02*
Y231989D01*
X312501Y234489D01*
X307502D01*
X305003Y231989D01*
Y226991D01*
X307502Y224492D01*
X312501D01*
X315000Y226991D01*
X305003Y239487D02*
X315000D01*
X310002D01*
X307502Y241986D01*
X305003Y244485D01*
Y246985D01*
X300005Y254482D02*
X315000D01*
Y261980D01*
X312501Y264479D01*
X302504D01*
X300005Y261980D01*
Y254482D01*
X305003Y271977D02*
Y276975D01*
X307502Y279474D01*
X315000D01*
Y271977D01*
X312501Y269477D01*
X310002Y271977D01*
Y279474D01*
X315000Y284473D02*
Y291970D01*
X312501Y294469D01*
X310002Y291970D01*
Y286972D01*
X307502Y284473D01*
X305003Y286972D01*
Y294469D01*
X300005Y299468D02*
X315000D01*
X307502D01*
X305003Y301967D01*
Y306965D01*
X307502Y309464D01*
X315000D01*
X300005Y329458D02*
X315000D01*
X307502D01*
Y339455D01*
X300005D01*
X315000D01*
Y344453D02*
X305003D01*
X300005Y349451D01*
X305003Y354450D01*
X315000D01*
X307502D01*
Y344453D01*
X312501Y369445D02*
X302504D01*
X300005Y366946D01*
Y361947D01*
X302504Y359448D01*
X312501D01*
X315000Y361947D01*
Y366946D01*
X310002Y364447D02*
X315000Y369445D01*
Y366946D02*
X312501Y369445D01*
X305003Y374443D02*
X312501D01*
X315000Y376943D01*
Y384440D01*
X305003D01*
X300005Y389439D02*
X315000D01*
Y396936D01*
X312501Y399435D01*
X302504D01*
X300005Y396936D01*
Y389439D01*
X315000Y404434D02*
X305003D01*
X300005Y409432D01*
X305003Y414430D01*
X315000D01*
X307502D01*
Y404434D01*
X300005Y434424D02*
X315000D01*
X310002Y439422D01*
X315000Y444421D01*
X300005D01*
X302504Y459416D02*
X300005Y456917D01*
Y451918D01*
X302504Y449419D01*
X305003D01*
X307502Y451918D01*
Y456917D01*
X310002Y459416D01*
X312501D01*
X315000Y456917D01*
Y451918D01*
X312501Y449419D01*
X315000Y474411D02*
Y464414D01*
X305003Y474411D01*
X302504D01*
X300005Y471912D01*
Y466913D01*
X302504Y464414D01*
Y479409D02*
X300005Y481909D01*
Y486907D01*
X302504Y489406D01*
X305003D01*
X307502Y486907D01*
X310002Y489406D01*
X312501D01*
X315000Y486907D01*
Y481909D01*
X312501Y479409D01*
X310002D01*
X307502Y481909D01*
X305003Y479409D01*
X302504D01*
X307502Y481909D02*
Y486907D01*
X315000Y494404D02*
Y499403D01*
Y496904D01*
X300005D01*
X302504Y494404D01*
X315000Y516897D02*
Y506900D01*
X305003Y516897D01*
X302504D01*
X300005Y514398D01*
Y509400D01*
X302504Y506900D01*
X300005Y536891D02*
X315000D01*
Y546888D01*
X300005Y561883D02*
Y551886D01*
X315000D01*
Y561883D01*
X307502Y551886D02*
Y556884D01*
X300005Y566881D02*
X315000D01*
Y574379D01*
X312501Y576878D01*
X302504D01*
X300005Y574379D01*
Y566881D01*
X315000Y581876D02*
Y589374D01*
X312501Y591873D01*
X310002Y589374D01*
Y584375D01*
X307502Y581876D01*
X305003Y584375D01*
Y591873D01*
X315000Y611866D02*
X300005D01*
Y619364D01*
X302504Y621863D01*
X307502D01*
X310002Y619364D01*
Y611866D01*
X302504Y636858D02*
X300005Y634359D01*
Y629361D01*
X302504Y626862D01*
X312501D01*
X315000Y629361D01*
Y634359D01*
X312501Y636858D01*
X300005Y641857D02*
X315000D01*
Y649354D01*
X312501Y651853D01*
X310002D01*
X307502Y649354D01*
Y641857D01*
Y649354D01*
X305003Y651853D01*
X302504D01*
X300005Y649354D01*
Y641857D01*
X302504Y681844D02*
X300005Y679345D01*
Y674346D01*
X302504Y671847D01*
X305003D01*
X307502Y674346D01*
Y679345D01*
X310002Y681844D01*
X312501D01*
X315000Y679345D01*
Y674346D01*
X312501Y671847D01*
X302504Y689341D02*
X305003D01*
Y686842D01*
Y691841D01*
Y689341D01*
X312501D01*
X315000Y691841D01*
X305003Y701837D02*
Y706836D01*
X307502Y709335D01*
X315000D01*
Y701837D01*
X312501Y699338D01*
X310002Y701837D01*
Y709335D01*
X305003Y724330D02*
Y716833D01*
X307502Y714333D01*
X312501D01*
X315000Y716833D01*
Y724330D01*
Y729329D02*
X300005D01*
X310002D02*
X305003Y736826D01*
X310002Y729329D02*
X315000Y736826D01*
X378250Y144500D02*
G03*
X378250Y144500I-1250J0D01*
G01*
Y848500D02*
G03*
X378250Y848500I-1250J0D01*
G01*
Y528500D02*
G03*
X378250Y528500I-1250J0D01*
G01*
Y464500D02*
G03*
X378250Y464500I-1250J0D01*
G01*
Y400500D02*
G03*
X378250Y400500I-1250J0D01*
G01*
Y592500D02*
G03*
X378250Y592500I-1250J0D01*
G01*
Y336500D02*
G03*
X378250Y336500I-1250J0D01*
G01*
Y720500D02*
G03*
X378250Y720500I-1250J0D01*
G01*
Y656500D02*
G03*
X378250Y656500I-1250J0D01*
G01*
Y784500D02*
G03*
X378250Y784500I-1250J0D01*
G01*
Y208500D02*
G03*
X378250Y208500I-1250J0D01*
G01*
Y272500D02*
G03*
X378250Y272500I-1250J0D01*
G01*
X465005Y199500D02*
Y204498D01*
Y201999D01*
X480000D01*
Y199500D01*
Y204498D01*
Y211996D02*
Y216994D01*
Y214495D01*
X465005D01*
Y211996D01*
X480000Y226991D02*
Y231989D01*
X477501Y234489D01*
X472503D01*
X470003Y231989D01*
Y226991D01*
X472503Y224492D01*
X477501D01*
X480000Y226991D01*
X470003Y239487D02*
X480000D01*
X475002D01*
X472503Y241986D01*
X470003Y244485D01*
Y246985D01*
X465005Y254482D02*
X480000D01*
Y261980D01*
X477501Y264479D01*
X467504D01*
X465005Y261980D01*
Y254482D01*
X470003Y271977D02*
Y276975D01*
X472503Y279474D01*
X480000D01*
Y271977D01*
X477501Y269477D01*
X475002Y271977D01*
Y279474D01*
X480000Y284473D02*
Y291970D01*
X477501Y294469D01*
X475002Y291970D01*
Y286972D01*
X472503Y284473D01*
X470003Y286972D01*
Y294469D01*
X465005Y299468D02*
X480000D01*
X472503D01*
X470003Y301967D01*
Y306965D01*
X472503Y309464D01*
X480000D01*
X465005Y329458D02*
X480000D01*
X472503D01*
Y339455D01*
X465005D01*
X480000D01*
Y344453D02*
X470003D01*
X465005Y349451D01*
X470003Y354450D01*
X480000D01*
X472503D01*
Y344453D01*
X477501Y369445D02*
X467504D01*
X465005Y366946D01*
Y361947D01*
X467504Y359448D01*
X477501D01*
X480000Y361947D01*
Y366946D01*
X475002Y364447D02*
X480000Y369445D01*
Y366946D02*
X477501Y369445D01*
X470003Y374443D02*
X477501D01*
X480000Y376943D01*
Y384440D01*
X470003D01*
X465005Y389439D02*
X480000D01*
Y396936D01*
X477501Y399435D01*
X467504D01*
X465005Y396936D01*
Y389439D01*
X480000Y404434D02*
X470003D01*
X465005Y409432D01*
X470003Y414430D01*
X480000D01*
X472503D01*
Y404434D01*
X465005Y434424D02*
X480000D01*
X475002Y439422D01*
X480000Y444421D01*
X465005D01*
X467504Y459416D02*
X465005Y456917D01*
Y451918D01*
X467504Y449419D01*
X470003D01*
X472503Y451918D01*
Y456917D01*
X475002Y459416D01*
X477501D01*
X480000Y456917D01*
Y451918D01*
X477501Y449419D01*
X480000Y474411D02*
Y464414D01*
X470003Y474411D01*
X467504D01*
X465005Y471912D01*
Y466913D01*
X467504Y464414D01*
Y479409D02*
X465005Y481909D01*
Y486907D01*
X467504Y489406D01*
X470003D01*
X472503Y486907D01*
X475002Y489406D01*
X477501D01*
X480000Y486907D01*
Y481909D01*
X477501Y479409D01*
X475002D01*
X472503Y481909D01*
X470003Y479409D01*
X467504D01*
X472503Y481909D02*
Y486907D01*
X480000Y494404D02*
Y499403D01*
Y496904D01*
X465005D01*
X467504Y494404D01*
X480000Y516897D02*
Y506900D01*
X470003Y516897D01*
X467504D01*
X465005Y514398D01*
Y509400D01*
X467504Y506900D01*
X465005Y536891D02*
X480000D01*
Y546888D01*
X465005Y561883D02*
Y551886D01*
X480000D01*
Y561883D01*
X472503Y551886D02*
Y556884D01*
X465005Y566881D02*
X480000D01*
Y574379D01*
X477501Y576878D01*
X467504D01*
X465005Y574379D01*
Y566881D01*
X480000Y581876D02*
Y589374D01*
X477501Y591873D01*
X475002Y589374D01*
Y584375D01*
X472503Y581876D01*
X470003Y584375D01*
Y591873D01*
X480000Y611866D02*
X465005D01*
Y619364D01*
X467504Y621863D01*
X472503D01*
X475002Y619364D01*
Y611866D01*
X467504Y636858D02*
X465005Y634359D01*
Y629361D01*
X467504Y626862D01*
X477501D01*
X480000Y629361D01*
Y634359D01*
X477501Y636858D01*
X465005Y641857D02*
X480000D01*
Y649354D01*
X477501Y651853D01*
X475002D01*
X472503Y649354D01*
Y641857D01*
Y649354D01*
X470003Y651853D01*
X467504D01*
X465005Y649354D01*
Y641857D01*
X467504Y681844D02*
X465005Y679345D01*
Y674346D01*
X467504Y671847D01*
X470003D01*
X472503Y674346D01*
Y679345D01*
X475002Y681844D01*
X477501D01*
X480000Y679345D01*
Y674346D01*
X477501Y671847D01*
X467504Y689341D02*
X470003D01*
Y686842D01*
Y691841D01*
Y689341D01*
X477501D01*
X480000Y691841D01*
X470003Y701837D02*
Y706836D01*
X472503Y709335D01*
X480000D01*
Y701837D01*
X477501Y699338D01*
X475002Y701837D01*
Y709335D01*
X470003Y724330D02*
Y716833D01*
X472503Y714333D01*
X477501D01*
X480000Y716833D01*
Y724330D01*
Y729329D02*
X465005D01*
X475002D02*
X470003Y736826D01*
X475002Y729329D02*
X480000Y736826D01*
X543250Y144500D02*
G03*
X543250Y144500I-1250J0D01*
G01*
Y848500D02*
G03*
X543250Y848500I-1250J0D01*
G01*
Y528500D02*
G03*
X543250Y528500I-1250J0D01*
G01*
Y464500D02*
G03*
X543250Y464500I-1250J0D01*
G01*
Y400500D02*
G03*
X543250Y400500I-1250J0D01*
G01*
Y592500D02*
G03*
X543250Y592500I-1250J0D01*
G01*
Y336500D02*
G03*
X543250Y336500I-1250J0D01*
G01*
Y720500D02*
G03*
X543250Y720500I-1250J0D01*
G01*
Y656500D02*
G03*
X543250Y656500I-1250J0D01*
G01*
Y784500D02*
G03*
X543250Y784500I-1250J0D01*
G01*
Y208500D02*
G03*
X543250Y208500I-1250J0D01*
G01*
Y272500D02*
G03*
X543250Y272500I-1250J0D01*
G01*
X630005Y199500D02*
Y204498D01*
Y201999D01*
X645000D01*
Y199500D01*
Y204498D01*
Y211996D02*
Y216994D01*
Y214495D01*
X630005D01*
Y211996D01*
X645000Y226991D02*
Y231989D01*
X642501Y234489D01*
X637503D01*
X635003Y231989D01*
Y226991D01*
X637503Y224492D01*
X642501D01*
X645000Y226991D01*
X635003Y239487D02*
X645000D01*
X640002D01*
X637503Y241986D01*
X635003Y244485D01*
Y246985D01*
X630005Y254482D02*
X645000D01*
Y261980D01*
X642501Y264479D01*
X632504D01*
X630005Y261980D01*
Y254482D01*
X635003Y271977D02*
Y276975D01*
X637503Y279474D01*
X645000D01*
Y271977D01*
X642501Y269477D01*
X640002Y271977D01*
Y279474D01*
X645000Y284473D02*
Y291970D01*
X642501Y294469D01*
X640002Y291970D01*
Y286972D01*
X637503Y284473D01*
X635003Y286972D01*
Y294469D01*
X630005Y299468D02*
X645000D01*
X637503D01*
X635003Y301967D01*
Y306965D01*
X637503Y309464D01*
X645000D01*
X630005Y329458D02*
X645000D01*
X637503D01*
Y339455D01*
X630005D01*
X645000D01*
Y344453D02*
X635003D01*
X630005Y349451D01*
X635003Y354450D01*
X645000D01*
X637503D01*
Y344453D01*
X642501Y369445D02*
X632504D01*
X630005Y366946D01*
Y361947D01*
X632504Y359448D01*
X642501D01*
X645000Y361947D01*
Y366946D01*
X640002Y364447D02*
X645000Y369445D01*
Y366946D02*
X642501Y369445D01*
X635003Y374443D02*
X642501D01*
X645000Y376943D01*
Y384440D01*
X635003D01*
X630005Y389439D02*
X645000D01*
Y396936D01*
X642501Y399435D01*
X632504D01*
X630005Y396936D01*
Y389439D01*
X645000Y404434D02*
X635003D01*
X630005Y409432D01*
X635003Y414430D01*
X645000D01*
X637503D01*
Y404434D01*
X630005Y434424D02*
X645000D01*
X640002Y439422D01*
X645000Y444421D01*
X630005D01*
X632504Y459416D02*
X630005Y456917D01*
Y451918D01*
X632504Y449419D01*
X635003D01*
X637503Y451918D01*
Y456917D01*
X640002Y459416D01*
X642501D01*
X645000Y456917D01*
Y451918D01*
X642501Y449419D01*
X645000Y474411D02*
Y464414D01*
X635003Y474411D01*
X632504D01*
X630005Y471912D01*
Y466913D01*
X632504Y464414D01*
Y479409D02*
X630005Y481909D01*
Y486907D01*
X632504Y489406D01*
X635003D01*
X637503Y486907D01*
X640002Y489406D01*
X642501D01*
X645000Y486907D01*
Y481909D01*
X642501Y479409D01*
X640002D01*
X637503Y481909D01*
X635003Y479409D01*
X632504D01*
X637503Y481909D02*
Y486907D01*
X645000Y494404D02*
Y499403D01*
Y496904D01*
X630005D01*
X632504Y494404D01*
X645000Y516897D02*
Y506900D01*
X635003Y516897D01*
X632504D01*
X630005Y514398D01*
Y509400D01*
X632504Y506900D01*
X630005Y536891D02*
X645000D01*
Y546888D01*
X630005Y561883D02*
Y551886D01*
X645000D01*
Y561883D01*
X637503Y551886D02*
Y556884D01*
X630005Y566881D02*
X645000D01*
Y574379D01*
X642501Y576878D01*
X632504D01*
X630005Y574379D01*
Y566881D01*
X645000Y581876D02*
Y589374D01*
X642501Y591873D01*
X640002Y589374D01*
Y584375D01*
X637503Y581876D01*
X635003Y584375D01*
Y591873D01*
X645000Y611866D02*
X630005D01*
Y619364D01*
X632504Y621863D01*
X637503D01*
X640002Y619364D01*
Y611866D01*
X632504Y636858D02*
X630005Y634359D01*
Y629361D01*
X632504Y626862D01*
X642501D01*
X645000Y629361D01*
Y634359D01*
X642501Y636858D01*
X630005Y641857D02*
X645000D01*
Y649354D01*
X642501Y651853D01*
X640002D01*
X637503Y649354D01*
Y641857D01*
Y649354D01*
X635003Y651853D01*
X632504D01*
X630005Y649354D01*
Y641857D01*
X632504Y681844D02*
X630005Y679345D01*
Y674346D01*
X632504Y671847D01*
X635003D01*
X637503Y674346D01*
Y679345D01*
X640002Y681844D01*
X642501D01*
X645000Y679345D01*
Y674346D01*
X642501Y671847D01*
X632504Y689341D02*
X635003D01*
Y686842D01*
Y691841D01*
Y689341D01*
X642501D01*
X645000Y691841D01*
X635003Y701837D02*
Y706836D01*
X637503Y709335D01*
X645000D01*
Y701837D01*
X642501Y699338D01*
X640002Y701837D01*
Y709335D01*
X635003Y724330D02*
Y716833D01*
X637503Y714333D01*
X642501D01*
X645000Y716833D01*
Y724330D01*
Y729329D02*
X630005D01*
X640002D02*
X635003Y736826D01*
X640002Y729329D02*
X645000Y736826D01*
X708250Y144500D02*
G03*
X708250Y144500I-1250J0D01*
G01*
Y848500D02*
G03*
X708250Y848500I-1250J0D01*
G01*
Y528500D02*
G03*
X708250Y528500I-1250J0D01*
G01*
Y464500D02*
G03*
X708250Y464500I-1250J0D01*
G01*
Y400500D02*
G03*
X708250Y400500I-1250J0D01*
G01*
Y592500D02*
G03*
X708250Y592500I-1250J0D01*
G01*
Y336500D02*
G03*
X708250Y336500I-1250J0D01*
G01*
Y720500D02*
G03*
X708250Y720500I-1250J0D01*
G01*
Y656500D02*
G03*
X708250Y656500I-1250J0D01*
G01*
Y784500D02*
G03*
X708250Y784500I-1250J0D01*
G01*
Y208500D02*
G03*
X708250Y208500I-1250J0D01*
G01*
Y272500D02*
G03*
X708250Y272500I-1250J0D01*
G01*
X795005Y199500D02*
Y204498D01*
Y201999D01*
X810000D01*
Y199500D01*
Y204498D01*
Y211996D02*
Y216994D01*
Y214495D01*
X795005D01*
Y211996D01*
X810000Y226991D02*
Y231989D01*
X807501Y234489D01*
X802503D01*
X800003Y231989D01*
Y226991D01*
X802503Y224492D01*
X807501D01*
X810000Y226991D01*
X800003Y239487D02*
X810000D01*
X805002D01*
X802503Y241986D01*
X800003Y244485D01*
Y246985D01*
X795005Y254482D02*
X810000D01*
Y261980D01*
X807501Y264479D01*
X797504D01*
X795005Y261980D01*
Y254482D01*
X800003Y271977D02*
Y276975D01*
X802503Y279474D01*
X810000D01*
Y271977D01*
X807501Y269477D01*
X805002Y271977D01*
Y279474D01*
X810000Y284473D02*
Y291970D01*
X807501Y294469D01*
X805002Y291970D01*
Y286972D01*
X802503Y284473D01*
X800003Y286972D01*
Y294469D01*
X795005Y299468D02*
X810000D01*
X802503D01*
X800003Y301967D01*
Y306965D01*
X802503Y309464D01*
X810000D01*
X795005Y329458D02*
X810000D01*
X802503D01*
Y339455D01*
X795005D01*
X810000D01*
Y344453D02*
X800003D01*
X795005Y349451D01*
X800003Y354450D01*
X810000D01*
X802503D01*
Y344453D01*
X807501Y369445D02*
X797504D01*
X795005Y366946D01*
Y361947D01*
X797504Y359448D01*
X807501D01*
X810000Y361947D01*
Y366946D01*
X805002Y364447D02*
X810000Y369445D01*
Y366946D02*
X807501Y369445D01*
X800003Y374443D02*
X807501D01*
X810000Y376943D01*
Y384440D01*
X800003D01*
X795005Y389439D02*
X810000D01*
Y396936D01*
X807501Y399435D01*
X797504D01*
X795005Y396936D01*
Y389439D01*
X810000Y404434D02*
X800003D01*
X795005Y409432D01*
X800003Y414430D01*
X810000D01*
X802503D01*
Y404434D01*
X795005Y434424D02*
X810000D01*
X805002Y439422D01*
X810000Y444421D01*
X795005D01*
X797504Y459416D02*
X795005Y456917D01*
Y451918D01*
X797504Y449419D01*
X800003D01*
X802503Y451918D01*
Y456917D01*
X805002Y459416D01*
X807501D01*
X810000Y456917D01*
Y451918D01*
X807501Y449419D01*
X810000Y474411D02*
Y464414D01*
X800003Y474411D01*
X797504D01*
X795005Y471912D01*
Y466913D01*
X797504Y464414D01*
Y479409D02*
X795005Y481909D01*
Y486907D01*
X797504Y489406D01*
X800003D01*
X802503Y486907D01*
X805002Y489406D01*
X807501D01*
X810000Y486907D01*
Y481909D01*
X807501Y479409D01*
X805002D01*
X802503Y481909D01*
X800003Y479409D01*
X797504D01*
X802503Y481909D02*
Y486907D01*
X810000Y494404D02*
Y499403D01*
Y496904D01*
X795005D01*
X797504Y494404D01*
X810000Y516897D02*
Y506900D01*
X800003Y516897D01*
X797504D01*
X795005Y514398D01*
Y509400D01*
X797504Y506900D01*
X795005Y536891D02*
X810000D01*
Y546888D01*
X795005Y561883D02*
Y551886D01*
X810000D01*
Y561883D01*
X802503Y551886D02*
Y556884D01*
X795005Y566881D02*
X810000D01*
Y574379D01*
X807501Y576878D01*
X797504D01*
X795005Y574379D01*
Y566881D01*
X810000Y581876D02*
Y589374D01*
X807501Y591873D01*
X805002Y589374D01*
Y584375D01*
X802503Y581876D01*
X800003Y584375D01*
Y591873D01*
X810000Y611866D02*
X795005D01*
Y619364D01*
X797504Y621863D01*
X802503D01*
X805002Y619364D01*
Y611866D01*
X797504Y636858D02*
X795005Y634359D01*
Y629361D01*
X797504Y626862D01*
X807501D01*
X810000Y629361D01*
Y634359D01*
X807501Y636858D01*
X795005Y641857D02*
X810000D01*
Y649354D01*
X807501Y651853D01*
X805002D01*
X802503Y649354D01*
Y641857D01*
Y649354D01*
X800003Y651853D01*
X797504D01*
X795005Y649354D01*
Y641857D01*
X797504Y681844D02*
X795005Y679345D01*
Y674346D01*
X797504Y671847D01*
X800003D01*
X802503Y674346D01*
Y679345D01*
X805002Y681844D01*
X807501D01*
X810000Y679345D01*
Y674346D01*
X807501Y671847D01*
X797504Y689341D02*
X800003D01*
Y686842D01*
Y691841D01*
Y689341D01*
X807501D01*
X810000Y691841D01*
X800003Y701837D02*
Y706836D01*
X802503Y709335D01*
X810000D01*
Y701837D01*
X807501Y699338D01*
X805002Y701837D01*
Y709335D01*
X800003Y724330D02*
Y716833D01*
X802503Y714333D01*
X807501D01*
X810000Y716833D01*
Y724330D01*
Y729329D02*
X795005D01*
X805002D02*
X800003Y736826D01*
X805002Y729329D02*
X810000Y736826D01*
X873250Y144500D02*
G03*
X873250Y144500I-1250J0D01*
G01*
Y848500D02*
G03*
X873250Y848500I-1250J0D01*
G01*
Y528500D02*
G03*
X873250Y528500I-1250J0D01*
G01*
Y464500D02*
G03*
X873250Y464500I-1250J0D01*
G01*
Y400500D02*
G03*
X873250Y400500I-1250J0D01*
G01*
Y592500D02*
G03*
X873250Y592500I-1250J0D01*
G01*
Y336500D02*
G03*
X873250Y336500I-1250J0D01*
G01*
Y720500D02*
G03*
X873250Y720500I-1250J0D01*
G01*
Y656500D02*
G03*
X873250Y656500I-1250J0D01*
G01*
Y784500D02*
G03*
X873250Y784500I-1250J0D01*
G01*
Y208500D02*
G03*
X873250Y208500I-1250J0D01*
G01*
Y272500D02*
G03*
X873250Y272500I-1250J0D01*
G01*
X960005Y199500D02*
Y204498D01*
Y201999D01*
X975000D01*
Y199500D01*
Y204498D01*
Y211996D02*
Y216994D01*
Y214495D01*
X960005D01*
Y211996D01*
X975000Y226991D02*
Y231989D01*
X972501Y234489D01*
X967503D01*
X965003Y231989D01*
Y226991D01*
X967503Y224492D01*
X972501D01*
X975000Y226991D01*
X965003Y239487D02*
X975000D01*
X970002D01*
X967503Y241986D01*
X965003Y244485D01*
Y246985D01*
X960005Y254482D02*
X975000D01*
Y261980D01*
X972501Y264479D01*
X962504D01*
X960005Y261980D01*
Y254482D01*
X965003Y271977D02*
Y276975D01*
X967503Y279474D01*
X975000D01*
Y271977D01*
X972501Y269477D01*
X970002Y271977D01*
Y279474D01*
X975000Y284473D02*
Y291970D01*
X972501Y294469D01*
X970002Y291970D01*
Y286972D01*
X967503Y284473D01*
X965003Y286972D01*
Y294469D01*
X960005Y299468D02*
X975000D01*
X967503D01*
X965003Y301967D01*
Y306965D01*
X967503Y309464D01*
X975000D01*
X960005Y329458D02*
X975000D01*
X967503D01*
Y339455D01*
X960005D01*
X975000D01*
Y344453D02*
X965003D01*
X960005Y349451D01*
X965003Y354450D01*
X975000D01*
X967503D01*
Y344453D01*
X972501Y369445D02*
X962504D01*
X960005Y366946D01*
Y361947D01*
X962504Y359448D01*
X972501D01*
X975000Y361947D01*
Y366946D01*
X970002Y364447D02*
X975000Y369445D01*
Y366946D02*
X972501Y369445D01*
X965003Y374443D02*
X972501D01*
X975000Y376943D01*
Y384440D01*
X965003D01*
X960005Y389439D02*
X975000D01*
Y396936D01*
X972501Y399435D01*
X962504D01*
X960005Y396936D01*
Y389439D01*
X975000Y404434D02*
X965003D01*
X960005Y409432D01*
X965003Y414430D01*
X975000D01*
X967503D01*
Y404434D01*
X960005Y434424D02*
X975000D01*
X970002Y439422D01*
X975000Y444421D01*
X960005D01*
X962504Y459416D02*
X960005Y456917D01*
Y451918D01*
X962504Y449419D01*
X965003D01*
X967503Y451918D01*
Y456917D01*
X970002Y459416D01*
X972501D01*
X975000Y456917D01*
Y451918D01*
X972501Y449419D01*
X975000Y474411D02*
Y464414D01*
X965003Y474411D01*
X962504D01*
X960005Y471912D01*
Y466913D01*
X962504Y464414D01*
Y479409D02*
X960005Y481909D01*
Y486907D01*
X962504Y489406D01*
X965003D01*
X967503Y486907D01*
X970002Y489406D01*
X972501D01*
X975000Y486907D01*
Y481909D01*
X972501Y479409D01*
X970002D01*
X967503Y481909D01*
X965003Y479409D01*
X962504D01*
X967503Y481909D02*
Y486907D01*
X975000Y494404D02*
Y499403D01*
Y496904D01*
X960005D01*
X962504Y494404D01*
X975000Y516897D02*
Y506900D01*
X965003Y516897D01*
X962504D01*
X960005Y514398D01*
Y509400D01*
X962504Y506900D01*
X960005Y536891D02*
X975000D01*
Y546888D01*
X960005Y561883D02*
Y551886D01*
X975000D01*
Y561883D01*
X967503Y551886D02*
Y556884D01*
X960005Y566881D02*
X975000D01*
Y574379D01*
X972501Y576878D01*
X962504D01*
X960005Y574379D01*
Y566881D01*
X975000Y581876D02*
Y589374D01*
X972501Y591873D01*
X970002Y589374D01*
Y584375D01*
X967503Y581876D01*
X965003Y584375D01*
Y591873D01*
X975000Y611866D02*
X960005D01*
Y619364D01*
X962504Y621863D01*
X967503D01*
X970002Y619364D01*
Y611866D01*
X962504Y636858D02*
X960005Y634359D01*
Y629361D01*
X962504Y626862D01*
X972501D01*
X975000Y629361D01*
Y634359D01*
X972501Y636858D01*
X960005Y641857D02*
X975000D01*
Y649354D01*
X972501Y651853D01*
X970002D01*
X967503Y649354D01*
Y641857D01*
Y649354D01*
X965003Y651853D01*
X962504D01*
X960005Y649354D01*
Y641857D01*
X962504Y681844D02*
X960005Y679345D01*
Y674346D01*
X962504Y671847D01*
X965003D01*
X967503Y674346D01*
Y679345D01*
X970002Y681844D01*
X972501D01*
X975000Y679345D01*
Y674346D01*
X972501Y671847D01*
X962504Y689341D02*
X965003D01*
Y686842D01*
Y691841D01*
Y689341D01*
X972501D01*
X975000Y691841D01*
X965003Y701837D02*
Y706836D01*
X967503Y709335D01*
X975000D01*
Y701837D01*
X972501Y699338D01*
X970002Y701837D01*
Y709335D01*
X965003Y724330D02*
Y716833D01*
X967503Y714333D01*
X972501D01*
X975000Y716833D01*
Y724330D01*
Y729329D02*
X960005D01*
X970002D02*
X965003Y736826D01*
X970002Y729329D02*
X975000Y736826D01*
X1038250Y144500D02*
G03*
X1038250Y144500I-1250J0D01*
G01*
Y848500D02*
G03*
X1038250Y848500I-1250J0D01*
G01*
Y528500D02*
G03*
X1038250Y528500I-1250J0D01*
G01*
Y464500D02*
G03*
X1038250Y464500I-1250J0D01*
G01*
Y400500D02*
G03*
X1038250Y400500I-1250J0D01*
G01*
Y592500D02*
G03*
X1038250Y592500I-1250J0D01*
G01*
Y336500D02*
G03*
X1038250Y336500I-1250J0D01*
G01*
Y720500D02*
G03*
X1038250Y720500I-1250J0D01*
G01*
Y656500D02*
G03*
X1038250Y656500I-1250J0D01*
G01*
Y784500D02*
G03*
X1038250Y784500I-1250J0D01*
G01*
Y208500D02*
G03*
X1038250Y208500I-1250J0D01*
G01*
Y272500D02*
G03*
X1038250Y272500I-1250J0D01*
G01*
X1125005Y199500D02*
Y204498D01*
Y201999D01*
X1140000D01*
Y199500D01*
Y204498D01*
Y211996D02*
Y216994D01*
Y214495D01*
X1125005D01*
Y211996D01*
X1140000Y226991D02*
Y231989D01*
X1137501Y234489D01*
X1132503D01*
X1130003Y231989D01*
Y226991D01*
X1132503Y224492D01*
X1137501D01*
X1140000Y226991D01*
X1130003Y239487D02*
X1140000D01*
X1135002D01*
X1132503Y241986D01*
X1130003Y244485D01*
Y246985D01*
X1125005Y254482D02*
X1140000D01*
Y261980D01*
X1137501Y264479D01*
X1127504D01*
X1125005Y261980D01*
Y254482D01*
X1130003Y271977D02*
Y276975D01*
X1132503Y279474D01*
X1140000D01*
Y271977D01*
X1137501Y269477D01*
X1135002Y271977D01*
Y279474D01*
X1140000Y284473D02*
Y291970D01*
X1137501Y294469D01*
X1135002Y291970D01*
Y286972D01*
X1132503Y284473D01*
X1130003Y286972D01*
Y294469D01*
X1125005Y299468D02*
X1140000D01*
X1132503D01*
X1130003Y301967D01*
Y306965D01*
X1132503Y309464D01*
X1140000D01*
X1125005Y329458D02*
X1140000D01*
X1132503D01*
Y339455D01*
X1125005D01*
X1140000D01*
Y344453D02*
X1130003D01*
X1125005Y349451D01*
X1130003Y354450D01*
X1140000D01*
X1132503D01*
Y344453D01*
X1137501Y369445D02*
X1127504D01*
X1125005Y366946D01*
Y361947D01*
X1127504Y359448D01*
X1137501D01*
X1140000Y361947D01*
Y366946D01*
X1135002Y364447D02*
X1140000Y369445D01*
Y366946D02*
X1137501Y369445D01*
X1130003Y374443D02*
X1137501D01*
X1140000Y376943D01*
Y384440D01*
X1130003D01*
X1125005Y389439D02*
X1140000D01*
Y396936D01*
X1137501Y399435D01*
X1127504D01*
X1125005Y396936D01*
Y389439D01*
X1140000Y404434D02*
X1130003D01*
X1125005Y409432D01*
X1130003Y414430D01*
X1140000D01*
X1132503D01*
Y404434D01*
X1125005Y434424D02*
X1140000D01*
X1135002Y439422D01*
X1140000Y444421D01*
X1125005D01*
X1127504Y459416D02*
X1125005Y456917D01*
Y451918D01*
X1127504Y449419D01*
X1130003D01*
X1132503Y451918D01*
Y456917D01*
X1135002Y459416D01*
X1137501D01*
X1140000Y456917D01*
Y451918D01*
X1137501Y449419D01*
X1140000Y474411D02*
Y464414D01*
X1130003Y474411D01*
X1127504D01*
X1125005Y471912D01*
Y466913D01*
X1127504Y464414D01*
Y479409D02*
X1125005Y481909D01*
Y486907D01*
X1127504Y489406D01*
X1130003D01*
X1132503Y486907D01*
X1135002Y489406D01*
X1137501D01*
X1140000Y486907D01*
Y481909D01*
X1137501Y479409D01*
X1135002D01*
X1132503Y481909D01*
X1130003Y479409D01*
X1127504D01*
X1132503Y481909D02*
Y486907D01*
X1140000Y494404D02*
Y499403D01*
Y496904D01*
X1125005D01*
X1127504Y494404D01*
X1140000Y516897D02*
Y506900D01*
X1130003Y516897D01*
X1127504D01*
X1125005Y514398D01*
Y509400D01*
X1127504Y506900D01*
X1125005Y536891D02*
X1140000D01*
Y546888D01*
X1125005Y561883D02*
Y551886D01*
X1140000D01*
Y561883D01*
X1132503Y551886D02*
Y556884D01*
X1125005Y566881D02*
X1140000D01*
Y574379D01*
X1137501Y576878D01*
X1127504D01*
X1125005Y574379D01*
Y566881D01*
X1140000Y581876D02*
Y589374D01*
X1137501Y591873D01*
X1135002Y589374D01*
Y584375D01*
X1132503Y581876D01*
X1130003Y584375D01*
Y591873D01*
X1140000Y611866D02*
X1125005D01*
Y619364D01*
X1127504Y621863D01*
X1132503D01*
X1135002Y619364D01*
Y611866D01*
X1127504Y636858D02*
X1125005Y634359D01*
Y629361D01*
X1127504Y626862D01*
X1137501D01*
X1140000Y629361D01*
Y634359D01*
X1137501Y636858D01*
X1125005Y641857D02*
X1140000D01*
Y649354D01*
X1137501Y651853D01*
X1135002D01*
X1132503Y649354D01*
Y641857D01*
Y649354D01*
X1130003Y651853D01*
X1127504D01*
X1125005Y649354D01*
Y641857D01*
X1127504Y681844D02*
X1125005Y679345D01*
Y674346D01*
X1127504Y671847D01*
X1130003D01*
X1132503Y674346D01*
Y679345D01*
X1135002Y681844D01*
X1137501D01*
X1140000Y679345D01*
Y674346D01*
X1137501Y671847D01*
X1127504Y689341D02*
X1130003D01*
Y686842D01*
Y691841D01*
Y689341D01*
X1137501D01*
X1140000Y691841D01*
X1130003Y701837D02*
Y706836D01*
X1132503Y709335D01*
X1140000D01*
Y701837D01*
X1137501Y699338D01*
X1135002Y701837D01*
Y709335D01*
X1130003Y724330D02*
Y716833D01*
X1132503Y714333D01*
X1137501D01*
X1140000Y716833D01*
Y724330D01*
Y729329D02*
X1125005D01*
X1135002D02*
X1130003Y736826D01*
X1135002Y729329D02*
X1140000Y736826D01*
X1203250Y144500D02*
G03*
X1203250Y144500I-1250J0D01*
G01*
Y848500D02*
G03*
X1203250Y848500I-1250J0D01*
G01*
Y528500D02*
G03*
X1203250Y528500I-1250J0D01*
G01*
Y464500D02*
G03*
X1203250Y464500I-1250J0D01*
G01*
Y400500D02*
G03*
X1203250Y400500I-1250J0D01*
G01*
Y592500D02*
G03*
X1203250Y592500I-1250J0D01*
G01*
Y336500D02*
G03*
X1203250Y336500I-1250J0D01*
G01*
Y720500D02*
G03*
X1203250Y720500I-1250J0D01*
G01*
Y656500D02*
G03*
X1203250Y656500I-1250J0D01*
G01*
Y784500D02*
G03*
X1203250Y784500I-1250J0D01*
G01*
Y208500D02*
G03*
X1203250Y208500I-1250J0D01*
G01*
Y272500D02*
G03*
X1203250Y272500I-1250J0D01*
G01*
X1290005Y199500D02*
Y204498D01*
Y201999D01*
X1305000D01*
Y199500D01*
Y204498D01*
Y211996D02*
Y216994D01*
Y214495D01*
X1290005D01*
Y211996D01*
X1305000Y226991D02*
Y231989D01*
X1302501Y234489D01*
X1297502D01*
X1295003Y231989D01*
Y226991D01*
X1297502Y224492D01*
X1302501D01*
X1305000Y226991D01*
X1295003Y239487D02*
X1305000D01*
X1300002D01*
X1297502Y241986D01*
X1295003Y244485D01*
Y246985D01*
X1290005Y254482D02*
X1305000D01*
Y261980D01*
X1302501Y264479D01*
X1292504D01*
X1290005Y261980D01*
Y254482D01*
X1295003Y271977D02*
Y276975D01*
X1297502Y279474D01*
X1305000D01*
Y271977D01*
X1302501Y269477D01*
X1300002Y271977D01*
Y279474D01*
X1305000Y284473D02*
Y291970D01*
X1302501Y294469D01*
X1300002Y291970D01*
Y286972D01*
X1297502Y284473D01*
X1295003Y286972D01*
Y294469D01*
X1290005Y299468D02*
X1305000D01*
X1297502D01*
X1295003Y301967D01*
Y306965D01*
X1297502Y309464D01*
X1305000D01*
X1290005Y329458D02*
X1305000D01*
X1297502D01*
Y339455D01*
X1290005D01*
X1305000D01*
Y344453D02*
X1295003D01*
X1290005Y349451D01*
X1295003Y354450D01*
X1305000D01*
X1297502D01*
Y344453D01*
X1302501Y369445D02*
X1292504D01*
X1290005Y366946D01*
Y361947D01*
X1292504Y359448D01*
X1302501D01*
X1305000Y361947D01*
Y366946D01*
X1300002Y364447D02*
X1305000Y369445D01*
Y366946D02*
X1302501Y369445D01*
X1295003Y374443D02*
X1302501D01*
X1305000Y376943D01*
Y384440D01*
X1295003D01*
X1290005Y389439D02*
X1305000D01*
Y396936D01*
X1302501Y399435D01*
X1292504D01*
X1290005Y396936D01*
Y389439D01*
X1305000Y404434D02*
X1295003D01*
X1290005Y409432D01*
X1295003Y414430D01*
X1305000D01*
X1297502D01*
Y404434D01*
X1290005Y434424D02*
X1305000D01*
X1300002Y439422D01*
X1305000Y444421D01*
X1290005D01*
X1292504Y459416D02*
X1290005Y456917D01*
Y451918D01*
X1292504Y449419D01*
X1295003D01*
X1297502Y451918D01*
Y456917D01*
X1300002Y459416D01*
X1302501D01*
X1305000Y456917D01*
Y451918D01*
X1302501Y449419D01*
X1305000Y474411D02*
Y464414D01*
X1295003Y474411D01*
X1292504D01*
X1290005Y471912D01*
Y466913D01*
X1292504Y464414D01*
Y479409D02*
X1290005Y481909D01*
Y486907D01*
X1292504Y489406D01*
X1295003D01*
X1297502Y486907D01*
X1300002Y489406D01*
X1302501D01*
X1305000Y486907D01*
Y481909D01*
X1302501Y479409D01*
X1300002D01*
X1297502Y481909D01*
X1295003Y479409D01*
X1292504D01*
X1297502Y481909D02*
Y486907D01*
X1305000Y494404D02*
Y499403D01*
Y496904D01*
X1290005D01*
X1292504Y494404D01*
X1305000Y516897D02*
Y506900D01*
X1295003Y516897D01*
X1292504D01*
X1290005Y514398D01*
Y509400D01*
X1292504Y506900D01*
X1290005Y536891D02*
X1305000D01*
Y546888D01*
X1290005Y561883D02*
Y551886D01*
X1305000D01*
Y561883D01*
X1297502Y551886D02*
Y556884D01*
X1290005Y566881D02*
X1305000D01*
Y574379D01*
X1302501Y576878D01*
X1292504D01*
X1290005Y574379D01*
Y566881D01*
X1305000Y581876D02*
Y589374D01*
X1302501Y591873D01*
X1300002Y589374D01*
Y584375D01*
X1297502Y581876D01*
X1295003Y584375D01*
Y591873D01*
X1305000Y611866D02*
X1290005D01*
Y619364D01*
X1292504Y621863D01*
X1297502D01*
X1300002Y619364D01*
Y611866D01*
X1292504Y636858D02*
X1290005Y634359D01*
Y629361D01*
X1292504Y626862D01*
X1302501D01*
X1305000Y629361D01*
Y634359D01*
X1302501Y636858D01*
X1290005Y641857D02*
X1305000D01*
Y649354D01*
X1302501Y651853D01*
X1300002D01*
X1297502Y649354D01*
Y641857D01*
Y649354D01*
X1295003Y651853D01*
X1292504D01*
X1290005Y649354D01*
Y641857D01*
X1292504Y681844D02*
X1290005Y679345D01*
Y674346D01*
X1292504Y671847D01*
X1295003D01*
X1297502Y674346D01*
Y679345D01*
X1300002Y681844D01*
X1302501D01*
X1305000Y679345D01*
Y674346D01*
X1302501Y671847D01*
X1292504Y689341D02*
X1295003D01*
Y686842D01*
Y691841D01*
Y689341D01*
X1302501D01*
X1305000Y691841D01*
X1295003Y701837D02*
Y706836D01*
X1297502Y709335D01*
X1305000D01*
Y701837D01*
X1302501Y699338D01*
X1300002Y701837D01*
Y709335D01*
X1295003Y724330D02*
Y716833D01*
X1297502Y714333D01*
X1302501D01*
X1305000Y716833D01*
Y724330D01*
Y729329D02*
X1290005D01*
X1300002D02*
X1295003Y736826D01*
X1300002Y729329D02*
X1305000Y736826D01*
X1368250Y144500D02*
G03*
X1368250Y144500I-1250J0D01*
G01*
Y848500D02*
G03*
X1368250Y848500I-1250J0D01*
G01*
Y528500D02*
G03*
X1368250Y528500I-1250J0D01*
G01*
Y464500D02*
G03*
X1368250Y464500I-1250J0D01*
G01*
Y400500D02*
G03*
X1368250Y400500I-1250J0D01*
G01*
Y592500D02*
G03*
X1368250Y592500I-1250J0D01*
G01*
Y336500D02*
G03*
X1368250Y336500I-1250J0D01*
G01*
Y720500D02*
G03*
X1368250Y720500I-1250J0D01*
G01*
Y656500D02*
G03*
X1368250Y656500I-1250J0D01*
G01*
Y784500D02*
G03*
X1368250Y784500I-1250J0D01*
G01*
Y208500D02*
G03*
X1368250Y208500I-1250J0D01*
G01*
Y272500D02*
G03*
X1368250Y272500I-1250J0D01*
G01*
X1455005Y199500D02*
Y204498D01*
Y201999D01*
X1470000D01*
Y199500D01*
Y204498D01*
Y211996D02*
Y216994D01*
Y214495D01*
X1455005D01*
Y211996D01*
X1470000Y226991D02*
Y231989D01*
X1467501Y234489D01*
X1462502D01*
X1460003Y231989D01*
Y226991D01*
X1462502Y224492D01*
X1467501D01*
X1470000Y226991D01*
X1460003Y239487D02*
X1470000D01*
X1465002D01*
X1462502Y241986D01*
X1460003Y244485D01*
Y246985D01*
X1455005Y254482D02*
X1470000D01*
Y261980D01*
X1467501Y264479D01*
X1457504D01*
X1455005Y261980D01*
Y254482D01*
X1460003Y271977D02*
Y276975D01*
X1462502Y279474D01*
X1470000D01*
Y271977D01*
X1467501Y269477D01*
X1465002Y271977D01*
Y279474D01*
X1470000Y284473D02*
Y291970D01*
X1467501Y294469D01*
X1465002Y291970D01*
Y286972D01*
X1462502Y284473D01*
X1460003Y286972D01*
Y294469D01*
X1455005Y299468D02*
X1470000D01*
X1462502D01*
X1460003Y301967D01*
Y306965D01*
X1462502Y309464D01*
X1470000D01*
X1455005Y329458D02*
X1470000D01*
X1462502D01*
Y339455D01*
X1455005D01*
X1470000D01*
Y344453D02*
X1460003D01*
X1455005Y349451D01*
X1460003Y354450D01*
X1470000D01*
X1462502D01*
Y344453D01*
X1467501Y369445D02*
X1457504D01*
X1455005Y366946D01*
Y361947D01*
X1457504Y359448D01*
X1467501D01*
X1470000Y361947D01*
Y366946D01*
X1465002Y364447D02*
X1470000Y369445D01*
Y366946D02*
X1467501Y369445D01*
X1460003Y374443D02*
X1467501D01*
X1470000Y376943D01*
Y384440D01*
X1460003D01*
X1455005Y389439D02*
X1470000D01*
Y396936D01*
X1467501Y399435D01*
X1457504D01*
X1455005Y396936D01*
Y389439D01*
X1470000Y404434D02*
X1460003D01*
X1455005Y409432D01*
X1460003Y414430D01*
X1470000D01*
X1462502D01*
Y404434D01*
X1455005Y434424D02*
X1470000D01*
X1465002Y439422D01*
X1470000Y444421D01*
X1455005D01*
X1457504Y459416D02*
X1455005Y456917D01*
Y451918D01*
X1457504Y449419D01*
X1460003D01*
X1462502Y451918D01*
Y456917D01*
X1465002Y459416D01*
X1467501D01*
X1470000Y456917D01*
Y451918D01*
X1467501Y449419D01*
X1470000Y474411D02*
Y464414D01*
X1460003Y474411D01*
X1457504D01*
X1455005Y471912D01*
Y466913D01*
X1457504Y464414D01*
Y479409D02*
X1455005Y481909D01*
Y486907D01*
X1457504Y489406D01*
X1460003D01*
X1462502Y486907D01*
X1465002Y489406D01*
X1467501D01*
X1470000Y486907D01*
Y481909D01*
X1467501Y479409D01*
X1465002D01*
X1462502Y481909D01*
X1460003Y479409D01*
X1457504D01*
X1462502Y481909D02*
Y486907D01*
X1470000Y494404D02*
Y499403D01*
Y496904D01*
X1455005D01*
X1457504Y494404D01*
X1470000Y516897D02*
Y506900D01*
X1460003Y516897D01*
X1457504D01*
X1455005Y514398D01*
Y509400D01*
X1457504Y506900D01*
X1455005Y536891D02*
X1470000D01*
Y546888D01*
X1455005Y561883D02*
Y551886D01*
X1470000D01*
Y561883D01*
X1462502Y551886D02*
Y556884D01*
X1455005Y566881D02*
X1470000D01*
Y574379D01*
X1467501Y576878D01*
X1457504D01*
X1455005Y574379D01*
Y566881D01*
X1470000Y581876D02*
Y589374D01*
X1467501Y591873D01*
X1465002Y589374D01*
Y584375D01*
X1462502Y581876D01*
X1460003Y584375D01*
Y591873D01*
X1470000Y611866D02*
X1455005D01*
Y619364D01*
X1457504Y621863D01*
X1462502D01*
X1465002Y619364D01*
Y611866D01*
X1457504Y636858D02*
X1455005Y634359D01*
Y629361D01*
X1457504Y626862D01*
X1467501D01*
X1470000Y629361D01*
Y634359D01*
X1467501Y636858D01*
X1455005Y641857D02*
X1470000D01*
Y649354D01*
X1467501Y651853D01*
X1465002D01*
X1462502Y649354D01*
Y641857D01*
Y649354D01*
X1460003Y651853D01*
X1457504D01*
X1455005Y649354D01*
Y641857D01*
X1457504Y681844D02*
X1455005Y679345D01*
Y674346D01*
X1457504Y671847D01*
X1460003D01*
X1462502Y674346D01*
Y679345D01*
X1465002Y681844D01*
X1467501D01*
X1470000Y679345D01*
Y674346D01*
X1467501Y671847D01*
X1457504Y689341D02*
X1460003D01*
Y686842D01*
Y691841D01*
Y689341D01*
X1467501D01*
X1470000Y691841D01*
X1460003Y701837D02*
Y706836D01*
X1462502Y709335D01*
X1470000D01*
Y701837D01*
X1467501Y699338D01*
X1465002Y701837D01*
Y709335D01*
X1460003Y724330D02*
Y716833D01*
X1462502Y714333D01*
X1467501D01*
X1470000Y716833D01*
Y724330D01*
Y729329D02*
X1455005D01*
X1465002D02*
X1460003Y736826D01*
X1465002Y729329D02*
X1470000Y736826D01*
D22*
X26500Y800000D02*
X33500Y810000D01*
X40500Y800000D01*
X33500Y790000D02*
Y810000D01*
Y746000D02*
X40500Y736000D01*
X26500D02*
X33500Y746000D01*
Y726000D02*
Y746000D01*
X26500Y672000D02*
X33500Y682000D01*
X40500Y672000D01*
X33500Y662000D02*
Y682000D01*
X26500Y607000D02*
X33500Y617000D01*
X40500Y607000D01*
X33500Y597000D02*
Y617000D01*
X26500Y544000D02*
X33500Y554000D01*
X40500Y544000D01*
X33500Y534000D02*
Y554000D01*
X26500Y480000D02*
X33500Y490000D01*
X40500Y480000D01*
X33500Y470000D02*
Y490000D01*
Y362000D02*
X40500Y352000D01*
X26500D02*
X33500Y362000D01*
Y342000D02*
Y362000D01*
X26500Y287000D02*
X33500Y297000D01*
X40500Y287000D01*
X33500Y277000D02*
Y297000D01*
Y234000D02*
X40500Y224000D01*
X26500D02*
X33500Y234000D01*
Y214000D02*
Y234000D01*
X26500Y160000D02*
X33500Y170000D01*
X40500Y160000D01*
X33500Y150000D02*
Y170000D01*
X26500Y416000D02*
X33500Y426000D01*
Y406000D02*
Y426000D01*
X59500Y153000D02*
X109500D01*
X59500Y103000D02*
X109500D01*
X59500D02*
Y103500D01*
X109500Y103000D02*
Y103500D01*
Y152500D02*
Y153000D01*
X59500Y152500D02*
Y153000D01*
Y120000D02*
Y136000D01*
X109500Y120000D02*
Y136000D01*
X33500Y426000D02*
X40500Y416000D01*
X59500Y857000D02*
X109500D01*
X59500Y807000D02*
X109500D01*
X59500D02*
Y807500D01*
X109500Y807000D02*
Y807500D01*
Y856500D02*
Y857000D01*
X59500Y856500D02*
Y857000D01*
Y824000D02*
Y840000D01*
X109500Y824000D02*
Y840000D01*
X59500Y537000D02*
X109500D01*
X59500Y487000D02*
X109500D01*
X59500D02*
Y487500D01*
X109500Y487000D02*
Y487500D01*
Y536500D02*
Y537000D01*
X59500Y536500D02*
Y537000D01*
Y504000D02*
Y520000D01*
X109500Y504000D02*
Y520000D01*
X59500Y473000D02*
X109500D01*
X59500Y423000D02*
X109500D01*
X59500D02*
Y423500D01*
X109500Y423000D02*
Y423500D01*
Y472500D02*
Y473000D01*
X59500Y472500D02*
Y473000D01*
Y440000D02*
Y456000D01*
X109500Y440000D02*
Y456000D01*
X59500Y409000D02*
X109500D01*
X59500Y359000D02*
X109500D01*
X59500D02*
Y359500D01*
X109500Y359000D02*
Y359500D01*
Y408500D02*
Y409000D01*
X59500Y408500D02*
Y409000D01*
Y376000D02*
Y392000D01*
X109500Y376000D02*
Y392000D01*
X59500Y601000D02*
X109500D01*
X59500Y551000D02*
X109500D01*
X59500D02*
Y551500D01*
X109500Y551000D02*
Y551500D01*
Y600500D02*
Y601000D01*
X59500Y600500D02*
Y601000D01*
Y568000D02*
Y584000D01*
X109500Y568000D02*
Y584000D01*
X59500Y345000D02*
X109500D01*
X59500Y295000D02*
X109500D01*
X59500D02*
Y295500D01*
X109500Y295000D02*
Y295500D01*
Y344500D02*
Y345000D01*
X59500Y344500D02*
Y345000D01*
Y312000D02*
Y328000D01*
X109500Y312000D02*
Y328000D01*
X59500Y729000D02*
X109500D01*
X59500Y679000D02*
X109500D01*
X59500D02*
Y679500D01*
X109500Y679000D02*
Y679500D01*
Y728500D02*
Y729000D01*
X59500Y728500D02*
Y729000D01*
Y696000D02*
Y712000D01*
X109500Y696000D02*
Y712000D01*
X59500Y665000D02*
X109500D01*
X59500Y615000D02*
X109500D01*
X59500D02*
Y615500D01*
X109500Y615000D02*
Y615500D01*
Y664500D02*
Y665000D01*
X59500Y664500D02*
Y665000D01*
Y632000D02*
Y648000D01*
X109500Y632000D02*
Y648000D01*
X59500Y793000D02*
X109500D01*
X59500Y743000D02*
X109500D01*
X59500D02*
Y743500D01*
X109500Y743000D02*
Y743500D01*
Y792500D02*
Y793000D01*
X59500Y792500D02*
Y793000D01*
Y760000D02*
Y776000D01*
X109500Y760000D02*
Y776000D01*
X59500Y217000D02*
X109500D01*
X59500Y167000D02*
X109500D01*
X59500D02*
Y167500D01*
X109500Y167000D02*
Y167500D01*
Y216500D02*
Y217000D01*
X59500Y216500D02*
Y217000D01*
Y184000D02*
Y200000D01*
X109500Y184000D02*
Y200000D01*
X59500Y281000D02*
X109500D01*
X59500Y231000D02*
X109500D01*
X59500D02*
Y231500D01*
X109500Y231000D02*
Y231500D01*
Y280500D02*
Y281000D01*
X59500Y280500D02*
Y281000D01*
Y248000D02*
Y264000D01*
X109500Y248000D02*
Y264000D01*
X8000Y887003D02*
Y893668D01*
X11332Y897000D01*
X14664Y893668D01*
Y887003D01*
X17997D02*
Y897000D01*
X22995D01*
X24661Y895334D01*
Y888669D01*
X22995Y887003D01*
X17997D01*
X27994D02*
Y897000D01*
X32992D01*
X34658Y895334D01*
Y888669D01*
X32992Y887003D01*
X27994D01*
X45000D02*
Y897000D01*
X49998D01*
X51665Y895334D01*
Y888669D01*
X49998Y887003D01*
X45000D01*
X54997Y897000D02*
Y890335D01*
X58329Y887003D01*
X61661Y890335D01*
Y897000D01*
Y892002D01*
X54997D01*
X64994Y887003D02*
X71658D01*
X68326D01*
Y897000D01*
X74990D02*
Y890335D01*
X78323Y887003D01*
X81655Y890335D01*
Y897000D01*
Y892002D01*
X74990D01*
X102664Y888669D02*
X100998Y887003D01*
X97666D01*
X96000Y888669D01*
Y890335D01*
X97666Y892002D01*
X100998D01*
X102664Y893668D01*
Y895334D01*
X100998Y897000D01*
X97666D01*
X96000Y895334D01*
X105997Y897000D02*
Y887003D01*
X110995D01*
X112661Y888669D01*
Y892002D01*
X110995Y893668D01*
X105997D01*
X138664Y889669D02*
X136998Y888003D01*
X133666D01*
X132000Y889669D01*
Y896334D01*
X133666Y898000D01*
X136998D01*
X138664Y896334D01*
Y893002D01*
X135332D01*
X141997Y898000D02*
Y888003D01*
X148661Y898000D01*
Y888003D01*
X151994D02*
Y898000D01*
X156992D01*
X158658Y896334D01*
Y889669D01*
X156992Y888003D01*
X151994D01*
X8000Y72997D02*
Y66332D01*
X11332Y63000D01*
X14664Y66332D01*
Y72997D01*
X17997D02*
Y63000D01*
X22995D01*
X24661Y64666D01*
Y71331D01*
X22995Y72997D01*
X17997D01*
X27994D02*
Y63000D01*
X32992D01*
X34658Y64666D01*
Y71331D01*
X32992Y72997D01*
X27994D01*
X45000D02*
Y63000D01*
X49998D01*
X51665Y64666D01*
Y71331D01*
X49998Y72997D01*
X45000D01*
X54997Y63000D02*
Y69665D01*
X58329Y72997D01*
X61661Y69665D01*
Y63000D01*
Y67998D01*
X54997D01*
X64994Y72997D02*
X71658D01*
X68326D01*
Y63000D01*
X74990D02*
Y69665D01*
X78323Y72997D01*
X81655Y69665D01*
Y63000D01*
Y67998D01*
X74990D01*
X102664Y71331D02*
X100998Y72997D01*
X97666D01*
X96000Y71331D01*
Y69665D01*
X97666Y67998D01*
X100998D01*
X102664Y66332D01*
Y64666D01*
X100998Y63000D01*
X97666D01*
X96000Y64666D01*
X105997Y63000D02*
Y72997D01*
X110995D01*
X112661Y71331D01*
Y67998D01*
X110995Y66332D01*
X105997D01*
X138665Y70331D02*
X136998Y71997D01*
X133666D01*
X132000Y70331D01*
Y63666D01*
X133666Y62000D01*
X136998D01*
X138665Y63666D01*
Y66998D01*
X135332D01*
X141997Y62000D02*
Y71997D01*
X148661Y62000D01*
Y71997D01*
X151994D02*
Y62000D01*
X156992D01*
X158658Y63666D01*
Y70331D01*
X156992Y71997D01*
X151994D01*
X191500Y800000D02*
X198500Y810000D01*
X205500Y800000D01*
X198500Y790000D02*
Y810000D01*
Y746000D02*
X205500Y736000D01*
X191500D02*
X198500Y746000D01*
Y726000D02*
Y746000D01*
X191500Y672000D02*
X198500Y682000D01*
X205500Y672000D01*
X198500Y662000D02*
Y682000D01*
X191500Y607000D02*
X198500Y617000D01*
X205500Y607000D01*
X198500Y597000D02*
Y617000D01*
X191500Y544000D02*
X198500Y554000D01*
X205500Y544000D01*
X198500Y534000D02*
Y554000D01*
X191500Y480000D02*
X198500Y490000D01*
X205500Y480000D01*
X198500Y470000D02*
Y490000D01*
Y362000D02*
X205500Y352000D01*
X191500D02*
X198500Y362000D01*
Y342000D02*
Y362000D01*
X191500Y287000D02*
X198500Y297000D01*
X205500Y287000D01*
X198500Y277000D02*
Y297000D01*
Y234000D02*
X205500Y224000D01*
X191500D02*
X198500Y234000D01*
Y214000D02*
Y234000D01*
X191500Y160000D02*
X198500Y170000D01*
X205500Y160000D01*
X198500Y150000D02*
Y170000D01*
X191500Y416000D02*
X198500Y426000D01*
Y406000D02*
Y426000D01*
X224500Y153000D02*
X274500D01*
X224500Y103000D02*
X274500D01*
X224500D02*
Y103500D01*
X274500Y103000D02*
Y103500D01*
Y152500D02*
Y153000D01*
X224500Y152500D02*
Y153000D01*
Y120000D02*
Y136000D01*
X274500Y120000D02*
Y136000D01*
X198500Y426000D02*
X205500Y416000D01*
X224500Y857000D02*
X274500D01*
X224500Y807000D02*
X274500D01*
X224500D02*
Y807500D01*
X274500Y807000D02*
Y807500D01*
Y856500D02*
Y857000D01*
X224500Y856500D02*
Y857000D01*
Y824000D02*
Y840000D01*
X274500Y824000D02*
Y840000D01*
X224500Y537000D02*
X274500D01*
X224500Y487000D02*
X274500D01*
X224500D02*
Y487500D01*
X274500Y487000D02*
Y487500D01*
Y536500D02*
Y537000D01*
X224500Y536500D02*
Y537000D01*
Y504000D02*
Y520000D01*
X274500Y504000D02*
Y520000D01*
X224500Y473000D02*
X274500D01*
X224500Y423000D02*
X274500D01*
X224500D02*
Y423500D01*
X274500Y423000D02*
Y423500D01*
Y472500D02*
Y473000D01*
X224500Y472500D02*
Y473000D01*
Y440000D02*
Y456000D01*
X274500Y440000D02*
Y456000D01*
X224500Y409000D02*
X274500D01*
X224500Y359000D02*
X274500D01*
X224500D02*
Y359500D01*
X274500Y359000D02*
Y359500D01*
Y408500D02*
Y409000D01*
X224500Y408500D02*
Y409000D01*
Y376000D02*
Y392000D01*
X274500Y376000D02*
Y392000D01*
X224500Y601000D02*
X274500D01*
X224500Y551000D02*
X274500D01*
X224500D02*
Y551500D01*
X274500Y551000D02*
Y551500D01*
Y600500D02*
Y601000D01*
X224500Y600500D02*
Y601000D01*
Y568000D02*
Y584000D01*
X274500Y568000D02*
Y584000D01*
X224500Y345000D02*
X274500D01*
X224500Y295000D02*
X274500D01*
X224500D02*
Y295500D01*
X274500Y295000D02*
Y295500D01*
Y344500D02*
Y345000D01*
X224500Y344500D02*
Y345000D01*
Y312000D02*
Y328000D01*
X274500Y312000D02*
Y328000D01*
X224500Y729000D02*
X274500D01*
X224500Y679000D02*
X274500D01*
X224500D02*
Y679500D01*
X274500Y679000D02*
Y679500D01*
Y728500D02*
Y729000D01*
X224500Y728500D02*
Y729000D01*
Y696000D02*
Y712000D01*
X274500Y696000D02*
Y712000D01*
X224500Y665000D02*
X274500D01*
X224500Y615000D02*
X274500D01*
X224500D02*
Y615500D01*
X274500Y615000D02*
Y615500D01*
Y664500D02*
Y665000D01*
X224500Y664500D02*
Y665000D01*
Y632000D02*
Y648000D01*
X274500Y632000D02*
Y648000D01*
X224500Y793000D02*
X274500D01*
X224500Y743000D02*
X274500D01*
X224500D02*
Y743500D01*
X274500Y743000D02*
Y743500D01*
Y792500D02*
Y793000D01*
X224500Y792500D02*
Y793000D01*
Y760000D02*
Y776000D01*
X274500Y760000D02*
Y776000D01*
X224500Y217000D02*
X274500D01*
X224500Y167000D02*
X274500D01*
X224500D02*
Y167500D01*
X274500Y167000D02*
Y167500D01*
Y216500D02*
Y217000D01*
X224500Y216500D02*
Y217000D01*
Y184000D02*
Y200000D01*
X274500Y184000D02*
Y200000D01*
X224500Y281000D02*
X274500D01*
X224500Y231000D02*
X274500D01*
X224500D02*
Y231500D01*
X274500Y231000D02*
Y231500D01*
Y280500D02*
Y281000D01*
X224500Y280500D02*
Y281000D01*
Y248000D02*
Y264000D01*
X274500Y248000D02*
Y264000D01*
X173000Y887003D02*
Y893668D01*
X176332Y897000D01*
X179664Y893668D01*
Y887003D01*
X182997D02*
Y897000D01*
X187995D01*
X189661Y895334D01*
Y888669D01*
X187995Y887003D01*
X182997D01*
X192994D02*
Y897000D01*
X197992D01*
X199658Y895334D01*
Y888669D01*
X197992Y887003D01*
X192994D01*
X210000D02*
Y897000D01*
X214998D01*
X216665Y895334D01*
Y888669D01*
X214998Y887003D01*
X210000D01*
X219997Y897000D02*
Y890335D01*
X223329Y887003D01*
X226661Y890335D01*
Y897000D01*
Y892002D01*
X219997D01*
X229993Y887003D02*
X236658D01*
X233326D01*
Y897000D01*
X239990D02*
Y890335D01*
X243323Y887003D01*
X246655Y890335D01*
Y897000D01*
Y892002D01*
X239990D01*
X267665Y888669D02*
X265998Y887003D01*
X262666D01*
X261000Y888669D01*
Y890335D01*
X262666Y892002D01*
X265998D01*
X267665Y893668D01*
Y895334D01*
X265998Y897000D01*
X262666D01*
X261000Y895334D01*
X270997Y897000D02*
Y887003D01*
X275995D01*
X277661Y888669D01*
Y892002D01*
X275995Y893668D01*
X270997D01*
X303664Y889669D02*
X301998Y888003D01*
X298666D01*
X297000Y889669D01*
Y896334D01*
X298666Y898000D01*
X301998D01*
X303664Y896334D01*
Y893002D01*
X300332D01*
X306997Y898000D02*
Y888003D01*
X313661Y898000D01*
Y888003D01*
X316994D02*
Y898000D01*
X321992D01*
X323658Y896334D01*
Y889669D01*
X321992Y888003D01*
X316994D01*
X173000Y72997D02*
Y66332D01*
X176332Y63000D01*
X179664Y66332D01*
Y72997D01*
X182997D02*
Y63000D01*
X187995D01*
X189661Y64666D01*
Y71331D01*
X187995Y72997D01*
X182997D01*
X192994D02*
Y63000D01*
X197992D01*
X199658Y64666D01*
Y71331D01*
X197992Y72997D01*
X192994D01*
X210000D02*
Y63000D01*
X214998D01*
X216665Y64666D01*
Y71331D01*
X214998Y72997D01*
X210000D01*
X219997Y63000D02*
Y69665D01*
X223329Y72997D01*
X226661Y69665D01*
Y63000D01*
Y67998D01*
X219997D01*
X229994Y72997D02*
X236658D01*
X233326D01*
Y63000D01*
X239990D02*
Y69665D01*
X243323Y72997D01*
X246655Y69665D01*
Y63000D01*
Y67998D01*
X239990D01*
X267665Y71331D02*
X265998Y72997D01*
X262666D01*
X261000Y71331D01*
Y69665D01*
X262666Y67998D01*
X265998D01*
X267665Y66332D01*
Y64666D01*
X265998Y63000D01*
X262666D01*
X261000Y64666D01*
X270997Y63000D02*
Y72997D01*
X275995D01*
X277661Y71331D01*
Y67998D01*
X275995Y66332D01*
X270997D01*
X303664Y70331D02*
X301998Y71997D01*
X298666D01*
X297000Y70331D01*
Y63666D01*
X298666Y62000D01*
X301998D01*
X303664Y63666D01*
Y66998D01*
X300332D01*
X306997Y62000D02*
Y71997D01*
X313661Y62000D01*
Y71997D01*
X316994D02*
Y62000D01*
X321992D01*
X323658Y63666D01*
Y70331D01*
X321992Y71997D01*
X316994D01*
X356500Y800000D02*
X363500Y810000D01*
X370500Y800000D01*
X363500Y790000D02*
Y810000D01*
Y746000D02*
X370500Y736000D01*
X356500D02*
X363500Y746000D01*
Y726000D02*
Y746000D01*
X356500Y672000D02*
X363500Y682000D01*
X370500Y672000D01*
X363500Y662000D02*
Y682000D01*
X356500Y607000D02*
X363500Y617000D01*
X370500Y607000D01*
X363500Y597000D02*
Y617000D01*
X356500Y544000D02*
X363500Y554000D01*
X370500Y544000D01*
X363500Y534000D02*
Y554000D01*
X356500Y480000D02*
X363500Y490000D01*
X370500Y480000D01*
X363500Y470000D02*
Y490000D01*
Y362000D02*
X370500Y352000D01*
X356500D02*
X363500Y362000D01*
Y342000D02*
Y362000D01*
X356500Y287000D02*
X363500Y297000D01*
X370500Y287000D01*
X363500Y277000D02*
Y297000D01*
Y234000D02*
X370500Y224000D01*
X356500D02*
X363500Y234000D01*
Y214000D02*
Y234000D01*
X356500Y160000D02*
X363500Y170000D01*
X370500Y160000D01*
X363500Y150000D02*
Y170000D01*
X356500Y416000D02*
X363500Y426000D01*
Y406000D02*
Y426000D01*
X389500Y153000D02*
X439500D01*
X389500Y103000D02*
X439500D01*
X389500D02*
Y103500D01*
X439500Y103000D02*
Y103500D01*
Y152500D02*
Y153000D01*
X389500Y152500D02*
Y153000D01*
Y120000D02*
Y136000D01*
X439500Y120000D02*
Y136000D01*
X363500Y426000D02*
X370500Y416000D01*
X389500Y857000D02*
X439500D01*
X389500Y807000D02*
X439500D01*
X389500D02*
Y807500D01*
X439500Y807000D02*
Y807500D01*
Y856500D02*
Y857000D01*
X389500Y856500D02*
Y857000D01*
Y824000D02*
Y840000D01*
X439500Y824000D02*
Y840000D01*
X389500Y537000D02*
X439500D01*
X389500Y487000D02*
X439500D01*
X389500D02*
Y487500D01*
X439500Y487000D02*
Y487500D01*
Y536500D02*
Y537000D01*
X389500Y536500D02*
Y537000D01*
Y504000D02*
Y520000D01*
X439500Y504000D02*
Y520000D01*
X389500Y473000D02*
X439500D01*
X389500Y423000D02*
X439500D01*
X389500D02*
Y423500D01*
X439500Y423000D02*
Y423500D01*
Y472500D02*
Y473000D01*
X389500Y472500D02*
Y473000D01*
Y440000D02*
Y456000D01*
X439500Y440000D02*
Y456000D01*
X389500Y409000D02*
X439500D01*
X389500Y359000D02*
X439500D01*
X389500D02*
Y359500D01*
X439500Y359000D02*
Y359500D01*
Y408500D02*
Y409000D01*
X389500Y408500D02*
Y409000D01*
Y376000D02*
Y392000D01*
X439500Y376000D02*
Y392000D01*
X389500Y601000D02*
X439500D01*
X389500Y551000D02*
X439500D01*
X389500D02*
Y551500D01*
X439500Y551000D02*
Y551500D01*
Y600500D02*
Y601000D01*
X389500Y600500D02*
Y601000D01*
Y568000D02*
Y584000D01*
X439500Y568000D02*
Y584000D01*
X389500Y345000D02*
X439500D01*
X389500Y295000D02*
X439500D01*
X389500D02*
Y295500D01*
X439500Y295000D02*
Y295500D01*
Y344500D02*
Y345000D01*
X389500Y344500D02*
Y345000D01*
Y312000D02*
Y328000D01*
X439500Y312000D02*
Y328000D01*
X389500Y729000D02*
X439500D01*
X389500Y679000D02*
X439500D01*
X389500D02*
Y679500D01*
X439500Y679000D02*
Y679500D01*
Y728500D02*
Y729000D01*
X389500Y728500D02*
Y729000D01*
Y696000D02*
Y712000D01*
X439500Y696000D02*
Y712000D01*
X389500Y665000D02*
X439500D01*
X389500Y615000D02*
X439500D01*
X389500D02*
Y615500D01*
X439500Y615000D02*
Y615500D01*
Y664500D02*
Y665000D01*
X389500Y664500D02*
Y665000D01*
Y632000D02*
Y648000D01*
X439500Y632000D02*
Y648000D01*
X389500Y793000D02*
X439500D01*
X389500Y743000D02*
X439500D01*
X389500D02*
Y743500D01*
X439500Y743000D02*
Y743500D01*
Y792500D02*
Y793000D01*
X389500Y792500D02*
Y793000D01*
Y760000D02*
Y776000D01*
X439500Y760000D02*
Y776000D01*
X389500Y217000D02*
X439500D01*
X389500Y167000D02*
X439500D01*
X389500D02*
Y167500D01*
X439500Y167000D02*
Y167500D01*
Y216500D02*
Y217000D01*
X389500Y216500D02*
Y217000D01*
Y184000D02*
Y200000D01*
X439500Y184000D02*
Y200000D01*
X389500Y281000D02*
X439500D01*
X389500Y231000D02*
X439500D01*
X389500D02*
Y231500D01*
X439500Y231000D02*
Y231500D01*
Y280500D02*
Y281000D01*
X389500Y280500D02*
Y281000D01*
Y248000D02*
Y264000D01*
X439500Y248000D02*
Y264000D01*
X338000Y887003D02*
Y893668D01*
X341332Y897000D01*
X344664Y893668D01*
Y887003D01*
X347997D02*
Y897000D01*
X352995D01*
X354661Y895334D01*
Y888669D01*
X352995Y887003D01*
X347997D01*
X357994D02*
Y897000D01*
X362992D01*
X364658Y895334D01*
Y888669D01*
X362992Y887003D01*
X357994D01*
X375000D02*
Y897000D01*
X379998D01*
X381665Y895334D01*
Y888669D01*
X379998Y887003D01*
X375000D01*
X384997Y897000D02*
Y890335D01*
X388329Y887003D01*
X391661Y890335D01*
Y897000D01*
Y892002D01*
X384997D01*
X394994Y887003D02*
X401658D01*
X398326D01*
Y897000D01*
X404990D02*
Y890335D01*
X408323Y887003D01*
X411655Y890335D01*
Y897000D01*
Y892002D01*
X404990D01*
X432664Y888669D02*
X430998Y887003D01*
X427666D01*
X426000Y888669D01*
Y890335D01*
X427666Y892002D01*
X430998D01*
X432664Y893668D01*
Y895334D01*
X430998Y897000D01*
X427666D01*
X426000Y895334D01*
X435997Y897000D02*
Y887003D01*
X440995D01*
X442661Y888669D01*
Y892002D01*
X440995Y893668D01*
X435997D01*
X468664Y889669D02*
X466998Y888003D01*
X463666D01*
X462000Y889669D01*
Y896334D01*
X463666Y898000D01*
X466998D01*
X468664Y896334D01*
Y893002D01*
X465332D01*
X471997Y898000D02*
Y888003D01*
X478661Y898000D01*
Y888003D01*
X481993D02*
Y898000D01*
X486992D01*
X488658Y896334D01*
Y889669D01*
X486992Y888003D01*
X481993D01*
X338000Y72997D02*
Y66332D01*
X341332Y63000D01*
X344664Y66332D01*
Y72997D01*
X347997D02*
Y63000D01*
X352995D01*
X354661Y64666D01*
Y71331D01*
X352995Y72997D01*
X347997D01*
X357994D02*
Y63000D01*
X362992D01*
X364658Y64666D01*
Y71331D01*
X362992Y72997D01*
X357994D01*
X375000D02*
Y63000D01*
X379998D01*
X381665Y64666D01*
Y71331D01*
X379998Y72997D01*
X375000D01*
X384997Y63000D02*
Y69665D01*
X388329Y72997D01*
X391661Y69665D01*
Y63000D01*
Y67998D01*
X384997D01*
X394994Y72997D02*
X401658D01*
X398326D01*
Y63000D01*
X404990D02*
Y69665D01*
X408323Y72997D01*
X411655Y69665D01*
Y63000D01*
Y67998D01*
X404990D01*
X432664Y71331D02*
X430998Y72997D01*
X427666D01*
X426000Y71331D01*
Y69665D01*
X427666Y67998D01*
X430998D01*
X432664Y66332D01*
Y64666D01*
X430998Y63000D01*
X427666D01*
X426000Y64666D01*
X435997Y63000D02*
Y72997D01*
X440995D01*
X442661Y71331D01*
Y67998D01*
X440995Y66332D01*
X435997D01*
X468665Y70331D02*
X466998Y71997D01*
X463666D01*
X462000Y70331D01*
Y63666D01*
X463666Y62000D01*
X466998D01*
X468665Y63666D01*
Y66998D01*
X465332D01*
X471997Y62000D02*
Y71997D01*
X478661Y62000D01*
Y71997D01*
X481993D02*
Y62000D01*
X486992D01*
X488658Y63666D01*
Y70331D01*
X486992Y71997D01*
X481993D01*
X521500Y800000D02*
X528500Y810000D01*
X535500Y800000D01*
X528500Y790000D02*
Y810000D01*
Y746000D02*
X535500Y736000D01*
X521500D02*
X528500Y746000D01*
Y726000D02*
Y746000D01*
X521500Y672000D02*
X528500Y682000D01*
X535500Y672000D01*
X528500Y662000D02*
Y682000D01*
X521500Y607000D02*
X528500Y617000D01*
X535500Y607000D01*
X528500Y597000D02*
Y617000D01*
X521500Y544000D02*
X528500Y554000D01*
X535500Y544000D01*
X528500Y534000D02*
Y554000D01*
X521500Y480000D02*
X528500Y490000D01*
X535500Y480000D01*
X528500Y470000D02*
Y490000D01*
Y362000D02*
X535500Y352000D01*
X521500D02*
X528500Y362000D01*
Y342000D02*
Y362000D01*
X521500Y287000D02*
X528500Y297000D01*
X535500Y287000D01*
X528500Y277000D02*
Y297000D01*
Y234000D02*
X535500Y224000D01*
X521500D02*
X528500Y234000D01*
Y214000D02*
Y234000D01*
X521500Y160000D02*
X528500Y170000D01*
X535500Y160000D01*
X528500Y150000D02*
Y170000D01*
X521500Y416000D02*
X528500Y426000D01*
Y406000D02*
Y426000D01*
X554500Y153000D02*
X604500D01*
X554500Y103000D02*
X604500D01*
X554500D02*
Y103500D01*
X604500Y103000D02*
Y103500D01*
Y152500D02*
Y153000D01*
X554500Y152500D02*
Y153000D01*
Y120000D02*
Y136000D01*
X604500Y120000D02*
Y136000D01*
X528500Y426000D02*
X535500Y416000D01*
X554500Y857000D02*
X604500D01*
X554500Y807000D02*
X604500D01*
X554500D02*
Y807500D01*
X604500Y807000D02*
Y807500D01*
Y856500D02*
Y857000D01*
X554500Y856500D02*
Y857000D01*
Y824000D02*
Y840000D01*
X604500Y824000D02*
Y840000D01*
X554500Y537000D02*
X604500D01*
X554500Y487000D02*
X604500D01*
X554500D02*
Y487500D01*
X604500Y487000D02*
Y487500D01*
Y536500D02*
Y537000D01*
X554500Y536500D02*
Y537000D01*
Y504000D02*
Y520000D01*
X604500Y504000D02*
Y520000D01*
X554500Y473000D02*
X604500D01*
X554500Y423000D02*
X604500D01*
X554500D02*
Y423500D01*
X604500Y423000D02*
Y423500D01*
Y472500D02*
Y473000D01*
X554500Y472500D02*
Y473000D01*
Y440000D02*
Y456000D01*
X604500Y440000D02*
Y456000D01*
X554500Y409000D02*
X604500D01*
X554500Y359000D02*
X604500D01*
X554500D02*
Y359500D01*
X604500Y359000D02*
Y359500D01*
Y408500D02*
Y409000D01*
X554500Y408500D02*
Y409000D01*
Y376000D02*
Y392000D01*
X604500Y376000D02*
Y392000D01*
X554500Y601000D02*
X604500D01*
X554500Y551000D02*
X604500D01*
X554500D02*
Y551500D01*
X604500Y551000D02*
Y551500D01*
Y600500D02*
Y601000D01*
X554500Y600500D02*
Y601000D01*
Y568000D02*
Y584000D01*
X604500Y568000D02*
Y584000D01*
X554500Y345000D02*
X604500D01*
X554500Y295000D02*
X604500D01*
X554500D02*
Y295500D01*
X604500Y295000D02*
Y295500D01*
Y344500D02*
Y345000D01*
X554500Y344500D02*
Y345000D01*
Y312000D02*
Y328000D01*
X604500Y312000D02*
Y328000D01*
X554500Y729000D02*
X604500D01*
X554500Y679000D02*
X604500D01*
X554500D02*
Y679500D01*
X604500Y679000D02*
Y679500D01*
Y728500D02*
Y729000D01*
X554500Y728500D02*
Y729000D01*
Y696000D02*
Y712000D01*
X604500Y696000D02*
Y712000D01*
X554500Y665000D02*
X604500D01*
X554500Y615000D02*
X604500D01*
X554500D02*
Y615500D01*
X604500Y615000D02*
Y615500D01*
Y664500D02*
Y665000D01*
X554500Y664500D02*
Y665000D01*
Y632000D02*
Y648000D01*
X604500Y632000D02*
Y648000D01*
X554500Y793000D02*
X604500D01*
X554500Y743000D02*
X604500D01*
X554500D02*
Y743500D01*
X604500Y743000D02*
Y743500D01*
Y792500D02*
Y793000D01*
X554500Y792500D02*
Y793000D01*
Y760000D02*
Y776000D01*
X604500Y760000D02*
Y776000D01*
X554500Y217000D02*
X604500D01*
X554500Y167000D02*
X604500D01*
X554500D02*
Y167500D01*
X604500Y167000D02*
Y167500D01*
Y216500D02*
Y217000D01*
X554500Y216500D02*
Y217000D01*
Y184000D02*
Y200000D01*
X604500Y184000D02*
Y200000D01*
X554500Y281000D02*
X604500D01*
X554500Y231000D02*
X604500D01*
X554500D02*
Y231500D01*
X604500Y231000D02*
Y231500D01*
Y280500D02*
Y281000D01*
X554500Y280500D02*
Y281000D01*
Y248000D02*
Y264000D01*
X604500Y248000D02*
Y264000D01*
X503000Y887003D02*
Y893668D01*
X506332Y897000D01*
X509664Y893668D01*
Y887003D01*
X512997D02*
Y897000D01*
X517995D01*
X519661Y895334D01*
Y888669D01*
X517995Y887003D01*
X512997D01*
X522994D02*
Y897000D01*
X527992D01*
X529658Y895334D01*
Y888669D01*
X527992Y887003D01*
X522994D01*
X540000D02*
Y897000D01*
X544998D01*
X546665Y895334D01*
Y888669D01*
X544998Y887003D01*
X540000D01*
X549997Y897000D02*
Y890335D01*
X553329Y887003D01*
X556661Y890335D01*
Y897000D01*
Y892002D01*
X549997D01*
X559994Y887003D02*
X566658D01*
X563326D01*
Y897000D01*
X569990D02*
Y890335D01*
X573323Y887003D01*
X576655Y890335D01*
Y897000D01*
Y892002D01*
X569990D01*
X597664Y888669D02*
X595998Y887003D01*
X592666D01*
X591000Y888669D01*
Y890335D01*
X592666Y892002D01*
X595998D01*
X597664Y893668D01*
Y895334D01*
X595998Y897000D01*
X592666D01*
X591000Y895334D01*
X600997Y897000D02*
Y887003D01*
X605995D01*
X607661Y888669D01*
Y892002D01*
X605995Y893668D01*
X600997D01*
X633664Y889669D02*
X631998Y888003D01*
X628666D01*
X627000Y889669D01*
Y896334D01*
X628666Y898000D01*
X631998D01*
X633664Y896334D01*
Y893002D01*
X630332D01*
X636997Y898000D02*
Y888003D01*
X643661Y898000D01*
Y888003D01*
X646993D02*
Y898000D01*
X651992D01*
X653658Y896334D01*
Y889669D01*
X651992Y888003D01*
X646993D01*
X503000Y72997D02*
Y66332D01*
X506332Y63000D01*
X509664Y66332D01*
Y72997D01*
X512997D02*
Y63000D01*
X517995D01*
X519661Y64666D01*
Y71331D01*
X517995Y72997D01*
X512997D01*
X522994D02*
Y63000D01*
X527992D01*
X529658Y64666D01*
Y71331D01*
X527992Y72997D01*
X522994D01*
X540000D02*
Y63000D01*
X544998D01*
X546665Y64666D01*
Y71331D01*
X544998Y72997D01*
X540000D01*
X549997Y63000D02*
Y69665D01*
X553329Y72997D01*
X556661Y69665D01*
Y63000D01*
Y67998D01*
X549997D01*
X559994Y72997D02*
X566658D01*
X563326D01*
Y63000D01*
X569990D02*
Y69665D01*
X573323Y72997D01*
X576655Y69665D01*
Y63000D01*
Y67998D01*
X569990D01*
X597664Y71331D02*
X595998Y72997D01*
X592666D01*
X591000Y71331D01*
Y69665D01*
X592666Y67998D01*
X595998D01*
X597664Y66332D01*
Y64666D01*
X595998Y63000D01*
X592666D01*
X591000Y64666D01*
X600997Y63000D02*
Y72997D01*
X605995D01*
X607661Y71331D01*
Y67998D01*
X605995Y66332D01*
X600997D01*
X633665Y70331D02*
X631998Y71997D01*
X628666D01*
X627000Y70331D01*
Y63666D01*
X628666Y62000D01*
X631998D01*
X633665Y63666D01*
Y66998D01*
X630332D01*
X636997Y62000D02*
Y71997D01*
X643661Y62000D01*
Y71997D01*
X646993D02*
Y62000D01*
X651992D01*
X653658Y63666D01*
Y70331D01*
X651992Y71997D01*
X646993D01*
X686500Y800000D02*
X693500Y810000D01*
X700500Y800000D01*
X693500Y790000D02*
Y810000D01*
Y746000D02*
X700500Y736000D01*
X686500D02*
X693500Y746000D01*
Y726000D02*
Y746000D01*
X686500Y672000D02*
X693500Y682000D01*
X700500Y672000D01*
X693500Y662000D02*
Y682000D01*
X686500Y607000D02*
X693500Y617000D01*
X700500Y607000D01*
X693500Y597000D02*
Y617000D01*
X686500Y544000D02*
X693500Y554000D01*
X700500Y544000D01*
X693500Y534000D02*
Y554000D01*
X686500Y480000D02*
X693500Y490000D01*
X700500Y480000D01*
X693500Y470000D02*
Y490000D01*
Y362000D02*
X700500Y352000D01*
X686500D02*
X693500Y362000D01*
Y342000D02*
Y362000D01*
X686500Y287000D02*
X693500Y297000D01*
X700500Y287000D01*
X693500Y277000D02*
Y297000D01*
Y234000D02*
X700500Y224000D01*
X686500D02*
X693500Y234000D01*
Y214000D02*
Y234000D01*
X686500Y160000D02*
X693500Y170000D01*
X700500Y160000D01*
X693500Y150000D02*
Y170000D01*
X686500Y416000D02*
X693500Y426000D01*
Y406000D02*
Y426000D01*
X719500Y153000D02*
X769500D01*
X719500Y103000D02*
X769500D01*
X719500D02*
Y103500D01*
X769500Y103000D02*
Y103500D01*
Y152500D02*
Y153000D01*
X719500Y152500D02*
Y153000D01*
Y120000D02*
Y136000D01*
X769500Y120000D02*
Y136000D01*
X693500Y426000D02*
X700500Y416000D01*
X719500Y857000D02*
X769500D01*
X719500Y807000D02*
X769500D01*
X719500D02*
Y807500D01*
X769500Y807000D02*
Y807500D01*
Y856500D02*
Y857000D01*
X719500Y856500D02*
Y857000D01*
Y824000D02*
Y840000D01*
X769500Y824000D02*
Y840000D01*
X719500Y537000D02*
X769500D01*
X719500Y487000D02*
X769500D01*
X719500D02*
Y487500D01*
X769500Y487000D02*
Y487500D01*
Y536500D02*
Y537000D01*
X719500Y536500D02*
Y537000D01*
Y504000D02*
Y520000D01*
X769500Y504000D02*
Y520000D01*
X719500Y473000D02*
X769500D01*
X719500Y423000D02*
X769500D01*
X719500D02*
Y423500D01*
X769500Y423000D02*
Y423500D01*
Y472500D02*
Y473000D01*
X719500Y472500D02*
Y473000D01*
Y440000D02*
Y456000D01*
X769500Y440000D02*
Y456000D01*
X719500Y409000D02*
X769500D01*
X719500Y359000D02*
X769500D01*
X719500D02*
Y359500D01*
X769500Y359000D02*
Y359500D01*
Y408500D02*
Y409000D01*
X719500Y408500D02*
Y409000D01*
Y376000D02*
Y392000D01*
X769500Y376000D02*
Y392000D01*
X719500Y601000D02*
X769500D01*
X719500Y551000D02*
X769500D01*
X719500D02*
Y551500D01*
X769500Y551000D02*
Y551500D01*
Y600500D02*
Y601000D01*
X719500Y600500D02*
Y601000D01*
Y568000D02*
Y584000D01*
X769500Y568000D02*
Y584000D01*
X719500Y345000D02*
X769500D01*
X719500Y295000D02*
X769500D01*
X719500D02*
Y295500D01*
X769500Y295000D02*
Y295500D01*
Y344500D02*
Y345000D01*
X719500Y344500D02*
Y345000D01*
Y312000D02*
Y328000D01*
X769500Y312000D02*
Y328000D01*
X719500Y729000D02*
X769500D01*
X719500Y679000D02*
X769500D01*
X719500D02*
Y679500D01*
X769500Y679000D02*
Y679500D01*
Y728500D02*
Y729000D01*
X719500Y728500D02*
Y729000D01*
Y696000D02*
Y712000D01*
X769500Y696000D02*
Y712000D01*
X719500Y665000D02*
X769500D01*
X719500Y615000D02*
X769500D01*
X719500D02*
Y615500D01*
X769500Y615000D02*
Y615500D01*
Y664500D02*
Y665000D01*
X719500Y664500D02*
Y665000D01*
Y632000D02*
Y648000D01*
X769500Y632000D02*
Y648000D01*
X719500Y793000D02*
X769500D01*
X719500Y743000D02*
X769500D01*
X719500D02*
Y743500D01*
X769500Y743000D02*
Y743500D01*
Y792500D02*
Y793000D01*
X719500Y792500D02*
Y793000D01*
Y760000D02*
Y776000D01*
X769500Y760000D02*
Y776000D01*
X719500Y217000D02*
X769500D01*
X719500Y167000D02*
X769500D01*
X719500D02*
Y167500D01*
X769500Y167000D02*
Y167500D01*
Y216500D02*
Y217000D01*
X719500Y216500D02*
Y217000D01*
Y184000D02*
Y200000D01*
X769500Y184000D02*
Y200000D01*
X719500Y281000D02*
X769500D01*
X719500Y231000D02*
X769500D01*
X719500D02*
Y231500D01*
X769500Y231000D02*
Y231500D01*
Y280500D02*
Y281000D01*
X719500Y280500D02*
Y281000D01*
Y248000D02*
Y264000D01*
X769500Y248000D02*
Y264000D01*
X668000Y887003D02*
Y893668D01*
X671332Y897000D01*
X674665Y893668D01*
Y887003D01*
X677997D02*
Y897000D01*
X682995D01*
X684661Y895334D01*
Y888669D01*
X682995Y887003D01*
X677997D01*
X687994D02*
Y897000D01*
X692992D01*
X694658Y895334D01*
Y888669D01*
X692992Y887003D01*
X687994D01*
X705000D02*
Y897000D01*
X709998D01*
X711665Y895334D01*
Y888669D01*
X709998Y887003D01*
X705000D01*
X714997Y897000D02*
Y890335D01*
X718329Y887003D01*
X721661Y890335D01*
Y897000D01*
Y892002D01*
X714997D01*
X724994Y887003D02*
X731658D01*
X728326D01*
Y897000D01*
X734990D02*
Y890335D01*
X738323Y887003D01*
X741655Y890335D01*
Y897000D01*
Y892002D01*
X734990D01*
X762664Y888669D02*
X760998Y887003D01*
X757666D01*
X756000Y888669D01*
Y890335D01*
X757666Y892002D01*
X760998D01*
X762664Y893668D01*
Y895334D01*
X760998Y897000D01*
X757666D01*
X756000Y895334D01*
X765997Y897000D02*
Y887003D01*
X770995D01*
X772661Y888669D01*
Y892002D01*
X770995Y893668D01*
X765997D01*
X798664Y889669D02*
X796998Y888003D01*
X793666D01*
X792000Y889669D01*
Y896334D01*
X793666Y898000D01*
X796998D01*
X798664Y896334D01*
Y893002D01*
X795332D01*
X801997Y898000D02*
Y888003D01*
X808661Y898000D01*
Y888003D01*
X811993D02*
Y898000D01*
X816992D01*
X818658Y896334D01*
Y889669D01*
X816992Y888003D01*
X811993D01*
X668000Y72997D02*
Y66332D01*
X671332Y63000D01*
X674665Y66332D01*
Y72997D01*
X677997D02*
Y63000D01*
X682995D01*
X684661Y64666D01*
Y71331D01*
X682995Y72997D01*
X677997D01*
X687994D02*
Y63000D01*
X692992D01*
X694658Y64666D01*
Y71331D01*
X692992Y72997D01*
X687994D01*
X705000D02*
Y63000D01*
X709998D01*
X711665Y64666D01*
Y71331D01*
X709998Y72997D01*
X705000D01*
X714997Y63000D02*
Y69665D01*
X718329Y72997D01*
X721661Y69665D01*
Y63000D01*
Y67998D01*
X714997D01*
X724994Y72997D02*
X731658D01*
X728326D01*
Y63000D01*
X734990D02*
Y69665D01*
X738323Y72997D01*
X741655Y69665D01*
Y63000D01*
Y67998D01*
X734990D01*
X762664Y71331D02*
X760998Y72997D01*
X757666D01*
X756000Y71331D01*
Y69665D01*
X757666Y67998D01*
X760998D01*
X762664Y66332D01*
Y64666D01*
X760998Y63000D01*
X757666D01*
X756000Y64666D01*
X765997Y63000D02*
Y72997D01*
X770995D01*
X772661Y71331D01*
Y67998D01*
X770995Y66332D01*
X765997D01*
X798664Y70331D02*
X796998Y71997D01*
X793666D01*
X792000Y70331D01*
Y63666D01*
X793666Y62000D01*
X796998D01*
X798664Y63666D01*
Y66998D01*
X795332D01*
X801997Y62000D02*
Y71997D01*
X808661Y62000D01*
Y71997D01*
X811993D02*
Y62000D01*
X816992D01*
X818658Y63666D01*
Y70331D01*
X816992Y71997D01*
X811993D01*
X851500Y800000D02*
X858500Y810000D01*
X865500Y800000D01*
X858500Y790000D02*
Y810000D01*
Y746000D02*
X865500Y736000D01*
X851500D02*
X858500Y746000D01*
Y726000D02*
Y746000D01*
X851500Y672000D02*
X858500Y682000D01*
X865500Y672000D01*
X858500Y662000D02*
Y682000D01*
X851500Y607000D02*
X858500Y617000D01*
X865500Y607000D01*
X858500Y597000D02*
Y617000D01*
X851500Y544000D02*
X858500Y554000D01*
X865500Y544000D01*
X858500Y534000D02*
Y554000D01*
X851500Y480000D02*
X858500Y490000D01*
X865500Y480000D01*
X858500Y470000D02*
Y490000D01*
Y362000D02*
X865500Y352000D01*
X851500D02*
X858500Y362000D01*
Y342000D02*
Y362000D01*
X851500Y287000D02*
X858500Y297000D01*
X865500Y287000D01*
X858500Y277000D02*
Y297000D01*
Y234000D02*
X865500Y224000D01*
X851500D02*
X858500Y234000D01*
Y214000D02*
Y234000D01*
X851500Y160000D02*
X858500Y170000D01*
X865500Y160000D01*
X858500Y150000D02*
Y170000D01*
X851500Y416000D02*
X858500Y426000D01*
Y406000D02*
Y426000D01*
X884500Y153000D02*
X934500D01*
X884500Y103000D02*
X934500D01*
X884500D02*
Y103500D01*
X934500Y103000D02*
Y103500D01*
Y152500D02*
Y153000D01*
X884500Y152500D02*
Y153000D01*
Y120000D02*
Y136000D01*
X934500Y120000D02*
Y136000D01*
X858500Y426000D02*
X865500Y416000D01*
X884500Y857000D02*
X934500D01*
X884500Y807000D02*
X934500D01*
X884500D02*
Y807500D01*
X934500Y807000D02*
Y807500D01*
Y856500D02*
Y857000D01*
X884500Y856500D02*
Y857000D01*
Y824000D02*
Y840000D01*
X934500Y824000D02*
Y840000D01*
X884500Y537000D02*
X934500D01*
X884500Y487000D02*
X934500D01*
X884500D02*
Y487500D01*
X934500Y487000D02*
Y487500D01*
Y536500D02*
Y537000D01*
X884500Y536500D02*
Y537000D01*
Y504000D02*
Y520000D01*
X934500Y504000D02*
Y520000D01*
X884500Y473000D02*
X934500D01*
X884500Y423000D02*
X934500D01*
X884500D02*
Y423500D01*
X934500Y423000D02*
Y423500D01*
Y472500D02*
Y473000D01*
X884500Y472500D02*
Y473000D01*
Y440000D02*
Y456000D01*
X934500Y440000D02*
Y456000D01*
X884500Y409000D02*
X934500D01*
X884500Y359000D02*
X934500D01*
X884500D02*
Y359500D01*
X934500Y359000D02*
Y359500D01*
Y408500D02*
Y409000D01*
X884500Y408500D02*
Y409000D01*
Y376000D02*
Y392000D01*
X934500Y376000D02*
Y392000D01*
X884500Y601000D02*
X934500D01*
X884500Y551000D02*
X934500D01*
X884500D02*
Y551500D01*
X934500Y551000D02*
Y551500D01*
Y600500D02*
Y601000D01*
X884500Y600500D02*
Y601000D01*
Y568000D02*
Y584000D01*
X934500Y568000D02*
Y584000D01*
X884500Y345000D02*
X934500D01*
X884500Y295000D02*
X934500D01*
X884500D02*
Y295500D01*
X934500Y295000D02*
Y295500D01*
Y344500D02*
Y345000D01*
X884500Y344500D02*
Y345000D01*
Y312000D02*
Y328000D01*
X934500Y312000D02*
Y328000D01*
X884500Y729000D02*
X934500D01*
X884500Y679000D02*
X934500D01*
X884500D02*
Y679500D01*
X934500Y679000D02*
Y679500D01*
Y728500D02*
Y729000D01*
X884500Y728500D02*
Y729000D01*
Y696000D02*
Y712000D01*
X934500Y696000D02*
Y712000D01*
X884500Y665000D02*
X934500D01*
X884500Y615000D02*
X934500D01*
X884500D02*
Y615500D01*
X934500Y615000D02*
Y615500D01*
Y664500D02*
Y665000D01*
X884500Y664500D02*
Y665000D01*
Y632000D02*
Y648000D01*
X934500Y632000D02*
Y648000D01*
X884500Y793000D02*
X934500D01*
X884500Y743000D02*
X934500D01*
X884500D02*
Y743500D01*
X934500Y743000D02*
Y743500D01*
Y792500D02*
Y793000D01*
X884500Y792500D02*
Y793000D01*
Y760000D02*
Y776000D01*
X934500Y760000D02*
Y776000D01*
X884500Y217000D02*
X934500D01*
X884500Y167000D02*
X934500D01*
X884500D02*
Y167500D01*
X934500Y167000D02*
Y167500D01*
Y216500D02*
Y217000D01*
X884500Y216500D02*
Y217000D01*
Y184000D02*
Y200000D01*
X934500Y184000D02*
Y200000D01*
X884500Y281000D02*
X934500D01*
X884500Y231000D02*
X934500D01*
X884500D02*
Y231500D01*
X934500Y231000D02*
Y231500D01*
Y280500D02*
Y281000D01*
X884500Y280500D02*
Y281000D01*
Y248000D02*
Y264000D01*
X934500Y248000D02*
Y264000D01*
X833000Y887003D02*
Y893668D01*
X836332Y897000D01*
X839665Y893668D01*
Y887003D01*
X842997D02*
Y897000D01*
X847995D01*
X849661Y895334D01*
Y888669D01*
X847995Y887003D01*
X842997D01*
X852994D02*
Y897000D01*
X857992D01*
X859658Y895334D01*
Y888669D01*
X857992Y887003D01*
X852994D01*
X870000D02*
Y897000D01*
X874998D01*
X876665Y895334D01*
Y888669D01*
X874998Y887003D01*
X870000D01*
X879997Y897000D02*
Y890335D01*
X883329Y887003D01*
X886661Y890335D01*
Y897000D01*
Y892002D01*
X879997D01*
X889994Y887003D02*
X896658D01*
X893326D01*
Y897000D01*
X899990D02*
Y890335D01*
X903323Y887003D01*
X906655Y890335D01*
Y897000D01*
Y892002D01*
X899990D01*
X927664Y888669D02*
X925998Y887003D01*
X922666D01*
X921000Y888669D01*
Y890335D01*
X922666Y892002D01*
X925998D01*
X927664Y893668D01*
Y895334D01*
X925998Y897000D01*
X922666D01*
X921000Y895334D01*
X930997Y897000D02*
Y887003D01*
X935995D01*
X937661Y888669D01*
Y892002D01*
X935995Y893668D01*
X930997D01*
X963664Y889669D02*
X961998Y888003D01*
X958666D01*
X957000Y889669D01*
Y896334D01*
X958666Y898000D01*
X961998D01*
X963664Y896334D01*
Y893002D01*
X960332D01*
X966997Y898000D02*
Y888003D01*
X973661Y898000D01*
Y888003D01*
X976993D02*
Y898000D01*
X981992D01*
X983658Y896334D01*
Y889669D01*
X981992Y888003D01*
X976993D01*
X833000Y72997D02*
Y66332D01*
X836332Y63000D01*
X839665Y66332D01*
Y72997D01*
X842997D02*
Y63000D01*
X847995D01*
X849661Y64666D01*
Y71331D01*
X847995Y72997D01*
X842997D01*
X852994D02*
Y63000D01*
X857992D01*
X859658Y64666D01*
Y71331D01*
X857992Y72997D01*
X852994D01*
X870000D02*
Y63000D01*
X874998D01*
X876665Y64666D01*
Y71331D01*
X874998Y72997D01*
X870000D01*
X879997Y63000D02*
Y69665D01*
X883329Y72997D01*
X886661Y69665D01*
Y63000D01*
Y67998D01*
X879997D01*
X889994Y72997D02*
X896658D01*
X893326D01*
Y63000D01*
X899990D02*
Y69665D01*
X903323Y72997D01*
X906655Y69665D01*
Y63000D01*
Y67998D01*
X899990D01*
X927664Y71331D02*
X925998Y72997D01*
X922666D01*
X921000Y71331D01*
Y69665D01*
X922666Y67998D01*
X925998D01*
X927664Y66332D01*
Y64666D01*
X925998Y63000D01*
X922666D01*
X921000Y64666D01*
X930997Y63000D02*
Y72997D01*
X935995D01*
X937661Y71331D01*
Y67998D01*
X935995Y66332D01*
X930997D01*
X963664Y70331D02*
X961998Y71997D01*
X958666D01*
X957000Y70331D01*
Y63666D01*
X958666Y62000D01*
X961998D01*
X963664Y63666D01*
Y66998D01*
X960332D01*
X966997Y62000D02*
Y71997D01*
X973661Y62000D01*
Y71997D01*
X976994D02*
Y62000D01*
X981992D01*
X983658Y63666D01*
Y70331D01*
X981992Y71997D01*
X976994D01*
X1016500Y800000D02*
X1023500Y810000D01*
X1030500Y800000D01*
X1023500Y790000D02*
Y810000D01*
Y746000D02*
X1030500Y736000D01*
X1016500D02*
X1023500Y746000D01*
Y726000D02*
Y746000D01*
X1016500Y672000D02*
X1023500Y682000D01*
X1030500Y672000D01*
X1023500Y662000D02*
Y682000D01*
X1016500Y607000D02*
X1023500Y617000D01*
X1030500Y607000D01*
X1023500Y597000D02*
Y617000D01*
X1016500Y544000D02*
X1023500Y554000D01*
X1030500Y544000D01*
X1023500Y534000D02*
Y554000D01*
X1016500Y480000D02*
X1023500Y490000D01*
X1030500Y480000D01*
X1023500Y470000D02*
Y490000D01*
Y362000D02*
X1030500Y352000D01*
X1016500D02*
X1023500Y362000D01*
Y342000D02*
Y362000D01*
X1016500Y287000D02*
X1023500Y297000D01*
X1030500Y287000D01*
X1023500Y277000D02*
Y297000D01*
Y234000D02*
X1030500Y224000D01*
X1016500D02*
X1023500Y234000D01*
Y214000D02*
Y234000D01*
X1016500Y160000D02*
X1023500Y170000D01*
X1030500Y160000D01*
X1023500Y150000D02*
Y170000D01*
X1016500Y416000D02*
X1023500Y426000D01*
Y406000D02*
Y426000D01*
X1049500Y153000D02*
X1099500D01*
X1049500Y103000D02*
X1099500D01*
X1049500D02*
Y103500D01*
X1099500Y103000D02*
Y103500D01*
Y152500D02*
Y153000D01*
X1049500Y152500D02*
Y153000D01*
Y120000D02*
Y136000D01*
X1099500Y120000D02*
Y136000D01*
X1023500Y426000D02*
X1030500Y416000D01*
X1049500Y857000D02*
X1099500D01*
X1049500Y807000D02*
X1099500D01*
X1049500D02*
Y807500D01*
X1099500Y807000D02*
Y807500D01*
Y856500D02*
Y857000D01*
X1049500Y856500D02*
Y857000D01*
Y824000D02*
Y840000D01*
X1099500Y824000D02*
Y840000D01*
X1049500Y537000D02*
X1099500D01*
X1049500Y487000D02*
X1099500D01*
X1049500D02*
Y487500D01*
X1099500Y487000D02*
Y487500D01*
Y536500D02*
Y537000D01*
X1049500Y536500D02*
Y537000D01*
Y504000D02*
Y520000D01*
X1099500Y504000D02*
Y520000D01*
X1049500Y473000D02*
X1099500D01*
X1049500Y423000D02*
X1099500D01*
X1049500D02*
Y423500D01*
X1099500Y423000D02*
Y423500D01*
Y472500D02*
Y473000D01*
X1049500Y472500D02*
Y473000D01*
Y440000D02*
Y456000D01*
X1099500Y440000D02*
Y456000D01*
X1049500Y409000D02*
X1099500D01*
X1049500Y359000D02*
X1099500D01*
X1049500D02*
Y359500D01*
X1099500Y359000D02*
Y359500D01*
Y408500D02*
Y409000D01*
X1049500Y408500D02*
Y409000D01*
Y376000D02*
Y392000D01*
X1099500Y376000D02*
Y392000D01*
X1049500Y601000D02*
X1099500D01*
X1049500Y551000D02*
X1099500D01*
X1049500D02*
Y551500D01*
X1099500Y551000D02*
Y551500D01*
Y600500D02*
Y601000D01*
X1049500Y600500D02*
Y601000D01*
Y568000D02*
Y584000D01*
X1099500Y568000D02*
Y584000D01*
X1049500Y345000D02*
X1099500D01*
X1049500Y295000D02*
X1099500D01*
X1049500D02*
Y295500D01*
X1099500Y295000D02*
Y295500D01*
Y344500D02*
Y345000D01*
X1049500Y344500D02*
Y345000D01*
Y312000D02*
Y328000D01*
X1099500Y312000D02*
Y328000D01*
X1049500Y729000D02*
X1099500D01*
X1049500Y679000D02*
X1099500D01*
X1049500D02*
Y679500D01*
X1099500Y679000D02*
Y679500D01*
Y728500D02*
Y729000D01*
X1049500Y728500D02*
Y729000D01*
Y696000D02*
Y712000D01*
X1099500Y696000D02*
Y712000D01*
X1049500Y665000D02*
X1099500D01*
X1049500Y615000D02*
X1099500D01*
X1049500D02*
Y615500D01*
X1099500Y615000D02*
Y615500D01*
Y664500D02*
Y665000D01*
X1049500Y664500D02*
Y665000D01*
Y632000D02*
Y648000D01*
X1099500Y632000D02*
Y648000D01*
X1049500Y793000D02*
X1099500D01*
X1049500Y743000D02*
X1099500D01*
X1049500D02*
Y743500D01*
X1099500Y743000D02*
Y743500D01*
Y792500D02*
Y793000D01*
X1049500Y792500D02*
Y793000D01*
Y760000D02*
Y776000D01*
X1099500Y760000D02*
Y776000D01*
X1049500Y217000D02*
X1099500D01*
X1049500Y167000D02*
X1099500D01*
X1049500D02*
Y167500D01*
X1099500Y167000D02*
Y167500D01*
Y216500D02*
Y217000D01*
X1049500Y216500D02*
Y217000D01*
Y184000D02*
Y200000D01*
X1099500Y184000D02*
Y200000D01*
X1049500Y281000D02*
X1099500D01*
X1049500Y231000D02*
X1099500D01*
X1049500D02*
Y231500D01*
X1099500Y231000D02*
Y231500D01*
Y280500D02*
Y281000D01*
X1049500Y280500D02*
Y281000D01*
Y248000D02*
Y264000D01*
X1099500Y248000D02*
Y264000D01*
X998000Y887003D02*
Y893668D01*
X1001332Y897000D01*
X1004665Y893668D01*
Y887003D01*
X1007997D02*
Y897000D01*
X1012995D01*
X1014661Y895334D01*
Y888669D01*
X1012995Y887003D01*
X1007997D01*
X1017994D02*
Y897000D01*
X1022992D01*
X1024658Y895334D01*
Y888669D01*
X1022992Y887003D01*
X1017994D01*
X1035000D02*
Y897000D01*
X1039998D01*
X1041665Y895334D01*
Y888669D01*
X1039998Y887003D01*
X1035000D01*
X1044997Y897000D02*
Y890335D01*
X1048329Y887003D01*
X1051661Y890335D01*
Y897000D01*
Y892002D01*
X1044997D01*
X1054994Y887003D02*
X1061658D01*
X1058326D01*
Y897000D01*
X1064990D02*
Y890335D01*
X1068323Y887003D01*
X1071655Y890335D01*
Y897000D01*
Y892002D01*
X1064990D01*
X1092664Y888669D02*
X1090998Y887003D01*
X1087666D01*
X1086000Y888669D01*
Y890335D01*
X1087666Y892002D01*
X1090998D01*
X1092664Y893668D01*
Y895334D01*
X1090998Y897000D01*
X1087666D01*
X1086000Y895334D01*
X1095997Y897000D02*
Y887003D01*
X1100995D01*
X1102661Y888669D01*
Y892002D01*
X1100995Y893668D01*
X1095997D01*
X1128664Y889669D02*
X1126998Y888003D01*
X1123666D01*
X1122000Y889669D01*
Y896334D01*
X1123666Y898000D01*
X1126998D01*
X1128664Y896334D01*
Y893002D01*
X1125332D01*
X1131997Y898000D02*
Y888003D01*
X1138661Y898000D01*
Y888003D01*
X1141993D02*
Y898000D01*
X1146992D01*
X1148658Y896334D01*
Y889669D01*
X1146992Y888003D01*
X1141993D01*
X998000Y72997D02*
Y66332D01*
X1001332Y63000D01*
X1004665Y66332D01*
Y72997D01*
X1007997D02*
Y63000D01*
X1012995D01*
X1014661Y64666D01*
Y71331D01*
X1012995Y72997D01*
X1007997D01*
X1017994D02*
Y63000D01*
X1022992D01*
X1024658Y64666D01*
Y71331D01*
X1022992Y72997D01*
X1017994D01*
X1035000D02*
Y63000D01*
X1039998D01*
X1041665Y64666D01*
Y71331D01*
X1039998Y72997D01*
X1035000D01*
X1044997Y63000D02*
Y69665D01*
X1048329Y72997D01*
X1051661Y69665D01*
Y63000D01*
Y67998D01*
X1044997D01*
X1054994Y72997D02*
X1061658D01*
X1058326D01*
Y63000D01*
X1064990D02*
Y69665D01*
X1068323Y72997D01*
X1071655Y69665D01*
Y63000D01*
Y67998D01*
X1064990D01*
X1092664Y71331D02*
X1090998Y72997D01*
X1087666D01*
X1086000Y71331D01*
Y69665D01*
X1087666Y67998D01*
X1090998D01*
X1092664Y66332D01*
Y64666D01*
X1090998Y63000D01*
X1087666D01*
X1086000Y64666D01*
X1095997Y63000D02*
Y72997D01*
X1100995D01*
X1102661Y71331D01*
Y67998D01*
X1100995Y66332D01*
X1095997D01*
X1128664Y70331D02*
X1126998Y71997D01*
X1123666D01*
X1122000Y70331D01*
Y63666D01*
X1123666Y62000D01*
X1126998D01*
X1128664Y63666D01*
Y66998D01*
X1125332D01*
X1131997Y62000D02*
Y71997D01*
X1138661Y62000D01*
Y71997D01*
X1141994D02*
Y62000D01*
X1146992D01*
X1148658Y63666D01*
Y70331D01*
X1146992Y71997D01*
X1141994D01*
X1181500Y800000D02*
X1188500Y810000D01*
X1195500Y800000D01*
X1188500Y790000D02*
Y810000D01*
Y746000D02*
X1195500Y736000D01*
X1181500D02*
X1188500Y746000D01*
Y726000D02*
Y746000D01*
X1181500Y672000D02*
X1188500Y682000D01*
X1195500Y672000D01*
X1188500Y662000D02*
Y682000D01*
X1181500Y607000D02*
X1188500Y617000D01*
X1195500Y607000D01*
X1188500Y597000D02*
Y617000D01*
X1181500Y544000D02*
X1188500Y554000D01*
X1195500Y544000D01*
X1188500Y534000D02*
Y554000D01*
X1181500Y480000D02*
X1188500Y490000D01*
X1195500Y480000D01*
X1188500Y470000D02*
Y490000D01*
Y362000D02*
X1195500Y352000D01*
X1181500D02*
X1188500Y362000D01*
Y342000D02*
Y362000D01*
X1181500Y287000D02*
X1188500Y297000D01*
X1195500Y287000D01*
X1188500Y277000D02*
Y297000D01*
Y234000D02*
X1195500Y224000D01*
X1181500D02*
X1188500Y234000D01*
Y214000D02*
Y234000D01*
X1181500Y160000D02*
X1188500Y170000D01*
X1195500Y160000D01*
X1188500Y150000D02*
Y170000D01*
X1181500Y416000D02*
X1188500Y426000D01*
Y406000D02*
Y426000D01*
X1214500Y153000D02*
X1264500D01*
X1214500Y103000D02*
X1264500D01*
X1214500D02*
Y103500D01*
X1264500Y103000D02*
Y103500D01*
Y152500D02*
Y153000D01*
X1214500Y152500D02*
Y153000D01*
Y120000D02*
Y136000D01*
X1264500Y120000D02*
Y136000D01*
X1188500Y426000D02*
X1195500Y416000D01*
X1214500Y857000D02*
X1264500D01*
X1214500Y807000D02*
X1264500D01*
X1214500D02*
Y807500D01*
X1264500Y807000D02*
Y807500D01*
Y856500D02*
Y857000D01*
X1214500Y856500D02*
Y857000D01*
Y824000D02*
Y840000D01*
X1264500Y824000D02*
Y840000D01*
X1214500Y537000D02*
X1264500D01*
X1214500Y487000D02*
X1264500D01*
X1214500D02*
Y487500D01*
X1264500Y487000D02*
Y487500D01*
Y536500D02*
Y537000D01*
X1214500Y536500D02*
Y537000D01*
Y504000D02*
Y520000D01*
X1264500Y504000D02*
Y520000D01*
X1214500Y473000D02*
X1264500D01*
X1214500Y423000D02*
X1264500D01*
X1214500D02*
Y423500D01*
X1264500Y423000D02*
Y423500D01*
Y472500D02*
Y473000D01*
X1214500Y472500D02*
Y473000D01*
Y440000D02*
Y456000D01*
X1264500Y440000D02*
Y456000D01*
X1214500Y409000D02*
X1264500D01*
X1214500Y359000D02*
X1264500D01*
X1214500D02*
Y359500D01*
X1264500Y359000D02*
Y359500D01*
Y408500D02*
Y409000D01*
X1214500Y408500D02*
Y409000D01*
Y376000D02*
Y392000D01*
X1264500Y376000D02*
Y392000D01*
X1214500Y601000D02*
X1264500D01*
X1214500Y551000D02*
X1264500D01*
X1214500D02*
Y551500D01*
X1264500Y551000D02*
Y551500D01*
Y600500D02*
Y601000D01*
X1214500Y600500D02*
Y601000D01*
Y568000D02*
Y584000D01*
X1264500Y568000D02*
Y584000D01*
X1214500Y345000D02*
X1264500D01*
X1214500Y295000D02*
X1264500D01*
X1214500D02*
Y295500D01*
X1264500Y295000D02*
Y295500D01*
Y344500D02*
Y345000D01*
X1214500Y344500D02*
Y345000D01*
Y312000D02*
Y328000D01*
X1264500Y312000D02*
Y328000D01*
X1214500Y729000D02*
X1264500D01*
X1214500Y679000D02*
X1264500D01*
X1214500D02*
Y679500D01*
X1264500Y679000D02*
Y679500D01*
Y728500D02*
Y729000D01*
X1214500Y728500D02*
Y729000D01*
Y696000D02*
Y712000D01*
X1264500Y696000D02*
Y712000D01*
X1214500Y665000D02*
X1264500D01*
X1214500Y615000D02*
X1264500D01*
X1214500D02*
Y615500D01*
X1264500Y615000D02*
Y615500D01*
Y664500D02*
Y665000D01*
X1214500Y664500D02*
Y665000D01*
Y632000D02*
Y648000D01*
X1264500Y632000D02*
Y648000D01*
X1214500Y793000D02*
X1264500D01*
X1214500Y743000D02*
X1264500D01*
X1214500D02*
Y743500D01*
X1264500Y743000D02*
Y743500D01*
Y792500D02*
Y793000D01*
X1214500Y792500D02*
Y793000D01*
Y760000D02*
Y776000D01*
X1264500Y760000D02*
Y776000D01*
X1214500Y217000D02*
X1264500D01*
X1214500Y167000D02*
X1264500D01*
X1214500D02*
Y167500D01*
X1264500Y167000D02*
Y167500D01*
Y216500D02*
Y217000D01*
X1214500Y216500D02*
Y217000D01*
Y184000D02*
Y200000D01*
X1264500Y184000D02*
Y200000D01*
X1214500Y281000D02*
X1264500D01*
X1214500Y231000D02*
X1264500D01*
X1214500D02*
Y231500D01*
X1264500Y231000D02*
Y231500D01*
Y280500D02*
Y281000D01*
X1214500Y280500D02*
Y281000D01*
Y248000D02*
Y264000D01*
X1264500Y248000D02*
Y264000D01*
X1163000Y887003D02*
Y893668D01*
X1166332Y897000D01*
X1169665Y893668D01*
Y887003D01*
X1172997D02*
Y897000D01*
X1177995D01*
X1179661Y895334D01*
Y888669D01*
X1177995Y887003D01*
X1172997D01*
X1182994D02*
Y897000D01*
X1187992D01*
X1189658Y895334D01*
Y888669D01*
X1187992Y887003D01*
X1182994D01*
X1200000D02*
Y897000D01*
X1204998D01*
X1206665Y895334D01*
Y888669D01*
X1204998Y887003D01*
X1200000D01*
X1209997Y897000D02*
Y890335D01*
X1213329Y887003D01*
X1216661Y890335D01*
Y897000D01*
Y892002D01*
X1209997D01*
X1219994Y887003D02*
X1226658D01*
X1223326D01*
Y897000D01*
X1229990D02*
Y890335D01*
X1233323Y887003D01*
X1236655Y890335D01*
Y897000D01*
Y892002D01*
X1229990D01*
X1257664Y888669D02*
X1255998Y887003D01*
X1252666D01*
X1251000Y888669D01*
Y890335D01*
X1252666Y892002D01*
X1255998D01*
X1257664Y893668D01*
Y895334D01*
X1255998Y897000D01*
X1252666D01*
X1251000Y895334D01*
X1260997Y897000D02*
Y887003D01*
X1265995D01*
X1267661Y888669D01*
Y892002D01*
X1265995Y893668D01*
X1260997D01*
X1293664Y889669D02*
X1291998Y888003D01*
X1288666D01*
X1287000Y889669D01*
Y896334D01*
X1288666Y898000D01*
X1291998D01*
X1293664Y896334D01*
Y893002D01*
X1290332D01*
X1296997Y898000D02*
Y888003D01*
X1303661Y898000D01*
Y888003D01*
X1306994D02*
Y898000D01*
X1311992D01*
X1313658Y896334D01*
Y889669D01*
X1311992Y888003D01*
X1306994D01*
X1163000Y72997D02*
Y66332D01*
X1166332Y63000D01*
X1169665Y66332D01*
Y72997D01*
X1172997D02*
Y63000D01*
X1177995D01*
X1179661Y64666D01*
Y71331D01*
X1177995Y72997D01*
X1172997D01*
X1182994D02*
Y63000D01*
X1187992D01*
X1189658Y64666D01*
Y71331D01*
X1187992Y72997D01*
X1182994D01*
X1200000D02*
Y63000D01*
X1204998D01*
X1206665Y64666D01*
Y71331D01*
X1204998Y72997D01*
X1200000D01*
X1209997Y63000D02*
Y69665D01*
X1213329Y72997D01*
X1216661Y69665D01*
Y63000D01*
Y67998D01*
X1209997D01*
X1219994Y72997D02*
X1226658D01*
X1223326D01*
Y63000D01*
X1229990D02*
Y69665D01*
X1233323Y72997D01*
X1236655Y69665D01*
Y63000D01*
Y67998D01*
X1229990D01*
X1257664Y71331D02*
X1255998Y72997D01*
X1252666D01*
X1251000Y71331D01*
Y69665D01*
X1252666Y67998D01*
X1255998D01*
X1257664Y66332D01*
Y64666D01*
X1255998Y63000D01*
X1252666D01*
X1251000Y64666D01*
X1260997Y63000D02*
Y72997D01*
X1265995D01*
X1267661Y71331D01*
Y67998D01*
X1265995Y66332D01*
X1260997D01*
X1293665Y70331D02*
X1291998Y71997D01*
X1288666D01*
X1287000Y70331D01*
Y63666D01*
X1288666Y62000D01*
X1291998D01*
X1293665Y63666D01*
Y66998D01*
X1290332D01*
X1296997Y62000D02*
Y71997D01*
X1303661Y62000D01*
Y71997D01*
X1306994D02*
Y62000D01*
X1311992D01*
X1313658Y63666D01*
Y70331D01*
X1311992Y71997D01*
X1306994D01*
X1346500Y800000D02*
X1353500Y810000D01*
X1360500Y800000D01*
X1353500Y790000D02*
Y810000D01*
Y746000D02*
X1360500Y736000D01*
X1346500D02*
X1353500Y746000D01*
Y726000D02*
Y746000D01*
X1346500Y672000D02*
X1353500Y682000D01*
X1360500Y672000D01*
X1353500Y662000D02*
Y682000D01*
X1346500Y607000D02*
X1353500Y617000D01*
X1360500Y607000D01*
X1353500Y597000D02*
Y617000D01*
X1346500Y544000D02*
X1353500Y554000D01*
X1360500Y544000D01*
X1353500Y534000D02*
Y554000D01*
X1346500Y480000D02*
X1353500Y490000D01*
X1360500Y480000D01*
X1353500Y470000D02*
Y490000D01*
Y362000D02*
X1360500Y352000D01*
X1346500D02*
X1353500Y362000D01*
Y342000D02*
Y362000D01*
X1346500Y287000D02*
X1353500Y297000D01*
X1360500Y287000D01*
X1353500Y277000D02*
Y297000D01*
Y234000D02*
X1360500Y224000D01*
X1346500D02*
X1353500Y234000D01*
Y214000D02*
Y234000D01*
X1346500Y160000D02*
X1353500Y170000D01*
X1360500Y160000D01*
X1353500Y150000D02*
Y170000D01*
X1346500Y416000D02*
X1353500Y426000D01*
Y406000D02*
Y426000D01*
X1379500Y153000D02*
X1429500D01*
X1379500Y103000D02*
X1429500D01*
X1379500D02*
Y103500D01*
X1429500Y103000D02*
Y103500D01*
Y152500D02*
Y153000D01*
X1379500Y152500D02*
Y153000D01*
Y120000D02*
Y136000D01*
X1429500Y120000D02*
Y136000D01*
X1353500Y426000D02*
X1360500Y416000D01*
X1379500Y857000D02*
X1429500D01*
X1379500Y807000D02*
X1429500D01*
X1379500D02*
Y807500D01*
X1429500Y807000D02*
Y807500D01*
Y856500D02*
Y857000D01*
X1379500Y856500D02*
Y857000D01*
Y824000D02*
Y840000D01*
X1429500Y824000D02*
Y840000D01*
X1379500Y537000D02*
X1429500D01*
X1379500Y487000D02*
X1429500D01*
X1379500D02*
Y487500D01*
X1429500Y487000D02*
Y487500D01*
Y536500D02*
Y537000D01*
X1379500Y536500D02*
Y537000D01*
Y504000D02*
Y520000D01*
X1429500Y504000D02*
Y520000D01*
X1379500Y473000D02*
X1429500D01*
X1379500Y423000D02*
X1429500D01*
X1379500D02*
Y423500D01*
X1429500Y423000D02*
Y423500D01*
Y472500D02*
Y473000D01*
X1379500Y472500D02*
Y473000D01*
Y440000D02*
Y456000D01*
X1429500Y440000D02*
Y456000D01*
X1379500Y409000D02*
X1429500D01*
X1379500Y359000D02*
X1429500D01*
X1379500D02*
Y359500D01*
X1429500Y359000D02*
Y359500D01*
Y408500D02*
Y409000D01*
X1379500Y408500D02*
Y409000D01*
Y376000D02*
Y392000D01*
X1429500Y376000D02*
Y392000D01*
X1379500Y601000D02*
X1429500D01*
X1379500Y551000D02*
X1429500D01*
X1379500D02*
Y551500D01*
X1429500Y551000D02*
Y551500D01*
Y600500D02*
Y601000D01*
X1379500Y600500D02*
Y601000D01*
Y568000D02*
Y584000D01*
X1429500Y568000D02*
Y584000D01*
X1379500Y345000D02*
X1429500D01*
X1379500Y295000D02*
X1429500D01*
X1379500D02*
Y295500D01*
X1429500Y295000D02*
Y295500D01*
Y344500D02*
Y345000D01*
X1379500Y344500D02*
Y345000D01*
Y312000D02*
Y328000D01*
X1429500Y312000D02*
Y328000D01*
X1379500Y729000D02*
X1429500D01*
X1379500Y679000D02*
X1429500D01*
X1379500D02*
Y679500D01*
X1429500Y679000D02*
Y679500D01*
Y728500D02*
Y729000D01*
X1379500Y728500D02*
Y729000D01*
Y696000D02*
Y712000D01*
X1429500Y696000D02*
Y712000D01*
X1379500Y665000D02*
X1429500D01*
X1379500Y615000D02*
X1429500D01*
X1379500D02*
Y615500D01*
X1429500Y615000D02*
Y615500D01*
Y664500D02*
Y665000D01*
X1379500Y664500D02*
Y665000D01*
Y632000D02*
Y648000D01*
X1429500Y632000D02*
Y648000D01*
X1379500Y793000D02*
X1429500D01*
X1379500Y743000D02*
X1429500D01*
X1379500D02*
Y743500D01*
X1429500Y743000D02*
Y743500D01*
Y792500D02*
Y793000D01*
X1379500Y792500D02*
Y793000D01*
Y760000D02*
Y776000D01*
X1429500Y760000D02*
Y776000D01*
X1379500Y217000D02*
X1429500D01*
X1379500Y167000D02*
X1429500D01*
X1379500D02*
Y167500D01*
X1429500Y167000D02*
Y167500D01*
Y216500D02*
Y217000D01*
X1379500Y216500D02*
Y217000D01*
Y184000D02*
Y200000D01*
X1429500Y184000D02*
Y200000D01*
X1379500Y281000D02*
X1429500D01*
X1379500Y231000D02*
X1429500D01*
X1379500D02*
Y231500D01*
X1429500Y231000D02*
Y231500D01*
Y280500D02*
Y281000D01*
X1379500Y280500D02*
Y281000D01*
Y248000D02*
Y264000D01*
X1429500Y248000D02*
Y264000D01*
X1328000Y887003D02*
Y893668D01*
X1331332Y897000D01*
X1334664Y893668D01*
Y887003D01*
X1337997D02*
Y897000D01*
X1342995D01*
X1344661Y895334D01*
Y888669D01*
X1342995Y887003D01*
X1337997D01*
X1347994D02*
Y897000D01*
X1352992D01*
X1354658Y895334D01*
Y888669D01*
X1352992Y887003D01*
X1347994D01*
X1365000D02*
Y897000D01*
X1369998D01*
X1371664Y895334D01*
Y888669D01*
X1369998Y887003D01*
X1365000D01*
X1374997Y897000D02*
Y890335D01*
X1378329Y887003D01*
X1381661Y890335D01*
Y897000D01*
Y892002D01*
X1374997D01*
X1384993Y887003D02*
X1391658D01*
X1388326D01*
Y897000D01*
X1394990D02*
Y890335D01*
X1398323Y887003D01*
X1401655Y890335D01*
Y897000D01*
Y892002D01*
X1394990D01*
X1422664Y888669D02*
X1420998Y887003D01*
X1417666D01*
X1416000Y888669D01*
Y890335D01*
X1417666Y892002D01*
X1420998D01*
X1422664Y893668D01*
Y895334D01*
X1420998Y897000D01*
X1417666D01*
X1416000Y895334D01*
X1425997Y897000D02*
Y887003D01*
X1430995D01*
X1432661Y888669D01*
Y892002D01*
X1430995Y893668D01*
X1425997D01*
X1458664Y889669D02*
X1456998Y888003D01*
X1453666D01*
X1452000Y889669D01*
Y896334D01*
X1453666Y898000D01*
X1456998D01*
X1458664Y896334D01*
Y893002D01*
X1455332D01*
X1461997Y898000D02*
Y888003D01*
X1468661Y898000D01*
Y888003D01*
X1471994D02*
Y898000D01*
X1476992D01*
X1478658Y896334D01*
Y889669D01*
X1476992Y888003D01*
X1471994D01*
X1328000Y72997D02*
Y66332D01*
X1331332Y63000D01*
X1334664Y66332D01*
Y72997D01*
X1337997D02*
Y63000D01*
X1342995D01*
X1344661Y64666D01*
Y71331D01*
X1342995Y72997D01*
X1337997D01*
X1347994D02*
Y63000D01*
X1352992D01*
X1354658Y64666D01*
Y71331D01*
X1352992Y72997D01*
X1347994D01*
X1365000D02*
Y63000D01*
X1369998D01*
X1371664Y64666D01*
Y71331D01*
X1369998Y72997D01*
X1365000D01*
X1374997Y63000D02*
Y69665D01*
X1378329Y72997D01*
X1381661Y69665D01*
Y63000D01*
Y67998D01*
X1374997D01*
X1384994Y72997D02*
X1391658D01*
X1388326D01*
Y63000D01*
X1394990D02*
Y69665D01*
X1398323Y72997D01*
X1401655Y69665D01*
Y63000D01*
Y67998D01*
X1394990D01*
X1422664Y71331D02*
X1420998Y72997D01*
X1417666D01*
X1416000Y71331D01*
Y69665D01*
X1417666Y67998D01*
X1420998D01*
X1422664Y66332D01*
Y64666D01*
X1420998Y63000D01*
X1417666D01*
X1416000Y64666D01*
X1425997Y63000D02*
Y72997D01*
X1430995D01*
X1432661Y71331D01*
Y67998D01*
X1430995Y66332D01*
X1425997D01*
X1458665Y70331D02*
X1456998Y71997D01*
X1453666D01*
X1452000Y70331D01*
Y63666D01*
X1453666Y62000D01*
X1456998D01*
X1458665Y63666D01*
Y66998D01*
X1455332D01*
X1461997Y62000D02*
Y71997D01*
X1468661Y62000D01*
Y71997D01*
X1471994D02*
Y62000D01*
X1476992D01*
X1478658Y63666D01*
Y70331D01*
X1476992Y71997D01*
X1471994D01*
M02*
