G04*
G04 #@! TF.GenerationSoftware,Altium Limited,Altium Designer,21.7.2 (23)*
G04*
G04 Layer_Color=32896*
%FSLAX44Y44*%
%MOMM*%
G71*
G04*
G04 #@! TF.SameCoordinates,4EA3E7D4-8FC9-4B51-A035-DBAEA2916729*
G04*
G04*
G04 #@! TF.FilePolarity,Positive*
G04*
G01*
G75*
%ADD30C,0.1500*%
D30*
X153168Y74497D02*
X155834D01*
X154501D01*
Y67833D01*
X155834Y66500D01*
X157167D01*
X158500Y67833D01*
X150503Y74497D02*
Y66500D01*
X145171D01*
X137174Y73165D02*
X138506Y74497D01*
X141172D01*
X142505Y73165D01*
Y67833D01*
X141172Y66500D01*
X138506D01*
X137174Y67833D01*
X129176Y74497D02*
X131842D01*
X130509D01*
Y67833D01*
X131842Y66500D01*
X133175D01*
X134508Y67833D01*
X126510Y74497D02*
Y66500D01*
X121179D01*
X113181Y73165D02*
X114514Y74497D01*
X117180D01*
X118513Y73165D01*
Y67833D01*
X117180Y66500D01*
X114514D01*
X113181Y67833D01*
X105184Y74497D02*
X107850D01*
X106517D01*
Y67833D01*
X107850Y66500D01*
X109183D01*
X110515Y67833D01*
X102518Y74497D02*
Y66500D01*
X97186D01*
X89189Y73165D02*
X90522Y74497D01*
X93188D01*
X94521Y73165D01*
Y67833D01*
X93188Y66500D01*
X90522D01*
X89189Y67833D01*
X81192Y74497D02*
X83857D01*
X82524D01*
Y67833D01*
X83857Y66500D01*
X85190D01*
X86523Y67833D01*
X78526Y74497D02*
Y66500D01*
X73194D01*
X65197Y73165D02*
X66530Y74497D01*
X69195D01*
X70528Y73165D01*
Y67833D01*
X69195Y66500D01*
X66530D01*
X65197Y67833D01*
M02*
