G04*
G04 #@! TF.GenerationSoftware,Altium Limited,Altium Designer,21.7.2 (23)*
G04*
G04 Layer_Color=16711935*
%FSLAX44Y44*%
%MOMM*%
G71*
G04*
G04 #@! TF.SameCoordinates,A9A7B072-6AC6-4A5B-B51B-50EAD1D51C51*
G04*
G04*
G04 #@! TF.FilePolarity,Positive*
G04*
G01*
G75*
%ADD27C,0.1000*%
D27*
X0Y0D02*
X1000000D01*
X1000000Y960120D01*
X0D02*
X1000000D01*
X0Y0D02*
Y960120D01*
Y16000D02*
Y944000D01*
X125000Y16000D02*
Y944000D01*
X99000Y16000D02*
X125000D01*
X0D02*
X26000D01*
X99000Y0D02*
Y16000D01*
X26000Y0D02*
X99000D01*
X26000D02*
Y16000D01*
Y944000D02*
Y960000D01*
X99000D01*
Y944000D02*
Y960000D01*
X0Y944000D02*
X26000D01*
X99000D02*
X125000D01*
Y16000D02*
Y944000D01*
X250000Y16000D02*
Y944000D01*
X224000Y16000D02*
X250000D01*
X125000D02*
X151000D01*
X224000Y0D02*
Y16000D01*
X151000Y0D02*
X224000D01*
X151000D02*
Y16000D01*
Y944000D02*
Y960000D01*
X224000D01*
Y944000D02*
Y960000D01*
X125000Y944000D02*
X151000D01*
X224000D02*
X250000D01*
Y16000D02*
Y944000D01*
X375000Y16000D02*
Y944000D01*
X349000Y16000D02*
X375000D01*
X250000D02*
X276000D01*
X349000Y0D02*
Y16000D01*
X276000Y0D02*
X349000D01*
X276000D02*
Y16000D01*
Y944000D02*
Y960000D01*
X349000D01*
Y944000D02*
Y960000D01*
X250000Y944000D02*
X276000D01*
X349000D02*
X375000D01*
Y16000D02*
Y944000D01*
X500000Y16000D02*
Y944000D01*
X474000Y16000D02*
X500000D01*
X375000D02*
X401000D01*
X474000Y0D02*
Y16000D01*
X401000Y0D02*
X474000D01*
X401000D02*
Y16000D01*
Y944000D02*
Y960000D01*
X474000D01*
Y944000D02*
Y960000D01*
X375000Y944000D02*
X401000D01*
X474000D02*
X500000D01*
Y16000D02*
Y944000D01*
X625000Y16000D02*
Y944000D01*
X599000Y16000D02*
X625000D01*
X500000D02*
X526000D01*
X599000Y0D02*
Y16000D01*
X526000Y0D02*
X599000D01*
X526000D02*
Y16000D01*
Y944000D02*
Y960000D01*
X599000D01*
Y944000D02*
Y960000D01*
X500000Y944000D02*
X526000D01*
X599000D02*
X625000D01*
Y16000D02*
Y944000D01*
X750000Y16000D02*
Y944000D01*
X724000Y16000D02*
X750000D01*
X625000D02*
X651000D01*
X724000Y0D02*
Y16000D01*
X651000Y0D02*
X724000D01*
X651000D02*
Y16000D01*
Y944000D02*
Y960000D01*
X724000D01*
Y944000D02*
Y960000D01*
X625000Y944000D02*
X651000D01*
X724000D02*
X750000D01*
Y16000D02*
Y944000D01*
X875000Y16000D02*
Y944000D01*
X849000Y16000D02*
X875000D01*
X750000D02*
X776000D01*
X849000Y0D02*
Y16000D01*
X776000Y0D02*
X849000D01*
X776000D02*
Y16000D01*
Y944000D02*
Y960000D01*
X849000D01*
Y944000D02*
Y960000D01*
X750000Y944000D02*
X776000D01*
X849000D02*
X875000D01*
Y16000D02*
Y944000D01*
X1000000Y16000D02*
Y944000D01*
X974000Y16000D02*
X1000000D01*
X875000D02*
X901000D01*
X974000Y0D02*
Y16000D01*
X901000Y0D02*
X974000D01*
X901000D02*
Y16000D01*
Y944000D02*
Y960000D01*
X974000D01*
Y944000D02*
Y960000D01*
X875000Y944000D02*
X901000D01*
X974000D02*
X1000000D01*
M02*
