M48
;Layer_Color=9474304
;FILE_FORMAT=4:4
METRIC,LZ
;TYPE=PLATED
T1F00S00C0.3000
T2F00S00C0.4000
T3F00S00C0.6000
%
T01
X0001404Y00101
X0013904
X0026404
X0038904
X0051404
X0063904
X0076404
X0088904
Y00183
Y00247
Y00311
Y00375
Y00439
Y00503
X0076404
Y00439
Y00375
Y00311
Y00247
Y00183
X0063904
Y00247
Y00311
Y00375
Y00439
Y00503
X0051404
Y00439
Y00375
Y00311
Y00247
Y00183
X0038904
Y00247
Y00311
Y00375
Y00439
Y00503
X0026404
Y00439
Y00375
Y00311
Y00247
Y00183
X0013904
Y00247
Y00311
Y00375
Y00439
Y00503
X0001404
Y00439
Y00375
Y00311
Y00247
Y00183
Y00567
Y00631
Y00695
Y00759
Y00823
X0013904
Y00759
Y00695
Y00631
Y00567
X0026404
Y00631
Y00695
Y00759
Y00823
X0038904
Y00759
Y00695
Y00631
Y00567
X0051404
Y00631
Y00695
Y00759
Y00823
X0063904
Y00759
Y00695
Y00631
Y00567
X0076404
Y00631
Y00695
Y00759
Y00823
X0088904
Y00759
Y00695
Y00631
Y00567
T02
X00008Y0002475
X00018
Y00035
X00008
Y00046
X00018
X00107Y0004425
X00117
Y0003325
X00107
Y00023
X00117
X00133Y0002475
Y00035
Y00046
X00143
Y00035
Y0002475
X00232Y00023
X00242
Y0003325
X00232
Y0004425
X00242
X00258Y00046
X00268
Y00035
X00258
Y0002475
X00268
X00357Y00023
X00367
Y0003325
X00357
Y0004425
X00367
X00383Y00046
X00393
Y00035
X00383
Y0002475
X00393
X00482Y00023
X00492
Y0003325
X00482
Y0004425
X00492
X00508Y00046
X00518
Y00035
X00508
Y0002475
X00518
X00607Y00023
X00617
Y0003325
X00607
Y0004425
X00617
X00633Y00046
X00643
Y00035
X00633
Y0002475
X00643
X00732Y00023
X00742
Y0003325
X00732
Y0004425
X00742
X00758Y00046
X00768
Y00035
X00758
Y0002475
X00768
X00857Y00023
X00867
Y0003325
X00857
Y0004425
X00867
X00883Y00046
X00893
Y00035
X00883
Y0002475
X00893
X00982Y00023
X00992
Y0003325
X00982
Y0004425
X00992
X00025Y0087
X0015
X00275
X004
X00525
X0065
X00775
X009
X00982Y00914
X00992
Y00925
X00982
Y0093525
X00992
X00893
X00883
Y00925
X00893
Y00914
X00883
X00867
X00857
Y00925
X00867
Y0093525
X00857
X00768
X00758
Y00925
X00768
Y00914
X00758
X00742
X00732
Y00925
X00742
Y0093525
X00732
X00643
X00633
Y00925
X00643
Y00914
X00633
X00617
X00607
Y00925
X00617
Y0093525
X00607
X00518
X00508
Y00925
X00518
Y00914
X00508
X00492
X00482
Y00925
X00492
Y0093525
X00482
X00393
X00383
Y00925
X00393
Y00914
X00383
X00367
X00357
Y00925
X00367
Y0093525
X00357
X00268
X00258
Y00925
X00268
Y00914
X00258
X00242
X00232
Y00925
X00242
Y0093525
X00232
X00143
Y00925
Y00914
X00133
Y00925
Y0093525
X00117
X00107
Y00925
X00117
Y00914
X00107
X00018
X00008
Y00925
X00018
Y0093525
X00008
T03
X00962Y001115
Y001445
Y001755
Y002085
Y002395
Y002725
Y003035
Y003365
Y003675
Y004005
Y004315
Y004645
Y004955
X00913
Y004645
Y004315
Y004005
Y003675
Y003365
Y003035
Y002725
Y002395
Y002085
Y001755
Y001445
Y001115
X00837
Y001445
Y001755
Y002085
Y002395
Y002725
Y003035
Y003365
Y003675
Y004005
Y004315
Y004645
Y004955
X00788
Y004645
Y004315
Y004005
Y003675
Y003365
Y003035
Y002725
Y002395
Y002085
Y001755
Y001445
Y001115
X00712
Y001445
Y001755
Y002085
Y002395
Y002725
Y003035
Y003365
Y003675
Y004005
Y004315
Y004645
Y004955
X00663
Y004645
Y004315
Y004005
Y003675
Y003365
Y003035
Y002725
Y002395
Y002085
Y001755
Y001445
Y001115
X00587
Y001445
Y001755
Y002085
Y002395
Y002725
Y003035
Y003365
Y003675
Y004005
Y004315
Y004645
Y004955
X00538
Y004645
Y004315
Y004005
Y003675
Y003365
Y003035
Y002725
Y002395
Y002085
Y001755
Y001445
Y001115
X00462
Y001445
Y001755
Y002085
Y002395
Y002725
Y003035
Y003365
Y003675
Y004005
Y004315
Y004645
Y004955
X00413
Y004645
Y004315
Y004005
Y003675
Y003365
Y003035
Y002725
Y002395
Y002085
Y001755
Y001445
Y001115
X00337
Y001445
Y001755
Y002085
Y002395
Y002725
Y003035
Y003365
Y003675
Y004005
Y004315
Y004645
Y004955
X00288
Y004645
Y004315
Y004005
Y003675
Y003365
Y003035
Y002725
Y002395
Y002085
Y001755
Y001445
Y001115
X00212
Y001445
Y001755
Y002085
Y002395
Y002725
Y003035
Y003365
Y003675
Y004005
Y004315
Y004645
Y004955
X00163
Y004645
Y004315
Y004005
Y003675
Y003365
Y003035
Y002725
Y002395
Y002085
Y001755
Y001445
Y001115
X00087
Y001445
Y001755
Y002085
Y002395
Y002725
Y003035
Y003365
Y003675
Y004005
Y004315
Y004645
Y004955
X00038
Y004645
Y004315
Y004005
Y003675
Y003365
Y003035
Y002725
Y002395
Y002085
Y001755
Y001445
Y001115
Y005285
Y005595
Y005925
Y006235
Y006565
Y006875
Y007205
Y007515
Y007845
Y008155
Y008485
X00087
Y008155
Y007845
Y007515
Y007205
Y006875
Y006565
Y006235
Y005925
Y005595
Y005285
X00163
Y005595
Y005925
Y006235
Y006565
Y006875
Y007205
Y007515
Y007845
Y008155
Y008485
X00212
Y008155
Y007845
Y007515
Y007205
Y006875
Y006565
Y006235
Y005925
Y005595
Y005285
X00288
Y005595
Y005925
Y006235
Y006565
Y006875
Y007205
Y007515
Y007845
Y008155
Y008485
X00337
Y008155
Y007845
Y007515
Y007205
Y006875
Y006565
Y006235
Y005925
Y005595
Y005285
X00413
Y005595
Y005925
Y006235
Y006565
Y006875
Y007205
Y007515
Y007845
Y008155
Y008485
X00462
Y008155
Y007845
Y007515
Y007205
Y006875
Y006565
Y006235
Y005925
Y005595
Y005285
X00538
Y005595
Y005925
Y006235
Y006565
Y006875
Y007205
Y007515
Y007845
Y008155
Y008485
X00587
Y008155
Y007845
Y007515
Y007205
Y006875
Y006565
Y006235
Y005925
Y005595
Y005285
X00663
Y005595
Y005925
Y006235
Y006565
Y006875
Y007205
Y007515
Y007845
Y008155
Y008485
X00712
Y008155
Y007845
Y007515
Y007205
Y006875
Y006565
Y006235
Y005925
Y005595
Y005285
X00788
Y005595
Y005925
Y006235
Y006565
Y006875
Y007205
Y007515
Y007845
Y008155
Y008485
X00837
Y008155
Y007845
Y007515
Y007205
Y006875
Y006565
Y006235
Y005925
Y005595
Y005285
X00913
Y005595
Y005925
Y006235
Y006565
Y006875
Y007205
Y007515
Y007845
Y008155
Y008485
X00962
Y008155
Y007845
Y007515
Y007205
Y006875
Y006565
Y006235
Y005925
Y005595
Y005285
M30
