G04*
G04 #@! TF.GenerationSoftware,Altium Limited,Altium Designer,21.7.2 (23)*
G04*
G04 Layer_Color=32768*
%FSLAX44Y44*%
%MOMM*%
G71*
G04*
G04 #@! TF.SameCoordinates,A9A7B072-6AC6-4A5B-B51B-50EAD1D51C51*
G04*
G04*
G04 #@! TF.FilePolarity,Positive*
G04*
G01*
G75*
%ADD27C,0.1000*%
%ADD28C,0.0500*%
D27*
X12000Y507000D02*
Y517000D01*
X7000Y512000D02*
X17000D01*
X12000Y443000D02*
Y453000D01*
X7000Y448000D02*
X17000D01*
X12000Y315000D02*
Y325000D01*
X7000Y320000D02*
X17000D01*
X12000Y379000D02*
Y389000D01*
X7000Y384000D02*
X17000D01*
X12000Y571000D02*
Y581000D01*
X7000Y576000D02*
X17000D01*
X12000Y635000D02*
Y645000D01*
X7000Y640000D02*
X17000D01*
X12000Y699000D02*
Y709000D01*
X7000Y704000D02*
X17000D01*
X12000Y763000D02*
Y773000D01*
X7000Y768000D02*
X17000D01*
X12000Y827000D02*
Y837000D01*
X7000Y832000D02*
X17000D01*
X12000Y251000D02*
Y261000D01*
X7000Y256000D02*
X17000D01*
X12000Y187000D02*
Y197000D01*
X7000Y192000D02*
X17000D01*
X12000Y123000D02*
Y133000D01*
X7000Y128000D02*
X17000D01*
X57500D02*
X67500D01*
X62500Y123000D02*
Y133000D01*
X57500Y832000D02*
X67500D01*
X62500Y827000D02*
Y837000D01*
X57500Y512000D02*
X67500D01*
X62500Y507000D02*
Y517000D01*
X57500Y448000D02*
X67500D01*
X62500Y443000D02*
Y453000D01*
X57500Y384000D02*
X67500D01*
X62500Y379000D02*
Y389000D01*
X57500Y576000D02*
X67500D01*
X62500Y571000D02*
Y581000D01*
X57500Y320000D02*
X67500D01*
X62500Y315000D02*
Y325000D01*
X57500Y704000D02*
X67500D01*
X62500Y699000D02*
Y709000D01*
X57500Y640000D02*
X67500D01*
X62500Y635000D02*
Y645000D01*
X57500Y768000D02*
X67500D01*
X62500Y763000D02*
Y773000D01*
X57500Y192000D02*
X67500D01*
X62500Y187000D02*
Y197000D01*
X57500Y256000D02*
X67500D01*
X62500Y251000D02*
Y261000D01*
X137000Y507000D02*
Y517000D01*
X132000Y512000D02*
X142000D01*
X137000Y443000D02*
Y453000D01*
X132000Y448000D02*
X142000D01*
X137000Y315000D02*
Y325000D01*
X132000Y320000D02*
X142000D01*
X137000Y379000D02*
Y389000D01*
X132000Y384000D02*
X142000D01*
X137000Y571000D02*
Y581000D01*
X132000Y576000D02*
X142000D01*
X137000Y635000D02*
Y645000D01*
X132000Y640000D02*
X142000D01*
X137000Y699000D02*
Y709000D01*
X132000Y704000D02*
X142000D01*
X137000Y763000D02*
Y773000D01*
X132000Y768000D02*
X142000D01*
X137000Y827000D02*
Y837000D01*
X132000Y832000D02*
X142000D01*
X137000Y251000D02*
Y261000D01*
X132000Y256000D02*
X142000D01*
X137000Y187000D02*
Y197000D01*
X132000Y192000D02*
X142000D01*
X137000Y123000D02*
Y133000D01*
X132000Y128000D02*
X142000D01*
X182500D02*
X192500D01*
X187500Y123000D02*
Y133000D01*
X182500Y832000D02*
X192500D01*
X187500Y827000D02*
Y837000D01*
X182500Y512000D02*
X192500D01*
X187500Y507000D02*
Y517000D01*
X182500Y448000D02*
X192500D01*
X187500Y443000D02*
Y453000D01*
X182500Y384000D02*
X192500D01*
X187500Y379000D02*
Y389000D01*
X182500Y576000D02*
X192500D01*
X187500Y571000D02*
Y581000D01*
X182500Y320000D02*
X192500D01*
X187500Y315000D02*
Y325000D01*
X182500Y704000D02*
X192500D01*
X187500Y699000D02*
Y709000D01*
X182500Y640000D02*
X192500D01*
X187500Y635000D02*
Y645000D01*
X182500Y768000D02*
X192500D01*
X187500Y763000D02*
Y773000D01*
X182500Y192000D02*
X192500D01*
X187500Y187000D02*
Y197000D01*
X182500Y256000D02*
X192500D01*
X187500Y251000D02*
Y261000D01*
X262000Y507000D02*
Y517000D01*
X257000Y512000D02*
X267000D01*
X262000Y443000D02*
Y453000D01*
X257000Y448000D02*
X267000D01*
X262000Y315000D02*
Y325000D01*
X257000Y320000D02*
X267000D01*
X262000Y379000D02*
Y389000D01*
X257000Y384000D02*
X267000D01*
X262000Y571000D02*
Y581000D01*
X257000Y576000D02*
X267000D01*
X262000Y635000D02*
Y645000D01*
X257000Y640000D02*
X267000D01*
X262000Y699000D02*
Y709000D01*
X257000Y704000D02*
X267000D01*
X262000Y763000D02*
Y773000D01*
X257000Y768000D02*
X267000D01*
X262000Y827000D02*
Y837000D01*
X257000Y832000D02*
X267000D01*
X262000Y251000D02*
Y261000D01*
X257000Y256000D02*
X267000D01*
X262000Y187000D02*
Y197000D01*
X257000Y192000D02*
X267000D01*
X262000Y123000D02*
Y133000D01*
X257000Y128000D02*
X267000D01*
X307500D02*
X317500D01*
X312500Y123000D02*
Y133000D01*
X307500Y832000D02*
X317500D01*
X312500Y827000D02*
Y837000D01*
X307500Y512000D02*
X317500D01*
X312500Y507000D02*
Y517000D01*
X307500Y448000D02*
X317500D01*
X312500Y443000D02*
Y453000D01*
X307500Y384000D02*
X317500D01*
X312500Y379000D02*
Y389000D01*
X307500Y576000D02*
X317500D01*
X312500Y571000D02*
Y581000D01*
X307500Y320000D02*
X317500D01*
X312500Y315000D02*
Y325000D01*
X307500Y704000D02*
X317500D01*
X312500Y699000D02*
Y709000D01*
X307500Y640000D02*
X317500D01*
X312500Y635000D02*
Y645000D01*
X307500Y768000D02*
X317500D01*
X312500Y763000D02*
Y773000D01*
X307500Y192000D02*
X317500D01*
X312500Y187000D02*
Y197000D01*
X307500Y256000D02*
X317500D01*
X312500Y251000D02*
Y261000D01*
X387000Y507000D02*
Y517000D01*
X382000Y512000D02*
X392000D01*
X387000Y443000D02*
Y453000D01*
X382000Y448000D02*
X392000D01*
X387000Y315000D02*
Y325000D01*
X382000Y320000D02*
X392000D01*
X387000Y379000D02*
Y389000D01*
X382000Y384000D02*
X392000D01*
X387000Y571000D02*
Y581000D01*
X382000Y576000D02*
X392000D01*
X387000Y635000D02*
Y645000D01*
X382000Y640000D02*
X392000D01*
X387000Y699000D02*
Y709000D01*
X382000Y704000D02*
X392000D01*
X387000Y763000D02*
Y773000D01*
X382000Y768000D02*
X392000D01*
X387000Y827000D02*
Y837000D01*
X382000Y832000D02*
X392000D01*
X387000Y251000D02*
Y261000D01*
X382000Y256000D02*
X392000D01*
X387000Y187000D02*
Y197000D01*
X382000Y192000D02*
X392000D01*
X387000Y123000D02*
Y133000D01*
X382000Y128000D02*
X392000D01*
X432500D02*
X442500D01*
X437500Y123000D02*
Y133000D01*
X432500Y832000D02*
X442500D01*
X437500Y827000D02*
Y837000D01*
X432500Y512000D02*
X442500D01*
X437500Y507000D02*
Y517000D01*
X432500Y448000D02*
X442500D01*
X437500Y443000D02*
Y453000D01*
X432500Y384000D02*
X442500D01*
X437500Y379000D02*
Y389000D01*
X432500Y576000D02*
X442500D01*
X437500Y571000D02*
Y581000D01*
X432500Y320000D02*
X442500D01*
X437500Y315000D02*
Y325000D01*
X432500Y704000D02*
X442500D01*
X437500Y699000D02*
Y709000D01*
X432500Y640000D02*
X442500D01*
X437500Y635000D02*
Y645000D01*
X432500Y768000D02*
X442500D01*
X437500Y763000D02*
Y773000D01*
X432500Y192000D02*
X442500D01*
X437500Y187000D02*
Y197000D01*
X432500Y256000D02*
X442500D01*
X437500Y251000D02*
Y261000D01*
X512000Y507000D02*
Y517000D01*
X507000Y512000D02*
X517000D01*
X512000Y443000D02*
Y453000D01*
X507000Y448000D02*
X517000D01*
X512000Y315000D02*
Y325000D01*
X507000Y320000D02*
X517000D01*
X512000Y379000D02*
Y389000D01*
X507000Y384000D02*
X517000D01*
X512000Y571000D02*
Y581000D01*
X507000Y576000D02*
X517000D01*
X512000Y635000D02*
Y645000D01*
X507000Y640000D02*
X517000D01*
X512000Y699000D02*
Y709000D01*
X507000Y704000D02*
X517000D01*
X512000Y763000D02*
Y773000D01*
X507000Y768000D02*
X517000D01*
X512000Y827000D02*
Y837000D01*
X507000Y832000D02*
X517000D01*
X512000Y251000D02*
Y261000D01*
X507000Y256000D02*
X517000D01*
X512000Y187000D02*
Y197000D01*
X507000Y192000D02*
X517000D01*
X512000Y123000D02*
Y133000D01*
X507000Y128000D02*
X517000D01*
X557500D02*
X567500D01*
X562500Y123000D02*
Y133000D01*
X557500Y832000D02*
X567500D01*
X562500Y827000D02*
Y837000D01*
X557500Y512000D02*
X567500D01*
X562500Y507000D02*
Y517000D01*
X557500Y448000D02*
X567500D01*
X562500Y443000D02*
Y453000D01*
X557500Y384000D02*
X567500D01*
X562500Y379000D02*
Y389000D01*
X557500Y576000D02*
X567500D01*
X562500Y571000D02*
Y581000D01*
X557500Y320000D02*
X567500D01*
X562500Y315000D02*
Y325000D01*
X557500Y704000D02*
X567500D01*
X562500Y699000D02*
Y709000D01*
X557500Y640000D02*
X567500D01*
X562500Y635000D02*
Y645000D01*
X557500Y768000D02*
X567500D01*
X562500Y763000D02*
Y773000D01*
X557500Y192000D02*
X567500D01*
X562500Y187000D02*
Y197000D01*
X557500Y256000D02*
X567500D01*
X562500Y251000D02*
Y261000D01*
X637000Y507000D02*
Y517000D01*
X632000Y512000D02*
X642000D01*
X637000Y443000D02*
Y453000D01*
X632000Y448000D02*
X642000D01*
X637000Y315000D02*
Y325000D01*
X632000Y320000D02*
X642000D01*
X637000Y379000D02*
Y389000D01*
X632000Y384000D02*
X642000D01*
X637000Y571000D02*
Y581000D01*
X632000Y576000D02*
X642000D01*
X637000Y635000D02*
Y645000D01*
X632000Y640000D02*
X642000D01*
X637000Y699000D02*
Y709000D01*
X632000Y704000D02*
X642000D01*
X637000Y763000D02*
Y773000D01*
X632000Y768000D02*
X642000D01*
X637000Y827000D02*
Y837000D01*
X632000Y832000D02*
X642000D01*
X637000Y251000D02*
Y261000D01*
X632000Y256000D02*
X642000D01*
X637000Y187000D02*
Y197000D01*
X632000Y192000D02*
X642000D01*
X637000Y123000D02*
Y133000D01*
X632000Y128000D02*
X642000D01*
X682500D02*
X692500D01*
X687500Y123000D02*
Y133000D01*
X682500Y832000D02*
X692500D01*
X687500Y827000D02*
Y837000D01*
X682500Y512000D02*
X692500D01*
X687500Y507000D02*
Y517000D01*
X682500Y448000D02*
X692500D01*
X687500Y443000D02*
Y453000D01*
X682500Y384000D02*
X692500D01*
X687500Y379000D02*
Y389000D01*
X682500Y576000D02*
X692500D01*
X687500Y571000D02*
Y581000D01*
X682500Y320000D02*
X692500D01*
X687500Y315000D02*
Y325000D01*
X682500Y704000D02*
X692500D01*
X687500Y699000D02*
Y709000D01*
X682500Y640000D02*
X692500D01*
X687500Y635000D02*
Y645000D01*
X682500Y768000D02*
X692500D01*
X687500Y763000D02*
Y773000D01*
X682500Y192000D02*
X692500D01*
X687500Y187000D02*
Y197000D01*
X682500Y256000D02*
X692500D01*
X687500Y251000D02*
Y261000D01*
X762000Y507000D02*
Y517000D01*
X757000Y512000D02*
X767000D01*
X762000Y443000D02*
Y453000D01*
X757000Y448000D02*
X767000D01*
X762000Y315000D02*
Y325000D01*
X757000Y320000D02*
X767000D01*
X762000Y379000D02*
Y389000D01*
X757000Y384000D02*
X767000D01*
X762000Y571000D02*
Y581000D01*
X757000Y576000D02*
X767000D01*
X762000Y635000D02*
Y645000D01*
X757000Y640000D02*
X767000D01*
X762000Y699000D02*
Y709000D01*
X757000Y704000D02*
X767000D01*
X762000Y763000D02*
Y773000D01*
X757000Y768000D02*
X767000D01*
X762000Y827000D02*
Y837000D01*
X757000Y832000D02*
X767000D01*
X762000Y251000D02*
Y261000D01*
X757000Y256000D02*
X767000D01*
X762000Y187000D02*
Y197000D01*
X757000Y192000D02*
X767000D01*
X762000Y123000D02*
Y133000D01*
X757000Y128000D02*
X767000D01*
X807500D02*
X817500D01*
X812500Y123000D02*
Y133000D01*
X807500Y832000D02*
X817500D01*
X812500Y827000D02*
Y837000D01*
X807500Y512000D02*
X817500D01*
X812500Y507000D02*
Y517000D01*
X807500Y448000D02*
X817500D01*
X812500Y443000D02*
Y453000D01*
X807500Y384000D02*
X817500D01*
X812500Y379000D02*
Y389000D01*
X807500Y576000D02*
X817500D01*
X812500Y571000D02*
Y581000D01*
X807500Y320000D02*
X817500D01*
X812500Y315000D02*
Y325000D01*
X807500Y704000D02*
X817500D01*
X812500Y699000D02*
Y709000D01*
X807500Y640000D02*
X817500D01*
X812500Y635000D02*
Y645000D01*
X807500Y768000D02*
X817500D01*
X812500Y763000D02*
Y773000D01*
X807500Y192000D02*
X817500D01*
X812500Y187000D02*
Y197000D01*
X807500Y256000D02*
X817500D01*
X812500Y251000D02*
Y261000D01*
X887000Y507000D02*
Y517000D01*
X882000Y512000D02*
X892000D01*
X887000Y443000D02*
Y453000D01*
X882000Y448000D02*
X892000D01*
X887000Y315000D02*
Y325000D01*
X882000Y320000D02*
X892000D01*
X887000Y379000D02*
Y389000D01*
X882000Y384000D02*
X892000D01*
X887000Y571000D02*
Y581000D01*
X882000Y576000D02*
X892000D01*
X887000Y635000D02*
Y645000D01*
X882000Y640000D02*
X892000D01*
X887000Y699000D02*
Y709000D01*
X882000Y704000D02*
X892000D01*
X887000Y763000D02*
Y773000D01*
X882000Y768000D02*
X892000D01*
X887000Y827000D02*
Y837000D01*
X882000Y832000D02*
X892000D01*
X887000Y251000D02*
Y261000D01*
X882000Y256000D02*
X892000D01*
X887000Y187000D02*
Y197000D01*
X882000Y192000D02*
X892000D01*
X887000Y123000D02*
Y133000D01*
X882000Y128000D02*
X892000D01*
X932500D02*
X942500D01*
X937500Y123000D02*
Y133000D01*
X932500Y832000D02*
X942500D01*
X937500Y827000D02*
Y837000D01*
X932500Y512000D02*
X942500D01*
X937500Y507000D02*
Y517000D01*
X932500Y448000D02*
X942500D01*
X937500Y443000D02*
Y453000D01*
X932500Y384000D02*
X942500D01*
X937500Y379000D02*
Y389000D01*
X932500Y576000D02*
X942500D01*
X937500Y571000D02*
Y581000D01*
X932500Y320000D02*
X942500D01*
X937500Y315000D02*
Y325000D01*
X932500Y704000D02*
X942500D01*
X937500Y699000D02*
Y709000D01*
X932500Y640000D02*
X942500D01*
X937500Y635000D02*
Y645000D01*
X932500Y768000D02*
X942500D01*
X937500Y763000D02*
Y773000D01*
X932500Y192000D02*
X942500D01*
X937500Y187000D02*
Y197000D01*
X932500Y256000D02*
X942500D01*
X937500Y251000D02*
Y261000D01*
D28*
X2000Y529000D02*
X22000D01*
X2000Y495000D02*
X22000D01*
Y529000D01*
X2000Y495000D02*
Y529000D01*
Y465000D02*
X22000D01*
X2000Y431000D02*
X22000D01*
Y465000D01*
X2000Y431000D02*
Y465000D01*
Y337000D02*
X22000D01*
X2000Y303000D02*
X22000D01*
Y337000D01*
X2000Y303000D02*
Y337000D01*
Y401000D02*
X22000D01*
X2000Y367000D02*
X22000D01*
Y401000D01*
X2000Y367000D02*
Y401000D01*
Y593000D02*
X22000D01*
X2000Y559000D02*
X22000D01*
Y593000D01*
X2000Y559000D02*
Y593000D01*
Y657000D02*
X22000D01*
X2000Y623000D02*
X22000D01*
Y657000D01*
X2000Y623000D02*
Y657000D01*
Y721000D02*
X22000D01*
X2000Y687000D02*
X22000D01*
Y721000D01*
X2000Y687000D02*
Y721000D01*
Y785000D02*
X22000D01*
X2000Y751000D02*
X22000D01*
Y785000D01*
X2000Y751000D02*
Y785000D01*
Y849000D02*
X22000D01*
X2000Y815000D02*
X22000D01*
Y849000D01*
X2000Y815000D02*
Y849000D01*
Y273000D02*
X22000D01*
X2000Y239000D02*
X22000D01*
Y273000D01*
X2000Y239000D02*
Y273000D01*
Y209000D02*
X22000D01*
X2000Y175000D02*
X22000D01*
Y209000D01*
X2000Y175000D02*
Y209000D01*
Y145000D02*
X22000D01*
X2000Y111000D02*
X22000D01*
Y145000D01*
X2000Y111000D02*
Y145000D01*
X29500Y102000D02*
X95500D01*
X29500Y154000D02*
X95500D01*
Y102000D02*
Y154000D01*
X29500Y102000D02*
Y154000D01*
Y806000D02*
X95500D01*
X29500Y858000D02*
X95500D01*
Y806000D02*
Y858000D01*
X29500Y806000D02*
Y858000D01*
Y486000D02*
X95500D01*
X29500Y538000D02*
X95500D01*
Y486000D02*
Y538000D01*
X29500Y486000D02*
Y538000D01*
Y422000D02*
X95500D01*
X29500Y474000D02*
X95500D01*
Y422000D02*
Y474000D01*
X29500Y422000D02*
Y474000D01*
Y358000D02*
X95500D01*
X29500Y410000D02*
X95500D01*
Y358000D02*
Y410000D01*
X29500Y358000D02*
Y410000D01*
Y550000D02*
X95500D01*
X29500Y602000D02*
X95500D01*
Y550000D02*
Y602000D01*
X29500Y550000D02*
Y602000D01*
Y294000D02*
X95500D01*
X29500Y346000D02*
X95500D01*
Y294000D02*
Y346000D01*
X29500Y294000D02*
Y346000D01*
Y678000D02*
X95500D01*
X29500Y730000D02*
X95500D01*
Y678000D02*
Y730000D01*
X29500Y678000D02*
Y730000D01*
Y614000D02*
X95500D01*
X29500Y666000D02*
X95500D01*
Y614000D02*
Y666000D01*
X29500Y614000D02*
Y666000D01*
Y742000D02*
X95500D01*
X29500Y794000D02*
X95500D01*
Y742000D02*
Y794000D01*
X29500Y742000D02*
Y794000D01*
Y166000D02*
X95500D01*
X29500Y218000D02*
X95500D01*
Y166000D02*
Y218000D01*
X29500Y166000D02*
Y218000D01*
Y230000D02*
X95500D01*
X29500Y282000D02*
X95500D01*
Y230000D02*
Y282000D01*
X29500Y230000D02*
Y282000D01*
X127000Y529000D02*
X147000D01*
X127000Y495000D02*
X147000D01*
Y529000D01*
X127000Y495000D02*
Y529000D01*
Y465000D02*
X147000D01*
X127000Y431000D02*
X147000D01*
Y465000D01*
X127000Y431000D02*
Y465000D01*
Y337000D02*
X147000D01*
X127000Y303000D02*
X147000D01*
Y337000D01*
X127000Y303000D02*
Y337000D01*
Y401000D02*
X147000D01*
X127000Y367000D02*
X147000D01*
Y401000D01*
X127000Y367000D02*
Y401000D01*
Y593000D02*
X147000D01*
X127000Y559000D02*
X147000D01*
Y593000D01*
X127000Y559000D02*
Y593000D01*
Y657000D02*
X147000D01*
X127000Y623000D02*
X147000D01*
Y657000D01*
X127000Y623000D02*
Y657000D01*
Y721000D02*
X147000D01*
X127000Y687000D02*
X147000D01*
Y721000D01*
X127000Y687000D02*
Y721000D01*
Y785000D02*
X147000D01*
X127000Y751000D02*
X147000D01*
Y785000D01*
X127000Y751000D02*
Y785000D01*
Y849000D02*
X147000D01*
X127000Y815000D02*
X147000D01*
Y849000D01*
X127000Y815000D02*
Y849000D01*
Y273000D02*
X147000D01*
X127000Y239000D02*
X147000D01*
Y273000D01*
X127000Y239000D02*
Y273000D01*
Y209000D02*
X147000D01*
X127000Y175000D02*
X147000D01*
Y209000D01*
X127000Y175000D02*
Y209000D01*
Y145000D02*
X147000D01*
X127000Y111000D02*
X147000D01*
Y145000D01*
X127000Y111000D02*
Y145000D01*
X154500Y102000D02*
X220500D01*
X154500Y154000D02*
X220500D01*
Y102000D02*
Y154000D01*
X154500Y102000D02*
Y154000D01*
Y806000D02*
X220500D01*
X154500Y858000D02*
X220500D01*
Y806000D02*
Y858000D01*
X154500Y806000D02*
Y858000D01*
Y486000D02*
X220500D01*
X154500Y538000D02*
X220500D01*
Y486000D02*
Y538000D01*
X154500Y486000D02*
Y538000D01*
Y422000D02*
X220500D01*
X154500Y474000D02*
X220500D01*
Y422000D02*
Y474000D01*
X154500Y422000D02*
Y474000D01*
Y358000D02*
X220500D01*
X154500Y410000D02*
X220500D01*
Y358000D02*
Y410000D01*
X154500Y358000D02*
Y410000D01*
Y550000D02*
X220500D01*
X154500Y602000D02*
X220500D01*
Y550000D02*
Y602000D01*
X154500Y550000D02*
Y602000D01*
Y294000D02*
X220500D01*
X154500Y346000D02*
X220500D01*
Y294000D02*
Y346000D01*
X154500Y294000D02*
Y346000D01*
Y678000D02*
X220500D01*
X154500Y730000D02*
X220500D01*
Y678000D02*
Y730000D01*
X154500Y678000D02*
Y730000D01*
Y614000D02*
X220500D01*
X154500Y666000D02*
X220500D01*
Y614000D02*
Y666000D01*
X154500Y614000D02*
Y666000D01*
Y742000D02*
X220500D01*
X154500Y794000D02*
X220500D01*
Y742000D02*
Y794000D01*
X154500Y742000D02*
Y794000D01*
Y166000D02*
X220500D01*
X154500Y218000D02*
X220500D01*
Y166000D02*
Y218000D01*
X154500Y166000D02*
Y218000D01*
Y230000D02*
X220500D01*
X154500Y282000D02*
X220500D01*
Y230000D02*
Y282000D01*
X154500Y230000D02*
Y282000D01*
X252000Y529000D02*
X272000D01*
X252000Y495000D02*
X272000D01*
Y529000D01*
X252000Y495000D02*
Y529000D01*
Y465000D02*
X272000D01*
X252000Y431000D02*
X272000D01*
Y465000D01*
X252000Y431000D02*
Y465000D01*
Y337000D02*
X272000D01*
X252000Y303000D02*
X272000D01*
Y337000D01*
X252000Y303000D02*
Y337000D01*
Y401000D02*
X272000D01*
X252000Y367000D02*
X272000D01*
Y401000D01*
X252000Y367000D02*
Y401000D01*
Y593000D02*
X272000D01*
X252000Y559000D02*
X272000D01*
Y593000D01*
X252000Y559000D02*
Y593000D01*
Y657000D02*
X272000D01*
X252000Y623000D02*
X272000D01*
Y657000D01*
X252000Y623000D02*
Y657000D01*
Y721000D02*
X272000D01*
X252000Y687000D02*
X272000D01*
Y721000D01*
X252000Y687000D02*
Y721000D01*
Y785000D02*
X272000D01*
X252000Y751000D02*
X272000D01*
Y785000D01*
X252000Y751000D02*
Y785000D01*
Y849000D02*
X272000D01*
X252000Y815000D02*
X272000D01*
Y849000D01*
X252000Y815000D02*
Y849000D01*
Y273000D02*
X272000D01*
X252000Y239000D02*
X272000D01*
Y273000D01*
X252000Y239000D02*
Y273000D01*
Y209000D02*
X272000D01*
X252000Y175000D02*
X272000D01*
Y209000D01*
X252000Y175000D02*
Y209000D01*
Y145000D02*
X272000D01*
X252000Y111000D02*
X272000D01*
Y145000D01*
X252000Y111000D02*
Y145000D01*
X279500Y102000D02*
X345500D01*
X279500Y154000D02*
X345500D01*
Y102000D02*
Y154000D01*
X279500Y102000D02*
Y154000D01*
Y806000D02*
X345500D01*
X279500Y858000D02*
X345500D01*
Y806000D02*
Y858000D01*
X279500Y806000D02*
Y858000D01*
Y486000D02*
X345500D01*
X279500Y538000D02*
X345500D01*
Y486000D02*
Y538000D01*
X279500Y486000D02*
Y538000D01*
Y422000D02*
X345500D01*
X279500Y474000D02*
X345500D01*
Y422000D02*
Y474000D01*
X279500Y422000D02*
Y474000D01*
Y358000D02*
X345500D01*
X279500Y410000D02*
X345500D01*
Y358000D02*
Y410000D01*
X279500Y358000D02*
Y410000D01*
Y550000D02*
X345500D01*
X279500Y602000D02*
X345500D01*
Y550000D02*
Y602000D01*
X279500Y550000D02*
Y602000D01*
Y294000D02*
X345500D01*
X279500Y346000D02*
X345500D01*
Y294000D02*
Y346000D01*
X279500Y294000D02*
Y346000D01*
Y678000D02*
X345500D01*
X279500Y730000D02*
X345500D01*
Y678000D02*
Y730000D01*
X279500Y678000D02*
Y730000D01*
Y614000D02*
X345500D01*
X279500Y666000D02*
X345500D01*
Y614000D02*
Y666000D01*
X279500Y614000D02*
Y666000D01*
Y742000D02*
X345500D01*
X279500Y794000D02*
X345500D01*
Y742000D02*
Y794000D01*
X279500Y742000D02*
Y794000D01*
Y166000D02*
X345500D01*
X279500Y218000D02*
X345500D01*
Y166000D02*
Y218000D01*
X279500Y166000D02*
Y218000D01*
Y230000D02*
X345500D01*
X279500Y282000D02*
X345500D01*
Y230000D02*
Y282000D01*
X279500Y230000D02*
Y282000D01*
X377000Y529000D02*
X397000D01*
X377000Y495000D02*
X397000D01*
Y529000D01*
X377000Y495000D02*
Y529000D01*
Y465000D02*
X397000D01*
X377000Y431000D02*
X397000D01*
Y465000D01*
X377000Y431000D02*
Y465000D01*
Y337000D02*
X397000D01*
X377000Y303000D02*
X397000D01*
Y337000D01*
X377000Y303000D02*
Y337000D01*
Y401000D02*
X397000D01*
X377000Y367000D02*
X397000D01*
Y401000D01*
X377000Y367000D02*
Y401000D01*
Y593000D02*
X397000D01*
X377000Y559000D02*
X397000D01*
Y593000D01*
X377000Y559000D02*
Y593000D01*
Y657000D02*
X397000D01*
X377000Y623000D02*
X397000D01*
Y657000D01*
X377000Y623000D02*
Y657000D01*
Y721000D02*
X397000D01*
X377000Y687000D02*
X397000D01*
Y721000D01*
X377000Y687000D02*
Y721000D01*
Y785000D02*
X397000D01*
X377000Y751000D02*
X397000D01*
Y785000D01*
X377000Y751000D02*
Y785000D01*
Y849000D02*
X397000D01*
X377000Y815000D02*
X397000D01*
Y849000D01*
X377000Y815000D02*
Y849000D01*
Y273000D02*
X397000D01*
X377000Y239000D02*
X397000D01*
Y273000D01*
X377000Y239000D02*
Y273000D01*
Y209000D02*
X397000D01*
X377000Y175000D02*
X397000D01*
Y209000D01*
X377000Y175000D02*
Y209000D01*
Y145000D02*
X397000D01*
X377000Y111000D02*
X397000D01*
Y145000D01*
X377000Y111000D02*
Y145000D01*
X404500Y102000D02*
X470500D01*
X404500Y154000D02*
X470500D01*
Y102000D02*
Y154000D01*
X404500Y102000D02*
Y154000D01*
Y806000D02*
X470500D01*
X404500Y858000D02*
X470500D01*
Y806000D02*
Y858000D01*
X404500Y806000D02*
Y858000D01*
Y486000D02*
X470500D01*
X404500Y538000D02*
X470500D01*
Y486000D02*
Y538000D01*
X404500Y486000D02*
Y538000D01*
Y422000D02*
X470500D01*
X404500Y474000D02*
X470500D01*
Y422000D02*
Y474000D01*
X404500Y422000D02*
Y474000D01*
Y358000D02*
X470500D01*
X404500Y410000D02*
X470500D01*
Y358000D02*
Y410000D01*
X404500Y358000D02*
Y410000D01*
Y550000D02*
X470500D01*
X404500Y602000D02*
X470500D01*
Y550000D02*
Y602000D01*
X404500Y550000D02*
Y602000D01*
Y294000D02*
X470500D01*
X404500Y346000D02*
X470500D01*
Y294000D02*
Y346000D01*
X404500Y294000D02*
Y346000D01*
Y678000D02*
X470500D01*
X404500Y730000D02*
X470500D01*
Y678000D02*
Y730000D01*
X404500Y678000D02*
Y730000D01*
Y614000D02*
X470500D01*
X404500Y666000D02*
X470500D01*
Y614000D02*
Y666000D01*
X404500Y614000D02*
Y666000D01*
Y742000D02*
X470500D01*
X404500Y794000D02*
X470500D01*
Y742000D02*
Y794000D01*
X404500Y742000D02*
Y794000D01*
Y166000D02*
X470500D01*
X404500Y218000D02*
X470500D01*
Y166000D02*
Y218000D01*
X404500Y166000D02*
Y218000D01*
Y230000D02*
X470500D01*
X404500Y282000D02*
X470500D01*
Y230000D02*
Y282000D01*
X404500Y230000D02*
Y282000D01*
X502000Y529000D02*
X522000D01*
X502000Y495000D02*
X522000D01*
Y529000D01*
X502000Y495000D02*
Y529000D01*
Y465000D02*
X522000D01*
X502000Y431000D02*
X522000D01*
Y465000D01*
X502000Y431000D02*
Y465000D01*
Y337000D02*
X522000D01*
X502000Y303000D02*
X522000D01*
Y337000D01*
X502000Y303000D02*
Y337000D01*
Y401000D02*
X522000D01*
X502000Y367000D02*
X522000D01*
Y401000D01*
X502000Y367000D02*
Y401000D01*
Y593000D02*
X522000D01*
X502000Y559000D02*
X522000D01*
Y593000D01*
X502000Y559000D02*
Y593000D01*
Y657000D02*
X522000D01*
X502000Y623000D02*
X522000D01*
Y657000D01*
X502000Y623000D02*
Y657000D01*
Y721000D02*
X522000D01*
X502000Y687000D02*
X522000D01*
Y721000D01*
X502000Y687000D02*
Y721000D01*
Y785000D02*
X522000D01*
X502000Y751000D02*
X522000D01*
Y785000D01*
X502000Y751000D02*
Y785000D01*
Y849000D02*
X522000D01*
X502000Y815000D02*
X522000D01*
Y849000D01*
X502000Y815000D02*
Y849000D01*
Y273000D02*
X522000D01*
X502000Y239000D02*
X522000D01*
Y273000D01*
X502000Y239000D02*
Y273000D01*
Y209000D02*
X522000D01*
X502000Y175000D02*
X522000D01*
Y209000D01*
X502000Y175000D02*
Y209000D01*
Y145000D02*
X522000D01*
X502000Y111000D02*
X522000D01*
Y145000D01*
X502000Y111000D02*
Y145000D01*
X529500Y102000D02*
X595500D01*
X529500Y154000D02*
X595500D01*
Y102000D02*
Y154000D01*
X529500Y102000D02*
Y154000D01*
Y806000D02*
X595500D01*
X529500Y858000D02*
X595500D01*
Y806000D02*
Y858000D01*
X529500Y806000D02*
Y858000D01*
Y486000D02*
X595500D01*
X529500Y538000D02*
X595500D01*
Y486000D02*
Y538000D01*
X529500Y486000D02*
Y538000D01*
Y422000D02*
X595500D01*
X529500Y474000D02*
X595500D01*
Y422000D02*
Y474000D01*
X529500Y422000D02*
Y474000D01*
Y358000D02*
X595500D01*
X529500Y410000D02*
X595500D01*
Y358000D02*
Y410000D01*
X529500Y358000D02*
Y410000D01*
Y550000D02*
X595500D01*
X529500Y602000D02*
X595500D01*
Y550000D02*
Y602000D01*
X529500Y550000D02*
Y602000D01*
Y294000D02*
X595500D01*
X529500Y346000D02*
X595500D01*
Y294000D02*
Y346000D01*
X529500Y294000D02*
Y346000D01*
Y678000D02*
X595500D01*
X529500Y730000D02*
X595500D01*
Y678000D02*
Y730000D01*
X529500Y678000D02*
Y730000D01*
Y614000D02*
X595500D01*
X529500Y666000D02*
X595500D01*
Y614000D02*
Y666000D01*
X529500Y614000D02*
Y666000D01*
Y742000D02*
X595500D01*
X529500Y794000D02*
X595500D01*
Y742000D02*
Y794000D01*
X529500Y742000D02*
Y794000D01*
Y166000D02*
X595500D01*
X529500Y218000D02*
X595500D01*
Y166000D02*
Y218000D01*
X529500Y166000D02*
Y218000D01*
Y230000D02*
X595500D01*
X529500Y282000D02*
X595500D01*
Y230000D02*
Y282000D01*
X529500Y230000D02*
Y282000D01*
X627000Y529000D02*
X647000D01*
X627000Y495000D02*
X647000D01*
Y529000D01*
X627000Y495000D02*
Y529000D01*
Y465000D02*
X647000D01*
X627000Y431000D02*
X647000D01*
Y465000D01*
X627000Y431000D02*
Y465000D01*
Y337000D02*
X647000D01*
X627000Y303000D02*
X647000D01*
Y337000D01*
X627000Y303000D02*
Y337000D01*
Y401000D02*
X647000D01*
X627000Y367000D02*
X647000D01*
Y401000D01*
X627000Y367000D02*
Y401000D01*
Y593000D02*
X647000D01*
X627000Y559000D02*
X647000D01*
Y593000D01*
X627000Y559000D02*
Y593000D01*
Y657000D02*
X647000D01*
X627000Y623000D02*
X647000D01*
Y657000D01*
X627000Y623000D02*
Y657000D01*
Y721000D02*
X647000D01*
X627000Y687000D02*
X647000D01*
Y721000D01*
X627000Y687000D02*
Y721000D01*
Y785000D02*
X647000D01*
X627000Y751000D02*
X647000D01*
Y785000D01*
X627000Y751000D02*
Y785000D01*
Y849000D02*
X647000D01*
X627000Y815000D02*
X647000D01*
Y849000D01*
X627000Y815000D02*
Y849000D01*
Y273000D02*
X647000D01*
X627000Y239000D02*
X647000D01*
Y273000D01*
X627000Y239000D02*
Y273000D01*
Y209000D02*
X647000D01*
X627000Y175000D02*
X647000D01*
Y209000D01*
X627000Y175000D02*
Y209000D01*
Y145000D02*
X647000D01*
X627000Y111000D02*
X647000D01*
Y145000D01*
X627000Y111000D02*
Y145000D01*
X654500Y102000D02*
X720500D01*
X654500Y154000D02*
X720500D01*
Y102000D02*
Y154000D01*
X654500Y102000D02*
Y154000D01*
Y806000D02*
X720500D01*
X654500Y858000D02*
X720500D01*
Y806000D02*
Y858000D01*
X654500Y806000D02*
Y858000D01*
Y486000D02*
X720500D01*
X654500Y538000D02*
X720500D01*
Y486000D02*
Y538000D01*
X654500Y486000D02*
Y538000D01*
Y422000D02*
X720500D01*
X654500Y474000D02*
X720500D01*
Y422000D02*
Y474000D01*
X654500Y422000D02*
Y474000D01*
Y358000D02*
X720500D01*
X654500Y410000D02*
X720500D01*
Y358000D02*
Y410000D01*
X654500Y358000D02*
Y410000D01*
Y550000D02*
X720500D01*
X654500Y602000D02*
X720500D01*
Y550000D02*
Y602000D01*
X654500Y550000D02*
Y602000D01*
Y294000D02*
X720500D01*
X654500Y346000D02*
X720500D01*
Y294000D02*
Y346000D01*
X654500Y294000D02*
Y346000D01*
Y678000D02*
X720500D01*
X654500Y730000D02*
X720500D01*
Y678000D02*
Y730000D01*
X654500Y678000D02*
Y730000D01*
Y614000D02*
X720500D01*
X654500Y666000D02*
X720500D01*
Y614000D02*
Y666000D01*
X654500Y614000D02*
Y666000D01*
Y742000D02*
X720500D01*
X654500Y794000D02*
X720500D01*
Y742000D02*
Y794000D01*
X654500Y742000D02*
Y794000D01*
Y166000D02*
X720500D01*
X654500Y218000D02*
X720500D01*
Y166000D02*
Y218000D01*
X654500Y166000D02*
Y218000D01*
Y230000D02*
X720500D01*
X654500Y282000D02*
X720500D01*
Y230000D02*
Y282000D01*
X654500Y230000D02*
Y282000D01*
X752000Y529000D02*
X772000D01*
X752000Y495000D02*
X772000D01*
Y529000D01*
X752000Y495000D02*
Y529000D01*
Y465000D02*
X772000D01*
X752000Y431000D02*
X772000D01*
Y465000D01*
X752000Y431000D02*
Y465000D01*
Y337000D02*
X772000D01*
X752000Y303000D02*
X772000D01*
Y337000D01*
X752000Y303000D02*
Y337000D01*
Y401000D02*
X772000D01*
X752000Y367000D02*
X772000D01*
Y401000D01*
X752000Y367000D02*
Y401000D01*
Y593000D02*
X772000D01*
X752000Y559000D02*
X772000D01*
Y593000D01*
X752000Y559000D02*
Y593000D01*
Y657000D02*
X772000D01*
X752000Y623000D02*
X772000D01*
Y657000D01*
X752000Y623000D02*
Y657000D01*
Y721000D02*
X772000D01*
X752000Y687000D02*
X772000D01*
Y721000D01*
X752000Y687000D02*
Y721000D01*
Y785000D02*
X772000D01*
X752000Y751000D02*
X772000D01*
Y785000D01*
X752000Y751000D02*
Y785000D01*
Y849000D02*
X772000D01*
X752000Y815000D02*
X772000D01*
Y849000D01*
X752000Y815000D02*
Y849000D01*
Y273000D02*
X772000D01*
X752000Y239000D02*
X772000D01*
Y273000D01*
X752000Y239000D02*
Y273000D01*
Y209000D02*
X772000D01*
X752000Y175000D02*
X772000D01*
Y209000D01*
X752000Y175000D02*
Y209000D01*
Y145000D02*
X772000D01*
X752000Y111000D02*
X772000D01*
Y145000D01*
X752000Y111000D02*
Y145000D01*
X779500Y102000D02*
X845500D01*
X779500Y154000D02*
X845500D01*
Y102000D02*
Y154000D01*
X779500Y102000D02*
Y154000D01*
Y806000D02*
X845500D01*
X779500Y858000D02*
X845500D01*
Y806000D02*
Y858000D01*
X779500Y806000D02*
Y858000D01*
Y486000D02*
X845500D01*
X779500Y538000D02*
X845500D01*
Y486000D02*
Y538000D01*
X779500Y486000D02*
Y538000D01*
Y422000D02*
X845500D01*
X779500Y474000D02*
X845500D01*
Y422000D02*
Y474000D01*
X779500Y422000D02*
Y474000D01*
Y358000D02*
X845500D01*
X779500Y410000D02*
X845500D01*
Y358000D02*
Y410000D01*
X779500Y358000D02*
Y410000D01*
Y550000D02*
X845500D01*
X779500Y602000D02*
X845500D01*
Y550000D02*
Y602000D01*
X779500Y550000D02*
Y602000D01*
Y294000D02*
X845500D01*
X779500Y346000D02*
X845500D01*
Y294000D02*
Y346000D01*
X779500Y294000D02*
Y346000D01*
Y678000D02*
X845500D01*
X779500Y730000D02*
X845500D01*
Y678000D02*
Y730000D01*
X779500Y678000D02*
Y730000D01*
Y614000D02*
X845500D01*
X779500Y666000D02*
X845500D01*
Y614000D02*
Y666000D01*
X779500Y614000D02*
Y666000D01*
Y742000D02*
X845500D01*
X779500Y794000D02*
X845500D01*
Y742000D02*
Y794000D01*
X779500Y742000D02*
Y794000D01*
Y166000D02*
X845500D01*
X779500Y218000D02*
X845500D01*
Y166000D02*
Y218000D01*
X779500Y166000D02*
Y218000D01*
Y230000D02*
X845500D01*
X779500Y282000D02*
X845500D01*
Y230000D02*
Y282000D01*
X779500Y230000D02*
Y282000D01*
X877000Y529000D02*
X897000D01*
X877000Y495000D02*
X897000D01*
Y529000D01*
X877000Y495000D02*
Y529000D01*
Y465000D02*
X897000D01*
X877000Y431000D02*
X897000D01*
Y465000D01*
X877000Y431000D02*
Y465000D01*
Y337000D02*
X897000D01*
X877000Y303000D02*
X897000D01*
Y337000D01*
X877000Y303000D02*
Y337000D01*
Y401000D02*
X897000D01*
X877000Y367000D02*
X897000D01*
Y401000D01*
X877000Y367000D02*
Y401000D01*
Y593000D02*
X897000D01*
X877000Y559000D02*
X897000D01*
Y593000D01*
X877000Y559000D02*
Y593000D01*
Y657000D02*
X897000D01*
X877000Y623000D02*
X897000D01*
Y657000D01*
X877000Y623000D02*
Y657000D01*
Y721000D02*
X897000D01*
X877000Y687000D02*
X897000D01*
Y721000D01*
X877000Y687000D02*
Y721000D01*
Y785000D02*
X897000D01*
X877000Y751000D02*
X897000D01*
Y785000D01*
X877000Y751000D02*
Y785000D01*
Y849000D02*
X897000D01*
X877000Y815000D02*
X897000D01*
Y849000D01*
X877000Y815000D02*
Y849000D01*
Y273000D02*
X897000D01*
X877000Y239000D02*
X897000D01*
Y273000D01*
X877000Y239000D02*
Y273000D01*
Y209000D02*
X897000D01*
X877000Y175000D02*
X897000D01*
Y209000D01*
X877000Y175000D02*
Y209000D01*
Y145000D02*
X897000D01*
X877000Y111000D02*
X897000D01*
Y145000D01*
X877000Y111000D02*
Y145000D01*
X904500Y102000D02*
X970500D01*
X904500Y154000D02*
X970500D01*
Y102000D02*
Y154000D01*
X904500Y102000D02*
Y154000D01*
Y806000D02*
X970500D01*
X904500Y858000D02*
X970500D01*
Y806000D02*
Y858000D01*
X904500Y806000D02*
Y858000D01*
Y486000D02*
X970500D01*
X904500Y538000D02*
X970500D01*
Y486000D02*
Y538000D01*
X904500Y486000D02*
Y538000D01*
Y422000D02*
X970500D01*
X904500Y474000D02*
X970500D01*
Y422000D02*
Y474000D01*
X904500Y422000D02*
Y474000D01*
Y358000D02*
X970500D01*
X904500Y410000D02*
X970500D01*
Y358000D02*
Y410000D01*
X904500Y358000D02*
Y410000D01*
Y550000D02*
X970500D01*
X904500Y602000D02*
X970500D01*
Y550000D02*
Y602000D01*
X904500Y550000D02*
Y602000D01*
Y294000D02*
X970500D01*
X904500Y346000D02*
X970500D01*
Y294000D02*
Y346000D01*
X904500Y294000D02*
Y346000D01*
Y678000D02*
X970500D01*
X904500Y730000D02*
X970500D01*
Y678000D02*
Y730000D01*
X904500Y678000D02*
Y730000D01*
Y614000D02*
X970500D01*
X904500Y666000D02*
X970500D01*
Y614000D02*
Y666000D01*
X904500Y614000D02*
Y666000D01*
Y742000D02*
X970500D01*
X904500Y794000D02*
X970500D01*
Y742000D02*
Y794000D01*
X904500Y742000D02*
Y794000D01*
Y166000D02*
X970500D01*
X904500Y218000D02*
X970500D01*
Y166000D02*
Y218000D01*
X904500Y166000D02*
Y218000D01*
Y230000D02*
X970500D01*
X904500Y282000D02*
X970500D01*
Y230000D02*
Y282000D01*
X904500Y230000D02*
Y282000D01*
M02*
