M48
;Layer_Color=9474304
;FILE_FORMAT=4:4
METRIC,LZ
;TYPE=PLATED
T1F00S00C0.4000
T2F00S00C0.6000
%
T01
X0001Y00025
X000105Y00035
X000205
Y00045
X000305
Y00035
Y00025
X000205
X000105Y00045
X00024Y00089
X0009Y00082
X00104Y0007
X00117Y00082
X0012Y00045
Y00035
X0013
Y00025
X0014
Y00035
Y00045
X0013
X001195Y00025
X0016
X001605Y00035
X001705
Y00045
X001805
Y00035
Y00025
X001705
X001605Y00045
X00174Y00089
X0024Y00082
X00254Y0007
X00267Y00082
X0027Y00045
Y00035
X0028
Y00025
X0029
Y00035
Y00045
X0028
X002695Y00025
X0031
X003105Y00035
X003205
Y00045
X003305
Y00035
Y00025
X003205
X003105Y00045
X00324Y00089
X0039Y00082
X00404Y0007
X00417Y00082
X0042Y00045
Y00035
X0043
Y00025
X0044
Y00035
Y00045
X0043
X004195Y00025
X0046
X004605Y00035
X004705
Y00045
X004805
Y00035
Y00025
X004705
X004605Y00045
X00474Y00089
X0054Y00082
X00554Y0007
X00567Y00082
X0057Y00045
Y00035
X0058
Y00025
X0059
Y00035
Y00045
X0058
X005695Y00025
X0061
X006105Y00035
X006205
Y00045
X006305
Y00035
Y00025
X006205
X006105Y00045
X00624Y00089
X0069Y00082
X00704Y0007
X00717Y00082
X0072Y00045
Y00035
X0073
Y00025
X0074
Y00035
Y00045
X0073
X007195Y00025
X0076
X007605Y00035
X007705
Y00045
X007805
Y00035
Y00025
X007705
X007605Y00045
X00774Y00089
X0084Y00082
X00854Y0007
X00867Y00082
X0087Y00045
Y00035
X0088
Y00025
X0089
Y00035
Y00045
X0088
X008695Y00025
X0012Y00877
X00106Y00889
X00092Y00877
X00036Y00876
X00186
X00242Y00877
X00256Y00889
X0027Y00877
X00336Y00876
X00392Y00877
X00406Y00889
X0042Y00877
X00486Y00876
X00542Y00877
X00556Y00889
X0057Y00877
X00636Y00876
X00692Y00877
X00706Y00889
X0072Y00877
X00786Y00876
X00842Y00877
X00856Y00889
X0087Y00877
Y00915
Y00925
Y00935
X0088
X0089
Y00925
Y00915
X0088
Y00925
X0078
X0077
Y00935
X0078
X0076
Y00925
Y00915
X0077
X0078
X0074
Y00925
Y00935
X0073
X0072
Y00925
X0073
Y00915
X0072
X0063
X0062
X0061
Y00925
Y00935
X0062
X0063
Y00925
X0062
X0059
Y00915
X0058
Y00925
Y00935
X0059
X0057
Y00925
Y00915
X0048
X0047
X0046
Y00925
Y00935
X0047
X0048
Y00925
X0047
X0044
Y00915
X0043
Y00925
Y00935
X0044
X0042
Y00925
Y00915
X0033
X0032
X0031
Y00925
Y00935
X0032
X0033
Y00925
X0032
X0029
Y00915
X0028
Y00925
Y00935
X0029
X0027
Y00925
Y00915
X0018
X0017
X0016
Y00925
Y00935
X0017
X0018
Y00925
X0017
X0014
Y00915
X0013
Y00925
Y00935
X0014
X0012
Y00925
Y00915
X0003
X0002
X0001
Y00925
Y00935
X0002
X0003
Y00925
X0002
T02
X005495Y001115
Y001445
Y001755
Y002085
Y002395
Y002725
Y003035
Y003365
Y003675
Y004005
Y004315
Y004645
Y004955
X006505
Y004645
Y004315
Y004005
Y003675
Y003365
Y003035
Y002725
Y002395
Y002085
Y001755
Y001445
Y001115
X006995
Y001445
Y001755
Y002085
Y002395
Y002725
Y003035
Y003365
Y003675
Y004005
Y004315
Y004645
Y004955
X008005
Y004645
Y004315
Y004005
Y003675
Y003365
Y003035
Y002725
Y002395
Y002085
Y001755
Y001445
Y001115
X008495
Y001445
Y001755
Y002085
Y002395
Y002725
Y003035
Y003365
Y003675
Y004005
Y004315
Y004645
Y004955
X005005
Y004645
Y004315
Y004005
Y003675
Y003365
Y003035
Y002725
Y002395
Y002085
Y001755
Y001445
Y001115
X003995
Y001445
Y001755
Y002085
Y002395
Y002725
Y003035
Y003365
Y003675
Y004005
Y004315
Y004645
Y004955
X003505
Y004645
Y004315
Y004005
Y003675
Y003365
Y003035
Y002725
Y002395
Y002085
Y001755
Y001445
Y001115
X002495
Y001445
Y001755
Y002085
Y002395
Y002725
Y003035
Y003365
Y003675
Y004005
Y004315
Y004645
Y004955
X002005
Y004645
Y004315
Y004005
Y003675
Y003365
Y003035
Y002725
Y002395
Y002085
Y001755
Y001445
Y001115
X000995
Y001445
Y001755
Y002085
Y002395
Y002725
Y003035
Y003365
Y003675
Y004005
Y004315
Y004645
Y004955
X000505
Y004645
Y004315
Y004005
Y003675
Y003365
Y003035
Y002725
Y002395
Y002085
Y001755
Y001445
Y001115
Y005285
Y005595
Y005925
Y006235
Y006565
Y006875
Y007205
Y007515
Y007845
Y008155
Y008485
X000995
Y008155
Y007845
Y007515
Y007205
Y006875
Y006565
Y006235
Y005925
Y005595
Y005285
X002005
Y005595
Y005925
Y006235
Y006565
Y006875
Y007205
Y007515
Y007845
Y008155
Y008485
X002495
Y008155
Y007845
Y007515
Y007205
Y006875
Y006565
Y006235
Y005925
Y005595
Y005285
X003505
Y005595
Y005925
Y006235
Y006565
Y006875
Y007205
Y007515
Y007845
Y008155
Y008485
X003995
Y008155
Y007845
Y007515
Y007205
Y006875
Y006565
Y006235
Y005925
Y005595
Y005285
X005005
Y005595
Y005925
Y006235
Y006565
Y006875
Y007205
Y007515
Y007845
Y008155
Y008485
X005495
Y008155
Y007845
Y007515
Y007205
Y006875
Y006565
Y006235
Y005925
Y005595
Y005285
X006505
Y005595
Y005925
Y006235
Y006565
Y006875
Y007205
Y007515
Y007845
Y008155
Y008485
X006995
Y008155
Y007845
Y007515
Y007205
Y006875
Y006565
Y006235
Y005925
Y005595
Y005285
X008005
Y005595
Y005925
Y006235
Y006565
Y006875
Y007205
Y007515
Y007845
Y008155
Y008485
X008495
Y008155
Y007845
Y007515
Y007205
Y006875
Y006565
Y006235
Y005925
Y005595
Y005285
M30
