M48
;Layer_Color=9474304
;FILE_FORMAT=4:4
METRIC,LZ
;TYPE=PLATED
T1F00S00C0.4000
T2F00S00C0.5000
T3F00S00C0.6000
%
T01
X00019Y00084
X000645
X001075
X001578
X00184
X002295
X002725
X003228
X00349
X003945
X004375
X004878
X00514
X005595
X006025
X006528
X00679
X007245
X007675
X008178
X00844
X008895
X009325
X009828
X01009
X010545
X010975
X011478
X01174
X012195
X012625
X013128
X01339
X013845
X014275
X014778
X001075Y00877
X000645
X00019
X001578
X00184
X002295
X002725
X003228
X00349
X003945
X004375
X004878
X00514
X005595
X006025
X006528
X00679
X007245
X007675
X008178
X00844
X008895
X009325
X009828
X01009
X010545
X010975
X011478
X01174
X012195
X012625
X013128
X01339
X013845
X014275
X014778
T02
X000175Y000075
X000275
Y000175
X000175
Y000275
X000275
Y000375
X000175
X000575
Y000275
Y000175
Y000075
X000675
Y000175
Y000275
Y000375
X000975
Y000275
Y000175
Y000075
X001075
Y000175
Y000275
Y000375
X001375
Y000275
Y000175
Y000075
X001475
Y000175
Y000275
Y000375
X001825
Y000275
Y000175
Y000075
X001925
Y000175
Y000275
Y000375
X002225
Y000275
Y000175
Y000075
X002325
Y000175
Y000275
Y000375
X002625
Y000275
Y000175
Y000075
X002725
Y000175
Y000275
Y000375
X003025
Y000275
Y000175
Y000075
X003125
Y000175
Y000275
Y000375
X003475
Y000275
Y000175
Y000075
X003575
Y000175
Y000275
Y000375
X003875
Y000275
Y000175
Y000075
X003975
Y000175
Y000275
Y000375
X004275
Y000275
Y000175
Y000075
X004375
Y000175
Y000275
Y000375
X004675
Y000275
Y000175
Y000075
X004775
Y000175
Y000275
Y000375
X005125
Y000275
Y000175
Y000075
X005225
Y000175
Y000275
Y000375
X005525
Y000275
Y000175
Y000075
X005625
Y000175
Y000275
Y000375
X005925
Y000275
Y000175
Y000075
X006025
Y000175
Y000275
Y000375
X006325
Y000275
Y000175
Y000075
X006425
Y000175
Y000275
Y000375
X006775
Y000275
Y000175
Y000075
X006875
Y000175
Y000275
Y000375
X007175
Y000275
Y000175
Y000075
X007275
Y000175
Y000275
Y000375
X007575
Y000275
Y000175
Y000075
X007675
Y000175
Y000275
Y000375
X007975
Y000275
Y000175
Y000075
X008075
Y000175
Y000275
Y000375
X008425
Y000275
Y000175
Y000075
X008525
Y000175
Y000275
Y000375
X008825
Y000275
Y000175
Y000075
X008925
Y000175
Y000275
Y000375
X009225
Y000275
Y000175
Y000075
X009325
Y000175
Y000275
Y000375
X009625
Y000275
Y000175
Y000075
X009725
Y000175
Y000275
Y000375
X010075
Y000275
Y000175
Y000075
X010175
Y000175
Y000275
Y000375
X010475
Y000275
Y000175
Y000075
X010575
Y000175
Y000275
Y000375
X010875
Y000275
Y000175
Y000075
X010975
Y000175
Y000275
Y000375
X011275
Y000275
Y000175
Y000075
X011375
Y000175
Y000275
Y000375
X011725
Y000275
Y000175
Y000075
X011825
Y000175
Y000275
Y000375
X012125
Y000275
Y000175
Y000075
X012225
Y000175
Y000275
Y000375
X012525
Y000275
Y000175
Y000075
X012625
Y000175
Y000275
Y000375
X012925
Y000275
Y000175
Y000075
X013025
Y000175
Y000275
Y000375
X013375
Y000275
Y000175
Y000075
X013475
Y000175
Y000275
Y000375
X013775
Y000275
Y000175
Y000075
X013875
Y000175
Y000275
Y000375
X014175
Y000275
Y000175
Y000075
X014275
Y000175
Y000275
Y000375
X014575
Y000275
Y000175
Y000075
X014675
Y000175
Y000275
Y000375
Y009225
X014575
Y009325
X014675
Y009425
X014575
Y009525
X014675
X014275
Y009425
Y009325
Y009225
X014175
Y009325
Y009425
Y009525
X013875
Y009425
Y009325
Y009225
X013775
Y009325
Y009425
Y009525
X013475
Y009425
Y009325
Y009225
X013375
Y009325
Y009425
Y009525
X013025
Y009425
Y009325
Y009225
X012925
Y009325
Y009425
Y009525
X012625
Y009425
Y009325
Y009225
X012525
Y009325
Y009425
Y009525
X012225
Y009425
Y009325
Y009225
X012125
Y009325
Y009425
Y009525
X011825
Y009425
Y009325
Y009225
X011725
Y009325
Y009425
Y009525
X011375
Y009425
Y009325
Y009225
X011275
Y009325
Y009425
Y009525
X010975
Y009425
Y009325
Y009225
X010875
Y009325
Y009425
Y009525
X010575
Y009425
Y009325
Y009225
X010475
Y009325
Y009425
Y009525
X010175
Y009425
Y009325
Y009225
X010075
Y009325
Y009425
Y009525
X009725
Y009425
Y009325
Y009225
X009625
Y009325
Y009425
Y009525
X009325
Y009425
Y009325
Y009225
X009225
Y009325
Y009425
Y009525
X008925
Y009425
Y009325
Y009225
X008825
Y009325
Y009425
Y009525
X008525
Y009425
Y009325
Y009225
X008425
Y009325
Y009425
Y009525
X008075
Y009425
Y009325
Y009225
X007975
Y009325
Y009425
Y009525
X007675
Y009425
Y009325
Y009225
X007575
Y009325
Y009425
Y009525
X007275
Y009425
Y009325
Y009225
X007175
Y009325
Y009425
Y009525
X006875
Y009425
Y009325
Y009225
X006775
Y009325
Y009425
Y009525
X006425
Y009425
Y009325
Y009225
X006325
Y009325
Y009425
Y009525
X006025
Y009425
Y009325
Y009225
X005925
Y009325
Y009425
Y009525
X005625
Y009425
Y009325
Y009225
X005525
Y009325
Y009425
Y009525
X005225
Y009425
Y009325
Y009225
X005125
Y009325
Y009425
Y009525
X004775
Y009425
Y009325
Y009225
X004675
Y009325
Y009425
Y009525
X004375
Y009425
Y009325
Y009225
X004275
Y009325
Y009425
Y009525
X003975
Y009425
Y009325
Y009225
X003875
Y009325
Y009425
Y009525
X003575
Y009425
Y009325
Y009225
X003475
Y009325
Y009425
Y009525
X003125
Y009425
Y009325
Y009225
X003025
Y009325
Y009425
Y009525
X002725
Y009425
Y009325
Y009225
X002625
Y009325
Y009425
Y009525
X002325
Y009425
Y009325
Y009225
X002225
Y009325
Y009425
Y009525
X001925
Y009425
Y009325
Y009225
X001825
Y009325
Y009425
Y009525
X001475
Y009425
Y009325
Y009225
X001375
Y009325
Y009425
Y009525
X001075
Y009425
Y009325
Y009225
X000975
Y009325
Y009425
Y009525
X000675
Y009425
Y009325
Y009225
X000575
Y009325
Y009425
Y009525
X000275
Y009425
Y009325
Y009225
X000175
Y009325
Y009425
Y009525
T03
X0138Y001115
Y001445
Y001755
Y002085
Y002395
Y002725
Y003035
Y003365
Y003675
Y004005
Y004315
Y004645
Y004955
X01429
Y004645
Y004315
Y004005
Y003675
Y003365
Y003035
Y002725
Y002395
Y002085
Y001755
Y001445
Y001115
X01264
Y001445
Y001755
Y002085
Y002395
Y002725
Y003035
Y003365
Y003675
Y004005
Y004315
Y004645
Y004955
X01215
Y004645
Y004315
Y004005
Y003675
Y003365
Y003035
Y002725
Y002395
Y002085
Y001755
Y001445
Y001115
X01099
Y001445
Y001755
Y002085
Y002395
Y002725
Y003035
Y003365
Y003675
Y004005
Y004315
Y004645
Y004955
X0105
Y004645
Y004315
Y004005
Y003675
Y003365
Y003035
Y002725
Y002395
Y002085
Y001755
Y001445
Y001115
X00934
Y001445
Y001755
Y002085
Y002395
Y002725
Y003035
Y003365
Y003675
Y004005
Y004315
Y004645
Y004955
X00885
Y004645
Y004315
Y004005
Y003675
Y003365
Y003035
Y002725
Y002395
Y002085
Y001755
Y001445
Y001115
X00769
Y001445
Y001755
Y002085
Y002395
Y002725
Y003035
Y003365
Y003675
Y004005
Y004315
Y004645
Y004955
X0072
Y004645
Y004315
Y004005
Y003675
Y003365
Y003035
Y002725
Y002395
Y002085
Y001755
Y001445
Y001115
X00604
Y001445
Y001755
Y002085
Y002395
Y002725
Y003035
Y003365
Y003675
Y004005
Y004315
Y004645
Y004955
X00555
Y004645
Y004315
Y004005
Y003675
Y003365
Y003035
Y002725
Y002395
Y002085
Y001755
Y001445
Y001115
X00439
Y001445
Y001755
Y002085
Y002395
Y002725
Y003035
Y003365
Y003675
Y004005
Y004315
Y004645
Y004955
X0039
Y004645
Y004315
Y004005
Y003675
Y003365
Y003035
Y002725
Y002395
Y002085
Y001755
Y001445
Y001115
X00274
Y001445
Y001755
Y002085
Y002395
Y002725
Y003035
Y003365
Y003675
Y004005
Y004315
Y004645
Y004955
X00225
Y004645
Y004315
Y004005
Y003675
Y003365
Y003035
Y002725
Y002395
Y002085
Y001755
Y001445
Y001115
X00109
Y001445
Y001755
Y002085
Y002395
Y002725
Y003035
Y003365
Y003675
Y004005
Y004315
Y004645
Y004955
X0006
Y004645
Y004315
Y004005
Y003675
Y003365
Y003035
Y002725
Y002395
Y002085
Y001755
Y001445
Y001115
Y005285
Y005595
Y005925
Y006235
Y006565
Y006875
Y007205
Y007515
Y007845
Y008155
Y008485
X00109
Y008155
Y007845
Y007515
Y007205
Y006875
Y006565
Y006235
Y005925
Y005595
Y005285
X00225
Y005595
Y005925
Y006235
Y006565
Y006875
Y007205
Y007515
Y007845
Y008155
Y008485
X00274
Y008155
Y007845
Y007515
Y007205
Y006875
Y006565
Y006235
Y005925
Y005595
Y005285
X0039
Y005595
Y005925
Y006235
Y006565
Y006875
Y007205
Y007515
Y007845
Y008155
Y008485
X00439
Y008155
Y007845
Y007515
Y007205
Y006875
Y006565
Y006235
Y005925
Y005595
Y005285
X00555
Y005595
Y005925
Y006235
Y006565
Y006875
Y007205
Y007515
Y007845
Y008155
Y008485
X00604
Y008155
Y007845
Y007515
Y007205
Y006875
Y006565
Y006235
Y005925
Y005595
Y005285
X0072
Y005595
Y005925
Y006235
Y006565
Y006875
Y007205
Y007515
Y007845
Y008155
Y008485
X00769
Y008155
Y007845
Y007515
Y007205
Y006875
Y006565
Y006235
Y005925
Y005595
Y005285
X00885
Y005595
Y005925
Y006235
Y006565
Y006875
Y007205
Y007515
Y007845
Y008155
Y008485
X00934
Y008155
Y007845
Y007515
Y007205
Y006875
Y006565
Y006235
Y005925
Y005595
Y005285
X0105
Y005595
Y005925
Y006235
Y006565
Y006875
Y007205
Y007515
Y007845
Y008155
Y008485
X01099
Y008155
Y007845
Y007515
Y007205
Y006875
Y006565
Y006235
Y005925
Y005595
Y005285
X01215
Y005595
Y005925
Y006235
Y006565
Y006875
Y007205
Y007515
Y007845
Y008155
Y008485
X01264
Y008155
Y007845
Y007515
Y007205
Y006875
Y006565
Y006235
Y005925
Y005595
Y005285
X0138
Y005595
Y005925
Y006235
Y006565
Y006875
Y007205
Y007515
Y007845
Y008155
Y008485
X01429
Y008155
Y007845
Y007515
Y007205
Y006875
Y006565
Y006235
Y005925
Y005595
Y005285
M30
