G04*
G04 #@! TF.GenerationSoftware,Altium Limited,Altium Designer,21.7.2 (23)*
G04*
G04 Layer_Color=32896*
%FSLAX44Y44*%
%MOMM*%
G71*
G04*
G04 #@! TF.SameCoordinates,66631136-E9CF-4FC3-9E23-6EAF0B98F55D*
G04*
G04*
G04 #@! TF.FilePolarity,Positive*
G04*
G01*
G75*
%ADD22C,0.2000*%
%ADD32C,0.1500*%
D22*
X100000Y905997D02*
X96668D01*
X98334D01*
Y896000D01*
X100000D01*
X96668D01*
X86671Y905997D02*
X90003D01*
X91669Y904331D01*
Y897666D01*
X90003Y896000D01*
X86671D01*
X85005Y897666D01*
Y904331D01*
X86671Y905997D01*
X59335D02*
X66000D01*
Y900998D01*
X62668Y902664D01*
X61002D01*
X59335Y900998D01*
Y897666D01*
X61002Y896000D01*
X64334D01*
X66000Y897666D01*
X56003Y905997D02*
Y899332D01*
X52671Y896000D01*
X49339Y899332D01*
Y905997D01*
X100000Y64997D02*
X96668D01*
X98334D01*
Y55000D01*
X100000D01*
X96668D01*
X86671Y64997D02*
X90003D01*
X91669Y63331D01*
Y56666D01*
X90003Y55000D01*
X86671D01*
X85005Y56666D01*
Y63331D01*
X86671Y64997D01*
X59335D02*
X66000D01*
Y59998D01*
X62668Y61665D01*
X61002D01*
X59335Y59998D01*
Y56666D01*
X61002Y55000D01*
X64334D01*
X66000Y56666D01*
X56003Y64997D02*
Y58332D01*
X52671Y55000D01*
X49339Y58332D01*
Y64997D01*
X250000Y905997D02*
X246668D01*
X248334D01*
Y896000D01*
X250000D01*
X246668D01*
X236671Y905997D02*
X240003D01*
X241669Y904331D01*
Y897666D01*
X240003Y896000D01*
X236671D01*
X235005Y897666D01*
Y904331D01*
X236671Y905997D01*
X209335D02*
X216000D01*
Y900998D01*
X212668Y902664D01*
X211002D01*
X209335Y900998D01*
Y897666D01*
X211002Y896000D01*
X214334D01*
X216000Y897666D01*
X206003Y905997D02*
Y899332D01*
X202671Y896000D01*
X199339Y899332D01*
Y905997D01*
X250000Y64997D02*
X246668D01*
X248334D01*
Y55000D01*
X250000D01*
X246668D01*
X236671Y64997D02*
X240003D01*
X241669Y63331D01*
Y56666D01*
X240003Y55000D01*
X236671D01*
X235005Y56666D01*
Y63331D01*
X236671Y64997D01*
X209335D02*
X216000D01*
Y59998D01*
X212668Y61665D01*
X211002D01*
X209335Y59998D01*
Y56666D01*
X211002Y55000D01*
X214334D01*
X216000Y56666D01*
X206003Y64997D02*
Y58332D01*
X202671Y55000D01*
X199339Y58332D01*
Y64997D01*
X400000Y905997D02*
X396668D01*
X398334D01*
Y896000D01*
X400000D01*
X396668D01*
X386671Y905997D02*
X390003D01*
X391669Y904331D01*
Y897666D01*
X390003Y896000D01*
X386671D01*
X385005Y897666D01*
Y904331D01*
X386671Y905997D01*
X359336D02*
X366000D01*
Y900998D01*
X362668Y902664D01*
X361002D01*
X359336Y900998D01*
Y897666D01*
X361002Y896000D01*
X364334D01*
X366000Y897666D01*
X356003Y905997D02*
Y899332D01*
X352671Y896000D01*
X349339Y899332D01*
Y905997D01*
X400000Y64997D02*
X396668D01*
X398334D01*
Y55000D01*
X400000D01*
X396668D01*
X386671Y64997D02*
X390003D01*
X391669Y63331D01*
Y56666D01*
X390003Y55000D01*
X386671D01*
X385005Y56666D01*
Y63331D01*
X386671Y64997D01*
X359336D02*
X366000D01*
Y59998D01*
X362668Y61665D01*
X361002D01*
X359336Y59998D01*
Y56666D01*
X361002Y55000D01*
X364334D01*
X366000Y56666D01*
X356003Y64997D02*
Y58332D01*
X352671Y55000D01*
X349339Y58332D01*
Y64997D01*
X550000Y905997D02*
X546668D01*
X548334D01*
Y896000D01*
X550000D01*
X546668D01*
X536671Y905997D02*
X540003D01*
X541669Y904331D01*
Y897666D01*
X540003Y896000D01*
X536671D01*
X535005Y897666D01*
Y904331D01*
X536671Y905997D01*
X509336D02*
X516000D01*
Y900998D01*
X512668Y902664D01*
X511002D01*
X509336Y900998D01*
Y897666D01*
X511002Y896000D01*
X514334D01*
X516000Y897666D01*
X506003Y905997D02*
Y899332D01*
X502671Y896000D01*
X499339Y899332D01*
Y905997D01*
X550000Y64997D02*
X546668D01*
X548334D01*
Y55000D01*
X550000D01*
X546668D01*
X536671Y64997D02*
X540003D01*
X541669Y63331D01*
Y56666D01*
X540003Y55000D01*
X536671D01*
X535005Y56666D01*
Y63331D01*
X536671Y64997D01*
X509336D02*
X516000D01*
Y59998D01*
X512668Y61665D01*
X511002D01*
X509336Y59998D01*
Y56666D01*
X511002Y55000D01*
X514334D01*
X516000Y56666D01*
X506003Y64997D02*
Y58332D01*
X502671Y55000D01*
X499339Y58332D01*
Y64997D01*
X700000Y905997D02*
X696668D01*
X698334D01*
Y896000D01*
X700000D01*
X696668D01*
X686671Y905997D02*
X690003D01*
X691669Y904331D01*
Y897666D01*
X690003Y896000D01*
X686671D01*
X685005Y897666D01*
Y904331D01*
X686671Y905997D01*
X659335D02*
X666000D01*
Y900998D01*
X662668Y902664D01*
X661002D01*
X659335Y900998D01*
Y897666D01*
X661002Y896000D01*
X664334D01*
X666000Y897666D01*
X656003Y905997D02*
Y899332D01*
X652671Y896000D01*
X649339Y899332D01*
Y905997D01*
X700000Y64997D02*
X696668D01*
X698334D01*
Y55000D01*
X700000D01*
X696668D01*
X686671Y64997D02*
X690003D01*
X691669Y63331D01*
Y56666D01*
X690003Y55000D01*
X686671D01*
X685005Y56666D01*
Y63331D01*
X686671Y64997D01*
X659335D02*
X666000D01*
Y59998D01*
X662668Y61665D01*
X661002D01*
X659335Y59998D01*
Y56666D01*
X661002Y55000D01*
X664334D01*
X666000Y56666D01*
X656003Y64997D02*
Y58332D01*
X652671Y55000D01*
X649339Y58332D01*
Y64997D01*
X850000Y905997D02*
X846668D01*
X848334D01*
Y896000D01*
X850000D01*
X846668D01*
X836671Y905997D02*
X840003D01*
X841669Y904331D01*
Y897666D01*
X840003Y896000D01*
X836671D01*
X835005Y897666D01*
Y904331D01*
X836671Y905997D01*
X809335D02*
X816000D01*
Y900998D01*
X812668Y902664D01*
X811002D01*
X809335Y900998D01*
Y897666D01*
X811002Y896000D01*
X814334D01*
X816000Y897666D01*
X806003Y905997D02*
Y899332D01*
X802671Y896000D01*
X799339Y899332D01*
Y905997D01*
X850000Y64997D02*
X846668D01*
X848334D01*
Y55000D01*
X850000D01*
X846668D01*
X836671Y64997D02*
X840003D01*
X841669Y63331D01*
Y56666D01*
X840003Y55000D01*
X836671D01*
X835005Y56666D01*
Y63331D01*
X836671Y64997D01*
X809335D02*
X816000D01*
Y59998D01*
X812668Y61665D01*
X811002D01*
X809335Y59998D01*
Y56666D01*
X811002Y55000D01*
X814334D01*
X816000Y56666D01*
X806003Y64997D02*
Y58332D01*
X802671Y55000D01*
X799339Y58332D01*
Y64997D01*
D32*
X136503Y102832D02*
Y100166D01*
Y101499D01*
X143167D01*
X144500Y100166D01*
Y98833D01*
X143167Y97500D01*
X136503Y105497D02*
X144500D01*
Y110829D01*
X137836Y118826D02*
X136503Y117493D01*
Y114828D01*
X137836Y113495D01*
X143167D01*
X144500Y114828D01*
Y117493D01*
X143167Y118826D01*
X136503Y126824D02*
Y124158D01*
Y125491D01*
X143167D01*
X144500Y124158D01*
Y122825D01*
X143167Y121492D01*
X136503Y129490D02*
X144500D01*
Y134821D01*
X137836Y142819D02*
X136503Y141486D01*
Y138820D01*
X137836Y137487D01*
X143167D01*
X144500Y138820D01*
Y141486D01*
X143167Y142819D01*
X136503Y150816D02*
Y148150D01*
Y149483D01*
X143167D01*
X144500Y148150D01*
Y146817D01*
X143167Y145485D01*
X136503Y153482D02*
X144500D01*
Y158813D01*
X137836Y166811D02*
X136503Y165478D01*
Y162812D01*
X137836Y161479D01*
X143167D01*
X144500Y162812D01*
Y165478D01*
X143167Y166811D01*
X136503Y174808D02*
Y172143D01*
Y173475D01*
X143167D01*
X144500Y172143D01*
Y170810D01*
X143167Y169477D01*
X136503Y177474D02*
X144500D01*
Y182806D01*
X137836Y190803D02*
X136503Y189470D01*
Y186805D01*
X137836Y185472D01*
X143167D01*
X144500Y186805D01*
Y189470D01*
X143167Y190803D01*
M02*
