M48
;Layer_Color=9474304
;FILE_FORMAT=4:4
METRIC
;TYPE=PLATED
T1F00S00C0.3000
T3F00S00C0.8500
T4F00S00C0.9000
T5F00S00C0.9200
T6F00S00C1.0160
T7F00S00C1.0200
T8F00S00C1.1000
T9F00S00C2.3000
%
T01
X00385800Y00233850
X00412384Y00383000
X00552000Y00382000
X00593750Y00369750
X00580000Y00305000
X00614000Y00310000
X00758000Y00379000
X00769000Y00212000
X00771000Y00200000
X00796000Y00441000
X00790500Y00433250
X00782000Y00464000
X00426000Y00478000
X00414000Y00469000
X00337000Y00666000
Y00691000
T03
X00285000Y00320500
Y00355500
X00432500Y00364000
X00467500
X00819800Y00413750
Y00463750
X00315000Y00455500
Y00420500
X00285000Y00520500
Y00555500
T04
X00426000Y00289000
X00452000
X00478000
X00574000Y00338000
X00600000
X00626000
Y00393000
X00600000
X00574000
T05
X00168721Y00299023
X00160170Y00322516
X00153330Y00341310
X00144779Y00364802
X00145059Y00516222
X00153609Y00539714
X00160450Y00558508
X00169000Y00582000
T06
X00418600Y00500400
X00419000Y00525800
Y00551200
Y00576600
Y00602000
Y00627400
Y00652800
Y00678200
Y00703600
Y00729000
X00647600
X00673000
Y00703600
X00647600
Y00678200
X00673000
Y00652800
X00647600
Y00627400
X00673000
Y00602000
X00647600
Y00576600
X00673000
Y00551200
X00647600
Y00525800
X00673000
Y00500400
X00647600
X00393200Y00500400
Y00525800
Y00551200
Y00576600
Y00602000
Y00627400
Y00652800
Y00678200
Y00703600
Y00729000
T07
X00313000Y00078000
X00338400
X00363800
X00389200
X00327400Y00236000
X00302000
X00276600
X00251200
X00386000Y00337000
Y00362400
Y00387800
X00514000Y00388000
Y00362600
Y00337200
X00504000Y00208000
X00529400
X00554800
X00580200
X00605600
X00631000
X00478600
X00453200
X00751000Y00484800
Y00510200
Y00535600
Y00561000
Y00586400
Y00611800
Y00637200
Y00662600
T08
X00198000Y00662000
Y00682000
Y00702000
Y00722000
Y00742000
T09
X00153755Y00260906
X00108814Y00384382
X00109093Y00496642
X00154034Y00620117
M30
