G04*
G04 #@! TF.GenerationSoftware,Altium Limited,Altium Designer,21.7.2 (23)*
G04*
G04 Layer_Color=32768*
%FSAX44Y44*%
%MOMM*%
G71*
G04*
G04 #@! TF.SameCoordinates,E92E468F-2344-4334-A9F0-42BD54299544*
G04*
G04*
G04 #@! TF.FilePolarity,Positive*
G04*
G01*
G75*
%ADD111C,0.1000*%
%ADD113C,0.0500*%
%ADD114C,0.0025*%
D111*
X00684000Y00394000D02*
X00694000D01*
X00689000Y00389000D02*
Y00399000D01*
X00734000Y00405000D02*
X00744000D01*
X00739000Y00400000D02*
Y00410000D01*
X00688000Y00270000D02*
X00698000D01*
X00693000Y00265000D02*
Y00275000D01*
X00198504Y00634112D02*
X00204932Y00641773D01*
X00197888Y00641156D02*
X00205548Y00634728D01*
X00209000Y00357000D02*
X00219000D01*
X00214000Y00352000D02*
Y00362000D01*
X00628250Y00424000D02*
X00638250D01*
X00633250Y00419000D02*
Y00429000D01*
X00209000Y00516000D02*
X00219000D01*
X00214000Y00511000D02*
Y00521000D01*
X00385350Y00638000D02*
X00395350D01*
X00390350Y00633000D02*
Y00643000D01*
X00362350Y00638000D02*
X00372350D01*
X00367350Y00633000D02*
Y00643000D01*
X00381850Y00692250D02*
X00398850D01*
X00381850Y00657750D02*
X00398850D01*
Y00692250D01*
X00381850Y00657750D02*
Y00692250D01*
X00390350Y00670000D02*
Y00680000D01*
X00385350Y00675000D02*
X00395350D01*
X00537950Y00633000D02*
Y00643000D01*
X00532950Y00638000D02*
X00542950D01*
X00491950Y00633000D02*
Y00643000D01*
X00486950Y00638000D02*
X00496950D01*
X00514950Y00633000D02*
Y00643000D01*
X00509950Y00638000D02*
X00519950D01*
X00198504Y00241888D02*
X00204932Y00234228D01*
X00197888Y00234844D02*
X00205548Y00241272D01*
X00271000Y00364000D02*
Y00374000D01*
X00266000Y00369000D02*
X00276000D01*
X00333000Y00328000D02*
X00343000D01*
X00338000Y00323000D02*
Y00333000D01*
X00541000Y00278000D02*
X00551000D01*
X00546000Y00273000D02*
Y00283000D01*
X00270000Y00337000D02*
Y00347000D01*
X00265000Y00342000D02*
X00275000D01*
X00741000Y00471000D02*
X00751000D01*
X00746000Y00466000D02*
Y00476000D01*
X00802000Y00397000D02*
Y00407000D01*
X00797000Y00402000D02*
X00807000D01*
X00741000Y00450000D02*
X00751000D01*
X00746000Y00445000D02*
Y00455000D01*
X00443000Y00688750D02*
X00453000Y00688750D01*
X00448000Y00683750D02*
X00448000Y00693750D01*
X00499750Y00302000D02*
X00509750D01*
X00504750Y00297000D02*
Y00307000D01*
X00310000Y00323000D02*
Y00333000D01*
X00305000Y00328000D02*
X00315000D01*
X00271000Y00390750D02*
Y00400750D01*
X00266000Y00395750D02*
X00276000D01*
X00506000Y00278000D02*
X00516000D01*
X00511000Y00273000D02*
Y00283000D01*
X00839999Y00433763D02*
Y00443763D01*
X00834999Y00438763D02*
X00844999D01*
X00329000Y00182000D02*
X00339000D01*
X00334000Y00177000D02*
Y00187000D01*
X00561000Y00414000D02*
X00571000D01*
X00566000Y00409000D02*
Y00419000D01*
X00666000D02*
Y00429000D01*
X00661000Y00424000D02*
X00671000D01*
X00584000Y00414000D02*
X00594000D01*
X00589000Y00409000D02*
Y00419000D01*
X00448000Y00178750D02*
X00458000D01*
X00453000Y00173750D02*
Y00183750D01*
X00222000Y00298000D02*
X00232000D01*
X00227000Y00293000D02*
Y00303000D01*
X00588250Y00173000D02*
Y00183000D01*
X00583250Y00178000D02*
X00593250D01*
X00259000Y00619000D02*
Y00629000D01*
X00254000Y00624000D02*
X00264000D01*
X00588250Y00154000D02*
Y00164000D01*
X00583250Y00159000D02*
X00593250D01*
X00588250Y00135000D02*
Y00145000D01*
X00583250Y00140000D02*
X00593250D01*
X00601000Y00290000D02*
Y00300000D01*
X00596000Y00295000D02*
X00606000D01*
X00686500Y00201000D02*
X00696500D01*
X00691500Y00196000D02*
Y00206000D01*
X00595000Y00334000D02*
X00605000D01*
X00600000Y00329000D02*
Y00339000D01*
X00605000Y00256000D02*
X00615000D01*
X00610000Y00251000D02*
Y00261000D01*
X00652000Y00353000D02*
X00662000D01*
X00657000Y00348000D02*
Y00358000D01*
D113*
X00255000Y00357000D02*
G03*
X00255000Y00357000I-00041000J00000000D01*
G01*
Y00516000D02*
G03*
X00255000Y00516000I-00041000J00000000D01*
G01*
X00489000Y00688750D02*
G03*
X00489000Y00688750I-00041000J00000000D01*
G01*
X00698500Y00377000D02*
Y00411000D01*
X00679500Y00377000D02*
Y00411000D01*
X00698500D01*
X00679500Y00377000D02*
X00698500D01*
X00779000Y00370500D02*
Y00439500D01*
X00699000Y00370500D02*
Y00439500D01*
Y00370500D02*
X00779000D01*
X00699000Y00439500D02*
X00779000D01*
X00641500Y00212500D02*
Y00327500D01*
X00744500Y00212500D02*
Y00327500D01*
X00641500D02*
X00744500D01*
X00641500Y00212500D02*
X00744500D01*
X00166981Y00559837D02*
X00272604Y00685714D01*
X00058203Y00651113D02*
X00166981Y00559837D01*
X00058203Y00651113D02*
X00163826Y00776990D01*
X00163826Y00776990D02*
X00272604Y00685714D01*
X00619750Y00415500D02*
Y00432500D01*
X00646750Y00415500D02*
Y00432500D01*
X00619750D02*
X00646750D01*
X00619750Y00415500D02*
X00646750D01*
X00381850Y00624500D02*
Y00651500D01*
X00398850Y00624500D02*
Y00651500D01*
X00381850Y00624500D02*
X00398850D01*
X00381850Y00651500D02*
X00398850D01*
X00358850Y00624500D02*
Y00651500D01*
X00375850Y00624500D02*
Y00651500D01*
X00358850Y00624500D02*
X00375850D01*
X00358850Y00651500D02*
X00375850D01*
X00529450D02*
X00546450D01*
X00529450Y00624500D02*
X00546450D01*
Y00651500D01*
X00529450Y00624500D02*
Y00651500D01*
X00483450D02*
X00500450D01*
X00483450Y00624500D02*
X00500450D01*
Y00651500D01*
X00483450Y00624500D02*
Y00651500D01*
X00506450D02*
X00523450D01*
X00506450Y00624500D02*
X00523450D01*
Y00651500D01*
X00506450Y00624500D02*
Y00651500D01*
X00166981Y00316162D02*
X00272604Y00190286D01*
X00163826Y00099010D02*
X00272604Y00190286D01*
X00058203Y00224887D02*
X00163826Y00099010D01*
X00058203Y00224887D02*
X00166982Y00316162D01*
X00257500Y00377500D02*
X00284500D01*
X00257500Y00360500D02*
X00284500D01*
X00257500D02*
Y00377500D01*
X00284500Y00360500D02*
Y00377500D01*
X00322500Y00312400D02*
Y00343600D01*
X00353500Y00312400D02*
Y00343600D01*
X00322500D02*
X00353500D01*
X00322500Y00312400D02*
X00353500D01*
X00530500Y00262400D02*
Y00293600D01*
X00561500Y00262400D02*
Y00293600D01*
X00530500D02*
X00561500D01*
X00530500Y00262400D02*
X00561500D01*
X00254400Y00357500D02*
X00285600D01*
X00254400Y00326500D02*
X00285600D01*
Y00357500D01*
X00254400Y00326500D02*
Y00357500D01*
X00729000Y00461500D02*
Y00480500D01*
X00763000Y00461500D02*
Y00480500D01*
X00729000D02*
X00763000D01*
X00729000Y00461500D02*
X00763000D01*
X00792500Y00385000D02*
X00811500D01*
X00792500Y00419000D02*
X00811500D01*
X00792500Y00385000D02*
Y00419000D01*
X00811500Y00385000D02*
Y00419000D01*
X00729000Y00440500D02*
Y00459500D01*
X00763000Y00440500D02*
Y00459500D01*
X00729000D02*
X00763000D01*
X00729000Y00440500D02*
X00763000D01*
X00518250Y00293500D02*
Y00310500D01*
X00491250Y00293500D02*
Y00310500D01*
Y00293500D02*
X00518250D01*
X00491250Y00310500D02*
X00518250D01*
X00301500Y00314500D02*
X00318500D01*
X00301500Y00341500D02*
X00318500D01*
X00301500Y00314500D02*
Y00341500D01*
X00318500Y00314500D02*
Y00341500D01*
X00262500Y00382250D02*
X00279500D01*
X00262500Y00409250D02*
X00279500D01*
X00262500Y00382250D02*
Y00409250D01*
X00279500Y00382250D02*
Y00409250D01*
X00519500Y00264500D02*
Y00291500D01*
X00502500Y00264500D02*
Y00291500D01*
X00519500D01*
X00502500Y00264500D02*
X00519500D01*
X00818249Y00396763D02*
Y00480763D01*
X00879999D01*
Y00396763D02*
Y00480763D01*
X00818249Y00396763D02*
X00879999D01*
X00347500Y00173500D02*
Y00190500D01*
X00320500Y00173500D02*
Y00190500D01*
Y00173500D02*
X00347500D01*
X00320500Y00190500D02*
X00347500D01*
X00575500Y00397000D02*
Y00431000D01*
X00556500Y00397000D02*
Y00431000D01*
X00575500D01*
X00556500Y00397000D02*
X00575500D01*
X00649000Y00433500D02*
X00683000D01*
X00649000Y00414500D02*
X00683000D01*
X00649000D02*
Y00433500D01*
X00683000Y00414500D02*
Y00433500D01*
X00598500Y00397000D02*
Y00431000D01*
X00579500Y00397000D02*
Y00431000D01*
X00598500D01*
X00579500Y00397000D02*
X00598500D01*
X00461500Y00165250D02*
Y00192250D01*
X00444500Y00165250D02*
Y00192250D01*
X00461500D01*
X00444500Y00165250D02*
X00461500D01*
X00244000Y00288500D02*
Y00307500D01*
X00210000Y00288500D02*
Y00307500D01*
Y00288500D02*
X00244000D01*
X00210000Y00307500D02*
X00244000D01*
X00574750Y00169500D02*
X00601750D01*
X00574750Y00186500D02*
X00601750D01*
Y00169500D02*
Y00186500D01*
X00574750Y00169500D02*
Y00186500D01*
X00249500Y00607000D02*
X00268500D01*
X00249500Y00641000D02*
X00268500D01*
X00249500Y00607000D02*
Y00641000D01*
X00268500Y00607000D02*
Y00641000D01*
X00574750Y00150500D02*
X00601750D01*
X00574750Y00167500D02*
X00601750D01*
Y00150500D02*
Y00167500D01*
X00574750Y00150500D02*
Y00167500D01*
Y00131500D02*
X00601750D01*
X00574750Y00148500D02*
X00601750D01*
Y00131500D02*
Y00148500D01*
X00574750Y00131500D02*
Y00148500D01*
X00567000Y00309350D02*
X00635000D01*
Y00270500D02*
Y00309350D01*
X00567000Y00270500D02*
X00635000D01*
X00567000D02*
Y00309350D01*
X00674500Y00191500D02*
Y00210500D01*
X00708500Y00191500D02*
Y00210500D01*
X00674500D02*
X00708500D01*
X00674500Y00191500D02*
X00708500D01*
X00634000Y00319650D02*
Y00358500D01*
X00566000D02*
X00634000D01*
X00566000Y00319650D02*
Y00358500D01*
Y00319650D02*
X00634000D01*
X00596500Y00247500D02*
Y00264500D01*
X00623500Y00247500D02*
Y00264500D01*
X00596500D02*
X00623500D01*
X00596500Y00247500D02*
X00623500D01*
X00643500Y00344500D02*
Y00361500D01*
X00670500Y00344500D02*
Y00361500D01*
X00643500D02*
X00670500D01*
X00643500Y00344500D02*
X00670500D01*
D114*
X00449446Y00567454D02*
X00449954Y00566946D01*
M02*
