G04*
G04 #@! TF.GenerationSoftware,Altium Limited,Altium Designer,20.2.6 (244)*
G04*
G04 Layer_Color=8388736*
%FSAX44Y44*%
%MOMM*%
G71*
G04*
G04 #@! TF.SameCoordinates,65735EED-05C8-4403-9655-43ED446DB93E*
G04*
G04*
G04 #@! TF.FilePolarity,Negative*
G04*
G01*
G75*
%ADD14C,0.6000*%
%ADD24R,2.2000X1.0000*%
%ADD25R,2.2000X3.3000*%
%ADD26R,0.9500X1.4500*%
%ADD27R,1.4500X0.9500*%
%ADD28R,1.5000X1.3000*%
%ADD29R,1.3000X1.5000*%
%ADD30O,1.9500X0.5500*%
%ADD31R,2.0000X1.6000*%
%ADD32R,1.4500X0.5000*%
%ADD33C,1.4500*%
%ADD34R,1.4500X1.4500*%
%ADD35C,1.7500*%
%ADD36P,2.1920X4X295.0*%
%ADD37C,1.5500*%
%ADD38C,2.9000*%
%ADD39R,1.9288X1.9288*%
%ADD40C,1.9288*%
%ADD41C,1.6500*%
%ADD42R,1.4500X1.4500*%
%ADD43C,1.5000*%
%ADD44R,1.5000X1.5000*%
%ADD45P,2.1920X4X335.0*%
%ADD46C,0.8000*%
G36*
X00856398Y00416243D02*
X00856492Y00416214D01*
X00856579Y00416168D01*
X00856655Y00416105D01*
X00856718Y00416029D01*
X00856764Y00415942D01*
X00856793Y00415848D01*
X00856802Y00415750D01*
Y00402750D01*
X00856793Y00402652D01*
X00856764Y00402558D01*
X00856718Y00402471D01*
X00856655Y00402395D01*
X00856579Y00402332D01*
X00856492Y00402286D01*
X00856398Y00402257D01*
X00856300Y00402248D01*
X00851803D01*
Y00397750D01*
X00851793Y00397652D01*
X00851764Y00397558D01*
X00851718Y00397471D01*
X00851656Y00397395D01*
X00851579Y00397332D01*
X00851492Y00397286D01*
X00851398Y00397257D01*
X00851300Y00397248D01*
X00842300Y00397248D01*
X00842300D01*
D01*
X00842202Y00397257D01*
X00842108Y00397286D01*
X00842021Y00397332D01*
X00841945Y00397395D01*
X00841882Y00397471D01*
X00841836Y00397558D01*
X00841807Y00397652D01*
X00841798Y00397750D01*
Y00397750D01*
D01*
Y00402248D01*
X00837300D01*
X00837202Y00402257D01*
X00837108Y00402286D01*
X00837021Y00402332D01*
X00836945Y00402395D01*
X00836882Y00402471D01*
X00836836Y00402558D01*
X00836807Y00402652D01*
X00836798Y00402750D01*
Y00415750D01*
X00836807Y00415848D01*
X00836836Y00415942D01*
X00836882Y00416029D01*
X00836945Y00416105D01*
X00837021Y00416168D01*
X00837108Y00416214D01*
X00837202Y00416243D01*
X00837300Y00416252D01*
X00856300D01*
X00856398Y00416243D01*
D02*
G37*
G36*
X00851398Y00480243D02*
X00851492Y00480214D01*
X00851579Y00480168D01*
X00851655Y00480105D01*
X00851718Y00480029D01*
X00851764Y00479942D01*
X00851793Y00479848D01*
X00851802Y00479750D01*
Y00479750D01*
D01*
Y00475252D01*
X00856300D01*
X00856398Y00475243D01*
X00856492Y00475214D01*
X00856579Y00475168D01*
X00856655Y00475105D01*
X00856718Y00475029D01*
X00856764Y00474942D01*
X00856793Y00474848D01*
X00856802Y00474750D01*
Y00461750D01*
X00856793Y00461652D01*
X00856764Y00461558D01*
X00856718Y00461471D01*
X00856655Y00461395D01*
X00856579Y00461332D01*
X00856492Y00461286D01*
X00856398Y00461257D01*
X00856300Y00461248D01*
X00837300D01*
X00837202Y00461257D01*
X00837108Y00461286D01*
X00837021Y00461332D01*
X00836945Y00461395D01*
X00836882Y00461471D01*
X00836836Y00461558D01*
X00836807Y00461652D01*
X00836798Y00461750D01*
Y00474750D01*
X00836807Y00474848D01*
X00836836Y00474942D01*
X00836882Y00475029D01*
X00836945Y00475105D01*
X00837021Y00475168D01*
X00837108Y00475214D01*
X00837202Y00475243D01*
X00837300Y00475252D01*
X00841797D01*
Y00479750D01*
X00841807Y00479848D01*
X00841836Y00479942D01*
X00841882Y00480029D01*
X00841945Y00480105D01*
X00842021Y00480168D01*
X00842107Y00480214D01*
X00842202Y00480243D01*
X00842300Y00480252D01*
X00851300Y00480252D01*
X00851300D01*
D01*
X00851398Y00480243D01*
D02*
G37*
D14*
X00844800Y00474750D02*
G03*
X00844800Y00474750I-00002500J00000000D01*
G01*
X00853800D02*
G03*
X00853800Y00474750I-00002500J00000000D01*
G01*
X00844800Y00402750D02*
G03*
X00844800Y00402750I-00002500J00000000D01*
G01*
X00853800D02*
G03*
X00853800Y00402750I-00002500J00000000D01*
G01*
D24*
X00807500Y00317000D02*
D03*
Y00340000D02*
D03*
Y00363000D02*
D03*
D25*
X00750500Y00340000D02*
D03*
D26*
X00385750Y00112000D02*
D03*
X00402250D02*
D03*
X00355250D02*
D03*
X00338750D02*
D03*
X00596500Y00178000D02*
D03*
X00580000D02*
D03*
X00596500Y00159000D02*
D03*
X00580000D02*
D03*
X00596500Y00140000D02*
D03*
X00580000D02*
D03*
X00609750Y00273000D02*
D03*
X00626250D02*
D03*
X00609750Y00292000D02*
D03*
X00626250D02*
D03*
X00452750Y00255000D02*
D03*
X00469250D02*
D03*
X00426250D02*
D03*
X00409750D02*
D03*
D27*
X00453000Y00187000D02*
D03*
Y00170500D02*
D03*
X00538750Y00363250D02*
D03*
Y00346750D02*
D03*
D28*
X00225000Y00318500D02*
D03*
Y00335500D02*
D03*
Y00538500D02*
D03*
Y00555500D02*
D03*
X00774000Y00248000D02*
D03*
Y00265000D02*
D03*
D29*
X00606500Y00254000D02*
D03*
X00623500D02*
D03*
X00723500Y00340000D02*
D03*
X00706500D02*
D03*
X00756500Y00415000D02*
D03*
X00739500D02*
D03*
X00756750Y00436750D02*
D03*
X00739750D02*
D03*
D30*
X00747250Y00199750D02*
D03*
Y00206250D02*
D03*
Y00212750D02*
D03*
Y00219250D02*
D03*
Y00225750D02*
D03*
Y00232250D02*
D03*
Y00238750D02*
D03*
Y00245250D02*
D03*
Y00251750D02*
D03*
Y00258250D02*
D03*
Y00264750D02*
D03*
Y00271250D02*
D03*
Y00277750D02*
D03*
Y00284250D02*
D03*
X00672750Y00199750D02*
D03*
Y00206250D02*
D03*
Y00212750D02*
D03*
Y00219250D02*
D03*
Y00225750D02*
D03*
Y00232250D02*
D03*
Y00238750D02*
D03*
Y00245250D02*
D03*
Y00251750D02*
D03*
Y00258250D02*
D03*
Y00264750D02*
D03*
Y00271250D02*
D03*
Y00277750D02*
D03*
Y00284250D02*
D03*
D31*
X00846800Y00448750D02*
D03*
Y00428750D02*
D03*
D32*
X00819800Y00451750D02*
D03*
Y00445250D02*
D03*
Y00438750D02*
D03*
Y00432250D02*
D03*
Y00425750D02*
D03*
D33*
X00285000Y00320500D02*
D03*
X00467500Y00364000D02*
D03*
X00315000Y00420500D02*
D03*
X00285000Y00520500D02*
D03*
D34*
Y00355500D02*
D03*
X00315000Y00455500D02*
D03*
X00285000Y00555500D02*
D03*
D35*
X00198000Y00682000D02*
D03*
Y00662000D02*
D03*
Y00702000D02*
D03*
Y00722000D02*
D03*
Y00742000D02*
D03*
D36*
X00169000Y00582000D02*
D03*
D37*
X00160450Y00558508D02*
D03*
X00153609Y00539714D02*
D03*
X00145059Y00516222D02*
D03*
X00819800Y00413750D02*
D03*
Y00463750D02*
D03*
X00168721Y00299023D02*
D03*
X00160170Y00322516D02*
D03*
X00153330Y00341310D02*
D03*
D38*
X00154034Y00620117D02*
D03*
X00109093Y00496642D02*
D03*
X00153755Y00260906D02*
D03*
X00108814Y00384382D02*
D03*
D39*
X00393200Y00500400D02*
D03*
X00419000Y00652800D02*
D03*
X00673000Y00500400D02*
D03*
D40*
X00393200Y00729000D02*
D03*
Y00652800D02*
D03*
Y00678200D02*
D03*
Y00576600D02*
D03*
Y00602000D02*
D03*
Y00525800D02*
D03*
Y00627400D02*
D03*
Y00703600D02*
D03*
Y00551200D02*
D03*
X00418600Y00500400D02*
D03*
X00673000Y00729000D02*
D03*
X00419000D02*
D03*
X00647600D02*
D03*
X00673000Y00703600D02*
D03*
X00419000D02*
D03*
X00647600D02*
D03*
X00673000Y00678200D02*
D03*
X00419000D02*
D03*
X00647600D02*
D03*
X00673000Y00652800D02*
D03*
X00647600D02*
D03*
X00673000Y00627400D02*
D03*
X00419000D02*
D03*
X00647600D02*
D03*
X00673000Y00602000D02*
D03*
X00419000D02*
D03*
X00647600D02*
D03*
X00673000Y00576600D02*
D03*
X00419000D02*
D03*
X00647600D02*
D03*
X00673000Y00551200D02*
D03*
X00419000D02*
D03*
X00647600D02*
D03*
X00673000Y00525800D02*
D03*
X00419000D02*
D03*
X00647600D02*
D03*
Y00500400D02*
D03*
D41*
X00529400Y00208000D02*
D03*
X00504000D02*
D03*
X00478600D02*
D03*
X00453200D02*
D03*
X00554800D02*
D03*
X00580200D02*
D03*
X00605600D02*
D03*
X00631000D02*
D03*
X00251200Y00236000D02*
D03*
X00276600D02*
D03*
X00302000D02*
D03*
X00327400D02*
D03*
X00751000Y00561000D02*
D03*
Y00535600D02*
D03*
Y00510200D02*
D03*
Y00484800D02*
D03*
Y00586400D02*
D03*
Y00611800D02*
D03*
Y00637200D02*
D03*
Y00662600D02*
D03*
X00514000Y00388000D02*
D03*
Y00362600D02*
D03*
Y00337200D02*
D03*
X00386000Y00387800D02*
D03*
Y00362400D02*
D03*
Y00337000D02*
D03*
X00389200Y00078000D02*
D03*
X00363800D02*
D03*
X00338400D02*
D03*
X00313000D02*
D03*
D42*
X00432500Y00364000D02*
D03*
D43*
X00600000Y00338000D02*
D03*
X00574000D02*
D03*
X00626000Y00393000D02*
D03*
X00600000D02*
D03*
X00478000Y00289000D02*
D03*
X00452000D02*
D03*
D44*
X00626000Y00338000D02*
D03*
X00574000Y00393000D02*
D03*
X00426000Y00289000D02*
D03*
D45*
X00144779Y00364802D02*
D03*
D46*
X00758000Y00379000D02*
D03*
X00412384Y00383000D02*
D03*
X00337000Y00691000D02*
D03*
Y00666000D02*
D03*
X00552000Y00382000D02*
D03*
X00593750Y00369750D02*
D03*
X00426000Y00478000D02*
D03*
X00414000Y00469000D02*
D03*
X00385800Y00233850D02*
D03*
X00614000Y00310000D02*
D03*
X00580000Y00305000D02*
D03*
X00796000Y00441000D02*
D03*
X00790500Y00433250D02*
D03*
X00782000Y00464000D02*
D03*
X00769000Y00212000D02*
D03*
X00771000Y00200000D02*
D03*
M02*
