G04*
G04 #@! TF.GenerationSoftware,Altium Limited,Altium Designer,21.7.2 (23)*
G04*
G04 Layer_Color=16711935*
%FSAX44Y44*%
%MOMM*%
G71*
G04*
G04 #@! TF.SameCoordinates,E92E468F-2344-4334-A9F0-42BD54299544*
G04*
G04*
G04 #@! TF.FilePolarity,Negative*
G04*
G01*
G75*
%ADD43R,2.3000X10.3000*%
G04:AMPARAMS|DCode=44|XSize=2.3mm|YSize=10.3mm|CornerRadius=0mm|HoleSize=0mm|Usage=FLASHONLY|Rotation=40.000|XOffset=0mm|YOffset=0mm|HoleType=Round|Shape=Rectangle|*
%AMROTATEDRECTD44*
4,1,4,2.4294,-4.6843,-4.1913,3.2059,-2.4294,4.6843,4.1913,-3.2059,2.4294,-4.6843,0.0*
%
%ADD44ROTATEDRECTD44*%

G04:AMPARAMS|DCode=45|XSize=2.3mm|YSize=10.3mm|CornerRadius=0mm|HoleSize=0mm|Usage=FLASHONLY|Rotation=80.000|XOffset=0mm|YOffset=0mm|HoleType=Round|Shape=Rectangle|*
%AMROTATEDRECTD45*
4,1,4,4.8721,-2.0268,-5.2715,-0.2382,-4.8721,2.0268,5.2715,0.2382,4.8721,-2.0268,0.0*
%
%ADD45ROTATEDRECTD45*%

G04:AMPARAMS|DCode=46|XSize=2.3mm|YSize=10.3mm|CornerRadius=0mm|HoleSize=0mm|Usage=FLASHONLY|Rotation=120.000|XOffset=0mm|YOffset=0mm|HoleType=Round|Shape=Rectangle|*
%AMROTATEDRECTD46*
4,1,4,5.0350,1.5791,-3.8850,-3.5709,-5.0350,-1.5791,3.8850,3.5709,5.0350,1.5791,0.0*
%
%ADD46ROTATEDRECTD46*%

G04:AMPARAMS|DCode=47|XSize=2.3mm|YSize=10.3mm|CornerRadius=0mm|HoleSize=0mm|Usage=FLASHONLY|Rotation=160.000|XOffset=0mm|YOffset=0mm|HoleType=Round|Shape=Rectangle|*
%AMROTATEDRECTD47*
4,1,4,2.8421,4.4461,-0.6808,-5.2327,-2.8421,-4.4461,0.6808,5.2327,2.8421,4.4461,0.0*
%
%ADD47ROTATEDRECTD47*%

G04:AMPARAMS|DCode=48|XSize=2.3mm|YSize=10.3mm|CornerRadius=0mm|HoleSize=0mm|Usage=FLASHONLY|Rotation=200.000|XOffset=0mm|YOffset=0mm|HoleType=Round|Shape=Rectangle|*
%AMROTATEDRECTD48*
4,1,4,-0.6808,5.2327,2.8421,-4.4461,0.6808,-5.2327,-2.8421,4.4461,-0.6808,5.2327,0.0*
%
%ADD48ROTATEDRECTD48*%

G04:AMPARAMS|DCode=49|XSize=2.3mm|YSize=10.3mm|CornerRadius=0mm|HoleSize=0mm|Usage=FLASHONLY|Rotation=240.000|XOffset=0mm|YOffset=0mm|HoleType=Round|Shape=Rectangle|*
%AMROTATEDRECTD49*
4,1,4,-3.8850,3.5709,5.0350,-1.5791,3.8850,-3.5709,-5.0350,1.5791,-3.8850,3.5709,0.0*
%
%ADD49ROTATEDRECTD49*%

G04:AMPARAMS|DCode=50|XSize=2.3mm|YSize=10.3mm|CornerRadius=0mm|HoleSize=0mm|Usage=FLASHONLY|Rotation=280.000|XOffset=0mm|YOffset=0mm|HoleType=Round|Shape=Rectangle|*
%AMROTATEDRECTD50*
4,1,4,-5.2715,0.2382,4.8721,2.0268,5.2715,-0.2382,-4.8721,-2.0268,-5.2715,0.2382,0.0*
%
%ADD50ROTATEDRECTD50*%

G04:AMPARAMS|DCode=51|XSize=2.3mm|YSize=10.3mm|CornerRadius=0mm|HoleSize=0mm|Usage=FLASHONLY|Rotation=320.000|XOffset=0mm|YOffset=0mm|HoleType=Round|Shape=Rectangle|*
%AMROTATEDRECTD51*
4,1,4,-4.1913,-3.2059,2.4294,4.6843,4.1913,3.2059,-2.4294,-4.6843,-4.1913,-3.2059,0.0*
%
%ADD51ROTATEDRECTD51*%

%ADD52C,2.6000*%
%ADD53C,2.9000*%
%ADD54C,1.5500*%
%ADD55P,2.1920X4X275.0*%
%ADD56R,1.4500X1.4500*%
%ADD57C,1.4500*%
%ADD58C,1.6500*%
%ADD59P,2.1920X4X355.0*%
%ADD60R,1.9288X1.9288*%
%ADD61C,1.9288*%
%ADD62C,1.5000*%
%ADD63R,1.5000X1.5000*%
%ADD64C,0.8000*%
%ADD65C,1.3700*%
%ADD99R,3.1000X2.4000*%
%ADD100C,1.1000*%
G04:AMPARAMS|DCode=101|XSize=3.1mm|YSize=2.4mm|CornerRadius=0mm|HoleSize=0mm|Usage=FLASHONLY|Rotation=40.000|XOffset=0mm|YOffset=0mm|HoleType=Round|Shape=Rectangle|*
%AMROTATEDRECTD101*
4,1,4,-0.4160,-1.9156,-1.9587,-0.0771,0.4160,1.9156,1.9587,0.0771,-0.4160,-1.9156,0.0*
%
%ADD101ROTATEDRECTD101*%

G04:AMPARAMS|DCode=102|XSize=3.1mm|YSize=2.4mm|CornerRadius=0mm|HoleSize=0mm|Usage=FLASHONLY|Rotation=80.000|XOffset=0mm|YOffset=0mm|HoleType=Round|Shape=Rectangle|*
%AMROTATEDRECTD102*
4,1,4,0.9126,-1.7348,-1.4509,-1.3181,-0.9126,1.7348,1.4509,1.3181,0.9126,-1.7348,0.0*
%
%ADD102ROTATEDRECTD102*%

G04:AMPARAMS|DCode=103|XSize=3.1mm|YSize=2.4mm|CornerRadius=0mm|HoleSize=0mm|Usage=FLASHONLY|Rotation=120.000|XOffset=0mm|YOffset=0mm|HoleType=Round|Shape=Rectangle|*
%AMROTATEDRECTD103*
4,1,4,1.8142,-0.7423,-0.2642,-1.9423,-1.8142,0.7423,0.2642,1.9423,1.8142,-0.7423,0.0*
%
%ADD103ROTATEDRECTD103*%

G04:AMPARAMS|DCode=104|XSize=3.1mm|YSize=2.4mm|CornerRadius=0mm|HoleSize=0mm|Usage=FLASHONLY|Rotation=160.000|XOffset=0mm|YOffset=0mm|HoleType=Round|Shape=Rectangle|*
%AMROTATEDRECTD104*
4,1,4,1.8670,0.5975,1.0461,-1.6578,-1.8670,-0.5975,-1.0461,1.6578,1.8670,0.5975,0.0*
%
%ADD104ROTATEDRECTD104*%

G04:AMPARAMS|DCode=105|XSize=3.1mm|YSize=2.4mm|CornerRadius=0mm|HoleSize=0mm|Usage=FLASHONLY|Rotation=200.000|XOffset=0mm|YOffset=0mm|HoleType=Round|Shape=Rectangle|*
%AMROTATEDRECTD105*
4,1,4,1.0461,1.6578,1.8670,-0.5975,-1.0461,-1.6578,-1.8670,0.5975,1.0461,1.6578,0.0*
%
%ADD105ROTATEDRECTD105*%

G04:AMPARAMS|DCode=106|XSize=3.1mm|YSize=2.4mm|CornerRadius=0mm|HoleSize=0mm|Usage=FLASHONLY|Rotation=240.000|XOffset=0mm|YOffset=0mm|HoleType=Round|Shape=Rectangle|*
%AMROTATEDRECTD106*
4,1,4,-0.2642,1.9423,1.8142,0.7423,0.2642,-1.9423,-1.8142,-0.7423,-0.2642,1.9423,0.0*
%
%ADD106ROTATEDRECTD106*%

G04:AMPARAMS|DCode=107|XSize=3.1mm|YSize=2.4mm|CornerRadius=0mm|HoleSize=0mm|Usage=FLASHONLY|Rotation=280.000|XOffset=0mm|YOffset=0mm|HoleType=Round|Shape=Rectangle|*
%AMROTATEDRECTD107*
4,1,4,-1.4509,1.3181,0.9126,1.7348,1.4509,-1.3181,-0.9126,-1.7348,-1.4509,1.3181,0.0*
%
%ADD107ROTATEDRECTD107*%

G04:AMPARAMS|DCode=108|XSize=3.1mm|YSize=2.4mm|CornerRadius=0mm|HoleSize=0mm|Usage=FLASHONLY|Rotation=320.000|XOffset=0mm|YOffset=0mm|HoleType=Round|Shape=Rectangle|*
%AMROTATEDRECTD108*
4,1,4,-1.9587,0.0771,-0.4160,1.9156,1.9587,-0.0771,0.4160,-1.9156,-1.9587,0.0771,0.0*
%
%ADD108ROTATEDRECTD108*%

G36*
X00064098Y00430993D02*
X00064192Y00430964D01*
X00064279Y00430918D01*
X00064355Y00430855D01*
X00064418Y00430779D01*
X00064464Y00430692D01*
X00064493Y00430598D01*
X00064502Y00430500D01*
Y00405500D01*
X00064493Y00405402D01*
X00064464Y00405308D01*
X00064418Y00405221D01*
X00064355Y00405145D01*
X00064279Y00405082D01*
X00064192Y00405036D01*
X00064098Y00405007D01*
X00064000Y00404998D01*
X00042354D01*
X00042338Y00404999D01*
X00042322Y00404999D01*
X00042289Y00405004D01*
X00042256Y00405007D01*
X00042241Y00405012D01*
X00042224Y00405015D01*
X00039045Y00405867D01*
X00039030Y00405872D01*
X00039014Y00405876D01*
X00038984Y00405890D01*
X00038953Y00405901D01*
X00038939Y00405910D01*
X00038924Y00405917D01*
X00036074Y00407562D01*
X00036060Y00407572D01*
X00036046Y00407580D01*
X00036020Y00407601D01*
X00035994Y00407620D01*
X00035982Y00407632D01*
X00035970Y00407642D01*
X00033642Y00409969D01*
X00033632Y00409982D01*
X00033620Y00409994D01*
X00033601Y00410020D01*
X00033580Y00410046D01*
X00033572Y00410060D01*
X00033562Y00410074D01*
X00031917Y00412924D01*
X00031910Y00412939D01*
X00031901Y00412953D01*
X00031890Y00412984D01*
X00031876Y00413014D01*
X00031872Y00413030D01*
X00031867Y00413045D01*
X00031015Y00416224D01*
X00031012Y00416241D01*
X00031007Y00416256D01*
X00031004Y00416289D01*
X00030999Y00416321D01*
X00030999Y00416338D01*
X00030998Y00416354D01*
Y00419646D01*
X00030999Y00419662D01*
X00030999Y00419678D01*
X00031004Y00419711D01*
X00031007Y00419744D01*
X00031012Y00419759D01*
X00031015Y00419776D01*
X00031867Y00422955D01*
X00031872Y00422970D01*
X00031876Y00422986D01*
X00031890Y00423016D01*
X00031901Y00423047D01*
X00031910Y00423061D01*
X00031917Y00423076D01*
X00033562Y00425926D01*
X00033572Y00425940D01*
X00033580Y00425954D01*
X00033601Y00425980D01*
X00033620Y00426006D01*
X00033632Y00426018D01*
X00033642Y00426030D01*
X00035970Y00428358D01*
X00035982Y00428368D01*
X00035994Y00428380D01*
X00036020Y00428399D01*
X00036046Y00428420D01*
X00036060Y00428428D01*
X00036074Y00428438D01*
X00038924Y00430083D01*
X00038939Y00430090D01*
X00038953Y00430099D01*
X00038984Y00430110D01*
X00039014Y00430124D01*
X00039030Y00430128D01*
X00039045Y00430133D01*
X00042224Y00430985D01*
X00042241Y00430988D01*
X00042256Y00430993D01*
X00042289Y00430996D01*
X00042322Y00431001D01*
X00042338Y00431001D01*
X00042354Y00431002D01*
X00064000D01*
X00064098Y00430993D01*
D02*
G37*
G36*
X00117662Y00431001D02*
X00117678Y00431001D01*
X00117711Y00430996D01*
X00117744Y00430993D01*
X00117760Y00430988D01*
X00117776Y00430985D01*
X00120955Y00430133D01*
X00120970Y00430128D01*
X00120986Y00430124D01*
X00121016Y00430110D01*
X00121047Y00430099D01*
X00121061Y00430090D01*
X00121076Y00430083D01*
X00123926Y00428438D01*
X00123940Y00428428D01*
X00123954Y00428420D01*
X00123980Y00428399D01*
X00124007Y00428380D01*
X00124018Y00428368D01*
X00124031Y00428358D01*
X00126358Y00426030D01*
X00126368Y00426018D01*
X00126380Y00426006D01*
X00126399Y00425980D01*
X00126420Y00425954D01*
X00126428Y00425940D01*
X00126438Y00425926D01*
X00128083Y00423076D01*
X00128090Y00423061D01*
X00128099Y00423047D01*
X00128110Y00423016D01*
X00128124Y00422986D01*
X00128128Y00422970D01*
X00128133Y00422955D01*
X00128985Y00419776D01*
X00128988Y00419759D01*
X00128993Y00419744D01*
X00128996Y00419711D01*
X00129001Y00419678D01*
X00129001Y00419662D01*
X00129002Y00419646D01*
Y00416354D01*
X00129001Y00416338D01*
X00129001Y00416321D01*
X00128996Y00416289D01*
X00128993Y00416256D01*
X00128988Y00416241D01*
X00128985Y00416224D01*
X00128133Y00413045D01*
X00128128Y00413030D01*
X00128124Y00413014D01*
X00128110Y00412984D01*
X00128099Y00412953D01*
X00128090Y00412939D01*
X00128083Y00412924D01*
X00126438Y00410074D01*
X00126428Y00410060D01*
X00126420Y00410046D01*
X00126399Y00410020D01*
X00126380Y00409994D01*
X00126368Y00409982D01*
X00126358Y00409969D01*
X00124030Y00407642D01*
X00124018Y00407632D01*
X00124007Y00407620D01*
X00123980Y00407601D01*
X00123954Y00407580D01*
X00123940Y00407572D01*
X00123926Y00407562D01*
X00121076Y00405917D01*
X00121061Y00405910D01*
X00121047Y00405901D01*
X00121016Y00405890D01*
X00120986Y00405876D01*
X00120970Y00405872D01*
X00120955Y00405867D01*
X00117776Y00405015D01*
X00117759Y00405012D01*
X00117744Y00405007D01*
X00117711Y00405004D01*
X00117678Y00404999D01*
X00117662Y00404999D01*
X00117646Y00404998D01*
X00096000D01*
X00095902Y00405007D01*
X00095808Y00405036D01*
X00095721Y00405082D01*
X00095645Y00405145D01*
X00095582Y00405221D01*
X00095536Y00405308D01*
X00095507Y00405402D01*
X00095498Y00405500D01*
Y00430500D01*
X00095507Y00430598D01*
X00095536Y00430692D01*
X00095582Y00430779D01*
X00095645Y00430855D01*
X00095721Y00430918D01*
X00095808Y00430964D01*
X00095902Y00430993D01*
X00096000Y00431002D01*
X00117646D01*
X00117662Y00431001D01*
D02*
G37*
G36*
X00750778Y00359076D02*
X00750795Y00359076D01*
X00754073Y00358789D01*
X00754090Y00358786D01*
X00754106Y00358785D01*
X00754138Y00358777D01*
X00754170Y00358771D01*
X00754185Y00358764D01*
X00754202Y00358760D01*
X00755748Y00358198D01*
X00774542Y00351357D01*
X00774631Y00351315D01*
X00774709Y00351255D01*
X00774775Y00351182D01*
X00774825Y00351097D01*
X00774858Y00351004D01*
X00774872Y00350907D01*
X00774866Y00350809D01*
X00774842Y00350713D01*
X00766292Y00327221D01*
X00766249Y00327132D01*
X00766190Y00327053D01*
X00766116Y00326988D01*
X00766032Y00326937D01*
X00765939Y00326905D01*
X00765841Y00326891D01*
X00765743Y00326896D01*
X00765648Y00326921D01*
X00746854Y00333761D01*
X00745307Y00334324D01*
X00745292Y00334331D01*
X00745277Y00334336D01*
X00745248Y00334352D01*
X00745219Y00334366D01*
X00745205Y00334376D01*
X00745191Y00334384D01*
X00742495Y00336272D01*
X00742482Y00336283D01*
X00742469Y00336292D01*
X00742445Y00336315D01*
X00742420Y00336336D01*
X00742410Y00336349D01*
X00742398Y00336361D01*
X00740283Y00338882D01*
X00740273Y00338896D01*
X00740262Y00338908D01*
X00740246Y00338936D01*
X00740227Y00338964D01*
X00740220Y00338979D01*
X00740212Y00338993D01*
X00738821Y00341976D01*
X00738816Y00341991D01*
X00738808Y00342006D01*
X00738799Y00342038D01*
X00738789Y00342069D01*
X00738786Y00342085D01*
X00738782Y00342101D01*
X00738210Y00345342D01*
X00738209Y00345359D01*
X00738205Y00345375D01*
X00738205Y00345408D01*
X00738203Y00345440D01*
X00738205Y00345457D01*
X00738204Y00345473D01*
X00738491Y00348752D01*
X00738494Y00348768D01*
X00738495Y00348785D01*
X00738503Y00348816D01*
X00738509Y00348849D01*
X00738516Y00348864D01*
X00738520Y00348880D01*
X00739645Y00351973D01*
X00739652Y00351988D01*
X00739658Y00352003D01*
X00739674Y00352032D01*
X00739688Y00352062D01*
X00739698Y00352075D01*
X00739706Y00352089D01*
X00741594Y00354785D01*
X00741605Y00354798D01*
X00741613Y00354812D01*
X00741636Y00354835D01*
X00741658Y00354860D01*
X00741671Y00354870D01*
X00741682Y00354882D01*
X00744204Y00356998D01*
X00744217Y00357007D01*
X00744230Y00357018D01*
X00744258Y00357035D01*
X00744285Y00357053D01*
X00744300Y00357060D01*
X00744314Y00357068D01*
X00747297Y00358459D01*
X00747313Y00358465D01*
X00747327Y00358472D01*
X00747359Y00358481D01*
X00747390Y00358492D01*
X00747406Y00358494D01*
X00747422Y00358498D01*
X00750664Y00359070D01*
X00750680Y00359071D01*
X00750696Y00359075D01*
X00750729Y00359075D01*
X00750762Y00359077D01*
X00750778Y00359076D01*
D02*
G37*
G36*
X00804517Y00340437D02*
X00804612Y00340413D01*
X00823406Y00333572D01*
X00824952Y00333009D01*
X00824967Y00333002D01*
X00824983Y00332997D01*
X00825011Y00332981D01*
X00825041Y00332967D01*
X00825054Y00332957D01*
X00825069Y00332949D01*
X00827765Y00331061D01*
X00827777Y00331050D01*
X00827791Y00331041D01*
X00827814Y00331018D01*
X00827839Y00330997D01*
X00827849Y00330984D01*
X00827861Y00330972D01*
X00829977Y00328451D01*
X00829986Y00328438D01*
X00829997Y00328425D01*
X00830014Y00328397D01*
X00830033Y00328370D01*
X00830039Y00328355D01*
X00830047Y00328340D01*
X00831438Y00325358D01*
X00831444Y00325342D01*
X00831451Y00325327D01*
X00831460Y00325295D01*
X00831471Y00325265D01*
X00831473Y00325248D01*
X00831478Y00325232D01*
X00832049Y00321991D01*
X00832051Y00321975D01*
X00832054Y00321959D01*
X00832054Y00321925D01*
X00832057Y00321893D01*
X00832055Y00321877D01*
X00832055Y00321860D01*
X00831768Y00318581D01*
X00831765Y00318565D01*
X00831764Y00318549D01*
X00831756Y00318517D01*
X00831750Y00318484D01*
X00831744Y00318469D01*
X00831740Y00318453D01*
X00830614Y00315360D01*
X00830607Y00315345D01*
X00830602Y00315330D01*
X00830586Y00315301D01*
X00830572Y00315272D01*
X00830562Y00315259D01*
X00830554Y00315244D01*
X00828666Y00312548D01*
X00828655Y00312535D01*
X00828646Y00312522D01*
X00828623Y00312498D01*
X00828602Y00312473D01*
X00828589Y00312463D01*
X00828577Y00312451D01*
X00826056Y00310336D01*
X00826042Y00310326D01*
X00826030Y00310315D01*
X00826002Y00310299D01*
X00825975Y00310280D01*
X00825959Y00310273D01*
X00825945Y00310265D01*
X00822962Y00308874D01*
X00822947Y00308869D01*
X00822932Y00308861D01*
X00822900Y00308852D01*
X00822869Y00308841D01*
X00822853Y00308839D01*
X00822837Y00308835D01*
X00819596Y00308263D01*
X00819580Y00308262D01*
X00819563Y00308259D01*
X00819530Y00308258D01*
X00819498Y00308256D01*
X00819481Y00308258D01*
X00819465Y00308258D01*
X00816186Y00308544D01*
X00816170Y00308547D01*
X00816153Y00308548D01*
X00816122Y00308556D01*
X00816089Y00308563D01*
X00816074Y00308569D01*
X00816058Y00308573D01*
X00814512Y00309136D01*
X00814512Y00309136D01*
X00795718Y00315976D01*
X00795629Y00316019D01*
X00795550Y00316078D01*
X00795484Y00316151D01*
X00795434Y00316236D01*
X00795402Y00316329D01*
X00795388Y00316426D01*
Y00316426D01*
D01*
X00795393Y00316525D01*
X00795417Y00316620D01*
X00803968Y00340112D01*
X00804011Y00340201D01*
X00804070Y00340280D01*
X00804143Y00340346D01*
X00804228Y00340396D01*
X00804321Y00340429D01*
X00804418Y00340442D01*
X00804517Y00340437D01*
D02*
G37*
G36*
X00737097Y00321488D02*
X00737114Y00321488D01*
X00740393Y00321201D01*
X00740409Y00321198D01*
X00740425Y00321197D01*
X00740457Y00321189D01*
X00740489Y00321183D01*
X00740505Y00321177D01*
X00740521Y00321173D01*
X00742067Y00320610D01*
X00760861Y00313769D01*
X00760950Y00313727D01*
X00761029Y00313668D01*
X00761094Y00313594D01*
X00761144Y00313510D01*
X00761177Y00313417D01*
X00761191Y00313319D01*
X00761186Y00313221D01*
X00761161Y00313126D01*
X00752611Y00289633D01*
X00752568Y00289544D01*
X00752509Y00289466D01*
X00752436Y00289400D01*
X00752351Y00289350D01*
X00752258Y00289317D01*
X00752160Y00289303D01*
X00752062Y00289308D01*
X00751967Y00289333D01*
X00733173Y00296173D01*
X00731627Y00296736D01*
X00731612Y00296743D01*
X00731596Y00296749D01*
X00731567Y00296765D01*
X00731538Y00296779D01*
X00731525Y00296789D01*
X00731510Y00296797D01*
X00728814Y00298685D01*
X00728802Y00298695D01*
X00728788Y00298704D01*
X00728764Y00298727D01*
X00728739Y00298749D01*
X00728729Y00298762D01*
X00728717Y00298773D01*
X00726602Y00301294D01*
X00726592Y00301308D01*
X00726581Y00301320D01*
X00726565Y00301349D01*
X00726546Y00301376D01*
X00726540Y00301391D01*
X00726531Y00301405D01*
X00725140Y00304388D01*
X00725135Y00304404D01*
X00725127Y00304418D01*
X00725119Y00304450D01*
X00725108Y00304481D01*
X00725105Y00304497D01*
X00725101Y00304513D01*
X00724529Y00307754D01*
X00724528Y00307771D01*
X00724525Y00307787D01*
X00724524Y00307820D01*
X00724522Y00307853D01*
X00724524Y00307869D01*
X00724524Y00307885D01*
X00724810Y00311164D01*
X00724814Y00311180D01*
X00724814Y00311197D01*
X00724823Y00311229D01*
X00724829Y00311261D01*
X00724835Y00311276D01*
X00724839Y00311292D01*
X00725965Y00314385D01*
X00725972Y00314400D01*
X00725977Y00314416D01*
X00725993Y00314444D01*
X00726007Y00314474D01*
X00726017Y00314487D01*
X00726025Y00314501D01*
X00727913Y00317197D01*
X00727924Y00317210D01*
X00727933Y00317224D01*
X00727956Y00317247D01*
X00727977Y00317272D01*
X00727990Y00317283D01*
X00728002Y00317294D01*
X00730523Y00319410D01*
X00730536Y00319419D01*
X00730549Y00319430D01*
X00730577Y00319447D01*
X00730604Y00319466D01*
X00730619Y00319472D01*
X00730633Y00319480D01*
X00733616Y00320871D01*
X00733632Y00320877D01*
X00733647Y00320884D01*
X00733678Y00320893D01*
X00733709Y00320904D01*
X00733726Y00320906D01*
X00733742Y00320911D01*
X00736983Y00321482D01*
X00736999Y00321483D01*
X00737015Y00321487D01*
X00737048Y00321487D01*
X00737081Y00321490D01*
X00737097Y00321488D01*
D02*
G37*
G36*
X00790836Y00302849D02*
X00790931Y00302825D01*
X00809725Y00295984D01*
X00811271Y00295422D01*
X00811286Y00295415D01*
X00811302Y00295409D01*
X00811330Y00295393D01*
X00811360Y00295379D01*
X00811373Y00295369D01*
X00811388Y00295361D01*
X00814084Y00293473D01*
X00814096Y00293463D01*
X00814110Y00293454D01*
X00814134Y00293430D01*
X00814158Y00293409D01*
X00814169Y00293396D01*
X00814181Y00293385D01*
X00816296Y00290863D01*
X00816305Y00290850D01*
X00816316Y00290837D01*
X00816333Y00290809D01*
X00816352Y00290782D01*
X00816358Y00290767D01*
X00816367Y00290753D01*
X00817757Y00287770D01*
X00817763Y00287754D01*
X00817770Y00287740D01*
X00817779Y00287708D01*
X00817790Y00287677D01*
X00817793Y00287661D01*
X00817797Y00287645D01*
X00818369Y00284403D01*
X00818370Y00284387D01*
X00818373Y00284371D01*
X00818373Y00284338D01*
X00818376Y00284305D01*
X00818374Y00284289D01*
X00818374Y00284272D01*
X00818087Y00280993D01*
X00818084Y00280977D01*
X00818083Y00280961D01*
X00818075Y00280929D01*
X00818069Y00280897D01*
X00818063Y00280881D01*
X00818059Y00280865D01*
X00816933Y00277773D01*
X00816926Y00277758D01*
X00816921Y00277742D01*
X00816905Y00277713D01*
X00816891Y00277684D01*
X00816881Y00277671D01*
X00816873Y00277656D01*
X00814985Y00274960D01*
X00814974Y00274948D01*
X00814965Y00274934D01*
X00814942Y00274910D01*
X00814921Y00274886D01*
X00814908Y00274875D01*
X00814896Y00274864D01*
X00812375Y00272748D01*
X00812362Y00272739D01*
X00812349Y00272728D01*
X00812321Y00272711D01*
X00812294Y00272692D01*
X00812279Y00272686D01*
X00812264Y00272677D01*
X00809281Y00271287D01*
X00809266Y00271281D01*
X00809251Y00271274D01*
X00809220Y00271265D01*
X00809189Y00271254D01*
X00809172Y00271252D01*
X00809156Y00271247D01*
X00805915Y00270676D01*
X00805899Y00270674D01*
X00805882Y00270671D01*
X00805849Y00270671D01*
X00805817Y00270668D01*
X00805801Y00270670D01*
X00805784Y00270670D01*
X00802505Y00270957D01*
X00802489Y00270960D01*
X00802473Y00270961D01*
X00802441Y00270969D01*
X00802409Y00270975D01*
X00802393Y00270981D01*
X00802377Y00270985D01*
X00800831Y00271548D01*
X00800831Y00271548D01*
X00782037Y00278388D01*
X00781948Y00278431D01*
X00781869Y00278490D01*
X00781804Y00278563D01*
X00781753Y00278648D01*
X00781721Y00278741D01*
X00781707Y00278839D01*
Y00278839D01*
D01*
X00781712Y00278937D01*
X00781737Y00279032D01*
X00790287Y00302525D01*
X00790330Y00302613D01*
X00790389Y00302692D01*
X00790462Y00302758D01*
X00790547Y00302808D01*
X00790640Y00302841D01*
X00790737Y00302855D01*
X00790836Y00302849D01*
D02*
G37*
G36*
X00178423Y00258154D02*
X00178440Y00258154D01*
X00181719Y00257867D01*
X00181735Y00257864D01*
X00181751Y00257863D01*
X00181783Y00257855D01*
X00181815Y00257849D01*
X00181831Y00257843D01*
X00181847Y00257839D01*
X00184939Y00256713D01*
X00184954Y00256706D01*
X00184970Y00256701D01*
X00184998Y00256685D01*
X00185028Y00256670D01*
X00185041Y00256661D01*
X00185056Y00256653D01*
X00187752Y00254765D01*
X00187764Y00254754D01*
X00187778Y00254745D01*
X00187801Y00254722D01*
X00187826Y00254701D01*
X00187837Y00254688D01*
X00187848Y00254676D01*
X00189964Y00252155D01*
X00189973Y00252141D01*
X00189984Y00252129D01*
X00190001Y00252101D01*
X00190020Y00252073D01*
X00190026Y00252058D01*
X00190035Y00252044D01*
X00191425Y00249061D01*
X00191431Y00249046D01*
X00191438Y00249031D01*
X00191447Y00249000D01*
X00191458Y00248968D01*
X00191460Y00248952D01*
X00191465Y00248936D01*
X00192036Y00245695D01*
X00192038Y00245678D01*
X00192041Y00245662D01*
X00192041Y00245629D01*
X00192044Y00245597D01*
X00192042Y00245580D01*
X00192042Y00245564D01*
X00191755Y00242285D01*
X00191752Y00242269D01*
X00191751Y00242252D01*
X00191743Y00242221D01*
X00191737Y00242188D01*
X00191731Y00242173D01*
X00191727Y00242157D01*
X00190601Y00239064D01*
X00190594Y00239049D01*
X00190589Y00239034D01*
X00190573Y00239005D01*
X00190559Y00238975D01*
X00190549Y00238962D01*
X00190541Y00238948D01*
X00188653Y00236252D01*
X00188642Y00236239D01*
X00188633Y00236225D01*
X00188610Y00236202D01*
X00188589Y00236177D01*
X00188576Y00236167D01*
X00188564Y00236155D01*
X00187304Y00235097D01*
X00171983Y00222241D01*
X00171950Y00222219D01*
X00171901Y00222186D01*
X00171811Y00222147D01*
X00171714Y00222127D01*
X00171616Y00222126D01*
X00171519Y00222144D01*
X00171428Y00222181D01*
X00171345Y00222235D01*
X00171275Y00222304D01*
X00155205Y00241455D01*
X00155150Y00241536D01*
X00155111Y00241626D01*
X00155091Y00241723D01*
X00155090Y00241821D01*
X00155108Y00241918D01*
X00155145Y00242010D01*
X00155198Y00242092D01*
X00155267Y00242162D01*
X00170588Y00255018D01*
X00170588Y00255018D01*
X00171849Y00256076D01*
X00171862Y00256085D01*
X00171875Y00256096D01*
X00171903Y00256113D01*
X00171930Y00256131D01*
X00171945Y00256138D01*
X00171959Y00256146D01*
X00174942Y00257537D01*
X00174958Y00257543D01*
X00174972Y00257550D01*
X00175004Y00257559D01*
X00175035Y00257570D01*
X00175051Y00257572D01*
X00175067Y00257577D01*
X00178309Y00258148D01*
X00178325Y00258150D01*
X00178341Y00258153D01*
X00178374Y00258153D01*
X00178407Y00258156D01*
X00178423Y00258154D01*
D02*
G37*
G36*
X00204135Y00227512D02*
X00204151Y00227512D01*
X00207430Y00227225D01*
X00207446Y00227222D01*
X00207463Y00227222D01*
X00207494Y00227213D01*
X00207527Y00227207D01*
X00207542Y00227201D01*
X00207558Y00227197D01*
X00210651Y00226071D01*
X00210666Y00226064D01*
X00210681Y00226059D01*
X00210710Y00226043D01*
X00210740Y00226029D01*
X00210753Y00226019D01*
X00210767Y00226011D01*
X00213463Y00224123D01*
X00213476Y00224112D01*
X00213490Y00224103D01*
X00213513Y00224080D01*
X00213538Y00224059D01*
X00213548Y00224046D01*
X00213560Y00224034D01*
X00215676Y00221513D01*
X00215685Y00221499D01*
X00215696Y00221487D01*
X00215713Y00221459D01*
X00215731Y00221432D01*
X00215738Y00221417D01*
X00215746Y00221402D01*
X00217137Y00218419D01*
X00217143Y00218404D01*
X00217150Y00218389D01*
X00217159Y00218358D01*
X00217170Y00218327D01*
X00217172Y00218310D01*
X00217176Y00218294D01*
X00217748Y00215053D01*
X00217749Y00215037D01*
X00217753Y00215021D01*
X00217753Y00214988D01*
X00217756Y00214955D01*
X00217754Y00214939D01*
X00217754Y00214922D01*
X00217467Y00211643D01*
X00217464Y00211627D01*
X00217463Y00211611D01*
X00217455Y00211579D01*
X00217449Y00211546D01*
X00217443Y00211531D01*
X00217439Y00211515D01*
X00216313Y00208422D01*
X00216306Y00208408D01*
X00216301Y00208392D01*
X00216284Y00208363D01*
X00216270Y00208334D01*
X00216260Y00208320D01*
X00216252Y00208306D01*
X00214364Y00205610D01*
X00214354Y00205597D01*
X00214345Y00205584D01*
X00214322Y00205560D01*
X00214300Y00205535D01*
X00214287Y00205525D01*
X00214276Y00205513D01*
X00213015Y00204456D01*
X00197694Y00191600D01*
X00197613Y00191544D01*
X00197522Y00191506D01*
X00197426Y00191485D01*
X00197327Y00191484D01*
X00197231Y00191502D01*
X00197139Y00191539D01*
X00197057Y00191593D01*
X00196986Y00191662D01*
X00180917Y00210813D01*
X00180861Y00210894D01*
X00180823Y00210985D01*
X00180802Y00211081D01*
X00180801Y00211180D01*
X00180819Y00211276D01*
X00180856Y00211368D01*
X00180910Y00211450D01*
X00180979Y00211521D01*
X00196300Y00224376D01*
X00197560Y00225434D01*
X00197574Y00225443D01*
X00197586Y00225455D01*
X00197614Y00225471D01*
X00197642Y00225490D01*
X00197657Y00225496D01*
X00197671Y00225505D01*
X00200654Y00226896D01*
X00200669Y00226901D01*
X00200684Y00226908D01*
X00200716Y00226917D01*
X00200747Y00226928D01*
X00200763Y00226931D01*
X00200779Y00226935D01*
X00204020Y00227507D01*
X00204037Y00227508D01*
X00204053Y00227511D01*
X00204086Y00227512D01*
X00204118Y00227514D01*
X00204135Y00227512D01*
D02*
G37*
G36*
X00131217Y00221691D02*
X00131309Y00221654D01*
X00131391Y00221600D01*
X00131462Y00221531D01*
X00147531Y00202380D01*
X00147587Y00202299D01*
X00147626Y00202208D01*
X00147646Y00202112D01*
X00147647Y00202013D01*
X00147629Y00201917D01*
X00147592Y00201825D01*
X00147538Y00201743D01*
X00147469Y00201672D01*
X00132149Y00188817D01*
X00132148Y00188817D01*
X00130888Y00187759D01*
X00130874Y00187750D01*
X00130862Y00187738D01*
X00130834Y00187722D01*
X00130807Y00187703D01*
X00130791Y00187697D01*
X00130777Y00187688D01*
X00127794Y00186297D01*
X00127779Y00186292D01*
X00127764Y00186284D01*
X00127732Y00186276D01*
X00127701Y00186265D01*
X00127685Y00186262D01*
X00127669Y00186258D01*
X00124428Y00185686D01*
X00124411Y00185685D01*
X00124395Y00185682D01*
X00124362Y00185681D01*
X00124330Y00185679D01*
X00124313Y00185681D01*
X00124297Y00185681D01*
X00121018Y00185967D01*
X00121002Y00185970D01*
X00120985Y00185971D01*
X00120954Y00185979D01*
X00120921Y00185986D01*
X00120906Y00185992D01*
X00120890Y00185996D01*
X00117797Y00187122D01*
X00117782Y00187129D01*
X00117767Y00187134D01*
X00117738Y00187150D01*
X00117708Y00187164D01*
X00117695Y00187174D01*
X00117681Y00187182D01*
X00114985Y00189070D01*
X00114972Y00189081D01*
X00114958Y00189090D01*
X00114935Y00189113D01*
X00114910Y00189134D01*
X00114900Y00189147D01*
X00114888Y00189158D01*
X00112772Y00191680D01*
X00112763Y00191693D01*
X00112752Y00191706D01*
X00112735Y00191734D01*
X00112717Y00191761D01*
X00112710Y00191776D01*
X00112702Y00191790D01*
X00111311Y00194773D01*
X00111306Y00194789D01*
X00111298Y00194804D01*
X00111289Y00194835D01*
X00111278Y00194866D01*
X00111276Y00194883D01*
X00111272Y00194898D01*
X00110700Y00198140D01*
X00110699Y00198156D01*
X00110695Y00198172D01*
X00110695Y00198206D01*
X00110693Y00198238D01*
X00110694Y00198254D01*
X00110694Y00198271D01*
X00110981Y00201550D01*
X00110984Y00201566D01*
X00110985Y00201582D01*
X00110993Y00201614D01*
X00110999Y00201646D01*
X00111005Y00201662D01*
X00111010Y00201678D01*
X00112135Y00204771D01*
X00112142Y00204785D01*
X00112148Y00204801D01*
X00112164Y00204830D01*
X00112178Y00204859D01*
X00112188Y00204872D01*
X00112196Y00204887D01*
X00114084Y00207583D01*
X00114094Y00207595D01*
X00114103Y00207609D01*
X00114126Y00207633D01*
X00114148Y00207658D01*
X00114161Y00207668D01*
X00114172Y00207680D01*
X00115433Y00208737D01*
X00115433Y00208737D01*
X00130754Y00221593D01*
X00130835Y00221649D01*
X00130926Y00221687D01*
X00131022Y00221708D01*
X00131121Y00221709D01*
X00131217Y00221691D01*
D02*
G37*
G36*
X00620983Y00180409D02*
X00620999Y00180409D01*
X00621031Y00180404D01*
X00621064Y00180401D01*
X00621080Y00180396D01*
X00621096Y00180393D01*
X00624275Y00179541D01*
X00624291Y00179535D01*
X00624307Y00179532D01*
X00624337Y00179518D01*
X00624367Y00179506D01*
X00624381Y00179498D01*
X00624397Y00179491D01*
X00627247Y00177845D01*
X00627260Y00177836D01*
X00627275Y00177828D01*
X00627300Y00177807D01*
X00627327Y00177788D01*
X00627338Y00177776D01*
X00627351Y00177766D01*
X00629678Y00175438D01*
X00629689Y00175425D01*
X00629701Y00175414D01*
X00629720Y00175388D01*
X00629741Y00175362D01*
X00629748Y00175347D01*
X00629758Y00175334D01*
X00630581Y00173909D01*
X00640581Y00156588D01*
X00640622Y00156499D01*
X00640644Y00156403D01*
X00640647Y00156304D01*
X00640631Y00156207D01*
X00640596Y00156115D01*
X00640544Y00156031D01*
X00640477Y00155960D01*
X00640397Y00155902D01*
X00618746Y00143402D01*
X00618657Y00143362D01*
X00618561Y00143339D01*
X00618462Y00143336D01*
X00618365Y00143352D01*
X00618273Y00143387D01*
X00618189Y00143439D01*
X00618117Y00143506D01*
X00618060Y00143586D01*
X00608060Y00160907D01*
X00607237Y00162332D01*
X00607230Y00162347D01*
X00607222Y00162361D01*
X00607210Y00162391D01*
X00607197Y00162421D01*
X00607193Y00162437D01*
X00607187Y00162453D01*
X00606335Y00165632D01*
X00606333Y00165648D01*
X00606328Y00165664D01*
X00606325Y00165697D01*
X00606319Y00165729D01*
X00606320Y00165746D01*
X00606318Y00165762D01*
Y00169053D01*
X00606320Y00169070D01*
X00606319Y00169086D01*
X00606325Y00169119D01*
X00606328Y00169151D01*
X00606333Y00169167D01*
X00606335Y00169183D01*
X00607187Y00172363D01*
X00607193Y00172378D01*
X00607197Y00172394D01*
X00607210Y00172424D01*
X00607222Y00172455D01*
X00607230Y00172469D01*
X00607237Y00172484D01*
X00608883Y00175334D01*
X00608893Y00175347D01*
X00608900Y00175362D01*
X00608921Y00175388D01*
X00608940Y00175414D01*
X00608952Y00175425D01*
X00608963Y00175438D01*
X00611290Y00177766D01*
X00611303Y00177776D01*
X00611314Y00177788D01*
X00611341Y00177807D01*
X00611366Y00177828D01*
X00611381Y00177836D01*
X00611394Y00177845D01*
X00614244Y00179491D01*
X00614259Y00179498D01*
X00614273Y00179506D01*
X00614304Y00179518D01*
X00614334Y00179532D01*
X00614350Y00179535D01*
X00614366Y00179541D01*
X00617545Y00180393D01*
X00617561Y00180396D01*
X00617577Y00180401D01*
X00617609Y00180404D01*
X00617642Y00180409D01*
X00617659Y00180409D01*
X00617675Y00180410D01*
X00620966D01*
X00620983Y00180409D01*
D02*
G37*
G36*
X00586342Y00160409D02*
X00586358Y00160409D01*
X00586390Y00160404D01*
X00586423Y00160401D01*
X00586439Y00160396D01*
X00586455Y00160393D01*
X00589634Y00159541D01*
X00589650Y00159535D01*
X00589666Y00159532D01*
X00589696Y00159518D01*
X00589726Y00159507D01*
X00589740Y00159498D01*
X00589756Y00159491D01*
X00592606Y00157845D01*
X00592619Y00157836D01*
X00592634Y00157828D01*
X00592659Y00157807D01*
X00592686Y00157788D01*
X00592697Y00157776D01*
X00592710Y00157766D01*
X00595037Y00155438D01*
X00595048Y00155425D01*
X00595060Y00155414D01*
X00595079Y00155388D01*
X00595100Y00155362D01*
X00595107Y00155347D01*
X00595117Y00155334D01*
X00595940Y00153909D01*
X00595940Y00153909D01*
X00605940Y00136588D01*
X00605981Y00136499D01*
X00606003Y00136403D01*
X00606006Y00136304D01*
X00605990Y00136207D01*
X00605955Y00136115D01*
X00605903Y00136031D01*
X00605836Y00135960D01*
X00605756Y00135902D01*
X00584105Y00123402D01*
X00584016Y00123362D01*
X00583920Y00123339D01*
X00583821Y00123336D01*
X00583724Y00123352D01*
X00583632Y00123387D01*
X00583548Y00123439D01*
X00583476Y00123506D01*
X00583419Y00123586D01*
X00573419Y00140907D01*
X00572596Y00142332D01*
X00572589Y00142347D01*
X00572581Y00142361D01*
X00572569Y00142392D01*
X00572556Y00142421D01*
X00572552Y00142437D01*
X00572546Y00142453D01*
X00571694Y00145632D01*
X00571692Y00145648D01*
X00571687Y00145664D01*
X00571684Y00145697D01*
X00571678Y00145729D01*
X00571679Y00145746D01*
X00571677Y00145762D01*
Y00149053D01*
X00571679Y00149070D01*
X00571678Y00149086D01*
X00571684Y00149119D01*
X00571687Y00149151D01*
X00571692Y00149167D01*
X00571694Y00149183D01*
X00572546Y00152363D01*
X00572552Y00152378D01*
X00572556Y00152394D01*
X00572569Y00152424D01*
X00572581Y00152455D01*
X00572589Y00152469D01*
X00572596Y00152484D01*
X00574242Y00155334D01*
X00574252Y00155347D01*
X00574259Y00155362D01*
X00574280Y00155388D01*
X00574299Y00155414D01*
X00574311Y00155425D01*
X00574322Y00155438D01*
X00576649Y00157766D01*
X00576662Y00157776D01*
X00576673Y00157788D01*
X00576700Y00157807D01*
X00576725Y00157828D01*
X00576740Y00157836D01*
X00576753Y00157845D01*
X00579604Y00159491D01*
X00579618Y00159498D01*
X00579632Y00159507D01*
X00579663Y00159518D01*
X00579693Y00159532D01*
X00579709Y00159535D01*
X00579725Y00159541D01*
X00582904Y00160393D01*
X00582920Y00160396D01*
X00582936Y00160401D01*
X00582968Y00160404D01*
X00583001Y00160409D01*
X00583018Y00160409D01*
X00583034Y00160410D01*
X00586325D01*
X00586342Y00160409D01*
D02*
G37*
G36*
X00156929Y00191049D02*
X00157020Y00191012D01*
X00157103Y00190958D01*
X00157173Y00190889D01*
X00173243Y00171738D01*
X00173298Y00171657D01*
X00173337Y00171567D01*
X00173357Y00171470D01*
X00173358Y00171372D01*
X00173340Y00171275D01*
X00173304Y00171183D01*
X00173250Y00171101D01*
X00173181Y00171031D01*
X00157860Y00158175D01*
X00157860Y00158175D01*
X00156599Y00157117D01*
X00156586Y00157108D01*
X00156573Y00157097D01*
X00156545Y00157080D01*
X00156518Y00157061D01*
X00156503Y00157055D01*
X00156489Y00157046D01*
X00153506Y00155655D01*
X00153490Y00155650D01*
X00153476Y00155643D01*
X00153444Y00155634D01*
X00153413Y00155623D01*
X00153397Y00155620D01*
X00153381Y00155616D01*
X00150139Y00155044D01*
X00150123Y00155043D01*
X00150107Y00155040D01*
X00150074Y00155040D01*
X00150041Y00155037D01*
X00150025Y00155039D01*
X00150008Y00155039D01*
X00146729Y00155326D01*
X00146713Y00155329D01*
X00146697Y00155330D01*
X00146665Y00155338D01*
X00146633Y00155344D01*
X00146617Y00155350D01*
X00146601Y00155354D01*
X00143509Y00156480D01*
X00143494Y00156487D01*
X00143478Y00156492D01*
X00143449Y00156508D01*
X00143420Y00156522D01*
X00143407Y00156532D01*
X00143392Y00156540D01*
X00140696Y00158428D01*
X00140684Y00158439D01*
X00140670Y00158448D01*
X00140646Y00158471D01*
X00140622Y00158492D01*
X00140611Y00158505D01*
X00140599Y00158517D01*
X00138484Y00161038D01*
X00138475Y00161052D01*
X00138464Y00161064D01*
X00138447Y00161092D01*
X00138428Y00161119D01*
X00138422Y00161134D01*
X00138413Y00161149D01*
X00137022Y00164132D01*
X00137017Y00164147D01*
X00137010Y00164162D01*
X00137001Y00164193D01*
X00136990Y00164224D01*
X00136987Y00164241D01*
X00136983Y00164257D01*
X00136412Y00167498D01*
X00136410Y00167514D01*
X00136407Y00167531D01*
X00136406Y00167564D01*
X00136404Y00167596D01*
X00136406Y00167612D01*
X00136406Y00167629D01*
X00136693Y00170908D01*
X00136696Y00170924D01*
X00136697Y00170940D01*
X00136705Y00170972D01*
X00136711Y00171005D01*
X00136717Y00171020D01*
X00136721Y00171036D01*
X00137847Y00174129D01*
X00137854Y00174144D01*
X00137859Y00174159D01*
X00137875Y00174188D01*
X00137889Y00174217D01*
X00137899Y00174231D01*
X00137907Y00174245D01*
X00139795Y00176941D01*
X00139806Y00176954D01*
X00139815Y00176967D01*
X00139838Y00176991D01*
X00139859Y00177016D01*
X00139872Y00177026D01*
X00139884Y00177038D01*
X00141144Y00178095D01*
X00141144Y00178096D01*
X00156465Y00190951D01*
X00156546Y00191007D01*
X00156637Y00191046D01*
X00156734Y00191066D01*
X00156832Y00191067D01*
X00156929Y00191049D01*
D02*
G37*
G36*
X00364613Y00135491D02*
X00364646Y00135491D01*
X00364663Y00135487D01*
X00364679Y00135486D01*
X00367920Y00134914D01*
X00367936Y00134910D01*
X00367952Y00134908D01*
X00367984Y00134897D01*
X00368015Y00134888D01*
X00368030Y00134880D01*
X00368045Y00134875D01*
X00371028Y00133484D01*
X00371043Y00133476D01*
X00371058Y00133469D01*
X00371085Y00133451D01*
X00371113Y00133434D01*
X00371125Y00133423D01*
X00371139Y00133413D01*
X00373660Y00131298D01*
X00373672Y00131286D01*
X00373685Y00131276D01*
X00373706Y00131251D01*
X00373729Y00131227D01*
X00373738Y00131214D01*
X00373749Y00131201D01*
X00375637Y00128505D01*
X00375645Y00128491D01*
X00375655Y00128477D01*
X00375669Y00128448D01*
X00375685Y00128419D01*
X00375690Y00128404D01*
X00375697Y00128389D01*
X00376823Y00125296D01*
X00376827Y00125280D01*
X00376833Y00125265D01*
X00376839Y00125232D01*
X00376847Y00125201D01*
X00376848Y00125184D01*
X00376851Y00125168D01*
X00377138Y00121889D01*
X00377138Y00121873D01*
X00377140Y00121856D01*
X00377137Y00121824D01*
X00377137Y00121791D01*
X00377134Y00121774D01*
X00377132Y00121758D01*
X00376847Y00120137D01*
X00376847Y00120137D01*
X00373374Y00100441D01*
X00373347Y00100346D01*
X00373303Y00100259D01*
X00373242Y00100181D01*
X00373167Y00100117D01*
X00373081Y00100069D01*
X00372988Y00100038D01*
X00372890Y00100026D01*
X00372792Y00100034D01*
X00348172Y00104375D01*
X00348077Y00104402D01*
X00347989Y00104446D01*
X00347911Y00104507D01*
X00347847Y00104581D01*
X00347799Y00104667D01*
X00347768Y00104761D01*
X00347757Y00104859D01*
X00347764Y00104957D01*
X00351237Y00124653D01*
X00351237Y00124653D01*
X00351523Y00126274D01*
X00351527Y00126290D01*
X00351530Y00126306D01*
X00351540Y00126337D01*
X00351549Y00126369D01*
X00351557Y00126383D01*
X00351562Y00126399D01*
X00352953Y00129382D01*
X00352962Y00129396D01*
X00352968Y00129411D01*
X00352986Y00129438D01*
X00353003Y00129466D01*
X00353014Y00129479D01*
X00353024Y00129492D01*
X00355139Y00132014D01*
X00355151Y00132025D01*
X00355161Y00132038D01*
X00355186Y00132059D01*
X00355210Y00132083D01*
X00355223Y00132092D01*
X00355236Y00132102D01*
X00357932Y00133990D01*
X00357946Y00133998D01*
X00357960Y00134008D01*
X00357989Y00134022D01*
X00358018Y00134038D01*
X00358033Y00134044D01*
X00358048Y00134051D01*
X00361141Y00135176D01*
X00361157Y00135180D01*
X00361172Y00135187D01*
X00361205Y00135193D01*
X00361237Y00135201D01*
X00361253Y00135202D01*
X00361269Y00135205D01*
X00364548Y00135492D01*
X00364565Y00135491D01*
X00364581Y00135493D01*
X00364613Y00135491D01*
D02*
G37*
G36*
X00404006Y00128545D02*
X00404039Y00128545D01*
X00404055Y00128541D01*
X00404071Y00128540D01*
X00407313Y00127968D01*
X00407328Y00127964D01*
X00407345Y00127962D01*
X00407376Y00127951D01*
X00407407Y00127942D01*
X00407422Y00127934D01*
X00407438Y00127929D01*
X00410421Y00126538D01*
X00410435Y00126530D01*
X00410450Y00126523D01*
X00410477Y00126505D01*
X00410505Y00126488D01*
X00410518Y00126477D01*
X00410531Y00126468D01*
X00413053Y00124352D01*
X00413064Y00124340D01*
X00413077Y00124330D01*
X00413098Y00124305D01*
X00413121Y00124282D01*
X00413130Y00124268D01*
X00413141Y00124255D01*
X00415029Y00121559D01*
X00415037Y00121545D01*
X00415047Y00121532D01*
X00415061Y00121502D01*
X00415077Y00121473D01*
X00415083Y00121458D01*
X00415090Y00121443D01*
X00416215Y00118350D01*
X00416219Y00118334D01*
X00416226Y00118319D01*
X00416232Y00118286D01*
X00416240Y00118255D01*
X00416241Y00118238D01*
X00416244Y00118222D01*
X00416530Y00114943D01*
X00416530Y00114927D01*
X00416532Y00114910D01*
X00416530Y00114878D01*
X00416530Y00114845D01*
X00416526Y00114828D01*
X00416525Y00114812D01*
X00416239Y00113191D01*
X00412766Y00093495D01*
X00412740Y00093400D01*
X00412695Y00093313D01*
X00412634Y00093235D01*
X00412560Y00093171D01*
X00412474Y00093123D01*
X00412380Y00093092D01*
X00412282Y00093080D01*
X00412184Y00093088D01*
X00387564Y00097429D01*
X00387469Y00097456D01*
X00387381Y00097500D01*
X00387304Y00097561D01*
X00387240Y00097636D01*
X00387191Y00097721D01*
X00387161Y00097815D01*
X00387149Y00097913D01*
X00387156Y00098011D01*
X00390629Y00117707D01*
X00390629Y00117707D01*
X00390915Y00119328D01*
X00390919Y00119344D01*
X00390922Y00119360D01*
X00390933Y00119391D01*
X00390942Y00119423D01*
X00390949Y00119437D01*
X00390955Y00119453D01*
X00392345Y00122436D01*
X00392354Y00122450D01*
X00392360Y00122465D01*
X00392379Y00122492D01*
X00392396Y00122521D01*
X00392407Y00122533D01*
X00392416Y00122546D01*
X00394532Y00125068D01*
X00394543Y00125079D01*
X00394553Y00125092D01*
X00394578Y00125113D01*
X00394602Y00125137D01*
X00394616Y00125146D01*
X00394628Y00125156D01*
X00397324Y00127044D01*
X00397339Y00127052D01*
X00397352Y00127062D01*
X00397381Y00127076D01*
X00397410Y00127093D01*
X00397426Y00127098D01*
X00397441Y00127105D01*
X00400533Y00128230D01*
X00400549Y00128235D01*
X00400565Y00128241D01*
X00400597Y00128247D01*
X00400629Y00128255D01*
X00400645Y00128256D01*
X00400662Y00128259D01*
X00403940Y00128546D01*
X00403957Y00128546D01*
X00403973Y00128547D01*
X00404006Y00128545D01*
D02*
G37*
G36*
X00656276Y00129110D02*
X00656368Y00129075D01*
X00656452Y00129023D01*
X00656524Y00128956D01*
X00656581Y00128876D01*
X00666581Y00111555D01*
X00667404Y00110130D01*
X00667411Y00110115D01*
X00667419Y00110101D01*
X00667431Y00110070D01*
X00667444Y00110040D01*
X00667448Y00110024D01*
X00667454Y00110009D01*
X00668306Y00106830D01*
X00668308Y00106813D01*
X00668313Y00106798D01*
X00668316Y00106765D01*
X00668322Y00106732D01*
X00668321Y00106716D01*
X00668323Y00106700D01*
Y00103408D01*
X00668321Y00103392D01*
X00668322Y00103375D01*
X00668316Y00103343D01*
X00668313Y00103310D01*
X00668308Y00103294D01*
X00668306Y00103278D01*
X00667454Y00100099D01*
X00667448Y00100084D01*
X00667444Y00100068D01*
X00667431Y00100037D01*
X00667419Y00100007D01*
X00667411Y00099993D01*
X00667404Y00099978D01*
X00665758Y00097128D01*
X00665749Y00097114D01*
X00665741Y00097100D01*
X00665720Y00097074D01*
X00665701Y00097048D01*
X00665689Y00097036D01*
X00665678Y00097023D01*
X00663351Y00094696D01*
X00663338Y00094686D01*
X00663327Y00094674D01*
X00663300Y00094655D01*
X00663275Y00094634D01*
X00663260Y00094626D01*
X00663247Y00094616D01*
X00660396Y00092971D01*
X00660381Y00092964D01*
X00660368Y00092955D01*
X00660337Y00092944D01*
X00660307Y00092930D01*
X00660291Y00092926D01*
X00660275Y00092921D01*
X00657096Y00092069D01*
X00657080Y00092066D01*
X00657064Y00092061D01*
X00657031Y00092058D01*
X00656999Y00092053D01*
X00656982Y00092053D01*
X00656966Y00092051D01*
X00653675D01*
X00653659Y00092053D01*
X00653642Y00092053D01*
X00653609Y00092058D01*
X00653577Y00092061D01*
X00653561Y00092066D01*
X00653545Y00092069D01*
X00650366Y00092921D01*
X00650350Y00092926D01*
X00650334Y00092930D01*
X00650304Y00092944D01*
X00650274Y00092955D01*
X00650259Y00092964D01*
X00650245Y00092971D01*
X00647394Y00094616D01*
X00647381Y00094626D01*
X00647366Y00094634D01*
X00647341Y00094655D01*
X00647314Y00094674D01*
X00647303Y00094686D01*
X00647290Y00094696D01*
X00644963Y00097023D01*
X00644952Y00097036D01*
X00644940Y00097048D01*
X00644921Y00097074D01*
X00644900Y00097100D01*
X00644893Y00097114D01*
X00644883Y00097128D01*
X00644060Y00098553D01*
X00634060Y00115873D01*
X00634019Y00115963D01*
X00633997Y00116059D01*
X00633994Y00116157D01*
X00634010Y00116255D01*
X00634045Y00116347D01*
X00634097Y00116430D01*
X00634164Y00116502D01*
X00634244Y00116559D01*
X00655895Y00129059D01*
X00655984Y00129100D01*
X00656080Y00129122D01*
X00656179Y00129126D01*
X00656276Y00129110D01*
D02*
G37*
G36*
X00621635Y00109110D02*
X00621727Y00109075D01*
X00621811Y00109023D01*
X00621883Y00108956D01*
X00621940Y00108876D01*
X00631940Y00091555D01*
X00631940Y00091555D01*
X00632763Y00090130D01*
X00632770Y00090115D01*
X00632778Y00090101D01*
X00632790Y00090070D01*
X00632803Y00090040D01*
X00632807Y00090024D01*
X00632813Y00090009D01*
X00633665Y00086830D01*
X00633667Y00086813D01*
X00633672Y00086798D01*
X00633675Y00086765D01*
X00633681Y00086732D01*
X00633680Y00086716D01*
X00633682Y00086700D01*
Y00083408D01*
X00633680Y00083392D01*
X00633681Y00083375D01*
X00633675Y00083343D01*
X00633672Y00083310D01*
X00633667Y00083294D01*
X00633665Y00083278D01*
X00632813Y00080099D01*
X00632807Y00080084D01*
X00632803Y00080068D01*
X00632790Y00080037D01*
X00632778Y00080007D01*
X00632770Y00079993D01*
X00632763Y00079978D01*
X00631117Y00077127D01*
X00631107Y00077114D01*
X00631100Y00077100D01*
X00631079Y00077074D01*
X00631060Y00077048D01*
X00631048Y00077036D01*
X00631037Y00077024D01*
X00628710Y00074696D01*
X00628697Y00074686D01*
X00628686Y00074674D01*
X00628659Y00074655D01*
X00628634Y00074634D01*
X00628619Y00074626D01*
X00628606Y00074616D01*
X00625756Y00072971D01*
X00625741Y00072964D01*
X00625727Y00072955D01*
X00625696Y00072944D01*
X00625666Y00072930D01*
X00625650Y00072926D01*
X00625634Y00072920D01*
X00622455Y00072069D01*
X00622439Y00072066D01*
X00622423Y00072061D01*
X00622391Y00072058D01*
X00622358Y00072053D01*
X00622341Y00072053D01*
X00622325Y00072052D01*
X00619034D01*
X00619017Y00072053D01*
X00619001Y00072053D01*
X00618969Y00072058D01*
X00618936Y00072061D01*
X00618920Y00072066D01*
X00618904Y00072069D01*
X00615725Y00072920D01*
X00615709Y00072926D01*
X00615693Y00072930D01*
X00615663Y00072944D01*
X00615632Y00072955D01*
X00615619Y00072964D01*
X00615603Y00072971D01*
X00612753Y00074616D01*
X00612740Y00074626D01*
X00612725Y00074634D01*
X00612700Y00074655D01*
X00612673Y00074674D01*
X00612662Y00074686D01*
X00612649Y00074696D01*
X00610322Y00077024D01*
X00610311Y00077036D01*
X00610299Y00077048D01*
X00610280Y00077074D01*
X00610259Y00077100D01*
X00610252Y00077114D01*
X00610242Y00077127D01*
X00609419Y00078553D01*
X00599419Y00095873D01*
X00599378Y00095963D01*
X00599356Y00096059D01*
X00599353Y00096157D01*
X00599369Y00096255D01*
X00599404Y00096347D01*
X00599456Y00096430D01*
X00599523Y00096502D01*
X00599603Y00096559D01*
X00621254Y00109059D01*
X00621343Y00109100D01*
X00621439Y00109122D01*
X00621538Y00109126D01*
X00621635Y00109110D01*
D02*
G37*
G36*
X00342789Y00073851D02*
X00367410Y00069509D01*
X00367504Y00069483D01*
X00367592Y00069438D01*
X00367670Y00069378D01*
X00367734Y00069303D01*
X00367782Y00069217D01*
X00367813Y00069123D01*
X00367825Y00069026D01*
Y00069026D01*
D01*
X00367817Y00068927D01*
X00364344Y00049231D01*
X00364058Y00047611D01*
X00364054Y00047595D01*
X00364052Y00047578D01*
X00364041Y00047547D01*
X00364032Y00047516D01*
X00364024Y00047501D01*
X00364019Y00047485D01*
X00362628Y00044503D01*
X00362620Y00044488D01*
X00362613Y00044473D01*
X00362594Y00044446D01*
X00362578Y00044418D01*
X00362567Y00044405D01*
X00362557Y00044392D01*
X00360442Y00041871D01*
X00360430Y00041859D01*
X00360420Y00041846D01*
X00360395Y00041825D01*
X00360371Y00041802D01*
X00360358Y00041793D01*
X00360345Y00041782D01*
X00357649Y00039894D01*
X00357635Y00039886D01*
X00357621Y00039876D01*
X00357592Y00039862D01*
X00357563Y00039846D01*
X00357547Y00039841D01*
X00357533Y00039834D01*
X00354440Y00038708D01*
X00354424Y00038704D01*
X00354409Y00038698D01*
X00354376Y00038692D01*
X00354344Y00038684D01*
X00354328Y00038683D01*
X00354312Y00038680D01*
X00351033Y00038393D01*
X00351016Y00038393D01*
X00351000Y00038391D01*
X00350968Y00038393D01*
X00350935Y00038394D01*
X00350918Y00038397D01*
X00350902Y00038398D01*
X00347661Y00038970D01*
X00347645Y00038974D01*
X00347629Y00038977D01*
X00347597Y00038988D01*
X00347566Y00038997D01*
X00347551Y00039004D01*
X00347536Y00039009D01*
X00344553Y00040400D01*
X00344538Y00040409D01*
X00344523Y00040415D01*
X00344496Y00040434D01*
X00344468Y00040451D01*
X00344456Y00040462D01*
X00344442Y00040471D01*
X00341921Y00042586D01*
X00341909Y00042598D01*
X00341896Y00042608D01*
X00341875Y00042633D01*
X00341852Y00042657D01*
X00341843Y00042671D01*
X00341832Y00042683D01*
X00339944Y00045379D01*
X00339936Y00045394D01*
X00339926Y00045407D01*
X00339912Y00045436D01*
X00339896Y00045465D01*
X00339891Y00045481D01*
X00339884Y00045496D01*
X00338758Y00048588D01*
X00338754Y00048604D01*
X00338748Y00048620D01*
X00338742Y00048652D01*
X00338734Y00048684D01*
X00338733Y00048700D01*
X00338730Y00048716D01*
X00338443Y00051995D01*
X00338443Y00052012D01*
X00338441Y00052028D01*
X00338443Y00052060D01*
X00338444Y00052094D01*
X00338447Y00052110D01*
X00338448Y00052126D01*
X00338734Y00053747D01*
X00342207Y00073443D01*
X00342207Y00073443D01*
X00342234Y00073538D01*
X00342278Y00073626D01*
X00342339Y00073703D01*
X00342414Y00073767D01*
X00342500Y00073816D01*
X00342593Y00073846D01*
X00342691Y00073858D01*
X00342789Y00073851D01*
D02*
G37*
G36*
X00382182Y00066905D02*
X00406802Y00062564D01*
X00406897Y00062537D01*
X00406984Y00062492D01*
X00407062Y00062432D01*
X00407126Y00062357D01*
X00407174Y00062271D01*
X00407205Y00062177D01*
X00407217Y00062080D01*
Y00062080D01*
D01*
X00407209Y00061982D01*
X00403736Y00042285D01*
X00403736Y00042285D01*
X00403451Y00040665D01*
X00403446Y00040649D01*
X00403444Y00040632D01*
X00403433Y00040601D01*
X00403424Y00040570D01*
X00403417Y00040555D01*
X00403411Y00040539D01*
X00402020Y00037557D01*
X00402012Y00037542D01*
X00402005Y00037527D01*
X00401987Y00037500D01*
X00401970Y00037472D01*
X00401959Y00037460D01*
X00401950Y00037446D01*
X00399834Y00034925D01*
X00399822Y00034913D01*
X00399812Y00034900D01*
X00399787Y00034879D01*
X00399764Y00034856D01*
X00399750Y00034847D01*
X00399737Y00034836D01*
X00397041Y00032948D01*
X00397027Y00032940D01*
X00397014Y00032930D01*
X00396984Y00032916D01*
X00396955Y00032900D01*
X00396940Y00032895D01*
X00396925Y00032888D01*
X00393832Y00031762D01*
X00393816Y00031758D01*
X00393801Y00031752D01*
X00393769Y00031746D01*
X00393737Y00031738D01*
X00393720Y00031737D01*
X00393704Y00031734D01*
X00390425Y00031447D01*
X00390409Y00031447D01*
X00390392Y00031445D01*
X00390360Y00031448D01*
X00390327Y00031448D01*
X00390311Y00031451D01*
X00390294Y00031453D01*
X00387053Y00032024D01*
X00387037Y00032029D01*
X00387021Y00032031D01*
X00386990Y00032042D01*
X00386958Y00032051D01*
X00386944Y00032058D01*
X00386928Y00032064D01*
X00383945Y00033454D01*
X00383931Y00033463D01*
X00383916Y00033469D01*
X00383889Y00033488D01*
X00383860Y00033505D01*
X00383848Y00033516D01*
X00383834Y00033525D01*
X00381313Y00035640D01*
X00381302Y00035652D01*
X00381289Y00035662D01*
X00381267Y00035687D01*
X00381244Y00035711D01*
X00381235Y00035725D01*
X00381224Y00035737D01*
X00379337Y00038433D01*
X00379329Y00038448D01*
X00379319Y00038461D01*
X00379304Y00038491D01*
X00379288Y00038519D01*
X00379283Y00038535D01*
X00379276Y00038550D01*
X00378150Y00041642D01*
X00378146Y00041658D01*
X00378140Y00041674D01*
X00378134Y00041706D01*
X00378126Y00041738D01*
X00378125Y00041754D01*
X00378122Y00041771D01*
X00377835Y00045049D01*
X00377835Y00045066D01*
X00377833Y00045082D01*
X00377836Y00045115D01*
X00377836Y00045148D01*
X00377840Y00045164D01*
X00377841Y00045180D01*
X00378127Y00046801D01*
X00381600Y00066497D01*
X00381626Y00066592D01*
X00381671Y00066680D01*
X00381731Y00066757D01*
X00381806Y00066821D01*
X00381892Y00066870D01*
X00381986Y00066900D01*
X00382083Y00066912D01*
X00382182Y00066905D01*
D02*
G37*
G36*
X00390409Y00844553D02*
X00390425Y00844553D01*
X00393704Y00844266D01*
X00393720Y00844263D01*
X00393737Y00844262D01*
X00393769Y00844254D01*
X00393801Y00844248D01*
X00393816Y00844242D01*
X00393832Y00844238D01*
X00396925Y00843112D01*
X00396940Y00843105D01*
X00396955Y00843100D01*
X00396984Y00843084D01*
X00397014Y00843070D01*
X00397027Y00843060D01*
X00397041Y00843052D01*
X00399737Y00841164D01*
X00399750Y00841153D01*
X00399764Y00841144D01*
X00399787Y00841121D01*
X00399812Y00841100D01*
X00399822Y00841087D01*
X00399834Y00841075D01*
X00401950Y00838554D01*
X00401959Y00838540D01*
X00401970Y00838528D01*
X00401987Y00838500D01*
X00402005Y00838473D01*
X00402012Y00838457D01*
X00402020Y00838443D01*
X00403411Y00835460D01*
X00403417Y00835445D01*
X00403424Y00835430D01*
X00403433Y00835398D01*
X00403444Y00835368D01*
X00403446Y00835351D01*
X00403451Y00835335D01*
X00403736Y00833715D01*
X00403736Y00833715D01*
X00407209Y00814018D01*
X00407217Y00813920D01*
X00407205Y00813822D01*
X00407174Y00813729D01*
X00407126Y00813643D01*
X00407062Y00813568D01*
X00406984Y00813508D01*
X00406897Y00813463D01*
X00406802Y00813437D01*
X00382182Y00809095D01*
X00382083Y00809088D01*
X00381986Y00809100D01*
X00381892Y00809130D01*
X00381806Y00809178D01*
X00381731Y00809243D01*
X00381671Y00809320D01*
X00381626Y00809408D01*
X00381600Y00809503D01*
X00378127Y00829198D01*
X00378127Y00829199D01*
X00377841Y00830820D01*
X00377840Y00830836D01*
X00377836Y00830852D01*
X00377836Y00830885D01*
X00377833Y00830918D01*
X00377835Y00830934D01*
X00377835Y00830951D01*
X00378122Y00834229D01*
X00378125Y00834246D01*
X00378126Y00834262D01*
X00378134Y00834294D01*
X00378140Y00834326D01*
X00378146Y00834342D01*
X00378150Y00834358D01*
X00379276Y00837450D01*
X00379283Y00837465D01*
X00379288Y00837481D01*
X00379305Y00837510D01*
X00379319Y00837539D01*
X00379328Y00837552D01*
X00379337Y00837567D01*
X00381224Y00840263D01*
X00381235Y00840275D01*
X00381244Y00840289D01*
X00381267Y00840313D01*
X00381288Y00840338D01*
X00381301Y00840348D01*
X00381313Y00840359D01*
X00383834Y00842475D01*
X00383848Y00842484D01*
X00383860Y00842495D01*
X00383889Y00842512D01*
X00383916Y00842531D01*
X00383931Y00842537D01*
X00383945Y00842545D01*
X00386928Y00843936D01*
X00386943Y00843942D01*
X00386958Y00843949D01*
X00386990Y00843958D01*
X00387021Y00843969D01*
X00387037Y00843971D01*
X00387053Y00843976D01*
X00390294Y00844547D01*
X00390311Y00844549D01*
X00390327Y00844552D01*
X00390360Y00844553D01*
X00390392Y00844555D01*
X00390409Y00844553D01*
D02*
G37*
G36*
X00622341Y00803947D02*
X00622358Y00803947D01*
X00622391Y00803942D01*
X00622423Y00803939D01*
X00622439Y00803934D01*
X00622455Y00803931D01*
X00625634Y00803080D01*
X00625650Y00803074D01*
X00625666Y00803070D01*
X00625696Y00803056D01*
X00625727Y00803045D01*
X00625741Y00803036D01*
X00625756Y00803029D01*
X00628606Y00801384D01*
X00628619Y00801374D01*
X00628634Y00801366D01*
X00628659Y00801345D01*
X00628686Y00801326D01*
X00628697Y00801314D01*
X00628710Y00801304D01*
X00631037Y00798977D01*
X00631048Y00798964D01*
X00631060Y00798952D01*
X00631079Y00798926D01*
X00631100Y00798900D01*
X00631107Y00798886D01*
X00631117Y00798872D01*
X00632763Y00796022D01*
X00632770Y00796007D01*
X00632778Y00795993D01*
X00632790Y00795962D01*
X00632803Y00795932D01*
X00632807Y00795916D01*
X00632813Y00795901D01*
X00633665Y00792722D01*
X00633667Y00792706D01*
X00633672Y00792690D01*
X00633675Y00792657D01*
X00633681Y00792625D01*
X00633680Y00792608D01*
X00633682Y00792592D01*
Y00789300D01*
X00633680Y00789284D01*
X00633681Y00789268D01*
X00633675Y00789235D01*
X00633672Y00789202D01*
X00633667Y00789187D01*
X00633665Y00789170D01*
X00632813Y00785991D01*
X00632807Y00785976D01*
X00632803Y00785960D01*
X00632790Y00785930D01*
X00632778Y00785899D01*
X00632770Y00785885D01*
X00632763Y00785870D01*
X00631940Y00784445D01*
X00621940Y00767124D01*
X00621883Y00767044D01*
X00621811Y00766977D01*
X00621727Y00766925D01*
X00621635Y00766890D01*
X00621538Y00766874D01*
X00621439Y00766878D01*
X00621343Y00766900D01*
X00621254Y00766941D01*
X00599603Y00779441D01*
X00599523Y00779498D01*
X00599456Y00779570D01*
X00599404Y00779653D01*
X00599369Y00779745D01*
X00599353Y00779843D01*
X00599356Y00779941D01*
X00599378Y00780037D01*
X00599419Y00780127D01*
X00609419Y00797447D01*
X00609419Y00797447D01*
X00610242Y00798872D01*
X00610252Y00798886D01*
X00610259Y00798900D01*
X00610280Y00798926D01*
X00610299Y00798952D01*
X00610311Y00798964D01*
X00610322Y00798977D01*
X00612649Y00801304D01*
X00612662Y00801314D01*
X00612673Y00801326D01*
X00612700Y00801345D01*
X00612725Y00801366D01*
X00612740Y00801374D01*
X00612753Y00801384D01*
X00615603Y00803029D01*
X00615619Y00803036D01*
X00615632Y00803045D01*
X00615663Y00803056D01*
X00615693Y00803070D01*
X00615709Y00803074D01*
X00615725Y00803080D01*
X00618904Y00803931D01*
X00618920Y00803934D01*
X00618936Y00803939D01*
X00618968Y00803942D01*
X00619001Y00803947D01*
X00619017Y00803947D01*
X00619034Y00803949D01*
X00622325D01*
X00622341Y00803947D01*
D02*
G37*
G36*
X00351016Y00837607D02*
X00351033Y00837607D01*
X00354312Y00837320D01*
X00354328Y00837317D01*
X00354344Y00837317D01*
X00354376Y00837308D01*
X00354409Y00837302D01*
X00354424Y00837296D01*
X00354440Y00837292D01*
X00357533Y00836166D01*
X00357547Y00836159D01*
X00357563Y00836154D01*
X00357592Y00836138D01*
X00357621Y00836124D01*
X00357635Y00836114D01*
X00357649Y00836106D01*
X00360345Y00834218D01*
X00360358Y00834207D01*
X00360371Y00834198D01*
X00360395Y00834175D01*
X00360420Y00834154D01*
X00360430Y00834141D01*
X00360442Y00834129D01*
X00362557Y00831608D01*
X00362567Y00831594D01*
X00362578Y00831582D01*
X00362594Y00831554D01*
X00362613Y00831527D01*
X00362620Y00831512D01*
X00362628Y00831497D01*
X00364019Y00828514D01*
X00364024Y00828499D01*
X00364032Y00828484D01*
X00364041Y00828453D01*
X00364052Y00828422D01*
X00364054Y00828405D01*
X00364058Y00828389D01*
X00364344Y00826769D01*
X00364344Y00826769D01*
X00367817Y00807073D01*
X00367825Y00806974D01*
X00367813Y00806877D01*
X00367782Y00806783D01*
X00367734Y00806697D01*
X00367670Y00806622D01*
X00367592Y00806562D01*
X00367504Y00806517D01*
X00367410Y00806490D01*
X00342789Y00802149D01*
X00342691Y00802142D01*
X00342593Y00802154D01*
X00342500Y00802184D01*
X00342414Y00802233D01*
X00342339Y00802297D01*
X00342278Y00802374D01*
X00342234Y00802462D01*
X00342207Y00802557D01*
X00338734Y00822253D01*
X00338734Y00822253D01*
X00338448Y00823874D01*
X00338447Y00823890D01*
X00338444Y00823906D01*
X00338443Y00823939D01*
X00338441Y00823972D01*
X00338443Y00823988D01*
X00338443Y00824005D01*
X00338730Y00827283D01*
X00338733Y00827300D01*
X00338734Y00827316D01*
X00338742Y00827348D01*
X00338748Y00827380D01*
X00338754Y00827396D01*
X00338758Y00827412D01*
X00339884Y00830504D01*
X00339891Y00830519D01*
X00339896Y00830535D01*
X00339912Y00830564D01*
X00339926Y00830593D01*
X00339936Y00830606D01*
X00339944Y00830621D01*
X00341832Y00833317D01*
X00341843Y00833329D01*
X00341852Y00833343D01*
X00341875Y00833367D01*
X00341896Y00833392D01*
X00341909Y00833402D01*
X00341921Y00833413D01*
X00344442Y00835529D01*
X00344455Y00835538D01*
X00344468Y00835549D01*
X00344496Y00835566D01*
X00344523Y00835585D01*
X00344538Y00835591D01*
X00344553Y00835600D01*
X00347536Y00836991D01*
X00347551Y00836996D01*
X00347566Y00837003D01*
X00347598Y00837012D01*
X00347629Y00837023D01*
X00347645Y00837026D01*
X00347661Y00837030D01*
X00350902Y00837601D01*
X00350918Y00837603D01*
X00350934Y00837606D01*
X00350968Y00837607D01*
X00351000Y00837609D01*
X00351016Y00837607D01*
D02*
G37*
G36*
X00656982Y00783947D02*
X00656999Y00783947D01*
X00657031Y00783942D01*
X00657064Y00783939D01*
X00657080Y00783934D01*
X00657096Y00783931D01*
X00660275Y00783080D01*
X00660291Y00783074D01*
X00660307Y00783070D01*
X00660337Y00783056D01*
X00660368Y00783045D01*
X00660381Y00783036D01*
X00660396Y00783029D01*
X00663247Y00781384D01*
X00663260Y00781374D01*
X00663275Y00781366D01*
X00663300Y00781345D01*
X00663327Y00781326D01*
X00663338Y00781314D01*
X00663351Y00781304D01*
X00665678Y00778977D01*
X00665689Y00778964D01*
X00665701Y00778952D01*
X00665720Y00778926D01*
X00665741Y00778900D01*
X00665749Y00778886D01*
X00665758Y00778872D01*
X00667404Y00776022D01*
X00667411Y00776007D01*
X00667419Y00775993D01*
X00667431Y00775962D01*
X00667444Y00775932D01*
X00667448Y00775916D01*
X00667454Y00775901D01*
X00668306Y00772722D01*
X00668308Y00772706D01*
X00668313Y00772690D01*
X00668316Y00772657D01*
X00668322Y00772625D01*
X00668321Y00772608D01*
X00668323Y00772592D01*
Y00769300D01*
X00668321Y00769284D01*
X00668322Y00769268D01*
X00668316Y00769235D01*
X00668313Y00769202D01*
X00668308Y00769187D01*
X00668306Y00769170D01*
X00667454Y00765991D01*
X00667448Y00765976D01*
X00667444Y00765960D01*
X00667431Y00765930D01*
X00667419Y00765899D01*
X00667411Y00765885D01*
X00667404Y00765870D01*
X00666581Y00764445D01*
X00656581Y00747124D01*
X00656524Y00747044D01*
X00656452Y00746977D01*
X00656368Y00746925D01*
X00656276Y00746890D01*
X00656179Y00746874D01*
X00656080Y00746877D01*
X00655984Y00746900D01*
X00655895Y00746940D01*
X00634244Y00759440D01*
X00634164Y00759498D01*
X00634097Y00759570D01*
X00634045Y00759653D01*
X00634010Y00759745D01*
X00633994Y00759843D01*
X00633997Y00759941D01*
X00634019Y00760037D01*
X00634060Y00760127D01*
X00644060Y00777447D01*
X00644883Y00778872D01*
X00644893Y00778886D01*
X00644900Y00778900D01*
X00644921Y00778926D01*
X00644940Y00778952D01*
X00644952Y00778964D01*
X00644963Y00778977D01*
X00647290Y00781304D01*
X00647303Y00781314D01*
X00647314Y00781326D01*
X00647341Y00781345D01*
X00647366Y00781366D01*
X00647381Y00781374D01*
X00647394Y00781384D01*
X00650245Y00783029D01*
X00650260Y00783036D01*
X00650274Y00783045D01*
X00650304Y00783056D01*
X00650334Y00783070D01*
X00650350Y00783074D01*
X00650366Y00783080D01*
X00653545Y00783931D01*
X00653561Y00783934D01*
X00653577Y00783939D01*
X00653609Y00783942D01*
X00653642Y00783947D01*
X00653659Y00783947D01*
X00653675Y00783949D01*
X00656966D01*
X00656982Y00783947D01*
D02*
G37*
G36*
X00412380Y00782908D02*
X00412474Y00782877D01*
X00412560Y00782829D01*
X00412634Y00782765D01*
X00412695Y00782687D01*
X00412739Y00782599D01*
X00412766Y00782505D01*
X00416239Y00762809D01*
X00416525Y00761188D01*
X00416526Y00761171D01*
X00416529Y00761155D01*
X00416530Y00761122D01*
X00416532Y00761090D01*
X00416530Y00761073D01*
X00416530Y00761057D01*
X00416244Y00757778D01*
X00416241Y00757762D01*
X00416240Y00757745D01*
X00416232Y00757714D01*
X00416226Y00757681D01*
X00416219Y00757666D01*
X00416215Y00757650D01*
X00415089Y00754557D01*
X00415082Y00754542D01*
X00415077Y00754527D01*
X00415061Y00754498D01*
X00415047Y00754468D01*
X00415037Y00754455D01*
X00415029Y00754441D01*
X00413141Y00751745D01*
X00413130Y00751732D01*
X00413121Y00751718D01*
X00413098Y00751695D01*
X00413077Y00751670D01*
X00413064Y00751660D01*
X00413053Y00751648D01*
X00410531Y00749532D01*
X00410518Y00749523D01*
X00410505Y00749512D01*
X00410477Y00749495D01*
X00410450Y00749477D01*
X00410435Y00749470D01*
X00410421Y00749462D01*
X00407438Y00748071D01*
X00407422Y00748065D01*
X00407407Y00748058D01*
X00407376Y00748049D01*
X00407345Y00748038D01*
X00407328Y00748036D01*
X00407313Y00748031D01*
X00404071Y00747460D01*
X00404055Y00747459D01*
X00404039Y00747455D01*
X00404006Y00747455D01*
X00403973Y00747452D01*
X00403957Y00747454D01*
X00403940Y00747454D01*
X00400662Y00747741D01*
X00400645Y00747744D01*
X00400629Y00747745D01*
X00400597Y00747753D01*
X00400565Y00747759D01*
X00400549Y00747765D01*
X00400533Y00747769D01*
X00397441Y00748895D01*
X00397426Y00748902D01*
X00397410Y00748907D01*
X00397382Y00748924D01*
X00397352Y00748938D01*
X00397339Y00748948D01*
X00397324Y00748956D01*
X00394628Y00750844D01*
X00394616Y00750854D01*
X00394602Y00750863D01*
X00394579Y00750886D01*
X00394553Y00750908D01*
X00394543Y00750921D01*
X00394532Y00750932D01*
X00392416Y00753454D01*
X00392407Y00753467D01*
X00392396Y00753479D01*
X00392379Y00753508D01*
X00392360Y00753535D01*
X00392354Y00753550D01*
X00392345Y00753564D01*
X00390955Y00756547D01*
X00390949Y00756563D01*
X00390942Y00756577D01*
X00390933Y00756609D01*
X00390922Y00756640D01*
X00390919Y00756656D01*
X00390915Y00756672D01*
X00390629Y00758293D01*
X00390629Y00758293D01*
X00387156Y00777989D01*
X00387149Y00778087D01*
D01*
Y00778087D01*
X00387161Y00778185D01*
X00387191Y00778279D01*
X00387239Y00778364D01*
X00387304Y00778439D01*
X00387381Y00778500D01*
X00387469Y00778544D01*
X00387564Y00778571D01*
X00412184Y00782912D01*
X00412282Y00782920D01*
X00412380Y00782908D01*
D02*
G37*
G36*
X00372988Y00775962D02*
X00373081Y00775931D01*
X00373167Y00775883D01*
X00373242Y00775819D01*
X00373303Y00775741D01*
X00373347Y00775654D01*
X00373374Y00775559D01*
X00376847Y00755863D01*
X00377132Y00754242D01*
X00377134Y00754226D01*
X00377137Y00754209D01*
X00377137Y00754176D01*
X00377140Y00754144D01*
X00377138Y00754128D01*
X00377138Y00754111D01*
X00376851Y00750832D01*
X00376848Y00750816D01*
X00376847Y00750799D01*
X00376839Y00750768D01*
X00376833Y00750735D01*
X00376827Y00750720D01*
X00376823Y00750704D01*
X00375697Y00747611D01*
X00375690Y00747596D01*
X00375685Y00747581D01*
X00375669Y00747552D01*
X00375655Y00747522D01*
X00375645Y00747509D01*
X00375637Y00747495D01*
X00373749Y00744799D01*
X00373738Y00744786D01*
X00373729Y00744772D01*
X00373706Y00744749D01*
X00373685Y00744724D01*
X00373672Y00744714D01*
X00373660Y00744702D01*
X00371139Y00742586D01*
X00371125Y00742577D01*
X00371113Y00742566D01*
X00371085Y00742549D01*
X00371058Y00742531D01*
X00371043Y00742524D01*
X00371028Y00742516D01*
X00368045Y00741125D01*
X00368030Y00741120D01*
X00368015Y00741112D01*
X00367984Y00741103D01*
X00367952Y00741092D01*
X00367936Y00741090D01*
X00367920Y00741086D01*
X00364679Y00740514D01*
X00364663Y00740513D01*
X00364646Y00740509D01*
X00364613Y00740509D01*
X00364581Y00740507D01*
X00364565Y00740508D01*
X00364548Y00740508D01*
X00361269Y00740795D01*
X00361253Y00740798D01*
X00361237Y00740799D01*
X00361205Y00740807D01*
X00361172Y00740813D01*
X00361157Y00740819D01*
X00361141Y00740824D01*
X00358048Y00741949D01*
X00358033Y00741956D01*
X00358018Y00741962D01*
X00357989Y00741978D01*
X00357960Y00741992D01*
X00357946Y00742002D01*
X00357932Y00742010D01*
X00355236Y00743898D01*
X00355223Y00743908D01*
X00355210Y00743917D01*
X00355186Y00743940D01*
X00355161Y00743962D01*
X00355151Y00743975D01*
X00355139Y00743986D01*
X00353024Y00746508D01*
X00353014Y00746521D01*
X00353003Y00746533D01*
X00352986Y00746562D01*
X00352968Y00746589D01*
X00352962Y00746604D01*
X00352953Y00746618D01*
X00351562Y00749601D01*
X00351557Y00749617D01*
X00351549Y00749631D01*
X00351540Y00749663D01*
X00351530Y00749694D01*
X00351527Y00749710D01*
X00351523Y00749726D01*
X00351237Y00751347D01*
X00351237Y00751347D01*
X00347764Y00771043D01*
X00347757Y00771141D01*
D01*
Y00771141D01*
X00347768Y00771239D01*
X00347799Y00771333D01*
X00347847Y00771419D01*
X00347911Y00771493D01*
X00347989Y00771554D01*
X00348077Y00771599D01*
X00348172Y00771625D01*
X00372791Y00775966D01*
X00372792Y00775966D01*
X00372890Y00775974D01*
X00372988Y00775962D01*
D02*
G37*
G36*
X00150074Y00720960D02*
X00150107Y00720960D01*
X00150123Y00720957D01*
X00150139Y00720955D01*
X00153381Y00720384D01*
X00153396Y00720379D01*
X00153413Y00720377D01*
X00153444Y00720366D01*
X00153476Y00720357D01*
X00153490Y00720350D01*
X00153506Y00720344D01*
X00156489Y00718953D01*
X00156503Y00718945D01*
X00156518Y00718939D01*
X00156545Y00718920D01*
X00156573Y00718903D01*
X00156586Y00718892D01*
X00156599Y00718883D01*
X00157860Y00717825D01*
X00157860Y00717825D01*
X00173181Y00704969D01*
X00173250Y00704899D01*
X00173304Y00704817D01*
X00173340Y00704725D01*
X00173358Y00704628D01*
X00173357Y00704530D01*
X00173337Y00704434D01*
X00173298Y00704343D01*
X00173243Y00704262D01*
X00157173Y00685110D01*
X00157103Y00685042D01*
X00157020Y00684988D01*
X00156929Y00684951D01*
X00156832Y00684933D01*
X00156734Y00684934D01*
X00156637Y00684954D01*
X00156546Y00684993D01*
X00156465Y00685049D01*
X00141145Y00697904D01*
X00141144Y00697904D01*
X00139884Y00698962D01*
X00139872Y00698974D01*
X00139859Y00698984D01*
X00139838Y00699009D01*
X00139815Y00699033D01*
X00139806Y00699046D01*
X00139795Y00699059D01*
X00137907Y00701755D01*
X00137899Y00701769D01*
X00137889Y00701782D01*
X00137875Y00701812D01*
X00137859Y00701841D01*
X00137854Y00701856D01*
X00137847Y00701871D01*
X00136721Y00704964D01*
X00136717Y00704980D01*
X00136711Y00704995D01*
X00136705Y00705028D01*
X00136697Y00705060D01*
X00136696Y00705076D01*
X00136693Y00705092D01*
X00136406Y00708371D01*
X00136406Y00708388D01*
X00136404Y00708404D01*
X00136406Y00708436D01*
X00136407Y00708469D01*
X00136410Y00708485D01*
X00136412Y00708502D01*
X00136983Y00711743D01*
X00136987Y00711759D01*
X00136990Y00711775D01*
X00137001Y00711807D01*
X00137010Y00711838D01*
X00137017Y00711853D01*
X00137022Y00711868D01*
X00138413Y00714851D01*
X00138422Y00714865D01*
X00138428Y00714881D01*
X00138447Y00714908D01*
X00138464Y00714936D01*
X00138475Y00714948D01*
X00138484Y00714962D01*
X00140599Y00717483D01*
X00140611Y00717495D01*
X00140621Y00717508D01*
X00140646Y00717529D01*
X00140670Y00717552D01*
X00140684Y00717561D01*
X00140696Y00717572D01*
X00143392Y00719460D01*
X00143407Y00719468D01*
X00143420Y00719478D01*
X00143449Y00719492D01*
X00143478Y00719508D01*
X00143494Y00719513D01*
X00143509Y00719520D01*
X00146601Y00720646D01*
X00146617Y00720650D01*
X00146633Y00720656D01*
X00146665Y00720662D01*
X00146697Y00720670D01*
X00146713Y00720671D01*
X00146729Y00720674D01*
X00150008Y00720961D01*
X00150025Y00720961D01*
X00150041Y00720963D01*
X00150074Y00720960D01*
D02*
G37*
G36*
X00583920Y00752661D02*
X00584016Y00752638D01*
X00584105Y00752598D01*
X00605756Y00740098D01*
X00605836Y00740041D01*
X00605903Y00739969D01*
X00605955Y00739885D01*
X00605990Y00739793D01*
X00606006Y00739696D01*
X00606003Y00739597D01*
X00605981Y00739501D01*
X00605940Y00739411D01*
X00595940Y00722091D01*
X00595117Y00720666D01*
X00595107Y00720652D01*
X00595100Y00720638D01*
X00595079Y00720612D01*
X00595060Y00720586D01*
X00595048Y00720574D01*
X00595037Y00720562D01*
X00592710Y00718234D01*
X00592697Y00718224D01*
X00592686Y00718212D01*
X00592659Y00718193D01*
X00592634Y00718172D01*
X00592619Y00718164D01*
X00592606Y00718155D01*
X00589756Y00716509D01*
X00589740Y00716502D01*
X00589726Y00716494D01*
X00589696Y00716482D01*
X00589666Y00716468D01*
X00589650Y00716464D01*
X00589634Y00716459D01*
X00586455Y00715607D01*
X00586439Y00715604D01*
X00586423Y00715600D01*
X00586390Y00715596D01*
X00586358Y00715591D01*
X00586342Y00715591D01*
X00586325Y00715590D01*
X00583034D01*
X00583018Y00715591D01*
X00583001Y00715591D01*
X00582968Y00715596D01*
X00582936Y00715600D01*
X00582920Y00715604D01*
X00582904Y00715607D01*
X00579725Y00716459D01*
X00579709Y00716465D01*
X00579693Y00716468D01*
X00579663Y00716482D01*
X00579632Y00716494D01*
X00579618Y00716502D01*
X00579603Y00716509D01*
X00576753Y00718155D01*
X00576740Y00718164D01*
X00576725Y00718172D01*
X00576700Y00718193D01*
X00576673Y00718212D01*
X00576662Y00718224D01*
X00576649Y00718234D01*
X00574322Y00720562D01*
X00574311Y00720574D01*
X00574299Y00720586D01*
X00574280Y00720612D01*
X00574259Y00720638D01*
X00574252Y00720652D01*
X00574242Y00720666D01*
X00572596Y00723516D01*
X00572589Y00723531D01*
X00572581Y00723545D01*
X00572569Y00723576D01*
X00572556Y00723606D01*
X00572552Y00723622D01*
X00572546Y00723637D01*
X00571694Y00726816D01*
X00571692Y00726833D01*
X00571687Y00726849D01*
X00571684Y00726881D01*
X00571678Y00726914D01*
X00571679Y00726930D01*
X00571677Y00726947D01*
Y00730238D01*
X00571679Y00730254D01*
X00571678Y00730271D01*
X00571684Y00730303D01*
X00571687Y00730336D01*
X00571692Y00730352D01*
X00571694Y00730368D01*
X00572546Y00733547D01*
X00572552Y00733562D01*
X00572556Y00733578D01*
X00572569Y00733608D01*
X00572581Y00733639D01*
X00572589Y00733653D01*
X00572596Y00733668D01*
X00573419Y00735093D01*
X00573419Y00735094D01*
X00583419Y00752414D01*
X00583476Y00752494D01*
X00583548Y00752561D01*
X00583632Y00752613D01*
X00583724Y00752648D01*
X00583821Y00752664D01*
X00583920Y00752661D01*
D02*
G37*
G36*
X00618561Y00732661D02*
X00618657Y00732638D01*
X00618746Y00732598D01*
X00640397Y00720098D01*
X00640477Y00720040D01*
X00640544Y00719969D01*
X00640596Y00719885D01*
X00640631Y00719793D01*
X00640647Y00719696D01*
X00640644Y00719597D01*
X00640622Y00719501D01*
X00640581Y00719411D01*
X00630581Y00702091D01*
X00629758Y00700666D01*
X00629748Y00700652D01*
X00629741Y00700638D01*
X00629720Y00700612D01*
X00629701Y00700586D01*
X00629689Y00700574D01*
X00629678Y00700562D01*
X00627351Y00698234D01*
X00627338Y00698224D01*
X00627327Y00698212D01*
X00627300Y00698193D01*
X00627275Y00698172D01*
X00627260Y00698164D01*
X00627247Y00698155D01*
X00624397Y00696509D01*
X00624381Y00696502D01*
X00624367Y00696494D01*
X00624337Y00696482D01*
X00624307Y00696468D01*
X00624291Y00696464D01*
X00624275Y00696459D01*
X00621096Y00695607D01*
X00621080Y00695604D01*
X00621064Y00695600D01*
X00621031Y00695596D01*
X00620999Y00695591D01*
X00620983Y00695591D01*
X00620966Y00695590D01*
X00617675D01*
X00617659Y00695591D01*
X00617642Y00695591D01*
X00617609Y00695596D01*
X00617577Y00695600D01*
X00617561Y00695604D01*
X00617545Y00695607D01*
X00614366Y00696459D01*
X00614350Y00696465D01*
X00614334Y00696468D01*
X00614304Y00696482D01*
X00614273Y00696494D01*
X00614259Y00696502D01*
X00614244Y00696509D01*
X00611394Y00698155D01*
X00611381Y00698164D01*
X00611366Y00698172D01*
X00611341Y00698193D01*
X00611314Y00698212D01*
X00611303Y00698224D01*
X00611290Y00698234D01*
X00608963Y00700562D01*
X00608952Y00700574D01*
X00608940Y00700586D01*
X00608921Y00700612D01*
X00608900Y00700638D01*
X00608893Y00700652D01*
X00608883Y00700666D01*
X00607237Y00703516D01*
X00607230Y00703531D01*
X00607222Y00703545D01*
X00607210Y00703576D01*
X00607197Y00703606D01*
X00607193Y00703622D01*
X00607187Y00703637D01*
X00606335Y00706816D01*
X00606333Y00706833D01*
X00606328Y00706849D01*
X00606325Y00706881D01*
X00606319Y00706914D01*
X00606320Y00706930D01*
X00606318Y00706947D01*
Y00710238D01*
X00606320Y00710254D01*
X00606319Y00710271D01*
X00606325Y00710303D01*
X00606328Y00710336D01*
X00606333Y00710352D01*
X00606335Y00710368D01*
X00607187Y00713547D01*
X00607193Y00713562D01*
X00607197Y00713578D01*
X00607210Y00713608D01*
X00607222Y00713639D01*
X00607230Y00713653D01*
X00607237Y00713668D01*
X00608060Y00715093D01*
X00618060Y00732414D01*
X00618117Y00732494D01*
X00618189Y00732561D01*
X00618273Y00732613D01*
X00618365Y00732648D01*
X00618462Y00732664D01*
X00618561Y00732661D01*
D02*
G37*
G36*
X00124362Y00690319D02*
X00124395Y00690318D01*
X00124411Y00690315D01*
X00124428Y00690314D01*
X00127669Y00689742D01*
X00127685Y00689738D01*
X00127701Y00689735D01*
X00127732Y00689724D01*
X00127764Y00689715D01*
X00127779Y00689708D01*
X00127794Y00689703D01*
X00130777Y00688312D01*
X00130791Y00688303D01*
X00130807Y00688297D01*
X00130834Y00688278D01*
X00130862Y00688261D01*
X00130874Y00688250D01*
X00130888Y00688241D01*
X00132148Y00687184D01*
X00132148Y00687183D01*
X00147469Y00674328D01*
X00147538Y00674257D01*
X00147592Y00674175D01*
X00147629Y00674083D01*
X00147647Y00673987D01*
X00147646Y00673888D01*
X00147626Y00673792D01*
X00147587Y00673701D01*
X00147531Y00673620D01*
X00131462Y00654469D01*
X00131391Y00654400D01*
X00131309Y00654346D01*
X00131217Y00654309D01*
X00131121Y00654291D01*
X00131022Y00654292D01*
X00130926Y00654313D01*
X00130835Y00654351D01*
X00130754Y00654407D01*
X00115433Y00667262D01*
X00115433Y00667262D01*
X00114172Y00668320D01*
X00114161Y00668332D01*
X00114148Y00668342D01*
X00114126Y00668367D01*
X00114103Y00668391D01*
X00114094Y00668404D01*
X00114084Y00668417D01*
X00112196Y00671113D01*
X00112188Y00671127D01*
X00112178Y00671141D01*
X00112164Y00671170D01*
X00112148Y00671199D01*
X00112142Y00671215D01*
X00112135Y00671229D01*
X00111010Y00674322D01*
X00111005Y00674338D01*
X00110999Y00674353D01*
X00110993Y00674386D01*
X00110985Y00674418D01*
X00110984Y00674434D01*
X00110981Y00674450D01*
X00110694Y00677729D01*
X00110694Y00677746D01*
X00110693Y00677762D01*
X00110695Y00677794D01*
X00110695Y00677828D01*
X00110699Y00677844D01*
X00110700Y00677860D01*
X00111271Y00681102D01*
X00111276Y00681117D01*
X00111278Y00681134D01*
X00111289Y00681165D01*
X00111298Y00681196D01*
X00111305Y00681211D01*
X00111311Y00681227D01*
X00112702Y00684210D01*
X00112710Y00684224D01*
X00112717Y00684239D01*
X00112735Y00684266D01*
X00112752Y00684294D01*
X00112763Y00684306D01*
X00112772Y00684320D01*
X00114888Y00686841D01*
X00114900Y00686853D01*
X00114910Y00686866D01*
X00114935Y00686887D01*
X00114958Y00686910D01*
X00114972Y00686919D01*
X00114985Y00686930D01*
X00117681Y00688818D01*
X00117695Y00688826D01*
X00117708Y00688836D01*
X00117738Y00688850D01*
X00117767Y00688866D01*
X00117782Y00688871D01*
X00117797Y00688878D01*
X00120890Y00690004D01*
X00120906Y00690008D01*
X00120921Y00690014D01*
X00120954Y00690020D01*
X00120985Y00690029D01*
X00121002Y00690029D01*
X00121018Y00690033D01*
X00124297Y00690319D01*
X00124313Y00690319D01*
X00124330Y00690321D01*
X00124362Y00690319D01*
D02*
G37*
G36*
X00197426Y00684515D02*
X00197522Y00684494D01*
X00197613Y00684456D01*
X00197694Y00684400D01*
X00213015Y00671544D01*
X00214276Y00670487D01*
X00214287Y00670475D01*
X00214300Y00670465D01*
X00214322Y00670440D01*
X00214345Y00670416D01*
X00214354Y00670402D01*
X00214364Y00670390D01*
X00216252Y00667694D01*
X00216260Y00667679D01*
X00216270Y00667666D01*
X00216284Y00667637D01*
X00216301Y00667608D01*
X00216306Y00667592D01*
X00216313Y00667578D01*
X00217439Y00664485D01*
X00217442Y00664469D01*
X00217449Y00664453D01*
X00217455Y00664421D01*
X00217463Y00664389D01*
X00217464Y00664373D01*
X00217467Y00664357D01*
X00217754Y00661078D01*
X00217754Y00661061D01*
X00217756Y00661045D01*
X00217753Y00661012D01*
X00217753Y00660979D01*
X00217749Y00660963D01*
X00217748Y00660947D01*
X00217176Y00657706D01*
X00217172Y00657690D01*
X00217170Y00657673D01*
X00217159Y00657642D01*
X00217150Y00657611D01*
X00217142Y00657596D01*
X00217137Y00657580D01*
X00215746Y00654597D01*
X00215738Y00654583D01*
X00215731Y00654568D01*
X00215713Y00654541D01*
X00215696Y00654513D01*
X00215685Y00654500D01*
X00215676Y00654487D01*
X00213560Y00651965D01*
X00213548Y00651954D01*
X00213538Y00651941D01*
X00213513Y00651920D01*
X00213490Y00651897D01*
X00213476Y00651888D01*
X00213463Y00651877D01*
X00210767Y00649989D01*
X00210753Y00649981D01*
X00210740Y00649971D01*
X00210710Y00649957D01*
X00210681Y00649941D01*
X00210666Y00649936D01*
X00210651Y00649929D01*
X00207558Y00648803D01*
X00207542Y00648799D01*
X00207527Y00648793D01*
X00207494Y00648787D01*
X00207463Y00648778D01*
X00207446Y00648777D01*
X00207430Y00648774D01*
X00204151Y00648488D01*
X00204135Y00648488D01*
X00204118Y00648486D01*
X00204086Y00648488D01*
X00204053Y00648489D01*
X00204036Y00648492D01*
X00204020Y00648493D01*
X00200779Y00649065D01*
X00200763Y00649069D01*
X00200747Y00649072D01*
X00200716Y00649083D01*
X00200684Y00649091D01*
X00200669Y00649099D01*
X00200654Y00649104D01*
X00197671Y00650495D01*
X00197657Y00650504D01*
X00197642Y00650510D01*
X00197614Y00650529D01*
X00197586Y00650546D01*
X00197574Y00650556D01*
X00197560Y00650566D01*
X00196300Y00651624D01*
X00196299Y00651624D01*
X00180979Y00664479D01*
X00180910Y00664550D01*
X00180856Y00664632D01*
X00180819Y00664724D01*
X00180801Y00664820D01*
X00180802Y00664919D01*
X00180823Y00665015D01*
X00180861Y00665106D01*
X00180917Y00665187D01*
X00196986Y00684338D01*
X00197057Y00684407D01*
X00197139Y00684461D01*
X00197231Y00684498D01*
X00197327Y00684516D01*
X00197426Y00684515D01*
D02*
G37*
G36*
X00171714Y00653873D02*
X00171811Y00653853D01*
X00171901Y00653814D01*
X00171983Y00653758D01*
X00187304Y00640903D01*
X00187304Y00640902D01*
X00188564Y00639845D01*
X00188576Y00639833D01*
X00188589Y00639823D01*
X00188610Y00639798D01*
X00188633Y00639775D01*
X00188642Y00639761D01*
X00188653Y00639748D01*
X00190541Y00637052D01*
X00190549Y00637038D01*
X00190559Y00637024D01*
X00190573Y00636995D01*
X00190589Y00636966D01*
X00190594Y00636951D01*
X00190601Y00636936D01*
X00191727Y00633843D01*
X00191731Y00633827D01*
X00191737Y00633812D01*
X00191743Y00633779D01*
X00191751Y00633747D01*
X00191752Y00633731D01*
X00191755Y00633715D01*
X00192042Y00630436D01*
X00192042Y00630420D01*
X00192044Y00630403D01*
X00192041Y00630371D01*
X00192041Y00630338D01*
X00192038Y00630321D01*
X00192036Y00630305D01*
X00191465Y00627064D01*
X00191460Y00627048D01*
X00191458Y00627032D01*
X00191447Y00627001D01*
X00191438Y00626969D01*
X00191431Y00626954D01*
X00191425Y00626939D01*
X00190035Y00623956D01*
X00190026Y00623942D01*
X00190020Y00623926D01*
X00190001Y00623899D01*
X00189984Y00623871D01*
X00189973Y00623859D01*
X00189964Y00623845D01*
X00187848Y00621324D01*
X00187837Y00621312D01*
X00187826Y00621299D01*
X00187802Y00621278D01*
X00187778Y00621255D01*
X00187764Y00621246D01*
X00187752Y00621235D01*
X00185056Y00619347D01*
X00185041Y00619339D01*
X00185028Y00619329D01*
X00184999Y00619315D01*
X00184970Y00619299D01*
X00184954Y00619294D01*
X00184939Y00619287D01*
X00181847Y00618161D01*
X00181831Y00618157D01*
X00181815Y00618151D01*
X00181783Y00618145D01*
X00181751Y00618137D01*
X00181735Y00618136D01*
X00181719Y00618133D01*
X00178440Y00617846D01*
X00178423Y00617846D01*
X00178407Y00617844D01*
X00178374Y00617847D01*
X00178341Y00617847D01*
X00178325Y00617850D01*
X00178309Y00617852D01*
X00175067Y00618423D01*
X00175051Y00618428D01*
X00175035Y00618430D01*
X00175004Y00618441D01*
X00174972Y00618450D01*
X00174958Y00618457D01*
X00174942Y00618463D01*
X00171959Y00619854D01*
X00171945Y00619862D01*
X00171930Y00619868D01*
X00171903Y00619887D01*
X00171875Y00619904D01*
X00171862Y00619915D01*
X00171849Y00619924D01*
X00170588Y00620982D01*
X00170588Y00620982D01*
X00155267Y00633838D01*
X00155198Y00633908D01*
X00155145Y00633991D01*
X00155108Y00634082D01*
X00155090Y00634179D01*
X00155091Y00634277D01*
X00155111Y00634374D01*
X00155150Y00634464D01*
X00155205Y00634545D01*
X00171275Y00653697D01*
X00171345Y00653765D01*
X00171428Y00653819D01*
X00171519Y00653856D01*
X00171616Y00653874D01*
X00171714Y00653873D01*
D02*
G37*
G36*
X00805849Y00605330D02*
X00805882Y00605329D01*
X00805899Y00605326D01*
X00805915Y00605325D01*
X00809156Y00604753D01*
X00809172Y00604748D01*
X00809189Y00604746D01*
X00809220Y00604735D01*
X00809251Y00604726D01*
X00809266Y00604719D01*
X00809281Y00604714D01*
X00812264Y00603322D01*
X00812279Y00603314D01*
X00812294Y00603308D01*
X00812321Y00603289D01*
X00812349Y00603272D01*
X00812361Y00603261D01*
X00812375Y00603252D01*
X00814896Y00601136D01*
X00814908Y00601125D01*
X00814921Y00601115D01*
X00814942Y00601090D01*
X00814965Y00601066D01*
X00814974Y00601052D01*
X00814985Y00601040D01*
X00816873Y00598344D01*
X00816881Y00598329D01*
X00816891Y00598316D01*
X00816905Y00598286D01*
X00816921Y00598258D01*
X00816926Y00598242D01*
X00816933Y00598227D01*
X00818059Y00595135D01*
X00818063Y00595118D01*
X00818069Y00595103D01*
X00818075Y00595071D01*
X00818083Y00595039D01*
X00818084Y00595023D01*
X00818087Y00595006D01*
X00818374Y00591728D01*
X00818374Y00591711D01*
X00818376Y00591695D01*
X00818373Y00591662D01*
X00818373Y00591629D01*
X00818370Y00591613D01*
X00818369Y00591597D01*
X00817797Y00588355D01*
X00817793Y00588340D01*
X00817790Y00588323D01*
X00817779Y00588292D01*
X00817770Y00588260D01*
X00817763Y00588246D01*
X00817757Y00588230D01*
X00816367Y00585247D01*
X00816358Y00585233D01*
X00816352Y00585218D01*
X00816333Y00585191D01*
X00816316Y00585163D01*
X00816305Y00585150D01*
X00816296Y00585137D01*
X00814181Y00582615D01*
X00814169Y00582604D01*
X00814159Y00582591D01*
X00814134Y00582569D01*
X00814110Y00582547D01*
X00814096Y00582537D01*
X00814084Y00582527D01*
X00811388Y00580639D01*
X00811373Y00580631D01*
X00811360Y00580621D01*
X00811330Y00580607D01*
X00811302Y00580591D01*
X00811286Y00580586D01*
X00811271Y00580578D01*
X00809725Y00580015D01*
X00790931Y00573175D01*
X00790836Y00573151D01*
X00790737Y00573145D01*
X00790640Y00573159D01*
X00790547Y00573192D01*
X00790462Y00573242D01*
X00790389Y00573308D01*
X00790330Y00573387D01*
X00790287Y00573475D01*
X00781737Y00596968D01*
X00781712Y00597063D01*
X00781707Y00597161D01*
X00781721Y00597259D01*
X00781753Y00597352D01*
X00781804Y00597437D01*
X00781869Y00597510D01*
X00781948Y00597569D01*
X00782037Y00597612D01*
X00800831Y00604452D01*
X00800831Y00604452D01*
X00802377Y00605015D01*
X00802393Y00605019D01*
X00802409Y00605025D01*
X00802441Y00605031D01*
X00802473Y00605039D01*
X00802489Y00605040D01*
X00802505Y00605043D01*
X00805784Y00605330D01*
X00805801Y00605330D01*
X00805817Y00605332D01*
X00805849Y00605330D01*
D02*
G37*
G36*
X00819530Y00567742D02*
X00819563Y00567741D01*
X00819579Y00567738D01*
X00819596Y00567737D01*
X00822837Y00567165D01*
X00822853Y00567161D01*
X00822869Y00567158D01*
X00822900Y00567147D01*
X00822932Y00567139D01*
X00822947Y00567131D01*
X00822962Y00567126D01*
X00825945Y00565735D01*
X00825959Y00565726D01*
X00825975Y00565720D01*
X00826002Y00565701D01*
X00826030Y00565685D01*
X00826042Y00565674D01*
X00826056Y00565664D01*
X00828577Y00563549D01*
X00828588Y00563537D01*
X00828602Y00563527D01*
X00828623Y00563502D01*
X00828646Y00563478D01*
X00828655Y00563465D01*
X00828666Y00563452D01*
X00830554Y00560756D01*
X00830562Y00560742D01*
X00830572Y00560728D01*
X00830586Y00560699D01*
X00830602Y00560670D01*
X00830607Y00560654D01*
X00830614Y00560640D01*
X00831740Y00557547D01*
X00831744Y00557531D01*
X00831750Y00557515D01*
X00831756Y00557483D01*
X00831764Y00557451D01*
X00831765Y00557435D01*
X00831768Y00557419D01*
X00832055Y00554140D01*
X00832055Y00554123D01*
X00832057Y00554107D01*
X00832054Y00554075D01*
X00832054Y00554041D01*
X00832051Y00554025D01*
X00832049Y00554009D01*
X00831478Y00550768D01*
X00831473Y00550752D01*
X00831471Y00550735D01*
X00831460Y00550704D01*
X00831451Y00550673D01*
X00831444Y00550658D01*
X00831438Y00550643D01*
X00830047Y00547660D01*
X00830039Y00547645D01*
X00830033Y00547630D01*
X00830014Y00547603D01*
X00829997Y00547575D01*
X00829986Y00547563D01*
X00829977Y00547549D01*
X00827861Y00545028D01*
X00827850Y00545016D01*
X00827839Y00545003D01*
X00827814Y00544982D01*
X00827791Y00544959D01*
X00827777Y00544950D01*
X00827765Y00544939D01*
X00825069Y00543051D01*
X00825054Y00543043D01*
X00825041Y00543033D01*
X00825011Y00543019D01*
X00824983Y00543003D01*
X00824967Y00542998D01*
X00824952Y00542991D01*
X00823406Y00542428D01*
X00804612Y00535587D01*
X00804517Y00535563D01*
X00804418Y00535558D01*
X00804321Y00535572D01*
X00804228Y00535604D01*
X00804143Y00535654D01*
X00804070Y00535720D01*
X00804011Y00535799D01*
X00803968Y00535888D01*
X00795417Y00559380D01*
X00795393Y00559475D01*
X00795388Y00559574D01*
X00795402Y00559671D01*
X00795434Y00559764D01*
X00795484Y00559849D01*
X00795550Y00559922D01*
X00795629Y00559981D01*
X00795718Y00560024D01*
X00814511Y00566864D01*
X00814512Y00566864D01*
X00816058Y00567427D01*
X00816074Y00567431D01*
X00816089Y00567437D01*
X00816122Y00567444D01*
X00816153Y00567452D01*
X00816170Y00567453D01*
X00816186Y00567456D01*
X00819465Y00567743D01*
X00819481Y00567742D01*
X00819498Y00567744D01*
X00819530Y00567742D01*
D02*
G37*
G36*
X00752258Y00586683D02*
X00752351Y00586650D01*
X00752436Y00586600D01*
X00752509Y00586534D01*
X00752568Y00586455D01*
X00752611Y00586367D01*
X00761161Y00562874D01*
X00761186Y00562779D01*
X00761191Y00562681D01*
D01*
Y00562681D01*
X00761177Y00562583D01*
X00761144Y00562490D01*
X00761094Y00562406D01*
X00761029Y00562332D01*
X00760950Y00562273D01*
X00760861Y00562230D01*
X00742067Y00555390D01*
X00742067Y00555390D01*
X00740521Y00554827D01*
X00740505Y00554823D01*
X00740489Y00554817D01*
X00740457Y00554811D01*
X00740425Y00554803D01*
X00740409Y00554802D01*
X00740393Y00554799D01*
X00737114Y00554512D01*
X00737097Y00554512D01*
X00737081Y00554510D01*
X00737048Y00554513D01*
X00737015Y00554513D01*
X00736999Y00554516D01*
X00736983Y00554518D01*
X00733742Y00555089D01*
X00733726Y00555094D01*
X00733709Y00555096D01*
X00733678Y00555107D01*
X00733647Y00555116D01*
X00733632Y00555123D01*
X00733616Y00555129D01*
X00730633Y00556520D01*
X00730619Y00556528D01*
X00730604Y00556535D01*
X00730577Y00556553D01*
X00730549Y00556570D01*
X00730536Y00556581D01*
X00730523Y00556590D01*
X00728001Y00558706D01*
X00727990Y00558718D01*
X00727977Y00558728D01*
X00727956Y00558753D01*
X00727933Y00558776D01*
X00727924Y00558790D01*
X00727913Y00558802D01*
X00726025Y00561498D01*
X00726017Y00561513D01*
X00726007Y00561526D01*
X00725993Y00561556D01*
X00725977Y00561584D01*
X00725972Y00561600D01*
X00725965Y00561615D01*
X00724839Y00564708D01*
X00724835Y00564724D01*
X00724829Y00564739D01*
X00724823Y00564771D01*
X00724814Y00564803D01*
X00724814Y00564819D01*
X00724810Y00564836D01*
X00724524Y00568115D01*
X00724524Y00568131D01*
X00724522Y00568147D01*
X00724524Y00568180D01*
X00724525Y00568213D01*
X00724528Y00568229D01*
X00724529Y00568246D01*
X00725101Y00571487D01*
X00725105Y00571503D01*
X00725108Y00571519D01*
X00725119Y00571550D01*
X00725127Y00571582D01*
X00725135Y00571596D01*
X00725140Y00571612D01*
X00726531Y00574595D01*
X00726540Y00574609D01*
X00726546Y00574624D01*
X00726565Y00574651D01*
X00726581Y00574680D01*
X00726592Y00574692D01*
X00726602Y00574706D01*
X00728717Y00577227D01*
X00728729Y00577238D01*
X00728739Y00577251D01*
X00728764Y00577273D01*
X00728788Y00577296D01*
X00728802Y00577305D01*
X00728814Y00577315D01*
X00731510Y00579203D01*
X00731525Y00579211D01*
X00731538Y00579221D01*
X00731567Y00579235D01*
X00731596Y00579252D01*
X00731612Y00579257D01*
X00731627Y00579264D01*
X00733173Y00579827D01*
X00733173Y00579827D01*
X00751967Y00586667D01*
X00752062Y00586692D01*
X00752160Y00586697D01*
X00752258Y00586683D01*
D02*
G37*
G36*
X00765939Y00549095D02*
X00766032Y00549063D01*
X00766116Y00549012D01*
X00766190Y00548947D01*
X00766249Y00548868D01*
X00766292Y00548779D01*
X00774842Y00525287D01*
X00774866Y00525191D01*
X00774872Y00525093D01*
D01*
Y00525093D01*
X00774858Y00524995D01*
X00774825Y00524903D01*
X00774775Y00524818D01*
X00774709Y00524744D01*
X00774631Y00524685D01*
X00774542Y00524643D01*
X00755748Y00517802D01*
X00755748Y00517802D01*
X00754202Y00517239D01*
X00754185Y00517235D01*
X00754170Y00517229D01*
X00754138Y00517223D01*
X00754106Y00517215D01*
X00754090Y00517214D01*
X00754073Y00517211D01*
X00750795Y00516924D01*
X00750778Y00516924D01*
X00750762Y00516922D01*
X00750729Y00516925D01*
X00750696Y00516925D01*
X00750680Y00516929D01*
X00750664Y00516930D01*
X00747422Y00517502D01*
X00747406Y00517506D01*
X00747390Y00517508D01*
X00747359Y00517519D01*
X00747327Y00517528D01*
X00747313Y00517536D01*
X00747297Y00517541D01*
X00744314Y00518932D01*
X00744300Y00518940D01*
X00744285Y00518947D01*
X00744258Y00518965D01*
X00744230Y00518982D01*
X00744217Y00518993D01*
X00744204Y00519002D01*
X00741682Y00521118D01*
X00741671Y00521130D01*
X00741658Y00521140D01*
X00741637Y00521165D01*
X00741613Y00521188D01*
X00741605Y00521202D01*
X00741594Y00521215D01*
X00739706Y00523911D01*
X00739698Y00523925D01*
X00739688Y00523938D01*
X00739674Y00523968D01*
X00739658Y00523997D01*
X00739652Y00524012D01*
X00739645Y00524027D01*
X00738520Y00527120D01*
X00738516Y00527136D01*
X00738509Y00527151D01*
X00738503Y00527184D01*
X00738495Y00527215D01*
X00738494Y00527232D01*
X00738491Y00527248D01*
X00738204Y00530527D01*
X00738205Y00530543D01*
X00738203Y00530560D01*
X00738205Y00530592D01*
X00738205Y00530625D01*
X00738209Y00530642D01*
X00738210Y00530658D01*
X00738782Y00533899D01*
X00738786Y00533915D01*
X00738789Y00533931D01*
X00738799Y00533962D01*
X00738808Y00533994D01*
X00738816Y00534009D01*
X00738821Y00534024D01*
X00740212Y00537007D01*
X00740220Y00537021D01*
X00740227Y00537037D01*
X00740246Y00537063D01*
X00740262Y00537092D01*
X00740273Y00537104D01*
X00740283Y00537118D01*
X00742398Y00539639D01*
X00742410Y00539651D01*
X00742420Y00539664D01*
X00742445Y00539685D01*
X00742469Y00539708D01*
X00742482Y00539717D01*
X00742495Y00539728D01*
X00745191Y00541615D01*
X00745205Y00541624D01*
X00745219Y00541633D01*
X00745248Y00541648D01*
X00745277Y00541664D01*
X00745293Y00541669D01*
X00745307Y00541676D01*
X00746854Y00542239D01*
X00746854Y00542239D01*
X00765648Y00549079D01*
X00765743Y00549104D01*
X00765841Y00549109D01*
X00765939Y00549095D01*
D02*
G37*
G36*
X00064098Y00470993D02*
X00064192Y00470964D01*
X00064279Y00470918D01*
X00064355Y00470855D01*
X00064418Y00470779D01*
X00064464Y00470692D01*
X00064493Y00470598D01*
X00064502Y00470500D01*
Y00445500D01*
X00064493Y00445402D01*
X00064464Y00445308D01*
X00064418Y00445221D01*
X00064355Y00445145D01*
X00064279Y00445082D01*
X00064192Y00445036D01*
X00064098Y00445007D01*
X00064000Y00444998D01*
X00042354D01*
X00042338Y00444999D01*
X00042322Y00444999D01*
X00042289Y00445004D01*
X00042256Y00445007D01*
X00042241Y00445012D01*
X00042224Y00445015D01*
X00039045Y00445867D01*
X00039030Y00445872D01*
X00039014Y00445876D01*
X00038984Y00445890D01*
X00038953Y00445901D01*
X00038939Y00445910D01*
X00038924Y00445917D01*
X00036074Y00447562D01*
X00036060Y00447572D01*
X00036046Y00447580D01*
X00036020Y00447601D01*
X00035994Y00447620D01*
X00035982Y00447632D01*
X00035970Y00447642D01*
X00033642Y00449969D01*
X00033632Y00449982D01*
X00033620Y00449994D01*
X00033601Y00450020D01*
X00033580Y00450046D01*
X00033572Y00450060D01*
X00033562Y00450074D01*
X00031917Y00452924D01*
X00031910Y00452939D01*
X00031901Y00452953D01*
X00031890Y00452984D01*
X00031876Y00453014D01*
X00031872Y00453030D01*
X00031867Y00453045D01*
X00031015Y00456224D01*
X00031012Y00456241D01*
X00031007Y00456256D01*
X00031004Y00456289D01*
X00030999Y00456321D01*
X00030999Y00456338D01*
X00030998Y00456354D01*
Y00459646D01*
X00030999Y00459662D01*
X00030999Y00459678D01*
X00031004Y00459711D01*
X00031007Y00459744D01*
X00031012Y00459759D01*
X00031015Y00459776D01*
X00031867Y00462955D01*
X00031872Y00462970D01*
X00031876Y00462986D01*
X00031890Y00463016D01*
X00031901Y00463047D01*
X00031910Y00463061D01*
X00031917Y00463076D01*
X00033562Y00465926D01*
X00033572Y00465940D01*
X00033580Y00465954D01*
X00033601Y00465980D01*
X00033620Y00466006D01*
X00033632Y00466018D01*
X00033642Y00466030D01*
X00035970Y00468358D01*
X00035982Y00468368D01*
X00035994Y00468380D01*
X00036020Y00468399D01*
X00036046Y00468420D01*
X00036060Y00468428D01*
X00036074Y00468438D01*
X00038924Y00470083D01*
X00038939Y00470090D01*
X00038953Y00470099D01*
X00038984Y00470110D01*
X00039014Y00470124D01*
X00039030Y00470128D01*
X00039045Y00470133D01*
X00042224Y00470985D01*
X00042241Y00470988D01*
X00042256Y00470993D01*
X00042289Y00470996D01*
X00042322Y00471001D01*
X00042338Y00471001D01*
X00042354Y00471002D01*
X00064000D01*
X00064098Y00470993D01*
D02*
G37*
G36*
X00117662Y00471001D02*
X00117678Y00471001D01*
X00117711Y00470996D01*
X00117744Y00470993D01*
X00117760Y00470988D01*
X00117776Y00470985D01*
X00120955Y00470133D01*
X00120970Y00470128D01*
X00120986Y00470124D01*
X00121016Y00470110D01*
X00121047Y00470099D01*
X00121061Y00470090D01*
X00121076Y00470083D01*
X00123926Y00468438D01*
X00123940Y00468428D01*
X00123954Y00468420D01*
X00123980Y00468399D01*
X00124007Y00468380D01*
X00124018Y00468368D01*
X00124031Y00468358D01*
X00126358Y00466030D01*
X00126368Y00466018D01*
X00126380Y00466006D01*
X00126399Y00465980D01*
X00126420Y00465954D01*
X00126428Y00465940D01*
X00126438Y00465926D01*
X00128083Y00463076D01*
X00128090Y00463061D01*
X00128099Y00463047D01*
X00128110Y00463016D01*
X00128124Y00462986D01*
X00128128Y00462970D01*
X00128133Y00462955D01*
X00128985Y00459776D01*
X00128988Y00459759D01*
X00128993Y00459744D01*
X00128996Y00459711D01*
X00129001Y00459678D01*
X00129001Y00459662D01*
X00129002Y00459646D01*
Y00456354D01*
X00129001Y00456338D01*
X00129001Y00456321D01*
X00128996Y00456289D01*
X00128993Y00456256D01*
X00128988Y00456241D01*
X00128985Y00456224D01*
X00128133Y00453045D01*
X00128128Y00453030D01*
X00128124Y00453014D01*
X00128110Y00452984D01*
X00128099Y00452953D01*
X00128090Y00452939D01*
X00128083Y00452924D01*
X00126438Y00450074D01*
X00126428Y00450060D01*
X00126420Y00450046D01*
X00126399Y00450020D01*
X00126380Y00449994D01*
X00126368Y00449982D01*
X00126358Y00449969D01*
X00124030Y00447642D01*
X00124018Y00447632D01*
X00124007Y00447620D01*
X00123980Y00447601D01*
X00123954Y00447580D01*
X00123940Y00447572D01*
X00123926Y00447562D01*
X00121076Y00445917D01*
X00121061Y00445910D01*
X00121047Y00445901D01*
X00121016Y00445890D01*
X00120986Y00445876D01*
X00120970Y00445872D01*
X00120955Y00445867D01*
X00117776Y00445015D01*
X00117759Y00445012D01*
X00117744Y00445007D01*
X00117711Y00445004D01*
X00117678Y00444999D01*
X00117662Y00444999D01*
X00117646Y00444998D01*
X00096000D01*
X00095902Y00445007D01*
X00095808Y00445036D01*
X00095721Y00445082D01*
X00095645Y00445145D01*
X00095582Y00445221D01*
X00095536Y00445308D01*
X00095507Y00445402D01*
X00095498Y00445500D01*
Y00470500D01*
X00095507Y00470598D01*
X00095536Y00470692D01*
X00095582Y00470779D01*
X00095645Y00470855D01*
X00095721Y00470918D01*
X00095808Y00470964D01*
X00095902Y00470993D01*
X00096000Y00471002D01*
X00117646D01*
X00117662Y00471001D01*
D02*
G37*
D43*
X00080000Y00438000D02*
D03*
D44*
X00164224Y00206596D02*
D03*
D45*
X00377487Y00083469D02*
D03*
D46*
X00620000Y00126231D02*
D03*
D47*
X00778289Y00314873D02*
D03*
D48*
Y00561127D02*
D03*
D49*
X00620000Y00749769D02*
D03*
D50*
X00377487Y00792531D02*
D03*
D51*
X00164224Y00669404D02*
D03*
D52*
X00070000Y00598000D02*
D03*
Y00278000D02*
D03*
X00720000Y00143000D02*
D03*
Y00733000D02*
D03*
D53*
X00148299Y00597001D02*
D03*
X00232761Y00697659D02*
D03*
X00232761Y00178341D02*
D03*
X00148299Y00278999D02*
D03*
D54*
X00188792Y00603099D02*
D03*
X00204862Y00622250D02*
D03*
X00217718Y00637571D02*
D03*
X00233787Y00219278D02*
D03*
X00217718Y00238429D02*
D03*
X00204862Y00253750D02*
D03*
X00826499Y00463763D02*
D03*
Y00413763D02*
D03*
D55*
X00233787Y00656722D02*
D03*
D56*
X00196500Y00357000D02*
D03*
Y00516000D02*
D03*
X00430500Y00688750D02*
D03*
D57*
X00231500Y00357000D02*
D03*
Y00516000D02*
D03*
X00465500Y00688750D02*
D03*
D58*
X00653000Y00650200D02*
D03*
X00653000Y00624800D02*
D03*
X00653000Y00599400D02*
D03*
Y00574000D02*
D03*
X00653000Y00472400D02*
D03*
Y00497800D02*
D03*
X00653000Y00523200D02*
D03*
X00653000Y00548600D02*
D03*
X00320600Y00148000D02*
D03*
X00346000Y00148000D02*
D03*
X00371400Y00148000D02*
D03*
X00396800Y00148000D02*
D03*
X00631000Y00208000D02*
D03*
X00605600D02*
D03*
X00580200D02*
D03*
X00554800D02*
D03*
X00453200D02*
D03*
X00478600D02*
D03*
X00504000D02*
D03*
X00529400D02*
D03*
X00272200Y00262000D02*
D03*
X00297600D02*
D03*
X00323000D02*
D03*
X00348400D02*
D03*
D59*
X00188792Y00272901D02*
D03*
D60*
X00309600Y00448000D02*
D03*
X00335400Y00600400D02*
D03*
X00589400Y00448000D02*
D03*
D61*
X00309600Y00676600D02*
D03*
Y00600400D02*
D03*
Y00625800D02*
D03*
Y00524200D02*
D03*
Y00549600D02*
D03*
Y00473400D02*
D03*
Y00575000D02*
D03*
Y00651200D02*
D03*
Y00498800D02*
D03*
X00335000Y00448000D02*
D03*
X00589400Y00676600D02*
D03*
X00335400D02*
D03*
X00564000D02*
D03*
X00589400Y00651200D02*
D03*
X00335400D02*
D03*
X00564000D02*
D03*
X00589400Y00625800D02*
D03*
X00335400D02*
D03*
X00564000D02*
D03*
X00589400Y00600400D02*
D03*
X00564000D02*
D03*
X00589400Y00575000D02*
D03*
X00335400D02*
D03*
X00564000D02*
D03*
X00589400Y00549600D02*
D03*
X00335400D02*
D03*
X00564000D02*
D03*
X00589400Y00524200D02*
D03*
X00335400D02*
D03*
X00564000D02*
D03*
X00589400Y00498800D02*
D03*
X00335400D02*
D03*
X00564000D02*
D03*
X00589400Y00473400D02*
D03*
X00335400D02*
D03*
X00564000D02*
D03*
Y00448000D02*
D03*
D62*
X00601000Y00295000D02*
D03*
X00575000D02*
D03*
X00626000Y00334000D02*
D03*
X00600000D02*
D03*
D63*
X00627000Y00295000D02*
D03*
X00574000Y00334000D02*
D03*
D64*
X00056750Y00484250D02*
D03*
Y00494250D02*
D03*
X00040750D02*
D03*
Y00484250D02*
D03*
X00057000Y00382000D02*
D03*
Y00392000D02*
D03*
X00041000D02*
D03*
Y00382000D02*
D03*
X00170344Y00138629D02*
D03*
X00163916Y00146290D02*
D03*
X00176173Y00156574D02*
D03*
X00182601Y00148914D02*
D03*
X00104428Y00216797D02*
D03*
X00098000Y00224457D02*
D03*
X00110257Y00234742D02*
D03*
X00116685Y00227081D02*
D03*
X00327902Y00068604D02*
D03*
X00318054Y00070340D02*
D03*
X00315275Y00054583D02*
D03*
X00325124Y00052847D02*
D03*
X00428642Y00051094D02*
D03*
X00418794Y00052831D02*
D03*
X00416016Y00037074D02*
D03*
X00425864Y00035337D02*
D03*
X00687998Y00120456D02*
D03*
X00679337Y00115456D02*
D03*
X00671337Y00129312D02*
D03*
X00679997Y00134312D02*
D03*
X00599571Y00069114D02*
D03*
X00590911Y00064114D02*
D03*
X00582911Y00077971D02*
D03*
X00591571Y00082971D02*
D03*
X00784319Y00263460D02*
D03*
X00780899Y00254063D02*
D03*
X00795934Y00248591D02*
D03*
X00799354Y00257988D02*
D03*
X00819055Y00359629D02*
D03*
X00815635Y00350232D02*
D03*
X00830670Y00344760D02*
D03*
X00834091Y00354157D02*
D03*
X00795784Y00627089D02*
D03*
X00799204Y00617692D02*
D03*
X00784169Y00612220D02*
D03*
X00780749Y00621617D02*
D03*
X00830991Y00531091D02*
D03*
X00834411Y00521694D02*
D03*
X00819376Y00516222D02*
D03*
X00815956Y00525619D02*
D03*
X00671679Y00746779D02*
D03*
X00680339Y00741779D02*
D03*
X00688339Y00755636D02*
D03*
X00679679Y00760636D02*
D03*
X00583003Y00797688D02*
D03*
X00591663Y00792688D02*
D03*
X00599663Y00806544D02*
D03*
X00591003Y00811544D02*
D03*
X00315565Y00821214D02*
D03*
X00325413Y00822951D02*
D03*
X00328192Y00807194D02*
D03*
X00318344Y00805457D02*
D03*
X00416218Y00839216D02*
D03*
X00426066Y00840952D02*
D03*
X00428845Y00825195D02*
D03*
X00418997Y00823459D02*
D03*
X00176142Y00719778D02*
D03*
X00182570Y00727438D02*
D03*
X00170313Y00737723D02*
D03*
X00163886Y00730062D02*
D03*
X00110609Y00641289D02*
D03*
X00117037Y00648950D02*
D03*
X00104780Y00659234D02*
D03*
X00098352Y00651574D02*
D03*
X00500540Y00503000D02*
D03*
X00487000Y00477000D02*
D03*
X00710000Y00224000D02*
D03*
X00708000Y00233000D02*
D03*
X00676000Y00247000D02*
D03*
X00630000Y00382000D02*
D03*
X00661000Y00333000D02*
D03*
X00677000Y00277000D02*
D03*
X00508000Y00452000D02*
D03*
Y00462000D02*
D03*
X00416000Y00242000D02*
D03*
X00436000Y00552000D02*
D03*
X00456000Y00550000D02*
D03*
X00406000D02*
D03*
X00347000Y00489862D02*
D03*
X00393000Y00498000D02*
D03*
X00346965Y00534035D02*
D03*
X00515000Y00524000D02*
D03*
X00439150Y00528750D02*
D03*
X00457500D02*
D03*
X00475850D02*
D03*
X00441000Y00595000D02*
D03*
X00475850Y00510400D02*
D03*
X00381000Y00461000D02*
D03*
X00475850Y00492050D02*
D03*
X00457500D02*
D03*
X00439150D02*
D03*
X00457500Y00510400D02*
D03*
X00439150D02*
D03*
X00538000Y00657000D02*
D03*
X00515000D02*
D03*
X00289000Y00424000D02*
D03*
X00279000D02*
D03*
X00806000Y00434000D02*
D03*
X00807000Y00444000D02*
D03*
D65*
X00742000Y00643000D02*
D03*
X00080000Y00524000D02*
D03*
D99*
X00049000Y00387000D02*
D03*
X00048750Y00489000D02*
D03*
D100*
X00044000Y00418000D02*
D03*
Y00458000D02*
D03*
X00116000Y00418000D02*
D03*
Y00458000D02*
D03*
X00178946Y00245058D02*
D03*
X00204657Y00214416D02*
D03*
X00123791Y00198777D02*
D03*
X00149502Y00168135D02*
D03*
X00390932Y00044543D02*
D03*
X00351539Y00051489D02*
D03*
X00403434Y00115449D02*
D03*
X00364042Y00122395D02*
D03*
X00584679Y00147408D02*
D03*
X00619320Y00167408D02*
D03*
X00620680Y00085054D02*
D03*
X00655321Y00105054D02*
D03*
X00818959Y00321354D02*
D03*
X00805278Y00283766D02*
D03*
X00751301Y00345979D02*
D03*
X00737620Y00308392D02*
D03*
X00751301Y00530021D02*
D03*
X00737620Y00567608D02*
D03*
X00818959Y00554646D02*
D03*
X00805278Y00592234D02*
D03*
X00620680Y00790946D02*
D03*
X00655321Y00770946D02*
D03*
X00584679Y00728592D02*
D03*
X00619320Y00708592D02*
D03*
X00403434Y00760551D02*
D03*
X00364042Y00753605D02*
D03*
X00390932Y00831457D02*
D03*
X00351539Y00824511D02*
D03*
X00123791Y00677223D02*
D03*
X00149502Y00707865D02*
D03*
X00178946Y00630942D02*
D03*
X00204657Y00661584D02*
D03*
D101*
X00107503Y00225578D02*
D03*
X00173259Y00147602D02*
D03*
D102*
X00422329Y00044084D02*
D03*
X00321835Y00061550D02*
D03*
D103*
X00591458Y00073667D02*
D03*
X00679667Y00124884D02*
D03*
D104*
X00824863Y00352194D02*
D03*
X00790212Y00256260D02*
D03*
D105*
X00825098Y00523891D02*
D03*
X00789977Y00619654D02*
D03*
D106*
X00591333Y00802116D02*
D03*
X00679792Y00751332D02*
D03*
D107*
X00422285Y00832162D02*
D03*
X00321878Y00814204D02*
D03*
D108*
X00107695Y00650262D02*
D03*
X00173067Y00728559D02*
D03*
M02*
