G04*
G04 #@! TF.GenerationSoftware,Altium Limited,Altium Designer,21.7.2 (23)*
G04*
G04 Layer_Color=8421504*
%FSAX44Y44*%
%MOMM*%
G71*
G04*
G04 #@! TF.SameCoordinates,E92E468F-2344-4334-A9F0-42BD54299544*
G04*
G04*
G04 #@! TF.FilePolarity,Positive*
G04*
G01*
G75*
%ADD12C,0.5000*%
%ADD16R,1.4000X1.2000*%
%ADD17R,2.1000X0.9000*%
%ADD18R,2.1000X3.2000*%
%ADD19O,1.8500X0.4500*%
%ADD20R,0.8500X1.3500*%
%ADD21R,1.3300X1.3300*%
%ADD22R,0.9000X2.0000*%
%ADD23R,2.0000X0.9000*%
%ADD24R,1.3500X0.8500*%
%ADD25R,1.2000X1.1000*%
%ADD26R,0.9000X0.8000*%
%ADD27R,0.8000X0.9000*%
%ADD28R,1.2000X1.4000*%
%ADD29R,1.3500X0.4000*%
%ADD30R,1.9000X1.5000*%
G36*
X00862999Y00402763D02*
X00843999D01*
Y00415763D01*
X00862999D01*
Y00402763D01*
D02*
G37*
G36*
X00857999Y00397763D02*
X00848999Y00397763D01*
Y00402763D01*
X00857999D01*
Y00397763D01*
D02*
G37*
G36*
X00857999Y00474763D02*
X00848999D01*
Y00479763D01*
X00857999Y00479763D01*
Y00474763D01*
D02*
G37*
G36*
X00862999Y00461763D02*
X00843999D01*
Y00474763D01*
X00862999D01*
Y00461763D01*
D02*
G37*
D12*
X00860499Y00402763D02*
G03*
X00860499Y00402763I-00002500J00000000D01*
G01*
X00851499D02*
G03*
X00851499Y00402763I-00002500J00000000D01*
G01*
X00860499Y00474763D02*
G03*
X00860499Y00474763I-00002500J00000000D01*
G01*
X00851499D02*
G03*
X00851499Y00474763I-00002500J00000000D01*
G01*
D16*
X00689000Y00402500D02*
D03*
Y00385500D02*
D03*
X00802000Y00393500D02*
D03*
Y00410500D02*
D03*
X00566000Y00422500D02*
D03*
Y00405500D02*
D03*
X00589000Y00422500D02*
D03*
Y00405500D02*
D03*
X00259000Y00615500D02*
D03*
Y00632500D02*
D03*
D17*
X00767500Y00382000D02*
D03*
Y00405000D02*
D03*
Y00428000D02*
D03*
D18*
X00710500Y00405000D02*
D03*
D19*
X00655750Y00312250D02*
D03*
Y00305750D02*
D03*
Y00299250D02*
D03*
Y00292750D02*
D03*
Y00286250D02*
D03*
Y00279750D02*
D03*
Y00273250D02*
D03*
Y00266750D02*
D03*
Y00260250D02*
D03*
Y00253750D02*
D03*
Y00247250D02*
D03*
Y00240750D02*
D03*
Y00234250D02*
D03*
Y00227750D02*
D03*
X00730250Y00312250D02*
D03*
Y00305750D02*
D03*
Y00299250D02*
D03*
Y00292750D02*
D03*
Y00286250D02*
D03*
Y00279750D02*
D03*
Y00273250D02*
D03*
Y00266750D02*
D03*
Y00260250D02*
D03*
Y00253750D02*
D03*
Y00247250D02*
D03*
Y00240750D02*
D03*
Y00234250D02*
D03*
Y00227750D02*
D03*
D20*
X00625000Y00424000D02*
D03*
X00641500D02*
D03*
X00262750Y00369000D02*
D03*
X00279250D02*
D03*
X00513000Y00302000D02*
D03*
X00496500D02*
D03*
X00342250Y00182000D02*
D03*
X00325750D02*
D03*
X00596500Y00178000D02*
D03*
X00580000D02*
D03*
X00596500Y00159000D02*
D03*
X00580000D02*
D03*
X00596500Y00140000D02*
D03*
X00580000D02*
D03*
X00601750Y00256000D02*
D03*
X00618250D02*
D03*
X00648750Y00353000D02*
D03*
X00665250D02*
D03*
D21*
X00439150Y00528750D02*
D03*
X00457500D02*
D03*
X00475850D02*
D03*
X00439150Y00510400D02*
D03*
X00457500D02*
D03*
X00475850D02*
D03*
X00439150Y00492050D02*
D03*
X00457500D02*
D03*
X00475850D02*
D03*
D22*
X00390350Y00610500D02*
D03*
X00403050D02*
D03*
X00415750D02*
D03*
X00428450D02*
D03*
X00441150D02*
D03*
X00453850D02*
D03*
X00466550D02*
D03*
X00479250D02*
D03*
X00491950D02*
D03*
X00504650D02*
D03*
D23*
X00362500Y00435400D02*
D03*
Y00448100D02*
D03*
Y00460800D02*
D03*
Y00473500D02*
D03*
Y00486200D02*
D03*
Y00498900D02*
D03*
Y00511600D02*
D03*
Y00524300D02*
D03*
Y00537000D02*
D03*
Y00549700D02*
D03*
Y00562400D02*
D03*
Y00575100D02*
D03*
Y00587800D02*
D03*
Y00600500D02*
D03*
X00532500D02*
D03*
Y00587800D02*
D03*
Y00575100D02*
D03*
Y00562400D02*
D03*
Y00549700D02*
D03*
Y00537000D02*
D03*
Y00524300D02*
D03*
Y00511600D02*
D03*
Y00498900D02*
D03*
Y00486200D02*
D03*
Y00473500D02*
D03*
Y00460800D02*
D03*
Y00448100D02*
D03*
Y00435400D02*
D03*
D24*
X00390350Y00629750D02*
D03*
Y00646250D02*
D03*
X00367350Y00629750D02*
D03*
Y00646250D02*
D03*
X00537950D02*
D03*
Y00629750D02*
D03*
X00491950Y00646250D02*
D03*
Y00629750D02*
D03*
X00514950Y00646250D02*
D03*
Y00629750D02*
D03*
X00310000Y00319750D02*
D03*
Y00336250D02*
D03*
X00271000Y00387500D02*
D03*
Y00404000D02*
D03*
X00511000Y00286250D02*
D03*
Y00269750D02*
D03*
X00453000Y00187000D02*
D03*
Y00170500D02*
D03*
D25*
X00390350Y00685500D02*
D03*
Y00664500D02*
D03*
D26*
X00328000Y00337500D02*
D03*
Y00318500D02*
D03*
X00348000Y00328000D02*
D03*
X00536000Y00287500D02*
D03*
Y00268500D02*
D03*
X00556000Y00278000D02*
D03*
D27*
X00279500Y00352000D02*
D03*
X00260500D02*
D03*
X00270000Y00332000D02*
D03*
D28*
X00737500Y00471000D02*
D03*
X00754500D02*
D03*
X00737500Y00450000D02*
D03*
X00754500D02*
D03*
X00657500Y00424000D02*
D03*
X00674500D02*
D03*
X00235500Y00298000D02*
D03*
X00218500D02*
D03*
X00683000Y00201000D02*
D03*
X00700000D02*
D03*
D29*
X00826499Y00425763D02*
D03*
Y00432263D02*
D03*
Y00438763D02*
D03*
Y00445263D02*
D03*
Y00451763D02*
D03*
D30*
X00853499Y00428763D02*
D03*
Y00448763D02*
D03*
M02*
