G04*
G04 #@! TF.GenerationSoftware,Altium Limited,Altium Designer,20.2.6 (244)*
G04*
G04 Layer_Physical_Order=1*
G04 Layer_Color=255*
%FSAX44Y44*%
%MOMM*%
G71*
G04*
G04 #@! TF.SameCoordinates,65735EED-05C8-4403-9655-43ED446DB93E*
G04*
G04*
G04 #@! TF.FilePolarity,Positive*
G04*
G01*
G75*
%ADD11C,0.2540*%
%ADD12C,0.5000*%
%ADD13C,0.2000*%
%ADD14C,0.6000*%
%ADD15R,2.1000X0.9000*%
%ADD16R,2.1000X3.2000*%
%ADD17R,0.8500X1.3500*%
%ADD18R,1.3500X0.8500*%
%ADD19R,1.4000X1.2000*%
%ADD20R,1.2000X1.4000*%
%ADD21O,1.8500X0.4500*%
%ADD22R,1.9000X1.5000*%
%ADD23R,1.3500X0.4000*%
%ADD33C,1.4500*%
%ADD37C,1.5500*%
%ADD41C,1.6500*%
%ADD47C,0.4000*%
%ADD48C,1.3500*%
%ADD49R,1.3500X1.3500*%
%ADD50P,2.0506X4X295.0*%
%ADD51C,2.8000*%
%ADD52R,1.8288X1.8288*%
%ADD53C,1.8288*%
%ADD54R,1.3500X1.3500*%
%ADD55C,1.4000*%
%ADD56R,1.4000X1.4000*%
%ADD57P,2.0506X4X335.0*%
%ADD58C,0.7000*%
G36*
X00460510Y00855495D02*
X00480971Y00853986D01*
X00501333Y00851475D01*
X00521548Y00847967D01*
X00541566Y00843472D01*
X00561339Y00838000D01*
X00580820Y00831564D01*
X00599961Y00824181D01*
X00618718Y00815866D01*
X00637043Y00806642D01*
X00654894Y00796530D01*
X00672228Y00785553D01*
X00689002Y00773740D01*
X00705176Y00761117D01*
X00720711Y00747717D01*
X00735570Y00733570D01*
X00749717Y00718711D01*
X00763118Y00703176D01*
X00774801Y00688204D01*
X00773848Y00687362D01*
X00703605Y00757605D01*
X00701951Y00758710D01*
X00700000Y00759098D01*
X00469400D01*
X00467449Y00758710D01*
X00465795Y00757605D01*
X00422431Y00714241D01*
X00421909Y00714457D01*
X00419000Y00714840D01*
X00416091Y00714457D01*
X00413380Y00713334D01*
X00411052Y00711548D01*
X00409266Y00709220D01*
X00408143Y00706509D01*
X00407760Y00703600D01*
X00408143Y00700691D01*
X00409266Y00697980D01*
X00411052Y00695652D01*
X00411705Y00695151D01*
X00411297Y00693948D01*
X00400903D01*
X00400495Y00695151D01*
X00401148Y00695652D01*
X00402934Y00697980D01*
X00404057Y00700691D01*
X00404440Y00703600D01*
X00404057Y00706509D01*
X00402934Y00709220D01*
X00401148Y00711548D01*
X00398820Y00713334D01*
X00396109Y00714457D01*
X00393200Y00714840D01*
X00390291Y00714457D01*
X00387580Y00713334D01*
X00385252Y00711548D01*
X00383466Y00709220D01*
X00382343Y00706509D01*
X00381960Y00703600D01*
X00382343Y00700691D01*
X00383466Y00697980D01*
X00385252Y00695652D01*
X00385905Y00695151D01*
X00385497Y00693948D01*
X00341645D01*
X00340965Y00694965D01*
X00339146Y00696181D01*
X00337000Y00696608D01*
X00334854Y00696181D01*
X00333035Y00694965D01*
X00331819Y00693146D01*
X00331392Y00691000D01*
X00331819Y00688854D01*
X00333035Y00687035D01*
X00334854Y00685819D01*
X00337000Y00685392D01*
X00339146Y00685819D01*
X00340965Y00687035D01*
X00341129Y00687280D01*
X00384866D01*
X00385146Y00686010D01*
X00383466Y00683820D01*
X00383250Y00683298D01*
X00305081D01*
X00262774Y00725605D01*
X00261120Y00726710D01*
X00259169Y00727098D01*
X00206983D01*
X00206953Y00727169D01*
X00205310Y00729310D01*
X00203169Y00730953D01*
X00202302Y00731313D01*
Y00732687D01*
X00203169Y00733047D01*
X00205310Y00734690D01*
X00206953Y00736831D01*
X00207986Y00739324D01*
X00208338Y00742000D01*
X00207986Y00744676D01*
X00206953Y00747169D01*
X00205310Y00749310D01*
X00203169Y00750953D01*
X00200676Y00751986D01*
X00198000Y00752338D01*
X00195324Y00751986D01*
X00192831Y00750953D01*
X00190690Y00749310D01*
X00189047Y00747169D01*
X00188014Y00744676D01*
X00187662Y00742000D01*
X00188014Y00739324D01*
X00188043Y00739253D01*
X00173395Y00724605D01*
X00172290Y00722951D01*
X00171902Y00721000D01*
Y00621705D01*
X00171811Y00621618D01*
X00170832Y00621843D01*
X00170461Y00622084D01*
X00170178Y00624068D01*
X00169097Y00627141D01*
X00167437Y00629945D01*
X00165263Y00632371D01*
X00162656Y00634326D01*
X00160869Y00635183D01*
X00155662Y00620876D01*
X00169969Y00615669D01*
X00170461Y00617589D01*
X00170578Y00619724D01*
X00170943Y00620715D01*
X00171117Y00620710D01*
X00171902Y00620019D01*
Y00595313D01*
X00168584Y00591995D01*
X00163472Y00593856D01*
X00157144Y00576471D01*
X00174529Y00570144D01*
X00180856Y00587528D01*
X00180266Y00587743D01*
X00179991Y00588983D01*
X00180605Y00589597D01*
X00181710Y00591251D01*
X00182098Y00593202D01*
Y00718888D01*
X00186558Y00723348D01*
X00187761Y00722755D01*
X00187662Y00722000D01*
X00188014Y00719324D01*
X00189047Y00716831D01*
X00190690Y00714690D01*
X00192831Y00713047D01*
X00193698Y00712687D01*
Y00711313D01*
X00192831Y00710953D01*
X00190690Y00709310D01*
X00189047Y00707169D01*
X00188014Y00704676D01*
X00187662Y00702000D01*
X00188014Y00699324D01*
X00189047Y00696831D01*
X00190690Y00694690D01*
X00192831Y00693047D01*
X00193119Y00692927D01*
Y00691657D01*
X00192558Y00691425D01*
X00190305Y00689696D01*
X00188575Y00687442D01*
X00187488Y00684817D01*
X00187284Y00683270D01*
X00208716D01*
X00208512Y00684817D01*
X00207425Y00687442D01*
X00205695Y00689696D01*
X00203442Y00691425D01*
X00202881Y00691657D01*
Y00692927D01*
X00203169Y00693047D01*
X00205310Y00694690D01*
X00206953Y00696831D01*
X00207986Y00699324D01*
X00208338Y00702000D01*
X00207986Y00704676D01*
X00206953Y00707169D01*
X00205310Y00709310D01*
X00203169Y00710953D01*
X00202302Y00711313D01*
Y00712687D01*
X00203169Y00713047D01*
X00205310Y00714690D01*
X00206953Y00716831D01*
X00206983Y00716902D01*
X00257058D01*
X00299365Y00674595D01*
X00301019Y00673490D01*
X00302969Y00673102D01*
X00383250D01*
X00383466Y00672580D01*
X00385146Y00670390D01*
X00384866Y00669120D01*
X00341530D01*
X00340965Y00669965D01*
X00339146Y00671181D01*
X00337000Y00671608D01*
X00334854Y00671181D01*
X00333035Y00669965D01*
X00331819Y00668146D01*
X00331392Y00666000D01*
X00331819Y00663854D01*
X00333035Y00662035D01*
X00334854Y00660819D01*
X00337000Y00660392D01*
X00339146Y00660819D01*
X00340965Y00662035D01*
X00341244Y00662452D01*
X00385497D01*
X00385905Y00661249D01*
X00385252Y00660748D01*
X00383466Y00658420D01*
X00382343Y00655709D01*
X00381960Y00652800D01*
X00382343Y00649891D01*
X00383466Y00647180D01*
X00385252Y00644852D01*
X00385663Y00644537D01*
X00385255Y00643334D01*
X00221381D01*
X00207226Y00657489D01*
X00207986Y00659324D01*
X00208338Y00662000D01*
X00207986Y00664676D01*
X00206953Y00667169D01*
X00205310Y00669310D01*
X00203169Y00670953D01*
X00202881Y00671073D01*
Y00672343D01*
X00203442Y00672575D01*
X00205695Y00674305D01*
X00207425Y00676558D01*
X00208512Y00679183D01*
X00208716Y00680730D01*
X00187284D01*
X00187488Y00679183D01*
X00188575Y00676558D01*
X00190305Y00674305D01*
X00192558Y00672575D01*
X00193119Y00672343D01*
Y00671073D01*
X00192831Y00670953D01*
X00190690Y00669310D01*
X00189047Y00667169D01*
X00188014Y00664676D01*
X00187662Y00662000D01*
X00188014Y00659324D01*
X00189047Y00656831D01*
X00190690Y00654690D01*
X00192831Y00653047D01*
X00195324Y00652014D01*
X00198000Y00651662D01*
X00200676Y00652014D01*
X00202511Y00652774D01*
X00217642Y00637643D01*
X00218724Y00636920D01*
X00220000Y00636666D01*
X00384994D01*
X00385402Y00635463D01*
X00385252Y00635348D01*
X00383466Y00633020D01*
X00382343Y00630309D01*
X00381960Y00627400D01*
X00382343Y00624491D01*
X00383466Y00621780D01*
X00385252Y00619452D01*
X00387580Y00617666D01*
X00390291Y00616543D01*
X00393200Y00616160D01*
X00396109Y00616543D01*
X00398820Y00617666D01*
X00401148Y00619452D01*
X00402934Y00621780D01*
X00404057Y00624491D01*
X00404440Y00627400D01*
X00404057Y00630309D01*
X00402934Y00633020D01*
X00401148Y00635348D01*
X00400998Y00635463D01*
X00401406Y00636666D01*
X00410794D01*
X00411202Y00635463D01*
X00411052Y00635348D01*
X00409266Y00633020D01*
X00408143Y00630309D01*
X00407760Y00627400D01*
X00408143Y00624491D01*
X00409266Y00621780D01*
X00411052Y00619452D01*
X00413380Y00617666D01*
X00416091Y00616543D01*
X00419000Y00616160D01*
X00421909Y00616543D01*
X00424620Y00617666D01*
X00426948Y00619452D01*
X00428734Y00621780D01*
X00429857Y00624491D01*
X00430240Y00627400D01*
X00429857Y00630309D01*
X00428734Y00633020D01*
X00426948Y00635348D01*
X00426798Y00635463D01*
X00427206Y00636666D01*
X00639394D01*
X00639802Y00635463D01*
X00639652Y00635348D01*
X00637866Y00633020D01*
X00636743Y00630309D01*
X00636360Y00627400D01*
X00636743Y00624491D01*
X00637866Y00621780D01*
X00639652Y00619452D01*
X00641980Y00617666D01*
X00644691Y00616543D01*
X00647600Y00616160D01*
X00650509Y00616543D01*
X00653220Y00617666D01*
X00655548Y00619452D01*
X00657334Y00621780D01*
X00658457Y00624491D01*
X00658840Y00627400D01*
X00658457Y00630309D01*
X00657334Y00633020D01*
X00655548Y00635348D01*
X00655398Y00635463D01*
X00655806Y00636666D01*
X00659019D01*
X00663090Y00632595D01*
X00662143Y00630309D01*
X00661760Y00627400D01*
X00662143Y00624491D01*
X00663266Y00621780D01*
X00665052Y00619452D01*
X00667380Y00617666D01*
X00670091Y00616543D01*
X00673000Y00616160D01*
X00675909Y00616543D01*
X00678620Y00617666D01*
X00680948Y00619452D01*
X00682734Y00621780D01*
X00683857Y00624491D01*
X00684240Y00627400D01*
X00683857Y00630309D01*
X00682734Y00633020D01*
X00680948Y00635348D01*
X00678620Y00637134D01*
X00675909Y00638257D01*
X00673000Y00638640D01*
X00670091Y00638257D01*
X00667805Y00637310D01*
X00662757Y00642357D01*
X00661676Y00643080D01*
X00660400Y00643334D01*
X00655545D01*
X00655137Y00644537D01*
X00655548Y00644852D01*
X00657334Y00647180D01*
X00658457Y00649891D01*
X00658840Y00652800D01*
X00658457Y00655709D01*
X00657334Y00658420D01*
X00655548Y00660748D01*
X00653220Y00662534D01*
X00650509Y00663657D01*
X00647600Y00664040D01*
X00644691Y00663657D01*
X00642405Y00662710D01*
X00612144Y00692971D01*
X00611062Y00693694D01*
X00609786Y00693948D01*
X00426703D01*
X00426295Y00695151D01*
X00426948Y00695652D01*
X00428734Y00697980D01*
X00429857Y00700691D01*
X00430240Y00703600D01*
X00429857Y00706509D01*
X00429641Y00707031D01*
X00471512Y00748902D01*
X00697888D01*
X00779902Y00666888D01*
Y00569112D01*
X00755203Y00544412D01*
X00753545Y00545099D01*
X00751000Y00545434D01*
X00748455Y00545099D01*
X00746083Y00544117D01*
X00744046Y00542554D01*
X00742483Y00540517D01*
X00741501Y00538145D01*
X00741166Y00535600D01*
X00741501Y00533055D01*
X00742483Y00530683D01*
X00744046Y00528646D01*
X00746083Y00527083D01*
X00748455Y00526101D01*
X00751000Y00525766D01*
X00753545Y00526101D01*
X00755917Y00527083D01*
X00757954Y00528646D01*
X00759517Y00530683D01*
X00760499Y00533055D01*
X00760834Y00535600D01*
X00760828Y00535648D01*
X00761660Y00536480D01*
X00761749Y00536539D01*
X00788605Y00563395D01*
X00789710Y00565049D01*
X00790098Y00567000D01*
Y00663930D01*
X00791318Y00664283D01*
X00798530Y00652894D01*
X00808642Y00635043D01*
X00817867Y00616717D01*
X00826181Y00597961D01*
X00833564Y00578820D01*
X00840000Y00559339D01*
X00845472Y00539565D01*
X00849967Y00519548D01*
X00853475Y00499333D01*
X00855649Y00481705D01*
X00854454Y00481020D01*
X00853127Y00481570D01*
X00851300Y00481810D01*
X00851139Y00481789D01*
X00842463Y00481789D01*
X00842300Y00481810D01*
X00840473Y00481570D01*
X00838770Y00480864D01*
X00837308Y00479743D01*
X00836186Y00478280D01*
X00835480Y00476577D01*
X00835240Y00474750D01*
X00835261Y00474589D01*
Y00461750D01*
X00835416Y00460970D01*
X00835858Y00460308D01*
X00836229Y00460060D01*
X00835915Y00458790D01*
X00834760D01*
Y00450020D01*
X00846800D01*
Y00447480D01*
X00834760D01*
Y00438710D01*
Y00430020D01*
X00846800D01*
Y00427480D01*
X00834760D01*
Y00418710D01*
X00835915D01*
X00836229Y00417440D01*
X00835858Y00417192D01*
X00835416Y00416530D01*
X00835261Y00415750D01*
Y00402911D01*
X00835240Y00402750D01*
X00835480Y00400923D01*
X00836186Y00399220D01*
X00837308Y00397758D01*
X00838770Y00396636D01*
X00840473Y00395930D01*
X00842300Y00395690D01*
X00842461Y00395711D01*
X00851137Y00395711D01*
X00851300Y00395690D01*
X00853127Y00395930D01*
X00854649Y00396560D01*
X00855261Y00396280D01*
X00855835Y00395806D01*
X00853475Y00376667D01*
X00849967Y00356452D01*
X00845472Y00336435D01*
X00840348Y00317920D01*
X00839078Y00318093D01*
Y00358157D01*
X00839078Y00358157D01*
X00838768Y00359717D01*
X00837884Y00361041D01*
X00837884Y00361041D01*
X00833041Y00365884D01*
X00831718Y00366768D01*
X00830157Y00367078D01*
X00830157Y00367078D01*
X00820000D01*
Y00369500D01*
X00812598D01*
Y00382500D01*
X00812210Y00384451D01*
X00811105Y00386105D01*
X00787098Y00410112D01*
Y00421672D01*
X00812005D01*
X00812166Y00421485D01*
X00812564Y00420402D01*
X00811248Y00418687D01*
X00810262Y00416306D01*
X00810093Y00415020D01*
X00819800D01*
X00829507D01*
X00829338Y00416306D01*
X00828352Y00418687D01*
X00826976Y00420480D01*
X00827366Y00421750D01*
X00828550D01*
Y00428250D01*
Y00434750D01*
Y00447210D01*
X00829090D01*
Y00450480D01*
X00819800D01*
X00810510D01*
Y00447210D01*
X00811050D01*
Y00442828D01*
X00801244D01*
X00801181Y00443146D01*
X00799965Y00444965D01*
X00798146Y00446181D01*
X00796000Y00446608D01*
X00793854Y00446181D01*
X00792035Y00444965D01*
X00790819Y00443146D01*
X00790392Y00441000D01*
X00790577Y00440070D01*
X00790500Y00438858D01*
X00789656Y00438690D01*
X00788354Y00438431D01*
X00788218Y00438340D01*
X00787098Y00438939D01*
Y00461730D01*
X00787181Y00461854D01*
X00787608Y00464000D01*
X00787181Y00466146D01*
X00785965Y00467965D01*
X00784146Y00469181D01*
X00782000Y00469608D01*
X00779854Y00469181D01*
X00778035Y00467965D01*
X00776819Y00466146D01*
X00776392Y00464000D01*
X00776819Y00461854D01*
X00776902Y00461730D01*
Y00441848D01*
X00764750D01*
Y00445750D01*
X00749336Y00445750D01*
X00748290Y00446290D01*
X00747704Y00446290D01*
X00741020D01*
Y00436750D01*
Y00427210D01*
X00748290Y00427210D01*
X00749336Y00427750D01*
X00749560Y00427750D01*
X00764750D01*
Y00431652D01*
X00776902D01*
Y00420098D01*
X00764500D01*
Y00424000D01*
X00749086D01*
X00748040Y00424540D01*
X00748040Y00424540D01*
X00748040Y00424540D01*
X00740770D01*
Y00415000D01*
Y00405460D01*
X00741162D01*
X00741648Y00404287D01*
X00736459Y00399098D01*
X00669112D01*
X00659605Y00408605D01*
X00657951Y00409710D01*
X00656000Y00410098D01*
X00621030D01*
X00619079Y00409710D01*
X00617425Y00408605D01*
X00608395Y00399575D01*
X00608025Y00399021D01*
X00606756Y00398980D01*
X00606419Y00399419D01*
X00604539Y00400861D01*
X00602350Y00401768D01*
X00600000Y00402078D01*
X00597650Y00401768D01*
X00595461Y00400861D01*
X00593581Y00399419D01*
X00592139Y00397539D01*
X00591232Y00395350D01*
X00590922Y00393000D01*
X00591232Y00390650D01*
X00592139Y00388461D01*
X00593581Y00386581D01*
X00595461Y00385139D01*
X00597650Y00384232D01*
X00599264Y00384019D01*
X00599719Y00382678D01*
X00592062Y00375022D01*
X00591604Y00374931D01*
X00589785Y00373715D01*
X00588569Y00371896D01*
X00588142Y00369750D01*
X00588569Y00367604D01*
X00588673Y00367448D01*
X00588074Y00366328D01*
X00584239D01*
X00567741Y00382827D01*
X00568227Y00384000D01*
X00583000D01*
Y00394790D01*
X00650112Y00461902D01*
X00707800D01*
X00709751Y00462290D01*
X00711405Y00463395D01*
X00748681Y00500671D01*
X00751000Y00500366D01*
X00753545Y00500701D01*
X00755917Y00501683D01*
X00757954Y00503246D01*
X00759517Y00505283D01*
X00760499Y00507655D01*
X00760834Y00510200D01*
X00760499Y00512745D01*
X00759517Y00515117D01*
X00757954Y00517154D01*
X00755917Y00518717D01*
X00753545Y00519699D01*
X00751000Y00520034D01*
X00748455Y00519699D01*
X00746083Y00518717D01*
X00744046Y00517154D01*
X00742483Y00515117D01*
X00741501Y00512745D01*
X00741166Y00510200D01*
X00741471Y00507881D01*
X00705688Y00472098D01*
X00652698D01*
Y00490449D01*
X00653220Y00490666D01*
X00655548Y00492452D01*
X00657334Y00494780D01*
X00658457Y00497491D01*
X00658840Y00500400D01*
X00658457Y00503309D01*
X00657334Y00506020D01*
X00655548Y00508348D01*
X00653220Y00510134D01*
X00650509Y00511257D01*
X00647600Y00511640D01*
X00644691Y00511257D01*
X00641980Y00510134D01*
X00639652Y00508348D01*
X00637866Y00506020D01*
X00636743Y00503309D01*
X00636360Y00500400D01*
X00636743Y00497491D01*
X00637866Y00494780D01*
X00639652Y00492452D01*
X00641980Y00490666D01*
X00642502Y00490449D01*
Y00468712D01*
X00575790Y00402000D01*
X00565000D01*
Y00387227D01*
X00563827Y00386741D01*
X00429219Y00521349D01*
X00429857Y00522891D01*
X00430240Y00525800D01*
X00429857Y00528709D01*
X00428734Y00531420D01*
X00426948Y00533748D01*
X00424620Y00535534D01*
X00421909Y00536657D01*
X00419000Y00537040D01*
X00416091Y00536657D01*
X00413380Y00535534D01*
X00411052Y00533748D01*
X00410717Y00533312D01*
X00409515Y00533720D01*
Y00537389D01*
X00413530Y00541404D01*
X00416091Y00540343D01*
X00419000Y00539960D01*
X00421909Y00540343D01*
X00424620Y00541466D01*
X00426948Y00543252D01*
X00428734Y00545580D01*
X00429857Y00548291D01*
X00430240Y00551200D01*
X00429857Y00554109D01*
X00428734Y00556820D01*
X00426948Y00559148D01*
X00424620Y00560934D01*
X00421909Y00562057D01*
X00419000Y00562440D01*
X00416091Y00562057D01*
X00413380Y00560934D01*
X00411052Y00559148D01*
X00409266Y00556820D01*
X00408143Y00554109D01*
X00407760Y00551200D01*
X00408143Y00548291D01*
X00409204Y00545729D01*
X00404293Y00540819D01*
X00403630Y00539827D01*
X00403397Y00538656D01*
X00403397Y00538656D01*
Y00532903D01*
X00402127Y00532472D01*
X00401148Y00533748D01*
X00398820Y00535534D01*
X00396109Y00536657D01*
X00393200Y00537040D01*
X00390291Y00536657D01*
X00387580Y00535534D01*
X00385252Y00533748D01*
X00383466Y00531420D01*
X00383329Y00531089D01*
X00382059Y00531342D01*
Y00545658D01*
X00383329Y00545910D01*
X00383466Y00545580D01*
X00385252Y00543252D01*
X00387580Y00541466D01*
X00390291Y00540343D01*
X00393200Y00539960D01*
X00396109Y00540343D01*
X00398820Y00541466D01*
X00401148Y00543252D01*
X00402934Y00545580D01*
X00404057Y00548291D01*
X00404440Y00551200D01*
X00404057Y00554109D01*
X00402934Y00556820D01*
X00401148Y00559148D01*
X00399872Y00560127D01*
X00400303Y00561397D01*
X00406856D01*
X00406856Y00561397D01*
X00408027Y00561630D01*
X00409019Y00562293D01*
X00413530Y00566804D01*
X00416091Y00565743D01*
X00419000Y00565360D01*
X00421909Y00565743D01*
X00424620Y00566866D01*
X00426948Y00568652D01*
X00428734Y00570980D01*
X00429857Y00573691D01*
X00430240Y00576600D01*
X00429857Y00579509D01*
X00428734Y00582220D01*
X00426948Y00584548D01*
X00424620Y00586334D01*
X00421909Y00587457D01*
X00419000Y00587840D01*
X00416091Y00587457D01*
X00413380Y00586334D01*
X00411052Y00584548D01*
X00409266Y00582220D01*
X00408143Y00579509D01*
X00407760Y00576600D01*
X00408143Y00573691D01*
X00409204Y00571129D01*
X00405589Y00567515D01*
X00401534D01*
X00401509Y00567589D01*
X00401250Y00568785D01*
X00402934Y00570980D01*
X00404057Y00573691D01*
X00404440Y00576600D01*
X00404057Y00579509D01*
X00402934Y00582220D01*
X00401148Y00584548D01*
X00398820Y00586334D01*
X00396109Y00587457D01*
X00393200Y00587840D01*
X00390291Y00587457D01*
X00387580Y00586334D01*
X00385252Y00584548D01*
X00383466Y00582220D01*
X00382343Y00579509D01*
X00381960Y00576600D01*
X00382070Y00575765D01*
X00355395Y00549090D01*
X00354290Y00547436D01*
X00353902Y00545485D01*
Y00458000D01*
X00354290Y00456049D01*
X00355395Y00454395D01*
X00407286Y00402504D01*
Y00385270D01*
X00407203Y00385146D01*
X00406776Y00383000D01*
X00407203Y00380854D01*
X00408419Y00379035D01*
X00410238Y00377819D01*
X00412384Y00377392D01*
X00414530Y00377819D01*
X00416349Y00379035D01*
X00417565Y00380854D01*
X00417992Y00383000D01*
X00417565Y00385146D01*
X00417482Y00385270D01*
Y00404616D01*
X00417094Y00406567D01*
X00415989Y00408221D01*
X00364098Y00460112D01*
Y00543374D01*
X00374768Y00554044D01*
X00375941Y00553558D01*
Y00492070D01*
X00375941Y00492069D01*
X00376174Y00490899D01*
X00376837Y00489907D01*
X00388922Y00477822D01*
X00389914Y00477159D01*
X00391084Y00476926D01*
X00401748D01*
X00408605Y00470069D01*
X00408392Y00469000D01*
X00408819Y00466854D01*
X00410035Y00465035D01*
X00411854Y00463819D01*
X00414000Y00463392D01*
X00416146Y00463819D01*
X00417965Y00465035D01*
X00419181Y00466854D01*
X00419608Y00469000D01*
X00419181Y00471146D01*
X00417965Y00472965D01*
X00416146Y00474181D01*
X00414000Y00474608D01*
X00412931Y00474395D01*
X00405178Y00482148D01*
X00404185Y00482811D01*
X00403015Y00483044D01*
X00403015Y00483044D01*
X00392351D01*
X00387853Y00487543D01*
X00388339Y00488716D01*
X00391930D01*
Y00500400D01*
X00394470D01*
Y00488716D01*
X00404884D01*
Y00490957D01*
X00406057Y00491443D01*
X00420614Y00476886D01*
X00420819Y00475854D01*
X00422035Y00474035D01*
X00423854Y00472819D01*
X00426000Y00472392D01*
X00428146Y00472819D01*
X00429965Y00474035D01*
X00431181Y00475854D01*
X00431608Y00478000D01*
X00431181Y00480146D01*
X00429965Y00481965D01*
X00428146Y00483181D01*
X00426000Y00483608D01*
X00423854Y00483181D01*
X00423325Y00482827D01*
X00418069Y00488083D01*
X00418103Y00488153D01*
X00418766Y00489182D01*
X00421509Y00489543D01*
X00424220Y00490666D01*
X00426548Y00492452D01*
X00428334Y00494780D01*
X00429457Y00497491D01*
X00429840Y00500400D01*
X00429457Y00503309D01*
X00428334Y00506020D01*
X00426548Y00508348D01*
X00424220Y00510134D01*
X00421509Y00511257D01*
X00418600Y00511640D01*
X00415691Y00511257D01*
X00412980Y00510134D01*
X00410785Y00508450D01*
X00409589Y00508709D01*
X00409515Y00508734D01*
Y00517880D01*
X00410717Y00518288D01*
X00411052Y00517852D01*
X00413380Y00516066D01*
X00416091Y00514943D01*
X00419000Y00514560D01*
X00421909Y00514943D01*
X00423451Y00515581D01*
X00550568Y00388465D01*
X00550199Y00387249D01*
X00549854Y00387181D01*
X00548035Y00385965D01*
X00546819Y00384146D01*
X00546392Y00382000D01*
X00546819Y00379854D01*
X00547922Y00378204D01*
Y00370595D01*
X00547500Y00369500D01*
X00546652Y00369500D01*
X00530000D01*
Y00368023D01*
X00522128D01*
X00520954Y00369554D01*
X00518917Y00371117D01*
X00516545Y00372099D01*
X00514000Y00372434D01*
X00511455Y00372099D01*
X00509083Y00371117D01*
X00507046Y00369554D01*
X00505483Y00367517D01*
X00504501Y00365145D01*
X00504166Y00362600D01*
X00504501Y00360055D01*
X00505483Y00357683D01*
X00507046Y00355646D01*
X00509083Y00354083D01*
X00511455Y00353101D01*
X00514000Y00352766D01*
X00516545Y00353101D01*
X00518917Y00354083D01*
X00520954Y00355646D01*
X00522517Y00357683D01*
X00522576Y00357827D01*
X00530000D01*
Y00357000D01*
X00546652D01*
X00547500Y00357000D01*
X00547922Y00355905D01*
Y00353540D01*
X00540020D01*
Y00346750D01*
Y00339960D01*
X00544283D01*
X00544769Y00338787D01*
X00469732Y00263750D01*
X00463000D01*
Y00246250D01*
X00475500D01*
Y00257982D01*
X00554884Y00337366D01*
X00554884Y00337366D01*
X00555768Y00338689D01*
X00556078Y00340250D01*
X00556078Y00340250D01*
Y00378204D01*
X00557181Y00379854D01*
X00557249Y00380199D01*
X00558465Y00380568D01*
X00579666Y00359366D01*
X00579666Y00359366D01*
X00580989Y00358482D01*
X00582550Y00358172D01*
X00582550Y00358172D01*
X00589617D01*
X00599496Y00348292D01*
X00599041Y00346951D01*
X00597650Y00346768D01*
X00595461Y00345861D01*
X00593581Y00344419D01*
X00592139Y00342539D01*
X00591232Y00340350D01*
X00590922Y00338000D01*
X00591232Y00335650D01*
X00592139Y00333461D01*
X00593581Y00331581D01*
X00594902Y00330568D01*
Y00280265D01*
X00595290Y00278314D01*
X00596395Y00276660D01*
X00599910Y00273145D01*
X00601564Y00272040D01*
X00603500Y00271655D01*
Y00264810D01*
X00603500Y00264250D01*
X00602524Y00263540D01*
X00597960D01*
Y00255270D01*
X00606500D01*
Y00254000D01*
X00607770D01*
Y00244460D01*
X00615040Y00244460D01*
X00616086Y00245000D01*
X00616310Y00245000D01*
X00631500D01*
Y00249922D01*
X00642932D01*
X00642932Y00249922D01*
X00644493Y00250232D01*
X00645816Y00251116D01*
X00655372Y00260672D01*
X00660845D01*
X00661646Y00259402D01*
X00661417Y00258250D01*
X00661747Y00256592D01*
X00662686Y00255186D01*
Y00254814D01*
X00661747Y00253408D01*
X00661417Y00251750D01*
X00661747Y00250092D01*
X00662558Y00248878D01*
X00662297Y00248703D01*
X00661238Y00247119D01*
X00661119Y00246520D01*
X00672750D01*
X00684381D01*
X00684262Y00247119D01*
X00683203Y00248703D01*
X00682942Y00248878D01*
X00683753Y00250092D01*
X00684083Y00251750D01*
X00683753Y00253408D01*
X00682814Y00254814D01*
Y00255186D01*
X00683325Y00255950D01*
X00684872Y00256199D01*
X00704286Y00236786D01*
X00704286Y00236786D01*
X00731205Y00209866D01*
X00731205Y00209866D01*
X00732528Y00208982D01*
X00734089Y00208672D01*
X00735346D01*
X00736146Y00207402D01*
X00735917Y00206250D01*
X00736247Y00204592D01*
X00737186Y00203186D01*
Y00202814D01*
X00736247Y00201408D01*
X00735917Y00199750D01*
X00736247Y00198092D01*
X00737186Y00196686D01*
X00738592Y00195747D01*
X00740250Y00195417D01*
X00754250D01*
X00755908Y00195747D01*
X00755939Y00195767D01*
X00767435D01*
X00768854Y00194819D01*
X00771000Y00194392D01*
X00773146Y00194819D01*
X00774965Y00196035D01*
X00776181Y00197854D01*
X00776608Y00200000D01*
X00776181Y00202146D01*
X00774965Y00203965D01*
X00773146Y00205181D01*
X00771283Y00205551D01*
X00771159Y00206695D01*
X00771176Y00206839D01*
X00772965Y00208035D01*
X00774181Y00209854D01*
X00774608Y00212000D01*
X00774181Y00214146D01*
X00772965Y00215965D01*
X00771146Y00217181D01*
X00769000Y00217608D01*
X00766854Y00217181D01*
X00765035Y00215965D01*
X00763819Y00214146D01*
X00763432Y00212200D01*
X00761656Y00210424D01*
X00759218D01*
X00758373Y00211694D01*
X00758583Y00212750D01*
X00758253Y00214408D01*
X00757442Y00215622D01*
X00757703Y00215797D01*
X00758762Y00217381D01*
X00758881Y00217980D01*
X00747250D01*
Y00220520D01*
X00758881D01*
X00758762Y00221119D01*
X00757703Y00222703D01*
X00757442Y00222878D01*
X00758253Y00224092D01*
X00758583Y00225750D01*
X00758335Y00226997D01*
X00759091Y00228267D01*
X00791346D01*
X00791346Y00228267D01*
X00792906Y00228578D01*
X00794230Y00229462D01*
X00808773Y00244005D01*
X00809802Y00243261D01*
X00808642Y00240957D01*
X00798530Y00223106D01*
X00787553Y00205772D01*
X00775740Y00188998D01*
X00763118Y00172824D01*
X00749717Y00157289D01*
X00735570Y00142430D01*
X00720711Y00128283D01*
X00705176Y00114882D01*
X00689002Y00102260D01*
X00672228Y00090447D01*
X00654894Y00079470D01*
X00637043Y00069358D01*
X00618718Y00060134D01*
X00599961Y00051819D01*
X00580820Y00044436D01*
X00561339Y00038000D01*
X00541566Y00032528D01*
X00521548Y00028033D01*
X00501333Y00024525D01*
X00480971Y00022014D01*
X00460510Y00020505D01*
X00440000Y00020001D01*
X00419490Y00020505D01*
X00399029Y00022014D01*
X00378667Y00024525D01*
X00358452Y00028033D01*
X00338435Y00032528D01*
X00318661Y00038000D01*
X00299180Y00044436D01*
X00280039Y00051819D01*
X00261283Y00060134D01*
X00242957Y00069358D01*
X00225106Y00079470D01*
X00207772Y00090447D01*
X00190998Y00102260D01*
X00174824Y00114882D01*
X00159289Y00128283D01*
X00144430Y00142430D01*
X00130283Y00157289D01*
X00116882Y00172824D01*
X00104260Y00188998D01*
X00092447Y00205772D01*
X00081470Y00223106D01*
X00071358Y00240957D01*
X00062133Y00259282D01*
X00053819Y00278039D01*
X00046436Y00297180D01*
X00040000Y00316661D01*
X00034528Y00336435D01*
X00030033Y00356452D01*
X00026525Y00376667D01*
X00024014Y00397029D01*
X00022505Y00417490D01*
X00022001Y00438000D01*
X00022505Y00458510D01*
X00024014Y00478971D01*
X00026525Y00499333D01*
X00030033Y00519548D01*
X00034528Y00539565D01*
X00040000Y00559339D01*
X00046436Y00578820D01*
X00053819Y00597961D01*
X00062133Y00616717D01*
X00071358Y00635043D01*
X00081470Y00652894D01*
X00092447Y00670228D01*
X00104260Y00687002D01*
X00116882Y00703176D01*
X00130283Y00718711D01*
X00144430Y00733570D01*
X00159289Y00747717D01*
X00174824Y00761117D01*
X00190998Y00773740D01*
X00207772Y00785553D01*
X00225106Y00796530D01*
X00242957Y00806642D01*
X00261283Y00815866D01*
X00280039Y00824181D01*
X00299180Y00831564D01*
X00318661Y00838000D01*
X00338435Y00843472D01*
X00358452Y00847967D01*
X00378667Y00851475D01*
X00399029Y00853986D01*
X00419490Y00855495D01*
X00440000Y00855999D01*
X00460510Y00855495D01*
D02*
G37*
G36*
X00851300Y00474750D02*
X00842300D01*
Y00479750D01*
X00851300Y00479750D01*
Y00474750D01*
D02*
G37*
G36*
X00856300Y00461750D02*
X00837300D01*
Y00474750D01*
X00856300D01*
Y00461750D01*
D02*
G37*
G36*
Y00402750D02*
X00837300D01*
Y00415750D01*
X00856300D01*
Y00402750D01*
D02*
G37*
G36*
X00851300Y00397750D02*
X00842300Y00397750D01*
Y00402750D01*
X00851300D01*
Y00397750D01*
D02*
G37*
G36*
X00776902Y00408000D02*
X00777290Y00406049D01*
X00778395Y00404395D01*
X00802402Y00380388D01*
Y00369500D01*
X00795000D01*
Y00356500D01*
X00820000D01*
Y00358922D01*
X00828467D01*
X00830922Y00356468D01*
Y00308308D01*
X00827913Y00299202D01*
X00820636Y00280336D01*
X00812441Y00261849D01*
X00809765Y00256533D01*
X00789656Y00236424D01*
X00778078D01*
Y00240000D01*
X00783000D01*
X00783000Y00255414D01*
X00783540Y00256460D01*
X00783540Y00257046D01*
Y00263730D01*
X00764460D01*
X00764460Y00256460D01*
X00765000Y00255414D01*
X00765000Y00255190D01*
Y00240000D01*
X00769922D01*
Y00236424D01*
X00759868D01*
X00759083Y00237480D01*
X00747250D01*
Y00240020D01*
X00758881D01*
X00758762Y00240619D01*
X00757703Y00242203D01*
X00757442Y00242378D01*
X00758253Y00243592D01*
X00758583Y00245250D01*
X00758253Y00246908D01*
X00757314Y00248314D01*
Y00248686D01*
X00758253Y00250092D01*
X00758583Y00251750D01*
X00758253Y00253408D01*
X00757314Y00254814D01*
Y00255186D01*
X00758253Y00256592D01*
X00758583Y00258250D01*
X00758253Y00259908D01*
X00757442Y00261122D01*
X00757703Y00261297D01*
X00758762Y00262881D01*
X00758881Y00263480D01*
X00747250D01*
X00735619D01*
X00735738Y00262881D01*
X00736797Y00261297D01*
X00737058Y00261122D01*
X00736247Y00259908D01*
X00735917Y00258250D01*
X00736247Y00256592D01*
X00737186Y00255186D01*
Y00254814D01*
X00736247Y00253408D01*
X00735917Y00251750D01*
X00736247Y00250092D01*
X00737186Y00248686D01*
Y00248314D01*
X00736247Y00246908D01*
X00735917Y00245250D01*
X00736223Y00243711D01*
X00736227Y00243535D01*
X00735733Y00242074D01*
X00734932Y00241538D01*
X00731116Y00237723D01*
X00730232Y00236400D01*
X00729922Y00234839D01*
X00729922Y00234839D01*
Y00224481D01*
X00728652Y00223955D01*
X00710053Y00242553D01*
X00710053Y00242553D01*
X00710053Y00242553D01*
X00686156Y00266451D01*
X00686145Y00266478D01*
X00686386Y00268016D01*
X00687054Y00268462D01*
X00694884Y00276292D01*
X00695768Y00277615D01*
X00696078Y00279176D01*
X00696078Y00279176D01*
Y00327000D01*
X00695768Y00328561D01*
X00694884Y00329884D01*
X00694884Y00329884D01*
X00634578Y00390190D01*
X00634768Y00390650D01*
X00635078Y00393000D01*
X00634768Y00395350D01*
X00633862Y00397539D01*
X00633023Y00398632D01*
X00633649Y00399902D01*
X00653888D01*
X00663395Y00390395D01*
X00665049Y00389290D01*
X00667000Y00388902D01*
X00738571D01*
X00740522Y00389290D01*
X00742176Y00390395D01*
X00754105Y00402324D01*
X00755210Y00403978D01*
X00755588Y00405878D01*
X00755710Y00406000D01*
X00764500D01*
Y00409902D01*
X00776902D01*
Y00408000D01*
D02*
G37*
%LPC*%
G36*
X00673000Y00740240D02*
X00670091Y00739857D01*
X00667380Y00738734D01*
X00665052Y00736948D01*
X00663266Y00734620D01*
X00662143Y00731909D01*
X00661760Y00729000D01*
X00662143Y00726091D01*
X00663266Y00723380D01*
X00665052Y00721052D01*
X00667380Y00719266D01*
X00670091Y00718143D01*
X00673000Y00717760D01*
X00675909Y00718143D01*
X00678620Y00719266D01*
X00680948Y00721052D01*
X00682734Y00723380D01*
X00683857Y00726091D01*
X00684240Y00729000D01*
X00683857Y00731909D01*
X00682734Y00734620D01*
X00680948Y00736948D01*
X00678620Y00738734D01*
X00675909Y00739857D01*
X00673000Y00740240D01*
D02*
G37*
G36*
X00647600D02*
X00644691Y00739857D01*
X00641980Y00738734D01*
X00639652Y00736948D01*
X00637866Y00734620D01*
X00636743Y00731909D01*
X00636360Y00729000D01*
X00636743Y00726091D01*
X00637866Y00723380D01*
X00639652Y00721052D01*
X00641980Y00719266D01*
X00644691Y00718143D01*
X00647600Y00717760D01*
X00650509Y00718143D01*
X00653220Y00719266D01*
X00655548Y00721052D01*
X00657334Y00723380D01*
X00658457Y00726091D01*
X00658840Y00729000D01*
X00658457Y00731909D01*
X00657334Y00734620D01*
X00655548Y00736948D01*
X00653220Y00738734D01*
X00650509Y00739857D01*
X00647600Y00740240D01*
D02*
G37*
G36*
X00419000D02*
X00416091Y00739857D01*
X00413380Y00738734D01*
X00411052Y00736948D01*
X00409266Y00734620D01*
X00408143Y00731909D01*
X00407760Y00729000D01*
X00408143Y00726091D01*
X00409266Y00723380D01*
X00411052Y00721052D01*
X00413380Y00719266D01*
X00416091Y00718143D01*
X00419000Y00717760D01*
X00421909Y00718143D01*
X00424620Y00719266D01*
X00426948Y00721052D01*
X00428734Y00723380D01*
X00429857Y00726091D01*
X00430240Y00729000D01*
X00429857Y00731909D01*
X00428734Y00734620D01*
X00426948Y00736948D01*
X00424620Y00738734D01*
X00421909Y00739857D01*
X00419000Y00740240D01*
D02*
G37*
G36*
X00393200D02*
X00390291Y00739857D01*
X00387580Y00738734D01*
X00385252Y00736948D01*
X00383466Y00734620D01*
X00382343Y00731909D01*
X00381960Y00729000D01*
X00382343Y00726091D01*
X00383466Y00723380D01*
X00385252Y00721052D01*
X00387580Y00719266D01*
X00390291Y00718143D01*
X00393200Y00717760D01*
X00396109Y00718143D01*
X00398820Y00719266D01*
X00401148Y00721052D01*
X00402934Y00723380D01*
X00404057Y00726091D01*
X00404440Y00729000D01*
X00404057Y00731909D01*
X00402934Y00734620D01*
X00401148Y00736948D01*
X00398820Y00738734D01*
X00396109Y00739857D01*
X00393200Y00740240D01*
D02*
G37*
G36*
X00673000Y00714840D02*
X00670091Y00714457D01*
X00667380Y00713334D01*
X00665052Y00711548D01*
X00663266Y00709220D01*
X00662143Y00706509D01*
X00661760Y00703600D01*
X00662143Y00700691D01*
X00663266Y00697980D01*
X00665052Y00695652D01*
X00667380Y00693866D01*
X00670091Y00692743D01*
X00673000Y00692360D01*
X00675909Y00692743D01*
X00678620Y00693866D01*
X00680948Y00695652D01*
X00682734Y00697980D01*
X00683857Y00700691D01*
X00684240Y00703600D01*
X00683857Y00706509D01*
X00682734Y00709220D01*
X00680948Y00711548D01*
X00678620Y00713334D01*
X00675909Y00714457D01*
X00673000Y00714840D01*
D02*
G37*
G36*
X00647600D02*
X00644691Y00714457D01*
X00641980Y00713334D01*
X00639652Y00711548D01*
X00637866Y00709220D01*
X00636743Y00706509D01*
X00636360Y00703600D01*
X00636743Y00700691D01*
X00637866Y00697980D01*
X00639652Y00695652D01*
X00641980Y00693866D01*
X00644691Y00692743D01*
X00647600Y00692360D01*
X00650509Y00692743D01*
X00653220Y00693866D01*
X00655548Y00695652D01*
X00657334Y00697980D01*
X00658457Y00700691D01*
X00658840Y00703600D01*
X00658457Y00706509D01*
X00657334Y00709220D01*
X00655548Y00711548D01*
X00653220Y00713334D01*
X00650509Y00714457D01*
X00647600Y00714840D01*
D02*
G37*
G36*
X00673000Y00689440D02*
X00670091Y00689057D01*
X00667380Y00687934D01*
X00665052Y00686148D01*
X00663266Y00683820D01*
X00662143Y00681109D01*
X00661760Y00678200D01*
X00662143Y00675291D01*
X00663266Y00672580D01*
X00665052Y00670252D01*
X00665292Y00670068D01*
X00664995Y00668695D01*
X00664673Y00668620D01*
X00658324Y00674969D01*
X00658457Y00675291D01*
X00658840Y00678200D01*
X00658457Y00681109D01*
X00657334Y00683820D01*
X00655548Y00686148D01*
X00653220Y00687934D01*
X00650509Y00689057D01*
X00647600Y00689440D01*
X00644691Y00689057D01*
X00641980Y00687934D01*
X00639652Y00686148D01*
X00637866Y00683820D01*
X00636743Y00681109D01*
X00636360Y00678200D01*
X00636743Y00675291D01*
X00637866Y00672580D01*
X00639652Y00670252D01*
X00641980Y00668466D01*
X00644691Y00667343D01*
X00647600Y00666960D01*
X00650509Y00667343D01*
X00653220Y00668466D01*
X00654893Y00669749D01*
X00661805Y00662837D01*
X00661805Y00662837D01*
X00662797Y00662174D01*
X00663968Y00661941D01*
X00664908Y00661159D01*
X00664993Y00660671D01*
X00663266Y00658420D01*
X00662143Y00655709D01*
X00661760Y00652800D01*
X00662143Y00649891D01*
X00663266Y00647180D01*
X00665052Y00644852D01*
X00667380Y00643066D01*
X00670091Y00641943D01*
X00673000Y00641560D01*
X00675909Y00641943D01*
X00677451Y00642581D01*
X00736516Y00583516D01*
X00737839Y00582632D01*
X00739400Y00582322D01*
X00739400Y00582322D01*
X00742136D01*
X00742483Y00581483D01*
X00744046Y00579446D01*
X00746083Y00577883D01*
X00748455Y00576901D01*
X00751000Y00576566D01*
X00753545Y00576901D01*
X00755917Y00577883D01*
X00757954Y00579446D01*
X00759517Y00581483D01*
X00760499Y00583855D01*
X00760834Y00586400D01*
X00760499Y00588945D01*
X00759517Y00591317D01*
X00757954Y00593354D01*
X00755917Y00594917D01*
X00753545Y00595899D01*
X00751000Y00596234D01*
X00748455Y00595899D01*
X00746083Y00594917D01*
X00744046Y00593354D01*
X00742483Y00591317D01*
X00742248Y00590748D01*
X00740963Y00590605D01*
X00683219Y00648349D01*
X00683857Y00649891D01*
X00684240Y00652800D01*
X00683857Y00655709D01*
X00682734Y00658420D01*
X00681007Y00660671D01*
X00681096Y00661185D01*
X00681353Y00661941D01*
X00741253D01*
X00741501Y00660055D01*
X00742483Y00657683D01*
X00744046Y00655646D01*
X00746083Y00654083D01*
X00748455Y00653101D01*
X00751000Y00652766D01*
X00753545Y00653101D01*
X00755917Y00654083D01*
X00757954Y00655646D01*
X00759517Y00657683D01*
X00760499Y00660055D01*
X00760834Y00662600D01*
X00760499Y00665145D01*
X00759517Y00667517D01*
X00757954Y00669554D01*
X00755917Y00671117D01*
X00753545Y00672099D01*
X00751000Y00672434D01*
X00748455Y00672099D01*
X00746083Y00671117D01*
X00744046Y00669554D01*
X00742899Y00668059D01*
X00680176D01*
X00679745Y00669329D01*
X00680948Y00670252D01*
X00682734Y00672580D01*
X00683857Y00675291D01*
X00684240Y00678200D01*
X00683857Y00681109D01*
X00682734Y00683820D01*
X00680948Y00686148D01*
X00678620Y00687934D01*
X00675909Y00689057D01*
X00673000Y00689440D01*
D02*
G37*
G36*
X00751000Y00647034D02*
X00748455Y00646699D01*
X00746083Y00645717D01*
X00744046Y00644154D01*
X00742483Y00642117D01*
X00741501Y00639745D01*
X00741166Y00637200D01*
X00741501Y00634655D01*
X00742483Y00632283D01*
X00744046Y00630246D01*
X00746083Y00628683D01*
X00748455Y00627701D01*
X00751000Y00627366D01*
X00753545Y00627701D01*
X00755917Y00628683D01*
X00757954Y00630246D01*
X00759517Y00632283D01*
X00760499Y00634655D01*
X00760834Y00637200D01*
X00760499Y00639745D01*
X00759517Y00642117D01*
X00757954Y00644154D01*
X00755917Y00645717D01*
X00753545Y00646699D01*
X00751000Y00647034D01*
D02*
G37*
G36*
X00153309Y00636721D02*
X00150084Y00636261D01*
X00147010Y00635180D01*
X00144207Y00633520D01*
X00141781Y00631346D01*
X00139826Y00628739D01*
X00138968Y00626952D01*
X00153275Y00621745D01*
X00158483Y00636052D01*
X00156563Y00636544D01*
X00153309Y00636721D01*
D02*
G37*
G36*
X00138100Y00624566D02*
X00137608Y00622646D01*
X00137430Y00619392D01*
X00137891Y00616167D01*
X00138972Y00613093D01*
X00140631Y00610290D01*
X00142806Y00607864D01*
X00145412Y00605909D01*
X00147199Y00605051D01*
X00152407Y00619358D01*
X00138100Y00624566D01*
D02*
G37*
G36*
X00154793Y00618489D02*
X00149586Y00604183D01*
X00151506Y00603691D01*
X00154759Y00603513D01*
X00157985Y00603974D01*
X00161058Y00605054D01*
X00163862Y00606714D01*
X00166288Y00608889D01*
X00168243Y00611495D01*
X00169100Y00613282D01*
X00154793Y00618489D01*
D02*
G37*
G36*
X00751000Y00621634D02*
X00748455Y00621299D01*
X00746083Y00620317D01*
X00744046Y00618754D01*
X00742483Y00616717D01*
X00741501Y00614345D01*
X00741166Y00611800D01*
X00741501Y00609255D01*
X00742483Y00606883D01*
X00744046Y00604846D01*
X00746083Y00603283D01*
X00748455Y00602301D01*
X00751000Y00601966D01*
X00753545Y00602301D01*
X00755917Y00603283D01*
X00757954Y00604846D01*
X00759517Y00606883D01*
X00760499Y00609255D01*
X00760834Y00611800D01*
X00760499Y00614345D01*
X00759517Y00616717D01*
X00757954Y00618754D01*
X00755917Y00620317D01*
X00753545Y00621299D01*
X00751000Y00621634D01*
D02*
G37*
G36*
X00673000Y00613240D02*
X00670091Y00612857D01*
X00667380Y00611734D01*
X00665052Y00609948D01*
X00663266Y00607620D01*
X00662143Y00604909D01*
X00661760Y00602000D01*
X00662143Y00599091D01*
X00663266Y00596380D01*
X00665052Y00594052D01*
X00667380Y00592266D01*
X00670091Y00591143D01*
X00673000Y00590760D01*
X00675909Y00591143D01*
X00678620Y00592266D01*
X00680948Y00594052D01*
X00682734Y00596380D01*
X00683857Y00599091D01*
X00684240Y00602000D01*
X00683857Y00604909D01*
X00682734Y00607620D01*
X00680948Y00609948D01*
X00678620Y00611734D01*
X00675909Y00612857D01*
X00673000Y00613240D01*
D02*
G37*
G36*
X00647600D02*
X00644691Y00612857D01*
X00641980Y00611734D01*
X00639652Y00609948D01*
X00637866Y00607620D01*
X00636743Y00604909D01*
X00636360Y00602000D01*
X00636743Y00599091D01*
X00637866Y00596380D01*
X00639652Y00594052D01*
X00641980Y00592266D01*
X00644691Y00591143D01*
X00647600Y00590760D01*
X00650509Y00591143D01*
X00653220Y00592266D01*
X00655548Y00594052D01*
X00657334Y00596380D01*
X00658457Y00599091D01*
X00658840Y00602000D01*
X00658457Y00604909D01*
X00657334Y00607620D01*
X00655548Y00609948D01*
X00653220Y00611734D01*
X00650509Y00612857D01*
X00647600Y00613240D01*
D02*
G37*
G36*
X00419000D02*
X00416091Y00612857D01*
X00413380Y00611734D01*
X00411052Y00609948D01*
X00409266Y00607620D01*
X00408143Y00604909D01*
X00407760Y00602000D01*
X00408143Y00599091D01*
X00409266Y00596380D01*
X00411052Y00594052D01*
X00413380Y00592266D01*
X00416091Y00591143D01*
X00419000Y00590760D01*
X00421909Y00591143D01*
X00424620Y00592266D01*
X00426948Y00594052D01*
X00428734Y00596380D01*
X00429857Y00599091D01*
X00430240Y00602000D01*
X00429857Y00604909D01*
X00428734Y00607620D01*
X00426948Y00609948D01*
X00424620Y00611734D01*
X00421909Y00612857D01*
X00419000Y00613240D01*
D02*
G37*
G36*
X00393200D02*
X00390291Y00612857D01*
X00387580Y00611734D01*
X00385252Y00609948D01*
X00383466Y00607620D01*
X00382343Y00604909D01*
X00381960Y00602000D01*
X00382343Y00599091D01*
X00383466Y00596380D01*
X00385252Y00594052D01*
X00387580Y00592266D01*
X00390291Y00591143D01*
X00393200Y00590760D01*
X00396109Y00591143D01*
X00398820Y00592266D01*
X00401148Y00594052D01*
X00402934Y00596380D01*
X00404057Y00599091D01*
X00404440Y00602000D01*
X00404057Y00604909D01*
X00402934Y00607620D01*
X00401148Y00609948D01*
X00398820Y00611734D01*
X00396109Y00612857D01*
X00393200Y00613240D01*
D02*
G37*
G36*
X00673000Y00587840D02*
X00670091Y00587457D01*
X00667380Y00586334D01*
X00665052Y00584548D01*
X00663266Y00582220D01*
X00662143Y00579509D01*
X00661760Y00576600D01*
X00662143Y00573691D01*
X00663266Y00570980D01*
X00665052Y00568652D01*
X00667380Y00566866D01*
X00670091Y00565743D01*
X00673000Y00565360D01*
X00675909Y00565743D01*
X00678620Y00566866D01*
X00680948Y00568652D01*
X00682734Y00570980D01*
X00683857Y00573691D01*
X00684240Y00576600D01*
X00683857Y00579509D01*
X00682734Y00582220D01*
X00680948Y00584548D01*
X00678620Y00586334D01*
X00675909Y00587457D01*
X00673000Y00587840D01*
D02*
G37*
G36*
X00647600D02*
X00644691Y00587457D01*
X00641980Y00586334D01*
X00639652Y00584548D01*
X00637866Y00582220D01*
X00636743Y00579509D01*
X00636360Y00576600D01*
X00636743Y00573691D01*
X00637866Y00570980D01*
X00639652Y00568652D01*
X00641980Y00566866D01*
X00644691Y00565743D01*
X00647600Y00565360D01*
X00650509Y00565743D01*
X00653220Y00566866D01*
X00655548Y00568652D01*
X00657334Y00570980D01*
X00658457Y00573691D01*
X00658840Y00576600D01*
X00658457Y00579509D01*
X00657334Y00582220D01*
X00655548Y00584548D01*
X00653220Y00586334D01*
X00650509Y00587457D01*
X00647600Y00587840D01*
D02*
G37*
G36*
X00293750Y00564250D02*
X00276250D01*
Y00560598D01*
X00234000D01*
Y00563500D01*
X00216000D01*
X00216000Y00548086D01*
X00215460Y00547040D01*
X00215460Y00546454D01*
Y00539770D01*
X00225000D01*
X00234540D01*
X00234540Y00547040D01*
X00234000Y00548086D01*
X00234000Y00549504D01*
X00234898Y00550402D01*
X00276250D01*
Y00546750D01*
X00286540D01*
X00309902Y00523388D01*
Y00464250D01*
X00306250D01*
Y00453960D01*
X00281395Y00429105D01*
X00280290Y00427451D01*
X00279902Y00425500D01*
Y00364250D01*
X00276250D01*
Y00360598D01*
X00156193D01*
X00156130Y00360661D01*
X00150308Y00376658D01*
X00132924Y00370330D01*
X00139251Y00352946D01*
X00146711Y00355661D01*
X00150477Y00351895D01*
X00150974Y00351563D01*
X00150719Y00350205D01*
X00150139Y00350077D01*
X00147978Y00348952D01*
X00146183Y00347307D01*
X00144874Y00345253D01*
X00144142Y00342930D01*
X00144036Y00340496D01*
X00144563Y00338119D01*
X00145687Y00335958D01*
X00147333Y00334163D01*
X00149387Y00332854D01*
X00151710Y00332122D01*
X00154143Y00332015D01*
X00156521Y00332542D01*
X00158681Y00333667D01*
X00160477Y00335312D01*
X00161786Y00337367D01*
X00162518Y00339689D01*
X00162624Y00342123D01*
X00162097Y00344501D01*
X00160972Y00346661D01*
X00159327Y00348457D01*
X00158267Y00349132D01*
X00158637Y00350402D01*
X00219902D01*
Y00343500D01*
X00216000D01*
X00216000Y00328086D01*
X00215460Y00327040D01*
X00215460Y00326454D01*
Y00319770D01*
X00225000D01*
X00234540D01*
X00234540Y00327040D01*
X00234000Y00328086D01*
X00234000Y00328310D01*
Y00343500D01*
X00230098D01*
Y00350402D01*
X00276250D01*
Y00346750D01*
X00286540D01*
X00323152Y00310138D01*
Y00244794D01*
X00322483Y00244517D01*
X00320446Y00242954D01*
X00318883Y00240917D01*
X00317901Y00238545D01*
X00317566Y00236000D01*
X00317901Y00233455D01*
X00318883Y00231083D01*
X00320446Y00229046D01*
X00322302Y00227622D01*
Y00094512D01*
X00315319Y00087529D01*
X00313000Y00087834D01*
X00310455Y00087499D01*
X00308083Y00086517D01*
X00306046Y00084954D01*
X00304483Y00082917D01*
X00303501Y00080545D01*
X00303166Y00078000D01*
X00303501Y00075455D01*
X00304483Y00073083D01*
X00306046Y00071046D01*
X00308083Y00069483D01*
X00310455Y00068501D01*
X00313000Y00068166D01*
X00315545Y00068501D01*
X00317917Y00069483D01*
X00319954Y00071046D01*
X00321517Y00073083D01*
X00322499Y00075455D01*
X00322834Y00078000D01*
X00322529Y00080319D01*
X00331005Y00088795D01*
X00332110Y00090449D01*
X00332207Y00090937D01*
X00333477Y00090812D01*
Y00086512D01*
X00331446Y00084954D01*
X00329883Y00082917D01*
X00328901Y00080545D01*
X00328566Y00078000D01*
X00328901Y00075455D01*
X00329883Y00073083D01*
X00331446Y00071046D01*
X00333483Y00069483D01*
X00335855Y00068501D01*
X00338400Y00068166D01*
X00340945Y00068501D01*
X00343317Y00069483D01*
X00345354Y00071046D01*
X00346917Y00073083D01*
X00347899Y00075455D01*
X00348234Y00078000D01*
X00347899Y00080545D01*
X00346917Y00082917D01*
X00345354Y00084954D01*
X00343673Y00086243D01*
Y00103250D01*
X00345000D01*
Y00120750D01*
X00332500Y00120750D01*
X00332498Y00122019D01*
Y00227622D01*
X00334354Y00229046D01*
X00335917Y00231083D01*
X00336899Y00233455D01*
X00337234Y00236000D01*
X00336899Y00238545D01*
X00335917Y00240917D01*
X00334354Y00242954D01*
X00333348Y00243726D01*
Y00298283D01*
X00334521Y00298769D01*
X00381895Y00251395D01*
X00383549Y00250290D01*
X00385500Y00249902D01*
X00403500D01*
Y00246250D01*
X00416000D01*
Y00263750D01*
X00403500D01*
Y00260098D01*
X00387612D01*
X00331855Y00315855D01*
X00298481Y00349229D01*
X00298967Y00350402D01*
X00353700D01*
X00355651Y00350790D01*
X00357305Y00351895D01*
X00383681Y00378271D01*
X00386000Y00377966D01*
X00388319Y00378271D01*
X00406195Y00360395D01*
X00407849Y00359290D01*
X00409800Y00358902D01*
X00423750D01*
Y00355250D01*
X00441250D01*
Y00365540D01*
X00458612Y00382902D01*
X00505622D01*
X00507046Y00381046D01*
X00509083Y00379483D01*
X00511455Y00378501D01*
X00514000Y00378166D01*
X00516545Y00378501D01*
X00518917Y00379483D01*
X00520954Y00381046D01*
X00522517Y00383083D01*
X00523499Y00385455D01*
X00523834Y00388000D01*
X00523499Y00390545D01*
X00522517Y00392917D01*
X00520954Y00394954D01*
X00518917Y00396517D01*
X00516545Y00397499D01*
X00514000Y00397834D01*
X00511455Y00397499D01*
X00509083Y00396517D01*
X00507046Y00394954D01*
X00505622Y00393098D01*
X00456500D01*
X00454549Y00392710D01*
X00452895Y00391605D01*
X00434040Y00372750D01*
X00423750D01*
Y00369098D01*
X00411912D01*
X00395529Y00385481D01*
X00395834Y00387800D01*
X00395499Y00390345D01*
X00394517Y00392717D01*
X00392954Y00394754D01*
X00390917Y00396317D01*
X00388545Y00397299D01*
X00386000Y00397634D01*
X00383455Y00397299D01*
X00381083Y00396317D01*
X00379046Y00394754D01*
X00377483Y00392717D01*
X00376501Y00390345D01*
X00376166Y00387800D01*
X00376471Y00385481D01*
X00351588Y00360598D01*
X00293750D01*
Y00364250D01*
X00290098D01*
Y00423388D01*
X00313460Y00446750D01*
X00323750D01*
Y00464250D01*
X00320098D01*
Y00525500D01*
X00319710Y00527451D01*
X00318605Y00529105D01*
X00293750Y00553960D01*
Y00564250D01*
D02*
G37*
G36*
X00751000Y00570834D02*
X00748455Y00570499D01*
X00746083Y00569517D01*
X00744046Y00567954D01*
X00742483Y00565917D01*
X00741501Y00563545D01*
X00741166Y00561000D01*
X00741501Y00558455D01*
X00742483Y00556083D01*
X00744046Y00554046D01*
X00746083Y00552483D01*
X00748455Y00551501D01*
X00751000Y00551166D01*
X00753545Y00551501D01*
X00755917Y00552483D01*
X00757954Y00554046D01*
X00759517Y00556083D01*
X00760499Y00558455D01*
X00760834Y00561000D01*
X00760499Y00563545D01*
X00759517Y00565917D01*
X00757954Y00567954D01*
X00755917Y00569517D01*
X00753545Y00570499D01*
X00751000Y00570834D01*
D02*
G37*
G36*
X00161263Y00567802D02*
X00158829Y00567696D01*
X00156507Y00566963D01*
X00154452Y00565655D01*
X00152807Y00563859D01*
X00151682Y00561699D01*
X00151155Y00559321D01*
X00151261Y00556888D01*
X00151994Y00554565D01*
X00153302Y00552511D01*
X00155098Y00550865D01*
X00157259Y00549740D01*
X00159636Y00549213D01*
X00162070Y00549320D01*
X00164392Y00550052D01*
X00166447Y00551361D01*
X00168092Y00553156D01*
X00169217Y00555317D01*
X00169744Y00557695D01*
X00169638Y00560128D01*
X00168905Y00562451D01*
X00167596Y00564505D01*
X00165801Y00566150D01*
X00163640Y00567275D01*
X00161263Y00567802D01*
D02*
G37*
G36*
X00673000Y00562440D02*
X00670091Y00562057D01*
X00667380Y00560934D01*
X00665052Y00559148D01*
X00663266Y00556820D01*
X00662143Y00554109D01*
X00661760Y00551200D01*
X00662143Y00548291D01*
X00663266Y00545580D01*
X00665052Y00543252D01*
X00667380Y00541466D01*
X00670091Y00540343D01*
X00673000Y00539960D01*
X00675909Y00540343D01*
X00678620Y00541466D01*
X00680948Y00543252D01*
X00682734Y00545580D01*
X00683857Y00548291D01*
X00684240Y00551200D01*
X00683857Y00554109D01*
X00682734Y00556820D01*
X00680948Y00559148D01*
X00678620Y00560934D01*
X00675909Y00562057D01*
X00673000Y00562440D01*
D02*
G37*
G36*
X00647600D02*
X00644691Y00562057D01*
X00641980Y00560934D01*
X00639652Y00559148D01*
X00637866Y00556820D01*
X00636743Y00554109D01*
X00636360Y00551200D01*
X00636743Y00548291D01*
X00637866Y00545580D01*
X00639652Y00543252D01*
X00641980Y00541466D01*
X00644691Y00540343D01*
X00647600Y00539960D01*
X00650509Y00540343D01*
X00653220Y00541466D01*
X00655548Y00543252D01*
X00657334Y00545580D01*
X00658457Y00548291D01*
X00658840Y00551200D01*
X00658457Y00554109D01*
X00657334Y00556820D01*
X00655548Y00559148D01*
X00653220Y00560934D01*
X00650509Y00562057D01*
X00647600Y00562440D01*
D02*
G37*
G36*
X00154422Y00549008D02*
X00151989Y00548902D01*
X00149666Y00548170D01*
X00147612Y00546861D01*
X00145967Y00545065D01*
X00144842Y00542905D01*
X00144315Y00540527D01*
X00144421Y00538094D01*
X00145153Y00535771D01*
X00146462Y00533717D01*
X00148258Y00532071D01*
X00150418Y00530947D01*
X00152796Y00530420D01*
X00155229Y00530526D01*
X00157552Y00531258D01*
X00159606Y00532567D01*
X00161252Y00534362D01*
X00162376Y00536523D01*
X00162903Y00538901D01*
X00162797Y00541334D01*
X00162065Y00543657D01*
X00160756Y00545711D01*
X00158960Y00547356D01*
X00156800Y00548481D01*
X00154422Y00549008D01*
D02*
G37*
G36*
X00234540Y00537230D02*
X00226270D01*
Y00529960D01*
X00234540D01*
Y00537230D01*
D02*
G37*
G36*
X00223730D02*
X00215460D01*
Y00529960D01*
X00223730D01*
Y00537230D01*
D02*
G37*
G36*
X00286270Y00529703D02*
Y00521770D01*
X00294203D01*
X00294051Y00522925D01*
X00293115Y00525185D01*
X00291626Y00527126D01*
X00289685Y00528615D01*
X00287425Y00529551D01*
X00286270Y00529703D01*
D02*
G37*
G36*
X00283730D02*
X00282575Y00529551D01*
X00280315Y00528615D01*
X00278374Y00527126D01*
X00276885Y00525185D01*
X00275949Y00522925D01*
X00275797Y00521770D01*
X00283730D01*
Y00529703D01*
D02*
G37*
G36*
X00145919Y00526058D02*
X00143344Y00525946D01*
X00140885Y00525171D01*
X00138711Y00523786D01*
X00136970Y00521885D01*
X00136371Y00520735D01*
X00144299Y00517849D01*
X00147185Y00525778D01*
X00145919Y00526058D01*
D02*
G37*
G36*
X00673000Y00537040D02*
X00670091Y00536657D01*
X00667380Y00535534D01*
X00665052Y00533748D01*
X00663266Y00531420D01*
X00662143Y00528709D01*
X00661760Y00525800D01*
X00662143Y00522891D01*
X00663266Y00520180D01*
X00665052Y00517852D01*
X00667380Y00516066D01*
X00670091Y00514943D01*
X00673000Y00514560D01*
X00675909Y00514943D01*
X00678620Y00516066D01*
X00680948Y00517852D01*
X00682734Y00520180D01*
X00683857Y00522891D01*
X00684240Y00525800D01*
X00683857Y00528709D01*
X00682734Y00531420D01*
X00680948Y00533748D01*
X00678620Y00535534D01*
X00675909Y00536657D01*
X00673000Y00537040D01*
D02*
G37*
G36*
X00647600D02*
X00644691Y00536657D01*
X00641980Y00535534D01*
X00639652Y00533748D01*
X00637866Y00531420D01*
X00636743Y00528709D01*
X00636360Y00525800D01*
X00636743Y00522891D01*
X00637866Y00520180D01*
X00639652Y00517852D01*
X00641980Y00516066D01*
X00644691Y00514943D01*
X00647600Y00514560D01*
X00650509Y00514943D01*
X00653220Y00516066D01*
X00655548Y00517852D01*
X00657334Y00520180D01*
X00658457Y00522891D01*
X00658840Y00525800D01*
X00658457Y00528709D01*
X00657334Y00531420D01*
X00655548Y00533748D01*
X00653220Y00535534D01*
X00650509Y00536657D01*
X00647600Y00537040D01*
D02*
G37*
G36*
X00149572Y00524909D02*
X00146686Y00516981D01*
X00154615Y00514095D01*
X00154895Y00515361D01*
X00154783Y00517936D01*
X00154008Y00520395D01*
X00152623Y00522569D01*
X00150722Y00524310D01*
X00149572Y00524909D01*
D02*
G37*
G36*
X00294203Y00519230D02*
X00286270D01*
Y00511297D01*
X00287425Y00511449D01*
X00289685Y00512385D01*
X00291626Y00513874D01*
X00293115Y00515815D01*
X00294051Y00518075D01*
X00294203Y00519230D01*
D02*
G37*
G36*
X00283730D02*
X00275797D01*
X00275949Y00518075D01*
X00276885Y00515815D01*
X00278374Y00513874D01*
X00280315Y00512385D01*
X00282575Y00511449D01*
X00283730Y00511297D01*
Y00519230D01*
D02*
G37*
G36*
X00135502Y00518348D02*
X00135222Y00517082D01*
X00135334Y00514507D01*
X00136109Y00512048D01*
X00137494Y00509874D01*
X00139395Y00508133D01*
X00140545Y00507534D01*
X00143431Y00515462D01*
X00135502Y00518348D01*
D02*
G37*
G36*
X00145818Y00514594D02*
X00142932Y00506665D01*
X00144198Y00506385D01*
X00146773Y00506497D01*
X00149232Y00507272D01*
X00151406Y00508657D01*
X00153147Y00510558D01*
X00153746Y00511708D01*
X00145818Y00514594D01*
D02*
G37*
G36*
X00684684Y00512084D02*
X00674270D01*
Y00501670D01*
X00684684D01*
Y00512084D01*
D02*
G37*
G36*
X00671730D02*
X00661316D01*
Y00501670D01*
X00671730D01*
Y00512084D01*
D02*
G37*
G36*
X00108368Y00513246D02*
X00105143Y00512785D01*
X00102069Y00511705D01*
X00099265Y00510045D01*
X00096839Y00507870D01*
X00094884Y00505264D01*
X00094027Y00503477D01*
X00108334Y00498270D01*
X00113541Y00512576D01*
X00111621Y00513068D01*
X00108368Y00513246D01*
D02*
G37*
G36*
X00115928Y00511707D02*
X00110721Y00497401D01*
X00125027Y00492193D01*
X00125520Y00494113D01*
X00125697Y00497367D01*
X00125237Y00500592D01*
X00124156Y00503666D01*
X00122496Y00506469D01*
X00120321Y00508895D01*
X00117715Y00510850D01*
X00115928Y00511707D01*
D02*
G37*
G36*
X00684684Y00499130D02*
X00674270D01*
Y00488716D01*
X00684684D01*
Y00499130D01*
D02*
G37*
G36*
X00671730D02*
X00661316D01*
Y00488716D01*
X00671730D01*
Y00499130D01*
D02*
G37*
G36*
X00752270Y00495012D02*
Y00486070D01*
X00761212D01*
X00761025Y00487486D01*
X00759988Y00489989D01*
X00758339Y00492139D01*
X00756189Y00493788D01*
X00753686Y00494825D01*
X00752270Y00495012D01*
D02*
G37*
G36*
X00749730D02*
X00748314Y00494825D01*
X00745811Y00493788D01*
X00743661Y00492139D01*
X00742012Y00489989D01*
X00740975Y00487486D01*
X00740788Y00486070D01*
X00749730D01*
Y00495012D01*
D02*
G37*
G36*
X00093158Y00501090D02*
X00092666Y00499170D01*
X00092489Y00495917D01*
X00092949Y00492691D01*
X00094030Y00489618D01*
X00095690Y00486814D01*
X00097865Y00484388D01*
X00100471Y00482433D01*
X00102258Y00481576D01*
X00107465Y00495883D01*
X00093158Y00501090D01*
D02*
G37*
G36*
X00109852Y00495014D02*
X00104645Y00480707D01*
X00106565Y00480215D01*
X00109818Y00480037D01*
X00113043Y00480498D01*
X00116117Y00481579D01*
X00118920Y00483239D01*
X00121347Y00485413D01*
X00123302Y00488020D01*
X00124159Y00489807D01*
X00109852Y00495014D01*
D02*
G37*
G36*
X00761212Y00483530D02*
X00752270D01*
Y00474588D01*
X00753686Y00474775D01*
X00756189Y00475812D01*
X00758339Y00477461D01*
X00759988Y00479611D01*
X00761025Y00482114D01*
X00761212Y00483530D01*
D02*
G37*
G36*
X00749730D02*
X00740788D01*
X00740975Y00482114D01*
X00742012Y00479611D01*
X00743661Y00477461D01*
X00745811Y00475812D01*
X00748314Y00474775D01*
X00749730Y00474588D01*
Y00483530D01*
D02*
G37*
G36*
X00821070Y00473457D02*
Y00465020D01*
X00829507D01*
X00829338Y00466306D01*
X00828352Y00468687D01*
X00826782Y00470732D01*
X00824737Y00472302D01*
X00822356Y00473288D01*
X00821070Y00473457D01*
D02*
G37*
G36*
X00818530D02*
X00817244Y00473288D01*
X00814863Y00472302D01*
X00812818Y00470732D01*
X00811248Y00468687D01*
X00810262Y00466306D01*
X00810093Y00465020D01*
X00818530D01*
Y00473457D01*
D02*
G37*
G36*
X00829507Y00462480D02*
X00819800D01*
X00810093D01*
X00810262Y00461194D01*
X00811248Y00458813D01*
X00812210Y00457560D01*
X00811583Y00456290D01*
X00810510D01*
Y00453020D01*
X00819800D01*
X00829090D01*
Y00456290D01*
X00828017D01*
X00827390Y00457560D01*
X00828352Y00458813D01*
X00829338Y00461194D01*
X00829507Y00462480D01*
D02*
G37*
G36*
X00738480Y00446290D02*
X00731210D01*
Y00438020D01*
X00738480D01*
Y00446290D01*
D02*
G37*
G36*
Y00435480D02*
X00731210D01*
Y00427210D01*
X00738480D01*
Y00435480D01*
D02*
G37*
G36*
X00316270Y00429703D02*
Y00421770D01*
X00324203D01*
X00324051Y00422925D01*
X00323115Y00425185D01*
X00321626Y00427126D01*
X00319685Y00428615D01*
X00317425Y00429551D01*
X00316270Y00429703D01*
D02*
G37*
G36*
X00313730D02*
X00312575Y00429551D01*
X00310315Y00428615D01*
X00308374Y00427126D01*
X00306885Y00425185D01*
X00305949Y00422925D01*
X00305797Y00421770D01*
X00313730D01*
Y00429703D01*
D02*
G37*
G36*
X00738230Y00424540D02*
X00730960D01*
Y00416270D01*
X00738230D01*
Y00424540D01*
D02*
G37*
G36*
X00324203Y00419230D02*
X00316270D01*
Y00411297D01*
X00317425Y00411449D01*
X00319685Y00412385D01*
X00321626Y00413874D01*
X00323115Y00415815D01*
X00324051Y00418075D01*
X00324203Y00419230D01*
D02*
G37*
G36*
X00313730D02*
X00305797D01*
X00305949Y00418075D01*
X00306885Y00415815D01*
X00308374Y00413874D01*
X00310315Y00412385D01*
X00312575Y00411449D01*
X00313730Y00411297D01*
Y00419230D01*
D02*
G37*
G36*
X00738230Y00413730D02*
X00730960D01*
Y00405460D01*
X00738230D01*
Y00413730D01*
D02*
G37*
G36*
X00829507Y00412480D02*
X00821070D01*
Y00404043D01*
X00822356Y00404212D01*
X00824737Y00405199D01*
X00826782Y00406768D01*
X00828352Y00408813D01*
X00829338Y00411194D01*
X00829507Y00412480D01*
D02*
G37*
G36*
X00818530D02*
X00810093D01*
X00810262Y00411194D01*
X00811248Y00408813D01*
X00812818Y00406768D01*
X00814863Y00405199D01*
X00817244Y00404212D01*
X00818530Y00404043D01*
Y00412480D01*
D02*
G37*
G36*
X00109539Y00400986D02*
X00106285Y00400808D01*
X00104366Y00400316D01*
X00109573Y00386009D01*
X00123879Y00391217D01*
X00123022Y00393004D01*
X00121067Y00395610D01*
X00118641Y00397785D01*
X00115838Y00399445D01*
X00112764Y00400526D01*
X00109539Y00400986D01*
D02*
G37*
G36*
X00101979Y00399448D02*
X00100192Y00398590D01*
X00097585Y00396635D01*
X00095411Y00394209D01*
X00093751Y00391406D01*
X00092670Y00388332D01*
X00092210Y00385107D01*
X00092387Y00381853D01*
X00092879Y00379934D01*
X00107186Y00385141D01*
X00101979Y00399448D01*
D02*
G37*
G36*
X00124748Y00388830D02*
X00110442Y00383623D01*
X00115649Y00369316D01*
X00117436Y00370173D01*
X00120042Y00372128D01*
X00122217Y00374554D01*
X00123877Y00377358D01*
X00124958Y00380431D01*
X00125418Y00383657D01*
X00125240Y00386910D01*
X00124748Y00388830D01*
D02*
G37*
G36*
X00108055Y00382754D02*
X00093748Y00377547D01*
X00094605Y00375760D01*
X00096560Y00373153D01*
X00098986Y00370979D01*
X00101790Y00369319D01*
X00104863Y00368238D01*
X00108089Y00367777D01*
X00111342Y00367955D01*
X00113262Y00368447D01*
X00108055Y00382754D01*
D02*
G37*
G36*
X00468770Y00373203D02*
Y00365270D01*
X00476703D01*
X00476551Y00366425D01*
X00475615Y00368685D01*
X00474126Y00370626D01*
X00472185Y00372115D01*
X00469925Y00373051D01*
X00468770Y00373203D01*
D02*
G37*
G36*
X00466230D02*
X00465075Y00373051D01*
X00462815Y00372115D01*
X00460874Y00370626D01*
X00459385Y00368685D01*
X00458449Y00366425D01*
X00458297Y00365270D01*
X00466230D01*
Y00373203D01*
D02*
G37*
G36*
X00476703Y00362730D02*
X00468770D01*
Y00354797D01*
X00469925Y00354949D01*
X00472185Y00355885D01*
X00474126Y00357374D01*
X00475615Y00359315D01*
X00476551Y00361575D01*
X00476703Y00362730D01*
D02*
G37*
G36*
X00466230D02*
X00458297D01*
X00458449Y00361575D01*
X00459385Y00359315D01*
X00460874Y00357374D01*
X00462815Y00355885D01*
X00465075Y00354949D01*
X00466230Y00354797D01*
Y00362730D01*
D02*
G37*
G36*
X00537480Y00353540D02*
X00529460D01*
Y00348020D01*
X00537480D01*
Y00353540D01*
D02*
G37*
G36*
Y00345480D02*
X00529460D01*
Y00339960D01*
X00537480D01*
Y00345480D01*
D02*
G37*
G36*
X00515270Y00347412D02*
Y00338470D01*
X00524212D01*
X00524025Y00339886D01*
X00522988Y00342389D01*
X00521339Y00344539D01*
X00519189Y00346188D01*
X00516686Y00347225D01*
X00515270Y00347412D01*
D02*
G37*
G36*
X00512730Y00347412D02*
X00511314Y00347225D01*
X00508811Y00346188D01*
X00506661Y00344539D01*
X00505012Y00342389D01*
X00503975Y00339886D01*
X00503788Y00338470D01*
X00512730D01*
Y00347412D01*
D02*
G37*
G36*
X00387270Y00347212D02*
Y00338270D01*
X00396212D01*
X00396025Y00339686D01*
X00394988Y00342189D01*
X00393339Y00344339D01*
X00391189Y00345988D01*
X00388686Y00347025D01*
X00387270Y00347212D01*
D02*
G37*
G36*
X00384730D02*
X00383314Y00347025D01*
X00380811Y00345988D01*
X00378661Y00344339D01*
X00377012Y00342189D01*
X00375975Y00339686D01*
X00375788Y00338270D01*
X00384730D01*
Y00347212D01*
D02*
G37*
G36*
X00574000Y00347078D02*
X00571651Y00346768D01*
X00569461Y00345861D01*
X00567581Y00344419D01*
X00566139Y00342539D01*
X00565232Y00340350D01*
X00564922Y00338000D01*
X00565232Y00335650D01*
X00566139Y00333461D01*
X00567581Y00331581D01*
X00569461Y00330139D01*
X00571651Y00329232D01*
X00574000Y00328922D01*
X00576349Y00329232D01*
X00578539Y00330139D01*
X00580419Y00331581D01*
X00581861Y00333461D01*
X00582768Y00335650D01*
X00583078Y00338000D01*
X00582768Y00340350D01*
X00581861Y00342539D01*
X00580419Y00344419D01*
X00578539Y00345861D01*
X00576349Y00346768D01*
X00574000Y00347078D01*
D02*
G37*
G36*
X00512730Y00335930D02*
X00503788D01*
X00503975Y00334514D01*
X00505012Y00332011D01*
X00506661Y00329861D01*
X00508811Y00328212D01*
X00511314Y00327175D01*
X00512730Y00326988D01*
Y00335930D01*
D02*
G37*
G36*
X00524212D02*
X00515270D01*
Y00326988D01*
X00516686Y00327175D01*
X00519189Y00328212D01*
X00521339Y00329861D01*
X00522988Y00332011D01*
X00524025Y00334514D01*
X00524212Y00335930D01*
D02*
G37*
G36*
X00396212Y00335730D02*
X00387270D01*
Y00326788D01*
X00388686Y00326975D01*
X00391189Y00328012D01*
X00393339Y00329661D01*
X00394988Y00331811D01*
X00396025Y00334314D01*
X00396212Y00335730D01*
D02*
G37*
G36*
X00384730D02*
X00375788D01*
X00375975Y00334314D01*
X00377012Y00331811D01*
X00378661Y00329661D01*
X00380811Y00328012D01*
X00383314Y00326975D01*
X00384730Y00326788D01*
Y00335730D01*
D02*
G37*
G36*
X00286270Y00329703D02*
Y00321770D01*
X00294203D01*
X00294051Y00322925D01*
X00293115Y00325185D01*
X00291626Y00327126D01*
X00289685Y00328615D01*
X00287425Y00329551D01*
X00286270Y00329703D01*
D02*
G37*
G36*
X00283730D02*
X00282575Y00329551D01*
X00280315Y00328615D01*
X00278374Y00327126D01*
X00276885Y00325185D01*
X00275949Y00322925D01*
X00275797Y00321770D01*
X00283730D01*
Y00329703D01*
D02*
G37*
G36*
X00159357Y00331810D02*
X00156979Y00331283D01*
X00154819Y00330158D01*
X00153023Y00328513D01*
X00151715Y00326459D01*
X00150982Y00324136D01*
X00150876Y00321703D01*
X00151403Y00319325D01*
X00152528Y00317164D01*
X00154173Y00315369D01*
X00156227Y00314060D01*
X00158550Y00313328D01*
X00160984Y00313221D01*
X00163361Y00313749D01*
X00165522Y00314873D01*
X00167317Y00316519D01*
X00168626Y00318573D01*
X00169358Y00320896D01*
X00169465Y00323329D01*
X00168937Y00325707D01*
X00167813Y00327867D01*
X00166167Y00329663D01*
X00164113Y00330971D01*
X00161790Y00331704D01*
X00159357Y00331810D01*
D02*
G37*
G36*
X00294203Y00319230D02*
X00286270D01*
Y00311297D01*
X00287425Y00311449D01*
X00289685Y00312385D01*
X00291626Y00313874D01*
X00293115Y00315815D01*
X00294051Y00318075D01*
X00294203Y00319230D01*
D02*
G37*
G36*
X00283730D02*
X00275797D01*
X00275949Y00318075D01*
X00276885Y00315815D01*
X00278374Y00313874D01*
X00280315Y00312385D01*
X00282575Y00311449D01*
X00283730Y00311297D01*
Y00319230D01*
D02*
G37*
G36*
X00234540Y00317230D02*
X00226270D01*
Y00309960D01*
X00234540D01*
Y00317230D01*
D02*
G37*
G36*
X00223730D02*
X00215460D01*
Y00309960D01*
X00223730D01*
Y00317230D01*
D02*
G37*
G36*
X00167860Y00308860D02*
X00166594Y00308580D01*
X00169480Y00300651D01*
X00177408Y00303537D01*
X00176810Y00304687D01*
X00175068Y00306588D01*
X00172894Y00307973D01*
X00170436Y00308748D01*
X00167860Y00308860D01*
D02*
G37*
G36*
X00164207Y00307711D02*
X00163057Y00307112D01*
X00161157Y00305371D01*
X00159771Y00303197D01*
X00158996Y00300738D01*
X00158884Y00298163D01*
X00159165Y00296897D01*
X00167093Y00299783D01*
X00164207Y00307711D01*
D02*
G37*
G36*
X00178277Y00301150D02*
X00170349Y00298264D01*
X00173234Y00290336D01*
X00174385Y00290935D01*
X00176285Y00292676D01*
X00177670Y00294850D01*
X00178445Y00297309D01*
X00178558Y00299884D01*
X00178277Y00301150D01*
D02*
G37*
G36*
X00479270Y00298455D02*
Y00290270D01*
X00487455D01*
X00487295Y00291490D01*
X00486333Y00293811D01*
X00484804Y00295804D01*
X00482811Y00297333D01*
X00480490Y00298294D01*
X00479270Y00298455D01*
D02*
G37*
G36*
X00476730D02*
X00475510Y00298294D01*
X00473189Y00297333D01*
X00471196Y00295804D01*
X00469667Y00293811D01*
X00468706Y00291490D01*
X00468545Y00290270D01*
X00476730D01*
Y00298455D01*
D02*
G37*
G36*
X00167962Y00297396D02*
X00160033Y00294510D01*
X00160632Y00293360D01*
X00162374Y00291459D01*
X00164548Y00290074D01*
X00167006Y00289299D01*
X00169582Y00289187D01*
X00170847Y00289467D01*
X00167962Y00297396D01*
D02*
G37*
G36*
X00487455Y00287730D02*
X00479270D01*
Y00279545D01*
X00480490Y00279706D01*
X00482811Y00280667D01*
X00484804Y00282196D01*
X00486333Y00284189D01*
X00487295Y00286509D01*
X00487455Y00287730D01*
D02*
G37*
G36*
X00476730D02*
X00468545D01*
X00468706Y00286509D01*
X00469667Y00284189D01*
X00471196Y00282196D01*
X00473189Y00280667D01*
X00475510Y00279706D01*
X00476730Y00279545D01*
Y00287730D01*
D02*
G37*
G36*
X00154480Y00277510D02*
X00151227Y00277333D01*
X00149307Y00276841D01*
X00154514Y00262534D01*
X00168821Y00267741D01*
X00167964Y00269528D01*
X00166009Y00272134D01*
X00163583Y00274309D01*
X00160779Y00275969D01*
X00157705Y00277050D01*
X00154480Y00277510D01*
D02*
G37*
G36*
X00146920Y00275972D02*
X00145133Y00275115D01*
X00142527Y00273160D01*
X00140352Y00270734D01*
X00138692Y00267930D01*
X00137611Y00264856D01*
X00137151Y00261631D01*
X00137329Y00258378D01*
X00137821Y00256458D01*
X00152127Y00261665D01*
X00146920Y00275972D01*
D02*
G37*
G36*
X00452000Y00298078D02*
X00449650Y00297768D01*
X00447461Y00296861D01*
X00445581Y00295419D01*
X00444139Y00293539D01*
X00443232Y00291350D01*
X00442922Y00289000D01*
X00443232Y00286651D01*
X00444139Y00284461D01*
X00445581Y00282581D01*
X00446902Y00281568D01*
Y00263750D01*
X00446500D01*
Y00246250D01*
X00459000D01*
Y00263750D01*
X00457098D01*
Y00281568D01*
X00458419Y00282581D01*
X00459861Y00284461D01*
X00460768Y00286651D01*
X00461078Y00289000D01*
X00460768Y00291350D01*
X00459861Y00293539D01*
X00458419Y00295419D01*
X00456539Y00296861D01*
X00454350Y00297768D01*
X00452000Y00298078D01*
D02*
G37*
G36*
X00386000Y00372234D02*
X00383455Y00371899D01*
X00381083Y00370917D01*
X00379046Y00369354D01*
X00377483Y00367317D01*
X00376501Y00364945D01*
X00376166Y00362400D01*
X00376501Y00359855D01*
X00377483Y00357483D01*
X00379046Y00355446D01*
X00381083Y00353883D01*
X00383455Y00352901D01*
X00386000Y00352566D01*
X00388319Y00352871D01*
X00420902Y00320288D01*
Y00298000D01*
X00417000D01*
Y00280000D01*
X00421027D01*
Y00263750D01*
X00420000D01*
Y00246250D01*
X00432500D01*
Y00263750D01*
X00431223D01*
Y00280000D01*
X00435000D01*
Y00298000D01*
X00431098D01*
Y00322400D01*
X00430710Y00324351D01*
X00429605Y00326005D01*
X00395529Y00360081D01*
X00395834Y00362400D01*
X00395499Y00364945D01*
X00394517Y00367317D01*
X00392954Y00369354D01*
X00390917Y00370917D01*
X00388545Y00371899D01*
X00386000Y00372234D01*
D02*
G37*
G36*
X00169690Y00265354D02*
X00155383Y00260147D01*
X00160590Y00245840D01*
X00162377Y00246698D01*
X00164984Y00248653D01*
X00167158Y00251079D01*
X00168818Y00253882D01*
X00169899Y00256956D01*
X00170359Y00260181D01*
X00170182Y00263434D01*
X00169690Y00265354D01*
D02*
G37*
G36*
X00605230Y00252730D02*
X00597960D01*
Y00244460D01*
X00605230D01*
Y00252730D01*
D02*
G37*
G36*
X00152996Y00259278D02*
X00138689Y00254071D01*
X00139546Y00252284D01*
X00141502Y00249678D01*
X00143928Y00247503D01*
X00146731Y00245843D01*
X00149805Y00244762D01*
X00153030Y00244302D01*
X00156284Y00244480D01*
X00158203Y00244972D01*
X00152996Y00259278D01*
D02*
G37*
G36*
X00252470Y00246212D02*
Y00237270D01*
X00261412D01*
X00261225Y00238686D01*
X00260188Y00241189D01*
X00258539Y00243339D01*
X00256389Y00244988D01*
X00253886Y00246025D01*
X00252470Y00246212D01*
D02*
G37*
G36*
X00249930D02*
X00248514Y00246025D01*
X00246011Y00244988D01*
X00243861Y00243339D01*
X00242212Y00241189D01*
X00241175Y00238686D01*
X00240988Y00237270D01*
X00249930D01*
Y00246212D01*
D02*
G37*
G36*
X00302000Y00245834D02*
X00299455Y00245499D01*
X00297083Y00244517D01*
X00295046Y00242954D01*
X00293483Y00240917D01*
X00292501Y00238545D01*
X00292166Y00236000D01*
X00292501Y00233455D01*
X00293483Y00231083D01*
X00295046Y00229046D01*
X00297083Y00227483D01*
X00299455Y00226501D01*
X00302000Y00226166D01*
X00304545Y00226501D01*
X00306917Y00227483D01*
X00308954Y00229046D01*
X00310517Y00231083D01*
X00311499Y00233455D01*
X00311834Y00236000D01*
X00311499Y00238545D01*
X00310517Y00240917D01*
X00308954Y00242954D01*
X00306917Y00244517D01*
X00304545Y00245499D01*
X00302000Y00245834D01*
D02*
G37*
G36*
X00276600D02*
X00274055Y00245499D01*
X00271683Y00244517D01*
X00269646Y00242954D01*
X00268083Y00240917D01*
X00267101Y00238545D01*
X00266766Y00236000D01*
X00267101Y00233455D01*
X00268083Y00231083D01*
X00269646Y00229046D01*
X00271683Y00227483D01*
X00274055Y00226501D01*
X00276600Y00226166D01*
X00279145Y00226501D01*
X00281517Y00227483D01*
X00283554Y00229046D01*
X00285117Y00231083D01*
X00286099Y00233455D01*
X00286434Y00236000D01*
X00286099Y00238545D01*
X00285117Y00240917D01*
X00283554Y00242954D01*
X00281517Y00244517D01*
X00279145Y00245499D01*
X00276600Y00245834D01*
D02*
G37*
G36*
X00261412Y00234730D02*
X00252470D01*
Y00225788D01*
X00253886Y00225975D01*
X00256389Y00227012D01*
X00258539Y00228661D01*
X00260188Y00230811D01*
X00261225Y00233314D01*
X00261412Y00234730D01*
D02*
G37*
G36*
X00249930D02*
X00240988D01*
X00241175Y00233314D01*
X00242212Y00230811D01*
X00243861Y00228661D01*
X00246011Y00227012D01*
X00248514Y00225975D01*
X00249930Y00225788D01*
Y00234730D01*
D02*
G37*
G36*
X00606870Y00218212D02*
Y00209270D01*
X00615812D01*
X00615625Y00210686D01*
X00614588Y00213189D01*
X00612939Y00215339D01*
X00610789Y00216988D01*
X00608286Y00218025D01*
X00606870Y00218212D01*
D02*
G37*
G36*
X00604330D02*
X00602914Y00218025D01*
X00600411Y00216988D01*
X00598261Y00215339D01*
X00596612Y00213189D01*
X00595575Y00210686D01*
X00595388Y00209270D01*
X00604330D01*
Y00218212D01*
D02*
G37*
G36*
X00631000Y00217834D02*
X00628455Y00217499D01*
X00626083Y00216517D01*
X00624046Y00214954D01*
X00622483Y00212917D01*
X00621501Y00210545D01*
X00621166Y00208000D01*
X00621501Y00205455D01*
X00621861Y00204585D01*
X00603652Y00186376D01*
X00602750Y00186750D01*
Y00186750D01*
X00590250D01*
Y00169250D01*
X00591402D01*
Y00167750D01*
X00590250D01*
Y00150250D01*
X00591402D01*
Y00148750D01*
X00590250D01*
Y00131250D01*
X00602750D01*
Y00148750D01*
X00601598D01*
Y00150250D01*
X00602750D01*
Y00167750D01*
X00601598D01*
Y00169250D01*
X00602750D01*
Y00173902D01*
X00603485D01*
X00605436Y00174290D01*
X00607090Y00175395D01*
X00629993Y00198298D01*
X00631000Y00198166D01*
X00633545Y00198501D01*
X00635917Y00199483D01*
X00637954Y00201046D01*
X00639517Y00203083D01*
X00640499Y00205455D01*
X00640834Y00208000D01*
X00640499Y00210545D01*
X00639517Y00212917D01*
X00637954Y00214954D01*
X00635917Y00216517D01*
X00633545Y00217499D01*
X00631000Y00217834D01*
D02*
G37*
G36*
X00580000Y00310608D02*
X00577854Y00310181D01*
X00576035Y00308965D01*
X00574819Y00307146D01*
X00574790Y00307000D01*
X00525795Y00258005D01*
X00524690Y00256351D01*
X00524302Y00254400D01*
Y00216378D01*
X00522446Y00214954D01*
X00520883Y00212917D01*
X00519901Y00210545D01*
X00519566Y00208000D01*
X00519901Y00205455D01*
X00520883Y00203083D01*
X00522446Y00201046D01*
X00524483Y00199483D01*
X00526855Y00198501D01*
X00529400Y00198166D01*
X00531945Y00198501D01*
X00534317Y00199483D01*
X00536354Y00201046D01*
X00537917Y00203083D01*
X00538899Y00205455D01*
X00539234Y00208000D01*
X00538899Y00210545D01*
X00537917Y00212917D01*
X00536354Y00214954D01*
X00534498Y00216378D01*
Y00252288D01*
X00582000Y00299790D01*
X00582146Y00299819D01*
X00583965Y00301035D01*
X00585181Y00302854D01*
X00585608Y00305000D01*
X00585181Y00307146D01*
X00583965Y00308965D01*
X00582146Y00310181D01*
X00580000Y00310608D01*
D02*
G37*
G36*
X00504000Y00217834D02*
X00501455Y00217499D01*
X00499083Y00216517D01*
X00497046Y00214954D01*
X00495483Y00212917D01*
X00494501Y00210545D01*
X00494166Y00208000D01*
X00494501Y00205455D01*
X00495483Y00203083D01*
X00497046Y00201046D01*
X00499083Y00199483D01*
X00501455Y00198501D01*
X00504000Y00198166D01*
X00506545Y00198501D01*
X00508917Y00199483D01*
X00510954Y00201046D01*
X00512517Y00203083D01*
X00513499Y00205455D01*
X00513834Y00208000D01*
X00513499Y00210545D01*
X00512517Y00212917D01*
X00510954Y00214954D01*
X00508917Y00216517D01*
X00506545Y00217499D01*
X00504000Y00217834D01*
D02*
G37*
G36*
X00615812Y00206730D02*
X00606870D01*
Y00197788D01*
X00608286Y00197975D01*
X00610789Y00199012D01*
X00612939Y00200661D01*
X00614588Y00202811D01*
X00615625Y00205314D01*
X00615812Y00206730D01*
D02*
G37*
G36*
X00604330D02*
X00595388D01*
X00595575Y00205314D01*
X00596612Y00202811D01*
X00598261Y00200661D01*
X00600411Y00199012D01*
X00602914Y00197975D01*
X00604330Y00197788D01*
Y00206730D01*
D02*
G37*
G36*
X00684381Y00243980D02*
X00672750D01*
X00661119D01*
X00661238Y00243381D01*
X00662297Y00241797D01*
X00662558Y00241622D01*
X00661747Y00240408D01*
X00661417Y00238750D01*
X00661747Y00237092D01*
X00662686Y00235686D01*
Y00235314D01*
X00661747Y00233908D01*
X00661417Y00232250D01*
X00661747Y00230592D01*
X00662686Y00229186D01*
Y00228814D01*
X00661747Y00227408D01*
X00661417Y00225750D01*
X00661747Y00224092D01*
X00662686Y00222686D01*
Y00222314D01*
X00661747Y00220908D01*
X00661417Y00219250D01*
X00661747Y00217592D01*
X00662686Y00216186D01*
Y00215814D01*
X00661747Y00214408D01*
X00661417Y00212750D01*
X00661747Y00211092D01*
X00662686Y00209686D01*
Y00209314D01*
X00661747Y00207908D01*
X00661417Y00206250D01*
X00661747Y00204592D01*
X00662686Y00203186D01*
Y00202814D01*
X00661747Y00201408D01*
X00661417Y00199750D01*
X00661747Y00198092D01*
X00662686Y00196686D01*
X00664092Y00195747D01*
X00665750Y00195417D01*
X00679750D01*
X00681408Y00195747D01*
X00682814Y00196686D01*
X00683753Y00198092D01*
X00684083Y00199750D01*
X00683753Y00201408D01*
X00682814Y00202814D01*
Y00203186D01*
X00683753Y00204592D01*
X00684083Y00206250D01*
X00683753Y00207908D01*
X00682814Y00209314D01*
Y00209686D01*
X00683753Y00211092D01*
X00684083Y00212750D01*
X00683753Y00214408D01*
X00682814Y00215814D01*
Y00216186D01*
X00683753Y00217592D01*
X00684083Y00219250D01*
X00683753Y00220908D01*
X00682814Y00222314D01*
Y00222686D01*
X00683753Y00224092D01*
X00684083Y00225750D01*
X00683753Y00227408D01*
X00682814Y00228814D01*
Y00229186D01*
X00683753Y00230592D01*
X00684083Y00232250D01*
X00683753Y00233908D01*
X00682814Y00235314D01*
Y00235686D01*
X00683753Y00237092D01*
X00684083Y00238750D01*
X00683753Y00240408D01*
X00682942Y00241622D01*
X00683203Y00241797D01*
X00684262Y00243381D01*
X00684381Y00243980D01*
D02*
G37*
G36*
X00453200Y00217834D02*
X00450655Y00217499D01*
X00448283Y00216517D01*
X00446246Y00214954D01*
X00444683Y00212917D01*
X00443701Y00210545D01*
X00443366Y00208000D01*
X00443701Y00205455D01*
X00444683Y00203083D01*
X00446246Y00201046D01*
X00448002Y00199699D01*
Y00193250D01*
X00444250D01*
Y00180750D01*
X00461750D01*
Y00193250D01*
X00458198D01*
Y00199545D01*
X00460154Y00201046D01*
X00461717Y00203083D01*
X00462699Y00205455D01*
X00463034Y00208000D01*
X00462699Y00210545D01*
X00461717Y00212917D01*
X00460154Y00214954D01*
X00458117Y00216517D01*
X00455745Y00217499D01*
X00453200Y00217834D01*
D02*
G37*
G36*
X00580200D02*
X00577655Y00217499D01*
X00575283Y00216517D01*
X00573246Y00214954D01*
X00571683Y00212917D01*
X00570701Y00210545D01*
X00570366Y00208000D01*
X00570701Y00205455D01*
X00571683Y00203083D01*
X00573246Y00201046D01*
X00575002Y00199699D01*
Y00186750D01*
X00573750D01*
Y00175048D01*
X00572577Y00174562D01*
X00559898Y00187241D01*
Y00199622D01*
X00561754Y00201046D01*
X00563317Y00203083D01*
X00564299Y00205455D01*
X00564634Y00208000D01*
X00564299Y00210545D01*
X00563317Y00212917D01*
X00561754Y00214954D01*
X00559717Y00216517D01*
X00557345Y00217499D01*
X00554800Y00217834D01*
X00552255Y00217499D01*
X00549883Y00216517D01*
X00547846Y00214954D01*
X00546283Y00212917D01*
X00545301Y00210545D01*
X00544966Y00208000D01*
X00545301Y00205455D01*
X00546283Y00203083D01*
X00547846Y00201046D01*
X00549702Y00199622D01*
Y00185129D01*
X00550090Y00183178D01*
X00551195Y00181524D01*
X00573574Y00159145D01*
X00573750Y00159028D01*
Y00150250D01*
X00586250D01*
Y00167750D01*
X00580301D01*
X00580148Y00167980D01*
X00580826Y00169250D01*
X00586250D01*
Y00186750D01*
X00585198D01*
Y00199545D01*
X00587154Y00201046D01*
X00588717Y00203083D01*
X00589699Y00205455D01*
X00590034Y00208000D01*
X00589699Y00210545D01*
X00588717Y00212917D01*
X00587154Y00214954D01*
X00585117Y00216517D01*
X00582745Y00217499D01*
X00580200Y00217834D01*
D02*
G37*
G36*
X00462290Y00177290D02*
X00454270D01*
Y00171770D01*
X00462290D01*
Y00177290D01*
D02*
G37*
G36*
X00451730D02*
X00443710D01*
Y00171770D01*
X00451730D01*
Y00177290D01*
D02*
G37*
G36*
X00462290Y00169230D02*
X00454270D01*
Y00163710D01*
X00462290D01*
Y00169230D01*
D02*
G37*
G36*
X00451730D02*
X00443710D01*
Y00163710D01*
X00451730D01*
Y00169230D01*
D02*
G37*
G36*
X00478600Y00217834D02*
X00476055Y00217499D01*
X00473683Y00216517D01*
X00471646Y00214954D01*
X00470083Y00212917D01*
X00469101Y00210545D01*
X00468766Y00208000D01*
X00469101Y00205455D01*
X00470083Y00203083D01*
X00471646Y00201046D01*
X00473683Y00199483D01*
X00476055Y00198501D01*
X00478600Y00198166D01*
X00480919Y00198471D01*
X00542995Y00136395D01*
X00544649Y00135290D01*
X00546600Y00134902D01*
X00573750D01*
Y00131250D01*
X00586250D01*
Y00148750D01*
X00573750D01*
Y00145098D01*
X00548712D01*
X00488129Y00205681D01*
X00488434Y00208000D01*
X00488099Y00210545D01*
X00487117Y00212917D01*
X00485554Y00214954D01*
X00483517Y00216517D01*
X00481145Y00217499D01*
X00478600Y00217834D01*
D02*
G37*
G36*
X00385800Y00239458D02*
X00383654Y00239031D01*
X00381834Y00237816D01*
X00380619Y00235996D01*
X00380192Y00233850D01*
X00380619Y00231705D01*
X00380677Y00231618D01*
Y00120750D01*
X00379500D01*
Y00116598D01*
X00361500D01*
Y00120750D01*
X00349000D01*
Y00103250D01*
X00361500D01*
Y00106402D01*
X00379500D01*
Y00103250D01*
X00392000D01*
Y00120750D01*
X00390873D01*
Y00231543D01*
X00390980Y00231705D01*
X00391407Y00233850D01*
X00390980Y00235996D01*
X00389765Y00237816D01*
X00387946Y00239031D01*
X00385800Y00239458D01*
D02*
G37*
G36*
X00409040Y00121290D02*
X00403520D01*
Y00113270D01*
X00409040D01*
Y00121290D01*
D02*
G37*
G36*
X00400980D02*
X00395460D01*
Y00113270D01*
X00400980D01*
Y00121290D01*
D02*
G37*
G36*
X00409040Y00110730D02*
X00403520D01*
Y00102710D01*
X00409040D01*
Y00110730D01*
D02*
G37*
G36*
X00400980D02*
X00395460D01*
Y00102710D01*
X00400980D01*
Y00110730D01*
D02*
G37*
G36*
X00390470Y00088212D02*
Y00079270D01*
X00399412D01*
X00399225Y00080686D01*
X00398188Y00083189D01*
X00396539Y00085339D01*
X00394389Y00086988D01*
X00391886Y00088025D01*
X00390470Y00088212D01*
D02*
G37*
G36*
X00387930D02*
X00386514Y00088025D01*
X00384011Y00086988D01*
X00381861Y00085339D01*
X00380212Y00083189D01*
X00379175Y00080686D01*
X00378988Y00079270D01*
X00387930D01*
Y00088212D01*
D02*
G37*
G36*
X00363800Y00087834D02*
X00361255Y00087499D01*
X00358883Y00086517D01*
X00356846Y00084954D01*
X00355283Y00082917D01*
X00354301Y00080545D01*
X00353966Y00078000D01*
X00354301Y00075455D01*
X00355283Y00073083D01*
X00356846Y00071046D01*
X00358883Y00069483D01*
X00361255Y00068501D01*
X00363800Y00068166D01*
X00366345Y00068501D01*
X00368717Y00069483D01*
X00370754Y00071046D01*
X00372317Y00073083D01*
X00373299Y00075455D01*
X00373634Y00078000D01*
X00373299Y00080545D01*
X00372317Y00082917D01*
X00370754Y00084954D01*
X00368717Y00086517D01*
X00366345Y00087499D01*
X00363800Y00087834D01*
D02*
G37*
G36*
X00399412Y00076730D02*
X00390470D01*
Y00067788D01*
X00391886Y00067975D01*
X00394389Y00069012D01*
X00396539Y00070661D01*
X00398188Y00072811D01*
X00399225Y00075314D01*
X00399412Y00076730D01*
D02*
G37*
G36*
X00387930D02*
X00378988D01*
X00379175Y00075314D01*
X00380212Y00072811D01*
X00381861Y00070661D01*
X00384011Y00069012D01*
X00386514Y00067975D01*
X00387930Y00067788D01*
Y00076730D01*
D02*
G37*
G36*
X00758000Y00384608D02*
X00755854Y00384181D01*
X00754035Y00382965D01*
X00752819Y00381146D01*
X00752392Y00379000D01*
X00752819Y00376854D01*
X00752902Y00376730D01*
Y00358000D01*
X00738000D01*
Y00345098D01*
X00731500D01*
Y00349000D01*
X00716086Y00349000D01*
X00715040Y00349540D01*
X00714454Y00349540D01*
X00707770D01*
Y00340000D01*
Y00330460D01*
X00715040Y00330460D01*
X00716086Y00331000D01*
X00716310Y00331000D01*
X00731500D01*
Y00334902D01*
X00738000D01*
Y00322000D01*
X00763000D01*
Y00334902D01*
X00795000D01*
Y00333500D01*
X00820000D01*
Y00346500D01*
X00795000D01*
Y00345098D01*
X00763000D01*
Y00347008D01*
X00763098Y00347500D01*
Y00376730D01*
X00763181Y00376854D01*
X00763608Y00379000D01*
X00763181Y00381146D01*
X00761965Y00382965D01*
X00760146Y00384181D01*
X00758000Y00384608D01*
D02*
G37*
G36*
X00705230Y00349540D02*
X00697960D01*
Y00341270D01*
X00705230D01*
Y00349540D01*
D02*
G37*
G36*
Y00338730D02*
X00697960D01*
Y00330460D01*
X00705230D01*
Y00338730D01*
D02*
G37*
G36*
X00820540Y00324040D02*
X00808770D01*
Y00318270D01*
X00820540D01*
Y00324040D01*
D02*
G37*
G36*
X00806230D02*
X00794460D01*
Y00318270D01*
X00806230D01*
Y00324040D01*
D02*
G37*
G36*
X00820540Y00315730D02*
X00808770D01*
Y00309960D01*
X00820540D01*
Y00315730D01*
D02*
G37*
G36*
X00806230D02*
X00794460D01*
Y00309960D01*
X00806230D01*
Y00315730D01*
D02*
G37*
G36*
X00754250Y00288583D02*
X00740250D01*
X00738592Y00288253D01*
X00737186Y00287314D01*
X00736247Y00285908D01*
X00735917Y00284250D01*
X00736247Y00282592D01*
X00737186Y00281186D01*
Y00280814D01*
X00736247Y00279408D01*
X00735917Y00277750D01*
X00736247Y00276092D01*
X00737058Y00274878D01*
X00736797Y00274703D01*
X00735738Y00273119D01*
X00735619Y00272520D01*
X00747250D01*
X00758881D01*
X00758762Y00273119D01*
X00757703Y00274703D01*
X00757442Y00274878D01*
X00758253Y00276092D01*
X00758583Y00277750D01*
X00758253Y00279408D01*
X00757314Y00280814D01*
Y00281186D01*
X00758253Y00282592D01*
X00758583Y00284250D01*
X00758253Y00285908D01*
X00757314Y00287314D01*
X00755908Y00288253D01*
X00754250Y00288583D01*
D02*
G37*
G36*
X00783540Y00273540D02*
X00775270D01*
Y00266270D01*
X00783540D01*
Y00273540D01*
D02*
G37*
G36*
X00772730D02*
X00764460D01*
Y00266270D01*
X00772730D01*
Y00273540D01*
D02*
G37*
G36*
X00758881Y00269980D02*
X00747250D01*
X00735619D01*
X00735738Y00269381D01*
X00736661Y00268000D01*
X00735738Y00266619D01*
X00735619Y00266020D01*
X00747250D01*
X00758881D01*
X00758762Y00266619D01*
X00757839Y00268000D01*
X00758762Y00269381D01*
X00758881Y00269980D01*
D02*
G37*
%LPD*%
D11*
X00337386Y00690614D02*
X00609786D01*
X00337000Y00691000D02*
X00337386Y00690614D01*
X00198000Y00662000D02*
X00220000Y00640000D01*
X00406586Y00665786D02*
X00419000Y00678200D01*
X00337214Y00665786D02*
X00406586D01*
X00660400Y00640000D02*
X00673000Y00627400D01*
X00220000Y00640000D02*
X00660400D01*
X00609786Y00690614D02*
X00647600Y00652800D01*
D12*
X00844800Y00474750D02*
G03*
X00844800Y00474750I-00002500J00000000D01*
G01*
X00853800D02*
G03*
X00853800Y00474750I-00002500J00000000D01*
G01*
X00844800Y00402750D02*
G03*
X00844800Y00402750I-00002500J00000000D01*
G01*
X00853800D02*
G03*
X00853800Y00402750I-00002500J00000000D01*
G01*
D13*
X00423826Y00478000D02*
X00426000D01*
X00379000Y00492069D02*
Y00557000D01*
Y00492069D02*
X00391084Y00479985D01*
X00379000Y00557000D02*
X00386456Y00564456D01*
X00391084Y00479985D02*
X00403015D01*
X00386456Y00564456D02*
X00406856D01*
X00403015Y00479985D02*
X00414000Y00469000D01*
X00406456Y00495370D02*
X00423826Y00478000D01*
X00406456Y00495370D02*
Y00538656D01*
X00406856Y00564456D02*
X00419000Y00576600D01*
X00406456Y00538656D02*
X00419000Y00551200D01*
X00650768Y00678200D02*
X00663968Y00665000D01*
X00647600Y00678200D02*
X00650768D01*
X00748600Y00665000D02*
X00751000Y00662600D01*
X00663968Y00665000D02*
X00748600D01*
D14*
X00750500Y00340000D02*
X00758000Y00347500D01*
Y00379000D01*
X00750500Y00340000D02*
X00807500D01*
Y00363000D02*
Y00382500D01*
X00782000Y00408000D02*
X00807500Y00382500D01*
X00723500Y00340000D02*
X00750500D01*
X00359000Y00458000D02*
X00412384Y00404616D01*
Y00383000D02*
Y00404616D01*
X00386000Y00387800D02*
X00409800Y00364000D01*
X00432500D01*
X00302969Y00678200D02*
X00393200D01*
X00259169Y00722000D02*
X00302969Y00678200D01*
X00198000Y00722000D02*
X00259169D01*
X00169000Y00585202D02*
X00177000Y00593202D01*
Y00721000D02*
X00198000Y00742000D01*
X00177000Y00593202D02*
Y00721000D01*
X00169000Y00582000D02*
Y00585202D01*
X00154081Y00355500D02*
X00225000D01*
X00144779Y00364802D02*
X00154081Y00355500D01*
X00593750Y00369750D02*
X00594000D01*
X00612000Y00387750D01*
Y00395970D01*
X00621030Y00405000D02*
X00656000D01*
X00667000Y00394000D01*
X00738571D01*
X00750500Y00405929D01*
X00612000Y00395970D02*
X00621030Y00405000D01*
X00600000Y00280265D02*
X00603515Y00276750D01*
X00608500D01*
X00609750Y00273000D01*
X00600000Y00280265D02*
Y00338000D01*
X00359000Y00458000D02*
Y00545485D01*
X00390115Y00576600D01*
X00393200D01*
X00285000Y00555500D02*
X00315000Y00525500D01*
Y00455500D02*
Y00525500D01*
X00385750Y00112000D02*
X00385775Y00112025D01*
Y00233826D01*
X00385800Y00233850D01*
X00313000Y00078000D02*
X00327400Y00092400D01*
Y00236000D01*
X00328250Y00236850D01*
X00225000Y00355500D02*
X00285000D01*
X00225000Y00335500D02*
Y00355500D01*
X00285000D02*
Y00425500D01*
X00315000Y00455500D01*
X00514000Y00362600D02*
X00514325Y00362925D01*
X00538425D01*
X00538750Y00363250D01*
X00574000Y00393000D02*
X00647600Y00466600D01*
X00756500Y00414000D02*
Y00415000D01*
X00750500Y00408000D02*
X00756500Y00414000D01*
X00750500Y00405929D02*
Y00408000D01*
X00453000Y00187000D02*
X00453100Y00187100D01*
Y00207900D01*
X00453200Y00208000D01*
X00597500Y00179000D02*
X00603485D01*
X00631000Y00206515D02*
Y00208000D01*
X00603485Y00179000D02*
X00631000Y00206515D01*
X00596500Y00178000D02*
X00597500Y00179000D01*
X00596500Y00159000D02*
Y00178000D01*
Y00140000D02*
Y00159000D01*
X00478600Y00208000D02*
X00546600Y00140000D01*
X00580000D01*
X00554800Y00185129D02*
Y00208000D01*
Y00185129D02*
X00577179Y00162750D01*
X00578750D01*
X00580000Y00161500D01*
Y00159000D02*
Y00161500D01*
Y00178000D02*
X00580100Y00178100D01*
Y00207900D01*
X00580200Y00208000D01*
X00355250Y00112000D02*
X00355750Y00111500D01*
X00384500D01*
X00338575Y00111825D02*
X00338750Y00112000D01*
X00338575Y00078175D02*
Y00111825D01*
X00338400Y00078000D02*
X00338575Y00078175D01*
X00611000Y00306729D02*
X00614000Y00309729D01*
Y00310000D01*
X00611000Y00293250D02*
Y00306729D01*
X00609750Y00292000D02*
X00611000Y00293250D01*
X00225000Y00555500D02*
X00285000D01*
X00338200Y00078200D02*
X00338400Y00078000D01*
X00338800Y00114950D02*
X00339000Y00114750D01*
X00529400Y00208000D02*
Y00254400D01*
X00580000Y00305000D01*
X00328250Y00312250D02*
X00385500Y00255000D01*
X00285000Y00355500D02*
X00328250Y00312250D01*
Y00236850D02*
Y00312250D01*
X00385500Y00255000D02*
X00409750D01*
X00782000Y00437000D02*
Y00464000D01*
Y00415000D02*
Y00426000D01*
X00756750Y00436750D02*
X00781750D01*
X00782000Y00426000D02*
Y00437000D01*
X00781750Y00436750D02*
X00782000Y00437000D01*
X00758144Y00540144D02*
X00785000Y00567000D01*
Y00668651D01*
X00285000Y00355500D02*
X00353700D01*
X00386000Y00387800D01*
X00647600Y00467000D02*
X00707800D01*
X00751000Y00510200D01*
X00647600Y00466600D02*
Y00500400D01*
X00426000Y00289000D02*
X00426125Y00288875D01*
Y00255125D02*
Y00288875D01*
Y00255125D02*
X00426250Y00255000D01*
X00782000Y00408000D02*
Y00415000D01*
X00756500D02*
X00782000D01*
X00452000Y00255000D02*
Y00289000D01*
X00426000D02*
Y00322400D01*
X00386000Y00362400D02*
X00426000Y00322400D01*
X00456500Y00388000D02*
X00514000D01*
X00432500Y00364000D02*
X00456500Y00388000D01*
X00419000Y00703600D02*
X00469400Y00754000D01*
X00700000D01*
X00784289Y00669710D01*
X00758115Y00540144D02*
X00758144D01*
X00753571Y00535600D02*
X00758115Y00540144D01*
X00751000Y00535600D02*
X00753571D01*
D15*
X00807500Y00317000D02*
D03*
Y00340000D02*
D03*
Y00363000D02*
D03*
D16*
X00750500Y00340000D02*
D03*
D17*
X00385750Y00112000D02*
D03*
X00402250D02*
D03*
X00355250D02*
D03*
X00338750D02*
D03*
X00596500Y00178000D02*
D03*
X00580000D02*
D03*
X00596500Y00159000D02*
D03*
X00580000D02*
D03*
X00596500Y00140000D02*
D03*
X00580000D02*
D03*
X00609750Y00273000D02*
D03*
X00626250D02*
D03*
X00609750Y00292000D02*
D03*
X00626250D02*
D03*
X00452750Y00255000D02*
D03*
X00469250D02*
D03*
X00426250D02*
D03*
X00409750D02*
D03*
D18*
X00453000Y00187000D02*
D03*
Y00170500D02*
D03*
X00538750Y00363250D02*
D03*
Y00346750D02*
D03*
D19*
X00225000Y00318500D02*
D03*
Y00335500D02*
D03*
Y00538500D02*
D03*
Y00555500D02*
D03*
X00774000Y00248000D02*
D03*
Y00265000D02*
D03*
D20*
X00606500Y00254000D02*
D03*
X00623500D02*
D03*
X00723500Y00340000D02*
D03*
X00706500D02*
D03*
X00756500Y00415000D02*
D03*
X00739500D02*
D03*
X00756750Y00436750D02*
D03*
X00739750D02*
D03*
D21*
X00747250Y00199750D02*
D03*
Y00206250D02*
D03*
Y00212750D02*
D03*
Y00219250D02*
D03*
Y00225750D02*
D03*
Y00232250D02*
D03*
Y00238750D02*
D03*
Y00245250D02*
D03*
Y00251750D02*
D03*
Y00258250D02*
D03*
Y00264750D02*
D03*
Y00271250D02*
D03*
Y00277750D02*
D03*
Y00284250D02*
D03*
X00672750Y00199750D02*
D03*
Y00206250D02*
D03*
Y00212750D02*
D03*
Y00219250D02*
D03*
Y00225750D02*
D03*
Y00232250D02*
D03*
Y00238750D02*
D03*
Y00245250D02*
D03*
Y00251750D02*
D03*
Y00258250D02*
D03*
Y00264750D02*
D03*
Y00271250D02*
D03*
Y00277750D02*
D03*
Y00284250D02*
D03*
D22*
X00846800Y00448750D02*
D03*
Y00428750D02*
D03*
D23*
X00819800Y00451750D02*
D03*
Y00445250D02*
D03*
Y00438750D02*
D03*
Y00432250D02*
D03*
Y00425750D02*
D03*
D33*
X00160450Y00558508D02*
D03*
X00153609Y00539714D02*
D03*
X00145059Y00516222D02*
D03*
X00819800Y00413750D02*
D03*
Y00463750D02*
D03*
X00168721Y00299023D02*
D03*
X00160170Y00322516D02*
D03*
X00153330Y00341310D02*
D03*
D37*
X00529400Y00208000D02*
D03*
X00504000D02*
D03*
X00478600D02*
D03*
X00453200D02*
D03*
X00554800D02*
D03*
X00580200D02*
D03*
X00605600D02*
D03*
X00631000D02*
D03*
X00251200Y00236000D02*
D03*
X00276600D02*
D03*
X00302000D02*
D03*
X00327400D02*
D03*
X00751000Y00561000D02*
D03*
Y00535600D02*
D03*
Y00510200D02*
D03*
Y00484800D02*
D03*
Y00586400D02*
D03*
Y00611800D02*
D03*
Y00637200D02*
D03*
Y00662600D02*
D03*
X00514000Y00388000D02*
D03*
Y00362600D02*
D03*
Y00337200D02*
D03*
X00386000Y00387800D02*
D03*
Y00362400D02*
D03*
Y00337000D02*
D03*
X00389200Y00078000D02*
D03*
X00363800D02*
D03*
X00338400D02*
D03*
X00313000D02*
D03*
D41*
X00198000Y00682000D02*
D03*
Y00662000D02*
D03*
Y00702000D02*
D03*
Y00722000D02*
D03*
Y00742000D02*
D03*
D47*
X00813188Y00254188D02*
G03*
X00835000Y00307497I-00373188J00183812D01*
G01*
Y00307497D02*
Y00358157D01*
X00807500Y00363000D02*
X00830157D01*
X00835000Y00358157D01*
X00337000Y00666000D02*
X00337214Y00665786D01*
X00747154Y00238654D02*
X00747250Y00238750D01*
X00734000Y00223161D02*
Y00234839D01*
X00737815Y00219346D02*
X00747154D01*
X00734000Y00223161D02*
X00737815Y00219346D01*
X00747154D02*
X00747250Y00219250D01*
X00734000Y00234839D02*
X00737815Y00238654D01*
X00747154D01*
X00707169Y00239669D02*
Y00239669D01*
Y00239669D02*
X00734089Y00212750D01*
X00747250D01*
X00682339Y00264500D02*
X00707169Y00239669D01*
X00680507Y00264500D02*
X00682339D01*
X00419000Y00525800D02*
X00582550Y00362250D01*
X00611000Y00332000D02*
X00658750Y00284250D01*
X00591306Y00362250D02*
X00611000Y00342556D01*
Y00332000D02*
Y00342556D01*
X00582550Y00362250D02*
X00591306D01*
X00835000Y00307497D02*
Y00307497D01*
X00791346Y00232346D02*
X00813188Y00254188D01*
X00658750Y00284250D02*
X00672750D01*
X00626250Y00292000D02*
X00639884D01*
X00654135Y00277750D01*
X00672750D01*
X00626000Y00393000D02*
X00692000Y00327000D01*
X00674904Y00271250D02*
X00675000Y00271346D01*
X00692000Y00279176D02*
Y00327000D01*
X00672750Y00271250D02*
X00674904D01*
X00675000Y00271346D02*
X00684170D01*
X00552000Y00340250D02*
Y00382000D01*
X00469250Y00257500D02*
X00552000Y00340250D01*
X00623500Y00254000D02*
X00642932D01*
X00628000Y00271250D02*
X00672750D01*
X00626250Y00273000D02*
X00628000Y00271250D01*
X00672559Y00264750D02*
X00672654Y00264654D01*
X00653682Y00264750D02*
X00672559D01*
X00642932Y00254000D02*
X00653682Y00264750D01*
X00774000Y00232346D02*
X00791346D01*
X00747346D02*
X00774000D01*
Y00248000D01*
X00469250Y00255000D02*
Y00257500D01*
X00796000Y00441000D02*
X00798250Y00438750D01*
X00819800D01*
X00790500Y00433250D02*
X00791062D01*
X00641000Y00338000D02*
X00686000Y00293000D01*
X00626000Y00338000D02*
X00641000D01*
X00686000Y00281661D02*
Y00293000D01*
X00782000Y00426000D02*
X00782250Y00425750D01*
X00813878D02*
X00813878Y00425750D01*
X00782250Y00425750D02*
X00813878D01*
X00791062Y00433250D02*
X00792062Y00432250D01*
X00813878Y00425750D02*
X00819800D01*
X00792062Y00432250D02*
X00819800D01*
X00672654Y00264654D02*
X00672750Y00264750D01*
Y00277750D02*
X00672846Y00277846D01*
X00682185D02*
X00686000Y00281661D01*
X00672846Y00277846D02*
X00682185D01*
X00684170Y00271346D02*
X00692000Y00279176D01*
X00747250Y00232250D02*
X00747346Y00232346D01*
Y00206346D02*
X00763346D01*
X00769000Y00212000D02*
X00769000D01*
X00763346Y00206346D02*
X00769000Y00212000D01*
X00747250Y00206250D02*
X00747346Y00206346D01*
Y00199846D02*
X00770846D01*
X00771000Y00200000D01*
X00673000Y00652800D02*
X00739400Y00586400D01*
X00751000D01*
D48*
X00285000Y00320500D02*
D03*
X00467500Y00364000D02*
D03*
X00315000Y00420500D02*
D03*
X00285000Y00520500D02*
D03*
D49*
Y00355500D02*
D03*
X00315000Y00455500D02*
D03*
X00285000Y00555500D02*
D03*
D50*
X00169000Y00582000D02*
D03*
D51*
X00154034Y00620117D02*
D03*
X00109093Y00496642D02*
D03*
X00153755Y00260906D02*
D03*
X00108814Y00384382D02*
D03*
D52*
X00393200Y00500400D02*
D03*
X00419000Y00652800D02*
D03*
X00673000Y00500400D02*
D03*
D53*
X00393200Y00729000D02*
D03*
Y00652800D02*
D03*
Y00678200D02*
D03*
Y00576600D02*
D03*
Y00602000D02*
D03*
Y00525800D02*
D03*
Y00627400D02*
D03*
Y00703600D02*
D03*
Y00551200D02*
D03*
X00418600Y00500400D02*
D03*
X00673000Y00729000D02*
D03*
X00419000D02*
D03*
X00647600D02*
D03*
X00673000Y00703600D02*
D03*
X00419000D02*
D03*
X00647600D02*
D03*
X00673000Y00678200D02*
D03*
X00419000D02*
D03*
X00647600D02*
D03*
X00673000Y00652800D02*
D03*
X00647600D02*
D03*
X00673000Y00627400D02*
D03*
X00419000D02*
D03*
X00647600D02*
D03*
X00673000Y00602000D02*
D03*
X00419000D02*
D03*
X00647600D02*
D03*
X00673000Y00576600D02*
D03*
X00419000D02*
D03*
X00647600D02*
D03*
X00673000Y00551200D02*
D03*
X00419000D02*
D03*
X00647600D02*
D03*
X00673000Y00525800D02*
D03*
X00419000D02*
D03*
X00647600D02*
D03*
Y00500400D02*
D03*
D54*
X00432500Y00364000D02*
D03*
D55*
X00600000Y00338000D02*
D03*
X00574000D02*
D03*
X00626000Y00393000D02*
D03*
X00600000D02*
D03*
X00478000Y00289000D02*
D03*
X00452000D02*
D03*
D56*
X00626000Y00338000D02*
D03*
X00574000Y00393000D02*
D03*
X00426000Y00289000D02*
D03*
D57*
X00144779Y00364802D02*
D03*
D58*
X00758000Y00379000D02*
D03*
X00412384Y00383000D02*
D03*
X00337000Y00691000D02*
D03*
Y00666000D02*
D03*
X00552000Y00382000D02*
D03*
X00593750Y00369750D02*
D03*
X00426000Y00478000D02*
D03*
X00414000Y00469000D02*
D03*
X00385800Y00233850D02*
D03*
X00614000Y00310000D02*
D03*
X00580000Y00305000D02*
D03*
X00796000Y00441000D02*
D03*
X00790500Y00433250D02*
D03*
X00782000Y00464000D02*
D03*
X00769000Y00212000D02*
D03*
X00771000Y00200000D02*
D03*
M02*
