G04*
G04 #@! TF.GenerationSoftware,Altium Limited,Altium Designer,20.2.6 (244)*
G04*
G04 Layer_Color=8421504*
%FSAX44Y44*%
%MOMM*%
G71*
G04*
G04 #@! TF.SameCoordinates,65735EED-05C8-4403-9655-43ED446DB93E*
G04*
G04*
G04 #@! TF.FilePolarity,Positive*
G04*
G01*
G75*
%ADD12C,0.5000*%
%ADD15R,2.1000X0.9000*%
%ADD16R,2.1000X3.2000*%
%ADD17R,0.8500X1.3500*%
%ADD18R,1.3500X0.8500*%
%ADD19R,1.4000X1.2000*%
%ADD20R,1.2000X1.4000*%
%ADD21O,1.8500X0.4500*%
%ADD22R,1.9000X1.5000*%
%ADD23R,1.3500X0.4000*%
G36*
X00856300Y00402750D02*
X00837300D01*
Y00415750D01*
X00856300D01*
Y00402750D01*
D02*
G37*
G36*
X00851300Y00397750D02*
X00842300Y00397750D01*
Y00402750D01*
X00851300D01*
Y00397750D01*
D02*
G37*
G36*
X00851300Y00474750D02*
X00842300D01*
Y00479750D01*
X00851300Y00479750D01*
Y00474750D01*
D02*
G37*
G36*
X00856300Y00461750D02*
X00837300D01*
Y00474750D01*
X00856300D01*
Y00461750D01*
D02*
G37*
D12*
X00844800Y00474750D02*
G03*
X00844800Y00474750I-00002500J00000000D01*
G01*
X00853800D02*
G03*
X00853800Y00474750I-00002500J00000000D01*
G01*
X00844800Y00402750D02*
G03*
X00844800Y00402750I-00002500J00000000D01*
G01*
X00853800D02*
G03*
X00853800Y00402750I-00002500J00000000D01*
G01*
D15*
X00807500Y00317000D02*
D03*
Y00340000D02*
D03*
Y00363000D02*
D03*
D16*
X00750500Y00340000D02*
D03*
D17*
X00385750Y00112000D02*
D03*
X00402250D02*
D03*
X00355250D02*
D03*
X00338750D02*
D03*
X00596500Y00178000D02*
D03*
X00580000D02*
D03*
X00596500Y00159000D02*
D03*
X00580000D02*
D03*
X00596500Y00140000D02*
D03*
X00580000D02*
D03*
X00609750Y00273000D02*
D03*
X00626250D02*
D03*
X00609750Y00292000D02*
D03*
X00626250D02*
D03*
X00452750Y00255000D02*
D03*
X00469250D02*
D03*
X00426250D02*
D03*
X00409750D02*
D03*
D18*
X00453000Y00187000D02*
D03*
Y00170500D02*
D03*
X00538750Y00363250D02*
D03*
Y00346750D02*
D03*
D19*
X00225000Y00318500D02*
D03*
Y00335500D02*
D03*
Y00538500D02*
D03*
Y00555500D02*
D03*
X00774000Y00248000D02*
D03*
Y00265000D02*
D03*
D20*
X00606500Y00254000D02*
D03*
X00623500D02*
D03*
X00723500Y00340000D02*
D03*
X00706500D02*
D03*
X00756500Y00415000D02*
D03*
X00739500D02*
D03*
X00756750Y00436750D02*
D03*
X00739750D02*
D03*
D21*
X00747250Y00199750D02*
D03*
Y00206250D02*
D03*
Y00212750D02*
D03*
Y00219250D02*
D03*
Y00225750D02*
D03*
Y00232250D02*
D03*
Y00238750D02*
D03*
Y00245250D02*
D03*
Y00251750D02*
D03*
Y00258250D02*
D03*
Y00264750D02*
D03*
Y00271250D02*
D03*
Y00277750D02*
D03*
Y00284250D02*
D03*
X00672750Y00199750D02*
D03*
Y00206250D02*
D03*
Y00212750D02*
D03*
Y00219250D02*
D03*
Y00225750D02*
D03*
Y00232250D02*
D03*
Y00238750D02*
D03*
Y00245250D02*
D03*
Y00251750D02*
D03*
Y00258250D02*
D03*
Y00264750D02*
D03*
Y00271250D02*
D03*
Y00277750D02*
D03*
Y00284250D02*
D03*
D22*
X00846800Y00448750D02*
D03*
Y00428750D02*
D03*
D23*
X00819800Y00451750D02*
D03*
Y00445250D02*
D03*
Y00438750D02*
D03*
Y00432250D02*
D03*
Y00425750D02*
D03*
M02*
