G04*
G04 #@! TF.GenerationSoftware,Altium Limited,Altium Designer,20.2.6 (244)*
G04*
G04 Layer_Physical_Order=2*
G04 Layer_Color=16711680*
%FSAX44Y44*%
%MOMM*%
G71*
G04*
G04 #@! TF.SameCoordinates,65735EED-05C8-4403-9655-43ED446DB93E*
G04*
G04*
G04 #@! TF.FilePolarity,Positive*
G04*
G01*
G75*
%ADD11C,0.2540*%
%ADD14C,0.6000*%
%ADD33C,1.4500*%
%ADD37C,1.5500*%
%ADD41C,1.6500*%
%ADD47C,0.4000*%
%ADD48C,1.3500*%
%ADD49R,1.3500X1.3500*%
%ADD50P,2.0506X4X295.0*%
%ADD51C,2.8000*%
%ADD52R,1.8288X1.8288*%
%ADD53C,1.8288*%
%ADD54R,1.3500X1.3500*%
%ADD55C,1.4000*%
%ADD56R,1.4000X1.4000*%
%ADD57P,2.0506X4X335.0*%
%ADD58C,0.7000*%
G36*
X00460510Y00855495D02*
X00480971Y00853986D01*
X00501333Y00851475D01*
X00521548Y00847967D01*
X00541566Y00843472D01*
X00561339Y00838000D01*
X00580820Y00831564D01*
X00599961Y00824181D01*
X00618718Y00815866D01*
X00637043Y00806642D01*
X00654894Y00796530D01*
X00672228Y00785553D01*
X00689002Y00773740D01*
X00705176Y00761117D01*
X00720711Y00747717D01*
X00735570Y00733570D01*
X00749717Y00718711D01*
X00763118Y00703176D01*
X00775740Y00687002D01*
X00787553Y00670228D01*
X00798530Y00652894D01*
X00808642Y00635043D01*
X00817867Y00616717D01*
X00826181Y00597961D01*
X00833564Y00578820D01*
X00840000Y00559339D01*
X00845472Y00539565D01*
X00849967Y00519548D01*
X00853475Y00499333D01*
X00855986Y00478971D01*
X00856108Y00477315D01*
X00854866Y00476888D01*
X00854294Y00477744D01*
X00852462Y00478969D01*
X00850300Y00479399D01*
X00848070D01*
Y00473750D01*
Y00468102D01*
X00850300D01*
X00852462Y00468531D01*
X00854294Y00469756D01*
X00855283Y00471236D01*
X00856581Y00470913D01*
X00857495Y00458510D01*
X00857999Y00438000D01*
X00857495Y00417490D01*
X00856670Y00406300D01*
X00856255Y00406160D01*
X00855383Y00406115D01*
X00854294Y00407744D01*
X00852462Y00408969D01*
X00850300Y00409398D01*
X00848070D01*
Y00403750D01*
Y00398102D01*
X00850300D01*
X00852462Y00398531D01*
X00854294Y00399756D01*
X00854991Y00400798D01*
X00856233Y00400371D01*
X00855986Y00397029D01*
X00853475Y00376667D01*
X00849967Y00356452D01*
X00845472Y00336435D01*
X00840000Y00316661D01*
X00833564Y00297180D01*
X00826181Y00278039D01*
X00817867Y00259282D01*
X00808642Y00240957D01*
X00802326Y00229807D01*
X00801098Y00230131D01*
Y00424368D01*
X00802605Y00425874D01*
X00803710Y00427528D01*
X00804098Y00429479D01*
Y00437729D01*
X00803710Y00439680D01*
X00802605Y00441334D01*
X00801277Y00442662D01*
X00801181Y00443146D01*
X00799965Y00444965D01*
X00798146Y00446181D01*
X00796000Y00446608D01*
X00793854Y00446181D01*
X00792035Y00444965D01*
X00790819Y00443146D01*
X00790392Y00441000D01*
X00790577Y00440070D01*
X00790500Y00438858D01*
X00789656Y00438690D01*
X00788354Y00438431D01*
X00786535Y00437215D01*
X00785319Y00435396D01*
X00785161Y00434600D01*
X00781395Y00430834D01*
X00780290Y00429180D01*
X00779902Y00427229D01*
Y00230112D01*
X00767000Y00217210D01*
X00766854Y00217181D01*
X00765035Y00215965D01*
X00763819Y00214146D01*
X00763392Y00212000D01*
X00763819Y00209854D01*
X00765035Y00208035D01*
X00766854Y00206819D01*
X00768488Y00206494D01*
X00768795Y00205724D01*
X00768841Y00205305D01*
X00768824Y00205161D01*
X00767035Y00203965D01*
X00765819Y00202146D01*
X00765392Y00200000D01*
X00765819Y00197854D01*
X00767035Y00196035D01*
X00768854Y00194819D01*
X00771000Y00194392D01*
X00773146Y00194819D01*
X00774965Y00196035D01*
X00776181Y00197854D01*
X00776210Y00198000D01*
X00789646Y00211437D01*
X00790638Y00210643D01*
X00787553Y00205772D01*
X00775740Y00188998D01*
X00763118Y00172824D01*
X00749717Y00157289D01*
X00735570Y00142430D01*
X00720711Y00128283D01*
X00705176Y00114882D01*
X00689002Y00102260D01*
X00672228Y00090447D01*
X00654894Y00079470D01*
X00637043Y00069358D01*
X00618718Y00060134D01*
X00599961Y00051819D01*
X00580820Y00044436D01*
X00561339Y00038000D01*
X00541566Y00032528D01*
X00521548Y00028033D01*
X00501333Y00024525D01*
X00480971Y00022014D01*
X00460510Y00020505D01*
X00440000Y00020001D01*
X00419490Y00020505D01*
X00399029Y00022014D01*
X00378667Y00024525D01*
X00358452Y00028033D01*
X00338435Y00032528D01*
X00318661Y00038000D01*
X00299180Y00044436D01*
X00280039Y00051819D01*
X00261283Y00060134D01*
X00242957Y00069358D01*
X00225106Y00079470D01*
X00207772Y00090447D01*
X00190998Y00102260D01*
X00174824Y00114882D01*
X00159289Y00128283D01*
X00144430Y00142430D01*
X00130283Y00157289D01*
X00116882Y00172824D01*
X00104260Y00188998D01*
X00092447Y00205772D01*
X00081470Y00223106D01*
X00071358Y00240957D01*
X00062133Y00259282D01*
X00053819Y00278039D01*
X00046436Y00297180D01*
X00040000Y00316661D01*
X00034528Y00336435D01*
X00030033Y00356452D01*
X00026525Y00376667D01*
X00024014Y00397029D01*
X00022505Y00417490D01*
X00022001Y00438000D01*
X00022505Y00458510D01*
X00024014Y00478971D01*
X00026525Y00499333D01*
X00030033Y00519548D01*
X00034528Y00539565D01*
X00040000Y00559339D01*
X00046436Y00578820D01*
X00053819Y00597961D01*
X00062133Y00616717D01*
X00071358Y00635043D01*
X00081470Y00652894D01*
X00092447Y00670228D01*
X00104260Y00687002D01*
X00116882Y00703176D01*
X00130283Y00718711D01*
X00144430Y00733570D01*
X00159289Y00747717D01*
X00174824Y00761117D01*
X00190998Y00773740D01*
X00207772Y00785553D01*
X00225106Y00796530D01*
X00242957Y00806642D01*
X00261283Y00815866D01*
X00280039Y00824181D01*
X00299180Y00831564D01*
X00318661Y00838000D01*
X00338435Y00843472D01*
X00358452Y00847967D01*
X00378667Y00851475D01*
X00399029Y00853986D01*
X00419490Y00855495D01*
X00440000Y00855999D01*
X00460510Y00855495D01*
D02*
G37*
%LPC*%
G36*
X00419000Y00714840D02*
X00416091Y00714457D01*
X00413380Y00713334D01*
X00411052Y00711548D01*
X00409266Y00709220D01*
X00408143Y00706509D01*
X00407760Y00703600D01*
X00408143Y00700691D01*
X00409266Y00697980D01*
X00411052Y00695652D01*
X00413380Y00693866D01*
X00416091Y00692743D01*
X00419000Y00692360D01*
X00421909Y00692743D01*
X00424620Y00693866D01*
X00426948Y00695652D01*
X00428734Y00697980D01*
X00429857Y00700691D01*
X00430240Y00703600D01*
X00429857Y00706509D01*
X00428734Y00709220D01*
X00426948Y00711548D01*
X00424620Y00713334D01*
X00421909Y00714457D01*
X00419000Y00714840D01*
D02*
G37*
G36*
X00198000Y00752338D02*
X00195324Y00751986D01*
X00192831Y00750953D01*
X00190690Y00749310D01*
X00189047Y00747169D01*
X00188014Y00744676D01*
X00187662Y00742000D01*
X00188014Y00739324D01*
X00189047Y00736831D01*
X00190690Y00734690D01*
X00192831Y00733047D01*
X00193698Y00732687D01*
Y00731313D01*
X00192831Y00730953D01*
X00190690Y00729310D01*
X00189047Y00727169D01*
X00188014Y00724676D01*
X00187662Y00722000D01*
X00188014Y00719324D01*
X00189047Y00716831D01*
X00190690Y00714690D01*
X00192831Y00713047D01*
X00193698Y00712687D01*
Y00711313D01*
X00192831Y00710953D01*
X00190690Y00709310D01*
X00189047Y00707169D01*
X00188014Y00704676D01*
X00187662Y00702000D01*
X00188014Y00699324D01*
X00189047Y00696831D01*
X00190690Y00694690D01*
X00192831Y00693047D01*
X00193119Y00692927D01*
Y00691657D01*
X00192558Y00691425D01*
X00190305Y00689696D01*
X00188575Y00687442D01*
X00187488Y00684817D01*
X00187284Y00683270D01*
X00208716D01*
X00208512Y00684817D01*
X00208040Y00685956D01*
X00209066Y00686798D01*
X00209827Y00686290D01*
X00211778Y00685902D01*
X00334730D01*
X00334854Y00685819D01*
X00337000Y00685392D01*
X00339146Y00685819D01*
X00340965Y00687035D01*
X00342181Y00688854D01*
X00342608Y00691000D01*
X00342181Y00693146D01*
X00340965Y00694965D01*
X00339146Y00696181D01*
X00337000Y00696608D01*
X00334854Y00696181D01*
X00334730Y00696098D01*
X00213889D01*
X00208298Y00701690D01*
X00208338Y00702000D01*
X00207986Y00704676D01*
X00206953Y00707169D01*
X00205310Y00709310D01*
X00203169Y00710953D01*
X00202302Y00711313D01*
Y00712687D01*
X00203169Y00713047D01*
X00205310Y00714690D01*
X00206953Y00716831D01*
X00207986Y00719324D01*
X00208338Y00722000D01*
X00207986Y00724676D01*
X00206953Y00727169D01*
X00205310Y00729310D01*
X00203169Y00730953D01*
X00202302Y00731313D01*
Y00732687D01*
X00203169Y00733047D01*
X00205310Y00734690D01*
X00206953Y00736831D01*
X00207986Y00739324D01*
X00208338Y00742000D01*
X00207986Y00744676D01*
X00206953Y00747169D01*
X00205310Y00749310D01*
X00203169Y00750953D01*
X00200676Y00751986D01*
X00198000Y00752338D01*
D02*
G37*
G36*
X00647600Y00689440D02*
X00644691Y00689057D01*
X00641980Y00687934D01*
X00639652Y00686148D01*
X00637866Y00683820D01*
X00636743Y00681109D01*
X00636360Y00678200D01*
X00636743Y00675291D01*
X00637866Y00672580D01*
X00639652Y00670252D01*
X00641980Y00668466D01*
X00644691Y00667343D01*
X00647600Y00666960D01*
X00650509Y00667343D01*
X00653220Y00668466D01*
X00655548Y00670252D01*
X00657334Y00672580D01*
X00658457Y00675291D01*
X00658840Y00678200D01*
X00658457Y00681109D01*
X00657334Y00683820D01*
X00655548Y00686148D01*
X00653220Y00687934D01*
X00650509Y00689057D01*
X00647600Y00689440D01*
D02*
G37*
G36*
X00419000D02*
X00416091Y00689057D01*
X00413380Y00687934D01*
X00411052Y00686148D01*
X00409266Y00683820D01*
X00408143Y00681109D01*
X00407760Y00678200D01*
X00408143Y00675291D01*
X00409266Y00672580D01*
X00411052Y00670252D01*
X00413380Y00668466D01*
X00416091Y00667343D01*
X00419000Y00666960D01*
X00421909Y00667343D01*
X00424620Y00668466D01*
X00426948Y00670252D01*
X00428734Y00672580D01*
X00429857Y00675291D01*
X00430240Y00678200D01*
X00429857Y00681109D01*
X00428734Y00683820D01*
X00426948Y00686148D01*
X00424620Y00687934D01*
X00421909Y00689057D01*
X00419000Y00689440D01*
D02*
G37*
G36*
X00708000Y00751098D02*
X00390000D01*
X00388049Y00750710D01*
X00386395Y00749605D01*
X00375451Y00738661D01*
X00374346Y00737007D01*
X00373958Y00735056D01*
Y00616144D01*
X00374346Y00614193D01*
X00375451Y00612539D01*
X00382559Y00605431D01*
X00382343Y00604909D01*
X00381960Y00602000D01*
X00382343Y00599091D01*
X00383466Y00596380D01*
X00385252Y00594052D01*
X00386345Y00593213D01*
X00386355Y00593188D01*
X00386351Y00592234D01*
X00386213Y00591714D01*
X00385700Y00591371D01*
X00367643Y00573313D01*
X00366920Y00572232D01*
X00366666Y00570956D01*
Y00328381D01*
X00282244Y00243959D01*
X00281517Y00244517D01*
X00279145Y00245499D01*
X00276600Y00245834D01*
X00274055Y00245499D01*
X00271683Y00244517D01*
X00269646Y00242954D01*
X00268083Y00240917D01*
X00267101Y00238545D01*
X00266766Y00236000D01*
X00267101Y00233455D01*
X00268083Y00231083D01*
X00269646Y00229046D01*
X00271683Y00227483D01*
X00274055Y00226501D01*
X00276600Y00226166D01*
X00279145Y00226501D01*
X00281517Y00227483D01*
X00283554Y00229046D01*
X00285117Y00231083D01*
X00286099Y00233455D01*
X00286434Y00236000D01*
X00286118Y00238403D01*
X00372357Y00324642D01*
X00373080Y00325724D01*
X00373334Y00327000D01*
Y00569575D01*
X00380886Y00577127D01*
X00381982Y00576427D01*
X00382343Y00573691D01*
X00383466Y00570980D01*
X00385252Y00568652D01*
X00387580Y00566866D01*
X00390291Y00565743D01*
X00393200Y00565360D01*
X00396109Y00565743D01*
X00398820Y00566866D01*
X00401010Y00568546D01*
X00402280Y00568266D01*
Y00559534D01*
X00401010Y00559254D01*
X00398820Y00560934D01*
X00396109Y00562057D01*
X00393200Y00562440D01*
X00390291Y00562057D01*
X00387580Y00560934D01*
X00385252Y00559148D01*
X00383466Y00556820D01*
X00382343Y00554109D01*
X00381960Y00551200D01*
X00382343Y00548291D01*
X00383466Y00545580D01*
X00385252Y00543252D01*
X00387580Y00541466D01*
X00390291Y00540343D01*
X00393200Y00539960D01*
X00396109Y00540343D01*
X00398820Y00541466D01*
X00401010Y00543146D01*
X00402280Y00542866D01*
Y00534134D01*
X00401010Y00533854D01*
X00398820Y00535534D01*
X00396109Y00536657D01*
X00393200Y00537040D01*
X00390291Y00536657D01*
X00387580Y00535534D01*
X00385252Y00533748D01*
X00383466Y00531420D01*
X00382343Y00528709D01*
X00381960Y00525800D01*
X00382343Y00522891D01*
X00383466Y00520180D01*
X00385252Y00517852D01*
X00387580Y00516066D01*
X00390291Y00514943D01*
X00393200Y00514560D01*
X00396109Y00514943D01*
X00398820Y00516066D01*
X00401010Y00517746D01*
X00402280Y00517466D01*
Y00512084D01*
X00394470D01*
Y00500400D01*
Y00488716D01*
X00402280D01*
Y00340995D01*
X00397487Y00336202D01*
X00396348Y00336763D01*
X00396379Y00337000D01*
X00396025Y00339686D01*
X00394988Y00342189D01*
X00393339Y00344339D01*
X00391189Y00345988D01*
X00388686Y00347025D01*
X00387270Y00347212D01*
Y00337000D01*
X00386000D01*
Y00335730D01*
X00375788D01*
X00375975Y00334314D01*
X00377012Y00331811D01*
X00378661Y00329661D01*
X00380811Y00328012D01*
X00383314Y00326975D01*
X00386000Y00326621D01*
X00386236Y00326652D01*
X00386798Y00325513D01*
X00306128Y00244843D01*
X00304545Y00245499D01*
X00302000Y00245834D01*
X00299455Y00245499D01*
X00297083Y00244517D01*
X00295046Y00242954D01*
X00293483Y00240917D01*
X00292501Y00238545D01*
X00292166Y00236000D01*
X00292501Y00233455D01*
X00293483Y00231083D01*
X00295046Y00229046D01*
X00297083Y00227483D01*
X00299455Y00226501D01*
X00302000Y00226166D01*
X00304545Y00226501D01*
X00306917Y00227483D01*
X00308954Y00229046D01*
X00310517Y00231083D01*
X00311499Y00233455D01*
X00311834Y00236000D01*
X00311499Y00238545D01*
X00310843Y00240128D01*
X00406113Y00335398D01*
X00407286Y00334912D01*
Y00262547D01*
X00383800Y00239060D01*
X00383654Y00239031D01*
X00381834Y00237816D01*
X00380619Y00235996D01*
X00380192Y00233850D01*
X00380619Y00231705D01*
X00381834Y00229885D01*
X00383654Y00228670D01*
X00385800Y00228243D01*
X00387946Y00228670D01*
X00389765Y00229885D01*
X00390980Y00231705D01*
X00391010Y00231851D01*
X00415989Y00256830D01*
X00417094Y00258484D01*
X00417482Y00260435D01*
Y00280000D01*
X00435000D01*
Y00298000D01*
X00417482D01*
Y00380730D01*
X00417565Y00380854D01*
X00417992Y00383000D01*
X00417565Y00385146D01*
X00416349Y00386965D01*
X00414530Y00388181D01*
X00412384Y00388608D01*
X00410238Y00388181D01*
X00410068Y00388067D01*
X00408948Y00388666D01*
Y00464549D01*
X00410218Y00464912D01*
X00411854Y00463819D01*
X00412000Y00463790D01*
X00419902Y00455888D01*
Y00395000D01*
X00420290Y00393049D01*
X00421395Y00391395D01*
X00438770Y00374020D01*
X00438244Y00372750D01*
X00423750D01*
Y00355250D01*
X00439902D01*
Y00353000D01*
X00440290Y00351049D01*
X00441395Y00349395D01*
X00549702Y00241088D01*
Y00216378D01*
X00547846Y00214954D01*
X00546283Y00212917D01*
X00545301Y00210545D01*
X00544966Y00208000D01*
X00545301Y00205455D01*
X00546283Y00203083D01*
X00547846Y00201046D01*
X00549883Y00199483D01*
X00552255Y00198501D01*
X00554800Y00198166D01*
X00557345Y00198501D01*
X00559717Y00199483D01*
X00561754Y00201046D01*
X00563317Y00203083D01*
X00564299Y00205455D01*
X00564634Y00208000D01*
X00564299Y00210545D01*
X00563317Y00212917D01*
X00561754Y00214954D01*
X00559898Y00216378D01*
Y00243096D01*
X00560136Y00243299D01*
X00561094Y00243696D01*
X00575102Y00229688D01*
Y00216378D01*
X00573246Y00214954D01*
X00571683Y00212917D01*
X00570701Y00210545D01*
X00570366Y00208000D01*
X00570701Y00205455D01*
X00571683Y00203083D01*
X00573246Y00201046D01*
X00575283Y00199483D01*
X00577655Y00198501D01*
X00580200Y00198166D01*
X00582745Y00198501D01*
X00585117Y00199483D01*
X00587154Y00201046D01*
X00588717Y00203083D01*
X00589699Y00205455D01*
X00590034Y00208000D01*
X00589699Y00210545D01*
X00588717Y00212917D01*
X00587154Y00214954D01*
X00585298Y00216378D01*
Y00231800D01*
X00584910Y00233751D01*
X00583805Y00235405D01*
X00465612Y00353597D01*
X00466205Y00354800D01*
X00466230Y00354797D01*
Y00364000D01*
Y00373203D01*
X00465075Y00373051D01*
X00462815Y00372115D01*
X00462237Y00371671D01*
X00461098Y00372233D01*
Y00378000D01*
X00460710Y00379951D01*
X00459605Y00381605D01*
X00440098Y00401112D01*
Y00414543D01*
X00441271Y00415029D01*
X00508658Y00347642D01*
X00508790Y00347554D01*
X00508803Y00346670D01*
X00508689Y00346095D01*
X00506661Y00344539D01*
X00505012Y00342389D01*
X00503975Y00339886D01*
X00503788Y00338470D01*
X00514000D01*
X00524212D01*
X00524025Y00339886D01*
X00522988Y00342389D01*
X00521339Y00344539D01*
X00520222Y00345396D01*
X00520653Y00346666D01*
X00560619D01*
X00565731Y00341554D01*
X00565232Y00340350D01*
X00564922Y00338000D01*
X00565232Y00335650D01*
X00566139Y00333461D01*
X00567581Y00331581D01*
X00569461Y00330139D01*
X00571651Y00329232D01*
X00573984Y00328924D01*
X00574001Y00328922D01*
X00575051Y00327780D01*
X00574902Y00327029D01*
Y00307270D01*
X00574819Y00307146D01*
X00574392Y00305000D01*
X00574819Y00302854D01*
X00576035Y00301035D01*
X00577854Y00299819D01*
X00580000Y00299392D01*
X00582146Y00299819D01*
X00583965Y00301035D01*
X00585181Y00302854D01*
X00585608Y00305000D01*
X00585181Y00307146D01*
X00585098Y00307270D01*
Y00324918D01*
X00591605Y00331425D01*
X00591975Y00331979D01*
X00593244Y00332020D01*
X00593581Y00331581D01*
X00595461Y00330139D01*
X00597650Y00329232D01*
X00600000Y00328922D01*
X00602350Y00329232D01*
X00604539Y00330139D01*
X00606419Y00331581D01*
X00607632Y00333162D01*
X00608902Y00332811D01*
Y00312270D01*
X00608819Y00312146D01*
X00608392Y00310000D01*
X00608819Y00307854D01*
X00610035Y00306035D01*
X00611854Y00304819D01*
X00614000Y00304392D01*
X00616146Y00304819D01*
X00617965Y00306035D01*
X00619181Y00307854D01*
X00619608Y00310000D01*
X00619181Y00312146D01*
X00619098Y00312270D01*
Y00329000D01*
X00635000D01*
Y00347000D01*
X00619098D01*
Y00379324D01*
X00618710Y00381275D01*
X00617605Y00382929D01*
X00608898Y00391636D01*
X00609078Y00393000D01*
X00608768Y00395350D01*
X00607862Y00397539D01*
X00606419Y00399419D01*
X00604539Y00400861D01*
X00602350Y00401768D01*
X00600983Y00401948D01*
X00600528Y00403289D01*
X00669141Y00471902D01*
X00688485D01*
X00690436Y00472290D01*
X00692090Y00473395D01*
X00695605Y00476910D01*
X00696710Y00478564D01*
X00697098Y00480515D01*
Y00583000D01*
X00696710Y00584951D01*
X00695605Y00586605D01*
X00683641Y00598569D01*
X00683857Y00599091D01*
X00684240Y00602000D01*
X00683857Y00604909D01*
X00682734Y00607620D01*
X00680948Y00609948D01*
X00678620Y00611734D01*
X00675909Y00612857D01*
X00673000Y00613240D01*
X00670091Y00612857D01*
X00667380Y00611734D01*
X00665052Y00609948D01*
X00663266Y00607620D01*
X00662143Y00604909D01*
X00661760Y00602000D01*
X00662143Y00599091D01*
X00663266Y00596380D01*
X00665052Y00594052D01*
X00667380Y00592266D01*
X00670091Y00591143D01*
X00673000Y00590760D01*
X00675909Y00591143D01*
X00676431Y00591359D01*
X00686902Y00580888D01*
Y00482626D01*
X00686374Y00482098D01*
X00667029D01*
X00665079Y00481710D01*
X00663425Y00480605D01*
X00584173Y00401353D01*
X00583000Y00401839D01*
Y00402000D01*
X00570427D01*
X00569941Y00403173D01*
X00633227Y00466459D01*
X00633227Y00466459D01*
X00634111Y00467782D01*
X00634422Y00469343D01*
Y00506854D01*
X00643149Y00515581D01*
X00644691Y00514943D01*
X00647600Y00514560D01*
X00650509Y00514943D01*
X00653220Y00516066D01*
X00655548Y00517852D01*
X00657334Y00520180D01*
X00658457Y00522891D01*
X00658840Y00525800D01*
X00658457Y00528709D01*
X00657334Y00531420D01*
X00655548Y00533748D01*
X00653220Y00535534D01*
X00650509Y00536657D01*
X00647600Y00537040D01*
X00644691Y00536657D01*
X00641980Y00535534D01*
X00639652Y00533748D01*
X00637866Y00531420D01*
X00636743Y00528709D01*
X00636360Y00525800D01*
X00636743Y00522891D01*
X00637381Y00521349D01*
X00628348Y00512316D01*
X00627078Y00512842D01*
Y00524911D01*
X00643149Y00540981D01*
X00644691Y00540343D01*
X00647600Y00539960D01*
X00650509Y00540343D01*
X00653220Y00541466D01*
X00655548Y00543252D01*
X00657334Y00545580D01*
X00658457Y00548291D01*
X00658840Y00551200D01*
X00658457Y00554109D01*
X00657334Y00556820D01*
X00655548Y00559148D01*
X00653220Y00560934D01*
X00650509Y00562057D01*
X00647600Y00562440D01*
X00644691Y00562057D01*
X00641980Y00560934D01*
X00639652Y00559148D01*
X00637866Y00556820D01*
X00636743Y00554109D01*
X00636360Y00551200D01*
X00636743Y00548291D01*
X00637382Y00546749D01*
X00620116Y00529484D01*
X00619232Y00528161D01*
X00618922Y00526600D01*
X00618922Y00526600D01*
Y00473689D01*
X00554311Y00409078D01*
X00506000D01*
X00504439Y00408768D01*
X00503116Y00407884D01*
X00496116Y00400884D01*
X00495232Y00399561D01*
X00494922Y00398000D01*
X00494922Y00398000D01*
Y00377600D01*
X00494922Y00377600D01*
X00495232Y00376039D01*
X00496116Y00374716D01*
X00504848Y00365984D01*
X00504501Y00365145D01*
X00504254Y00363272D01*
X00502914Y00362817D01*
X00444604Y00421126D01*
Y00622686D01*
X00444350Y00623962D01*
X00443628Y00625043D01*
X00428188Y00640483D01*
X00428674Y00641656D01*
X00430144D01*
Y00663944D01*
X00407856D01*
Y00644655D01*
X00406586Y00644129D01*
X00403110Y00647605D01*
X00404057Y00649891D01*
X00404440Y00652800D01*
X00404057Y00655709D01*
X00402934Y00658420D01*
X00401148Y00660748D01*
X00398820Y00662534D01*
X00396109Y00663657D01*
X00393200Y00664040D01*
X00390291Y00663657D01*
X00387580Y00662534D01*
X00385424Y00660880D01*
X00384154Y00661193D01*
Y00669807D01*
X00385424Y00670120D01*
X00387580Y00668466D01*
X00390291Y00667343D01*
X00393200Y00666960D01*
X00396109Y00667343D01*
X00398820Y00668466D01*
X00401148Y00670252D01*
X00402934Y00672580D01*
X00404057Y00675291D01*
X00404440Y00678200D01*
X00404057Y00681109D01*
X00402934Y00683820D01*
X00401148Y00686148D01*
X00398820Y00687934D01*
X00396109Y00689057D01*
X00393200Y00689440D01*
X00390291Y00689057D01*
X00387580Y00687934D01*
X00385424Y00686280D01*
X00384154Y00686593D01*
Y00695207D01*
X00385424Y00695520D01*
X00387580Y00693866D01*
X00390291Y00692743D01*
X00393200Y00692360D01*
X00396109Y00692743D01*
X00398820Y00693866D01*
X00401148Y00695652D01*
X00402934Y00697980D01*
X00404057Y00700691D01*
X00404440Y00703600D01*
X00404057Y00706509D01*
X00402934Y00709220D01*
X00401148Y00711548D01*
X00398820Y00713334D01*
X00396109Y00714457D01*
X00393200Y00714840D01*
X00390291Y00714457D01*
X00387580Y00713334D01*
X00385424Y00711680D01*
X00384154Y00711993D01*
Y00720607D01*
X00385424Y00720920D01*
X00387580Y00719266D01*
X00390291Y00718143D01*
X00393200Y00717760D01*
X00396109Y00718143D01*
X00398820Y00719266D01*
X00401148Y00721052D01*
X00402934Y00723380D01*
X00404057Y00726091D01*
X00404440Y00729000D01*
X00404057Y00731909D01*
X00402934Y00734620D01*
X00401148Y00736948D01*
X00398820Y00738734D01*
X00396653Y00739632D01*
X00396905Y00740902D01*
X00415295D01*
X00415547Y00739632D01*
X00413380Y00738734D01*
X00411052Y00736948D01*
X00409266Y00734620D01*
X00408143Y00731909D01*
X00407760Y00729000D01*
X00408143Y00726091D01*
X00409266Y00723380D01*
X00411052Y00721052D01*
X00413380Y00719266D01*
X00416091Y00718143D01*
X00419000Y00717760D01*
X00421909Y00718143D01*
X00424620Y00719266D01*
X00426948Y00721052D01*
X00428734Y00723380D01*
X00429857Y00726091D01*
X00430240Y00729000D01*
X00429857Y00731909D01*
X00428734Y00734620D01*
X00426948Y00736948D01*
X00424620Y00738734D01*
X00422453Y00739632D01*
X00422705Y00740902D01*
X00643895D01*
X00644147Y00739632D01*
X00641980Y00738734D01*
X00639652Y00736948D01*
X00637866Y00734620D01*
X00636743Y00731909D01*
X00636360Y00729000D01*
X00636743Y00726091D01*
X00637866Y00723380D01*
X00639652Y00721052D01*
X00641980Y00719266D01*
X00644691Y00718143D01*
X00647600Y00717760D01*
X00650509Y00718143D01*
X00653220Y00719266D01*
X00655548Y00721052D01*
X00657334Y00723380D01*
X00658457Y00726091D01*
X00658840Y00729000D01*
X00658457Y00731909D01*
X00657334Y00734620D01*
X00655548Y00736948D01*
X00653220Y00738734D01*
X00651053Y00739632D01*
X00651305Y00740902D01*
X00669295D01*
X00669547Y00739632D01*
X00667380Y00738734D01*
X00665052Y00736948D01*
X00663266Y00734620D01*
X00662143Y00731909D01*
X00661760Y00729000D01*
X00662143Y00726091D01*
X00663266Y00723380D01*
X00665052Y00721052D01*
X00667380Y00719266D01*
X00670091Y00718143D01*
X00673000Y00717760D01*
X00675909Y00718143D01*
X00678620Y00719266D01*
X00680948Y00721052D01*
X00682734Y00723380D01*
X00683857Y00726091D01*
X00684240Y00729000D01*
X00683857Y00731909D01*
X00682734Y00734620D01*
X00680948Y00736948D01*
X00678620Y00738734D01*
X00676453Y00739632D01*
X00676705Y00740902D01*
X00705888D01*
X00731902Y00714888D01*
Y00660472D01*
X00730729Y00659986D01*
X00697564Y00693151D01*
X00696482Y00693874D01*
X00695207Y00694127D01*
X00680937D01*
X00680528Y00695330D01*
X00680948Y00695652D01*
X00682734Y00697980D01*
X00683857Y00700691D01*
X00684240Y00703600D01*
X00683857Y00706509D01*
X00682734Y00709220D01*
X00680948Y00711548D01*
X00678620Y00713334D01*
X00675909Y00714457D01*
X00673000Y00714840D01*
X00670091Y00714457D01*
X00667380Y00713334D01*
X00665052Y00711548D01*
X00663266Y00709220D01*
X00662143Y00706509D01*
X00661760Y00703600D01*
X00662143Y00700691D01*
X00663266Y00697980D01*
X00665052Y00695652D01*
X00665472Y00695330D01*
X00665063Y00694127D01*
X00661788D01*
X00657510Y00698405D01*
X00658457Y00700691D01*
X00658840Y00703600D01*
X00658457Y00706509D01*
X00657334Y00709220D01*
X00655548Y00711548D01*
X00653220Y00713334D01*
X00650509Y00714457D01*
X00647600Y00714840D01*
X00644691Y00714457D01*
X00641980Y00713334D01*
X00639652Y00711548D01*
X00637866Y00709220D01*
X00636743Y00706509D01*
X00636360Y00703600D01*
X00636743Y00700691D01*
X00637866Y00697980D01*
X00639652Y00695652D01*
X00641980Y00693866D01*
X00644691Y00692743D01*
X00647600Y00692360D01*
X00650509Y00692743D01*
X00652795Y00693690D01*
X00658049Y00688436D01*
X00659131Y00687713D01*
X00660407Y00687459D01*
X00664786D01*
X00665194Y00686257D01*
X00665052Y00686148D01*
X00663266Y00683820D01*
X00662143Y00681109D01*
X00661760Y00678200D01*
X00662143Y00675291D01*
X00663266Y00672580D01*
X00665052Y00670252D01*
X00667380Y00668466D01*
X00670091Y00667343D01*
X00673000Y00666960D01*
X00675909Y00667343D01*
X00678620Y00668466D01*
X00680948Y00670252D01*
X00682734Y00672580D01*
X00683857Y00675291D01*
X00684240Y00678200D01*
X00683857Y00681109D01*
X00682734Y00683820D01*
X00680948Y00686148D01*
X00680806Y00686257D01*
X00681215Y00687459D01*
X00693826D01*
X00726666Y00654619D01*
Y00571391D01*
X00726920Y00570115D01*
X00727643Y00569033D01*
X00738033Y00558643D01*
X00739115Y00557920D01*
X00740391Y00557666D01*
X00741828D01*
X00742483Y00556083D01*
X00744046Y00554046D01*
X00746083Y00552483D01*
X00748455Y00551501D01*
X00751000Y00551166D01*
X00753545Y00551501D01*
X00755917Y00552483D01*
X00757954Y00554046D01*
X00759517Y00556083D01*
X00760499Y00558455D01*
X00760834Y00561000D01*
X00760499Y00563545D01*
X00759517Y00565917D01*
X00757954Y00567954D01*
X00755917Y00569517D01*
X00753545Y00570499D01*
X00751000Y00570834D01*
X00748455Y00570499D01*
X00746083Y00569517D01*
X00744046Y00567954D01*
X00742483Y00565917D01*
X00742337Y00565564D01*
X00740839Y00565266D01*
X00733334Y00572772D01*
Y00620460D01*
X00734604Y00620986D01*
X00741471Y00614119D01*
X00741166Y00611800D01*
X00741501Y00609255D01*
X00742483Y00606883D01*
X00744046Y00604846D01*
X00746083Y00603283D01*
X00748455Y00602301D01*
X00751000Y00601966D01*
X00753545Y00602301D01*
X00755917Y00603283D01*
X00757954Y00604846D01*
X00759517Y00606883D01*
X00760499Y00609255D01*
X00760834Y00611800D01*
X00760499Y00614345D01*
X00759517Y00616717D01*
X00757954Y00618754D01*
X00755917Y00620317D01*
X00753545Y00621299D01*
X00751000Y00621634D01*
X00748681Y00621329D01*
X00742098Y00627912D01*
Y00630699D01*
X00743368Y00631130D01*
X00744046Y00630246D01*
X00746083Y00628683D01*
X00748455Y00627701D01*
X00751000Y00627366D01*
X00753319Y00627671D01*
X00767902Y00613088D01*
Y00473000D01*
X00768290Y00471049D01*
X00769395Y00469395D01*
X00776790Y00462000D01*
X00776819Y00461854D01*
X00778035Y00460035D01*
X00779854Y00458819D01*
X00782000Y00458392D01*
X00784146Y00458819D01*
X00785965Y00460035D01*
X00787181Y00461854D01*
X00787608Y00464000D01*
X00787181Y00466146D01*
X00785965Y00467965D01*
X00784146Y00469181D01*
X00784000Y00469210D01*
X00778098Y00475112D01*
Y00615200D01*
X00777710Y00617151D01*
X00776605Y00618805D01*
X00760529Y00634881D01*
X00760834Y00637200D01*
X00760499Y00639745D01*
X00759517Y00642117D01*
X00757954Y00644154D01*
X00755917Y00645717D01*
X00753545Y00646699D01*
X00751000Y00647034D01*
X00748455Y00646699D01*
X00746083Y00645717D01*
X00744046Y00644154D01*
X00743368Y00643270D01*
X00742098Y00643701D01*
Y00656099D01*
X00743368Y00656530D01*
X00744046Y00655646D01*
X00746083Y00654083D01*
X00748455Y00653101D01*
X00751000Y00652766D01*
X00753319Y00653071D01*
X00789902Y00616488D01*
Y00461112D01*
X00754395Y00425605D01*
X00753290Y00423951D01*
X00752902Y00422000D01*
Y00381270D01*
X00752819Y00381146D01*
X00752392Y00379000D01*
X00752819Y00376854D01*
X00752902Y00376730D01*
Y00337112D01*
X00633319Y00217529D01*
X00631000Y00217834D01*
X00628455Y00217499D01*
X00626083Y00216517D01*
X00624046Y00214954D01*
X00622483Y00212917D01*
X00621501Y00210545D01*
X00621166Y00208000D01*
X00621501Y00205455D01*
X00622483Y00203083D01*
X00624046Y00201046D01*
X00626083Y00199483D01*
X00628455Y00198501D01*
X00631000Y00198166D01*
X00633545Y00198501D01*
X00635917Y00199483D01*
X00637954Y00201046D01*
X00639517Y00203083D01*
X00640499Y00205455D01*
X00640834Y00208000D01*
X00640529Y00210319D01*
X00761605Y00331395D01*
X00762710Y00333049D01*
X00763098Y00335000D01*
Y00376730D01*
X00763181Y00376854D01*
X00763608Y00379000D01*
X00763181Y00381146D01*
X00763098Y00381270D01*
Y00419888D01*
X00798605Y00455395D01*
X00799710Y00457049D01*
X00800098Y00459000D01*
Y00618600D01*
X00799710Y00620551D01*
X00798605Y00622205D01*
X00760529Y00660281D01*
X00760834Y00662600D01*
X00760499Y00665145D01*
X00759517Y00667517D01*
X00757954Y00669554D01*
X00755917Y00671117D01*
X00753545Y00672099D01*
X00751000Y00672434D01*
X00748455Y00672099D01*
X00746083Y00671117D01*
X00744046Y00669554D01*
X00743368Y00668670D01*
X00742098Y00669101D01*
Y00717000D01*
X00741710Y00718951D01*
X00740605Y00720605D01*
X00711605Y00749605D01*
X00709951Y00750710D01*
X00708000Y00751098D01*
D02*
G37*
G36*
X00208716Y00680730D02*
X00187284D01*
X00187488Y00679183D01*
X00188575Y00676558D01*
X00190305Y00674305D01*
X00192558Y00672575D01*
X00193119Y00672343D01*
Y00671073D01*
X00192831Y00670953D01*
X00190690Y00669310D01*
X00189047Y00667169D01*
X00188014Y00664676D01*
X00187662Y00662000D01*
X00188014Y00659324D01*
X00189047Y00656831D01*
X00190690Y00654690D01*
X00192831Y00653047D01*
X00195324Y00652014D01*
X00198000Y00651662D01*
X00200676Y00652014D01*
X00203169Y00653047D01*
X00205310Y00654690D01*
X00206953Y00656831D01*
X00207986Y00659324D01*
X00208338Y00662000D01*
X00207986Y00664676D01*
X00206953Y00667169D01*
X00205310Y00669310D01*
X00203169Y00670953D01*
X00202881Y00671073D01*
Y00672343D01*
X00203442Y00672575D01*
X00205695Y00674305D01*
X00207425Y00676558D01*
X00208512Y00679183D01*
X00208716Y00680730D01*
D02*
G37*
G36*
X00673000Y00664040D02*
X00670091Y00663657D01*
X00667380Y00662534D01*
X00665052Y00660748D01*
X00663266Y00658420D01*
X00662143Y00655709D01*
X00661760Y00652800D01*
X00662143Y00649891D01*
X00663266Y00647180D01*
X00665052Y00644852D01*
X00667380Y00643066D01*
X00670091Y00641943D01*
X00673000Y00641560D01*
X00675909Y00641943D01*
X00678620Y00643066D01*
X00680948Y00644852D01*
X00682734Y00647180D01*
X00683857Y00649891D01*
X00684240Y00652800D01*
X00683857Y00655709D01*
X00682734Y00658420D01*
X00680948Y00660748D01*
X00678620Y00662534D01*
X00675909Y00663657D01*
X00673000Y00664040D01*
D02*
G37*
G36*
X00647600D02*
X00644691Y00663657D01*
X00641980Y00662534D01*
X00639652Y00660748D01*
X00637866Y00658420D01*
X00636743Y00655709D01*
X00636360Y00652800D01*
X00636743Y00649891D01*
X00637866Y00647180D01*
X00639652Y00644852D01*
X00641980Y00643066D01*
X00644691Y00641943D01*
X00647600Y00641560D01*
X00650509Y00641943D01*
X00653220Y00643066D01*
X00655548Y00644852D01*
X00657334Y00647180D01*
X00658457Y00649891D01*
X00658840Y00652800D01*
X00658457Y00655709D01*
X00657334Y00658420D01*
X00655548Y00660748D01*
X00653220Y00662534D01*
X00650509Y00663657D01*
X00647600Y00664040D01*
D02*
G37*
G36*
X00153309Y00636721D02*
X00150084Y00636261D01*
X00147010Y00635180D01*
X00144207Y00633520D01*
X00141781Y00631346D01*
X00139826Y00628739D01*
X00138968Y00626952D01*
X00153275Y00621745D01*
X00158483Y00636052D01*
X00156563Y00636544D01*
X00153309Y00636721D01*
D02*
G37*
G36*
X00673000Y00638640D02*
X00670091Y00638257D01*
X00667380Y00637134D01*
X00665052Y00635348D01*
X00663266Y00633020D01*
X00662143Y00630309D01*
X00661760Y00627400D01*
X00662143Y00624491D01*
X00663266Y00621780D01*
X00665052Y00619452D01*
X00667380Y00617666D01*
X00670091Y00616543D01*
X00673000Y00616160D01*
X00675909Y00616543D01*
X00678620Y00617666D01*
X00680948Y00619452D01*
X00682734Y00621780D01*
X00683857Y00624491D01*
X00684240Y00627400D01*
X00683857Y00630309D01*
X00682734Y00633020D01*
X00680948Y00635348D01*
X00678620Y00637134D01*
X00675909Y00638257D01*
X00673000Y00638640D01*
D02*
G37*
G36*
X00647600D02*
X00644691Y00638257D01*
X00641980Y00637134D01*
X00639652Y00635348D01*
X00637866Y00633020D01*
X00636743Y00630309D01*
X00636360Y00627400D01*
X00636743Y00624491D01*
X00637866Y00621780D01*
X00639652Y00619452D01*
X00641980Y00617666D01*
X00644691Y00616543D01*
X00647600Y00616160D01*
X00650509Y00616543D01*
X00653220Y00617666D01*
X00655548Y00619452D01*
X00657334Y00621780D01*
X00658457Y00624491D01*
X00658840Y00627400D01*
X00658457Y00630309D01*
X00657334Y00633020D01*
X00655548Y00635348D01*
X00653220Y00637134D01*
X00650509Y00638257D01*
X00647600Y00638640D01*
D02*
G37*
G36*
X00160869Y00635183D02*
X00155662Y00620876D01*
X00169969Y00615669D01*
X00170461Y00617589D01*
X00170639Y00620842D01*
X00170178Y00624068D01*
X00169097Y00627141D01*
X00167437Y00629945D01*
X00165263Y00632371D01*
X00162656Y00634326D01*
X00160869Y00635183D01*
D02*
G37*
G36*
X00138100Y00624566D02*
X00137608Y00622646D01*
X00137430Y00619392D01*
X00137891Y00616167D01*
X00138972Y00613093D01*
X00140631Y00610290D01*
X00142806Y00607864D01*
X00145412Y00605909D01*
X00147199Y00605051D01*
X00152407Y00619358D01*
X00138100Y00624566D01*
D02*
G37*
G36*
X00154793Y00618489D02*
X00149586Y00604183D01*
X00151506Y00603691D01*
X00154759Y00603513D01*
X00157985Y00603974D01*
X00161058Y00605054D01*
X00163862Y00606714D01*
X00166288Y00608889D01*
X00168243Y00611495D01*
X00169100Y00613282D01*
X00154793Y00618489D01*
D02*
G37*
G36*
X00647600Y00613240D02*
X00644691Y00612857D01*
X00641980Y00611734D01*
X00639652Y00609948D01*
X00637866Y00607620D01*
X00636743Y00604909D01*
X00636360Y00602000D01*
X00636743Y00599091D01*
X00637866Y00596380D01*
X00639652Y00594052D01*
X00641980Y00592266D01*
X00644691Y00591143D01*
X00647600Y00590760D01*
X00650509Y00591143D01*
X00653220Y00592266D01*
X00655548Y00594052D01*
X00657334Y00596380D01*
X00658457Y00599091D01*
X00658840Y00602000D01*
X00658457Y00604909D01*
X00657334Y00607620D01*
X00655548Y00609948D01*
X00653220Y00611734D01*
X00650509Y00612857D01*
X00647600Y00613240D01*
D02*
G37*
G36*
X00337000Y00671608D02*
X00334854Y00671181D01*
X00333035Y00669965D01*
X00331819Y00668146D01*
X00331790Y00668000D01*
X00255895Y00592105D01*
X00254790Y00590451D01*
X00254402Y00588500D01*
Y00587098D01*
X00181157D01*
X00180856Y00587528D01*
Y00587528D01*
X00163472Y00593856D01*
X00157144Y00576471D01*
X00174529Y00570144D01*
X00176988Y00576902D01*
X00257388D01*
X00276250Y00558040D01*
Y00546750D01*
X00293750D01*
Y00564250D01*
X00284460D01*
X00264598Y00584112D01*
Y00586388D01*
X00339000Y00660790D01*
X00339146Y00660819D01*
X00340965Y00662035D01*
X00342181Y00663854D01*
X00342608Y00666000D01*
X00342181Y00668146D01*
X00340965Y00669965D01*
X00339146Y00671181D01*
X00337000Y00671608D01*
D02*
G37*
G36*
X00751000Y00596234D02*
X00748455Y00595899D01*
X00746083Y00594917D01*
X00744046Y00593354D01*
X00742483Y00591317D01*
X00741501Y00588945D01*
X00741166Y00586400D01*
X00741501Y00583855D01*
X00742483Y00581483D01*
X00744046Y00579446D01*
X00746083Y00577883D01*
X00748455Y00576901D01*
X00751000Y00576566D01*
X00753545Y00576901D01*
X00755917Y00577883D01*
X00757954Y00579446D01*
X00759517Y00581483D01*
X00760499Y00583855D01*
X00760834Y00586400D01*
X00760499Y00588945D01*
X00759517Y00591317D01*
X00757954Y00593354D01*
X00755917Y00594917D01*
X00753545Y00595899D01*
X00751000Y00596234D01*
D02*
G37*
G36*
X00673000Y00587840D02*
X00670091Y00587457D01*
X00667380Y00586334D01*
X00665052Y00584548D01*
X00663266Y00582220D01*
X00662143Y00579509D01*
X00661760Y00576600D01*
X00662143Y00573691D01*
X00663266Y00570980D01*
X00665052Y00568652D01*
X00667380Y00566866D01*
X00670091Y00565743D01*
X00673000Y00565360D01*
X00675909Y00565743D01*
X00678620Y00566866D01*
X00680948Y00568652D01*
X00682734Y00570980D01*
X00683857Y00573691D01*
X00684240Y00576600D01*
X00683857Y00579509D01*
X00682734Y00582220D01*
X00680948Y00584548D01*
X00678620Y00586334D01*
X00675909Y00587457D01*
X00673000Y00587840D01*
D02*
G37*
G36*
X00647600D02*
X00644691Y00587457D01*
X00641980Y00586334D01*
X00639652Y00584548D01*
X00637866Y00582220D01*
X00636743Y00579509D01*
X00636360Y00576600D01*
X00636743Y00573691D01*
X00637866Y00570980D01*
X00639652Y00568652D01*
X00641980Y00566866D01*
X00644691Y00565743D01*
X00647600Y00565360D01*
X00650509Y00565743D01*
X00653220Y00566866D01*
X00655548Y00568652D01*
X00657334Y00570980D01*
X00658457Y00573691D01*
X00658840Y00576600D01*
X00658457Y00579509D01*
X00657334Y00582220D01*
X00655548Y00584548D01*
X00653220Y00586334D01*
X00650509Y00587457D01*
X00647600Y00587840D01*
D02*
G37*
G36*
X00161263Y00567802D02*
X00158829Y00567696D01*
X00156507Y00566963D01*
X00154452Y00565655D01*
X00152807Y00563859D01*
X00151682Y00561699D01*
X00151155Y00559321D01*
X00151261Y00556888D01*
X00151994Y00554565D01*
X00153302Y00552511D01*
X00155098Y00550865D01*
X00157259Y00549740D01*
X00159636Y00549213D01*
X00162070Y00549320D01*
X00164392Y00550052D01*
X00166447Y00551361D01*
X00168092Y00553156D01*
X00169217Y00555317D01*
X00169744Y00557695D01*
X00169638Y00560128D01*
X00168905Y00562451D01*
X00167596Y00564505D01*
X00165801Y00566150D01*
X00163640Y00567275D01*
X00161263Y00567802D01*
D02*
G37*
G36*
X00673000Y00562440D02*
X00670091Y00562057D01*
X00667380Y00560934D01*
X00665052Y00559148D01*
X00663266Y00556820D01*
X00662143Y00554109D01*
X00661760Y00551200D01*
X00662143Y00548291D01*
X00663266Y00545580D01*
X00665052Y00543252D01*
X00667380Y00541466D01*
X00670091Y00540343D01*
X00673000Y00539960D01*
X00675909Y00540343D01*
X00678620Y00541466D01*
X00680948Y00543252D01*
X00682734Y00545580D01*
X00683857Y00548291D01*
X00684240Y00551200D01*
X00683857Y00554109D01*
X00682734Y00556820D01*
X00680948Y00559148D01*
X00678620Y00560934D01*
X00675909Y00562057D01*
X00673000Y00562440D01*
D02*
G37*
G36*
X00154422Y00549008D02*
X00151989Y00548902D01*
X00149666Y00548170D01*
X00147612Y00546861D01*
X00145967Y00545065D01*
X00144842Y00542905D01*
X00144315Y00540527D01*
X00144421Y00538094D01*
X00145153Y00535771D01*
X00146462Y00533717D01*
X00148258Y00532071D01*
X00150418Y00530947D01*
X00152796Y00530420D01*
X00155229Y00530526D01*
X00157552Y00531258D01*
X00159606Y00532567D01*
X00161252Y00534362D01*
X00162376Y00536523D01*
X00162903Y00538901D01*
X00162797Y00541334D01*
X00162065Y00543657D01*
X00160756Y00545711D01*
X00158960Y00547356D01*
X00156800Y00548481D01*
X00154422Y00549008D01*
D02*
G37*
G36*
X00751000Y00545434D02*
X00748455Y00545099D01*
X00746083Y00544117D01*
X00744046Y00542554D01*
X00742483Y00540517D01*
X00741501Y00538145D01*
X00741166Y00535600D01*
X00741501Y00533055D01*
X00742483Y00530683D01*
X00744046Y00528646D01*
X00746083Y00527083D01*
X00748455Y00526101D01*
X00751000Y00525766D01*
X00753545Y00526101D01*
X00755917Y00527083D01*
X00757954Y00528646D01*
X00759517Y00530683D01*
X00760499Y00533055D01*
X00760834Y00535600D01*
X00760499Y00538145D01*
X00759517Y00540517D01*
X00757954Y00542554D01*
X00755917Y00544117D01*
X00753545Y00545099D01*
X00751000Y00545434D01*
D02*
G37*
G36*
X00286270Y00529703D02*
Y00521770D01*
X00294203D01*
X00294051Y00522925D01*
X00293115Y00525185D01*
X00291626Y00527126D01*
X00289685Y00528615D01*
X00287425Y00529551D01*
X00286270Y00529703D01*
D02*
G37*
G36*
X00283730D02*
X00282575Y00529551D01*
X00280315Y00528615D01*
X00278374Y00527126D01*
X00276885Y00525185D01*
X00275949Y00522925D01*
X00275797Y00521770D01*
X00283730D01*
Y00529703D01*
D02*
G37*
G36*
X00145919Y00526058D02*
X00143344Y00525946D01*
X00140885Y00525171D01*
X00138711Y00523786D01*
X00136970Y00521885D01*
X00136371Y00520735D01*
X00144299Y00517849D01*
X00147185Y00525778D01*
X00145919Y00526058D01*
D02*
G37*
G36*
X00673000Y00537040D02*
X00670091Y00536657D01*
X00667380Y00535534D01*
X00665052Y00533748D01*
X00663266Y00531420D01*
X00662143Y00528709D01*
X00661760Y00525800D01*
X00662143Y00522891D01*
X00663266Y00520180D01*
X00665052Y00517852D01*
X00667380Y00516066D01*
X00670091Y00514943D01*
X00673000Y00514560D01*
X00675909Y00514943D01*
X00678620Y00516066D01*
X00680948Y00517852D01*
X00682734Y00520180D01*
X00683857Y00522891D01*
X00684240Y00525800D01*
X00683857Y00528709D01*
X00682734Y00531420D01*
X00680948Y00533748D01*
X00678620Y00535534D01*
X00675909Y00536657D01*
X00673000Y00537040D01*
D02*
G37*
G36*
X00149572Y00524909D02*
X00146686Y00516981D01*
X00154615Y00514095D01*
X00154895Y00515361D01*
X00154783Y00517936D01*
X00154008Y00520395D01*
X00152623Y00522569D01*
X00150722Y00524310D01*
X00149572Y00524909D01*
D02*
G37*
G36*
X00294203Y00519230D02*
X00286270D01*
Y00511297D01*
X00287425Y00511449D01*
X00289685Y00512385D01*
X00291626Y00513874D01*
X00293115Y00515815D01*
X00294051Y00518075D01*
X00294203Y00519230D01*
D02*
G37*
G36*
X00283730D02*
X00275797D01*
X00275949Y00518075D01*
X00276885Y00515815D01*
X00278374Y00513874D01*
X00280315Y00512385D01*
X00282575Y00511449D01*
X00283730Y00511297D01*
Y00519230D01*
D02*
G37*
G36*
X00135502Y00518348D02*
X00135222Y00517082D01*
X00135334Y00514507D01*
X00136109Y00512048D01*
X00137494Y00509874D01*
X00139395Y00508133D01*
X00140545Y00507534D01*
X00143431Y00515462D01*
X00135502Y00518348D01*
D02*
G37*
G36*
X00145818Y00514594D02*
X00142932Y00506665D01*
X00144198Y00506385D01*
X00146773Y00506497D01*
X00149232Y00507272D01*
X00151406Y00508657D01*
X00153147Y00510558D01*
X00153746Y00511708D01*
X00145818Y00514594D01*
D02*
G37*
G36*
X00684684Y00512084D02*
X00674270D01*
Y00501670D01*
X00684684D01*
Y00512084D01*
D02*
G37*
G36*
X00671730D02*
X00661316D01*
Y00501670D01*
X00671730D01*
Y00512084D01*
D02*
G37*
G36*
X00391930Y00512084D02*
X00381516D01*
Y00501670D01*
X00391930D01*
Y00512084D01*
D02*
G37*
G36*
X00751000Y00520034D02*
X00748455Y00519699D01*
X00746083Y00518717D01*
X00744046Y00517154D01*
X00742483Y00515117D01*
X00741501Y00512745D01*
X00741166Y00510200D01*
X00741501Y00507655D01*
X00742483Y00505283D01*
X00744046Y00503246D01*
X00746083Y00501683D01*
X00748455Y00500701D01*
X00751000Y00500366D01*
X00753545Y00500701D01*
X00755917Y00501683D01*
X00757954Y00503246D01*
X00759517Y00505283D01*
X00760499Y00507655D01*
X00760834Y00510200D01*
X00760499Y00512745D01*
X00759517Y00515117D01*
X00757954Y00517154D01*
X00755917Y00518717D01*
X00753545Y00519699D01*
X00751000Y00520034D01*
D02*
G37*
G36*
X00108368Y00513246D02*
X00105143Y00512785D01*
X00102069Y00511705D01*
X00099265Y00510045D01*
X00096839Y00507870D01*
X00094884Y00505264D01*
X00094027Y00503477D01*
X00108334Y00498270D01*
X00113541Y00512576D01*
X00111621Y00513068D01*
X00108368Y00513246D01*
D02*
G37*
G36*
X00115928Y00511707D02*
X00110721Y00497401D01*
X00125027Y00492193D01*
X00125520Y00494113D01*
X00125697Y00497367D01*
X00125237Y00500592D01*
X00124156Y00503666D01*
X00122496Y00506469D01*
X00120321Y00508895D01*
X00117715Y00510850D01*
X00115928Y00511707D01*
D02*
G37*
G36*
X00647600Y00511640D02*
X00644691Y00511257D01*
X00641980Y00510134D01*
X00639652Y00508348D01*
X00637866Y00506020D01*
X00636743Y00503309D01*
X00636360Y00500400D01*
X00636743Y00497491D01*
X00637866Y00494780D01*
X00639652Y00492452D01*
X00641980Y00490666D01*
X00644691Y00489543D01*
X00647600Y00489160D01*
X00650509Y00489543D01*
X00653220Y00490666D01*
X00655548Y00492452D01*
X00657334Y00494780D01*
X00658457Y00497491D01*
X00658840Y00500400D01*
X00658457Y00503309D01*
X00657334Y00506020D01*
X00655548Y00508348D01*
X00653220Y00510134D01*
X00650509Y00511257D01*
X00647600Y00511640D01*
D02*
G37*
G36*
X00391930Y00499130D02*
X00381516D01*
Y00488716D01*
X00391930D01*
Y00499130D01*
D02*
G37*
G36*
X00684684Y00499130D02*
X00674270D01*
Y00488716D01*
X00684684D01*
Y00499130D01*
D02*
G37*
G36*
X00671730D02*
X00661316D01*
Y00488716D01*
X00671730D01*
Y00499130D01*
D02*
G37*
G36*
X00752270Y00495012D02*
Y00486070D01*
X00761212D01*
X00761025Y00487486D01*
X00759988Y00489989D01*
X00758339Y00492139D01*
X00756189Y00493788D01*
X00753686Y00494825D01*
X00752270Y00495012D01*
D02*
G37*
G36*
X00749730D02*
X00748314Y00494825D01*
X00745811Y00493788D01*
X00743661Y00492139D01*
X00742012Y00489989D01*
X00740975Y00487486D01*
X00740788Y00486070D01*
X00749730D01*
Y00495012D01*
D02*
G37*
G36*
X00093158Y00501090D02*
X00092666Y00499170D01*
X00092489Y00495917D01*
X00092949Y00492691D01*
X00094030Y00489618D01*
X00095690Y00486814D01*
X00097865Y00484388D01*
X00100471Y00482433D01*
X00102258Y00481576D01*
X00107465Y00495883D01*
X00093158Y00501090D01*
D02*
G37*
G36*
X00109852Y00495014D02*
X00104645Y00480707D01*
X00106565Y00480215D01*
X00109818Y00480037D01*
X00113043Y00480498D01*
X00116117Y00481579D01*
X00118920Y00483239D01*
X00121347Y00485413D01*
X00123302Y00488020D01*
X00124159Y00489807D01*
X00109852Y00495014D01*
D02*
G37*
G36*
X00845530Y00479399D02*
X00843300D01*
X00841138Y00478969D01*
X00839306Y00477744D01*
X00838082Y00475912D01*
X00837904Y00475020D01*
X00845530D01*
Y00479399D01*
D02*
G37*
G36*
X00761212Y00483530D02*
X00752270D01*
Y00474588D01*
X00753686Y00474775D01*
X00756189Y00475812D01*
X00758339Y00477461D01*
X00759988Y00479611D01*
X00761025Y00482114D01*
X00761212Y00483530D01*
D02*
G37*
G36*
X00749730D02*
X00740788D01*
X00740975Y00482114D01*
X00742012Y00479611D01*
X00743661Y00477461D01*
X00745811Y00475812D01*
X00748314Y00474775D01*
X00749730Y00474588D01*
Y00483530D01*
D02*
G37*
G36*
X00845530Y00472480D02*
X00837904D01*
X00838082Y00471588D01*
X00839306Y00469756D01*
X00841138Y00468531D01*
X00843300Y00468102D01*
X00845530D01*
Y00472480D01*
D02*
G37*
G36*
X00821070Y00473457D02*
Y00465020D01*
X00829507D01*
X00829338Y00466306D01*
X00828352Y00468687D01*
X00826782Y00470732D01*
X00824737Y00472302D01*
X00822356Y00473288D01*
X00821070Y00473457D01*
D02*
G37*
G36*
X00818530D02*
X00817244Y00473288D01*
X00814863Y00472302D01*
X00812818Y00470732D01*
X00811248Y00468687D01*
X00810262Y00466306D01*
X00810093Y00465020D01*
X00818530D01*
Y00473457D01*
D02*
G37*
G36*
X00829507Y00462480D02*
X00821070D01*
Y00454043D01*
X00822356Y00454212D01*
X00824737Y00455199D01*
X00826782Y00456768D01*
X00828352Y00458813D01*
X00829338Y00461194D01*
X00829507Y00462480D01*
D02*
G37*
G36*
X00818530D02*
X00810093D01*
X00810262Y00461194D01*
X00811248Y00458813D01*
X00812818Y00456768D01*
X00814863Y00455199D01*
X00817244Y00454212D01*
X00818530Y00454043D01*
Y00462480D01*
D02*
G37*
G36*
X00323750Y00464250D02*
X00306250D01*
Y00446750D01*
X00323750D01*
Y00464250D01*
D02*
G37*
G36*
X00316270Y00429703D02*
Y00421770D01*
X00324203D01*
X00324051Y00422925D01*
X00323115Y00425185D01*
X00321626Y00427126D01*
X00319685Y00428615D01*
X00317425Y00429551D01*
X00316270Y00429703D01*
D02*
G37*
G36*
X00313730D02*
X00312575Y00429551D01*
X00310315Y00428615D01*
X00308374Y00427126D01*
X00306885Y00425185D01*
X00305949Y00422925D01*
X00305797Y00421770D01*
X00313730D01*
Y00429703D01*
D02*
G37*
G36*
X00821070Y00423457D02*
Y00415020D01*
X00829507D01*
X00829338Y00416306D01*
X00828352Y00418687D01*
X00826782Y00420732D01*
X00824737Y00422302D01*
X00822356Y00423288D01*
X00821070Y00423457D01*
D02*
G37*
G36*
X00818530D02*
X00817244Y00423288D01*
X00814863Y00422302D01*
X00812818Y00420732D01*
X00811248Y00418687D01*
X00810262Y00416306D01*
X00810093Y00415020D01*
X00818530D01*
Y00423457D01*
D02*
G37*
G36*
X00324203Y00419230D02*
X00316270D01*
Y00411297D01*
X00317425Y00411449D01*
X00319685Y00412385D01*
X00321626Y00413874D01*
X00323115Y00415815D01*
X00324051Y00418075D01*
X00324203Y00419230D01*
D02*
G37*
G36*
X00313730D02*
X00305797D01*
X00305949Y00418075D01*
X00306885Y00415815D01*
X00308374Y00413874D01*
X00310315Y00412385D01*
X00312575Y00411449D01*
X00313730Y00411297D01*
Y00419230D01*
D02*
G37*
G36*
X00845530Y00409398D02*
X00843300D01*
X00841138Y00408969D01*
X00839306Y00407744D01*
X00838082Y00405912D01*
X00837904Y00405020D01*
X00845530D01*
Y00409398D01*
D02*
G37*
G36*
X00829507Y00412480D02*
X00821070D01*
Y00404043D01*
X00822356Y00404212D01*
X00824737Y00405199D01*
X00826782Y00406768D01*
X00828352Y00408813D01*
X00829338Y00411194D01*
X00829507Y00412480D01*
D02*
G37*
G36*
X00818530D02*
X00810093D01*
X00810262Y00411194D01*
X00811248Y00408813D01*
X00812818Y00406768D01*
X00814863Y00405199D01*
X00817244Y00404212D01*
X00818530Y00404043D01*
Y00412480D01*
D02*
G37*
G36*
X00845530Y00402480D02*
X00837904D01*
X00838082Y00401588D01*
X00839306Y00399756D01*
X00841138Y00398531D01*
X00843300Y00398102D01*
X00845530D01*
Y00402480D01*
D02*
G37*
G36*
X00109539Y00400986D02*
X00106285Y00400808D01*
X00104366Y00400316D01*
X00109573Y00386009D01*
X00123879Y00391217D01*
X00123022Y00393004D01*
X00121067Y00395610D01*
X00118641Y00397785D01*
X00115838Y00399445D01*
X00112764Y00400526D01*
X00109539Y00400986D01*
D02*
G37*
G36*
X00626000Y00402078D02*
X00623651Y00401768D01*
X00621461Y00400861D01*
X00619581Y00399419D01*
X00618139Y00397539D01*
X00617232Y00395350D01*
X00616922Y00393000D01*
X00617232Y00390650D01*
X00618139Y00388461D01*
X00619581Y00386581D01*
X00621461Y00385139D01*
X00623651Y00384232D01*
X00626000Y00383922D01*
X00628349Y00384232D01*
X00630539Y00385139D01*
X00632419Y00386581D01*
X00633862Y00388461D01*
X00634768Y00390650D01*
X00635078Y00393000D01*
X00634768Y00395350D01*
X00633862Y00397539D01*
X00632419Y00399419D01*
X00630539Y00400861D01*
X00628349Y00401768D01*
X00626000Y00402078D01*
D02*
G37*
G36*
X00101979Y00399448D02*
X00100192Y00398590D01*
X00097585Y00396635D01*
X00095411Y00394209D01*
X00093751Y00391406D01*
X00092670Y00388332D01*
X00092210Y00385107D01*
X00092387Y00381853D01*
X00092879Y00379934D01*
X00107186Y00385141D01*
X00101979Y00399448D01*
D02*
G37*
G36*
X00386000Y00397634D02*
X00383455Y00397299D01*
X00381083Y00396317D01*
X00379046Y00394754D01*
X00377483Y00392717D01*
X00376501Y00390345D01*
X00376166Y00387800D01*
X00376501Y00385255D01*
X00377483Y00382883D01*
X00379046Y00380846D01*
X00381083Y00379283D01*
X00383455Y00378301D01*
X00386000Y00377966D01*
X00388545Y00378301D01*
X00390917Y00379283D01*
X00392954Y00380846D01*
X00394517Y00382883D01*
X00395499Y00385255D01*
X00395834Y00387800D01*
X00395499Y00390345D01*
X00394517Y00392717D01*
X00392954Y00394754D01*
X00390917Y00396317D01*
X00388545Y00397299D01*
X00386000Y00397634D01*
D02*
G37*
G36*
X00124748Y00388830D02*
X00110442Y00383623D01*
X00115649Y00369316D01*
X00117436Y00370173D01*
X00120042Y00372128D01*
X00122217Y00374554D01*
X00123877Y00377358D01*
X00124958Y00380431D01*
X00125418Y00383657D01*
X00125240Y00386910D01*
X00124748Y00388830D01*
D02*
G37*
G36*
X00108055Y00382754D02*
X00093748Y00377547D01*
X00094605Y00375760D01*
X00096560Y00373153D01*
X00098986Y00370979D01*
X00101790Y00369319D01*
X00104863Y00368238D01*
X00108089Y00367777D01*
X00111342Y00367955D01*
X00113262Y00368447D01*
X00108055Y00382754D01*
D02*
G37*
G36*
X00468770Y00373203D02*
Y00365270D01*
X00476703D01*
X00476551Y00366425D01*
X00475615Y00368685D01*
X00474126Y00370626D01*
X00472185Y00372115D01*
X00469925Y00373051D01*
X00468770Y00373203D01*
D02*
G37*
G36*
X00476703Y00362730D02*
X00468770D01*
Y00354797D01*
X00469925Y00354949D01*
X00472185Y00355885D01*
X00474126Y00357374D01*
X00475615Y00359315D01*
X00476551Y00361575D01*
X00476703Y00362730D01*
D02*
G37*
G36*
X00150308Y00376658D02*
X00132924Y00370330D01*
X00139251Y00352946D01*
X00156635Y00359273D01*
X00150308Y00376658D01*
D02*
G37*
G36*
X00386000Y00372234D02*
X00383455Y00371899D01*
X00381083Y00370917D01*
X00379046Y00369354D01*
X00377483Y00367317D01*
X00376501Y00364945D01*
X00376166Y00362400D01*
X00376501Y00359855D01*
X00377483Y00357483D01*
X00379046Y00355446D01*
X00381083Y00353883D01*
X00383455Y00352901D01*
X00386000Y00352566D01*
X00388545Y00352901D01*
X00390917Y00353883D01*
X00392954Y00355446D01*
X00394517Y00357483D01*
X00395499Y00359855D01*
X00395834Y00362400D01*
X00395499Y00364945D01*
X00394517Y00367317D01*
X00392954Y00369354D01*
X00390917Y00370917D01*
X00388545Y00371899D01*
X00386000Y00372234D01*
D02*
G37*
G36*
X00293750Y00364250D02*
X00276250D01*
Y00346750D01*
X00293750D01*
Y00364250D01*
D02*
G37*
G36*
X00384730Y00347212D02*
X00383314Y00347025D01*
X00380811Y00345988D01*
X00378661Y00344339D01*
X00377012Y00342189D01*
X00375975Y00339686D01*
X00375788Y00338270D01*
X00384730D01*
Y00347212D01*
D02*
G37*
G36*
X00152517Y00350604D02*
X00150139Y00350077D01*
X00147978Y00348952D01*
X00146183Y00347307D01*
X00144874Y00345253D01*
X00144142Y00342930D01*
X00144036Y00340496D01*
X00144563Y00338119D01*
X00145687Y00335958D01*
X00147333Y00334163D01*
X00149387Y00332854D01*
X00151710Y00332122D01*
X00154143Y00332015D01*
X00156521Y00332542D01*
X00158681Y00333667D01*
X00160477Y00335312D01*
X00161786Y00337367D01*
X00162518Y00339689D01*
X00162624Y00342123D01*
X00162097Y00344501D01*
X00160972Y00346661D01*
X00159327Y00348457D01*
X00157273Y00349765D01*
X00154950Y00350498D01*
X00152517Y00350604D01*
D02*
G37*
G36*
X00512730Y00335930D02*
X00503788D01*
X00503975Y00334514D01*
X00505012Y00332011D01*
X00506661Y00329861D01*
X00508811Y00328212D01*
X00511314Y00327175D01*
X00512730Y00326988D01*
Y00335930D01*
D02*
G37*
G36*
X00524212D02*
X00515270D01*
Y00326988D01*
X00516686Y00327175D01*
X00519189Y00328212D01*
X00521339Y00329861D01*
X00522988Y00332011D01*
X00524025Y00334514D01*
X00524212Y00335930D01*
D02*
G37*
G36*
X00286270Y00329703D02*
Y00321770D01*
X00294203D01*
X00294051Y00322925D01*
X00293115Y00325185D01*
X00291626Y00327126D01*
X00289685Y00328615D01*
X00287425Y00329551D01*
X00286270Y00329703D01*
D02*
G37*
G36*
X00283730D02*
X00282575Y00329551D01*
X00280315Y00328615D01*
X00278374Y00327126D01*
X00276885Y00325185D01*
X00275949Y00322925D01*
X00275797Y00321770D01*
X00283730D01*
Y00329703D01*
D02*
G37*
G36*
X00159357Y00331810D02*
X00156979Y00331283D01*
X00154819Y00330158D01*
X00153023Y00328513D01*
X00151715Y00326459D01*
X00150982Y00324136D01*
X00150876Y00321703D01*
X00151403Y00319325D01*
X00152528Y00317164D01*
X00154173Y00315369D01*
X00156227Y00314060D01*
X00158550Y00313328D01*
X00160984Y00313221D01*
X00163361Y00313749D01*
X00165522Y00314873D01*
X00167317Y00316519D01*
X00168626Y00318573D01*
X00169358Y00320896D01*
X00169465Y00323329D01*
X00168937Y00325707D01*
X00167813Y00327867D01*
X00166167Y00329663D01*
X00164113Y00330971D01*
X00161790Y00331704D01*
X00159357Y00331810D01*
D02*
G37*
G36*
X00294203Y00319230D02*
X00286270D01*
Y00311297D01*
X00287425Y00311449D01*
X00289685Y00312385D01*
X00291626Y00313874D01*
X00293115Y00315815D01*
X00294051Y00318075D01*
X00294203Y00319230D01*
D02*
G37*
G36*
X00283730D02*
X00275797D01*
X00275949Y00318075D01*
X00276885Y00315815D01*
X00278374Y00313874D01*
X00280315Y00312385D01*
X00282575Y00311449D01*
X00283730Y00311297D01*
Y00319230D01*
D02*
G37*
G36*
X00167860Y00308860D02*
X00166594Y00308580D01*
X00169480Y00300651D01*
X00177408Y00303537D01*
X00176810Y00304687D01*
X00175068Y00306588D01*
X00172894Y00307973D01*
X00170436Y00308748D01*
X00167860Y00308860D01*
D02*
G37*
G36*
X00164207Y00307711D02*
X00163057Y00307112D01*
X00161157Y00305371D01*
X00159771Y00303197D01*
X00158996Y00300738D01*
X00158884Y00298163D01*
X00159165Y00296897D01*
X00167093Y00299783D01*
X00164207Y00307711D01*
D02*
G37*
G36*
X00178277Y00301150D02*
X00170349Y00298264D01*
X00173234Y00290336D01*
X00174385Y00290935D01*
X00176285Y00292676D01*
X00177670Y00294850D01*
X00178445Y00297309D01*
X00178558Y00299884D01*
X00178277Y00301150D01*
D02*
G37*
G36*
X00479270Y00298455D02*
Y00290270D01*
X00487455D01*
X00487295Y00291490D01*
X00486333Y00293811D01*
X00484804Y00295804D01*
X00482811Y00297333D01*
X00480490Y00298294D01*
X00479270Y00298455D01*
D02*
G37*
G36*
X00476730D02*
X00475510Y00298294D01*
X00473189Y00297333D01*
X00471196Y00295804D01*
X00469667Y00293811D01*
X00468706Y00291490D01*
X00468545Y00290270D01*
X00476730D01*
Y00298455D01*
D02*
G37*
G36*
X00167962Y00297396D02*
X00160033Y00294510D01*
X00160632Y00293360D01*
X00162374Y00291459D01*
X00164548Y00290074D01*
X00167006Y00289299D01*
X00169582Y00289187D01*
X00170847Y00289467D01*
X00167962Y00297396D01*
D02*
G37*
G36*
X00452000Y00298078D02*
X00449650Y00297768D01*
X00447461Y00296861D01*
X00445581Y00295419D01*
X00444139Y00293539D01*
X00443232Y00291350D01*
X00442922Y00289000D01*
X00443232Y00286651D01*
X00444139Y00284461D01*
X00445581Y00282581D01*
X00447461Y00281138D01*
X00449650Y00280232D01*
X00452000Y00279922D01*
X00454350Y00280232D01*
X00456539Y00281138D01*
X00458419Y00282581D01*
X00459861Y00284461D01*
X00460768Y00286651D01*
X00461078Y00289000D01*
X00460768Y00291350D01*
X00459861Y00293539D01*
X00458419Y00295419D01*
X00456539Y00296861D01*
X00454350Y00297768D01*
X00452000Y00298078D01*
D02*
G37*
G36*
X00487455Y00287730D02*
X00479270D01*
Y00279545D01*
X00480490Y00279706D01*
X00482811Y00280667D01*
X00484804Y00282196D01*
X00486333Y00284189D01*
X00487295Y00286509D01*
X00487455Y00287730D01*
D02*
G37*
G36*
X00476730D02*
X00468545D01*
X00468706Y00286509D01*
X00469667Y00284189D01*
X00471196Y00282196D01*
X00473189Y00280667D01*
X00475510Y00279706D01*
X00476730Y00279545D01*
Y00287730D01*
D02*
G37*
G36*
X00154480Y00277510D02*
X00151227Y00277333D01*
X00149307Y00276841D01*
X00154514Y00262534D01*
X00168821Y00267741D01*
X00167964Y00269528D01*
X00166009Y00272134D01*
X00163583Y00274309D01*
X00160779Y00275969D01*
X00157705Y00277050D01*
X00154480Y00277510D01*
D02*
G37*
G36*
X00146920Y00275972D02*
X00145133Y00275115D01*
X00142527Y00273160D01*
X00140352Y00270734D01*
X00138692Y00267930D01*
X00137611Y00264856D01*
X00137151Y00261631D01*
X00137329Y00258378D01*
X00137821Y00256458D01*
X00152127Y00261665D01*
X00146920Y00275972D01*
D02*
G37*
G36*
X00169690Y00265354D02*
X00155383Y00260147D01*
X00160590Y00245840D01*
X00162377Y00246698D01*
X00164984Y00248653D01*
X00167158Y00251079D01*
X00168818Y00253882D01*
X00169899Y00256956D01*
X00170359Y00260181D01*
X00170182Y00263434D01*
X00169690Y00265354D01*
D02*
G37*
G36*
X00152996Y00259278D02*
X00138689Y00254071D01*
X00139546Y00252284D01*
X00141502Y00249678D01*
X00143928Y00247503D01*
X00146731Y00245843D01*
X00149805Y00244762D01*
X00153030Y00244302D01*
X00156284Y00244480D01*
X00158203Y00244972D01*
X00152996Y00259278D01*
D02*
G37*
G36*
X00252470Y00246212D02*
Y00237270D01*
X00261412D01*
X00261225Y00238686D01*
X00260188Y00241189D01*
X00258539Y00243339D01*
X00256389Y00244988D01*
X00253886Y00246025D01*
X00252470Y00246212D01*
D02*
G37*
G36*
X00249930D02*
X00248514Y00246025D01*
X00246011Y00244988D01*
X00243861Y00243339D01*
X00242212Y00241189D01*
X00241175Y00238686D01*
X00240988Y00237270D01*
X00249930D01*
Y00246212D01*
D02*
G37*
G36*
X00327400Y00245834D02*
X00324855Y00245499D01*
X00322483Y00244517D01*
X00320446Y00242954D01*
X00318883Y00240917D01*
X00317901Y00238545D01*
X00317566Y00236000D01*
X00317901Y00233455D01*
X00318883Y00231083D01*
X00320446Y00229046D01*
X00322483Y00227483D01*
X00324855Y00226501D01*
X00327400Y00226166D01*
X00329945Y00226501D01*
X00332317Y00227483D01*
X00334354Y00229046D01*
X00335917Y00231083D01*
X00336899Y00233455D01*
X00337234Y00236000D01*
X00336899Y00238545D01*
X00335917Y00240917D01*
X00334354Y00242954D01*
X00332317Y00244517D01*
X00329945Y00245499D01*
X00327400Y00245834D01*
D02*
G37*
G36*
X00261412Y00234730D02*
X00252470D01*
Y00225788D01*
X00253886Y00225975D01*
X00256389Y00227012D01*
X00258539Y00228661D01*
X00260188Y00230811D01*
X00261225Y00233314D01*
X00261412Y00234730D01*
D02*
G37*
G36*
X00249930D02*
X00240988D01*
X00241175Y00233314D01*
X00242212Y00230811D01*
X00243861Y00228661D01*
X00246011Y00227012D01*
X00248514Y00225975D01*
X00249930Y00225788D01*
Y00234730D01*
D02*
G37*
G36*
X00606870Y00218212D02*
Y00209270D01*
X00615812D01*
X00615625Y00210686D01*
X00614588Y00213189D01*
X00612939Y00215339D01*
X00610789Y00216988D01*
X00608286Y00218025D01*
X00606870Y00218212D01*
D02*
G37*
G36*
X00604330D02*
X00602914Y00218025D01*
X00600411Y00216988D01*
X00598261Y00215339D01*
X00596612Y00213189D01*
X00595575Y00210686D01*
X00595388Y00209270D01*
X00604330D01*
Y00218212D01*
D02*
G37*
G36*
X00529400Y00217834D02*
X00526855Y00217499D01*
X00524483Y00216517D01*
X00522446Y00214954D01*
X00520883Y00212917D01*
X00519901Y00210545D01*
X00519566Y00208000D01*
X00519901Y00205455D01*
X00520883Y00203083D01*
X00522446Y00201046D01*
X00524483Y00199483D01*
X00526855Y00198501D01*
X00529400Y00198166D01*
X00531945Y00198501D01*
X00534317Y00199483D01*
X00536354Y00201046D01*
X00537917Y00203083D01*
X00538899Y00205455D01*
X00539234Y00208000D01*
X00538899Y00210545D01*
X00537917Y00212917D01*
X00536354Y00214954D01*
X00534317Y00216517D01*
X00531945Y00217499D01*
X00529400Y00217834D01*
D02*
G37*
G36*
X00504000D02*
X00501455Y00217499D01*
X00499083Y00216517D01*
X00497046Y00214954D01*
X00495483Y00212917D01*
X00494501Y00210545D01*
X00494166Y00208000D01*
X00494501Y00205455D01*
X00495483Y00203083D01*
X00497046Y00201046D01*
X00499083Y00199483D01*
X00501455Y00198501D01*
X00504000Y00198166D01*
X00506545Y00198501D01*
X00508917Y00199483D01*
X00510954Y00201046D01*
X00512517Y00203083D01*
X00513499Y00205455D01*
X00513834Y00208000D01*
X00513499Y00210545D01*
X00512517Y00212917D01*
X00510954Y00214954D01*
X00508917Y00216517D01*
X00506545Y00217499D01*
X00504000Y00217834D01*
D02*
G37*
G36*
X00478600D02*
X00476055Y00217499D01*
X00473683Y00216517D01*
X00471646Y00214954D01*
X00470083Y00212917D01*
X00469101Y00210545D01*
X00468766Y00208000D01*
X00469101Y00205455D01*
X00470083Y00203083D01*
X00471646Y00201046D01*
X00473683Y00199483D01*
X00476055Y00198501D01*
X00478600Y00198166D01*
X00481145Y00198501D01*
X00483517Y00199483D01*
X00485554Y00201046D01*
X00487117Y00203083D01*
X00488099Y00205455D01*
X00488434Y00208000D01*
X00488099Y00210545D01*
X00487117Y00212917D01*
X00485554Y00214954D01*
X00483517Y00216517D01*
X00481145Y00217499D01*
X00478600Y00217834D01*
D02*
G37*
G36*
X00453200D02*
X00450655Y00217499D01*
X00448283Y00216517D01*
X00446246Y00214954D01*
X00444683Y00212917D01*
X00443701Y00210545D01*
X00443366Y00208000D01*
X00443701Y00205455D01*
X00444683Y00203083D01*
X00446246Y00201046D01*
X00448283Y00199483D01*
X00450655Y00198501D01*
X00453200Y00198166D01*
X00455745Y00198501D01*
X00458117Y00199483D01*
X00460154Y00201046D01*
X00461717Y00203083D01*
X00462699Y00205455D01*
X00463034Y00208000D01*
X00462699Y00210545D01*
X00461717Y00212917D01*
X00460154Y00214954D01*
X00458117Y00216517D01*
X00455745Y00217499D01*
X00453200Y00217834D01*
D02*
G37*
G36*
X00615812Y00206730D02*
X00606870D01*
Y00197788D01*
X00608286Y00197975D01*
X00610789Y00199012D01*
X00612939Y00200661D01*
X00614588Y00202811D01*
X00615625Y00205314D01*
X00615812Y00206730D01*
D02*
G37*
G36*
X00604330D02*
X00595388D01*
X00595575Y00205314D01*
X00596612Y00202811D01*
X00598261Y00200661D01*
X00600411Y00199012D01*
X00602914Y00197975D01*
X00604330Y00197788D01*
Y00206730D01*
D02*
G37*
G36*
X00390470Y00088212D02*
Y00079270D01*
X00399412D01*
X00399225Y00080686D01*
X00398188Y00083189D01*
X00396539Y00085339D01*
X00394389Y00086988D01*
X00391886Y00088025D01*
X00390470Y00088212D01*
D02*
G37*
G36*
X00387930D02*
X00386514Y00088025D01*
X00384011Y00086988D01*
X00381861Y00085339D01*
X00380212Y00083189D01*
X00379175Y00080686D01*
X00378988Y00079270D01*
X00387930D01*
Y00088212D01*
D02*
G37*
G36*
X00363800Y00087834D02*
X00361255Y00087499D01*
X00358883Y00086517D01*
X00356846Y00084954D01*
X00355283Y00082917D01*
X00354301Y00080545D01*
X00353966Y00078000D01*
X00354301Y00075455D01*
X00355283Y00073083D01*
X00356846Y00071046D01*
X00358883Y00069483D01*
X00361255Y00068501D01*
X00363800Y00068166D01*
X00366345Y00068501D01*
X00368717Y00069483D01*
X00370754Y00071046D01*
X00372317Y00073083D01*
X00373299Y00075455D01*
X00373634Y00078000D01*
X00373299Y00080545D01*
X00372317Y00082917D01*
X00370754Y00084954D01*
X00368717Y00086517D01*
X00366345Y00087499D01*
X00363800Y00087834D01*
D02*
G37*
G36*
X00338400D02*
X00335855Y00087499D01*
X00333483Y00086517D01*
X00331446Y00084954D01*
X00329883Y00082917D01*
X00328901Y00080545D01*
X00328566Y00078000D01*
X00328901Y00075455D01*
X00329883Y00073083D01*
X00331446Y00071046D01*
X00333483Y00069483D01*
X00335855Y00068501D01*
X00338400Y00068166D01*
X00340945Y00068501D01*
X00343317Y00069483D01*
X00345354Y00071046D01*
X00346917Y00073083D01*
X00347899Y00075455D01*
X00348234Y00078000D01*
X00347899Y00080545D01*
X00346917Y00082917D01*
X00345354Y00084954D01*
X00343317Y00086517D01*
X00340945Y00087499D01*
X00338400Y00087834D01*
D02*
G37*
G36*
X00313000D02*
X00310455Y00087499D01*
X00308083Y00086517D01*
X00306046Y00084954D01*
X00304483Y00082917D01*
X00303501Y00080545D01*
X00303166Y00078000D01*
X00303501Y00075455D01*
X00304483Y00073083D01*
X00306046Y00071046D01*
X00308083Y00069483D01*
X00310455Y00068501D01*
X00313000Y00068166D01*
X00315545Y00068501D01*
X00317917Y00069483D01*
X00319954Y00071046D01*
X00321517Y00073083D01*
X00322499Y00075455D01*
X00322834Y00078000D01*
X00322499Y00080545D01*
X00321517Y00082917D01*
X00319954Y00084954D01*
X00317917Y00086517D01*
X00315545Y00087499D01*
X00313000Y00087834D01*
D02*
G37*
G36*
X00399412Y00076730D02*
X00390470D01*
Y00067788D01*
X00391886Y00067975D01*
X00394389Y00069012D01*
X00396539Y00070661D01*
X00398188Y00072811D01*
X00399225Y00075314D01*
X00399412Y00076730D01*
D02*
G37*
G36*
X00387930D02*
X00378988D01*
X00379175Y00075314D01*
X00380212Y00072811D01*
X00381861Y00070661D01*
X00384011Y00069012D01*
X00386514Y00067975D01*
X00387930Y00067788D01*
Y00076730D01*
D02*
G37*
%LPD*%
D11*
X00405614Y00588614D02*
X00419000Y00602000D01*
X00302000Y00236000D02*
X00405614Y00339614D01*
Y00588614D01*
X00441270Y00419745D02*
X00511015Y00350000D01*
X00441270Y00419745D02*
Y00622686D01*
X00423570Y00640386D02*
X00441270Y00622686D01*
X00279000Y00236000D02*
X00370000Y00327000D01*
Y00570956D01*
X00388058Y00589014D01*
X00511015Y00350000D02*
X00562000D01*
X00574000Y00338000D01*
X00406586Y00614986D02*
X00419000Y00627400D01*
X00406586Y00597830D02*
Y00614986D01*
X00397770Y00589014D02*
X00406586Y00597830D01*
X00388058Y00589014D02*
X00397770D01*
X00276600Y00236000D02*
X00279000D01*
X00393200Y00652800D02*
X00405614Y00640386D01*
X00423570D01*
X00730000Y00571391D02*
X00740391Y00561000D01*
X00695207Y00690793D02*
X00730000Y00656000D01*
Y00571391D02*
Y00656000D01*
X00740391Y00561000D02*
X00751000D01*
X00647600Y00703600D02*
X00660407Y00690793D01*
X00695207D01*
D14*
X00758000Y00379000D02*
Y00422000D01*
Y00335000D02*
Y00379000D01*
X00385800Y00233850D02*
X00412384Y00260435D01*
Y00383000D01*
X00425000Y00395000D02*
X00445000Y00375000D01*
X00414000Y00469000D02*
X00425000Y00458000D01*
Y00395000D02*
Y00458000D01*
X00435000Y00399000D02*
Y00468729D01*
Y00399000D02*
X00456000Y00378000D01*
X00426000Y00477729D02*
X00435000Y00468729D01*
X00426000Y00477729D02*
Y00478000D01*
X00211778Y00691000D02*
X00337000D01*
X00200778Y00702000D02*
X00211778Y00691000D01*
X00198000Y00702000D02*
X00200778D01*
X00259500Y00588500D02*
X00337000Y00666000D01*
X00259500Y00582000D02*
Y00588500D01*
X00169000Y00582000D02*
X00259500D01*
X00281250Y00560250D01*
Y00559250D02*
Y00560250D01*
Y00559250D02*
X00285000Y00555500D01*
X00533979Y00388000D02*
X00552229Y00369750D01*
X00593750D01*
X00588000Y00342971D02*
X00602250Y00357220D01*
Y00373779D01*
X00586510Y00389519D02*
X00602250Y00373779D01*
X00600000Y00393000D02*
X00600324D01*
X00614000Y00310000D02*
Y00379324D01*
X00600324Y00393000D02*
X00614000Y00379324D01*
X00586510Y00389519D02*
Y00396481D01*
X00667029Y00477000D01*
X00688485D01*
X00588000Y00335029D02*
Y00342971D01*
X00580000Y00305000D02*
Y00327029D01*
X00588000Y00335029D01*
X00514000Y00388000D02*
X00533979D01*
X00688485Y00477000D02*
X00692000Y00480515D01*
Y00583000D01*
X00445000Y00353000D02*
Y00375000D01*
X00554800Y00208000D02*
Y00243200D01*
X00445000Y00353000D02*
X00554800Y00243200D01*
X00796000Y00440729D02*
X00799000Y00437729D01*
Y00429479D02*
Y00437729D01*
X00796000Y00426479D02*
X00799000Y00429479D01*
X00771000Y00200000D02*
X00796000Y00225000D01*
Y00426479D01*
X00673000Y00602000D02*
X00692000Y00583000D01*
X00456000Y00356000D02*
Y00358883D01*
X00580200Y00208000D02*
Y00231800D01*
X00456000Y00356000D02*
X00580200Y00231800D01*
X00455750Y00359133D02*
X00456000Y00358883D01*
X00455750Y00359133D02*
Y00368867D01*
X00456000Y00369117D01*
Y00378000D01*
X00631000Y00208000D02*
X00758000Y00335000D01*
X00795000Y00459000D02*
Y00618600D01*
X00758000Y00422000D02*
X00795000Y00459000D01*
X00796000Y00440729D02*
Y00441000D01*
X00790500Y00432729D02*
Y00433250D01*
X00785000Y00427229D02*
X00790500Y00432729D01*
X00751000Y00662600D02*
X00795000Y00618600D01*
X00379056Y00735056D02*
X00390000Y00746000D01*
X00708000D02*
X00737000Y00717000D01*
X00390000Y00746000D02*
X00708000D01*
X00751000Y00637200D02*
X00773000Y00615200D01*
Y00473000D02*
X00782000Y00464000D01*
X00773000Y00473000D02*
Y00615200D01*
X00785000Y00228000D02*
Y00427229D01*
X00769000Y00212000D02*
X00785000Y00228000D01*
X00769000Y00212000D02*
Y00212000D01*
X00737000Y00625800D02*
X00751000Y00611800D01*
X00737000Y00625800D02*
Y00717000D01*
X00379056Y00616144D02*
Y00735056D01*
Y00616144D02*
X00393200Y00602000D01*
D33*
X00160450Y00558508D02*
D03*
X00153609Y00539714D02*
D03*
X00145059Y00516222D02*
D03*
X00819800Y00413750D02*
D03*
Y00463750D02*
D03*
X00168721Y00299023D02*
D03*
X00160170Y00322516D02*
D03*
X00153330Y00341310D02*
D03*
D37*
X00529400Y00208000D02*
D03*
X00504000D02*
D03*
X00478600D02*
D03*
X00453200D02*
D03*
X00554800D02*
D03*
X00580200D02*
D03*
X00605600D02*
D03*
X00631000D02*
D03*
X00251200Y00236000D02*
D03*
X00276600D02*
D03*
X00302000D02*
D03*
X00327400D02*
D03*
X00751000Y00561000D02*
D03*
Y00535600D02*
D03*
Y00510200D02*
D03*
Y00484800D02*
D03*
Y00586400D02*
D03*
Y00611800D02*
D03*
Y00637200D02*
D03*
Y00662600D02*
D03*
X00514000Y00388000D02*
D03*
Y00362600D02*
D03*
Y00337200D02*
D03*
X00386000Y00387800D02*
D03*
Y00362400D02*
D03*
Y00337000D02*
D03*
X00389200Y00078000D02*
D03*
X00363800D02*
D03*
X00338400D02*
D03*
X00313000D02*
D03*
D41*
X00198000Y00682000D02*
D03*
Y00662000D02*
D03*
Y00702000D02*
D03*
Y00722000D02*
D03*
Y00742000D02*
D03*
D47*
X00552000Y00382000D02*
Y00391000D01*
X00506000Y00405000D02*
X00556000D01*
X00623000Y00472000D01*
X00552000Y00391000D02*
X00630343Y00469343D01*
X00623000Y00472000D02*
Y00526600D01*
X00630343Y00469343D02*
Y00508543D01*
X00499000Y00377600D02*
Y00398000D01*
X00506000Y00405000D01*
X00499000Y00377600D02*
X00514000Y00362600D01*
X00630343Y00508543D02*
X00647600Y00525800D01*
X00623000Y00526600D02*
X00647600Y00551200D01*
D48*
X00285000Y00320500D02*
D03*
X00467500Y00364000D02*
D03*
X00315000Y00420500D02*
D03*
X00285000Y00520500D02*
D03*
D49*
Y00355500D02*
D03*
X00315000Y00455500D02*
D03*
X00285000Y00555500D02*
D03*
D50*
X00169000Y00582000D02*
D03*
D51*
X00154034Y00620117D02*
D03*
X00109093Y00496642D02*
D03*
X00153755Y00260906D02*
D03*
X00108814Y00384382D02*
D03*
D52*
X00393200Y00500400D02*
D03*
X00419000Y00652800D02*
D03*
X00673000Y00500400D02*
D03*
D53*
X00393200Y00729000D02*
D03*
Y00652800D02*
D03*
Y00678200D02*
D03*
Y00576600D02*
D03*
Y00602000D02*
D03*
Y00525800D02*
D03*
Y00627400D02*
D03*
Y00703600D02*
D03*
Y00551200D02*
D03*
X00418600Y00500400D02*
D03*
X00673000Y00729000D02*
D03*
X00419000D02*
D03*
X00647600D02*
D03*
X00673000Y00703600D02*
D03*
X00419000D02*
D03*
X00647600D02*
D03*
X00673000Y00678200D02*
D03*
X00419000D02*
D03*
X00647600D02*
D03*
X00673000Y00652800D02*
D03*
X00647600D02*
D03*
X00673000Y00627400D02*
D03*
X00419000D02*
D03*
X00647600D02*
D03*
X00673000Y00602000D02*
D03*
X00419000D02*
D03*
X00647600D02*
D03*
X00673000Y00576600D02*
D03*
X00419000D02*
D03*
X00647600D02*
D03*
X00673000Y00551200D02*
D03*
X00419000D02*
D03*
X00647600D02*
D03*
X00673000Y00525800D02*
D03*
X00419000D02*
D03*
X00647600D02*
D03*
Y00500400D02*
D03*
D54*
X00432500Y00364000D02*
D03*
D55*
X00600000Y00338000D02*
D03*
X00574000D02*
D03*
X00626000Y00393000D02*
D03*
X00600000D02*
D03*
X00478000Y00289000D02*
D03*
X00452000D02*
D03*
D56*
X00626000Y00338000D02*
D03*
X00574000Y00393000D02*
D03*
X00426000Y00289000D02*
D03*
D57*
X00144779Y00364802D02*
D03*
D58*
X00758000Y00379000D02*
D03*
X00412384Y00383000D02*
D03*
X00337000Y00691000D02*
D03*
Y00666000D02*
D03*
X00552000Y00382000D02*
D03*
X00593750Y00369750D02*
D03*
X00426000Y00478000D02*
D03*
X00414000Y00469000D02*
D03*
X00385800Y00233850D02*
D03*
X00614000Y00310000D02*
D03*
X00580000Y00305000D02*
D03*
X00796000Y00441000D02*
D03*
X00790500Y00433250D02*
D03*
X00782000Y00464000D02*
D03*
X00769000Y00212000D02*
D03*
X00771000Y00200000D02*
D03*
M02*
