G04*
G04 #@! TF.GenerationSoftware,Altium Limited,Altium Designer,21.7.2 (23)*
G04*
G04 Layer_Color=8388736*
%FSAX44Y44*%
%MOMM*%
G71*
G04*
G04 #@! TF.SameCoordinates,4A6D4AB1-6007-4630-8E60-4AF4B25B3F81*
G04*
G04*
G04 #@! TF.FilePolarity,Negative*
G04*
G01*
G75*
%ADD13C,0.6000*%
%ADD16R,1.3000X1.5000*%
%ADD17R,0.9500X1.4500*%
%ADD18R,1.5000X1.3000*%
%ADD19R,1.4500X0.9500*%
%ADD20R,2.1000X3.0000*%
%ADD21R,0.8000X1.3000*%
%ADD22R,2.2000X3.3000*%
%ADD23R,2.2000X1.0000*%
%ADD24O,1.9500X0.5500*%
%ADD25R,1.3300X1.3300*%
%ADD26R,0.9000X2.0000*%
%ADD27R,2.0000X0.9000*%
%ADD28R,0.9000X1.0000*%
%ADD29R,0.9500X1.4500*%
G04:AMPARAMS|DCode=30|XSize=0.9mm|YSize=1mm|CornerRadius=0mm|HoleSize=0mm|Usage=FLASHONLY|Rotation=90.476|XOffset=0mm|YOffset=0mm|HoleType=Round|Shape=Rectangle|*
%AMROTATEDRECTD30*
4,1,4,0.5037,-0.4458,-0.4963,-0.4541,-0.5037,0.4458,0.4963,0.4541,0.5037,-0.4458,0.0*
%
%ADD30ROTATEDRECTD30*%

%ADD31R,1.2000X1.3000*%
%ADD32R,1.0000X0.9000*%
%ADD33R,1.4500X0.5000*%
%ADD34R,2.0000X1.6000*%
G04:AMPARAMS|DCode=35|XSize=2.2mm|YSize=18.9mm|CornerRadius=1.1mm|HoleSize=0mm|Usage=FLASHONLY|Rotation=40.000|XOffset=0mm|YOffset=0mm|HoleType=Round|Shape=RoundedRectangle|*
%AMROUNDEDRECTD35*
21,1,2.2000,16.7000,0,0,40.0*
21,1,0.0000,18.9000,0,0,40.0*
1,1,2.2000,5.3673,-6.3965*
1,1,2.2000,5.3673,-6.3965*
1,1,2.2000,-5.3673,6.3965*
1,1,2.2000,-5.3673,6.3965*
%
%ADD35ROUNDEDRECTD35*%
G04:AMPARAMS|DCode=36|XSize=2.2mm|YSize=18.9mm|CornerRadius=1.1mm|HoleSize=0mm|Usage=FLASHONLY|Rotation=120.000|XOffset=0mm|YOffset=0mm|HoleType=Round|Shape=RoundedRectangle|*
%AMROUNDEDRECTD36*
21,1,2.2000,16.7000,0,0,120.0*
21,1,0.0000,18.9000,0,0,120.0*
1,1,2.2000,7.2313,4.1750*
1,1,2.2000,7.2313,4.1750*
1,1,2.2000,-7.2313,-4.1750*
1,1,2.2000,-7.2313,-4.1750*
%
%ADD36ROUNDEDRECTD36*%
G04:AMPARAMS|DCode=37|XSize=2.2mm|YSize=18.9mm|CornerRadius=1.1mm|HoleSize=0mm|Usage=FLASHONLY|Rotation=280.000|XOffset=0mm|YOffset=0mm|HoleType=Round|Shape=RoundedRectangle|*
%AMROUNDEDRECTD37*
21,1,2.2000,16.7000,0,0,280.0*
21,1,0.0000,18.9000,0,0,280.0*
1,1,2.2000,-8.2232,-1.4500*
1,1,2.2000,-8.2232,-1.4500*
1,1,2.2000,8.2232,1.4500*
1,1,2.2000,8.2232,1.4500*
%
%ADD37ROUNDEDRECTD37*%
G04:AMPARAMS|DCode=38|XSize=2.2mm|YSize=18.9mm|CornerRadius=1.1mm|HoleSize=0mm|Usage=FLASHONLY|Rotation=200.000|XOffset=0mm|YOffset=0mm|HoleType=Round|Shape=RoundedRectangle|*
%AMROUNDEDRECTD38*
21,1,2.2000,16.7000,0,0,200.0*
21,1,0.0000,18.9000,0,0,200.0*
1,1,2.2000,-2.8559,7.8464*
1,1,2.2000,-2.8559,7.8464*
1,1,2.2000,2.8559,-7.8464*
1,1,2.2000,2.8559,-7.8464*
%
%ADD38ROUNDEDRECTD38*%
G04:AMPARAMS|DCode=39|XSize=2.2mm|YSize=18.9mm|CornerRadius=1.1mm|HoleSize=0mm|Usage=FLASHONLY|Rotation=320.000|XOffset=0mm|YOffset=0mm|HoleType=Round|Shape=RoundedRectangle|*
%AMROUNDEDRECTD39*
21,1,2.2000,16.7000,0,0,320.0*
21,1,0.0000,18.9000,0,0,320.0*
1,1,2.2000,-5.3673,-6.3965*
1,1,2.2000,-5.3673,-6.3965*
1,1,2.2000,5.3673,6.3965*
1,1,2.2000,5.3673,6.3965*
%
%ADD39ROUNDEDRECTD39*%
G04:AMPARAMS|DCode=40|XSize=2.2mm|YSize=18.9mm|CornerRadius=1.1mm|HoleSize=0mm|Usage=FLASHONLY|Rotation=240.000|XOffset=0mm|YOffset=0mm|HoleType=Round|Shape=RoundedRectangle|*
%AMROUNDEDRECTD40*
21,1,2.2000,16.7000,0,0,240.0*
21,1,0.0000,18.9000,0,0,240.0*
1,1,2.2000,-7.2313,4.1750*
1,1,2.2000,-7.2313,4.1750*
1,1,2.2000,7.2313,-4.1750*
1,1,2.2000,7.2313,-4.1750*
%
%ADD40ROUNDEDRECTD40*%
G04:AMPARAMS|DCode=41|XSize=2.2mm|YSize=18.9mm|CornerRadius=1.1mm|HoleSize=0mm|Usage=FLASHONLY|Rotation=160.000|XOffset=0mm|YOffset=0mm|HoleType=Round|Shape=RoundedRectangle|*
%AMROUNDEDRECTD41*
21,1,2.2000,16.7000,0,0,160.0*
21,1,0.0000,18.9000,0,0,160.0*
1,1,2.2000,2.8559,7.8464*
1,1,2.2000,2.8559,7.8464*
1,1,2.2000,-2.8559,-7.8464*
1,1,2.2000,-2.8559,-7.8464*
%
%ADD41ROUNDEDRECTD41*%
G04:AMPARAMS|DCode=42|XSize=2.2mm|YSize=18.9mm|CornerRadius=1.1mm|HoleSize=0mm|Usage=FLASHONLY|Rotation=80.000|XOffset=0mm|YOffset=0mm|HoleType=Round|Shape=RoundedRectangle|*
%AMROUNDEDRECTD42*
21,1,2.2000,16.7000,0,0,80.0*
21,1,0.0000,18.9000,0,0,80.0*
1,1,2.2000,8.2232,-1.4500*
1,1,2.2000,8.2232,-1.4500*
1,1,2.2000,-8.2232,1.4500*
1,1,2.2000,-8.2232,1.4500*
%
%ADD42ROUNDEDRECTD42*%
G04:AMPARAMS|DCode=43|XSize=2.2mm|YSize=18.9mm|CornerRadius=1.1mm|HoleSize=0mm|Usage=FLASHONLY|Rotation=0.000|XOffset=0mm|YOffset=0mm|HoleType=Round|Shape=RoundedRectangle|*
%AMROUNDEDRECTD43*
21,1,2.2000,16.7000,0,0,0.0*
21,1,0.0000,18.9000,0,0,0.0*
1,1,2.2000,0.0000,-8.3500*
1,1,2.2000,0.0000,-8.3500*
1,1,2.2000,0.0000,8.3500*
1,1,2.2000,0.0000,8.3500*
%
%ADD43ROUNDEDRECTD43*%
%ADD44C,0.9000*%
%ADD45R,1.5000X1.5000*%
%ADD46C,1.5000*%
%ADD47R,1.4500X1.4500*%
%ADD48C,1.4500*%
%ADD49C,1.6500*%
%ADD50C,2.9000*%
%ADD51C,1.5500*%
%ADD52P,2.1920X4X355.0*%
%ADD53P,2.1920X4X275.0*%
%ADD54C,1.7000*%
%ADD55C,2.3000*%
G36*
X00863097Y00415493D02*
X00863192Y00415464D01*
X00863278Y00415418D01*
X00863354Y00415355D01*
X00863417Y00415279D01*
X00863463Y00415192D01*
X00863492Y00415098D01*
X00863502Y00415000D01*
Y00402000D01*
X00863492Y00401902D01*
X00863463Y00401808D01*
X00863417Y00401721D01*
X00863354Y00401645D01*
X00863278Y00401582D01*
X00863192Y00401536D01*
X00863097Y00401507D01*
X00862999Y00401498D01*
X00858502D01*
Y00397000D01*
X00858492Y00396902D01*
X00858464Y00396808D01*
X00858417Y00396721D01*
X00858355Y00396645D01*
X00858279Y00396582D01*
X00858192Y00396536D01*
X00858098Y00396507D01*
X00858000Y00396498D01*
X00848999Y00396498D01*
X00848999D01*
D01*
X00848901Y00396507D01*
X00848807Y00396536D01*
X00848720Y00396582D01*
X00848644Y00396645D01*
X00848581Y00396721D01*
X00848535Y00396808D01*
X00848506Y00396902D01*
X00848497Y00397000D01*
Y00397000D01*
D01*
Y00401498D01*
X00843999D01*
X00843901Y00401507D01*
X00843807Y00401536D01*
X00843720Y00401582D01*
X00843644Y00401645D01*
X00843581Y00401721D01*
X00843535Y00401808D01*
X00843506Y00401902D01*
X00843497Y00402000D01*
Y00415000D01*
X00843506Y00415098D01*
X00843535Y00415192D01*
X00843581Y00415279D01*
X00843644Y00415355D01*
X00843720Y00415418D01*
X00843807Y00415464D01*
X00843901Y00415493D01*
X00843999Y00415502D01*
X00862999D01*
X00863097Y00415493D01*
D02*
G37*
G36*
X00858097Y00479493D02*
X00858192Y00479464D01*
X00858278Y00479418D01*
X00858354Y00479355D01*
X00858417Y00479279D01*
X00858463Y00479192D01*
X00858492Y00479098D01*
X00858502Y00479000D01*
Y00479000D01*
D01*
Y00474502D01*
X00862999D01*
X00863097Y00474493D01*
X00863192Y00474464D01*
X00863278Y00474418D01*
X00863354Y00474355D01*
X00863417Y00474279D01*
X00863463Y00474192D01*
X00863492Y00474098D01*
X00863502Y00474000D01*
Y00461000D01*
X00863492Y00460902D01*
X00863463Y00460808D01*
X00863417Y00460721D01*
X00863354Y00460645D01*
X00863278Y00460582D01*
X00863192Y00460536D01*
X00863097Y00460507D01*
X00862999Y00460498D01*
X00843999D01*
X00843901Y00460507D01*
X00843807Y00460536D01*
X00843720Y00460582D01*
X00843644Y00460645D01*
X00843581Y00460721D01*
X00843535Y00460808D01*
X00843506Y00460902D01*
X00843497Y00461000D01*
Y00474000D01*
X00843506Y00474098D01*
X00843535Y00474192D01*
X00843581Y00474279D01*
X00843644Y00474355D01*
X00843720Y00474418D01*
X00843807Y00474464D01*
X00843901Y00474493D01*
X00843999Y00474502D01*
X00848497D01*
Y00479000D01*
X00848506Y00479098D01*
X00848535Y00479192D01*
X00848581Y00479279D01*
X00848644Y00479355D01*
X00848720Y00479417D01*
X00848807Y00479464D01*
X00848901Y00479493D01*
X00848999Y00479502D01*
X00857999Y00479502D01*
X00857999D01*
D01*
X00858097Y00479493D01*
D02*
G37*
D13*
X00860499Y00402000D02*
G03*
X00860499Y00402000I-00002500J00000000D01*
G01*
X00851499D02*
G03*
X00851499Y00402000I-00002500J00000000D01*
G01*
X00860499Y00474000D02*
G03*
X00860499Y00474000I-00002500J00000000D01*
G01*
X00851499D02*
G03*
X00851499Y00474000I-00002500J00000000D01*
G01*
D16*
X00291500Y00555000D02*
D03*
X00308500D02*
D03*
X00689750Y00201000D02*
D03*
X00672750D02*
D03*
X00242500Y00296000D02*
D03*
X00225500Y00296000D02*
D03*
X00745500Y00469000D02*
D03*
X00728500D02*
D03*
X00227500Y00606000D02*
D03*
X00244500D02*
D03*
D17*
X00340750Y00195500D02*
D03*
X00324250Y00195500D02*
D03*
X00289750Y00594000D02*
D03*
X00306250D02*
D03*
X00611793Y00328000D02*
D03*
X00595293D02*
D03*
D18*
X00292000Y00614500D02*
D03*
Y00631500D02*
D03*
X00324000Y00575500D02*
D03*
Y00592500D02*
D03*
X00496000Y00324500D02*
D03*
Y00307500D02*
D03*
X00771000Y00427500D02*
D03*
Y00444500D02*
D03*
X00732000Y00339207D02*
D03*
Y00356207D02*
D03*
X00654000Y00403500D02*
D03*
Y00386500D02*
D03*
D19*
X00328000Y00410750D02*
D03*
Y00427250D02*
D03*
X00394250Y00410750D02*
D03*
X00394300Y00427250D02*
D03*
X00256000Y00507500D02*
D03*
Y00491000D02*
D03*
X00606293Y00300250D02*
D03*
Y00283750D02*
D03*
X00366050Y00427250D02*
D03*
Y00410750D02*
D03*
X00513650D02*
D03*
Y00427250D02*
D03*
X00490650Y00410750D02*
D03*
Y00427250D02*
D03*
X00290000Y00319750D02*
D03*
Y00336250D02*
D03*
X00453000Y00187000D02*
D03*
Y00170500D02*
D03*
X00573750Y00155000D02*
D03*
Y00171500D02*
D03*
X00554750Y00155000D02*
D03*
Y00171500D02*
D03*
X00535750Y00155000D02*
D03*
Y00171500D02*
D03*
D20*
X00263000Y00243500D02*
D03*
X00401500D02*
D03*
D21*
X00376000Y00271000D02*
D03*
X00363500D02*
D03*
X00351000D02*
D03*
X00338500D02*
D03*
X00326000D02*
D03*
X00313500D02*
D03*
X00301000D02*
D03*
X00288500D02*
D03*
D22*
X00688500Y00403000D02*
D03*
D23*
X00745500Y00426000D02*
D03*
Y00403000D02*
D03*
Y00380000D02*
D03*
D24*
X00650750Y00312250D02*
D03*
Y00305750D02*
D03*
Y00299250D02*
D03*
Y00292750D02*
D03*
Y00286250D02*
D03*
Y00279750D02*
D03*
Y00273250D02*
D03*
Y00266750D02*
D03*
Y00260250D02*
D03*
Y00253750D02*
D03*
Y00247250D02*
D03*
Y00240750D02*
D03*
Y00234250D02*
D03*
Y00227750D02*
D03*
X00725250Y00312250D02*
D03*
Y00305750D02*
D03*
Y00299250D02*
D03*
Y00292750D02*
D03*
Y00286250D02*
D03*
Y00279750D02*
D03*
Y00273250D02*
D03*
Y00266750D02*
D03*
Y00260250D02*
D03*
Y00253750D02*
D03*
Y00247250D02*
D03*
Y00240750D02*
D03*
Y00234250D02*
D03*
Y00227750D02*
D03*
D25*
X00442350Y00541250D02*
D03*
X00424000D02*
D03*
X00405650D02*
D03*
X00442350Y00559600D02*
D03*
X00424000D02*
D03*
X00405650D02*
D03*
X00442350Y00577950D02*
D03*
X00424000D02*
D03*
X00405650D02*
D03*
D26*
X00491150Y00459500D02*
D03*
X00478450D02*
D03*
X00465750D02*
D03*
X00453050D02*
D03*
X00440350D02*
D03*
X00427650D02*
D03*
X00414950D02*
D03*
X00402250D02*
D03*
X00389550D02*
D03*
X00376850D02*
D03*
D27*
X00519000Y00634600D02*
D03*
Y00621900D02*
D03*
Y00609200D02*
D03*
Y00596500D02*
D03*
Y00583800D02*
D03*
Y00571100D02*
D03*
Y00558400D02*
D03*
Y00545700D02*
D03*
Y00533000D02*
D03*
Y00520300D02*
D03*
Y00507600D02*
D03*
Y00494900D02*
D03*
Y00482200D02*
D03*
Y00469500D02*
D03*
X00349000D02*
D03*
Y00482200D02*
D03*
Y00494900D02*
D03*
Y00507600D02*
D03*
Y00520300D02*
D03*
Y00533000D02*
D03*
Y00545700D02*
D03*
Y00558400D02*
D03*
Y00571100D02*
D03*
Y00583800D02*
D03*
Y00596500D02*
D03*
Y00609200D02*
D03*
Y00621900D02*
D03*
Y00634600D02*
D03*
D28*
X00246000Y00403000D02*
D03*
X00236500Y00423000D02*
D03*
X00255500D02*
D03*
D29*
X00255250Y00456387D02*
D03*
X00238750D02*
D03*
D30*
X00447921Y00286417D02*
D03*
X00448079Y00267417D02*
D03*
X00468000Y00277083D02*
D03*
D31*
X00471500Y00411000D02*
D03*
X00450500D02*
D03*
D32*
X00328000Y00337500D02*
D03*
Y00318500D02*
D03*
X00348000Y00328000D02*
D03*
D33*
X00826499Y00425000D02*
D03*
Y00431500D02*
D03*
Y00438000D02*
D03*
Y00444500D02*
D03*
Y00451000D02*
D03*
D34*
X00853499Y00428000D02*
D03*
Y00448000D02*
D03*
D35*
X00164224Y00206597D02*
D03*
D36*
X00620000Y00126231D02*
D03*
D37*
X00377487Y00792531D02*
D03*
D38*
X00778289Y00561127D02*
D03*
D39*
X00164224Y00669404D02*
D03*
D40*
X00620000Y00749769D02*
D03*
D41*
X00778289Y00314873D02*
D03*
D42*
X00377487Y00083469D02*
D03*
D43*
X00080000Y00438000D02*
D03*
D44*
X00442350Y00541250D02*
D03*
X00424000D02*
D03*
X00405650D02*
D03*
X00442350Y00559600D02*
D03*
X00424000D02*
D03*
X00405650D02*
D03*
X00442350Y00577950D02*
D03*
X00424000D02*
D03*
X00405650D02*
D03*
X00324000Y00605000D02*
D03*
X00793000Y00460000D02*
D03*
X00273000Y00577000D02*
D03*
X00623000Y00315000D02*
D03*
X00719000Y00196000D02*
D03*
X00734000Y00177000D02*
D03*
X00338000Y00294750D02*
D03*
X00326250Y00295250D02*
D03*
X00626750Y00239750D02*
D03*
X00635250Y00286057D02*
D03*
X00601000Y00605000D02*
D03*
X00556249Y00571502D02*
D03*
X00587000Y00592000D02*
D03*
X00358000Y00373000D02*
D03*
X00614000Y00265000D02*
D03*
X00630000Y00352000D02*
D03*
X00616000Y00620000D02*
D03*
X00539000Y00495000D02*
D03*
Y00507500D02*
D03*
Y00532750D02*
D03*
X00564000Y00608000D02*
D03*
X00539000Y00619000D02*
D03*
X00520000Y00449000D02*
D03*
X00310000Y00508000D02*
D03*
X00797000Y00438000D02*
D03*
X00329000Y00546000D02*
D03*
Y00533000D02*
D03*
Y00519000D02*
D03*
D45*
X00527000Y00313289D02*
D03*
X00580000Y00274289D02*
D03*
D46*
X00579000Y00313289D02*
D03*
X00553000D02*
D03*
X00554000Y00274289D02*
D03*
X00528000D02*
D03*
D47*
X00257500Y00581000D02*
D03*
X00196500Y00349000D02*
D03*
D48*
X00222500Y00581000D02*
D03*
X00231500Y00349000D02*
D03*
D49*
X00397450Y00149500D02*
D03*
X00372050D02*
D03*
X00346650D02*
D03*
X00321250D02*
D03*
X00631000Y00208000D02*
D03*
X00605600D02*
D03*
X00580200D02*
D03*
X00554800D02*
D03*
X00453200D02*
D03*
X00478600D02*
D03*
X00504000D02*
D03*
X00529400D02*
D03*
D50*
X00233611Y00179054D02*
D03*
X00149149Y00279712D02*
D03*
Y00596288D02*
D03*
X00233611Y00696946D02*
D03*
D51*
X00234638Y00219991D02*
D03*
X00218568Y00239142D02*
D03*
X00205712Y00254463D02*
D03*
X00189643Y00602386D02*
D03*
X00205712Y00621537D02*
D03*
X00218568Y00636858D02*
D03*
X00826499Y00463000D02*
D03*
Y00413000D02*
D03*
D52*
X00189643Y00273614D02*
D03*
D53*
X00234638Y00656009D02*
D03*
D54*
X00657000Y00513800D02*
D03*
Y00539200D02*
D03*
Y00564600D02*
D03*
Y00666200D02*
D03*
Y00640800D02*
D03*
Y00615400D02*
D03*
Y00488400D02*
D03*
Y00590000D02*
D03*
X00678000Y00243600D02*
D03*
Y00269000D02*
D03*
Y00294400D02*
D03*
D55*
X00070000Y00598000D02*
D03*
Y00278000D02*
D03*
X00720000Y00143000D02*
D03*
Y00733000D02*
D03*
M02*
