G04*
G04 #@! TF.GenerationSoftware,Altium Limited,Altium Designer,20.2.6 (244)*
G04*
G04 Layer_Color=32896*
%FSAX44Y44*%
%MOMM*%
G71*
G04*
G04 #@! TF.SameCoordinates,65735EED-05C8-4403-9655-43ED446DB93E*
G04*
G04*
G04 #@! TF.FilePolarity,Positive*
G04*
G01*
G75*
%ADD11C,0.2540*%
%ADD13C,0.2000*%
%ADD59C,1.0000*%
G36*
X00497898Y00148929D02*
X00500969Y00148374D01*
X00501254Y00148321D01*
X00501538Y00148267D01*
X00501821Y00148211D01*
X00502102Y00148153D01*
X00502381Y00148093D01*
X00502659Y00148032D01*
X00502935Y00147969D01*
X00503210Y00147905D01*
X00503483Y00147839D01*
X00503754Y00147771D01*
X00504024Y00147701D01*
X00504293Y00147630D01*
X00504559Y00147557D01*
X00504825Y00147482D01*
X00505088Y00147406D01*
X00505350Y00147328D01*
X00505611Y00147248D01*
X00505870Y00147167D01*
X00506127Y00147083D01*
X00506383Y00146999D01*
X00506637Y00146912D01*
X00506889Y00146824D01*
X00507140Y00146734D01*
X00507390Y00146643D01*
X00507638Y00146550D01*
X00507884Y00146455D01*
X00508128Y00146358D01*
X00508371Y00146260D01*
X00508613Y00146160D01*
X00508852Y00146059D01*
X00509091Y00145956D01*
X00509327Y00145851D01*
X00509562Y00145744D01*
X00509795Y00145636D01*
X00510027Y00145526D01*
X00510257Y00145415D01*
X00510486Y00145302D01*
X00510713Y00145187D01*
X00510938Y00145071D01*
X00511162Y00144953D01*
X00511384Y00144833D01*
X00511604Y00144712D01*
X00511823Y00144588D01*
X00512040Y00144464D01*
X00512256Y00144338D01*
X00512470Y00144209D01*
X00512682Y00144080D01*
X00512892Y00143949D01*
X00513102Y00143816D01*
X00513309Y00143681D01*
X00513515Y00143545D01*
X00513719Y00143407D01*
X00513921Y00143268D01*
X00514122Y00143127D01*
X00514321Y00142984D01*
X00514519Y00142840D01*
X00514715Y00142694D01*
X00514909Y00142547D01*
X00515102Y00142397D01*
X00515293Y00142247D01*
X00515482Y00142094D01*
X00515670Y00141940D01*
X00515855Y00141784D01*
X00516040Y00141627D01*
X00516222Y00141468D01*
X00516404Y00141308D01*
X00516583Y00141145D01*
X00516761Y00140982D01*
X00516937Y00140816D01*
X00517111Y00140649D01*
X00517284Y00140481D01*
X00517455Y00140311D01*
X00517624Y00140139D01*
X00517792Y00139965D01*
X00517958Y00139790D01*
X00518122Y00139614D01*
X00518285Y00139436D01*
X00518446Y00139256D01*
X00518605Y00139074D01*
X00518763Y00138891D01*
X00518918Y00138707D01*
X00519073Y00138521D01*
X00519225Y00138333D01*
X00519376Y00138144D01*
X00519525Y00137952D01*
X00519673Y00137760D01*
X00519818Y00137566D01*
X00519963Y00137370D01*
X00520105Y00137173D01*
X00520246Y00136974D01*
X00520384Y00136774D01*
X00520522Y00136572D01*
X00520657Y00136368D01*
X00520791Y00136163D01*
X00520923Y00135956D01*
X00521054Y00135747D01*
X00521183Y00135538D01*
X00521310Y00135326D01*
X00521435Y00135113D01*
X00521558Y00134899D01*
X00521680Y00134682D01*
X00521801Y00134465D01*
X00521919Y00134245D01*
X00522036Y00134024D01*
X00522151Y00133802D01*
X00522264Y00133578D01*
X00522376Y00133352D01*
X00522485Y00133125D01*
X00522593Y00132896D01*
X00522700Y00132666D01*
X00522804Y00132435D01*
X00522907Y00132201D01*
X00523009Y00131966D01*
X00523108Y00131730D01*
X00523206Y00131492D01*
X00523302Y00131252D01*
X00523396Y00131011D01*
X00523488Y00130769D01*
X00523579Y00130524D01*
X00523668Y00130279D01*
X00523755Y00130031D01*
X00523841Y00129783D01*
X00523924Y00129532D01*
X00524006Y00129281D01*
X00524086Y00129027D01*
X00524165Y00128772D01*
X00524242Y00128516D01*
X00524316Y00128258D01*
X00525137Y00125389D01*
X00525362Y00121024D01*
X00525587Y00116659D01*
X00534136Y00092849D01*
X00542685Y00069040D01*
X00543000Y00063764D01*
X00540919Y00059365D01*
X00538797Y00057426D01*
X00536675Y00055486D01*
X00533755Y00054068D01*
X00533437Y00053915D01*
X00533118Y00053764D01*
X00532798Y00053615D01*
X00532477Y00053469D01*
X00532156Y00053326D01*
X00531833Y00053184D01*
X00531509Y00053045D01*
X00531184Y00052908D01*
X00530858Y00052774D01*
X00530530Y00052642D01*
X00530200Y00052511D01*
X00529869Y00052383D01*
X00529536Y00052258D01*
X00529202Y00052134D01*
X00528865Y00052013D01*
X00528526Y00051893D01*
X00528185Y00051776D01*
X00527841Y00051661D01*
X00527496Y00051548D01*
X00527147Y00051437D01*
X00526797Y00051327D01*
X00526443Y00051220D01*
X00526087Y00051115D01*
X00525728Y00051011D01*
X00525365Y00050910D01*
X00525000Y00050810D01*
X00524631Y00050712D01*
X00524259Y00050616D01*
X00523884Y00050522D01*
X00523505Y00050430D01*
X00523123Y00050339D01*
X00522737Y00050250D01*
X00522347Y00050163D01*
X00521953Y00050078D01*
X00521555Y00049994D01*
X00521153Y00049911D01*
X00520746Y00049831D01*
X00520336Y00049752D01*
X00519920Y00049674D01*
X00519501Y00049598D01*
X00519076Y00049524D01*
X00518647Y00049451D01*
X00518213Y00049380D01*
X00517775Y00049310D01*
X00517331Y00049241D01*
X00516881Y00049174D01*
X00516427Y00049108D01*
X00515967Y00049044D01*
X00515502Y00048981D01*
X00515031Y00048919D01*
X00514555Y00048858D01*
X00514073Y00048799D01*
X00513585Y00048741D01*
X00513091Y00048684D01*
X00512590Y00048629D01*
X00512084Y00048574D01*
X00511571Y00048521D01*
X00511052Y00048469D01*
X00510527Y00048418D01*
X00509995Y00048368D01*
X00509456Y00048319D01*
X00508910Y00048271D01*
X00508358Y00048224D01*
X00507798Y00048178D01*
X00501997Y00047710D01*
X00489432Y00047935D01*
X00476867Y00048160D01*
X00473494Y00048583D01*
X00473080Y00048636D01*
X00472669Y00048690D01*
X00472261Y00048745D01*
X00471856Y00048801D01*
X00471453Y00048857D01*
X00471053Y00048916D01*
X00470656Y00048975D01*
X00470261Y00049035D01*
X00469870Y00049096D01*
X00469481Y00049158D01*
X00469095Y00049222D01*
X00468711Y00049286D01*
X00468330Y00049352D01*
X00467952Y00049419D01*
X00467577Y00049486D01*
X00467205Y00049555D01*
X00466835Y00049625D01*
X00466468Y00049696D01*
X00466103Y00049768D01*
X00465742Y00049842D01*
X00465383Y00049916D01*
X00465027Y00049991D01*
X00464673Y00050068D01*
X00464322Y00050145D01*
X00463974Y00050224D01*
X00463629Y00050304D01*
X00463286Y00050384D01*
X00462946Y00050466D01*
X00462609Y00050549D01*
X00462275Y00050633D01*
X00461943Y00050718D01*
X00461613Y00050805D01*
X00461287Y00050892D01*
X00460963Y00050981D01*
X00460642Y00051070D01*
X00460324Y00051161D01*
X00460008Y00051252D01*
X00459695Y00051345D01*
X00459384Y00051439D01*
X00459077Y00051534D01*
X00458772Y00051630D01*
X00458470Y00051727D01*
X00458170Y00051826D01*
X00457873Y00051925D01*
X00457579Y00052026D01*
X00457287Y00052127D01*
X00456998Y00052230D01*
X00456712Y00052334D01*
X00456428Y00052439D01*
X00456147Y00052544D01*
X00455868Y00052652D01*
X00455593Y00052760D01*
X00455320Y00052869D01*
X00455049Y00052979D01*
X00454782Y00053091D01*
X00454516Y00053204D01*
X00454254Y00053317D01*
X00453994Y00053432D01*
X00453737Y00053548D01*
X00453483Y00053665D01*
X00453231Y00053783D01*
X00452981Y00053903D01*
X00452735Y00054023D01*
X00452491Y00054144D01*
X00449460Y00055668D01*
X00447368Y00057549D01*
X00445275Y00059431D01*
X00444271Y00061413D01*
X00443266Y00063395D01*
X00442841Y00067514D01*
X00444449Y00072047D01*
X00444786Y00072996D01*
X00445276Y00074368D01*
X00445857Y00075991D01*
X00446593Y00078046D01*
X00447389Y00080263D01*
X00448123Y00082304D01*
X00448860Y00084352D01*
X00449760Y00086849D01*
X00450314Y00088390D01*
X00450928Y00090106D01*
X00451547Y00091839D01*
X00452158Y00093556D01*
X00452749Y00095222D01*
X00453309Y00096806D01*
X00453826Y00098274D01*
X00454287Y00099593D01*
X00454655Y00100649D01*
X00455097Y00101928D01*
X00455487Y00103054D01*
X00455903Y00104251D01*
X00456335Y00105490D01*
X00456835Y00106920D01*
X00457328Y00108324D01*
X00457741Y00109497D01*
X00458126Y00110589D01*
X00458475Y00111569D01*
X00460288Y00116659D01*
X00460759Y00125389D01*
X00461598Y00128359D01*
X00462437Y00131328D01*
X00463893Y00134100D01*
X00465350Y00136872D01*
X00467714Y00139399D01*
X00467932Y00139630D01*
X00468152Y00139859D01*
X00468372Y00140083D01*
X00468593Y00140305D01*
X00468816Y00140523D01*
X00469039Y00140738D01*
X00469264Y00140950D01*
X00469490Y00141159D01*
X00469717Y00141364D01*
X00469945Y00141567D01*
X00470175Y00141766D01*
X00470406Y00141962D01*
X00470638Y00142156D01*
X00470872Y00142346D01*
X00471107Y00142533D01*
X00471344Y00142717D01*
X00471582Y00142898D01*
X00471822Y00143076D01*
X00472063Y00143251D01*
X00472306Y00143423D01*
X00472551Y00143592D01*
X00472797Y00143758D01*
X00473046Y00143922D01*
X00473296Y00144082D01*
X00473548Y00144240D01*
X00473801Y00144395D01*
X00474057Y00144547D01*
X00474315Y00144696D01*
X00474575Y00144843D01*
X00474836Y00144987D01*
X00475100Y00145128D01*
X00475366Y00145267D01*
X00475634Y00145402D01*
X00475905Y00145536D01*
X00476177Y00145666D01*
X00476452Y00145794D01*
X00476730Y00145920D01*
X00477009Y00146042D01*
X00477291Y00146163D01*
X00477576Y00146280D01*
X00477863Y00146395D01*
X00478152Y00146508D01*
X00478444Y00146618D01*
X00478739Y00146726D01*
X00479036Y00146832D01*
X00479336Y00146935D01*
X00479639Y00147035D01*
X00479945Y00147134D01*
X00480253Y00147229D01*
X00480564Y00147323D01*
X00480878Y00147414D01*
X00481195Y00147503D01*
X00481516Y00147590D01*
X00481838Y00147675D01*
X00482165Y00147757D01*
X00482494Y00147837D01*
X00482826Y00147915D01*
X00483162Y00147991D01*
X00483500Y00148064D01*
X00483842Y00148136D01*
X00484188Y00148205D01*
X00484536Y00148273D01*
X00484888Y00148338D01*
X00485243Y00148401D01*
X00488677Y00149000D01*
X00497898Y00148929D01*
D02*
G37*
%LPC*%
G36*
X00488970Y00147810D02*
X00487879Y00147803D01*
X00487753Y00147799D01*
X00487603Y00147789D01*
X00487430Y00147774D01*
X00487237Y00147754D01*
X00487025Y00147729D01*
X00486797Y00147699D01*
X00486553Y00147664D01*
X00486297Y00147626D01*
X00486031Y00147584D01*
X00485755Y00147539D01*
X00485473Y00147490D01*
X00485186Y00147439D01*
X00484896Y00147385D01*
X00484605Y00147329D01*
X00484315Y00147271D01*
X00484028Y00147211D01*
X00483883Y00147180D01*
X00483733Y00147146D01*
X00483578Y00147111D01*
X00483419Y00147073D01*
X00483256Y00147033D01*
X00483089Y00146992D01*
X00482919Y00146948D01*
X00482745Y00146904D01*
X00482569Y00146857D01*
X00482391Y00146809D01*
X00482211Y00146760D01*
X00482029Y00146710D01*
X00481846Y00146658D01*
X00481662Y00146606D01*
X00481477Y00146552D01*
X00481293Y00146498D01*
X00481108Y00146443D01*
X00480924Y00146387D01*
X00480741Y00146331D01*
X00480558Y00146275D01*
X00480378Y00146218D01*
X00480199Y00146161D01*
X00480022Y00146104D01*
X00479848Y00146047D01*
X00479677Y00145990D01*
X00479510Y00145933D01*
X00479345Y00145877D01*
X00479185Y00145821D01*
X00479029Y00145766D01*
X00478878Y00145711D01*
X00478732Y00145657D01*
X00478591Y00145604D01*
X00475913Y00144580D01*
X00473419Y00142969D01*
X00470926Y00141357D01*
X00468683Y00139030D01*
X00466441Y00136702D01*
X00463239Y00130547D01*
X00461589Y00124247D01*
Y00115826D01*
X00461221Y00115449D01*
X00461167Y00115363D01*
X00461082Y00115187D01*
X00460966Y00114925D01*
X00460824Y00114582D01*
X00460655Y00114163D01*
X00460462Y00113674D01*
X00460247Y00113118D01*
X00460012Y00112501D01*
X00459758Y00111828D01*
X00459488Y00111103D01*
X00459203Y00110331D01*
X00458905Y00109518D01*
X00458596Y00108668D01*
X00458278Y00107786D01*
X00457952Y00106876D01*
X00457621Y00105944D01*
X00456843Y00103752D01*
X00456032Y00101466D01*
X00455217Y00099172D01*
X00454343Y00096716D01*
X00453618Y00094681D01*
X00452983Y00092901D01*
X00452467Y00091460D01*
X00448347Y00079968D01*
X00448124Y00079342D01*
X00447908Y00078733D01*
X00447700Y00078144D01*
X00447503Y00077577D01*
X00447315Y00077036D01*
X00447140Y00076524D01*
X00446977Y00076044D01*
X00446829Y00075600D01*
X00446695Y00075195D01*
X00446577Y00074832D01*
X00446476Y00074514D01*
X00446394Y00074244D01*
X00446330Y00074026D01*
X00446287Y00073863D01*
X00446266Y00073758D01*
X00446266Y00073714D01*
X00446337Y00073761D01*
X00446494Y00073942D01*
X00446728Y00074244D01*
X00447027Y00074651D01*
X00447383Y00075152D01*
X00447786Y00075731D01*
X00448224Y00076376D01*
X00448690Y00077071D01*
X00448926Y00077426D01*
X00449160Y00077772D01*
X00449389Y00078108D01*
X00449612Y00078432D01*
X00449828Y00078741D01*
X00450035Y00079035D01*
X00450233Y00079310D01*
X00450419Y00079566D01*
X00450592Y00079800D01*
X00450751Y00080011D01*
X00450896Y00080197D01*
X00451023Y00080356D01*
X00451132Y00080485D01*
X00451222Y00080584D01*
X00451292Y00080651D01*
X00451339Y00080682D01*
X00451498Y00080755D01*
X00451652Y00080846D01*
X00451803Y00080957D01*
X00451951Y00081088D01*
X00452097Y00081242D01*
X00452240Y00081417D01*
X00452381Y00081616D01*
X00452522Y00081840D01*
X00452662Y00082088D01*
X00452802Y00082363D01*
X00452943Y00082665D01*
X00453084Y00082994D01*
X00453227Y00083353D01*
X00453373Y00083741D01*
X00453521Y00084159D01*
X00453672Y00084609D01*
X00453717Y00084743D01*
X00453810Y00085024D01*
X00453911Y00085322D01*
X00454019Y00085637D01*
X00454134Y00085969D01*
X00454255Y00086316D01*
X00454447Y00086863D01*
X00454653Y00087443D01*
X00454871Y00088051D01*
X00455100Y00088685D01*
X00455340Y00089345D01*
X00455589Y00090026D01*
X00455847Y00090728D01*
X00456113Y00091447D01*
X00456386Y00092183D01*
X00456665Y00092931D01*
X00456949Y00093691D01*
X00457238Y00094460D01*
X00457530Y00095236D01*
X00457825Y00096016D01*
X00458122Y00096798D01*
X00458421Y00097581D01*
X00458719Y00098362D01*
X00459017Y00099138D01*
X00459313Y00099908D01*
X00459607Y00100669D01*
X00459898Y00101419D01*
X00460185Y00102156D01*
X00460466Y00102877D01*
X00460742Y00103581D01*
X00461012Y00104265D01*
X00461274Y00104928D01*
X00461528Y00105566D01*
X00461773Y00106177D01*
X00462007Y00106760D01*
X00462231Y00107311D01*
X00462443Y00107830D01*
X00462643Y00108313D01*
X00462829Y00108759D01*
X00463001Y00109165D01*
X00463158Y00109529D01*
X00463299Y00109849D01*
X00463383Y00110037D01*
X00463460Y00110203D01*
X00463529Y00110347D01*
X00463590Y00110469D01*
X00463679Y00110637D01*
X00463746Y00110757D01*
X00463816Y00110882D01*
X00463891Y00111011D01*
X00463969Y00111143D01*
X00464050Y00111279D01*
X00464135Y00111419D01*
X00464223Y00111561D01*
X00464314Y00111706D01*
X00464407Y00111853D01*
X00464503Y00112002D01*
X00464601Y00112153D01*
X00464701Y00112305D01*
X00464803Y00112458D01*
X00464906Y00112613D01*
X00465011Y00112767D01*
X00465117Y00112923D01*
X00465225Y00113078D01*
X00465333Y00113233D01*
X00465442Y00113387D01*
X00465551Y00113540D01*
X00465661Y00113693D01*
X00465770Y00113843D01*
X00465880Y00113992D01*
X00465989Y00114139D01*
X00466097Y00114283D01*
X00466205Y00114425D01*
X00466312Y00114564D01*
X00466418Y00114700D01*
X00466522Y00114832D01*
X00466625Y00114960D01*
X00466726Y00115085D01*
X00468670Y00117452D01*
X00470617Y00118932D01*
X00470720Y00119009D01*
X00470827Y00119087D01*
X00470938Y00119167D01*
X00471053Y00119249D01*
X00471172Y00119332D01*
X00471293Y00119415D01*
X00471418Y00119500D01*
X00471546Y00119585D01*
X00471676Y00119670D01*
X00471809Y00119756D01*
X00471943Y00119843D01*
X00472080Y00119929D01*
X00472217Y00120015D01*
X00472356Y00120101D01*
X00472496Y00120186D01*
X00472636Y00120271D01*
X00472777Y00120355D01*
X00472918Y00120438D01*
X00473059Y00120520D01*
X00473200Y00120601D01*
X00473339Y00120680D01*
X00473478Y00120758D01*
X00473616Y00120834D01*
X00473752Y00120908D01*
X00473887Y00120980D01*
X00474019Y00121050D01*
X00474149Y00121117D01*
X00474277Y00121182D01*
X00474402Y00121245D01*
X00474524Y00121304D01*
X00474642Y00121361D01*
X00474757Y00121414D01*
X00476951Y00122419D01*
X00481628Y00123288D01*
X00483741Y00123042D01*
X00485854Y00122796D01*
X00487412Y00122001D01*
X00488970Y00121206D01*
Y00147810D01*
D02*
G37*
G36*
X00495716Y00148207D02*
X00490160D01*
X00490218Y00120230D01*
X00492938Y00117970D01*
X00494298Y00119100D01*
X00495659Y00120230D01*
X00495687Y00134219D01*
X00495716Y00148207D01*
D02*
G37*
G36*
X00496906Y00147810D02*
Y00121267D01*
X00498791Y00122123D01*
X00500676Y00122980D01*
X00507422Y00122984D01*
X00510002Y00121808D01*
X00512581Y00120632D01*
X00514660Y00118942D01*
X00514925Y00118725D01*
X00515184Y00118510D01*
X00515437Y00118297D01*
X00515684Y00118086D01*
X00515925Y00117877D01*
X00516160Y00117668D01*
X00516391Y00117460D01*
X00516617Y00117253D01*
X00516839Y00117045D01*
X00517056Y00116837D01*
X00517270Y00116629D01*
X00517480Y00116419D01*
X00517687Y00116208D01*
X00517891Y00115996D01*
X00518093Y00115781D01*
X00518292Y00115564D01*
X00518490Y00115345D01*
X00518686Y00115122D01*
X00518880Y00114896D01*
X00519074Y00114666D01*
X00519267Y00114432D01*
X00519459Y00114194D01*
X00519652Y00113951D01*
X00519845Y00113703D01*
X00520038Y00113449D01*
X00520232Y00113190D01*
X00520428Y00112924D01*
X00520625Y00112652D01*
X00520824Y00112373D01*
X00521024Y00112087D01*
X00521228Y00111794D01*
X00521434Y00111493D01*
X00523327Y00108707D01*
X00527601Y00097207D01*
X00528801Y00093981D01*
X00530135Y00090397D01*
X00531293Y00087290D01*
X00532185Y00084905D01*
X00532707Y00083517D01*
X00533612Y00081133D01*
X00534285Y00080920D01*
X00534957Y00080707D01*
X00537235Y00077163D01*
X00537352Y00076981D01*
X00537583Y00076626D01*
X00537807Y00076283D01*
X00538024Y00075955D01*
X00538233Y00075642D01*
X00538433Y00075347D01*
X00538622Y00075071D01*
X00538798Y00074815D01*
X00538962Y00074583D01*
X00539110Y00074375D01*
X00539244Y00074194D01*
X00539360Y00074040D01*
X00539458Y00073917D01*
X00539536Y00073825D01*
X00539594Y00073766D01*
X00539630Y00073742D01*
X00539640Y00073744D01*
X00539612Y00073988D01*
X00539417Y00074665D01*
X00539037Y00075831D01*
X00538450Y00077546D01*
X00537635Y00079868D01*
X00536574Y00082856D01*
X00535245Y00086568D01*
X00533628Y00091064D01*
X00533489Y00091451D01*
X00533035Y00092712D01*
X00532537Y00094101D01*
X00532005Y00095589D01*
X00531447Y00097149D01*
X00530779Y00099024D01*
X00530105Y00100917D01*
X00529535Y00102519D01*
X00528982Y00104075D01*
X00528457Y00105557D01*
X00527892Y00107156D01*
X00527660Y00107807D01*
X00527431Y00108446D01*
X00527206Y00109070D01*
X00526985Y00109679D01*
X00526768Y00110270D01*
X00526557Y00110840D01*
X00526353Y00111389D01*
X00526155Y00111915D01*
X00525965Y00112414D01*
X00525784Y00112887D01*
X00525612Y00113329D01*
X00525450Y00113741D01*
X00525299Y00114120D01*
X00525159Y00114463D01*
X00525032Y00114770D01*
X00524917Y00115037D01*
X00524816Y00115264D01*
X00524730Y00115448D01*
X00524658Y00115588D01*
X00524603Y00115681D01*
X00524564Y00115725D01*
X00524173Y00115983D01*
X00524693Y00119232D01*
X00524289Y00122794D01*
X00523886Y00126355D01*
X00522883Y00129529D01*
X00521881Y00132702D01*
X00519891Y00135677D01*
X00517901Y00138652D01*
X00515666Y00140644D01*
X00513431Y00142636D01*
X00507195Y00145881D01*
X00503539Y00146826D01*
X00499883Y00147771D01*
X00496906Y00147810D01*
D02*
G37*
G36*
X00485051Y00122016D02*
X00479191D01*
X00477291Y00121369D01*
X00477028Y00121278D01*
X00476768Y00121183D01*
X00476511Y00121087D01*
X00476256Y00120987D01*
X00476003Y00120884D01*
X00475753Y00120779D01*
X00475505Y00120670D01*
X00475260Y00120558D01*
X00475016Y00120443D01*
X00474774Y00120325D01*
X00474533Y00120204D01*
X00474295Y00120079D01*
X00474058Y00119951D01*
X00473823Y00119819D01*
X00473589Y00119684D01*
X00473356Y00119546D01*
X00473124Y00119403D01*
X00472894Y00119257D01*
X00472664Y00119107D01*
X00472436Y00118954D01*
X00472208Y00118796D01*
X00471980Y00118634D01*
X00471754Y00118469D01*
X00471527Y00118299D01*
X00471301Y00118125D01*
X00471076Y00117947D01*
X00470850Y00117764D01*
X00470625Y00117577D01*
X00470399Y00117386D01*
X00470173Y00117191D01*
X00469947Y00116990D01*
X00469721Y00116785D01*
X00467562Y00114812D01*
X00463943Y00109368D01*
X00459455Y00097339D01*
X00459050Y00096255D01*
X00457749Y00092763D01*
X00456490Y00089381D01*
X00455407Y00086467D01*
X00454574Y00084220D01*
X00454081Y00082881D01*
X00453117Y00080239D01*
X00452416Y00080056D01*
X00451716Y00079872D01*
X00447922Y00074122D01*
X00444129Y00068372D01*
X00444146Y00063881D01*
X00444904Y00062211D01*
X00445663Y00060540D01*
X00449117Y00057087D01*
X00452079Y00055472D01*
X00452304Y00055350D01*
X00452529Y00055230D01*
X00452753Y00055112D01*
X00452979Y00054995D01*
X00453204Y00054881D01*
X00453430Y00054767D01*
X00453656Y00054656D01*
X00453883Y00054546D01*
X00454110Y00054437D01*
X00454338Y00054330D01*
X00454567Y00054225D01*
X00454796Y00054121D01*
X00455027Y00054019D01*
X00455258Y00053917D01*
X00455490Y00053818D01*
X00455724Y00053720D01*
X00455959Y00053623D01*
X00456195Y00053528D01*
X00456432Y00053433D01*
X00456671Y00053341D01*
X00456911Y00053249D01*
X00457153Y00053159D01*
X00457397Y00053070D01*
X00457643Y00052982D01*
X00457890Y00052896D01*
X00458139Y00052810D01*
X00458390Y00052726D01*
X00458644Y00052643D01*
X00458899Y00052561D01*
X00459157Y00052480D01*
X00459417Y00052400D01*
X00459679Y00052321D01*
X00459944Y00052243D01*
X00460211Y00052166D01*
X00460481Y00052090D01*
X00460754Y00052015D01*
X00461029Y00051941D01*
X00461308Y00051868D01*
X00461589Y00051796D01*
X00461873Y00051724D01*
X00462161Y00051654D01*
X00462451Y00051584D01*
X00462745Y00051515D01*
X00463042Y00051446D01*
X00463343Y00051379D01*
X00463647Y00051312D01*
X00463954Y00051246D01*
X00464265Y00051180D01*
X00464580Y00051115D01*
X00464899Y00051051D01*
X00465222Y00050987D01*
X00465548Y00050924D01*
X00465879Y00050861D01*
X00466214Y00050799D01*
X00466553Y00050738D01*
X00466896Y00050676D01*
X00467243Y00050616D01*
X00467595Y00050555D01*
X00467952Y00050496D01*
X00468313Y00050436D01*
X00468679Y00050377D01*
X00469049Y00050318D01*
X00469424Y00050260D01*
X00469804Y00050201D01*
X00474883Y00049430D01*
X00481827Y00048963D01*
X00488772Y00048496D01*
X00497898Y00048739D01*
X00507025Y00048982D01*
X00512383Y00049611D01*
X00512683Y00049646D01*
X00513131Y00049701D01*
X00513576Y00049756D01*
X00514016Y00049813D01*
X00514453Y00049871D01*
X00514886Y00049930D01*
X00515316Y00049990D01*
X00515742Y00050052D01*
X00516164Y00050114D01*
X00516583Y00050178D01*
X00516998Y00050243D01*
X00517410Y00050309D01*
X00517818Y00050377D01*
X00518223Y00050445D01*
X00518624Y00050515D01*
X00519022Y00050586D01*
X00519417Y00050658D01*
X00519808Y00050732D01*
X00520196Y00050806D01*
X00520580Y00050882D01*
X00520961Y00050959D01*
X00521339Y00051038D01*
X00521713Y00051117D01*
X00522085Y00051198D01*
X00522452Y00051280D01*
X00522817Y00051364D01*
X00523179Y00051448D01*
X00523537Y00051534D01*
X00523893Y00051621D01*
X00524245Y00051710D01*
X00524594Y00051800D01*
X00524940Y00051891D01*
X00525283Y00051983D01*
X00525623Y00052077D01*
X00525960Y00052172D01*
X00526294Y00052268D01*
X00526625Y00052366D01*
X00526953Y00052464D01*
X00527278Y00052565D01*
X00527601Y00052666D01*
X00527920Y00052769D01*
X00528237Y00052874D01*
X00528550Y00052979D01*
X00531840Y00054098D01*
X00537070Y00057023D01*
X00538650Y00058650D01*
X00538815Y00058824D01*
X00538984Y00059010D01*
X00539155Y00059205D01*
X00539328Y00059409D01*
X00539501Y00059619D01*
X00539673Y00059833D01*
X00539842Y00060051D01*
X00540008Y00060271D01*
X00540168Y00060490D01*
X00540323Y00060707D01*
X00540471Y00060921D01*
X00540609Y00061130D01*
X00540738Y00061332D01*
X00540856Y00061526D01*
X00540962Y00061709D01*
X00541054Y00061881D01*
X00541879Y00063484D01*
X00541925Y00068246D01*
X00538090Y00074047D01*
X00534255Y00079847D01*
X00532819Y00080236D01*
X00528716Y00091305D01*
X00527867Y00093593D01*
X00526469Y00097360D01*
X00525159Y00100881D01*
X00524141Y00103616D01*
X00523484Y00105371D01*
X00522223Y00108722D01*
X00520411Y00111267D01*
X00520246Y00111498D01*
X00520080Y00111727D01*
X00519913Y00111953D01*
X00519745Y00112177D01*
X00519577Y00112399D01*
X00519408Y00112619D01*
X00519239Y00112837D01*
X00519068Y00113052D01*
X00518897Y00113265D01*
X00518726Y00113476D01*
X00518554Y00113685D01*
X00518381Y00113891D01*
X00518208Y00114095D01*
X00518034Y00114297D01*
X00517859Y00114496D01*
X00517685Y00114693D01*
X00517509Y00114888D01*
X00517333Y00115081D01*
X00517156Y00115271D01*
X00516979Y00115459D01*
X00516801Y00115644D01*
X00516623Y00115827D01*
X00516444Y00116008D01*
X00516265Y00116186D01*
X00516086Y00116362D01*
X00515905Y00116536D01*
X00515725Y00116707D01*
X00515544Y00116876D01*
X00515362Y00117042D01*
X00515180Y00117206D01*
X00514998Y00117368D01*
X00514815Y00117527D01*
X00514632Y00117683D01*
X00514449Y00117837D01*
X00514265Y00117989D01*
X00514081Y00118138D01*
X00513896Y00118285D01*
X00513711Y00118429D01*
X00513526Y00118571D01*
X00513340Y00118710D01*
X00513154Y00118847D01*
X00512968Y00118981D01*
X00512781Y00119113D01*
X00512594Y00119242D01*
X00512407Y00119368D01*
X00512220Y00119492D01*
X00512032Y00119614D01*
X00511844Y00119733D01*
X00511656Y00119849D01*
X00511468Y00119962D01*
X00511279Y00120073D01*
X00511090Y00120182D01*
X00510901Y00120288D01*
X00510712Y00120391D01*
X00510522Y00120491D01*
X00510333Y00120589D01*
X00510143Y00120684D01*
X00509953Y00120777D01*
X00509763Y00120867D01*
X00509573Y00120954D01*
X00509383Y00121039D01*
X00509192Y00121120D01*
X00509002Y00121200D01*
X00508811Y00121276D01*
X00507025Y00121979D01*
X00504049Y00121997D01*
X00501073Y00122015D01*
X00496288Y00119752D01*
X00492915Y00116311D01*
X00491082Y00118170D01*
X00489248Y00120030D01*
X00485051Y00122016D01*
D02*
G37*
%LPD*%
G36*
X00507095Y00118294D02*
X00507272Y00118234D01*
X00507458Y00118167D01*
X00507652Y00118093D01*
X00507854Y00118013D01*
X00508060Y00117927D01*
X00508270Y00117837D01*
X00508481Y00117744D01*
X00508693Y00117647D01*
X00508904Y00117548D01*
X00509112Y00117447D01*
X00509315Y00117346D01*
X00509512Y00117244D01*
X00509702Y00117143D01*
X00509882Y00117044D01*
X00510052Y00116946D01*
X00510209Y00116852D01*
X00511665Y00115952D01*
X00512817Y00114361D01*
X00512935Y00114196D01*
X00513049Y00114030D01*
X00513159Y00113863D01*
X00513265Y00113697D01*
X00513366Y00113534D01*
X00513461Y00113373D01*
X00513549Y00113217D01*
X00513631Y00113067D01*
X00513706Y00112923D01*
X00513772Y00112786D01*
X00513830Y00112658D01*
X00513879Y00112540D01*
X00513918Y00112433D01*
X00513946Y00112338D01*
X00513964Y00112257D01*
X00513970Y00112189D01*
Y00111609D01*
X00512680Y00113530D01*
X00511390Y00115450D01*
X00509037Y00116650D01*
X00506683Y00117849D01*
X00501073Y00117797D01*
X00497898Y00116146D01*
X00495459Y00113461D01*
X00495782Y00112492D01*
X00490076D01*
X00490532Y00113683D01*
X00489516D01*
X00488638Y00114870D01*
X00487760Y00116057D01*
X00486184Y00116861D01*
X00484607Y00117666D01*
X00482858Y00117906D01*
X00481110Y00118145D01*
X00479100Y00117663D01*
X00477091Y00117181D01*
X00473494Y00114799D01*
X00471453Y00111500D01*
X00471719Y00112492D01*
X00471795Y00112720D01*
X00471908Y00112987D01*
X00472054Y00113284D01*
X00472227Y00113601D01*
X00472421Y00113928D01*
X00472631Y00114256D01*
X00472851Y00114574D01*
X00473076Y00114873D01*
X00474167Y00116262D01*
X00476481Y00117452D01*
X00478795Y00118643D01*
X00484803Y00118625D01*
X00486390Y00117780D01*
X00486557Y00117688D01*
X00486729Y00117589D01*
X00486905Y00117482D01*
X00487083Y00117370D01*
X00487262Y00117253D01*
X00487441Y00117131D01*
X00487619Y00117007D01*
X00487794Y00116880D01*
X00487965Y00116752D01*
X00488131Y00116624D01*
X00488290Y00116496D01*
X00488441Y00116371D01*
X00488583Y00116248D01*
X00488714Y00116128D01*
X00488834Y00116013D01*
X00488940Y00115904D01*
X00489902Y00114873D01*
X00495380D01*
X00496512Y00116005D01*
X00496635Y00116124D01*
X00496770Y00116247D01*
X00496915Y00116373D01*
X00497069Y00116500D01*
X00497230Y00116629D01*
X00497398Y00116758D01*
X00497571Y00116885D01*
X00497748Y00117012D01*
X00497927Y00117135D01*
X00498106Y00117255D01*
X00498286Y00117369D01*
X00498464Y00117479D01*
X00498638Y00117582D01*
X00498808Y00117677D01*
X00498972Y00117764D01*
X00499130Y00117842D01*
X00500615Y00118547D01*
X00503027Y00118692D01*
X00505438Y00118836D01*
X00507095Y00118294D01*
D02*
G37*
G36*
X00495716Y00111302D02*
X00490160D01*
Y00111699D01*
Y00112095D01*
X00495716D01*
Y00111302D01*
D02*
G37*
G36*
X00492931Y00110904D02*
X00493184Y00110900D01*
X00493430Y00110893D01*
X00493670Y00110885D01*
X00493900Y00110874D01*
X00494120Y00110861D01*
X00494328Y00110847D01*
X00494523Y00110830D01*
X00494704Y00110812D01*
X00494868Y00110793D01*
X00495015Y00110772D01*
X00495144Y00110750D01*
X00495252Y00110726D01*
X00495338Y00110702D01*
X00495402Y00110677D01*
X00495440Y00110651D01*
X00495694Y00110397D01*
X00495272Y00109714D01*
X00490160D01*
Y00110905D01*
X00492674D01*
X00492931Y00110904D01*
D02*
G37*
G36*
X00497799Y00106116D02*
X00497930Y00106087D01*
X00498112Y00106014D01*
X00498338Y00105904D01*
X00498599Y00105759D01*
X00498886Y00105585D01*
X00499191Y00105387D01*
X00499507Y00105170D01*
X00499824Y00104939D01*
X00501353Y00103788D01*
X00503594Y00102941D01*
X00505835Y00102093D01*
X00508018Y00102035D01*
X00508246Y00102030D01*
X00508480Y00102030D01*
X00508718Y00102032D01*
X00508959Y00102038D01*
X00509200Y00102046D01*
X00509440Y00102058D01*
X00509677Y00102072D01*
X00509909Y00102089D01*
X00510134Y00102108D01*
X00510352Y00102130D01*
X00510560Y00102154D01*
X00510756Y00102180D01*
X00510939Y00102208D01*
X00511107Y00102238D01*
X00511258Y00102269D01*
X00511390Y00102302D01*
X00512581Y00102628D01*
X00511589Y00101619D01*
X00508525Y00101401D01*
X00505461Y00101183D01*
X00510212Y00100234D01*
X00510456Y00100185D01*
X00510697Y00100136D01*
X00510937Y00100086D01*
X00511173Y00100037D01*
X00511406Y00099988D01*
X00511636Y00099939D01*
X00511861Y00099890D01*
X00512083Y00099841D01*
X00512300Y00099793D01*
X00512720Y00099699D01*
X00513117Y00099606D01*
X00513490Y00099517D01*
X00513837Y00099432D01*
X00514153Y00099351D01*
X00514437Y00099276D01*
X00514686Y00099206D01*
X00514796Y00099173D01*
X00514897Y00099142D01*
X00514988Y00099113D01*
X00515069Y00099086D01*
X00515138Y00099060D01*
X00515197Y00099037D01*
X00515245Y00099015D01*
X00515280Y00098996D01*
X00515304Y00098979D01*
X00515646Y00098673D01*
X00513375Y00091857D01*
X00511103Y00085042D01*
X00510718Y00085427D01*
X00510333Y00085812D01*
X00512307Y00092012D01*
X00514280Y00098213D01*
X00514026Y00098345D01*
X00513823Y00098404D01*
X00513340Y00098519D01*
X00512609Y00098685D01*
X00511661Y00098894D01*
X00510527Y00099140D01*
X00509240Y00099415D01*
X00507831Y00099713D01*
X00506331Y00100028D01*
X00498891Y00101577D01*
Y00102074D01*
X00498899Y00102276D01*
X00498945Y00102419D01*
X00499063Y00102502D01*
X00499284Y00102524D01*
X00499643Y00102485D01*
X00500171Y00102382D01*
X00500901Y00102216D01*
X00501867Y00101984D01*
X00502021Y00101947D01*
X00502456Y00101844D01*
X00502850Y00101752D01*
X00503202Y00101672D01*
X00503513Y00101604D01*
X00503784Y00101548D01*
X00504014Y00101504D01*
X00504204Y00101472D01*
X00504354Y00101452D01*
X00504463Y00101445D01*
X00504533Y00101451D01*
X00504563Y00101468D01*
X00504554Y00101499D01*
X00504505Y00101542D01*
X00504418Y00101597D01*
X00504291Y00101666D01*
X00504126Y00101748D01*
X00503922Y00101842D01*
X00503680Y00101950D01*
X00503400Y00102070D01*
X00503082Y00102204D01*
X00502727Y00102352D01*
X00502477Y00102456D01*
X00502228Y00102564D01*
X00501979Y00102674D01*
X00501730Y00102788D01*
X00501484Y00102904D01*
X00501239Y00103022D01*
X00500997Y00103142D01*
X00500758Y00103263D01*
X00500522Y00103386D01*
X00500291Y00103509D01*
X00500064Y00103633D01*
X00499843Y00103756D01*
X00499627Y00103880D01*
X00499417Y00104003D01*
X00499214Y00104125D01*
X00499018Y00104246D01*
X00498830Y00104366D01*
X00498651Y00104484D01*
X00498480Y00104599D01*
X00498318Y00104712D01*
X00498167Y00104822D01*
X00498026Y00104929D01*
X00497896Y00105033D01*
X00497777Y00105132D01*
X00497670Y00105228D01*
X00497576Y00105319D01*
X00497495Y00105405D01*
X00497427Y00105486D01*
X00497374Y00105561D01*
X00497335Y00105631D01*
X00497311Y00105695D01*
X00497303Y00105752D01*
Y00106143D01*
X00497799Y00106116D01*
D02*
G37*
G36*
X00487672Y00105688D02*
X00487727Y00105668D01*
X00487783Y00105623D01*
X00487894Y00105500D01*
X00488171Y00105222D01*
X00487301Y00104613D01*
X00487202Y00104544D01*
X00487085Y00104467D01*
X00486952Y00104381D01*
X00486805Y00104287D01*
X00486644Y00104186D01*
X00486472Y00104080D01*
X00486289Y00103968D01*
X00486097Y00103852D01*
X00485899Y00103733D01*
X00485694Y00103611D01*
X00485485Y00103488D01*
X00485273Y00103364D01*
X00485060Y00103240D01*
X00484847Y00103118D01*
X00484635Y00102998D01*
X00484426Y00102880D01*
X00482422Y00101757D01*
X00483613Y00102039D01*
X00483737Y00102068D01*
X00483864Y00102096D01*
X00483993Y00102124D01*
X00484251Y00102177D01*
X00484505Y00102224D01*
X00484748Y00102266D01*
X00484971Y00102301D01*
X00485168Y00102327D01*
X00485255Y00102336D01*
X00485332Y00102343D01*
X00485398Y00102347D01*
X00485994Y00102373D01*
X00486117Y00101976D01*
X00486240Y00101580D01*
X00478875Y00099992D01*
X00471511Y00098405D01*
X00471511Y00098008D01*
X00471548Y00097815D01*
X00471652Y00097416D01*
X00471817Y00096834D01*
X00472035Y00096096D01*
X00472299Y00095224D01*
X00472601Y00094244D01*
X00472934Y00093180D01*
X00473473Y00091486D01*
X00473649Y00090925D01*
X00473820Y00090376D01*
X00473983Y00089842D01*
X00474139Y00089326D01*
X00474286Y00088832D01*
X00474423Y00088363D01*
X00474550Y00087921D01*
X00474666Y00087511D01*
X00474769Y00087135D01*
X00474859Y00086797D01*
X00474934Y00086499D01*
X00474995Y00086246D01*
X00475039Y00086040D01*
X00475067Y00085884D01*
X00475076Y00085782D01*
X00475081Y00085064D01*
X00474707Y00085295D01*
X00474597Y00085470D01*
X00474411Y00085885D01*
X00474160Y00086510D01*
X00473856Y00087309D01*
X00473510Y00088251D01*
X00473134Y00089303D01*
X00472737Y00090431D01*
X00472333Y00091602D01*
X00471932Y00092784D01*
X00471546Y00093943D01*
X00471185Y00095046D01*
X00470862Y00096060D01*
X00470587Y00096953D01*
X00470372Y00097690D01*
X00470228Y00098240D01*
X00470166Y00098568D01*
X00470121Y00099129D01*
X00478057Y00100903D01*
X00474883Y00101020D01*
X00473692Y00101565D01*
X00473564Y00101624D01*
X00473447Y00101680D01*
X00473341Y00101733D01*
X00473246Y00101782D01*
X00473162Y00101828D01*
X00473088Y00101870D01*
X00473026Y00101910D01*
X00472973Y00101945D01*
X00472932Y00101978D01*
X00472901Y00102007D01*
X00472881Y00102032D01*
X00472872Y00102055D01*
X00472873Y00102073D01*
X00472884Y00102089D01*
X00472907Y00102101D01*
X00472940Y00102109D01*
X00472983Y00102115D01*
X00473037Y00102116D01*
X00473101Y00102115D01*
X00473176Y00102110D01*
X00473261Y00102101D01*
X00473357Y00102089D01*
X00473463Y00102074D01*
X00473580Y00102055D01*
X00473707Y00102033D01*
X00473844Y00102007D01*
X00473991Y00101978D01*
X00474149Y00101946D01*
X00474317Y00101910D01*
X00474495Y00101870D01*
X00474684Y00101827D01*
X00474883Y00101781D01*
X00476470Y00101406D01*
X00478924Y00101827D01*
X00481378Y00102247D01*
X00484448Y00103996D01*
X00485330Y00104500D01*
X00486132Y00104957D01*
X00486494Y00105161D01*
X00486795Y00105328D01*
X00486983Y00105429D01*
X00487144Y00105512D01*
X00487279Y00105578D01*
X00487392Y00105627D01*
X00487484Y00105662D01*
X00487560Y00105682D01*
X00487622Y00105691D01*
X00487672Y00105688D01*
D02*
G37*
G36*
X00496510Y00082333D02*
X00497303D01*
Y00089873D01*
X00497622D01*
X00497846Y00089770D01*
X00498220Y00089489D01*
X00498692Y00089073D01*
X00499209Y00088565D01*
X00500478Y00087256D01*
Y00082333D01*
X00501668D01*
Y00084714D01*
X00501966Y00084674D01*
X00502061Y00084627D01*
X00502217Y00084507D01*
X00502427Y00084322D01*
X00502682Y00084081D01*
X00502974Y00083791D01*
X00503294Y00083461D01*
X00503634Y00083098D01*
X00503986Y00082711D01*
X00505709Y00080788D01*
X00505193Y00079952D01*
X00479843D01*
Y00080181D01*
X00479881Y00080277D01*
X00479992Y00080463D01*
X00480166Y00080729D01*
X00480397Y00081062D01*
X00480676Y00081453D01*
X00480996Y00081890D01*
X00481349Y00082363D01*
X00481728Y00082860D01*
X00483613Y00085310D01*
X00483735Y00083623D01*
X00483857Y00081937D01*
X00485002D01*
Y00086934D01*
X00488176Y00090034D01*
Y00081937D01*
X00488970D01*
Y00092254D01*
X00492121D01*
X00492232Y00087194D01*
X00492343Y00082135D01*
X00493136D01*
X00493247Y00087194D01*
X00493359Y00092254D01*
X00496510D01*
Y00082333D01*
D02*
G37*
G36*
X00494836Y00103936D02*
X00495026Y00103788D01*
X00495226Y00103605D01*
X00495431Y00103394D01*
X00495635Y00103162D01*
X00495831Y00102916D01*
X00496013Y00102664D01*
X00496176Y00102413D01*
X00496314Y00102170D01*
X00496906Y00101024D01*
Y00097656D01*
X00501723Y00089984D01*
X00502215Y00089202D01*
X00502696Y00088440D01*
X00503163Y00087702D01*
X00503613Y00086993D01*
X00504044Y00086317D01*
X00504454Y00085676D01*
X00504839Y00085077D01*
X00505198Y00084521D01*
X00505527Y00084014D01*
X00505824Y00083560D01*
X00506086Y00083162D01*
X00506311Y00082824D01*
X00506496Y00082551D01*
X00506639Y00082347D01*
X00506737Y00082215D01*
X00506787Y00082160D01*
X00506940Y00082142D01*
X00507174Y00082207D01*
X00507457Y00082343D01*
X00507757Y00082536D01*
X00508480Y00083064D01*
X00503751Y00089941D01*
X00502913Y00091162D01*
X00502112Y00092329D01*
X00501364Y00093423D01*
X00500682Y00094422D01*
X00500079Y00095307D01*
X00499571Y00096058D01*
X00499169Y00096653D01*
X00498889Y00097073D01*
X00498744Y00097298D01*
X00498447Y00097810D01*
X00499601D01*
X00504502Y00090617D01*
X00509403Y00083424D01*
X00510000Y00083216D01*
X00510138Y00083158D01*
X00510302Y00083072D01*
X00510486Y00082963D01*
X00510684Y00082834D01*
X00510889Y00082689D01*
X00511096Y00082534D01*
X00511298Y00082371D01*
X00511490Y00082205D01*
X00512383Y00081401D01*
Y00079520D01*
X00510435Y00077572D01*
X00508553D01*
X00507784Y00078464D01*
X00507702Y00078563D01*
X00507614Y00078672D01*
X00507522Y00078792D01*
X00507426Y00078921D01*
X00507327Y00079057D01*
X00507225Y00079201D01*
X00507122Y00079350D01*
X00507019Y00079503D01*
X00506916Y00079660D01*
X00506813Y00079818D01*
X00506712Y00079977D01*
X00506614Y00080136D01*
X00506518Y00080294D01*
X00506427Y00080449D01*
X00506340Y00080600D01*
X00506259Y00080746D01*
X00506158Y00080926D01*
X00506011Y00081177D01*
X00505821Y00081495D01*
X00505592Y00081874D01*
X00505325Y00082311D01*
X00505025Y00082800D01*
X00504693Y00083338D01*
X00504333Y00083919D01*
X00503947Y00084539D01*
X00503538Y00085195D01*
X00503109Y00085880D01*
X00502663Y00086590D01*
X00502202Y00087322D01*
X00501730Y00088070D01*
X00501249Y00088830D01*
X00500762Y00089597D01*
X00496020Y00097059D01*
X00495893Y00099197D01*
X00495765Y00101334D01*
X00494467Y00103315D01*
X00492112Y00103832D01*
X00491119Y00103181D01*
X00490125Y00102530D01*
X00489746Y00101533D01*
X00489670Y00101301D01*
X00489599Y00101023D01*
X00489534Y00100711D01*
X00489478Y00100373D01*
X00489432Y00100021D01*
X00489397Y00099666D01*
X00489374Y00099317D01*
X00489367Y00098985D01*
Y00097435D01*
X00484543Y00089785D01*
X00479719Y00082135D01*
X00479034Y00080349D01*
X00478349Y00078563D01*
X00476325Y00077399D01*
X00475208Y00077792D01*
X00474091Y00078185D01*
X00473590Y00079231D01*
X00473089Y00080276D01*
X00473856Y00082296D01*
X00474985Y00082879D01*
X00476114Y00083463D01*
X00480855Y00090627D01*
X00485597Y00097792D01*
X00486093Y00097801D01*
X00486285Y00097784D01*
X00486443Y00097733D01*
X00486550Y00097655D01*
X00486589Y00097558D01*
X00486491Y00097362D01*
X00486211Y00096899D01*
X00485767Y00096198D01*
X00485180Y00095289D01*
X00484469Y00094204D01*
X00483655Y00092971D01*
X00482756Y00091622D01*
X00481793Y00090187D01*
X00476996Y00083066D01*
X00477724Y00082534D01*
X00477872Y00082428D01*
X00478012Y00082333D01*
X00478141Y00082248D01*
X00478256Y00082178D01*
X00478354Y00082122D01*
X00478432Y00082084D01*
X00478485Y00082066D01*
X00478512Y00082068D01*
X00478622Y00082238D01*
X00478914Y00082699D01*
X00479368Y00083419D01*
X00479965Y00084367D01*
X00480683Y00085511D01*
X00481504Y00086819D01*
X00482408Y00088259D01*
X00483374Y00089800D01*
X00488176Y00097465D01*
X00488178Y00098530D01*
X00488188Y00098776D01*
X00488213Y00099065D01*
X00488253Y00099388D01*
X00488305Y00099734D01*
X00488369Y00100092D01*
X00488442Y00100451D01*
X00488522Y00100802D01*
X00488607Y00101132D01*
X00489034Y00102669D01*
X00490052Y00103612D01*
X00491070Y00104556D01*
X00493952D01*
X00494836Y00103936D01*
D02*
G37*
G36*
X00483285Y00077472D02*
X00483388Y00077351D01*
X00483529Y00077174D01*
X00483706Y00076943D01*
X00483916Y00076664D01*
X00484157Y00076339D01*
X00484427Y00075971D01*
X00484722Y00075564D01*
X00485041Y00075122D01*
X00485381Y00074648D01*
X00485739Y00074146D01*
X00486113Y00073618D01*
X00486501Y00073069D01*
X00486899Y00072502D01*
X00487306Y00071920D01*
X00487719Y00071327D01*
X00488240Y00070576D01*
X00488550Y00070130D01*
X00488855Y00069694D01*
X00489154Y00069268D01*
X00489447Y00068854D01*
X00489733Y00068454D01*
X00490010Y00068068D01*
X00490277Y00067697D01*
X00490535Y00067344D01*
X00490780Y00067009D01*
X00491014Y00066693D01*
X00491235Y00066398D01*
X00491441Y00066126D01*
X00491632Y00065876D01*
X00491808Y00065651D01*
X00491966Y00065453D01*
X00492106Y00065281D01*
X00492228Y00065137D01*
X00492329Y00065024D01*
X00492410Y00064941D01*
X00492469Y00064890D01*
X00492506Y00064873D01*
X00492674Y00065007D01*
X00493032Y00065390D01*
X00493556Y00065995D01*
X00494225Y00066796D01*
X00495016Y00067766D01*
X00495908Y00068878D01*
X00496878Y00070106D01*
X00497904Y00071421D01*
X00502980Y00077968D01*
X00508216Y00077934D01*
X00492740Y00062896D01*
X00492329Y00062992D01*
X00492242Y00063045D01*
X00492083Y00063176D01*
X00491858Y00063382D01*
X00491571Y00063655D01*
X00491227Y00063992D01*
X00490832Y00064387D01*
X00490389Y00064835D01*
X00489905Y00065330D01*
X00489383Y00065868D01*
X00488828Y00066443D01*
X00488246Y00067050D01*
X00487641Y00067684D01*
X00487018Y00068340D01*
X00486383Y00069013D01*
X00485739Y00069696D01*
X00485092Y00070386D01*
X00484446Y00071077D01*
X00483807Y00071763D01*
X00483179Y00072441D01*
X00482567Y00073103D01*
X00481977Y00073746D01*
X00481412Y00074363D01*
X00480878Y00074951D01*
X00480379Y00075503D01*
X00479921Y00076014D01*
X00479509Y00076480D01*
X00479146Y00076895D01*
X00478838Y00077253D01*
X00478591Y00077551D01*
X00478408Y00077781D01*
X00478294Y00077940D01*
X00478256Y00078022D01*
Y00078365D01*
X00482482D01*
X00483285Y00077472D01*
D02*
G37*
%LPC*%
G36*
X00491351Y00091064D02*
X00490160D01*
Y00081143D01*
X00491351D01*
Y00091064D01*
D02*
G37*
G36*
X00487383Y00087986D02*
X00486192Y00086998D01*
Y00081143D01*
X00487383D01*
Y00084565D01*
Y00087986D01*
D02*
G37*
G36*
X00483017Y00082333D02*
X00482663D01*
X00482508Y00082286D01*
X00482346Y00082159D01*
X00482197Y00081969D01*
X00482080Y00081738D01*
X00481852Y00081143D01*
X00483017D01*
Y00081738D01*
Y00082333D01*
D02*
G37*
G36*
X00502894Y00082328D02*
X00502754Y00082307D01*
X00502635Y00082235D01*
X00502542Y00082115D01*
X00502483Y00081949D01*
X00502462Y00081738D01*
Y00081143D01*
X00503057D01*
X00503268Y00081164D01*
X00503434Y00081223D01*
X00503554Y00081315D01*
X00503626Y00081435D01*
X00503647Y00081575D01*
X00503616Y00081732D01*
X00503530Y00081898D01*
X00503388Y00082069D01*
X00503217Y00082211D01*
X00503051Y00082297D01*
X00502894Y00082328D01*
D02*
G37*
G36*
X00498733Y00087427D02*
X00498640Y00087362D01*
X00498574Y00087150D01*
X00498532Y00086767D01*
X00498507Y00086185D01*
X00498496Y00085377D01*
X00498494Y00084318D01*
Y00081143D01*
X00499287D01*
Y00084053D01*
Y00086963D01*
X00499023Y00087228D01*
X00498859Y00087374D01*
X00498733Y00087427D01*
D02*
G37*
G36*
X00494129Y00091064D02*
Y00081143D01*
X00495518D01*
Y00091064D01*
X00494129D01*
D02*
G37*
G36*
X00509662Y00082289D02*
X00509587Y00082285D01*
X00509509Y00082270D01*
X00509425Y00082244D01*
X00509333Y00082206D01*
X00509231Y00082158D01*
X00509115Y00082099D01*
X00508832Y00081947D01*
X00508682Y00081857D01*
X00508533Y00081748D01*
X00508388Y00081623D01*
X00508251Y00081489D01*
X00508127Y00081347D01*
X00508019Y00081204D01*
X00507931Y00081062D01*
X00507867Y00080927D01*
X00507624Y00080292D01*
X00508442Y00078762D01*
X00510240D01*
X00511192Y00079714D01*
Y00081500D01*
X00510498Y00081905D01*
X00510212Y00082071D01*
X00510095Y00082136D01*
X00509992Y00082190D01*
X00509900Y00082232D01*
X00509816Y00082262D01*
X00509738Y00082281D01*
X00509662Y00082289D01*
D02*
G37*
G36*
X00476872Y00081971D02*
X00475918Y00081854D01*
X00474963Y00081738D01*
X00474528Y00081044D01*
X00474093Y00080349D01*
X00474528Y00079655D01*
X00474964Y00078960D01*
X00475838Y00078831D01*
X00476712Y00078701D01*
X00477285Y00079177D01*
X00477859Y00079653D01*
Y00080319D01*
X00477849Y00080462D01*
X00477820Y00080616D01*
X00477774Y00080775D01*
X00477714Y00080934D01*
X00477641Y00081088D01*
X00477557Y00081233D01*
X00477465Y00081365D01*
X00477366Y00081477D01*
X00476872Y00081971D01*
D02*
G37*
G36*
X00480153Y00077175D02*
X00483819Y00073198D01*
X00484072Y00072924D01*
X00484783Y00072154D01*
X00485320Y00071575D01*
X00485712Y00071154D01*
X00486072Y00070771D01*
X00486398Y00070426D01*
X00486692Y00070119D01*
X00486952Y00069852D01*
X00487125Y00069678D01*
X00487280Y00069526D01*
X00487415Y00069397D01*
X00487532Y00069291D01*
X00487629Y00069208D01*
X00487708Y00069148D01*
X00487767Y00069112D01*
X00487807Y00069100D01*
X00487823Y00069105D01*
X00487832Y00069133D01*
X00487821Y00069185D01*
X00487790Y00069262D01*
X00487740Y00069363D01*
X00487671Y00069490D01*
X00487582Y00069641D01*
X00487474Y00069818D01*
X00487346Y00070021D01*
X00487199Y00070249D01*
X00487031Y00070504D01*
X00486844Y00070784D01*
X00486637Y00071091D01*
X00486331Y00071542D01*
X00485989Y00072040D01*
X00485611Y00072587D01*
X00485198Y00073183D01*
X00484748Y00073827D01*
X00484136Y00074703D01*
X00483468Y00075658D01*
X00482422Y00077150D01*
X00480153Y00077175D01*
D02*
G37*
G36*
X00505821D02*
X00503721D01*
X00501618Y00074496D01*
X00501052Y00073776D01*
X00500454Y00073018D01*
X00499736Y00072109D01*
X00499061Y00071258D01*
X00498567Y00070636D01*
X00498026Y00069959D01*
X00497895Y00069792D01*
X00497769Y00069631D01*
X00497650Y00069476D01*
X00497539Y00069329D01*
X00497435Y00069190D01*
X00497340Y00069060D01*
X00497253Y00068940D01*
X00497177Y00068831D01*
X00497110Y00068734D01*
X00497055Y00068649D01*
X00497012Y00068578D01*
X00496980Y00068521D01*
X00496961Y00068479D01*
X00496956Y00068453D01*
X00496964Y00068445D01*
X00497084Y00068534D01*
X00497368Y00068789D01*
X00497796Y00069193D01*
X00498352Y00069727D01*
X00499015Y00070374D01*
X00499768Y00071115D01*
X00500593Y00071933D01*
X00501470Y00072810D01*
X00505821Y00077175D01*
D02*
G37*
%LPD*%
D11*
X00515000Y00408400D02*
G03*
X00515000Y00408400I-00001000J00000000D01*
G01*
X00387000Y00408200D02*
G03*
X00387000Y00408200I-00001000J00000000D01*
G01*
X00501000Y00400400D02*
X00527000D01*
Y00324800D02*
Y00400400D01*
X00501000Y00324800D02*
Y00400400D01*
Y00324800D02*
X00527000D01*
X00373000Y00324400D02*
Y00400200D01*
Y00324400D02*
X00399000D01*
Y00400200D01*
X00373000D02*
X00399000D01*
D13*
X00325000Y00338000D02*
G03*
X00325000Y00338000I-00040000J00000000D01*
G01*
X00355000Y00438000D02*
G03*
X00355000Y00438000I-00040000J00000000D01*
G01*
X00325000Y00538000D02*
G03*
X00325000Y00538000I-00040000J00000000D01*
G01*
X00269502Y00358500D02*
Y00351836D01*
X00266169Y00355168D02*
X00272834D01*
X00716000Y00657797D02*
X00709335D01*
X00712668D01*
Y00647800D01*
X00706003D02*
Y00657797D01*
X00702671Y00654464D01*
X00699339Y00657797D01*
Y00647800D01*
X00689342Y00656131D02*
X00691008Y00657797D01*
X00694340D01*
X00696006Y00656131D01*
Y00654464D01*
X00694340Y00652798D01*
X00691008D01*
X00689342Y00651132D01*
Y00649466D01*
X00691008Y00647800D01*
X00694340D01*
X00696006Y00649466D01*
X00709335Y00732331D02*
X00711002Y00733997D01*
X00714334D01*
X00716000Y00732331D01*
Y00725666D01*
X00714334Y00724000D01*
X00711002D01*
X00709335Y00725666D01*
X00706003Y00724000D02*
Y00733997D01*
X00702671Y00730665D01*
X00699339Y00733997D01*
Y00724000D01*
X00696006Y00733997D02*
Y00724000D01*
X00691008D01*
X00689342Y00725666D01*
Y00732331D01*
X00691008Y00733997D01*
X00696006D01*
X00461000Y00520800D02*
Y00530797D01*
X00456002D01*
X00454336Y00529131D01*
Y00525798D01*
X00456002Y00524132D01*
X00461000D01*
X00457668D02*
X00454336Y00520800D01*
X00451003Y00530797D02*
X00444339Y00520800D01*
Y00530797D02*
X00451003Y00520800D01*
X00441007Y00530797D02*
Y00520800D01*
X00436008D01*
X00434342Y00522466D01*
Y00529131D01*
X00436008Y00530797D01*
X00441007D01*
X00369336Y00732331D02*
X00371002Y00733997D01*
X00374334D01*
X00376000Y00732331D01*
Y00725666D01*
X00374334Y00724000D01*
X00371002D01*
X00369336Y00725666D01*
X00366003Y00733997D02*
Y00724000D01*
X00359339D01*
X00356007Y00733997D02*
Y00724000D01*
Y00727332D01*
X00349342Y00733997D01*
X00354340Y00728998D01*
X00349342Y00724000D01*
X00376000Y00656131D02*
X00374334Y00657797D01*
X00371002D01*
X00369336Y00656131D01*
Y00649466D01*
X00371002Y00647800D01*
X00374334D01*
X00376000Y00649466D01*
Y00656131D01*
X00371002Y00622400D02*
Y00632397D01*
X00376000Y00627398D01*
X00369336D01*
Y00546200D02*
X00376000D01*
X00369336Y00552864D01*
Y00554531D01*
X00371002Y00556197D01*
X00374334D01*
X00376000Y00554531D01*
X00359339Y00556197D02*
X00366003D01*
Y00551198D01*
X00362671Y00552864D01*
X00361005D01*
X00359339Y00551198D01*
Y00547866D01*
X00361005Y00546200D01*
X00364337D01*
X00366003Y00547866D01*
X00369336Y00520800D02*
X00376000D01*
X00369336Y00527464D01*
Y00529131D01*
X00371002Y00530797D01*
X00374334D01*
X00376000Y00529131D01*
X00366003Y00530797D02*
X00359339D01*
Y00529131D01*
X00366003Y00522466D01*
Y00520800D01*
X00369336Y00673200D02*
X00376000D01*
X00369336Y00679865D01*
Y00681531D01*
X00371002Y00683197D01*
X00374334D01*
X00376000Y00681531D01*
X00369336Y00706931D02*
X00371002Y00708597D01*
X00374334D01*
X00376000Y00706931D01*
Y00705265D01*
X00374334Y00703598D01*
X00371002D01*
X00369336Y00701932D01*
Y00700266D01*
X00371002Y00698600D01*
X00374334D01*
X00376000Y00700266D01*
X00366003Y00708597D02*
Y00698600D01*
X00361005D01*
X00359339Y00700266D01*
Y00706931D01*
X00361005Y00708597D01*
X00366003D01*
X00356007Y00698600D02*
X00352674D01*
X00354340D01*
Y00708597D01*
X00356007Y00706931D01*
X00376000Y00606997D02*
X00369336D01*
X00372668D01*
Y00597000D01*
X00366003Y00606997D02*
Y00597000D01*
X00361005D01*
X00359339Y00598666D01*
Y00605331D01*
X00361005Y00606997D01*
X00366003D01*
X00356007D02*
X00352674D01*
X00354340D01*
Y00597000D01*
X00356007D01*
X00352674D01*
X00376000Y00579931D02*
X00374334Y00581597D01*
X00371002D01*
X00369336Y00579931D01*
Y00578265D01*
X00371002Y00576598D01*
X00372668D01*
X00371002D01*
X00369336Y00574932D01*
Y00573266D01*
X00371002Y00571600D01*
X00374334D01*
X00376000Y00573266D01*
X00359339Y00571600D02*
X00366003D01*
X00359339Y00578265D01*
Y00579931D01*
X00361005Y00581597D01*
X00364337D01*
X00366003Y00579931D01*
X00369336Y00503731D02*
X00371002Y00505397D01*
X00374334D01*
X00376000Y00503731D01*
Y00497066D01*
X00374334Y00495400D01*
X00371002D01*
X00369336Y00497066D01*
Y00500398D01*
X00372668D01*
X00366003Y00495400D02*
Y00505397D01*
X00359339Y00495400D01*
Y00505397D01*
X00356007D02*
Y00495400D01*
X00351008D01*
X00349342Y00497066D01*
Y00503731D01*
X00351008Y00505397D01*
X00356007D01*
X00624336Y00657797D02*
X00631000D01*
Y00652798D01*
X00627668Y00654464D01*
X00626002D01*
X00624336Y00652798D01*
Y00649466D01*
X00626002Y00647800D01*
X00629334D01*
X00631000Y00649466D01*
X00624336Y00546200D02*
X00631000D01*
X00624336Y00552864D01*
Y00554531D01*
X00626002Y00556197D01*
X00629334D01*
X00631000Y00554531D01*
X00614339Y00556197D02*
X00617671Y00554531D01*
X00621003Y00551198D01*
Y00547866D01*
X00619337Y00546200D01*
X00616005D01*
X00614339Y00547866D01*
Y00549532D01*
X00616005Y00551198D01*
X00621003D01*
X00624336Y00732331D02*
X00626002Y00733997D01*
X00629334D01*
X00631000Y00732331D01*
Y00730665D01*
X00629334Y00728998D01*
X00626002D01*
X00624336Y00727332D01*
Y00725666D01*
X00626002Y00724000D01*
X00629334D01*
X00631000Y00725666D01*
X00621003Y00733997D02*
Y00724000D01*
X00616005D01*
X00614339Y00725666D01*
Y00732331D01*
X00616005Y00733997D01*
X00621003D01*
X00611006Y00732331D02*
X00609340Y00733997D01*
X00606008D01*
X00604342Y00732331D01*
Y00730665D01*
X00606008Y00728998D01*
X00607674D01*
X00606008D01*
X00604342Y00727332D01*
Y00725666D01*
X00606008Y00724000D01*
X00609340D01*
X00611006Y00725666D01*
X00631000Y00708597D02*
X00624336D01*
X00627668D01*
Y00698600D01*
X00614339Y00706931D02*
X00616005Y00708597D01*
X00619337D01*
X00621003Y00706931D01*
Y00700266D01*
X00619337Y00698600D01*
X00616005D01*
X00614339Y00700266D01*
X00611006Y00708597D02*
Y00698600D01*
Y00701932D01*
X00604342Y00708597D01*
X00609340Y00703598D01*
X00604342Y00698600D01*
X00631000Y00571600D02*
X00627668D01*
X00629334D01*
Y00581597D01*
X00631000Y00579931D01*
X00622669D02*
X00621003Y00581597D01*
X00617671D01*
X00616005Y00579931D01*
Y00578265D01*
X00617671Y00576598D01*
X00616005Y00574932D01*
Y00573266D01*
X00617671Y00571600D01*
X00621003D01*
X00622669Y00573266D01*
Y00574932D01*
X00621003Y00576598D01*
X00622669Y00578265D01*
Y00579931D01*
X00621003Y00576598D02*
X00617671D01*
X00631000Y00597000D02*
X00627668D01*
X00629334D01*
Y00606997D01*
X00631000Y00605331D01*
X00622669Y00598666D02*
X00621003Y00597000D01*
X00617671D01*
X00616005Y00598666D01*
Y00605331D01*
X00617671Y00606997D01*
X00621003D01*
X00622669Y00605331D01*
Y00603665D01*
X00621003Y00601998D01*
X00616005D01*
X00624336Y00530797D02*
X00626002Y00532463D01*
X00629334D01*
X00631000Y00530797D01*
Y00529131D01*
X00629334Y00527464D01*
X00626002D01*
X00624336Y00525798D01*
Y00524132D01*
X00626002Y00522466D01*
X00629334D01*
X00631000Y00524132D01*
X00621003Y00520800D02*
X00614339D01*
X00611006Y00532463D02*
Y00525798D01*
X00607674Y00522466D01*
X00604342Y00525798D01*
Y00532463D01*
X00601010Y00522466D02*
Y00532463D01*
X00596011D01*
X00594345Y00530797D01*
Y00527464D01*
X00596011Y00525798D01*
X00601010D01*
X00631000Y00495400D02*
Y00505397D01*
X00626002D01*
X00624336Y00503731D01*
Y00500398D01*
X00626002Y00498732D01*
X00631000D01*
X00627668D02*
X00624336Y00495400D01*
X00614339Y00503731D02*
X00616005Y00505397D01*
X00619337D01*
X00621003Y00503731D01*
Y00502065D01*
X00619337Y00500398D01*
X00616005D01*
X00614339Y00498732D01*
Y00497066D01*
X00616005Y00495400D01*
X00619337D01*
X00621003Y00497066D01*
X00611006Y00505397D02*
X00604342D01*
X00607674D01*
Y00495400D01*
X00624336Y00622400D02*
X00631000D01*
X00624336Y00629064D01*
Y00630731D01*
X00626002Y00632397D01*
X00629334D01*
X00631000Y00630731D01*
X00621003D02*
X00619337Y00632397D01*
X00616005D01*
X00614339Y00630731D01*
Y00629064D01*
X00616005Y00627398D01*
X00617671D01*
X00616005D01*
X00614339Y00625732D01*
Y00624066D01*
X00616005Y00622400D01*
X00619337D01*
X00621003Y00624066D01*
X00631000Y00681531D02*
X00629334Y00683197D01*
X00626002D01*
X00624336Y00681531D01*
Y00679865D01*
X00626002Y00678198D01*
X00627668D01*
X00626002D01*
X00624336Y00676532D01*
Y00674866D01*
X00626002Y00673200D01*
X00629334D01*
X00631000Y00674866D01*
X00621003Y00683197D02*
Y00676532D01*
X00617671Y00673200D01*
X00614339Y00676532D01*
Y00683197D01*
X00611006Y00681531D02*
X00609340Y00683197D01*
X00606008D01*
X00604342Y00681531D01*
Y00679865D01*
X00606008Y00678198D01*
X00607674D01*
X00606008D01*
X00604342Y00676532D01*
Y00674866D01*
X00606008Y00673200D01*
X00609340D01*
X00611006Y00674866D01*
X00709335Y00706931D02*
X00711002Y00708597D01*
X00714334D01*
X00716000Y00706931D01*
Y00705265D01*
X00714334Y00703598D01*
X00711002D01*
X00709335Y00701932D01*
Y00700266D01*
X00711002Y00698600D01*
X00714334D01*
X00716000Y00700266D01*
X00706003Y00708597D02*
Y00698600D01*
X00701005D01*
X00699339Y00700266D01*
Y00706931D01*
X00701005Y00708597D01*
X00706003D01*
X00689342Y00698600D02*
X00696006D01*
X00689342Y00705265D01*
Y00706931D01*
X00691008Y00708597D01*
X00694340D01*
X00696006Y00706931D01*
X00706000Y00605331D02*
X00704334Y00606997D01*
X00701002D01*
X00699335Y00605331D01*
Y00603665D01*
X00701002Y00601998D01*
X00702668D01*
X00701002D01*
X00699335Y00600332D01*
Y00598666D01*
X00701002Y00597000D01*
X00704334D01*
X00706000Y00598666D01*
X00696003Y00605331D02*
X00694337Y00606997D01*
X00691005D01*
X00689339Y00605331D01*
Y00603665D01*
X00691005Y00601998D01*
X00692671D01*
X00691005D01*
X00689339Y00600332D01*
Y00598666D01*
X00691005Y00597000D01*
X00694337D01*
X00696003Y00598666D01*
X00709335Y00503731D02*
X00711002Y00505397D01*
X00714334D01*
X00716000Y00503731D01*
Y00497066D01*
X00714334Y00495400D01*
X00711002D01*
X00709335Y00497066D01*
Y00500398D01*
X00712668D01*
X00706003Y00495400D02*
Y00505397D01*
X00699339Y00495400D01*
Y00505397D01*
X00696006D02*
Y00495400D01*
X00691008D01*
X00689342Y00497066D01*
Y00503731D01*
X00691008Y00505397D01*
X00696006D01*
X00706000Y00673200D02*
Y00683197D01*
X00699335Y00673200D01*
Y00683197D01*
X00689339Y00681531D02*
X00691005Y00683197D01*
X00694337D01*
X00696003Y00681531D01*
Y00674866D01*
X00694337Y00673200D01*
X00691005D01*
X00689339Y00674866D01*
X00709335Y00554531D02*
X00711002Y00556197D01*
X00714334D01*
X00716000Y00554531D01*
Y00552864D01*
X00714334Y00551198D01*
X00711002D01*
X00709335Y00549532D01*
Y00547866D01*
X00711002Y00546200D01*
X00714334D01*
X00716000Y00547866D01*
X00706003Y00556197D02*
Y00549532D01*
X00702671Y00546200D01*
X00699339Y00549532D01*
Y00556197D01*
X00696006Y00546200D02*
Y00556197D01*
X00689342Y00546200D01*
Y00556197D01*
X00706000Y00579931D02*
X00704334Y00581597D01*
X00701002D01*
X00699335Y00579931D01*
Y00578265D01*
X00701002Y00576598D01*
X00702668D01*
X00701002D01*
X00699335Y00574932D01*
Y00573266D01*
X00701002Y00571600D01*
X00704334D01*
X00706000Y00573266D01*
X00689339Y00581597D02*
X00696003D01*
Y00576598D01*
X00692671Y00578265D01*
X00691005D01*
X00689339Y00576598D01*
Y00573266D01*
X00691005Y00571600D01*
X00694337D01*
X00696003Y00573266D01*
X00706000Y00520800D02*
Y00530797D01*
X00699335Y00520800D01*
Y00530797D01*
X00689339Y00529131D02*
X00691005Y00530797D01*
X00694337D01*
X00696003Y00529131D01*
Y00522466D01*
X00694337Y00520800D01*
X00691005D01*
X00689339Y00522466D01*
X00706000Y00630731D02*
X00704334Y00632397D01*
X00701002D01*
X00699335Y00630731D01*
Y00629064D01*
X00701002Y00627398D01*
X00702668D01*
X00701002D01*
X00699335Y00625732D01*
Y00624066D01*
X00701002Y00622400D01*
X00704334D01*
X00706000Y00624066D01*
X00691005Y00622400D02*
Y00632397D01*
X00696003Y00627398D01*
X00689339D01*
X00444336Y00571600D02*
X00451000D01*
X00444336Y00578265D01*
Y00579931D01*
X00446002Y00581597D01*
X00449334D01*
X00451000Y00579931D01*
X00441003Y00571600D02*
X00437671D01*
X00439337D01*
Y00581597D01*
X00441003Y00579931D01*
X00461000Y00708597D02*
X00454336D01*
X00457668D01*
Y00698600D01*
X00451003Y00708597D02*
Y00698600D01*
X00446005D01*
X00444339Y00700266D01*
Y00706931D01*
X00446005Y00708597D01*
X00451003D01*
X00436008D02*
X00439340D01*
X00441007Y00706931D01*
Y00700266D01*
X00439340Y00698600D01*
X00436008D01*
X00434342Y00700266D01*
Y00706931D01*
X00436008Y00708597D01*
X00451000Y00597000D02*
X00447668D01*
X00449334D01*
Y00606997D01*
X00451000Y00605331D01*
X00442669Y00606997D02*
X00436005D01*
Y00605331D01*
X00442669Y00598666D01*
Y00597000D01*
X00461000Y00505397D02*
X00454336D01*
X00457668D01*
Y00495400D01*
X00451003Y00505397D02*
X00444339Y00495400D01*
Y00505397D02*
X00451003Y00495400D01*
X00441007Y00505397D02*
Y00495400D01*
X00436008D01*
X00434342Y00497066D01*
Y00503731D01*
X00436008Y00505397D01*
X00441007D01*
X00454336Y00732331D02*
X00456002Y00733997D01*
X00459334D01*
X00461000Y00732331D01*
Y00730665D01*
X00459334Y00728998D01*
X00456002D01*
X00454336Y00727332D01*
Y00725666D01*
X00456002Y00724000D01*
X00459334D01*
X00461000Y00725666D01*
X00451003Y00733997D02*
Y00724000D01*
X00446005D01*
X00444339Y00725666D01*
Y00732331D01*
X00446005Y00733997D01*
X00451003D01*
X00436008D02*
X00439340D01*
X00441007Y00732331D01*
Y00725666D01*
X00439340Y00724000D01*
X00436008D01*
X00434342Y00725666D01*
Y00732331D01*
X00436008Y00733997D01*
X00461000Y00683197D02*
Y00676532D01*
X00457668Y00673200D01*
X00454336Y00676532D01*
Y00683197D01*
X00444339Y00681531D02*
X00446005Y00683197D01*
X00449337D01*
X00451003Y00681531D01*
Y00674866D01*
X00449337Y00673200D01*
X00446005D01*
X00444339Y00674866D01*
X00434342Y00681531D02*
X00436008Y00683197D01*
X00439340D01*
X00441007Y00681531D01*
Y00674866D01*
X00439340Y00673200D01*
X00436008D01*
X00434342Y00674866D01*
X00454336Y00656131D02*
X00456002Y00657797D01*
X00459334D01*
X00461000Y00656131D01*
Y00649466D01*
X00459334Y00647800D01*
X00456002D01*
X00454336Y00649466D01*
Y00652798D01*
X00457668D01*
X00451003Y00647800D02*
Y00657797D01*
X00444339Y00647800D01*
Y00657797D01*
X00441007D02*
Y00647800D01*
X00436008D01*
X00434342Y00649466D01*
Y00656131D01*
X00436008Y00657797D01*
X00441007D01*
X00444336Y00546200D02*
X00451000D01*
X00444336Y00552864D01*
Y00554531D01*
X00446002Y00556197D01*
X00449334D01*
X00451000Y00554531D01*
X00434339Y00546200D02*
X00441003D01*
X00434339Y00552864D01*
Y00554531D01*
X00436005Y00556197D01*
X00439337D01*
X00441003Y00554531D01*
X00451000Y00622400D02*
X00447668D01*
X00449334D01*
Y00632397D01*
X00451000Y00630731D01*
X00436005Y00632397D02*
X00439337Y00630731D01*
X00442669Y00627398D01*
Y00624066D01*
X00441003Y00622400D01*
X00437671D01*
X00436005Y00624066D01*
Y00625732D01*
X00437671Y00627398D01*
X00442669D01*
X00569500Y00367497D02*
Y00357500D01*
X00564502D01*
X00562836Y00359166D01*
Y00365831D01*
X00564502Y00367497D01*
X00569500D01*
X00559503Y00357500D02*
Y00364165D01*
X00556171Y00367497D01*
X00552839Y00364165D01*
Y00357500D01*
Y00362498D01*
X00559503D01*
X00549506Y00367497D02*
X00542842D01*
X00546174D01*
Y00357500D01*
X00539510D02*
Y00364165D01*
X00536177Y00367497D01*
X00532845Y00364165D01*
Y00357500D01*
Y00362498D01*
X00539510D01*
X00552836Y00340831D02*
X00554502Y00342497D01*
X00557834D01*
X00559500Y00340831D01*
Y00334166D01*
X00557834Y00332500D01*
X00554502D01*
X00552836Y00334166D01*
Y00337498D01*
X00556168D01*
X00549503Y00332500D02*
Y00342497D01*
X00542839Y00332500D01*
Y00342497D01*
X00539506D02*
Y00332500D01*
X00534508D01*
X00532842Y00334166D01*
Y00340831D01*
X00534508Y00342497D01*
X00539506D01*
X00297752Y00460000D02*
Y00453335D01*
X00294419Y00456668D02*
X00301084D01*
X00267252Y00559000D02*
Y00552336D01*
X00263919Y00555668D02*
X00270584D01*
X00559500Y00394997D02*
Y00388332D01*
X00556168Y00385000D01*
X00552836Y00388332D01*
Y00394997D01*
X00542839Y00393331D02*
X00544505Y00394997D01*
X00547837D01*
X00549503Y00393331D01*
Y00386666D01*
X00547837Y00385000D01*
X00544505D01*
X00542839Y00386666D01*
X00532842Y00393331D02*
X00534508Y00394997D01*
X00537840D01*
X00539506Y00393331D01*
Y00386666D01*
X00537840Y00385000D01*
X00534508D01*
X00532842Y00386666D01*
X00534585Y00319931D02*
X00536252Y00321597D01*
X00539584D01*
X00541250Y00319931D01*
Y00318265D01*
X00539584Y00316598D01*
X00536252D01*
X00534585Y00314932D01*
Y00313266D01*
X00536252Y00311600D01*
X00539584D01*
X00541250Y00313266D01*
X00526255Y00311600D02*
X00529587D01*
X00531253Y00313266D01*
Y00316598D01*
X00529587Y00318265D01*
X00526255D01*
X00524589Y00316598D01*
Y00314932D01*
X00531253D01*
X00521256Y00311600D02*
Y00318265D01*
X00516258D01*
X00514592Y00316598D01*
Y00311600D01*
X00511260D02*
X00506261D01*
X00504595Y00313266D01*
X00506261Y00314932D01*
X00509594D01*
X00511260Y00316598D01*
X00509594Y00318265D01*
X00504595D01*
X00499597Y00311600D02*
X00496264D01*
X00494598Y00313266D01*
Y00316598D01*
X00496264Y00318265D01*
X00499597D01*
X00501263Y00316598D01*
Y00313266D01*
X00499597Y00311600D01*
X00491266Y00318265D02*
Y00311600D01*
Y00314932D01*
X00489600Y00316598D01*
X00487934Y00318265D01*
X00486268D01*
X00399750Y00318897D02*
Y00308900D01*
X00393086D01*
X00383089Y00318897D02*
X00389753D01*
Y00308900D01*
X00383089D01*
X00389753Y00313898D02*
X00386421D01*
X00379757Y00318897D02*
Y00308900D01*
X00374758D01*
X00373092Y00310566D01*
Y00317231D01*
X00374758Y00318897D01*
X00379757D01*
X00366500Y00394397D02*
Y00387732D01*
X00363168Y00384400D01*
X00359836Y00387732D01*
Y00394397D01*
X00349839Y00392731D02*
X00351505Y00394397D01*
X00354837D01*
X00356503Y00392731D01*
Y00386066D01*
X00354837Y00384400D01*
X00351505D01*
X00349839Y00386066D01*
X00339842Y00392731D02*
X00341508Y00394397D01*
X00344840D01*
X00346506Y00392731D01*
Y00386066D01*
X00344840Y00384400D01*
X00341508D01*
X00339842Y00386066D01*
X00366500Y00369397D02*
Y00359400D01*
X00361502D01*
X00359836Y00361066D01*
Y00367731D01*
X00361502Y00369397D01*
X00366500D01*
X00356503Y00359400D02*
Y00366064D01*
X00353171Y00369397D01*
X00349839Y00366064D01*
Y00359400D01*
Y00364398D01*
X00356503D01*
X00346506Y00369397D02*
X00339842D01*
X00343174D01*
Y00359400D01*
X00336510D02*
Y00366064D01*
X00333177Y00369397D01*
X00329845Y00366064D01*
Y00359400D01*
Y00364398D01*
X00336510D01*
X00359836Y00340231D02*
X00361502Y00341897D01*
X00364834D01*
X00366500Y00340231D01*
Y00333566D01*
X00364834Y00331900D01*
X00361502D01*
X00359836Y00333566D01*
Y00336898D01*
X00363168D01*
X00356503Y00331900D02*
Y00341897D01*
X00349839Y00331900D01*
Y00341897D01*
X00346506D02*
Y00331900D01*
X00341508D01*
X00339842Y00333566D01*
Y00340231D01*
X00341508Y00341897D01*
X00346506D01*
X00549831Y00415498D02*
Y00407168D01*
X00548164Y00405502D01*
X00544832D01*
X00543166Y00407168D01*
Y00415498D01*
X00539834Y00413832D02*
X00538168Y00415498D01*
X00534836D01*
X00533169Y00413832D01*
Y00412166D01*
X00534836Y00410500D01*
X00533169Y00408834D01*
Y00407168D01*
X00534836Y00405502D01*
X00538168D01*
X00539834Y00407168D01*
Y00408834D01*
X00538168Y00410500D01*
X00539834Y00412166D01*
Y00413832D01*
X00538168Y00410500D02*
X00534836D01*
X00371331Y00416248D02*
Y00407918D01*
X00369664Y00406252D01*
X00366332D01*
X00364666Y00407918D01*
Y00416248D01*
X00354669D02*
X00358002Y00414582D01*
X00361334Y00411250D01*
Y00407918D01*
X00359668Y00406252D01*
X00356335D01*
X00354669Y00407918D01*
Y00409584D01*
X00356335Y00411250D01*
X00361334D01*
X00255155Y00481453D02*
X00253489Y00483119D01*
Y00486452D01*
X00255155Y00488118D01*
X00261820D01*
X00263486Y00486452D01*
Y00483119D01*
X00261820Y00481453D01*
X00255155Y00478121D02*
X00253489Y00476455D01*
Y00473122D01*
X00255155Y00471456D01*
X00256821D01*
X00258487Y00473122D01*
Y00474789D01*
Y00473122D01*
X00260154Y00471456D01*
X00261820D01*
X00263486Y00473122D01*
Y00476455D01*
X00261820Y00478121D01*
X00225155Y00581453D02*
X00223489Y00583119D01*
Y00586452D01*
X00225155Y00588118D01*
X00231820D01*
X00233486Y00586452D01*
Y00583119D01*
X00231820Y00581453D01*
X00223489Y00571456D02*
X00225155Y00574789D01*
X00228487Y00578121D01*
X00231820D01*
X00233486Y00576455D01*
Y00573123D01*
X00231820Y00571456D01*
X00230154D01*
X00228487Y00573123D01*
Y00578121D01*
X00225155Y00379787D02*
X00223489Y00381453D01*
Y00384785D01*
X00225155Y00386452D01*
X00231820D01*
X00233486Y00384785D01*
Y00381453D01*
X00231820Y00379787D01*
X00233486Y00376455D02*
Y00373122D01*
Y00374789D01*
X00223489D01*
X00225155Y00376455D01*
D59*
X00395720Y00186874D02*
G03*
X00484280Y00186874I00044280J00251126D01*
G01*
X00691126Y00393720D02*
G03*
X00691126Y00482280I-00251126J00044280D01*
G01*
X00188874D02*
G03*
X00188874Y00393720I00251126J-00044280D01*
G01*
M02*
