G04*
G04 #@! TF.GenerationSoftware,Altium Limited,Altium Designer,21.7.2 (23)*
G04*
G04 Layer_Physical_Order=2*
G04 Layer_Color=16711680*
%FSAX44Y44*%
%MOMM*%
G71*
G04*
G04 #@! TF.SameCoordinates,E92E468F-2344-4334-A9F0-42BD54299544*
G04*
G04*
G04 #@! TF.FilePolarity,Positive*
G04*
G01*
G75*
%ADD11C,0.6000*%
%ADD13C,0.2540*%
%ADD54C,1.5500*%
%ADD57C,1.4500*%
%ADD66C,0.4000*%
%ADD67R,2.2000X10.2000*%
G04:AMPARAMS|DCode=68|XSize=2.2mm|YSize=10.2mm|CornerRadius=0mm|HoleSize=0mm|Usage=FLASHONLY|Rotation=40.000|XOffset=0mm|YOffset=0mm|HoleType=Round|Shape=Rectangle|*
%AMROTATEDRECTD68*
4,1,4,2.4356,-4.6139,-4.1209,3.1998,-2.4356,4.6139,4.1209,-3.1998,2.4356,-4.6139,0.0*
%
%ADD68ROTATEDRECTD68*%

G04:AMPARAMS|DCode=69|XSize=2.2mm|YSize=10.2mm|CornerRadius=0mm|HoleSize=0mm|Usage=FLASHONLY|Rotation=80.000|XOffset=0mm|YOffset=0mm|HoleType=Round|Shape=Rectangle|*
%AMROTATEDRECTD69*
4,1,4,4.8315,-1.9689,-5.2135,-0.1977,-4.8315,1.9689,5.2135,0.1977,4.8315,-1.9689,0.0*
%
%ADD69ROTATEDRECTD69*%

G04:AMPARAMS|DCode=70|XSize=2.2mm|YSize=10.2mm|CornerRadius=0mm|HoleSize=0mm|Usage=FLASHONLY|Rotation=120.000|XOffset=0mm|YOffset=0mm|HoleType=Round|Shape=Rectangle|*
%AMROTATEDRECTD70*
4,1,4,4.9667,1.5974,-3.8667,-3.5026,-4.9667,-1.5974,3.8667,3.5026,4.9667,1.5974,0.0*
%
%ADD70ROTATEDRECTD70*%

G04:AMPARAMS|DCode=71|XSize=2.2mm|YSize=10.2mm|CornerRadius=0mm|HoleSize=0mm|Usage=FLASHONLY|Rotation=160.000|XOffset=0mm|YOffset=0mm|HoleType=Round|Shape=Rectangle|*
%AMROTATEDRECTD71*
4,1,4,2.7780,4.4162,-0.7106,-5.1687,-2.7780,-4.4162,0.7106,5.1687,2.7780,4.4162,0.0*
%
%ADD71ROTATEDRECTD71*%

G04:AMPARAMS|DCode=72|XSize=2.2mm|YSize=10.2mm|CornerRadius=0mm|HoleSize=0mm|Usage=FLASHONLY|Rotation=200.000|XOffset=0mm|YOffset=0mm|HoleType=Round|Shape=Rectangle|*
%AMROTATEDRECTD72*
4,1,4,-0.7106,5.1687,2.7780,-4.4162,0.7106,-5.1687,-2.7780,4.4162,-0.7106,5.1687,0.0*
%
%ADD72ROTATEDRECTD72*%

G04:AMPARAMS|DCode=73|XSize=2.2mm|YSize=10.2mm|CornerRadius=0mm|HoleSize=0mm|Usage=FLASHONLY|Rotation=240.000|XOffset=0mm|YOffset=0mm|HoleType=Round|Shape=Rectangle|*
%AMROTATEDRECTD73*
4,1,4,-3.8667,3.5026,4.9667,-1.5974,3.8667,-3.5026,-4.9667,1.5974,-3.8667,3.5026,0.0*
%
%ADD73ROTATEDRECTD73*%

G04:AMPARAMS|DCode=74|XSize=2.2mm|YSize=10.2mm|CornerRadius=0mm|HoleSize=0mm|Usage=FLASHONLY|Rotation=280.000|XOffset=0mm|YOffset=0mm|HoleType=Round|Shape=Rectangle|*
%AMROTATEDRECTD74*
4,1,4,-5.2135,0.1977,4.8315,1.9689,5.2135,-0.1977,-4.8315,-1.9689,-5.2135,0.1977,0.0*
%
%ADD74ROTATEDRECTD74*%

G04:AMPARAMS|DCode=75|XSize=2.2mm|YSize=10.2mm|CornerRadius=0mm|HoleSize=0mm|Usage=FLASHONLY|Rotation=320.000|XOffset=0mm|YOffset=0mm|HoleType=Round|Shape=Rectangle|*
%AMROTATEDRECTD75*
4,1,4,-4.1209,-3.1998,2.4356,4.6139,4.1209,3.1998,-2.4356,-4.6139,-4.1209,-3.1998,0.0*
%
%ADD75ROTATEDRECTD75*%

%ADD76C,2.5000*%
%ADD77C,2.8000*%
%ADD78P,2.0506X4X275.0*%
%ADD79R,1.3500X1.3500*%
%ADD80C,1.3500*%
%ADD81P,2.0506X4X355.0*%
%ADD82R,1.8288X1.8288*%
%ADD83C,1.8288*%
%ADD84C,1.4000*%
%ADD85R,1.4000X1.4000*%
%ADD86C,0.7000*%
%ADD87C,1.2700*%
%ADD88C,0.4000*%
%ADD89R,3.0000X2.3000*%
%ADD90C,1.0000*%
G04:AMPARAMS|DCode=91|XSize=3mm|YSize=2.3mm|CornerRadius=0mm|HoleSize=0mm|Usage=FLASHONLY|Rotation=40.000|XOffset=0mm|YOffset=0mm|HoleType=Round|Shape=Rectangle|*
%AMROTATEDRECTD91*
4,1,4,-0.4099,-1.8451,-1.8883,-0.0832,0.4099,1.8451,1.8883,0.0832,-0.4099,-1.8451,0.0*
%
%ADD91ROTATEDRECTD91*%

G04:AMPARAMS|DCode=92|XSize=3mm|YSize=2.3mm|CornerRadius=0mm|HoleSize=0mm|Usage=FLASHONLY|Rotation=80.000|XOffset=0mm|YOffset=0mm|HoleType=Round|Shape=Rectangle|*
%AMROTATEDRECTD92*
4,1,4,0.8721,-1.6769,-1.3930,-1.2775,-0.8721,1.6769,1.3930,1.2775,0.8721,-1.6769,0.0*
%
%ADD92ROTATEDRECTD92*%

G04:AMPARAMS|DCode=93|XSize=3mm|YSize=2.3mm|CornerRadius=0mm|HoleSize=0mm|Usage=FLASHONLY|Rotation=120.000|XOffset=0mm|YOffset=0mm|HoleType=Round|Shape=Rectangle|*
%AMROTATEDRECTD93*
4,1,4,1.7459,-0.7240,-0.2459,-1.8740,-1.7459,0.7240,0.2459,1.8740,1.7459,-0.7240,0.0*
%
%ADD93ROTATEDRECTD93*%

G04:AMPARAMS|DCode=94|XSize=3mm|YSize=2.3mm|CornerRadius=0mm|HoleSize=0mm|Usage=FLASHONLY|Rotation=160.000|XOffset=0mm|YOffset=0mm|HoleType=Round|Shape=Rectangle|*
%AMROTATEDRECTD94*
4,1,4,1.8029,0.5676,1.0162,-1.5937,-1.8029,-0.5676,-1.0162,1.5937,1.8029,0.5676,0.0*
%
%ADD94ROTATEDRECTD94*%

G04:AMPARAMS|DCode=95|XSize=3mm|YSize=2.3mm|CornerRadius=0mm|HoleSize=0mm|Usage=FLASHONLY|Rotation=200.000|XOffset=0mm|YOffset=0mm|HoleType=Round|Shape=Rectangle|*
%AMROTATEDRECTD95*
4,1,4,1.0162,1.5937,1.8029,-0.5676,-1.0162,-1.5937,-1.8029,0.5676,1.0162,1.5937,0.0*
%
%ADD95ROTATEDRECTD95*%

G04:AMPARAMS|DCode=96|XSize=3mm|YSize=2.3mm|CornerRadius=0mm|HoleSize=0mm|Usage=FLASHONLY|Rotation=240.000|XOffset=0mm|YOffset=0mm|HoleType=Round|Shape=Rectangle|*
%AMROTATEDRECTD96*
4,1,4,-0.2459,1.8740,1.7459,0.7240,0.2459,-1.8740,-1.7459,-0.7240,-0.2459,1.8740,0.0*
%
%ADD96ROTATEDRECTD96*%

G04:AMPARAMS|DCode=97|XSize=3mm|YSize=2.3mm|CornerRadius=0mm|HoleSize=0mm|Usage=FLASHONLY|Rotation=280.000|XOffset=0mm|YOffset=0mm|HoleType=Round|Shape=Rectangle|*
%AMROTATEDRECTD97*
4,1,4,-1.3930,1.2775,0.8721,1.6769,1.3930,-1.2775,-0.8721,-1.6769,-1.3930,1.2775,0.0*
%
%ADD97ROTATEDRECTD97*%

G04:AMPARAMS|DCode=98|XSize=3mm|YSize=2.3mm|CornerRadius=0mm|HoleSize=0mm|Usage=FLASHONLY|Rotation=320.000|XOffset=0mm|YOffset=0mm|HoleType=Round|Shape=Rectangle|*
%AMROTATEDRECTD98*
4,1,4,-1.8883,0.0832,-0.4099,1.8451,1.8883,-0.0832,0.4099,-1.8451,-1.8883,0.0832,0.0*
%
%ADD98ROTATEDRECTD98*%

G36*
X00393660Y00843766D02*
X00396753Y00842640D01*
X00399449Y00840752D01*
X00401565Y00838231D01*
X00402956Y00835248D01*
X00403242Y00833627D01*
X00406715Y00813931D01*
X00382094Y00809590D01*
X00378621Y00829286D01*
X00378621Y00829286D01*
X00378336Y00830907D01*
X00378623Y00834186D01*
X00379748Y00837279D01*
X00381636Y00839975D01*
X00384157Y00842090D01*
X00387140Y00843481D01*
X00390382Y00844053D01*
X00393660Y00843766D01*
D02*
G37*
G36*
X00354268Y00836820D02*
X00357361Y00835694D01*
X00360057Y00833806D01*
X00362173Y00831285D01*
X00363563Y00828302D01*
X00363849Y00826682D01*
X00367322Y00806985D01*
X00342702Y00802644D01*
X00339229Y00822340D01*
X00338943Y00823961D01*
X00339230Y00827240D01*
X00340356Y00830333D01*
X00342244Y00833029D01*
X00344765Y00835144D01*
X00347748Y00836535D01*
X00350989Y00837107D01*
X00354268Y00836820D01*
D02*
G37*
G36*
X00625504Y00802594D02*
X00628355Y00800948D01*
X00630682Y00798621D01*
X00632328Y00795771D01*
X00633180Y00792592D01*
Y00789300D01*
X00632328Y00786121D01*
X00631505Y00784696D01*
X00621505Y00767376D01*
X00599854Y00779876D01*
X00609854Y00797196D01*
X00609854D01*
X00610677Y00798621D01*
X00613004Y00800948D01*
X00615855Y00802594D01*
X00619034Y00803446D01*
X00622325D01*
X00625504Y00802594D01*
D02*
G37*
G36*
X00415744Y00762721D02*
X00416030Y00761101D01*
X00415743Y00757822D01*
X00414617Y00754729D01*
X00412730Y00752033D01*
X00410208Y00749917D01*
X00407225Y00748526D01*
X00403984Y00747955D01*
X00400705Y00748242D01*
X00397612Y00749367D01*
X00394916Y00751255D01*
X00392801Y00753776D01*
X00391410Y00756759D01*
X00391124Y00758380D01*
X00391124D01*
X00387651Y00778076D01*
X00412271Y00782417D01*
X00415744Y00762721D01*
D02*
G37*
G36*
X00660145Y00782594D02*
X00662996Y00780948D01*
X00665323Y00778621D01*
X00666969Y00775771D01*
X00667821Y00772592D01*
Y00769300D01*
X00666969Y00766121D01*
X00666146Y00764696D01*
X00656146Y00747375D01*
X00634495Y00759875D01*
X00644495Y00777196D01*
X00645318Y00778621D01*
X00647645Y00780948D01*
X00650496Y00782594D01*
X00653675Y00783446D01*
X00656966D01*
X00660145Y00782594D01*
D02*
G37*
G36*
X00462238Y00870526D02*
X00482215Y00869139D01*
X00502107Y00866832D01*
X00521871Y00863608D01*
X00541465Y00859474D01*
X00560848Y00854441D01*
X00579977Y00848517D01*
X00598812Y00841716D01*
X00617313Y00834053D01*
X00635441Y00825543D01*
X00653156Y00816205D01*
X00670421Y00806059D01*
X00681304Y00798967D01*
X00680831Y00797794D01*
X00678881Y00798051D01*
X00678743Y00798078D01*
Y00798078D01*
X00678743Y00798078D01*
X00633350D01*
X00632448Y00799641D01*
X00632272Y00799841D01*
X00632124Y00800063D01*
X00629797Y00802391D01*
X00629575Y00802539D01*
X00629374Y00802714D01*
X00626524Y00804360D01*
X00626271Y00804446D01*
X00626032Y00804564D01*
X00622853Y00805416D01*
X00622587Y00805433D01*
X00622325Y00805485D01*
X00619034D01*
X00618772Y00805433D01*
X00618506Y00805416D01*
X00615327Y00804564D01*
X00615088Y00804446D01*
X00614835Y00804360D01*
X00611985Y00802714D01*
X00611784Y00802539D01*
X00611562Y00802391D01*
X00609235Y00800063D01*
X00609087Y00799841D01*
X00608911Y00799641D01*
X00608088Y00798216D01*
X00608088Y00798216D01*
X00598088Y00780895D01*
X00597832Y00780142D01*
X00597884Y00779348D01*
X00598114Y00778883D01*
X00597419Y00777986D01*
X00597296Y00777888D01*
X00595427Y00778968D01*
X00594722Y00779906D01*
X00595127Y00780607D01*
X00602857Y00793996D01*
X00590698Y00801016D01*
X00578539Y00808036D01*
X00570404Y00793946D01*
X00579896Y00788466D01*
X00580196Y00786826D01*
X00567601Y00765011D01*
X00584296Y00755372D01*
X00584273Y00755215D01*
X00583844Y00754166D01*
X00583326Y00754133D01*
X00582613Y00753781D01*
X00582088Y00753182D01*
X00572088Y00735862D01*
X00571265Y00734437D01*
X00571180Y00734184D01*
X00571062Y00733945D01*
X00570210Y00730766D01*
X00570192Y00730499D01*
X00570140Y00730238D01*
Y00726947D01*
X00570192Y00726685D01*
X00570210Y00726419D01*
X00571062Y00723240D01*
X00571180Y00723000D01*
X00571265Y00722748D01*
X00572911Y00719897D01*
X00573087Y00719697D01*
X00573235Y00719475D01*
X00575562Y00717148D01*
X00575784Y00717000D01*
X00575985Y00716824D01*
X00578835Y00715178D01*
X00579088Y00715092D01*
X00579327Y00714974D01*
X00582506Y00714122D01*
X00582772Y00714105D01*
X00583034Y00714053D01*
X00586325D01*
X00586587Y00714105D01*
X00586853Y00714122D01*
X00590032Y00714974D01*
X00590271Y00715092D01*
X00590524Y00715178D01*
X00593374Y00716824D01*
X00593575Y00717000D01*
X00593797Y00717148D01*
X00596124Y00719475D01*
X00596272Y00719697D01*
X00596448Y00719897D01*
X00607271Y00738643D01*
X00607527Y00739397D01*
X00607475Y00740191D01*
X00607245Y00740656D01*
X00607939Y00741551D01*
X00608063Y00741650D01*
X00618937Y00735372D01*
X00618914Y00735215D01*
X00618485Y00734166D01*
X00617967Y00734132D01*
X00617254Y00733781D01*
X00616729Y00733182D01*
X00606729Y00715862D01*
X00605906Y00714437D01*
X00605821Y00714184D01*
X00605703Y00713945D01*
X00604851Y00710766D01*
X00604833Y00710499D01*
X00604781Y00710238D01*
Y00706947D01*
X00604833Y00706685D01*
X00604851Y00706419D01*
X00605703Y00703240D01*
X00605821Y00703000D01*
X00605906Y00702748D01*
X00607552Y00699897D01*
X00607728Y00699697D01*
X00607876Y00699475D01*
X00610203Y00697148D01*
X00610425Y00697000D01*
X00610626Y00696824D01*
X00611081Y00696561D01*
X00610752Y00695334D01*
X00491381D01*
X00480358Y00706357D01*
X00479276Y00707080D01*
X00478000Y00707334D01*
X00388200D01*
X00386924Y00707080D01*
X00385843Y00706357D01*
X00340595Y00661110D01*
X00338309Y00662057D01*
X00335400Y00662440D01*
X00332491Y00662057D01*
X00329780Y00660934D01*
X00327452Y00659148D01*
X00325666Y00656820D01*
X00324543Y00654109D01*
X00324160Y00651200D01*
X00324543Y00648291D01*
X00325666Y00645580D01*
X00327452Y00643252D01*
X00329780Y00641466D01*
X00332491Y00640343D01*
X00335400Y00639960D01*
X00338309Y00640343D01*
X00341020Y00641466D01*
X00343348Y00643252D01*
X00345134Y00645580D01*
X00346257Y00648291D01*
X00346640Y00651200D01*
X00346257Y00654109D01*
X00345310Y00656395D01*
X00389581Y00700666D01*
X00476619D01*
X00487643Y00689642D01*
X00488724Y00688920D01*
X00490000Y00688666D01*
X00560838D01*
X00561091Y00687457D01*
X00558380Y00686334D01*
X00556052Y00684548D01*
X00554266Y00682220D01*
X00553143Y00679509D01*
X00552760Y00676600D01*
X00553143Y00673691D01*
X00554266Y00670980D01*
X00556052Y00668652D01*
X00558380Y00666866D01*
X00561091Y00665743D01*
X00564000Y00665360D01*
X00566909Y00665743D01*
X00569620Y00666866D01*
X00571948Y00668652D01*
X00573734Y00670980D01*
X00574857Y00673691D01*
X00575240Y00676600D01*
X00574857Y00679509D01*
X00573734Y00682220D01*
X00571948Y00684548D01*
X00569620Y00686334D01*
X00566909Y00687457D01*
X00567162Y00688666D01*
X00586238D01*
X00586491Y00687457D01*
X00583780Y00686334D01*
X00581452Y00684548D01*
X00579666Y00682220D01*
X00578543Y00679509D01*
X00578160Y00676600D01*
X00578543Y00673691D01*
X00579666Y00670980D01*
X00581346Y00668790D01*
X00581066Y00667520D01*
X00576986D01*
X00575710Y00667266D01*
X00574628Y00666544D01*
X00569195Y00661110D01*
X00566909Y00662057D01*
X00564000Y00662440D01*
X00561091Y00662057D01*
X00558380Y00660934D01*
X00556052Y00659148D01*
X00554266Y00656820D01*
X00553143Y00654109D01*
X00552760Y00651200D01*
X00553131Y00648380D01*
X00553042Y00648280D01*
X00551818Y00647897D01*
X00543460Y00656255D01*
X00543608Y00657000D01*
X00543181Y00659146D01*
X00541965Y00660965D01*
X00540146Y00662181D01*
X00538000Y00662608D01*
X00535854Y00662181D01*
X00534035Y00660965D01*
X00532819Y00659146D01*
X00532392Y00657000D01*
X00532819Y00654854D01*
X00534035Y00653035D01*
X00535854Y00651819D01*
X00538000Y00651392D01*
X00538745Y00651540D01*
X00553857Y00636428D01*
X00554938Y00635706D01*
X00556192Y00635456D01*
X00556408Y00635126D01*
X00556705Y00634249D01*
X00556052Y00633748D01*
X00554266Y00631420D01*
X00553143Y00628709D01*
X00552760Y00625800D01*
X00553143Y00622891D01*
X00554266Y00620180D01*
X00555946Y00617990D01*
X00555666Y00616720D01*
X00552995D01*
X00518334Y00651381D01*
Y00652613D01*
X00518965Y00653035D01*
X00520181Y00654854D01*
X00520608Y00657000D01*
X00520181Y00659146D01*
X00518965Y00660965D01*
X00517146Y00662181D01*
X00515000Y00662608D01*
X00512854Y00662181D01*
X00511035Y00660965D01*
X00509819Y00659146D01*
X00509392Y00657000D01*
X00509819Y00654854D01*
X00511035Y00653035D01*
X00511666Y00652613D01*
Y00650000D01*
X00511920Y00648724D01*
X00512643Y00647643D01*
X00549257Y00611028D01*
X00550338Y00610306D01*
X00551614Y00610052D01*
X00556297D01*
X00556705Y00608849D01*
X00556052Y00608348D01*
X00554266Y00606020D01*
X00553143Y00603309D01*
X00552760Y00600400D01*
X00553143Y00597491D01*
X00554266Y00594780D01*
X00556052Y00592452D01*
X00556705Y00591951D01*
X00556297Y00590748D01*
X00446301D01*
X00445622Y00592018D01*
X00446181Y00592854D01*
X00446608Y00595000D01*
X00446181Y00597146D01*
X00444965Y00598965D01*
X00443146Y00600181D01*
X00441000Y00600608D01*
X00438854Y00600181D01*
X00437035Y00598965D01*
X00436613Y00598334D01*
X00423000D01*
X00421724Y00598080D01*
X00420643Y00597357D01*
X00389205Y00565920D01*
X00343734D01*
X00343454Y00567190D01*
X00345134Y00569380D01*
X00346257Y00572091D01*
X00346640Y00575000D01*
X00346257Y00577909D01*
X00345134Y00580620D01*
X00343348Y00582948D01*
X00341020Y00584734D01*
X00338309Y00585857D01*
X00335400Y00586240D01*
X00332491Y00585857D01*
X00329780Y00584734D01*
X00327452Y00582948D01*
X00325666Y00580620D01*
X00324543Y00577909D01*
X00324160Y00575000D01*
X00324543Y00572091D01*
X00325666Y00569380D01*
X00327346Y00567190D01*
X00327066Y00565920D01*
X00317934D01*
X00317654Y00567190D01*
X00319334Y00569380D01*
X00320457Y00572091D01*
X00320840Y00575000D01*
X00320457Y00577909D01*
X00319334Y00580620D01*
X00317548Y00582948D01*
X00315220Y00584734D01*
X00312509Y00585857D01*
X00309600Y00586240D01*
X00306691Y00585857D01*
X00304405Y00584910D01*
X00281334Y00607981D01*
Y00649168D01*
X00281080Y00650444D01*
X00280357Y00651526D01*
X00256144Y00675740D01*
X00255062Y00676462D01*
X00253786Y00676716D01*
X00216455D01*
X00215180Y00676462D01*
X00214098Y00675740D01*
X00212414Y00674055D01*
X00198682Y00685577D01*
X00197985Y00685960D01*
X00197194Y00686047D01*
X00196696Y00685902D01*
X00195934Y00686741D01*
X00195859Y00686880D01*
X00208250Y00701648D01*
X00188762Y00718000D01*
X00188333Y00718360D01*
X00188417Y00719564D01*
X00195528Y00728040D01*
X00183065Y00738498D01*
X00174040Y00727742D01*
X00165015Y00716987D01*
X00177050Y00706889D01*
X00177395Y00705325D01*
X00175942Y00703592D01*
X00175792Y00703642D01*
X00174833Y00704247D01*
X00174889Y00704762D01*
X00174667Y00705526D01*
X00174169Y00706147D01*
X00157587Y00720060D01*
X00157353Y00720189D01*
X00157138Y00720346D01*
X00154155Y00721737D01*
X00153896Y00721801D01*
X00153647Y00721897D01*
X00150406Y00722469D01*
X00150140Y00722463D01*
X00149874Y00722492D01*
X00146596Y00722205D01*
X00146340Y00722131D01*
X00146076Y00722090D01*
X00142983Y00720964D01*
X00142755Y00720826D01*
X00142511Y00720718D01*
X00139815Y00718831D01*
X00139630Y00718638D01*
X00139422Y00718471D01*
X00137307Y00715950D01*
X00137178Y00715716D01*
X00137021Y00715501D01*
X00135630Y00712518D01*
X00135566Y00712259D01*
X00135470Y00712010D01*
X00134898Y00708769D01*
X00134904Y00708502D01*
X00134875Y00708237D01*
X00135162Y00704958D01*
X00135236Y00704702D01*
X00135277Y00704438D01*
X00136403Y00701346D01*
X00136541Y00701118D01*
X00136648Y00700873D01*
X00138536Y00698177D01*
X00138729Y00697993D01*
X00138896Y00697785D01*
X00140156Y00696727D01*
X00140157Y00696727D01*
X00155477Y00683871D01*
X00156175Y00683489D01*
X00156966Y00683402D01*
X00157464Y00683547D01*
X00158226Y00682707D01*
X00158301Y00682569D01*
X00150230Y00672951D01*
X00150081Y00673000D01*
X00149121Y00673605D01*
X00149178Y00674120D01*
X00148955Y00674884D01*
X00148457Y00675505D01*
X00131876Y00689418D01*
X00131642Y00689547D01*
X00131427Y00689705D01*
X00128444Y00691095D01*
X00128185Y00691159D01*
X00127936Y00691255D01*
X00125078Y00691759D01*
Y00710769D01*
X00125100Y00710779D01*
X00125137Y00710868D01*
X00125137Y00710869D01*
X00125876Y00711763D01*
X00127381Y00713493D01*
X00141904Y00728702D01*
X00157114Y00743225D01*
X00172978Y00757031D01*
X00189464Y00770088D01*
X00206534Y00782371D01*
X00224154Y00793852D01*
X00242285Y00804507D01*
X00260889Y00814313D01*
X00279925Y00823249D01*
X00299355Y00831297D01*
X00319135Y00838439D01*
X00320693Y00838922D01*
X00328311D01*
X00332122Y00835110D01*
X00331692Y00833745D01*
X00320083Y00831698D01*
X00323129Y00814424D01*
X00321878Y00814204D01*
X00322099Y00812953D01*
X00308272Y00810515D01*
X00311098Y00794492D01*
X00321891Y00796395D01*
X00323175Y00795332D01*
X00327549Y00770525D01*
X00346534Y00773873D01*
X00346617Y00773738D01*
X00346963Y00772658D01*
X00346588Y00772300D01*
X00346268Y00771572D01*
X00346251Y00770776D01*
X00350009Y00749459D01*
X00350106Y00749211D01*
X00350169Y00748952D01*
X00351560Y00745969D01*
X00351718Y00745754D01*
X00351846Y00745520D01*
X00353962Y00742998D01*
X00354170Y00742831D01*
X00354355Y00742639D01*
X00357051Y00740751D01*
X00357295Y00740644D01*
X00357523Y00740505D01*
X00360616Y00739380D01*
X00360879Y00739339D01*
X00361135Y00739264D01*
X00364414Y00738977D01*
X00364679Y00739006D01*
X00364946Y00739001D01*
X00368187Y00739572D01*
X00368436Y00739669D01*
X00368695Y00739732D01*
X00371678Y00741123D01*
X00371893Y00741281D01*
X00372127Y00741409D01*
X00374648Y00743525D01*
X00374815Y00743733D01*
X00375008Y00743917D01*
X00376895Y00746613D01*
X00377003Y00746858D01*
X00377141Y00747086D01*
X00378267Y00750178D01*
X00378308Y00750442D01*
X00378382Y00750698D01*
X00378669Y00753977D01*
X00378640Y00754242D01*
X00378646Y00754509D01*
X00378360Y00756129D01*
X00374887Y00775826D01*
X00374599Y00776567D01*
X00374049Y00777142D01*
X00373574Y00777351D01*
X00373530Y00778483D01*
X00373562Y00778638D01*
X00385927Y00780818D01*
X00386010Y00780684D01*
X00386355Y00779604D01*
X00385981Y00779246D01*
X00385660Y00778518D01*
X00385643Y00777722D01*
X00389116Y00758026D01*
Y00758026D01*
X00389402Y00756405D01*
X00389498Y00756157D01*
X00389562Y00755898D01*
X00390953Y00752915D01*
X00391110Y00752700D01*
X00391239Y00752466D01*
X00393354Y00749944D01*
X00393562Y00749777D01*
X00393747Y00749585D01*
X00396443Y00747697D01*
X00396687Y00747589D01*
X00396915Y00747451D01*
X00400008Y00746325D01*
X00400271Y00746285D01*
X00400528Y00746210D01*
X00403806Y00745923D01*
X00404072Y00745952D01*
X00404338Y00745947D01*
X00407579Y00746518D01*
X00407828Y00746615D01*
X00408087Y00746678D01*
X00411070Y00748069D01*
X00411285Y00748227D01*
X00411519Y00748355D01*
X00414040Y00750471D01*
X00414207Y00750679D01*
X00414400Y00750863D01*
X00416288Y00753559D01*
X00416395Y00753803D01*
X00416534Y00754032D01*
X00417659Y00757124D01*
X00417700Y00757388D01*
X00417775Y00757644D01*
X00418061Y00760923D01*
X00418032Y00761188D01*
X00418038Y00761455D01*
X00417752Y00763075D01*
X00414280Y00782772D01*
X00413991Y00783513D01*
X00413441Y00784088D01*
X00412966Y00784297D01*
X00412922Y00785429D01*
X00412954Y00785584D01*
X00431939Y00788932D01*
X00427521Y00813985D01*
X00427424Y00814537D01*
X00428262Y00815405D01*
X00439158Y00817327D01*
X00436333Y00833349D01*
X00422506Y00830911D01*
X00408679Y00828473D01*
X00411407Y00813002D01*
X00410667Y00811582D01*
X00408439Y00811189D01*
X00408356Y00811323D01*
X00408010Y00812403D01*
X00408385Y00812762D01*
X00408705Y00813490D01*
X00408723Y00814285D01*
X00405250Y00833981D01*
X00404964Y00835602D01*
X00404867Y00835851D01*
X00404804Y00836110D01*
X00403413Y00839093D01*
X00403255Y00839308D01*
X00403127Y00839542D01*
X00401011Y00842063D01*
X00400803Y00842230D01*
X00400619Y00842423D01*
X00397923Y00844311D01*
X00397679Y00844418D01*
X00397451Y00844556D01*
X00394358Y00845682D01*
X00394094Y00845723D01*
X00393838Y00845797D01*
X00390559Y00846084D01*
X00390294Y00846055D01*
X00390027Y00846061D01*
X00386786Y00845489D01*
X00386538Y00845393D01*
X00386278Y00845329D01*
X00383296Y00843938D01*
X00383080Y00843781D01*
X00382846Y00843652D01*
X00380325Y00841537D01*
X00380158Y00841329D01*
X00379966Y00841144D01*
X00378078Y00838448D01*
X00377970Y00838204D01*
X00377832Y00837976D01*
X00376706Y00834883D01*
X00376666Y00834619D01*
X00376591Y00834363D01*
X00376304Y00831085D01*
X00376333Y00830819D01*
X00376327Y00830553D01*
X00376613Y00828932D01*
X00376613Y00828932D01*
X00380086Y00809236D01*
X00380374Y00808494D01*
X00380925Y00807920D01*
X00381399Y00807711D01*
X00381443Y00806578D01*
X00381412Y00806423D01*
X00369047Y00804243D01*
X00368964Y00804377D01*
X00368618Y00805457D01*
X00368993Y00805816D01*
X00369313Y00806544D01*
X00369330Y00807339D01*
X00365858Y00827036D01*
X00365572Y00828656D01*
X00365475Y00828905D01*
X00365412Y00829164D01*
X00364021Y00832147D01*
X00363863Y00832362D01*
X00363735Y00832596D01*
X00361619Y00835117D01*
X00361411Y00835284D01*
X00361227Y00835477D01*
X00358530Y00837365D01*
X00358286Y00837472D01*
X00358058Y00837610D01*
X00354965Y00838736D01*
X00354702Y00838777D01*
X00354446Y00838851D01*
X00351167Y00839138D01*
X00350902Y00839109D01*
X00350635Y00839115D01*
X00347394Y00838543D01*
X00347145Y00838447D01*
X00346886Y00838383D01*
X00343903Y00836992D01*
X00343688Y00836835D01*
X00343454Y00836706D01*
X00342697Y00836071D01*
X00332884Y00845884D01*
X00332884Y00845884D01*
X00331561Y00846768D01*
X00330000Y00847078D01*
X00330000Y00847078D01*
X00320158D01*
X00318898Y00846828D01*
X00318884Y00846869D01*
X00316551Y00846147D01*
X00296418Y00838877D01*
X00276642Y00830686D01*
X00257265Y00821590D01*
X00238329Y00811608D01*
X00219874Y00800763D01*
X00201940Y00789077D01*
X00184565Y00776575D01*
X00167785Y00763285D01*
X00151637Y00749233D01*
X00136156Y00734451D01*
X00121373Y00718969D01*
X00119178Y00716447D01*
X00119131Y00716415D01*
X00118998Y00716239D01*
X00119008Y00716230D01*
X00119001Y00716220D01*
X00119001Y00716220D01*
X00118855Y00716001D01*
X00118012Y00714903D01*
X00117206Y00712957D01*
X00116955Y00711049D01*
X00116925Y00710897D01*
X00116924D01*
X00116922Y00710883D01*
X00116922Y00709629D01*
Y00690130D01*
X00116799Y00690077D01*
X00114103Y00688189D01*
X00113919Y00687996D01*
X00113711Y00687829D01*
X00111595Y00685308D01*
X00111467Y00685074D01*
X00111309Y00684859D01*
X00109918Y00681876D01*
X00109855Y00681617D01*
X00109758Y00681368D01*
X00109186Y00678127D01*
X00109192Y00677860D01*
X00109163Y00677595D01*
X00109450Y00674316D01*
X00109525Y00674060D01*
X00109565Y00673797D01*
X00110691Y00670704D01*
X00110829Y00670476D01*
X00110937Y00670232D01*
X00112825Y00667536D01*
X00113017Y00667351D01*
X00113184Y00667143D01*
X00114445Y00666085D01*
X00114445Y00666085D01*
X00129766Y00653230D01*
X00130463Y00652847D01*
X00131254Y00652760D01*
X00131752Y00652905D01*
X00132514Y00652065D01*
X00132589Y00651927D01*
X00131202Y00650274D01*
X00130156Y00649743D01*
X00129535Y00650263D01*
X00117692Y00660201D01*
X00108667Y00649445D01*
X00099643Y00638690D01*
X00112106Y00628232D01*
X00119151Y00636628D01*
X00120818Y00636639D01*
X00140115Y00620447D01*
X00152507Y00635215D01*
X00152656Y00635165D01*
X00153615Y00634560D01*
X00153559Y00634045D01*
X00153781Y00633281D01*
X00154279Y00632660D01*
X00169600Y00619805D01*
X00169600Y00619805D01*
X00170861Y00618747D01*
X00171095Y00618619D01*
X00171310Y00618461D01*
X00174293Y00617070D01*
X00174552Y00617006D01*
X00174800Y00616910D01*
X00178042Y00616338D01*
X00178309Y00616344D01*
X00178574Y00616315D01*
X00181852Y00616602D01*
X00182108Y00616676D01*
X00182372Y00616717D01*
X00185465Y00617843D01*
X00185693Y00617981D01*
X00185937Y00618088D01*
X00188633Y00619976D01*
X00188818Y00620169D01*
X00189026Y00620336D01*
X00191141Y00622857D01*
X00191270Y00623091D01*
X00191427Y00623306D01*
X00192818Y00626289D01*
X00192882Y00626548D01*
X00192978Y00626797D01*
X00193550Y00630038D01*
X00193544Y00630305D01*
X00193573Y00630570D01*
X00193286Y00633849D01*
X00193212Y00634105D01*
X00193171Y00634369D01*
X00192045Y00637461D01*
X00191907Y00637689D01*
X00191800Y00637934D01*
X00189912Y00640630D01*
X00189719Y00640814D01*
X00189552Y00641022D01*
X00188291Y00642080D01*
X00172971Y00654936D01*
X00172273Y00655318D01*
X00171482Y00655405D01*
X00170984Y00655260D01*
X00170222Y00656099D01*
X00170147Y00656238D01*
X00178218Y00665856D01*
X00178368Y00665807D01*
X00179327Y00665202D01*
X00179270Y00664687D01*
X00179493Y00663923D01*
X00179991Y00663302D01*
X00195312Y00650446D01*
X00195312Y00650446D01*
X00196572Y00649389D01*
X00196806Y00649260D01*
X00197021Y00649102D01*
X00200004Y00647712D01*
X00200263Y00647648D01*
X00200512Y00647551D01*
X00203753Y00646980D01*
X00204020Y00646986D01*
X00204285Y00646957D01*
X00207564Y00647244D01*
X00207820Y00647318D01*
X00208084Y00647359D01*
X00211176Y00648484D01*
X00211404Y00648623D01*
X00211649Y00648730D01*
X00214345Y00650618D01*
X00214529Y00650811D01*
X00214737Y00650978D01*
X00216853Y00653499D01*
X00216981Y00653733D01*
X00217139Y00653948D01*
X00218530Y00656931D01*
X00218593Y00657190D01*
X00218690Y00657439D01*
X00219261Y00660680D01*
X00219256Y00660947D01*
X00219285Y00661212D01*
X00218998Y00664491D01*
X00218923Y00664747D01*
X00218883Y00665010D01*
X00217757Y00668103D01*
X00217619Y00668331D01*
X00217511Y00668575D01*
X00217178Y00669050D01*
X00217970Y00670048D01*
X00231236D01*
X00231828Y00668778D01*
X00220756Y00655582D01*
X00234928Y00643690D01*
X00246819Y00657862D01*
X00233811Y00668778D01*
X00234273Y00670048D01*
X00252405D01*
X00274666Y00647787D01*
Y00606600D01*
X00274920Y00605324D01*
X00275643Y00604243D01*
X00299690Y00580195D01*
X00298743Y00577909D01*
X00298360Y00575000D01*
X00298743Y00572091D01*
X00299866Y00569380D01*
X00301546Y00567190D01*
X00301266Y00565920D01*
X00075586D01*
X00074310Y00565666D01*
X00073229Y00564944D01*
X00022643Y00514357D01*
X00021920Y00513276D01*
X00021666Y00512000D01*
Y00437000D01*
X00021920Y00435724D01*
X00022643Y00434642D01*
X00031631Y00425654D01*
X00030586Y00423844D01*
X00030500Y00423592D01*
X00030382Y00423353D01*
X00029530Y00420173D01*
X00029513Y00419907D01*
X00029461Y00419646D01*
Y00416354D01*
X00029513Y00416093D01*
X00029530Y00415826D01*
X00030382Y00412647D01*
X00030500Y00412408D01*
X00030586Y00412156D01*
X00032232Y00409305D01*
X00032407Y00409105D01*
X00032556Y00408883D01*
X00034883Y00406555D01*
X00035105Y00406407D01*
X00035305Y00406231D01*
X00038156Y00404586D01*
X00038408Y00404500D01*
X00038647Y00404382D01*
X00041827Y00403530D01*
X00042093Y00403513D01*
X00042354Y00403461D01*
X00064000D01*
X00064780Y00403616D01*
X00065442Y00404058D01*
X00065730Y00404489D01*
X00066854Y00404336D01*
X00067000Y00404278D01*
Y00402119D01*
X00066540Y00401040D01*
X00065730Y00401040D01*
X00050270D01*
Y00387000D01*
Y00372960D01*
X00066540D01*
Y00383921D01*
X00067000Y00385000D01*
X00067810Y00385000D01*
X00093000D01*
Y00404278D01*
X00093147Y00404336D01*
X00094270Y00404489D01*
X00094558Y00404058D01*
X00095220Y00403616D01*
X00096000Y00403461D01*
X00117646D01*
X00117907Y00403513D01*
X00118173Y00403530D01*
X00121353Y00404382D01*
X00121592Y00404500D01*
X00121844Y00404586D01*
X00124695Y00406231D01*
X00124895Y00406407D01*
X00125117Y00406555D01*
X00127444Y00408883D01*
X00127593Y00409105D01*
X00127768Y00409305D01*
X00129414Y00412155D01*
X00129500Y00412408D01*
X00129618Y00412647D01*
X00129686Y00412902D01*
X00158889D01*
X00191402Y00380388D01*
Y00365750D01*
X00187750D01*
Y00348250D01*
X00205250D01*
Y00365750D01*
X00201598D01*
Y00382500D01*
X00201210Y00384451D01*
X00200105Y00386105D01*
X00164605Y00421605D01*
X00162951Y00422710D01*
X00161000Y00423098D01*
X00129686D01*
X00129618Y00423353D01*
X00129500Y00423592D01*
X00129414Y00423844D01*
X00127768Y00426695D01*
X00127593Y00426895D01*
X00127444Y00427117D01*
X00125117Y00429444D01*
X00124895Y00429593D01*
X00124695Y00429768D01*
X00121844Y00431414D01*
X00121592Y00431500D01*
X00121353Y00431618D01*
X00118173Y00432470D01*
X00117907Y00432487D01*
X00117646Y00432539D01*
X00096000D01*
X00095220Y00432384D01*
X00094558Y00431942D01*
X00094270Y00431511D01*
X00093147Y00431664D01*
X00093000Y00431722D01*
Y00444278D01*
X00093147Y00444336D01*
X00094270Y00444489D01*
X00094558Y00444058D01*
X00095220Y00443616D01*
X00096000Y00443461D01*
X00117646D01*
X00117907Y00443513D01*
X00118173Y00443530D01*
X00121353Y00444382D01*
X00121592Y00444500D01*
X00121844Y00444586D01*
X00124695Y00446231D01*
X00124895Y00446407D01*
X00125117Y00446555D01*
X00127444Y00448883D01*
X00127593Y00449105D01*
X00127768Y00449305D01*
X00129414Y00452155D01*
X00129500Y00452408D01*
X00129618Y00452647D01*
X00130470Y00455826D01*
X00130487Y00456093D01*
X00130539Y00456354D01*
Y00459646D01*
X00130487Y00459907D01*
X00130470Y00460173D01*
X00129618Y00463353D01*
X00129500Y00463592D01*
X00129414Y00463844D01*
X00128369Y00465654D01*
X00186480Y00523765D01*
X00187750Y00523239D01*
Y00507250D01*
X00205250D01*
Y00524750D01*
X00189261D01*
X00188735Y00526020D01*
X00196381Y00533666D01*
X00301655D01*
X00302063Y00532463D01*
X00301652Y00532148D01*
X00299866Y00529820D01*
X00298919Y00527534D01*
X00292200D01*
X00290924Y00527280D01*
X00289842Y00526558D01*
X00211642Y00448358D01*
X00210920Y00447276D01*
X00210666Y00446000D01*
Y00320381D01*
X00169643Y00279357D01*
X00168920Y00278276D01*
X00168666Y00277000D01*
Y00255411D01*
X00154279Y00243340D01*
X00153781Y00242719D01*
X00153559Y00241955D01*
X00153615Y00241440D01*
X00152657Y00240835D01*
X00152507Y00240785D01*
X00140115Y00255553D01*
X00120627Y00239200D01*
X00119026Y00239132D01*
X00111915Y00247607D01*
X00099451Y00237149D01*
X00108476Y00226394D01*
X00117501Y00215639D01*
X00129535Y00225737D01*
X00129964Y00226097D01*
X00131135Y00225806D01*
X00132589Y00224073D01*
X00132514Y00223934D01*
X00131752Y00223095D01*
X00131254Y00223240D01*
X00130463Y00223153D01*
X00129766Y00222770D01*
X00114445Y00209915D01*
X00114445Y00209915D01*
X00113184Y00208857D01*
X00113017Y00208649D01*
X00112825Y00208464D01*
X00110937Y00205768D01*
X00110829Y00205524D01*
X00110691Y00205296D01*
X00109565Y00202203D01*
X00109525Y00201940D01*
X00109450Y00201684D01*
X00109163Y00198405D01*
X00109192Y00198140D01*
X00109187Y00197873D01*
X00109758Y00194632D01*
X00109855Y00194383D01*
X00109918Y00194124D01*
X00111309Y00191141D01*
X00111467Y00190926D01*
X00111595Y00190692D01*
X00113711Y00188171D01*
X00113919Y00188004D01*
X00114103Y00187811D01*
X00116799Y00185923D01*
X00117044Y00185816D01*
X00117271Y00185678D01*
X00120364Y00184552D01*
X00120628Y00184511D01*
X00120884Y00184436D01*
X00124163Y00184150D01*
X00124428Y00184179D01*
X00124695Y00184173D01*
X00127936Y00184744D01*
X00128185Y00184841D01*
X00128444Y00184904D01*
X00131427Y00186296D01*
X00131642Y00186453D01*
X00131876Y00186581D01*
X00133136Y00187639D01*
X00133136Y00187639D01*
X00148457Y00200495D01*
X00148955Y00201116D01*
X00149178Y00201880D01*
X00149121Y00202395D01*
X00150080Y00203000D01*
X00150230Y00203049D01*
X00158301Y00193431D01*
X00158226Y00193293D01*
X00157464Y00192453D01*
X00156966Y00192598D01*
X00156175Y00192511D01*
X00155477Y00192129D01*
X00140157Y00179273D01*
X00140156Y00179273D01*
X00138896Y00178215D01*
X00138729Y00178007D01*
X00138536Y00177823D01*
X00136648Y00175126D01*
X00136541Y00174882D01*
X00136403Y00174654D01*
X00135277Y00171562D01*
X00135236Y00171298D01*
X00135162Y00171042D01*
X00134875Y00167763D01*
X00134904Y00167498D01*
X00134898Y00167231D01*
X00135470Y00163990D01*
X00135566Y00163741D01*
X00135630Y00163482D01*
X00137021Y00160499D01*
X00137178Y00160284D01*
X00137307Y00160050D01*
X00139422Y00157529D01*
X00139630Y00157362D01*
X00139815Y00157169D01*
X00141922Y00155694D01*
Y00137277D01*
X00141922Y00136034D01*
X00141927Y00136009D01*
X00141927D01*
X00141959Y00135848D01*
X00142206Y00133970D01*
X00143012Y00132024D01*
X00143739Y00131077D01*
X00143770Y00131037D01*
X00143772Y00131034D01*
X00144294Y00130353D01*
X00144508Y00130088D01*
X00144508Y00130088D01*
X00159976Y00116628D01*
X00176317Y00103685D01*
X00193238Y00091510D01*
X00210703Y00080129D01*
X00228675Y00069568D01*
X00247115Y00059848D01*
X00265985Y00050989D01*
X00285244Y00043012D01*
X00304851Y00035933D01*
X00324764Y00029767D01*
X00344940Y00024527D01*
X00364616Y00020376D01*
X00364617Y00020376D01*
X00365377Y00020330D01*
X00365751Y00020330D01*
X00365751Y00020330D01*
X00365752Y00020330D01*
X00367409Y00020330D01*
X00367409Y00020330D01*
X00368969Y00020641D01*
X00370293Y00021525D01*
X00381905Y00033138D01*
X00382846Y00032348D01*
X00383080Y00032219D01*
X00383296Y00032062D01*
X00386278Y00030671D01*
X00386538Y00030607D01*
X00386786Y00030511D01*
X00390027Y00029939D01*
X00390294Y00029945D01*
X00390559Y00029916D01*
X00393838Y00030203D01*
X00394094Y00030277D01*
X00394358Y00030318D01*
X00397451Y00031444D01*
X00397679Y00031582D01*
X00397923Y00031689D01*
X00400619Y00033577D01*
X00400803Y00033770D01*
X00401011Y00033937D01*
X00403127Y00036458D01*
X00403255Y00036692D01*
X00403413Y00036907D01*
X00404804Y00039890D01*
X00404867Y00040149D01*
X00404964Y00040398D01*
X00405250Y00042018D01*
X00405250Y00042018D01*
X00408723Y00061715D01*
X00408705Y00062510D01*
X00408385Y00063238D01*
X00408010Y00063597D01*
X00408356Y00064677D01*
X00408439Y00064811D01*
X00410565Y00064436D01*
X00411407Y00062998D01*
X00408723Y00047773D01*
X00422549Y00045335D01*
X00436376Y00042897D01*
X00439201Y00058920D01*
X00428407Y00060823D01*
X00427424Y00061463D01*
X00427565Y00062261D01*
X00431939Y00087068D01*
X00412954Y00090416D01*
X00412922Y00090570D01*
X00412966Y00091703D01*
X00413441Y00091912D01*
X00413991Y00092487D01*
X00414280Y00093228D01*
X00417752Y00112925D01*
Y00112925D01*
X00418038Y00114545D01*
X00418032Y00114812D01*
X00418061Y00115077D01*
X00417775Y00118356D01*
X00417700Y00118612D01*
X00417659Y00118876D01*
X00416534Y00121968D01*
X00416395Y00122197D01*
X00416288Y00122441D01*
X00414400Y00125137D01*
X00414207Y00125321D01*
X00414040Y00125529D01*
X00411519Y00127645D01*
X00411285Y00127773D01*
X00411070Y00127931D01*
X00408087Y00129322D01*
X00407828Y00129385D01*
X00407580Y00129482D01*
X00404338Y00130053D01*
X00404072Y00130048D01*
X00403806Y00130077D01*
X00400528Y00129790D01*
X00400271Y00129715D01*
X00400008Y00129675D01*
X00396915Y00128549D01*
X00396687Y00128410D01*
X00396443Y00128303D01*
X00393747Y00126415D01*
X00393562Y00126223D01*
X00393354Y00126056D01*
X00391239Y00123534D01*
X00391110Y00123300D01*
X00390953Y00123085D01*
X00389562Y00120102D01*
X00389498Y00119843D01*
X00389402Y00119595D01*
X00389116Y00117974D01*
X00385643Y00098278D01*
X00385660Y00097482D01*
X00385981Y00096754D01*
X00386355Y00096396D01*
X00386009Y00095316D01*
X00385927Y00095182D01*
X00373562Y00097362D01*
X00373530Y00097517D01*
X00373574Y00098649D01*
X00374049Y00098858D01*
X00374599Y00099433D01*
X00374887Y00100174D01*
X00378360Y00119870D01*
X00378360Y00119871D01*
X00378646Y00121491D01*
X00378640Y00121758D01*
X00378669Y00122023D01*
X00378382Y00125302D01*
X00378308Y00125558D01*
X00378267Y00125822D01*
X00377141Y00128914D01*
X00377003Y00129142D01*
X00376896Y00129387D01*
X00375008Y00132083D01*
X00374815Y00132267D01*
X00374648Y00132475D01*
X00372127Y00134591D01*
X00371893Y00134719D01*
X00371678Y00134877D01*
X00368695Y00136268D01*
X00368436Y00136331D01*
X00368187Y00136428D01*
X00364946Y00136999D01*
X00364679Y00136994D01*
X00364414Y00137022D01*
X00361135Y00136736D01*
X00360879Y00136661D01*
X00360616Y00136620D01*
X00357523Y00135495D01*
X00357295Y00135356D01*
X00357051Y00135249D01*
X00354355Y00133361D01*
X00354170Y00133168D01*
X00353962Y00133001D01*
X00351846Y00130480D01*
X00351718Y00130246D01*
X00351560Y00130031D01*
X00350169Y00127048D01*
X00350106Y00126789D01*
X00350009Y00126541D01*
X00349724Y00124920D01*
X00346251Y00105224D01*
X00346268Y00104428D01*
X00346588Y00103700D01*
X00346963Y00103342D01*
X00346618Y00102262D01*
X00346535Y00102127D01*
X00327549Y00105475D01*
X00323132Y00080422D01*
X00321950Y00079340D01*
X00311054Y00081262D01*
X00308229Y00065239D01*
X00322056Y00062801D01*
X00335882Y00060363D01*
X00338610Y00075834D01*
X00338708Y00076385D01*
X00339792Y00076915D01*
X00342020Y00076522D01*
X00342051Y00076368D01*
X00342007Y00075235D01*
X00341532Y00075026D01*
X00340982Y00074451D01*
X00340694Y00073710D01*
X00337221Y00054014D01*
X00336935Y00052393D01*
X00336941Y00052126D01*
X00336912Y00051861D01*
X00337199Y00048583D01*
X00337273Y00048326D01*
X00337314Y00048063D01*
X00338440Y00044970D01*
X00338578Y00044742D01*
X00338685Y00044498D01*
X00340573Y00041802D01*
X00340766Y00041617D01*
X00340933Y00041409D01*
X00343454Y00039294D01*
X00343688Y00039165D01*
X00343903Y00039008D01*
X00346886Y00037617D01*
X00347145Y00037553D01*
X00347394Y00037457D01*
X00350635Y00036885D01*
X00350902Y00036891D01*
X00351167Y00036862D01*
X00354446Y00037149D01*
X00354702Y00037223D01*
X00354966Y00037264D01*
X00358058Y00038390D01*
X00358286Y00038528D01*
X00358531Y00038635D01*
X00361227Y00040523D01*
X00361411Y00040716D01*
X00361619Y00040883D01*
X00363735Y00043404D01*
X00363863Y00043638D01*
X00364021Y00043853D01*
X00365412Y00046836D01*
X00365475Y00047095D01*
X00365572Y00047344D01*
X00365858Y00048964D01*
X00369330Y00068660D01*
X00369313Y00069456D01*
X00368993Y00070184D01*
X00368618Y00070543D01*
X00368964Y00071623D01*
X00369047Y00071757D01*
X00381412Y00069577D01*
X00381443Y00069422D01*
X00381399Y00068289D01*
X00380925Y00068080D01*
X00380374Y00067506D01*
X00380086Y00066764D01*
X00376613Y00047068D01*
X00376327Y00045447D01*
X00376333Y00045181D01*
X00376304Y00044915D01*
X00376591Y00041637D01*
X00376666Y00041381D01*
X00376706Y00041117D01*
X00377145Y00039912D01*
X00365719Y00028487D01*
X00365539Y00028487D01*
X00346801Y00032440D01*
X00326989Y00037585D01*
X00307435Y00043641D01*
X00288181Y00050592D01*
X00269269Y00058426D01*
X00250739Y00067125D01*
X00232631Y00076670D01*
X00214982Y00087041D01*
X00197832Y00098216D01*
X00181215Y00110172D01*
X00165169Y00122882D01*
X00151043Y00135174D01*
X00150140Y00136057D01*
X00150127Y00136084D01*
X00150097Y00136156D01*
X00150092Y00136158D01*
X00150090Y00136159D01*
X00150078Y00137330D01*
Y00145964D01*
X00151348Y00146426D01*
X00159006Y00137300D01*
X00172442Y00148575D01*
X00173259Y00147602D01*
X00174232Y00148418D01*
X00183256Y00137663D01*
X00195720Y00148121D01*
X00188675Y00156517D01*
X00188333Y00157640D01*
X00188954Y00158160D01*
X00208250Y00174352D01*
X00195859Y00189120D01*
X00195934Y00189259D01*
X00196696Y00190098D01*
X00197194Y00189953D01*
X00197985Y00190040D01*
X00198682Y00190422D01*
X00214003Y00203278D01*
X00214003Y00203278D01*
X00215264Y00204336D01*
X00215431Y00204544D01*
X00215623Y00204729D01*
X00217511Y00207425D01*
X00217619Y00207669D01*
X00217757Y00207897D01*
X00218883Y00210990D01*
X00218923Y00211253D01*
X00218998Y00211509D01*
X00219285Y00214788D01*
X00219256Y00215053D01*
X00219261Y00215320D01*
X00218690Y00218561D01*
X00218593Y00218810D01*
X00218530Y00219069D01*
X00217139Y00222052D01*
X00216981Y00222267D01*
X00216853Y00222501D01*
X00214737Y00225022D01*
X00214529Y00225189D01*
X00214345Y00225382D01*
X00211649Y00227270D01*
X00211405Y00227377D01*
X00211176Y00227515D01*
X00208084Y00228641D01*
X00207820Y00228682D01*
X00207564Y00228756D01*
X00204285Y00229043D01*
X00204020Y00229014D01*
X00203753Y00229020D01*
X00200512Y00228448D01*
X00200263Y00228352D01*
X00200004Y00228288D01*
X00197021Y00226897D01*
X00196806Y00226740D01*
X00196572Y00226611D01*
X00195312Y00225554D01*
X00179991Y00212698D01*
X00179493Y00212077D01*
X00179270Y00211313D01*
X00179327Y00210798D01*
X00178368Y00210193D01*
X00178218Y00210144D01*
X00170147Y00219762D01*
X00170222Y00219901D01*
X00170984Y00220740D01*
X00171482Y00220595D01*
X00172273Y00220682D01*
X00172971Y00221064D01*
X00188291Y00233920D01*
X00188291Y00233920D01*
X00189552Y00234978D01*
X00189719Y00235186D01*
X00189912Y00235370D01*
X00191800Y00238066D01*
X00191907Y00238311D01*
X00192045Y00238539D01*
X00193171Y00241631D01*
X00193212Y00241895D01*
X00193286Y00242151D01*
X00193573Y00245430D01*
X00193544Y00245695D01*
X00193550Y00245962D01*
X00192978Y00249203D01*
X00192882Y00249452D01*
X00192818Y00249711D01*
X00191427Y00252694D01*
X00191270Y00252909D01*
X00191141Y00253143D01*
X00189026Y00255664D01*
X00188818Y00255831D01*
X00188633Y00256024D01*
X00185937Y00257911D01*
X00185693Y00258019D01*
X00185465Y00258157D01*
X00182372Y00259283D01*
X00182108Y00259324D01*
X00181852Y00259398D01*
X00178574Y00259685D01*
X00178309Y00259656D01*
X00178042Y00259662D01*
X00176307Y00259356D01*
X00175334Y00260172D01*
Y00272574D01*
X00176604Y00273036D01*
X00187652Y00259869D01*
X00201824Y00271761D01*
X00189932Y00285933D01*
X00177540Y00275534D01*
X00176162Y00276036D01*
X00176100Y00276385D01*
X00216357Y00316642D01*
X00217080Y00317724D01*
X00217334Y00319000D01*
Y00444619D01*
X00293581Y00520866D01*
X00298919D01*
X00299866Y00518580D01*
X00301652Y00516252D01*
X00303980Y00514466D01*
X00306691Y00513343D01*
X00309600Y00512960D01*
X00312509Y00513343D01*
X00315220Y00514466D01*
X00317410Y00516146D01*
X00318680Y00515866D01*
Y00512595D01*
X00314795Y00508710D01*
X00312509Y00509657D01*
X00309600Y00510040D01*
X00306691Y00509657D01*
X00303980Y00508534D01*
X00301652Y00506748D01*
X00299866Y00504420D01*
X00298743Y00501709D01*
X00298360Y00498800D01*
X00298743Y00495891D01*
X00299866Y00493180D01*
X00301652Y00490852D01*
X00303980Y00489066D01*
X00306691Y00487943D01*
X00309600Y00487560D01*
X00312509Y00487943D01*
X00315220Y00489066D01*
X00317410Y00490746D01*
X00318680Y00490466D01*
Y00487195D01*
X00314795Y00483310D01*
X00312509Y00484257D01*
X00309600Y00484640D01*
X00306691Y00484257D01*
X00303980Y00483134D01*
X00301652Y00481348D01*
X00299866Y00479020D01*
X00298753Y00476334D01*
X00298000D01*
X00296724Y00476080D01*
X00295643Y00475358D01*
X00249643Y00429357D01*
X00248920Y00428276D01*
X00248666Y00427000D01*
Y00258000D01*
X00248920Y00256724D01*
X00249643Y00255643D01*
X00339642Y00165643D01*
X00340724Y00164920D01*
X00342000Y00164666D01*
X00562706D01*
X00572310Y00155062D01*
X00571265Y00153252D01*
X00571180Y00153000D01*
X00571062Y00152760D01*
X00570210Y00149581D01*
X00570192Y00149315D01*
X00570140Y00149053D01*
Y00145762D01*
X00570192Y00145500D01*
X00570210Y00145234D01*
X00571062Y00142055D01*
X00571180Y00141816D01*
X00571265Y00141563D01*
X00572088Y00140138D01*
X00582088Y00122818D01*
X00582613Y00122219D01*
X00583326Y00121868D01*
X00583844Y00121834D01*
X00584273Y00120785D01*
X00584296Y00120628D01*
X00567601Y00110989D01*
X00580321Y00088958D01*
X00580111Y00087370D01*
X00570529Y00081838D01*
X00578664Y00067747D01*
X00590823Y00074767D01*
X00602982Y00081787D01*
X00595127Y00095393D01*
X00594847Y00095878D01*
X00595337Y00096980D01*
X00597296Y00098111D01*
X00597420Y00098013D01*
X00598114Y00097117D01*
X00597884Y00096652D01*
X00597832Y00095858D01*
X00598088Y00095105D01*
X00608911Y00076359D01*
X00609087Y00076159D01*
X00609235Y00075937D01*
X00611562Y00073609D01*
X00611784Y00073461D01*
X00611985Y00073285D01*
X00614835Y00071640D01*
X00615088Y00071554D01*
X00615327Y00071436D01*
X00618506Y00070584D01*
X00618772Y00070567D01*
X00619034Y00070515D01*
X00622325D01*
X00622587Y00070567D01*
X00622853Y00070584D01*
X00626032Y00071436D01*
X00626271Y00071554D01*
X00626524Y00071640D01*
X00629374Y00073285D01*
X00629575Y00073461D01*
X00629797Y00073609D01*
X00632124Y00075937D01*
X00632272Y00076159D01*
X00632448Y00076359D01*
X00634094Y00079209D01*
X00634179Y00079462D01*
X00634297Y00079701D01*
X00635149Y00082880D01*
X00635167Y00083147D01*
X00635219Y00083408D01*
Y00086700D01*
X00635167Y00086961D01*
X00635149Y00087227D01*
X00634297Y00090407D01*
X00634179Y00090646D01*
X00634094Y00090898D01*
X00633271Y00092323D01*
X00633271Y00092324D01*
X00623271Y00109644D01*
X00622746Y00110242D01*
X00622033Y00110594D01*
X00621515Y00110628D01*
X00621086Y00111678D01*
X00621063Y00111833D01*
X00631937Y00118111D01*
X00632061Y00118013D01*
X00632755Y00117117D01*
X00632525Y00116652D01*
X00632473Y00115858D01*
X00632729Y00115105D01*
X00632729Y00115105D01*
X00642729Y00097784D01*
X00643552Y00096359D01*
X00643728Y00096159D01*
X00643876Y00095937D01*
X00646203Y00093610D01*
X00646425Y00093461D01*
X00646626Y00093285D01*
X00649476Y00091640D01*
X00649729Y00091554D01*
X00649968Y00091436D01*
X00653147Y00090584D01*
X00653413Y00090567D01*
X00653675Y00090515D01*
X00656966D01*
X00657228Y00090567D01*
X00657494Y00090584D01*
X00660673Y00091436D01*
X00660912Y00091554D01*
X00661165Y00091640D01*
X00664015Y00093285D01*
X00664216Y00093461D01*
X00664438Y00093610D01*
X00665750Y00094922D01*
X00702340D01*
X00703594Y00094922D01*
X00703609Y00094924D01*
Y00094924D01*
X00703760Y00094955D01*
X00705668Y00095206D01*
X00706364Y00095494D01*
X00707013Y00094388D01*
X00703453Y00091569D01*
X00687198Y00079873D01*
X00670421Y00068941D01*
X00653156Y00058795D01*
X00635441Y00049457D01*
X00617313Y00040947D01*
X00598812Y00033284D01*
X00579977Y00026483D01*
X00560848Y00020559D01*
X00541465Y00015526D01*
X00521871Y00011392D01*
X00502107Y00008168D01*
X00482215Y00005860D01*
X00462238Y00004474D01*
X00442218Y00004011D01*
X00422198Y00004474D01*
X00402221Y00005860D01*
X00382329Y00008168D01*
X00362565Y00011392D01*
X00342971Y00015526D01*
X00323588Y00020559D01*
X00304459Y00026483D01*
X00285624Y00033284D01*
X00267123Y00040947D01*
X00248996Y00049457D01*
X00231281Y00058795D01*
X00214016Y00068941D01*
X00197238Y00079873D01*
X00180983Y00091569D01*
X00165285Y00104003D01*
X00150179Y00117148D01*
X00135695Y00130977D01*
X00121866Y00145461D01*
X00108721Y00160567D01*
X00096287Y00176265D01*
X00084591Y00192520D01*
X00073659Y00209298D01*
X00063513Y00226562D01*
X00054175Y00244277D01*
X00045665Y00262405D01*
X00038002Y00280906D01*
X00031201Y00299741D01*
X00025278Y00318870D01*
X00020244Y00338252D01*
X00016110Y00357847D01*
X00012886Y00377611D01*
X00010579Y00397503D01*
X00009192Y00417480D01*
X00008729Y00437500D01*
X00009192Y00457520D01*
X00010579Y00477497D01*
X00012886Y00497389D01*
X00016110Y00517153D01*
X00020244Y00536747D01*
X00025278Y00556130D01*
X00031201Y00575259D01*
X00038002Y00594094D01*
X00045665Y00612595D01*
X00054175Y00630723D01*
X00063513Y00648438D01*
X00073659Y00665702D01*
X00084591Y00682480D01*
X00096287Y00698735D01*
X00108721Y00714433D01*
X00121866Y00729539D01*
X00135695Y00744023D01*
X00150179Y00757852D01*
X00165285Y00770997D01*
X00180983Y00783431D01*
X00197238Y00795127D01*
X00214016Y00806059D01*
X00231281Y00816205D01*
X00248996Y00825543D01*
X00267123Y00834053D01*
X00285624Y00841716D01*
X00304459Y00848517D01*
X00323588Y00854441D01*
X00342971Y00859474D01*
X00362565Y00863608D01*
X00382329Y00866832D01*
X00402221Y00869139D01*
X00422198Y00870526D01*
X00442218Y00870989D01*
X00462238Y00870526D01*
D02*
G37*
G36*
X00376352Y00755775D02*
X00376638Y00754155D01*
X00376351Y00750876D01*
X00375225Y00747783D01*
X00373337Y00745087D01*
X00370816Y00742971D01*
X00367833Y00741580D01*
X00364592Y00741009D01*
X00361313Y00741296D01*
X00358220Y00742421D01*
X00355524Y00744309D01*
X00353409Y00746831D01*
X00352018Y00749813D01*
X00351732Y00751434D01*
Y00751434D01*
X00348259Y00771130D01*
X00372879Y00775471D01*
X00376352Y00755775D01*
D02*
G37*
G36*
X00678671Y00789892D02*
X00678743Y00789863D01*
X00678764Y00789874D01*
X00679752Y00789237D01*
X00682111Y00787700D01*
X00698028Y00776247D01*
X00713400Y00764072D01*
X00728193Y00751199D01*
X00742375Y00737657D01*
X00755917Y00723475D01*
X00768790Y00708682D01*
X00780965Y00693310D01*
X00792418Y00677393D01*
X00803124Y00660963D01*
X00813059Y00644057D01*
X00822203Y00626710D01*
X00824482Y00621853D01*
X00824979Y00620773D01*
X00824100Y00619868D01*
X00810209Y00605977D01*
X00809931Y00606106D01*
X00809672Y00606170D01*
X00809423Y00606266D01*
X00806182Y00606838D01*
X00805915Y00606832D01*
X00805650Y00606861D01*
X00802371Y00606574D01*
X00802115Y00606500D01*
X00801852Y00606459D01*
X00800305Y00605896D01*
X00800305Y00605896D01*
X00781512Y00599056D01*
X00781511Y00599056D01*
X00780831Y00598643D01*
X00780361Y00598001D01*
X00780237Y00597498D01*
X00779129Y00597257D01*
X00778972Y00597262D01*
X00778233Y00599290D01*
X00778297Y00600462D01*
X00779058Y00600739D01*
X00793585Y00606026D01*
X00788783Y00619220D01*
X00783981Y00632413D01*
X00768693Y00626848D01*
X00772441Y00616549D01*
X00771617Y00615100D01*
X00747946Y00606485D01*
X00754540Y00588369D01*
X00754422Y00588265D01*
X00753419Y00587737D01*
X00753000Y00588043D01*
X00752228Y00588232D01*
X00751441Y00588111D01*
X00732647Y00581271D01*
X00732647Y00581271D01*
X00731101Y00580708D01*
X00730873Y00580569D01*
X00730629Y00580462D01*
X00727933Y00578574D01*
X00727748Y00578382D01*
X00727540Y00578215D01*
X00725424Y00575693D01*
X00725296Y00575460D01*
X00725138Y00575244D01*
X00723747Y00572261D01*
X00723684Y00572002D01*
X00723587Y00571754D01*
X00723016Y00568512D01*
X00723022Y00568246D01*
X00722993Y00567981D01*
X00723280Y00564702D01*
X00723354Y00564446D01*
X00723395Y00564182D01*
X00724520Y00561089D01*
X00724659Y00560861D01*
X00724766Y00560617D01*
X00726654Y00557921D01*
X00726847Y00557737D01*
X00727014Y00557528D01*
X00729535Y00555413D01*
X00729769Y00555285D01*
X00729984Y00555127D01*
X00732967Y00553736D01*
X00733226Y00553672D01*
X00733475Y00553576D01*
X00736716Y00553004D01*
X00736983Y00553010D01*
X00737248Y00552981D01*
X00740527Y00553268D01*
X00740782Y00553343D01*
X00741046Y00553383D01*
X00742593Y00553946D01*
X00742593Y00553946D01*
X00761386Y00560786D01*
X00761387Y00560786D01*
X00762067Y00561199D01*
X00762537Y00561841D01*
X00762661Y00562345D01*
X00763768Y00562585D01*
X00763926Y00562580D01*
X00768221Y00550782D01*
X00768102Y00550676D01*
X00767099Y00550149D01*
X00766681Y00550455D01*
X00765908Y00550644D01*
X00765122Y00550523D01*
X00746328Y00543683D01*
X00746328Y00543683D01*
X00744782Y00543120D01*
X00744554Y00542982D01*
X00744309Y00542874D01*
X00741613Y00540987D01*
X00741429Y00540794D01*
X00741221Y00540627D01*
X00739105Y00538106D01*
X00738977Y00537872D01*
X00738819Y00537657D01*
X00737428Y00534674D01*
X00737365Y00534415D01*
X00737268Y00534166D01*
X00737125Y00533355D01*
X00702559D01*
X00701283Y00533101D01*
X00700201Y00532378D01*
X00682157Y00514334D01*
X00659548D01*
X00659117Y00515604D01*
X00659954Y00516246D01*
X00661517Y00518283D01*
X00662499Y00520655D01*
X00662834Y00523200D01*
X00662499Y00525745D01*
X00661843Y00527328D01*
X00698357Y00563843D01*
X00699080Y00564924D01*
X00699334Y00566200D01*
Y00650500D01*
X00699080Y00651776D01*
X00698357Y00652858D01*
X00656858Y00694358D01*
X00655776Y00695080D01*
X00654500Y00695334D01*
X00627888D01*
X00627560Y00696561D01*
X00628015Y00696824D01*
X00628216Y00697000D01*
X00628438Y00697148D01*
X00630765Y00699475D01*
X00630913Y00699697D01*
X00631089Y00699898D01*
X00641912Y00718643D01*
X00642168Y00719397D01*
X00642115Y00720191D01*
X00641886Y00720656D01*
X00642580Y00721551D01*
X00642704Y00721650D01*
X00659399Y00712011D01*
X00672119Y00734043D01*
X00672399Y00734528D01*
X00673599Y00734654D01*
X00683181Y00729122D01*
X00691316Y00743213D01*
X00679157Y00750232D01*
X00666998Y00757253D01*
X00659143Y00743647D01*
X00657663Y00743035D01*
X00655704Y00744166D01*
X00655727Y00744322D01*
X00656156Y00745372D01*
X00656674Y00745406D01*
X00657387Y00745758D01*
X00657912Y00746356D01*
X00667912Y00763677D01*
X00668735Y00765102D01*
X00668820Y00765354D01*
X00668938Y00765593D01*
X00669790Y00768773D01*
X00669808Y00769039D01*
X00669860Y00769300D01*
Y00772592D01*
X00669808Y00772853D01*
X00669790Y00773120D01*
X00668938Y00776299D01*
X00668820Y00776538D01*
X00668735Y00776790D01*
X00667089Y00779641D01*
X00666913Y00779841D01*
X00666765Y00780063D01*
X00664438Y00782391D01*
X00664216Y00782539D01*
X00664015Y00782714D01*
X00661165Y00784360D01*
X00660912Y00784446D01*
X00660673Y00784564D01*
X00657494Y00785416D01*
X00657228Y00785433D01*
X00656966Y00785485D01*
X00653675D01*
X00653413Y00785433D01*
X00653147Y00785416D01*
X00649968Y00784564D01*
X00649729Y00784446D01*
X00649476Y00784360D01*
X00646626Y00782714D01*
X00646425Y00782539D01*
X00646203Y00782391D01*
X00643876Y00780063D01*
X00643728Y00779841D01*
X00643552Y00779641D01*
X00642729Y00778216D01*
X00632729Y00760895D01*
X00632473Y00760142D01*
X00632525Y00759348D01*
X00632755Y00758883D01*
X00632060Y00757986D01*
X00631937Y00757889D01*
X00621063Y00764166D01*
X00621086Y00764322D01*
X00621515Y00765372D01*
X00622033Y00765406D01*
X00622746Y00765758D01*
X00623271Y00766356D01*
X00623271Y00766356D01*
X00633271Y00783676D01*
X00634094Y00785102D01*
X00634179Y00785354D01*
X00634297Y00785593D01*
X00635149Y00788773D01*
X00635167Y00789039D01*
X00635219Y00789300D01*
Y00789922D01*
X00678655D01*
X00678671Y00789892D01*
D02*
G37*
G36*
X00605505Y00739663D02*
X00595505Y00722342D01*
X00594682Y00720917D01*
X00592355Y00718590D01*
X00589504Y00716944D01*
X00586325Y00716092D01*
X00583034D01*
X00579855Y00716944D01*
X00577004Y00718590D01*
X00574677Y00720917D01*
X00573031Y00723767D01*
X00572179Y00726947D01*
Y00730238D01*
X00573031Y00733417D01*
X00573854Y00734842D01*
X00573854D01*
X00583854Y00752163D01*
X00605505Y00739663D01*
D02*
G37*
G36*
X00640146Y00719663D02*
X00630146Y00702342D01*
X00629323Y00700917D01*
X00626996Y00698590D01*
X00624145Y00696944D01*
X00620966Y00696092D01*
X00617675D01*
X00614496Y00696944D01*
X00611645Y00698590D01*
X00609318Y00700917D01*
X00607672Y00703767D01*
X00606820Y00706947D01*
Y00710238D01*
X00607672Y00713417D01*
X00608495Y00714842D01*
X00618495Y00732163D01*
X00640146Y00719663D01*
D02*
G37*
G36*
X00153293Y00719889D02*
X00156276Y00718498D01*
X00157537Y00717440D01*
X00172858Y00704585D01*
X00156788Y00685433D01*
X00141467Y00698289D01*
X00141467D01*
X00140207Y00699347D01*
X00138319Y00702043D01*
X00137193Y00705136D01*
X00136906Y00708415D01*
X00137478Y00711656D01*
X00138869Y00714639D01*
X00140984Y00717160D01*
X00143680Y00719048D01*
X00146773Y00720174D01*
X00150052Y00720461D01*
X00153293Y00719889D01*
D02*
G37*
G36*
X00127582Y00689247D02*
X00130565Y00687856D01*
X00131826Y00686798D01*
X00147146Y00673943D01*
X00131077Y00654792D01*
X00115756Y00667647D01*
X00115756D01*
X00114495Y00668705D01*
X00112607Y00671401D01*
X00111482Y00674494D01*
X00111195Y00677773D01*
X00111766Y00681014D01*
X00113157Y00683997D01*
X00115273Y00686518D01*
X00117969Y00688406D01*
X00121062Y00689532D01*
X00124341Y00689819D01*
X00127582Y00689247D01*
D02*
G37*
G36*
X00212692Y00671160D02*
X00213953Y00670102D01*
X00215841Y00667406D01*
X00216966Y00664313D01*
X00217253Y00661034D01*
X00216682Y00657793D01*
X00215291Y00654810D01*
X00213175Y00652289D01*
X00210479Y00650401D01*
X00207386Y00649275D01*
X00204107Y00648988D01*
X00200866Y00649560D01*
X00197883Y00650951D01*
X00196623Y00652008D01*
X00196623Y00652009D01*
X00181302Y00664864D01*
X00197371Y00684015D01*
X00212692Y00671160D01*
D02*
G37*
G36*
X00186981Y00640518D02*
X00188241Y00639460D01*
X00190129Y00636764D01*
X00191255Y00633671D01*
X00191542Y00630392D01*
X00190970Y00627151D01*
X00189579Y00624168D01*
X00187464Y00621647D01*
X00184767Y00619759D01*
X00181675Y00618633D01*
X00178396Y00618346D01*
X00175155Y00618918D01*
X00172172Y00620309D01*
X00170911Y00621367D01*
X00170911Y00621367D01*
X00155590Y00634222D01*
X00171660Y00653374D01*
X00186981Y00640518D01*
D02*
G37*
G36*
X00809069Y00604258D02*
X00812052Y00602867D01*
X00814573Y00600752D01*
X00816461Y00598055D01*
X00817587Y00594963D01*
X00817874Y00591684D01*
X00817302Y00588442D01*
X00815911Y00585460D01*
X00813796Y00582938D01*
X00811099Y00581050D01*
X00809553Y00580488D01*
X00790759Y00573647D01*
X00782209Y00597140D01*
X00801003Y00603980D01*
X00801003D01*
X00802549Y00604543D01*
X00805828Y00604830D01*
X00809069Y00604258D01*
D02*
G37*
G36*
X00838771Y00612595D02*
X00846434Y00594094D01*
X00853235Y00575259D01*
X00859159Y00556130D01*
X00864192Y00536747D01*
X00868326Y00517153D01*
X00871550Y00497389D01*
X00873857Y00477497D01*
X00875244Y00457520D01*
X00875707Y00437500D01*
X00875244Y00417480D01*
X00873857Y00397503D01*
X00871550Y00377611D01*
X00868326Y00357847D01*
X00864192Y00338252D01*
X00859159Y00318870D01*
X00853235Y00299741D01*
X00848675Y00287112D01*
X00848530Y00287137D01*
X00847405Y00287484D01*
X00847405Y00288742D01*
Y00289140D01*
X00847405Y00289140D01*
X00847095Y00290701D01*
X00846211Y00292024D01*
X00846210Y00292024D01*
X00845039Y00293196D01*
X00828813Y00309421D01*
X00828869Y00310690D01*
X00829565Y00311274D01*
X00829732Y00311482D01*
X00829925Y00311667D01*
X00831812Y00314363D01*
X00831920Y00314607D01*
X00832058Y00314835D01*
X00833184Y00317928D01*
X00833224Y00318191D01*
X00833299Y00318447D01*
X00833586Y00321726D01*
X00833557Y00321991D01*
X00833563Y00322258D01*
X00832991Y00325499D01*
X00832895Y00325748D01*
X00832831Y00326007D01*
X00831440Y00328990D01*
X00831283Y00329205D01*
X00831154Y00329439D01*
X00829038Y00331960D01*
X00828830Y00332127D01*
X00828646Y00332320D01*
X00825950Y00334208D01*
X00825706Y00334315D01*
X00825478Y00334453D01*
X00823931Y00335016D01*
X00805138Y00341857D01*
X00805137Y00341857D01*
X00804351Y00341978D01*
X00803578Y00341789D01*
X00803160Y00341482D01*
X00802157Y00342010D01*
X00802039Y00342115D01*
X00802777Y00344143D01*
X00804340Y00344723D01*
X00818867Y00339436D01*
X00823670Y00352629D01*
X00828471Y00365822D01*
X00813183Y00371387D01*
X00809434Y00361087D01*
X00808632Y00360230D01*
X00807871Y00360507D01*
X00784200Y00369123D01*
X00777607Y00351007D01*
X00777449Y00351003D01*
X00776341Y00351243D01*
X00776218Y00351747D01*
X00775748Y00352389D01*
X00775067Y00352801D01*
X00756274Y00359642D01*
X00756273Y00359642D01*
X00754727Y00360205D01*
X00754463Y00360245D01*
X00754207Y00360320D01*
X00750929Y00360607D01*
X00750663Y00360578D01*
X00750397Y00360583D01*
X00747155Y00360012D01*
X00746907Y00359915D01*
X00746648Y00359852D01*
X00743665Y00358461D01*
X00743450Y00358303D01*
X00743216Y00358175D01*
X00740695Y00356059D01*
X00740528Y00355851D01*
X00740335Y00355667D01*
X00738447Y00352971D01*
X00738340Y00352727D01*
X00738201Y00352499D01*
X00737076Y00349406D01*
X00737035Y00349142D01*
X00736960Y00348886D01*
X00736674Y00345607D01*
X00736702Y00345342D01*
X00736697Y00345075D01*
X00737268Y00341834D01*
X00737365Y00341585D01*
X00737428Y00341326D01*
X00738819Y00338343D01*
X00738977Y00338128D01*
X00739105Y00337894D01*
X00741221Y00335373D01*
X00741429Y00335206D01*
X00741613Y00335013D01*
X00744309Y00333126D01*
X00744554Y00333018D01*
X00744782Y00332880D01*
X00746328Y00332317D01*
X00765122Y00325477D01*
X00765122Y00325476D01*
X00765908Y00325355D01*
X00766681Y00325545D01*
X00767099Y00325851D01*
X00768102Y00325323D01*
X00768221Y00325218D01*
X00763926Y00313420D01*
X00763768Y00313415D01*
X00762661Y00313655D01*
X00762537Y00314159D01*
X00762067Y00314801D01*
X00761386Y00315214D01*
X00742593Y00322054D01*
X00742593Y00322054D01*
X00741046Y00322617D01*
X00740782Y00322657D01*
X00740527Y00322732D01*
X00737248Y00323019D01*
X00736983Y00322990D01*
X00736716Y00322996D01*
X00733475Y00322424D01*
X00733226Y00322327D01*
X00732967Y00322264D01*
X00729984Y00320873D01*
X00729769Y00320715D01*
X00729535Y00320587D01*
X00727014Y00318472D01*
X00726847Y00318263D01*
X00726654Y00318079D01*
X00724766Y00315383D01*
X00724659Y00315139D01*
X00724520Y00314911D01*
X00723395Y00311818D01*
X00723354Y00311554D01*
X00723280Y00311298D01*
X00722993Y00308019D01*
X00723022Y00307754D01*
X00723016Y00307488D01*
X00723587Y00304246D01*
X00723684Y00303998D01*
X00723747Y00303739D01*
X00725138Y00300756D01*
X00725296Y00300541D01*
X00725424Y00300307D01*
X00727540Y00297785D01*
X00727748Y00297618D01*
X00727933Y00297426D01*
X00730629Y00295538D01*
X00730873Y00295431D01*
X00731101Y00295292D01*
X00732647Y00294729D01*
X00751441Y00287889D01*
X00751441Y00287889D01*
X00752228Y00287768D01*
X00753000Y00287957D01*
X00753419Y00288264D01*
X00754421Y00287736D01*
X00754540Y00287631D01*
X00747946Y00269515D01*
X00771852Y00260814D01*
X00772712Y00259463D01*
X00768928Y00249066D01*
X00784216Y00243501D01*
X00789018Y00256695D01*
X00793820Y00269888D01*
X00779058Y00275261D01*
X00778531Y00275453D01*
X00778198Y00276612D01*
X00778972Y00278738D01*
X00779129Y00278743D01*
X00780237Y00278502D01*
X00780361Y00277999D01*
X00780831Y00277357D01*
X00781511Y00276944D01*
X00800305Y00270104D01*
X00800305Y00270104D01*
X00801852Y00269541D01*
X00802115Y00269500D01*
X00802371Y00269426D01*
X00805650Y00269139D01*
X00805915Y00269168D01*
X00806182Y00269162D01*
X00809423Y00269734D01*
X00809672Y00269830D01*
X00809931Y00269894D01*
X00812914Y00271285D01*
X00813129Y00271442D01*
X00813363Y00271571D01*
X00815884Y00273686D01*
X00816051Y00273894D01*
X00816244Y00274079D01*
X00818132Y00276775D01*
X00818239Y00277019D01*
X00818377Y00277247D01*
X00819503Y00280340D01*
X00819544Y00280604D01*
X00819618Y00280860D01*
X00819905Y00284138D01*
X00819876Y00284404D01*
X00819882Y00284670D01*
X00819310Y00287911D01*
X00819214Y00288160D01*
X00819150Y00288419D01*
X00817759Y00291402D01*
X00817602Y00291617D01*
X00817473Y00291851D01*
X00815358Y00294372D01*
X00815150Y00294539D01*
X00814965Y00294732D01*
X00812269Y00296620D01*
X00812025Y00296727D01*
X00811797Y00296866D01*
X00810251Y00297428D01*
X00791457Y00304269D01*
X00791457Y00304269D01*
X00790670Y00304390D01*
X00789898Y00304201D01*
X00789479Y00303894D01*
X00788476Y00304423D01*
X00788358Y00304527D01*
X00792653Y00316326D01*
X00792810Y00316330D01*
X00793918Y00316090D01*
X00794041Y00315586D01*
X00794512Y00314945D01*
X00795192Y00314532D01*
X00813986Y00307691D01*
X00813986Y00307691D01*
X00815532Y00307129D01*
X00815796Y00307088D01*
X00816052Y00307013D01*
X00819331Y00306727D01*
X00819596Y00306756D01*
X00819863Y00306750D01*
X00819937Y00306763D01*
X00839234Y00287465D01*
X00838040Y00284158D01*
X00830536Y00266041D01*
X00822203Y00248290D01*
X00813059Y00230943D01*
X00803124Y00214037D01*
X00792418Y00197607D01*
X00780965Y00181690D01*
X00768790Y00166318D01*
X00755917Y00151525D01*
X00742375Y00137343D01*
X00728193Y00123801D01*
X00713400Y00110928D01*
X00703547Y00103124D01*
X00703499Y00103104D01*
X00702290Y00103078D01*
X00679432D01*
X00679103Y00104305D01*
X00687337Y00109059D01*
X00678568Y00124249D01*
X00679667Y00124884D01*
X00679032Y00125984D01*
X00691191Y00133004D01*
X00683056Y00147094D01*
X00673564Y00141614D01*
X00672399Y00141473D01*
X00671994Y00142174D01*
X00659399Y00163989D01*
X00642704Y00154350D01*
X00642580Y00154448D01*
X00641886Y00155344D01*
X00642116Y00155809D01*
X00642168Y00156603D01*
X00641912Y00157357D01*
X00641912Y00157357D01*
X00631912Y00174677D01*
X00631089Y00176103D01*
X00630913Y00176303D01*
X00630765Y00176525D01*
X00628438Y00178852D01*
X00628216Y00179000D01*
X00628015Y00179176D01*
X00625165Y00180822D01*
X00624912Y00180908D01*
X00624673Y00181026D01*
X00621494Y00181877D01*
X00621228Y00181895D01*
X00620966Y00181947D01*
X00617675D01*
X00617413Y00181895D01*
X00617147Y00181877D01*
X00613968Y00181026D01*
X00613729Y00180908D01*
X00613476Y00180822D01*
X00610626Y00179176D01*
X00610425Y00179000D01*
X00610203Y00178852D01*
X00607876Y00176525D01*
X00607728Y00176303D01*
X00607552Y00176103D01*
X00605906Y00173252D01*
X00605821Y00173000D01*
X00605703Y00172760D01*
X00604851Y00169581D01*
X00604833Y00169315D01*
X00604781Y00169053D01*
Y00165762D01*
X00604833Y00165500D01*
X00604851Y00165234D01*
X00605703Y00162055D01*
X00605821Y00161816D01*
X00605906Y00161563D01*
X00606729Y00160138D01*
X00616729Y00142818D01*
X00617254Y00142219D01*
X00617967Y00141868D01*
X00618485Y00141834D01*
X00618914Y00140785D01*
X00618937Y00140628D01*
X00608063Y00134350D01*
X00607939Y00134448D01*
X00607245Y00135344D01*
X00607475Y00135809D01*
X00607527Y00136603D01*
X00607271Y00137357D01*
X00607271Y00137357D01*
X00597271Y00154677D01*
X00596448Y00156103D01*
X00596272Y00156303D01*
X00596124Y00156525D01*
X00593797Y00158852D01*
X00593575Y00159000D01*
X00593374Y00159176D01*
X00590524Y00160822D01*
X00590271Y00160908D01*
X00590032Y00161026D01*
X00586853Y00161877D01*
X00586587Y00161895D01*
X00586325Y00161947D01*
X00583034D01*
X00582772Y00161895D01*
X00582506Y00161877D01*
X00579327Y00161026D01*
X00579088Y00160908D01*
X00578835Y00160822D01*
X00577025Y00159777D01*
X00566445Y00170357D01*
X00565363Y00171080D01*
X00564087Y00171334D01*
X00343381D01*
X00255334Y00259381D01*
Y00425619D01*
X00298363Y00468648D01*
X00299609Y00468400D01*
X00299866Y00467780D01*
X00301652Y00465452D01*
X00303980Y00463666D01*
X00306691Y00462543D01*
X00309600Y00462160D01*
X00312509Y00462543D01*
X00315220Y00463666D01*
X00317548Y00465452D01*
X00319334Y00467780D01*
X00320457Y00470491D01*
X00320840Y00473400D01*
X00320457Y00476309D01*
X00319510Y00478595D01*
X00324371Y00483456D01*
X00325094Y00484538D01*
X00325348Y00485814D01*
Y00491508D01*
X00326618Y00491939D01*
X00327452Y00490852D01*
X00329780Y00489066D01*
X00332491Y00487943D01*
X00335280Y00487576D01*
X00335333Y00487311D01*
X00336056Y00486229D01*
X00336588Y00485697D01*
X00336027Y00484558D01*
X00335400Y00484640D01*
X00332491Y00484257D01*
X00329780Y00483134D01*
X00327452Y00481348D01*
X00325666Y00479020D01*
X00324543Y00476309D01*
X00324160Y00473400D01*
X00324543Y00470491D01*
X00325666Y00467780D01*
X00327452Y00465452D01*
X00329780Y00463666D01*
X00332491Y00462543D01*
X00335400Y00462160D01*
X00338309Y00462543D01*
X00341020Y00463666D01*
X00343348Y00465452D01*
X00345134Y00467780D01*
X00346257Y00470491D01*
X00346640Y00473400D01*
X00346345Y00475644D01*
X00346453Y00475917D01*
X00347224Y00476758D01*
X00347410Y00476844D01*
X00360441D01*
X00371792Y00465493D01*
X00371306Y00464320D01*
X00366986D01*
X00365710Y00464066D01*
X00364628Y00463344D01*
X00347254Y00445969D01*
X00346051Y00446562D01*
X00346240Y00448000D01*
X00345857Y00450909D01*
X00344734Y00453620D01*
X00342948Y00455948D01*
X00340620Y00457734D01*
X00337909Y00458857D01*
X00335000Y00459240D01*
X00332091Y00458857D01*
X00329380Y00457734D01*
X00327052Y00455948D01*
X00325266Y00453620D01*
X00324143Y00450909D01*
X00323760Y00448000D01*
X00324143Y00445091D01*
X00325266Y00442380D01*
X00327052Y00440052D01*
X00329380Y00438266D01*
X00332091Y00437143D01*
X00335000Y00436760D01*
X00336438Y00436949D01*
X00337031Y00435746D01*
X00327643Y00426357D01*
X00326920Y00425276D01*
X00326666Y00424000D01*
Y00392685D01*
X00325396Y00392300D01*
X00325358Y00392357D01*
X00294460Y00423255D01*
X00294608Y00424000D01*
X00294181Y00426146D01*
X00292965Y00427965D01*
X00291146Y00429181D01*
X00289000Y00429608D01*
X00286854Y00429181D01*
X00285035Y00427965D01*
X00284635Y00427367D01*
X00283365D01*
X00282965Y00427965D01*
X00281146Y00429181D01*
X00279000Y00429608D01*
X00276854Y00429181D01*
X00275035Y00427965D01*
X00273819Y00426146D01*
X00273392Y00424000D01*
X00273819Y00421854D01*
X00275035Y00420035D01*
X00276854Y00418819D01*
X00279000Y00418392D01*
X00279745Y00418540D01*
X00294266Y00404019D01*
Y00271172D01*
X00292683Y00270517D01*
X00290646Y00268954D01*
X00289083Y00266917D01*
X00288101Y00264545D01*
X00287766Y00262000D01*
X00288101Y00259455D01*
X00289083Y00257083D01*
X00290646Y00255046D01*
X00292683Y00253483D01*
X00295055Y00252501D01*
X00297600Y00252166D01*
X00300145Y00252501D01*
X00302517Y00253483D01*
X00304554Y00255046D01*
X00306117Y00257083D01*
X00307099Y00259455D01*
X00307434Y00262000D01*
X00307099Y00264545D01*
X00306117Y00266917D01*
X00304554Y00268954D01*
X00302517Y00270517D01*
X00300934Y00271172D01*
Y00405400D01*
X00300896Y00405593D01*
X00302066Y00406219D01*
X00319666Y00388619D01*
Y00271172D01*
X00318083Y00270517D01*
X00316046Y00268954D01*
X00314483Y00266917D01*
X00313501Y00264545D01*
X00313166Y00262000D01*
X00313501Y00259455D01*
X00314483Y00257083D01*
X00316046Y00255046D01*
X00318083Y00253483D01*
X00320455Y00252501D01*
X00323000Y00252166D01*
X00325545Y00252501D01*
X00327917Y00253483D01*
X00329954Y00255046D01*
X00331517Y00257083D01*
X00332499Y00259455D01*
X00332834Y00262000D01*
X00332499Y00264545D01*
X00331517Y00266917D01*
X00329954Y00268954D01*
X00327917Y00270517D01*
X00326334Y00271172D01*
Y00346315D01*
X00327604Y00346700D01*
X00327643Y00346642D01*
X00368666Y00305619D01*
Y00258000D01*
X00368920Y00256724D01*
X00369642Y00255642D01*
X00443643Y00181642D01*
X00444724Y00180920D01*
X00446000Y00180666D01*
X00556200D01*
X00557476Y00180920D01*
X00558558Y00181642D01*
X00576072Y00199157D01*
X00577655Y00198501D01*
X00580200Y00198166D01*
X00582745Y00198501D01*
X00585117Y00199483D01*
X00587154Y00201046D01*
X00588717Y00203083D01*
X00589699Y00205455D01*
X00590034Y00208000D01*
X00589699Y00210545D01*
X00588717Y00212917D01*
X00587154Y00214954D01*
X00585117Y00216517D01*
X00582745Y00217499D01*
X00580200Y00217834D01*
X00577655Y00217499D01*
X00575283Y00216517D01*
X00573246Y00214954D01*
X00571683Y00212917D01*
X00570701Y00210545D01*
X00570366Y00208000D01*
X00570701Y00205455D01*
X00571357Y00203872D01*
X00554819Y00187334D01*
X00540485D01*
X00540100Y00188604D01*
X00540158Y00188643D01*
X00550672Y00199157D01*
X00552255Y00198501D01*
X00554800Y00198166D01*
X00557345Y00198501D01*
X00559717Y00199483D01*
X00561754Y00201046D01*
X00563317Y00203083D01*
X00564299Y00205455D01*
X00564634Y00208000D01*
X00564299Y00210545D01*
X00563317Y00212917D01*
X00561754Y00214954D01*
X00559717Y00216517D01*
X00557345Y00217499D01*
X00554800Y00217834D01*
X00552255Y00217499D01*
X00549883Y00216517D01*
X00547846Y00214954D01*
X00546283Y00212917D01*
X00545301Y00210545D01*
X00544966Y00208000D01*
X00545301Y00205455D01*
X00545957Y00203872D01*
X00536419Y00194334D01*
X00452381D01*
X00448835Y00197880D01*
X00449554Y00198957D01*
X00450655Y00198501D01*
X00453200Y00198166D01*
X00455745Y00198501D01*
X00458117Y00199483D01*
X00460154Y00201046D01*
X00461717Y00203083D01*
X00462699Y00205455D01*
X00463034Y00208000D01*
X00462699Y00210545D01*
X00461717Y00212917D01*
X00460154Y00214954D01*
X00458117Y00216517D01*
X00455745Y00217499D01*
X00453200Y00217834D01*
X00450655Y00217499D01*
X00448283Y00216517D01*
X00446246Y00214954D01*
X00444683Y00212917D01*
X00443701Y00210545D01*
X00443366Y00208000D01*
X00443701Y00205455D01*
X00444157Y00204354D01*
X00443080Y00203635D01*
X00384334Y00262381D01*
Y00309000D01*
X00384080Y00310276D01*
X00383358Y00311357D01*
X00338334Y00356381D01*
Y00360291D01*
X00339507Y00360778D01*
X00386666Y00313619D01*
Y00268000D01*
X00386920Y00266724D01*
X00387643Y00265643D01*
X00410540Y00242745D01*
X00410392Y00242000D01*
X00410819Y00239854D01*
X00412035Y00238035D01*
X00413854Y00236819D01*
X00416000Y00236392D01*
X00418146Y00236819D01*
X00419965Y00238035D01*
X00421181Y00239854D01*
X00421608Y00242000D01*
X00421181Y00244146D01*
X00419965Y00245965D01*
X00418146Y00247181D01*
X00416000Y00247608D01*
X00415255Y00247460D01*
X00393334Y00269381D01*
Y00315000D01*
X00393080Y00316276D01*
X00392357Y00317358D01*
X00343334Y00366381D01*
Y00418619D01*
X00365381Y00440666D01*
X00454000D01*
X00455276Y00440920D01*
X00456357Y00441642D01*
X00486255Y00471540D01*
X00487000Y00471392D01*
X00489146Y00471819D01*
X00489316Y00471933D01*
X00490436Y00471334D01*
Y00446230D01*
X00490690Y00444954D01*
X00491413Y00443872D01*
X00501642Y00433643D01*
X00502724Y00432920D01*
X00504000Y00432666D01*
X00534204D01*
X00547666Y00419204D01*
Y00230981D01*
X00533528Y00216843D01*
X00531945Y00217499D01*
X00529400Y00217834D01*
X00526855Y00217499D01*
X00524483Y00216517D01*
X00522446Y00214954D01*
X00520883Y00212917D01*
X00519901Y00210545D01*
X00519566Y00208000D01*
X00519901Y00205455D01*
X00520883Y00203083D01*
X00522446Y00201046D01*
X00524483Y00199483D01*
X00526855Y00198501D01*
X00529400Y00198166D01*
X00531945Y00198501D01*
X00534317Y00199483D01*
X00536354Y00201046D01*
X00537917Y00203083D01*
X00538899Y00205455D01*
X00539234Y00208000D01*
X00538899Y00210545D01*
X00538243Y00212128D01*
X00553358Y00227243D01*
X00554080Y00228324D01*
X00554334Y00229600D01*
Y00417297D01*
X00555507Y00417783D01*
X00557666Y00415624D01*
Y00309000D01*
X00557920Y00307724D01*
X00558643Y00306642D01*
X00566731Y00298554D01*
X00566232Y00297349D01*
X00565922Y00295000D01*
X00566232Y00292651D01*
X00567139Y00290461D01*
X00568581Y00288581D01*
X00570461Y00287139D01*
X00572651Y00286232D01*
X00575000Y00285922D01*
X00577350Y00286232D01*
X00579539Y00287139D01*
X00581419Y00288581D01*
X00582862Y00290461D01*
X00583768Y00292651D01*
X00584078Y00295000D01*
X00583768Y00297349D01*
X00582862Y00299539D01*
X00581419Y00301419D01*
X00579539Y00302861D01*
X00577350Y00303768D01*
X00575000Y00304078D01*
X00572651Y00303768D01*
X00571446Y00303269D01*
X00564334Y00310381D01*
Y00324006D01*
X00565000Y00325000D01*
X00565604Y00325000D01*
X00583000D01*
Y00343000D01*
X00565604D01*
X00565000Y00343000D01*
X00564334Y00343994D01*
Y00413717D01*
X00565507Y00414203D01*
X00673666Y00306045D01*
Y00281387D01*
X00673035Y00280965D01*
X00671819Y00279146D01*
X00671392Y00277000D01*
X00671819Y00274854D01*
X00673035Y00273035D01*
X00674854Y00271819D01*
X00677000Y00271392D01*
X00679146Y00271819D01*
X00680965Y00273035D01*
X00682181Y00274854D01*
X00682608Y00277000D01*
X00682181Y00279146D01*
X00680965Y00280965D01*
X00680334Y00281387D01*
Y00307426D01*
X00680080Y00308702D01*
X00679358Y00309783D01*
X00662577Y00326564D01*
X00662946Y00327779D01*
X00663146Y00327819D01*
X00664965Y00329035D01*
X00666181Y00330854D01*
X00666608Y00333000D01*
X00666181Y00335146D01*
X00664965Y00336965D01*
X00663146Y00338181D01*
X00661000Y00338608D01*
X00660255Y00338460D01*
X00563042Y00435673D01*
X00563604Y00436812D01*
X00564000Y00436760D01*
X00566909Y00437143D01*
X00568451Y00437781D01*
X00624432Y00381800D01*
X00624819Y00379854D01*
X00626035Y00378035D01*
X00627854Y00376819D01*
X00630000Y00376392D01*
X00632146Y00376819D01*
X00633965Y00378035D01*
X00635181Y00379854D01*
X00635608Y00382000D01*
X00635181Y00384146D01*
X00634855Y00384634D01*
X00635841Y00385444D01*
X00688666Y00332619D01*
Y00264381D01*
X00676745Y00252460D01*
X00676000Y00252608D01*
X00673854Y00252181D01*
X00672035Y00250965D01*
X00670819Y00249146D01*
X00670392Y00247000D01*
X00670819Y00244854D01*
X00672035Y00243035D01*
X00673854Y00241819D01*
X00676000Y00241392D01*
X00678146Y00241819D01*
X00679965Y00243035D01*
X00681181Y00244854D01*
X00681608Y00247000D01*
X00681460Y00247745D01*
X00694358Y00260643D01*
X00695080Y00261724D01*
X00695334Y00263000D01*
Y00334000D01*
X00695080Y00335276D01*
X00694358Y00336357D01*
X00612148Y00418567D01*
Y00526186D01*
X00611894Y00527462D01*
X00611171Y00528544D01*
X00600172Y00539543D01*
X00599090Y00540266D01*
X00597929Y00540497D01*
X00597617Y00541049D01*
X00597454Y00541790D01*
X00598576Y00543253D01*
X00600032D01*
X00634642Y00508643D01*
X00635724Y00507920D01*
X00637000Y00507666D01*
X00648022D01*
X00648274Y00506396D01*
X00648083Y00506317D01*
X00646046Y00504754D01*
X00644483Y00502717D01*
X00643501Y00500345D01*
X00643166Y00497800D01*
X00643501Y00495255D01*
X00644483Y00492883D01*
X00646046Y00490846D01*
X00648083Y00489283D01*
X00650455Y00488301D01*
X00653000Y00487966D01*
X00655545Y00488301D01*
X00657917Y00489283D01*
X00659954Y00490846D01*
X00661517Y00492883D01*
X00662499Y00495255D01*
X00662834Y00497800D01*
X00662499Y00500345D01*
X00661517Y00502717D01*
X00659954Y00504754D01*
X00657917Y00506317D01*
X00657726Y00506396D01*
X00657978Y00507666D01*
X00683538D01*
X00684814Y00507920D01*
X00685895Y00508643D01*
X00703940Y00526687D01*
X00737061D01*
X00737076Y00526594D01*
X00738201Y00523502D01*
X00738340Y00523274D01*
X00738447Y00523029D01*
X00740335Y00520333D01*
X00740528Y00520149D01*
X00740695Y00519941D01*
X00743216Y00517825D01*
X00743450Y00517697D01*
X00743665Y00517539D01*
X00746648Y00516148D01*
X00746907Y00516085D01*
X00747155Y00515988D01*
X00750397Y00515417D01*
X00750663Y00515422D01*
X00750929Y00515393D01*
X00754207Y00515680D01*
X00754463Y00515755D01*
X00754727Y00515795D01*
X00756273Y00516358D01*
X00756274Y00516358D01*
X00775067Y00523199D01*
X00775067Y00523199D01*
X00775748Y00523611D01*
X00776218Y00524253D01*
X00776341Y00524757D01*
X00777449Y00524997D01*
X00777607Y00524993D01*
X00784200Y00506877D01*
X00808106Y00515578D01*
X00808632Y00515770D01*
X00809633Y00515096D01*
X00813418Y00504699D01*
X00828706Y00510263D01*
X00823904Y00523457D01*
X00819102Y00536650D01*
X00804340Y00531277D01*
X00802813Y00531759D01*
X00802039Y00533885D01*
X00802157Y00533989D01*
X00803160Y00534518D01*
X00803578Y00534211D01*
X00804351Y00534022D01*
X00805137Y00534143D01*
X00823931Y00540984D01*
X00825478Y00541547D01*
X00825706Y00541685D01*
X00825950Y00541792D01*
X00828646Y00543680D01*
X00828830Y00543873D01*
X00829038Y00544040D01*
X00831154Y00546561D01*
X00831282Y00546795D01*
X00831440Y00547010D01*
X00832831Y00549993D01*
X00832895Y00550252D01*
X00832991Y00550501D01*
X00833563Y00553742D01*
X00833557Y00554009D01*
X00833586Y00554274D01*
X00833299Y00557553D01*
X00833224Y00557809D01*
X00833184Y00558072D01*
X00832058Y00561165D01*
X00831920Y00561393D01*
X00831812Y00561637D01*
X00829925Y00564333D01*
X00829732Y00564518D01*
X00829565Y00564726D01*
X00827044Y00566842D01*
X00826810Y00566970D01*
X00826595Y00567128D01*
X00823612Y00568518D01*
X00823353Y00568582D01*
X00823104Y00568679D01*
X00819863Y00569250D01*
X00819596Y00569244D01*
X00819331Y00569273D01*
X00816052Y00568987D01*
X00815796Y00568912D01*
X00815532Y00568871D01*
X00813986Y00568308D01*
X00813986Y00568308D01*
X00795192Y00561468D01*
X00795192Y00561468D01*
X00794512Y00561055D01*
X00794041Y00560414D01*
X00793918Y00559910D01*
X00792810Y00559670D01*
X00792653Y00559674D01*
X00788358Y00571473D01*
X00788476Y00571577D01*
X00789479Y00572106D01*
X00789898Y00571799D01*
X00790670Y00571610D01*
X00791457Y00571731D01*
X00810251Y00578571D01*
X00811797Y00579134D01*
X00812025Y00579273D01*
X00812269Y00579380D01*
X00814965Y00581268D01*
X00815150Y00581461D01*
X00815358Y00581628D01*
X00817473Y00584149D01*
X00817602Y00584383D01*
X00817759Y00584598D01*
X00819150Y00587581D01*
X00819214Y00587840D01*
X00819310Y00588088D01*
X00819882Y00591330D01*
X00819876Y00591596D01*
X00819905Y00591862D01*
X00819618Y00595140D01*
X00819544Y00595396D01*
X00819503Y00595660D01*
X00818377Y00598753D01*
X00818239Y00598981D01*
X00818132Y00599225D01*
X00816839Y00601071D01*
X00832000Y00616232D01*
X00832000Y00616233D01*
X00832884Y00617556D01*
X00833195Y00619116D01*
Y00620773D01*
X00833195Y00620773D01*
Y00620773D01*
X00833311Y00621238D01*
X00834652Y00621369D01*
X00838771Y00612595D01*
D02*
G37*
G36*
X00760689Y00562703D02*
X00741895Y00555862D01*
X00740349Y00555299D01*
X00737070Y00555013D01*
X00733829Y00555584D01*
X00730846Y00556975D01*
X00728325Y00559091D01*
X00726437Y00561787D01*
X00725311Y00564879D01*
X00725024Y00568158D01*
X00725596Y00571400D01*
X00726987Y00574383D01*
X00729102Y00576904D01*
X00731798Y00578792D01*
X00733345Y00579355D01*
X00733345D01*
X00752139Y00586195D01*
X00760689Y00562703D01*
D02*
G37*
G36*
X00822750Y00566670D02*
X00825733Y00565280D01*
X00828254Y00563164D01*
X00830142Y00560468D01*
X00831268Y00557375D01*
X00831554Y00554096D01*
X00830983Y00550855D01*
X00829592Y00547872D01*
X00827476Y00545351D01*
X00824780Y00543463D01*
X00823234Y00542900D01*
X00804440Y00536060D01*
X00795890Y00559552D01*
X00814683Y00566392D01*
X00814683D01*
X00816230Y00566955D01*
X00819509Y00567242D01*
X00822750Y00566670D01*
D02*
G37*
G36*
X00546516Y00546716D02*
X00547839Y00545832D01*
X00549400Y00545522D01*
X00549400Y00545522D01*
X00553627D01*
X00554266Y00543980D01*
X00556052Y00541652D01*
X00558380Y00539866D01*
X00561091Y00538743D01*
X00564000Y00538360D01*
X00566909Y00538743D01*
X00569195Y00539690D01*
X00574057Y00534828D01*
X00575138Y00534106D01*
X00576414Y00533852D01*
X00581697D01*
X00582105Y00532649D01*
X00581452Y00532148D01*
X00579666Y00529820D01*
X00578543Y00527109D01*
X00578160Y00524200D01*
X00578543Y00521291D01*
X00579490Y00519005D01*
X00575605Y00515120D01*
X00572334D01*
X00572054Y00516390D01*
X00573734Y00518580D01*
X00574857Y00521291D01*
X00575240Y00524200D01*
X00574857Y00527109D01*
X00573734Y00529820D01*
X00571948Y00532148D01*
X00569620Y00533934D01*
X00566909Y00535057D01*
X00564000Y00535440D01*
X00561091Y00535057D01*
X00558380Y00533934D01*
X00556052Y00532148D01*
X00554266Y00529820D01*
X00553143Y00527109D01*
X00552760Y00524200D01*
X00553143Y00521291D01*
X00554266Y00518580D01*
X00555946Y00516390D01*
X00555666Y00515120D01*
X00544368D01*
X00543425Y00515750D01*
X00542149Y00516004D01*
X00500096D01*
X00498820Y00515750D01*
X00497738Y00515028D01*
X00491413Y00508702D01*
X00490690Y00507620D01*
X00490436Y00506344D01*
Y00482666D01*
X00489316Y00482067D01*
X00489146Y00482181D01*
X00487000Y00482608D01*
X00484854Y00482181D01*
X00483035Y00480965D01*
X00481819Y00479146D01*
X00481392Y00477000D01*
X00481540Y00476255D01*
X00452619Y00447334D01*
X00386708D01*
X00386222Y00448507D01*
X00395358Y00457642D01*
X00396080Y00458724D01*
X00396334Y00460000D01*
Y00493613D01*
X00396965Y00494035D01*
X00398181Y00495854D01*
X00398608Y00498000D01*
X00398181Y00500146D01*
X00396965Y00501965D01*
X00396809Y00502070D01*
X00397194Y00503340D01*
X00404674D01*
X00405950Y00503594D01*
X00407032Y00504316D01*
X00431877Y00529162D01*
X00433036Y00528525D01*
X00433461Y00526393D01*
X00434795Y00524395D01*
X00436793Y00523060D01*
X00437880Y00522844D01*
Y00528750D01*
X00439150D01*
Y00530020D01*
X00445056D01*
X00444840Y00531107D01*
X00443505Y00533105D01*
X00441507Y00534440D01*
X00439375Y00534864D01*
X00438738Y00536023D01*
X00449381Y00546666D01*
X00451613D01*
X00452035Y00546035D01*
X00453854Y00544819D01*
X00456000Y00544392D01*
X00458146Y00544819D01*
X00459965Y00546035D01*
X00461181Y00547854D01*
X00461608Y00550000D01*
X00461181Y00552146D01*
X00459965Y00553965D01*
X00458146Y00555181D01*
X00456000Y00555608D01*
X00453854Y00555181D01*
X00452035Y00553965D01*
X00451613Y00553334D01*
X00448000D01*
X00446724Y00553080D01*
X00445643Y00552357D01*
X00441841Y00548556D01*
X00440855Y00549366D01*
X00441181Y00549854D01*
X00441608Y00552000D01*
X00441181Y00554146D01*
X00439965Y00555965D01*
X00438146Y00557181D01*
X00436000Y00557608D01*
X00433854Y00557181D01*
X00432035Y00555965D01*
X00430819Y00554146D01*
X00430392Y00552000D01*
X00430540Y00551255D01*
X00393833Y00514548D01*
X00343103D01*
X00342695Y00515751D01*
X00343348Y00516252D01*
X00345134Y00518580D01*
X00346257Y00521291D01*
X00346640Y00524200D01*
X00346257Y00527109D01*
X00346114Y00527454D01*
X00346799Y00528288D01*
X00347077Y00528449D01*
X00349111Y00528854D01*
X00350930Y00530070D01*
X00351352Y00530701D01*
X00403035D01*
X00404311Y00530955D01*
X00405392Y00531677D01*
X00433381Y00559666D01*
X00474619D01*
X00509540Y00524745D01*
X00509392Y00524000D01*
X00509819Y00521854D01*
X00511035Y00520035D01*
X00512854Y00518819D01*
X00515000Y00518392D01*
X00517146Y00518819D01*
X00518965Y00520035D01*
X00520181Y00521854D01*
X00520608Y00524000D01*
X00520181Y00526146D01*
X00518965Y00527965D01*
X00517146Y00529181D01*
X00515000Y00529608D01*
X00514255Y00529460D01*
X00478358Y00565358D01*
X00477276Y00566080D01*
X00476000Y00566334D01*
X00432000D01*
X00430724Y00566080D01*
X00429642Y00565358D01*
X00413121Y00548836D01*
X00411831Y00549342D01*
X00411806Y00550038D01*
X00432689Y00570922D01*
X00522311D01*
X00546516Y00546716D01*
D02*
G37*
G36*
X00774370Y00525115D02*
X00755576Y00518274D01*
X00754030Y00517712D01*
X00750751Y00517425D01*
X00747510Y00517996D01*
X00744527Y00519387D01*
X00742005Y00521503D01*
X00740117Y00524199D01*
X00738992Y00527292D01*
X00738705Y00530571D01*
X00739277Y00533812D01*
X00740667Y00536795D01*
X00742783Y00539316D01*
X00745479Y00541204D01*
X00747026Y00541767D01*
X00747026D01*
X00765819Y00548607D01*
X00774370Y00525115D01*
D02*
G37*
G36*
X00605480Y00524805D02*
Y00417186D01*
X00605734Y00415910D01*
X00606456Y00414828D01*
X00633444Y00387841D01*
X00632634Y00386855D01*
X00632146Y00387181D01*
X00630200Y00387568D01*
X00582625Y00435143D01*
X00583111Y00436316D01*
X00588130D01*
Y00446730D01*
X00577716D01*
Y00441711D01*
X00576543Y00441225D01*
X00574219Y00443549D01*
X00574857Y00445091D01*
X00575240Y00448000D01*
X00574857Y00450909D01*
X00573734Y00453620D01*
X00571948Y00455948D01*
X00569620Y00457734D01*
X00566909Y00458857D01*
X00564000Y00459240D01*
X00561091Y00458857D01*
X00558380Y00457734D01*
X00556052Y00455948D01*
X00554266Y00453620D01*
X00553143Y00450909D01*
X00552760Y00448000D01*
X00552812Y00447604D01*
X00551673Y00447042D01*
X00534357Y00464357D01*
X00533276Y00465080D01*
X00532000Y00465334D01*
X00512387D01*
X00511965Y00465965D01*
X00510146Y00467181D01*
X00508000Y00467608D01*
X00505854Y00467181D01*
X00504604Y00466346D01*
X00503334Y00467024D01*
Y00498252D01*
X00504505Y00499035D01*
X00505721Y00500854D01*
X00506148Y00503000D01*
X00505721Y00505146D01*
X00504505Y00506965D01*
X00502858Y00508066D01*
X00502877Y00508757D01*
X00503069Y00509336D01*
X00540814D01*
X00541757Y00508706D01*
X00543033Y00508452D01*
X00556297D01*
X00556705Y00507249D01*
X00556052Y00506748D01*
X00554266Y00504420D01*
X00553143Y00501709D01*
X00552760Y00498800D01*
X00553143Y00495891D01*
X00554266Y00493180D01*
X00556052Y00490852D01*
X00558380Y00489066D01*
X00561091Y00487943D01*
X00564000Y00487560D01*
X00566909Y00487943D01*
X00569620Y00489066D01*
X00571948Y00490852D01*
X00573734Y00493180D01*
X00574857Y00495891D01*
X00575240Y00498800D01*
X00574857Y00501709D01*
X00573734Y00504420D01*
X00571948Y00506748D01*
X00571295Y00507249D01*
X00571703Y00508452D01*
X00576986D01*
X00578262Y00508706D01*
X00579343Y00509428D01*
X00584205Y00514290D01*
X00586491Y00513343D01*
X00589400Y00512960D01*
X00592309Y00513343D01*
X00595020Y00514466D01*
X00597348Y00516252D01*
X00599134Y00518580D01*
X00600257Y00521291D01*
X00600640Y00524200D01*
X00600257Y00527109D01*
X00599463Y00529025D01*
X00600540Y00529745D01*
X00605480Y00524805D01*
D02*
G37*
G36*
X00302305Y00558049D02*
X00301652Y00557548D01*
X00299866Y00555220D01*
X00298743Y00552509D01*
X00298360Y00549600D01*
X00298743Y00546691D01*
X00299866Y00543980D01*
X00301652Y00541652D01*
X00301802Y00541537D01*
X00301394Y00540334D01*
X00195000D01*
X00193724Y00540080D01*
X00192643Y00539357D01*
X00123654Y00470369D01*
X00121844Y00471414D01*
X00121592Y00471500D01*
X00121353Y00471618D01*
X00118173Y00472470D01*
X00117907Y00472487D01*
X00117646Y00472539D01*
X00096000D01*
X00095220Y00472384D01*
X00094558Y00471942D01*
X00094270Y00471511D01*
X00093147Y00471664D01*
X00093000Y00471722D01*
Y00491000D01*
X00067560D01*
X00067000Y00491000D01*
X00066290Y00491976D01*
Y00503040D01*
X00050020D01*
Y00489000D01*
Y00474960D01*
X00065730D01*
X00066290Y00474960D01*
X00067000Y00473984D01*
Y00471722D01*
X00066854Y00471664D01*
X00065730Y00471511D01*
X00065442Y00471942D01*
X00064780Y00472384D01*
X00064000Y00472539D01*
X00042354D01*
X00042093Y00472487D01*
X00041827Y00472470D01*
X00038647Y00471618D01*
X00038408Y00471500D01*
X00038156Y00471414D01*
X00035305Y00469768D01*
X00035105Y00469593D01*
X00034883Y00469444D01*
X00032556Y00467117D01*
X00032407Y00466895D01*
X00032232Y00466695D01*
X00030586Y00463844D01*
X00030500Y00463592D01*
X00030382Y00463353D01*
X00029604Y00460449D01*
X00028334Y00460616D01*
Y00510619D01*
X00076967Y00559252D01*
X00301897D01*
X00302305Y00558049D01*
D02*
G37*
G36*
X00120825Y00469648D02*
X00123675Y00468002D01*
X00126003Y00465675D01*
X00127648Y00462825D01*
X00128500Y00459646D01*
Y00456354D01*
X00127648Y00453175D01*
X00126003Y00450325D01*
X00123675Y00447998D01*
X00120825Y00446352D01*
X00117646Y00445500D01*
X00096000D01*
Y00470500D01*
X00117646D01*
X00120825Y00469648D01*
D02*
G37*
G36*
X00064000Y00445500D02*
X00042354D01*
X00039175Y00446352D01*
X00036325Y00447998D01*
X00033997Y00450325D01*
X00032352Y00453175D01*
X00031500Y00456354D01*
Y00459646D01*
X00032352Y00462825D01*
X00033997Y00465675D01*
X00036325Y00468002D01*
X00039175Y00469648D01*
X00042354Y00470500D01*
X00064000D01*
Y00445500D01*
D02*
G37*
G36*
X00120825Y00429648D02*
X00123675Y00428002D01*
X00126003Y00425675D01*
X00127648Y00422825D01*
X00128500Y00419646D01*
Y00416354D01*
X00127648Y00413175D01*
X00126003Y00410325D01*
X00123675Y00407998D01*
X00120825Y00406352D01*
X00117646Y00405500D01*
X00096000D01*
Y00430500D01*
X00117646D01*
X00120825Y00429648D01*
D02*
G37*
G36*
X00064000Y00405500D02*
X00042354D01*
X00039175Y00406352D01*
X00036325Y00407998D01*
X00033997Y00410325D01*
X00032352Y00413175D01*
X00031500Y00416354D01*
Y00419646D01*
X00032352Y00422825D01*
X00033997Y00425675D01*
X00036325Y00428002D01*
X00039175Y00429648D01*
X00042354Y00430500D01*
X00064000D01*
Y00405500D01*
D02*
G37*
G36*
X00754030Y00358288D02*
X00755576Y00357725D01*
X00774370Y00350885D01*
X00765819Y00327393D01*
X00747026Y00334233D01*
X00745479Y00334796D01*
X00742783Y00336684D01*
X00740667Y00339205D01*
X00739277Y00342188D01*
X00738705Y00345429D01*
X00738992Y00348708D01*
X00740117Y00351801D01*
X00742005Y00354497D01*
X00744527Y00356613D01*
X00747510Y00358004D01*
X00750751Y00358575D01*
X00754030Y00358288D01*
D02*
G37*
G36*
X00823234Y00333100D02*
X00824780Y00332537D01*
X00827476Y00330649D01*
X00829592Y00328128D01*
X00830983Y00325145D01*
X00831554Y00321904D01*
X00831268Y00318625D01*
X00830142Y00315532D01*
X00828254Y00312836D01*
X00825733Y00310721D01*
X00822750Y00309330D01*
X00819509Y00308758D01*
X00816230Y00309045D01*
X00814683Y00309608D01*
X00795890Y00316448D01*
X00804440Y00339940D01*
X00823234Y00333100D01*
D02*
G37*
G36*
X00740349Y00320701D02*
X00741895Y00320138D01*
X00760689Y00313297D01*
X00752139Y00289805D01*
X00733345Y00296646D01*
X00731798Y00297208D01*
X00729102Y00299096D01*
X00726987Y00301617D01*
X00725596Y00304600D01*
X00725024Y00307842D01*
X00725311Y00311120D01*
X00726437Y00314213D01*
X00728325Y00316909D01*
X00730846Y00319025D01*
X00733829Y00320416D01*
X00737070Y00320988D01*
X00740349Y00320701D01*
D02*
G37*
G36*
X00809553Y00295512D02*
X00811099Y00294949D01*
X00813796Y00293062D01*
X00815911Y00290540D01*
X00817302Y00287557D01*
X00817874Y00284316D01*
X00817587Y00281037D01*
X00816461Y00277945D01*
X00814573Y00275248D01*
X00812052Y00273133D01*
X00809069Y00271742D01*
X00805828Y00271170D01*
X00802549Y00271457D01*
X00801003Y00272020D01*
X00782209Y00278860D01*
X00790759Y00302353D01*
X00809553Y00295512D01*
D02*
G37*
G36*
X00181675Y00257367D02*
X00184767Y00256241D01*
X00187464Y00254353D01*
X00189579Y00251832D01*
X00190970Y00248849D01*
X00191542Y00245608D01*
X00191255Y00242329D01*
X00190129Y00239236D01*
X00188241Y00236540D01*
X00186981Y00235482D01*
X00171660Y00222626D01*
X00155590Y00241777D01*
X00170911Y00254633D01*
X00172172Y00255691D01*
X00175155Y00257082D01*
X00178396Y00257654D01*
X00181675Y00257367D01*
D02*
G37*
G36*
X00207386Y00226725D02*
X00210479Y00225599D01*
X00213175Y00223711D01*
X00215291Y00221190D01*
X00216682Y00218207D01*
X00217253Y00214966D01*
X00216966Y00211687D01*
X00215841Y00208594D01*
X00213953Y00205898D01*
X00212692Y00204840D01*
X00197371Y00191985D01*
X00181302Y00211136D01*
X00196623Y00223992D01*
X00197883Y00225049D01*
X00200866Y00226440D01*
X00204107Y00227012D01*
X00207386Y00226725D01*
D02*
G37*
G36*
X00147146Y00202057D02*
X00131826Y00189201D01*
Y00189201D01*
X00130565Y00188144D01*
X00127582Y00186753D01*
X00124341Y00186181D01*
X00121062Y00186468D01*
X00117969Y00187594D01*
X00115273Y00189482D01*
X00113157Y00192003D01*
X00111766Y00194986D01*
X00111195Y00198227D01*
X00111482Y00201506D01*
X00112607Y00204599D01*
X00114495Y00207295D01*
X00115756Y00208353D01*
X00131077Y00221208D01*
X00147146Y00202057D01*
D02*
G37*
G36*
X00172858Y00171415D02*
X00157537Y00158560D01*
Y00158560D01*
X00156276Y00157502D01*
X00153293Y00156111D01*
X00150052Y00155539D01*
X00146773Y00155826D01*
X00143680Y00156952D01*
X00140984Y00158840D01*
X00138869Y00161361D01*
X00137478Y00164344D01*
X00136906Y00167585D01*
X00137193Y00170864D01*
X00138319Y00173957D01*
X00140207Y00176653D01*
X00141467Y00177711D01*
X00156788Y00190567D01*
X00172858Y00171415D01*
D02*
G37*
G36*
X00624145Y00179056D02*
X00626996Y00177410D01*
X00629323Y00175083D01*
X00630146Y00173658D01*
X00640146Y00156337D01*
X00618495Y00143837D01*
X00608495Y00161158D01*
X00607672Y00162583D01*
X00606820Y00165762D01*
Y00169053D01*
X00607672Y00172233D01*
X00609318Y00175083D01*
X00611645Y00177410D01*
X00614496Y00179056D01*
X00617675Y00179908D01*
X00620966D01*
X00624145Y00179056D01*
D02*
G37*
G36*
X00589504Y00159056D02*
X00592355Y00157410D01*
X00594682Y00155083D01*
X00595505Y00153658D01*
X00595505D01*
X00605505Y00136337D01*
X00583854Y00123837D01*
X00573854Y00141158D01*
X00573031Y00142583D01*
X00572179Y00145762D01*
Y00149053D01*
X00573031Y00152233D01*
X00574677Y00155083D01*
X00577004Y00157410D01*
X00579855Y00159056D01*
X00583034Y00159908D01*
X00586325D01*
X00589504Y00159056D01*
D02*
G37*
G36*
X00367833Y00134419D02*
X00370816Y00133029D01*
X00373337Y00130913D01*
X00375225Y00128217D01*
X00376351Y00125124D01*
X00376638Y00121845D01*
X00376352Y00120225D01*
X00376352Y00120225D01*
X00372879Y00100528D01*
X00348259Y00104870D01*
X00351732Y00124566D01*
X00352018Y00126187D01*
X00353409Y00129169D01*
X00355524Y00131691D01*
X00358220Y00133579D01*
X00361313Y00134704D01*
X00364592Y00134991D01*
X00367833Y00134419D01*
D02*
G37*
G36*
X00407225Y00127474D02*
X00410208Y00126083D01*
X00412730Y00123967D01*
X00414618Y00121271D01*
X00415743Y00118178D01*
X00416030Y00114899D01*
X00415744Y00113279D01*
X00415744D01*
X00412271Y00093582D01*
X00387651Y00097924D01*
X00391124Y00117620D01*
X00391410Y00119241D01*
X00392801Y00122224D01*
X00394916Y00124745D01*
X00397612Y00126633D01*
X00400705Y00127758D01*
X00403984Y00128045D01*
X00407225Y00127474D01*
D02*
G37*
G36*
X00666146Y00111304D02*
X00666969Y00109879D01*
X00667821Y00106700D01*
Y00103408D01*
X00666969Y00100229D01*
X00665323Y00097379D01*
X00662996Y00095051D01*
X00660145Y00093406D01*
X00656966Y00092554D01*
X00653675D01*
X00650496Y00093406D01*
X00647645Y00095051D01*
X00645318Y00097379D01*
X00644495Y00098804D01*
X00634495Y00116124D01*
X00656146Y00128624D01*
X00666146Y00111304D01*
D02*
G37*
G36*
X00631505Y00091304D02*
X00631505D01*
X00632328Y00089879D01*
X00633180Y00086700D01*
Y00083408D01*
X00632328Y00080229D01*
X00630682Y00077379D01*
X00628355Y00075051D01*
X00625504Y00073406D01*
X00622325Y00072554D01*
X00619034D01*
X00615855Y00073406D01*
X00613004Y00075051D01*
X00610677Y00077379D01*
X00609854Y00078804D01*
X00599854Y00096124D01*
X00621505Y00108624D01*
X00631505Y00091304D01*
D02*
G37*
G36*
X00367322Y00069015D02*
X00363849Y00049318D01*
X00363563Y00047698D01*
X00362173Y00044715D01*
X00360057Y00042194D01*
X00357361Y00040306D01*
X00354268Y00039180D01*
X00350989Y00038893D01*
X00347748Y00039465D01*
X00344765Y00040856D01*
X00342244Y00042971D01*
X00340356Y00045667D01*
X00339230Y00048760D01*
X00338943Y00052039D01*
X00339229Y00053660D01*
X00342702Y00073356D01*
X00367322Y00069015D01*
D02*
G37*
G36*
X00406715Y00062069D02*
X00403242Y00042373D01*
X00403242Y00042372D01*
X00402956Y00040752D01*
X00401565Y00037769D01*
X00399449Y00035248D01*
X00396753Y00033360D01*
X00393660Y00032234D01*
X00390382Y00031947D01*
X00387140Y00032519D01*
X00384157Y00033910D01*
X00381636Y00036025D01*
X00379748Y00038721D01*
X00378623Y00041814D01*
X00378336Y00045093D01*
X00378621Y00046714D01*
X00382094Y00066410D01*
X00406715Y00062069D01*
D02*
G37*
%LPC*%
G36*
X00433066Y00851874D02*
X00420490Y00849656D01*
X00423316Y00833633D01*
X00435891Y00835851D01*
X00433066Y00851874D01*
D02*
G37*
G36*
X00417989Y00849215D02*
X00405413Y00846998D01*
X00408238Y00830975D01*
X00420814Y00833192D01*
X00417989Y00849215D01*
D02*
G37*
G36*
X00317582Y00831257D02*
X00305006Y00829039D01*
X00307831Y00813016D01*
X00320407Y00815234D01*
X00317582Y00831257D01*
D02*
G37*
G36*
X00587944Y00824326D02*
X00579809Y00810236D01*
X00590868Y00803851D01*
X00599003Y00817941D01*
X00587944Y00824326D01*
D02*
G37*
G36*
X00601203Y00816671D02*
X00593068Y00802581D01*
X00604127Y00796196D01*
X00612262Y00810286D01*
X00601203Y00816671D01*
D02*
G37*
G36*
X00168656Y00750589D02*
X00160447Y00740806D01*
X00172911Y00730348D01*
X00181119Y00740130D01*
X00168656Y00750589D01*
D02*
G37*
G36*
X00158814Y00738860D02*
X00150606Y00729078D01*
X00163070Y00718620D01*
X00171278Y00728402D01*
X00158814Y00738860D01*
D02*
G37*
G36*
X00231313Y00714216D02*
X00228110Y00713615D01*
X00225087Y00712401D01*
X00222358Y00710621D01*
X00220942Y00709235D01*
X00232605Y00699448D01*
X00242391Y00711112D01*
X00240755Y00712231D01*
X00237759Y00713510D01*
X00234571Y00714181D01*
X00231313Y00714216D01*
D02*
G37*
G36*
X00466770Y00697953D02*
Y00690020D01*
X00474703D01*
X00474551Y00691175D01*
X00473615Y00693435D01*
X00472126Y00695376D01*
X00470185Y00696865D01*
X00467925Y00697801D01*
X00466770Y00697953D01*
D02*
G37*
G36*
X00464230Y00697953D02*
X00463075Y00697801D01*
X00460815Y00696865D01*
X00458874Y00695376D01*
X00457385Y00693435D01*
X00456449Y00691175D01*
X00456297Y00690020D01*
X00464230D01*
Y00697953D01*
D02*
G37*
G36*
X00244337Y00709479D02*
X00234550Y00697816D01*
X00246213Y00688029D01*
X00247332Y00689665D01*
X00248612Y00692662D01*
X00249282Y00695850D01*
X00249318Y00699108D01*
X00248717Y00702310D01*
X00247503Y00705333D01*
X00245723Y00708062D01*
X00244337Y00709479D01*
D02*
G37*
G36*
X00219309Y00707289D02*
X00218190Y00705653D01*
X00216910Y00702657D01*
X00216240Y00699469D01*
X00216204Y00696211D01*
X00216805Y00693008D01*
X00218019Y00689985D01*
X00219799Y00687256D01*
X00221185Y00685840D01*
X00230972Y00697503D01*
X00219309Y00707289D01*
D02*
G37*
G36*
X00232918Y00695870D02*
X00223131Y00684207D01*
X00224767Y00683088D01*
X00227763Y00681808D01*
X00230952Y00681138D01*
X00234210Y00681102D01*
X00237412Y00681703D01*
X00240435Y00682917D01*
X00243164Y00684698D01*
X00244581Y00686084D01*
X00232918Y00695870D01*
D02*
G37*
G36*
X00439250Y00697500D02*
X00421750D01*
Y00693848D01*
X00398350D01*
X00396399Y00693460D01*
X00394745Y00692355D01*
X00338831Y00636441D01*
X00338309Y00636657D01*
X00335400Y00637040D01*
X00332491Y00636657D01*
X00329780Y00635534D01*
X00327452Y00633748D01*
X00325666Y00631420D01*
X00324543Y00628709D01*
X00324160Y00625800D01*
X00324543Y00622891D01*
X00325666Y00620180D01*
X00327452Y00617852D01*
X00329780Y00616066D01*
X00332491Y00614943D01*
X00335400Y00614560D01*
X00338309Y00614943D01*
X00341020Y00616066D01*
X00343348Y00617852D01*
X00345134Y00620180D01*
X00346257Y00622891D01*
X00346640Y00625800D01*
X00346257Y00628709D01*
X00346041Y00629231D01*
X00400462Y00683652D01*
X00421750D01*
Y00680000D01*
X00439250D01*
Y00697500D01*
D02*
G37*
G36*
X00464230Y00687480D02*
X00456297D01*
X00456449Y00686325D01*
X00457385Y00684065D01*
X00458874Y00682124D01*
X00460815Y00680635D01*
X00463075Y00679699D01*
X00464230Y00679547D01*
Y00687480D01*
D02*
G37*
G36*
X00474703D02*
X00466770D01*
Y00679547D01*
X00467925Y00679699D01*
X00470185Y00680635D01*
X00472126Y00682124D01*
X00473615Y00684065D01*
X00474551Y00686325D01*
X00474703Y00687480D01*
D02*
G37*
G36*
X00335400Y00687840D02*
X00332491Y00687457D01*
X00329780Y00686334D01*
X00327452Y00684548D01*
X00325666Y00682220D01*
X00324543Y00679509D01*
X00324160Y00676600D01*
X00324543Y00673691D01*
X00325666Y00670980D01*
X00327452Y00668652D01*
X00329780Y00666866D01*
X00332491Y00665743D01*
X00335400Y00665360D01*
X00338309Y00665743D01*
X00341020Y00666866D01*
X00343348Y00668652D01*
X00345134Y00670980D01*
X00346257Y00673691D01*
X00346640Y00676600D01*
X00346257Y00679509D01*
X00345134Y00682220D01*
X00343348Y00684548D01*
X00341020Y00686334D01*
X00338309Y00687457D01*
X00335400Y00687840D01*
D02*
G37*
G36*
X00309600D02*
X00306691Y00687457D01*
X00303980Y00686334D01*
X00301652Y00684548D01*
X00299866Y00682220D01*
X00298743Y00679509D01*
X00298360Y00676600D01*
X00298743Y00673691D01*
X00299866Y00670980D01*
X00301652Y00668652D01*
X00303980Y00666866D01*
X00306691Y00665743D01*
X00309600Y00665360D01*
X00312509Y00665743D01*
X00315220Y00666866D01*
X00317548Y00668652D01*
X00319334Y00670980D01*
X00320457Y00673691D01*
X00320840Y00676600D01*
X00320457Y00679509D01*
X00319334Y00682220D01*
X00317548Y00684548D01*
X00315220Y00686334D01*
X00312509Y00687457D01*
X00309600Y00687840D01*
D02*
G37*
G36*
X00103283Y00672291D02*
X00095074Y00662509D01*
X00107538Y00652051D01*
X00115746Y00661833D01*
X00103283Y00672291D01*
D02*
G37*
G36*
X00093442Y00660563D02*
X00085233Y00650781D01*
X00097697Y00640323D01*
X00105905Y00650105D01*
X00093442Y00660563D01*
D02*
G37*
G36*
X00309600Y00662440D02*
X00306691Y00662057D01*
X00303980Y00660934D01*
X00301652Y00659148D01*
X00299866Y00656820D01*
X00298743Y00654109D01*
X00298360Y00651200D01*
X00298743Y00648291D01*
X00299866Y00645580D01*
X00301652Y00643252D01*
X00303980Y00641466D01*
X00306691Y00640343D01*
X00309600Y00639960D01*
X00312509Y00640343D01*
X00315220Y00641466D01*
X00317548Y00643252D01*
X00319334Y00645580D01*
X00320457Y00648291D01*
X00320840Y00651200D01*
X00320457Y00654109D01*
X00319334Y00656820D01*
X00317548Y00659148D01*
X00315220Y00660934D01*
X00312509Y00662057D01*
X00309600Y00662440D01*
D02*
G37*
G36*
X00216905Y00646865D02*
X00214527Y00646338D01*
X00212366Y00645214D01*
X00210571Y00643568D01*
X00209262Y00641514D01*
X00208530Y00639191D01*
X00208423Y00636758D01*
X00208951Y00634380D01*
X00210075Y00632220D01*
X00211721Y00630424D01*
X00213775Y00629115D01*
X00216098Y00628383D01*
X00218531Y00628277D01*
X00220909Y00628804D01*
X00223069Y00629929D01*
X00224865Y00631574D01*
X00226173Y00633628D01*
X00226906Y00635951D01*
X00227012Y00638384D01*
X00226485Y00640762D01*
X00225360Y00642923D01*
X00223715Y00644718D01*
X00221661Y00646027D01*
X00219338Y00646759D01*
X00216905Y00646865D01*
D02*
G37*
G36*
X00309600Y00637040D02*
X00306691Y00636657D01*
X00303980Y00635534D01*
X00301652Y00633748D01*
X00299866Y00631420D01*
X00298743Y00628709D01*
X00298360Y00625800D01*
X00298743Y00622891D01*
X00299866Y00620180D01*
X00301652Y00617852D01*
X00303980Y00616066D01*
X00306691Y00614943D01*
X00309600Y00614560D01*
X00312509Y00614943D01*
X00315220Y00616066D01*
X00317548Y00617852D01*
X00319334Y00620180D01*
X00320457Y00622891D01*
X00320840Y00625800D01*
X00320457Y00628709D01*
X00319334Y00631420D01*
X00317548Y00633748D01*
X00315220Y00635534D01*
X00312509Y00636657D01*
X00309600Y00637040D01*
D02*
G37*
G36*
X00204049Y00631544D02*
X00201671Y00631017D01*
X00199511Y00629893D01*
X00197715Y00628247D01*
X00196406Y00626193D01*
X00195674Y00623870D01*
X00195568Y00621437D01*
X00196095Y00619059D01*
X00197219Y00616899D01*
X00198865Y00615103D01*
X00200919Y00613795D01*
X00203242Y00613062D01*
X00205675Y00612956D01*
X00208053Y00613483D01*
X00210213Y00614608D01*
X00212009Y00616253D01*
X00213318Y00618307D01*
X00214050Y00620630D01*
X00214156Y00623063D01*
X00213629Y00625441D01*
X00212505Y00627602D01*
X00210859Y00629397D01*
X00208805Y00630706D01*
X00206482Y00631438D01*
X00204049Y00631544D01*
D02*
G37*
G36*
X00187932Y00612936D02*
X00185415Y00612378D01*
X00183128Y00611188D01*
X00182172Y00610312D01*
X00188636Y00604888D01*
X00194059Y00611352D01*
X00192965Y00612048D01*
X00190507Y00612824D01*
X00187932Y00612936D01*
D02*
G37*
G36*
X00347084Y00612084D02*
X00336670D01*
Y00601670D01*
X00347084D01*
Y00612084D01*
D02*
G37*
G36*
X00334130D02*
X00323716D01*
Y00601670D01*
X00334130D01*
Y00612084D01*
D02*
G37*
G36*
X00146850Y00613558D02*
X00143648Y00612957D01*
X00140625Y00611743D01*
X00137896Y00609963D01*
X00136479Y00608577D01*
X00148142Y00598790D01*
X00157929Y00610453D01*
X00156293Y00611572D01*
X00153297Y00612852D01*
X00150108Y00613522D01*
X00146850Y00613558D01*
D02*
G37*
G36*
X00196005Y00609719D02*
X00190581Y00603256D01*
X00197045Y00597832D01*
X00197742Y00598926D01*
X00198517Y00601384D01*
X00198629Y00603960D01*
X00198071Y00606476D01*
X00196881Y00608763D01*
X00196005Y00609719D01*
D02*
G37*
G36*
X00180540Y00608366D02*
X00179843Y00607272D01*
X00179068Y00604814D01*
X00178955Y00602239D01*
X00179513Y00599722D01*
X00180704Y00597435D01*
X00181580Y00596479D01*
X00187003Y00602943D01*
X00180540Y00608366D01*
D02*
G37*
G36*
X00188949Y00601310D02*
X00183525Y00594847D01*
X00184619Y00594150D01*
X00187078Y00593375D01*
X00189653Y00593262D01*
X00192169Y00593820D01*
X00194456Y00595010D01*
X00195412Y00595886D01*
X00188949Y00601310D01*
D02*
G37*
G36*
X00309600Y00611640D02*
X00306691Y00611257D01*
X00303980Y00610134D01*
X00301652Y00608348D01*
X00299866Y00606020D01*
X00298743Y00603309D01*
X00298360Y00600400D01*
X00298743Y00597491D01*
X00299866Y00594780D01*
X00301652Y00592452D01*
X00303980Y00590666D01*
X00306691Y00589543D01*
X00309600Y00589160D01*
X00312509Y00589543D01*
X00315220Y00590666D01*
X00317548Y00592452D01*
X00319334Y00594780D01*
X00320457Y00597491D01*
X00320840Y00600400D01*
X00320457Y00603309D01*
X00319334Y00606020D01*
X00317548Y00608348D01*
X00315220Y00610134D01*
X00312509Y00611257D01*
X00309600Y00611640D01*
D02*
G37*
G36*
X00347084Y00599130D02*
X00336670D01*
Y00588716D01*
X00347084D01*
Y00599130D01*
D02*
G37*
G36*
X00334130D02*
X00323716D01*
Y00588716D01*
X00334130D01*
Y00599130D01*
D02*
G37*
G36*
X00159874Y00608821D02*
X00150088Y00597158D01*
X00161751Y00587371D01*
X00162870Y00589007D01*
X00164150Y00592003D01*
X00164820Y00595192D01*
X00164856Y00598450D01*
X00164255Y00601652D01*
X00163041Y00604675D01*
X00161261Y00607404D01*
X00159874Y00608821D01*
D02*
G37*
G36*
X00134847Y00606631D02*
X00133728Y00604995D01*
X00132448Y00601999D01*
X00131778Y00598811D01*
X00131742Y00595553D01*
X00132343Y00592350D01*
X00133557Y00589327D01*
X00135337Y00586598D01*
X00136723Y00585182D01*
X00146510Y00596845D01*
X00134847Y00606631D01*
D02*
G37*
G36*
X00070000Y00612625D02*
X00066215Y00612127D01*
X00062688Y00610666D01*
X00059658Y00608341D01*
X00057334Y00605313D01*
X00055873Y00601785D01*
X00055375Y00598000D01*
X00055873Y00594215D01*
X00057334Y00590687D01*
X00059658Y00587659D01*
X00062688Y00585334D01*
X00066215Y00583873D01*
X00070000Y00583375D01*
X00073785Y00583873D01*
X00077313Y00585334D01*
X00080342Y00587659D01*
X00082666Y00590687D01*
X00084127Y00594215D01*
X00084625Y00598000D01*
X00084127Y00601785D01*
X00082666Y00605313D01*
X00080342Y00608341D01*
X00077313Y00610666D01*
X00073785Y00612127D01*
X00070000Y00612625D01*
D02*
G37*
G36*
X00148455Y00595212D02*
X00138669Y00583549D01*
X00140305Y00582430D01*
X00143301Y00581150D01*
X00146489Y00580480D01*
X00149747Y00580444D01*
X00152950Y00581045D01*
X00155973Y00582259D01*
X00158702Y00584039D01*
X00160118Y00585425D01*
X00148455Y00595212D01*
D02*
G37*
G36*
X00232770Y00525203D02*
Y00517270D01*
X00240703D01*
X00240551Y00518425D01*
X00239615Y00520685D01*
X00238126Y00522626D01*
X00236185Y00524115D01*
X00233925Y00525051D01*
X00232770Y00525203D01*
D02*
G37*
G36*
X00230230D02*
X00229075Y00525051D01*
X00226815Y00524115D01*
X00224874Y00522626D01*
X00223385Y00520685D01*
X00222449Y00518425D01*
X00222297Y00517270D01*
X00230230D01*
Y00525203D01*
D02*
G37*
G36*
X00240703Y00514730D02*
X00232770D01*
Y00506797D01*
X00233925Y00506949D01*
X00236185Y00507885D01*
X00238126Y00509374D01*
X00239615Y00511315D01*
X00240551Y00513575D01*
X00240703Y00514730D01*
D02*
G37*
G36*
X00230230D02*
X00222297D01*
X00222449Y00513575D01*
X00223385Y00511315D01*
X00224874Y00509374D01*
X00226815Y00507885D01*
X00229075Y00506949D01*
X00230230Y00506797D01*
Y00514730D01*
D02*
G37*
G36*
X00047730Y00401040D02*
X00031460D01*
Y00388270D01*
X00047730D01*
Y00401040D01*
D02*
G37*
G36*
Y00385730D02*
X00031460D01*
Y00372960D01*
X00047730D01*
Y00385730D01*
D02*
G37*
G36*
X00232770Y00366203D02*
Y00358270D01*
X00240703D01*
X00240551Y00359425D01*
X00239615Y00361685D01*
X00238126Y00363626D01*
X00236185Y00365115D01*
X00233925Y00366051D01*
X00232770Y00366203D01*
D02*
G37*
G36*
X00230230D02*
X00229075Y00366051D01*
X00226815Y00365115D01*
X00224874Y00363626D01*
X00223385Y00361685D01*
X00222449Y00359425D01*
X00222297Y00358270D01*
X00230230D01*
Y00366203D01*
D02*
G37*
G36*
X00240703Y00355730D02*
X00232770D01*
Y00347797D01*
X00233925Y00347949D01*
X00236185Y00348885D01*
X00238126Y00350374D01*
X00239615Y00352315D01*
X00240551Y00354575D01*
X00240703Y00355730D01*
D02*
G37*
G36*
X00230230D02*
X00222297D01*
X00222449Y00354575D01*
X00223385Y00352315D01*
X00224874Y00350374D01*
X00226815Y00348885D01*
X00229075Y00347949D01*
X00230230Y00347797D01*
Y00355730D01*
D02*
G37*
G36*
X00149747Y00295556D02*
X00146489Y00295520D01*
X00143301Y00294850D01*
X00140305Y00293570D01*
X00138669Y00292451D01*
X00148455Y00280788D01*
X00160118Y00290574D01*
X00158702Y00291961D01*
X00155973Y00293741D01*
X00152950Y00294955D01*
X00149747Y00295556D01*
D02*
G37*
G36*
X00136723Y00290818D02*
X00135337Y00289402D01*
X00133557Y00286673D01*
X00132343Y00283650D01*
X00131742Y00280447D01*
X00131778Y00277190D01*
X00132448Y00274001D01*
X00133728Y00271005D01*
X00134847Y00269369D01*
X00146510Y00279155D01*
X00136723Y00290818D01*
D02*
G37*
G36*
X00161751Y00288629D02*
X00150088Y00278842D01*
X00159874Y00267179D01*
X00161261Y00268596D01*
X00163041Y00271325D01*
X00164255Y00274348D01*
X00164856Y00277550D01*
X00164820Y00280808D01*
X00164150Y00283997D01*
X00162870Y00286993D01*
X00161751Y00288629D01*
D02*
G37*
G36*
X00070000Y00292625D02*
X00066215Y00292127D01*
X00062688Y00290666D01*
X00059658Y00288342D01*
X00057334Y00285312D01*
X00055873Y00281785D01*
X00055375Y00278000D01*
X00055873Y00274215D01*
X00057334Y00270687D01*
X00059658Y00267659D01*
X00062688Y00265334D01*
X00066215Y00263873D01*
X00070000Y00263375D01*
X00073785Y00263873D01*
X00077313Y00265334D01*
X00080342Y00267659D01*
X00082666Y00270687D01*
X00084127Y00274215D01*
X00084625Y00278000D01*
X00084127Y00281785D01*
X00082666Y00285312D01*
X00080342Y00288342D01*
X00077313Y00290666D01*
X00073785Y00292127D01*
X00070000Y00292625D01*
D02*
G37*
G36*
X00148142Y00277210D02*
X00136479Y00267423D01*
X00137896Y00266037D01*
X00140625Y00264257D01*
X00143648Y00263043D01*
X00146850Y00262442D01*
X00150108Y00262478D01*
X00153296Y00263148D01*
X00156293Y00264428D01*
X00157929Y00265547D01*
X00148142Y00277210D01*
D02*
G37*
G36*
X00205675Y00263044D02*
X00203242Y00262938D01*
X00200919Y00262205D01*
X00198865Y00260897D01*
X00197219Y00259101D01*
X00196095Y00256941D01*
X00195568Y00254563D01*
X00195674Y00252130D01*
X00196406Y00249807D01*
X00197715Y00247753D01*
X00199510Y00246107D01*
X00201671Y00244983D01*
X00204049Y00244456D01*
X00206482Y00244562D01*
X00208805Y00245294D01*
X00210859Y00246603D01*
X00212504Y00248398D01*
X00213629Y00250559D01*
X00214156Y00252937D01*
X00214050Y00255370D01*
X00213318Y00257693D01*
X00212009Y00259747D01*
X00210213Y00261392D01*
X00208053Y00262517D01*
X00205675Y00263044D01*
D02*
G37*
G36*
X00218531Y00247723D02*
X00216098Y00247617D01*
X00213775Y00246885D01*
X00211721Y00245576D01*
X00210075Y00243780D01*
X00208951Y00241620D01*
X00208423Y00239242D01*
X00208530Y00236809D01*
X00209262Y00234486D01*
X00210571Y00232432D01*
X00212366Y00230786D01*
X00214527Y00229662D01*
X00216905Y00229135D01*
X00219338Y00229241D01*
X00221661Y00229973D01*
X00223715Y00231282D01*
X00225360Y00233078D01*
X00226485Y00235238D01*
X00227012Y00237616D01*
X00226906Y00240049D01*
X00226173Y00242372D01*
X00224865Y00244426D01*
X00223069Y00246071D01*
X00220909Y00247196D01*
X00218531Y00247723D01*
D02*
G37*
G36*
X00234648Y00229115D02*
X00232073Y00229002D01*
X00229614Y00228227D01*
X00228521Y00227530D01*
X00233944Y00221067D01*
X00240407Y00226490D01*
X00239451Y00227367D01*
X00237165Y00228557D01*
X00234648Y00229115D01*
D02*
G37*
G36*
X00097505Y00235516D02*
X00085042Y00225058D01*
X00093250Y00215276D01*
X00105714Y00225734D01*
X00097505Y00235516D01*
D02*
G37*
G36*
X00226575Y00225898D02*
X00225699Y00224942D01*
X00224508Y00222655D01*
X00223951Y00220138D01*
X00224063Y00217563D01*
X00224838Y00215105D01*
X00225535Y00214011D01*
X00231998Y00219434D01*
X00226575Y00225898D01*
D02*
G37*
G36*
X00242040Y00224545D02*
X00235577Y00219121D01*
X00241000Y00212658D01*
X00241876Y00213614D01*
X00243066Y00215901D01*
X00243624Y00218417D01*
X00243512Y00220993D01*
X00242737Y00223451D01*
X00242040Y00224545D01*
D02*
G37*
G36*
X00233631Y00217489D02*
X00227167Y00212065D01*
X00228124Y00211189D01*
X00230410Y00209999D01*
X00232927Y00209441D01*
X00235502Y00209553D01*
X00237960Y00210329D01*
X00239054Y00211025D01*
X00233631Y00217489D01*
D02*
G37*
G36*
X00107346Y00223788D02*
X00094883Y00213330D01*
X00103091Y00203548D01*
X00115555Y00214006D01*
X00107346Y00223788D01*
D02*
G37*
G36*
X00234210Y00194898D02*
X00230952Y00194862D01*
X00227763Y00194192D01*
X00224767Y00192912D01*
X00223131Y00191793D01*
X00232918Y00180130D01*
X00244581Y00189916D01*
X00243164Y00191303D01*
X00240435Y00193083D01*
X00237412Y00194297D01*
X00234210Y00194898D01*
D02*
G37*
G36*
X00221185Y00190160D02*
X00219799Y00188744D01*
X00218019Y00186015D01*
X00216805Y00182992D01*
X00216204Y00179789D01*
X00216240Y00176531D01*
X00216910Y00173343D01*
X00218190Y00170347D01*
X00219309Y00168711D01*
X00230972Y00178497D01*
X00221185Y00190160D01*
D02*
G37*
G36*
X00246213Y00187971D02*
X00234550Y00178184D01*
X00244337Y00166521D01*
X00245723Y00167938D01*
X00247503Y00170667D01*
X00248717Y00173690D01*
X00249318Y00176892D01*
X00249282Y00180150D01*
X00248612Y00183339D01*
X00247332Y00186335D01*
X00246213Y00187971D01*
D02*
G37*
G36*
X00232605Y00176551D02*
X00220942Y00166765D01*
X00222358Y00165379D01*
X00225087Y00163599D01*
X00228110Y00162385D01*
X00231313Y00161784D01*
X00234571Y00161819D01*
X00237759Y00162490D01*
X00240755Y00163769D01*
X00242391Y00164889D01*
X00232605Y00176551D01*
D02*
G37*
G36*
X00398070Y00158211D02*
Y00149270D01*
X00407012D01*
X00406825Y00150686D01*
X00405788Y00153189D01*
X00404139Y00155339D01*
X00401989Y00156988D01*
X00399486Y00158025D01*
X00398070Y00158211D01*
D02*
G37*
G36*
X00395530D02*
X00394114Y00158025D01*
X00391611Y00156988D01*
X00389461Y00155339D01*
X00387812Y00153189D01*
X00386775Y00150686D01*
X00386588Y00149270D01*
X00395530D01*
Y00158211D01*
D02*
G37*
G36*
X00320600Y00157834D02*
X00318055Y00157499D01*
X00315683Y00156517D01*
X00313646Y00154954D01*
X00312083Y00152917D01*
X00311101Y00150545D01*
X00310766Y00148000D01*
X00311101Y00145455D01*
X00312083Y00143083D01*
X00313646Y00141046D01*
X00315683Y00139483D01*
X00318055Y00138501D01*
X00320600Y00138166D01*
X00323145Y00138501D01*
X00325517Y00139483D01*
X00327554Y00141046D01*
X00329117Y00143083D01*
X00330099Y00145455D01*
X00330434Y00148000D01*
X00330099Y00150545D01*
X00329117Y00152917D01*
X00327554Y00154954D01*
X00325517Y00156517D01*
X00323145Y00157499D01*
X00320600Y00157834D01*
D02*
G37*
G36*
X00346000Y00157834D02*
X00343455Y00157499D01*
X00341083Y00156517D01*
X00339046Y00154954D01*
X00337483Y00152917D01*
X00336501Y00150545D01*
X00336166Y00148000D01*
X00336501Y00145455D01*
X00337483Y00143083D01*
X00339046Y00141046D01*
X00341083Y00139483D01*
X00343455Y00138501D01*
X00346000Y00138166D01*
X00348545Y00138501D01*
X00350917Y00139483D01*
X00352954Y00141046D01*
X00354516Y00143083D01*
X00355499Y00145455D01*
X00355834Y00148000D01*
X00355499Y00150545D01*
X00354516Y00152917D01*
X00352954Y00154954D01*
X00350917Y00156517D01*
X00348545Y00157499D01*
X00346000Y00157834D01*
D02*
G37*
G36*
X00371400Y00157834D02*
X00368855Y00157499D01*
X00366483Y00156516D01*
X00364446Y00154953D01*
X00362883Y00152917D01*
X00361901Y00150545D01*
X00361566Y00148000D01*
X00361901Y00145455D01*
X00362883Y00143083D01*
X00364446Y00141046D01*
X00366483Y00139483D01*
X00368855Y00138501D01*
X00371400Y00138166D01*
X00373945Y00138501D01*
X00376317Y00139483D01*
X00378354Y00141046D01*
X00379917Y00143083D01*
X00380899Y00145455D01*
X00381234Y00148000D01*
X00380899Y00150545D01*
X00379917Y00152917D01*
X00378354Y00154953D01*
X00376317Y00156516D01*
X00373945Y00157499D01*
X00371400Y00157834D01*
D02*
G37*
G36*
X00407012Y00146730D02*
X00398070D01*
Y00137788D01*
X00399486Y00137975D01*
X00401989Y00139012D01*
X00404139Y00140661D01*
X00405788Y00142810D01*
X00406825Y00145314D01*
X00407012Y00146730D01*
D02*
G37*
G36*
X00395530D02*
X00386588D01*
X00386775Y00145314D01*
X00387812Y00142810D01*
X00389461Y00140661D01*
X00391611Y00139012D01*
X00394114Y00137975D01*
X00395530Y00137788D01*
Y00146730D01*
D02*
G37*
G36*
X00173102Y00145813D02*
X00160639Y00135354D01*
X00168847Y00125572D01*
X00181311Y00136030D01*
X00173102Y00145813D01*
D02*
G37*
G36*
X00604252Y00079588D02*
X00593192Y00073203D01*
X00601328Y00059113D01*
X00612387Y00065497D01*
X00604252Y00079588D01*
D02*
G37*
G36*
X00590993Y00071933D02*
X00579934Y00065548D01*
X00588069Y00051458D01*
X00599128Y00057842D01*
X00590993Y00071933D01*
D02*
G37*
G36*
X00307788Y00062737D02*
X00304963Y00046715D01*
X00317539Y00044497D01*
X00320364Y00060520D01*
X00307788Y00062737D01*
D02*
G37*
G36*
X00322865Y00060079D02*
X00320040Y00044056D01*
X00332616Y00041838D01*
X00335441Y00057861D01*
X00322865Y00060079D01*
D02*
G37*
G36*
X00408282Y00045271D02*
X00405456Y00029249D01*
X00418032Y00027031D01*
X00420858Y00043054D01*
X00408282Y00045271D01*
D02*
G37*
G36*
X00423359Y00042613D02*
X00420534Y00026590D01*
X00433110Y00024373D01*
X00435935Y00040395D01*
X00423359Y00042613D01*
D02*
G37*
G36*
X00676403Y00773542D02*
X00668268Y00759452D01*
X00679327Y00753067D01*
X00687462Y00767158D01*
X00676403Y00773542D01*
D02*
G37*
G36*
X00689662Y00765888D02*
X00681527Y00751797D01*
X00692586Y00745412D01*
X00700721Y00759502D01*
X00689662Y00765888D01*
D02*
G37*
G36*
X00720000Y00747625D02*
X00716215Y00747127D01*
X00712687Y00745666D01*
X00709659Y00743342D01*
X00707334Y00740312D01*
X00705873Y00736785D01*
X00705375Y00733000D01*
X00705873Y00729215D01*
X00707334Y00725687D01*
X00709659Y00722658D01*
X00712687Y00720334D01*
X00716215Y00718873D01*
X00720000Y00718375D01*
X00723785Y00718873D01*
X00727313Y00720334D01*
X00730341Y00722658D01*
X00732666Y00725687D01*
X00734127Y00729215D01*
X00734625Y00733000D01*
X00734127Y00736785D01*
X00732666Y00740312D01*
X00730341Y00743342D01*
X00727313Y00745666D01*
X00723785Y00747127D01*
X00720000Y00747625D01*
D02*
G37*
G36*
X00743270Y00651799D02*
Y00644270D01*
X00750799D01*
X00750661Y00645321D01*
X00749765Y00647483D01*
X00748340Y00649340D01*
X00746483Y00650765D01*
X00744321Y00651661D01*
X00743270Y00651799D01*
D02*
G37*
G36*
X00740730D02*
X00739679Y00651661D01*
X00737517Y00650765D01*
X00735660Y00649340D01*
X00734235Y00647483D01*
X00733339Y00645321D01*
X00733201Y00644270D01*
X00740730D01*
Y00651799D01*
D02*
G37*
G36*
X00750799Y00641730D02*
X00743270D01*
Y00634201D01*
X00744321Y00634339D01*
X00746483Y00635235D01*
X00748340Y00636660D01*
X00749765Y00638517D01*
X00750661Y00640679D01*
X00750799Y00641730D01*
D02*
G37*
G36*
X00740730D02*
X00733201D01*
X00733339Y00640679D01*
X00734235Y00638517D01*
X00735660Y00636660D01*
X00737517Y00635235D01*
X00739679Y00634339D01*
X00740730Y00634201D01*
Y00641730D01*
D02*
G37*
G36*
X00801657Y00638847D02*
X00786368Y00633282D01*
X00790736Y00621282D01*
X00806025Y00626847D01*
X00801657Y00638847D01*
D02*
G37*
G36*
X00806893Y00624460D02*
X00791605Y00618895D01*
X00795972Y00606895D01*
X00811261Y00612460D01*
X00806893Y00624460D01*
D02*
G37*
G36*
X00836778Y00543083D02*
X00821489Y00537519D01*
X00825857Y00525519D01*
X00841146Y00531083D01*
X00836778Y00543083D01*
D02*
G37*
G36*
X00842014Y00528697D02*
X00826725Y00523132D01*
X00831093Y00511132D01*
X00846382Y00516697D01*
X00842014Y00528697D01*
D02*
G37*
G36*
X00856999Y00479411D02*
X00854769D01*
Y00475033D01*
X00862395D01*
X00862218Y00475924D01*
X00860993Y00477757D01*
X00859161Y00478981D01*
X00856999Y00479411D01*
D02*
G37*
G36*
X00852229D02*
X00849999D01*
X00847838Y00478981D01*
X00846005Y00477757D01*
X00844781Y00475924D01*
X00844603Y00475033D01*
X00852229D01*
Y00479411D01*
D02*
G37*
G36*
X00654270Y00482612D02*
Y00473670D01*
X00663212D01*
X00663025Y00475086D01*
X00661988Y00477589D01*
X00660339Y00479739D01*
X00658189Y00481388D01*
X00655686Y00482425D01*
X00654270Y00482612D01*
D02*
G37*
G36*
X00651730D02*
X00650314Y00482425D01*
X00647811Y00481388D01*
X00645661Y00479739D01*
X00644012Y00477589D01*
X00642975Y00475086D01*
X00642788Y00473670D01*
X00651730D01*
Y00482612D01*
D02*
G37*
G36*
X00862395Y00472493D02*
X00854769D01*
Y00468114D01*
X00856999D01*
X00859161Y00468544D01*
X00860993Y00469769D01*
X00862218Y00471601D01*
X00862395Y00472493D01*
D02*
G37*
G36*
X00852229D02*
X00844603D01*
X00844781Y00471601D01*
X00846005Y00469769D01*
X00847838Y00468544D01*
X00849999Y00468114D01*
X00852229D01*
Y00472493D01*
D02*
G37*
G36*
X00827769Y00473470D02*
Y00465033D01*
X00836207D01*
X00836037Y00466319D01*
X00835051Y00468700D01*
X00833482Y00470745D01*
X00831436Y00472314D01*
X00829055Y00473301D01*
X00827769Y00473470D01*
D02*
G37*
G36*
X00825229D02*
X00823944Y00473301D01*
X00821562Y00472314D01*
X00819517Y00470745D01*
X00817948Y00468700D01*
X00816961Y00466319D01*
X00816792Y00465033D01*
X00825229D01*
Y00473470D01*
D02*
G37*
G36*
X00663212Y00471130D02*
X00654270D01*
Y00462188D01*
X00655686Y00462375D01*
X00658189Y00463412D01*
X00660339Y00465061D01*
X00661988Y00467211D01*
X00663025Y00469714D01*
X00663212Y00471130D01*
D02*
G37*
G36*
X00651730D02*
X00642788D01*
X00642975Y00469714D01*
X00644012Y00467211D01*
X00645661Y00465061D01*
X00647811Y00463412D01*
X00650314Y00462375D01*
X00651730Y00462188D01*
Y00471130D01*
D02*
G37*
G36*
X00825229Y00462493D02*
X00816792D01*
X00816961Y00461207D01*
X00817948Y00458826D01*
X00819517Y00456781D01*
X00821562Y00455211D01*
X00823944Y00454225D01*
X00825229Y00454055D01*
Y00462493D01*
D02*
G37*
G36*
X00836207D02*
X00827769D01*
Y00454055D01*
X00829055Y00454225D01*
X00831436Y00455211D01*
X00833482Y00456781D01*
X00835051Y00458826D01*
X00836037Y00461207D01*
X00836207Y00462493D01*
D02*
G37*
G36*
X00321284Y00459684D02*
X00310870D01*
Y00449270D01*
X00321284D01*
Y00459684D01*
D02*
G37*
G36*
X00308330D02*
X00297916D01*
Y00449270D01*
X00308330D01*
Y00459684D01*
D02*
G37*
G36*
X00807000Y00449608D02*
X00804854Y00449181D01*
X00803035Y00447965D01*
X00802727Y00447504D01*
X00802426D01*
X00802426Y00447504D01*
X00800865Y00447194D01*
X00799542Y00446310D01*
X00799542Y00446310D01*
X00704116Y00350884D01*
X00703232Y00349561D01*
X00702922Y00348000D01*
X00702922Y00348000D01*
Y00250689D01*
X00695116Y00242884D01*
X00694232Y00241561D01*
X00693922Y00240000D01*
X00693922Y00240000D01*
Y00227426D01*
X00693922Y00227426D01*
X00694232Y00225865D01*
X00695116Y00224542D01*
X00699116Y00220542D01*
X00699116Y00220542D01*
X00700439Y00219658D01*
X00702000Y00219348D01*
X00702000Y00219348D01*
X00707063D01*
X00707854Y00218819D01*
X00710000Y00218392D01*
X00712146Y00218819D01*
X00713965Y00220035D01*
X00715181Y00221854D01*
X00715608Y00224000D01*
X00715181Y00226146D01*
X00713965Y00227965D01*
X00713145Y00228514D01*
X00712778Y00230251D01*
X00713181Y00230854D01*
X00713568Y00232800D01*
X00719884Y00239116D01*
X00719884Y00239116D01*
X00720768Y00240439D01*
X00721078Y00242000D01*
X00721078Y00242000D01*
Y00343311D01*
X00806200Y00428432D01*
X00808146Y00428819D01*
X00809965Y00430035D01*
X00811181Y00431854D01*
X00811608Y00434000D01*
X00811181Y00436146D01*
X00809965Y00437965D01*
X00810060Y00439430D01*
X00810965Y00440035D01*
X00812181Y00441854D01*
X00812608Y00444000D01*
X00812181Y00446146D01*
X00810965Y00447965D01*
X00809146Y00449181D01*
X00807000Y00449608D01*
D02*
G37*
G36*
X00321284Y00446730D02*
X00310870D01*
Y00436316D01*
X00321284D01*
Y00446730D01*
D02*
G37*
G36*
X00308330D02*
X00297916D01*
Y00436316D01*
X00308330D01*
Y00446730D01*
D02*
G37*
G36*
X00827769Y00423470D02*
Y00415033D01*
X00836207D01*
X00836037Y00416319D01*
X00835051Y00418700D01*
X00833482Y00420745D01*
X00831436Y00422314D01*
X00829055Y00423301D01*
X00827769Y00423470D01*
D02*
G37*
G36*
X00825229D02*
X00823944Y00423301D01*
X00821562Y00422314D01*
X00819517Y00420745D01*
X00817948Y00418700D01*
X00816961Y00416319D01*
X00816792Y00415033D01*
X00825229D01*
Y00423470D01*
D02*
G37*
G36*
X00856999Y00409411D02*
X00854769D01*
Y00405033D01*
X00862395D01*
X00862218Y00405924D01*
X00860993Y00407757D01*
X00859161Y00408981D01*
X00856999Y00409411D01*
D02*
G37*
G36*
X00852229D02*
X00849999D01*
X00847838Y00408981D01*
X00846005Y00407757D01*
X00844781Y00405924D01*
X00844603Y00405033D01*
X00852229D01*
Y00409411D01*
D02*
G37*
G36*
X00825229Y00412493D02*
X00816792D01*
X00816961Y00411207D01*
X00817948Y00408826D01*
X00819517Y00406781D01*
X00821562Y00405211D01*
X00823944Y00404225D01*
X00825229Y00404055D01*
Y00412493D01*
D02*
G37*
G36*
X00836207D02*
X00827769D01*
Y00404055D01*
X00829055Y00404225D01*
X00831436Y00405211D01*
X00833482Y00406781D01*
X00835051Y00408826D01*
X00836037Y00411207D01*
X00836207Y00412493D01*
D02*
G37*
G36*
X00862395Y00402493D02*
X00854769D01*
Y00398114D01*
X00856999D01*
X00859161Y00398544D01*
X00860993Y00399769D01*
X00862218Y00401601D01*
X00862395Y00402493D01*
D02*
G37*
G36*
X00852229D02*
X00844603D01*
X00844781Y00401601D01*
X00846005Y00399769D01*
X00847838Y00398544D01*
X00849999Y00398114D01*
X00852229D01*
Y00402493D01*
D02*
G37*
G36*
X00537500Y00425539D02*
X00357500D01*
X00356720Y00425384D01*
X00356058Y00424942D01*
X00355616Y00424280D01*
X00355461Y00423500D01*
Y00360500D01*
X00355616Y00359720D01*
X00356058Y00359058D01*
X00356720Y00358616D01*
X00357500Y00358461D01*
X00537500D01*
X00538280Y00358616D01*
X00538942Y00359058D01*
X00539384Y00359720D01*
X00539539Y00360500D01*
Y00423500D01*
X00539384Y00424280D01*
X00538942Y00424942D01*
X00538280Y00425384D01*
X00537500Y00425539D01*
D02*
G37*
G36*
X00830858Y00364953D02*
X00826491Y00352953D01*
X00841779Y00347389D01*
X00846147Y00359389D01*
X00830858Y00364953D01*
D02*
G37*
G36*
X00825622Y00350567D02*
X00821254Y00338567D01*
X00836543Y00333002D01*
X00840911Y00345002D01*
X00825622Y00350567D01*
D02*
G37*
G36*
X00626000Y00343078D02*
X00623651Y00342768D01*
X00621461Y00341861D01*
X00619581Y00340419D01*
X00618139Y00338539D01*
X00617232Y00336349D01*
X00616922Y00334000D01*
X00617232Y00331651D01*
X00618139Y00329461D01*
X00619581Y00327581D01*
X00621461Y00326138D01*
X00623651Y00325232D01*
X00626000Y00324922D01*
X00628349Y00325232D01*
X00630539Y00326138D01*
X00632419Y00327581D01*
X00633862Y00329461D01*
X00634768Y00331651D01*
X00635078Y00334000D01*
X00634768Y00336349D01*
X00633862Y00338539D01*
X00632419Y00340419D01*
X00630539Y00341861D01*
X00628349Y00342768D01*
X00626000Y00343078D01*
D02*
G37*
G36*
X00600000D02*
X00597651Y00342768D01*
X00595461Y00341861D01*
X00593581Y00340419D01*
X00592139Y00338539D01*
X00591232Y00336349D01*
X00590922Y00334000D01*
X00591232Y00331651D01*
X00592139Y00329461D01*
X00593581Y00327581D01*
X00595461Y00326138D01*
X00597651Y00325232D01*
X00600000Y00324922D01*
X00602350Y00325232D01*
X00604539Y00326138D01*
X00606419Y00327581D01*
X00607862Y00329461D01*
X00608768Y00331651D01*
X00609078Y00334000D01*
X00608768Y00336349D01*
X00607862Y00338539D01*
X00606419Y00340419D01*
X00604539Y00341861D01*
X00602350Y00342768D01*
X00600000Y00343078D01*
D02*
G37*
G36*
X00636000Y00304000D02*
X00618000D01*
Y00286000D01*
X00636000D01*
Y00304000D01*
D02*
G37*
G36*
X00601000Y00304078D02*
X00598651Y00303768D01*
X00596461Y00302861D01*
X00594581Y00301419D01*
X00593139Y00299539D01*
X00592232Y00297349D01*
X00591922Y00295000D01*
X00592232Y00292651D01*
X00593139Y00290461D01*
X00594581Y00288581D01*
X00596461Y00287139D01*
X00598651Y00286232D01*
X00601000Y00285922D01*
X00603349Y00286232D01*
X00605539Y00287139D01*
X00607419Y00288581D01*
X00608862Y00290461D01*
X00609768Y00292651D01*
X00610078Y00295000D01*
X00609768Y00297349D01*
X00608862Y00299539D01*
X00607419Y00301419D01*
X00605539Y00302861D01*
X00603349Y00303768D01*
X00601000Y00304078D01*
D02*
G37*
G36*
X00273470Y00272212D02*
Y00263270D01*
X00282412D01*
X00282225Y00264686D01*
X00281188Y00267189D01*
X00279539Y00269339D01*
X00277389Y00270988D01*
X00274886Y00272025D01*
X00273470Y00272212D01*
D02*
G37*
G36*
X00270930D02*
X00269514Y00272025D01*
X00267011Y00270988D01*
X00264861Y00269339D01*
X00263212Y00267189D01*
X00262175Y00264686D01*
X00261988Y00263270D01*
X00270930D01*
Y00272212D01*
D02*
G37*
G36*
X00348400Y00271834D02*
X00345855Y00271499D01*
X00343483Y00270517D01*
X00341446Y00268954D01*
X00339883Y00266917D01*
X00338901Y00264545D01*
X00338566Y00262000D01*
X00338901Y00259455D01*
X00339883Y00257083D01*
X00341446Y00255046D01*
X00343483Y00253483D01*
X00345855Y00252501D01*
X00348400Y00252166D01*
X00350945Y00252501D01*
X00353317Y00253483D01*
X00355354Y00255046D01*
X00356917Y00257083D01*
X00357899Y00259455D01*
X00358234Y00262000D01*
X00357899Y00264545D01*
X00356917Y00266917D01*
X00355354Y00268954D01*
X00353317Y00270517D01*
X00350945Y00271499D01*
X00348400Y00271834D01*
D02*
G37*
G36*
X00282412Y00260730D02*
X00273470D01*
Y00251788D01*
X00274886Y00251975D01*
X00277389Y00253012D01*
X00279539Y00254661D01*
X00281188Y00256811D01*
X00282225Y00259314D01*
X00282412Y00260730D01*
D02*
G37*
G36*
X00270930D02*
X00261988D01*
X00262175Y00259314D01*
X00263212Y00256811D01*
X00264861Y00254661D01*
X00267011Y00253012D01*
X00269514Y00251975D01*
X00270930Y00251788D01*
Y00260730D01*
D02*
G37*
G36*
X00796207Y00269019D02*
X00791840Y00257019D01*
X00807128Y00251455D01*
X00811496Y00263454D01*
X00796207Y00269019D01*
D02*
G37*
G36*
X00790971Y00254632D02*
X00786603Y00242633D01*
X00801892Y00237068D01*
X00806260Y00249068D01*
X00790971Y00254632D01*
D02*
G37*
G36*
X00606870Y00218212D02*
Y00209270D01*
X00615812D01*
X00615625Y00210686D01*
X00614588Y00213189D01*
X00612939Y00215339D01*
X00610789Y00216988D01*
X00608286Y00218025D01*
X00606870Y00218212D01*
D02*
G37*
G36*
X00604330D02*
X00602914Y00218025D01*
X00600411Y00216988D01*
X00598261Y00215339D01*
X00596612Y00213189D01*
X00595575Y00210686D01*
X00595388Y00209270D01*
X00604330D01*
Y00218212D01*
D02*
G37*
G36*
X00631000Y00217834D02*
X00628455Y00217499D01*
X00626083Y00216517D01*
X00624046Y00214954D01*
X00622483Y00212917D01*
X00621501Y00210545D01*
X00621166Y00208000D01*
X00621501Y00205455D01*
X00622483Y00203083D01*
X00624046Y00201046D01*
X00626083Y00199483D01*
X00628455Y00198501D01*
X00631000Y00198166D01*
X00633545Y00198501D01*
X00635917Y00199483D01*
X00637954Y00201046D01*
X00639517Y00203083D01*
X00640499Y00205455D01*
X00640834Y00208000D01*
X00640499Y00210545D01*
X00639517Y00212917D01*
X00637954Y00214954D01*
X00635917Y00216517D01*
X00633545Y00217499D01*
X00631000Y00217834D01*
D02*
G37*
G36*
X00504000D02*
X00501455Y00217499D01*
X00499083Y00216517D01*
X00497046Y00214954D01*
X00495483Y00212917D01*
X00494501Y00210545D01*
X00494166Y00208000D01*
X00494501Y00205455D01*
X00495483Y00203083D01*
X00497046Y00201046D01*
X00499083Y00199483D01*
X00501455Y00198501D01*
X00504000Y00198166D01*
X00506545Y00198501D01*
X00508917Y00199483D01*
X00510954Y00201046D01*
X00512517Y00203083D01*
X00513499Y00205455D01*
X00513834Y00208000D01*
X00513499Y00210545D01*
X00512517Y00212917D01*
X00510954Y00214954D01*
X00508917Y00216517D01*
X00506545Y00217499D01*
X00504000Y00217834D01*
D02*
G37*
G36*
X00478600D02*
X00476055Y00217499D01*
X00473683Y00216517D01*
X00471646Y00214954D01*
X00470083Y00212917D01*
X00469101Y00210545D01*
X00468766Y00208000D01*
X00469101Y00205455D01*
X00470083Y00203083D01*
X00471646Y00201046D01*
X00473683Y00199483D01*
X00476055Y00198501D01*
X00478600Y00198166D01*
X00481145Y00198501D01*
X00483517Y00199483D01*
X00485554Y00201046D01*
X00487117Y00203083D01*
X00488099Y00205455D01*
X00488434Y00208000D01*
X00488099Y00210545D01*
X00487117Y00212917D01*
X00485554Y00214954D01*
X00483517Y00216517D01*
X00481145Y00217499D01*
X00478600Y00217834D01*
D02*
G37*
G36*
X00615812Y00206730D02*
X00606870D01*
Y00197788D01*
X00608286Y00197975D01*
X00610789Y00199012D01*
X00612939Y00200661D01*
X00614588Y00202811D01*
X00615625Y00205314D01*
X00615812Y00206730D01*
D02*
G37*
G36*
X00604330D02*
X00595388D01*
X00595575Y00205314D01*
X00596612Y00202811D01*
X00598261Y00200661D01*
X00600411Y00199012D01*
X00602914Y00197975D01*
X00604330Y00197788D01*
Y00206730D01*
D02*
G37*
G36*
X00720000Y00157625D02*
X00716215Y00157127D01*
X00712687Y00155666D01*
X00709659Y00153342D01*
X00707334Y00150313D01*
X00705873Y00146785D01*
X00705375Y00143000D01*
X00705873Y00139215D01*
X00707334Y00135687D01*
X00709659Y00132659D01*
X00712687Y00130334D01*
X00716215Y00128873D01*
X00720000Y00128375D01*
X00723785Y00128873D01*
X00727313Y00130334D01*
X00730341Y00132659D01*
X00732666Y00135687D01*
X00734127Y00139215D01*
X00734625Y00143000D01*
X00734127Y00146785D01*
X00732666Y00150313D01*
X00730341Y00153342D01*
X00727313Y00155666D01*
X00723785Y00157127D01*
X00720000Y00157625D01*
D02*
G37*
G36*
X00692461Y00130804D02*
X00681402Y00124419D01*
X00689537Y00110329D01*
X00700596Y00116714D01*
X00692461Y00130804D01*
D02*
G37*
G36*
X00477120Y00534656D02*
Y00530020D01*
X00481756D01*
X00481540Y00531107D01*
X00480205Y00533105D01*
X00478207Y00534440D01*
X00477120Y00534656D01*
D02*
G37*
G36*
X00474580D02*
X00473493Y00534440D01*
X00471495Y00533105D01*
X00470160Y00531107D01*
X00469944Y00530020D01*
X00474580D01*
Y00534656D01*
D02*
G37*
G36*
X00458770D02*
Y00530020D01*
X00463406D01*
X00463190Y00531107D01*
X00461855Y00533105D01*
X00459857Y00534440D01*
X00458770Y00534656D01*
D02*
G37*
G36*
X00456230D02*
X00455143Y00534440D01*
X00453145Y00533105D01*
X00451810Y00531107D01*
X00451594Y00530020D01*
X00456230D01*
Y00534656D01*
D02*
G37*
G36*
X00481756Y00527480D02*
X00477120D01*
Y00522844D01*
X00478207Y00523060D01*
X00480205Y00524395D01*
X00481540Y00526393D01*
X00481756Y00527480D01*
D02*
G37*
G36*
X00474580D02*
X00469944D01*
X00470160Y00526393D01*
X00471495Y00524395D01*
X00473493Y00523060D01*
X00474580Y00522844D01*
Y00527480D01*
D02*
G37*
G36*
X00463406D02*
X00458770D01*
Y00522844D01*
X00459857Y00523060D01*
X00461855Y00524395D01*
X00463190Y00526393D01*
X00463406Y00527480D01*
D02*
G37*
G36*
X00456230D02*
X00451594D01*
X00451810Y00526393D01*
X00453145Y00524395D01*
X00455143Y00523060D01*
X00456230Y00522844D01*
Y00527480D01*
D02*
G37*
G36*
X00445056D02*
X00440420D01*
Y00522844D01*
X00441507Y00523060D01*
X00443505Y00524395D01*
X00444840Y00526393D01*
X00445056Y00527480D01*
D02*
G37*
G36*
X00477120Y00516306D02*
Y00511670D01*
X00481756D01*
X00481540Y00512757D01*
X00480205Y00514755D01*
X00478207Y00516090D01*
X00477120Y00516306D01*
D02*
G37*
G36*
X00474580D02*
X00473493Y00516090D01*
X00471495Y00514755D01*
X00470160Y00512757D01*
X00469944Y00511670D01*
X00474580D01*
Y00516306D01*
D02*
G37*
G36*
X00458770D02*
Y00511670D01*
X00463406D01*
X00463190Y00512757D01*
X00461855Y00514755D01*
X00459857Y00516090D01*
X00458770Y00516306D01*
D02*
G37*
G36*
X00456230D02*
X00455143Y00516090D01*
X00453145Y00514755D01*
X00451810Y00512757D01*
X00451594Y00511670D01*
X00456230D01*
Y00516306D01*
D02*
G37*
G36*
X00440420D02*
Y00511670D01*
X00445056D01*
X00444840Y00512757D01*
X00443505Y00514755D01*
X00441507Y00516090D01*
X00440420Y00516306D01*
D02*
G37*
G36*
X00437880D02*
X00436793Y00516090D01*
X00434795Y00514755D01*
X00433461Y00512757D01*
X00433244Y00511670D01*
X00437880D01*
Y00516306D01*
D02*
G37*
G36*
X00481756Y00509130D02*
X00477120D01*
Y00504494D01*
X00478207Y00504710D01*
X00480205Y00506045D01*
X00481540Y00508043D01*
X00481756Y00509130D01*
D02*
G37*
G36*
X00474580D02*
X00469944D01*
X00470160Y00508043D01*
X00471495Y00506045D01*
X00473493Y00504710D01*
X00474580Y00504494D01*
Y00509130D01*
D02*
G37*
G36*
X00463406D02*
X00458770D01*
Y00504494D01*
X00459857Y00504710D01*
X00461855Y00506045D01*
X00463190Y00508043D01*
X00463406Y00509130D01*
D02*
G37*
G36*
X00456230D02*
X00451594D01*
X00451810Y00508043D01*
X00453145Y00506045D01*
X00455143Y00504710D01*
X00456230Y00504494D01*
Y00509130D01*
D02*
G37*
G36*
X00445056D02*
X00440420D01*
Y00504494D01*
X00441507Y00504710D01*
X00443505Y00506045D01*
X00444840Y00508043D01*
X00445056Y00509130D01*
D02*
G37*
G36*
X00437880D02*
X00433244D01*
X00433461Y00508043D01*
X00434795Y00506045D01*
X00436793Y00504710D01*
X00437880Y00504494D01*
Y00509130D01*
D02*
G37*
G36*
X00477120Y00497956D02*
Y00493320D01*
X00481756D01*
X00481540Y00494407D01*
X00480205Y00496405D01*
X00478207Y00497739D01*
X00477120Y00497956D01*
D02*
G37*
G36*
X00474580D02*
X00473493Y00497739D01*
X00471495Y00496405D01*
X00470160Y00494407D01*
X00469944Y00493320D01*
X00474580D01*
Y00497956D01*
D02*
G37*
G36*
X00458770D02*
Y00493320D01*
X00463406D01*
X00463190Y00494407D01*
X00461855Y00496405D01*
X00459857Y00497739D01*
X00458770Y00497956D01*
D02*
G37*
G36*
X00456230D02*
X00455143Y00497739D01*
X00453145Y00496405D01*
X00451810Y00494407D01*
X00451594Y00493320D01*
X00456230D01*
Y00497956D01*
D02*
G37*
G36*
X00440420D02*
Y00493320D01*
X00445056D01*
X00444840Y00494407D01*
X00443505Y00496405D01*
X00441507Y00497739D01*
X00440420Y00497956D01*
D02*
G37*
G36*
X00437880D02*
X00436793Y00497739D01*
X00434795Y00496405D01*
X00433461Y00494407D01*
X00433244Y00493320D01*
X00437880D01*
Y00497956D01*
D02*
G37*
G36*
X00481756Y00490780D02*
X00477120D01*
Y00486144D01*
X00478207Y00486360D01*
X00480205Y00487695D01*
X00481540Y00489693D01*
X00481756Y00490780D01*
D02*
G37*
G36*
X00474580D02*
X00469944D01*
X00470160Y00489693D01*
X00471495Y00487695D01*
X00473493Y00486360D01*
X00474580Y00486144D01*
Y00490780D01*
D02*
G37*
G36*
X00463406D02*
X00458770D01*
Y00486144D01*
X00459857Y00486360D01*
X00461855Y00487695D01*
X00463190Y00489693D01*
X00463406Y00490780D01*
D02*
G37*
G36*
X00456230D02*
X00451594D01*
X00451810Y00489693D01*
X00453145Y00487695D01*
X00455143Y00486360D01*
X00456230Y00486144D01*
Y00490780D01*
D02*
G37*
G36*
X00445056D02*
X00440420D01*
Y00486144D01*
X00441507Y00486360D01*
X00443505Y00487695D01*
X00444840Y00489693D01*
X00445056Y00490780D01*
D02*
G37*
G36*
X00437880D02*
X00433244D01*
X00433461Y00489693D01*
X00434795Y00487695D01*
X00436793Y00486360D01*
X00437880Y00486144D01*
Y00490780D01*
D02*
G37*
G36*
X00589400Y00510040D02*
X00586491Y00509657D01*
X00583780Y00508534D01*
X00581452Y00506748D01*
X00579666Y00504420D01*
X00578543Y00501709D01*
X00578160Y00498800D01*
X00578543Y00495891D01*
X00579666Y00493180D01*
X00581452Y00490852D01*
X00583780Y00489066D01*
X00586491Y00487943D01*
X00589400Y00487560D01*
X00592309Y00487943D01*
X00595020Y00489066D01*
X00597348Y00490852D01*
X00599134Y00493180D01*
X00600257Y00495891D01*
X00600640Y00498800D01*
X00600257Y00501709D01*
X00599134Y00504420D01*
X00597348Y00506748D01*
X00595020Y00508534D01*
X00592309Y00509657D01*
X00589400Y00510040D01*
D02*
G37*
G36*
Y00484640D02*
X00586491Y00484257D01*
X00583780Y00483134D01*
X00581452Y00481348D01*
X00579666Y00479020D01*
X00578543Y00476309D01*
X00578160Y00473400D01*
X00578543Y00470491D01*
X00579666Y00467780D01*
X00581452Y00465452D01*
X00583780Y00463666D01*
X00586491Y00462543D01*
X00589400Y00462160D01*
X00592309Y00462543D01*
X00595020Y00463666D01*
X00597348Y00465452D01*
X00599134Y00467780D01*
X00600257Y00470491D01*
X00600640Y00473400D01*
X00600257Y00476309D01*
X00599134Y00479020D01*
X00597348Y00481348D01*
X00595020Y00483134D01*
X00592309Y00484257D01*
X00589400Y00484640D01*
D02*
G37*
G36*
X00564000D02*
X00561091Y00484257D01*
X00558380Y00483134D01*
X00556052Y00481348D01*
X00554266Y00479020D01*
X00553143Y00476309D01*
X00552760Y00473400D01*
X00553143Y00470491D01*
X00554266Y00467780D01*
X00556052Y00465452D01*
X00558380Y00463666D01*
X00561091Y00462543D01*
X00564000Y00462160D01*
X00566909Y00462543D01*
X00569620Y00463666D01*
X00571948Y00465452D01*
X00573734Y00467780D01*
X00574857Y00470491D01*
X00575240Y00473400D01*
X00574857Y00476309D01*
X00573734Y00479020D01*
X00571948Y00481348D01*
X00569620Y00483134D01*
X00566909Y00484257D01*
X00564000Y00484640D01*
D02*
G37*
G36*
X00601084Y00459684D02*
X00590670D01*
Y00449270D01*
X00601084D01*
Y00459684D01*
D02*
G37*
G36*
X00588130D02*
X00577716D01*
Y00449270D01*
X00588130D01*
Y00459684D01*
D02*
G37*
G36*
X00601084Y00446730D02*
X00590670D01*
Y00436316D01*
X00601084D01*
Y00446730D01*
D02*
G37*
G36*
X00081270Y00532799D02*
Y00525270D01*
X00088799D01*
X00088661Y00526321D01*
X00087765Y00528483D01*
X00086340Y00530340D01*
X00084483Y00531765D01*
X00082321Y00532661D01*
X00081270Y00532799D01*
D02*
G37*
G36*
X00078730D02*
X00077679Y00532661D01*
X00075517Y00531765D01*
X00073660Y00530340D01*
X00072235Y00528483D01*
X00071339Y00526321D01*
X00071200Y00525270D01*
X00078730D01*
Y00532799D01*
D02*
G37*
G36*
X00088799Y00522730D02*
X00081270D01*
Y00515201D01*
X00082321Y00515339D01*
X00084483Y00516235D01*
X00086340Y00517660D01*
X00087765Y00519517D01*
X00088661Y00521679D01*
X00088799Y00522730D01*
D02*
G37*
G36*
X00078730D02*
X00071200D01*
X00071339Y00521679D01*
X00072235Y00519517D01*
X00073660Y00517660D01*
X00075517Y00516235D01*
X00077679Y00515339D01*
X00078730Y00515201D01*
Y00522730D01*
D02*
G37*
G36*
X00047480Y00503040D02*
X00031210D01*
Y00490270D01*
X00047480D01*
Y00503040D01*
D02*
G37*
G36*
Y00487730D02*
X00031210D01*
Y00474960D01*
X00047480D01*
Y00487730D01*
D02*
G37*
%LPD*%
D11*
X00335400Y00625800D02*
X00398350Y00688750D01*
X00430500D01*
X00196500Y00357000D02*
Y00382500D01*
X00161000Y00418000D02*
X00196500Y00382500D01*
X00116000Y00418000D02*
X00161000D01*
D13*
X00364000Y00444000D02*
X00454000D01*
X00487000Y00477000D01*
X00500000Y00450420D02*
Y00502460D01*
X00493770Y00446230D02*
Y00506344D01*
X00500096Y00512670D01*
X00500000Y00502460D02*
X00500540Y00503000D01*
X00493770Y00446230D02*
X00504000Y00436000D01*
X00500096Y00512670D02*
X00542149D01*
X00172000Y00277000D02*
X00214000Y00319000D01*
X00172000Y00252004D02*
Y00277000D01*
X00214000Y00319000D02*
Y00446000D01*
X00172000Y00252004D02*
X00178946Y00245058D01*
X00692000Y00263000D02*
Y00334000D01*
X00676000Y00247000D02*
X00692000Y00263000D01*
X00608814Y00417186D02*
X00692000Y00334000D01*
X00608814Y00417186D02*
Y00526186D01*
X00507210Y00443210D02*
X00534795D01*
X00561000Y00417005D01*
X00551000Y00229600D02*
Y00420585D01*
X00535585Y00436000D02*
X00551000Y00420585D01*
X00532426Y00452000D02*
X00677000Y00307426D01*
X00561000Y00309000D02*
Y00417005D01*
X00504000Y00436000D02*
X00535585D01*
X00508000Y00452000D02*
X00532426D01*
X00532000Y00462000D02*
X00661000Y00333000D01*
X00677000Y00277000D02*
Y00307426D01*
X00508000Y00462000D02*
X00532000D01*
X00529400Y00208000D02*
X00551000Y00229600D01*
X00561000Y00309000D02*
X00575000Y00295000D01*
X00500000Y00450420D02*
X00507210Y00443210D01*
X00543033Y00511786D02*
X00576986D01*
X00589400Y00524200D01*
X00542149Y00512670D02*
X00543033Y00511786D01*
X00390000Y00268000D02*
X00416000Y00242000D01*
X00204657Y00661584D02*
X00216455Y00673382D01*
X00253786D01*
X00278000Y00649168D01*
X00025000Y00512000D02*
X00075586Y00562586D01*
X00390586D01*
X00116000Y00458000D02*
X00195000Y00537000D01*
X00314356D01*
X00322014Y00529342D01*
X00390586Y00562586D02*
X00423000Y00595000D01*
X00025000Y00437000D02*
Y00512000D01*
X00330258Y00511214D02*
X00395214D01*
X00436000Y00552000D01*
X00404674Y00506674D02*
X00448000Y00550000D01*
X00456000D01*
X00387346Y00506674D02*
X00404674D01*
X00476000Y00563000D02*
X00515000Y00524000D01*
X00432000Y00563000D02*
X00476000D01*
X00403035Y00534035D02*
X00432000Y00563000D01*
X00370535Y00489862D02*
X00387346Y00506674D01*
X00347000Y00489862D02*
X00370535D01*
X00346965Y00534035D02*
X00403035D01*
X00361822Y00480178D02*
X00381000Y00461000D01*
X00338413Y00488587D02*
X00346822Y00480178D01*
X00338413Y00488587D02*
Y00495787D01*
X00346822Y00480178D02*
X00361822D01*
X00335400Y00498800D02*
X00338413Y00495787D01*
X00309600Y00473400D02*
X00322014Y00485814D01*
Y00502970D01*
X00330258Y00511214D01*
X00393000Y00460000D02*
Y00498000D01*
X00382000Y00449000D02*
X00393000Y00460000D01*
X00366986Y00460986D02*
X00380986D01*
X00381000Y00461000D01*
X00330000Y00424000D02*
X00366986Y00460986D01*
X00309600Y00549600D02*
X00322200Y00537000D01*
X00340356D01*
X00346126Y00542770D01*
X00349356Y00546000D01*
X00387000D02*
X00428414Y00587414D01*
X00349356Y00546000D02*
X00387000D01*
X00428414Y00587414D02*
X00641014D01*
X00423000Y00595000D02*
X00441000D01*
X00322014Y00511214D02*
Y00529342D01*
X00309600Y00498800D02*
X00322014Y00511214D01*
X00330000Y00349000D02*
Y00424000D01*
X00362579Y00449000D02*
X00382000D01*
X00214000Y00446000D02*
X00292200Y00524200D01*
X00309600D01*
X00390000Y00268000D02*
Y00315000D01*
X00381000Y00261000D02*
Y00309000D01*
Y00261000D02*
X00451000Y00191000D01*
X00537800D01*
X00446000Y00184000D02*
X00556200D01*
X00372000Y00258000D02*
X00446000Y00184000D01*
X00372000Y00258000D02*
Y00307000D01*
X00641014Y00587414D02*
X00653000Y00599400D01*
X00666600Y00548600D02*
X00683750Y00565750D01*
Y00650000D01*
X00653000Y00548600D02*
X00666600D01*
X00669564Y00664186D02*
X00683750Y00650000D01*
X00653000Y00523200D02*
X00696000Y00566200D01*
Y00650500D01*
X00683538Y00511000D02*
X00702559Y00530021D01*
X00751301D01*
X00637000Y00511000D02*
X00683538D01*
X00601413Y00546587D02*
X00637000Y00511000D01*
X00592413Y00546587D02*
X00601413D01*
X00589400Y00549600D02*
X00592413Y00546587D01*
X00597814Y00537186D02*
X00608814Y00526186D01*
X00576414Y00537186D02*
X00597814D01*
X00252000Y00427000D02*
X00298000Y00473000D01*
X00252000Y00258000D02*
Y00427000D01*
X00298000Y00473000D02*
X00309200D01*
X00309600Y00473400D01*
X00342000Y00168000D02*
X00564087D01*
X00252000Y00258000D02*
X00342000Y00168000D01*
X00564087D02*
X00584679Y00147408D01*
X00556200Y00184000D02*
X00580200Y00208000D01*
X00537800Y00191000D02*
X00554800Y00208000D01*
X00335000Y00355000D02*
Y00421421D01*
X00340000Y00420000D02*
X00364000Y00444000D01*
X00340000Y00365000D02*
Y00420000D01*
X00335000Y00421421D02*
X00362579Y00449000D01*
X00335000Y00355000D02*
X00381000Y00309000D01*
X00340000Y00365000D02*
X00390000Y00315000D01*
X00330000Y00349000D02*
X00372000Y00307000D01*
X00478000Y00704000D02*
X00490000Y00692000D01*
X00335400Y00651200D02*
X00388200Y00704000D01*
X00478000D01*
X00556214Y00638786D02*
X00613614D01*
X00653000Y00599400D01*
X00538000Y00657000D02*
X00556214Y00638786D01*
X00515000Y00650000D02*
X00551614Y00613386D01*
X00515000Y00650000D02*
Y00657000D01*
X00551614Y00613386D02*
X00576414D01*
X00589400Y00600400D01*
X00025000Y00437000D02*
X00044000Y00418000D01*
X00278000Y00606600D02*
Y00649168D01*
Y00606600D02*
X00309600Y00575000D01*
X00289000Y00424000D02*
X00323000Y00390000D01*
Y00262000D02*
Y00390000D01*
X00297600Y00262000D02*
Y00405400D01*
X00279000Y00424000D02*
X00297600Y00405400D01*
X00564000Y00549600D02*
X00576414Y00537186D01*
X00490000Y00692000D02*
X00654500D01*
X00696000Y00650500D01*
X00576986Y00664186D02*
X00669564D01*
X00564000Y00651200D02*
X00576986Y00664186D01*
D54*
X00653000Y00650200D02*
D03*
X00653000Y00624800D02*
D03*
X00653000Y00599400D02*
D03*
Y00574000D02*
D03*
X00653000Y00472400D02*
D03*
Y00497800D02*
D03*
X00653000Y00523200D02*
D03*
X00653000Y00548600D02*
D03*
X00320600Y00148000D02*
D03*
X00346000Y00148000D02*
D03*
X00371400Y00148000D02*
D03*
X00396800Y00148000D02*
D03*
X00631000Y00208000D02*
D03*
X00605600D02*
D03*
X00580200D02*
D03*
X00554800D02*
D03*
X00453200D02*
D03*
X00478600D02*
D03*
X00504000D02*
D03*
X00529400D02*
D03*
X00272200Y00262000D02*
D03*
X00297600D02*
D03*
X00323000D02*
D03*
X00348400D02*
D03*
D57*
X00188792Y00603099D02*
D03*
X00204862Y00622250D02*
D03*
X00217718Y00637571D02*
D03*
X00233787Y00219278D02*
D03*
X00217718Y00238429D02*
D03*
X00204862Y00253750D02*
D03*
X00826499Y00463763D02*
D03*
Y00413763D02*
D03*
D66*
X00122015Y00713531D02*
G03*
X00121000Y00710883I00002985J-00002663D01*
G01*
X00320158Y00843000D02*
G03*
X00122015Y00713531I00143647J-00436199D01*
G01*
X00147276Y00133129D02*
G03*
X00365377Y00024409I00300977J00330658D01*
G01*
X00146000Y00136034D02*
G03*
X00147276Y00133129I00004000J00000025D01*
G01*
X00828733Y00622482D02*
G03*
X00680961Y00793329I-00386515J-00184982D01*
G01*
D02*
G03*
X00678743Y00794000I-00002218J-00003329D01*
G01*
X00829117Y00620773D02*
G03*
X00828733Y00622482I-00004000J-00000000D01*
G01*
X00706033Y00099840D02*
G03*
X00843327Y00286755I-00263815J00337659D01*
G01*
X00703594Y00099000D02*
G03*
X00706033Y00099840I-00000014J00004000D01*
G01*
X00121000Y00680014D02*
Y00710883D01*
X00320158Y00843000D02*
X00330000D01*
X00702000Y00223426D02*
X00709426D01*
X00698000Y00227426D02*
Y00240000D01*
Y00227426D02*
X00702000Y00223426D01*
X00709426D02*
X00710000Y00224000D01*
X00698000Y00240000D02*
X00707000Y00249000D01*
Y00348000D01*
X00717000Y00242000D02*
Y00345000D01*
X00708000Y00233000D02*
X00717000Y00242000D01*
X00564000Y00448000D02*
X00630000Y00382000D01*
X00630000D01*
X00367409Y00024409D02*
X00386395Y00043395D01*
X00146000Y00136034D02*
Y00163009D01*
X00365752Y00024409D02*
X00367409Y00024409D01*
X00365377D02*
X00365752Y00024409D01*
X00147276Y00133129D02*
X00147276Y00133129D01*
X00623733Y00794000D02*
X00678743D01*
X00828733Y00622482D02*
X00828733Y00622482D01*
X00843327Y00287483D02*
Y00289140D01*
X00818959Y00313509D02*
X00842155Y00290312D01*
X00661375Y00099000D02*
X00703594D01*
X00842155Y00290312D02*
X00843327Y00289140D01*
Y00286755D02*
Y00287483D01*
X00807534Y00597534D02*
X00829117Y00619116D01*
Y00620773D01*
X00818959Y00313509D02*
Y00321354D01*
X00406000Y00550000D02*
X00431000Y00575000D01*
X00524000D01*
X00549400Y00549600D01*
X00564000D01*
X00707000Y00348000D02*
X00802426Y00443426D01*
X00717000Y00345000D02*
X00806000Y00434000D01*
X00806426Y00443426D02*
X00807000Y00444000D01*
X00802426Y00443426D02*
X00806426D01*
X00121000Y00680014D02*
X00123791Y00677223D01*
X00330000Y00843000D02*
X00348489Y00824511D01*
X00351539D01*
X00805278Y00592234D02*
Y00593857D01*
X00807534Y00596114D01*
Y00597534D01*
X00620680Y00790946D02*
X00623733Y00794000D01*
X00655321Y00105054D02*
X00661375Y00099000D01*
X00149502Y00166512D02*
Y00168135D01*
X00146000Y00163009D02*
X00149502Y00166512D01*
D67*
X00080000Y00438000D02*
D03*
D68*
X00164224Y00206596D02*
D03*
D69*
X00377487Y00083469D02*
D03*
D70*
X00620000Y00126231D02*
D03*
D71*
X00778289Y00314873D02*
D03*
D72*
Y00561127D02*
D03*
D73*
X00620000Y00749769D02*
D03*
D74*
X00377487Y00792531D02*
D03*
D75*
X00164224Y00669404D02*
D03*
D76*
X00070000Y00598000D02*
D03*
Y00278000D02*
D03*
X00720000Y00143000D02*
D03*
Y00733000D02*
D03*
D77*
X00148299Y00597001D02*
D03*
X00232761Y00697659D02*
D03*
X00232761Y00178341D02*
D03*
X00148299Y00278999D02*
D03*
D78*
X00233787Y00656722D02*
D03*
D79*
X00196500Y00357000D02*
D03*
Y00516000D02*
D03*
X00430500Y00688750D02*
D03*
D80*
X00231500Y00357000D02*
D03*
Y00516000D02*
D03*
X00465500Y00688750D02*
D03*
D81*
X00188792Y00272901D02*
D03*
D82*
X00309600Y00448000D02*
D03*
X00335400Y00600400D02*
D03*
X00589400Y00448000D02*
D03*
D83*
X00309600Y00676600D02*
D03*
Y00600400D02*
D03*
Y00625800D02*
D03*
Y00524200D02*
D03*
Y00549600D02*
D03*
Y00473400D02*
D03*
Y00575000D02*
D03*
Y00651200D02*
D03*
Y00498800D02*
D03*
X00335000Y00448000D02*
D03*
X00589400Y00676600D02*
D03*
X00335400D02*
D03*
X00564000D02*
D03*
X00589400Y00651200D02*
D03*
X00335400D02*
D03*
X00564000D02*
D03*
X00589400Y00625800D02*
D03*
X00335400D02*
D03*
X00564000D02*
D03*
X00589400Y00600400D02*
D03*
X00564000D02*
D03*
X00589400Y00575000D02*
D03*
X00335400D02*
D03*
X00564000D02*
D03*
X00589400Y00549600D02*
D03*
X00335400D02*
D03*
X00564000D02*
D03*
X00589400Y00524200D02*
D03*
X00335400D02*
D03*
X00564000D02*
D03*
X00589400Y00498800D02*
D03*
X00335400D02*
D03*
X00564000D02*
D03*
X00589400Y00473400D02*
D03*
X00335400D02*
D03*
X00564000D02*
D03*
Y00448000D02*
D03*
D84*
X00601000Y00295000D02*
D03*
X00575000D02*
D03*
X00626000Y00334000D02*
D03*
X00600000D02*
D03*
D85*
X00627000Y00295000D02*
D03*
X00574000Y00334000D02*
D03*
D86*
X00056750Y00484250D02*
D03*
Y00494250D02*
D03*
X00040750D02*
D03*
Y00484250D02*
D03*
X00057000Y00382000D02*
D03*
Y00392000D02*
D03*
X00041000D02*
D03*
Y00382000D02*
D03*
X00170344Y00138629D02*
D03*
X00163916Y00146290D02*
D03*
X00176173Y00156574D02*
D03*
X00182601Y00148914D02*
D03*
X00104428Y00216797D02*
D03*
X00098000Y00224457D02*
D03*
X00110257Y00234742D02*
D03*
X00116685Y00227081D02*
D03*
X00327902Y00068604D02*
D03*
X00318054Y00070340D02*
D03*
X00315275Y00054583D02*
D03*
X00325124Y00052847D02*
D03*
X00428642Y00051094D02*
D03*
X00418794Y00052831D02*
D03*
X00416016Y00037074D02*
D03*
X00425864Y00035337D02*
D03*
X00687998Y00120456D02*
D03*
X00679337Y00115456D02*
D03*
X00671337Y00129312D02*
D03*
X00679997Y00134312D02*
D03*
X00599571Y00069114D02*
D03*
X00590911Y00064114D02*
D03*
X00582911Y00077971D02*
D03*
X00591571Y00082971D02*
D03*
X00784319Y00263460D02*
D03*
X00780899Y00254063D02*
D03*
X00795934Y00248591D02*
D03*
X00799354Y00257988D02*
D03*
X00819055Y00359629D02*
D03*
X00815635Y00350232D02*
D03*
X00830670Y00344760D02*
D03*
X00834091Y00354157D02*
D03*
X00795784Y00627089D02*
D03*
X00799204Y00617692D02*
D03*
X00784169Y00612220D02*
D03*
X00780749Y00621617D02*
D03*
X00830991Y00531091D02*
D03*
X00834411Y00521694D02*
D03*
X00819376Y00516222D02*
D03*
X00815956Y00525619D02*
D03*
X00671679Y00746779D02*
D03*
X00680339Y00741779D02*
D03*
X00688339Y00755636D02*
D03*
X00679679Y00760636D02*
D03*
X00583003Y00797688D02*
D03*
X00591663Y00792688D02*
D03*
X00599663Y00806544D02*
D03*
X00591003Y00811544D02*
D03*
X00315565Y00821214D02*
D03*
X00325413Y00822951D02*
D03*
X00328192Y00807194D02*
D03*
X00318344Y00805457D02*
D03*
X00416218Y00839216D02*
D03*
X00426066Y00840952D02*
D03*
X00428845Y00825195D02*
D03*
X00418997Y00823459D02*
D03*
X00176142Y00719778D02*
D03*
X00182570Y00727438D02*
D03*
X00170313Y00737723D02*
D03*
X00163886Y00730062D02*
D03*
X00110609Y00641289D02*
D03*
X00117037Y00648950D02*
D03*
X00104780Y00659234D02*
D03*
X00098352Y00651574D02*
D03*
X00500540Y00503000D02*
D03*
X00487000Y00477000D02*
D03*
X00710000Y00224000D02*
D03*
X00708000Y00233000D02*
D03*
X00676000Y00247000D02*
D03*
X00630000Y00382000D02*
D03*
X00661000Y00333000D02*
D03*
X00677000Y00277000D02*
D03*
X00508000Y00452000D02*
D03*
Y00462000D02*
D03*
X00416000Y00242000D02*
D03*
X00436000Y00552000D02*
D03*
X00456000Y00550000D02*
D03*
X00406000D02*
D03*
X00347000Y00489862D02*
D03*
X00393000Y00498000D02*
D03*
X00346965Y00534035D02*
D03*
X00515000Y00524000D02*
D03*
X00439150Y00528750D02*
D03*
X00457500D02*
D03*
X00475850D02*
D03*
X00441000Y00595000D02*
D03*
X00475850Y00510400D02*
D03*
X00381000Y00461000D02*
D03*
X00475850Y00492050D02*
D03*
X00457500D02*
D03*
X00439150D02*
D03*
X00457500Y00510400D02*
D03*
X00439150D02*
D03*
X00538000Y00657000D02*
D03*
X00515000D02*
D03*
X00289000Y00424000D02*
D03*
X00279000D02*
D03*
X00806000Y00434000D02*
D03*
X00807000Y00444000D02*
D03*
D87*
X00742000Y00643000D02*
D03*
X00080000Y00524000D02*
D03*
D88*
X00365752Y00024409D02*
D03*
X00843327Y00287483D02*
D03*
X00829117Y00620773D02*
D03*
D89*
X00049000Y00387000D02*
D03*
X00048750Y00489000D02*
D03*
D90*
X00044000Y00418000D02*
D03*
Y00458000D02*
D03*
X00116000Y00418000D02*
D03*
Y00458000D02*
D03*
X00178946Y00245058D02*
D03*
X00204657Y00214416D02*
D03*
X00123791Y00198777D02*
D03*
X00149502Y00168135D02*
D03*
X00390932Y00044543D02*
D03*
X00351539Y00051489D02*
D03*
X00403434Y00115449D02*
D03*
X00364042Y00122395D02*
D03*
X00584679Y00147408D02*
D03*
X00619320Y00167408D02*
D03*
X00620680Y00085054D02*
D03*
X00655321Y00105054D02*
D03*
X00818959Y00321354D02*
D03*
X00805278Y00283766D02*
D03*
X00751301Y00345979D02*
D03*
X00737620Y00308392D02*
D03*
X00751301Y00530021D02*
D03*
X00737620Y00567608D02*
D03*
X00818959Y00554646D02*
D03*
X00805278Y00592234D02*
D03*
X00620680Y00790946D02*
D03*
X00655321Y00770946D02*
D03*
X00584679Y00728592D02*
D03*
X00619320Y00708592D02*
D03*
X00403434Y00760551D02*
D03*
X00364042Y00753605D02*
D03*
X00390932Y00831457D02*
D03*
X00351539Y00824511D02*
D03*
X00123791Y00677223D02*
D03*
X00149502Y00707865D02*
D03*
X00178946Y00630942D02*
D03*
X00204657Y00661584D02*
D03*
D91*
X00107503Y00225578D02*
D03*
X00173259Y00147602D02*
D03*
D92*
X00422329Y00044084D02*
D03*
X00321835Y00061550D02*
D03*
D93*
X00591458Y00073667D02*
D03*
X00679667Y00124884D02*
D03*
D94*
X00824863Y00352194D02*
D03*
X00790212Y00256260D02*
D03*
D95*
X00825098Y00523891D02*
D03*
X00789977Y00619654D02*
D03*
D96*
X00591333Y00802116D02*
D03*
X00679792Y00751332D02*
D03*
D97*
X00422285Y00832162D02*
D03*
X00321878Y00814204D02*
D03*
D98*
X00107695Y00650262D02*
D03*
X00173067Y00728559D02*
D03*
M02*
