G04*
G04 #@! TF.GenerationSoftware,Altium Limited,Altium Designer,21.7.2 (23)*
G04*
G04 Layer_Color=32896*
%FSAX44Y44*%
%MOMM*%
G71*
G04*
G04 #@! TF.SameCoordinates,BC3DF66D-9A31-43CB-B5B9-6859CD03794F*
G04*
G04*
G04 #@! TF.FilePolarity,Positive*
G04*
G01*
G75*
%ADD13C,0.5000*%
%ADD14C,0.2000*%
%ADD102C,0.1500*%
D13*
X00084426Y00359531D02*
G03*
X00112217Y00271210I00344824J00059969D01*
G01*
X00093391Y00284697D02*
X00112217Y00271210D01*
X00112250Y00271500D02*
X00113653Y00292540D01*
D14*
X00254000Y00516000D02*
G03*
X00254000Y00516000I-00040000J00000000D01*
G01*
Y00357000D02*
G03*
X00254000Y00357000I-00040000J00000000D01*
G01*
X00443126Y00056918D02*
X00449690Y00055760D01*
X00452393Y00051900D01*
X00448532Y00049197D01*
X00441969Y00050354D01*
X00441390Y00047073D02*
X00451235Y00045337D01*
X00450367Y00040414D01*
X00448437Y00039063D01*
X00441874Y00040220D01*
X00440522Y00042150D01*
X00441390Y00047073D01*
X00439655Y00037228D02*
X00449499Y00035492D01*
X00448631Y00030569D01*
X00446701Y00029218D01*
X00440138Y00030375D01*
X00438787Y00032305D01*
X00439655Y00037228D01*
X00295230Y00090611D02*
X00305075Y00088875D01*
X00304207Y00083953D01*
X00302277Y00082601D01*
X00295714Y00083759D01*
X00294363Y00085689D01*
X00295230Y00090611D01*
X00303339Y00079030D02*
X00296776Y00080188D01*
X00292916Y00077485D01*
X00295619Y00073625D01*
X00302182Y00072467D01*
X00297260Y00073335D01*
X00298417Y00079898D01*
X00291759Y00070922D02*
X00290601Y00064358D01*
X00291180Y00067640D01*
X00301025Y00065904D01*
X00299868Y00059341D02*
X00293304Y00060498D01*
X00289444Y00057795D01*
X00292147Y00053935D01*
X00298710Y00052777D01*
X00293788Y00053645D01*
X00294945Y00060209D01*
X00337838Y00129364D02*
X00337259Y00126082D01*
X00337549Y00127723D01*
X00347394Y00125987D01*
X00347683Y00127628D01*
X00347104Y00124346D01*
X00335524Y00116237D02*
X00336102Y00119519D01*
X00338032Y00120870D01*
X00344596Y00119713D01*
X00345947Y00117783D01*
X00345368Y00114501D01*
X00343438Y00113150D01*
X00336875Y00114307D01*
X00335524Y00116237D01*
X00418181Y00110550D02*
X00419338Y00117114D01*
X00424261Y00116246D01*
X00422041Y00113253D01*
X00421752Y00111613D01*
X00423103Y00109682D01*
X00426385Y00109104D01*
X00428315Y00110455D01*
X00428894Y00113737D01*
X00427542Y00115667D01*
X00417602Y00107269D02*
X00424165Y00106111D01*
X00426869Y00102251D01*
X00423008Y00099548D01*
X00416445Y00100705D01*
X00847224Y00373707D02*
X00844944Y00367445D01*
X00840673Y00365453D01*
X00838682Y00369724D01*
X00840961Y00375987D01*
X00837830Y00377126D02*
X00834411Y00367733D01*
X00829714Y00369442D01*
X00828718Y00371577D01*
X00830997Y00377840D01*
X00833133Y00378836D01*
X00837830Y00377126D01*
X00828436Y00380546D02*
X00825017Y00371152D01*
X00820320Y00372861D01*
X00819324Y00374997D01*
X00821603Y00381259D01*
X00823739Y00382255D01*
X00828436Y00380546D01*
X00767711Y00365737D02*
X00773974Y00363457D01*
X00772264Y00358760D01*
X00769703Y00361466D01*
X00768137Y00362035D01*
X00766002Y00361040D01*
X00764862Y00357908D01*
X00765858Y00355773D01*
X00768989Y00354633D01*
X00771124Y00355629D01*
X00764580Y00366876D02*
X00762300Y00360614D01*
X00758029Y00358622D01*
X00756038Y00362893D01*
X00758317Y00369156D01*
X00743474Y00290707D02*
X00740342Y00291847D01*
X00741908Y00291277D01*
X00738489Y00281883D01*
X00740055Y00281313D01*
X00736923Y00282453D01*
X00730949Y00295266D02*
X00734080Y00294126D01*
X00735076Y00291991D01*
X00732796Y00285728D01*
X00730661Y00284732D01*
X00727530Y00285872D01*
X00726534Y00288008D01*
X00728813Y00294270D01*
X00730949Y00295266D01*
X00792724Y00216957D02*
X00789305Y00207563D01*
X00784608Y00209273D01*
X00783612Y00211408D01*
X00785891Y00217671D01*
X00788027Y00218667D01*
X00792724Y00216957D01*
X00779911Y00210982D02*
X00782190Y00217245D01*
X00780199Y00221516D01*
X00775928Y00219524D01*
X00773648Y00213262D01*
X00775358Y00217959D01*
X00781620Y00215679D01*
X00773936Y00223796D02*
X00767673Y00226075D01*
X00770805Y00224935D01*
X00767386Y00215541D01*
X00761123Y00217821D02*
X00763402Y00224083D01*
X00761411Y00228354D01*
X00757140Y00226363D01*
X00754860Y00220100D01*
X00756570Y00224797D01*
X00762832Y00222518D01*
X00570621Y00825452D02*
X00576393Y00822120D01*
X00577612Y00817568D01*
X00573060Y00816348D01*
X00567289Y00819681D01*
X00565622Y00816795D02*
X00574280Y00811796D01*
X00571781Y00807468D01*
X00569505Y00806858D01*
X00563733Y00810190D01*
X00563123Y00812466D01*
X00565622Y00816795D01*
X00560624Y00808137D02*
X00569282Y00803139D01*
X00566782Y00798810D01*
X00564506Y00798201D01*
X00558735Y00801533D01*
X00558125Y00803809D01*
X00560624Y00808137D01*
X00701111Y00756266D02*
X00709768Y00751268D01*
X00707269Y00746939D01*
X00704993Y00746329D01*
X00699221Y00749662D01*
X00698611Y00751938D01*
X00701111Y00756266D01*
X00704770Y00742610D02*
X00698998Y00745943D01*
X00694446Y00744723D01*
X00695666Y00740171D01*
X00701437Y00736839D01*
X00697109Y00739338D01*
X00700441Y00745110D01*
X00691114Y00738951D02*
X00687782Y00733180D01*
X00689448Y00736066D01*
X00698105Y00731067D01*
X00694773Y00725295D02*
X00689001Y00728628D01*
X00684449Y00727408D01*
X00685669Y00722856D01*
X00691441Y00719524D01*
X00687112Y00722023D01*
X00690444Y00727795D01*
X00640611Y00712766D02*
X00638944Y00709881D01*
X00639777Y00711323D01*
X00648435Y00706325D01*
X00649268Y00707768D01*
X00647602Y00704882D01*
X00633946Y00701223D02*
X00635612Y00704109D01*
X00637888Y00704719D01*
X00643660Y00701386D01*
X00644270Y00699110D01*
X00642603Y00696225D01*
X00640328Y00695615D01*
X00634556Y00698947D01*
X00633946Y00701223D01*
X00564528Y00747995D02*
X00567860Y00753766D01*
X00572189Y00751267D01*
X00569080Y00749214D01*
X00568247Y00747772D01*
X00568857Y00745496D01*
X00571743Y00743829D01*
X00574019Y00744439D01*
X00575685Y00747325D01*
X00575075Y00749601D01*
X00562862Y00745109D02*
X00568634Y00741777D01*
X00569853Y00737225D01*
X00565302Y00736005D01*
X00559530Y00739337D01*
X00209651Y00202371D02*
X00214757Y00206654D01*
X00217969Y00202826D01*
X00214346Y00201960D01*
X00213069Y00200889D01*
X00212864Y00198542D01*
X00215006Y00195989D01*
X00217353Y00195784D01*
X00219906Y00197926D01*
X00220111Y00200273D01*
X00207099Y00200229D02*
X00211383Y00195123D01*
X00210972Y00190429D01*
X00206277Y00190840D01*
X00201993Y00195945D01*
X00099256Y00255404D02*
X00103540Y00250299D01*
X00103130Y00245605D01*
X00098435Y00246015D01*
X00094151Y00251121D01*
X00091599Y00248979D02*
X00098024Y00241321D01*
X00094195Y00238108D01*
X00091848Y00238313D01*
X00087564Y00243419D01*
X00087770Y00245766D01*
X00091599Y00248979D01*
X00083941Y00242553D02*
X00090366Y00234895D01*
X00086537Y00231682D01*
X00084190Y00231887D01*
X00079906Y00236993D01*
X00080112Y00239340D01*
X00083941Y00242553D01*
X00163757Y00265655D02*
X00161204Y00263512D01*
X00162480Y00264583D01*
X00168906Y00256926D01*
X00170182Y00257997D01*
X00167630Y00255855D01*
X00153546Y00257087D02*
X00156098Y00259229D01*
X00158446Y00259023D01*
X00162730Y00253918D01*
X00162524Y00251571D01*
X00159972Y00249429D01*
X00157624Y00249634D01*
X00153341Y00254739D01*
X00153546Y00257087D01*
X00199256Y00146154D02*
X00205682Y00138497D01*
X00201853Y00135284D01*
X00199506Y00135489D01*
X00195222Y00140594D01*
X00195427Y00142942D01*
X00199256Y00146154D01*
X00198024Y00132071D02*
X00193741Y00137176D01*
X00189046Y00137587D01*
X00188635Y00132892D01*
X00192919Y00127787D01*
X00189706Y00131616D01*
X00194811Y00135900D01*
X00183941Y00133303D02*
X00178835Y00129019D01*
X00181388Y00131161D01*
X00187814Y00123503D01*
X00182708Y00119219D02*
X00178425Y00124324D01*
X00173730Y00124735D01*
X00173319Y00120041D01*
X00177603Y00114935D01*
X00174390Y00118764D01*
X00179496Y00123048D01*
X00837416Y00582248D02*
X00840748D01*
X00839082D01*
Y00573918D01*
X00840748Y00572252D01*
X00842414D01*
X00844081Y00573918D01*
X00827419Y00582248D02*
X00830752Y00580582D01*
X00834084Y00577250D01*
Y00573918D01*
X00832418Y00572252D01*
X00829085D01*
X00827419Y00573918D01*
Y00575584D01*
X00829085Y00577250D01*
X00834084D01*
X00120910Y00176328D02*
X00117578D01*
X00119244D01*
Y00167997D01*
X00117578Y00166331D01*
X00115912D01*
X00114245Y00167997D01*
X00130907Y00166331D02*
X00124242D01*
X00130907Y00172995D01*
Y00174662D01*
X00129241Y00176328D01*
X00125908D01*
X00124242Y00174662D01*
X00835166Y00301998D02*
X00838498D01*
X00836832D01*
Y00293668D01*
X00838498Y00292002D01*
X00840164D01*
X00841831Y00293668D01*
X00825169Y00301998D02*
X00831834D01*
Y00297000D01*
X00828502Y00298666D01*
X00826835D01*
X00825169Y00297000D01*
Y00293668D01*
X00826835Y00292002D01*
X00830168D01*
X00831834Y00293668D01*
X00371666Y00857248D02*
X00374998D01*
X00373332D01*
Y00848918D01*
X00374998Y00847252D01*
X00376665D01*
X00378331Y00848918D01*
X00368334Y00855582D02*
X00366668Y00857248D01*
X00363335D01*
X00361669Y00855582D01*
Y00853916D01*
X00363335Y00852250D01*
X00361669Y00850584D01*
Y00848918D01*
X00363335Y00847252D01*
X00366668D01*
X00368334Y00848918D01*
Y00850584D01*
X00366668Y00852250D01*
X00368334Y00853916D01*
Y00855582D01*
X00366668Y00852250D02*
X00363335D01*
X00454717Y00823803D02*
X00448154Y00822645D01*
X00444294Y00825349D01*
X00446997Y00829209D01*
X00453560Y00830366D01*
X00452981Y00833648D02*
X00443136Y00831912D01*
X00442268Y00836834D01*
X00443620Y00838764D01*
X00450183Y00839922D01*
X00452113Y00838570D01*
X00452981Y00833648D01*
X00451245Y00843493D02*
X00441400Y00841757D01*
X00440532Y00846679D01*
X00441884Y00848609D01*
X00448447Y00849766D01*
X00450377Y00848415D01*
X00451245Y00843493D01*
X00308467Y00791303D02*
X00298622Y00789567D01*
X00297754Y00794489D01*
X00299106Y00796419D01*
X00305669Y00797577D01*
X00307599Y00796225D01*
X00308467Y00791303D01*
X00296886Y00799412D02*
X00303450Y00800569D01*
X00306153Y00804429D01*
X00302292Y00807132D01*
X00295729Y00805975D01*
X00300652Y00806843D01*
X00301809Y00800280D01*
X00304995Y00810993D02*
X00303838Y00817556D01*
X00304417Y00814274D01*
X00294572Y00812538D01*
X00293415Y00819102D02*
X00299978Y00820259D01*
X00302681Y00824119D01*
X00298820Y00826822D01*
X00292257Y00825665D01*
X00297180Y00826533D01*
X00298337Y00819969D01*
X00347967Y00744303D02*
X00347389Y00747584D01*
X00347678Y00745944D01*
X00337833Y00744208D01*
X00338122Y00742567D01*
X00337544Y00745848D01*
X00345653Y00757429D02*
X00346231Y00754148D01*
X00344880Y00752217D01*
X00338317Y00751060D01*
X00336386Y00752412D01*
X00335808Y00755693D01*
X00337159Y00757624D01*
X00343722Y00758781D01*
X00345653Y00757429D01*
X00428560Y00770366D02*
X00429717Y00763803D01*
X00424795Y00762935D01*
X00425857Y00766506D01*
X00425568Y00768147D01*
X00423638Y00769498D01*
X00420356Y00768919D01*
X00419004Y00766989D01*
X00419583Y00763708D01*
X00421513Y00762356D01*
X00427981Y00773648D02*
X00421418Y00772490D01*
X00417558Y00775193D01*
X00420261Y00779054D01*
X00426824Y00780211D01*
X00646334Y00083748D02*
X00643002D01*
X00644668D01*
Y00075418D01*
X00643002Y00073752D01*
X00641336D01*
X00639669Y00075418D01*
X00654665Y00073752D02*
Y00083748D01*
X00649666Y00078750D01*
X00656331D01*
X00579640Y00055980D02*
X00573868Y00052648D01*
X00569316Y00053868D01*
X00570536Y00058420D01*
X00576307Y00061752D01*
X00574641Y00064638D02*
X00565984Y00059640D01*
X00563484Y00063968D01*
X00564094Y00066244D01*
X00569866Y00069576D01*
X00572142Y00068967D01*
X00574641Y00064638D01*
X00569643Y00073295D02*
X00560985Y00068297D01*
X00558486Y00072626D01*
X00559096Y00074902D01*
X00564868Y00078234D01*
X00567144Y00077624D01*
X00569643Y00073295D01*
X00711140Y00122730D02*
X00702482Y00117732D01*
X00699983Y00122061D01*
X00700593Y00124337D01*
X00706364Y00127669D01*
X00708640Y00127059D01*
X00711140Y00122730D01*
X00697484Y00126390D02*
X00703255Y00129722D01*
X00704475Y00134274D01*
X00699923Y00135493D01*
X00694151Y00132161D01*
X00698480Y00134660D01*
X00701812Y00128889D01*
X00701143Y00140045D02*
X00697811Y00145817D01*
X00699477Y00142931D01*
X00690819Y00137933D01*
X00687487Y00143704D02*
X00693259Y00147037D01*
X00694478Y00151589D01*
X00689926Y00152808D01*
X00684155Y00149476D01*
X00688483Y00151975D01*
X00691816Y00146204D01*
X00650139Y00170480D02*
X00648473Y00173366D01*
X00649306Y00171923D01*
X00640649Y00166925D01*
X00641482Y00165482D01*
X00639816Y00168368D01*
X00643475Y00182024D02*
X00645141Y00179138D01*
X00644531Y00176862D01*
X00638760Y00173530D01*
X00636484Y00174139D01*
X00634818Y00177025D01*
X00635427Y00179301D01*
X00641199Y00182633D01*
X00643475Y00182024D01*
X00571557Y00131502D02*
X00574889Y00125730D01*
X00570561Y00123231D01*
X00570338Y00126950D01*
X00569505Y00128393D01*
X00567229Y00129003D01*
X00564343Y00127337D01*
X00563733Y00125061D01*
X00565399Y00122175D01*
X00567675Y00121565D01*
X00569891Y00134388D02*
X00564119Y00131056D01*
X00559567Y00132275D01*
X00560787Y00136827D01*
X00566559Y00140160D01*
X00119839Y00713044D02*
X00123171D01*
X00121505D01*
Y00704713D01*
X00123171Y00703047D01*
X00124837D01*
X00126503Y00704713D01*
X00116506D02*
X00114840Y00703047D01*
X00111508D01*
X00109842Y00704713D01*
Y00711378D01*
X00111508Y00713044D01*
X00114840D01*
X00116506Y00711378D01*
Y00709712D01*
X00114840Y00708045D01*
X00109842D01*
X00108410Y00625834D02*
X00104126Y00620728D01*
X00099431Y00620317D01*
X00099021Y00625012D01*
X00103305Y00630117D01*
X00100752Y00632259D02*
X00094326Y00624601D01*
X00090497Y00627814D01*
X00090292Y00630162D01*
X00094576Y00635267D01*
X00096923Y00635472D01*
X00100752Y00632259D01*
X00093094Y00638685D02*
X00086668Y00631027D01*
X00082839Y00634240D01*
X00082634Y00636587D01*
X00086918Y00641693D01*
X00089265Y00641898D01*
X00093094Y00638685D01*
X00211537Y00737068D02*
X00205112Y00729410D01*
X00201283Y00732623D01*
X00201077Y00734971D01*
X00205361Y00740076D01*
X00207708Y00740281D01*
X00211537Y00737068D01*
X00197454Y00735836D02*
X00201737Y00740941D01*
X00201327Y00745636D01*
X00196632Y00745225D01*
X00192348Y00740120D01*
X00195561Y00743949D01*
X00200667Y00739665D01*
X00196222Y00749920D02*
X00191116Y00754204D01*
X00193669Y00752062D01*
X00187243Y00744404D01*
X00182138Y00748688D02*
X00186422Y00753793D01*
X00186011Y00758488D01*
X00181316Y00758077D01*
X00177032Y00752972D01*
X00180245Y00756801D01*
X00185351Y00752517D01*
X00221429Y00679226D02*
X00218877Y00681367D01*
X00220153Y00680297D01*
X00213727Y00672639D01*
X00215004Y00671568D01*
X00212451Y00673710D01*
X00211219Y00687793D02*
X00213771Y00685651D01*
X00213977Y00683304D01*
X00209693Y00678199D01*
X00207346Y00677993D01*
X00204793Y00680135D01*
X00204587Y00682483D01*
X00208871Y00687588D01*
X00211219Y00687793D01*
X00168074Y00621510D02*
X00173179Y00617226D01*
X00169966Y00613397D01*
X00168485Y00616815D01*
X00167208Y00617886D01*
X00164861Y00617681D01*
X00162719Y00615128D01*
X00162924Y00612780D01*
X00165477Y00610639D01*
X00167824Y00610844D01*
X00165521Y00623651D02*
X00161237Y00618546D01*
X00156543Y00618135D01*
X00156132Y00622830D01*
X00160416Y00627935D01*
X00651916Y00804248D02*
X00655248D01*
X00653582D01*
Y00795918D01*
X00655248Y00794252D01*
X00656915D01*
X00658581Y00795918D01*
X00648584Y00804248D02*
X00641919D01*
Y00802582D01*
X00648584Y00795918D01*
Y00794252D01*
X00844768Y00511089D02*
X00847047Y00504827D01*
X00845055Y00500556D01*
X00840784Y00502547D01*
X00838505Y00508810D01*
X00835374Y00507670D02*
X00838793Y00498276D01*
X00834096Y00496567D01*
X00831960Y00497562D01*
X00829681Y00503825D01*
X00830677Y00505961D01*
X00835374Y00507670D01*
X00825980Y00504251D02*
X00829399Y00494857D01*
X00824702Y00493148D01*
X00822566Y00494143D01*
X00820287Y00500406D01*
X00821283Y00502542D01*
X00825980Y00504251D01*
X00790768Y00651339D02*
X00794187Y00641945D01*
X00789490Y00640236D01*
X00787354Y00641232D01*
X00785075Y00647494D01*
X00786070Y00649630D01*
X00790768Y00651339D01*
X00784793Y00638526D02*
X00782513Y00644789D01*
X00778242Y00646780D01*
X00776251Y00642509D01*
X00778530Y00636247D01*
X00776821Y00640944D01*
X00783083Y00643223D01*
X00771980Y00644501D02*
X00765717Y00642222D01*
X00768848Y00643361D01*
X00772268Y00633968D01*
X00766005Y00631688D02*
X00763726Y00637951D01*
X00759454Y00639942D01*
X00757463Y00635671D01*
X00759742Y00629409D01*
X00758033Y00634106D01*
X00764295Y00636385D01*
X00742767Y00595339D02*
X00739636Y00594199D01*
X00741202Y00594769D01*
X00744621Y00585376D01*
X00746187Y00585945D01*
X00743055Y00584806D01*
X00730242Y00590780D02*
X00733374Y00591920D01*
X00735509Y00590924D01*
X00737788Y00584662D01*
X00736793Y00582526D01*
X00733661Y00581386D01*
X00731526Y00582382D01*
X00729247Y00588645D01*
X00730242Y00590780D01*
X00764755Y00518310D02*
X00771018Y00520589D01*
X00772727Y00515892D01*
X00769026Y00516318D01*
X00767460Y00515748D01*
X00766464Y00513613D01*
X00767604Y00510482D01*
X00769740Y00509486D01*
X00772871Y00510625D01*
X00773867Y00512761D01*
X00761624Y00517170D02*
X00763903Y00510908D01*
X00761911Y00506637D01*
X00757640Y00508628D01*
X00755361Y00514891D01*
X00369416Y00032998D02*
X00372748D01*
X00371082D01*
Y00024668D01*
X00372748Y00023002D01*
X00374414D01*
X00376081Y00024668D01*
X00366084Y00031332D02*
X00364418Y00032998D01*
X00361086D01*
X00359419Y00031332D01*
Y00029666D01*
X00361086Y00028000D01*
X00362752D01*
X00361086D01*
X00359419Y00026334D01*
Y00024668D01*
X00361086Y00023002D01*
X00364418D01*
X00366084Y00024668D01*
X00021916Y00442998D02*
X00025248D01*
X00023582D01*
Y00434668D01*
X00025248Y00433002D01*
X00026914D01*
X00028581Y00434668D01*
X00018584Y00433002D02*
X00015251D01*
X00016918D01*
Y00442998D01*
X00018584Y00441332D01*
X00065250Y00368747D02*
Y00362082D01*
X00061918Y00358750D01*
X00058586Y00362082D01*
Y00368747D01*
X00055253D02*
Y00358750D01*
X00050255D01*
X00048589Y00360416D01*
Y00367081D01*
X00050255Y00368747D01*
X00055253D01*
X00045256D02*
Y00358750D01*
X00040258D01*
X00038592Y00360416D01*
Y00367081D01*
X00040258Y00368747D01*
X00045256D01*
X00072750Y00520247D02*
Y00510250D01*
X00067752D01*
X00066086Y00511916D01*
Y00518581D01*
X00067752Y00520247D01*
X00072750D01*
X00062753Y00510250D02*
Y00516914D01*
X00059421Y00520247D01*
X00056089Y00516914D01*
Y00510250D01*
Y00515248D01*
X00062753D01*
X00052757Y00520247D02*
X00046092D01*
X00049424D01*
Y00510250D01*
X00042760D02*
Y00516914D01*
X00039427Y00520247D01*
X00036095Y00516914D01*
Y00510250D01*
Y00515248D01*
X00042760D01*
X00131250Y00483247D02*
X00127918D01*
X00129584D01*
Y00473250D01*
X00131250D01*
X00127918D01*
X00117921Y00483247D02*
X00121253D01*
X00122919Y00481581D01*
Y00474916D01*
X00121253Y00473250D01*
X00117921D01*
X00116255Y00474916D01*
Y00481581D01*
X00117921Y00483247D01*
X00121835Y00404497D02*
X00128500D01*
Y00399498D01*
X00125168Y00401165D01*
X00123502D01*
X00121835Y00399498D01*
Y00396166D01*
X00123502Y00394500D01*
X00126834D01*
X00128500Y00396166D01*
X00118503Y00404497D02*
Y00397832D01*
X00115171Y00394500D01*
X00111839Y00397832D01*
Y00404497D01*
X00193500Y00500502D02*
X00200165D01*
X00196832Y00497169D02*
Y00503834D01*
X00192000Y00339752D02*
X00198664D01*
X00195332Y00336419D02*
Y00343084D01*
X00181666Y00411332D02*
X00183332Y00412998D01*
X00186665D01*
X00188331Y00411332D01*
Y00404668D01*
X00186665Y00403002D01*
X00183332D01*
X00181666Y00404668D01*
X00178334Y00411332D02*
X00176668Y00412998D01*
X00173335D01*
X00171669Y00411332D01*
Y00409666D01*
X00173335Y00408000D01*
X00175002D01*
X00173335D01*
X00171669Y00406334D01*
Y00404668D01*
X00173335Y00403002D01*
X00176668D01*
X00178334Y00404668D01*
X00169000Y00557332D02*
X00170666Y00558998D01*
X00173998D01*
X00175665Y00557332D01*
Y00550668D01*
X00173998Y00549002D01*
X00170666D01*
X00169000Y00550668D01*
X00165668Y00549002D02*
X00162335D01*
X00164002D01*
Y00558998D01*
X00165668Y00557332D01*
D102*
X00542168Y00774497D02*
X00544834D01*
X00543501D01*
Y00767833D01*
X00544834Y00766500D01*
X00546167D01*
X00547500Y00767833D01*
X00539503Y00774497D02*
Y00766500D01*
X00534171D01*
X00526174Y00773165D02*
X00527506Y00774497D01*
X00530172D01*
X00531505Y00773165D01*
Y00767833D01*
X00530172Y00766500D01*
X00527506D01*
X00526174Y00767833D01*
X00518176Y00774497D02*
X00520842D01*
X00519509D01*
Y00767833D01*
X00520842Y00766500D01*
X00522175D01*
X00523508Y00767833D01*
X00515510Y00774497D02*
Y00766500D01*
X00510179D01*
X00502181Y00773165D02*
X00503514Y00774497D01*
X00506180D01*
X00507513Y00773165D01*
Y00767833D01*
X00506180Y00766500D01*
X00503514D01*
X00502181Y00767833D01*
X00494184Y00774497D02*
X00496850D01*
X00495517D01*
Y00767833D01*
X00496850Y00766500D01*
X00498183D01*
X00499515Y00767833D01*
X00491518Y00774497D02*
Y00766500D01*
X00486186D01*
X00478189Y00773165D02*
X00479522Y00774497D01*
X00482188D01*
X00483521Y00773165D01*
Y00767833D01*
X00482188Y00766500D01*
X00479522D01*
X00478189Y00767833D01*
X00470192Y00774497D02*
X00472858D01*
X00471525D01*
Y00767833D01*
X00472858Y00766500D01*
X00474190D01*
X00475523Y00767833D01*
X00467526Y00774497D02*
Y00766500D01*
X00462194D01*
X00454197Y00773165D02*
X00455530Y00774497D01*
X00458195D01*
X00459528Y00773165D01*
Y00767833D01*
X00458195Y00766500D01*
X00455530D01*
X00454197Y00767833D01*
M02*
