G04*
G04 #@! TF.GenerationSoftware,Altium Limited,Altium Designer,21.7.2 (23)*
G04*
G04 Layer_Color=8388736*
%FSAX44Y44*%
%MOMM*%
G71*
G04*
G04 #@! TF.SameCoordinates,E92E468F-2344-4334-A9F0-42BD54299544*
G04*
G04*
G04 #@! TF.FilePolarity,Negative*
G04*
G01*
G75*
%ADD11C,0.6000*%
%ADD21R,1.3300X1.3300*%
%ADD22R,0.9000X2.0000*%
%ADD23R,2.0000X0.9000*%
%ADD31R,1.5000X1.3000*%
%ADD32R,2.2000X1.0000*%
%ADD33R,2.2000X3.3000*%
%ADD34O,1.9500X0.5500*%
%ADD35R,0.9500X1.4500*%
%ADD36R,1.4500X0.9500*%
%ADD37R,1.3000X1.2000*%
%ADD38R,1.0000X0.9000*%
%ADD39R,0.9000X1.0000*%
%ADD40R,1.3000X1.5000*%
%ADD41R,1.4500X0.5000*%
%ADD42R,2.0000X1.6000*%
%ADD43R,2.3000X10.3000*%
G04:AMPARAMS|DCode=44|XSize=2.3mm|YSize=10.3mm|CornerRadius=0mm|HoleSize=0mm|Usage=FLASHONLY|Rotation=40.000|XOffset=0mm|YOffset=0mm|HoleType=Round|Shape=Rectangle|*
%AMROTATEDRECTD44*
4,1,4,2.4294,-4.6843,-4.1913,3.2059,-2.4294,4.6843,4.1913,-3.2059,2.4294,-4.6843,0.0*
%
%ADD44ROTATEDRECTD44*%

G04:AMPARAMS|DCode=45|XSize=2.3mm|YSize=10.3mm|CornerRadius=0mm|HoleSize=0mm|Usage=FLASHONLY|Rotation=80.000|XOffset=0mm|YOffset=0mm|HoleType=Round|Shape=Rectangle|*
%AMROTATEDRECTD45*
4,1,4,4.8721,-2.0268,-5.2715,-0.2382,-4.8721,2.0268,5.2715,0.2382,4.8721,-2.0268,0.0*
%
%ADD45ROTATEDRECTD45*%

G04:AMPARAMS|DCode=46|XSize=2.3mm|YSize=10.3mm|CornerRadius=0mm|HoleSize=0mm|Usage=FLASHONLY|Rotation=120.000|XOffset=0mm|YOffset=0mm|HoleType=Round|Shape=Rectangle|*
%AMROTATEDRECTD46*
4,1,4,5.0350,1.5791,-3.8850,-3.5709,-5.0350,-1.5791,3.8850,3.5709,5.0350,1.5791,0.0*
%
%ADD46ROTATEDRECTD46*%

G04:AMPARAMS|DCode=47|XSize=2.3mm|YSize=10.3mm|CornerRadius=0mm|HoleSize=0mm|Usage=FLASHONLY|Rotation=160.000|XOffset=0mm|YOffset=0mm|HoleType=Round|Shape=Rectangle|*
%AMROTATEDRECTD47*
4,1,4,2.8421,4.4461,-0.6808,-5.2327,-2.8421,-4.4461,0.6808,5.2327,2.8421,4.4461,0.0*
%
%ADD47ROTATEDRECTD47*%

G04:AMPARAMS|DCode=48|XSize=2.3mm|YSize=10.3mm|CornerRadius=0mm|HoleSize=0mm|Usage=FLASHONLY|Rotation=200.000|XOffset=0mm|YOffset=0mm|HoleType=Round|Shape=Rectangle|*
%AMROTATEDRECTD48*
4,1,4,-0.6808,5.2327,2.8421,-4.4461,0.6808,-5.2327,-2.8421,4.4461,-0.6808,5.2327,0.0*
%
%ADD48ROTATEDRECTD48*%

G04:AMPARAMS|DCode=49|XSize=2.3mm|YSize=10.3mm|CornerRadius=0mm|HoleSize=0mm|Usage=FLASHONLY|Rotation=240.000|XOffset=0mm|YOffset=0mm|HoleType=Round|Shape=Rectangle|*
%AMROTATEDRECTD49*
4,1,4,-3.8850,3.5709,5.0350,-1.5791,3.8850,-3.5709,-5.0350,1.5791,-3.8850,3.5709,0.0*
%
%ADD49ROTATEDRECTD49*%

G04:AMPARAMS|DCode=50|XSize=2.3mm|YSize=10.3mm|CornerRadius=0mm|HoleSize=0mm|Usage=FLASHONLY|Rotation=280.000|XOffset=0mm|YOffset=0mm|HoleType=Round|Shape=Rectangle|*
%AMROTATEDRECTD50*
4,1,4,-5.2715,0.2382,4.8721,2.0268,5.2715,-0.2382,-4.8721,-2.0268,-5.2715,0.2382,0.0*
%
%ADD50ROTATEDRECTD50*%

G04:AMPARAMS|DCode=51|XSize=2.3mm|YSize=10.3mm|CornerRadius=0mm|HoleSize=0mm|Usage=FLASHONLY|Rotation=320.000|XOffset=0mm|YOffset=0mm|HoleType=Round|Shape=Rectangle|*
%AMROTATEDRECTD51*
4,1,4,-4.1913,-3.2059,2.4294,4.6843,4.1913,3.2059,-2.4294,-4.6843,-4.1913,-3.2059,0.0*
%
%ADD51ROTATEDRECTD51*%

%ADD52C,2.6000*%
%ADD53C,2.9000*%
%ADD54C,1.5500*%
%ADD55P,2.1920X4X275.0*%
%ADD56R,1.4500X1.4500*%
%ADD57C,1.4500*%
%ADD58C,1.6500*%
%ADD59P,2.1920X4X355.0*%
%ADD60R,1.9288X1.9288*%
%ADD61C,1.9288*%
%ADD62C,1.5000*%
%ADD63R,1.5000X1.5000*%
%ADD64C,0.8000*%
%ADD65C,1.3700*%
G36*
X00863097Y00416256D02*
X00863192Y00416227D01*
X00863278Y00416180D01*
X00863354Y00416118D01*
X00863417Y00416042D01*
X00863463Y00415955D01*
X00863492Y00415861D01*
X00863502Y00415763D01*
Y00402763D01*
X00863492Y00402665D01*
X00863463Y00402570D01*
X00863417Y00402484D01*
X00863354Y00402407D01*
X00863278Y00402345D01*
X00863192Y00402299D01*
X00863097Y00402270D01*
X00862999Y00402260D01*
X00858502D01*
Y00397763D01*
X00858492Y00397665D01*
X00858464Y00397571D01*
X00858417Y00397484D01*
X00858355Y00397408D01*
X00858279Y00397345D01*
X00858192Y00397299D01*
X00858098Y00397270D01*
X00858000Y00397261D01*
X00848999Y00397260D01*
X00848999D01*
D01*
X00848901Y00397270D01*
X00848807Y00397299D01*
X00848720Y00397345D01*
X00848644Y00397407D01*
X00848581Y00397484D01*
X00848535Y00397570D01*
X00848506Y00397665D01*
X00848497Y00397763D01*
Y00397763D01*
D01*
Y00402260D01*
X00843999D01*
X00843901Y00402270D01*
X00843807Y00402299D01*
X00843720Y00402345D01*
X00843644Y00402407D01*
X00843581Y00402484D01*
X00843535Y00402570D01*
X00843506Y00402665D01*
X00843497Y00402763D01*
Y00415763D01*
X00843506Y00415861D01*
X00843535Y00415955D01*
X00843581Y00416042D01*
X00843644Y00416118D01*
X00843720Y00416180D01*
X00843807Y00416227D01*
X00843901Y00416256D01*
X00843999Y00416265D01*
X00862999D01*
X00863097Y00416256D01*
D02*
G37*
G36*
X00858097Y00480256D02*
X00858192Y00480227D01*
X00858278Y00480181D01*
X00858354Y00480118D01*
X00858417Y00480042D01*
X00858463Y00479955D01*
X00858492Y00479861D01*
X00858502Y00479763D01*
Y00479763D01*
D01*
Y00475265D01*
X00862999D01*
X00863097Y00475256D01*
X00863192Y00475227D01*
X00863278Y00475181D01*
X00863354Y00475118D01*
X00863417Y00475042D01*
X00863463Y00474955D01*
X00863492Y00474861D01*
X00863502Y00474763D01*
Y00461763D01*
X00863492Y00461665D01*
X00863463Y00461571D01*
X00863417Y00461484D01*
X00863354Y00461408D01*
X00863278Y00461345D01*
X00863192Y00461299D01*
X00863097Y00461270D01*
X00862999Y00461260D01*
X00843999D01*
X00843901Y00461270D01*
X00843807Y00461299D01*
X00843720Y00461345D01*
X00843644Y00461408D01*
X00843581Y00461484D01*
X00843535Y00461571D01*
X00843506Y00461665D01*
X00843497Y00461763D01*
Y00474763D01*
X00843506Y00474861D01*
X00843535Y00474955D01*
X00843581Y00475042D01*
X00843644Y00475118D01*
X00843720Y00475181D01*
X00843807Y00475227D01*
X00843901Y00475256D01*
X00843999Y00475265D01*
X00848497D01*
Y00479763D01*
X00848506Y00479861D01*
X00848535Y00479955D01*
X00848581Y00480042D01*
X00848644Y00480118D01*
X00848720Y00480180D01*
X00848807Y00480227D01*
X00848901Y00480255D01*
X00848999Y00480265D01*
X00857999Y00480265D01*
X00857999D01*
D01*
X00858097Y00480256D01*
D02*
G37*
D11*
X00860499Y00402763D02*
G03*
X00860499Y00402763I-00002500J00000000D01*
G01*
X00851499D02*
G03*
X00851499Y00402763I-00002500J00000000D01*
G01*
X00860499Y00474763D02*
G03*
X00860499Y00474763I-00002500J00000000D01*
G01*
X00851499D02*
G03*
X00851499Y00474763I-00002500J00000000D01*
G01*
D21*
X00439150Y00528750D02*
D03*
X00457500D02*
D03*
X00475850D02*
D03*
X00439150Y00510400D02*
D03*
X00457500D02*
D03*
X00475850D02*
D03*
X00439150Y00492050D02*
D03*
X00457500D02*
D03*
X00475850D02*
D03*
D22*
X00390350Y00610500D02*
D03*
X00403050D02*
D03*
X00415750D02*
D03*
X00428450D02*
D03*
X00441150D02*
D03*
X00453850D02*
D03*
X00466550D02*
D03*
X00479250D02*
D03*
X00491950D02*
D03*
X00504650D02*
D03*
D23*
X00362500Y00435400D02*
D03*
Y00448100D02*
D03*
Y00460800D02*
D03*
Y00473500D02*
D03*
Y00486200D02*
D03*
Y00498900D02*
D03*
Y00511600D02*
D03*
Y00524300D02*
D03*
Y00537000D02*
D03*
Y00549700D02*
D03*
Y00562400D02*
D03*
Y00575100D02*
D03*
Y00587800D02*
D03*
Y00600500D02*
D03*
X00532500D02*
D03*
Y00587800D02*
D03*
Y00575100D02*
D03*
Y00562400D02*
D03*
Y00549700D02*
D03*
Y00537000D02*
D03*
Y00524300D02*
D03*
Y00511600D02*
D03*
Y00498900D02*
D03*
Y00486200D02*
D03*
Y00473500D02*
D03*
Y00460800D02*
D03*
Y00448100D02*
D03*
Y00435400D02*
D03*
D31*
X00689000Y00402500D02*
D03*
Y00385500D02*
D03*
X00802000Y00393500D02*
D03*
Y00410500D02*
D03*
X00566000Y00422500D02*
D03*
Y00405500D02*
D03*
X00589000Y00422500D02*
D03*
Y00405500D02*
D03*
X00259000Y00615500D02*
D03*
Y00632500D02*
D03*
D32*
X00767500Y00382000D02*
D03*
Y00405000D02*
D03*
Y00428000D02*
D03*
D33*
X00710500Y00405000D02*
D03*
D34*
X00655750Y00312250D02*
D03*
Y00305750D02*
D03*
Y00299250D02*
D03*
Y00292750D02*
D03*
Y00286250D02*
D03*
Y00279750D02*
D03*
Y00273250D02*
D03*
Y00266750D02*
D03*
Y00260250D02*
D03*
Y00253750D02*
D03*
Y00247250D02*
D03*
Y00240750D02*
D03*
Y00234250D02*
D03*
Y00227750D02*
D03*
X00730250Y00312250D02*
D03*
Y00305750D02*
D03*
Y00299250D02*
D03*
Y00292750D02*
D03*
Y00286250D02*
D03*
Y00279750D02*
D03*
Y00273250D02*
D03*
Y00266750D02*
D03*
Y00260250D02*
D03*
Y00253750D02*
D03*
Y00247250D02*
D03*
Y00240750D02*
D03*
Y00234250D02*
D03*
Y00227750D02*
D03*
D35*
X00625000Y00424000D02*
D03*
X00641500D02*
D03*
X00262750Y00369000D02*
D03*
X00279250D02*
D03*
X00513000Y00302000D02*
D03*
X00496500D02*
D03*
X00342250Y00182000D02*
D03*
X00325750D02*
D03*
X00596500Y00178000D02*
D03*
X00580000D02*
D03*
X00596500Y00159000D02*
D03*
X00580000D02*
D03*
X00596500Y00140000D02*
D03*
X00580000D02*
D03*
X00601750Y00256000D02*
D03*
X00618250D02*
D03*
X00648750Y00353000D02*
D03*
X00665250D02*
D03*
D36*
X00390350Y00629750D02*
D03*
Y00646250D02*
D03*
X00367350Y00629750D02*
D03*
Y00646250D02*
D03*
X00537950D02*
D03*
Y00629750D02*
D03*
X00491950Y00646250D02*
D03*
Y00629750D02*
D03*
X00514950Y00646250D02*
D03*
Y00629750D02*
D03*
X00310000Y00319750D02*
D03*
Y00336250D02*
D03*
X00271000Y00387500D02*
D03*
Y00404000D02*
D03*
X00511000Y00286250D02*
D03*
Y00269750D02*
D03*
X00453000Y00187000D02*
D03*
Y00170500D02*
D03*
D37*
X00390350Y00685500D02*
D03*
Y00664500D02*
D03*
D38*
X00328000Y00337500D02*
D03*
Y00318500D02*
D03*
X00348000Y00328000D02*
D03*
X00536000Y00287500D02*
D03*
Y00268500D02*
D03*
X00556000Y00278000D02*
D03*
D39*
X00279500Y00352000D02*
D03*
X00260500D02*
D03*
X00270000Y00332000D02*
D03*
D40*
X00737500Y00471000D02*
D03*
X00754500D02*
D03*
X00737500Y00450000D02*
D03*
X00754500D02*
D03*
X00657500Y00424000D02*
D03*
X00674500D02*
D03*
X00235500Y00298000D02*
D03*
X00218500D02*
D03*
X00683000Y00201000D02*
D03*
X00700000D02*
D03*
D41*
X00826499Y00425763D02*
D03*
Y00432263D02*
D03*
Y00438763D02*
D03*
Y00445263D02*
D03*
Y00451763D02*
D03*
D42*
X00853499Y00428763D02*
D03*
Y00448763D02*
D03*
D43*
X00080000Y00438000D02*
D03*
D44*
X00164224Y00206596D02*
D03*
D45*
X00377487Y00083469D02*
D03*
D46*
X00620000Y00126231D02*
D03*
D47*
X00778289Y00314873D02*
D03*
D48*
Y00561127D02*
D03*
D49*
X00620000Y00749769D02*
D03*
D50*
X00377487Y00792531D02*
D03*
D51*
X00164224Y00669404D02*
D03*
D52*
X00070000Y00598000D02*
D03*
Y00278000D02*
D03*
X00720000Y00143000D02*
D03*
Y00733000D02*
D03*
D53*
X00148299Y00597001D02*
D03*
X00232761Y00697659D02*
D03*
X00232761Y00178341D02*
D03*
X00148299Y00278999D02*
D03*
D54*
X00188792Y00603099D02*
D03*
X00204862Y00622250D02*
D03*
X00217718Y00637571D02*
D03*
X00233787Y00219278D02*
D03*
X00217718Y00238429D02*
D03*
X00204862Y00253750D02*
D03*
X00826499Y00463763D02*
D03*
Y00413763D02*
D03*
D55*
X00233787Y00656722D02*
D03*
D56*
X00196500Y00357000D02*
D03*
Y00516000D02*
D03*
X00430500Y00688750D02*
D03*
D57*
X00231500Y00357000D02*
D03*
Y00516000D02*
D03*
X00465500Y00688750D02*
D03*
D58*
X00653000Y00650200D02*
D03*
X00653000Y00624800D02*
D03*
X00653000Y00599400D02*
D03*
Y00574000D02*
D03*
X00653000Y00472400D02*
D03*
Y00497800D02*
D03*
X00653000Y00523200D02*
D03*
X00653000Y00548600D02*
D03*
X00320600Y00148000D02*
D03*
X00346000Y00148000D02*
D03*
X00371400Y00148000D02*
D03*
X00396800Y00148000D02*
D03*
X00631000Y00208000D02*
D03*
X00605600D02*
D03*
X00580200D02*
D03*
X00554800D02*
D03*
X00453200D02*
D03*
X00478600D02*
D03*
X00504000D02*
D03*
X00529400D02*
D03*
X00272200Y00262000D02*
D03*
X00297600D02*
D03*
X00323000D02*
D03*
X00348400D02*
D03*
D59*
X00188792Y00272901D02*
D03*
D60*
X00309600Y00448000D02*
D03*
X00335400Y00600400D02*
D03*
X00589400Y00448000D02*
D03*
D61*
X00309600Y00676600D02*
D03*
Y00600400D02*
D03*
Y00625800D02*
D03*
Y00524200D02*
D03*
Y00549600D02*
D03*
Y00473400D02*
D03*
Y00575000D02*
D03*
Y00651200D02*
D03*
Y00498800D02*
D03*
X00335000Y00448000D02*
D03*
X00589400Y00676600D02*
D03*
X00335400D02*
D03*
X00564000D02*
D03*
X00589400Y00651200D02*
D03*
X00335400D02*
D03*
X00564000D02*
D03*
X00589400Y00625800D02*
D03*
X00335400D02*
D03*
X00564000D02*
D03*
X00589400Y00600400D02*
D03*
X00564000D02*
D03*
X00589400Y00575000D02*
D03*
X00335400D02*
D03*
X00564000D02*
D03*
X00589400Y00549600D02*
D03*
X00335400D02*
D03*
X00564000D02*
D03*
X00589400Y00524200D02*
D03*
X00335400D02*
D03*
X00564000D02*
D03*
X00589400Y00498800D02*
D03*
X00335400D02*
D03*
X00564000D02*
D03*
X00589400Y00473400D02*
D03*
X00335400D02*
D03*
X00564000D02*
D03*
Y00448000D02*
D03*
D62*
X00601000Y00295000D02*
D03*
X00575000D02*
D03*
X00626000Y00334000D02*
D03*
X00600000D02*
D03*
D63*
X00627000Y00295000D02*
D03*
X00574000Y00334000D02*
D03*
D64*
X00056750Y00484250D02*
D03*
Y00494250D02*
D03*
X00040750D02*
D03*
Y00484250D02*
D03*
X00057000Y00382000D02*
D03*
Y00392000D02*
D03*
X00041000D02*
D03*
Y00382000D02*
D03*
X00170344Y00138629D02*
D03*
X00163916Y00146290D02*
D03*
X00176173Y00156574D02*
D03*
X00182601Y00148914D02*
D03*
X00104428Y00216797D02*
D03*
X00098000Y00224457D02*
D03*
X00110257Y00234742D02*
D03*
X00116685Y00227081D02*
D03*
X00327902Y00068604D02*
D03*
X00318054Y00070340D02*
D03*
X00315275Y00054583D02*
D03*
X00325124Y00052847D02*
D03*
X00428642Y00051094D02*
D03*
X00418794Y00052831D02*
D03*
X00416016Y00037074D02*
D03*
X00425864Y00035337D02*
D03*
X00687998Y00120456D02*
D03*
X00679337Y00115456D02*
D03*
X00671337Y00129312D02*
D03*
X00679997Y00134312D02*
D03*
X00599571Y00069114D02*
D03*
X00590911Y00064114D02*
D03*
X00582911Y00077971D02*
D03*
X00591571Y00082971D02*
D03*
X00784319Y00263460D02*
D03*
X00780899Y00254063D02*
D03*
X00795934Y00248591D02*
D03*
X00799354Y00257988D02*
D03*
X00819055Y00359629D02*
D03*
X00815635Y00350232D02*
D03*
X00830670Y00344760D02*
D03*
X00834091Y00354157D02*
D03*
X00795784Y00627089D02*
D03*
X00799204Y00617692D02*
D03*
X00784169Y00612220D02*
D03*
X00780749Y00621617D02*
D03*
X00830991Y00531091D02*
D03*
X00834411Y00521694D02*
D03*
X00819376Y00516222D02*
D03*
X00815956Y00525619D02*
D03*
X00671679Y00746779D02*
D03*
X00680339Y00741779D02*
D03*
X00688339Y00755636D02*
D03*
X00679679Y00760636D02*
D03*
X00583003Y00797688D02*
D03*
X00591663Y00792688D02*
D03*
X00599663Y00806544D02*
D03*
X00591003Y00811544D02*
D03*
X00315565Y00821214D02*
D03*
X00325413Y00822951D02*
D03*
X00328192Y00807194D02*
D03*
X00318344Y00805457D02*
D03*
X00416218Y00839216D02*
D03*
X00426066Y00840952D02*
D03*
X00428845Y00825195D02*
D03*
X00418997Y00823459D02*
D03*
X00176142Y00719778D02*
D03*
X00182570Y00727438D02*
D03*
X00170313Y00737723D02*
D03*
X00163886Y00730062D02*
D03*
X00110609Y00641289D02*
D03*
X00117037Y00648950D02*
D03*
X00104780Y00659234D02*
D03*
X00098352Y00651574D02*
D03*
X00500540Y00503000D02*
D03*
X00487000Y00477000D02*
D03*
X00710000Y00224000D02*
D03*
X00708000Y00233000D02*
D03*
X00676000Y00247000D02*
D03*
X00630000Y00382000D02*
D03*
X00661000Y00333000D02*
D03*
X00677000Y00277000D02*
D03*
X00508000Y00452000D02*
D03*
Y00462000D02*
D03*
X00416000Y00242000D02*
D03*
X00436000Y00552000D02*
D03*
X00456000Y00550000D02*
D03*
X00406000D02*
D03*
X00347000Y00489862D02*
D03*
X00393000Y00498000D02*
D03*
X00346965Y00534035D02*
D03*
X00515000Y00524000D02*
D03*
X00439150Y00528750D02*
D03*
X00457500D02*
D03*
X00475850D02*
D03*
X00441000Y00595000D02*
D03*
X00475850Y00510400D02*
D03*
X00381000Y00461000D02*
D03*
X00475850Y00492050D02*
D03*
X00457500D02*
D03*
X00439150D02*
D03*
X00457500Y00510400D02*
D03*
X00439150D02*
D03*
X00538000Y00657000D02*
D03*
X00515000D02*
D03*
X00289000Y00424000D02*
D03*
X00279000D02*
D03*
X00806000Y00434000D02*
D03*
X00807000Y00444000D02*
D03*
D65*
X00742000Y00643000D02*
D03*
X00080000Y00524000D02*
D03*
M02*
