G04*
G04 #@! TF.GenerationSoftware,Altium Limited,Altium Designer,20.2.6 (244)*
G04*
G04 Layer_Color=16711935*
%FSAX44Y44*%
%MOMM*%
G71*
G04*
G04 #@! TF.SameCoordinates,65735EED-05C8-4403-9655-43ED446DB93E*
G04*
G04*
G04 #@! TF.FilePolarity,Negative*
G04*
G01*
G75*
%ADD33C,1.4500*%
%ADD34R,1.4500X1.4500*%
%ADD35C,1.7500*%
%ADD36P,2.1920X4X295.0*%
%ADD37C,1.5500*%
%ADD38C,2.9000*%
%ADD39R,1.9288X1.9288*%
%ADD40C,1.9288*%
%ADD41C,1.6500*%
%ADD42R,1.4500X1.4500*%
%ADD43C,1.5000*%
%ADD44R,1.5000X1.5000*%
%ADD45P,2.1920X4X335.0*%
%ADD46C,0.8000*%
D33*
X00285000Y00320500D02*
D03*
X00467500Y00364000D02*
D03*
X00315000Y00420500D02*
D03*
X00285000Y00520500D02*
D03*
D34*
Y00355500D02*
D03*
X00315000Y00455500D02*
D03*
X00285000Y00555500D02*
D03*
D35*
X00198000Y00682000D02*
D03*
Y00662000D02*
D03*
Y00702000D02*
D03*
Y00722000D02*
D03*
Y00742000D02*
D03*
D36*
X00169000Y00582000D02*
D03*
D37*
X00160450Y00558508D02*
D03*
X00153609Y00539714D02*
D03*
X00145059Y00516222D02*
D03*
X00819800Y00413750D02*
D03*
Y00463750D02*
D03*
X00168721Y00299023D02*
D03*
X00160170Y00322516D02*
D03*
X00153330Y00341310D02*
D03*
D38*
X00154034Y00620117D02*
D03*
X00109093Y00496642D02*
D03*
X00153755Y00260906D02*
D03*
X00108814Y00384382D02*
D03*
D39*
X00393200Y00500400D02*
D03*
X00419000Y00652800D02*
D03*
X00673000Y00500400D02*
D03*
D40*
X00393200Y00729000D02*
D03*
Y00652800D02*
D03*
Y00678200D02*
D03*
Y00576600D02*
D03*
Y00602000D02*
D03*
Y00525800D02*
D03*
Y00627400D02*
D03*
Y00703600D02*
D03*
Y00551200D02*
D03*
X00418600Y00500400D02*
D03*
X00673000Y00729000D02*
D03*
X00419000D02*
D03*
X00647600D02*
D03*
X00673000Y00703600D02*
D03*
X00419000D02*
D03*
X00647600D02*
D03*
X00673000Y00678200D02*
D03*
X00419000D02*
D03*
X00647600D02*
D03*
X00673000Y00652800D02*
D03*
X00647600D02*
D03*
X00673000Y00627400D02*
D03*
X00419000D02*
D03*
X00647600D02*
D03*
X00673000Y00602000D02*
D03*
X00419000D02*
D03*
X00647600D02*
D03*
X00673000Y00576600D02*
D03*
X00419000D02*
D03*
X00647600D02*
D03*
X00673000Y00551200D02*
D03*
X00419000D02*
D03*
X00647600D02*
D03*
X00673000Y00525800D02*
D03*
X00419000D02*
D03*
X00647600D02*
D03*
Y00500400D02*
D03*
D41*
X00529400Y00208000D02*
D03*
X00504000D02*
D03*
X00478600D02*
D03*
X00453200D02*
D03*
X00554800D02*
D03*
X00580200D02*
D03*
X00605600D02*
D03*
X00631000D02*
D03*
X00251200Y00236000D02*
D03*
X00276600D02*
D03*
X00302000D02*
D03*
X00327400D02*
D03*
X00751000Y00561000D02*
D03*
Y00535600D02*
D03*
Y00510200D02*
D03*
Y00484800D02*
D03*
Y00586400D02*
D03*
Y00611800D02*
D03*
Y00637200D02*
D03*
Y00662600D02*
D03*
X00514000Y00388000D02*
D03*
Y00362600D02*
D03*
Y00337200D02*
D03*
X00386000Y00387800D02*
D03*
Y00362400D02*
D03*
Y00337000D02*
D03*
X00389200Y00078000D02*
D03*
X00363800D02*
D03*
X00338400D02*
D03*
X00313000D02*
D03*
D42*
X00432500Y00364000D02*
D03*
D43*
X00600000Y00338000D02*
D03*
X00574000D02*
D03*
X00626000Y00393000D02*
D03*
X00600000D02*
D03*
X00478000Y00289000D02*
D03*
X00452000D02*
D03*
D44*
X00626000Y00338000D02*
D03*
X00574000Y00393000D02*
D03*
X00426000Y00289000D02*
D03*
D45*
X00144779Y00364802D02*
D03*
D46*
X00758000Y00379000D02*
D03*
X00412384Y00383000D02*
D03*
X00337000Y00691000D02*
D03*
Y00666000D02*
D03*
X00552000Y00382000D02*
D03*
X00593750Y00369750D02*
D03*
X00426000Y00478000D02*
D03*
X00414000Y00469000D02*
D03*
X00385800Y00233850D02*
D03*
X00614000Y00310000D02*
D03*
X00580000Y00305000D02*
D03*
X00796000Y00441000D02*
D03*
X00790500Y00433250D02*
D03*
X00782000Y00464000D02*
D03*
X00769000Y00212000D02*
D03*
X00771000Y00200000D02*
D03*
M02*
