G04*
G04 #@! TF.GenerationSoftware,Altium Limited,Altium Designer,20.2.6 (244)*
G04*
G04 Layer_Color=32768*
%FSAX44Y44*%
%MOMM*%
G71*
G04*
G04 #@! TF.SameCoordinates,65735EED-05C8-4403-9655-43ED446DB93E*
G04*
G04*
G04 #@! TF.FilePolarity,Positive*
G04*
G01*
G75*
%ADD60C,0.1000*%
%ADD62C,0.0500*%
%ADD63C,0.0025*%
D60*
X00280000Y00338000D02*
X00290000D01*
X00285000Y00333000D02*
Y00343000D01*
X00774000Y00340000D02*
X00784000D01*
X00779000Y00335000D02*
Y00345000D01*
X00140589Y00555094D02*
X00149986Y00551674D01*
X00143578Y00548686D02*
X00146998Y00558083D01*
X00394000Y00107000D02*
Y00117000D01*
X00389000Y00112000D02*
X00399000D01*
X00347000Y00107000D02*
Y00117000D01*
X00342000Y00112000D02*
X00352000D01*
X00448000Y00178750D02*
X00458000D01*
X00453000Y00173750D02*
Y00183750D01*
X00225000Y00322000D02*
Y00332000D01*
X00220000Y00327000D02*
X00230000D01*
X00588250Y00173000D02*
Y00183000D01*
X00583250Y00178000D02*
X00593250D01*
X00225000Y00542000D02*
Y00552000D01*
X00220000Y00547000D02*
X00230000D01*
X00588250Y00154000D02*
Y00164000D01*
X00583250Y00159000D02*
X00593250D01*
X00588250Y00135000D02*
Y00145000D01*
X00583250Y00140000D02*
X00593250D01*
X00533750Y00355000D02*
X00543750D01*
X00538750Y00350000D02*
Y00360000D01*
X00450000Y00359000D02*
Y00369000D01*
X00445000Y00364000D02*
X00455000D01*
X00600000Y00333000D02*
Y00343000D01*
X00595000Y00338000D02*
X00605000D01*
X00610000Y00254000D02*
X00620000D01*
X00615000Y00249000D02*
Y00259000D01*
X00710000Y00237000D02*
Y00247000D01*
X00705000Y00242000D02*
X00715000D01*
X00828300Y00438750D02*
X00838300D01*
X00833300Y00433750D02*
Y00443750D01*
X00143299Y00332338D02*
X00146719Y00322941D01*
X00140310Y00325929D02*
X00149707Y00329349D01*
X00310000Y00438000D02*
X00320000D01*
X00315000Y00433000D02*
Y00443000D01*
X00285000Y00533000D02*
Y00543000D01*
X00280000Y00538000D02*
X00290000D01*
X00595000Y00393000D02*
X00605000D01*
X00600000Y00388000D02*
Y00398000D01*
X00769000Y00256500D02*
X00779000D01*
X00774000Y00251500D02*
Y00261500D01*
X00715000Y00335000D02*
Y00345000D01*
X00710000Y00340000D02*
X00720000D01*
X00613000Y00273000D02*
X00623000D01*
X00618000Y00268000D02*
Y00278000D01*
X00613000Y00292000D02*
X00623000D01*
X00618000Y00287000D02*
Y00297000D01*
X00456000Y00255000D02*
X00466000D01*
X00461000Y00250000D02*
Y00260000D01*
X00413000Y00255000D02*
X00423000D01*
X00418000Y00250000D02*
Y00260000D01*
X00748000Y00410000D02*
Y00420000D01*
X00743000Y00415000D02*
X00753000D01*
X00748250Y00431750D02*
Y00441750D01*
X00743250Y00436750D02*
X00753250D01*
X00447000Y00289000D02*
X00457000D01*
X00452000Y00284000D02*
Y00294000D01*
D62*
X00326000Y00338000D02*
G03*
X00326000Y00338000I-00041000J00000000D01*
G01*
X00491000Y00364000D02*
G03*
X00491000Y00364000I-00041000J00000000D01*
G01*
X00356000Y00438000D02*
G03*
X00356000Y00438000I-00041000J00000000D01*
G01*
X00326000Y00538000D02*
G03*
X00326000Y00538000I-00041000J00000000D01*
G01*
X00819000Y00305500D02*
Y00374500D01*
X00739000Y00305500D02*
Y00374500D01*
Y00305500D02*
X00819000D01*
X00739000Y00374500D02*
X00819000D01*
X00062124Y00671086D02*
X00195560Y00622519D01*
X00005923Y00516676D02*
X00062124Y00671086D01*
X00005923Y00516676D02*
X00139360Y00468109D01*
X00195560Y00622519D01*
X00380500Y00120500D02*
X00407500D01*
X00380500Y00103500D02*
X00407500D01*
X00380500D02*
Y00120500D01*
X00407500Y00103500D02*
Y00120500D01*
X00333500Y00103500D02*
X00360500D01*
X00333500Y00120500D02*
X00360500D01*
Y00103500D02*
Y00120500D01*
X00333500Y00103500D02*
Y00120500D01*
X00461500Y00165250D02*
Y00192250D01*
X00444500Y00165250D02*
Y00192250D01*
X00461500D01*
X00444500Y00165250D02*
X00461500D01*
X00215500Y00310000D02*
X00234500D01*
X00215500Y00344000D02*
X00234500D01*
X00215500Y00310000D02*
Y00344000D01*
X00234500Y00310000D02*
Y00344000D01*
X00574750Y00169500D02*
X00601750D01*
X00574750Y00186500D02*
X00601750D01*
Y00169500D02*
Y00186500D01*
X00574750Y00169500D02*
Y00186500D01*
X00215500Y00530000D02*
X00234500D01*
X00215500Y00564000D02*
X00234500D01*
X00215500Y00530000D02*
Y00564000D01*
X00234500Y00530000D02*
Y00564000D01*
X00574750Y00150500D02*
X00601750D01*
X00574750Y00167500D02*
X00601750D01*
Y00150500D02*
Y00167500D01*
X00574750Y00150500D02*
Y00167500D01*
Y00131500D02*
X00601750D01*
X00574750Y00148500D02*
X00601750D01*
Y00131500D02*
Y00148500D01*
X00574750Y00131500D02*
Y00148500D01*
X00547250Y00341500D02*
Y00368500D01*
X00530250Y00341500D02*
Y00368500D01*
X00547250D01*
X00530250Y00341500D02*
X00547250D01*
X00566000Y00352350D02*
X00634000D01*
Y00313500D02*
Y00352350D01*
X00566000Y00313500D02*
X00634000D01*
X00566000D02*
Y00352350D01*
X00598000Y00244500D02*
Y00263500D01*
X00632000Y00244500D02*
Y00263500D01*
X00598000D02*
X00632000D01*
X00598000Y00244500D02*
X00632000D01*
X00658500Y00184500D02*
X00761500D01*
X00658500Y00299500D02*
X00761500D01*
Y00184500D02*
Y00299500D01*
X00658500Y00184500D02*
Y00299500D01*
X00811550Y00396750D02*
X00873300D01*
Y00480750D01*
X00811550D02*
X00873300D01*
X00811550Y00396750D02*
Y00480750D01*
X00139080Y00412914D02*
X00195281Y00258504D01*
X00061845Y00209937D02*
X00195281Y00258504D01*
X00005644Y00364347D02*
X00061845Y00209937D01*
X00005644Y00364347D02*
X00139080Y00412914D01*
X00634000Y00378650D02*
Y00417500D01*
X00566000D02*
X00634000D01*
X00566000Y00378650D02*
Y00417500D01*
Y00378650D02*
X00634000D01*
X00764500Y00239500D02*
Y00273500D01*
X00783500Y00239500D02*
Y00273500D01*
X00764500Y00239500D02*
X00783500D01*
X00764500Y00273500D02*
X00783500D01*
X00698000Y00330500D02*
X00732000D01*
X00698000Y00349500D02*
X00732000D01*
Y00330500D02*
Y00349500D01*
X00698000Y00330500D02*
Y00349500D01*
X00604500Y00264500D02*
Y00281500D01*
X00631500Y00264500D02*
Y00281500D01*
X00604500D02*
X00631500D01*
X00604500Y00264500D02*
X00631500D01*
X00604500Y00283500D02*
Y00300500D01*
X00631500Y00283500D02*
Y00300500D01*
X00604500D02*
X00631500D01*
X00604500Y00283500D02*
X00631500D01*
X00447500Y00246500D02*
Y00263500D01*
X00474500Y00246500D02*
Y00263500D01*
X00447500D02*
X00474500D01*
X00447500Y00246500D02*
X00474500D01*
X00431500D02*
Y00263500D01*
X00404500Y00246500D02*
Y00263500D01*
Y00246500D02*
X00431500D01*
X00404500Y00263500D02*
X00431500D01*
X00731000Y00405500D02*
X00765000D01*
X00731000Y00424500D02*
X00765000D01*
Y00405500D02*
Y00424500D01*
X00731000Y00405500D02*
Y00424500D01*
X00731250Y00427250D02*
X00765250D01*
X00731250Y00446250D02*
X00765250D01*
Y00427250D02*
Y00446250D01*
X00731250Y00427250D02*
Y00446250D01*
X00486000Y00274650D02*
Y00313500D01*
X00418000D02*
X00486000D01*
X00418000Y00274650D02*
Y00313500D01*
Y00274650D02*
X00486000D01*
D63*
X00533046Y00619854D02*
X00533554Y00619346D01*
M02*
