M48
;Layer_Color=9474304
;FILE_FORMAT=4:4
METRIC
;TYPE=PLATED
T1F00S00C0.3000
T2F00S00C0.4000
T4F00S00C0.8500
T5F00S00C0.9000
T6F00S00C0.9200
T7F00S00C1.0000
T8F00S00C1.0200
T9F00S00C2.3000
%
T01
X00439150Y00492050
X00457500
X00475850
Y00510400
X00457500
X00439150
Y00528750
X00457500Y00528750
X00475850
X00698000Y00537000
T02
X00167971Y00139902
X00174866Y00145687
X00181760Y00151472
X00161834Y00175219
X00155406Y00182880
X00146979Y00175809
X00153407Y00168148
X00139336Y00202031
X00132908Y00209691
X00124482Y00202621
X00130910Y00194960
X00112982Y00233438
X00106088Y00227653
X00099193Y00221868
X00058000Y00384500
X00049000Y00384500
X00040000Y00384500
X00320979Y00071094
X00319416Y00062230
X00317853Y00053367
X00349598Y00054878
X00359446Y00053141
X00361356Y00063974
X00351508Y00065711
X00385976Y00059633
X00395825Y00057896
X00393914Y00047063
X00384066Y00048800
X00424791Y00043650
X00426353Y00052513
X00423228Y00034787
X00593668Y00064840
X00589168Y00072634
X00584668Y00080428
X00617015Y00086402
X00625675Y00091402
X00620175Y00100928
X00611515Y00095928
X00647325Y00103902
X00655986Y00108902
X00650486Y00118428
X00641825Y00113428
X00686332Y00118340
X00681832Y00126134
X00677332Y00133928
X00681250Y00252000
X00634000Y00247000
X00631750Y00237250
X00637750Y00269750
X00638000Y00316000
X00670500Y00328250
X00711750Y00327500
X00791267Y00286205
X00789122Y00253997
X00780664Y00257075
X00768500Y00234250
X00746750Y00218750
X00573750Y00259000
X00594000Y00313000
X00575000Y00373000
X00509000Y00323000
X00473250Y00302750
X00453000Y00262000
X00500000Y00261500
X00797579Y00250918
X00801604Y00282443
X00805024Y00291840
X00794687Y00295602
X00803238Y00319094
X00806658Y00328491
X00816995Y00324729
X00813574Y00315332
X00817261Y00357622
X00825718Y00354544
X00834175Y00351465
X00806000Y00434000
X00802674Y00448326
X00817261Y00518378
X00825718Y00521456
X00834175Y00524534
X00816995Y00551271
X00813575Y00560668
X00803238Y00556906
X00806658Y00547509
X00805024Y00584160
X00801604Y00593557
X00794687Y00580398
X00797579Y00625081
X00789122Y00622003
X00780665Y00618925
X00791267Y00589795
X00694000Y00483750
X00666000Y00446000
X00622000Y00398000
X00555500Y00500500
X00556000Y00524000
X00554059Y00544362
X00550000Y00562500
X00604000Y00562000
X00537750Y00700000
X00515250Y00689250
X00492000Y00674608
X00611515Y00780072
X00620175Y00775072
X00625675Y00784598
X00617015Y00789598
X00647325Y00772098
X00655986Y00767098
X00650486Y00757572
X00641825Y00762572
X00686332Y00757660
X00681832Y00749866
X00677332Y00742072
X00366504Y00754039
X00367000Y00657000
X00341000Y00615000
X00341127Y00523873
X00332000Y00511000
X00338000Y00486250
X00343250Y00473250
X00329521Y00455500
X00342000Y00435000
X00312000Y00474000
X00278000Y00488000
X00260000Y00474000
X00231000Y00428000
X00303500Y00514500
X00300750Y00541000
X00280000Y00560000
X00203151Y00658865
X00132908Y00666309
X00139336Y00673969
X00124482Y00673380
X00130910Y00681040
X00146979Y00700191
X00153407Y00707852
X00161834Y00700781
X00155406Y00693120
X00167971Y00736098
X00174866Y00730313
X00181760Y00724528
X00112982Y00642561
X00106088Y00648347
X00099193Y00654132
X00080000Y00524000
X00058000Y00491500
X00049000Y00491500
X00040000Y00491500
X00047000Y00460500
X00047000Y00450500
X00058000Y00450500
X00058000Y00460500
X00058000Y00425500
X00058000Y00415500
X00047000Y00415500
X00047000Y00425500
X00320979Y00804906
X00319416Y00813770
X00317854Y00822633
X00349598Y00821123
X00359446Y00822859
X00361356Y00812026
X00351508Y00810290
X00385976Y00816367
X00395825Y00818104
X00393914Y00828937
X00384066Y00827200
X00424791Y00832350
X00423228Y00841213
X00426354Y00823487
X00593668Y00811160
X00589168Y00803366
X00584668Y00795572
T04
X00196500Y00357000
X00231500
X00826499Y00413763
Y00463763
X00231500Y00516000
X00196500
T05
X00575000Y00295000
X00601000
X00627000
X00626000Y00334000
X00600000
X00574000
T06
X00233787Y00219278
X00217718Y00238429
X00204862Y00253750
X00188792Y00272901
Y00603099
X00204862Y00622250
X00217718Y00637571
X00233787Y00656722
T07
X00653000Y00472400
Y00497800
Y00523200
Y00548600
Y00574000
Y00599400
Y00624800
Y00650200
T08
X00320600Y00148000
X00346000Y00148000
X00371400Y00148000
X00396800Y00148000
X00348400Y00262000
X00323000
X00297600
X00272200
X00453200Y00208000
X00478600
X00504000
X00529400
X00554800
X00580200
X00605600
X00631000
T09
X00232761Y00178341
X00148299Y00278999
X00148299Y00597001
X00232761Y00697659
M30
