G04*
G04 #@! TF.GenerationSoftware,Altium Limited,Altium Designer,21.7.2 (23)*
G04*
G04 Layer_Color=128*
%FSAX44Y44*%
%MOMM*%
G71*
G04*
G04 #@! TF.SameCoordinates,0543FC2D-7C39-415B-9C98-CC63C2BD75E6*
G04*
G04*
G04 #@! TF.FilePolarity,Positive*
G04*
G01*
G75*
G04:AMPARAMS|DCode=16|XSize=3mm|YSize=1.8mm|CornerRadius=0mm|HoleSize=0mm|Usage=FLASHONLY|Rotation=160.000|XOffset=0mm|YOffset=0mm|HoleType=Round|Shape=Rectangle|*
%AMROTATEDRECTD16*
4,1,4,1.7174,0.3327,1.1017,-1.3588,-1.7174,-0.3327,-1.1017,1.3588,1.7174,0.3327,0.0*
%
%ADD16ROTATEDRECTD16*%

%ADD17C,2.0000*%
%ADD18P,2.8284X4X205.0*%
G04:AMPARAMS|DCode=19|XSize=3mm|YSize=1.8mm|CornerRadius=0mm|HoleSize=0mm|Usage=FLASHONLY|Rotation=320.000|XOffset=0mm|YOffset=0mm|HoleType=Round|Shape=Rectangle|*
%AMROTATEDRECTD19*
4,1,4,-1.7276,0.2747,-0.5706,1.6536,1.7276,-0.2747,0.5706,-1.6536,-1.7276,0.2747,0.0*
%
%ADD19ROTATEDRECTD19*%

%ADD20P,2.8284X4X365.0*%
%ADD21R,3.0000X1.8000*%
%ADD22R,2.0000X2.0000*%
G04:AMPARAMS|DCode=23|XSize=3mm|YSize=1.8mm|CornerRadius=0mm|HoleSize=0mm|Usage=FLASHONLY|Rotation=40.000|XOffset=0mm|YOffset=0mm|HoleType=Round|Shape=Rectangle|*
%AMROTATEDRECTD23*
4,1,4,-0.5706,-1.6536,-1.7276,-0.2747,0.5706,1.6536,1.7276,0.2747,-0.5706,-1.6536,0.0*
%
%ADD23ROTATEDRECTD23*%

%ADD24P,2.8284X4X85.0*%
G04:AMPARAMS|DCode=25|XSize=3mm|YSize=1.8mm|CornerRadius=0mm|HoleSize=0mm|Usage=FLASHONLY|Rotation=120.000|XOffset=0mm|YOffset=0mm|HoleType=Round|Shape=Rectangle|*
%AMROTATEDRECTD25*
4,1,4,1.5294,-0.8490,-0.0294,-1.7490,-1.5294,0.8490,0.0294,1.7490,1.5294,-0.8490,0.0*
%
%ADD25ROTATEDRECTD25*%

%ADD26P,2.8284X4X165.0*%
G04:AMPARAMS|DCode=27|XSize=3mm|YSize=1.8mm|CornerRadius=0mm|HoleSize=0mm|Usage=FLASHONLY|Rotation=80.000|XOffset=0mm|YOffset=0mm|HoleType=Round|Shape=Rectangle|*
%AMROTATEDRECTD27*
4,1,4,0.6259,-1.6335,-1.1468,-1.3209,-0.6259,1.6335,1.1468,1.3209,0.6259,-1.6335,0.0*
%
%ADD27ROTATEDRECTD27*%

%ADD28P,2.8284X4X125.0*%
G04:AMPARAMS|DCode=29|XSize=3mm|YSize=1.8mm|CornerRadius=0mm|HoleSize=0mm|Usage=FLASHONLY|Rotation=280.000|XOffset=0mm|YOffset=0mm|HoleType=Round|Shape=Rectangle|*
%AMROTATEDRECTD29*
4,1,4,-1.1468,1.3209,0.6259,1.6335,1.1468,-1.3209,-0.6259,-1.6335,-1.1468,1.3209,0.0*
%
%ADD29ROTATEDRECTD29*%

%ADD30P,2.8284X4X325.0*%
G04:AMPARAMS|DCode=31|XSize=3mm|YSize=1.8mm|CornerRadius=0mm|HoleSize=0mm|Usage=FLASHONLY|Rotation=240.000|XOffset=0mm|YOffset=0mm|HoleType=Round|Shape=Rectangle|*
%AMROTATEDRECTD31*
4,1,4,-0.0294,1.7490,1.5294,0.8490,0.0294,-1.7490,-1.5294,-0.8490,-0.0294,1.7490,0.0*
%
%ADD31ROTATEDRECTD31*%

%ADD32P,2.8284X4X285.0*%
G04:AMPARAMS|DCode=33|XSize=3mm|YSize=1.8mm|CornerRadius=0mm|HoleSize=0mm|Usage=FLASHONLY|Rotation=200.000|XOffset=0mm|YOffset=0mm|HoleType=Round|Shape=Rectangle|*
%AMROTATEDRECTD33*
4,1,4,1.1017,1.3588,1.7174,-0.3327,-1.1017,-1.3588,-1.7174,0.3327,1.1017,1.3588,0.0*
%
%ADD33ROTATEDRECTD33*%

%ADD34P,2.8284X4X245.0*%
D16*
X00789122Y00253997D02*
D03*
X00825718Y00354544D02*
D03*
D17*
X00738475Y00310741D02*
D03*
X00750446Y00343630D02*
D03*
X00806133Y00286115D02*
D03*
X00818104Y00319005D02*
D03*
X00203050Y00659669D02*
D03*
X00180553Y00632858D02*
D03*
X00147895Y00705950D02*
D03*
X00125398Y00679138D02*
D03*
X00116000Y00455500D02*
D03*
X00116000Y00420500D02*
D03*
X00044000Y00455500D02*
D03*
X00044000Y00420500D02*
D03*
X00203050Y00216331D02*
D03*
X00180553Y00243142D02*
D03*
X00147895Y00170051D02*
D03*
X00125398Y00196862D02*
D03*
X00617155Y00166158D02*
D03*
X00586845Y00148658D02*
D03*
X00653155Y00103804D02*
D03*
X00622845Y00086304D02*
D03*
X00366504Y00121961D02*
D03*
X00400972Y00115883D02*
D03*
X00354001Y00051055D02*
D03*
X00388469Y00044977D02*
D03*
X00366504Y00754039D02*
D03*
X00400972Y00760117D02*
D03*
X00354001Y00824945D02*
D03*
X00388469Y00831023D02*
D03*
X00617155Y00709842D02*
D03*
X00586845Y00727342D02*
D03*
X00653156Y00772196D02*
D03*
X00622845Y00789696D02*
D03*
X00738475Y00565259D02*
D03*
X00750446Y00532370D02*
D03*
X00806133Y00589884D02*
D03*
X00818104Y00556995D02*
D03*
D18*
X00747872Y00307321D02*
D03*
X00759843Y00340210D02*
D03*
X00796736Y00289536D02*
D03*
X00808707Y00322425D02*
D03*
D19*
X00174866Y00730313D02*
D03*
X00106088Y00648347D02*
D03*
D20*
X00195390Y00666097D02*
D03*
X00172892Y00639285D02*
D03*
X00155556Y00699522D02*
D03*
X00133058Y00672710D02*
D03*
D21*
X00049000Y00491500D02*
D03*
X00049000Y00384500D02*
D03*
D22*
X00106000Y00455500D02*
D03*
X00106000Y00420500D02*
D03*
X00054000Y00455500D02*
D03*
Y00420500D02*
D03*
D23*
X00174866Y00145687D02*
D03*
X00106088Y00227653D02*
D03*
D24*
X00195390Y00209903D02*
D03*
X00172892Y00236715D02*
D03*
X00155556Y00176478D02*
D03*
X00133058Y00203290D02*
D03*
D25*
X00681832Y00126134D02*
D03*
X00589168Y00072634D02*
D03*
D26*
X00622155Y00157498D02*
D03*
X00591845Y00139998D02*
D03*
X00648156Y00112464D02*
D03*
X00617845Y00094964D02*
D03*
D27*
X00319416Y00062230D02*
D03*
X00424791Y00043650D02*
D03*
D28*
X00364767Y00112113D02*
D03*
X00399236Y00106035D02*
D03*
X00355738Y00060903D02*
D03*
X00390206Y00054825D02*
D03*
D29*
X00319416Y00813770D02*
D03*
X00424791Y00832350D02*
D03*
D30*
X00364767Y00763887D02*
D03*
X00399236Y00769965D02*
D03*
X00355738Y00815097D02*
D03*
X00390206Y00821175D02*
D03*
D31*
X00681832Y00749866D02*
D03*
X00589168Y00803366D02*
D03*
D32*
X00622155Y00718502D02*
D03*
X00591845Y00736003D02*
D03*
X00648156Y00763536D02*
D03*
X00617845Y00781036D02*
D03*
D33*
X00789122Y00622003D02*
D03*
X00825718Y00521456D02*
D03*
D34*
X00747872Y00568679D02*
D03*
X00759843Y00535790D02*
D03*
X00796736Y00586464D02*
D03*
X00808707Y00553575D02*
D03*
M02*
