M48
;Layer_Color=9474304
;FILE_FORMAT=4:4
METRIC
;TYPE=PLATED
T1F00S00C0.4000
T2F00S00C0.5000
T4F00S00C0.8500
T5F00S00C0.9000
T6F00S00C0.9200
T7F00S00C1.0000
T8F00S00C1.0200
T9F00S00C2.3000
%
T01
X00029000Y00339000
X00214000Y00321000
X00287000Y00361000
X00358000Y00373000
X00393000Y00372000
X00375500Y00353000
X00337000Y00396000
X00338000Y00294750
X00326250Y00295250
X00417094Y00299270
X00402000Y00273000
X00488000Y00291000
X00491000Y00353000
X00524250
X00526250Y00372000
X00585000Y00363250
X00580000Y00389000
X00630000Y00352000
X00623000Y00315000
X00635250Y00286057
X00614000Y00265000
X00626750Y00239750
X00643750Y00177500
X00734000Y00177000
X00719000Y00196000
X00709500Y00220000
X00678750Y00103000
X00617250Y00046500
X00678000Y00348000
X00753000Y00325000
X00797000Y00438000
X00821750Y00579000
X00793000Y00460000
X00670000Y00439000
X00555500Y00469000
X00539000Y00495000
Y00507500
Y00532750
X00555500Y00524000
X00556249Y00571502
X00564000Y00608000
X00553000Y00624000
X00539000Y00619000
X00587000Y00592000
X00601000Y00605000
X00617500Y00628000
X00607000Y00706000
X00768000Y00701000
X00745000Y00674000
X00442350Y00577950
Y00559600
Y00541250
X00424000
X00405650
Y00559600
X00424000
Y00577950
X00405650
X00436000Y00423000
X00504000Y00449000
X00520000
X00555500Y00399000
X00377000Y00440000
X00346000Y00448000
X00321000Y00477000
X00300000Y00469000
X00274000Y00482000
X00275000Y00521000
X00246000
X00226000Y00477000
X00310000Y00508000
X00329000Y00519000
Y00533000
Y00546000
X00324000Y00605000
X00307000Y00625000
X00273000Y00577000
X00067250Y00561250
X00366000Y00840500
X00407750Y00866250
X00506000Y00804000
T02
X00180281Y00134566
X00188708Y00141636
X00181637Y00150063
X00173210Y00142992
X00162230Y00171635
X00155159Y00180062
X00146733Y00172991
X00153803Y00164565
X00136518Y00202277
X00129448Y00210704
X00121021Y00203633
X00128092Y00195207
X00110807Y00232919
X00102381Y00225848
X00095310Y00234275
X00103736Y00241345
X00056000Y00372500
X00045000
X00045000Y00383500
X00056000
X00308988Y00072193
X00307078Y00061360
X00317911Y00059450
X00319821Y00070282
X00348207Y00064262
X00359039Y00062352
X00357129Y00051519
X00346296Y00053429
X00387599Y00057316
X00385689Y00046483
X00396522Y00044573
X00398432Y00055406
X00426991Y00050370
X00437824Y00048460
X00435914Y00037627
X00425081Y00039537
X00580775Y00063170
X00590302Y00068670
X00584802Y00078196
X00575275Y00072696
X00615416Y00083170
X00609916Y00092696
X00619443Y00098196
X00624943Y00088670
X00650057Y00103170
X00644557Y00112696
X00654084Y00118196
X00659584Y00108670
X00684198Y00124036
X00693725Y00129536
X00688225Y00139062
X00678698Y00133562
X00777500Y00245456
X00781262Y00255793
X00791599Y00252031
X00787837Y00241694
X00792120Y00282702
X00802457Y00278940
X00806219Y00289277
X00795883Y00293039
X00805801Y00320290
X00816138Y00316528
X00819900Y00326864
X00809564Y00330626
X00819482Y00357878
X00829819Y00354115
X00833581Y00364452
X00823244Y00368214
X00823244Y00507786
X00819482Y00518122
X00829819Y00521885
X00833581Y00511548
X00819900Y00549136
X00809563Y00545373
X00805801Y00555710
X00816138Y00559472
X00806219Y00586723
X00802457Y00597060
X00795883Y00582961
X00792121Y00593298
X00791599Y00623969
X00787837Y00634306
X00777500Y00630543
X00781262Y00620207
X00688225Y00736938
X00678698Y00742438
X00684198Y00751964
X00693725Y00746464
X00654084Y00757804
X00659584Y00767330
X00650057Y00772830
X00644557Y00763304
X00619443Y00777804
X00624943Y00787330
X00615416Y00792830
X00609916Y00783304
X00188708Y00734363
X00181637Y00725937
X00173210Y00733008
X00180281Y00741434
X00162230Y00704364
X00155159Y00695938
X00146733Y00703009
X00153804Y00711435
X00136518Y00673723
X00128092Y00680793
X00121021Y00672367
X00129448Y00665296
X00110807Y00643081
X00102381Y00650152
X00095310Y00641725
X00103736Y00634654
X00057000Y00503500
X00046000
X00046000Y00492500
X00057000Y00492500
X00056000Y00463500
Y00452500
X00045000Y00452500
Y00463500
Y00423500
Y00412500
X00056000
X00056000Y00423500
X00308988Y00803808
X00319821Y00805717
X00317911Y00816550
X00307078Y00814640
X00348207Y00811738
X00359039Y00813648
X00357129Y00824481
X00346297Y00822571
X00387599Y00818684
X00385689Y00829517
X00396521Y00831427
X00398432Y00820594
X00426991Y00825630
X00425081Y00836463
X00435914Y00838373
X00437824Y00827540
X00580775Y00812830
X00575275Y00803304
X00584802Y00797804
X00590302Y00807330
T04
X00196500Y00349000
X00231500
X00826499Y00413000
Y00463000
X00257500Y00581000
X00222500
T05
X00528000Y00274289
X00554000
X00580000
X00579000Y00313289
X00553000
X00527000
T06
X00234638Y00219991
X00218568Y00239142
X00205712Y00254463
X00189643Y00273614
Y00602386
X00205712Y00621537
X00218568Y00636858
X00234638Y00656009
T07
X00678000Y00243600
Y00269000
Y00294400
X00657000Y00488400
Y00513800
Y00539200
Y00564600
Y00590000
Y00615400
Y00640800
Y00666200
T08
X00321250Y00149500
X00346650
X00372050
X00397450
X00453200Y00208000
X00478600
X00504000
X00529400
X00554800
X00580200
X00605600
X00631000
T09
X00233611Y00179054
X00149149Y00279712
Y00596288
X00233611Y00696946
M30
