G04*
G04 #@! TF.GenerationSoftware,Altium Limited,Altium Designer,21.7.2 (23)*
G04*
G04 Layer_Color=8388736*
%FSAX44Y44*%
%MOMM*%
G71*
G04*
G04 #@! TF.SameCoordinates,E0CB191C-9310-4F86-9007-B940BCBFD818*
G04*
G04*
G04 #@! TF.FilePolarity,Negative*
G04*
G01*
G75*
%ADD13C,0.6000*%
%ADD36R,1.3300X1.3300*%
%ADD37R,0.9000X2.0000*%
%ADD38R,2.0000X0.9000*%
%ADD51R,0.9000X1.0000*%
G04:AMPARAMS|DCode=52|XSize=0.9mm|YSize=1mm|CornerRadius=0mm|HoleSize=0mm|Usage=FLASHONLY|Rotation=0.476|XOffset=0mm|YOffset=0mm|HoleType=Round|Shape=Rectangle|*
%AMROTATEDRECTD52*
4,1,4,-0.4458,-0.5037,-0.4541,0.4963,0.4458,0.5037,0.4541,-0.4963,-0.4458,-0.5037,0.0*
%
%ADD52ROTATEDRECTD52*%

%ADD53R,1.5000X1.3000*%
%ADD54R,2.2000X3.3000*%
%ADD55R,2.2000X1.0000*%
%ADD56R,1.4500X0.9500*%
%ADD57R,1.3000X1.5000*%
%ADD58R,0.9500X1.4500*%
%ADD59O,1.9500X0.5500*%
%ADD60R,1.3000X1.2000*%
%ADD61R,1.0000X0.9000*%
%ADD62R,1.4500X0.5000*%
%ADD63R,2.0000X1.6000*%
G04:AMPARAMS|DCode=64|XSize=2.3mm|YSize=10.3mm|CornerRadius=1.15mm|HoleSize=0mm|Usage=FLASHONLY|Rotation=160.000|XOffset=0mm|YOffset=0mm|HoleType=Round|Shape=RoundedRectangle|*
%AMROUNDEDRECTD64*
21,1,2.3000,8.0000,0,0,160.0*
21,1,0.0000,10.3000,0,0,160.0*
1,1,2.3000,1.3681,3.7588*
1,1,2.3000,1.3681,3.7588*
1,1,2.3000,-1.3681,-3.7588*
1,1,2.3000,-1.3681,-3.7588*
%
%ADD64ROUNDEDRECTD64*%
G04:AMPARAMS|DCode=65|XSize=2.3mm|YSize=10.3mm|CornerRadius=1.15mm|HoleSize=0mm|Usage=FLASHONLY|Rotation=320.000|XOffset=0mm|YOffset=0mm|HoleType=Round|Shape=RoundedRectangle|*
%AMROUNDEDRECTD65*
21,1,2.3000,8.0000,0,0,320.0*
21,1,0.0000,10.3000,0,0,320.0*
1,1,2.3000,-2.5712,-3.0642*
1,1,2.3000,-2.5712,-3.0642*
1,1,2.3000,2.5712,3.0642*
1,1,2.3000,2.5712,3.0642*
%
%ADD65ROUNDEDRECTD65*%
G04:AMPARAMS|DCode=66|XSize=2.3mm|YSize=10.3mm|CornerRadius=1.15mm|HoleSize=0mm|Usage=FLASHONLY|Rotation=0.000|XOffset=0mm|YOffset=0mm|HoleType=Round|Shape=RoundedRectangle|*
%AMROUNDEDRECTD66*
21,1,2.3000,8.0000,0,0,0.0*
21,1,0.0000,10.3000,0,0,0.0*
1,1,2.3000,0.0000,-4.0000*
1,1,2.3000,0.0000,-4.0000*
1,1,2.3000,0.0000,4.0000*
1,1,2.3000,0.0000,4.0000*
%
%ADD66ROUNDEDRECTD66*%
G04:AMPARAMS|DCode=67|XSize=2.3mm|YSize=10.3mm|CornerRadius=1.15mm|HoleSize=0mm|Usage=FLASHONLY|Rotation=40.000|XOffset=0mm|YOffset=0mm|HoleType=Round|Shape=RoundedRectangle|*
%AMROUNDEDRECTD67*
21,1,2.3000,8.0000,0,0,40.0*
21,1,0.0000,10.3000,0,0,40.0*
1,1,2.3000,2.5712,-3.0642*
1,1,2.3000,2.5712,-3.0642*
1,1,2.3000,-2.5712,3.0642*
1,1,2.3000,-2.5712,3.0642*
%
%ADD67ROUNDEDRECTD67*%
G04:AMPARAMS|DCode=68|XSize=2.3mm|YSize=10.3mm|CornerRadius=1.15mm|HoleSize=0mm|Usage=FLASHONLY|Rotation=120.000|XOffset=0mm|YOffset=0mm|HoleType=Round|Shape=RoundedRectangle|*
%AMROUNDEDRECTD68*
21,1,2.3000,8.0000,0,0,120.0*
21,1,0.0000,10.3000,0,0,120.0*
1,1,2.3000,3.4641,2.0000*
1,1,2.3000,3.4641,2.0000*
1,1,2.3000,-3.4641,-2.0000*
1,1,2.3000,-3.4641,-2.0000*
%
%ADD68ROUNDEDRECTD68*%
G04:AMPARAMS|DCode=69|XSize=2.3mm|YSize=10.3mm|CornerRadius=1.15mm|HoleSize=0mm|Usage=FLASHONLY|Rotation=80.000|XOffset=0mm|YOffset=0mm|HoleType=Round|Shape=RoundedRectangle|*
%AMROUNDEDRECTD69*
21,1,2.3000,8.0000,0,0,80.0*
21,1,0.0000,10.3000,0,0,80.0*
1,1,2.3000,3.9392,-0.6946*
1,1,2.3000,3.9392,-0.6946*
1,1,2.3000,-3.9392,0.6946*
1,1,2.3000,-3.9392,0.6946*
%
%ADD69ROUNDEDRECTD69*%
G04:AMPARAMS|DCode=70|XSize=2.3mm|YSize=10.3mm|CornerRadius=1.15mm|HoleSize=0mm|Usage=FLASHONLY|Rotation=280.000|XOffset=0mm|YOffset=0mm|HoleType=Round|Shape=RoundedRectangle|*
%AMROUNDEDRECTD70*
21,1,2.3000,8.0000,0,0,280.0*
21,1,0.0000,10.3000,0,0,280.0*
1,1,2.3000,-3.9392,-0.6946*
1,1,2.3000,-3.9392,-0.6946*
1,1,2.3000,3.9392,0.6946*
1,1,2.3000,3.9392,0.6946*
%
%ADD70ROUNDEDRECTD70*%
G04:AMPARAMS|DCode=71|XSize=2.3mm|YSize=10.3mm|CornerRadius=1.15mm|HoleSize=0mm|Usage=FLASHONLY|Rotation=240.000|XOffset=0mm|YOffset=0mm|HoleType=Round|Shape=RoundedRectangle|*
%AMROUNDEDRECTD71*
21,1,2.3000,8.0000,0,0,240.0*
21,1,0.0000,10.3000,0,0,240.0*
1,1,2.3000,-3.4641,2.0000*
1,1,2.3000,-3.4641,2.0000*
1,1,2.3000,3.4641,-2.0000*
1,1,2.3000,3.4641,-2.0000*
%
%ADD71ROUNDEDRECTD71*%
G04:AMPARAMS|DCode=72|XSize=2.3mm|YSize=10.3mm|CornerRadius=1.15mm|HoleSize=0mm|Usage=FLASHONLY|Rotation=200.000|XOffset=0mm|YOffset=0mm|HoleType=Round|Shape=RoundedRectangle|*
%AMROUNDEDRECTD72*
21,1,2.3000,8.0000,0,0,200.0*
21,1,0.0000,10.3000,0,0,200.0*
1,1,2.3000,-1.3681,3.7588*
1,1,2.3000,-1.3681,3.7588*
1,1,2.3000,1.3681,-3.7588*
1,1,2.3000,1.3681,-3.7588*
%
%ADD72ROUNDEDRECTD72*%
%ADD73C,0.8000*%
%ADD74C,1.4500*%
%ADD75R,1.4500X1.4500*%
%ADD76C,1.6500*%
%ADD77C,1.7000*%
%ADD78C,2.9000*%
%ADD79C,1.5500*%
%ADD80P,2.1920X4X355.0*%
%ADD81P,2.1920X4X275.0*%
%ADD82C,2.6000*%
%ADD83C,1.5000*%
%ADD84R,1.5000X1.5000*%
%ADD85C,1.3700*%
G36*
X00863097Y00416256D02*
X00863192Y00416227D01*
X00863278Y00416180D01*
X00863354Y00416118D01*
X00863417Y00416042D01*
X00863463Y00415955D01*
X00863492Y00415861D01*
X00863502Y00415763D01*
Y00402763D01*
X00863492Y00402665D01*
X00863463Y00402570D01*
X00863417Y00402484D01*
X00863354Y00402407D01*
X00863278Y00402345D01*
X00863192Y00402299D01*
X00863097Y00402270D01*
X00862999Y00402260D01*
X00858502D01*
Y00397763D01*
X00858492Y00397665D01*
X00858464Y00397571D01*
X00858417Y00397484D01*
X00858355Y00397408D01*
X00858279Y00397345D01*
X00858192Y00397299D01*
X00858098Y00397270D01*
X00858000Y00397261D01*
X00848999Y00397260D01*
X00848999D01*
D01*
X00848901Y00397270D01*
X00848807Y00397299D01*
X00848720Y00397345D01*
X00848644Y00397407D01*
X00848581Y00397484D01*
X00848535Y00397570D01*
X00848506Y00397665D01*
X00848497Y00397763D01*
Y00397763D01*
D01*
Y00402260D01*
X00843999D01*
X00843901Y00402270D01*
X00843807Y00402299D01*
X00843720Y00402345D01*
X00843644Y00402407D01*
X00843581Y00402484D01*
X00843535Y00402570D01*
X00843506Y00402665D01*
X00843497Y00402763D01*
Y00415763D01*
X00843506Y00415861D01*
X00843535Y00415955D01*
X00843581Y00416042D01*
X00843644Y00416118D01*
X00843720Y00416180D01*
X00843807Y00416227D01*
X00843901Y00416256D01*
X00843999Y00416265D01*
X00862999D01*
X00863097Y00416256D01*
D02*
G37*
G36*
X00858097Y00480256D02*
X00858192Y00480227D01*
X00858278Y00480181D01*
X00858354Y00480118D01*
X00858417Y00480042D01*
X00858463Y00479955D01*
X00858492Y00479861D01*
X00858502Y00479763D01*
Y00479763D01*
D01*
Y00475265D01*
X00862999D01*
X00863097Y00475256D01*
X00863192Y00475227D01*
X00863278Y00475181D01*
X00863354Y00475118D01*
X00863417Y00475042D01*
X00863463Y00474955D01*
X00863492Y00474861D01*
X00863502Y00474763D01*
Y00461763D01*
X00863492Y00461665D01*
X00863463Y00461571D01*
X00863417Y00461484D01*
X00863354Y00461408D01*
X00863278Y00461345D01*
X00863192Y00461299D01*
X00863097Y00461270D01*
X00862999Y00461260D01*
X00843999D01*
X00843901Y00461270D01*
X00843807Y00461299D01*
X00843720Y00461345D01*
X00843644Y00461408D01*
X00843581Y00461484D01*
X00843535Y00461571D01*
X00843506Y00461665D01*
X00843497Y00461763D01*
Y00474763D01*
X00843506Y00474861D01*
X00843535Y00474955D01*
X00843581Y00475042D01*
X00843644Y00475118D01*
X00843720Y00475181D01*
X00843807Y00475227D01*
X00843901Y00475256D01*
X00843999Y00475265D01*
X00848497D01*
Y00479763D01*
X00848506Y00479861D01*
X00848535Y00479955D01*
X00848581Y00480042D01*
X00848644Y00480118D01*
X00848720Y00480180D01*
X00848807Y00480227D01*
X00848901Y00480255D01*
X00848999Y00480265D01*
X00857999Y00480265D01*
X00857999D01*
D01*
X00858097Y00480256D01*
D02*
G37*
D13*
X00860499Y00402763D02*
G03*
X00860499Y00402763I-00002500J00000000D01*
G01*
X00851499D02*
G03*
X00851499Y00402763I-00002500J00000000D01*
G01*
X00860499Y00474763D02*
G03*
X00860499Y00474763I-00002500J00000000D01*
G01*
X00851499D02*
G03*
X00851499Y00474763I-00002500J00000000D01*
G01*
D36*
X00439150Y00528750D02*
D03*
X00457500D02*
D03*
X00475850D02*
D03*
X00439150Y00510400D02*
D03*
X00457500D02*
D03*
X00475850D02*
D03*
X00439150Y00492050D02*
D03*
X00457500D02*
D03*
X00475850D02*
D03*
D37*
X00390350Y00610500D02*
D03*
X00403050D02*
D03*
X00415750D02*
D03*
X00428450D02*
D03*
X00441150D02*
D03*
X00453850D02*
D03*
X00466550D02*
D03*
X00479250D02*
D03*
X00491950D02*
D03*
X00504650D02*
D03*
D38*
X00362500Y00435400D02*
D03*
Y00448100D02*
D03*
Y00460800D02*
D03*
Y00473500D02*
D03*
Y00486200D02*
D03*
Y00498900D02*
D03*
Y00511600D02*
D03*
Y00524300D02*
D03*
Y00537000D02*
D03*
Y00549700D02*
D03*
Y00562400D02*
D03*
Y00575100D02*
D03*
Y00587800D02*
D03*
Y00600500D02*
D03*
X00532500D02*
D03*
Y00587800D02*
D03*
Y00575100D02*
D03*
Y00562400D02*
D03*
Y00549700D02*
D03*
Y00537000D02*
D03*
Y00524300D02*
D03*
Y00511600D02*
D03*
Y00498900D02*
D03*
Y00486200D02*
D03*
Y00473500D02*
D03*
Y00460800D02*
D03*
Y00448100D02*
D03*
Y00435400D02*
D03*
D51*
X00284500Y00374000D02*
D03*
X00265500D02*
D03*
X00275000Y00354000D02*
D03*
D52*
X00529083Y00267000D02*
D03*
X00519417Y00286921D02*
D03*
X00538417Y00287078D02*
D03*
D53*
X00259000Y00632500D02*
D03*
Y00615500D02*
D03*
X00785000Y00426500D02*
D03*
Y00409500D02*
D03*
X00226250Y00297250D02*
D03*
X00226250Y00280250D02*
D03*
X00753000Y00403500D02*
D03*
Y00386500D02*
D03*
X00569000Y00434500D02*
D03*
Y00417500D02*
D03*
X00576000Y00481500D02*
D03*
Y00498500D02*
D03*
X00592000Y00434500D02*
D03*
Y00417500D02*
D03*
D54*
X00665500Y00403000D02*
D03*
D55*
X00722500Y00426000D02*
D03*
Y00403000D02*
D03*
Y00380000D02*
D03*
D56*
X00492000Y00638750D02*
D03*
Y00655250D02*
D03*
X00538000Y00660750D02*
D03*
Y00677250D02*
D03*
X00550500Y00162250D02*
D03*
Y00145750D02*
D03*
X00531500Y00162250D02*
D03*
Y00145750D02*
D03*
X00512500Y00162250D02*
D03*
Y00145750D02*
D03*
X00390350Y00629750D02*
D03*
Y00646250D02*
D03*
X00367350Y00629750D02*
D03*
Y00646250D02*
D03*
X00515000Y00666250D02*
D03*
Y00649750D02*
D03*
X00275000Y00314750D02*
D03*
Y00331250D02*
D03*
X00285000Y00431750D02*
D03*
Y00448250D02*
D03*
X00453000Y00187000D02*
D03*
Y00170500D02*
D03*
D57*
X00723500Y00479000D02*
D03*
X00706500D02*
D03*
X00723500Y00458000D02*
D03*
X00706500D02*
D03*
X00683000Y00201000D02*
D03*
X00700000D02*
D03*
D58*
X00324250Y00208000D02*
D03*
X00340750D02*
D03*
X00592250Y00460000D02*
D03*
X00575750D02*
D03*
X00267750Y00406000D02*
D03*
X00284250D02*
D03*
X00598750Y00252000D02*
D03*
X00615250D02*
D03*
X00686000Y00345250D02*
D03*
X00702500D02*
D03*
D59*
X00655750Y00312250D02*
D03*
Y00305750D02*
D03*
Y00299250D02*
D03*
Y00292750D02*
D03*
Y00286250D02*
D03*
Y00279750D02*
D03*
Y00273250D02*
D03*
Y00266750D02*
D03*
Y00260250D02*
D03*
Y00253750D02*
D03*
Y00247250D02*
D03*
Y00240750D02*
D03*
Y00234250D02*
D03*
Y00227750D02*
D03*
X00730250Y00312250D02*
D03*
Y00305750D02*
D03*
Y00299250D02*
D03*
Y00292750D02*
D03*
Y00286250D02*
D03*
Y00279750D02*
D03*
Y00273250D02*
D03*
Y00266750D02*
D03*
Y00260250D02*
D03*
Y00253750D02*
D03*
Y00247250D02*
D03*
Y00240750D02*
D03*
Y00234250D02*
D03*
Y00227750D02*
D03*
D60*
X00390350Y00685500D02*
D03*
Y00664500D02*
D03*
D61*
X00321750Y00332500D02*
D03*
Y00313500D02*
D03*
X00341750Y00323000D02*
D03*
D62*
X00826499Y00425763D02*
D03*
Y00432263D02*
D03*
Y00438763D02*
D03*
Y00445263D02*
D03*
Y00451763D02*
D03*
D63*
X00853499Y00428763D02*
D03*
Y00448763D02*
D03*
D64*
X00778289Y00314873D02*
D03*
D65*
X00164224Y00669404D02*
D03*
D66*
X00080000Y00438000D02*
D03*
D67*
X00164224Y00206596D02*
D03*
D68*
X00620000Y00126231D02*
D03*
D69*
X00377487Y00083469D02*
D03*
D70*
X00377487Y00792531D02*
D03*
D71*
X00620000Y00749769D02*
D03*
D72*
X00778289Y00561127D02*
D03*
D73*
X00439150Y00492050D02*
D03*
X00457500D02*
D03*
X00475850D02*
D03*
Y00510400D02*
D03*
X00475850Y00528750D02*
D03*
X00457500Y00510400D02*
D03*
X00439150D02*
D03*
X00457500Y00528750D02*
D03*
X00439150Y00528750D02*
D03*
X00554059Y00544362D02*
D03*
X00550000Y00562500D02*
D03*
X00738475Y00565259D02*
D03*
X00366504Y00754039D02*
D03*
X00203151Y00658865D02*
D03*
X00310211Y00475146D02*
D03*
X00328392Y00461000D02*
D03*
X00575000Y00373000D02*
D03*
X00247500Y00442000D02*
D03*
X00747468Y00250397D02*
D03*
X00746750Y00218750D02*
D03*
X00711750Y00327500D02*
D03*
X00802674Y00448326D02*
D03*
X00515050Y00682608D02*
D03*
X00492000Y00674608D02*
D03*
X00630750Y00393750D02*
D03*
X00670500Y00328250D02*
D03*
X00694000Y00483750D02*
D03*
X00634250Y00237000D02*
D03*
X00634000Y00247000D02*
D03*
X00573750Y00259000D02*
D03*
X00768500Y00234250D02*
D03*
X00637750Y00269750D02*
D03*
X00333500Y00486250D02*
D03*
X00334000Y00473250D02*
D03*
X00638250Y00312520D02*
D03*
X00334500Y00524250D02*
D03*
X00276750Y00516750D02*
D03*
X00262500Y00516250D02*
D03*
X00603000Y00561000D02*
D03*
X00341000Y00615000D02*
D03*
X00556000Y00524000D02*
D03*
X00538050Y00688000D02*
D03*
X00680000Y00572000D02*
D03*
X00666000Y00446000D02*
D03*
X00806000Y00434000D02*
D03*
X00367000Y00657000D02*
D03*
D74*
X00231500Y00357000D02*
D03*
Y00516000D02*
D03*
D75*
X00196500Y00357000D02*
D03*
Y00516000D02*
D03*
D76*
X00348400Y00262000D02*
D03*
X00323000D02*
D03*
X00297600D02*
D03*
X00272200D02*
D03*
X00396800Y00148000D02*
D03*
X00371400Y00148000D02*
D03*
X00346000Y00148000D02*
D03*
X00320600Y00148000D02*
D03*
X00631000Y00208000D02*
D03*
X00605600D02*
D03*
X00580200D02*
D03*
X00554800D02*
D03*
X00453200D02*
D03*
X00478600D02*
D03*
X00504000D02*
D03*
X00529400D02*
D03*
D77*
X00653000Y00548600D02*
D03*
Y00523200D02*
D03*
Y00497800D02*
D03*
Y00472400D02*
D03*
Y00574000D02*
D03*
Y00599400D02*
D03*
Y00624800D02*
D03*
Y00650200D02*
D03*
X00290000Y00600000D02*
D03*
X00710000Y00516000D02*
D03*
D78*
X00232761Y00178341D02*
D03*
X00148299Y00278999D02*
D03*
X00232761Y00697659D02*
D03*
X00148299Y00597001D02*
D03*
D79*
X00233787Y00219278D02*
D03*
X00217718Y00238429D02*
D03*
X00204862Y00253750D02*
D03*
X00217718Y00637571D02*
D03*
X00204862Y00622250D02*
D03*
X00188792Y00603099D02*
D03*
X00826499Y00463763D02*
D03*
Y00413763D02*
D03*
D80*
X00188792Y00272901D02*
D03*
D81*
X00233787Y00656722D02*
D03*
D82*
X00070000Y00598000D02*
D03*
Y00278000D02*
D03*
X00720000Y00143000D02*
D03*
Y00733000D02*
D03*
D83*
X00601000Y00295000D02*
D03*
X00575000D02*
D03*
X00626000Y00334000D02*
D03*
X00600000D02*
D03*
D84*
X00627000Y00295000D02*
D03*
X00574000Y00334000D02*
D03*
D85*
X00080000Y00524000D02*
D03*
M02*
