M48
;Layer_Color=9474304
;FILE_FORMAT=4:4
METRIC
;TYPE=PLATED
T1F00S00C0.3000
T2F00S00C0.4000
T4F00S00C0.7112
T5F00S00C0.8500
T6F00S00C0.9000
T7F00S00C0.9200
T8F00S00C1.0160
T9F00S00C1.0200
T10F00S00C2.3000
;TYPE=NON_PLATED
T12F00S00C2.5000
%
T01
X00416000Y00242000
X00676000Y00247000
X00677000Y00277000
X00661000Y00333000
X00630000Y00382000
X00708000Y00233000
X00710000Y00224000
X00806000Y00434000
X00807000Y00444000
X00508000Y00452000
Y00462000
X00487000Y00477000
X00475850Y00492050
Y00510400
Y00528750
X00457500
X00439150
Y00510400
Y00492050
X00457500
Y00510400
X00456000Y00550000
X00436000Y00552000
X00406000Y00550000
X00441000Y00595000
X00515000Y00657000
X00538000
X00515000Y00524000
X00500540Y00503000
X00393000Y00498000
X00381000Y00461000
X00347000Y00489862
X00346965Y00534035
X00289000Y00424000
X00279000
T02
X00170344Y00138629
X00163916Y00146290
X00182601Y00148914
X00176173Y00156574
X00116685Y00227081
X00110257Y00234742
X00098000Y00224457
X00104428Y00216797
X00057000Y00382000
Y00392000
X00041000
Y00382000
X00318054Y00070340
X00327902Y00068604
X00325124Y00052847
X00315275Y00054583
X00418794Y00052831
X00428642Y00051094
X00425864Y00035337
X00416016Y00037074
X00590911Y00064114
X00599571Y00069114
X00591571Y00082971
X00582911Y00077971
X00679337Y00115456
X00687998Y00120456
X00679997Y00134312
X00671337Y00129312
X00780899Y00254063
X00784319Y00263460
X00799354Y00257988
X00795934Y00248591
X00815635Y00350232
X00819055Y00359629
X00834091Y00354157
X00830670Y00344760
X00834411Y00521694
X00830991Y00531091
X00815956Y00525619
X00819376Y00516222
X00799204Y00617692
X00795784Y00627089
X00780749Y00621617
X00784169Y00612220
X00680339Y00741779
X00671679Y00746779
X00679679Y00760636
X00688339Y00755636
X00591663Y00792688
X00182570Y00727438
X00176142Y00719778
X00163886Y00730062
X00170313Y00737723
X00117037Y00648950
X00110609Y00641289
X00098352Y00651574
X00104780Y00659234
X00056750Y00494250
Y00484250
X00040750
Y00494250
X00318344Y00805457
X00328192Y00807194
X00325413Y00822951
X00315565Y00821214
X00418997Y00823459
X00428845Y00825195
X00426066Y00840952
X00416218Y00839216
X00591003Y00811544
X00599663Y00806544
X00583003Y00797688
T04
X00742000Y00643000
X00080000Y00524000
T05
X00196500Y00357000
X00231500
X00826499Y00413763
Y00463763
X00465500Y00688750
X00430500
X00231500Y00516000
X00196500
T06
X00575000Y00295000
X00601000
X00627000
X00626000Y00334000
X00600000
X00574000
T07
X00233787Y00219278
X00217718Y00238429
X00204862Y00253750
X00188792Y00272901
Y00603099
X00204862Y00622250
X00217718Y00637571
X00233787Y00656722
T08
X00564000Y00448000
Y00473400
Y00498800
Y00524200
Y00549600
Y00575000
Y00600400
Y00625800
Y00651200
Y00676600
X00589400
Y00651200
Y00625800
Y00600400
Y00575000
Y00549600
Y00524200
Y00498800
Y00473400
Y00448000
X00335000Y00448000
X00309600
Y00473400
Y00498800
Y00524200
Y00549600
Y00575000
Y00600400
Y00625800
Y00651200
Y00676600
X00335400
Y00651200
Y00625800
Y00600400
Y00575000
Y00549600
Y00524200
Y00498800
Y00473400
T09
X00320600Y00148000
X00346000Y00148000
X00371400Y00148000
X00396800Y00148000
X00348400Y00262000
X00323000
X00297600
X00272200
X00453200Y00208000
X00478600
X00504000
X00529400
X00554800
X00580200
X00605600
X00631000
X00653000Y00472400
Y00497800
X00653000Y00523200
X00653000Y00548600
Y00574000
Y00599400
X00653000Y00624800
X00653000Y00650200
T10
X00232761Y00178341
X00148299Y00278999
X00148299Y00597001
X00232761Y00697659
T12
X00070000Y00278000
X00720000Y00143000
Y00733000
X00070000Y00598000
M30
